<svg xmlns="http://www.w3.org/2000/svg" viewBox="0 0 61.11 91.54"><defs><style>.ad39c5e2-b454-42df-8c47-5ce62a98bd9b{fill:none;}.b51c12ad-a245-488e-93cc-01ec8169c7ee{fill:#adadad;}.ab07dbf6-baf4-4fba-a496-03193f0ca691{fill:#f6413a;}.af124e49-95aa-4d06-bbd4-ea12243dbc2b{fill:#c51611;}.e41caec2-bba2-4155-b2f4-dbcb440d18c7{fill:#ffb3b3;}</style></defs><title>C_7</title><g id="be6ced20-06e5-462b-b134-d6a68004fab1" data-name="Capa 2"><g id="fb4698f9-0e43-48d4-9ca5-4fde03db639e" data-name="Objects"><rect class="ad39c5e2-b454-42df-8c47-5ce62a98bd9b" x="0.13" y="0.12" width="60.86" height="91.29" rx="2.4"/><path class="b51c12ad-a245-488e-93cc-01ec8169c7ee" d="M58.59,91.54H2.52A2.53,2.53,0,0,1,0,89V2.52A2.52,2.52,0,0,1,2.52,0H58.59a2.52,2.52,0,0,1,2.52,2.52V89A2.53,2.53,0,0,1,58.59,91.54ZM2.52.25A2.27,2.27,0,0,0,.25,2.52V89a2.28,2.28,0,0,0,2.27,2.28H58.59A2.28,2.28,0,0,0,60.86,89V2.52A2.27,2.27,0,0,0,58.59.25Z"/><path class="ab07dbf6-baf4-4fba-a496-03193f0ca691" d="M3.14,8.57a.31.31,0,0,1-.21-.07.25.25,0,0,1-.09-.19.44.44,0,0,1,0-.15L5.38,2.34l.11.12H2.29a.27.27,0,0,1-.2-.07A.28.28,0,0,1,2,2.19.26.26,0,0,1,2.09,2a.28.28,0,0,1,.2-.08H5.76A.29.29,0,0,1,6,2,.29.29,0,0,1,6,2.19a.28.28,0,0,1,0,.13L3.41,8.38a.31.31,0,0,1-.11.14A.33.33,0,0,1,3.14,8.57Z"/><path class="ab07dbf6-baf4-4fba-a496-03193f0ca691" d="M58.11,83a.32.32,0,0,1,.2.08.23.23,0,0,1,.09.19.39.39,0,0,1,0,.14l-2.5,5.82-.11-.12H59a.26.26,0,0,1,.19.08.23.23,0,0,1,.08.2.22.22,0,0,1-.08.18.22.22,0,0,1-.19.08H55.48a.22.22,0,0,1-.2-.08.24.24,0,0,1-.07-.18.59.59,0,0,1,0-.14l2.61-6.06A.28.28,0,0,1,58,83,.25.25,0,0,1,58.11,83Z"/><path class="ab07dbf6-baf4-4fba-a496-03193f0ca691" d="M4.65,8.88a.9.9,0,0,0-.81.52A.93.93,0,0,0,3,8.88c-.5,0-.9.59-.9,1.08,0,1.09,1.72,2,1.72,2s1.71-.92,1.71-2C5.55,9.47,5.15,8.88,4.65,8.88Z"/><path class="af124e49-95aa-4d06-bbd4-ea12243dbc2b" d="M3.83,12h0S2.1,11,2.1,10c0-.49.41-1.1.92-1.1a.92.92,0,0,1,.81.5.94.94,0,0,1,.82-.5c.51,0,.92.61.92,1.1,0,1.08-1.71,2-1.73,2ZM3,8.9c-.49,0-.88.58-.88,1.06,0,1,1.56,1.92,1.69,2s1.7-1,1.7-2c0-.48-.39-1.06-.88-1.06a.89.89,0,0,0-.8.51h0A.89.89,0,0,0,3,8.9Z"/><path class="e41caec2-bba2-4155-b2f4-dbcb440d18c7" d="M5.28,10.21h0a.08.08,0,0,1-.07-.1.76.76,0,0,0-.45-.91.1.1,0,0,1,0-.11A.09.09,0,0,1,4.81,9a1,1,0,0,1,.55,1.11A.08.08,0,0,1,5.28,10.21Z"/><path class="e41caec2-bba2-4155-b2f4-dbcb440d18c7" d="M5.21,10.52h0a.09.09,0,0,1-.07-.11l0-.11a.07.07,0,0,1,.1-.06.08.08,0,0,1,.07.1l0,.11A.09.09,0,0,1,5.21,10.52Z"/><path class="ab07dbf6-baf4-4fba-a496-03193f0ca691" d="M56.48,82.65a.88.88,0,0,0,.81-.52.91.91,0,0,0,.82.52,1.08,1.08,0,0,0,.9-1.08c0-1.08-1.72-2-1.72-2s-1.71.93-1.71,2A1.07,1.07,0,0,0,56.48,82.65Z"/><path class="af124e49-95aa-4d06-bbd4-ea12243dbc2b" d="M57.29,79.55h0s1.73.94,1.73,2a1.1,1.1,0,0,1-.92,1.1.93.93,0,0,1-.82-.5.9.9,0,0,1-.81.5,1.1,1.1,0,0,1-.92-1.1c0-1.08,1.71-2,1.73-2Zm.82,3.08c.49,0,.88-.58.88-1.06,0-1-1.56-1.91-1.7-2s-1.69,1-1.69,2c0,.48.39,1.06.88,1.06a.89.89,0,0,0,.8-.51h0A.89.89,0,0,0,58.11,82.63Z"/><path class="e41caec2-bba2-4155-b2f4-dbcb440d18c7" d="M55.85,81.32h0a.07.07,0,0,1,.07.09.78.78,0,0,0,.44.92.09.09,0,0,1,.06.11.08.08,0,0,1-.11,0,.94.94,0,0,1-.55-1.1A.08.08,0,0,1,55.85,81.32Z"/><path class="e41caec2-bba2-4155-b2f4-dbcb440d18c7" d="M55.92,81h0a.09.09,0,0,1,.07.1l0,.12a.09.09,0,0,1-.1.06.09.09,0,0,1-.07-.1l0-.12A.08.08,0,0,1,55.92,81Z"/><path class="ab07dbf6-baf4-4fba-a496-03193f0ca691" d="M19.77,9.4a3.5,3.5,0,0,0-3.17,2,3.49,3.49,0,0,0-3.17-2c-1.94,0-3.51,2.28-3.51,4.21,0,4.22,6.68,7.82,6.68,7.82s6.68-3.6,6.68-7.82C23.28,11.68,21.71,9.4,19.77,9.4Z"/><path class="af124e49-95aa-4d06-bbd4-ea12243dbc2b" d="M16.6,21.51h0c-.07,0-6.72-3.68-6.72-7.89,0-1.94,1.6-4.28,3.58-4.28a3.57,3.57,0,0,1,3.17,1.94,3.58,3.58,0,0,1,3.17-1.94c2,0,3.58,2.34,3.58,4.28,0,4.21-6.65,7.85-6.71,7.89Zm-3.17-12c-1.9,0-3.44,2.27-3.44,4.14,0,4,6.1,7.46,6.61,7.74.52-.28,6.61-3.77,6.61-7.74,0-1.87-1.53-4.14-3.44-4.14a3.43,3.43,0,0,0-3.1,2,.1.1,0,0,1-.07,0h0a.07.07,0,0,1-.06,0A3.46,3.46,0,0,0,13.43,9.47Z"/><path class="e41caec2-bba2-4155-b2f4-dbcb440d18c7" d="M22.23,14.58h-.05a.33.33,0,0,1-.28-.37c.39-2.87-1.63-3.55-1.72-3.58a.33.33,0,0,1,.2-.63s2.64.86,2.18,4.3A.34.34,0,0,1,22.23,14.58Z"/><path class="e41caec2-bba2-4155-b2f4-dbcb440d18c7" d="M22,15.78h-.08a.34.34,0,0,1-.25-.4l.11-.45a.33.33,0,0,1,.4-.25.32.32,0,0,1,.24.4l-.1.45A.34.34,0,0,1,22,15.78Z"/><path class="ab07dbf6-baf4-4fba-a496-03193f0ca691" d="M47.68,9.4a3.48,3.48,0,0,0-3.17,2,3.5,3.5,0,0,0-3.18-2c-1.93,0-3.5,2.28-3.5,4.21,0,4.22,6.68,7.82,6.68,7.82s6.68-3.6,6.68-7.82C51.19,11.68,49.61,9.4,47.68,9.4Z"/><path class="af124e49-95aa-4d06-bbd4-ea12243dbc2b" d="M44.51,21.51h0c-.07,0-6.72-3.68-6.72-7.89,0-1.94,1.6-4.28,3.58-4.28a3.6,3.6,0,0,1,3.18,1.94,3.57,3.57,0,0,1,3.17-1.94c2,0,3.58,2.34,3.58,4.28,0,4.21-6.65,7.85-6.72,7.89Zm-3.18-12c-1.9,0-3.43,2.27-3.43,4.14,0,4,6.09,7.46,6.61,7.74.51-.28,6.6-3.77,6.6-7.74,0-1.87-1.53-4.14-3.43-4.14a3.45,3.45,0,0,0-3.11,2,.08.08,0,0,1-.06,0h0a.08.08,0,0,1-.07,0A3.44,3.44,0,0,0,41.33,9.47Z"/><path class="e41caec2-bba2-4155-b2f4-dbcb440d18c7" d="M50.13,14.58h0a.34.34,0,0,1-.29-.37c.39-2.87-1.63-3.55-1.71-3.58a.33.33,0,1,1,.2-.63s2.64.86,2.17,4.3A.33.33,0,0,1,50.13,14.58Z"/><path class="e41caec2-bba2-4155-b2f4-dbcb440d18c7" d="M49.85,15.78h-.08a.32.32,0,0,1-.24-.4l.1-.45a.33.33,0,1,1,.65.15l-.11.45A.33.33,0,0,1,49.85,15.78Z"/><path class="ab07dbf6-baf4-4fba-a496-03193f0ca691" d="M19.77,37.67a3.52,3.52,0,0,0-3.17,2,3.51,3.51,0,0,0-3.17-2c-1.94,0-3.51,2.28-3.51,4.21,0,4.22,6.68,7.83,6.68,7.83s6.68-3.61,6.68-7.83C23.28,40,21.71,37.67,19.77,37.67Z"/><path class="af124e49-95aa-4d06-bbd4-ea12243dbc2b" d="M16.6,49.78h0c-.07,0-6.72-3.68-6.72-7.89,0-1.94,1.6-4.28,3.58-4.28a3.59,3.59,0,0,1,3.17,1.94,3.6,3.6,0,0,1,3.17-1.94c2,0,3.58,2.34,3.58,4.28,0,4.21-6.65,7.85-6.71,7.89Zm-3.17-12C11.53,37.74,10,40,10,41.88c0,4,6.1,7.46,6.61,7.75.52-.29,6.61-3.78,6.61-7.75,0-1.87-1.53-4.14-3.44-4.14a3.43,3.43,0,0,0-3.1,2,.08.08,0,0,1-.07,0h0a.05.05,0,0,1-.06,0A3.46,3.46,0,0,0,13.43,37.74Z"/><path class="e41caec2-bba2-4155-b2f4-dbcb440d18c7" d="M22.23,42.85h-.05a.34.34,0,0,1-.28-.38c.39-2.86-1.63-3.55-1.72-3.58a.32.32,0,0,1-.21-.41.33.33,0,0,1,.41-.22s2.64.87,2.18,4.3A.34.34,0,0,1,22.23,42.85Z"/><path class="e41caec2-bba2-4155-b2f4-dbcb440d18c7" d="M22,44.05h-.08a.33.33,0,0,1-.25-.4l.11-.45a.32.32,0,0,1,.4-.24.31.31,0,0,1,.24.39l-.1.45A.33.33,0,0,1,22,44.05Z"/><path class="ab07dbf6-baf4-4fba-a496-03193f0ca691" d="M34.14,22.93A3.48,3.48,0,0,0,31,25a3.5,3.5,0,0,0-3.18-2c-1.93,0-3.5,2.27-3.5,4.21C24.29,31.35,31,35,31,35s6.68-3.61,6.68-7.82C37.65,25.2,36.07,22.93,34.14,22.93Z"/><path class="af124e49-95aa-4d06-bbd4-ea12243dbc2b" d="M31,35h0c-.07,0-6.72-3.68-6.72-7.89,0-1.94,1.6-4.28,3.58-4.28A3.61,3.61,0,0,1,31,24.79a3.58,3.58,0,0,1,3.17-1.93c2,0,3.58,2.34,3.58,4.28C37.72,31.35,31.07,35,31,35ZM27.79,23c-1.9,0-3.43,2.27-3.43,4.14,0,4,6.09,7.45,6.61,7.74.51-.29,6.6-3.77,6.6-7.74C37.57,25.27,36,23,34.14,23A3.45,3.45,0,0,0,31,25,.08.08,0,0,1,31,25h0a.08.08,0,0,1-.07,0A3.44,3.44,0,0,0,27.79,23Z"/><path class="e41caec2-bba2-4155-b2f4-dbcb440d18c7" d="M36.59,28.1h0a.34.34,0,0,1-.29-.37c.39-2.87-1.63-3.55-1.71-3.58a.34.34,0,0,1-.22-.42.33.33,0,0,1,.42-.21s2.64.86,2.17,4.3A.33.33,0,0,1,36.59,28.1Z"/><path class="e41caec2-bba2-4155-b2f4-dbcb440d18c7" d="M36.31,29.3h-.08a.33.33,0,0,1-.24-.4l.1-.45a.34.34,0,0,1,.4-.25.33.33,0,0,1,.25.4l-.11.45A.33.33,0,0,1,36.31,29.3Z"/><path class="ab07dbf6-baf4-4fba-a496-03193f0ca691" d="M47.68,37.67a3.5,3.5,0,0,0-3.17,2,3.52,3.52,0,0,0-3.18-2c-1.93,0-3.5,2.28-3.5,4.21,0,4.22,6.68,7.83,6.68,7.83s6.68-3.61,6.68-7.83C51.19,40,49.61,37.67,47.68,37.67Z"/><path class="af124e49-95aa-4d06-bbd4-ea12243dbc2b" d="M44.51,49.78h0c-.07,0-6.72-3.68-6.72-7.89,0-1.94,1.6-4.28,3.58-4.28a3.62,3.62,0,0,1,3.18,1.94,3.59,3.59,0,0,1,3.17-1.94c2,0,3.58,2.34,3.58,4.28,0,4.21-6.65,7.85-6.72,7.89Zm-3.18-12c-1.9,0-3.43,2.27-3.43,4.14,0,4,6.09,7.46,6.61,7.75.51-.29,6.6-3.78,6.6-7.75,0-1.87-1.53-4.14-3.43-4.14a3.45,3.45,0,0,0-3.11,2,.06.06,0,0,1-.06,0h0a.07.07,0,0,1-.07,0A3.44,3.44,0,0,0,41.33,37.74Z"/><path class="e41caec2-bba2-4155-b2f4-dbcb440d18c7" d="M50.13,42.85h0a.35.35,0,0,1-.29-.38c.39-2.86-1.63-3.55-1.71-3.58a.33.33,0,0,1-.22-.41.34.34,0,0,1,.42-.22s2.64.87,2.17,4.3A.33.33,0,0,1,50.13,42.85Z"/><path class="e41caec2-bba2-4155-b2f4-dbcb440d18c7" d="M49.85,44.05h-.08a.32.32,0,0,1-.24-.4l.1-.45A.32.32,0,0,1,50,43a.33.33,0,0,1,.25.39l-.11.45A.32.32,0,0,1,49.85,44.05Z"/><path class="ab07dbf6-baf4-4fba-a496-03193f0ca691" d="M19.77,70.1a3.5,3.5,0,0,0-3.17,2,3.49,3.49,0,0,0-3.17-2c-1.94,0-3.51,2.28-3.51,4.21,0,4.22,6.68,7.83,6.68,7.83s6.68-3.61,6.68-7.83C23.28,72.38,21.71,70.1,19.77,70.1Z"/><path class="af124e49-95aa-4d06-bbd4-ea12243dbc2b" d="M16.6,82.21h0c-.07,0-6.72-3.68-6.72-7.89,0-1.94,1.6-4.28,3.58-4.28A3.57,3.57,0,0,1,16.6,72,3.58,3.58,0,0,1,19.77,70c2,0,3.58,2.34,3.58,4.28,0,4.21-6.65,7.85-6.71,7.89Zm-3.17-12c-1.9,0-3.44,2.27-3.44,4.14,0,4,6.1,7.46,6.61,7.74.52-.28,6.61-3.77,6.61-7.74,0-1.87-1.53-4.14-3.44-4.14a3.43,3.43,0,0,0-3.1,2,.1.1,0,0,1-.07,0h0a.07.07,0,0,1-.06,0A3.46,3.46,0,0,0,13.43,70.17Z"/><path class="e41caec2-bba2-4155-b2f4-dbcb440d18c7" d="M22.23,75.28h-.05a.33.33,0,0,1-.28-.37c.39-2.86-1.63-3.55-1.72-3.58a.32.32,0,0,1-.21-.41.33.33,0,0,1,.41-.22s2.64.87,2.18,4.3A.34.34,0,0,1,22.23,75.28Z"/><path class="e41caec2-bba2-4155-b2f4-dbcb440d18c7" d="M22,76.48h-.08a.33.33,0,0,1-.25-.4l.11-.45a.33.33,0,0,1,.4-.25.32.32,0,0,1,.24.4l-.1.45A.34.34,0,0,1,22,76.48Z"/><path class="ab07dbf6-baf4-4fba-a496-03193f0ca691" d="M47.68,70.1a3.48,3.48,0,0,0-3.17,2,3.5,3.5,0,0,0-3.18-2c-1.93,0-3.5,2.28-3.5,4.21,0,4.22,6.68,7.83,6.68,7.83s6.68-3.61,6.68-7.83C51.19,72.38,49.61,70.1,47.68,70.1Z"/><path class="af124e49-95aa-4d06-bbd4-ea12243dbc2b" d="M44.51,82.21h0c-.07,0-6.72-3.68-6.72-7.89,0-1.94,1.6-4.28,3.58-4.28A3.6,3.6,0,0,1,44.51,72,3.57,3.57,0,0,1,47.68,70c2,0,3.58,2.34,3.58,4.28,0,4.21-6.65,7.85-6.72,7.89Zm-3.18-12c-1.9,0-3.43,2.27-3.43,4.14,0,4,6.09,7.46,6.61,7.74.51-.28,6.6-3.77,6.6-7.74,0-1.87-1.53-4.14-3.43-4.14a3.45,3.45,0,0,0-3.11,2,.08.08,0,0,1-.06,0h0a.08.08,0,0,1-.07,0A3.44,3.44,0,0,0,41.33,70.17Z"/><path class="e41caec2-bba2-4155-b2f4-dbcb440d18c7" d="M50.13,75.28h0a.34.34,0,0,1-.29-.37c.39-2.86-1.63-3.55-1.71-3.58a.33.33,0,0,1-.22-.41.34.34,0,0,1,.42-.22s2.64.87,2.17,4.3A.33.33,0,0,1,50.13,75.28Z"/><path class="e41caec2-bba2-4155-b2f4-dbcb440d18c7" d="M49.85,76.48h-.08a.32.32,0,0,1-.24-.4l.1-.45a.33.33,0,1,1,.65.15l-.11.45A.33.33,0,0,1,49.85,76.48Z"/></g></g></svg>