<svg xmlns="http://www.w3.org/2000/svg" viewBox="0 0 61.11 91.54"><defs><style>.b1e5aeef-5734-4882-bd83-483e95da3726{fill:none;}.b4fb3730-8730-4a0d-ac37-2d0cd79f7c14{fill:#adadad;}.f2ac820a-ce89-4ff7-ad2f-e4d9905ce05a{fill:#f6413a;}.fdb0ee09-2c87-45e0-9a40-2925a2816917{fill:#c51611;}.b5356159-8e4a-4eef-81c2-dfdbc499458f{fill:#ffb3b3;}</style></defs><title>C_4</title><g id="bc9fbb4c-7a35-423c-abf6-06fb693f5de7" data-name="Capa 2"><g id="ab17fd01-902e-423d-841d-48c2fb974250" data-name="Objects"><rect class="b1e5aeef-5734-4882-bd83-483e95da3726" x="0.13" y="0.12" width="60.86" height="91.29" rx="2.4"/><path class="b4fb3730-8730-4a0d-ac37-2d0cd79f7c14" d="M58.59,91.54H2.52A2.53,2.53,0,0,1,0,89V2.52A2.52,2.52,0,0,1,2.52,0H58.59a2.52,2.52,0,0,1,2.52,2.52V89A2.53,2.53,0,0,1,58.59,91.54ZM2.52.25A2.27,2.27,0,0,0,.25,2.52V89a2.28,2.28,0,0,0,2.27,2.28H58.59A2.28,2.28,0,0,0,60.86,89V2.52A2.27,2.27,0,0,0,58.59.25Z"/><path class="f2ac820a-ce89-4ff7-ad2f-e4d9905ce05a" d="M4.46,8.54a.27.27,0,0,1-.27-.28V2.71l.12.07L1.83,6.08,1.8,6H5.39a.26.26,0,0,1,.19.08.22.22,0,0,1,.08.19.26.26,0,0,1-.27.26h-4a.27.27,0,0,1-.2-.09.27.27,0,0,1-.08-.2A.33.33,0,0,1,1.19,6L4.24,2A.18.18,0,0,1,4.36,2l.11,0A.27.27,0,0,1,4.68,2a.3.3,0,0,1,.08.2V8.26a.27.27,0,0,1-.09.2A.3.3,0,0,1,4.46,8.54Z"/><path class="f2ac820a-ce89-4ff7-ad2f-e4d9905ce05a" d="M56.64,83a.24.24,0,0,1,.2.09.28.28,0,0,1,.08.2v5.55l-.12-.08,2.48-3.29,0,.1H55.72a.29.29,0,0,1-.2-.07.27.27,0,0,1-.08-.19.26.26,0,0,1,.08-.19.3.3,0,0,1,.2-.08h4a.28.28,0,0,1,.2.09.32.32,0,0,1,.08.21.33.33,0,0,1-.06.19l-3.05,4a.27.27,0,0,1-.12.09l-.12,0a.3.3,0,0,1-.2-.08.32.32,0,0,1-.08-.2v-6a.31.31,0,0,1,.29-.29Z"/><path class="f2ac820a-ce89-4ff7-ad2f-e4d9905ce05a" d="M4.64,8.88a.93.93,0,0,0-.82.52A.9.9,0,0,0,3,8.88c-.5,0-.9.59-.9,1.08,0,1.09,1.71,2,1.71,2s1.72-.92,1.72-2C5.54,9.47,5.14,8.88,4.64,8.88Z"/><path class="fdb0ee09-2c87-45e0-9a40-2925a2816917" d="M3.82,12h0s-1.73-1-1.73-2c0-.49.41-1.1.92-1.1a.92.92,0,0,1,.81.5.94.94,0,0,1,.82-.5c.51,0,.92.61.92,1.1,0,1.08-1.71,2-1.73,2ZM3,8.9c-.49,0-.88.58-.88,1.06,0,1,1.56,1.92,1.69,2s1.7-1,1.7-2c0-.48-.39-1.06-.88-1.06a.89.89,0,0,0-.8.51h0A.89.89,0,0,0,3,8.9Z"/><path class="b5356159-8e4a-4eef-81c2-dfdbc499458f" d="M5.27,10.21h0a.1.1,0,0,1-.08-.1.75.75,0,0,0-.44-.91.09.09,0,0,1,0-.11A.08.08,0,0,1,4.79,9a1,1,0,0,1,.56,1.11A.08.08,0,0,1,5.27,10.21Z"/><path class="b5356159-8e4a-4eef-81c2-dfdbc499458f" d="M5.2,10.52h0a.09.09,0,0,1-.07-.11l0-.11a.07.07,0,0,1,.1-.06.08.08,0,0,1,.07.1l0,.11A.09.09,0,0,1,5.2,10.52Z"/><path class="f2ac820a-ce89-4ff7-ad2f-e4d9905ce05a" d="M56.47,82.65a.88.88,0,0,0,.81-.52.91.91,0,0,0,.82.52,1.08,1.08,0,0,0,.9-1.08c0-1.08-1.72-2-1.72-2s-1.71.93-1.71,2A1.07,1.07,0,0,0,56.47,82.65Z"/><path class="fdb0ee09-2c87-45e0-9a40-2925a2816917" d="M57.28,79.55h0s1.73.94,1.73,2a1.1,1.1,0,0,1-.92,1.1.93.93,0,0,1-.82-.5.9.9,0,0,1-.81.5,1.1,1.1,0,0,1-.92-1.1c0-1.08,1.71-2,1.72-2Zm.82,3.08c.49,0,.88-.58.88-1.06,0-1-1.56-1.91-1.7-2s-1.69,1-1.69,2c0,.48.39,1.06.88,1.06a.89.89,0,0,0,.8-.51h0A.88.88,0,0,0,58.1,82.63Z"/><path class="b5356159-8e4a-4eef-81c2-dfdbc499458f" d="M55.84,81.32h0a.07.07,0,0,1,.07.09.78.78,0,0,0,.44.92.09.09,0,0,1,.06.11.09.09,0,0,1-.11,0,.94.94,0,0,1-.55-1.1A.08.08,0,0,1,55.84,81.32Z"/><path class="b5356159-8e4a-4eef-81c2-dfdbc499458f" d="M55.91,81h0a.09.09,0,0,1,.07.1l0,.12a.09.09,0,0,1-.1.06.09.09,0,0,1-.07-.1l0-.12A.08.08,0,0,1,55.91,81Z"/><path class="f2ac820a-ce89-4ff7-ad2f-e4d9905ce05a" d="M19.77,9.4a3.5,3.5,0,0,0-3.17,2,3.49,3.49,0,0,0-3.17-2c-1.94,0-3.51,2.28-3.51,4.21,0,4.22,6.68,7.82,6.68,7.82s6.68-3.6,6.68-7.82C23.28,11.68,21.71,9.4,19.77,9.4Z"/><path class="fdb0ee09-2c87-45e0-9a40-2925a2816917" d="M16.6,21.51h0c-.07,0-6.72-3.68-6.72-7.89,0-1.94,1.6-4.28,3.58-4.28a3.57,3.57,0,0,1,3.17,1.94,3.58,3.58,0,0,1,3.17-1.94c2,0,3.58,2.34,3.58,4.28,0,4.21-6.65,7.85-6.71,7.89Zm-3.17-12c-1.9,0-3.44,2.27-3.44,4.14,0,4,6.1,7.46,6.61,7.74.52-.28,6.61-3.77,6.61-7.74,0-1.87-1.53-4.14-3.44-4.14a3.43,3.43,0,0,0-3.1,2,.1.1,0,0,1-.07,0h0a.07.07,0,0,1-.06,0A3.46,3.46,0,0,0,13.43,9.47Z"/><path class="b5356159-8e4a-4eef-81c2-dfdbc499458f" d="M22.23,14.58h-.05a.33.33,0,0,1-.28-.37c.39-2.87-1.63-3.55-1.72-3.58a.33.33,0,0,1,.2-.63s2.64.86,2.18,4.3A.34.34,0,0,1,22.23,14.58Z"/><path class="b5356159-8e4a-4eef-81c2-dfdbc499458f" d="M22,15.78h-.08a.34.34,0,0,1-.25-.4l.11-.45a.33.33,0,0,1,.4-.25.32.32,0,0,1,.24.4l-.1.45A.34.34,0,0,1,22,15.78Z"/><path class="f2ac820a-ce89-4ff7-ad2f-e4d9905ce05a" d="M47.68,9.4a3.48,3.48,0,0,0-3.17,2,3.5,3.5,0,0,0-3.18-2c-1.93,0-3.5,2.28-3.5,4.21,0,4.22,6.68,7.82,6.68,7.82s6.68-3.6,6.68-7.82C51.19,11.68,49.61,9.4,47.68,9.4Z"/><path class="fdb0ee09-2c87-45e0-9a40-2925a2816917" d="M44.51,21.51h0c-.07,0-6.72-3.68-6.72-7.89,0-1.94,1.6-4.28,3.58-4.28a3.6,3.6,0,0,1,3.18,1.94,3.57,3.57,0,0,1,3.17-1.94c2,0,3.58,2.34,3.58,4.28,0,4.21-6.65,7.85-6.72,7.89Zm-3.18-12c-1.9,0-3.43,2.27-3.43,4.14,0,4,6.09,7.46,6.61,7.74.51-.28,6.6-3.77,6.6-7.74,0-1.87-1.53-4.14-3.43-4.14a3.45,3.45,0,0,0-3.11,2,.08.08,0,0,1-.06,0h0a.08.08,0,0,1-.07,0A3.44,3.44,0,0,0,41.33,9.47Z"/><path class="b5356159-8e4a-4eef-81c2-dfdbc499458f" d="M50.13,14.58h0a.34.34,0,0,1-.29-.37c.39-2.87-1.63-3.55-1.71-3.58a.33.33,0,1,1,.2-.63s2.64.86,2.17,4.3A.33.33,0,0,1,50.13,14.58Z"/><path class="b5356159-8e4a-4eef-81c2-dfdbc499458f" d="M49.85,15.78h-.08a.32.32,0,0,1-.24-.4l.1-.45a.33.33,0,1,1,.65.15l-.11.45A.33.33,0,0,1,49.85,15.78Z"/><path class="f2ac820a-ce89-4ff7-ad2f-e4d9905ce05a" d="M19.77,70.1a3.5,3.5,0,0,0-3.17,2,3.49,3.49,0,0,0-3.17-2c-1.94,0-3.51,2.28-3.51,4.21,0,4.22,6.68,7.83,6.68,7.83s6.68-3.61,6.68-7.83C23.28,72.38,21.71,70.1,19.77,70.1Z"/><path class="fdb0ee09-2c87-45e0-9a40-2925a2816917" d="M16.6,82.21h0c-.07,0-6.72-3.68-6.72-7.89,0-1.94,1.6-4.28,3.58-4.28A3.57,3.57,0,0,1,16.6,72,3.58,3.58,0,0,1,19.77,70c2,0,3.58,2.34,3.58,4.28,0,4.21-6.65,7.85-6.71,7.89Zm-3.17-12c-1.9,0-3.44,2.27-3.44,4.14,0,4,6.1,7.46,6.61,7.74.52-.28,6.61-3.77,6.61-7.74,0-1.87-1.53-4.14-3.44-4.14a3.43,3.43,0,0,0-3.1,2,.1.1,0,0,1-.07,0h0a.07.07,0,0,1-.06,0A3.46,3.46,0,0,0,13.43,70.17Z"/><path class="b5356159-8e4a-4eef-81c2-dfdbc499458f" d="M22.23,75.28h-.05a.33.33,0,0,1-.28-.37c.39-2.86-1.63-3.55-1.72-3.58a.32.32,0,0,1-.21-.41.33.33,0,0,1,.41-.22s2.64.87,2.18,4.3A.34.34,0,0,1,22.23,75.28Z"/><path class="b5356159-8e4a-4eef-81c2-dfdbc499458f" d="M22,76.48h-.08a.33.33,0,0,1-.25-.4l.11-.45a.33.33,0,0,1,.4-.25.32.32,0,0,1,.24.4l-.1.45A.34.34,0,0,1,22,76.48Z"/><path class="f2ac820a-ce89-4ff7-ad2f-e4d9905ce05a" d="M47.68,70.1a3.48,3.48,0,0,0-3.17,2,3.5,3.5,0,0,0-3.18-2c-1.93,0-3.5,2.28-3.5,4.21,0,4.22,6.68,7.83,6.68,7.83s6.68-3.61,6.68-7.83C51.19,72.38,49.61,70.1,47.68,70.1Z"/><path class="fdb0ee09-2c87-45e0-9a40-2925a2816917" d="M44.51,82.21h0c-.07,0-6.72-3.68-6.72-7.89,0-1.94,1.6-4.28,3.58-4.28A3.6,3.6,0,0,1,44.51,72,3.57,3.57,0,0,1,47.68,70c2,0,3.58,2.34,3.58,4.28,0,4.21-6.65,7.85-6.72,7.89Zm-3.18-12c-1.9,0-3.43,2.27-3.43,4.14,0,4,6.09,7.46,6.61,7.74.51-.28,6.6-3.77,6.6-7.74,0-1.87-1.53-4.14-3.43-4.14a3.45,3.45,0,0,0-3.11,2,.08.08,0,0,1-.06,0h0a.08.08,0,0,1-.07,0A3.44,3.44,0,0,0,41.33,70.17Z"/><path class="b5356159-8e4a-4eef-81c2-dfdbc499458f" d="M50.13,75.28h0a.34.34,0,0,1-.29-.37c.39-2.86-1.63-3.55-1.71-3.58a.33.33,0,0,1-.22-.41.34.34,0,0,1,.42-.22s2.64.87,2.17,4.3A.33.33,0,0,1,50.13,75.28Z"/><path class="b5356159-8e4a-4eef-81c2-dfdbc499458f" d="M49.85,76.48h-.08a.32.32,0,0,1-.24-.4l.1-.45a.33.33,0,1,1,.65.15l-.11.45A.33.33,0,0,1,49.85,76.48Z"/></g></g></svg>