<svg xmlns="http://www.w3.org/2000/svg" viewBox="0 0 61.11 91.54"><defs><style>.b2137487-0650-446b-9d5e-a5842656269e{fill:none;}.b20b2ab0-e2fc-40f8-a070-a21c2f550e2e{fill:#adadad;}.fb253d77-c19b-4af0-bbf5-1888640dd17c{fill:#f6413a;}.b7d9eaa2-f949-4586-b8cb-7877ca010798{fill:#c51611;}.ffc4e48a-83e7-4193-8c8b-d88e27ca3b03{fill:#ffb3b3;}</style></defs><title>C_9</title><g id="ac86fb33-b21f-41a0-af1b-7d122fdeaa7f" data-name="Capa 2"><g id="e3fa898c-a686-4919-9335-add4336b3580" data-name="Objects"><rect class="b2137487-0650-446b-9d5e-a5842656269e" x="0.13" y="0.12" width="60.86" height="91.29" rx="2.4"/><path class="b20b2ab0-e2fc-40f8-a070-a21c2f550e2e" d="M58.59,91.54H2.52A2.53,2.53,0,0,1,0,89V2.52A2.52,2.52,0,0,1,2.52,0H58.59a2.52,2.52,0,0,1,2.52,2.52V89A2.53,2.53,0,0,1,58.59,91.54ZM2.52.25A2.27,2.27,0,0,0,.25,2.52V89a2.28,2.28,0,0,0,2.27,2.28H58.59A2.28,2.28,0,0,0,60.86,89V2.52A2.27,2.27,0,0,0,58.59.25Z"/><path class="fb253d77-c19b-4af0-bbf5-1888640dd17c" d="M4,1.82A2.19,2.19,0,0,1,5,2a1.81,1.81,0,0,1,.68.53,2.22,2.22,0,0,1,.4.76,2.91,2.91,0,0,1,.13.87,4.81,4.81,0,0,1-.11,1,6.06,6.06,0,0,1-.35,1,5.51,5.51,0,0,1-.59,1,4.53,4.53,0,0,1-.8.84,3.5,3.5,0,0,1-1,.59l-.12,0A.29.29,0,0,1,3,8.54a.25.25,0,0,1-.09-.2A.24.24,0,0,1,3,8.17a.42.42,0,0,1,.17-.11,3.75,3.75,0,0,0,1-.67,5.11,5.11,0,0,0,.87-1,3.61,3.61,0,0,0,.48-1.22L5.74,5a2.27,2.27,0,0,1-.44.54A1.91,1.91,0,0,1,4.68,6a2.06,2.06,0,0,1-.76.14,1.72,1.72,0,0,1-.78-.18,2,2,0,0,1-.62-.48,2.42,2.42,0,0,1-.41-.69A2.18,2.18,0,0,1,2,3.94a2.11,2.11,0,0,1,.27-1A2.27,2.27,0,0,1,3,2.12,1.94,1.94,0,0,1,4,1.82Zm0,.55a1.52,1.52,0,0,0-.77.19,1.39,1.39,0,0,0-.54.56,1.68,1.68,0,0,0-.19.82,1.71,1.71,0,0,0,.17.78A1.36,1.36,0,0,0,4,5.54a1.6,1.6,0,0,0,.86-.23,1.45,1.45,0,0,0,.56-.59,1.67,1.67,0,0,0,.19-.81,1.56,1.56,0,0,0-.19-.76,1.38,1.38,0,0,0-.54-.56A1.51,1.51,0,0,0,4.05,2.37Z"/><path class="fb253d77-c19b-4af0-bbf5-1888640dd17c" d="M57.2,89.71a2.25,2.25,0,0,1-1-.19,2,2,0,0,1-.68-.54,2.31,2.31,0,0,1-.4-.76,3.15,3.15,0,0,1-.12-.87,4.31,4.31,0,0,1,.11-1,5.22,5.22,0,0,1,.35-1,5.46,5.46,0,0,1,.58-1,4.89,4.89,0,0,1,.8-.84,3.68,3.68,0,0,1,1-.59.23.23,0,0,1,.11,0,.35.35,0,0,1,.22.08.29.29,0,0,1,.09.21.24.24,0,0,1-.07.17.37.37,0,0,1-.16.1,3.87,3.87,0,0,0-1,.68,4.33,4.33,0,0,0-.87,1,3.18,3.18,0,0,0-.48,1.22l-.21.12A2.09,2.09,0,0,1,56,86a2,2,0,0,1,.61-.38,2.1,2.1,0,0,1,.76-.14,1.73,1.73,0,0,1,.79.18,1.7,1.7,0,0,1,.62.48,2.38,2.38,0,0,1,.55,1.49,2.1,2.1,0,0,1-.27,1,2.13,2.13,0,0,1-.74.78A1.93,1.93,0,0,1,57.2,89.71Zm0-.54A1.56,1.56,0,0,0,58,89a1.4,1.4,0,0,0,.53-.55,1.68,1.68,0,0,0,.19-.82,1.85,1.85,0,0,0-.16-.78,1.37,1.37,0,0,0-.5-.59,1.32,1.32,0,0,0-.8-.23,1.63,1.63,0,0,0-.87.22,1.56,1.56,0,0,0-.55.59,1.74,1.74,0,0,0-.2.82,1.61,1.61,0,0,0,.19.75,1.51,1.51,0,0,0,1.39.79Z"/><path class="fb253d77-c19b-4af0-bbf5-1888640dd17c" d="M4.64,8.88a.92.92,0,0,0-.82.52A.9.9,0,0,0,3,8.88c-.5,0-.9.59-.9,1.08,0,1.09,1.71,2,1.71,2s1.72-.92,1.72-2C5.54,9.47,5.13,8.88,4.64,8.88Z"/><path class="b7d9eaa2-f949-4586-b8cb-7877ca010798" d="M3.82,12h0s-1.72-1-1.72-2c0-.49.41-1.1.92-1.1a.93.93,0,0,1,.81.5.93.93,0,0,1,.82-.5c.5,0,.91.61.91,1.1,0,1.08-1.7,2-1.72,2ZM3,8.9c-.49,0-.88.58-.88,1.06,0,1,1.56,1.92,1.69,2s1.7-1,1.7-2c0-.48-.4-1.06-.88-1.06a.88.88,0,0,0-.8.51h0A.87.87,0,0,0,3,8.9Z"/><path class="ffc4e48a-83e7-4193-8c8b-d88e27ca3b03" d="M5.27,10.21h0a.09.09,0,0,1-.07-.1.75.75,0,0,0-.44-.91.09.09,0,0,1,0-.11A.08.08,0,0,1,4.79,9a1,1,0,0,1,.56,1.11A.08.08,0,0,1,5.27,10.21Z"/><path class="ffc4e48a-83e7-4193-8c8b-d88e27ca3b03" d="M5.19,10.52h0a.09.09,0,0,1-.06-.11l0-.11a.07.07,0,0,1,.1-.06.08.08,0,0,1,.06.1l0,.11A.1.1,0,0,1,5.19,10.52Z"/><path class="fb253d77-c19b-4af0-bbf5-1888640dd17c" d="M56.49,82.65a.91.91,0,0,0,.82-.52.88.88,0,0,0,.81.52,1.07,1.07,0,0,0,.9-1.08c0-1.08-1.71-2-1.71-2s-1.72.93-1.72,2A1.07,1.07,0,0,0,56.49,82.65Z"/><path class="b7d9eaa2-f949-4586-b8cb-7877ca010798" d="M57.31,79.55h0s1.73.94,1.73,2a1.1,1.1,0,0,1-.92,1.1.9.9,0,0,1-.81-.5.93.93,0,0,1-.82.5,1.1,1.1,0,0,1-.92-1.1c0-1.08,1.71-2,1.73-2Zm.81,3.08c.49,0,.88-.58.88-1.06,0-1-1.56-1.91-1.69-2s-1.7,1-1.7,2c0,.48.39,1.06.88,1.06a.89.89,0,0,0,.8-.51h0A.89.89,0,0,0,58.12,82.63Z"/><path class="ffc4e48a-83e7-4193-8c8b-d88e27ca3b03" d="M55.86,81.32h0a.08.08,0,0,1,.08.09.77.77,0,0,0,.44.92.08.08,0,0,1,0,.11.07.07,0,0,1-.1,0,.93.93,0,0,1-.56-1.1A.08.08,0,0,1,55.86,81.32Z"/><path class="ffc4e48a-83e7-4193-8c8b-d88e27ca3b03" d="M55.94,81h0a.09.09,0,0,1,.07.1l0,.12a.09.09,0,0,1-.1.06.09.09,0,0,1-.07-.1l0-.12A.09.09,0,0,1,55.94,81Z"/><path class="fb253d77-c19b-4af0-bbf5-1888640dd17c" d="M33.73,20.16a3.5,3.5,0,0,0-3.18,2,3.48,3.48,0,0,0-3.17-2c-1.93,0-3.51,2.28-3.51,4.21,0,4.22,6.68,7.83,6.68,7.83s6.68-3.61,6.68-7.83C37.23,22.44,35.66,20.16,33.73,20.16Z"/><path class="b7d9eaa2-f949-4586-b8cb-7877ca010798" d="M30.55,32.27h0c-.07,0-6.72-3.68-6.72-7.89,0-1.94,1.6-4.28,3.58-4.28A3.59,3.59,0,0,1,30.55,22a3.61,3.61,0,0,1,3.17-1.94c2,0,3.59,2.34,3.59,4.28,0,4.21-6.66,7.85-6.72,7.89Zm-3.17-12c-1.9,0-3.43,2.27-3.43,4.14,0,4,6.09,7.46,6.6,7.74.52-.28,6.61-3.77,6.61-7.74,0-1.87-1.53-4.14-3.44-4.14a3.43,3.43,0,0,0-3.1,2,.08.08,0,0,1-.07,0h0a.08.08,0,0,1-.06,0A3.45,3.45,0,0,0,27.38,20.23Z"/><path class="ffc4e48a-83e7-4193-8c8b-d88e27ca3b03" d="M36.18,25.34h0a.33.33,0,0,1-.29-.37c.39-2.86-1.63-3.55-1.71-3.58a.33.33,0,0,1-.22-.41.33.33,0,0,1,.41-.22s2.65.87,2.18,4.3A.33.33,0,0,1,36.18,25.34Z"/><path class="ffc4e48a-83e7-4193-8c8b-d88e27ca3b03" d="M35.9,26.54h-.08a.33.33,0,0,1-.25-.4l.11-.45a.33.33,0,0,1,.4-.25.34.34,0,0,1,.25.4l-.11.45A.33.33,0,0,1,35.9,26.54Z"/><path class="fb253d77-c19b-4af0-bbf5-1888640dd17c" d="M19.77,9.58a3.5,3.5,0,0,0-3.17,2,3.49,3.49,0,0,0-3.17-2c-1.94,0-3.51,2.27-3.51,4.21,0,4.22,6.68,7.82,6.68,7.82s6.68-3.6,6.68-7.82C23.28,11.85,21.71,9.58,19.77,9.58Z"/><path class="b7d9eaa2-f949-4586-b8cb-7877ca010798" d="M16.6,21.69h0c-.07,0-6.72-3.68-6.72-7.89,0-1.94,1.6-4.28,3.58-4.28a3.57,3.57,0,0,1,3.17,1.94,3.58,3.58,0,0,1,3.17-1.94c2,0,3.58,2.34,3.58,4.28,0,4.21-6.65,7.85-6.71,7.89Zm-3.17-12c-1.9,0-3.44,2.27-3.44,4.14,0,4,6.1,7.46,6.61,7.74.52-.28,6.61-3.77,6.61-7.74,0-1.87-1.53-4.14-3.44-4.14a3.43,3.43,0,0,0-3.1,2,.1.1,0,0,1-.07,0h0a.07.07,0,0,1-.06,0A3.46,3.46,0,0,0,13.43,9.65Z"/><path class="ffc4e48a-83e7-4193-8c8b-d88e27ca3b03" d="M22.23,14.76h-.05a.33.33,0,0,1-.28-.37c.39-2.87-1.63-3.55-1.72-3.58a.33.33,0,0,1-.21-.41.32.32,0,0,1,.41-.22s2.64.86,2.18,4.3A.35.35,0,0,1,22.23,14.76Z"/><path class="ffc4e48a-83e7-4193-8c8b-d88e27ca3b03" d="M22,16h-.08a.34.34,0,0,1-.25-.4l.11-.45a.33.33,0,0,1,.4-.25.32.32,0,0,1,.24.4l-.1.45A.34.34,0,0,1,22,16Z"/><path class="fb253d77-c19b-4af0-bbf5-1888640dd17c" d="M47.68,9.58a3.48,3.48,0,0,0-3.17,2,3.5,3.5,0,0,0-3.18-2c-1.93,0-3.5,2.27-3.5,4.21,0,4.22,6.68,7.82,6.68,7.82s6.68-3.6,6.68-7.82C51.19,11.85,49.61,9.58,47.68,9.58Z"/><path class="b7d9eaa2-f949-4586-b8cb-7877ca010798" d="M44.51,21.69h0c-.07,0-6.72-3.68-6.72-7.89,0-1.94,1.6-4.28,3.58-4.28a3.6,3.6,0,0,1,3.18,1.94,3.57,3.57,0,0,1,3.17-1.94c2,0,3.58,2.34,3.58,4.28,0,4.21-6.65,7.85-6.72,7.89Zm-3.18-12c-1.9,0-3.43,2.27-3.43,4.14,0,4,6.09,7.46,6.61,7.74.51-.28,6.6-3.77,6.6-7.74,0-1.87-1.53-4.14-3.43-4.14a3.45,3.45,0,0,0-3.11,2,.08.08,0,0,1-.06,0h0a.08.08,0,0,1-.07,0A3.44,3.44,0,0,0,41.33,9.65Z"/><path class="ffc4e48a-83e7-4193-8c8b-d88e27ca3b03" d="M50.13,14.76h0a.34.34,0,0,1-.29-.37c.39-2.87-1.63-3.55-1.71-3.58a.33.33,0,1,1,.2-.63s2.64.86,2.17,4.3A.33.33,0,0,1,50.13,14.76Z"/><path class="ffc4e48a-83e7-4193-8c8b-d88e27ca3b03" d="M49.85,16h-.08a.32.32,0,0,1-.24-.4l.1-.45a.34.34,0,0,1,.4-.25.33.33,0,0,1,.25.4l-.11.45A.33.33,0,0,1,49.85,16Z"/><path class="fb253d77-c19b-4af0-bbf5-1888640dd17c" d="M19.77,29.69a3.52,3.52,0,0,0-3.17,2,3.51,3.51,0,0,0-3.17-2c-1.94,0-3.51,2.28-3.51,4.22,0,4.21,6.68,7.82,6.68,7.82s6.68-3.61,6.68-7.82C23.28,32,21.71,29.69,19.77,29.69Z"/><path class="b7d9eaa2-f949-4586-b8cb-7877ca010798" d="M16.6,41.8h0c-.07,0-6.72-3.68-6.72-7.88,0-1.94,1.6-4.29,3.58-4.29a3.59,3.59,0,0,1,3.17,1.94,3.6,3.6,0,0,1,3.17-1.94c2,0,3.58,2.35,3.58,4.29,0,4.2-6.65,7.84-6.71,7.88Zm-3.17-12C11.53,29.76,10,32,10,33.91c0,4,6.1,7.45,6.61,7.74.52-.29,6.61-3.78,6.61-7.74,0-1.88-1.53-4.15-3.44-4.15a3.43,3.43,0,0,0-3.1,2,.08.08,0,0,1-.07,0h0a.05.05,0,0,1-.06,0A3.46,3.46,0,0,0,13.43,29.76Z"/><path class="ffc4e48a-83e7-4193-8c8b-d88e27ca3b03" d="M22.23,34.87h-.05a.34.34,0,0,1-.28-.38c.39-2.86-1.63-3.55-1.72-3.58A.32.32,0,0,1,20,30.5a.33.33,0,0,1,.41-.22s2.64.87,2.18,4.3A.34.34,0,0,1,22.23,34.87Z"/><path class="ffc4e48a-83e7-4193-8c8b-d88e27ca3b03" d="M22,36.07h-.08a.33.33,0,0,1-.25-.4l.11-.45a.33.33,0,1,1,.64.16l-.1.45A.33.33,0,0,1,22,36.07Z"/><path class="fb253d77-c19b-4af0-bbf5-1888640dd17c" d="M47.68,29.69a3.5,3.5,0,0,0-3.17,2,3.52,3.52,0,0,0-3.18-2c-1.93,0-3.5,2.28-3.5,4.22,0,4.21,6.68,7.82,6.68,7.82s6.68-3.61,6.68-7.82C51.19,32,49.61,29.69,47.68,29.69Z"/><path class="b7d9eaa2-f949-4586-b8cb-7877ca010798" d="M44.51,41.8h0c-.07,0-6.72-3.68-6.72-7.88,0-1.94,1.6-4.29,3.58-4.29a3.62,3.62,0,0,1,3.18,1.94,3.59,3.59,0,0,1,3.17-1.94c2,0,3.58,2.35,3.58,4.29,0,4.2-6.65,7.84-6.72,7.88Zm-3.18-12c-1.9,0-3.43,2.27-3.43,4.15,0,4,6.09,7.45,6.61,7.74.51-.29,6.6-3.78,6.6-7.74,0-1.88-1.53-4.15-3.43-4.15a3.45,3.45,0,0,0-3.11,2,.06.06,0,0,1-.06,0h0a.07.07,0,0,1-.07,0A3.44,3.44,0,0,0,41.33,29.76Z"/><path class="ffc4e48a-83e7-4193-8c8b-d88e27ca3b03" d="M50.13,34.87h0a.35.35,0,0,1-.29-.38c.39-2.86-1.63-3.55-1.71-3.58a.33.33,0,0,1-.22-.41.35.35,0,0,1,.42-.22s2.64.87,2.17,4.3A.33.33,0,0,1,50.13,34.87Z"/><path class="ffc4e48a-83e7-4193-8c8b-d88e27ca3b03" d="M49.85,36.07h-.08a.32.32,0,0,1-.24-.4l.1-.45A.32.32,0,0,1,50,35a.33.33,0,0,1,.25.4l-.11.45A.32.32,0,0,1,49.85,36.07Z"/><path class="fb253d77-c19b-4af0-bbf5-1888640dd17c" d="M19.77,49.81a3.5,3.5,0,0,0-3.17,2,3.49,3.49,0,0,0-3.17-2c-1.94,0-3.51,2.27-3.51,4.21,0,4.21,6.68,7.82,6.68,7.82s6.68-3.61,6.68-7.82C23.28,52.08,21.71,49.81,19.77,49.81Z"/><path class="b7d9eaa2-f949-4586-b8cb-7877ca010798" d="M16.6,61.91h0c-.07,0-6.72-3.67-6.72-7.88,0-1.94,1.6-4.28,3.58-4.28a3.58,3.58,0,0,1,3.17,1.93,3.59,3.59,0,0,1,3.17-1.93c2,0,3.58,2.34,3.58,4.28,0,4.21-6.65,7.85-6.71,7.88Zm-3.17-12C11.53,49.88,10,52.14,10,54c0,4,6.1,7.45,6.61,7.74.52-.29,6.61-3.77,6.61-7.74,0-1.88-1.53-4.14-3.44-4.14a3.43,3.43,0,0,0-3.1,2,.1.1,0,0,1-.07,0h0a.07.07,0,0,1-.06,0A3.46,3.46,0,0,0,13.43,49.88Z"/><path class="ffc4e48a-83e7-4193-8c8b-d88e27ca3b03" d="M22.23,55h-.05a.33.33,0,0,1-.28-.37c.39-2.87-1.63-3.55-1.72-3.58a.33.33,0,0,1-.21-.42.32.32,0,0,1,.41-.21s2.64.86,2.18,4.3A.34.34,0,0,1,22.23,55Z"/><path class="ffc4e48a-83e7-4193-8c8b-d88e27ca3b03" d="M22,56.18h-.08a.33.33,0,0,1-.25-.39l.11-.45a.33.33,0,0,1,.4-.25.32.32,0,0,1,.24.4l-.1.45A.33.33,0,0,1,22,56.18Z"/><path class="fb253d77-c19b-4af0-bbf5-1888640dd17c" d="M47.68,49.81a3.48,3.48,0,0,0-3.17,2,3.5,3.5,0,0,0-3.18-2c-1.93,0-3.5,2.27-3.5,4.21,0,4.21,6.68,7.82,6.68,7.82s6.68-3.61,6.68-7.82C51.19,52.08,49.61,49.81,47.68,49.81Z"/><path class="b7d9eaa2-f949-4586-b8cb-7877ca010798" d="M44.51,61.91h0c-.07,0-6.72-3.67-6.72-7.88,0-1.94,1.6-4.28,3.58-4.28a3.61,3.61,0,0,1,3.18,1.93,3.58,3.58,0,0,1,3.17-1.93c2,0,3.58,2.34,3.58,4.28,0,4.21-6.65,7.85-6.72,7.88Zm-3.18-12c-1.9,0-3.43,2.26-3.43,4.14,0,4,6.09,7.45,6.61,7.74.51-.29,6.6-3.77,6.6-7.74,0-1.88-1.53-4.14-3.43-4.14a3.45,3.45,0,0,0-3.11,2,.08.08,0,0,1-.06,0h0a.08.08,0,0,1-.07,0A3.44,3.44,0,0,0,41.33,49.88Z"/><path class="ffc4e48a-83e7-4193-8c8b-d88e27ca3b03" d="M50.13,55h0a.34.34,0,0,1-.29-.37c.39-2.87-1.63-3.55-1.71-3.58a.34.34,0,0,1-.22-.42.33.33,0,0,1,.42-.21s2.64.86,2.17,4.3A.33.33,0,0,1,50.13,55Z"/><path class="ffc4e48a-83e7-4193-8c8b-d88e27ca3b03" d="M49.85,56.18h-.08a.31.31,0,0,1-.24-.39l.1-.45a.34.34,0,0,1,.4-.25.33.33,0,0,1,.25.4l-.11.45A.32.32,0,0,1,49.85,56.18Z"/><path class="fb253d77-c19b-4af0-bbf5-1888640dd17c" d="M19.77,69.92a3.5,3.5,0,0,0-3.17,2,3.49,3.49,0,0,0-3.17-2c-1.94,0-3.51,2.28-3.51,4.21C9.92,78.35,16.6,82,16.6,82s6.68-3.61,6.68-7.83C23.28,72.2,21.71,69.92,19.77,69.92Z"/><path class="b7d9eaa2-f949-4586-b8cb-7877ca010798" d="M16.6,82h0c-.07,0-6.72-3.68-6.72-7.89,0-1.94,1.6-4.28,3.58-4.28a3.59,3.59,0,0,1,3.17,1.94,3.6,3.6,0,0,1,3.17-1.94c2,0,3.58,2.34,3.58,4.28,0,4.21-6.65,7.85-6.71,7.89ZM13.43,70C11.53,70,10,72.26,10,74.13c0,4,6.1,7.46,6.61,7.74.52-.28,6.61-3.77,6.61-7.74,0-1.87-1.53-4.14-3.44-4.14a3.43,3.43,0,0,0-3.1,2,.08.08,0,0,1-.07,0h0a.05.05,0,0,1-.06,0A3.46,3.46,0,0,0,13.43,70Z"/><path class="ffc4e48a-83e7-4193-8c8b-d88e27ca3b03" d="M22.23,75.1h-.05a.33.33,0,0,1-.28-.37c.39-2.86-1.63-3.55-1.72-3.58a.32.32,0,0,1-.21-.41.33.33,0,0,1,.41-.22s2.64.87,2.18,4.3A.34.34,0,0,1,22.23,75.1Z"/><path class="ffc4e48a-83e7-4193-8c8b-d88e27ca3b03" d="M22,76.3h-.08a.33.33,0,0,1-.25-.4l.11-.45a.33.33,0,0,1,.4-.25.33.33,0,0,1,.24.4l-.1.45A.33.33,0,0,1,22,76.3Z"/><path class="fb253d77-c19b-4af0-bbf5-1888640dd17c" d="M47.68,69.92a3.48,3.48,0,0,0-3.17,2,3.5,3.5,0,0,0-3.18-2c-1.93,0-3.5,2.28-3.5,4.21,0,4.22,6.68,7.83,6.68,7.83s6.68-3.61,6.68-7.83C51.19,72.2,49.61,69.92,47.68,69.92Z"/><path class="b7d9eaa2-f949-4586-b8cb-7877ca010798" d="M44.51,82h0c-.07,0-6.72-3.68-6.72-7.89,0-1.94,1.6-4.28,3.58-4.28a3.62,3.62,0,0,1,3.18,1.94,3.59,3.59,0,0,1,3.17-1.94c2,0,3.58,2.34,3.58,4.28,0,4.21-6.65,7.85-6.72,7.89ZM41.33,70c-1.9,0-3.43,2.27-3.43,4.14,0,4,6.09,7.46,6.61,7.74.51-.28,6.6-3.77,6.6-7.74,0-1.87-1.53-4.14-3.43-4.14a3.45,3.45,0,0,0-3.11,2,.06.06,0,0,1-.06,0h0a.07.07,0,0,1-.07,0A3.44,3.44,0,0,0,41.33,70Z"/><path class="ffc4e48a-83e7-4193-8c8b-d88e27ca3b03" d="M50.13,75.1h0a.34.34,0,0,1-.29-.37c.39-2.86-1.63-3.55-1.71-3.58a.33.33,0,0,1-.22-.41.34.34,0,0,1,.42-.22s2.64.87,2.17,4.3A.33.33,0,0,1,50.13,75.1Z"/><path class="ffc4e48a-83e7-4193-8c8b-d88e27ca3b03" d="M49.85,76.3h-.08a.32.32,0,0,1-.24-.4l.1-.45a.34.34,0,0,1,.4-.25.34.34,0,0,1,.25.4l-.11.45A.32.32,0,0,1,49.85,76.3Z"/></g></g></svg>