<svg xmlns="http://www.w3.org/2000/svg" viewBox="0 0 61.11 91.54"><defs><style>.e909af3f-de8d-4946-a75e-3e0078e2908a{fill:none;}.f11c8ced-ecd4-461f-a8b0-04de2dea0db9{fill:#adadad;}.f9f5650d-658a-45a2-8a31-d2a7229e5d2d{fill:#f6413a;}.af8e1eaa-7766-4c54-ac0b-a2addd20b9e9{fill:#c51611;}.a6f95f7d-50a5-49b9-874f-52bbc26f3ef0{fill:#ffb3b3;}</style></defs><title>C_3</title><g id="bf990293-278f-49f0-a36a-271a690769d8" data-name="Capa 2"><g id="bf2b447f-8d78-4f06-a0c7-8e734ee2ea91" data-name="Objects"><rect class="e909af3f-de8d-4946-a75e-3e0078e2908a" x="0.13" y="0.12" width="60.86" height="91.29" rx="2.4"/><path class="f11c8ced-ecd4-461f-a8b0-04de2dea0db9" d="M58.59,91.54H2.52A2.53,2.53,0,0,1,0,89V2.52A2.52,2.52,0,0,1,2.52,0H58.59a2.52,2.52,0,0,1,2.52,2.52V89A2.53,2.53,0,0,1,58.59,91.54ZM2.52.25A2.27,2.27,0,0,0,.25,2.52V89a2.28,2.28,0,0,0,2.27,2.28H58.59A2.28,2.28,0,0,0,60.86,89V2.52A2.27,2.27,0,0,0,58.59.25Z"/><path class="f9f5650d-658a-45a2-8a31-d2a7229e5d2d" d="M2,7.57l.1,0a.38.38,0,0,1,.13.08A1.19,1.19,0,0,0,2.7,8a1.77,1.77,0,0,0,.63.11,1.69,1.69,0,0,0,.84-.21A1.6,1.6,0,0,0,5,6.45a1.48,1.48,0,0,0-.24-.88,1.55,1.55,0,0,0-.61-.5,1.91,1.91,0,0,0-.77-.17l-.2,0L3,5,2.86,5a.25.25,0,0,1-.18-.08.27.27,0,0,1-.07-.2.37.37,0,0,1,0-.12l.07-.1L4.64,2.31l.11.15H1.88a.24.24,0,0,1-.19-.08.22.22,0,0,1-.08-.19A.22.22,0,0,1,1.69,2a.27.27,0,0,1,.19-.08H5.06a.27.27,0,0,1,.23.1.39.39,0,0,1,.06.2.43.43,0,0,1,0,.11l-.07.1L3.34,4.57l-.21-.12a.44.44,0,0,1,.19-.06,1.66,1.66,0,0,1,.26,0,2.13,2.13,0,0,1,1,.25,1.81,1.81,0,0,1,.74.71,2.08,2.08,0,0,1,.29,1.13,2.17,2.17,0,0,1-.31,1.15,2.15,2.15,0,0,1-.84.77,2.41,2.41,0,0,1-1.17.28,2.54,2.54,0,0,1-.77-.13,1.86,1.86,0,0,1-.66-.4A.47.47,0,0,1,1.74,8a.27.27,0,0,1,0-.12.34.34,0,0,1,.08-.21A.24.24,0,0,1,2,7.57Z"/><path class="f9f5650d-658a-45a2-8a31-d2a7229e5d2d" d="M59.11,84H59l-.13-.09a1.27,1.27,0,0,0-.46-.32,1.81,1.81,0,0,0-.63-.1,1.68,1.68,0,0,0-.84.2,1.62,1.62,0,0,0-.61.58,1.56,1.56,0,0,0-.23.86,1.46,1.46,0,0,0,.24.88,1.43,1.43,0,0,0,.61.51,1.9,1.9,0,0,0,.77.16h.2l.18,0h.14a.22.22,0,0,1,.19.08.32.32,0,0,1,.07.2.2.2,0,0,1,0,.11.49.49,0,0,1-.07.11l-1.94,2.15-.1-.15h2.87a.27.27,0,0,1,.27.27.26.26,0,0,1-.08.19.27.27,0,0,1-.19.08H56.05c-.12,0-.19,0-.23-.1a.4.4,0,0,1-.07-.19.2.2,0,0,1,0-.11.23.23,0,0,1,.07-.1L57.77,87l.21.13-.19.06-.27,0a2,2,0,0,1-1-.25,1.94,1.94,0,0,1-.75-.7,2.37,2.37,0,0,1,0-2.29,2.15,2.15,0,0,1,.84-.77,2.51,2.51,0,0,1,1.16-.27,2.28,2.28,0,0,1,.78.13,1.91,1.91,0,0,1,.65.4.29.29,0,0,1,.11.11.23.23,0,0,1,0,.11.33.33,0,0,1-.09.22A.25.25,0,0,1,59.11,84Z"/><path class="f9f5650d-658a-45a2-8a31-d2a7229e5d2d" d="M4.64,8.76a.91.91,0,0,0-.82.52A.88.88,0,0,0,3,8.76a1.07,1.07,0,0,0-.9,1.08c0,1.08,1.71,2,1.71,2s1.72-.92,1.72-2A1.07,1.07,0,0,0,4.64,8.76Z"/><path class="af8e1eaa-7766-4c54-ac0b-a2addd20b9e9" d="M3.82,11.86h0s-1.73-.94-1.73-2A1.1,1.1,0,0,1,3,8.74a.91.91,0,0,1,.81.49.94.94,0,0,1,.82-.49,1.1,1.1,0,0,1,.92,1.1c0,1.08-1.71,2-1.73,2ZM3,8.77c-.49,0-.88.58-.88,1.07,0,1,1.56,1.91,1.69,2s1.7-1,1.7-2c0-.49-.39-1.07-.88-1.07a.89.89,0,0,0-.8.51h0A.89.89,0,0,0,3,8.77Z"/><path class="a6f95f7d-50a5-49b9-874f-52bbc26f3ef0" d="M5.27,10.08h0A.09.09,0,0,1,5.18,10a.77.77,0,0,0-.44-.92.08.08,0,0,1,0-.11.07.07,0,0,1,.1-.05A.93.93,0,0,1,5.35,10,.08.08,0,0,1,5.27,10.08Z"/><path class="a6f95f7d-50a5-49b9-874f-52bbc26f3ef0" d="M5.2,10.39h0a.09.09,0,0,1-.07-.1l0-.12a.09.09,0,0,1,.1-.06.09.09,0,0,1,.07.1l0,.12A.08.08,0,0,1,5.2,10.39Z"/><path class="f9f5650d-658a-45a2-8a31-d2a7229e5d2d" d="M56.47,82.52a.88.88,0,0,0,.81-.52.91.91,0,0,0,.82.52,1.08,1.08,0,0,0,.9-1.08c0-1.08-1.72-2-1.72-2s-1.71.92-1.71,2A1.07,1.07,0,0,0,56.47,82.52Z"/><path class="af8e1eaa-7766-4c54-ac0b-a2addd20b9e9" d="M57.28,79.42h0s1.73.94,1.73,2a1.1,1.1,0,0,1-.92,1.1.94.94,0,0,1-.82-.49.91.91,0,0,1-.81.49,1.1,1.1,0,0,1-.92-1.1c0-1.08,1.71-2,1.72-2Zm.82,3.09c.49,0,.88-.58.88-1.07,0-1-1.56-1.91-1.7-2s-1.69,1-1.69,2c0,.49.39,1.07.88,1.07a.89.89,0,0,0,.8-.51,0,0,0,0,1,0,0h0s0,0,0,0A.88.88,0,0,0,58.1,82.51Z"/><path class="a6f95f7d-50a5-49b9-874f-52bbc26f3ef0" d="M55.84,81.2h0a.07.07,0,0,1,.07.09.78.78,0,0,0,.44.92.09.09,0,0,1,.06.11.09.09,0,0,1-.11.05.94.94,0,0,1-.55-1.1A.08.08,0,0,1,55.84,81.2Z"/><path class="a6f95f7d-50a5-49b9-874f-52bbc26f3ef0" d="M55.91,80.89h0A.09.09,0,0,1,56,81l0,.12a.09.09,0,0,1-.1.06.09.09,0,0,1-.07-.1l0-.12A.08.08,0,0,1,55.91,80.89Z"/><path class="f9f5650d-658a-45a2-8a31-d2a7229e5d2d" d="M33.73,9.22a3.5,3.5,0,0,0-3.18,2,3.49,3.49,0,0,0-3.17-2c-1.93,0-3.51,2.28-3.51,4.21,0,4.22,6.68,7.82,6.68,7.82s6.68-3.6,6.68-7.82C37.23,11.5,35.66,9.22,33.73,9.22Z"/><path class="af8e1eaa-7766-4c54-ac0b-a2addd20b9e9" d="M30.55,21.33h0c-.07,0-6.72-3.68-6.72-7.89,0-1.94,1.6-4.28,3.58-4.28a3.57,3.57,0,0,1,3.17,1.94,3.59,3.59,0,0,1,3.17-1.94c2,0,3.59,2.34,3.59,4.28,0,4.21-6.66,7.85-6.72,7.89Zm-3.17-12c-1.9,0-3.43,2.27-3.43,4.14,0,4,6.09,7.46,6.6,7.74.52-.28,6.61-3.77,6.61-7.74,0-1.87-1.53-4.14-3.44-4.14a3.43,3.43,0,0,0-3.1,2,.08.08,0,0,1-.07,0h0a.08.08,0,0,1-.06,0A3.45,3.45,0,0,0,27.38,9.29Z"/><path class="a6f95f7d-50a5-49b9-874f-52bbc26f3ef0" d="M36.18,14.4h0a.33.33,0,0,1-.29-.37c.39-2.87-1.63-3.55-1.71-3.58a.33.33,0,0,1-.22-.41.32.32,0,0,1,.41-.22s2.64.87,2.18,4.3A.33.33,0,0,1,36.18,14.4Z"/><path class="a6f95f7d-50a5-49b9-874f-52bbc26f3ef0" d="M35.9,15.6h-.08a.33.33,0,0,1-.25-.4l.11-.45a.33.33,0,0,1,.4-.25.34.34,0,0,1,.25.4l-.11.45A.34.34,0,0,1,35.9,15.6Z"/><path class="f9f5650d-658a-45a2-8a31-d2a7229e5d2d" d="M33.73,70.28a3.5,3.5,0,0,0-3.18,2,3.49,3.49,0,0,0-3.17-2c-1.93,0-3.51,2.28-3.51,4.21,0,4.22,6.68,7.82,6.68,7.82s6.68-3.6,6.68-7.82C37.23,72.56,35.66,70.28,33.73,70.28Z"/><path class="af8e1eaa-7766-4c54-ac0b-a2addd20b9e9" d="M30.55,82.39h0c-.07,0-6.72-3.68-6.72-7.89,0-1.94,1.6-4.28,3.58-4.28a3.57,3.57,0,0,1,3.17,1.94,3.59,3.59,0,0,1,3.17-1.94c2,0,3.59,2.34,3.59,4.28,0,4.21-6.66,7.85-6.72,7.89Zm-3.17-12c-1.9,0-3.43,2.27-3.43,4.14,0,4,6.09,7.46,6.6,7.74.52-.28,6.61-3.77,6.61-7.74,0-1.87-1.53-4.14-3.44-4.14a3.43,3.43,0,0,0-3.1,2,.08.08,0,0,1-.07,0h0a.08.08,0,0,1-.06,0A3.45,3.45,0,0,0,27.38,70.35Z"/><path class="a6f95f7d-50a5-49b9-874f-52bbc26f3ef0" d="M36.18,75.46h0a.33.33,0,0,1-.29-.37c.39-2.87-1.63-3.55-1.71-3.58a.33.33,0,0,1-.22-.41.32.32,0,0,1,.41-.22s2.64.86,2.18,4.3A.33.33,0,0,1,36.18,75.46Z"/><path class="a6f95f7d-50a5-49b9-874f-52bbc26f3ef0" d="M35.9,76.66h-.08a.33.33,0,0,1-.25-.4l.11-.45a.33.33,0,0,1,.4-.25.34.34,0,0,1,.25.4l-.11.45A.34.34,0,0,1,35.9,76.66Z"/><path class="f9f5650d-658a-45a2-8a31-d2a7229e5d2d" d="M33.73,39.43a3.5,3.5,0,0,0-3.18,2,3.49,3.49,0,0,0-3.17-2c-1.93,0-3.51,2.28-3.51,4.21,0,4.22,6.68,7.83,6.68,7.83s6.68-3.61,6.68-7.83C37.23,41.71,35.66,39.43,33.73,39.43Z"/><path class="af8e1eaa-7766-4c54-ac0b-a2addd20b9e9" d="M30.55,51.54h0c-.07,0-6.72-3.68-6.72-7.89,0-1.94,1.6-4.28,3.58-4.28a3.57,3.57,0,0,1,3.17,1.94,3.59,3.59,0,0,1,3.17-1.94c2,0,3.59,2.34,3.59,4.28,0,4.21-6.66,7.85-6.72,7.89Zm-3.17-12c-1.9,0-3.43,2.27-3.43,4.14,0,4,6.09,7.46,6.6,7.74.52-.28,6.61-3.77,6.61-7.74,0-1.87-1.53-4.14-3.44-4.14a3.43,3.43,0,0,0-3.1,2,.08.08,0,0,1-.07,0h0a.08.08,0,0,1-.06,0A3.45,3.45,0,0,0,27.38,39.5Z"/><path class="a6f95f7d-50a5-49b9-874f-52bbc26f3ef0" d="M36.18,44.61h0a.33.33,0,0,1-.29-.37c.39-2.86-1.63-3.55-1.71-3.58a.33.33,0,0,1-.22-.41.33.33,0,0,1,.41-.22s2.64.87,2.18,4.3A.33.33,0,0,1,36.18,44.61Z"/><path class="a6f95f7d-50a5-49b9-874f-52bbc26f3ef0" d="M35.9,45.81h-.08a.33.33,0,0,1-.25-.4l.11-.45a.33.33,0,0,1,.4-.25.34.34,0,0,1,.25.4l-.11.45A.34.34,0,0,1,35.9,45.81Z"/></g></g></svg>