<svg xmlns="http://www.w3.org/2000/svg" viewBox="0 0 61.11 91.54"><defs><style>.e9f8ec49-112d-4bf7-b62d-c96f6436e3b8{fill:none;}.b5cabdd0-d794-4069-a67d-db9616ff5f63{fill:#adadad;}.b24b0e8b-7c20-41c2-b779-834e9eeebc30{fill:#f6413a;}.b7f2777d-603f-4cb4-b4e2-e60fe21b243d{fill:#c51611;}.e8a8616a-5d45-45e6-b117-e6b527b6d66f{fill:#ffb3b3;}</style></defs><title>C_10</title><g id="ad6a2c48-349d-4310-9441-77d09ba891de" data-name="Capa 2"><g id="e22a289c-ba2e-48c2-8a26-2b5c8e83609b" data-name="Objects"><rect class="e9f8ec49-112d-4bf7-b62d-c96f6436e3b8" x="0.13" y="0.12" width="60.86" height="91.29" rx="2.4"/><path class="b5cabdd0-d794-4069-a67d-db9616ff5f63" d="M58.59,91.54H2.52A2.53,2.53,0,0,1,0,89V2.52A2.52,2.52,0,0,1,2.52,0H58.59a2.52,2.52,0,0,1,2.52,2.52V89A2.53,2.53,0,0,1,58.59,91.54ZM2.52.25A2.27,2.27,0,0,0,.25,2.52V89a2.28,2.28,0,0,0,2.27,2.28H58.59A2.28,2.28,0,0,0,60.86,89V2.52A2.27,2.27,0,0,0,58.59.25Z"/><path class="b24b0e8b-7c20-41c2-b779-834e9eeebc30" d="M3.4,8.54a.32.32,0,0,1-.21-.08.3.3,0,0,1-.08-.2V2.57l.1.09-1.28.77a.33.33,0,0,1-.14,0,.28.28,0,0,1-.21-.1.32.32,0,0,1-.09-.21.27.27,0,0,1,.15-.23l1.6-1a.34.34,0,0,1,.23,0A.23.23,0,0,1,3.64,2a.29.29,0,0,1,.07.2V8.26a.27.27,0,0,1-.09.2A.33.33,0,0,1,3.4,8.54Z"/><path class="b24b0e8b-7c20-41c2-b779-834e9eeebc30" d="M7.4,8.64a1.82,1.82,0,0,1-1.27-.46A2.74,2.74,0,0,1,5.37,7a5.47,5.47,0,0,1-.26-1.73A5.47,5.47,0,0,1,5.37,3.5a2.74,2.74,0,0,1,.76-1.22A1.86,1.86,0,0,1,7.4,1.83a1.85,1.85,0,0,1,1.28.45A2.74,2.74,0,0,1,9.44,3.5,5.47,5.47,0,0,1,9.7,5.23,5.47,5.47,0,0,1,9.44,7a2.74,2.74,0,0,1-.76,1.22A1.81,1.81,0,0,1,7.4,8.64Zm0-.59a1.33,1.33,0,0,0,.93-.35,2.16,2.16,0,0,0,.57-1,5,5,0,0,0,.19-1.48A5.18,5.18,0,0,0,8.9,3.74a2.18,2.18,0,0,0-.57-1,1.28,1.28,0,0,0-.93-.35,1.26,1.26,0,0,0-.92.35,2.18,2.18,0,0,0-.57,1,5.18,5.18,0,0,0-.19,1.49,5,5,0,0,0,.19,1.48,2.16,2.16,0,0,0,.57,1A1.3,1.3,0,0,0,7.4,8.05Z"/><path class="b24b0e8b-7c20-41c2-b779-834e9eeebc30" d="M57.84,83a.26.26,0,0,1,.21.09.25.25,0,0,1,.09.2V89l-.11-.1,1.29-.76a.2.2,0,0,1,.13,0,.27.27,0,0,1,.22.1.29.29,0,0,1,.08.2.27.27,0,0,1-.15.24l-1.6,1a.31.31,0,0,1-.22,0,.31.31,0,0,1-.18-.09.32.32,0,0,1-.07-.19v-6a.25.25,0,0,1,.09-.2A.31.31,0,0,1,57.84,83Z"/><path class="b24b0e8b-7c20-41c2-b779-834e9eeebc30" d="M53.84,82.9a1.84,1.84,0,0,1,1.27.45,2.73,2.73,0,0,1,.77,1.23,5.41,5.41,0,0,1,.25,1.72A5.58,5.58,0,0,1,55.88,88a2.75,2.75,0,0,1-.77,1.22,1.84,1.84,0,0,1-1.27.45,1.87,1.87,0,0,1-1.28-.45A2.83,2.83,0,0,1,51.8,88a5.58,5.58,0,0,1-.25-1.74,5.41,5.41,0,0,1,.25-1.72,2.81,2.81,0,0,1,.76-1.23A1.87,1.87,0,0,1,53.84,82.9Zm0,.58a1.33,1.33,0,0,0-.93.35,2.36,2.36,0,0,0-.56,1,5.61,5.61,0,0,0,0,3,2.24,2.24,0,0,0,.56,1,1.41,1.41,0,0,0,1.86,0,2.07,2.07,0,0,0,.56-1,5.61,5.61,0,0,0,0-3,2.17,2.17,0,0,0-.56-1A1.33,1.33,0,0,0,53.84,83.48Z"/><path class="b24b0e8b-7c20-41c2-b779-834e9eeebc30" d="M5.77,8.88A.9.9,0,0,0,5,9.4a.9.9,0,0,0-.81-.52c-.5,0-.9.59-.9,1.08C3.25,11.05,5,12,5,12s1.71-.92,1.71-2C6.67,9.47,6.27,8.88,5.77,8.88Z"/><path class="b7f2777d-603f-4cb4-b4e2-e60fe21b243d" d="M5,12H5s-1.72-1-1.72-2c0-.49.41-1.1.92-1.1a.93.93,0,0,1,.81.5.93.93,0,0,1,.81-.5c.51,0,.92.61.92,1.1C6.69,11,5,12,5,12ZM4.15,8.9A1.06,1.06,0,0,0,3.26,10c0,1,1.57,1.92,1.7,2s1.7-1,1.7-2A1.06,1.06,0,0,0,5.77,8.9.87.87,0,0,0,5,9.41h0A.87.87,0,0,0,4.15,8.9Z"/><path class="e8a8616a-5d45-45e6-b117-e6b527b6d66f" d="M6.4,10.21h0a.09.09,0,0,1-.07-.1.76.76,0,0,0-.44-.91.09.09,0,1,1,0-.17,1,1,0,0,1,.56,1.11A.09.09,0,0,1,6.4,10.21Z"/><path class="e8a8616a-5d45-45e6-b117-e6b527b6d66f" d="M6.33,10.52h0a.09.09,0,0,1-.06-.11l0-.11c0-.05.06-.08.11-.06a.08.08,0,0,1,.06.1l0,.11A.08.08,0,0,1,6.33,10.52Z"/><path class="b24b0e8b-7c20-41c2-b779-834e9eeebc30" d="M55.6,82.65a.88.88,0,0,0,.81-.52.88.88,0,0,0,.81.52,1.07,1.07,0,0,0,.9-1.08c0-1.08-1.71-2-1.71-2s-1.72.93-1.72,2C54.7,82.07,55.1,82.65,55.6,82.65Z"/><path class="b7f2777d-603f-4cb4-b4e2-e60fe21b243d" d="M56.41,79.55h0s1.72.94,1.72,2a1.1,1.1,0,0,1-.92,1.1.91.91,0,0,1-.81-.5.91.91,0,0,1-.81.5,1.1,1.1,0,0,1-.92-1.1c0-1.08,1.7-2,1.72-2Zm.81,3.08c.49,0,.88-.58.88-1.06,0-1-1.56-1.91-1.69-2s-1.7,1-1.7,2a1.06,1.06,0,0,0,.89,1.06.88.88,0,0,0,.79-.51h0A.87.87,0,0,0,57.22,82.63Z"/><path class="e8a8616a-5d45-45e6-b117-e6b527b6d66f" d="M55,81.32h0a.07.07,0,0,1,.07.09.77.77,0,0,0,.44.92.09.09,0,0,1,.06.11.09.09,0,0,1-.11,0,.93.93,0,0,1-.56-1.1A.09.09,0,0,1,55,81.32Z"/><path class="e8a8616a-5d45-45e6-b117-e6b527b6d66f" d="M55,81h0a.09.09,0,0,1,.06.1l0,.12a.08.08,0,0,1-.1.06.09.09,0,0,1-.06-.1l0-.12A.08.08,0,0,1,55,81Z"/><path class="b24b0e8b-7c20-41c2-b779-834e9eeebc30" d="M33.73,20.16a3.5,3.5,0,0,0-3.18,2,3.48,3.48,0,0,0-3.17-2c-1.93,0-3.51,2.28-3.51,4.21,0,4.22,6.68,7.83,6.68,7.83s6.68-3.61,6.68-7.83C37.23,22.44,35.66,20.16,33.73,20.16Z"/><path class="b7f2777d-603f-4cb4-b4e2-e60fe21b243d" d="M30.55,32.27h0c-.07,0-6.72-3.68-6.72-7.89,0-1.94,1.6-4.28,3.58-4.28A3.59,3.59,0,0,1,30.55,22a3.61,3.61,0,0,1,3.17-1.94c2,0,3.59,2.34,3.59,4.28,0,4.21-6.66,7.85-6.72,7.89Zm-3.17-12c-1.9,0-3.43,2.27-3.43,4.14,0,4,6.09,7.46,6.6,7.74.52-.28,6.61-3.77,6.61-7.74,0-1.87-1.53-4.14-3.44-4.14a3.43,3.43,0,0,0-3.1,2,.08.08,0,0,1-.07,0h0a.08.08,0,0,1-.06,0A3.45,3.45,0,0,0,27.38,20.23Z"/><path class="e8a8616a-5d45-45e6-b117-e6b527b6d66f" d="M36.18,25.34h0a.33.33,0,0,1-.29-.37c.39-2.86-1.63-3.55-1.71-3.58a.33.33,0,0,1-.22-.41.33.33,0,0,1,.41-.22s2.65.87,2.18,4.3A.33.33,0,0,1,36.18,25.34Z"/><path class="e8a8616a-5d45-45e6-b117-e6b527b6d66f" d="M35.9,26.54h-.08a.33.33,0,0,1-.25-.4l.11-.45a.33.33,0,0,1,.4-.25.34.34,0,0,1,.25.4l-.11.45A.33.33,0,0,1,35.9,26.54Z"/><path class="b24b0e8b-7c20-41c2-b779-834e9eeebc30" d="M33.73,58.52a3.52,3.52,0,0,0-3.18,2,3.51,3.51,0,0,0-3.17-2c-1.93,0-3.51,2.28-3.51,4.22,0,4.21,6.68,7.82,6.68,7.82s6.68-3.61,6.68-7.82C37.23,60.8,35.66,58.52,33.73,58.52Z"/><path class="b7f2777d-603f-4cb4-b4e2-e60fe21b243d" d="M30.55,70.63h0c-.07,0-6.72-3.68-6.72-7.88,0-2,1.6-4.29,3.58-4.29a3.59,3.59,0,0,1,3.17,1.94,3.61,3.61,0,0,1,3.17-1.94c2,0,3.59,2.34,3.59,4.29,0,4.2-6.66,7.84-6.72,7.88Zm-3.17-12c-1.9,0-3.43,2.27-3.43,4.15,0,4,6.09,7.45,6.6,7.74.52-.29,6.61-3.78,6.61-7.74,0-1.88-1.53-4.15-3.44-4.15a3.43,3.43,0,0,0-3.1,2,.07.07,0,0,1-.07,0h0a.06.06,0,0,1-.06,0A3.45,3.45,0,0,0,27.38,58.59Z"/><path class="e8a8616a-5d45-45e6-b117-e6b527b6d66f" d="M36.18,63.7h0a.34.34,0,0,1-.29-.38c.39-2.86-1.63-3.55-1.71-3.58a.33.33,0,0,1-.22-.41.33.33,0,0,1,.41-.22s2.64.87,2.18,4.3A.33.33,0,0,1,36.18,63.7Z"/><path class="e8a8616a-5d45-45e6-b117-e6b527b6d66f" d="M35.9,64.9h-.08a.33.33,0,0,1-.25-.4l.11-.45a.32.32,0,0,1,.4-.24.33.33,0,0,1,.25.39l-.11.45A.33.33,0,0,1,35.9,64.9Z"/><path class="b24b0e8b-7c20-41c2-b779-834e9eeebc30" d="M19.77,9.58a3.5,3.5,0,0,0-3.17,2,3.49,3.49,0,0,0-3.17-2c-1.94,0-3.51,2.27-3.51,4.21,0,4.22,6.68,7.82,6.68,7.82s6.68-3.6,6.68-7.82C23.28,11.85,21.71,9.58,19.77,9.58Z"/><path class="b7f2777d-603f-4cb4-b4e2-e60fe21b243d" d="M16.6,21.69h0c-.07,0-6.72-3.68-6.72-7.89,0-1.94,1.6-4.28,3.58-4.28a3.57,3.57,0,0,1,3.17,1.94,3.58,3.58,0,0,1,3.17-1.94c2,0,3.58,2.34,3.58,4.28,0,4.21-6.65,7.85-6.71,7.89Zm-3.17-12c-1.9,0-3.44,2.27-3.44,4.14,0,4,6.1,7.46,6.61,7.74.52-.28,6.61-3.77,6.61-7.74,0-1.87-1.53-4.14-3.44-4.14a3.43,3.43,0,0,0-3.1,2,.1.1,0,0,1-.07,0h0a.07.07,0,0,1-.06,0A3.46,3.46,0,0,0,13.43,9.65Z"/><path class="e8a8616a-5d45-45e6-b117-e6b527b6d66f" d="M22.23,14.76h-.05a.33.33,0,0,1-.28-.37c.39-2.87-1.63-3.55-1.72-3.58a.33.33,0,0,1-.21-.41.32.32,0,0,1,.41-.22s2.64.86,2.18,4.3A.35.35,0,0,1,22.23,14.76Z"/><path class="e8a8616a-5d45-45e6-b117-e6b527b6d66f" d="M22,16h-.08a.34.34,0,0,1-.25-.4l.11-.45a.33.33,0,0,1,.4-.25.32.32,0,0,1,.24.4l-.1.45A.34.34,0,0,1,22,16Z"/><path class="b24b0e8b-7c20-41c2-b779-834e9eeebc30" d="M47.68,9.58a3.48,3.48,0,0,0-3.17,2,3.5,3.5,0,0,0-3.18-2c-1.93,0-3.5,2.27-3.5,4.21,0,4.22,6.68,7.82,6.68,7.82s6.68-3.6,6.68-7.82C51.19,11.85,49.61,9.58,47.68,9.58Z"/><path class="b7f2777d-603f-4cb4-b4e2-e60fe21b243d" d="M44.51,21.69h0c-.07,0-6.72-3.68-6.72-7.89,0-1.94,1.6-4.28,3.58-4.28a3.6,3.6,0,0,1,3.18,1.94,3.57,3.57,0,0,1,3.17-1.94c2,0,3.58,2.34,3.58,4.28,0,4.21-6.65,7.85-6.72,7.89Zm-3.18-12c-1.9,0-3.43,2.27-3.43,4.14,0,4,6.09,7.46,6.61,7.74.51-.28,6.6-3.77,6.6-7.74,0-1.87-1.53-4.14-3.43-4.14a3.45,3.45,0,0,0-3.11,2,.08.08,0,0,1-.06,0h0a.08.08,0,0,1-.07,0A3.44,3.44,0,0,0,41.33,9.65Z"/><path class="e8a8616a-5d45-45e6-b117-e6b527b6d66f" d="M50.13,14.76h0a.34.34,0,0,1-.29-.37c.39-2.87-1.63-3.55-1.71-3.58a.33.33,0,1,1,.2-.63s2.64.86,2.17,4.3A.33.33,0,0,1,50.13,14.76Z"/><path class="e8a8616a-5d45-45e6-b117-e6b527b6d66f" d="M49.85,16h-.08a.32.32,0,0,1-.24-.4l.1-.45a.34.34,0,0,1,.4-.25.33.33,0,0,1,.25.4l-.11.45A.33.33,0,0,1,49.85,16Z"/><path class="b24b0e8b-7c20-41c2-b779-834e9eeebc30" d="M19.77,29.69a3.52,3.52,0,0,0-3.17,2,3.51,3.51,0,0,0-3.17-2c-1.94,0-3.51,2.28-3.51,4.22,0,4.21,6.68,7.82,6.68,7.82s6.68-3.61,6.68-7.82C23.28,32,21.71,29.69,19.77,29.69Z"/><path class="b7f2777d-603f-4cb4-b4e2-e60fe21b243d" d="M16.6,41.8h0c-.07,0-6.72-3.68-6.72-7.88,0-1.94,1.6-4.29,3.58-4.29a3.59,3.59,0,0,1,3.17,1.94,3.6,3.6,0,0,1,3.17-1.94c2,0,3.58,2.35,3.58,4.29,0,4.2-6.65,7.84-6.71,7.88Zm-3.17-12C11.53,29.76,10,32,10,33.91c0,4,6.1,7.45,6.61,7.74.52-.29,6.61-3.78,6.61-7.74,0-1.88-1.53-4.15-3.44-4.15a3.43,3.43,0,0,0-3.1,2,.08.08,0,0,1-.07,0h0a.05.05,0,0,1-.06,0A3.46,3.46,0,0,0,13.43,29.76Z"/><path class="e8a8616a-5d45-45e6-b117-e6b527b6d66f" d="M22.23,34.87h-.05a.34.34,0,0,1-.28-.38c.39-2.86-1.63-3.55-1.72-3.58A.32.32,0,0,1,20,30.5a.33.33,0,0,1,.41-.22s2.64.87,2.18,4.3A.34.34,0,0,1,22.23,34.87Z"/><path class="e8a8616a-5d45-45e6-b117-e6b527b6d66f" d="M22,36.07h-.08a.33.33,0,0,1-.25-.4l.11-.45a.33.33,0,1,1,.64.16l-.1.45A.33.33,0,0,1,22,36.07Z"/><path class="b24b0e8b-7c20-41c2-b779-834e9eeebc30" d="M47.68,29.69a3.5,3.5,0,0,0-3.17,2,3.52,3.52,0,0,0-3.18-2c-1.93,0-3.5,2.28-3.5,4.22,0,4.21,6.68,7.82,6.68,7.82s6.68-3.61,6.68-7.82C51.19,32,49.61,29.69,47.68,29.69Z"/><path class="b7f2777d-603f-4cb4-b4e2-e60fe21b243d" d="M44.51,41.8h0c-.07,0-6.72-3.68-6.72-7.88,0-1.94,1.6-4.29,3.58-4.29a3.62,3.62,0,0,1,3.18,1.94,3.59,3.59,0,0,1,3.17-1.94c2,0,3.58,2.35,3.58,4.29,0,4.2-6.65,7.84-6.72,7.88Zm-3.18-12c-1.9,0-3.43,2.27-3.43,4.15,0,4,6.09,7.45,6.61,7.74.51-.29,6.6-3.78,6.6-7.74,0-1.88-1.53-4.15-3.43-4.15a3.45,3.45,0,0,0-3.11,2,.06.06,0,0,1-.06,0h0a.07.07,0,0,1-.07,0A3.44,3.44,0,0,0,41.33,29.76Z"/><path class="e8a8616a-5d45-45e6-b117-e6b527b6d66f" d="M50.13,34.87h0a.35.35,0,0,1-.29-.38c.39-2.86-1.63-3.55-1.71-3.58a.33.33,0,0,1-.22-.41.35.35,0,0,1,.42-.22s2.64.87,2.17,4.3A.33.33,0,0,1,50.13,34.87Z"/><path class="e8a8616a-5d45-45e6-b117-e6b527b6d66f" d="M49.85,36.07h-.08a.32.32,0,0,1-.24-.4l.1-.45A.32.32,0,0,1,50,35a.33.33,0,0,1,.25.4l-.11.45A.32.32,0,0,1,49.85,36.07Z"/><path class="b24b0e8b-7c20-41c2-b779-834e9eeebc30" d="M19.77,49.81a3.5,3.5,0,0,0-3.17,2,3.49,3.49,0,0,0-3.17-2c-1.94,0-3.51,2.27-3.51,4.21,0,4.21,6.68,7.82,6.68,7.82s6.68-3.61,6.68-7.82C23.28,52.08,21.71,49.81,19.77,49.81Z"/><path class="b7f2777d-603f-4cb4-b4e2-e60fe21b243d" d="M16.6,61.91h0c-.07,0-6.72-3.67-6.72-7.88,0-1.94,1.6-4.28,3.58-4.28a3.58,3.58,0,0,1,3.17,1.93,3.59,3.59,0,0,1,3.17-1.93c2,0,3.58,2.34,3.58,4.28,0,4.21-6.65,7.85-6.71,7.88Zm-3.17-12C11.53,49.88,10,52.14,10,54c0,4,6.1,7.45,6.61,7.74.52-.29,6.61-3.77,6.61-7.74,0-1.88-1.53-4.14-3.44-4.14a3.43,3.43,0,0,0-3.1,2,.1.1,0,0,1-.07,0h0a.07.07,0,0,1-.06,0A3.46,3.46,0,0,0,13.43,49.88Z"/><path class="e8a8616a-5d45-45e6-b117-e6b527b6d66f" d="M22.23,55h-.05a.33.33,0,0,1-.28-.37c.39-2.87-1.63-3.55-1.72-3.58a.33.33,0,0,1-.21-.42.32.32,0,0,1,.41-.21s2.64.86,2.18,4.3A.34.34,0,0,1,22.23,55Z"/><path class="e8a8616a-5d45-45e6-b117-e6b527b6d66f" d="M22,56.18h-.08a.33.33,0,0,1-.25-.39l.11-.45a.33.33,0,0,1,.4-.25.32.32,0,0,1,.24.4l-.1.45A.33.33,0,0,1,22,56.18Z"/><path class="b24b0e8b-7c20-41c2-b779-834e9eeebc30" d="M47.68,49.81a3.48,3.48,0,0,0-3.17,2,3.5,3.5,0,0,0-3.18-2c-1.93,0-3.5,2.27-3.5,4.21,0,4.21,6.68,7.82,6.68,7.82s6.68-3.61,6.68-7.82C51.19,52.08,49.61,49.81,47.68,49.81Z"/><path class="b7f2777d-603f-4cb4-b4e2-e60fe21b243d" d="M44.51,61.91h0c-.07,0-6.72-3.67-6.72-7.88,0-1.94,1.6-4.28,3.58-4.28a3.61,3.61,0,0,1,3.18,1.93,3.58,3.58,0,0,1,3.17-1.93c2,0,3.58,2.34,3.58,4.28,0,4.21-6.65,7.85-6.72,7.88Zm-3.18-12c-1.9,0-3.43,2.26-3.43,4.14,0,4,6.09,7.45,6.61,7.74.51-.29,6.6-3.77,6.6-7.74,0-1.88-1.53-4.14-3.43-4.14a3.45,3.45,0,0,0-3.11,2,.08.08,0,0,1-.06,0h0a.08.08,0,0,1-.07,0A3.44,3.44,0,0,0,41.33,49.88Z"/><path class="e8a8616a-5d45-45e6-b117-e6b527b6d66f" d="M50.13,55h0a.34.34,0,0,1-.29-.37c.39-2.87-1.63-3.55-1.71-3.58a.34.34,0,0,1-.22-.42.33.33,0,0,1,.42-.21s2.64.86,2.17,4.3A.33.33,0,0,1,50.13,55Z"/><path class="e8a8616a-5d45-45e6-b117-e6b527b6d66f" d="M49.85,56.18h-.08a.31.31,0,0,1-.24-.39l.1-.45a.34.34,0,0,1,.4-.25.33.33,0,0,1,.25.4l-.11.45A.32.32,0,0,1,49.85,56.18Z"/><path class="b24b0e8b-7c20-41c2-b779-834e9eeebc30" d="M19.77,69.92a3.5,3.5,0,0,0-3.17,2,3.49,3.49,0,0,0-3.17-2c-1.94,0-3.51,2.28-3.51,4.21C9.92,78.35,16.6,82,16.6,82s6.68-3.61,6.68-7.83C23.28,72.2,21.71,69.92,19.77,69.92Z"/><path class="b7f2777d-603f-4cb4-b4e2-e60fe21b243d" d="M16.6,82h0c-.07,0-6.72-3.68-6.72-7.89,0-1.94,1.6-4.28,3.58-4.28a3.59,3.59,0,0,1,3.17,1.94,3.6,3.6,0,0,1,3.17-1.94c2,0,3.58,2.34,3.58,4.28,0,4.21-6.65,7.85-6.71,7.89ZM13.43,70C11.53,70,10,72.26,10,74.13c0,4,6.1,7.46,6.61,7.74.52-.28,6.61-3.77,6.61-7.74,0-1.87-1.53-4.14-3.44-4.14a3.43,3.43,0,0,0-3.1,2,.08.08,0,0,1-.07,0h0a.05.05,0,0,1-.06,0A3.46,3.46,0,0,0,13.43,70Z"/><path class="e8a8616a-5d45-45e6-b117-e6b527b6d66f" d="M22.23,75.1h-.05a.33.33,0,0,1-.28-.37c.39-2.86-1.63-3.55-1.72-3.58a.32.32,0,0,1-.21-.41.33.33,0,0,1,.41-.22s2.64.87,2.18,4.3A.34.34,0,0,1,22.23,75.1Z"/><path class="e8a8616a-5d45-45e6-b117-e6b527b6d66f" d="M22,76.3h-.08a.33.33,0,0,1-.25-.4l.11-.45a.33.33,0,0,1,.4-.25.33.33,0,0,1,.24.4l-.1.45A.33.33,0,0,1,22,76.3Z"/><path class="b24b0e8b-7c20-41c2-b779-834e9eeebc30" d="M47.68,69.92a3.48,3.48,0,0,0-3.17,2,3.5,3.5,0,0,0-3.18-2c-1.93,0-3.5,2.28-3.5,4.21,0,4.22,6.68,7.83,6.68,7.83s6.68-3.61,6.68-7.83C51.19,72.2,49.61,69.92,47.68,69.92Z"/><path class="b7f2777d-603f-4cb4-b4e2-e60fe21b243d" d="M44.51,82h0c-.07,0-6.72-3.68-6.72-7.89,0-1.94,1.6-4.28,3.58-4.28a3.62,3.62,0,0,1,3.18,1.94,3.59,3.59,0,0,1,3.17-1.94c2,0,3.58,2.34,3.58,4.28,0,4.21-6.65,7.85-6.72,7.89ZM41.33,70c-1.9,0-3.43,2.27-3.43,4.14,0,4,6.09,7.46,6.61,7.74.51-.28,6.6-3.77,6.6-7.74,0-1.87-1.53-4.14-3.43-4.14a3.45,3.45,0,0,0-3.11,2,.06.06,0,0,1-.06,0h0a.07.07,0,0,1-.07,0A3.44,3.44,0,0,0,41.33,70Z"/><path class="e8a8616a-5d45-45e6-b117-e6b527b6d66f" d="M50.13,75.1h0a.34.34,0,0,1-.29-.37c.39-2.86-1.63-3.55-1.71-3.58a.33.33,0,0,1-.22-.41.34.34,0,0,1,.42-.22s2.64.87,2.17,4.3A.33.33,0,0,1,50.13,75.1Z"/><path class="e8a8616a-5d45-45e6-b117-e6b527b6d66f" d="M49.85,76.3h-.08a.32.32,0,0,1-.24-.4l.1-.45a.34.34,0,0,1,.4-.25.34.34,0,0,1,.25.4l-.11.45A.32.32,0,0,1,49.85,76.3Z"/></g></g></svg>