<svg xmlns="http://www.w3.org/2000/svg" xmlns:xlink="http://www.w3.org/1999/xlink" viewBox="0 0 61.11 91.54"><defs><style>.b3603001-7921-4728-b29e-c83aa9b9e419,.bbad8649-cb0c-4a0e-b676-af7b87e1b6ed,.bd74b0cf-365e-4e71-841d-4fc3f2203743,.fe7138fa-2745-4d80-9b93-3c58fc9e9958{fill:none;}.fe7138fa-2745-4d80-9b93-3c58fc9e9958{clip-rule:evenodd;}.bbad8649-cb0c-4a0e-b676-af7b87e1b6ed{clip-path:url(#a3afce09-3cf2-45c6-96fe-49c4fea4122d);}.bd74b0cf-365e-4e71-841d-4fc3f2203743{clip-path:url(#b3f6f8a3-f0e6-4282-9292-0d1d07ef101e);}.ad1b4d10-9877-4f51-b66a-7777d08679b0{fill:#f6413a;}.e8776c39-3166-421c-9fbe-d9822bea2208{fill:#adadad;}.e33bef5f-5da9-4bcf-b07d-21498eb54844,.fad0256a-1cbc-412b-813a-938df5b8976b{fill:#25126c;}.a4bc4713-4ab3-45c0-a729-b35e36815756,.a85493b5-75f8-4376-b27a-8e3f092c3a96,.a85ea50c-d04d-4d45-b131-14dc1fbfc751,.aaf9e1ae-e5ba-4d96-8b1c-a37563fb0795,.ab01a3f3-32b2-4edd-a65b-b094eefffd8a,.afd5775a-7d6d-499b-95e9-d1da0b6c84cd,.f631c505-57f1-40e7-8b96-0d770784397b,.fad0256a-1cbc-412b-813a-938df5b8976b{fill-rule:evenodd;}.a85493b5-75f8-4376-b27a-8e3f092c3a96{fill:#fecbae;}.ab01a3f3-32b2-4edd-a65b-b094eefffd8a{fill:#fe7edb;}.bc4343b4-9fbf-4251-86bf-ad4a17f21856{fill:#d61fa4;}.a4bc4713-4ab3-45c0-a729-b35e36815756{fill:#e4b9ff;}.fdca41e3-260b-4908-93b8-88ffdf3825f5{fill:#7c2bb0;}.a85ea50c-d04d-4d45-b131-14dc1fbfc751{fill:#620002;}.ef392b06-f81b-47fa-aa48-72d2d03ec01a{fill:#3b1010;}.ad6ddf3f-7e7b-49bd-afbd-0a1cae53822e{clip-path:url(#a4de3a8c-3f1a-4ed8-a4f2-fb230e9c5866);}.aaf9e1ae-e5ba-4d96-8b1c-a37563fb0795{fill:#fa7073;}.a7fef325-523a-40ff-a8d2-fb904fb599ef{fill:#a03636;}.f631c505-57f1-40e7-8b96-0d770784397b{fill:#fff;}.b74c3333-4916-4e1b-a01f-62152cd36c6f{clip-path:url(#aa681330-e53e-44c9-87d5-11253903c592);}.bd8a39aa-f485-4010-b04f-f95195637ac7{clip-path:url(#b5d42009-6215-44da-8bea-2f6ba36702db);}.b858950f-e54a-4fbe-9832-85311e3d0ec3{fill:#0054ff;}.ae85e3bc-afd4-4cbf-8686-423d17d2fd79{fill:#0155ff;}.afc887c3-8271-4b1c-9669-2b827257bb99{fill:#0256ff;}.b75fc309-475f-445c-950c-156d8fd73610{fill:#0356ff;}.a2b1fda9-726e-4f37-8409-b357850baf9f{fill:#0457ff;}.b9df6257-3bdd-4029-aeb6-0d3a1bb24528{fill:#0558ff;}.a4bb7a76-d21b-49b5-bd1b-d36794f4e94d{fill:#0659ff;}.a2179758-efa0-48e1-bc3a-8f0f90d32d0d{fill:#075aff;}.ffa4c807-7ad8-4f14-a8e6-b92f9924a26b{fill:#085aff;}.b90abbd5-ad14-4433-b0d9-cf5cb7c48ebc{fill:#095bff;}.b7832f82-c5ab-42e9-a387-33064513607c{fill:#0a5cff;}.b0c57dfb-b911-47e5-b526-b4ba062c96c4{fill:#0b5dff;}.f5705adb-7798-47f4-84bc-b76156829570{fill:#0c5dff;}.b42518b7-732f-4c87-9e13-d738dc8d0d3c{fill:#0d5eff;}.b6316707-6f90-446b-b936-ea4b19439d4b{fill:#0e5fff;}.b9bd3c52-0adf-40c2-a3cf-ae33a2cbef34{fill:#0f60ff;}.bc2db358-cad5-4538-947e-eceed7aab692{fill:#1061ff;}.a92744c9-f506-4cab-ab95-7209532cf140{fill:#1161ff;}.aaf4453c-5810-4d15-86af-1fd8c67f4773{fill:#1262ff;}.a40c138c-7bd0-4982-9dd6-4309b98d6c3c{fill:#1363ff;}.a9141f0a-014d-42d2-aade-ade6d2f4c324{fill:#1464ff;}.f5665d91-b050-41d3-83cf-10b689c40aee{fill:#1565ff;}.e3c71d80-6102-4cab-a2aa-c2a1056b19bf{fill:#1665ff;}.ad493215-4dd9-47e3-b2ff-ae2020868a1c{fill:#1766ff;}.bcd151f4-63d5-4e9c-b8cb-bf44a9b980f7{fill:#1867ff;}.e421ddb8-dc25-47b5-bf72-49af453db98e{fill:#1968ff;}.b3462442-b4a6-486d-9412-c03b99086f47{fill:#1a69ff;}.a00dd574-1504-47c0-b642-099133165bd4{fill:#1b69ff;}.b471afc8-aa43-40a9-baaa-b1ca62e2e700{fill:#1c6aff;}.fdad7e21-be52-4896-8925-8e0e1ef6c8e6{fill:#1d6bff;}.a92ddf0e-0374-4ee3-9700-ce90dab59537{fill:#1e6cff;}.e99f165e-59c3-48f5-8fd8-9a1656cc51b8{fill:#1f6cff;}.b5198fab-a506-4331-ad72-0439c3de4c6c{fill:#206dff;}.a409252b-bb69-4c1b-b925-ff33ad539077{fill:#216eff;}.a9e668c3-bf65-4135-baeb-4d3fc7a7611e{fill:#226fff;}.a0fe9323-5807-46bd-8d84-bf9e5e144cf1{fill:#2370ff;}.a7533e63-3f93-4799-a538-80a08aa69c7e{fill:#2470ff;}.aaaf3c23-f6c1-48e5-a563-01541be71c0d{fill:#2571ff;}.b03483c4-33b1-4a67-b4f6-b0722c78c272{fill:#2672ff;}.ec1836ea-e6a3-4df2-bfb9-7fbbfc173d2d{fill:#2773ff;}.ac4d101e-f1ad-463d-bfd2-5202fc6a1ff2{fill:#2874ff;}.b2e61c42-45f7-462a-a25c-7d59648abcc9{fill:#2974ff;}.fcaefa78-49c1-4ee9-82b1-2ed1ed1a2e6f{fill:#2a75ff;}.f5ff6158-4361-4812-9b5e-83b35963f364{fill:#2b76ff;}.ee8dc232-09b2-43de-82fe-571c23180f27{fill:#2c77ff;}.fcb85a8f-22be-4f52-bd9f-c4f58a1a4072{fill:#2d78ff;}.aba37334-37e7-400f-85a6-341254d251a2{fill:#2e78ff;}.a527e6bc-759e-4de5-875a-ccd86248eb78{fill:#2f79ff;}.e6b42167-7a15-4fb7-9b37-4d7bdcb844e7{fill:#307aff;}.a9476750-58ce-4266-829c-d44f8e042f6f{fill:#317bff;}.a5539c44-d61a-45ef-8d1e-97036cd036f2{fill:#327bff;}.eee62d3e-24a3-4cbe-80ab-2e06802a2552{fill:#337cff;}.b10329e8-6eba-4ae8-8586-9826b56a40e6{fill:#347dff;}.af6cbf82-57ff-483d-bd2a-025cf02c0d42{fill:#357eff;}.effe68c9-6ef4-4f43-a009-43b402f52117{fill:#367fff;}.a28f6650-42b3-433c-97f5-6479c01ac347{fill:#377fff;}.a2d70e38-17c1-4467-b058-fbbac5fb1262{fill:#3880ff;}.e2c5cc4c-a32e-490d-93c1-1596d4df619b{fill:#3981ff;}.e90c98b5-b3ca-4139-b432-cee63103bdec{fill:#3a82ff;}.a24349ae-502f-4474-b084-6e16a8f1f1b7{fill:#3b83ff;}.e41f3228-3f0b-4823-818b-2ccb06721a82{fill:#3c83ff;}.e97cc8aa-a722-4d4b-bddd-a8e1e1622839{fill:#3d84ff;}.b88e1f69-b84f-4ef9-a12b-66676b328a11{fill:#3e85ff;}.aaa0228e-0ad0-4ddc-9b2e-72fde010ad3c{fill:#3f86ff;}.b96b0444-2a32-40e8-9750-a60566f53d40{fill:#4087ff;}.ab0c01bc-dfc4-497d-b70b-55923879ab9f{fill:#4187ff;}.b2adae95-de5b-401e-8626-844b8e73f418{fill:#4288ff;}.be511c22-cb74-4f20-b140-72632ec2580a{fill:#4389ff;}.b163800c-8af2-4dd9-a69f-c0ae0a86fb16{fill:#448aff;}.b733440e-28f2-4b5c-9637-48747f541516{fill:#458aff;}.be6dd741-1e1f-46bf-9c1e-3180d1e071cf{fill:#468bff;}.ae2f96d1-66c8-41ac-9bc7-e002578690c9{fill:#478cff;}.b56a7809-a16c-4acf-ad58-3cb2a904b7dd{fill:#488dff;}.b98d50f7-2e70-4826-8d42-02dc6bfae14c{fill:#498eff;}.e0d7eb59-0801-4750-a47d-8610404e35ce{fill:#4a8eff;}.ec7a9ef7-66a1-4a22-be10-8d513d2216cf{fill:#4b8fff;}.a6e6196e-f4fc-489a-bceb-6ed59a7baf92{fill:#4c90ff;}.e8aec95e-a619-4630-9421-e8df0c669618{fill:#4d91ff;}.aedfd039-5658-4b9a-81d1-209b2b3ab3f3{fill:#4e92ff;}.a6d2a098-fc24-4d50-b6e4-a0c9092ff432{fill:#5092ff;}.fcfcabf9-0eec-40ed-ab5b-b93bbedab036{fill:#5193ff;}.a60f22f7-d097-4c68-92f9-02f7239d9de0{fill:#5294ff;}.f13573bb-a252-4912-81d5-47253efd322f{fill:#5395ff;}.b234c76a-55d3-449e-9fa4-3833c36db3fe{fill:#5496ff;}.f18e1ac5-d5da-40d1-afd2-629d598e48ea{fill:#5596ff;}.f79a41cf-9325-4dbd-aff7-10338dfadb85{fill:#5697ff;}.b2305430-d1d6-4747-83e2-eae11323d95c{fill:#5798ff;}.aa1667a8-3dc7-4402-b282-966dcc3023a7{fill:#5899ff;}.e4e4f913-707f-4ac2-a87b-c3badc944b20{fill:#599aff;}.a2062321-9bd6-4de7-b772-e441944a1b5c{fill:#5a9aff;}.b57f4982-4048-451d-9218-5966c236d9cc{fill:#5b9bff;}.fc516435-a01e-4e55-a56d-24a5ff4c316e{fill:#5c9cff;}.f8652b52-cd18-4c74-88d5-33774bc3e509{fill:#5d9dff;}.b421cda3-c4aa-403f-a175-50289a787803{fill:#5e9dff;}.a41efe19-6b46-4690-9127-3ed25ecfb914{fill:#5f9eff;}.bb3b256a-600f-443e-b58c-78a3a8f563f2{fill:#609fff;}.f7f7207d-41ae-41a1-ab52-8b610160b893{fill:#61a0ff;}.f6a8bc8e-50f7-4f25-bf03-bb9aee118752{fill:#62a1ff;}.b3d92ff1-6d16-401d-880d-89698f162f6f{fill:#63a1ff;}.adf70195-6c77-48de-99af-22079a915281{fill:#64a2ff;}.a7d20e68-f1eb-42e9-9671-d7737c1b4812{fill:#65a3ff;}.a4ff71ca-24e6-4bc6-bcb8-14b9fa84cf1b{fill:#66a4ff;}.b5f9bf9a-8eff-496c-b716-d4df780e3866{fill:#67a5ff;}.a6d88638-812c-40bb-bc6e-ebbb6edc56db{fill:#68a5ff;}.be78c151-864c-4c7c-bded-9dcad771b353{fill:#69a6ff;}.ada4c8f3-da12-4346-ab06-62f5a5481f34{fill:#6aa7ff;}.a4456606-8d48-4f31-8faa-3e0861e3538c{fill:#6ba8ff;}.eda5bd8f-a33c-4309-87fb-cb85f2953155{fill:#6ca9ff;}.f44f900a-4e3e-46d3-a1c2-3154c143829c{fill:#6da9ff;}.a3b07aaa-d369-4559-99ed-3f6cbf0297e6{fill:#6eaaff;}.e1e423da-0376-4bd9-a08a-dca6d55b1b1f{fill:#6fabff;}.aa708709-d681-4fd7-9bc8-c407d5ee1c1a{fill:#70acff;}.bef14b5d-84e0-49f0-9033-9ef325b207bf{fill:#71acff;}.ff846453-2346-40e4-a9d8-6a05deebade7{fill:#72adff;}.a38d2728-31c0-4629-aacc-c67489b71580{fill:#73aeff;}.bf2bb613-c70a-41f4-b573-0f943caaf20c{fill:#74afff;}.aceb5c05-11c8-47d4-89b6-d5e4e316b43e{fill:#75b0ff;}.e61ac628-2200-4804-a71a-b843035f9b91{fill:#76b0ff;}.a2c2a977-9d0f-41e5-84ae-7fabff7b1c71{fill:#77b1ff;}.f5d5793b-0374-44c2-b732-1198ba3c78be{fill:#78b2ff;}.b1d5a9d7-2f5b-416a-8e17-a6095aaa240a{fill:#79b3ff;}.e615fec8-6936-4a2c-803e-a39ef768f2c5{fill:#7ab4ff;}.ad5526b0-2db9-48fb-8eac-3c3860f0d0a5{fill:#7bb4ff;}.a4ed547b-7f56-49fe-b5c9-00eacfb72a7f{fill:#7cb5ff;}.b4fc7d80-54e7-46e4-b9cf-24109aee437e{fill:#7db6ff;}.a2d40373-667a-45f8-bc3e-81c620ef16d3{fill:#7eb7ff;}.f11ccf97-0d05-4278-b5de-56cba6a94d25{fill:#7fb8ff;}.bbb5b82e-3536-4081-b576-7a32c24a06cf{fill:#80b8ff;}.b0540ece-3c20-4f4f-a0a6-35af74941d58{fill:#81b9ff;}.bc3db228-ece4-4f27-bc22-122ea93f5ed4{fill:#82baff;}.a1e4770f-5f60-4780-a839-e185351c8178{fill:#83bbff;}.e31c056e-861e-491a-b768-8a79a7ebea0c{fill:#84bbff;}.f4ce692d-0134-424c-8a9e-b36482774711{fill:#85bcff;}.b8c2cfb4-eb93-41ad-9097-d5a8e0c5931a{fill:#86bdff;}.fea2fdbb-70a9-4531-b5be-387574c5e1c0{fill:#87beff;}.e83d0a3c-43ce-4928-be9f-9cfb97f6b7cd{fill:#88bfff;}.f11d6b07-e906-4a50-ae3b-ecc09fbdd55c{fill:#89bfff;}.a7041845-46da-4e93-a4bd-5b49a9a0e2da{fill:#8ac0ff;}.f63b79d0-cb5c-47c9-933f-f5576194ced0{fill:#8bc1ff;}.b7d5033d-3a66-4572-b328-2e72270e95a6{fill:#8cc2ff;}.e9336235-039b-4f7c-b24d-61e60b1d9995{fill:#8dc3ff;}.e94ef800-36ee-4c35-97ac-111b5a2e7eea{fill:#8ec3ff;}.b424fd59-4869-47fa-a413-610b17a07871{fill:#8fc4ff;}.be55834d-593a-4a82-b58a-f0af0ce883ec{fill:#90c5ff;}.fac58a00-9a37-40f1-9670-455a732c9788{fill:#91c6ff;}.f83f2ae3-960d-43f5-9a73-6ae7baa8a339{fill:#92c7ff;}.a06ecc6f-083f-4190-9fc5-f8aadfdceeda{fill:#93c7ff;}.a35072c7-428f-4d1f-ba5f-fcb59df5f2ba{fill:#94c8ff;}.eb903242-afe7-46f4-bb3a-98c68db0cda7{fill:#95c9ff;}.b53db040-5f38-49f2-a91d-c16b57650810{fill:#96caff;}.ff1182d1-734b-4a15-a797-133ac28d8ac8{fill:#97caff;}.e926ec7d-8b00-4ee5-b733-15dcc13822b8{fill:#98cbff;}.a63163eb-3af3-445a-9e80-95ffd8e78bfe{fill:#9cf;}.f34d3795-d370-4839-bfe2-c9ab189498b1{fill:#9acdff;}.a2db22e9-91b3-44a4-8dd4-0d95f9c6df09{fill:#9bceff;}.a322ecc8-318f-4427-a7f5-52e864d4aac9{fill:#9cceff;}.b0904294-42bb-46d5-9b4a-168d689a79aa{fill:#9dcfff;}.a869630c-d8b7-4867-80f0-7a9516611171{fill:#9ed0ff;}.bef761f2-188e-44a8-96a7-b854858bd3dc{clip-path:url(#fe4ac0ce-d476-4eae-bbf4-5503be5188b2);}.aaabd499-73f3-47d7-94ae-71a19dd902a3{fill:#aa292e;}.a407323e-ab89-4fa3-ac32-596ab6e29083{fill:#1f2d6c;}.bd40e9c9-4016-4f76-abf2-62b5a6d01b5a{fill:#333;}.e4037286-a097-4050-bf48-14b3393a0837{fill:#aa7941;}.ebbdd5d1-6451-4385-a873-e42f598476f4{fill:#0b050f;}.e6ca348a-f186-4da4-8108-91f0617aa8ee{fill:#3856c8;}.a8ae15b5-47f2-4d32-bef8-eb699f47afbe{fill:#bf9b4d;}.eed0bdf6-2be5-41a4-893b-6e45e4d8ce4e{fill:#e8efff;}.f8c6a6b6-64ea-42e1-b5be-f3365ed5799b{fill:#c9d8f7;}.ac26d434-028d-4ab6-ad2a-382aea1f70e8{fill:#715c57;}.afd5775a-7d6d-499b-95e9-d1da0b6c84cd,.bfb9bb4b-cc27-4d04-bde4-39abadb97635{fill:#153f68;}.aca660d6-6ecd-41a8-8a73-059e9fa613d5{clip-path:url(#e1c6c5b7-5226-4667-9811-82e5178c5d39);}.b2227ae1-324f-4f32-8ae2-3272966791b5{fill:#7f282a;}.f2255692-1575-4040-8133-07338289e951{fill:#3f3f3f;}.f4eb269f-a875-4183-ab73-c3e395bbe380{clip-path:url(#a89df8cd-0d57-4ee7-9fc1-016272f298ef);}.f7902459-0fd5-4575-92fb-5d5cabc2084f{fill:#c51611;}.b61f62ca-0ebd-40d0-b586-2affb452bd86{fill:#ffb3b3;}</style><clipPath id="a3afce09-3cf2-45c6-96fe-49c4fea4122d"><path class="b3603001-7921-4728-b29e-c83aa9b9e419" d="M35.59,21.42a10.09,10.09,0,0,0,.27-2.21,7,7,0,0,0,0-.94,1.63,1.63,0,0,0-.22-.72A1.3,1.3,0,0,0,34.53,17a1.4,1.4,0,0,0-1.08.42,1.39,1.39,0,0,0-.15.73c0,.29,0,1.32,0,1.32s.11,1.87.15,1.92a2.56,2.56,0,0,0,.24.11,3.51,3.51,0,0,0,.92.19,3,3,0,0,0,.77-.16S35.45,21.54,35.59,21.42Z"/></clipPath><clipPath id="b3f6f8a3-f0e6-4282-9292-0d1d07ef101e"><path class="b3603001-7921-4728-b29e-c83aa9b9e419" d="M32.84,69.75h-.79l-.76,0a1.3,1.3,0,0,0-.5.12,1.24,1.24,0,0,0-.31.54,3.5,3.5,0,0,0,0,.57,2.31,2.31,0,0,0,.55.43,1.93,1.93,0,0,0,1,.2,2.06,2.06,0,0,0,1-.28,1.34,1.34,0,0,0,.38-.47,1.23,1.23,0,0,0,0-.47,1,1,0,0,0-.25-.53A.56.56,0,0,0,32.84,69.75Z"/></clipPath><clipPath id="a4de3a8c-3f1a-4ed8-a4f2-fb230e9c5866"><path class="b3603001-7921-4728-b29e-c83aa9b9e419" d="M26.85,64.84a8.66,8.66,0,0,1,1.08-.38c.18,0,1.33-.23,1.48-.23s1.14.16,1.27.19,1.17.32,1.25.38.86.84.75,1-.75-.07-.83-.08-1.11-.17-1.25-.18l-1.21-.08c-.17,0-1.34.09-1.51.11l-1.1.12c-.07,0-.73.17-.79.09S26.69,65,26.85,64.84Z"/></clipPath><clipPath id="aa681330-e53e-44c9-87d5-11253903c592"><path class="bd74b0cf-365e-4e71-841d-4fc3f2203743" d="M25.86,69.63h.93l.8,0a1.19,1.19,0,0,1,.34.15,1.17,1.17,0,0,1,.26.45,4.77,4.77,0,0,1,.06.62,4,4,0,0,1-.6.43,2.72,2.72,0,0,1-1,.21,2.13,2.13,0,0,1-1-.27,1.39,1.39,0,0,1-.51-.59,1.24,1.24,0,0,1,.09-.46.89.89,0,0,1,.25-.42A1.74,1.74,0,0,1,25.86,69.63Z"/></clipPath><clipPath id="b5d42009-6215-44da-8bea-2f6ba36702db"><path class="fe7138fa-2745-4d80-9b93-3c58fc9e9958" d="M31.12,70.6a.6.6,0,0,1,1.19,0,.6.6,0,0,1-1.19,0Z"/></clipPath><clipPath id="fe4ac0ce-d476-4eae-bbf4-5503be5188b2"><path class="fe7138fa-2745-4d80-9b93-3c58fc9e9958" d="M25.9,70.59a.58.58,0,0,1,.61-.55.55.55,0,1,1,0,1.09A.58.58,0,0,1,25.9,70.59Z"/></clipPath><clipPath id="e1c6c5b7-5226-4667-9811-82e5178c5d39"><path class="b3603001-7921-4728-b29e-c83aa9b9e419" d="M28.22,25s.49.62.68.77a4.44,4.44,0,0,0,1,.35c.11,0,1.08.07,1.19.07s1.1-.05,1.19-.07a9.35,9.35,0,0,0,1.25-.28c.17-.12.51-.72.57-.68a1.93,1.93,0,0,1-.55.76,10.39,10.39,0,0,1-1.27.28c-.12,0-1.07.08-1.18.08s-1.08-.05-1.19-.07a4.86,4.86,0,0,1-1-.34A3.52,3.52,0,0,1,28.22,25Z"/></clipPath><clipPath id="a89df8cd-0d57-4ee7-9fc1-016272f298ef"><path class="bbad8649-cb0c-4a0e-b676-af7b87e1b6ed" d="M27.83,21.36c-.24-.21-.24-1.61-.25-2a8,8,0,0,1,0-1.08c0-.22,0-.76.26-1A1.88,1.88,0,0,1,29,17a2.06,2.06,0,0,1,1,.44,1.54,1.54,0,0,1,.24.8c0,.45,0,1.2,0,1.2a17.63,17.63,0,0,1-.17,1.93l-.2.13a3,3,0,0,1-.9.22,3.13,3.13,0,0,1-.86-.17A1.37,1.37,0,0,1,27.83,21.36Z"/></clipPath></defs><title>C_J</title><g id="b7d8887f-4dfb-4ae0-8b16-599f2c7e3533" data-name="Capa 2"><g id="e675ea31-4dee-4d41-a517-97cd9e34d46d" data-name="Objects"><path class="ad1b4d10-9877-4f51-b66a-7777d08679b0" d="M3.39,8.21a1.73,1.73,0,0,1-1-.32,2,2,0,0,1-.68-.82.27.27,0,0,1,0-.14.23.23,0,0,1,.09-.19.32.32,0,0,1,.18-.06.2.2,0,0,1,.14,0l.11.11a1.46,1.46,0,0,0,.49.61,1.21,1.21,0,0,0,.72.23,1.54,1.54,0,0,0,.73-.17A1.19,1.19,0,0,0,4.6,7a1.43,1.43,0,0,0,.18-.72V2.12a.25.25,0,0,1,.08-.18.28.28,0,0,1,.21-.08.24.24,0,0,1,.2.08.24.24,0,0,1,.07.18V6.29a1.92,1.92,0,0,1-.25,1A1.67,1.67,0,0,1,4.4,8,2.07,2.07,0,0,1,3.39,8.21Z"/><rect class="b3603001-7921-4728-b29e-c83aa9b9e419" x="0.13" y="0.12" width="60.86" height="91.29" rx="2.4"/><path class="e8776c39-3166-421c-9fbe-d9822bea2208" d="M58.59,91.54H2.52A2.53,2.53,0,0,1,0,89V2.52A2.52,2.52,0,0,1,2.52,0H58.59a2.52,2.52,0,0,1,2.52,2.52V89A2.53,2.53,0,0,1,58.59,91.54ZM2.52.25A2.27,2.27,0,0,0,.25,2.52V89a2.28,2.28,0,0,0,2.27,2.28H58.59A2.28,2.28,0,0,0,60.86,89V2.52A2.27,2.27,0,0,0,58.59.25Z"/><path class="ad1b4d10-9877-4f51-b66a-7777d08679b0" d="M57.71,83.33a1.68,1.68,0,0,1,1,.31,1.94,1.94,0,0,1,.68.82.37.37,0,0,1,.05.15.2.2,0,0,1-.09.18.27.27,0,0,1-.18.07.25.25,0,0,1-.15,0,.47.47,0,0,1-.1-.1,1.48,1.48,0,0,0-.49-.61,1.2,1.2,0,0,0-.73-.23A1.42,1.42,0,0,0,57,84a1.28,1.28,0,0,0-.49.49,1.49,1.49,0,0,0-.17.71v4.17a.26.26,0,0,1-.09.19.29.29,0,0,1-.4,0,.29.29,0,0,1-.08-.19V85.24a2,2,0,0,1,.25-1,1.85,1.85,0,0,1,.69-.67A2,2,0,0,1,57.71,83.33Z"/><g id="bb19b581-4fb2-4ee5-9885-f57ba0b5285c" data-name="pelo ext"><path class="fad0256a-1cbc-412b-813a-938df5b8976b" d="M20.4,75.41c-.79-1.6-.43-2.84-.45-4.07,0-1.66.36-3.85.49-5.51a56.41,56.41,0,0,0,.39-5.94c-.06-1.5-.53-3.46-.7-5-.2-1.69-.45-3.93-.52-5.62,0-.76,0-2.53,0-2.53A10,10,0,0,1,21,46.45c.78-.08,1.82.18,2.59.17,1,0,2.32-.41,3.31-.34.73,0,6.4,6.89,6.3,8.6a52.62,52.62,0,0,0-.37,5.33A53.53,53.53,0,0,0,34,66.7a32.58,32.58,0,0,1,1,5c0,1.39-.08,3.37-.82,4.54A6.14,6.14,0,0,1,31.8,78a8.32,8.32,0,0,1-2.25.6,13.4,13.4,0,0,1-4.93,0,10.63,10.63,0,0,1-2.15-1.21A6.34,6.34,0,0,1,20.4,75.41Z"/><path d="M26.58,79a7.69,7.69,0,0,1-2-.23,10.48,10.48,0,0,1-2.16-1.22,6.5,6.5,0,0,1-2.08-2.07h0a5.62,5.62,0,0,1-.49-3.18c0-.31,0-.61,0-.91a29.64,29.64,0,0,1,.29-3.59c.08-.68.16-1.33.2-1.92s.09-1.07.15-1.66a33.69,33.69,0,0,0,.24-4.28,25.1,25.1,0,0,0-.4-3c-.12-.7-.23-1.35-.3-2-.19-1.59-.45-3.91-.53-5.62,0-.75,0-2.52,0-2.53a.1.1,0,0,1,0,0A10.4,10.4,0,0,1,21,46.4a7.69,7.69,0,0,1,1.49.08,9.34,9.34,0,0,0,1.11.09A12.08,12.08,0,0,0,25,46.4a8.58,8.58,0,0,1,1.84-.17c.73.05,6.46,6.84,6.35,8.65,0,.57-.1,1.2-.17,1.87a22.19,22.19,0,0,0-.2,3.46,29.36,29.36,0,0,0,.77,4.56c.15.69.29,1.33.4,1.92s.23,1,.37,1.62a16.1,16.1,0,0,1,.6,3.42,9.45,9.45,0,0,1-.83,4.56,6.17,6.17,0,0,1-2.33,1.8,8.57,8.57,0,0,1-2.26.6A21.9,21.9,0,0,1,26.58,79ZM19.66,46.83c0,.25,0,1.8,0,2.49.07,1.7.33,4,.52,5.61.07.59.18,1.25.3,1.94a25.52,25.52,0,0,1,.4,3,34,34,0,0,1-.24,4.3c-.05.59-.11,1.14-.14,1.66s-.13,1.24-.21,1.92A29.49,29.49,0,0,0,20,71.34c0,.3,0,.6,0,.91a5.54,5.54,0,0,0,.48,3.14h0a6.27,6.27,0,0,0,2.05,2,11.12,11.12,0,0,0,2.13,1.2,13.13,13.13,0,0,0,4.92,0A8.55,8.55,0,0,0,31.77,78a6.08,6.08,0,0,0,2.3-1.76,9.48,9.48,0,0,0,.81-4.51,15.74,15.74,0,0,0-.6-3.39c-.14-.58-.28-1.13-.37-1.63s-.25-1.23-.4-1.91a31.05,31.05,0,0,1-.78-4.59,23.78,23.78,0,0,1,.21-3.47c.07-.67.14-1.3.17-1.87.1-1.68-5.58-8.49-6.26-8.54A8.51,8.51,0,0,0,25,46.5a11.44,11.44,0,0,1-1.47.17,9.49,9.49,0,0,1-1.13-.09A7.53,7.53,0,0,0,21,46.5,9,9,0,0,0,19.66,46.83Z"/></g><path class="a85493b5-75f8-4376-b27a-8e3f092c3a96" d="M28.08,60.55s.06,2.05.09,2.1,1.24.54,1.29-.25c0-.08-.07-1.84-.07-1.91"/><path d="M28.93,62.88a1.53,1.53,0,0,1-.8-.22s-.13-2-.08-2.13h0v0h0c0,.11.07,1.92.09,2.07a1.53,1.53,0,0,0,1,.14.38.38,0,0,0,.24-.37s0-.84-.05-1.36c0-.31,0-.53,0-.55h.07s0,.26,0,.54c0,.72.06,1.32.06,1.38a.46.46,0,0,1-.42.46Z"/><g id="eae889ac-5f42-40dc-bec2-bd3365bc53da" data-name="pinches"><path class="ab01a3f3-32b2-4edd-a65b-b094eefffd8a" d="M32,77.47l.09.64-1.46.3-.18-.67S32,77.46,32,77.47Z"/><path class="bc4343b4-9fbf-4251-86bf-ad4a17f21856" d="M30.65,78.46s0,0,0,0l-.17-.68s0,0,0,0a0,0,0,0,1,0,0l.31-.06c1.24-.21,1.25-.22,1.27-.19s0,0,0,0l.09.63a.05.05,0,0,1,0,.06l-1.46.3Zm-.11-.68.14.57,1.37-.28L32,77.53l-1.18.2Z"/><path class="a4bc4713-4ab3-45c0-a729-b35e36815756" d="M32,76.42l.14.75-1.5.29-.16-.73S32,76.41,32,76.42Z"/><path class="fdca41e3-260b-4908-93b8-88ffdf3825f5" d="M30.6,77.51s-.05,0-.05,0l-.16-.73s0-.06,0-.06a7.9,7.9,0,0,1,1.56-.3l0,0,.14.75a0,0,0,0,1,0,.06l-1.5.29Zm-.1-.74.14.63,1.4-.27-.12-.65Z"/></g><g id="ff3627c3-820c-465f-ac8b-f2efe5a93089" data-name="cabeza"><g id="fe44f010-1095-4fb4-a4bd-7a184c95ba56" data-name="oreja der"><path class="a85493b5-75f8-4376-b27a-8e3f092c3a96" d="M31,68a1.18,1.18,0,0,1,.63-.22,1.11,1.11,0,0,1,.75.24,1.13,1.13,0,0,1-.32,1.4.84.84,0,0,1-.64,0,1.23,1.23,0,0,1-.5-.51A1.39,1.39,0,0,1,31,68Z"/><path d="M31,68.86a1.18,1.18,0,0,0,.5.46l-.05.13a1.3,1.3,0,0,1-.5-.57Z"/><path d="M31.45,69.32a.86.86,0,0,0,.59,0l.06.12a1,1,0,0,1-.7,0Z"/><polygon points="31.45 69.46 31.36 69.42 31.41 69.3 31.5 69.34 31.45 69.46"/><path d="M32,69.35a1,1,0,0,0,.37-.6l.14,0a1.26,1.26,0,0,1-.45.7Z"/><rect x="32.02" y="69.36" width="0.1" height="0.13" transform="translate(-29.27 23.76) rotate(-28.54)"/><path d="M32.41,68.75a.92.92,0,0,0-.08-.7l.1-.08a1,1,0,0,1,.12.81Z"/><polygon points="32.53 68.83 32.4 68.8 32.42 68.7 32.56 68.73 32.53 68.83"/><path d="M32.33,68.05a1,1,0,0,0-.7-.21v-.13a1.14,1.14,0,0,1,.8.26Z"/><polygon points="32.37 68.09 32.3 68.01 32.4 67.93 32.47 68.01 32.37 68.09"/><path d="M31.63,67.83A1.19,1.19,0,0,0,31,68l0,0a1.28,1.28,0,0,1,.65-.27Z"/><rect x="31.58" y="67.71" width="0.1" height="0.13"/></g><g id="e8afe001-efac-4392-adac-38e6e5064afc" data-name="cabeza"><path class="a85493b5-75f8-4376-b27a-8e3f092c3a96" d="M33.3,71.49c-.06,1-.07,3.76-1.09,5.06-.83,1.07-1.77,1.68-4.16,1.64-2.65,0-3.78-.72-4.51-2-.87-1.51-.81-4.19-.83-4.61,0-.78.15-1.74.17-2.2a11.9,11.9,0,0,1,.83-4A7.81,7.81,0,0,1,26,63.53a9.27,9.27,0,0,1,3.3-1.17,5.78,5.78,0,0,1,2,1.18,6.39,6.39,0,0,1,1.33,1.8,17.39,17.39,0,0,1,.61,4A13.84,13.84,0,0,1,33.3,71.49Z"/><path d="M33.22,69.29a17.79,17.79,0,0,0-.64-3.93l.12,0a17.69,17.69,0,0,1,.57,4Z"/><path d="M32.58,65.36a6.38,6.38,0,0,0-1.31-1.77l.09-.1a6.56,6.56,0,0,1,1.34,1.82Z"/><polygon points="32.59 65.41 32.56 65.32 32.68 65.27 32.72 65.36 32.59 65.41"/><path d="M31.28,63.58a5.6,5.6,0,0,0-2-1.16v-.14a6.09,6.09,0,0,1,2.06,1.21Z"/><polygon points="31.31 63.62 31.24 63.55 31.33 63.45 31.4 63.52 31.31 63.62"/><path d="M29.28,62.42A9.43,9.43,0,0,0,26,63.59L26,63.48a9.65,9.65,0,0,1,3.34-1.19Z"/><polygon points="29.34 62.43 29.24 62.42 29.25 62.29 29.35 62.3 29.34 62.43"/><path d="M26,63.6a8,8,0,0,0-2.27,1.84l-.08,0A7.66,7.66,0,0,1,26,63.48Z"/><polygon points="25.98 63.61 25.92 63.5 26 63.45 26.07 63.56 25.98 63.61"/><path d="M23.75,65.43a11.67,11.67,0,0,0-.85,3.95h0a11.55,11.55,0,0,1,.81-4Z"/><polygon points="23.72 65.47 23.64 65.42 23.7 65.33 23.78 65.38 23.72 65.47"/><path d="M22.91,69.38c0,.46-.21,1.42-.2,2.2h0c0-.78.13-1.74.15-2.2Z"/><rect x="22.86" y="69.33" width="0.04" height="0.1"/><path d="M22.71,71.59c0,.42,0,3.09.87,4.58l-.08,0c-.87-1.52-.77-4.21-.79-4.63Z"/><path d="M23.57,76.18c.72,1.27,1.83,1.93,4.47,2v.09c-2.65,0-3.81-.73-4.54-2Z"/><polygon points="23.52 76.27 23.47 76.18 23.55 76.13 23.6 76.21 23.52 76.27"/><path d="M28,78.14c2.38,0,3.29-.57,4.11-1.62l.09.08c-.83,1.06-1.8,1.68-4.2,1.64Z"/><rect x="27.99" y="78.15" width="0.1" height="0.09"/><path d="M32.15,76.52c1-1.27,1-4,1.08-5h.12c-.06,1-.08,3.77-1.11,5.1Z"/><rect x="32.15" y="76.5" width="0.1" height="0.12" transform="translate(-47.98 54.88) rotate(-52.06)"/><path d="M33.23,71.49a13.17,13.17,0,0,0,0-2.2h.05a11.7,11.7,0,0,1,.08,2.21Z"/><polygon points="33.35 71.55 33.23 71.53 33.24 71.44 33.36 71.44 33.35 71.55"/></g><g id="a0b45932-2d49-4709-b20c-72ead9d38fc1" data-name="boca"><g id="eae0b43c-84dd-4ae7-904e-d72d4b09d4a9" data-name="boca"><path class="a85ea50c-d04d-4d45-b131-14dc1fbfc751" d="M26.85,64.84a8.66,8.66,0,0,1,1.08-.38c.18,0,1.33-.23,1.48-.23s1.14.16,1.27.19,1.17.32,1.25.38.86.84.75,1-.75-.07-.83-.08-1.11-.17-1.25-.18l-1.21-.08c-.17,0-1.34.09-1.51.11l-1.1.12c-.07,0-.73.17-.79.09S26.69,65,26.85,64.84Z"/><path class="ef392b06-f81b-47fa-aa48-72d2d03ec01a" d="M32.54,65.89a2.87,2.87,0,0,1-.59-.1l-.11,0-.56-.08c-.29,0-.61-.1-.69-.1l-1.2-.08c-.16,0-1.33.09-1.5.11s-.63.06-.91.1l-.2,0-.08,0c-.52.11-.7.12-.75,0s.86-1,.87-1h0a8.19,8.19,0,0,1,1.1-.39c.18,0,1.34-.23,1.49-.23s1.15.16,1.28.19,1.17.32,1.27.39.91.84.76,1.07A.22.22,0,0,1,32.54,65.89Zm-3.15-.48,1.21.08c.08,0,.39.05.69.1l.56.08.12,0c.5.12.64.11.67.08s-.61-.83-.74-.93-1.08-.34-1.23-.38-1.13-.18-1.26-.18-1.29.18-1.47.22a9.37,9.37,0,0,0-1.06.38,3.77,3.77,0,0,0-.85.87,2.46,2.46,0,0,0,.64-.09l.1,0,.2,0c.3,0,.81-.1.91-.1S29.22,65.41,29.39,65.41ZM26,65.75h0Z"/></g><g id="abea4a80-966a-41a3-ae2a-754bdb0c340f" data-name="lengua"><g class="ad6ddf3f-7e7b-49bd-afbd-0a1cae53822e"><path class="aaf9e1ae-e5ba-4d96-8b1c-a37563fb0795" d="M27.71,62.4a3.39,3.39,0,0,1,2-.3,2.93,2.93,0,0,1,1.5.33,1.66,1.66,0,0,1,.67,1.13,1.7,1.7,0,0,1-.7,1,3.06,3.06,0,0,1-1.72.42,3.11,3.11,0,0,1-1.69-.59,1.68,1.68,0,0,1-.59-1A1.44,1.44,0,0,1,27.71,62.4Z"/><path class="a7fef325-523a-40ff-a8d2-fb904fb599ef" d="M29.56,65.07h-.14a3.1,3.1,0,0,1-1.73-.61,1.65,1.65,0,0,1-.6-1,1.53,1.53,0,0,1,.59-1.07h0a3.33,3.33,0,0,1,1.95-.31h0a3,3,0,0,1,1.53.34,1.24,1.24,0,0,1,0,2.24A3.12,3.12,0,0,1,29.56,65.07Zm-1.82-2.63a1.43,1.43,0,0,0-.55,1,1.59,1.59,0,0,0,.57,1,3.15,3.15,0,0,0,1.67.58,3,3,0,0,0,1.68-.41,1.63,1.63,0,0,0,.68-1,1.6,1.6,0,0,0-.65-1.08,2.94,2.94,0,0,0-1.47-.32h-.05a3.29,3.29,0,0,0-1.88.29Z"/></g></g><g id="be470d29-12ba-4ad4-a392-e3c97b8a53fa" data-name="dientes"><g class="ad6ddf3f-7e7b-49bd-afbd-0a1cae53822e"><path class="f631c505-57f1-40e7-8b96-0d770784397b" d="M25,70.59a2.7,2.7,0,0,0,1.32,1,9.83,9.83,0,0,0,5.93.11,2.81,2.81,0,0,0,1.39-1,4,4,0,0,0,.15-1.53H24.93A3.48,3.48,0,0,0,25,70.59Z"/><path d="M29.44,72.17a9,9,0,0,1-3.17-.52,2.62,2.62,0,0,1-1.34-1h0a3.26,3.26,0,0,1-.05-1.37,0,0,0,0,1,.05,0h4.29c4.55,0,4.55,0,4.57,0l0,0a3.9,3.9,0,0,1-.16,1.55,2.81,2.81,0,0,1-1.41,1A8.85,8.85,0,0,1,29.44,72.17ZM25,69.29A3.09,3.09,0,0,0,25,70.56h0a2.54,2.54,0,0,0,1.29,1,9.73,9.73,0,0,0,5.9.11,2.7,2.7,0,0,0,1.35-.93,3.62,3.62,0,0,0,.15-1.45H25Z"/></g><g class="ad6ddf3f-7e7b-49bd-afbd-0a1cae53822e"><path class="f631c505-57f1-40e7-8b96-0d770784397b" d="M33.78,61.21a2.72,2.72,0,0,0-1.33-1,9.8,9.8,0,0,0-5.92-.11,2.76,2.76,0,0,0-1.39,1A3.79,3.79,0,0,0,25,62.51s3,0,4.31,0l4.52,0A3.62,3.62,0,0,0,33.78,61.21Z"/><path d="M29.33,62.58H26.69c-1.72,0-1.72,0-1.72-.06A3.71,3.71,0,0,1,25.1,61a2.72,2.72,0,0,1,1.41-1,9.77,9.77,0,0,1,6,.11,2.6,2.6,0,0,1,1.35,1h0a3.54,3.54,0,0,1,.08,1.32.05.05,0,0,1,0,.05Zm-4.26-.12,4.26,0,4.47,0a3.25,3.25,0,0,0-.07-1.22h0a2.59,2.59,0,0,0-1.29-1,9.73,9.73,0,0,0-5.9-.11,2.66,2.66,0,0,0-1.35.93A3.32,3.32,0,0,0,25.07,62.46Z"/></g></g></g><g id="ad0b634f-c9c4-46ed-a8be-5f47b2475b0c" data-name="ojos"><g id="a1836f58-72a8-4c3e-ba27-02d95807bba7" data-name="ojos"><path class="f631c505-57f1-40e7-8b96-0d770784397b" d="M32.84,69.75h-.79l-.76,0a1.3,1.3,0,0,0-.5.12,1.24,1.24,0,0,0-.31.54,3.5,3.5,0,0,0,0,.57,2.31,2.31,0,0,0,.55.43,1.93,1.93,0,0,0,1,.2,2.06,2.06,0,0,0,1-.28,1.34,1.34,0,0,0,.38-.47,1.23,1.23,0,0,0,0-.47,1,1,0,0,0-.25-.53A.56.56,0,0,0,32.84,69.75Z"/><path d="M33.45,70.86a1.35,1.35,0,0,1-.37.53L33,71.23a1.28,1.28,0,0,0,.38-.4Z"/><polygon points="33.43 70.91 33.34 70.88 33.37 70.78 33.46 70.81 33.43 70.91"/><path d="M33.07,71.39a2.19,2.19,0,0,1-1,.32v-.26a2,2,0,0,0,1-.22Z"/><polygon points="33.03 71.42 32.92 71.26 33 71.2 33.11 71.36 33.03 71.42"/><path d="M32,71.7A2.2,2.2,0,0,1,31,71.47l.09-.18a1.68,1.68,0,0,0,1,.16Z"/><rect x="31.96" y="71.45" width="0.1" height="0.25" transform="translate(-2.74 1.29) rotate(-2.22)"/><path d="M30.94,71.47a1.82,1.82,0,0,1-.55-.51l.08,0a3.91,3.91,0,0,0,.56.36Z"/><polygon points="30.98 71.5 30.89 71.45 30.99 71.27 31.07 71.31 30.98 71.5"/><path d="M31.28,69.69H32v.12c-.29,0-.75,0-.75,0Z"/><polygon points="31.24 69.78 31.23 69.71 31.33 69.69 31.34 69.76 31.24 69.78"/><path d="M32.05,69.7h.8l0,.09-.79,0Z"/><rect x="31.99" y="69.69" width="0.1" height="0.12"/><path class="f631c505-57f1-40e7-8b96-0d770784397b" d="M25.86,69.63h.93l.8,0a1.19,1.19,0,0,1,.34.15,1.17,1.17,0,0,1,.26.45,4.77,4.77,0,0,1,.06.62,4,4,0,0,1-.6.43,2.72,2.72,0,0,1-1,.21,2.13,2.13,0,0,1-1-.27,1.39,1.39,0,0,1-.51-.59,1.24,1.24,0,0,1,.09-.46.89.89,0,0,1,.25-.42A1.74,1.74,0,0,1,25.86,69.63Z"/><path d="M25.19,70.66c0,.13.33.41.51.52l-.12.18a1.51,1.51,0,0,1-.5-.67Z"/><rect x="25.08" y="70.63" width="0.1" height="0.1" transform="matrix(0.98, -0.19, 0.19, 0.98, -13.25, 6.23)"/><path d="M25.7,71.19a2,2,0,0,0,.91.23v.25a2.29,2.29,0,0,1-1-.31Z"/><polygon points="25.62 71.39 25.53 71.34 25.66 71.15 25.74 71.21 25.62 71.39"/><path d="M26.61,71.42a2.65,2.65,0,0,0,1-.17l.08.18a2.73,2.73,0,0,1-1.08.24Z"/><polygon points="26.65 71.67 26.55 71.67 26.56 71.42 26.66 71.43 26.65 71.67"/><path d="M27.61,71.25c.18-.08.6-.38.59-.36l.08,0a2.68,2.68,0,0,1-.6.5Z"/><polygon points="27.63 71.45 27.55 71.27 27.64 71.23 27.72 71.41 27.63 71.45"/><path d="M27.57,69.72h-.79V69.6l.81.05Z"/><polygon points="27.61 69.74 27.52 69.72 27.54 69.64 27.64 69.66 27.61 69.74"/><path d="M26.79,69.72l-.92,0,0-.08s.57,0,.94,0Z"/><rect x="26.74" y="69.61" width="0.1" height="0.11"/><path d="M33.42,70.8a.63.63,0,0,1,.24.14l-.12.12-.18-.18Z"/><path d="M33.66,70.94a1.28,1.28,0,0,1,.25.32l-.19.09a.85.85,0,0,0-.18-.29Z"/><polygon points="33.58 71.09 33.51 71.03 33.62 70.91 33.69 70.97 33.58 71.09"/><path d="M25.15,70.74a.81.81,0,0,0-.27.07l-.08-.13a.68.68,0,0,1,.33-.05Z"/><path d="M24.87,70.81c-.12.07-.15.19-.22.33l-.19-.09a.84.84,0,0,1,.33-.37Z"/><polygon points="24.83 70.83 24.75 70.7 24.83 70.65 24.91 70.78 24.83 70.83"/></g><g id="e2094587-4e40-4d9f-85ad-2f0edabb51f8" data-name="pupilas"><g class="b74c3333-4916-4e1b-a01f-62152cd36c6f"><g class="bd8a39aa-f485-4010-b04f-f95195637ac7"><rect class="b858950f-e54a-4fbe-9832-85311e3d0ec3" x="31.12" y="70.03" width="1.19" height="1.12"/><ellipse class="b858950f-e54a-4fbe-9832-85311e3d0ec3" cx="31.15" cy="70.93" rx="0.71" ry="0.68"/><ellipse class="ae85e3bc-afd4-4cbf-8686-423d17d2fd79" cx="31.15" cy="70.93" rx="0.71" ry="0.67"/><ellipse class="afc887c3-8271-4b1c-9669-2b827257bb99" cx="31.15" cy="70.93" rx="0.7" ry="0.67"/><ellipse class="b75fc309-475f-445c-950c-156d8fd73610" cx="31.15" cy="70.93" rx="0.7" ry="0.66"/><ellipse class="a2b1fda9-726e-4f37-8409-b357850baf9f" cx="31.15" cy="70.93" rx="0.7" ry="0.66"/><ellipse class="b9df6257-3bdd-4029-aeb6-0d3a1bb24528" cx="31.15" cy="70.93" rx="0.69" ry="0.65"/><ellipse class="a4bb7a76-d21b-49b5-bd1b-d36794f4e94d" cx="31.15" cy="70.93" rx="0.69" ry="0.65"/><ellipse class="a2179758-efa0-48e1-bc3a-8f0f90d32d0d" cx="31.15" cy="70.93" rx="0.68" ry="0.65"/><ellipse class="ffa4c807-7ad8-4f14-a8e6-b92f9924a26b" cx="31.15" cy="70.93" rx="0.68" ry="0.64"/><ellipse class="b90abbd5-ad14-4433-b0d9-cf5cb7c48ebc" cx="31.15" cy="70.93" rx="0.67" ry="0.64"/><ellipse class="b7832f82-c5ab-42e9-a387-33064513607c" cx="31.15" cy="70.93" rx="0.67" ry="0.63"/><ellipse class="b0c57dfb-b911-47e5-b526-b4ba062c96c4" cx="31.15" cy="70.93" rx="0.66" ry="0.63"/><ellipse class="f5705adb-7798-47f4-84bc-b76156829570" cx="31.15" cy="70.93" rx="0.66" ry="0.62"/><ellipse class="b42518b7-732f-4c87-9e13-d738dc8d0d3c" cx="31.15" cy="70.93" rx="0.65" ry="0.62"/><ellipse class="b6316707-6f90-446b-b936-ea4b19439d4b" cx="31.15" cy="70.93" rx="0.65" ry="0.62"/><ellipse class="b9bd3c52-0adf-40c2-a3cf-ae33a2cbef34" cx="31.15" cy="70.93" rx="0.65" ry="0.61"/><ellipse class="bc2db358-cad5-4538-947e-eceed7aab692" cx="31.15" cy="70.93" rx="0.64" ry="0.61"/><ellipse class="a92744c9-f506-4cab-ab95-7209532cf140" cx="31.15" cy="70.93" rx="0.64" ry="0.6"/><ellipse class="aaf4453c-5810-4d15-86af-1fd8c67f4773" cx="31.15" cy="70.93" rx="0.63" ry="0.6"/><ellipse class="a40c138c-7bd0-4982-9dd6-4309b98d6c3c" cx="31.15" cy="70.93" rx="0.63" ry="0.59"/><ellipse class="a9141f0a-014d-42d2-aade-ade6d2f4c324" cx="31.15" cy="70.93" rx="0.62" ry="0.59"/><ellipse class="f5665d91-b050-41d3-83cf-10b689c40aee" cx="31.15" cy="70.93" rx="0.62" ry="0.59"/><ellipse class="e3c71d80-6102-4cab-a2aa-c2a1056b19bf" cx="31.15" cy="70.93" rx="0.61" ry="0.58"/><ellipse class="ad493215-4dd9-47e3-b2ff-ae2020868a1c" cx="31.15" cy="70.93" rx="0.61" ry="0.58"/><ellipse class="bcd151f4-63d5-4e9c-b8cb-bf44a9b980f7" cx="31.15" cy="70.93" rx="0.6" ry="0.57"/><ellipse class="e421ddb8-dc25-47b5-bf72-49af453db98e" cx="31.15" cy="70.93" rx="0.6" ry="0.57"/><ellipse class="b3462442-b4a6-486d-9412-c03b99086f47" cx="31.15" cy="70.93" rx="0.6" ry="0.56"/><ellipse class="a00dd574-1504-47c0-b642-099133165bd4" cx="31.15" cy="70.93" rx="0.59" ry="0.56"/><ellipse class="b471afc8-aa43-40a9-baaa-b1ca62e2e700" cx="31.15" cy="70.93" rx="0.59" ry="0.56"/><ellipse class="fdad7e21-be52-4896-8925-8e0e1ef6c8e6" cx="31.15" cy="70.93" rx="0.58" ry="0.55"/><ellipse class="a92ddf0e-0374-4ee3-9700-ce90dab59537" cx="31.15" cy="70.93" rx="0.58" ry="0.55"/><ellipse class="e99f165e-59c3-48f5-8fd8-9a1656cc51b8" cx="31.15" cy="70.93" rx="0.57" ry="0.54"/><ellipse class="b5198fab-a506-4331-ad72-0439c3de4c6c" cx="31.15" cy="70.93" rx="0.57" ry="0.54"/><ellipse class="a409252b-bb69-4c1b-b925-ff33ad539077" cx="31.15" cy="70.93" rx="0.56" ry="0.53"/><ellipse class="a9e668c3-bf65-4135-baeb-4d3fc7a7611e" cx="31.15" cy="70.93" rx="0.56" ry="0.53"/><ellipse class="a0fe9323-5807-46bd-8d84-bf9e5e144cf1" cx="31.15" cy="70.93" rx="0.56" ry="0.53"/><ellipse class="a7533e63-3f93-4799-a538-80a08aa69c7e" cx="31.15" cy="70.93" rx="0.55" ry="0.52"/><ellipse class="aaaf3c23-f6c1-48e5-a563-01541be71c0d" cx="31.15" cy="70.93" rx="0.55" ry="0.52"/><ellipse class="b03483c4-33b1-4a67-b4f6-b0722c78c272" cx="31.15" cy="70.93" rx="0.54" ry="0.51"/><ellipse class="ec1836ea-e6a3-4df2-bfb9-7fbbfc173d2d" cx="31.15" cy="70.93" rx="0.54" ry="0.51"/><ellipse class="ac4d101e-f1ad-463d-bfd2-5202fc6a1ff2" cx="31.15" cy="70.93" rx="0.53" ry="0.5"/><ellipse class="b2e61c42-45f7-462a-a25c-7d59648abcc9" cx="31.15" cy="70.93" rx="0.53" ry="0.5"/><ellipse class="fcaefa78-49c1-4ee9-82b1-2ed1ed1a2e6f" cx="31.15" cy="70.93" rx="0.52" ry="0.5"/><ellipse class="f5ff6158-4361-4812-9b5e-83b35963f364" cx="31.15" cy="70.93" rx="0.52" ry="0.49"/><ellipse class="ee8dc232-09b2-43de-82fe-571c23180f27" cx="31.15" cy="70.93" rx="0.51" ry="0.49"/><ellipse class="fcb85a8f-22be-4f52-bd9f-c4f58a1a4072" cx="31.15" cy="70.93" rx="0.51" ry="0.48"/><ellipse class="aba37334-37e7-400f-85a6-341254d251a2" cx="31.15" cy="70.93" rx="0.51" ry="0.48"/><ellipse class="a527e6bc-759e-4de5-875a-ccd86248eb78" cx="31.15" cy="70.93" rx="0.5" ry="0.47"/><ellipse class="e6b42167-7a15-4fb7-9b37-4d7bdcb844e7" cx="31.15" cy="70.93" rx="0.5" ry="0.47"/><ellipse class="a9476750-58ce-4266-829c-d44f8e042f6f" cx="31.15" cy="70.93" rx="0.49" ry="0.47"/><ellipse class="a5539c44-d61a-45ef-8d1e-97036cd036f2" cx="31.15" cy="70.93" rx="0.49" ry="0.46"/><ellipse class="eee62d3e-24a3-4cbe-80ab-2e06802a2552" cx="31.15" cy="70.93" rx="0.48" ry="0.46"/><ellipse class="b10329e8-6eba-4ae8-8586-9826b56a40e6" cx="31.15" cy="70.93" rx="0.48" ry="0.45"/><ellipse class="af6cbf82-57ff-483d-bd2a-025cf02c0d42" cx="31.15" cy="70.93" rx="0.47" ry="0.45"/><ellipse class="effe68c9-6ef4-4f43-a009-43b402f52117" cx="31.15" cy="70.93" rx="0.47" ry="0.44"/><ellipse class="a28f6650-42b3-433c-97f5-6479c01ac347" cx="31.15" cy="70.93" rx="0.46" ry="0.44"/><ellipse class="a2d70e38-17c1-4467-b058-fbbac5fb1262" cx="31.15" cy="70.93" rx="0.46" ry="0.44"/><ellipse class="e2c5cc4c-a32e-490d-93c1-1596d4df619b" cx="31.15" cy="70.93" rx="0.46" ry="0.43"/><ellipse class="e90c98b5-b3ca-4139-b432-cee63103bdec" cx="31.15" cy="70.93" rx="0.45" ry="0.43"/><ellipse class="a24349ae-502f-4474-b084-6e16a8f1f1b7" cx="31.15" cy="70.93" rx="0.45" ry="0.42"/><ellipse class="e41f3228-3f0b-4823-818b-2ccb06721a82" cx="31.15" cy="70.93" rx="0.44" ry="0.42"/><ellipse class="e97cc8aa-a722-4d4b-bddd-a8e1e1622839" cx="31.15" cy="70.93" rx="0.44" ry="0.41"/><ellipse class="b88e1f69-b84f-4ef9-a12b-66676b328a11" cx="31.15" cy="70.93" rx="0.43" ry="0.41"/><ellipse class="aaa0228e-0ad0-4ddc-9b2e-72fde010ad3c" cx="31.15" cy="70.93" rx="0.43" ry="0.41"/><ellipse class="b96b0444-2a32-40e8-9750-a60566f53d40" cx="31.15" cy="70.93" rx="0.42" ry="0.4"/><ellipse class="ab0c01bc-dfc4-497d-b70b-55923879ab9f" cx="31.15" cy="70.93" rx="0.42" ry="0.4"/><ellipse class="b2adae95-de5b-401e-8626-844b8e73f418" cx="31.15" cy="70.93" rx="0.42" ry="0.39"/><ellipse class="be511c22-cb74-4f20-b140-72632ec2580a" cx="31.15" cy="70.93" rx="0.41" ry="0.39"/><ellipse class="b163800c-8af2-4dd9-a69f-c0ae0a86fb16" cx="31.15" cy="70.93" rx="0.41" ry="0.38"/><ellipse class="b733440e-28f2-4b5c-9637-48747f541516" cx="31.15" cy="70.93" rx="0.4" ry="0.38"/><ellipse class="be6dd741-1e1f-46bf-9c1e-3180d1e071cf" cx="31.15" cy="70.93" rx="0.4" ry="0.38"/><ellipse class="ae2f96d1-66c8-41ac-9bc7-e002578690c9" cx="31.15" cy="70.93" rx="0.39" ry="0.37"/><ellipse class="b56a7809-a16c-4acf-ad58-3cb2a904b7dd" cx="31.15" cy="70.93" rx="0.39" ry="0.37"/><ellipse class="b98d50f7-2e70-4826-8d42-02dc6bfae14c" cx="31.15" cy="70.93" rx="0.38" ry="0.36"/><ellipse class="e0d7eb59-0801-4750-a47d-8610404e35ce" cx="31.15" cy="70.93" rx="0.38" ry="0.36"/><ellipse class="ec7a9ef7-66a1-4a22-be10-8d513d2216cf" cx="31.15" cy="70.93" rx="0.37" ry="0.36"/><ellipse class="a6e6196e-f4fc-489a-bceb-6ed59a7baf92" cx="31.15" cy="70.93" rx="0.37" ry="0.35"/><ellipse class="e8aec95e-a619-4630-9421-e8df0c669618" cx="31.15" cy="70.93" rx="0.37" ry="0.35"/><ellipse class="aedfd039-5658-4b9a-81d1-209b2b3ab3f3" cx="31.15" cy="70.93" rx="0.36" ry="0.34"/><ellipse class="a6d2a098-fc24-4d50-b6e4-a0c9092ff432" cx="31.15" cy="70.93" rx="0.36" ry="0.34"/><ellipse class="fcfcabf9-0eec-40ed-ab5b-b93bbedab036" cx="31.15" cy="70.93" rx="0.35" ry="0.33"/><ellipse class="a60f22f7-d097-4c68-92f9-02f7239d9de0" cx="31.15" cy="70.93" rx="0.35" ry="0.33"/><ellipse class="f13573bb-a252-4912-81d5-47253efd322f" cx="31.15" cy="70.93" rx="0.34" ry="0.33"/><ellipse class="b234c76a-55d3-449e-9fa4-3833c36db3fe" cx="31.15" cy="70.93" rx="0.34" ry="0.32"/><ellipse class="f18e1ac5-d5da-40d1-afd2-629d598e48ea" cx="31.15" cy="70.93" rx="0.33" ry="0.32"/><ellipse class="f79a41cf-9325-4dbd-aff7-10338dfadb85" cx="31.15" cy="70.93" rx="0.33" ry="0.31"/><ellipse class="b2305430-d1d6-4747-83e2-eae11323d95c" cx="31.15" cy="70.93" rx="0.33" ry="0.31"/><ellipse class="aa1667a8-3dc7-4402-b282-966dcc3023a7" cx="31.15" cy="70.93" rx="0.32" ry="0.3"/><ellipse class="e4e4f913-707f-4ac2-a87b-c3badc944b20" cx="31.15" cy="70.93" rx="0.32" ry="0.3"/><ellipse class="a2062321-9bd6-4de7-b772-e441944a1b5c" cx="31.15" cy="70.93" rx="0.31" ry="0.3"/><ellipse class="b57f4982-4048-451d-9218-5966c236d9cc" cx="31.15" cy="70.93" rx="0.31" ry="0.29"/><ellipse class="fc516435-a01e-4e55-a56d-24a5ff4c316e" cx="31.15" cy="70.93" rx="0.3" ry="0.29"/><ellipse class="f8652b52-cd18-4c74-88d5-33774bc3e509" cx="31.15" cy="70.93" rx="0.3" ry="0.28"/><ellipse class="b421cda3-c4aa-403f-a175-50289a787803" cx="31.15" cy="70.93" rx="0.29" ry="0.28"/><ellipse class="a41efe19-6b46-4690-9127-3ed25ecfb914" cx="31.15" cy="70.93" rx="0.29" ry="0.27"/><ellipse class="bb3b256a-600f-443e-b58c-78a3a8f563f2" cx="31.15" cy="70.93" rx="0.28" ry="0.27"/><ellipse class="f7f7207d-41ae-41a1-ab52-8b610160b893" cx="31.15" cy="70.93" rx="0.28" ry="0.27"/><ellipse class="f6a8bc8e-50f7-4f25-bf03-bb9aee118752" cx="31.15" cy="70.93" rx="0.28" ry="0.26"/><ellipse class="b3d92ff1-6d16-401d-880d-89698f162f6f" cx="31.15" cy="70.93" rx="0.27" ry="0.26"/><ellipse class="adf70195-6c77-48de-99af-22079a915281" cx="31.15" cy="70.93" rx="0.27" ry="0.25"/><ellipse class="a7d20e68-f1eb-42e9-9671-d7737c1b4812" cx="31.15" cy="70.93" rx="0.26" ry="0.25"/><ellipse class="a4ff71ca-24e6-4bc6-bcb8-14b9fa84cf1b" cx="31.15" cy="70.93" rx="0.26" ry="0.24"/><ellipse class="b5f9bf9a-8eff-496c-b716-d4df780e3866" cx="31.15" cy="70.93" rx="0.25" ry="0.24"/><ellipse class="a6d88638-812c-40bb-bc6e-ebbb6edc56db" cx="31.15" cy="70.93" rx="0.25" ry="0.24"/><ellipse class="be78c151-864c-4c7c-bded-9dcad771b353" cx="31.15" cy="70.93" rx="0.24" ry="0.23"/><ellipse class="ada4c8f3-da12-4346-ab06-62f5a5481f34" cx="31.15" cy="70.93" rx="0.24" ry="0.23"/><ellipse class="a4456606-8d48-4f31-8faa-3e0861e3538c" cx="31.15" cy="70.93" rx="0.23" ry="0.22"/><ellipse class="eda5bd8f-a33c-4309-87fb-cb85f2953155" cx="31.15" cy="70.93" rx="0.23" ry="0.22"/><ellipse class="f44f900a-4e3e-46d3-a1c2-3154c143829c" cx="31.15" cy="70.93" rx="0.23" ry="0.21"/><ellipse class="a3b07aaa-d369-4559-99ed-3f6cbf0297e6" cx="31.15" cy="70.93" rx="0.22" ry="0.21"/><ellipse class="e1e423da-0376-4bd9-a08a-dca6d55b1b1f" cx="31.15" cy="70.93" rx="0.22" ry="0.21"/><ellipse class="aa708709-d681-4fd7-9bc8-c407d5ee1c1a" cx="31.15" cy="70.93" rx="0.21" ry="0.2"/><ellipse class="bef14b5d-84e0-49f0-9033-9ef325b207bf" cx="31.15" cy="70.93" rx="0.21" ry="0.2"/><ellipse class="ff846453-2346-40e4-a9d8-6a05deebade7" cx="31.15" cy="70.93" rx="0.2" ry="0.19"/><ellipse class="a38d2728-31c0-4629-aacc-c67489b71580" cx="31.15" cy="70.93" rx="0.2" ry="0.19"/><ellipse class="bf2bb613-c70a-41f4-b573-0f943caaf20c" cx="31.15" cy="70.93" rx="0.19" ry="0.18"/><ellipse class="aceb5c05-11c8-47d4-89b6-d5e4e316b43e" cx="31.15" cy="70.93" rx="0.19" ry="0.18"/><ellipse class="e61ac628-2200-4804-a71a-b843035f9b91" cx="31.15" cy="70.93" rx="0.19" ry="0.18"/><ellipse class="a2c2a977-9d0f-41e5-84ae-7fabff7b1c71" cx="31.15" cy="70.93" rx="0.18" ry="0.17"/><ellipse class="f5d5793b-0374-44c2-b732-1198ba3c78be" cx="31.15" cy="70.93" rx="0.18" ry="0.17"/><ellipse class="b1d5a9d7-2f5b-416a-8e17-a6095aaa240a" cx="31.15" cy="70.93" rx="0.17" ry="0.16"/><ellipse class="e615fec8-6936-4a2c-803e-a39ef768f2c5" cx="31.15" cy="70.93" rx="0.17" ry="0.16"/><ellipse class="ad5526b0-2db9-48fb-8eac-3c3860f0d0a5" cx="31.15" cy="70.93" rx="0.16" ry="0.15"/><ellipse class="a4ed547b-7f56-49fe-b5c9-00eacfb72a7f" cx="31.15" cy="70.93" rx="0.16" ry="0.15"/><ellipse class="b4fc7d80-54e7-46e4-b9cf-24109aee437e" cx="31.15" cy="70.93" rx="0.15" ry="0.15"/><ellipse class="a2d40373-667a-45f8-bc3e-81c620ef16d3" cx="31.15" cy="70.93" rx="0.15" ry="0.14"/><ellipse class="f11ccf97-0d05-4278-b5de-56cba6a94d25" cx="31.15" cy="70.93" rx="0.14" ry="0.14"/><ellipse class="bbb5b82e-3536-4081-b576-7a32c24a06cf" cx="31.15" cy="70.93" rx="0.14" ry="0.13"/><ellipse class="b0540ece-3c20-4f4f-a0a6-35af74941d58" cx="31.15" cy="70.93" rx="0.14" ry="0.13"/><ellipse class="bc3db228-ece4-4f27-bc22-122ea93f5ed4" cx="31.15" cy="70.93" rx="0.13" ry="0.12"/><ellipse class="a1e4770f-5f60-4780-a839-e185351c8178" cx="31.15" cy="70.93" rx="0.13" ry="0.12"/><ellipse class="e31c056e-861e-491a-b768-8a79a7ebea0c" cx="31.15" cy="70.93" rx="0.12" ry="0.12"/><ellipse class="f4ce692d-0134-424c-8a9e-b36482774711" cx="31.15" cy="70.93" rx="0.12" ry="0.11"/><ellipse class="b8c2cfb4-eb93-41ad-9097-d5a8e0c5931a" cx="31.15" cy="70.93" rx="0.11" ry="0.11"/><ellipse class="fea2fdbb-70a9-4531-b5be-387574c5e1c0" cx="31.15" cy="70.93" rx="0.11" ry="0.1"/><ellipse class="e83d0a3c-43ce-4928-be9f-9cfb97f6b7cd" cx="31.15" cy="70.93" rx="0.1" ry="0.1"/><ellipse class="f11d6b07-e906-4a50-ae3b-ecc09fbdd55c" cx="31.15" cy="70.93" rx="0.1" ry="0.09"/><ellipse class="a7041845-46da-4e93-a4bd-5b49a9a0e2da" cx="31.15" cy="70.93" rx="0.09" ry="0.09"/><ellipse class="f63b79d0-cb5c-47c9-933f-f5576194ced0" cx="31.15" cy="70.93" rx="0.09" ry="0.09"/><ellipse class="b7d5033d-3a66-4572-b328-2e72270e95a6" cx="31.15" cy="70.93" rx="0.09" ry="0.08"/><ellipse class="e9336235-039b-4f7c-b24d-61e60b1d9995" cx="31.15" cy="70.93" rx="0.08" ry="0.08"/><ellipse class="e94ef800-36ee-4c35-97ac-111b5a2e7eea" cx="31.15" cy="70.93" rx="0.08" ry="0.07"/><circle class="b424fd59-4869-47fa-a413-610b17a07871" cx="31.15" cy="70.93" r="0.07"/><circle class="be55834d-593a-4a82-b58a-f0af0ce883ec" cx="31.15" cy="70.93" r="0.07"/><circle class="fac58a00-9a37-40f1-9670-455a732c9788" cx="31.15" cy="70.93" r="0.06"/><circle class="f83f2ae3-960d-43f5-9a73-6ae7baa8a339" cx="31.15" cy="70.93" r="0.06"/><circle class="a06ecc6f-083f-4190-9fc5-f8aadfdceeda" cx="31.15" cy="70.93" r="0.05"/><circle class="a35072c7-428f-4d1f-ba5f-fcb59df5f2ba" cx="31.15" cy="70.93" r="0.05"/><circle class="eb903242-afe7-46f4-bb3a-98c68db0cda7" cx="31.15" cy="70.93" r="0.05"/><circle class="b53db040-5f38-49f2-a91d-c16b57650810" cx="31.15" cy="70.93" r="0.04"/><circle class="ff1182d1-734b-4a15-a797-133ac28d8ac8" cx="31.15" cy="70.93" r="0.04"/><circle class="e926ec7d-8b00-4ee5-b733-15dcc13822b8" cx="31.15" cy="70.93" r="0.03"/><path class="a63163eb-3af3-445a-9e80-95ffd8e78bfe" d="M31.17,70.93a0,0,0,0,0,0,0s0,0,0,0a0,0,0,0,0,0,0S31.17,70.94,31.17,70.93Z"/><circle class="f34d3795-d370-4839-bfe2-c9ab189498b1" cx="31.15" cy="70.93" r="0.02"/><circle class="a2db22e9-91b3-44a4-8dd4-0d95f9c6df09" cx="31.15" cy="70.93" r="0.02"/><circle class="a322ecc8-318f-4427-a7f5-52e864d4aac9" cx="31.15" cy="70.93" r="0.01"/><path class="b0904294-42bb-46d5-9b4a-168d689a79aa" d="M31.15,70.93h0a0,0,0,0,0,0,0h0Z"/><circle class="a869630c-d8b7-4867-80f0-7a9516611171" cx="31.15" cy="70.93"/></g><path d="M31.72,71.2a.63.63,0,0,1-.65-.6.64.64,0,0,1,.65-.62.63.63,0,0,1,.64.62A.62.62,0,0,1,31.72,71.2Zm0-1.12a.51.51,0,1,0,0,1,.52.52,0,0,0,.54-.5A.53.53,0,0,0,31.72,70.08Z"/></g><g class="b74c3333-4916-4e1b-a01f-62152cd36c6f"><g class="bef761f2-188e-44a8-96a7-b854858bd3dc"><rect class="b858950f-e54a-4fbe-9832-85311e3d0ec3" x="25.9" y="70.04" width="1.21" height="1.09"/><ellipse class="b858950f-e54a-4fbe-9832-85311e3d0ec3" cx="25.31" cy="70.93" rx="0.74" ry="0.68"/><ellipse class="ae85e3bc-afd4-4cbf-8686-423d17d2fd79" cx="25.31" cy="70.93" rx="0.74" ry="0.67"/><ellipse class="afc887c3-8271-4b1c-9669-2b827257bb99" cx="25.31" cy="70.93" rx="0.73" ry="0.67"/><ellipse class="b75fc309-475f-445c-950c-156d8fd73610" cx="25.31" cy="70.93" rx="0.73" ry="0.66"/><ellipse class="a2b1fda9-726e-4f37-8409-b357850baf9f" cx="25.31" cy="70.93" rx="0.72" ry="0.66"/><ellipse class="b9df6257-3bdd-4029-aeb6-0d3a1bb24528" cx="25.31" cy="70.93" rx="0.72" ry="0.65"/><ellipse class="a4bb7a76-d21b-49b5-bd1b-d36794f4e94d" cx="25.31" cy="70.93" rx="0.71" ry="0.65"/><ellipse class="a2179758-efa0-48e1-bc3a-8f0f90d32d0d" cx="25.31" cy="70.93" rx="0.71" ry="0.65"/><ellipse class="ffa4c807-7ad8-4f14-a8e6-b92f9924a26b" cx="25.31" cy="70.93" rx="0.7" ry="0.64"/><ellipse class="b90abbd5-ad14-4433-b0d9-cf5cb7c48ebc" cx="25.31" cy="70.93" rx="0.7" ry="0.64"/><ellipse class="b7832f82-c5ab-42e9-a387-33064513607c" cx="25.31" cy="70.93" rx="0.7" ry="0.63"/><ellipse class="b0c57dfb-b911-47e5-b526-b4ba062c96c4" cx="25.31" cy="70.93" rx="0.69" ry="0.63"/><ellipse class="f5705adb-7798-47f4-84bc-b76156829570" cx="25.31" cy="70.93" rx="0.69" ry="0.62"/><ellipse class="b42518b7-732f-4c87-9e13-d738dc8d0d3c" cx="25.31" cy="70.93" rx="0.68" ry="0.62"/><ellipse class="b6316707-6f90-446b-b936-ea4b19439d4b" cx="25.31" cy="70.93" rx="0.68" ry="0.62"/><ellipse class="b9bd3c52-0adf-40c2-a3cf-ae33a2cbef34" cx="25.31" cy="70.93" rx="0.67" ry="0.61"/><ellipse class="bc2db358-cad5-4538-947e-eceed7aab692" cx="25.31" cy="70.93" rx="0.67" ry="0.61"/><ellipse class="a92744c9-f506-4cab-ab95-7209532cf140" cx="25.31" cy="70.93" rx="0.66" ry="0.6"/><ellipse class="aaf4453c-5810-4d15-86af-1fd8c67f4773" cx="25.31" cy="70.93" rx="0.66" ry="0.6"/><ellipse class="a40c138c-7bd0-4982-9dd6-4309b98d6c3c" cx="25.31" cy="70.93" rx="0.65" ry="0.59"/><ellipse class="a9141f0a-014d-42d2-aade-ade6d2f4c324" cx="25.31" cy="70.93" rx="0.65" ry="0.59"/><ellipse class="f5665d91-b050-41d3-83cf-10b689c40aee" cx="25.31" cy="70.93" rx="0.64" ry="0.59"/><ellipse class="e3c71d80-6102-4cab-a2aa-c2a1056b19bf" cx="25.31" cy="70.93" rx="0.64" ry="0.58"/><ellipse class="ad493215-4dd9-47e3-b2ff-ae2020868a1c" cx="25.31" cy="70.93" rx="0.63" ry="0.58"/><ellipse class="bcd151f4-63d5-4e9c-b8cb-bf44a9b980f7" cx="25.31" cy="70.93" rx="0.63" ry="0.57"/><ellipse class="e421ddb8-dc25-47b5-bf72-49af453db98e" cx="25.31" cy="70.93" rx="0.62" ry="0.57"/><ellipse class="b3462442-b4a6-486d-9412-c03b99086f47" cx="25.31" cy="70.93" rx="0.62" ry="0.56"/><ellipse class="a00dd574-1504-47c0-b642-099133165bd4" cx="25.31" cy="70.93" rx="0.62" ry="0.56"/><ellipse class="b471afc8-aa43-40a9-baaa-b1ca62e2e700" cx="25.31" cy="70.93" rx="0.61" ry="0.56"/><ellipse class="fdad7e21-be52-4896-8925-8e0e1ef6c8e6" cx="25.31" cy="70.93" rx="0.61" ry="0.55"/><ellipse class="a92ddf0e-0374-4ee3-9700-ce90dab59537" cx="25.31" cy="70.93" rx="0.6" ry="0.55"/><ellipse class="e99f165e-59c3-48f5-8fd8-9a1656cc51b8" cx="25.31" cy="70.93" rx="0.6" ry="0.54"/><ellipse class="b5198fab-a506-4331-ad72-0439c3de4c6c" cx="25.31" cy="70.93" rx="0.59" ry="0.54"/><ellipse class="a409252b-bb69-4c1b-b925-ff33ad539077" cx="25.31" cy="70.93" rx="0.59" ry="0.53"/><ellipse class="a9e668c3-bf65-4135-baeb-4d3fc7a7611e" cx="25.31" cy="70.93" rx="0.58" ry="0.53"/><ellipse class="a0fe9323-5807-46bd-8d84-bf9e5e144cf1" cx="25.31" cy="70.93" rx="0.58" ry="0.53"/><ellipse class="a7533e63-3f93-4799-a538-80a08aa69c7e" cx="25.31" cy="70.93" rx="0.57" ry="0.52"/><ellipse class="aaaf3c23-f6c1-48e5-a563-01541be71c0d" cx="25.31" cy="70.93" rx="0.57" ry="0.52"/><ellipse class="b03483c4-33b1-4a67-b4f6-b0722c78c272" cx="25.31" cy="70.93" rx="0.56" ry="0.51"/><ellipse class="ec1836ea-e6a3-4df2-bfb9-7fbbfc173d2d" cx="25.31" cy="70.93" rx="0.56" ry="0.51"/><ellipse class="ac4d101e-f1ad-463d-bfd2-5202fc6a1ff2" cx="25.31" cy="70.93" rx="0.55" ry="0.5"/><ellipse class="b2e61c42-45f7-462a-a25c-7d59648abcc9" cx="25.31" cy="70.93" rx="0.55" ry="0.5"/><ellipse class="fcaefa78-49c1-4ee9-82b1-2ed1ed1a2e6f" cx="25.31" cy="70.93" rx="0.54" ry="0.5"/><ellipse class="f5ff6158-4361-4812-9b5e-83b35963f364" cx="25.31" cy="70.93" rx="0.54" ry="0.49"/><ellipse class="ee8dc232-09b2-43de-82fe-571c23180f27" cx="25.31" cy="70.93" rx="0.54" ry="0.49"/><ellipse class="fcb85a8f-22be-4f52-bd9f-c4f58a1a4072" cx="25.31" cy="70.93" rx="0.53" ry="0.48"/><ellipse class="aba37334-37e7-400f-85a6-341254d251a2" cx="25.31" cy="70.93" rx="0.53" ry="0.48"/><ellipse class="a527e6bc-759e-4de5-875a-ccd86248eb78" cx="25.31" cy="70.93" rx="0.52" ry="0.47"/><ellipse class="e6b42167-7a15-4fb7-9b37-4d7bdcb844e7" cx="25.31" cy="70.93" rx="0.52" ry="0.47"/><ellipse class="a9476750-58ce-4266-829c-d44f8e042f6f" cx="25.31" cy="70.93" rx="0.51" ry="0.47"/><ellipse class="a5539c44-d61a-45ef-8d1e-97036cd036f2" cx="25.31" cy="70.93" rx="0.51" ry="0.46"/><ellipse class="eee62d3e-24a3-4cbe-80ab-2e06802a2552" cx="25.31" cy="70.93" rx="0.5" ry="0.46"/><ellipse class="b10329e8-6eba-4ae8-8586-9826b56a40e6" cx="25.31" cy="70.93" rx="0.5" ry="0.45"/><ellipse class="af6cbf82-57ff-483d-bd2a-025cf02c0d42" cx="25.31" cy="70.93" rx="0.49" ry="0.45"/><ellipse class="effe68c9-6ef4-4f43-a009-43b402f52117" cx="25.31" cy="70.93" rx="0.49" ry="0.44"/><ellipse class="a28f6650-42b3-433c-97f5-6479c01ac347" cx="25.31" cy="70.93" rx="0.48" ry="0.44"/><ellipse class="a2d70e38-17c1-4467-b058-fbbac5fb1262" cx="25.31" cy="70.93" rx="0.48" ry="0.44"/><ellipse class="e2c5cc4c-a32e-490d-93c1-1596d4df619b" cx="25.31" cy="70.93" rx="0.47" ry="0.43"/><ellipse class="e90c98b5-b3ca-4139-b432-cee63103bdec" cx="25.31" cy="70.93" rx="0.47" ry="0.43"/><ellipse class="a24349ae-502f-4474-b084-6e16a8f1f1b7" cx="25.31" cy="70.93" rx="0.47" ry="0.42"/><ellipse class="e41f3228-3f0b-4823-818b-2ccb06721a82" cx="25.31" cy="70.93" rx="0.46" ry="0.42"/><ellipse class="e97cc8aa-a722-4d4b-bddd-a8e1e1622839" cx="25.31" cy="70.93" rx="0.46" ry="0.41"/><ellipse class="b88e1f69-b84f-4ef9-a12b-66676b328a11" cx="25.31" cy="70.93" rx="0.45" ry="0.41"/><ellipse class="aaa0228e-0ad0-4ddc-9b2e-72fde010ad3c" cx="25.31" cy="70.93" rx="0.45" ry="0.41"/><ellipse class="b96b0444-2a32-40e8-9750-a60566f53d40" cx="25.31" cy="70.93" rx="0.44" ry="0.4"/><ellipse class="ab0c01bc-dfc4-497d-b70b-55923879ab9f" cx="25.31" cy="70.93" rx="0.44" ry="0.4"/><ellipse class="b2adae95-de5b-401e-8626-844b8e73f418" cx="25.31" cy="70.93" rx="0.43" ry="0.39"/><ellipse class="be511c22-cb74-4f20-b140-72632ec2580a" cx="25.31" cy="70.93" rx="0.43" ry="0.39"/><ellipse class="b163800c-8af2-4dd9-a69f-c0ae0a86fb16" cx="25.31" cy="70.93" rx="0.42" ry="0.38"/><ellipse class="b733440e-28f2-4b5c-9637-48747f541516" cx="25.31" cy="70.93" rx="0.42" ry="0.38"/><ellipse class="be6dd741-1e1f-46bf-9c1e-3180d1e071cf" cx="25.31" cy="70.93" rx="0.41" ry="0.38"/><ellipse class="ae2f96d1-66c8-41ac-9bc7-e002578690c9" cx="25.31" cy="70.93" rx="0.41" ry="0.37"/><ellipse class="b56a7809-a16c-4acf-ad58-3cb2a904b7dd" cx="25.31" cy="70.93" rx="0.4" ry="0.37"/><ellipse class="b98d50f7-2e70-4826-8d42-02dc6bfae14c" cx="25.31" cy="70.93" rx="0.4" ry="0.36"/><ellipse class="e0d7eb59-0801-4750-a47d-8610404e35ce" cx="25.31" cy="70.93" rx="0.39" ry="0.36"/><ellipse class="ec7a9ef7-66a1-4a22-be10-8d513d2216cf" cx="25.31" cy="70.93" rx="0.39" ry="0.36"/><ellipse class="a6e6196e-f4fc-489a-bceb-6ed59a7baf92" cx="25.31" cy="70.93" rx="0.39" ry="0.35"/><ellipse class="e8aec95e-a619-4630-9421-e8df0c669618" cx="25.31" cy="70.93" rx="0.38" ry="0.35"/><ellipse class="aedfd039-5658-4b9a-81d1-209b2b3ab3f3" cx="25.31" cy="70.93" rx="0.38" ry="0.34"/><ellipse class="a6d2a098-fc24-4d50-b6e4-a0c9092ff432" cx="25.31" cy="70.93" rx="0.37" ry="0.34"/><ellipse class="fcfcabf9-0eec-40ed-ab5b-b93bbedab036" cx="25.31" cy="70.93" rx="0.37" ry="0.33"/><ellipse class="a60f22f7-d097-4c68-92f9-02f7239d9de0" cx="25.31" cy="70.93" rx="0.36" ry="0.33"/><ellipse class="f13573bb-a252-4912-81d5-47253efd322f" cx="25.31" cy="70.93" rx="0.36" ry="0.33"/><ellipse class="b234c76a-55d3-449e-9fa4-3833c36db3fe" cx="25.31" cy="70.93" rx="0.35" ry="0.32"/><ellipse class="f18e1ac5-d5da-40d1-afd2-629d598e48ea" cx="25.31" cy="70.93" rx="0.35" ry="0.32"/><ellipse class="f79a41cf-9325-4dbd-aff7-10338dfadb85" cx="25.31" cy="70.93" rx="0.34" ry="0.31"/><ellipse class="b2305430-d1d6-4747-83e2-eae11323d95c" cx="25.31" cy="70.93" rx="0.34" ry="0.31"/><ellipse class="aa1667a8-3dc7-4402-b282-966dcc3023a7" cx="25.31" cy="70.93" rx="0.33" ry="0.3"/><ellipse class="e4e4f913-707f-4ac2-a87b-c3badc944b20" cx="25.31" cy="70.93" rx="0.33" ry="0.3"/><ellipse class="a2062321-9bd6-4de7-b772-e441944a1b5c" cx="25.31" cy="70.93" rx="0.32" ry="0.3"/><ellipse class="b57f4982-4048-451d-9218-5966c236d9cc" cx="25.31" cy="70.93" rx="0.32" ry="0.29"/><ellipse class="fc516435-a01e-4e55-a56d-24a5ff4c316e" cx="25.31" cy="70.93" rx="0.31" ry="0.29"/><ellipse class="f8652b52-cd18-4c74-88d5-33774bc3e509" cx="25.31" cy="70.93" rx="0.31" ry="0.28"/><ellipse class="b421cda3-c4aa-403f-a175-50289a787803" cx="25.31" cy="70.93" rx="0.31" ry="0.28"/><ellipse class="a41efe19-6b46-4690-9127-3ed25ecfb914" cx="25.31" cy="70.93" rx="0.3" ry="0.27"/><ellipse class="bb3b256a-600f-443e-b58c-78a3a8f563f2" cx="25.31" cy="70.93" rx="0.3" ry="0.27"/><ellipse class="f7f7207d-41ae-41a1-ab52-8b610160b893" cx="25.31" cy="70.93" rx="0.29" ry="0.27"/><ellipse class="f6a8bc8e-50f7-4f25-bf03-bb9aee118752" cx="25.31" cy="70.93" rx="0.29" ry="0.26"/><ellipse class="b3d92ff1-6d16-401d-880d-89698f162f6f" cx="25.31" cy="70.93" rx="0.28" ry="0.26"/><ellipse class="adf70195-6c77-48de-99af-22079a915281" cx="25.31" cy="70.93" rx="0.28" ry="0.25"/><ellipse class="a7d20e68-f1eb-42e9-9671-d7737c1b4812" cx="25.31" cy="70.93" rx="0.27" ry="0.25"/><ellipse class="a4ff71ca-24e6-4bc6-bcb8-14b9fa84cf1b" cx="25.31" cy="70.93" rx="0.27" ry="0.24"/><ellipse class="b5f9bf9a-8eff-496c-b716-d4df780e3866" cx="25.31" cy="70.93" rx="0.26" ry="0.24"/><ellipse class="a6d88638-812c-40bb-bc6e-ebbb6edc56db" cx="25.31" cy="70.93" rx="0.26" ry="0.24"/><ellipse class="be78c151-864c-4c7c-bded-9dcad771b353" cx="25.31" cy="70.93" rx="0.25" ry="0.23"/><ellipse class="ada4c8f3-da12-4346-ab06-62f5a5481f34" cx="25.31" cy="70.93" rx="0.25" ry="0.23"/><ellipse class="a4456606-8d48-4f31-8faa-3e0861e3538c" cx="25.31" cy="70.93" rx="0.24" ry="0.22"/><ellipse class="eda5bd8f-a33c-4309-87fb-cb85f2953155" cx="25.31" cy="70.93" rx="0.24" ry="0.22"/><ellipse class="f44f900a-4e3e-46d3-a1c2-3154c143829c" cx="25.31" cy="70.93" rx="0.23" ry="0.21"/><ellipse class="a3b07aaa-d369-4559-99ed-3f6cbf0297e6" cx="25.31" cy="70.93" rx="0.23" ry="0.21"/><ellipse class="e1e423da-0376-4bd9-a08a-dca6d55b1b1f" cx="25.31" cy="70.93" rx="0.23" ry="0.21"/><ellipse class="aa708709-d681-4fd7-9bc8-c407d5ee1c1a" cx="25.31" cy="70.93" rx="0.22" ry="0.2"/><ellipse class="bef14b5d-84e0-49f0-9033-9ef325b207bf" cx="25.31" cy="70.93" rx="0.22" ry="0.2"/><ellipse class="ff846453-2346-40e4-a9d8-6a05deebade7" cx="25.31" cy="70.93" rx="0.21" ry="0.19"/><ellipse class="a38d2728-31c0-4629-aacc-c67489b71580" cx="25.31" cy="70.93" rx="0.21" ry="0.19"/><ellipse class="bf2bb613-c70a-41f4-b573-0f943caaf20c" cx="25.31" cy="70.93" rx="0.2" ry="0.18"/><ellipse class="aceb5c05-11c8-47d4-89b6-d5e4e316b43e" cx="25.31" cy="70.93" rx="0.2" ry="0.18"/><ellipse class="e61ac628-2200-4804-a71a-b843035f9b91" cx="25.31" cy="70.93" rx="0.19" ry="0.18"/><ellipse class="a2c2a977-9d0f-41e5-84ae-7fabff7b1c71" cx="25.31" cy="70.93" rx="0.19" ry="0.17"/><ellipse class="f5d5793b-0374-44c2-b732-1198ba3c78be" cx="25.31" cy="70.93" rx="0.18" ry="0.17"/><ellipse class="b1d5a9d7-2f5b-416a-8e17-a6095aaa240a" cx="25.31" cy="70.93" rx="0.18" ry="0.16"/><ellipse class="e615fec8-6936-4a2c-803e-a39ef768f2c5" cx="25.31" cy="70.93" rx="0.17" ry="0.16"/><ellipse class="ad5526b0-2db9-48fb-8eac-3c3860f0d0a5" cx="25.31" cy="70.93" rx="0.17" ry="0.15"/><ellipse class="a4ed547b-7f56-49fe-b5c9-00eacfb72a7f" cx="25.31" cy="70.93" rx="0.16" ry="0.15"/><ellipse class="b4fc7d80-54e7-46e4-b9cf-24109aee437e" cx="25.31" cy="70.93" rx="0.16" ry="0.15"/><ellipse class="a2d40373-667a-45f8-bc3e-81c620ef16d3" cx="25.31" cy="70.93" rx="0.16" ry="0.14"/><ellipse class="f11ccf97-0d05-4278-b5de-56cba6a94d25" cx="25.31" cy="70.93" rx="0.15" ry="0.14"/><ellipse class="bbb5b82e-3536-4081-b576-7a32c24a06cf" cx="25.31" cy="70.93" rx="0.15" ry="0.13"/><ellipse class="b0540ece-3c20-4f4f-a0a6-35af74941d58" cx="25.31" cy="70.93" rx="0.14" ry="0.13"/><ellipse class="bc3db228-ece4-4f27-bc22-122ea93f5ed4" cx="25.31" cy="70.93" rx="0.14" ry="0.12"/><ellipse class="a1e4770f-5f60-4780-a839-e185351c8178" cx="25.31" cy="70.93" rx="0.13" ry="0.12"/><ellipse class="e31c056e-861e-491a-b768-8a79a7ebea0c" cx="25.31" cy="70.93" rx="0.13" ry="0.12"/><ellipse class="f4ce692d-0134-424c-8a9e-b36482774711" cx="25.31" cy="70.93" rx="0.12" ry="0.11"/><ellipse class="b8c2cfb4-eb93-41ad-9097-d5a8e0c5931a" cx="25.31" cy="70.93" rx="0.12" ry="0.11"/><ellipse class="fea2fdbb-70a9-4531-b5be-387574c5e1c0" cx="25.31" cy="70.93" rx="0.11" ry="0.1"/><ellipse class="e83d0a3c-43ce-4928-be9f-9cfb97f6b7cd" cx="25.31" cy="70.93" rx="0.11" ry="0.1"/><ellipse class="f11d6b07-e906-4a50-ae3b-ecc09fbdd55c" cx="25.31" cy="70.93" rx="0.1" ry="0.09"/><ellipse class="a7041845-46da-4e93-a4bd-5b49a9a0e2da" cx="25.31" cy="70.93" rx="0.1" ry="0.09"/><ellipse class="f63b79d0-cb5c-47c9-933f-f5576194ced0" cx="25.31" cy="70.93" rx="0.09" ry="0.09"/><ellipse class="b7d5033d-3a66-4572-b328-2e72270e95a6" cx="25.31" cy="70.93" rx="0.09" ry="0.08"/><ellipse class="e9336235-039b-4f7c-b24d-61e60b1d9995" cx="25.31" cy="70.93" rx="0.08" ry="0.08"/><ellipse class="e94ef800-36ee-4c35-97ac-111b5a2e7eea" cx="25.31" cy="70.93" rx="0.08" ry="0.07"/><ellipse class="b424fd59-4869-47fa-a413-610b17a07871" cx="25.31" cy="70.93" rx="0.08" ry="0.07"/><ellipse class="be55834d-593a-4a82-b58a-f0af0ce883ec" cx="25.31" cy="70.93" rx="0.07" ry="0.06"/><ellipse class="fac58a00-9a37-40f1-9670-455a732c9788" cx="25.31" cy="70.93" rx="0.07" ry="0.06"/><ellipse class="f83f2ae3-960d-43f5-9a73-6ae7baa8a339" cx="25.31" cy="70.93" rx="0.06" ry="0.06"/><ellipse class="a06ecc6f-083f-4190-9fc5-f8aadfdceeda" cx="25.31" cy="70.93" rx="0.06" ry="0.05"/><ellipse class="a35072c7-428f-4d1f-ba5f-fcb59df5f2ba" cx="25.31" cy="70.93" rx="0.05" ry="0.05"/><ellipse class="eb903242-afe7-46f4-bb3a-98c68db0cda7" cx="25.31" cy="70.93" rx="0.05" ry="0.04"/><circle class="b53db040-5f38-49f2-a91d-c16b57650810" cx="25.31" cy="70.93" r="0.04"/><path class="ff1182d1-734b-4a15-a797-133ac28d8ac8" d="M25.35,70.93s0,0,0,0,0,0,0,0a0,0,0,1,0,.08,0Z"/><path class="e926ec7d-8b00-4ee5-b733-15dcc13822b8" d="M25.34,70.93a0,0,0,1,0-.06,0,0,0,0,0,0,.06,0A0,0,0,0,0,25.34,70.93Z"/><path class="a63163eb-3af3-445a-9e80-95ffd8e78bfe" d="M25.34,70.93s0,0,0,0,0,0,0,0a0,0,0,1,0,.06,0Z"/><path class="f34d3795-d370-4839-bfe2-c9ab189498b1" d="M25.33,70.93a0,0,0,0,0,0,0,0,0,0,0,0,0,0l0,0A0,0,0,0,0,25.33,70.93Z"/><path class="a2db22e9-91b3-44a4-8dd4-0d95f9c6df09" d="M25.33,70.93a0,0,0,0,0,0,0,0,0,0,0,0,0,0l0,0A0,0,0,0,0,25.33,70.93Z"/><path class="a322ecc8-318f-4427-a7f5-52e864d4aac9" d="M25.32,70.93s0,0,0,0,0,0,0,0h0Z"/><path class="b0904294-42bb-46d5-9b4a-168d689a79aa" d="M25.32,70.93a0,0,0,0,0,0,0h0Z"/><polygon class="a869630c-d8b7-4867-80f0-7a9516611171" points="25.32 70.93 25.31 70.93 25.31 70.93 25.31 70.94 25.32 70.93"/></g><path d="M26.51,71.18a.63.63,0,0,1-.66-.59h0a.63.63,0,0,1,.66-.6.6.6,0,1,1,0,1.19ZM26,70.59a.53.53,0,0,0,.56.49.53.53,0,0,0,.55-.49.52.52,0,0,0-.55-.5A.53.53,0,0,0,26,70.59Z"/></g></g></g><g id="b8eaeddc-4790-4af9-b5a3-fd0c88bb63f3" data-name="nariz"><path class="a85493b5-75f8-4376-b27a-8e3f092c3a96" d="M28.8,69.9a3,3,0,0,1,.05-1,5.34,5.34,0,0,1,.48-.87s.42.7.5.88a4.69,4.69,0,0,1,.27,1c0,.07-.48.59-.74.57S28.84,70,28.8,69.9Z"/><path d="M29.36,70.47c.26,0,.65-.55.66-.59l.16.05c0,.1-.56.56-.82.54Z"/><path d="M30,69.88a6.65,6.65,0,0,0-.27-.89l.16-.07a4.49,4.49,0,0,1,.27,1Z"/><polygon points="30.17 69.98 30 69.93 30.03 69.83 30.2 69.88 30.17 69.98"/><path d="M29.74,69c-.07-.17-.42-.91-.42-.91h0a8.43,8.43,0,0,1,.58.85Z"/><polygon points="29.76 69.04 29.72 68.94 29.88 68.87 29.92 68.97 29.76 69.04"/></g><g id="bb0a9908-869b-427e-afb9-4fb473d70aca" data-name="cejas"><path d="M30.63,72.54s1,.17,1.39.19V73a7.8,7.8,0,0,1-1.4-.34Z"/><path d="M32,72.73c.36,0,1.25-.07,1.25-.07v.11A7.74,7.74,0,0,1,32,73Z"/><polygon points="32.06 72.96 31.96 72.96 31.97 72.72 32.07 72.73 32.06 72.96"/><path d="M25.24,72.66s1,.07,1.35.06v.22a8.42,8.42,0,0,1-1.37-.2Z"/><path d="M26.59,72.72c.43,0,1.47-.2,1.47-.2l0,.11a9.7,9.7,0,0,1-1.48.31Z"/><rect x="26.54" y="72.72" width="0.1" height="0.22" transform="translate(-3.49 1.37) rotate(-2.77)"/></g><g id="bd25ad5c-7b75-495f-a293-c9ec434fc221" data-name="pelo int"><path class="fad0256a-1cbc-412b-813a-938df5b8976b" d="M26.13,78V76.34a1.76,1.76,0,0,1-1-.27c-.73-.55-.72-1.87-.92-2.91a24.36,24.36,0,0,1-.19-3,13.57,13.57,0,0,0-.33-1.91,8.85,8.85,0,0,1,.07-3,27.43,27.43,0,0,0-3,2.41c-.23.24-.4.37-.36.79a25,25,0,0,1,0,2.74l.3.66a13.22,13.22,0,0,1,1,1.68c.16.26.37.49.52.76a5.48,5.48,0,0,1,.44,1.07l.1.27a6.32,6.32,0,0,1,1,1.13q.12.17.24.36c.43.19.85.37,1.26.58l.1,0C25.65,77.87,25.89,77.93,26.13,78Z"/><path d="M26.13,78.07h0a4.16,4.16,0,0,0-.5-.16l-.21-.06,0,0a.05.05,0,0,1,0,0l-.89-.4L24,77.23s0,0,0,0-.16-.25-.24-.36a7,7,0,0,0-1-1.13,0,0,0,0,1,0,0,1.12,1.12,0,0,0-.05-.13s0-.08-.05-.13v0a5.75,5.75,0,0,0-.42-1A4,4,0,0,0,22,74a4,4,0,0,1-.23-.34c-.09-.15-.18-.32-.28-.5a7.52,7.52,0,0,0-.72-1.17l-.16-.34c-.05-.11-.1-.21-.15-.33v-.4a23.24,23.24,0,0,0-.05-2.36.81.81,0,0,1,.31-.76l.06-.07a29.53,29.53,0,0,1,3.05-2.42h0a.08.08,0,0,1,0,.06c0,.16,0,.36-.06.57a6.05,6.05,0,0,0,0,2.4A11.86,11.86,0,0,1,24.08,70c0,.1,0,.18,0,.2a2.57,2.57,0,0,1,0,.36,19,19,0,0,0,.18,2.59c.05.23.08.48.11.72A3.24,3.24,0,0,0,25.19,76a1.72,1.72,0,0,0,.94.26.05.05,0,0,1,.05,0V78a.05.05,0,0,1,0,0Zm-2-.93.36.16.89.41,0,0,0,0,.21.06a3.73,3.73,0,0,1,.44.14V76.39a1.75,1.75,0,0,1-.95-.28,3.26,3.26,0,0,1-.83-2.22c0-.24-.06-.49-.11-.72A19.31,19.31,0,0,1,24,70.56a2.48,2.48,0,0,0,0-.34s0-.08,0-.2a9.65,9.65,0,0,0-.3-1.7,6.31,6.31,0,0,1,0-2.45c0-.18,0-.35.05-.5-.39.23-2.63,2.1-2.91,2.38l-.06.07a.68.68,0,0,0-.29.68,20.88,20.88,0,0,1,.05,2.37v.37l.14.32c.05.11.1.22.16.33a7.92,7.92,0,0,1,.72,1.18c.1.17.18.34.27.49a4,4,0,0,0,.24.33,4.78,4.78,0,0,1,.29.44,4.93,4.93,0,0,1,.42,1l0,0a1.12,1.12,0,0,0,0,.13l0,.12a6.56,6.56,0,0,1,1,1.13Z"/></g><g id="f5eece76-638b-4028-af49-c4f0fc555711" data-name="oreja Izq"><path class="a85493b5-75f8-4376-b27a-8e3f092c3a96" d="M24.16,68a1.18,1.18,0,0,0-.62-.22,1.12,1.12,0,0,0-.76.24,1.13,1.13,0,0,0,.32,1.4.83.83,0,0,0,.64,0,1.23,1.23,0,0,0,.5-.51A1.46,1.46,0,0,0,24.16,68Z"/><path d="M24.26,68.88a1.51,1.51,0,0,1-.5.57l-.05-.13a1.17,1.17,0,0,0,.5-.46Z"/><path d="M23.76,69.45a1.11,1.11,0,0,1-.7,0l.06-.12a.86.86,0,0,0,.59,0Z"/><polygon points="23.71 69.46 23.66 69.34 23.75 69.3 23.81 69.42 23.71 69.46"/><path d="M23.07,69.48a1.19,1.19,0,0,1-.44-.7l.13,0a.94.94,0,0,0,.37.6Z"/><polygon points="23.11 69.49 23.03 69.44 23.09 69.33 23.18 69.38 23.11 69.49"/><path d="M22.62,68.78a1.09,1.09,0,0,1,.11-.81l.1.08a.92.92,0,0,0-.08.7Z"/><polygon points="22.63 68.83 22.61 68.73 22.74 68.7 22.76 68.8 22.63 68.83"/><path d="M22.73,68a1.15,1.15,0,0,1,.81-.26v.13a1,1,0,0,0-.71.21Z"/><polygon points="22.8 68.09 22.7 68.01 22.76 67.93 22.86 68.01 22.8 68.09"/><path d="M23.54,67.71a1.14,1.14,0,0,1,.64.27l0,0a1,1,0,0,0-.6-.18Z"/><rect x="23.49" y="67.7" width="0.1" height="0.13"/></g></g><g id="e1eaf627-0b8d-45ba-be0b-b0e1ea1e1bdf" data-name="mechon"><path class="fad0256a-1cbc-412b-813a-938df5b8976b" d="M32.47,77.83a2.36,2.36,0,0,1-.37,1.09,5.21,5.21,0,0,1-2.93,1.92,8.88,8.88,0,0,1-5.82-1.27,10.81,10.81,0,0,1-4.12-5.22,11.45,11.45,0,0,1-.13-5.73,10.34,10.34,0,0,1,2.16-4.85,7,7,0,0,1,1.67-1.14A11,11,0,0,0,22.39,65a10.67,10.67,0,0,0,.63,3.8,12.77,12.77,0,0,0,2.25,4.07,10.7,10.7,0,0,0,4.11,2.7c1.22.51,2.66.34,2.92.66A3.86,3.86,0,0,1,32.47,77.83Z"/><path d="M28,81a9.59,9.59,0,0,1-4.71-1.38,10.85,10.85,0,0,1-4.14-5.25,11.67,11.67,0,0,1-.14-5.76,10,10,0,0,1,2.18-4.87,7,7,0,0,1,1.68-1.16,0,0,0,0,1,.05,0,0,0,0,0,1,0,0A10.84,10.84,0,0,0,22.44,65a10.68,10.68,0,0,0,.63,3.78,12.63,12.63,0,0,0,2.24,4.05,10.74,10.74,0,0,0,4.09,2.7,7,7,0,0,0,1.9.4c.53.06.91.1,1,.27a3.58,3.58,0,0,1,.18,1.67h0A2.27,2.27,0,0,1,32.14,79a5.24,5.24,0,0,1-3,1.94A6.12,6.12,0,0,1,28,81Zm-5.2-18.27A6.64,6.64,0,0,0,21.3,63.8a10.11,10.11,0,0,0-2.15,4.83,11.69,11.69,0,0,0,.13,5.71,10.68,10.68,0,0,0,4.1,5.19,8.78,8.78,0,0,0,5.78,1.26,5.11,5.11,0,0,0,2.9-1.9,2.45,2.45,0,0,0,.37-1.07h0a4,4,0,0,0-.17-1.6,2,2,0,0,0-1-.23,6.89,6.89,0,0,1-1.93-.41,10.9,10.9,0,0,1-4.12-2.72A12.91,12.91,0,0,1,23,68.77,11,11,0,0,1,22.33,65,10.44,10.44,0,0,1,22.84,62.73Z"/></g><circle class="e33bef5f-5da9-4bcf-b07d-21498eb54844" cx="26.37" cy="70.56" r="0.6"/><path d="M26.37,71.2a.65.65,0,1,1,.65-.64A.64.64,0,0,1,26.37,71.2Zm0-1.19a.55.55,0,0,0-.54.55.55.55,0,0,0,1.09,0A.55.55,0,0,0,26.37,70Z"/><circle class="e33bef5f-5da9-4bcf-b07d-21498eb54844" cx="31.47" cy="70.56" r="0.6"/><path d="M31.47,71.2a.65.65,0,1,1,.65-.64A.64.64,0,0,1,31.47,71.2Zm0-1.19a.55.55,0,0,0-.54.55.55.55,0,0,0,1.09,0A.55.55,0,0,0,31.47,70Z"/><path class="aaabd499-73f3-47d7-94ae-71a19dd902a3" d="M17.79,76.56l-2.86,4.67a.93.93,0,0,0,.22,1.21c1.49,1.13,5.13,3.81,6.24,3.94s13-2.83,16.73-3.77a.91.91,0,0,0,.55-1.31l-2.74-5.21Z"/><path class="a407323e-ab89-4fa3-ac32-596ab6e29083" d="M35.51,83.26s-1.61-6.73-2.1-7.2-3.19.63-3.19.63,1.91,2.2,2.61,7.24Z"/><path class="bd40e9c9-4016-4f76-abf2-62b5a6d01b5a" d="M34.86,74.27s-4.71,3.47-15.52.38l-1.55,1.91s7.6,3.67,18.14-.47Z"/><path class="e4037286-a097-4050-bf48-14b3393a0837" d="M21.93,47.84l1-.17C20.6,42,15.12,32.7,13.72,32l-.84.85S17.14,38,21.93,47.84Z"/><rect class="ebbdd5d1-6451-4385-a873-e42f598476f4" x="27.72" y="56.19" width="2.59" height="4.75"/><polygon class="ebbdd5d1-6451-4385-a873-e42f598476f4" points="25.12 61.55 25.12 57.83 22.54 57.83 22.54 61.78 25.12 61.55"/><path class="aaabd499-73f3-47d7-94ae-71a19dd902a3" d="M30.23,61.67a13.07,13.07,0,0,1,2.69,1.16V58.08H30.23Z"/><rect class="aaabd499-73f3-47d7-94ae-71a19dd902a3" x="25.08" y="56.53" width="2.64" height="4.75"/><polygon class="ebbdd5d1-6451-4385-a873-e42f598476f4" points="32.83 62.78 35.43 64.21 35.42 59.51 32.83 59.51 32.83 62.78"/><polygon class="aaabd499-73f3-47d7-94ae-71a19dd902a3" points="35.42 64.22 35.66 64.36 36.55 64.74 38.03 61.4 35.42 61.4 35.42 64.22"/><rect class="e6ca348a-f186-4da4-8108-91f0617aa8ee" x="27.9" y="50.33" width="4.11" height="4.55"/><polygon class="a8ae15b5-47f2-4d32-bef8-eb699f47afbe" points="31.83 50.52 27.9 50.52 27.9 46.4 31.83 50.52"/><rect class="a8ae15b5-47f2-4d32-bef8-eb699f47afbe" x="27.83" y="50.87" width="4.15" height="3.38"/><polygon class="a8ae15b5-47f2-4d32-bef8-eb699f47afbe" points="31.97 54.55 27.9 54.55 27.9 55.65 31.97 58.12 31.97 54.55"/><path class="aaabd499-73f3-47d7-94ae-71a19dd902a3" d="M27.1,46l.16,9.57-3.37,1.91s-.67-7.93-1.47-9.35S27.1,46,27.1,46Z"/><polygon class="eed0bdf6-2be5-41a4-893b-6e45e4d8ce4e" points="27.04 45.97 28.05 46.47 28.05 56.27 27.04 56.27 27.04 45.97"/><polygon class="ebbdd5d1-6451-4385-a873-e42f598476f4" points="26.72 45.6 27.72 46.09 27.72 55.89 26.72 55.89 26.72 45.6"/><path class="ebbdd5d1-6451-4385-a873-e42f598476f4" d="M20.16,42.27a27.09,27.09,0,0,0,1.35,2.48A13.73,13.73,0,0,1,22.92,49H23a4.93,4.93,0,0,0,4.57-3.1,4,4,0,0,0-.49-.52c-.35-.29-.75-.52-1.11-.79a21.11,21.11,0,0,0-2.52-2.12,16.59,16.59,0,0,0-2.3-.95,8.67,8.67,0,0,0-1-.33l-.32.05C19.92,41.57,20,41.93,20.16,42.27Z"/><path class="a8ae15b5-47f2-4d32-bef8-eb699f47afbe" d="M20.16,42.27a27.09,27.09,0,0,0,1.35,2.48,13.85,13.85,0,0,1,1.34,3.83H23a4.54,4.54,0,0,0,4.28-3l-.2-.19c-.35-.29-.75-.52-1.11-.79a21.11,21.11,0,0,0-2.52-2.12,16.59,16.59,0,0,0-2.3-.95,8.67,8.67,0,0,0-1-.33l-.32.05C19.92,41.57,20,41.93,20.16,42.27Z"/><path class="e6ca348a-f186-4da4-8108-91f0617aa8ee" d="M21.51,44.75a16,16,0,0,1,.73,1.64,2.55,2.55,0,0,0,.74.11,2.45,2.45,0,0,0,2.45-2.38,10.37,10.37,0,0,0-2-1.68A12.36,12.36,0,0,0,22,41.8a2.47,2.47,0,0,0-1.34,1.46C20.94,43.76,21.25,44.25,21.51,44.75Z"/><polygon class="aaabd499-73f3-47d7-94ae-71a19dd902a3" points="36.86 53.73 32.83 51.41 32.63 58.9 36.86 61.23 36.86 53.73"/><rect class="eed0bdf6-2be5-41a4-893b-6e45e4d8ce4e" x="31.83" y="50.98" width="1" height="7.59"/><path class="f8c6a6b6-64ea-42e1-b5be-f3365ed5799b" d="M40.69,63.51a11.5,11.5,0,0,1-3.52,1.23L37,53.87a15.64,15.64,0,0,0,4,1Z"/><polygon class="ac26d434-028d-4ab6-ad2a-382aea1f70e8" points="40.69 63.51 41.31 63.28 41.31 54.91 40.69 54.91 40.69 63.51"/><path class="ebbdd5d1-6451-4385-a873-e42f598476f4" d="M41.31,63.28a8,8,0,0,0,1.33-.7V55H41.31Z"/><path class="aaabd499-73f3-47d7-94ae-71a19dd902a3" d="M42.64,62.58a15.75,15.75,0,0,0,5.59-4V55H42.64Z"/><rect class="ebbdd5d1-6451-4385-a873-e42f598476f4" x="32.2" y="51.32" width="1" height="7.59"/><rect class="ac26d434-028d-4ab6-ad2a-382aea1f70e8" x="36.54" y="54.08" width="0.62" height="10.66"/><path class="e4037286-a097-4050-bf48-14b3393a0837" d="M20.6,41a4.1,4.1,0,0,1,1.49.31c2,.77,4.53,2.9,7.4,6.32,3.47,4.12,6.88,5.76,9.12,6.4a18.18,18.18,0,0,0,5.21.57l.42.68a20.64,20.64,0,0,1-5.77-.58A19.61,19.61,0,0,1,29,48.1C22.51,40.41,20,41.81,20,41.82l-.38-.56A1.7,1.7,0,0,1,20.6,41Z"/><path class="eed0bdf6-2be5-41a4-893b-6e45e4d8ce4e" d="M36.54,61.67s-8.32-5.44-9.11-5.44S24.16,58,24.16,58L24.1,57a27.58,27.58,0,0,1,3.4-2c.37,0,9,5.62,9,5.62Z"/><path class="a8ae15b5-47f2-4d32-bef8-eb699f47afbe" d="M35.66,64.36s-7.09-5.27-8.08-5.27-3.76,2.67-3.76,2.67a23.3,23.3,0,0,1,5.41-.36C31.11,61.67,35.66,64.36,35.66,64.36Z"/><path class="a8ae15b5-47f2-4d32-bef8-eb699f47afbe" d="M36.54,62.33s-8.32-5.53-9.11-5.53-3.23,1.89-3.23,1.89l-.05-.9a27,27,0,0,1,3.35-1.9c.37,0,9,5.45,9,5.45Z"/><path class="aaabd499-73f3-47d7-94ae-71a19dd902a3" d="M12.88,38.24V58.35a11.41,11.41,0,0,0,7.6,3.7S20.58,41.68,12.88,38.24Z"/><path class="ebbdd5d1-6451-4385-a873-e42f598476f4" d="M19.79,62s.9-13.3-6.91-23.73c0-.92,0-1.39,0-1.39s4.6,2.16,7.22,11.28S21.54,62,21.54,62l-1.06.08Z"/><path class="a407323e-ab89-4fa3-ac32-596ab6e29083" d="M21,62s.24-9.09-1.92-14.34-3.66-8.82-6.18-10.79v-4s7.1,6.87,9.43,14.6a45,45,0,0,1,1.9,14.26Z"/><path class="aaabd499-73f3-47d7-94ae-71a19dd902a3" d="M21,60.6c0-.32.62-.62,1.43-.66s1.47.18,1.48.5-.62.62-1.42.66S21,60.92,21,60.6Z"/><path class="aaabd499-73f3-47d7-94ae-71a19dd902a3" d="M21,59.09c0-.31.57-.64,1.36-.72s1.45.1,1.48.42-.58.63-1.36.72S21,59.41,21,59.09Z"/><path class="aaabd499-73f3-47d7-94ae-71a19dd902a3" d="M20.92,57.42c-.05-.3.53-.66,1.3-.78s1.43,0,1.48.32-.53.66-1.3.79S21,57.73,20.92,57.42Z"/><path class="aaabd499-73f3-47d7-94ae-71a19dd902a3" d="M20.75,55.62c-.06-.3.49-.68,1.24-.85s1.41-.07,1.48.23-.49.68-1.24.85S20.82,55.92,20.75,55.62Z"/><path class="aaabd499-73f3-47d7-94ae-71a19dd902a3" d="M20.49,53.71c-.08-.29.44-.7,1.17-.91s1.4-.15,1.48.14-.44.7-1.17.91S20.58,54,20.49,53.71Z"/><path class="aaabd499-73f3-47d7-94ae-71a19dd902a3" d="M20.12,51.73c-.1-.29.4-.72,1.11-1s1.38-.23,1.48.06-.4.72-1.11,1S20.23,52,20.12,51.73Z"/><path class="aaabd499-73f3-47d7-94ae-71a19dd902a3" d="M19.65,49.71c-.12-.28.35-.75,1-1s1.36-.31,1.48,0-.35.75-1.05,1S19.77,50,19.65,49.71Z"/><path class="aaabd499-73f3-47d7-94ae-71a19dd902a3" d="M19.06,47.67c-.13-.27.31-.76,1-1.1s1.34-.4,1.48-.12-.31.76-1,1.1S19.2,47.94,19.06,47.67Z"/><path class="aaabd499-73f3-47d7-94ae-71a19dd902a3" d="M18.36,45.66c-.15-.26.26-.79.92-1.17s1.32-.47,1.47-.21-.26.79-.92,1.17S18.51,45.92,18.36,45.66Z"/><path class="aaabd499-73f3-47d7-94ae-71a19dd902a3" d="M17.54,43.7c-.17-.26.21-.81.85-1.23s1.3-.56,1.47-.31S19.65,43,19,43.4,17.71,44,17.54,43.7Z"/><path class="aaabd499-73f3-47d7-94ae-71a19dd902a3" d="M16.59,41.82c-.18-.25.17-.83.79-1.3s1.28-.64,1.47-.39-.17.83-.79,1.3S16.78,42.07,16.59,41.82Z"/><path class="aaabd499-73f3-47d7-94ae-71a19dd902a3" d="M15.52,40.05c-.21-.24.12-.85.73-1.36s1.26-.72,1.46-.48-.12.85-.73,1.36S15.72,40.29,15.52,40.05Z"/><path class="aaabd499-73f3-47d7-94ae-71a19dd902a3" d="M14.31,38.43c-.22-.23.08-.87.67-1.42s1.24-.81,1.46-.57-.08.87-.67,1.42S14.53,38.67,14.31,38.43Z"/><path class="aaabd499-73f3-47d7-94ae-71a19dd902a3" d="M13,37c-.24-.22,0-.89.6-1.48s1.22-.89,1.46-.66,0,.89-.6,1.48S13.2,37.21,13,37Z"/><path class="a85493b5-75f8-4376-b27a-8e3f092c3a96" d="M33,30.91s-.07-2.05-.09-2.1-1.24-.54-1.29.25c0,.08.07,1.84.07,1.92"/><path d="M31.76,31h-.08s0-.25,0-.52c0-.74-.05-1.35-.05-1.4a.48.48,0,0,1,.42-.47,1.52,1.52,0,0,1,.94.21s.14,2.05.09,2.13v0h0v0h0c0-.1-.06-1.92-.08-2.07a1.56,1.56,0,0,0-1-.14.39.39,0,0,0-.24.37c0,.06,0,.89.05,1.39C31.75,30.74,31.76,31,31.76,31Z"/><path class="e4037286-a097-4050-bf48-14b3393a0837" d="M39.18,43.62c-.33.07-.66.12-1,.17,2.31,5.63,7.79,15,9.2,15.65l.84-.85S44,53.52,39.18,43.62Z"/><rect class="ebbdd5d1-6451-4385-a873-e42f598476f4" x="30.8" y="30.52" width="2.59" height="4.75"/><polygon class="ebbdd5d1-6451-4385-a873-e42f598476f4" points="35.98 29.91 35.98 33.63 38.57 33.63 38.57 29.68 35.98 29.91"/><path class="aaabd499-73f3-47d7-94ae-71a19dd902a3" d="M30.87,29.8a13.09,13.09,0,0,1-2.68-1.17v4.75h2.68Z"/><rect class="aaabd499-73f3-47d7-94ae-71a19dd902a3" x="33.38" y="30.18" width="2.64" height="4.75"/><polygon class="ebbdd5d1-6451-4385-a873-e42f598476f4" points="28.27 28.68 25.68 27.25 25.68 31.95 28.27 31.95 28.27 28.68"/><polygon class="aaabd499-73f3-47d7-94ae-71a19dd902a3" points="25.68 27.25 25.45 27.1 24.56 26.72 23.08 30.06 25.68 30.06 25.68 27.25"/><rect class="e6ca348a-f186-4da4-8108-91f0617aa8ee" x="29.1" y="36.58" width="4.11" height="4.55"/><polygon class="a8ae15b5-47f2-4d32-bef8-eb699f47afbe" points="29.27 40.94 33.21 40.94 33.21 45.07 29.27 40.94"/><rect class="a8ae15b5-47f2-4d32-bef8-eb699f47afbe" x="29.13" y="37.21" width="4.15" height="3.38"/><polygon class="a8ae15b5-47f2-4d32-bef8-eb699f47afbe" points="29.13 36.92 33.21 36.92 33.21 35.81 29.13 33.35 29.13 36.92"/><path class="aaabd499-73f3-47d7-94ae-71a19dd902a3" d="M34,45.46l-.15-9.57L37.22,34s.66,7.93,1.47,9.35S34,45.46,34,45.46Z"/><polygon class="eed0bdf6-2be5-41a4-893b-6e45e4d8ce4e" points="34.06 45.49 33.06 44.99 33.06 35.2 34.06 35.2 34.06 45.49"/><polygon class="ebbdd5d1-6451-4385-a873-e42f598476f4" points="34.39 45.87 33.38 45.37 33.38 35.57 34.39 35.57 34.39 45.87"/><path class="ebbdd5d1-6451-4385-a873-e42f598476f4" d="M40.94,49.19a26.83,26.83,0,0,0-1.34-2.47,13.64,13.64,0,0,1-1.41-4.22h-.06a4.91,4.91,0,0,0-4.57,3.11,4.67,4.67,0,0,0,.49.51c.34.29.75.52,1.11.79A21,21,0,0,0,37.67,49,17.67,17.67,0,0,0,40,50a9.49,9.49,0,0,0,1,.33l.32,0C41.19,49.89,41.08,49.53,40.94,49.19Z"/><path class="a8ae15b5-47f2-4d32-bef8-eb699f47afbe" d="M40.94,49.19a26.83,26.83,0,0,0-1.34-2.47,14,14,0,0,1-1.35-3.83h-.12a4.54,4.54,0,0,0-4.28,3l.2.19c.34.29.75.52,1.11.79A21,21,0,0,0,37.67,49,17.67,17.67,0,0,0,40,50a9.49,9.49,0,0,0,1,.33l.32,0C41.19,49.89,41.08,49.53,40.94,49.19Z"/><path class="e6ca348a-f186-4da4-8108-91f0617aa8ee" d="M39.6,46.72a15.06,15.06,0,0,1-.73-1.65,2.65,2.65,0,0,0-.74-.11,2.46,2.46,0,0,0-2.46,2.38,11,11,0,0,0,2,1.68,13.31,13.31,0,0,0,1.45.64,2.46,2.46,0,0,0,1.33-1.46C40.17,47.7,39.86,47.21,39.6,46.72Z"/><polygon class="aaabd499-73f3-47d7-94ae-71a19dd902a3" points="24.25 37.73 28.27 40.05 28.48 32.56 24.25 30.23 24.25 37.73"/><rect class="eed0bdf6-2be5-41a4-893b-6e45e4d8ce4e" x="28.27" y="32.89" width="1" height="7.59"/><path class="f8c6a6b6-64ea-42e1-b5be-f3365ed5799b" d="M20.42,28a11.5,11.5,0,0,1,3.52-1.23l.21,10.87a16.1,16.1,0,0,0-4-1Z"/><polygon class="ac26d434-028d-4ab6-ad2a-382aea1f70e8" points="20.42 27.95 19.8 28.18 19.8 36.55 20.42 36.55 20.42 27.95"/><path class="ebbdd5d1-6451-4385-a873-e42f598476f4" d="M19.79,28.18a8.08,8.08,0,0,0-1.32.7v7.55h1.32Z"/><path class="aaabd499-73f3-47d7-94ae-71a19dd902a3" d="M18.47,28.88a15.75,15.75,0,0,0-5.59,4v3.58h5.59Z"/><rect class="ebbdd5d1-6451-4385-a873-e42f598476f4" x="27.9" y="32.56" width="1" height="7.59"/><rect class="ac26d434-028d-4ab6-ad2a-382aea1f70e8" x="23.94" y="26.72" width="0.62" height="10.66"/><path class="e4037286-a097-4050-bf48-14b3393a0837" d="M40.5,50.43A4.1,4.1,0,0,1,39,50.12c-2-.77-4.53-2.89-7.41-6.31a18.91,18.91,0,0,0-9.12-6.41,18.57,18.57,0,0,0-5.21-.57l-.42-.67a20.49,20.49,0,0,1,5.78.57c2.35.67,5.9,2.37,9.49,6.64,6.47,7.68,8.93,6.28,9,6.27l.38.56A1.69,1.69,0,0,1,40.5,50.43Z"/><path class="eed0bdf6-2be5-41a4-893b-6e45e4d8ce4e" d="M24.56,29.8s8.33,5.43,9.12,5.43,3.26-1.73,3.26-1.73l.07.94a27.61,27.61,0,0,1-3.4,2c-.37,0-9-5.62-9-5.62Z"/><path class="a8ae15b5-47f2-4d32-bef8-eb699f47afbe" d="M25.45,27.1s7.08,5.27,8.08,5.27,3.76-2.67,3.76-2.67a23.4,23.4,0,0,1-5.42.36C30,29.8,25.45,27.1,25.45,27.1Z"/><path class="a8ae15b5-47f2-4d32-bef8-eb699f47afbe" d="M24.56,29.14s8.33,5.52,9.12,5.52,3.22-1.89,3.22-1.89l.05.9a26.83,26.83,0,0,1-3.34,1.9c-.37,0-9-5.45-9-5.45Z"/><path class="aaabd499-73f3-47d7-94ae-71a19dd902a3" d="M48.23,53.22V33.11a11.39,11.39,0,0,0-7.61-3.69S40.53,49.78,48.23,53.22Z"/><path class="ebbdd5d1-6451-4385-a873-e42f598476f4" d="M41.32,29.49s-.91,13.31,6.91,23.73c0,.92,0,1.39,0,1.39S43.61,52.45,41,43.33s-1.43-13.84-1.43-13.84l1-.07Z"/><path class="a407323e-ab89-4fa3-ac32-596ab6e29083" d="M40.12,29.45S39.88,38.54,42,43.79s3.67,8.82,6.19,10.8v4S41.13,51.73,38.8,44a44.83,44.83,0,0,1-1.91-14.26Z"/><path class="aaabd499-73f3-47d7-94ae-71a19dd902a3" d="M40.14,30.86c0,.33-.62.62-1.42.66s-1.47-.18-1.49-.5.62-.62,1.43-.66S40.13,30.54,40.14,30.86Z"/><path class="aaabd499-73f3-47d7-94ae-71a19dd902a3" d="M40.12,32.37c0,.31-.57.64-1.36.72s-1.45-.1-1.48-.41.57-.64,1.36-.73S40.09,32.05,40.12,32.37Z"/><path class="aaabd499-73f3-47d7-94ae-71a19dd902a3" d="M40.19,34c.05.31-.53.66-1.3.79s-1.43,0-1.48-.33.53-.66,1.3-.79S40.14,33.73,40.19,34Z"/><path class="aaabd499-73f3-47d7-94ae-71a19dd902a3" d="M40.35,35.84c.07.3-.48.68-1.23.85s-1.41.07-1.48-.23.48-.68,1.23-.85S40.29,35.55,40.35,35.84Z"/><path class="aaabd499-73f3-47d7-94ae-71a19dd902a3" d="M40.62,37.75c.08.29-.44.7-1.18.92s-1.39.14-1.47-.15.44-.7,1.17-.91S40.53,37.46,40.62,37.75Z"/><path class="aaabd499-73f3-47d7-94ae-71a19dd902a3" d="M41,39.73c.1.29-.39.73-1.11,1s-1.37.23-1.47-.06.39-.72,1.11-1S40.88,39.45,41,39.73Z"/><path class="aaabd499-73f3-47d7-94ae-71a19dd902a3" d="M41.46,41.76c.12.27-.35.74-1.05,1s-1.35.31-1.47,0,.35-.74,1-1S41.34,41.48,41.46,41.76Z"/><path class="aaabd499-73f3-47d7-94ae-71a19dd902a3" d="M42,43.79c.14.27-.3.76-1,1.1s-1.33.4-1.47.13.3-.77,1-1.11S41.91,43.52,42,43.79Z"/><path class="aaabd499-73f3-47d7-94ae-71a19dd902a3" d="M42.75,45.8c.15.27-.26.79-.92,1.17s-1.32.48-1.47.21.26-.78.92-1.17S42.59,45.54,42.75,45.8Z"/><path class="aaabd499-73f3-47d7-94ae-71a19dd902a3" d="M43.57,47.76c.17.26-.22.81-.86,1.23s-1.3.56-1.47.31.22-.81.86-1.23S43.4,47.51,43.57,47.76Z"/><path class="aaabd499-73f3-47d7-94ae-71a19dd902a3" d="M44.51,49.64c.19.25-.16.83-.79,1.3s-1.28.64-1.46.39.17-.83.79-1.3S44.33,49.39,44.51,49.64Z"/><path class="aaabd499-73f3-47d7-94ae-71a19dd902a3" d="M45.59,51.41c.2.24-.12.85-.73,1.36s-1.26.72-1.46.48.12-.85.73-1.36S45.39,51.17,45.59,51.41Z"/><path class="aaabd499-73f3-47d7-94ae-71a19dd902a3" d="M46.8,53c.22.24-.08.87-.67,1.42s-1.24.81-1.46.57.08-.87.66-1.42S46.58,52.8,46.8,53Z"/><path class="aaabd499-73f3-47d7-94ae-71a19dd902a3" d="M48.14,54.48c.24.23,0,.89-.6,1.48s-1.22.89-1.46.66,0-.89.6-1.48S47.9,54.25,48.14,54.48Z"/><g id="abfa4f9b-6eb9-4da6-948e-6f52f53a413e" data-name="pelo ext"><path class="afd5775a-7d6d-499b-95e9-d1da0b6c84cd" d="M28.4,10.32c.13,0,.56-.83.84-1.21s.72-1,1.05-1.4c.59-.79,2.14-.82,2.14-.82l.09.73c0,.44.14,1,.16,1.46s0,.88.08.89.27-.4.39-.87a13.31,13.31,0,0,1,.57-1.46,6.29,6.29,0,0,1,1.45-1.8,23,23,0,0,1,.32,2.33c.11.68.17,1.1.18,1.33s0,.62.06.62.12-.25.24-.54c.05-.11.14-.26.2-.38.18-.33.55-1.06.58-1.06a7,7,0,0,1,.55.92,10.08,10.08,0,0,1,.47.92,15.94,15.94,0,0,1,.68,1.87,10.61,10.61,0,0,1,.48,2.71,25.94,25.94,0,0,1-1,8.31,5,5,0,0,1-1.44,2.23c-1.2.78-2.17.62-3.79.43a5.81,5.81,0,0,1-3.24-1.11A9.63,9.63,0,0,1,27.09,21a28.77,28.77,0,0,1-1-6.47A14,14,0,0,1,26,11.94a8.92,8.92,0,0,1,.29-1.84,8,8,0,0,1,.57-1.24,4.35,4.35,0,0,1,1-1s.15.59.24,1A6.26,6.26,0,0,0,28.4,10.32Z"/><path d="M34.5,25.74A13,13,0,0,1,33,25.61l-.26,0a5.85,5.85,0,0,1-3.26-1.12A9.64,9.64,0,0,1,27,21c-.38-.93-.68-2.87-1-6.48a16.26,16.26,0,0,1-.11-2.6,9.1,9.1,0,0,1,.3-1.86,8.1,8.1,0,0,1,.57-1.25,4.33,4.33,0,0,1,1.07-1h0a5.05,5.05,0,0,1,.2.79l.06.26c0,.08,0,.18,0,.29a7.72,7.72,0,0,0,.22,1.11,4.44,4.44,0,0,0,.41-.61,6.4,6.4,0,0,1,.36-.57c.23-.32.49-.67.75-1l.3-.4a3.2,3.2,0,0,1,2.19-.84h0a0,0,0,0,1,0,0l.09.73c0,.12,0,.24,0,.36.05.34.1.74.12,1.11v.33a2.75,2.75,0,0,0,0,.5,2.27,2.27,0,0,0,.32-.82,15,15,0,0,1,.58-1.47,5.88,5.88,0,0,1,1.5-1.83h0c.09,0,.12.15.22,1.18,0,.4.09.85.14,1.19.11.67.18,1.1.19,1.34s0,.24,0,.34V10a1.31,1.31,0,0,0,.07-.19l.11-.28c0-.09.1-.19.15-.29l.06-.09c0-.09.11-.21.17-.34.39-.76.4-.76.45-.76s.08,0,.6.95a10.19,10.19,0,0,1,.47.93,16.6,16.6,0,0,1,.68,1.88c0,.1,0,.2.08.3A10,10,0,0,1,39,14.55a26.13,26.13,0,0,1-1,8.34,4.59,4.59,0,0,1-1.46,2.25A3.47,3.47,0,0,1,34.5,25.74ZM27.83,7.93a4.33,4.33,0,0,0-.95,1,7.09,7.09,0,0,0-.56,1.23,8.64,8.64,0,0,0-.3,1.82,16.11,16.11,0,0,0,.11,2.59c.33,3.6.63,5.53,1,6.44a9.61,9.61,0,0,0,2.37,3.41,5.77,5.77,0,0,0,3.21,1.09l.26,0c1.49.18,2.38.28,3.5-.45a4.5,4.5,0,0,0,1.41-2.2,25.92,25.92,0,0,0,1-8.29,9.54,9.54,0,0,0-.41-2.4c0-.09,0-.19-.08-.29A14.83,14.83,0,0,0,37.72,10c-.11-.25-.27-.56-.46-.91s-.42-.73-.51-.86c-.07.12-.24.44-.35.66l-.18.34,0,.09A1.82,1.82,0,0,0,36,9.6a2.66,2.66,0,0,0-.11.28c-.07.2-.11.3-.19.3a.09.09,0,0,1-.06,0s0-.14,0-.32,0-.2,0-.32-.08-.68-.19-1.33c0-.35-.1-.8-.14-1.2a9.55,9.55,0,0,0-.14-1.07,7.08,7.08,0,0,0-1.38,1.75,13.21,13.21,0,0,0-.57,1.46c-.09.34-.26.92-.45.9s-.12-.19-.12-.61V9.08c0-.36-.07-.74-.12-1.1,0-.12,0-.24,0-.36l-.08-.68a3.09,3.09,0,0,0-2.05.8l-.3.4c-.26.34-.52.68-.75,1-.1.14-.23.35-.36.55-.3.49-.42.68-.52.68s-.15-.16-.31-1.22c0-.11,0-.2,0-.28L28,8.62Zm.6,2.34Z"/></g><g id="a4f8a417-5bb5-4380-bd15-e0e1a02c6b82" data-name="cabeza"><g id="bf90c6de-bf54-435b-8134-0e3e51bf1226" data-name="oreja Izq"><path class="a85493b5-75f8-4376-b27a-8e3f092c3a96" d="M27.44,22.06a1.48,1.48,0,0,0-.53-.58,1,1,0,0,0-.68,0,1.13,1.13,0,0,0-.43.72,1.11,1.11,0,0,0,.1.84,1.15,1.15,0,0,0,.8.27,1.12,1.12,0,0,0,.66-.26A1.61,1.61,0,0,0,27.44,22.06Z"/><path d="M27.42,22.07a1.32,1.32,0,0,0-.55-.52l.06-.13a1.35,1.35,0,0,1,.53.63Z"/><path d="M26.87,21.55a.8.8,0,0,0-.61,0l-.06-.13a1,1,0,0,1,.74,0Z"/><polygon points="26.93 21.57 26.82 21.53 26.88 21.39 26.98 21.44 26.93 21.57"/><path d="M26.25,21.52a1,1,0,0,0-.4.67l-.13,0a1.32,1.32,0,0,1,.48-.78Z"/><polygon points="26.2 21.54 26.14 21.42 26.24 21.37 26.3 21.49 26.2 21.54"/><path d="M25.85,22.19a1.11,1.11,0,0,0,.09.79l-.11.09a1.32,1.32,0,0,1-.11-.9Z"/><polygon points="25.84 22.25 25.71 22.21 25.74 22.11 25.87 22.14 25.84 22.25"/><path d="M25.94,23a1,1,0,0,0,.75.24v.15a1.23,1.23,0,0,1-.87-.29Z"/><polygon points="25.87 23.11 25.8 23.02 25.91 22.94 25.98 23.02 25.87 23.11"/><path d="M26.69,23.22a1.18,1.18,0,0,0,.64-.2l0,0a1.16,1.16,0,0,1-.68.3Z"/><rect x="26.63" y="23.22" width="0.11" height="0.14"/></g><g id="a52d8133-8fb3-4811-a080-5197509afd49" data-name="cabeza"><path class="a85493b5-75f8-4376-b27a-8e3f092c3a96" d="M37.83,22a11.39,11.39,0,0,1-.65,3.73,8.15,8.15,0,0,1-2,2.29,6,6,0,0,1-3,1.2,6.44,6.44,0,0,1-2.79-1.46,6.82,6.82,0,0,1-1.88-2.29,12.22,12.22,0,0,1-.7-4.12c-.05-1.15-.07-2.46,0-3.12a16.46,16.46,0,0,1,.54-4.21,3.45,3.45,0,0,1,1.46-1.52,7.54,7.54,0,0,1,3.35-.72,7,7,0,0,1,3.66.65,4.67,4.67,0,0,1,1.68,2.45,27.18,27.18,0,0,1,.39,4.62C37.89,20,37.89,21.28,37.83,22Z"/><path d="M37.83,22a11.42,11.42,0,0,1-.59,3.77l-.12-.07a11.84,11.84,0,0,0,.71-3.7Z"/><path d="M37.24,25.81a8.11,8.11,0,0,1-2,2.3L35.14,28a7.36,7.36,0,0,0,2-2.25Z"/><polygon points="37.21 25.85 37.09 25.79 37.14 25.69 37.26 25.76 37.21 25.85"/><path d="M35.22,28.11a6,6,0,0,1-3,1.23l0-.14A5.88,5.88,0,0,0,35.14,28Z"/><polygon points="35.17 28.14 35.1 28.03 35.19 27.97 35.27 28.08 35.17 28.14"/><path d="M32.19,29.33a6.61,6.61,0,0,1-2.82-1.48l.09-.12a6.35,6.35,0,0,0,2.73,1.46Z"/><polygon points="32.25 29.33 32.14 29.33 32.15 29.18 32.26 29.19 32.25 29.33"/><path d="M29.37,27.85a7.26,7.26,0,0,1-1.91-2.32l.13-.06a7.11,7.11,0,0,0,1.87,2.28Z"/><polygon points="29.41 27.88 29.32 27.81 29.41 27.7 29.5 27.77 29.41 27.88"/><path d="M27.46,25.53a12.39,12.39,0,0,1-.71-4.14h.15a12.42,12.42,0,0,0,.69,4.09Z"/><rect x="27.46" y="25.45" width="0.14" height="0.11" transform="translate(-7.72 12.62) rotate(-22.74)"/><path d="M26.75,21.39c-.05-1.15-.06-2.47,0-3.13h.14c0,.66,0,2,0,3.11Z"/><polygon points="26.76 21.45 26.75 21.34 26.89 21.33 26.9 21.44 26.76 21.45"/><path d="M26.73,18.26A17.5,17.5,0,0,1,27.27,14l.14,0a17.35,17.35,0,0,0-.55,4.19Z"/><polygon points="26.87 18.32 26.73 18.31 26.73 18.2 26.88 18.21 26.87 18.32"/><path d="M37.48,14.91a28.25,28.25,0,0,1,.39,4.62h0a28.25,28.25,0,0,0-.39-4.62Z"/><path d="M37.87,19.52c0,.46,0,1.76,0,2.52h0c.06-.76.06-2.06,0-2.52Z"/></g><g id="f92ccad1-82f2-4288-b60a-4e92523b0599" data-name="boca"><g id="e19432aa-0c7c-4479-8e3c-8b1b0f301fa8" data-name="boca"><path class="a85ea50c-d04d-4d45-b131-14dc1fbfc751" d="M28.22,25s.49.62.68.77a4.44,4.44,0,0,0,1,.35c.11,0,1.08.07,1.19.07s1.1-.05,1.19-.07a9.35,9.35,0,0,0,1.25-.28c.17-.12.51-.72.57-.68a1.93,1.93,0,0,1-.55.76,10.39,10.39,0,0,1-1.27.28c-.12,0-1.07.08-1.18.08s-1.08-.05-1.19-.07a4.86,4.86,0,0,1-1-.34A3.52,3.52,0,0,1,28.22,25Z"/><path d="M31.06,26.37c-.11,0-1.09,0-1.2-.07a4.49,4.49,0,0,1-1-.35,3.43,3.43,0,0,1-.71-.9.08.08,0,0,1,0-.05h0c.06,0,.09,0,.34.32a3.23,3.23,0,0,0,.41.45,4.27,4.27,0,0,0,.93.35c.1,0,1.07.06,1.18.06s1.1,0,1.17-.06l.13,0a6.77,6.77,0,0,0,1.11-.24,2.5,2.5,0,0,0,.31-.39c.18-.26.24-.34.32-.3a.06.06,0,0,1,0,.06,2,2,0,0,1-.58.8,7.74,7.74,0,0,1-1.18.26l-.11,0C32.12,26.32,31.17,26.37,31.06,26.37Z"/></g><g id="f8861d4e-0b57-4e48-8a9a-9b4b97d905bf" data-name="lengua"><g class="aca660d6-6ecd-41a8-8a73-059e9fa613d5"><path class="aaf9e1ae-e5ba-4d96-8b1c-a37563fb0795" d="M29.75,27.79a1.4,1.4,0,0,1,.47-.85,2.46,2.46,0,0,1,1.39-.51,2.37,2.37,0,0,1,1.4.36,1.42,1.42,0,0,1,.57.88,1.45,1.45,0,0,1-.54,1,2.35,2.35,0,0,1-1.23.28,2.82,2.82,0,0,1-1.61-.24A1.24,1.24,0,0,1,29.75,27.79Z"/><path class="b2227ae1-324f-4f32-8ae2-3272966791b5" d="M31.35,29a2,2,0,0,1-1.18-.27,1.31,1.31,0,0,1-.48-.92,1.45,1.45,0,0,1,.49-.89,2.51,2.51,0,0,1,1.42-.53,2.4,2.4,0,0,1,1.45.38,1.48,1.48,0,0,1,.59.92,1.5,1.5,0,0,1-.57,1,2.26,2.26,0,0,1-1.26.28Zm.36-2.5h-.1a2.41,2.41,0,0,0-1.35.5,1.33,1.33,0,0,0-.46.81h0a1.21,1.21,0,0,0,.43.83,2.61,2.61,0,0,0,1.57.23,2.24,2.24,0,0,0,1.2-.26,1.36,1.36,0,0,0,.52-.92,1.31,1.31,0,0,0-.54-.83A2.32,2.32,0,0,0,31.71,26.48Zm-2,1.31Z"/></g></g><g id="b1723c79-849b-4edd-8ada-5c29bba81a09" data-name="dientes"><g class="aca660d6-6ecd-41a8-8a73-059e9fa613d5"><path class="f631c505-57f1-40e7-8b96-0d770784397b" d="M26.34,21.85h9.38a4.44,4.44,0,0,0-.17-1.71,2.77,2.77,0,0,0-1.47-1.05,9.84,9.84,0,0,0-6.3.13,2.75,2.75,0,0,0-1.4,1.13A4.05,4.05,0,0,0,26.34,21.85Z"/><path class="f2255692-1575-4040-8133-07338289e951" d="M30.91,21.92l-4.57,0a0,0,0,0,1-.05,0,3.81,3.81,0,0,1,0-1.53,2.77,2.77,0,0,1,1.43-1.16A9.89,9.89,0,0,1,34.1,19a2.76,2.76,0,0,1,1.5,1.08,4.29,4.29,0,0,1,.17,1.73c0,.06,0,.06-.6.06Zm-4.52-.13h9.28a4.34,4.34,0,0,0-.16-1.63,2.79,2.79,0,0,0-1.45-1,9.79,9.79,0,0,0-6.26.13,2.72,2.72,0,0,0-1.37,1.11A3.58,3.58,0,0,0,26.39,21.79Z"/></g><g class="aca660d6-6ecd-41a8-8a73-059e9fa613d5"><path class="f631c505-57f1-40e7-8b96-0d770784397b" d="M35.82,29.34l-4.8,0-4.59,0A4.46,4.46,0,0,0,26.56,31,2.78,2.78,0,0,0,28,32a9.74,9.74,0,0,0,6.29-.13,2.82,2.82,0,0,0,1.41-1.13A3.92,3.92,0,0,0,35.82,29.34Z"/><path class="f2255692-1575-4040-8133-07338289e951" d="M31,32.54a9.24,9.24,0,0,1-3-.45A2.93,2.93,0,0,1,26.51,31a4.36,4.36,0,0,1-.13-1.67s0,0,0,0,1.59,0,4.63,0l4.8,0a0,0,0,0,1,0,.05,3.61,3.61,0,0,1-.08,1.46A2.81,2.81,0,0,1,34.35,32,9.12,9.12,0,0,1,31,32.54Zm-4.5-3.15A4.4,4.4,0,0,0,26.61,31a2.77,2.77,0,0,0,1.45,1,9.76,9.76,0,0,0,6.25-.13,2.76,2.76,0,0,0,1.38-1.1,3.65,3.65,0,0,0,.08-1.35l-4.75,0Zm9.39-.05h0Z"/></g></g></g><g id="f80f1a4e-1b63-4902-a308-7c3c7a65d23f" data-name="ojos"><g id="abf86d46-011d-4a38-96f7-b551c48a2cf6" data-name="ojos"><path class="f631c505-57f1-40e7-8b96-0d770784397b" d="M35.59,21.42a10.09,10.09,0,0,0,.27-2.21,7,7,0,0,0,0-.94,1.63,1.63,0,0,0-.22-.72A1.3,1.3,0,0,0,34.53,17a1.4,1.4,0,0,0-1.08.42,1.39,1.39,0,0,0-.15.73c0,.29,0,1.32,0,1.32s.11,1.87.15,1.92a2.56,2.56,0,0,0,.24.11,3.51,3.51,0,0,0,.92.19,3,3,0,0,0,.77-.16S35.45,21.54,35.59,21.42Z"/><path d="M35.55,21.38a10.24,10.24,0,0,0,.26-2.17h.09a10.36,10.36,0,0,1-.29,2.24Z"/><path d="M35.82,19.21a6.89,6.89,0,0,0,0-.93h.09a7.2,7.2,0,0,1,0,.95Z"/><rect x="35.82" y="19.16" width="0.09" height="0.11"/><path d="M35.8,18.27a2.07,2.07,0,0,0-.21-.71l.07-.06a2.13,2.13,0,0,1,.24.75Z"/><polygon points="35.8 18.32 35.79 18.21 35.88 18.2 35.89 18.31 35.8 18.32"/><path d="M35.59,17.57a1.23,1.23,0,0,0-1.06-.49V17a1.39,1.39,0,0,1,1.13.54Z"/><polygon points="35.62 17.62 35.55 17.53 35.63 17.47 35.7 17.56 35.62 17.62"/><path d="M34.53,17.07a1.35,1.35,0,0,0-1.05.41l-.07-.06A1.45,1.45,0,0,1,34.54,17Z"/><rect x="34.48" y="16.98" width="0.11" height="0.09"/><path d="M33.48,17.47a1.72,1.72,0,0,0-.19.7h0c0-.17,0-.52.11-.75Z"/><polygon points="33.45 17.52 33.37 17.46 33.44 17.37 33.51 17.43 33.45 17.52"/><path d="M33.29,18.18c0,.29,0,1.32,0,1.32h0s0-1,0-1.32Z"/><path d="M33.29,19.5s.11,1.87.15,1.92h0c0-.05-.15-1.92-.15-1.92Z"/><path d="M33.44,21.42l.24.11h0l-.24-.11Z"/><path d="M35.36,21.55l.19-.17.07.07a.35.35,0,0,1-.26.1Z"/><path class="f631c505-57f1-40e7-8b96-0d770784397b" d="M27.83,21.36c-.24-.21-.24-1.61-.25-2a8,8,0,0,1,0-1.08c0-.22,0-.76.26-1A1.88,1.88,0,0,1,29,17a2.06,2.06,0,0,1,1,.44,1.54,1.54,0,0,1,.24.8c0,.45,0,1.2,0,1.2a17.63,17.63,0,0,1-.17,1.93l-.2.13a3,3,0,0,1-.9.22,3.13,3.13,0,0,1-.86-.17A1.37,1.37,0,0,1,27.83,21.36Z"/><path d="M27.79,21.41a5.9,5.9,0,0,1-.27-2h.12c0,.36,0,1.75.22,1.94Z"/><path d="M27.52,19.4a10.13,10.13,0,0,1,0-1.09h.11a9.65,9.65,0,0,0,0,1.07Z"/><polygon points="27.52 19.45 27.51 19.34 27.63 19.33 27.64 19.44 27.52 19.45"/><path d="M27.54,18.31c0-.21,0-.77.28-1l.07.08c-.21.18-.21.71-.24.94Z"/><polygon points="27.65 18.38 27.53 18.37 27.54 18.26 27.66 18.27 27.65 18.38"/><path d="M27.83,17.3A1.94,1.94,0,0,1,29,17v.11a1.91,1.91,0,0,0-1.07.33Z"/><polygon points="27.85 17.43 27.78 17.34 27.87 17.27 27.94 17.36 27.85 17.43"/><path d="M29,17a2,2,0,0,1,1.05.47l-.07.07a1.87,1.87,0,0,0-1-.43Z"/><polygon points="29 17.07 28.89 17.06 28.9 16.95 29.01 16.96 29 17.07"/><path d="M30,17.42a1.44,1.44,0,0,1,.2.83h0a1.45,1.45,0,0,0-.29-.77Z"/><polygon points="29.98 17.52 29.91 17.44 29.99 17.37 30.06 17.46 29.98 17.52"/><path d="M30.22,18.25c0,.45,0,1.2,0,1.2h0s0-.75,0-1.2Z"/><path d="M30.26,19.45a17.63,17.63,0,0,1-.17,1.93h0a17.63,17.63,0,0,0,.17-1.93Z"/><path d="M30.1,21.38l-.2.13h0l.2-.13Z"/><path d="M28.14,21.57a.78.78,0,0,1-.35-.16l.07-.07a2.26,2.26,0,0,0,.29.22Z"/><polygon points="28.19 21.6 28.09 21.55 28.1 21.52 28.2 21.57 28.19 21.6"/></g><g id="a9adec46-19e3-43b9-9913-7620f28a891f" data-name="pupilas"><g class="f4eb269f-a875-4183-ab73-c3e395bbe380"><path class="afd5775a-7d6d-499b-95e9-d1da0b6c84cd" d="M34.71,17.39c.62,0,.83.52.87,1.5,0,1.16-.33,1.84-.87,1.84s-.89-.82-.86-1.84C33.87,18.08,34.09,17.39,34.71,17.39Z"/></g><g class="f4eb269f-a875-4183-ab73-c3e395bbe380"><path class="afd5775a-7d6d-499b-95e9-d1da0b6c84cd" d="M29.05,17.38c.62,0,.88.52.93,1.51s-.27,1.86-.88,1.86-.93-.61-.87-1.86C28.26,17.87,28.45,17.39,29.05,17.38Z"/></g></g></g><g id="b96cdb02-b6cf-455b-b58b-dea5f2d2fc9b" data-name="nariz"><path class="a85493b5-75f8-4376-b27a-8e3f092c3a96" d="M31.24,20a1.79,1.79,0,0,0-.38.1,3.6,3.6,0,0,0-.73.49A9.92,9.92,0,0,0,30.65,22c.09.2.39.74.39.74l.11.19.12-.18s.22-.52.27-.7.34-1.11.33-1.18a2.87,2.87,0,0,0-.42-.66A.59.59,0,0,0,31.24,20Z"/><path d="M31.24,20a1.8,1.8,0,0,0-.36.13l0-.05a1,1,0,0,1,.39-.08Z"/><path d="M30.88,20.16a2.76,2.76,0,0,0-.68.49l-.12,0a3.29,3.29,0,0,1,.77-.5Z"/><polygon points="30.82 20.18 30.8 20.13 30.91 20.09 30.93 20.14 30.82 20.18"/><path d="M30.2,20.65A10.21,10.21,0,0,0,30.71,22l-.1,0a8.4,8.4,0,0,1-.53-1.39Z"/><polygon points="30.18 20.7 30.06 20.66 30.1 20.55 30.22 20.6 30.18 20.7"/><path d="M30.71,22c.09.2.38.74.38.74l-.07,0s-.31-.55-.4-.75Z"/><rect x="30.6" y="21.93" width="0.11" height="0.11" transform="translate(-6.27 14.28) rotate(-23.86)"/><path d="M31.08,22.7l.07.21h0L31,22.75Z"/><polygon points="31.04 22.8 30.97 22.71 31.04 22.66 31.11 22.75 31.04 22.8"/><path d="M31.16,22.91l.13-.17h0l-.13.17Z"/></g><g id="ff9f09da-7675-4914-8355-c183c50ccfc5" data-name="pelo int"><path class="afd5775a-7d6d-499b-95e9-d1da0b6c84cd" d="M36.92,21.83c.62-.34.71-.14,1.2-.46a49.16,49.16,0,0,1,.56-4.89,7,7,0,0,0-.56-3.27,7.26,7.26,0,0,0-2.83-2.72A10.38,10.38,0,0,0,32,10.36a6.35,6.35,0,0,0-4.29,2.21,2.86,2.86,0,0,0-.45,1.56c.18-.08,0,0,.24-.08a7.08,7.08,0,0,1,3.9.55,7,7,0,0,1,3.3-.69,4.52,4.52,0,0,1,2,1.29,23.64,23.64,0,0,1,.14,3.72C36.86,19,36.93,21.69,36.92,21.83Z"/></g><g id="b301e30e-c851-4ed2-98c8-4bc276f34135" data-name="cejas"><path d="M32.53,16.47A4.93,4.93,0,0,1,34.44,16l0,.25a6,6,0,0,0-1.91.36Z"/><path d="M34.44,16a2.71,2.71,0,0,1,1.46.29l0,.19a2.83,2.83,0,0,0-1.42-.23Z"/><rect x="34.39" y="15.95" width="0.11" height="0.24" transform="translate(-0.67 1.53) rotate(-2.52)"/><path d="M27.3,16.28a3,3,0,0,1,1.53-.37l0,.24a3.15,3.15,0,0,0-1.48.31Z"/><path d="M28.84,15.91c.91.09,1.09.43,1.54.57l0,.09a4.73,4.73,0,0,0-1.53-.42Z"/><polygon points="28.87 16.16 28.76 16.15 28.78 15.9 28.89 15.91 28.87 16.16"/></g><g id="bb590e78-dc13-49a4-8e2c-76718d7001fc" data-name="oreja der"><path class="a85493b5-75f8-4376-b27a-8e3f092c3a96" d="M36.78,22.06a1.5,1.5,0,0,1,.54-.58,1,1,0,0,1,.67,0,1.13,1.13,0,0,1,.43.72,1.11,1.11,0,0,1-.1.84,1.11,1.11,0,0,1-.79.27,1.15,1.15,0,0,1-.67-.26A1.7,1.7,0,0,1,36.78,22.06Z"/><path d="M36.76,22.05a1.46,1.46,0,0,1,.53-.63l.06.13a1.29,1.29,0,0,0-.54.52Z"/><path d="M37.29,21.42a1.07,1.07,0,0,1,.75,0l-.07.13a.8.8,0,0,0-.61,0Z"/><polygon points="37.3 21.57 37.24 21.44 37.34 21.39 37.4 21.53 37.3 21.57"/><path d="M38,21.39a1.22,1.22,0,0,1,.48.78l-.13,0a1.09,1.09,0,0,0-.4-.67Z"/><polygon points="38.01 21.54 37.91 21.49 37.98 21.37 38.07 21.42 38.01 21.54"/><path d="M38.5,22.16a1.22,1.22,0,0,1-.11.9L38.28,23a1.15,1.15,0,0,0,.09-.79Z"/><polygon points="38.38 22.25 38.35 22.14 38.49 22.11 38.52 22.21 38.38 22.25"/><path d="M38.39,23.07a1.22,1.22,0,0,1-.86.29v-.15a1,1,0,0,0,.74-.24Z"/><polygon points="38.35 23.11 38.24 23.02 38.31 22.94 38.42 23.02 38.35 23.11"/><path d="M37.53,23.36a1.36,1.36,0,0,1-.69-.3l0,0a1.19,1.19,0,0,0,.65.2Z"/><rect x="37.47" y="23.21" width="0.11" height="0.14"/></g></g><ellipse class="bfb9bb4b-cc27-4d04-bde4-39abadb97635" cx="29.39" cy="19.83" rx="0.65" ry="1.19"/><path d="M29.39,21.07c-.4,0-.71-.54-.71-1.24s.31-1.24.71-1.24.71.55.71,1.24S29.79,21.07,29.39,21.07Zm0-2.37c-.32,0-.6.52-.6,1.13s.28,1.13.6,1.13.6-.52.6-1.13S29.72,18.7,29.39,18.7Z"/><ellipse class="bfb9bb4b-cc27-4d04-bde4-39abadb97635" cx="34.64" cy="19.83" rx="0.65" ry="1.19"/><path d="M34.64,21.07c-.39,0-.71-.54-.71-1.24s.32-1.24.71-1.24.71.55.71,1.24S35,21.07,34.64,21.07Zm0-2.37c-.33,0-.59.51-.59,1.13s.26,1.13.59,1.13.6-.52.6-1.13S35,18.7,34.64,18.7Z"/><path class="aaabd499-73f3-47d7-94ae-71a19dd902a3" d="M40.15,12.8,42.28,9A.72.72,0,0,0,42,8c-1.28-.83-4.41-2.8-5.34-2.85S26.07,8,23.07,8.93A.72.72,0,0,0,22.68,10l2.51,4Z"/><path class="a407323e-ab89-4fa3-ac32-596ab6e29083" d="M25.19,8.29s1.65,5.29,2.08,5.64,2.61-.65,2.61-.65-1.68-1.66-2.51-5.65Z"/><path class="bd40e9c9-4016-4f76-abf2-62b5a6d01b5a" d="M26.16,15.42s3.72-3,12.8-1l1.19-1.59s-6.45-2.56-15,1.22Z"/><path class="ad1b4d10-9877-4f51-b66a-7777d08679b0" d="M4.21,8.88a.9.9,0,0,0-.81.52.9.9,0,0,0-.81-.52c-.5,0-.9.59-.9,1.08,0,1.08,1.71,2,1.71,2S5.11,11,5.11,10C5.11,9.47,4.71,8.88,4.21,8.88Z"/><path class="f7902459-0fd5-4575-92fb-5d5cabc2084f" d="M3.4,12h0s-1.72-1-1.72-2c0-.49.41-1.1.92-1.1a.93.93,0,0,1,.81.5.93.93,0,0,1,.81-.5c.51,0,.92.61.92,1.1,0,1.08-1.7,2-1.72,2ZM2.59,8.9c-.49,0-.88.58-.88,1.06,0,1,1.56,1.92,1.69,2s1.7-1,1.7-2A1.06,1.06,0,0,0,4.21,8.9a.87.87,0,0,0-.79.51h0A.87.87,0,0,0,2.59,8.9Z"/><path class="b61f62ca-0ebd-40d0-b586-2affb452bd86" d="M4.84,10.21h0a.09.09,0,0,1-.07-.1.75.75,0,0,0-.44-.91.11.11,0,0,1-.06-.11A.1.1,0,0,1,4.37,9a1,1,0,0,1,.56,1.11A.09.09,0,0,1,4.84,10.21Z"/><path class="b61f62ca-0ebd-40d0-b586-2affb452bd86" d="M4.77,10.52h0a.09.09,0,0,1-.06-.11l0-.11a.07.07,0,0,1,.1-.06.08.08,0,0,1,.06.1l0,.11A.08.08,0,0,1,4.77,10.52Z"/><path class="ad1b4d10-9877-4f51-b66a-7777d08679b0" d="M56.89,82.65a.91.91,0,0,0,.82-.52.88.88,0,0,0,.81.52,1.07,1.07,0,0,0,.9-1.08c0-1.08-1.71-2-1.71-2s-1.72.92-1.72,2A1.07,1.07,0,0,0,56.89,82.65Z"/><path class="f7902459-0fd5-4575-92fb-5d5cabc2084f" d="M57.71,79.55h0s1.73.94,1.73,2a1.1,1.1,0,0,1-.92,1.1.9.9,0,0,1-.81-.5.93.93,0,0,1-.82.5,1.1,1.1,0,0,1-.92-1.1c0-1.08,1.71-2,1.73-2Zm.81,3.08c.49,0,.88-.58.88-1.06,0-1-1.56-1.91-1.69-2s-1.7,1-1.7,2c0,.48.39,1.06.88,1.06a.89.89,0,0,0,.8-.51h0A.88.88,0,0,0,58.52,82.63Z"/><path class="b61f62ca-0ebd-40d0-b586-2affb452bd86" d="M56.26,81.33h0a.08.08,0,0,1,.08.09.77.77,0,0,0,.44.92.08.08,0,0,1,.05.11.07.07,0,0,1-.1,0,.93.93,0,0,1-.56-1.1A.08.08,0,0,1,56.26,81.33Z"/><path class="b61f62ca-0ebd-40d0-b586-2affb452bd86" d="M56.33,81h0a.09.09,0,0,1,.07.1l0,.12a.09.09,0,0,1-.1.06.09.09,0,0,1-.07-.1l0-.12A.08.08,0,0,1,56.33,81Z"/></g></g></svg>