<svg xmlns="http://www.w3.org/2000/svg" xmlns:xlink="http://www.w3.org/1999/xlink" viewBox="0 0 61.11 91.54"><defs><style>.ad592b95-3b2f-41fc-9b8b-737509d02444,.baebd313-5dd2-401f-8944-39069bec955b,.bbd1c2ee-6b79-4782-b172-e648b15a72a1,.bcfa8ecb-626a-4e02-afb0-acfbd3cbd2fb{fill:none;}.bbd1c2ee-6b79-4782-b172-e648b15a72a1{clip-rule:evenodd;}.bcfa8ecb-626a-4e02-afb0-acfbd3cbd2fb{clip-path:url(#f25d9391-0015-499f-bc38-4433bc6aa891);}.ad592b95-3b2f-41fc-9b8b-737509d02444{clip-path:url(#f044224f-7a9d-4998-8c68-970048f7a194);}.aa2c5cdd-4a77-4e92-bedb-32fede6c7a1a{fill:#f6413a;}.aa83ca6f-c745-4ec2-96e7-15ef0f150beb{fill:#adadad;}.ba6a8d72-e3c3-4653-b156-82c3561f5e50,.bdb137bc-2bbe-4f57-8827-422fcf9870d0{fill:#25126c;}.a1465b7d-b842-40d8-825f-3b2ba69be4b2,.a14cf422-1048-4804-a6d0-eb414d9c99e3,.a22b55fd-be54-4bd6-beb8-89e17ab9dea0,.aa90141a-8301-4b60-ac40-2df66e4cce46,.b63fce0d-b38b-4e4a-b5b9-4191b0197e8b,.bdb137bc-2bbe-4f57-8827-422fcf9870d0,.bf3507c3-b548-4f2a-bc03-572015d8a48c,.e1bb9210-8f82-45a6-b77c-e74ad6a1e900{fill-rule:evenodd;}.aa90141a-8301-4b60-ac40-2df66e4cce46{fill:#fecbae;}.e1bb9210-8f82-45a6-b77c-e74ad6a1e900{fill:#fe7edb;}.be618dac-51ce-491a-b42b-9e6931e1f839{fill:#d61fa4;}.b63fce0d-b38b-4e4a-b5b9-4191b0197e8b{fill:#e4b9ff;}.bab8c051-2caa-4156-8b24-d1cae825a3c8{fill:#7c2bb0;}.a1465b7d-b842-40d8-825f-3b2ba69be4b2{fill:#620002;}.e0b4ed4a-8ae9-4b38-9863-fded66b8a20e{fill:#3b1010;}.b334f208-9815-487a-b7ed-72adbfd81138{clip-path:url(#f449d3c8-735b-440f-a59c-00afadb9475e);}.bf3507c3-b548-4f2a-bc03-572015d8a48c{fill:#fa7073;}.a3c5a46a-3813-444e-911e-4ddba4053c07{fill:#a03636;}.a14cf422-1048-4804-a6d0-eb414d9c99e3{fill:#fff;}.e2b17302-a2a7-45da-960e-5bd0d9301397{clip-path:url(#f8b99534-7ac6-4094-9006-d64fdcb47ffb);}.b48fcd82-2b38-48f8-a8f7-4db86311c79a{clip-path:url(#f6aa8720-9559-4249-8a62-7e14b20a7daf);}.a8b8ca27-f2f1-40da-86a2-4eb343a78221{fill:#0054ff;}.f694df0b-c1ed-424d-8573-9a0736794ff0{fill:#0155ff;}.a9749b94-4f35-4f0f-a827-9b44beeb5b88{fill:#0256ff;}.bb870644-c5d4-4c85-934f-eb9072074a20{fill:#0356ff;}.b844f8fd-95f1-41a6-a85c-ae1f0a1b8a7e{fill:#0457ff;}.be2bca69-76b1-40de-82a7-ee6b94b85c09{fill:#0558ff;}.a097273d-8f35-4afa-a2fb-3c1ebd415868{fill:#0659ff;}.f1d64296-4358-4ef2-b921-9256aeeac1a7{fill:#075aff;}.b3a56d62-56e4-4cfa-8b1b-892e8a878eef{fill:#085aff;}.a62afd04-233e-4f4b-84a9-da5942f6e608{fill:#095bff;}.a1d18ee7-2341-4c8c-bb9d-8b4492faa158{fill:#0a5cff;}.f8b75d37-ade0-48f5-a787-9667e439c9ed{fill:#0b5dff;}.b9d090d7-67ed-4a80-af35-204b62b0afd6{fill:#0c5dff;}.a7975970-7bfd-4ebd-8f94-f70a54d88e7d{fill:#0d5eff;}.eab210c2-9ec1-4a48-937f-6926b4ae5073{fill:#0e5fff;}.a6a63fed-d0c0-4a42-8a40-5eb30056ce43{fill:#0f60ff;}.eb9857e1-5211-4617-b0b5-a85ad7625396{fill:#1061ff;}.f1a30a0f-f5c0-4597-a81c-bc74fa83bc38{fill:#1161ff;}.b05a22df-0ed1-423e-b754-e4e8c501c9e2{fill:#1262ff;}.e0d45d19-af85-48c2-b2f3-0b0c9127600a{fill:#1363ff;}.a2b7866e-e256-4e73-a382-b5adc8d0b4f6{fill:#1464ff;}.ff746631-7eeb-4f59-8a07-3d86284b9fdc{fill:#1565ff;}.e5d4d034-e615-41d4-bb3f-fe68b2b6adaa{fill:#1665ff;}.e7810d14-1d74-4164-9927-369e9e2b0b2e{fill:#1766ff;}.fd5e6d72-e158-4208-ac54-6d29b767397c{fill:#1867ff;}.b47783ce-ad64-41b1-9667-428c0249e4a5{fill:#1968ff;}.b985508a-f752-44ec-acff-e22381a81043{fill:#1a69ff;}.bc19d605-9bfa-4b67-a613-78fc2c75ed03{fill:#1b69ff;}.a0e7d38d-9b58-422e-9fd1-7f18bdd37040{fill:#1c6aff;}.a11044df-f2de-44b4-91da-7d729a83466c{fill:#1d6bff;}.f082f5ab-fdde-4d88-8c8c-1ef26ab156a1{fill:#1e6cff;}.e3bbc520-de92-4eb2-9d99-519fa17a53d8{fill:#1f6cff;}.aecce55a-8128-4416-b6af-b017fc9da4f9{fill:#206dff;}.fc4ac99e-18b6-4337-81d1-703b690b3d11{fill:#216eff;}.f40bd368-104c-4314-ab83-4a0506bc09c4{fill:#226fff;}.ac49f7aa-fc33-4640-ba97-ec66f4b47880{fill:#2370ff;}.b7e41597-233d-4984-a10b-5dacdd3fb942{fill:#2470ff;}.a725852c-1dba-49a9-9bd3-af04394b77f5{fill:#2571ff;}.b942bd1d-2839-45af-99bc-83a73b2d859a{fill:#2672ff;}.b2cdd3ba-4c55-4e97-a649-d7c4f58c3ca1{fill:#2773ff;}.a2a39fea-b37e-450c-a515-1fac9f1ffe5d{fill:#2874ff;}.e04f40f6-8f61-437c-abe0-2dd2e50eca9a{fill:#2974ff;}.a94c8ebe-953a-4e38-be79-5f6ea7335e27{fill:#2a75ff;}.b4cd373c-ae75-4094-bf88-d208b72d0b32{fill:#2b76ff;}.a51d4f64-fb35-42f7-93ad-46dfa3435308{fill:#2c77ff;}.ba67901e-1d42-42d3-b170-b7d1bdb10c5b{fill:#2d78ff;}.f599f94e-4af8-43c8-bb35-4822ceb77e86{fill:#2e78ff;}.b90fab88-840e-4224-9bbc-f6f36f8b1999{fill:#2f79ff;}.b70510ad-af5f-49ee-9bfc-131392ee11a2{fill:#307aff;}.f0b80b97-904f-4fa8-8d96-a460cffe4e22{fill:#317bff;}.fecf2736-516d-42ab-9a1b-9f3ac94d160d{fill:#327bff;}.e42be0e9-3808-4b68-bd29-f1738ab16956{fill:#337cff;}.fffdfd72-419e-40a7-ad53-68a5fc53bc46{fill:#347dff;}.b23c3f2f-1703-4153-8ee0-ee65b5dd5398{fill:#357eff;}.b90658d9-f699-4e7d-aae0-dbdc16c14658{fill:#367fff;}.a88d1d55-772b-4300-ab01-aef2e7e9d655{fill:#377fff;}.a32159e8-5da9-4801-9bfc-e051350a9893{fill:#3880ff;}.ae0d5dd2-80e6-432c-9bc8-fd3285a25457{fill:#3981ff;}.f47e4f23-2196-4bb3-80c9-6fc808d2a85a{fill:#3a82ff;}.e9327ea2-5f29-44ed-a939-05999df246a3{fill:#3b83ff;}.b4caff82-a544-49ce-8fe1-14e85241a50c{fill:#3c83ff;}.af286649-3d68-409f-9ee8-67b2647c8485{fill:#3d84ff;}.f837197f-41ab-45ec-aa96-151244363b57{fill:#3e85ff;}.b52822ab-2349-4d44-b082-13ce04f51589{fill:#3f86ff;}.e3aca5e7-5009-4794-9339-ee2e7826f6bb{fill:#4087ff;}.b456b2cb-4579-4255-b498-d90d432dee31{fill:#4187ff;}.f5bac9b7-8c5f-4863-bb4d-9344796328ad{fill:#4288ff;}.a69315e7-59fa-4bb5-b085-4f74a6a23090{fill:#4389ff;}.fac6f922-13ae-44f1-adf6-759f75440dff{fill:#448aff;}.f9551b2e-ee2f-4a96-a51a-267f24bca236{fill:#458aff;}.fea72067-c205-411b-9843-76032fb48722{fill:#468bff;}.aeb891fe-a024-4acc-8508-20b3df5d97a1{fill:#478cff;}.f7eac701-9d56-471b-9e0a-4a80a00c9bc0{fill:#488dff;}.bb382cde-db73-4278-870d-349460ae4065{fill:#498eff;}.b068bcd6-b65c-4433-9541-ff77e31ddd88{fill:#4a8eff;}.e7ddd04d-d66f-4be2-84b3-9937ba2caea6{fill:#4b8fff;}.b0dede44-5a8d-4900-ad94-22bad34d9049{fill:#4c90ff;}.bba8001c-ab3c-47a6-8f70-9cbc4efcf475{fill:#4d91ff;}.ee53fa01-82a7-4a2e-8272-70df3bf1879b{fill:#4e92ff;}.a75dce89-d5c8-4c79-9203-300ceebd2042{fill:#5092ff;}.baa783a3-3173-42e3-b8dc-3a2ae834d590{fill:#5193ff;}.aa8f1fba-c2f1-4e34-b736-d6d090df9e54{fill:#5294ff;}.fa92246c-3d2d-46ef-b9bb-d7389f4cea8a{fill:#5395ff;}.a4573181-2c1b-4fc7-bac8-f5a997931a62{fill:#5496ff;}.fbe3f38a-8173-42f0-b11e-dbc9ff973ea5{fill:#5596ff;}.e6aceb1c-a5f9-419a-96b2-a07fefaeb9cf{fill:#5697ff;}.b8956b18-105d-41f6-831f-2b0e43777c16{fill:#5798ff;}.ab431d7a-35a5-4908-a5e0-2c9c174269b7{fill:#5899ff;}.b251f89f-6fff-41e7-b986-9423807560f8{fill:#599aff;}.b79e38b5-af0d-4317-8f56-e8988a48823c{fill:#5a9aff;}.ab30ea79-e0f3-4dac-8e15-4f11e87f0758{fill:#5b9bff;}.e5b87299-2d6a-4207-8a41-25b8151dc6a5{fill:#5c9cff;}.ec8c2c9e-2e5e-4952-a01b-59f0ce2a5157{fill:#5d9dff;}.e21c2f07-8da0-4095-954f-c1f763141251{fill:#5e9dff;}.fb436213-c6f3-45cc-9e6e-c31456d0297f{fill:#5f9eff;}.b7873502-62f3-4a65-9b67-a2abf33936da{fill:#609fff;}.ec2d36f8-4ab6-4b14-9342-c4d11b5cf7a7{fill:#61a0ff;}.a62e6bdc-c872-4b88-8622-9f5481b8053a{fill:#62a1ff;}.f6f5ded6-c60e-4a1a-a25f-8ba24e04f776{fill:#63a1ff;}.bb83255c-6340-4eb1-9165-a0777c4e1a49{fill:#64a2ff;}.b0bc63ab-5885-4bde-b7d7-62c4fbf21826{fill:#65a3ff;}.bcbafc15-8a93-4569-ae20-98541827d8cc{fill:#66a4ff;}.b1d2e682-4d1e-45bc-9970-5ec033d230c5{fill:#67a5ff;}.b288db49-bdae-4962-a168-514b2a683274{fill:#68a5ff;}.a0d99a24-3006-4ee6-a0a1-b947d5944341{fill:#69a6ff;}.bd7b6f6c-b024-428f-b066-05cb61a490de{fill:#6aa7ff;}.e958f2b4-e10b-4a65-8bf3-1dd79fc7c63b{fill:#6ba8ff;}.b4cce57f-90d1-4851-bc25-4ccad4c0ddda{fill:#6ca9ff;}.b54df813-64a8-4fb5-b411-32a6012a90e9{fill:#6da9ff;}.a7c62c8c-2a9a-4512-bd1d-f62270603778{fill:#6eaaff;}.f95e0e87-eeff-455b-87c2-2d7933d69a64{fill:#6fabff;}.b0ee75c6-d856-4569-95dc-919f08215a0e{fill:#70acff;}.a6b4dbbc-321f-4766-a07c-4900aa45e8f9{fill:#71acff;}.f0f90fec-15f6-4c4d-90f1-ab24ecaafa99{fill:#72adff;}.b1bc4646-ceea-4ca8-b106-fd8e18ce5505{fill:#73aeff;}.ee0e1fa0-0d3f-4085-bc94-d59862a88cf0{fill:#74afff;}.ef47e2f6-cdbc-4db7-92eb-caa987c63ca9{fill:#75b0ff;}.aca5f5aa-d4d9-4976-9f80-8ed5f4a0cae5{fill:#76b0ff;}.a82f312c-af53-4510-b373-e12368f91d90{fill:#77b1ff;}.ad07be2d-829b-4af7-85eb-dba8c047083f{fill:#78b2ff;}.bfa89d98-5b29-47df-bb36-00d142f2d9d5{fill:#79b3ff;}.b89add2b-7a6b-46d5-819c-2fedf4e3de6b{fill:#7ab4ff;}.b416c6ad-58dc-4e11-ac52-8f8767360c7d{fill:#7bb4ff;}.b649226a-b0a3-4e12-b409-a33d01dc2daa{fill:#7cb5ff;}.aba06f58-12d1-4866-849b-1120ec03124e{fill:#7db6ff;}.accf53e0-efe7-4aed-860a-cb0b6baaa883{fill:#7eb7ff;}.ba6fcd47-8377-4c9d-ad3b-bc4af9a96f48{fill:#7fb8ff;}.a00f1b54-1afd-43a0-85a5-d587cb1c7d23{fill:#80b8ff;}.a114ae41-1ac7-45b7-9a46-19b90655b8b5{fill:#81b9ff;}.f81d0483-0ad6-479d-b7e2-954313fc3ec9{fill:#82baff;}.b9a0a513-8c05-4f22-8e8b-815d6b038f15{fill:#83bbff;}.bc6e95b4-80a6-4bb7-8b08-87dfb756727f{fill:#84bbff;}.e399caa3-4fe7-4a88-8c22-e1282bbeb1f2{fill:#85bcff;}.bddc4dad-dc20-49bd-b62f-05e73e1c9904{fill:#86bdff;}.e92142db-0f1c-4611-af0c-ac152ae34a67{fill:#87beff;}.e8698ff3-a0ed-48e2-8c8a-b23a69658388{fill:#88bfff;}.e7480870-5752-4cca-8861-8df9285ef51d{fill:#89bfff;}.bcf087aa-c644-4d1a-8ac0-d112a54ee316{fill:#8ac0ff;}.a4e86732-c49c-4550-9463-9104abd8bc78{fill:#8bc1ff;}.bdf779b5-654f-47cc-a624-1c438f9a026d{fill:#8cc2ff;}.be14fe6e-78a7-4576-a1da-9d2ce7206d9f{fill:#8dc3ff;}.bb997bd0-d3fa-4484-bcb2-9d5c62a21550{fill:#8ec3ff;}.aa02e037-cf92-426d-a95e-7b5f0cafbd61{fill:#8fc4ff;}.b4e5aecc-c04f-442e-b541-493573799ca0{fill:#90c5ff;}.b872ab4f-7a95-4117-9f6d-8d9df624ed0f{fill:#91c6ff;}.f33ac469-12db-48f3-9d91-4fe417c2eebd{fill:#92c7ff;}.e23c9faf-7b47-4029-ac4a-08457d3e6e51{fill:#93c7ff;}.a594d303-980c-4ef8-a78a-62fe3394ddc9{fill:#94c8ff;}.a79473e7-13fa-43af-80cc-66ded2b94b6f{fill:#95c9ff;}.aee2b0c8-4d1b-43cb-a715-d648c13e5257{fill:#96caff;}.b9261948-5f0f-42ba-91e5-06a301732980{fill:#97caff;}.b7d1174b-886c-4f79-8d4b-6a46aa32813d{fill:#98cbff;}.b4927215-196e-47d8-9512-5aaaf40710e7{fill:#9cf;}.b7971a34-8212-4454-8e38-a3012b19f93e{fill:#9acdff;}.acdf353a-33b2-480d-914d-3d08da998d4f{fill:#9bceff;}.a6e08729-a2da-4a24-bb8c-ef49fbcb82ca{fill:#9cceff;}.ff063a85-ebb2-497d-ac2a-705beb220454{fill:#9dcfff;}.ef9b2ffa-2286-44a1-a2db-76c22596b5f2{fill:#9ed0ff;}.fca939cd-9474-49f9-a869-377034682d0a{clip-path:url(#b62dbb8c-7a2d-46d5-91dc-a43c44cf813d);}.b01e3b49-3ed3-4d98-b8a9-49b2ef8a3a34{fill:#aa292e;}.b4a5ed4f-b33a-4784-a397-06c0feb4b280{fill:#1f2d6c;}.e1c5ca91-4848-44b6-9945-2628d1e0a477{fill:#333;}.fa70ad08-e5b9-43a8-a788-7e064a8aa372{fill:#aa7941;}.aba3e049-aef4-433a-ab18-ee8109fa921f{fill:#0b050f;}.a511e8c4-8d60-4534-9722-747be15dc617{fill:#3856c8;}.a0161618-888b-4aeb-aa27-75a2d2111970{fill:#bf9b4d;}.ea2f6e59-a228-4636-88ee-af0b025d3837{fill:#e8efff;}.e0913c98-2640-4360-ac28-643403f21e5c{fill:#c9d8f7;}.afc4ee04-66a8-49ac-abd0-87af8b5cbf43{fill:#715c57;}.a22b55fd-be54-4bd6-beb8-89e17ab9dea0,.b0a90d40-a8aa-40c4-bf45-4c2880ea6340{fill:#153f68;}.eb4c1d03-2e64-470e-b18d-2586ca2ac4b3{clip-path:url(#f03175f8-d7fa-44e0-80ba-3ddf000aa285);}.fa542ed3-5a70-4cb8-9b94-c035dd0b76ad{fill:#7f282a;}.e6b6b69c-d65c-4479-96be-97377fb301d3{fill:#3f3f3f;}.f4d8a612-dc4a-4c43-9fd4-f1ac64e756cb{clip-path:url(#aa423364-a1af-44a5-8245-48d7870fa22e);}.bd06acc9-4f64-4cb8-abe4-bf892b088947{fill:#c51611;}.a0a17129-0f87-4719-97f3-e1a99281d306{fill:#ffb3b3;}</style><clipPath id="f25d9391-0015-499f-bc38-4433bc6aa891"><path class="baebd313-5dd2-401f-8944-39069bec955b" d="M35.59,21.42a10.09,10.09,0,0,0,.27-2.21,7,7,0,0,0,0-.94,1.63,1.63,0,0,0-.22-.72A1.3,1.3,0,0,0,34.53,17a1.4,1.4,0,0,0-1.08.42,1.39,1.39,0,0,0-.15.73c0,.29,0,1.32,0,1.32s.11,1.87.15,1.92a2.56,2.56,0,0,0,.24.11,3.51,3.51,0,0,0,.92.19,3,3,0,0,0,.77-.16S35.45,21.54,35.59,21.42Z"/></clipPath><clipPath id="f044224f-7a9d-4998-8c68-970048f7a194"><path class="baebd313-5dd2-401f-8944-39069bec955b" d="M32.84,69.75h-.79l-.76,0a1.3,1.3,0,0,0-.5.12,1.24,1.24,0,0,0-.31.54,3.5,3.5,0,0,0,0,.57,2.31,2.31,0,0,0,.55.43,1.93,1.93,0,0,0,1,.2,2.06,2.06,0,0,0,1-.28,1.34,1.34,0,0,0,.38-.47,1.23,1.23,0,0,0,0-.47,1,1,0,0,0-.25-.53A.56.56,0,0,0,32.84,69.75Z"/></clipPath><clipPath id="f449d3c8-735b-440f-a59c-00afadb9475e"><path class="baebd313-5dd2-401f-8944-39069bec955b" d="M26.85,64.84a8.66,8.66,0,0,1,1.08-.38c.18,0,1.33-.23,1.48-.23s1.14.16,1.27.19,1.17.32,1.25.38.86.84.75,1-.75-.07-.83-.08-1.11-.17-1.25-.18l-1.21-.08c-.17,0-1.34.09-1.51.11l-1.1.12c-.07,0-.73.17-.79.09S26.69,65,26.85,64.84Z"/></clipPath><clipPath id="f8b99534-7ac6-4094-9006-d64fdcb47ffb"><path class="ad592b95-3b2f-41fc-9b8b-737509d02444" d="M25.86,69.63h.93l.8,0a1.19,1.19,0,0,1,.34.15,1.17,1.17,0,0,1,.26.45,4.77,4.77,0,0,1,.06.62,4,4,0,0,1-.6.43,2.72,2.72,0,0,1-1,.21,2.13,2.13,0,0,1-1-.27,1.39,1.39,0,0,1-.51-.59,1.24,1.24,0,0,1,.09-.46.89.89,0,0,1,.25-.42A1.74,1.74,0,0,1,25.86,69.63Z"/></clipPath><clipPath id="f6aa8720-9559-4249-8a62-7e14b20a7daf"><path class="bbd1c2ee-6b79-4782-b172-e648b15a72a1" d="M31.12,70.6a.6.6,0,0,1,1.19,0,.6.6,0,0,1-1.19,0Z"/></clipPath><clipPath id="b62dbb8c-7a2d-46d5-91dc-a43c44cf813d"><path class="bbd1c2ee-6b79-4782-b172-e648b15a72a1" d="M25.9,70.59a.58.58,0,0,1,.61-.55.55.55,0,1,1,0,1.09A.58.58,0,0,1,25.9,70.59Z"/></clipPath><clipPath id="f03175f8-d7fa-44e0-80ba-3ddf000aa285"><path class="baebd313-5dd2-401f-8944-39069bec955b" d="M28.22,25s.49.62.68.77a4.44,4.44,0,0,0,1,.35c.11,0,1.08.07,1.19.07s1.1-.05,1.19-.07a9.35,9.35,0,0,0,1.25-.28c.17-.12.51-.72.57-.68a1.93,1.93,0,0,1-.55.76,10.39,10.39,0,0,1-1.27.28c-.12,0-1.07.08-1.18.08s-1.08-.05-1.19-.07a4.86,4.86,0,0,1-1-.34A3.52,3.52,0,0,1,28.22,25Z"/></clipPath><clipPath id="aa423364-a1af-44a5-8245-48d7870fa22e"><path class="bcfa8ecb-626a-4e02-afb0-acfbd3cbd2fb" d="M27.83,21.36c-.24-.21-.24-1.61-.25-2a8,8,0,0,1,0-1.08c0-.22,0-.76.26-1A1.88,1.88,0,0,1,29,17a2.06,2.06,0,0,1,1,.44,1.54,1.54,0,0,1,.24.8c0,.45,0,1.2,0,1.2a17.63,17.63,0,0,1-.17,1.93l-.2.13a3,3,0,0,1-.9.22,3.13,3.13,0,0,1-.86-.17A1.37,1.37,0,0,1,27.83,21.36Z"/></clipPath></defs><title>D_J</title><g id="fe259440-a9d6-4be2-a3c8-641b971278ac" data-name="Capa 2"><g id="b521bed6-a671-4e34-9dfd-73e165501aa5" data-name="Objects"><path class="aa2c5cdd-4a77-4e92-bedb-32fede6c7a1a" d="M3.39,8.21a1.73,1.73,0,0,1-1-.32,2,2,0,0,1-.68-.82.27.27,0,0,1,0-.14.23.23,0,0,1,.09-.19.32.32,0,0,1,.18-.06.2.2,0,0,1,.14,0l.11.11a1.46,1.46,0,0,0,.49.61,1.21,1.21,0,0,0,.72.23,1.54,1.54,0,0,0,.73-.17A1.19,1.19,0,0,0,4.6,7a1.43,1.43,0,0,0,.18-.72V2.12a.25.25,0,0,1,.08-.18.28.28,0,0,1,.21-.08.24.24,0,0,1,.2.08.24.24,0,0,1,.07.18V6.29a1.92,1.92,0,0,1-.25,1A1.67,1.67,0,0,1,4.4,8,2.07,2.07,0,0,1,3.39,8.21Z"/><rect class="baebd313-5dd2-401f-8944-39069bec955b" x="0.13" y="0.12" width="60.86" height="91.29" rx="2.4"/><path class="aa83ca6f-c745-4ec2-96e7-15ef0f150beb" d="M58.59,91.54H2.52A2.53,2.53,0,0,1,0,89V2.52A2.52,2.52,0,0,1,2.52,0H58.59a2.52,2.52,0,0,1,2.52,2.52V89A2.53,2.53,0,0,1,58.59,91.54ZM2.52.25A2.27,2.27,0,0,0,.25,2.52V89a2.28,2.28,0,0,0,2.27,2.28H58.59A2.28,2.28,0,0,0,60.86,89V2.52A2.27,2.27,0,0,0,58.59.25Z"/><path class="aa2c5cdd-4a77-4e92-bedb-32fede6c7a1a" d="M57.71,83.33a1.68,1.68,0,0,1,1,.31,2,2,0,0,1,.68.83.3.3,0,0,1,.05.14.2.2,0,0,1-.09.18.27.27,0,0,1-.18.07.25.25,0,0,1-.15,0,.47.47,0,0,1-.1-.1,1.48,1.48,0,0,0-.49-.61,1.2,1.2,0,0,0-.73-.23A1.42,1.42,0,0,0,57,84a1.28,1.28,0,0,0-.49.49,1.52,1.52,0,0,0-.17.71v4.17a.25.25,0,0,1-.09.19.29.29,0,0,1-.4,0,.27.27,0,0,1-.08-.19V85.24a2,2,0,0,1,.25-1,1.8,1.8,0,0,1,.69-.68A2,2,0,0,1,57.71,83.33Z"/><g id="b76f6118-8018-4bfa-86b6-021ac3e09df8" data-name="pelo ext"><path class="bdb137bc-2bbe-4f57-8827-422fcf9870d0" d="M20.4,75.41c-.79-1.6-.43-2.84-.45-4.07,0-1.66.36-3.85.49-5.51a56.41,56.41,0,0,0,.39-5.94c-.06-1.5-.53-3.46-.7-5-.2-1.69-.45-3.93-.52-5.62,0-.76,0-2.53,0-2.53A10,10,0,0,1,21,46.45c.78-.08,1.82.18,2.59.17,1,0,2.32-.41,3.31-.34.73,0,6.4,6.89,6.3,8.6a52.62,52.62,0,0,0-.37,5.33A53.53,53.53,0,0,0,34,66.7a32.58,32.58,0,0,1,1,5c0,1.39-.08,3.37-.82,4.54A6.14,6.14,0,0,1,31.8,78a8.32,8.32,0,0,1-2.25.6,13.4,13.4,0,0,1-4.93,0,10.63,10.63,0,0,1-2.15-1.21A6.34,6.34,0,0,1,20.4,75.41Z"/><path d="M26.58,79a7.69,7.69,0,0,1-2-.23,10.48,10.48,0,0,1-2.16-1.22,6.5,6.5,0,0,1-2.08-2.07h0a5.62,5.62,0,0,1-.49-3.18c0-.31,0-.61,0-.91a29.64,29.64,0,0,1,.29-3.59c.08-.68.16-1.33.2-1.92s.09-1.07.15-1.66a33.69,33.69,0,0,0,.24-4.28,25.1,25.1,0,0,0-.4-3c-.12-.7-.23-1.35-.3-2-.21-1.73-.45-3.93-.53-5.62,0-.75,0-2.52,0-2.53a.07.07,0,0,1,0,0A10.4,10.4,0,0,1,21,46.4a7.83,7.83,0,0,1,1.5.08c.38,0,.74.09,1.06.09h0A12.08,12.08,0,0,0,25,46.4a8.63,8.63,0,0,1,1.84-.17c.73.05,6.46,6.84,6.35,8.65,0,.57-.1,1.2-.17,1.87a22.19,22.19,0,0,0-.2,3.46,29.36,29.36,0,0,0,.77,4.56c.15.69.29,1.33.4,1.92s.23,1,.37,1.62a16.1,16.1,0,0,1,.6,3.42,9.45,9.45,0,0,1-.83,4.56,6.17,6.17,0,0,1-2.33,1.8,8.47,8.47,0,0,1-2.26.6A21.9,21.9,0,0,1,26.58,79ZM19.66,46.82c0,.26,0,1.81,0,2.5.07,1.68.31,3.88.52,5.61.07.59.18,1.25.3,1.94a25.52,25.52,0,0,1,.4,3,34,34,0,0,1-.24,4.3c-.05.59-.11,1.14-.14,1.66s-.13,1.24-.21,1.92A29.49,29.49,0,0,0,20,71.34c0,.3,0,.6,0,.91a5.54,5.54,0,0,0,.48,3.14h0a6.27,6.27,0,0,0,2.05,2,11.12,11.12,0,0,0,2.13,1.2,13.13,13.13,0,0,0,4.92,0A8.55,8.55,0,0,0,31.77,78a6.08,6.08,0,0,0,2.3-1.76,9.48,9.48,0,0,0,.81-4.51,15.85,15.85,0,0,0-.6-3.39c-.14-.58-.28-1.13-.37-1.63s-.25-1.23-.4-1.91a31.05,31.05,0,0,1-.78-4.59,23.78,23.78,0,0,1,.21-3.47c.07-.67.14-1.3.17-1.87.1-1.68-5.58-8.49-6.26-8.54A8.51,8.51,0,0,0,25,46.5a11.44,11.44,0,0,1-1.47.17h0c-.33,0-.69-.05-1.08-.09A7.49,7.49,0,0,0,21,46.5,10.74,10.74,0,0,0,19.66,46.82Z"/></g><path class="aa90141a-8301-4b60-ac40-2df66e4cce46" d="M28.08,60.55s.06,2.05.09,2.1,1.24.54,1.29-.25c0-.08-.07-1.84-.07-1.91"/><path d="M28.93,62.88a1.53,1.53,0,0,1-.8-.22s-.13-2-.08-2.13h0v0h0c0,.11.07,1.92.09,2.07a1.53,1.53,0,0,0,1,.14.38.38,0,0,0,.24-.37s0-.84-.05-1.36c0-.31,0-.53,0-.55h.07s0,.26,0,.54c0,.72.06,1.32.06,1.38a.46.46,0,0,1-.42.46Z"/><g id="e92e1fc2-53c4-47f1-b31d-6de2d353044d" data-name="pinches"><path class="e1bb9210-8f82-45a6-b77c-e74ad6a1e900" d="M32,77.47l.09.64-1.46.3-.18-.67S32,77.46,32,77.47Z"/><path class="be618dac-51ce-491a-b42b-9e6931e1f839" d="M30.65,78.46s0,0,0,0l-.17-.68s0,0,0,0a0,0,0,0,1,0,0l.31-.06c1.24-.21,1.25-.22,1.27-.19s0,0,0,0l.09.63a.05.05,0,0,1,0,.06l-1.46.3Zm-.11-.68.14.57,1.37-.28L32,77.53l-1.18.2Z"/><path class="b63fce0d-b38b-4e4a-b5b9-4191b0197e8b" d="M32,76.42l.14.75-1.5.29-.16-.73S32,76.41,32,76.42Z"/><path class="bab8c051-2caa-4156-8b24-d1cae825a3c8" d="M30.6,77.51s-.05,0-.05,0l-.16-.73s0-.06,0-.06a7.9,7.9,0,0,1,1.56-.3l0,0,.14.75a0,0,0,0,1,0,.06l-1.5.29Zm-.1-.74.14.63,1.4-.27-.12-.65Z"/></g><g id="a2cfb8ca-63f2-4135-a0a7-3ba57bd71a19" data-name="cabeza"><g id="e25f0a1f-bdb2-44ec-9984-d84f4d8f4059" data-name="oreja der"><path class="aa90141a-8301-4b60-ac40-2df66e4cce46" d="M31,68a1.18,1.18,0,0,1,.63-.22,1.11,1.11,0,0,1,.75.24,1.13,1.13,0,0,1-.32,1.4.84.84,0,0,1-.64,0,1.23,1.23,0,0,1-.5-.51A1.39,1.39,0,0,1,31,68Z"/><path d="M31,68.86a1.18,1.18,0,0,0,.5.46l-.05.13a1.3,1.3,0,0,1-.5-.57Z"/><path d="M31.45,69.32a.86.86,0,0,0,.59,0l.06.12a1,1,0,0,1-.7,0Z"/><polygon points="31.45 69.47 31.36 69.43 31.41 69.3 31.5 69.34 31.45 69.47"/><path d="M32,69.35a1,1,0,0,0,.37-.6l.14,0a1.26,1.26,0,0,1-.45.7Z"/><rect x="32.02" y="69.36" width="0.1" height="0.13" transform="translate(-29.27 23.76) rotate(-28.54)"/><path d="M32.41,68.75a.92.92,0,0,0-.08-.7l.1-.08a1,1,0,0,1,.12.81Z"/><polygon points="32.53 68.83 32.4 68.8 32.42 68.7 32.56 68.73 32.53 68.83"/><path d="M32.33,68.05a1,1,0,0,0-.7-.21v-.13a1.14,1.14,0,0,1,.8.26Z"/><polygon points="32.37 68.09 32.3 68.01 32.4 67.93 32.47 68.01 32.37 68.09"/><path d="M31.63,67.83A1.19,1.19,0,0,0,31,68l0,0a1.28,1.28,0,0,1,.65-.27Z"/><rect x="31.58" y="67.71" width="0.1" height="0.13"/></g><g id="a318a5a6-b768-4c63-a54b-be8ccf9c5682" data-name="cabeza"><path class="aa90141a-8301-4b60-ac40-2df66e4cce46" d="M33.3,71.49c-.06,1-.07,3.76-1.09,5.06-.83,1.07-1.77,1.68-4.16,1.64-2.65,0-3.78-.72-4.51-2-.87-1.51-.81-4.19-.83-4.61,0-.78.15-1.74.17-2.2a11.9,11.9,0,0,1,.83-4A7.81,7.81,0,0,1,26,63.53a9.27,9.27,0,0,1,3.3-1.17,5.78,5.78,0,0,1,2,1.18,6.39,6.39,0,0,1,1.33,1.8,17.39,17.39,0,0,1,.61,4A13.84,13.84,0,0,1,33.3,71.49Z"/><path d="M33.22,69.29a17.79,17.79,0,0,0-.64-3.93l.12,0a17.69,17.69,0,0,1,.57,4Z"/><path d="M32.58,65.36a6.38,6.38,0,0,0-1.31-1.77l.09-.1a6.56,6.56,0,0,1,1.34,1.82Z"/><polygon points="32.59 65.41 32.56 65.32 32.68 65.27 32.72 65.36 32.59 65.41"/><path d="M31.28,63.58a5.6,5.6,0,0,0-2-1.16v-.14a6.09,6.09,0,0,1,2.06,1.21Z"/><polygon points="31.31 63.62 31.24 63.55 31.33 63.45 31.4 63.52 31.31 63.62"/><path d="M29.28,62.42A9.43,9.43,0,0,0,26,63.59L26,63.48a9.65,9.65,0,0,1,3.34-1.19Z"/><polygon points="29.34 62.43 29.24 62.42 29.25 62.29 29.35 62.3 29.34 62.43"/><path d="M26,63.6a8,8,0,0,0-2.27,1.84l-.08,0A7.66,7.66,0,0,1,26,63.48Z"/><rect x="25.94" y="63.47" width="0.1" height="0.13" transform="translate(-27.2 20.14) rotate(-28.54)"/><path d="M23.75,65.43a11.67,11.67,0,0,0-.85,3.95h0a11.55,11.55,0,0,1,.81-4Z"/><polygon points="23.72 65.47 23.64 65.42 23.7 65.33 23.78 65.38 23.72 65.47"/><path d="M22.91,69.38c0,.46-.21,1.42-.2,2.2h0c0-.78.13-1.74.15-2.2Z"/><rect x="22.86" y="69.33" width="0.04" height="0.1"/><path d="M22.71,71.59c0,.42,0,3.09.87,4.58l-.08,0c-.87-1.52-.77-4.21-.79-4.63Z"/><path d="M23.57,76.18c.72,1.27,1.83,1.93,4.47,2v.09c-2.65,0-3.81-.73-4.54-2Z"/><polygon points="23.52 76.26 23.47 76.18 23.55 76.13 23.6 76.21 23.52 76.26"/><path d="M28,78.14c2.38,0,3.29-.57,4.11-1.62l.09.08c-.83,1.06-1.8,1.68-4.2,1.64Z"/><rect x="27.99" y="78.15" width="0.1" height="0.09"/><path d="M32.15,76.52c1-1.27,1-4,1.08-5h.12c-.06,1-.08,3.77-1.11,5.1Z"/><rect x="32.15" y="76.5" width="0.1" height="0.12" transform="translate(-47.98 54.88) rotate(-52.06)"/><path d="M33.23,71.49a13.17,13.17,0,0,0,0-2.2h.05a11.7,11.7,0,0,1,.08,2.21Z"/><polygon points="33.35 71.55 33.23 71.53 33.24 71.44 33.36 71.44 33.35 71.55"/></g><g id="a7c054e8-d81a-4ee7-8596-3fa8e4fa4eba" data-name="boca"><g id="fdac96ae-47fd-4ff3-ad3f-b6eb78858df0" data-name="boca"><path class="a1465b7d-b842-40d8-825f-3b2ba69be4b2" d="M26.85,64.84a8.66,8.66,0,0,1,1.08-.38c.18,0,1.33-.23,1.48-.23s1.14.16,1.27.19,1.17.32,1.25.38.86.84.75,1-.75-.07-.83-.08-1.11-.17-1.25-.18l-1.21-.08c-.17,0-1.34.09-1.51.11l-1.1.12c-.07,0-.73.17-.79.09S26.69,65,26.85,64.84Z"/><path class="e0b4ed4a-8ae9-4b38-9863-fded66b8a20e" d="M32.54,65.89a2.87,2.87,0,0,1-.59-.1l-.11,0-.54-.08c-.3,0-.63-.1-.71-.1l-1.2-.08c-.17,0-1.33.09-1.5.11l-1,.11h-.07l-.09,0c-.51.1-.69.12-.74,0s.86-1,.87-1h0a8.19,8.19,0,0,1,1.1-.39c.18,0,1.34-.23,1.49-.23s1.15.16,1.28.19,1.17.32,1.27.39.91.84.76,1.07A.22.22,0,0,1,32.54,65.89Zm-3.15-.48c.16,0,1.2.08,1.21.08s.4.05.71.1l.54.08.12,0c.5.11.64.11.67.08s-.61-.83-.74-.93-1.08-.34-1.23-.37-1.13-.19-1.26-.19-1.29.17-1.47.22a9.37,9.37,0,0,0-1.06.38,3.77,3.77,0,0,0-.85.87,2.13,2.13,0,0,0,.64-.09l.1,0h.07l1-.11C28.05,65.5,29.22,65.41,29.39,65.41ZM26,65.75h0Z"/></g><g id="f20fb156-9a4f-4026-a309-6904cd62d801" data-name="lengua"><g class="b334f208-9815-487a-b7ed-72adbfd81138"><path class="bf3507c3-b548-4f2a-bc03-572015d8a48c" d="M27.71,62.4a3.39,3.39,0,0,1,2-.3,2.93,2.93,0,0,1,1.5.33,1.66,1.66,0,0,1,.67,1.13,1.7,1.7,0,0,1-.7,1,3.06,3.06,0,0,1-1.72.42,3.11,3.11,0,0,1-1.69-.59,1.68,1.68,0,0,1-.59-1A1.44,1.44,0,0,1,27.71,62.4Z"/><path class="a3c5a46a-3813-444e-911e-4ddba4053c07" d="M29.56,65.07h-.14a3.1,3.1,0,0,1-1.73-.61,1.65,1.65,0,0,1-.6-1,1.53,1.53,0,0,1,.59-1.07h0a3.3,3.3,0,0,1,1.94-.31h.05a3,3,0,0,1,1.53.34,1.7,1.7,0,0,1,.69,1.17,1.73,1.73,0,0,1-.72,1.07A3.09,3.09,0,0,1,29.56,65.07Zm-1.82-2.63a1.43,1.43,0,0,0-.55,1,1.59,1.59,0,0,0,.57,1,3.15,3.15,0,0,0,1.67.58h.13a3,3,0,0,0,1.55-.41,1.65,1.65,0,0,0,.68-1,1.6,1.6,0,0,0-.65-1.08,2.94,2.94,0,0,0-1.47-.32h-.05a3.28,3.28,0,0,0-1.88.29Z"/></g></g><g id="b057b7f7-46f9-498e-b2c3-2f1d82f2d4e7" data-name="dientes"><g class="b334f208-9815-487a-b7ed-72adbfd81138"><path class="a14cf422-1048-4804-a6d0-eb414d9c99e3" d="M25,70.59a2.7,2.7,0,0,0,1.32,1,9.83,9.83,0,0,0,5.93.11,2.81,2.81,0,0,0,1.39-1,4,4,0,0,0,.15-1.53H24.93A3.48,3.48,0,0,0,25,70.59Z"/><path d="M29.44,72.17a9,9,0,0,1-3.17-.52,2.62,2.62,0,0,1-1.34-1h0a3.26,3.26,0,0,1-.05-1.37,0,0,0,0,1,.05,0h4.29c4.55,0,4.55,0,4.57,0l0,0a3.9,3.9,0,0,1-.16,1.55,2.81,2.81,0,0,1-1.41,1A8.85,8.85,0,0,1,29.44,72.17ZM25,69.29A3.09,3.09,0,0,0,25,70.56h0a2.54,2.54,0,0,0,1.29,1,9.73,9.73,0,0,0,5.9.11,2.7,2.7,0,0,0,1.35-.93,3.62,3.62,0,0,0,.15-1.45H25Z"/></g><g class="b334f208-9815-487a-b7ed-72adbfd81138"><path class="a14cf422-1048-4804-a6d0-eb414d9c99e3" d="M33.78,61.21a2.72,2.72,0,0,0-1.33-1,9.8,9.8,0,0,0-5.92-.11,2.76,2.76,0,0,0-1.39,1A3.79,3.79,0,0,0,25,62.51s3,0,4.31,0l4.52,0A3.62,3.62,0,0,0,33.78,61.21Z"/><path d="M29.33,62.58H25.51c-.54,0-.54,0-.54-.05A3.71,3.71,0,0,1,25.1,61a2.72,2.72,0,0,1,1.41-1,9.77,9.77,0,0,1,6,.11,2.6,2.6,0,0,1,1.35,1h0a3.54,3.54,0,0,1,.08,1.32.05.05,0,0,1,0,.05Zm-4.26-.12,4.26,0,4.47,0a3.25,3.25,0,0,0-.07-1.22h0a2.59,2.59,0,0,0-1.29-1,9.73,9.73,0,0,0-5.9-.11,2.66,2.66,0,0,0-1.35.93A3.32,3.32,0,0,0,25.07,62.46Z"/></g></g></g><g id="fb09a5cd-7dbf-422a-a86e-8f8f7b5bf781" data-name="ojos"><g id="ac67800f-04e7-4bca-9c3b-55b68e9ea330" data-name="ojos"><path class="a14cf422-1048-4804-a6d0-eb414d9c99e3" d="M32.84,69.75h-.79l-.76,0a1.3,1.3,0,0,0-.5.12,1.24,1.24,0,0,0-.31.54,3.5,3.5,0,0,0,0,.57,2.31,2.31,0,0,0,.55.43,1.93,1.93,0,0,0,1,.2,2.06,2.06,0,0,0,1-.28,1.34,1.34,0,0,0,.38-.47,1.23,1.23,0,0,0,0-.47,1,1,0,0,0-.25-.53A.56.56,0,0,0,32.84,69.75Z"/><path d="M33.45,70.86a1.35,1.35,0,0,1-.37.53L33,71.23a1.28,1.28,0,0,0,.38-.4Z"/><polygon points="33.43 70.91 33.34 70.88 33.37 70.78 33.46 70.81 33.43 70.91"/><path d="M33.07,71.39a2.19,2.19,0,0,1-1,.32v-.26a2,2,0,0,0,1-.22Z"/><polygon points="33.03 71.42 32.92 71.26 33 71.2 33.11 71.36 33.03 71.42"/><path d="M32,71.7A2.2,2.2,0,0,1,31,71.47l.09-.18a1.68,1.68,0,0,0,1,.16Z"/><rect x="31.96" y="71.45" width="0.1" height="0.25" transform="translate(-2.74 1.29) rotate(-2.22)"/><path d="M30.94,71.47a1.82,1.82,0,0,1-.55-.51l.08,0a3.91,3.91,0,0,0,.56.36Z"/><rect x="30.88" y="71.33" width="0.2" height="0.1" transform="translate(-46.72 67.17) rotate(-63.43)"/><path d="M31.28,69.69H32v.12c-.29,0-.75,0-.75,0Z"/><polygon points="31.24 69.78 31.23 69.7 31.33 69.69 31.34 69.76 31.24 69.78"/><path d="M32.05,69.7h.8l0,.09-.79,0Z"/><rect x="31.99" y="69.69" width="0.1" height="0.12"/><path class="a14cf422-1048-4804-a6d0-eb414d9c99e3" d="M25.86,69.63h.93l.8,0a1.19,1.19,0,0,1,.34.15,1.17,1.17,0,0,1,.26.45,4.77,4.77,0,0,1,.06.62,4,4,0,0,1-.6.43,2.72,2.72,0,0,1-1,.21,2.13,2.13,0,0,1-1-.27,1.39,1.39,0,0,1-.51-.59,1.24,1.24,0,0,1,.09-.46.89.89,0,0,1,.25-.42A1.74,1.74,0,0,1,25.86,69.63Z"/><path d="M25.19,70.66c0,.13.33.41.51.52l-.12.18a1.51,1.51,0,0,1-.5-.67Z"/><rect x="25.08" y="70.63" width="0.1" height="0.1" transform="matrix(0.98, -0.19, 0.19, 0.98, -13.25, 6.23)"/><path d="M25.7,71.19a2,2,0,0,0,.91.23v.25a2.29,2.29,0,0,1-1-.31Z"/><polygon points="25.62 71.39 25.53 71.34 25.66 71.15 25.74 71.21 25.62 71.39"/><path d="M26.61,71.42a2.65,2.65,0,0,0,1-.17l.08.18a2.73,2.73,0,0,1-1.08.24Z"/><polygon points="26.65 71.67 26.55 71.67 26.56 71.42 26.66 71.43 26.65 71.67"/><path d="M27.61,71.25c.18-.08.6-.38.59-.36l.08,0a2.68,2.68,0,0,1-.6.5Z"/><polygon points="27.63 71.45 27.55 71.27 27.64 71.23 27.72 71.41 27.63 71.45"/><path d="M27.57,69.72h-.79V69.6l.81.05Z"/><polygon points="27.61 69.74 27.52 69.72 27.54 69.64 27.64 69.66 27.61 69.74"/><path d="M26.79,69.72l-.92,0,0-.08s.57,0,.94,0Z"/><rect x="26.74" y="69.61" width="0.1" height="0.11"/><path d="M33.42,70.8a.63.63,0,0,1,.24.14l-.12.12-.18-.18Z"/><path d="M33.66,70.94a1.28,1.28,0,0,1,.25.32l-.19.09a.85.85,0,0,0-.18-.29Z"/><polygon points="33.58 71.09 33.51 71.03 33.62 70.91 33.69 70.97 33.58 71.09"/><path d="M25.15,70.74a.81.81,0,0,0-.27.07l-.08-.13a.68.68,0,0,1,.33-.05Z"/><path d="M24.87,70.81c-.12.07-.15.19-.22.33l-.19-.09a.84.84,0,0,1,.33-.37Z"/><polygon points="24.83 70.83 24.75 70.7 24.83 70.65 24.91 70.78 24.83 70.83"/></g><g id="add04e36-2273-44b9-9735-c8a774020c9d" data-name="pupilas"><g class="e2b17302-a2a7-45da-960e-5bd0d9301397"><g class="b48fcd82-2b38-48f8-a8f7-4db86311c79a"><rect class="a8b8ca27-f2f1-40da-86a2-4eb343a78221" x="31.12" y="70.03" width="1.19" height="1.12"/><ellipse class="a8b8ca27-f2f1-40da-86a2-4eb343a78221" cx="31.15" cy="70.93" rx="0.71" ry="0.68"/><ellipse class="f694df0b-c1ed-424d-8573-9a0736794ff0" cx="31.15" cy="70.93" rx="0.71" ry="0.67"/><ellipse class="a9749b94-4f35-4f0f-a827-9b44beeb5b88" cx="31.15" cy="70.93" rx="0.7" ry="0.67"/><ellipse class="bb870644-c5d4-4c85-934f-eb9072074a20" cx="31.15" cy="70.93" rx="0.7" ry="0.66"/><ellipse class="b844f8fd-95f1-41a6-a85c-ae1f0a1b8a7e" cx="31.15" cy="70.93" rx="0.7" ry="0.66"/><ellipse class="be2bca69-76b1-40de-82a7-ee6b94b85c09" cx="31.15" cy="70.93" rx="0.69" ry="0.65"/><ellipse class="a097273d-8f35-4afa-a2fb-3c1ebd415868" cx="31.15" cy="70.93" rx="0.69" ry="0.65"/><ellipse class="f1d64296-4358-4ef2-b921-9256aeeac1a7" cx="31.15" cy="70.93" rx="0.68" ry="0.65"/><ellipse class="b3a56d62-56e4-4cfa-8b1b-892e8a878eef" cx="31.15" cy="70.93" rx="0.68" ry="0.64"/><ellipse class="a62afd04-233e-4f4b-84a9-da5942f6e608" cx="31.15" cy="70.93" rx="0.67" ry="0.64"/><ellipse class="a1d18ee7-2341-4c8c-bb9d-8b4492faa158" cx="31.15" cy="70.93" rx="0.67" ry="0.63"/><ellipse class="f8b75d37-ade0-48f5-a787-9667e439c9ed" cx="31.15" cy="70.93" rx="0.66" ry="0.63"/><ellipse class="b9d090d7-67ed-4a80-af35-204b62b0afd6" cx="31.15" cy="70.93" rx="0.66" ry="0.62"/><ellipse class="a7975970-7bfd-4ebd-8f94-f70a54d88e7d" cx="31.15" cy="70.93" rx="0.65" ry="0.62"/><ellipse class="eab210c2-9ec1-4a48-937f-6926b4ae5073" cx="31.15" cy="70.93" rx="0.65" ry="0.62"/><ellipse class="a6a63fed-d0c0-4a42-8a40-5eb30056ce43" cx="31.15" cy="70.93" rx="0.65" ry="0.61"/><ellipse class="eb9857e1-5211-4617-b0b5-a85ad7625396" cx="31.15" cy="70.93" rx="0.64" ry="0.61"/><ellipse class="f1a30a0f-f5c0-4597-a81c-bc74fa83bc38" cx="31.15" cy="70.93" rx="0.64" ry="0.6"/><ellipse class="b05a22df-0ed1-423e-b754-e4e8c501c9e2" cx="31.15" cy="70.93" rx="0.63" ry="0.6"/><ellipse class="e0d45d19-af85-48c2-b2f3-0b0c9127600a" cx="31.15" cy="70.93" rx="0.63" ry="0.59"/><ellipse class="a2b7866e-e256-4e73-a382-b5adc8d0b4f6" cx="31.15" cy="70.93" rx="0.62" ry="0.59"/><ellipse class="ff746631-7eeb-4f59-8a07-3d86284b9fdc" cx="31.15" cy="70.93" rx="0.62" ry="0.59"/><ellipse class="e5d4d034-e615-41d4-bb3f-fe68b2b6adaa" cx="31.15" cy="70.93" rx="0.61" ry="0.58"/><ellipse class="e7810d14-1d74-4164-9927-369e9e2b0b2e" cx="31.15" cy="70.93" rx="0.61" ry="0.58"/><ellipse class="fd5e6d72-e158-4208-ac54-6d29b767397c" cx="31.15" cy="70.93" rx="0.6" ry="0.57"/><ellipse class="b47783ce-ad64-41b1-9667-428c0249e4a5" cx="31.15" cy="70.93" rx="0.6" ry="0.57"/><ellipse class="b985508a-f752-44ec-acff-e22381a81043" cx="31.15" cy="70.93" rx="0.6" ry="0.56"/><ellipse class="bc19d605-9bfa-4b67-a613-78fc2c75ed03" cx="31.15" cy="70.93" rx="0.59" ry="0.56"/><ellipse class="a0e7d38d-9b58-422e-9fd1-7f18bdd37040" cx="31.15" cy="70.93" rx="0.59" ry="0.56"/><ellipse class="a11044df-f2de-44b4-91da-7d729a83466c" cx="31.15" cy="70.93" rx="0.58" ry="0.55"/><ellipse class="f082f5ab-fdde-4d88-8c8c-1ef26ab156a1" cx="31.15" cy="70.93" rx="0.58" ry="0.55"/><ellipse class="e3bbc520-de92-4eb2-9d99-519fa17a53d8" cx="31.15" cy="70.93" rx="0.57" ry="0.54"/><ellipse class="aecce55a-8128-4416-b6af-b017fc9da4f9" cx="31.15" cy="70.93" rx="0.57" ry="0.54"/><ellipse class="fc4ac99e-18b6-4337-81d1-703b690b3d11" cx="31.15" cy="70.93" rx="0.56" ry="0.53"/><ellipse class="f40bd368-104c-4314-ab83-4a0506bc09c4" cx="31.15" cy="70.93" rx="0.56" ry="0.53"/><ellipse class="ac49f7aa-fc33-4640-ba97-ec66f4b47880" cx="31.15" cy="70.93" rx="0.56" ry="0.53"/><ellipse class="b7e41597-233d-4984-a10b-5dacdd3fb942" cx="31.15" cy="70.93" rx="0.55" ry="0.52"/><ellipse class="a725852c-1dba-49a9-9bd3-af04394b77f5" cx="31.15" cy="70.93" rx="0.55" ry="0.52"/><ellipse class="b942bd1d-2839-45af-99bc-83a73b2d859a" cx="31.15" cy="70.93" rx="0.54" ry="0.51"/><ellipse class="b2cdd3ba-4c55-4e97-a649-d7c4f58c3ca1" cx="31.15" cy="70.93" rx="0.54" ry="0.51"/><ellipse class="a2a39fea-b37e-450c-a515-1fac9f1ffe5d" cx="31.15" cy="70.93" rx="0.53" ry="0.5"/><ellipse class="e04f40f6-8f61-437c-abe0-2dd2e50eca9a" cx="31.15" cy="70.93" rx="0.53" ry="0.5"/><ellipse class="a94c8ebe-953a-4e38-be79-5f6ea7335e27" cx="31.15" cy="70.93" rx="0.52" ry="0.5"/><ellipse class="b4cd373c-ae75-4094-bf88-d208b72d0b32" cx="31.15" cy="70.93" rx="0.52" ry="0.49"/><ellipse class="a51d4f64-fb35-42f7-93ad-46dfa3435308" cx="31.15" cy="70.93" rx="0.51" ry="0.49"/><ellipse class="ba67901e-1d42-42d3-b170-b7d1bdb10c5b" cx="31.15" cy="70.93" rx="0.51" ry="0.48"/><ellipse class="f599f94e-4af8-43c8-bb35-4822ceb77e86" cx="31.15" cy="70.93" rx="0.51" ry="0.48"/><ellipse class="b90fab88-840e-4224-9bbc-f6f36f8b1999" cx="31.15" cy="70.93" rx="0.5" ry="0.47"/><ellipse class="b70510ad-af5f-49ee-9bfc-131392ee11a2" cx="31.15" cy="70.93" rx="0.5" ry="0.47"/><ellipse class="f0b80b97-904f-4fa8-8d96-a460cffe4e22" cx="31.15" cy="70.93" rx="0.49" ry="0.47"/><ellipse class="fecf2736-516d-42ab-9a1b-9f3ac94d160d" cx="31.15" cy="70.93" rx="0.49" ry="0.46"/><ellipse class="e42be0e9-3808-4b68-bd29-f1738ab16956" cx="31.15" cy="70.93" rx="0.48" ry="0.46"/><ellipse class="fffdfd72-419e-40a7-ad53-68a5fc53bc46" cx="31.15" cy="70.93" rx="0.48" ry="0.45"/><ellipse class="b23c3f2f-1703-4153-8ee0-ee65b5dd5398" cx="31.15" cy="70.93" rx="0.47" ry="0.45"/><ellipse class="b90658d9-f699-4e7d-aae0-dbdc16c14658" cx="31.15" cy="70.93" rx="0.47" ry="0.44"/><ellipse class="a88d1d55-772b-4300-ab01-aef2e7e9d655" cx="31.15" cy="70.93" rx="0.46" ry="0.44"/><ellipse class="a32159e8-5da9-4801-9bfc-e051350a9893" cx="31.15" cy="70.93" rx="0.46" ry="0.44"/><ellipse class="ae0d5dd2-80e6-432c-9bc8-fd3285a25457" cx="31.15" cy="70.93" rx="0.46" ry="0.43"/><ellipse class="f47e4f23-2196-4bb3-80c9-6fc808d2a85a" cx="31.15" cy="70.93" rx="0.45" ry="0.43"/><ellipse class="e9327ea2-5f29-44ed-a939-05999df246a3" cx="31.15" cy="70.93" rx="0.45" ry="0.42"/><ellipse class="b4caff82-a544-49ce-8fe1-14e85241a50c" cx="31.15" cy="70.93" rx="0.44" ry="0.42"/><ellipse class="af286649-3d68-409f-9ee8-67b2647c8485" cx="31.15" cy="70.93" rx="0.44" ry="0.41"/><ellipse class="f837197f-41ab-45ec-aa96-151244363b57" cx="31.15" cy="70.93" rx="0.43" ry="0.41"/><ellipse class="b52822ab-2349-4d44-b082-13ce04f51589" cx="31.15" cy="70.93" rx="0.43" ry="0.41"/><ellipse class="e3aca5e7-5009-4794-9339-ee2e7826f6bb" cx="31.15" cy="70.93" rx="0.42" ry="0.4"/><ellipse class="b456b2cb-4579-4255-b498-d90d432dee31" cx="31.15" cy="70.93" rx="0.42" ry="0.4"/><ellipse class="f5bac9b7-8c5f-4863-bb4d-9344796328ad" cx="31.15" cy="70.93" rx="0.42" ry="0.39"/><ellipse class="a69315e7-59fa-4bb5-b085-4f74a6a23090" cx="31.15" cy="70.93" rx="0.41" ry="0.39"/><ellipse class="fac6f922-13ae-44f1-adf6-759f75440dff" cx="31.15" cy="70.93" rx="0.41" ry="0.38"/><ellipse class="f9551b2e-ee2f-4a96-a51a-267f24bca236" cx="31.15" cy="70.93" rx="0.4" ry="0.38"/><ellipse class="fea72067-c205-411b-9843-76032fb48722" cx="31.15" cy="70.93" rx="0.4" ry="0.38"/><ellipse class="aeb891fe-a024-4acc-8508-20b3df5d97a1" cx="31.15" cy="70.93" rx="0.39" ry="0.37"/><ellipse class="f7eac701-9d56-471b-9e0a-4a80a00c9bc0" cx="31.15" cy="70.93" rx="0.39" ry="0.37"/><ellipse class="bb382cde-db73-4278-870d-349460ae4065" cx="31.15" cy="70.93" rx="0.38" ry="0.36"/><ellipse class="b068bcd6-b65c-4433-9541-ff77e31ddd88" cx="31.15" cy="70.93" rx="0.38" ry="0.36"/><ellipse class="e7ddd04d-d66f-4be2-84b3-9937ba2caea6" cx="31.15" cy="70.93" rx="0.37" ry="0.36"/><ellipse class="b0dede44-5a8d-4900-ad94-22bad34d9049" cx="31.15" cy="70.93" rx="0.37" ry="0.35"/><ellipse class="bba8001c-ab3c-47a6-8f70-9cbc4efcf475" cx="31.15" cy="70.93" rx="0.37" ry="0.35"/><ellipse class="ee53fa01-82a7-4a2e-8272-70df3bf1879b" cx="31.15" cy="70.93" rx="0.36" ry="0.34"/><ellipse class="a75dce89-d5c8-4c79-9203-300ceebd2042" cx="31.15" cy="70.93" rx="0.36" ry="0.34"/><ellipse class="baa783a3-3173-42e3-b8dc-3a2ae834d590" cx="31.15" cy="70.93" rx="0.35" ry="0.33"/><ellipse class="aa8f1fba-c2f1-4e34-b736-d6d090df9e54" cx="31.15" cy="70.93" rx="0.35" ry="0.33"/><ellipse class="fa92246c-3d2d-46ef-b9bb-d7389f4cea8a" cx="31.15" cy="70.93" rx="0.34" ry="0.33"/><ellipse class="a4573181-2c1b-4fc7-bac8-f5a997931a62" cx="31.15" cy="70.93" rx="0.34" ry="0.32"/><ellipse class="fbe3f38a-8173-42f0-b11e-dbc9ff973ea5" cx="31.15" cy="70.93" rx="0.33" ry="0.32"/><ellipse class="e6aceb1c-a5f9-419a-96b2-a07fefaeb9cf" cx="31.15" cy="70.93" rx="0.33" ry="0.31"/><ellipse class="b8956b18-105d-41f6-831f-2b0e43777c16" cx="31.15" cy="70.93" rx="0.33" ry="0.31"/><ellipse class="ab431d7a-35a5-4908-a5e0-2c9c174269b7" cx="31.15" cy="70.93" rx="0.32" ry="0.3"/><ellipse class="b251f89f-6fff-41e7-b986-9423807560f8" cx="31.15" cy="70.93" rx="0.32" ry="0.3"/><ellipse class="b79e38b5-af0d-4317-8f56-e8988a48823c" cx="31.15" cy="70.93" rx="0.31" ry="0.3"/><ellipse class="ab30ea79-e0f3-4dac-8e15-4f11e87f0758" cx="31.15" cy="70.93" rx="0.31" ry="0.29"/><ellipse class="e5b87299-2d6a-4207-8a41-25b8151dc6a5" cx="31.15" cy="70.93" rx="0.3" ry="0.29"/><ellipse class="ec8c2c9e-2e5e-4952-a01b-59f0ce2a5157" cx="31.15" cy="70.93" rx="0.3" ry="0.28"/><ellipse class="e21c2f07-8da0-4095-954f-c1f763141251" cx="31.15" cy="70.93" rx="0.29" ry="0.28"/><ellipse class="fb436213-c6f3-45cc-9e6e-c31456d0297f" cx="31.15" cy="70.93" rx="0.29" ry="0.27"/><ellipse class="b7873502-62f3-4a65-9b67-a2abf33936da" cx="31.15" cy="70.93" rx="0.28" ry="0.27"/><ellipse class="ec2d36f8-4ab6-4b14-9342-c4d11b5cf7a7" cx="31.15" cy="70.93" rx="0.28" ry="0.27"/><ellipse class="a62e6bdc-c872-4b88-8622-9f5481b8053a" cx="31.15" cy="70.93" rx="0.28" ry="0.26"/><ellipse class="f6f5ded6-c60e-4a1a-a25f-8ba24e04f776" cx="31.15" cy="70.93" rx="0.27" ry="0.26"/><ellipse class="bb83255c-6340-4eb1-9165-a0777c4e1a49" cx="31.15" cy="70.93" rx="0.27" ry="0.25"/><ellipse class="b0bc63ab-5885-4bde-b7d7-62c4fbf21826" cx="31.15" cy="70.93" rx="0.26" ry="0.25"/><ellipse class="bcbafc15-8a93-4569-ae20-98541827d8cc" cx="31.15" cy="70.93" rx="0.26" ry="0.24"/><ellipse class="b1d2e682-4d1e-45bc-9970-5ec033d230c5" cx="31.15" cy="70.93" rx="0.25" ry="0.24"/><ellipse class="b288db49-bdae-4962-a168-514b2a683274" cx="31.15" cy="70.93" rx="0.25" ry="0.24"/><ellipse class="a0d99a24-3006-4ee6-a0a1-b947d5944341" cx="31.15" cy="70.93" rx="0.24" ry="0.23"/><ellipse class="bd7b6f6c-b024-428f-b066-05cb61a490de" cx="31.15" cy="70.93" rx="0.24" ry="0.23"/><ellipse class="e958f2b4-e10b-4a65-8bf3-1dd79fc7c63b" cx="31.15" cy="70.93" rx="0.23" ry="0.22"/><ellipse class="b4cce57f-90d1-4851-bc25-4ccad4c0ddda" cx="31.15" cy="70.93" rx="0.23" ry="0.22"/><ellipse class="b54df813-64a8-4fb5-b411-32a6012a90e9" cx="31.15" cy="70.93" rx="0.23" ry="0.21"/><ellipse class="a7c62c8c-2a9a-4512-bd1d-f62270603778" cx="31.15" cy="70.93" rx="0.22" ry="0.21"/><ellipse class="f95e0e87-eeff-455b-87c2-2d7933d69a64" cx="31.15" cy="70.93" rx="0.22" ry="0.21"/><ellipse class="b0ee75c6-d856-4569-95dc-919f08215a0e" cx="31.15" cy="70.93" rx="0.21" ry="0.2"/><ellipse class="a6b4dbbc-321f-4766-a07c-4900aa45e8f9" cx="31.15" cy="70.93" rx="0.21" ry="0.2"/><ellipse class="f0f90fec-15f6-4c4d-90f1-ab24ecaafa99" cx="31.15" cy="70.93" rx="0.2" ry="0.19"/><ellipse class="b1bc4646-ceea-4ca8-b106-fd8e18ce5505" cx="31.15" cy="70.93" rx="0.2" ry="0.19"/><ellipse class="ee0e1fa0-0d3f-4085-bc94-d59862a88cf0" cx="31.15" cy="70.93" rx="0.19" ry="0.18"/><ellipse class="ef47e2f6-cdbc-4db7-92eb-caa987c63ca9" cx="31.15" cy="70.93" rx="0.19" ry="0.18"/><ellipse class="aca5f5aa-d4d9-4976-9f80-8ed5f4a0cae5" cx="31.15" cy="70.93" rx="0.19" ry="0.18"/><ellipse class="a82f312c-af53-4510-b373-e12368f91d90" cx="31.15" cy="70.93" rx="0.18" ry="0.17"/><ellipse class="ad07be2d-829b-4af7-85eb-dba8c047083f" cx="31.15" cy="70.93" rx="0.18" ry="0.17"/><ellipse class="bfa89d98-5b29-47df-bb36-00d142f2d9d5" cx="31.15" cy="70.93" rx="0.17" ry="0.16"/><ellipse class="b89add2b-7a6b-46d5-819c-2fedf4e3de6b" cx="31.15" cy="70.93" rx="0.17" ry="0.16"/><ellipse class="b416c6ad-58dc-4e11-ac52-8f8767360c7d" cx="31.15" cy="70.93" rx="0.16" ry="0.15"/><ellipse class="b649226a-b0a3-4e12-b409-a33d01dc2daa" cx="31.15" cy="70.93" rx="0.16" ry="0.15"/><ellipse class="aba06f58-12d1-4866-849b-1120ec03124e" cx="31.15" cy="70.93" rx="0.15" ry="0.15"/><ellipse class="accf53e0-efe7-4aed-860a-cb0b6baaa883" cx="31.15" cy="70.93" rx="0.15" ry="0.14"/><ellipse class="ba6fcd47-8377-4c9d-ad3b-bc4af9a96f48" cx="31.15" cy="70.93" rx="0.14" ry="0.14"/><ellipse class="a00f1b54-1afd-43a0-85a5-d587cb1c7d23" cx="31.15" cy="70.93" rx="0.14" ry="0.13"/><ellipse class="a114ae41-1ac7-45b7-9a46-19b90655b8b5" cx="31.15" cy="70.93" rx="0.14" ry="0.13"/><ellipse class="f81d0483-0ad6-479d-b7e2-954313fc3ec9" cx="31.15" cy="70.93" rx="0.13" ry="0.12"/><ellipse class="b9a0a513-8c05-4f22-8e8b-815d6b038f15" cx="31.15" cy="70.93" rx="0.13" ry="0.12"/><ellipse class="bc6e95b4-80a6-4bb7-8b08-87dfb756727f" cx="31.15" cy="70.93" rx="0.12" ry="0.12"/><ellipse class="e399caa3-4fe7-4a88-8c22-e1282bbeb1f2" cx="31.15" cy="70.93" rx="0.12" ry="0.11"/><ellipse class="bddc4dad-dc20-49bd-b62f-05e73e1c9904" cx="31.15" cy="70.93" rx="0.11" ry="0.11"/><ellipse class="e92142db-0f1c-4611-af0c-ac152ae34a67" cx="31.15" cy="70.93" rx="0.11" ry="0.1"/><ellipse class="e8698ff3-a0ed-48e2-8c8a-b23a69658388" cx="31.15" cy="70.93" rx="0.1" ry="0.1"/><ellipse class="e7480870-5752-4cca-8861-8df9285ef51d" cx="31.15" cy="70.93" rx="0.1" ry="0.09"/><ellipse class="bcf087aa-c644-4d1a-8ac0-d112a54ee316" cx="31.15" cy="70.93" rx="0.09" ry="0.09"/><ellipse class="a4e86732-c49c-4550-9463-9104abd8bc78" cx="31.15" cy="70.93" rx="0.09" ry="0.09"/><ellipse class="bdf779b5-654f-47cc-a624-1c438f9a026d" cx="31.15" cy="70.93" rx="0.09" ry="0.08"/><ellipse class="be14fe6e-78a7-4576-a1da-9d2ce7206d9f" cx="31.15" cy="70.93" rx="0.08" ry="0.08"/><ellipse class="bb997bd0-d3fa-4484-bcb2-9d5c62a21550" cx="31.15" cy="70.93" rx="0.08" ry="0.07"/><circle class="aa02e037-cf92-426d-a95e-7b5f0cafbd61" cx="31.15" cy="70.93" r="0.07"/><circle class="b4e5aecc-c04f-442e-b541-493573799ca0" cx="31.15" cy="70.93" r="0.07"/><circle class="b872ab4f-7a95-4117-9f6d-8d9df624ed0f" cx="31.15" cy="70.93" r="0.06"/><circle class="f33ac469-12db-48f3-9d91-4fe417c2eebd" cx="31.15" cy="70.93" r="0.06"/><circle class="e23c9faf-7b47-4029-ac4a-08457d3e6e51" cx="31.15" cy="70.93" r="0.05"/><circle class="a594d303-980c-4ef8-a78a-62fe3394ddc9" cx="31.15" cy="70.93" r="0.05"/><circle class="a79473e7-13fa-43af-80cc-66ded2b94b6f" cx="31.15" cy="70.93" r="0.05"/><circle class="aee2b0c8-4d1b-43cb-a715-d648c13e5257" cx="31.15" cy="70.93" r="0.04"/><circle class="b9261948-5f0f-42ba-91e5-06a301732980" cx="31.15" cy="70.93" r="0.04"/><circle class="b7d1174b-886c-4f79-8d4b-6a46aa32813d" cx="31.15" cy="70.93" r="0.03"/><path class="b4927215-196e-47d8-9512-5aaaf40710e7" d="M31.17,70.93a0,0,0,0,0,0,0s0,0,0,0a0,0,0,0,0,0,0S31.17,70.94,31.17,70.93Z"/><path class="b7971a34-8212-4454-8e38-a3012b19f93e" d="M31.17,70.93a0,0,0,0,0,0,0s0,0,0,0,0,0,0,0A0,0,0,0,0,31.17,70.93Z"/><circle class="acdf353a-33b2-480d-914d-3d08da998d4f" cx="31.15" cy="70.93" r="0.02"/><path class="a6e08729-a2da-4a24-bb8c-ef49fbcb82ca" d="M31.16,70.93a0,0,0,0,0,0,0s0,0,0,0h0Z"/><path class="ff063a85-ebb2-497d-ac2a-705beb220454" d="M31.15,70.93h0a0,0,0,0,0,0,0h0Z"/><polygon class="ef9b2ffa-2286-44a1-a2db-76c22596b5f2" points="31.15 70.93 31.14 70.93 31.14 70.93 31.14 70.94 31.15 70.93"/></g><path d="M31.72,71.2a.61.61,0,1,1,.64-.6A.62.62,0,0,1,31.72,71.2Zm0-1.12a.51.51,0,1,0,0,1,.52.52,0,0,0,.54-.5A.53.53,0,0,0,31.72,70.08Z"/></g><g class="e2b17302-a2a7-45da-960e-5bd0d9301397"><g class="fca939cd-9474-49f9-a869-377034682d0a"><rect class="a8b8ca27-f2f1-40da-86a2-4eb343a78221" x="25.9" y="70.04" width="1.21" height="1.09"/><ellipse class="a8b8ca27-f2f1-40da-86a2-4eb343a78221" cx="25.31" cy="70.93" rx="0.74" ry="0.68"/><ellipse class="f694df0b-c1ed-424d-8573-9a0736794ff0" cx="25.31" cy="70.93" rx="0.74" ry="0.67"/><ellipse class="a9749b94-4f35-4f0f-a827-9b44beeb5b88" cx="25.31" cy="70.93" rx="0.73" ry="0.67"/><ellipse class="bb870644-c5d4-4c85-934f-eb9072074a20" cx="25.31" cy="70.93" rx="0.73" ry="0.66"/><ellipse class="b844f8fd-95f1-41a6-a85c-ae1f0a1b8a7e" cx="25.31" cy="70.93" rx="0.72" ry="0.66"/><ellipse class="be2bca69-76b1-40de-82a7-ee6b94b85c09" cx="25.31" cy="70.93" rx="0.72" ry="0.65"/><ellipse class="a097273d-8f35-4afa-a2fb-3c1ebd415868" cx="25.31" cy="70.93" rx="0.71" ry="0.65"/><ellipse class="f1d64296-4358-4ef2-b921-9256aeeac1a7" cx="25.31" cy="70.93" rx="0.71" ry="0.65"/><ellipse class="b3a56d62-56e4-4cfa-8b1b-892e8a878eef" cx="25.31" cy="70.93" rx="0.7" ry="0.64"/><ellipse class="a62afd04-233e-4f4b-84a9-da5942f6e608" cx="25.31" cy="70.93" rx="0.7" ry="0.64"/><ellipse class="a1d18ee7-2341-4c8c-bb9d-8b4492faa158" cx="25.31" cy="70.93" rx="0.7" ry="0.63"/><ellipse class="f8b75d37-ade0-48f5-a787-9667e439c9ed" cx="25.31" cy="70.93" rx="0.69" ry="0.63"/><ellipse class="b9d090d7-67ed-4a80-af35-204b62b0afd6" cx="25.31" cy="70.93" rx="0.69" ry="0.62"/><ellipse class="a7975970-7bfd-4ebd-8f94-f70a54d88e7d" cx="25.31" cy="70.93" rx="0.68" ry="0.62"/><ellipse class="eab210c2-9ec1-4a48-937f-6926b4ae5073" cx="25.31" cy="70.93" rx="0.68" ry="0.62"/><ellipse class="a6a63fed-d0c0-4a42-8a40-5eb30056ce43" cx="25.31" cy="70.93" rx="0.67" ry="0.61"/><ellipse class="eb9857e1-5211-4617-b0b5-a85ad7625396" cx="25.31" cy="70.93" rx="0.67" ry="0.61"/><ellipse class="f1a30a0f-f5c0-4597-a81c-bc74fa83bc38" cx="25.31" cy="70.93" rx="0.66" ry="0.6"/><ellipse class="b05a22df-0ed1-423e-b754-e4e8c501c9e2" cx="25.31" cy="70.93" rx="0.66" ry="0.6"/><ellipse class="e0d45d19-af85-48c2-b2f3-0b0c9127600a" cx="25.31" cy="70.93" rx="0.65" ry="0.59"/><ellipse class="a2b7866e-e256-4e73-a382-b5adc8d0b4f6" cx="25.31" cy="70.93" rx="0.65" ry="0.59"/><ellipse class="ff746631-7eeb-4f59-8a07-3d86284b9fdc" cx="25.31" cy="70.93" rx="0.64" ry="0.59"/><ellipse class="e5d4d034-e615-41d4-bb3f-fe68b2b6adaa" cx="25.31" cy="70.93" rx="0.64" ry="0.58"/><ellipse class="e7810d14-1d74-4164-9927-369e9e2b0b2e" cx="25.31" cy="70.93" rx="0.63" ry="0.58"/><ellipse class="fd5e6d72-e158-4208-ac54-6d29b767397c" cx="25.31" cy="70.93" rx="0.63" ry="0.57"/><ellipse class="b47783ce-ad64-41b1-9667-428c0249e4a5" cx="25.31" cy="70.93" rx="0.62" ry="0.57"/><ellipse class="b985508a-f752-44ec-acff-e22381a81043" cx="25.31" cy="70.93" rx="0.62" ry="0.56"/><ellipse class="bc19d605-9bfa-4b67-a613-78fc2c75ed03" cx="25.31" cy="70.93" rx="0.62" ry="0.56"/><ellipse class="a0e7d38d-9b58-422e-9fd1-7f18bdd37040" cx="25.31" cy="70.93" rx="0.61" ry="0.56"/><ellipse class="a11044df-f2de-44b4-91da-7d729a83466c" cx="25.31" cy="70.93" rx="0.61" ry="0.55"/><ellipse class="f082f5ab-fdde-4d88-8c8c-1ef26ab156a1" cx="25.31" cy="70.93" rx="0.6" ry="0.55"/><ellipse class="e3bbc520-de92-4eb2-9d99-519fa17a53d8" cx="25.31" cy="70.93" rx="0.6" ry="0.54"/><ellipse class="aecce55a-8128-4416-b6af-b017fc9da4f9" cx="25.31" cy="70.93" rx="0.59" ry="0.54"/><ellipse class="fc4ac99e-18b6-4337-81d1-703b690b3d11" cx="25.31" cy="70.93" rx="0.59" ry="0.53"/><ellipse class="f40bd368-104c-4314-ab83-4a0506bc09c4" cx="25.31" cy="70.93" rx="0.58" ry="0.53"/><ellipse class="ac49f7aa-fc33-4640-ba97-ec66f4b47880" cx="25.31" cy="70.93" rx="0.58" ry="0.53"/><ellipse class="b7e41597-233d-4984-a10b-5dacdd3fb942" cx="25.31" cy="70.93" rx="0.57" ry="0.52"/><ellipse class="a725852c-1dba-49a9-9bd3-af04394b77f5" cx="25.31" cy="70.93" rx="0.57" ry="0.52"/><ellipse class="b942bd1d-2839-45af-99bc-83a73b2d859a" cx="25.31" cy="70.93" rx="0.56" ry="0.51"/><ellipse class="b2cdd3ba-4c55-4e97-a649-d7c4f58c3ca1" cx="25.31" cy="70.93" rx="0.56" ry="0.51"/><ellipse class="a2a39fea-b37e-450c-a515-1fac9f1ffe5d" cx="25.31" cy="70.93" rx="0.55" ry="0.5"/><ellipse class="e04f40f6-8f61-437c-abe0-2dd2e50eca9a" cx="25.31" cy="70.93" rx="0.55" ry="0.5"/><ellipse class="a94c8ebe-953a-4e38-be79-5f6ea7335e27" cx="25.31" cy="70.93" rx="0.54" ry="0.5"/><ellipse class="b4cd373c-ae75-4094-bf88-d208b72d0b32" cx="25.31" cy="70.93" rx="0.54" ry="0.49"/><ellipse class="a51d4f64-fb35-42f7-93ad-46dfa3435308" cx="25.31" cy="70.93" rx="0.54" ry="0.49"/><ellipse class="ba67901e-1d42-42d3-b170-b7d1bdb10c5b" cx="25.31" cy="70.93" rx="0.53" ry="0.48"/><ellipse class="f599f94e-4af8-43c8-bb35-4822ceb77e86" cx="25.31" cy="70.93" rx="0.53" ry="0.48"/><ellipse class="b90fab88-840e-4224-9bbc-f6f36f8b1999" cx="25.31" cy="70.93" rx="0.52" ry="0.47"/><ellipse class="b70510ad-af5f-49ee-9bfc-131392ee11a2" cx="25.31" cy="70.93" rx="0.52" ry="0.47"/><ellipse class="f0b80b97-904f-4fa8-8d96-a460cffe4e22" cx="25.31" cy="70.93" rx="0.51" ry="0.47"/><ellipse class="fecf2736-516d-42ab-9a1b-9f3ac94d160d" cx="25.31" cy="70.93" rx="0.51" ry="0.46"/><ellipse class="e42be0e9-3808-4b68-bd29-f1738ab16956" cx="25.31" cy="70.93" rx="0.5" ry="0.46"/><ellipse class="fffdfd72-419e-40a7-ad53-68a5fc53bc46" cx="25.31" cy="70.93" rx="0.5" ry="0.45"/><ellipse class="b23c3f2f-1703-4153-8ee0-ee65b5dd5398" cx="25.31" cy="70.93" rx="0.49" ry="0.45"/><ellipse class="b90658d9-f699-4e7d-aae0-dbdc16c14658" cx="25.31" cy="70.93" rx="0.49" ry="0.44"/><ellipse class="a88d1d55-772b-4300-ab01-aef2e7e9d655" cx="25.31" cy="70.93" rx="0.48" ry="0.44"/><ellipse class="a32159e8-5da9-4801-9bfc-e051350a9893" cx="25.31" cy="70.93" rx="0.48" ry="0.44"/><ellipse class="ae0d5dd2-80e6-432c-9bc8-fd3285a25457" cx="25.31" cy="70.93" rx="0.47" ry="0.43"/><ellipse class="f47e4f23-2196-4bb3-80c9-6fc808d2a85a" cx="25.31" cy="70.93" rx="0.47" ry="0.43"/><ellipse class="e9327ea2-5f29-44ed-a939-05999df246a3" cx="25.31" cy="70.93" rx="0.47" ry="0.42"/><ellipse class="b4caff82-a544-49ce-8fe1-14e85241a50c" cx="25.31" cy="70.93" rx="0.46" ry="0.42"/><ellipse class="af286649-3d68-409f-9ee8-67b2647c8485" cx="25.31" cy="70.93" rx="0.46" ry="0.41"/><ellipse class="f837197f-41ab-45ec-aa96-151244363b57" cx="25.31" cy="70.93" rx="0.45" ry="0.41"/><ellipse class="b52822ab-2349-4d44-b082-13ce04f51589" cx="25.31" cy="70.93" rx="0.45" ry="0.41"/><ellipse class="e3aca5e7-5009-4794-9339-ee2e7826f6bb" cx="25.31" cy="70.93" rx="0.44" ry="0.4"/><ellipse class="b456b2cb-4579-4255-b498-d90d432dee31" cx="25.31" cy="70.93" rx="0.44" ry="0.4"/><ellipse class="f5bac9b7-8c5f-4863-bb4d-9344796328ad" cx="25.31" cy="70.93" rx="0.43" ry="0.39"/><ellipse class="a69315e7-59fa-4bb5-b085-4f74a6a23090" cx="25.31" cy="70.93" rx="0.43" ry="0.39"/><ellipse class="fac6f922-13ae-44f1-adf6-759f75440dff" cx="25.31" cy="70.93" rx="0.42" ry="0.38"/><ellipse class="f9551b2e-ee2f-4a96-a51a-267f24bca236" cx="25.31" cy="70.93" rx="0.42" ry="0.38"/><ellipse class="fea72067-c205-411b-9843-76032fb48722" cx="25.31" cy="70.93" rx="0.41" ry="0.38"/><ellipse class="aeb891fe-a024-4acc-8508-20b3df5d97a1" cx="25.31" cy="70.93" rx="0.41" ry="0.37"/><ellipse class="f7eac701-9d56-471b-9e0a-4a80a00c9bc0" cx="25.31" cy="70.93" rx="0.4" ry="0.37"/><ellipse class="bb382cde-db73-4278-870d-349460ae4065" cx="25.31" cy="70.93" rx="0.4" ry="0.36"/><ellipse class="b068bcd6-b65c-4433-9541-ff77e31ddd88" cx="25.31" cy="70.93" rx="0.39" ry="0.36"/><ellipse class="e7ddd04d-d66f-4be2-84b3-9937ba2caea6" cx="25.31" cy="70.93" rx="0.39" ry="0.36"/><ellipse class="b0dede44-5a8d-4900-ad94-22bad34d9049" cx="25.31" cy="70.93" rx="0.39" ry="0.35"/><ellipse class="bba8001c-ab3c-47a6-8f70-9cbc4efcf475" cx="25.31" cy="70.93" rx="0.38" ry="0.35"/><ellipse class="ee53fa01-82a7-4a2e-8272-70df3bf1879b" cx="25.31" cy="70.93" rx="0.38" ry="0.34"/><ellipse class="a75dce89-d5c8-4c79-9203-300ceebd2042" cx="25.31" cy="70.93" rx="0.37" ry="0.34"/><ellipse class="baa783a3-3173-42e3-b8dc-3a2ae834d590" cx="25.31" cy="70.93" rx="0.37" ry="0.33"/><ellipse class="aa8f1fba-c2f1-4e34-b736-d6d090df9e54" cx="25.31" cy="70.93" rx="0.36" ry="0.33"/><ellipse class="fa92246c-3d2d-46ef-b9bb-d7389f4cea8a" cx="25.31" cy="70.93" rx="0.36" ry="0.33"/><ellipse class="a4573181-2c1b-4fc7-bac8-f5a997931a62" cx="25.31" cy="70.93" rx="0.35" ry="0.32"/><ellipse class="fbe3f38a-8173-42f0-b11e-dbc9ff973ea5" cx="25.31" cy="70.93" rx="0.35" ry="0.32"/><ellipse class="e6aceb1c-a5f9-419a-96b2-a07fefaeb9cf" cx="25.31" cy="70.93" rx="0.34" ry="0.31"/><ellipse class="b8956b18-105d-41f6-831f-2b0e43777c16" cx="25.31" cy="70.93" rx="0.34" ry="0.31"/><ellipse class="ab431d7a-35a5-4908-a5e0-2c9c174269b7" cx="25.31" cy="70.93" rx="0.33" ry="0.3"/><ellipse class="b251f89f-6fff-41e7-b986-9423807560f8" cx="25.31" cy="70.93" rx="0.33" ry="0.3"/><ellipse class="b79e38b5-af0d-4317-8f56-e8988a48823c" cx="25.31" cy="70.93" rx="0.32" ry="0.3"/><ellipse class="ab30ea79-e0f3-4dac-8e15-4f11e87f0758" cx="25.31" cy="70.93" rx="0.32" ry="0.29"/><ellipse class="e5b87299-2d6a-4207-8a41-25b8151dc6a5" cx="25.31" cy="70.93" rx="0.31" ry="0.29"/><ellipse class="ec8c2c9e-2e5e-4952-a01b-59f0ce2a5157" cx="25.31" cy="70.93" rx="0.31" ry="0.28"/><ellipse class="e21c2f07-8da0-4095-954f-c1f763141251" cx="25.31" cy="70.93" rx="0.31" ry="0.28"/><ellipse class="fb436213-c6f3-45cc-9e6e-c31456d0297f" cx="25.31" cy="70.93" rx="0.3" ry="0.27"/><ellipse class="b7873502-62f3-4a65-9b67-a2abf33936da" cx="25.31" cy="70.93" rx="0.3" ry="0.27"/><ellipse class="ec2d36f8-4ab6-4b14-9342-c4d11b5cf7a7" cx="25.31" cy="70.93" rx="0.29" ry="0.27"/><ellipse class="a62e6bdc-c872-4b88-8622-9f5481b8053a" cx="25.31" cy="70.93" rx="0.29" ry="0.26"/><ellipse class="f6f5ded6-c60e-4a1a-a25f-8ba24e04f776" cx="25.31" cy="70.93" rx="0.28" ry="0.26"/><ellipse class="bb83255c-6340-4eb1-9165-a0777c4e1a49" cx="25.31" cy="70.93" rx="0.28" ry="0.25"/><ellipse class="b0bc63ab-5885-4bde-b7d7-62c4fbf21826" cx="25.31" cy="70.93" rx="0.27" ry="0.25"/><ellipse class="bcbafc15-8a93-4569-ae20-98541827d8cc" cx="25.31" cy="70.93" rx="0.27" ry="0.24"/><ellipse class="b1d2e682-4d1e-45bc-9970-5ec033d230c5" cx="25.31" cy="70.93" rx="0.26" ry="0.24"/><ellipse class="b288db49-bdae-4962-a168-514b2a683274" cx="25.31" cy="70.93" rx="0.26" ry="0.24"/><ellipse class="a0d99a24-3006-4ee6-a0a1-b947d5944341" cx="25.31" cy="70.93" rx="0.25" ry="0.23"/><ellipse class="bd7b6f6c-b024-428f-b066-05cb61a490de" cx="25.31" cy="70.93" rx="0.25" ry="0.23"/><ellipse class="e958f2b4-e10b-4a65-8bf3-1dd79fc7c63b" cx="25.31" cy="70.93" rx="0.24" ry="0.22"/><ellipse class="b4cce57f-90d1-4851-bc25-4ccad4c0ddda" cx="25.31" cy="70.93" rx="0.24" ry="0.22"/><ellipse class="b54df813-64a8-4fb5-b411-32a6012a90e9" cx="25.31" cy="70.93" rx="0.23" ry="0.21"/><ellipse class="a7c62c8c-2a9a-4512-bd1d-f62270603778" cx="25.31" cy="70.93" rx="0.23" ry="0.21"/><ellipse class="f95e0e87-eeff-455b-87c2-2d7933d69a64" cx="25.31" cy="70.93" rx="0.23" ry="0.21"/><ellipse class="b0ee75c6-d856-4569-95dc-919f08215a0e" cx="25.31" cy="70.93" rx="0.22" ry="0.2"/><ellipse class="a6b4dbbc-321f-4766-a07c-4900aa45e8f9" cx="25.31" cy="70.93" rx="0.22" ry="0.2"/><ellipse class="f0f90fec-15f6-4c4d-90f1-ab24ecaafa99" cx="25.31" cy="70.93" rx="0.21" ry="0.19"/><ellipse class="b1bc4646-ceea-4ca8-b106-fd8e18ce5505" cx="25.31" cy="70.93" rx="0.21" ry="0.19"/><ellipse class="ee0e1fa0-0d3f-4085-bc94-d59862a88cf0" cx="25.31" cy="70.93" rx="0.2" ry="0.18"/><ellipse class="ef47e2f6-cdbc-4db7-92eb-caa987c63ca9" cx="25.31" cy="70.93" rx="0.2" ry="0.18"/><ellipse class="aca5f5aa-d4d9-4976-9f80-8ed5f4a0cae5" cx="25.31" cy="70.93" rx="0.19" ry="0.18"/><ellipse class="a82f312c-af53-4510-b373-e12368f91d90" cx="25.31" cy="70.93" rx="0.19" ry="0.17"/><ellipse class="ad07be2d-829b-4af7-85eb-dba8c047083f" cx="25.31" cy="70.93" rx="0.18" ry="0.17"/><ellipse class="bfa89d98-5b29-47df-bb36-00d142f2d9d5" cx="25.31" cy="70.93" rx="0.18" ry="0.16"/><ellipse class="b89add2b-7a6b-46d5-819c-2fedf4e3de6b" cx="25.31" cy="70.93" rx="0.17" ry="0.16"/><ellipse class="b416c6ad-58dc-4e11-ac52-8f8767360c7d" cx="25.31" cy="70.93" rx="0.17" ry="0.15"/><ellipse class="b649226a-b0a3-4e12-b409-a33d01dc2daa" cx="25.31" cy="70.93" rx="0.16" ry="0.15"/><ellipse class="aba06f58-12d1-4866-849b-1120ec03124e" cx="25.31" cy="70.93" rx="0.16" ry="0.15"/><ellipse class="accf53e0-efe7-4aed-860a-cb0b6baaa883" cx="25.31" cy="70.93" rx="0.16" ry="0.14"/><ellipse class="ba6fcd47-8377-4c9d-ad3b-bc4af9a96f48" cx="25.31" cy="70.93" rx="0.15" ry="0.14"/><ellipse class="a00f1b54-1afd-43a0-85a5-d587cb1c7d23" cx="25.31" cy="70.93" rx="0.15" ry="0.13"/><ellipse class="a114ae41-1ac7-45b7-9a46-19b90655b8b5" cx="25.31" cy="70.93" rx="0.14" ry="0.13"/><ellipse class="f81d0483-0ad6-479d-b7e2-954313fc3ec9" cx="25.31" cy="70.93" rx="0.14" ry="0.12"/><ellipse class="b9a0a513-8c05-4f22-8e8b-815d6b038f15" cx="25.31" cy="70.93" rx="0.13" ry="0.12"/><ellipse class="bc6e95b4-80a6-4bb7-8b08-87dfb756727f" cx="25.31" cy="70.93" rx="0.13" ry="0.12"/><ellipse class="e399caa3-4fe7-4a88-8c22-e1282bbeb1f2" cx="25.31" cy="70.93" rx="0.12" ry="0.11"/><ellipse class="bddc4dad-dc20-49bd-b62f-05e73e1c9904" cx="25.31" cy="70.93" rx="0.12" ry="0.11"/><ellipse class="e92142db-0f1c-4611-af0c-ac152ae34a67" cx="25.31" cy="70.93" rx="0.11" ry="0.1"/><ellipse class="e8698ff3-a0ed-48e2-8c8a-b23a69658388" cx="25.31" cy="70.93" rx="0.11" ry="0.1"/><ellipse class="e7480870-5752-4cca-8861-8df9285ef51d" cx="25.31" cy="70.93" rx="0.1" ry="0.09"/><ellipse class="bcf087aa-c644-4d1a-8ac0-d112a54ee316" cx="25.31" cy="70.93" rx="0.1" ry="0.09"/><ellipse class="a4e86732-c49c-4550-9463-9104abd8bc78" cx="25.31" cy="70.93" rx="0.09" ry="0.09"/><ellipse class="bdf779b5-654f-47cc-a624-1c438f9a026d" cx="25.31" cy="70.93" rx="0.09" ry="0.08"/><ellipse class="be14fe6e-78a7-4576-a1da-9d2ce7206d9f" cx="25.31" cy="70.93" rx="0.08" ry="0.08"/><ellipse class="bb997bd0-d3fa-4484-bcb2-9d5c62a21550" cx="25.31" cy="70.93" rx="0.08" ry="0.07"/><ellipse class="aa02e037-cf92-426d-a95e-7b5f0cafbd61" cx="25.31" cy="70.93" rx="0.08" ry="0.07"/><ellipse class="b4e5aecc-c04f-442e-b541-493573799ca0" cx="25.31" cy="70.93" rx="0.07" ry="0.06"/><ellipse class="b872ab4f-7a95-4117-9f6d-8d9df624ed0f" cx="25.31" cy="70.93" rx="0.07" ry="0.06"/><ellipse class="f33ac469-12db-48f3-9d91-4fe417c2eebd" cx="25.31" cy="70.93" rx="0.06" ry="0.06"/><ellipse class="e23c9faf-7b47-4029-ac4a-08457d3e6e51" cx="25.31" cy="70.93" rx="0.06" ry="0.05"/><ellipse class="a594d303-980c-4ef8-a78a-62fe3394ddc9" cx="25.31" cy="70.93" rx="0.05" ry="0.05"/><ellipse class="a79473e7-13fa-43af-80cc-66ded2b94b6f" cx="25.31" cy="70.93" rx="0.05" ry="0.04"/><circle class="aee2b0c8-4d1b-43cb-a715-d648c13e5257" cx="25.31" cy="70.93" r="0.04"/><path class="b9261948-5f0f-42ba-91e5-06a301732980" d="M25.35,70.93s0,0,0,0,0,0,0,0a0,0,0,1,0,.08,0Z"/><circle class="b7d1174b-886c-4f79-8d4b-6a46aa32813d" cx="25.31" cy="70.93" r="0.03"/><path class="b4927215-196e-47d8-9512-5aaaf40710e7" d="M25.34,70.93s0,0,0,0,0,0,0,0a0,0,0,1,0,.06,0Z"/><path class="b7971a34-8212-4454-8e38-a3012b19f93e" d="M25.33,70.93a0,0,0,0,0,0,0,0,0,0,0,0,0,0l0,0A0,0,0,0,0,25.33,70.93Z"/><path class="acdf353a-33b2-480d-914d-3d08da998d4f" d="M25.33,70.93a0,0,0,0,0,0,0,0,0,0,0,0,0,0l0,0A0,0,0,0,0,25.33,70.93Z"/><path class="a6e08729-a2da-4a24-bb8c-ef49fbcb82ca" d="M25.32,70.93s0,0,0,0,0,0,0,0h0Z"/><path class="ff063a85-ebb2-497d-ac2a-705beb220454" d="M25.32,70.93a0,0,0,0,0,0,0h0Z"/><polygon class="ef9b2ffa-2286-44a1-a2db-76c22596b5f2" points="25.32 70.93 25.31 70.93 25.31 70.93 25.31 70.94 25.32 70.93"/></g><path d="M26.51,71.18a.63.63,0,0,1-.66-.59h0a.63.63,0,0,1,.66-.6.6.6,0,1,1,0,1.19ZM26,70.59a.53.53,0,0,0,.56.49.53.53,0,0,0,.55-.49.52.52,0,0,0-.55-.5A.53.53,0,0,0,26,70.59Z"/></g></g></g><g id="aece5ae2-b38c-4999-afed-f2e12190a33b" data-name="nariz"><path class="aa90141a-8301-4b60-ac40-2df66e4cce46" d="M28.8,69.9a3,3,0,0,1,.05-1,5.34,5.34,0,0,1,.48-.87s.42.7.5.88a4.69,4.69,0,0,1,.27,1c0,.07-.48.59-.74.57S28.84,70,28.8,69.9Z"/><path d="M29.36,70.47c.26,0,.65-.55.66-.59l.16.05c0,.1-.56.56-.82.54Z"/><path d="M30,69.88a6.65,6.65,0,0,0-.27-.89l.16-.07a4.49,4.49,0,0,1,.27,1Z"/><polygon points="30.17 69.98 30 69.93 30.03 69.83 30.2 69.88 30.17 69.98"/><path d="M29.74,69c-.07-.17-.42-.91-.42-.91h0a8.43,8.43,0,0,1,.58.85Z"/><polygon points="29.76 69.04 29.72 68.94 29.88 68.87 29.92 68.97 29.76 69.04"/></g><g id="e97b51d0-163d-4729-a509-394f7da0bfca" data-name="cejas"><path d="M30.63,72.54s1,.17,1.39.19V73a7.8,7.8,0,0,1-1.4-.34Z"/><path d="M32,72.73c.36,0,1.25-.07,1.25-.07v.11A7.74,7.74,0,0,1,32,73Z"/><polygon points="32.06 72.96 31.96 72.96 31.97 72.72 32.07 72.73 32.06 72.96"/><path d="M25.24,72.66s1,.07,1.35.06v.22a8.42,8.42,0,0,1-1.37-.2Z"/><path d="M26.59,72.72c.43,0,1.47-.2,1.47-.2l0,.11a9.7,9.7,0,0,1-1.48.31Z"/><rect x="26.54" y="72.72" width="0.1" height="0.22" transform="translate(-3.49 1.37) rotate(-2.77)"/></g><g id="e901c59b-ec8f-4219-bacb-a645c13a3d01" data-name="pelo int"><path class="bdb137bc-2bbe-4f57-8827-422fcf9870d0" d="M26.13,78V76.34a1.76,1.76,0,0,1-1-.27c-.73-.55-.72-1.87-.92-2.91a24.36,24.36,0,0,1-.19-3,13.57,13.57,0,0,0-.33-1.91,8.85,8.85,0,0,1,.07-3,27.43,27.43,0,0,0-3,2.41c-.23.24-.4.37-.36.79a25,25,0,0,1,0,2.74l.3.66a13.22,13.22,0,0,1,1,1.68c.16.26.37.49.52.76a5.48,5.48,0,0,1,.44,1.07l.1.27a6.32,6.32,0,0,1,1,1.13q.12.17.24.36c.43.19.85.37,1.26.58l.1,0C25.65,77.87,25.89,77.93,26.13,78Z"/><path d="M26.13,78.07h0a4.16,4.16,0,0,0-.5-.16l-.21-.06,0,0a.05.05,0,0,1,0,0l-.89-.4L24,77.23s0,0,0,0-.16-.25-.24-.36a7,7,0,0,0-1-1.13,0,0,0,0,1,0,0,1.12,1.12,0,0,0-.05-.13s0-.08-.05-.13v0a5.75,5.75,0,0,0-.42-1A4,4,0,0,0,22,74a4,4,0,0,1-.23-.34c-.09-.15-.18-.32-.28-.5a8.36,8.36,0,0,0-.72-1.17l-.16-.34c-.05-.11-.1-.21-.15-.33v-.4a23.24,23.24,0,0,0-.05-2.36.81.81,0,0,1,.31-.76l.06-.07a30.65,30.65,0,0,1,3.05-2.42h0a.08.08,0,0,1,0,.06c0,.16,0,.36-.06.57a6.05,6.05,0,0,0,0,2.4A11.86,11.86,0,0,1,24.08,70c0,.1,0,.18,0,.2a2.57,2.57,0,0,1,0,.36,19,19,0,0,0,.18,2.59c.05.23.08.48.11.72A3.24,3.24,0,0,0,25.19,76a1.72,1.72,0,0,0,.94.26.05.05,0,0,1,.05,0V78a.05.05,0,0,1,0,0Zm-2-.93.36.16.89.41,0,0,0,0,.21.06a3.73,3.73,0,0,1,.44.14V76.39a1.78,1.78,0,0,1-.95-.28,3.26,3.26,0,0,1-.83-2.22c0-.24-.06-.49-.11-.72A19.31,19.31,0,0,1,24,70.56a2.48,2.48,0,0,0,0-.34s0-.08,0-.2a9.81,9.81,0,0,0-.3-1.7,6.31,6.31,0,0,1,0-2.45c0-.18,0-.35.05-.5-.4.22-2.62,2.09-2.91,2.38l-.07.07a.7.7,0,0,0-.28.68,20.88,20.88,0,0,1,.05,2.37v.37l.14.32c.05.11.1.22.16.33a7.44,7.44,0,0,1,.72,1.18c.09.17.18.34.27.49a4,4,0,0,0,.24.33,4.78,4.78,0,0,1,.29.44,4.72,4.72,0,0,1,.42,1l0,0a1.12,1.12,0,0,0,0,.13l0,.12a6.56,6.56,0,0,1,1,1.13Z"/></g><g id="a4c53e5c-ef08-4c18-8f79-a4894a231a17" data-name="oreja Izq"><path class="aa90141a-8301-4b60-ac40-2df66e4cce46" d="M24.16,68a1.18,1.18,0,0,0-.62-.22,1.12,1.12,0,0,0-.76.24,1.13,1.13,0,0,0,.32,1.4.83.83,0,0,0,.64,0,1.23,1.23,0,0,0,.5-.51A1.46,1.46,0,0,0,24.16,68Z"/><path d="M24.26,68.88a1.51,1.51,0,0,1-.5.57l-.05-.13a1.17,1.17,0,0,0,.5-.46Z"/><path d="M23.76,69.45a1.11,1.11,0,0,1-.7,0l.06-.12a.86.86,0,0,0,.59,0Z"/><polygon points="23.71 69.47 23.66 69.34 23.75 69.3 23.81 69.43 23.71 69.47"/><path d="M23.07,69.48a1.19,1.19,0,0,1-.44-.7l.13,0a.94.94,0,0,0,.37.6Z"/><rect x="23.04" y="69.36" width="0.13" height="0.1" transform="translate(-48.79 55.9) rotate(-60.95)"/><path d="M22.62,68.78a1.09,1.09,0,0,1,.11-.81l.1.08a.92.92,0,0,0-.08.7Z"/><polygon points="22.63 68.83 22.61 68.73 22.74 68.7 22.76 68.8 22.63 68.83"/><path d="M22.73,68a1.15,1.15,0,0,1,.81-.26v.13a1,1,0,0,0-.71.21Z"/><polygon points="22.8 68.09 22.7 68.01 22.76 67.93 22.86 68.01 22.8 68.09"/><path d="M23.54,67.71a1.14,1.14,0,0,1,.64.27l0,0a1,1,0,0,0-.6-.18Z"/><rect x="23.49" y="67.7" width="0.1" height="0.13"/></g></g><g id="b641497f-1f16-4bed-b3dc-9a8664cc1c09" data-name="mechon"><path class="bdb137bc-2bbe-4f57-8827-422fcf9870d0" d="M32.47,77.83a2.36,2.36,0,0,1-.37,1.09,5.21,5.21,0,0,1-2.93,1.92,8.88,8.88,0,0,1-5.82-1.27,10.81,10.81,0,0,1-4.12-5.22,11.45,11.45,0,0,1-.13-5.73,10.34,10.34,0,0,1,2.16-4.85,7,7,0,0,1,1.67-1.14A11,11,0,0,0,22.39,65a10.67,10.67,0,0,0,.63,3.8,12.77,12.77,0,0,0,2.25,4.07,10.7,10.7,0,0,0,4.11,2.7c1.22.51,2.66.34,2.92.66A3.86,3.86,0,0,1,32.47,77.83Z"/><path d="M28,81a9.59,9.59,0,0,1-4.71-1.38,10.85,10.85,0,0,1-4.14-5.25,11.67,11.67,0,0,1-.14-5.76,10,10,0,0,1,2.18-4.87,7,7,0,0,1,1.68-1.16,0,0,0,0,1,.05,0s0,0,0,0A10.84,10.84,0,0,0,22.44,65a10.68,10.68,0,0,0,.63,3.78,12.63,12.63,0,0,0,2.24,4.05,10.74,10.74,0,0,0,4.09,2.7,7,7,0,0,0,1.9.4c.53.06.91.1,1,.27a3.6,3.6,0,0,1,.18,1.67h0A2.27,2.27,0,0,1,32.14,79a5.24,5.24,0,0,1-3,1.94A6,6,0,0,1,28,81Zm-5.2-18.27A6.64,6.64,0,0,0,21.3,63.8a10.11,10.11,0,0,0-2.15,4.83,11.69,11.69,0,0,0,.13,5.71,10.68,10.68,0,0,0,4.1,5.19,8.78,8.78,0,0,0,5.78,1.26,5.11,5.11,0,0,0,2.9-1.9,2.45,2.45,0,0,0,.37-1.07h0a4,4,0,0,0-.17-1.6,2,2,0,0,0-1-.23,6.89,6.89,0,0,1-1.93-.41,10.9,10.9,0,0,1-4.12-2.72A13,13,0,0,1,23,68.77,11,11,0,0,1,22.33,65,10.44,10.44,0,0,1,22.84,62.73Z"/></g><circle class="ba6a8d72-e3c3-4653-b156-82c3561f5e50" cx="26.37" cy="70.56" r="0.6"/><path d="M26.37,71.2a.65.65,0,1,1,.65-.64A.64.64,0,0,1,26.37,71.2Zm0-1.19a.55.55,0,0,0-.54.55.55.55,0,0,0,1.09,0A.55.55,0,0,0,26.37,70Z"/><circle class="ba6a8d72-e3c3-4653-b156-82c3561f5e50" cx="31.47" cy="70.56" r="0.6"/><path d="M31.47,71.2a.65.65,0,1,1,.65-.64A.64.64,0,0,1,31.47,71.2Zm0-1.19a.55.55,0,0,0-.54.55.55.55,0,0,0,1.09,0A.55.55,0,0,0,31.47,70Z"/><path class="b01e3b49-3ed3-4d98-b8a9-49b2ef8a3a34" d="M17.79,76.56l-2.86,4.67a.93.93,0,0,0,.22,1.21c1.49,1.13,5.13,3.81,6.24,3.94s13-2.83,16.73-3.77a.91.91,0,0,0,.55-1.31l-2.74-5.21Z"/><path class="b4a5ed4f-b33a-4784-a397-06c0feb4b280" d="M35.51,83.26s-1.61-6.73-2.1-7.2-3.19.63-3.19.63,1.91,2.2,2.61,7.24Z"/><path class="e1c5ca91-4848-44b6-9945-2628d1e0a477" d="M34.86,74.27s-4.71,3.47-15.52.38l-1.55,1.91s7.6,3.67,18.14-.47Z"/><path class="fa70ad08-e5b9-43a8-a788-7e064a8aa372" d="M21.93,47.84l1-.17C20.6,42,15.12,32.7,13.72,32l-.84.85S17.14,38,21.93,47.84Z"/><rect class="aba3e049-aef4-433a-ab18-ee8109fa921f" x="27.72" y="56.19" width="2.59" height="4.75"/><polygon class="aba3e049-aef4-433a-ab18-ee8109fa921f" points="25.12 61.55 25.12 57.83 22.54 57.83 22.54 61.78 25.12 61.55"/><path class="b01e3b49-3ed3-4d98-b8a9-49b2ef8a3a34" d="M30.23,61.67a13.07,13.07,0,0,1,2.69,1.16V58.08H30.23Z"/><rect class="b01e3b49-3ed3-4d98-b8a9-49b2ef8a3a34" x="25.08" y="56.53" width="2.64" height="4.75"/><polygon class="aba3e049-aef4-433a-ab18-ee8109fa921f" points="32.83 62.78 35.43 64.21 35.42 59.51 32.83 59.51 32.83 62.78"/><polygon class="b01e3b49-3ed3-4d98-b8a9-49b2ef8a3a34" points="35.42 64.22 35.66 64.36 36.55 64.74 38.03 61.4 35.42 61.4 35.42 64.22"/><rect class="a511e8c4-8d60-4534-9722-747be15dc617" x="27.9" y="50.33" width="4.11" height="4.55"/><polygon class="a0161618-888b-4aeb-aa27-75a2d2111970" points="31.83 50.52 27.9 50.52 27.9 46.4 31.83 50.52"/><rect class="a0161618-888b-4aeb-aa27-75a2d2111970" x="27.83" y="50.87" width="4.15" height="3.38"/><polygon class="a0161618-888b-4aeb-aa27-75a2d2111970" points="31.97 54.55 27.9 54.55 27.9 55.65 31.97 58.12 31.97 54.55"/><path class="b01e3b49-3ed3-4d98-b8a9-49b2ef8a3a34" d="M27.1,46l.16,9.57-3.37,1.91s-.67-7.93-1.47-9.35S27.1,46,27.1,46Z"/><polygon class="ea2f6e59-a228-4636-88ee-af0b025d3837" points="27.04 45.97 28.05 46.47 28.05 56.27 27.04 56.27 27.04 45.97"/><polygon class="aba3e049-aef4-433a-ab18-ee8109fa921f" points="26.72 45.6 27.72 46.09 27.72 55.89 26.72 55.89 26.72 45.6"/><path class="aba3e049-aef4-433a-ab18-ee8109fa921f" d="M20.16,42.27a27.09,27.09,0,0,0,1.35,2.48A13.73,13.73,0,0,1,22.92,49H23a4.93,4.93,0,0,0,4.57-3.1,4,4,0,0,0-.49-.52c-.35-.29-.75-.52-1.11-.79a21.11,21.11,0,0,0-2.52-2.12,16.59,16.59,0,0,0-2.3-.95,8.67,8.67,0,0,0-1-.33l-.32.05C19.92,41.57,20,41.93,20.16,42.27Z"/><path class="a0161618-888b-4aeb-aa27-75a2d2111970" d="M20.16,42.27a27.09,27.09,0,0,0,1.35,2.48,13.85,13.85,0,0,1,1.34,3.83H23a4.54,4.54,0,0,0,4.28-3l-.2-.19c-.35-.29-.75-.52-1.11-.79a21.11,21.11,0,0,0-2.52-2.12,16.59,16.59,0,0,0-2.3-.95,8.67,8.67,0,0,0-1-.33l-.32.05C19.92,41.57,20,41.93,20.16,42.27Z"/><path class="a511e8c4-8d60-4534-9722-747be15dc617" d="M21.51,44.75a16,16,0,0,1,.73,1.64,2.55,2.55,0,0,0,.74.11,2.45,2.45,0,0,0,2.45-2.38,10.37,10.37,0,0,0-2-1.68A12.36,12.36,0,0,0,22,41.8a2.47,2.47,0,0,0-1.34,1.46C20.94,43.76,21.25,44.25,21.51,44.75Z"/><polygon class="b01e3b49-3ed3-4d98-b8a9-49b2ef8a3a34" points="36.86 53.73 32.83 51.41 32.63 58.9 36.86 61.23 36.86 53.73"/><rect class="ea2f6e59-a228-4636-88ee-af0b025d3837" x="31.83" y="50.98" width="1" height="7.59"/><path class="e0913c98-2640-4360-ac28-643403f21e5c" d="M40.69,63.51a11.5,11.5,0,0,1-3.52,1.23L37,53.87a15.64,15.64,0,0,0,4,1Z"/><polygon class="afc4ee04-66a8-49ac-abd0-87af8b5cbf43" points="40.69 63.51 41.31 63.28 41.31 54.91 40.69 54.91 40.69 63.51"/><path class="aba3e049-aef4-433a-ab18-ee8109fa921f" d="M41.31,63.28a8,8,0,0,0,1.33-.7V55H41.31Z"/><path class="b01e3b49-3ed3-4d98-b8a9-49b2ef8a3a34" d="M42.64,62.58a15.75,15.75,0,0,0,5.59-4V55H42.64Z"/><rect class="aba3e049-aef4-433a-ab18-ee8109fa921f" x="32.2" y="51.32" width="1" height="7.59"/><rect class="afc4ee04-66a8-49ac-abd0-87af8b5cbf43" x="36.54" y="54.08" width="0.62" height="10.66"/><path class="fa70ad08-e5b9-43a8-a788-7e064a8aa372" d="M20.6,41a4.1,4.1,0,0,1,1.49.31c2,.77,4.53,2.9,7.4,6.32,3.47,4.12,6.88,5.76,9.12,6.4a18.18,18.18,0,0,0,5.21.57l.42.68a20.64,20.64,0,0,1-5.77-.58A19.61,19.61,0,0,1,29,48.1C22.51,40.41,20,41.81,20,41.82l-.38-.56A1.7,1.7,0,0,1,20.6,41Z"/><path class="ea2f6e59-a228-4636-88ee-af0b025d3837" d="M36.54,61.67s-8.32-5.44-9.11-5.44S24.16,58,24.16,58L24.1,57a27.58,27.58,0,0,1,3.4-2c.37,0,9,5.62,9,5.62Z"/><path class="a0161618-888b-4aeb-aa27-75a2d2111970" d="M35.66,64.36s-7.09-5.27-8.08-5.27-3.76,2.67-3.76,2.67a23.3,23.3,0,0,1,5.41-.36C31.11,61.67,35.66,64.36,35.66,64.36Z"/><path class="a0161618-888b-4aeb-aa27-75a2d2111970" d="M36.54,62.33s-8.32-5.53-9.11-5.53-3.23,1.89-3.23,1.89l-.05-.9a27,27,0,0,1,3.35-1.9c.37,0,9,5.45,9,5.45Z"/><path class="b01e3b49-3ed3-4d98-b8a9-49b2ef8a3a34" d="M12.88,38.24V58.35a11.41,11.41,0,0,0,7.6,3.7S20.58,41.68,12.88,38.24Z"/><path class="aba3e049-aef4-433a-ab18-ee8109fa921f" d="M19.79,62s.9-13.3-6.91-23.73c0-.92,0-1.39,0-1.39s4.6,2.16,7.22,11.28S21.54,62,21.54,62l-1.06.08Z"/><path class="b4a5ed4f-b33a-4784-a397-06c0feb4b280" d="M21,62s.24-9.09-1.92-14.34-3.66-8.82-6.18-10.79v-4s7.1,6.87,9.43,14.6a45,45,0,0,1,1.9,14.26Z"/><path class="b01e3b49-3ed3-4d98-b8a9-49b2ef8a3a34" d="M21,60.6c0-.32.62-.62,1.43-.66s1.47.18,1.48.5-.62.62-1.42.66S21,60.92,21,60.6Z"/><path class="b01e3b49-3ed3-4d98-b8a9-49b2ef8a3a34" d="M21,59.09c0-.31.57-.64,1.36-.72s1.45.1,1.48.42-.58.63-1.36.72S21,59.41,21,59.09Z"/><path class="b01e3b49-3ed3-4d98-b8a9-49b2ef8a3a34" d="M20.92,57.42c-.05-.3.53-.66,1.3-.78s1.43,0,1.48.32-.53.66-1.3.79S21,57.73,20.92,57.42Z"/><path class="b01e3b49-3ed3-4d98-b8a9-49b2ef8a3a34" d="M20.75,55.62c-.06-.3.49-.68,1.24-.85s1.41-.07,1.48.23-.49.68-1.24.85S20.82,55.92,20.75,55.62Z"/><path class="b01e3b49-3ed3-4d98-b8a9-49b2ef8a3a34" d="M20.49,53.71c-.08-.29.44-.7,1.17-.91s1.4-.15,1.48.14-.44.7-1.17.91S20.58,54,20.49,53.71Z"/><path class="b01e3b49-3ed3-4d98-b8a9-49b2ef8a3a34" d="M20.12,51.73c-.1-.29.4-.72,1.11-1s1.38-.23,1.48.06-.4.72-1.11,1S20.23,52,20.12,51.73Z"/><path class="b01e3b49-3ed3-4d98-b8a9-49b2ef8a3a34" d="M19.65,49.71c-.12-.28.35-.75,1-1s1.36-.31,1.48,0-.35.75-1.05,1S19.77,50,19.65,49.71Z"/><path class="b01e3b49-3ed3-4d98-b8a9-49b2ef8a3a34" d="M19.06,47.67c-.13-.27.31-.76,1-1.1s1.34-.4,1.48-.12-.31.76-1,1.1S19.2,47.94,19.06,47.67Z"/><path class="b01e3b49-3ed3-4d98-b8a9-49b2ef8a3a34" d="M18.36,45.66c-.15-.26.26-.79.92-1.17s1.32-.47,1.47-.21-.26.79-.92,1.17S18.51,45.92,18.36,45.66Z"/><path class="b01e3b49-3ed3-4d98-b8a9-49b2ef8a3a34" d="M17.54,43.7c-.17-.26.21-.81.85-1.23s1.3-.56,1.47-.31S19.65,43,19,43.4,17.71,44,17.54,43.7Z"/><path class="b01e3b49-3ed3-4d98-b8a9-49b2ef8a3a34" d="M16.59,41.82c-.18-.25.17-.83.79-1.3s1.28-.64,1.47-.39-.17.83-.79,1.3S16.78,42.07,16.59,41.82Z"/><path class="b01e3b49-3ed3-4d98-b8a9-49b2ef8a3a34" d="M15.52,40.05c-.21-.24.12-.85.73-1.36s1.26-.72,1.46-.48-.12.85-.73,1.36S15.72,40.29,15.52,40.05Z"/><path class="b01e3b49-3ed3-4d98-b8a9-49b2ef8a3a34" d="M14.31,38.43c-.22-.23.08-.87.67-1.42s1.24-.81,1.46-.57-.08.87-.67,1.42S14.53,38.67,14.31,38.43Z"/><path class="b01e3b49-3ed3-4d98-b8a9-49b2ef8a3a34" d="M13,37c-.24-.22,0-.89.6-1.48s1.22-.89,1.46-.66,0,.89-.6,1.48S13.2,37.21,13,37Z"/><path class="aa90141a-8301-4b60-ac40-2df66e4cce46" d="M33,30.91s-.07-2.05-.09-2.1-1.24-.54-1.29.25c0,.08.07,1.84.07,1.92"/><path d="M31.76,31h-.08s0-.25,0-.53c0-.73-.05-1.34-.05-1.39a.48.48,0,0,1,.42-.47,1.52,1.52,0,0,1,.94.21s.14,2.05.09,2.13v0h0v0h0c0-.1-.06-1.92-.08-2.07a1.56,1.56,0,0,0-1-.14.4.4,0,0,0-.24.37c0,.06,0,.89.05,1.39C31.75,30.74,31.76,31,31.76,31Z"/><path class="fa70ad08-e5b9-43a8-a788-7e064a8aa372" d="M39.18,43.62c-.33.07-.66.12-1,.17,2.31,5.63,7.79,15,9.2,15.65l.84-.85S44,53.52,39.18,43.62Z"/><rect class="aba3e049-aef4-433a-ab18-ee8109fa921f" x="30.8" y="30.52" width="2.59" height="4.75"/><polygon class="aba3e049-aef4-433a-ab18-ee8109fa921f" points="35.98 29.91 35.98 33.63 38.57 33.63 38.57 29.68 35.98 29.91"/><path class="b01e3b49-3ed3-4d98-b8a9-49b2ef8a3a34" d="M30.87,29.8a13.09,13.09,0,0,1-2.68-1.17v4.75h2.68Z"/><rect class="b01e3b49-3ed3-4d98-b8a9-49b2ef8a3a34" x="33.38" y="30.18" width="2.64" height="4.75"/><polygon class="aba3e049-aef4-433a-ab18-ee8109fa921f" points="28.27 28.68 25.68 27.25 25.68 31.95 28.27 31.95 28.27 28.68"/><polygon class="b01e3b49-3ed3-4d98-b8a9-49b2ef8a3a34" points="25.68 27.25 25.45 27.1 24.56 26.72 23.08 30.06 25.68 30.06 25.68 27.25"/><rect class="a511e8c4-8d60-4534-9722-747be15dc617" x="29.1" y="36.58" width="4.11" height="4.55"/><polygon class="a0161618-888b-4aeb-aa27-75a2d2111970" points="29.27 40.94 33.21 40.94 33.21 45.07 29.27 40.94"/><rect class="a0161618-888b-4aeb-aa27-75a2d2111970" x="29.13" y="37.21" width="4.15" height="3.38"/><polygon class="a0161618-888b-4aeb-aa27-75a2d2111970" points="29.13 36.92 33.21 36.92 33.21 35.81 29.13 33.35 29.13 36.92"/><path class="b01e3b49-3ed3-4d98-b8a9-49b2ef8a3a34" d="M34,45.46l-.15-9.57L37.22,34s.66,7.93,1.47,9.35S34,45.46,34,45.46Z"/><polygon class="ea2f6e59-a228-4636-88ee-af0b025d3837" points="34.06 45.49 33.06 44.99 33.06 35.2 34.06 35.2 34.06 45.49"/><polygon class="aba3e049-aef4-433a-ab18-ee8109fa921f" points="34.39 45.87 33.38 45.37 33.38 35.57 34.39 35.57 34.39 45.87"/><path class="aba3e049-aef4-433a-ab18-ee8109fa921f" d="M40.94,49.19a26.83,26.83,0,0,0-1.34-2.47,13.64,13.64,0,0,1-1.41-4.22h-.06a4.91,4.91,0,0,0-4.57,3.11,4.67,4.67,0,0,0,.49.51c.34.29.75.52,1.11.79A21,21,0,0,0,37.67,49,17.67,17.67,0,0,0,40,50a9.49,9.49,0,0,0,1,.33l.32,0C41.19,49.89,41.08,49.53,40.94,49.19Z"/><path class="a0161618-888b-4aeb-aa27-75a2d2111970" d="M40.94,49.19a26.83,26.83,0,0,0-1.34-2.47,14,14,0,0,1-1.35-3.83h-.12a4.54,4.54,0,0,0-4.28,3l.2.19c.34.29.75.52,1.11.79A21,21,0,0,0,37.67,49,17.67,17.67,0,0,0,40,50a9.49,9.49,0,0,0,1,.33l.32,0C41.19,49.89,41.08,49.53,40.94,49.19Z"/><path class="a511e8c4-8d60-4534-9722-747be15dc617" d="M39.6,46.72a15.06,15.06,0,0,1-.73-1.65,2.65,2.65,0,0,0-.74-.11,2.46,2.46,0,0,0-2.46,2.38,11,11,0,0,0,2,1.68,13.31,13.31,0,0,0,1.45.64,2.46,2.46,0,0,0,1.33-1.46C40.17,47.7,39.86,47.21,39.6,46.72Z"/><polygon class="b01e3b49-3ed3-4d98-b8a9-49b2ef8a3a34" points="24.25 37.73 28.27 40.05 28.48 32.56 24.25 30.23 24.25 37.73"/><rect class="ea2f6e59-a228-4636-88ee-af0b025d3837" x="28.27" y="32.89" width="1" height="7.59"/><path class="e0913c98-2640-4360-ac28-643403f21e5c" d="M20.42,28a11.5,11.5,0,0,1,3.52-1.23l.21,10.87a16.1,16.1,0,0,0-4-1Z"/><polygon class="afc4ee04-66a8-49ac-abd0-87af8b5cbf43" points="20.42 27.95 19.8 28.18 19.8 36.55 20.42 36.55 20.42 27.95"/><path class="aba3e049-aef4-433a-ab18-ee8109fa921f" d="M19.79,28.18a8.08,8.08,0,0,0-1.32.7v7.55h1.32Z"/><path class="b01e3b49-3ed3-4d98-b8a9-49b2ef8a3a34" d="M18.47,28.88a15.75,15.75,0,0,0-5.59,4v3.58h5.59Z"/><rect class="aba3e049-aef4-433a-ab18-ee8109fa921f" x="27.9" y="32.56" width="1" height="7.59"/><rect class="afc4ee04-66a8-49ac-abd0-87af8b5cbf43" x="23.94" y="26.72" width="0.62" height="10.66"/><path class="fa70ad08-e5b9-43a8-a788-7e064a8aa372" d="M40.5,50.43A4.1,4.1,0,0,1,39,50.12c-2-.77-4.53-2.89-7.41-6.31a18.91,18.91,0,0,0-9.12-6.41,18.57,18.57,0,0,0-5.21-.57l-.42-.67a20.49,20.49,0,0,1,5.78.57c2.35.67,5.9,2.37,9.49,6.64,6.47,7.68,8.93,6.28,9,6.27l.38.56A1.69,1.69,0,0,1,40.5,50.43Z"/><path class="ea2f6e59-a228-4636-88ee-af0b025d3837" d="M24.56,29.8s8.33,5.43,9.12,5.43,3.26-1.73,3.26-1.73l.07.94a27.61,27.61,0,0,1-3.4,2c-.37,0-9-5.62-9-5.62Z"/><path class="a0161618-888b-4aeb-aa27-75a2d2111970" d="M25.45,27.1s7.08,5.27,8.08,5.27,3.76-2.67,3.76-2.67a23.4,23.4,0,0,1-5.42.36C30,29.8,25.45,27.1,25.45,27.1Z"/><path class="a0161618-888b-4aeb-aa27-75a2d2111970" d="M24.56,29.14s8.33,5.52,9.12,5.52,3.22-1.89,3.22-1.89l.05.9a26.83,26.83,0,0,1-3.34,1.9c-.37,0-9-5.45-9-5.45Z"/><path class="b01e3b49-3ed3-4d98-b8a9-49b2ef8a3a34" d="M48.23,53.22V33.11a11.39,11.39,0,0,0-7.61-3.69S40.53,49.78,48.23,53.22Z"/><path class="aba3e049-aef4-433a-ab18-ee8109fa921f" d="M41.32,29.49s-.91,13.31,6.91,23.73c0,.92,0,1.39,0,1.39S43.61,52.45,41,43.33s-1.43-13.84-1.43-13.84l1-.07Z"/><path class="b4a5ed4f-b33a-4784-a397-06c0feb4b280" d="M40.12,29.45S39.88,38.54,42,43.79s3.67,8.82,6.19,10.8v4S41.13,51.73,38.8,44a44.83,44.83,0,0,1-1.91-14.26Z"/><path class="b01e3b49-3ed3-4d98-b8a9-49b2ef8a3a34" d="M40.14,30.86c0,.33-.62.62-1.42.66s-1.47-.18-1.49-.5.62-.62,1.43-.66S40.13,30.54,40.14,30.86Z"/><path class="b01e3b49-3ed3-4d98-b8a9-49b2ef8a3a34" d="M40.12,32.37c0,.31-.57.64-1.36.72s-1.45-.1-1.48-.41.57-.64,1.36-.73S40.09,32.05,40.12,32.37Z"/><path class="b01e3b49-3ed3-4d98-b8a9-49b2ef8a3a34" d="M40.19,34c.05.31-.53.66-1.3.79s-1.43,0-1.48-.33.53-.66,1.3-.79S40.14,33.73,40.19,34Z"/><path class="b01e3b49-3ed3-4d98-b8a9-49b2ef8a3a34" d="M40.35,35.84c.07.3-.48.68-1.23.85s-1.41.07-1.48-.23.48-.68,1.23-.85S40.29,35.55,40.35,35.84Z"/><path class="b01e3b49-3ed3-4d98-b8a9-49b2ef8a3a34" d="M40.62,37.75c.08.29-.44.7-1.18.92s-1.39.14-1.47-.15.44-.7,1.17-.91S40.53,37.46,40.62,37.75Z"/><path class="b01e3b49-3ed3-4d98-b8a9-49b2ef8a3a34" d="M41,39.73c.1.29-.39.73-1.11,1s-1.37.23-1.47-.06.39-.72,1.11-1S40.88,39.45,41,39.73Z"/><path class="b01e3b49-3ed3-4d98-b8a9-49b2ef8a3a34" d="M41.46,41.76c.12.27-.35.74-1.05,1s-1.35.31-1.47,0,.35-.74,1-1S41.34,41.48,41.46,41.76Z"/><path class="b01e3b49-3ed3-4d98-b8a9-49b2ef8a3a34" d="M42,43.79c.14.27-.3.76-1,1.1s-1.33.4-1.47.13.3-.77,1-1.11S41.91,43.52,42,43.79Z"/><path class="b01e3b49-3ed3-4d98-b8a9-49b2ef8a3a34" d="M42.75,45.8c.15.27-.26.79-.92,1.17s-1.32.48-1.47.21.26-.78.92-1.17S42.59,45.54,42.75,45.8Z"/><path class="b01e3b49-3ed3-4d98-b8a9-49b2ef8a3a34" d="M43.57,47.76c.17.26-.22.81-.86,1.23s-1.3.56-1.47.31.22-.81.86-1.23S43.4,47.51,43.57,47.76Z"/><path class="b01e3b49-3ed3-4d98-b8a9-49b2ef8a3a34" d="M44.51,49.64c.19.25-.16.83-.79,1.3s-1.28.64-1.46.39.17-.83.79-1.3S44.33,49.39,44.51,49.64Z"/><path class="b01e3b49-3ed3-4d98-b8a9-49b2ef8a3a34" d="M45.59,51.41c.2.24-.12.85-.73,1.36s-1.26.72-1.46.48.12-.85.73-1.36S45.39,51.17,45.59,51.41Z"/><path class="b01e3b49-3ed3-4d98-b8a9-49b2ef8a3a34" d="M46.8,53c.22.24-.08.87-.67,1.42s-1.24.81-1.46.57.08-.87.66-1.42S46.58,52.8,46.8,53Z"/><path class="b01e3b49-3ed3-4d98-b8a9-49b2ef8a3a34" d="M48.14,54.48c.24.23,0,.89-.6,1.48s-1.22.89-1.46.66,0-.89.6-1.48S47.9,54.25,48.14,54.48Z"/><g id="b77502c2-e2f7-4b0c-be2c-1b8cc38bc979" data-name="pelo ext"><path class="a22b55fd-be54-4bd6-beb8-89e17ab9dea0" d="M28.4,10.32c.13,0,.56-.83.84-1.21s.72-1,1.05-1.4c.59-.79,2.14-.82,2.14-.82l.09.73c0,.44.14,1,.16,1.46s0,.88.08.89.27-.4.39-.87a13.31,13.31,0,0,1,.57-1.46,6.29,6.29,0,0,1,1.45-1.8,23,23,0,0,1,.32,2.33c.11.68.17,1.1.18,1.33s0,.62.06.62.12-.25.24-.54c.05-.11.14-.26.2-.38.18-.33.55-1.06.58-1.06a7,7,0,0,1,.55.92,10.08,10.08,0,0,1,.47.92,15.94,15.94,0,0,1,.68,1.87,10.61,10.61,0,0,1,.48,2.71,25.94,25.94,0,0,1-1,8.31,5,5,0,0,1-1.44,2.23c-1.2.78-2.17.62-3.79.43a5.81,5.81,0,0,1-3.24-1.11A9.63,9.63,0,0,1,27.09,21a28.77,28.77,0,0,1-1-6.47A14,14,0,0,1,26,11.94a8.92,8.92,0,0,1,.29-1.84,8,8,0,0,1,.57-1.24,4.35,4.35,0,0,1,1-1s.15.59.24,1A6.26,6.26,0,0,0,28.4,10.32Z"/><path d="M34.5,25.74A13,13,0,0,1,33,25.61l-.26,0a5.77,5.77,0,0,1-3.26-1.12A9.64,9.64,0,0,1,27,21c-.38-.93-.68-2.87-1-6.48a16.26,16.26,0,0,1-.11-2.6,9.1,9.1,0,0,1,.3-1.86,8.1,8.1,0,0,1,.57-1.25,4.33,4.33,0,0,1,1.07-1h0a4.66,4.66,0,0,1,.2.78l.06.27c0,.08,0,.18,0,.28a7.62,7.62,0,0,0,.22,1.12,4.09,4.09,0,0,0,.41-.62c.12-.2.25-.41.36-.56l.74-1,.31-.41a3.2,3.2,0,0,1,2.19-.84h0a0,0,0,0,1,0,0l.09.73c0,.11,0,.23,0,.36.05.34.1.74.12,1.11v.33a2.75,2.75,0,0,0,0,.5,2.27,2.27,0,0,0,.32-.82,14.1,14.1,0,0,1,.58-1.47,5.88,5.88,0,0,1,1.5-1.83h0c.09,0,.12.15.22,1.18,0,.4.09.85.14,1.19.11.67.18,1.1.19,1.34s0,.24,0,.34V10a1.31,1.31,0,0,0,.07-.19l.11-.28c0-.09.1-.19.15-.29l.06-.09c0-.09.11-.21.17-.34.39-.76.4-.76.45-.76s.08,0,.6.95a10.19,10.19,0,0,1,.47.93,14.84,14.84,0,0,1,.68,1.88c0,.1,0,.2.08.3A10,10,0,0,1,39,14.55a26.13,26.13,0,0,1-1,8.34,4.59,4.59,0,0,1-1.46,2.25A3.47,3.47,0,0,1,34.5,25.74ZM27.83,7.93a4.12,4.12,0,0,0-.95,1,7.09,7.09,0,0,0-.56,1.23,8.64,8.64,0,0,0-.3,1.82,16.11,16.11,0,0,0,.11,2.59c.33,3.6.63,5.53,1,6.44a9.61,9.61,0,0,0,2.37,3.41,5.77,5.77,0,0,0,3.21,1.09l.26,0c1.49.18,2.38.28,3.5-.45a4.5,4.5,0,0,0,1.41-2.2,25.92,25.92,0,0,0,1-8.29,9.36,9.36,0,0,0-.41-2.39c0-.1,0-.2-.08-.3A15.44,15.44,0,0,0,37.72,10c-.11-.25-.27-.56-.46-.91s-.42-.73-.51-.86c-.07.12-.24.44-.35.66l-.18.34,0,.09A1.82,1.82,0,0,0,36,9.6a2.66,2.66,0,0,0-.11.28c-.07.2-.11.3-.19.3a.09.09,0,0,1-.06,0s0-.14,0-.31,0-.21,0-.33-.08-.68-.19-1.33c0-.35-.1-.8-.14-1.2a9.55,9.55,0,0,0-.14-1.07,6.89,6.89,0,0,0-1.38,1.75,15.58,15.58,0,0,0-.57,1.46c-.09.34-.26.9-.44.9h0c-.11,0-.12-.19-.12-.61V9.08c0-.36-.07-.74-.12-1.1,0-.12,0-.24,0-.36l-.08-.68a3.09,3.09,0,0,0-2.05.8L30,8.15l-.74,1c-.1.14-.23.35-.36.55-.3.49-.42.68-.52.68s-.15-.16-.31-1.22c0-.11,0-.21,0-.28L28,8.62Zm.6,2.34Z"/></g><g id="a40daf3f-bb49-466a-a5cc-59e2d0948a60" data-name="cabeza"><g id="b8463876-04c2-43e5-b64e-4b95f37e500e" data-name="oreja Izq"><path class="aa90141a-8301-4b60-ac40-2df66e4cce46" d="M27.44,22.06a1.48,1.48,0,0,0-.53-.58,1,1,0,0,0-.68,0,1.13,1.13,0,0,0-.43.72,1.11,1.11,0,0,0,.1.84,1.15,1.15,0,0,0,.8.27,1.12,1.12,0,0,0,.66-.26A1.61,1.61,0,0,0,27.44,22.06Z"/><path d="M27.42,22.07a1.32,1.32,0,0,0-.55-.52l.06-.13a1.35,1.35,0,0,1,.53.63Z"/><path d="M26.87,21.55a.8.8,0,0,0-.61,0l-.06-.13a1,1,0,0,1,.74,0Z"/><polygon points="26.93 21.57 26.82 21.53 26.88 21.39 26.98 21.44 26.93 21.57"/><path d="M26.25,21.52a1,1,0,0,0-.4.67l-.13,0a1.32,1.32,0,0,1,.48-.78Z"/><polygon points="26.2 21.54 26.14 21.42 26.24 21.37 26.3 21.49 26.2 21.54"/><path d="M25.85,22.19a1.11,1.11,0,0,0,.09.79l-.11.09a1.32,1.32,0,0,1-.11-.9Z"/><polygon points="25.84 22.25 25.71 22.21 25.74 22.11 25.87 22.14 25.84 22.25"/><path d="M25.94,23a1,1,0,0,0,.75.24v.15a1.23,1.23,0,0,1-.87-.29Z"/><polygon points="25.87 23.11 25.8 23.02 25.91 22.94 25.98 23.02 25.87 23.11"/><path d="M26.69,23.22a1.18,1.18,0,0,0,.64-.2l0,0a1.16,1.16,0,0,1-.68.3Z"/><rect x="26.63" y="23.22" width="0.11" height="0.14"/></g><g id="eec18749-1f97-4c33-8b6c-5e82f2e6929f" data-name="cabeza"><path class="aa90141a-8301-4b60-ac40-2df66e4cce46" d="M37.83,22a11.39,11.39,0,0,1-.65,3.73,8.15,8.15,0,0,1-2,2.29,6,6,0,0,1-3,1.2,6.44,6.44,0,0,1-2.79-1.46,6.82,6.82,0,0,1-1.88-2.29,12.22,12.22,0,0,1-.7-4.12c-.05-1.15-.07-2.46,0-3.12a16.46,16.46,0,0,1,.54-4.21,3.45,3.45,0,0,1,1.46-1.52,7.54,7.54,0,0,1,3.35-.72,7,7,0,0,1,3.66.65,4.67,4.67,0,0,1,1.68,2.45,27.18,27.18,0,0,1,.39,4.62C37.89,20,37.89,21.28,37.83,22Z"/><path d="M37.83,22a11.42,11.42,0,0,1-.59,3.77l-.12-.07a11.84,11.84,0,0,0,.71-3.7Z"/><path d="M37.24,25.81a8.11,8.11,0,0,1-2,2.3L35.14,28a7.36,7.36,0,0,0,2-2.25Z"/><polygon points="37.21 25.86 37.09 25.79 37.14 25.69 37.26 25.76 37.21 25.86"/><path d="M35.22,28.11a6,6,0,0,1-3,1.23l0-.14A5.88,5.88,0,0,0,35.14,28Z"/><polygon points="35.17 28.14 35.1 28.03 35.19 27.97 35.27 28.08 35.17 28.14"/><path d="M32.19,29.33a6.61,6.61,0,0,1-2.82-1.48l.09-.12a6.35,6.35,0,0,0,2.73,1.46Z"/><polygon points="32.25 29.33 32.14 29.33 32.15 29.18 32.26 29.19 32.25 29.33"/><path d="M29.37,27.85a7.26,7.26,0,0,1-1.91-2.32l.13-.06a7.11,7.11,0,0,0,1.87,2.28Z"/><polygon points="29.41 27.88 29.32 27.81 29.41 27.7 29.5 27.77 29.41 27.88"/><path d="M27.46,25.53a12.39,12.39,0,0,1-.71-4.14h.15a12.42,12.42,0,0,0,.69,4.09Z"/><polygon points="27.48 25.58 27.44 25.48 27.57 25.42 27.62 25.52 27.48 25.58"/><path d="M26.75,21.39c-.05-1.15-.06-2.47,0-3.13h.14c0,.66,0,2,0,3.11Z"/><polygon points="26.76 21.45 26.75 21.34 26.89 21.33 26.9 21.44 26.76 21.45"/><path d="M26.73,18.26A17.5,17.5,0,0,1,27.27,14l.14,0a17.35,17.35,0,0,0-.55,4.19Z"/><polygon points="26.87 18.32 26.73 18.31 26.73 18.2 26.88 18.21 26.87 18.32"/><path d="M37.48,14.91a28.25,28.25,0,0,1,.39,4.62h0a28.25,28.25,0,0,0-.39-4.62Z"/><path d="M37.87,19.52c0,.46,0,1.76,0,2.52h0c.06-.76.06-2.06,0-2.52Z"/></g><g id="ed39d0a8-7a19-45bd-ac04-f30643d4c53a" data-name="boca"><g id="a0dca4c1-67d0-482d-be1c-b5d61fd8b32f" data-name="boca"><path class="a1465b7d-b842-40d8-825f-3b2ba69be4b2" d="M28.22,25s.49.62.68.77a4.44,4.44,0,0,0,1,.35c.11,0,1.08.07,1.19.07s1.1-.05,1.19-.07a9.35,9.35,0,0,0,1.25-.28c.17-.12.51-.72.57-.68a1.93,1.93,0,0,1-.55.76,10.39,10.39,0,0,1-1.27.28c-.12,0-1.07.08-1.18.08s-1.08-.05-1.19-.07a4.86,4.86,0,0,1-1-.34A3.52,3.52,0,0,1,28.22,25Z"/><path d="M31.06,26.37c-.11,0-1.09,0-1.2-.07a4.49,4.49,0,0,1-1-.35,3.43,3.43,0,0,1-.71-.9.08.08,0,0,1,0-.05h0c.06,0,.09,0,.34.32a3.23,3.23,0,0,0,.41.45,4.47,4.47,0,0,0,.93.35c.1,0,1.07.06,1.18.06s1.1,0,1.17-.06l.11,0a7.85,7.85,0,0,0,1.13-.25,2.5,2.5,0,0,0,.31-.39c.18-.26.24-.34.32-.3a.06.06,0,0,1,0,.06,2,2,0,0,1-.58.8,7.74,7.74,0,0,1-1.18.26l-.11,0C32.12,26.32,31.17,26.37,31.06,26.37Z"/></g><g id="f6fe1d45-c5d6-4d24-a026-ed9a3a3c162a" data-name="lengua"><g class="eb4c1d03-2e64-470e-b18d-2586ca2ac4b3"><path class="bf3507c3-b548-4f2a-bc03-572015d8a48c" d="M29.75,27.79a1.4,1.4,0,0,1,.47-.85,2.46,2.46,0,0,1,1.39-.51,2.37,2.37,0,0,1,1.4.36,1.42,1.42,0,0,1,.57.88,1.45,1.45,0,0,1-.54,1,2.35,2.35,0,0,1-1.23.28,2.82,2.82,0,0,1-1.61-.24A1.24,1.24,0,0,1,29.75,27.79Z"/><path class="fa542ed3-5a70-4cb8-9b94-c035dd0b76ad" d="M31.34,29a2,2,0,0,1-1.17-.27,1.31,1.31,0,0,1-.48-.92,1.45,1.45,0,0,1,.49-.89,2.51,2.51,0,0,1,1.42-.53,2.4,2.4,0,0,1,1.45.38,1.5,1.5,0,0,1,.59.92,1.5,1.5,0,0,1-.57,1,2.33,2.33,0,0,1-1.26.28Zm.37-2.5h-.1a2.41,2.41,0,0,0-1.35.5,1.33,1.33,0,0,0-.46.81h0a1.21,1.21,0,0,0,.43.83,2.62,2.62,0,0,0,1.57.23,2.25,2.25,0,0,0,1.2-.26,1.36,1.36,0,0,0,.52-.92,1.31,1.31,0,0,0-.54-.83A2.32,2.32,0,0,0,31.71,26.48Zm-2,1.31Z"/></g></g><g id="ad7112c2-3d12-4378-b855-e317848bede1" data-name="dientes"><g class="eb4c1d03-2e64-470e-b18d-2586ca2ac4b3"><path class="a14cf422-1048-4804-a6d0-eb414d9c99e3" d="M26.34,21.85h9.38a4.44,4.44,0,0,0-.17-1.71,2.77,2.77,0,0,0-1.47-1.05,9.84,9.84,0,0,0-6.3.13,2.75,2.75,0,0,0-1.4,1.13A4.05,4.05,0,0,0,26.34,21.85Z"/><path class="e6b6b69c-d65c-4479-96be-97377fb301d3" d="M30.91,21.92l-4.57,0a0,0,0,0,1-.05,0,3.81,3.81,0,0,1,0-1.53,2.77,2.77,0,0,1,1.43-1.16A9.89,9.89,0,0,1,34.1,19a2.76,2.76,0,0,1,1.5,1.08,4.29,4.29,0,0,1,.17,1.73c0,.06,0,.06-.6.06Zm-4.52-.13h9.28a4.34,4.34,0,0,0-.16-1.63,2.73,2.73,0,0,0-1.45-1,9.79,9.79,0,0,0-6.26.13,2.72,2.72,0,0,0-1.37,1.11A3.58,3.58,0,0,0,26.39,21.79Z"/></g><g class="eb4c1d03-2e64-470e-b18d-2586ca2ac4b3"><path class="a14cf422-1048-4804-a6d0-eb414d9c99e3" d="M35.82,29.34l-4.8,0-4.59,0A4.46,4.46,0,0,0,26.56,31,2.78,2.78,0,0,0,28,32a9.74,9.74,0,0,0,6.29-.13,2.82,2.82,0,0,0,1.41-1.13A3.92,3.92,0,0,0,35.82,29.34Z"/><path class="e6b6b69c-d65c-4479-96be-97377fb301d3" d="M31,32.54a9.24,9.24,0,0,1-3-.45A2.93,2.93,0,0,1,26.51,31a4.36,4.36,0,0,1-.13-1.67s0,0,0,0,0,0,4.63,0l4.8,0a0,0,0,0,1,0,.05,3.62,3.62,0,0,1-.08,1.46A2.81,2.81,0,0,1,34.35,32,9.12,9.12,0,0,1,31,32.54Zm-4.5-3.15A4.33,4.33,0,0,0,26.61,31a2.73,2.73,0,0,0,1.45,1,9.76,9.76,0,0,0,6.25-.13,2.76,2.76,0,0,0,1.38-1.1,3.65,3.65,0,0,0,.08-1.35l-4.75,0Zm9.39-.05h0Z"/></g></g></g><g id="b1f39fde-bee9-44a6-8283-e311c2cac28e" data-name="ojos"><g id="e4233d10-e161-4306-8779-2cb91bb4dbd3" data-name="ojos"><path class="a14cf422-1048-4804-a6d0-eb414d9c99e3" d="M35.59,21.42a10.09,10.09,0,0,0,.27-2.21,7,7,0,0,0,0-.94,1.63,1.63,0,0,0-.22-.72A1.3,1.3,0,0,0,34.53,17a1.4,1.4,0,0,0-1.08.42,1.39,1.39,0,0,0-.15.73c0,.29,0,1.32,0,1.32s.11,1.87.15,1.92a2.56,2.56,0,0,0,.24.11,3.51,3.51,0,0,0,.92.19,3,3,0,0,0,.77-.16S35.45,21.54,35.59,21.42Z"/><path d="M35.55,21.38a10.24,10.24,0,0,0,.26-2.17h.09a10.36,10.36,0,0,1-.29,2.24Z"/><path d="M35.82,19.21a6.89,6.89,0,0,0,0-.93h.09a7.2,7.2,0,0,1,0,.95Z"/><rect x="35.82" y="19.16" width="0.09" height="0.11"/><path d="M35.8,18.27a2.07,2.07,0,0,0-.21-.71l.07-.06a2.13,2.13,0,0,1,.24.75Z"/><polygon points="35.8 18.32 35.79 18.21 35.88 18.2 35.89 18.31 35.8 18.32"/><path d="M35.59,17.57a1.23,1.23,0,0,0-1.06-.49V17a1.39,1.39,0,0,1,1.13.54Z"/><polygon points="35.62 17.61 35.55 17.53 35.63 17.47 35.7 17.56 35.62 17.61"/><path d="M34.53,17.07a1.35,1.35,0,0,0-1.05.41l-.07-.06A1.45,1.45,0,0,1,34.54,17Z"/><rect x="34.48" y="16.98" width="0.11" height="0.09"/><path d="M33.48,17.47a1.72,1.72,0,0,0-.19.7h0c0-.17,0-.52.11-.75Z"/><polygon points="33.45 17.52 33.37 17.46 33.44 17.37 33.51 17.43 33.45 17.52"/><path d="M33.29,18.18c0,.29,0,1.32,0,1.32h0s0-1,0-1.32Z"/><path d="M33.29,19.5s.11,1.87.15,1.92h0c0-.05-.15-1.92-.15-1.92Z"/><path d="M33.44,21.42l.24.11h0l-.24-.11Z"/><path d="M35.36,21.55l.19-.17.07.07a.35.35,0,0,1-.26.1Z"/><path class="a14cf422-1048-4804-a6d0-eb414d9c99e3" d="M27.83,21.36c-.24-.21-.24-1.61-.25-2a8,8,0,0,1,0-1.08c0-.22,0-.76.26-1A1.88,1.88,0,0,1,29,17a2.06,2.06,0,0,1,1,.44,1.54,1.54,0,0,1,.24.8c0,.45,0,1.2,0,1.2a17.63,17.63,0,0,1-.17,1.93l-.2.13a3,3,0,0,1-.9.22,3.13,3.13,0,0,1-.86-.17A1.37,1.37,0,0,1,27.83,21.36Z"/><path d="M27.79,21.41a5.9,5.9,0,0,1-.27-2h.12c0,.36,0,1.75.22,1.94Z"/><path d="M27.52,19.4a10.13,10.13,0,0,1,0-1.09h.11a9.65,9.65,0,0,0,0,1.07Z"/><polygon points="27.52 19.45 27.51 19.34 27.63 19.33 27.64 19.44 27.52 19.45"/><path d="M27.54,18.31c0-.21,0-.77.28-1l.07.08c-.21.18-.21.71-.24.94Z"/><polygon points="27.64 18.38 27.53 18.37 27.55 18.26 27.66 18.27 27.64 18.38"/><path d="M27.83,17.3A1.94,1.94,0,0,1,29,17v.11a1.91,1.91,0,0,0-1.07.33Z"/><polygon points="27.85 17.43 27.78 17.34 27.87 17.27 27.94 17.36 27.85 17.43"/><path d="M29,17a2,2,0,0,1,1.05.47l-.07.07a1.87,1.87,0,0,0-1-.43Z"/><polygon points="29 17.07 28.89 17.05 28.9 16.95 29.01 16.95 29 17.07"/><path d="M30,17.42a1.44,1.44,0,0,1,.2.83h0a1.45,1.45,0,0,0-.29-.77Z"/><polygon points="29.98 17.52 29.91 17.44 29.99 17.37 30.06 17.46 29.98 17.52"/><path d="M30.22,18.25c0,.45,0,1.2,0,1.2h0s0-.75,0-1.2Z"/><path d="M30.26,19.45a17.63,17.63,0,0,1-.17,1.93h0a17.63,17.63,0,0,0,.17-1.93Z"/><path d="M30.1,21.38l-.2.13h0l.2-.13Z"/><path d="M28.14,21.57a.78.78,0,0,1-.35-.16l.07-.07a2.26,2.26,0,0,0,.29.22Z"/><polygon points="28.19 21.6 28.09 21.55 28.1 21.53 28.2 21.57 28.19 21.6"/></g><g id="f87a30ea-9478-4fd6-a740-a40714c45880" data-name="pupilas"><g class="f4d8a612-dc4a-4c43-9fd4-f1ac64e756cb"><path class="a22b55fd-be54-4bd6-beb8-89e17ab9dea0" d="M34.71,17.39c.62,0,.83.52.87,1.5,0,1.16-.33,1.84-.87,1.84s-.89-.82-.86-1.84C33.87,18.08,34.09,17.39,34.71,17.39Z"/></g><g class="f4d8a612-dc4a-4c43-9fd4-f1ac64e756cb"><path class="a22b55fd-be54-4bd6-beb8-89e17ab9dea0" d="M29.05,17.38c.62,0,.88.52.93,1.51s-.27,1.86-.88,1.86-.93-.61-.87-1.86C28.26,17.87,28.45,17.39,29.05,17.38Z"/></g></g></g><g id="abb0a0a4-bea5-4e1e-b75d-ec271cd39ad3" data-name="nariz"><path class="aa90141a-8301-4b60-ac40-2df66e4cce46" d="M31.24,20a1.79,1.79,0,0,0-.38.1,3.6,3.6,0,0,0-.73.49A9.92,9.92,0,0,0,30.65,22c.09.2.39.74.39.74l.11.19.12-.18s.22-.52.27-.7.34-1.11.33-1.18a2.87,2.87,0,0,0-.42-.66A.59.59,0,0,0,31.24,20Z"/><path d="M31.24,20a1.8,1.8,0,0,0-.36.13l0-.05a1,1,0,0,1,.39-.08Z"/><path d="M30.88,20.16a2.76,2.76,0,0,0-.68.49l-.12,0a3.29,3.29,0,0,1,.77-.5Z"/><rect x="30.81" y="20.11" width="0.11" height="0.06" transform="translate(-5.18 12.46) rotate(-21.1)"/><path d="M30.2,20.65A10.21,10.21,0,0,0,30.71,22l-.1,0a8.4,8.4,0,0,1-.53-1.39Z"/><polygon points="30.18 20.7 30.06 20.66 30.1 20.55 30.22 20.6 30.18 20.7"/><path d="M30.71,22c.09.2.38.74.38.74l-.07,0s-.31-.55-.4-.75Z"/><polygon points="30.63 22.05 30.59 21.95 30.69 21.91 30.73 22.01 30.63 22.05"/><path d="M31.08,22.7l.07.21h0L31,22.75Z"/><polygon points="31.04 22.8 30.97 22.71 31.04 22.66 31.11 22.75 31.04 22.8"/><path d="M31.16,22.91l.13-.17h0l-.13.17Z"/></g><g id="b43f4e63-202b-4565-8001-0bf50c2550f5" data-name="pelo int"><path class="a22b55fd-be54-4bd6-beb8-89e17ab9dea0" d="M36.92,21.83c.62-.34.71-.14,1.2-.46a49.16,49.16,0,0,1,.56-4.89,7,7,0,0,0-.56-3.27,7.26,7.26,0,0,0-2.83-2.72A10.38,10.38,0,0,0,32,10.36a6.35,6.35,0,0,0-4.29,2.21,2.86,2.86,0,0,0-.45,1.56c.18-.08,0,0,.24-.08a7.08,7.08,0,0,1,3.9.55,7,7,0,0,1,3.3-.69,4.52,4.52,0,0,1,2,1.29,23.64,23.64,0,0,1,.14,3.72C36.86,19,36.93,21.69,36.92,21.83Z"/></g><g id="bc9b0839-ab9a-4ec0-8fc3-0fa83d81426a" data-name="cejas"><path d="M32.53,16.47A4.93,4.93,0,0,1,34.44,16l0,.25a6,6,0,0,0-1.91.36Z"/><path d="M34.44,16a2.71,2.71,0,0,1,1.46.29l0,.19a2.83,2.83,0,0,0-1.42-.23Z"/><rect x="34.39" y="15.95" width="0.11" height="0.24" transform="translate(-0.67 1.53) rotate(-2.52)"/><path d="M27.3,16.28a3,3,0,0,1,1.53-.37l0,.24a3.15,3.15,0,0,0-1.48.31Z"/><path d="M28.84,15.91c.91.09,1.09.43,1.54.57l0,.09a4.73,4.73,0,0,0-1.53-.42Z"/><polygon points="28.87 16.16 28.76 16.15 28.78 15.9 28.89 15.91 28.87 16.16"/></g><g id="a8292f20-b6d5-4e18-b360-9184a9c9b8bb" data-name="oreja der"><path class="aa90141a-8301-4b60-ac40-2df66e4cce46" d="M36.78,22.06a1.5,1.5,0,0,1,.54-.58,1,1,0,0,1,.67,0,1.13,1.13,0,0,1,.43.72,1.11,1.11,0,0,1-.1.84,1.11,1.11,0,0,1-.79.27,1.15,1.15,0,0,1-.67-.26A1.7,1.7,0,0,1,36.78,22.06Z"/><path d="M36.76,22.05a1.46,1.46,0,0,1,.53-.63l.06.13a1.29,1.29,0,0,0-.54.52Z"/><path d="M37.29,21.42a1.07,1.07,0,0,1,.75,0l-.07.13a.8.8,0,0,0-.61,0Z"/><polygon points="37.3 21.57 37.24 21.44 37.34 21.39 37.4 21.53 37.3 21.57"/><path d="M38,21.39a1.22,1.22,0,0,1,.48.78l-.13,0a1.09,1.09,0,0,0-.4-.67Z"/><polygon points="38.01 21.54 37.91 21.49 37.98 21.37 38.07 21.42 38.01 21.54"/><path d="M38.5,22.16a1.22,1.22,0,0,1-.11.9L38.28,23a1.15,1.15,0,0,0,.09-.79Z"/><polygon points="38.38 22.25 38.35 22.14 38.49 22.11 38.52 22.21 38.38 22.25"/><path d="M38.39,23.07a1.22,1.22,0,0,1-.86.29v-.15a1,1,0,0,0,.74-.24Z"/><polygon points="38.35 23.11 38.24 23.02 38.31 22.94 38.42 23.02 38.35 23.11"/><path d="M37.53,23.36a1.36,1.36,0,0,1-.69-.3l0,0a1.19,1.19,0,0,0,.65.2Z"/><rect x="37.47" y="23.21" width="0.11" height="0.14"/></g></g><ellipse class="b0a90d40-a8aa-40c4-bf45-4c2880ea6340" cx="29.39" cy="19.83" rx="0.65" ry="1.19"/><path d="M29.39,21.07c-.4,0-.71-.54-.71-1.24s.31-1.24.71-1.24.71.55.71,1.24S29.79,21.07,29.39,21.07Zm0-2.37c-.32,0-.6.52-.6,1.13s.28,1.13.6,1.13.6-.52.6-1.13S29.72,18.7,29.39,18.7Z"/><ellipse class="b0a90d40-a8aa-40c4-bf45-4c2880ea6340" cx="34.64" cy="19.83" rx="0.65" ry="1.19"/><path d="M34.64,21.07c-.39,0-.71-.54-.71-1.24s.32-1.24.71-1.24.71.55.71,1.24S35,21.07,34.64,21.07Zm0-2.37c-.33,0-.59.51-.59,1.13s.26,1.13.59,1.13.6-.52.6-1.13S35,18.7,34.64,18.7Z"/><path class="b01e3b49-3ed3-4d98-b8a9-49b2ef8a3a34" d="M40.15,12.8,42.28,9A.72.72,0,0,0,42,8c-1.28-.83-4.41-2.8-5.34-2.85S26.07,8,23.07,8.93A.72.72,0,0,0,22.68,10l2.51,4Z"/><path class="b4a5ed4f-b33a-4784-a397-06c0feb4b280" d="M25.19,8.29s1.65,5.29,2.08,5.64,2.61-.65,2.61-.65-1.68-1.66-2.51-5.65Z"/><path class="e1c5ca91-4848-44b6-9945-2628d1e0a477" d="M26.16,15.42s3.72-3,12.8-1l1.19-1.59s-6.45-2.56-15,1.22Z"/><path class="aa2c5cdd-4a77-4e92-bedb-32fede6c7a1a" d="M3.33,12.1a.1.1,0,0,0,.14,0l1.44-1.62a.11.11,0,0,0,0-.13L3.47,8.75a.1.1,0,0,0-.14,0l-1.44,1.6a.11.11,0,0,0,0,.13Z"/><path class="bd06acc9-4f64-4cb8-abe4-bf892b088947" d="M3.4,12.15a.12.12,0,0,1-.09,0L1.88,10.49a.11.11,0,0,1,0-.15l1.44-1.6a.11.11,0,0,1,.17,0l1.43,1.6a.11.11,0,0,1,0,.15L3.49,12.11A.11.11,0,0,1,3.4,12.15Zm0-3.41-.06,0L1.91,10.37a.07.07,0,0,0,0,.1l1.43,1.62a.09.09,0,0,0,.12,0L4.9,10.47a.09.09,0,0,0,0-.1L3.46,8.76Z"/><path class="a0a17129-0f87-4719-97f3-e1a99281d306" d="M4.21,10.11a.07.07,0,0,1-.06,0l-.82-.94a.09.09,0,0,1,0-.13.09.09,0,0,1,.12,0l.82.94a.1.1,0,0,1,0,.13Z"/><path class="a0a17129-0f87-4719-97f3-e1a99281d306" d="M4.47,10.41a.07.07,0,0,1-.06,0l-.12-.14a.09.09,0,1,1,.13-.11l.12.14a.09.09,0,0,1,0,.12A.07.07,0,0,1,4.47,10.41Z"/><path class="aa2c5cdd-4a77-4e92-bedb-32fede6c7a1a" d="M57.78,79.33a.11.11,0,0,0-.07,0,.11.11,0,0,0-.08,0L56.2,81a.08.08,0,0,0,0,.12l1.43,1.61a.11.11,0,0,0,.08,0,.11.11,0,0,0,.07,0l1.43-1.61a.08.08,0,0,0,0-.12Z"/><path class="bd06acc9-4f64-4cb8-abe4-bf892b088947" d="M57.71,79.28a.12.12,0,0,1,.08,0l1.44,1.62a.12.12,0,0,1,0,.16l-1.44,1.6a.12.12,0,0,1-.17,0l-1.44-1.6a.12.12,0,0,1,0-.16l1.44-1.62A.13.13,0,0,1,57.71,79.28Zm0,3.42a.05.05,0,0,0,0,0l1.44-1.6a.07.07,0,0,0,0-.1l-1.44-1.62s-.08,0-.11,0L56.21,81a.07.07,0,0,0,0,.1l1.44,1.6A.06.06,0,0,0,57.71,82.7Z"/><path class="a0a17129-0f87-4719-97f3-e1a99281d306" d="M56.9,81.33a.09.09,0,0,1,.06,0l.82.94a.09.09,0,1,1-.13.11l-.82-.94a.08.08,0,0,1,0-.12A.08.08,0,0,1,56.9,81.33Z"/><path class="a0a17129-0f87-4719-97f3-e1a99281d306" d="M56.63,81a.08.08,0,0,1,.07,0l.12.13a.09.09,0,1,1-.14.12l-.11-.14a.09.09,0,0,1,0-.13Z"/></g></g></svg>