<svg xmlns="http://www.w3.org/2000/svg" viewBox="0 0 61.11 91.54"><defs><style>.b6f4988e-a372-430f-af44-5c673417547f{fill:none;}.f1b4743d-000b-49de-afd1-f80f5116e4a0{fill:#adadad;}.f4a264de-d04d-4187-b43f-ef4f5111b5e4{fill:#f6413a;}.bc9119f8-7fb1-4875-9d22-5fb573ed1a83{fill:#c51611;}.bd874a68-0338-4431-8236-6184b32db1ea{fill:#ffb3b3;}</style></defs><title>D_10</title><g id="e5ed95ce-4e53-4cb7-adac-41ce2c0e3db3" data-name="Capa 2"><g id="bd0702cb-b1ec-49c9-8f8e-eb16121552e2" data-name="Objects"><rect class="b6f4988e-a372-430f-af44-5c673417547f" x="0.13" y="0.12" width="60.86" height="91.29" rx="2.4"/><path class="f1b4743d-000b-49de-afd1-f80f5116e4a0" d="M58.59,91.54H2.52A2.53,2.53,0,0,1,0,89V2.52A2.52,2.52,0,0,1,2.52,0H58.59a2.52,2.52,0,0,1,2.52,2.52V89A2.53,2.53,0,0,1,58.59,91.54ZM2.52.25A2.27,2.27,0,0,0,.25,2.52V89a2.28,2.28,0,0,0,2.27,2.28H58.59A2.28,2.28,0,0,0,60.86,89V2.52A2.27,2.27,0,0,0,58.59.25Z"/><path class="f4a264de-d04d-4187-b43f-ef4f5111b5e4" d="M3.4,8.54a.28.28,0,0,1-.21-.08.3.3,0,0,1-.08-.2V2.57l.1.09-1.28.77a.33.33,0,0,1-.14,0,.28.28,0,0,1-.21-.1.32.32,0,0,1-.09-.21.27.27,0,0,1,.15-.23l1.6-1a.34.34,0,0,1,.23,0A.21.21,0,0,1,3.64,2a.29.29,0,0,1,.07.2V8.26a.27.27,0,0,1-.09.2A.29.29,0,0,1,3.4,8.54Z"/><path class="f4a264de-d04d-4187-b43f-ef4f5111b5e4" d="M7.4,8.64a1.82,1.82,0,0,1-1.27-.46A2.74,2.74,0,0,1,5.37,7a5.47,5.47,0,0,1-.26-1.73A5.47,5.47,0,0,1,5.37,3.5a2.74,2.74,0,0,1,.76-1.22A1.86,1.86,0,0,1,7.4,1.83a1.85,1.85,0,0,1,1.28.45A2.74,2.74,0,0,1,9.44,3.5,5.47,5.47,0,0,1,9.7,5.23,5.47,5.47,0,0,1,9.44,7a2.74,2.74,0,0,1-.76,1.22A1.81,1.81,0,0,1,7.4,8.64Zm0-.59a1.28,1.28,0,0,0,.93-.35,2.16,2.16,0,0,0,.57-1,5,5,0,0,0,.19-1.48A5.18,5.18,0,0,0,8.9,3.74a2.18,2.18,0,0,0-.57-1,1.28,1.28,0,0,0-.93-.35,1.26,1.26,0,0,0-.92.35,2.18,2.18,0,0,0-.57,1,5.18,5.18,0,0,0-.19,1.49,5,5,0,0,0,.19,1.48,2.16,2.16,0,0,0,.57,1A1.26,1.26,0,0,0,7.4,8.05Z"/><path class="f4a264de-d04d-4187-b43f-ef4f5111b5e4" d="M4.89,12.1a.1.1,0,0,0,.14,0l1.44-1.62a.11.11,0,0,0,0-.13L5,8.75a.1.1,0,0,0-.14,0l-1.44,1.6a.11.11,0,0,0,0,.13Z"/><path class="bc9119f8-7fb1-4875-9d22-5fb573ed1a83" d="M5,12.15a.11.11,0,0,1-.09,0L3.44,10.49a.11.11,0,0,1,0-.15l1.43-1.6a.13.13,0,0,1,.18,0l1.43,1.6a.11.11,0,0,1,0,.15L5.05,12.11A.12.12,0,0,1,5,12.15ZM5,8.74l-.06,0L3.46,10.37a.09.09,0,0,0,0,.1L4.9,12.09a.09.09,0,0,0,.12,0l1.44-1.62a.08.08,0,0,0,0-.1L5,8.76Z"/><path class="bd874a68-0338-4431-8236-6184b32db1ea" d="M5.77,10.11a.11.11,0,0,1-.07,0l-.81-.94a.08.08,0,0,1,0-.12A.09.09,0,0,1,5,9l.82.94a.1.1,0,0,1,0,.13Z"/><path class="bd874a68-0338-4431-8236-6184b32db1ea" d="M6,10.41a.11.11,0,0,1-.07,0l-.11-.14A.09.09,0,1,1,6,10.13l.12.14a.09.09,0,0,1,0,.12A.07.07,0,0,1,6,10.41Z"/><path class="f4a264de-d04d-4187-b43f-ef4f5111b5e4" d="M57.85,83a.31.31,0,0,1,.29.29V89l-.11-.1,1.29-.76a.2.2,0,0,1,.13,0,.27.27,0,0,1,.22.1.3.3,0,0,1,.09.2.28.28,0,0,1-.16.24l-1.59,1a.35.35,0,0,1-.23,0,.31.31,0,0,1-.18-.09.32.32,0,0,1-.07-.19v-6a.25.25,0,0,1,.09-.2A.32.32,0,0,1,57.85,83Z"/><path class="f4a264de-d04d-4187-b43f-ef4f5111b5e4" d="M53.85,82.9a1.84,1.84,0,0,1,1.26.45,2.73,2.73,0,0,1,.77,1.23,5.41,5.41,0,0,1,.25,1.72A5.58,5.58,0,0,1,55.88,88a2.75,2.75,0,0,1-.77,1.22,1.84,1.84,0,0,1-1.26.45,1.88,1.88,0,0,1-1.29-.45A2.83,2.83,0,0,1,51.8,88a5.58,5.58,0,0,1-.25-1.74,5.41,5.41,0,0,1,.25-1.72,2.81,2.81,0,0,1,.76-1.23A1.88,1.88,0,0,1,53.85,82.9Zm0,.58a1.33,1.33,0,0,0-.94.35,2.36,2.36,0,0,0-.56,1,5.61,5.61,0,0,0,0,3,2.24,2.24,0,0,0,.56,1,1.33,1.33,0,0,0,.94.35,1.32,1.32,0,0,0,.92-.35,2.07,2.07,0,0,0,.56-1,5.61,5.61,0,0,0,0-3,2.17,2.17,0,0,0-.56-1A1.32,1.32,0,0,0,53.85,83.48Z"/><path class="f4a264de-d04d-4187-b43f-ef4f5111b5e4" d="M56.48,79.43a.1.1,0,0,0-.14,0L54.9,81.05a.1.1,0,0,0,0,.13l1.44,1.6a.08.08,0,0,0,.14,0l1.44-1.6a.1.1,0,0,0,0-.13Z"/><path class="bc9119f8-7fb1-4875-9d22-5fb573ed1a83" d="M56.41,79.38a.18.18,0,0,1,.09,0L57.93,81a.11.11,0,0,1,0,.15L56.49,82.8a.11.11,0,0,1-.17,0l-1.43-1.61a.11.11,0,0,1,0-.15l1.43-1.62A.15.15,0,0,1,56.41,79.38Zm0,3.42a.09.09,0,0,0,.06,0l1.43-1.6a.07.07,0,0,0,0-.1l-1.43-1.63a.09.09,0,0,0-.12,0l-1.44,1.63a.09.09,0,0,0,0,.1l1.44,1.6A.09.09,0,0,0,56.41,82.8Z"/><path class="bd874a68-0338-4431-8236-6184b32db1ea" d="M55.6,81.43a.07.07,0,0,1,.06,0l.82.94a.09.09,0,1,1-.13.11l-.82-.94a.09.09,0,0,1,0-.12A.07.07,0,0,1,55.6,81.43Z"/><path class="bd874a68-0338-4431-8236-6184b32db1ea" d="M55.34,81.12a.07.07,0,0,1,.06,0l.12.14a.08.08,0,0,1,0,.12.08.08,0,0,1-.12,0l-.12-.13a.1.1,0,0,1,0-.13Z"/><path class="f4a264de-d04d-4187-b43f-ef4f5111b5e4" d="M16.29,23a.41.41,0,0,0,.62,0l6.2-7a.43.43,0,0,0,0-.56l-6.2-6.91a.41.41,0,0,0-.62,0l-6.2,6.91a.43.43,0,0,0,0,.56Z"/><path class="bc9119f8-7fb1-4875-9d22-5fb573ed1a83" d="M16.6,23.19a.52.52,0,0,1-.37-.16L10,16a.49.49,0,0,1,0-.66l6.2-6.92a.51.51,0,0,1,.74,0l6.2,6.92a.49.49,0,0,1,0,.66L17,23A.51.51,0,0,1,16.6,23.19Zm0-14.74a.36.36,0,0,0-.25.11l-6.2,6.92a.33.33,0,0,0,0,.44l6.2,7a.35.35,0,0,0,.5,0l6.2-7a.31.31,0,0,0,0-.44l-6.2-6.92A.33.33,0,0,0,16.6,8.45Z"/><path class="bd874a68-0338-4431-8236-6184b32db1ea" d="M20.1,14.37a.41.41,0,0,1-.29-.13l-3.53-4.06a.38.38,0,0,1,0-.53.37.37,0,0,1,.53,0l3.53,4.06a.36.36,0,0,1,0,.52A.34.34,0,0,1,20.1,14.37Z"/><path class="bd874a68-0338-4431-8236-6184b32db1ea" d="M21.23,15.68a.39.39,0,0,1-.29-.13l-.51-.6a.38.38,0,0,1,.05-.53.39.39,0,0,1,.53,0l.5.6a.37.37,0,0,1,0,.53A.38.38,0,0,1,21.23,15.68Z"/><path class="f4a264de-d04d-4187-b43f-ef4f5111b5e4" d="M16.29,63a.41.41,0,0,0,.62,0l6.2-7a.43.43,0,0,0,0-.56l-6.2-6.91a.41.41,0,0,0-.62,0l-6.2,6.91a.43.43,0,0,0,0,.56Z"/><path class="bc9119f8-7fb1-4875-9d22-5fb573ed1a83" d="M16.6,63.22a.51.51,0,0,1-.37-.16l-6.2-7a.49.49,0,0,1,0-.66l6.2-6.92a.52.52,0,0,1,.74,0l6.2,6.92a.49.49,0,0,1,0,.66l-6.2,7A.51.51,0,0,1,16.6,63.22Zm0-14.74a.36.36,0,0,0-.25.11l-6.2,6.92a.33.33,0,0,0,0,.44l6.2,7a.35.35,0,0,0,.5,0l6.2-7a.31.31,0,0,0,0-.44l-6.2-6.92A.33.33,0,0,0,16.6,48.48Z"/><path class="bd874a68-0338-4431-8236-6184b32db1ea" d="M20.1,54.4a.41.41,0,0,1-.29-.13l-3.53-4.06a.38.38,0,0,1,.57-.49l3.53,4.06a.37.37,0,0,1-.28.62Z"/><path class="bd874a68-0338-4431-8236-6184b32db1ea" d="M21.22,55.71a.35.35,0,0,1-.28-.13l-.51-.6A.38.38,0,1,1,21,54.5l.5.59a.38.38,0,0,1,0,.53A.38.38,0,0,1,21.22,55.71Z"/><path class="f4a264de-d04d-4187-b43f-ef4f5111b5e4" d="M30.24,33.24a.43.43,0,0,0,.31.14.43.43,0,0,0,.32-.14l6.2-7a.41.41,0,0,0,0-.56l-6.2-6.91a.4.4,0,0,0-.31-.14.39.39,0,0,0-.3.14L24,25.69a.43.43,0,0,0,0,.56Z"/><path class="bc9119f8-7fb1-4875-9d22-5fb573ed1a83" d="M30.55,33.46a.52.52,0,0,1-.37-.16l-6.2-7a.49.49,0,0,1,0-.66l6.2-6.92a.52.52,0,0,1,.74,0l6.21,6.92a.51.51,0,0,1,0,.66l-6.2,7A.53.53,0,0,1,30.55,33.46Zm0-14.74a.32.32,0,0,0-.24.11L24.1,25.75a.33.33,0,0,0,0,.44l6.2,7a.36.36,0,0,0,.51,0l6.2-7a.32.32,0,0,0,0-.44l-6.2-6.92A.33.33,0,0,0,30.55,18.72Z"/><path class="bd874a68-0338-4431-8236-6184b32db1ea" d="M34.05,24.64a.37.37,0,0,1-.28-.13l-3.53-4.06A.37.37,0,1,1,30.8,20L34.33,24a.37.37,0,0,1,0,.53A.36.36,0,0,1,34.05,24.64Z"/><path class="bd874a68-0338-4431-8236-6184b32db1ea" d="M35.18,26a.36.36,0,0,1-.29-.13l-.5-.6a.37.37,0,0,1,0-.53.38.38,0,0,1,.53,0l.5.59a.37.37,0,0,1,0,.53A.38.38,0,0,1,35.18,26Z"/><path class="f4a264de-d04d-4187-b43f-ef4f5111b5e4" d="M30.24,71.63a.43.43,0,0,0,.31.14.43.43,0,0,0,.32-.14l6.2-7a.4.4,0,0,0,0-.55l-6.2-6.92a.4.4,0,0,0-.31-.14.39.39,0,0,0-.3.14L24,64.08a.41.41,0,0,0,0,.55Z"/><path class="bc9119f8-7fb1-4875-9d22-5fb573ed1a83" d="M30.55,71.85a.5.5,0,0,1-.37-.17l-6.2-7A.49.49,0,0,1,24,64l6.2-6.91a.51.51,0,0,1,.74,0L37.13,64a.51.51,0,0,1,0,.66l-6.2,7A.5.5,0,0,1,30.55,71.85Zm0-14.75a.33.33,0,0,0-.24.12L24.1,64.13a.35.35,0,0,0,0,.45l6.2,7a.35.35,0,0,0,.51,0l6.2-7a.34.34,0,0,0,0-.45l-6.2-6.91A.33.33,0,0,0,30.55,57.1Z"/><path class="bd874a68-0338-4431-8236-6184b32db1ea" d="M34.05,63a.34.34,0,0,1-.28-.13l-3.53-4.06a.37.37,0,1,1,.56-.49l3.53,4.06a.37.37,0,0,1,0,.53A.36.36,0,0,1,34.05,63Z"/><path class="bd874a68-0338-4431-8236-6184b32db1ea" d="M35.18,64.33a.36.36,0,0,1-.29-.13l-.5-.6a.37.37,0,0,1,0-.53.38.38,0,0,1,.53,0l.5.6a.36.36,0,0,1-.28.61Z"/><path class="f4a264de-d04d-4187-b43f-ef4f5111b5e4" d="M44.19,63a.43.43,0,0,0,.32.14.43.43,0,0,0,.31-.14L51,56a.43.43,0,0,0,0-.56l-6.2-6.91a.43.43,0,0,0-.31-.14.4.4,0,0,0-.31.14L38,55.45A.43.43,0,0,0,38,56Z"/><path class="bc9119f8-7fb1-4875-9d22-5fb573ed1a83" d="M44.51,63.22a.53.53,0,0,1-.38-.16l-6.2-7a.5.5,0,0,1,0-.66l6.21-6.92a.52.52,0,0,1,.74,0l6.2,6.92a.5.5,0,0,1,0,.66l-6.2,7A.52.52,0,0,1,44.51,63.22Zm0-14.74a.33.33,0,0,0-.25.11l-6.2,6.92a.32.32,0,0,0,0,.44l6.21,7a.35.35,0,0,0,.5,0L51,56a.33.33,0,0,0,0-.44l-6.21-6.92A.32.32,0,0,0,44.51,48.48Z"/><path class="bd874a68-0338-4431-8236-6184b32db1ea" d="M48,54.4a.39.39,0,0,1-.28-.13l-3.53-4.06a.37.37,0,1,1,.56-.49l3.53,4.06a.38.38,0,0,1,0,.53A.4.4,0,0,1,48,54.4Z"/><path class="bd874a68-0338-4431-8236-6184b32db1ea" d="M49.13,55.71a.37.37,0,0,1-.29-.13l-.5-.6a.37.37,0,0,1,0-.53.38.38,0,0,1,.53,0l.51.59a.38.38,0,0,1-.29.62Z"/><path class="f4a264de-d04d-4187-b43f-ef4f5111b5e4" d="M16.29,43a.41.41,0,0,0,.62,0l6.2-7a.41.41,0,0,0,0-.55l-6.2-6.92a.41.41,0,0,0-.62,0l-6.2,6.92a.41.41,0,0,0,0,.55Z"/><path class="bc9119f8-7fb1-4875-9d22-5fb573ed1a83" d="M16.6,43.21a.48.48,0,0,1-.37-.17L10,36a.49.49,0,0,1,0-.66l6.2-6.91a.51.51,0,0,1,.74,0l6.2,6.91a.49.49,0,0,1,0,.66L17,43A.48.48,0,0,1,16.6,43.21Zm0-14.74a.36.36,0,0,0-.25.11l-6.2,6.91a.35.35,0,0,0,0,.45l6.2,7a.33.33,0,0,0,.5,0l6.2-7a.33.33,0,0,0,0-.45l-6.2-6.91A.33.33,0,0,0,16.6,28.47Z"/><path class="bd874a68-0338-4431-8236-6184b32db1ea" d="M20.1,34.38a.37.37,0,0,1-.29-.13l-3.53-4.06a.38.38,0,0,1,.57-.49l3.53,4.06a.37.37,0,0,1-.28.62Z"/><path class="bd874a68-0338-4431-8236-6184b32db1ea" d="M21.22,35.7a.37.37,0,0,1-.28-.14l-.51-.6a.38.38,0,0,1,.58-.48l.5.6a.38.38,0,0,1,0,.53A.38.38,0,0,1,21.22,35.7Z"/><path class="f4a264de-d04d-4187-b43f-ef4f5111b5e4" d="M44.19,43a.43.43,0,0,0,.32.14.43.43,0,0,0,.31-.14L51,36a.41.41,0,0,0,0-.55l-6.2-6.92a.43.43,0,0,0-.31-.14.4.4,0,0,0-.31.14L38,35.44A.41.41,0,0,0,38,36Z"/><path class="bc9119f8-7fb1-4875-9d22-5fb573ed1a83" d="M44.51,43.21a.5.5,0,0,1-.38-.17l-6.2-7a.5.5,0,0,1,0-.66l6.21-6.91a.51.51,0,0,1,.74,0l6.2,6.91a.5.5,0,0,1,0,.66l-6.2,7A.5.5,0,0,1,44.51,43.21Zm0-14.74a.33.33,0,0,0-.25.11l-6.2,6.91a.34.34,0,0,0,0,.45l6.21,7a.33.33,0,0,0,.5,0l6.2-7a.35.35,0,0,0,0-.45l-6.21-6.91A.32.32,0,0,0,44.51,28.47Z"/><path class="bd874a68-0338-4431-8236-6184b32db1ea" d="M48,34.38a.35.35,0,0,1-.28-.13l-3.53-4.06a.37.37,0,0,1,.56-.49l3.53,4.06a.38.38,0,0,1,0,.53A.4.4,0,0,1,48,34.38Z"/><path class="bd874a68-0338-4431-8236-6184b32db1ea" d="M49.13,35.7a.38.38,0,0,1-.29-.14l-.5-.6a.37.37,0,0,1,0-.53.38.38,0,0,1,.53,0l.51.6a.38.38,0,0,1-.29.62Z"/><path class="f4a264de-d04d-4187-b43f-ef4f5111b5e4" d="M44.2,23a.4.4,0,0,0,.31.14.41.41,0,0,0,.31-.14L51,16a.43.43,0,0,0,0-.56l-6.2-6.91a.43.43,0,0,0-.31-.14.41.41,0,0,0-.31.14L38,15.42A.41.41,0,0,0,38,16Z"/><path class="bc9119f8-7fb1-4875-9d22-5fb573ed1a83" d="M44.51,23.19a.55.55,0,0,1-.38-.16l-6.2-7a.5.5,0,0,1,0-.66l6.2-6.92a.51.51,0,0,1,.74,0l6.2,6.92a.49.49,0,0,1,0,.66l-6.2,7A.52.52,0,0,1,44.51,23.19Zm-.25-.27a.35.35,0,0,0,.5,0l6.2-7a.33.33,0,0,0,0-.44l-6.2-6.92a.35.35,0,0,0-.5,0l-6.2,6.92a.32.32,0,0,0,0,.44Z"/><path class="bd874a68-0338-4431-8236-6184b32db1ea" d="M48,14.37a.39.39,0,0,1-.28-.13l-3.53-4.06a.38.38,0,0,1,0-.53.37.37,0,0,1,.53,0l3.53,4.06a.37.37,0,0,1,0,.52A.35.35,0,0,1,48,14.37Z"/><path class="bd874a68-0338-4431-8236-6184b32db1ea" d="M49.13,15.68a.41.41,0,0,1-.29-.13l-.5-.6a.37.37,0,0,1,0-.53.39.39,0,0,1,.53,0l.51.6a.38.38,0,0,1-.05.53A.36.36,0,0,1,49.13,15.68Z"/><path class="f4a264de-d04d-4187-b43f-ef4f5111b5e4" d="M16.29,83a.41.41,0,0,0,.62,0l6.2-7a.41.41,0,0,0,0-.55l-6.2-6.92a.41.41,0,0,0-.62,0l-6.2,6.92a.41.41,0,0,0,0,.55Z"/><path class="bc9119f8-7fb1-4875-9d22-5fb573ed1a83" d="M16.6,68.34a.48.48,0,0,1,.37.17l6.2,6.91a.49.49,0,0,1,0,.66l-6.2,7a.51.51,0,0,1-.74,0l-6.2-7a.49.49,0,0,1,0-.66l6.2-6.91A.48.48,0,0,1,16.6,68.34Zm0,14.75a.33.33,0,0,0,.25-.12l6.2-7a.33.33,0,0,0,0-.45l-6.2-6.91a.34.34,0,0,0-.5,0l-6.2,6.91a.35.35,0,0,0,0,.45l6.2,7A.35.35,0,0,0,16.6,83.09Z"/><path class="bd874a68-0338-4431-8236-6184b32db1ea" d="M16.56,69.61a.41.41,0,0,1,.29.13l3.53,4.06a.38.38,0,0,1-.57.49l-3.53-4.06a.37.37,0,0,1,.28-.62Z"/><path class="bd874a68-0338-4431-8236-6184b32db1ea" d="M20.72,74.39a.37.37,0,0,1,.29.13l.5.6a.37.37,0,1,1-.57.48l-.51-.6a.38.38,0,0,1,.05-.53A.41.41,0,0,1,20.72,74.39Z"/><path class="f4a264de-d04d-4187-b43f-ef4f5111b5e4" d="M44.19,83a.43.43,0,0,0,.32.14.43.43,0,0,0,.31-.14L51,76a.41.41,0,0,0,0-.55l-6.21-6.92a.39.39,0,0,0-.3-.14.4.4,0,0,0-.31.14L38,75.48A.41.41,0,0,0,38,76Z"/><path class="bc9119f8-7fb1-4875-9d22-5fb573ed1a83" d="M44.51,68.34a.5.5,0,0,1,.37.17l6.2,6.91a.49.49,0,0,1,0,.66l-6.2,7a.53.53,0,0,1-.75,0l-6.2-7a.5.5,0,0,1,0-.66l6.21-6.91A.47.47,0,0,1,44.51,68.34Zm0,14.75a.37.37,0,0,0,.25-.12L51,76a.35.35,0,0,0,0-.45l-6.21-6.91a.32.32,0,0,0-.49,0l-6.21,6.91a.35.35,0,0,0,0,.45l6.21,7A.33.33,0,0,0,44.51,83.09Z"/><path class="bd874a68-0338-4431-8236-6184b32db1ea" d="M44.47,69.61a.39.39,0,0,1,.28.13l3.53,4.06a.37.37,0,1,1-.56.49l-3.53-4.06a.38.38,0,0,1,0-.53A.38.38,0,0,1,44.47,69.61Z"/><path class="bd874a68-0338-4431-8236-6184b32db1ea" d="M48.62,74.39a.36.36,0,0,1,.29.13l.51.6a.38.38,0,0,1-.58.48l-.5-.6a.37.37,0,0,1,0-.53A.43.43,0,0,1,48.62,74.39Z"/></g></g></svg>