<svg xmlns="http://www.w3.org/2000/svg" viewBox="0 0 61.11 91.54"><defs><style>.b662c7fe-8ba9-4c10-8547-75d8fb3ab12c{fill:none;}.e318ff81-608a-4fde-a732-24b2eab93092{fill:#adadad;}.e681377e-058a-4e89-a13c-2368ffccb4c6{fill:#f6413a;}.b0a8e85b-01e7-40f6-9b19-529d03b91d2f{fill:#c51611;}.e9cefc55-5c31-42b7-878b-66c5f0d30cc6{fill:#ffb3b3;}</style></defs><title>D_1</title><g id="aec4d1c6-37b2-43fe-a1df-ca19bcbb3f14" data-name="Capa 2"><g id="af62e76e-a01d-4487-ae4e-cd076c36d433" data-name="Objects"><rect class="b662c7fe-8ba9-4c10-8547-75d8fb3ab12c" x="0.13" y="0.12" width="60.86" height="91.29" rx="2.4"/><path class="e318ff81-608a-4fde-a732-24b2eab93092" d="M58.59,91.54H2.52A2.53,2.53,0,0,1,0,89V2.52A2.52,2.52,0,0,1,2.52,0H58.59a2.52,2.52,0,0,1,2.52,2.52V89A2.53,2.53,0,0,1,58.59,91.54ZM2.52.25A2.27,2.27,0,0,0,.25,2.52V89a2.28,2.28,0,0,0,2.27,2.28H58.59A2.28,2.28,0,0,0,60.86,89V2.52A2.27,2.27,0,0,0,58.59.25Z"/><path class="e681377e-058a-4e89-a13c-2368ffccb4c6" d="M3.91,2.68,1.61,8.39a.35.35,0,0,1-.11.15.24.24,0,0,1-.15,0,.26.26,0,0,1-.2-.07.33.33,0,0,1-.07-.17.26.26,0,0,1,0-.12l2.5-6.1A.37.37,0,0,1,3.7,2a.31.31,0,0,1,.17,0A.22.22,0,0,1,4,2a.26.26,0,0,1,.11.14L6.63,8.19a.5.5,0,0,1,0,.12.24.24,0,0,1-.09.2.27.27,0,0,1-.2.07.24.24,0,0,1-.16-.05.31.31,0,0,1-.11-.14L3.74,2.64Zm-1.75,4,.23-.55H5.32l.12.55Z"/><path class="e681377e-058a-4e89-a13c-2368ffccb4c6" d="M3.73,12.1a.09.09,0,0,0,.07,0,.08.08,0,0,0,.07,0l1.44-1.62a.11.11,0,0,0,0-.13L3.87,8.75a.08.08,0,0,0-.07,0,.09.09,0,0,0-.07,0l-1.44,1.6a.11.11,0,0,0,0,.13Z"/><path class="b0a8e85b-01e7-40f6-9b19-529d03b91d2f" d="M3.8,12.15a.09.09,0,0,1-.08,0L2.28,10.49a.11.11,0,0,1,0-.15l1.44-1.6a.11.11,0,0,1,.17,0l1.43,1.6a.11.11,0,0,1,0,.15L3.89,12.11A.1.1,0,0,1,3.8,12.15Zm0-3.41-.06,0L2.31,10.37a.07.07,0,0,0,0,.1l1.43,1.62a.09.09,0,0,0,.12,0L5.3,10.47a.09.09,0,0,0,0-.1L3.86,8.76Z"/><path class="e9cefc55-5c31-42b7-878b-66c5f0d30cc6" d="M4.61,10.11a.07.07,0,0,1-.06,0l-.82-.94A.09.09,0,0,1,3.86,9l.82.94a.1.1,0,0,1,0,.13Z"/><path class="e9cefc55-5c31-42b7-878b-66c5f0d30cc6" d="M4.87,10.41a.07.07,0,0,1-.06,0l-.12-.14a.09.09,0,1,1,.13-.11l.12.14a.08.08,0,0,1,0,.12A.07.07,0,0,1,4.87,10.41Z"/><path class="e681377e-058a-4e89-a13c-2368ffccb4c6" d="M57.2,88.85l2.3-5.71a.27.27,0,0,1,.25-.19A.28.28,0,0,1,60,83a.3.3,0,0,1,.08.18.22.22,0,0,1,0,.11l-2.5,6.11a.31.31,0,0,1-.12.15.38.38,0,0,1-.16,0,.34.34,0,0,1-.17,0,.53.53,0,0,1-.11-.14l-2.48-6.08a.52.52,0,0,1,0-.11.29.29,0,0,1,.08-.21.37.37,0,0,1,.2-.07.31.31,0,0,1,.17,0,.49.49,0,0,1,.11.14l2.35,5.75Zm1.75-4-.24.56H55.78l-.11-.56Z"/><path class="e681377e-058a-4e89-a13c-2368ffccb4c6" d="M57.38,79.43a.11.11,0,0,0-.07,0,.11.11,0,0,0-.08,0L55.8,81.05a.09.09,0,0,0,0,.13l1.43,1.6a.09.09,0,0,0,.08,0,.09.09,0,0,0,.07,0l1.43-1.6a.09.09,0,0,0,0-.13Z"/><path class="b0a8e85b-01e7-40f6-9b19-529d03b91d2f" d="M57.31,79.38a.12.12,0,0,1,.08,0L58.83,81a.11.11,0,0,1,0,.15L57.39,82.8a.12.12,0,0,1-.17,0l-1.44-1.61a.11.11,0,0,1,0-.15l1.44-1.62A.13.13,0,0,1,57.31,79.38Zm0,3.42a.05.05,0,0,0,0,0l1.44-1.6a.07.07,0,0,0,0-.1l-1.44-1.63a.08.08,0,0,0-.11,0l-1.44,1.63a.07.07,0,0,0,0,.1l1.44,1.6A.06.06,0,0,0,57.31,82.8Z"/><path class="e9cefc55-5c31-42b7-878b-66c5f0d30cc6" d="M56.5,81.43a.09.09,0,0,1,.06,0l.82.94a.09.09,0,1,1-.13.11l-.82-.94a.08.08,0,0,1,0-.12S56.48,81.43,56.5,81.43Z"/><path class="e9cefc55-5c31-42b7-878b-66c5f0d30cc6" d="M56.23,81.12a.09.09,0,0,1,.07,0l.12.14a.09.09,0,0,1,0,.12.09.09,0,0,1-.13,0l-.11-.13a.09.09,0,0,1,0-.13Z"/><path class="e681377e-058a-4e89-a13c-2368ffccb4c6" d="M30,58.09a.73.73,0,0,0,.53.24.7.7,0,0,0,.53-.24L41.66,46.16a.71.71,0,0,0,0-.94L31.08,33.43a.69.69,0,0,0-1,0L19.45,45.22a.7.7,0,0,0,0,.94Z"/><path class="b0a8e85b-01e7-40f6-9b19-529d03b91d2f" d="M30.55,58.47a.85.85,0,0,1-.63-.29L19.35,46.25a.83.83,0,0,1,0-1.12L29.92,33.34a.87.87,0,0,1,1.26,0L41.76,45.13a.85.85,0,0,1,0,1.12L31.19,58.18A.86.86,0,0,1,30.55,58.47Zm0-25.14a.57.57,0,0,0-.42.19L19.56,45.31a.56.56,0,0,0,0,.76L30.13,58A.59.59,0,0,0,31,58L41.55,46.07a.58.58,0,0,0,0-.76L31,33.52A.57.57,0,0,0,30.55,33.33Z"/><path class="e9cefc55-5c31-42b7-878b-66c5f0d30cc6" d="M36.51,43.42A.62.62,0,0,1,36,43.2l-6-6.92a.64.64,0,0,1,.06-.9.63.63,0,0,1,.9.06l6,6.92a.63.63,0,0,1-.06.9A.61.61,0,0,1,36.51,43.42Z"/><path class="e9cefc55-5c31-42b7-878b-66c5f0d30cc6" d="M38.43,45.66a.62.62,0,0,1-.48-.23l-.86-1a.64.64,0,0,1,.07-.9.65.65,0,0,1,.91.08l.85,1a.64.64,0,0,1-.07.9A.66.66,0,0,1,38.43,45.66Z"/></g></g></svg>