<svg xmlns="http://www.w3.org/2000/svg" viewBox="0 0 61.11 91.54"><defs><style>.aae5337f-8ca7-4c0e-ac96-8f20a7d5daeb{fill:none;}.fed790b4-9dbd-44ba-924a-358701888375{fill:#adadad;}.a39356fc-fd6e-45d6-b4ad-9a57da134c70{fill:#f6413a;}.e42baba6-04f3-42f0-8278-adde6aeae8ef{fill:#c51611;}.f10e3856-ab03-4981-be4f-009a9892622e{fill:#ffb3b3;}</style></defs><title>D_9</title><g id="e7d5f8db-d556-43e6-b34b-cceedfe80359" data-name="Capa 2"><g id="a4776a02-4539-4120-968b-070b1442652d" data-name="Objects"><rect class="aae5337f-8ca7-4c0e-ac96-8f20a7d5daeb" x="0.13" y="0.12" width="60.86" height="91.29" rx="2.4"/><path class="fed790b4-9dbd-44ba-924a-358701888375" d="M58.59,91.54H2.52A2.53,2.53,0,0,1,0,89V2.52A2.52,2.52,0,0,1,2.52,0H58.59a2.52,2.52,0,0,1,2.52,2.52V89A2.53,2.53,0,0,1,58.59,91.54ZM2.52.25A2.27,2.27,0,0,0,.25,2.52V89a2.28,2.28,0,0,0,2.27,2.28H58.59A2.28,2.28,0,0,0,60.86,89V2.52A2.27,2.27,0,0,0,58.59.25Z"/><path class="a39356fc-fd6e-45d6-b4ad-9a57da134c70" d="M4,1.82A2.19,2.19,0,0,1,5,2a1.93,1.93,0,0,1,.69.53,2.38,2.38,0,0,1,.39.76,2.91,2.91,0,0,1,.13.87,4.81,4.81,0,0,1-.11,1,6.06,6.06,0,0,1-.35,1,5,5,0,0,1-.59,1,4.53,4.53,0,0,1-.8.84,3.5,3.5,0,0,1-1,.59l-.12,0A.29.29,0,0,1,3,8.54a.25.25,0,0,1-.09-.2A.24.24,0,0,1,3,8.17a.42.42,0,0,1,.17-.11,3.75,3.75,0,0,0,1-.67,5.11,5.11,0,0,0,.87-1,3.61,3.61,0,0,0,.48-1.22L5.74,5a2.53,2.53,0,0,1-.44.55,2.05,2.05,0,0,1-1.38.52,1.72,1.72,0,0,1-.78-.18,2,2,0,0,1-.62-.48,2.42,2.42,0,0,1-.41-.69A2.18,2.18,0,0,1,2,3.94a2.11,2.11,0,0,1,.27-1A2.27,2.27,0,0,1,3,2.12,1.94,1.94,0,0,1,4,1.82Zm0,.55a1.52,1.52,0,0,0-.77.19,1.39,1.39,0,0,0-.54.56,1.8,1.8,0,0,0-.19.82,1.85,1.85,0,0,0,.17.78A1.36,1.36,0,0,0,4,5.54a1.6,1.6,0,0,0,.86-.23,1.45,1.45,0,0,0,.56-.59,1.67,1.67,0,0,0,.19-.81,1.56,1.56,0,0,0-.19-.76,1.42,1.42,0,0,0-.53-.56A1.57,1.57,0,0,0,4.05,2.37Z"/><path class="a39356fc-fd6e-45d6-b4ad-9a57da134c70" d="M3.73,12.1a.09.09,0,0,0,.07,0,.08.08,0,0,0,.07,0l1.44-1.62a.11.11,0,0,0,0-.13L3.87,8.75a.08.08,0,0,0-.07,0,.09.09,0,0,0-.07,0l-1.44,1.6a.11.11,0,0,0,0,.13Z"/><path class="e42baba6-04f3-42f0-8278-adde6aeae8ef" d="M3.8,12.15a.09.09,0,0,1-.08,0L2.28,10.49a.11.11,0,0,1,0-.15l1.44-1.6a.11.11,0,0,1,.17,0l1.43,1.6a.11.11,0,0,1,0,.15L3.89,12.11A.1.1,0,0,1,3.8,12.15Zm0-3.41-.06,0L2.31,10.37a.07.07,0,0,0,0,.1l1.43,1.62a.09.09,0,0,0,.12,0L5.3,10.47a.09.09,0,0,0,0-.1L3.86,8.76Z"/><path class="f10e3856-ab03-4981-be4f-009a9892622e" d="M4.61,10.11a.07.07,0,0,1-.06,0l-.82-.94A.09.09,0,0,1,3.86,9l.82.94a.1.1,0,0,1,0,.13Z"/><path class="f10e3856-ab03-4981-be4f-009a9892622e" d="M4.87,10.41a.07.07,0,0,1-.06,0l-.12-.14a.09.09,0,1,1,.13-.11l.12.14a.08.08,0,0,1,0,.12A.07.07,0,0,1,4.87,10.41Z"/><path class="a39356fc-fd6e-45d6-b4ad-9a57da134c70" d="M57.2,89.71a2.25,2.25,0,0,1-1-.19,2,2,0,0,1-.68-.54,2.31,2.31,0,0,1-.4-.76,3.15,3.15,0,0,1-.12-.87,4.31,4.31,0,0,1,.11-1,5.22,5.22,0,0,1,.35-1,5.46,5.46,0,0,1,.58-1,4.89,4.89,0,0,1,.8-.84,3.68,3.68,0,0,1,1-.59.23.23,0,0,1,.11,0,.33.33,0,0,1,.22.08.29.29,0,0,1,.09.21.21.21,0,0,1-.07.17.37.37,0,0,1-.16.1,3.87,3.87,0,0,0-1,.68,4.85,4.85,0,0,0-.87,1,3.18,3.18,0,0,0-.48,1.22l-.21.12A2.09,2.09,0,0,1,56,86a2,2,0,0,1,.61-.38,2.1,2.1,0,0,1,.76-.14,1.73,1.73,0,0,1,.79.18,1.7,1.7,0,0,1,.62.48,2.38,2.38,0,0,1,.55,1.49,2.1,2.1,0,0,1-.27,1,2.13,2.13,0,0,1-.74.78A1.91,1.91,0,0,1,57.2,89.71Zm0-.54A1.56,1.56,0,0,0,58,89a1.4,1.4,0,0,0,.53-.55,1.69,1.69,0,0,0,.2-.82,1.85,1.85,0,0,0-.17-.78,1.37,1.37,0,0,0-.5-.59,1.32,1.32,0,0,0-.8-.23,1.66,1.66,0,0,0-.87.22,1.56,1.56,0,0,0-.55.59,1.74,1.74,0,0,0-.2.82,1.61,1.61,0,0,0,.19.75,1.51,1.51,0,0,0,1.39.79Z"/><path class="a39356fc-fd6e-45d6-b4ad-9a57da134c70" d="M57.38,79.43a.11.11,0,0,0-.07,0,.11.11,0,0,0-.08,0L55.8,81.05a.09.09,0,0,0,0,.13l1.43,1.6a.09.09,0,0,0,.08,0,.09.09,0,0,0,.07,0l1.43-1.6a.09.09,0,0,0,0-.13Z"/><path class="e42baba6-04f3-42f0-8278-adde6aeae8ef" d="M57.31,79.38a.12.12,0,0,1,.08,0L58.83,81a.11.11,0,0,1,0,.15L57.39,82.8a.12.12,0,0,1-.17,0l-1.44-1.61a.11.11,0,0,1,0-.15l1.44-1.62A.13.13,0,0,1,57.31,79.38Zm0,3.42a.05.05,0,0,0,0,0l1.44-1.6a.07.07,0,0,0,0-.1l-1.44-1.63a.08.08,0,0,0-.11,0l-1.44,1.63a.07.07,0,0,0,0,.1l1.44,1.6A.06.06,0,0,0,57.31,82.8Z"/><path class="f10e3856-ab03-4981-be4f-009a9892622e" d="M56.5,81.43a.09.09,0,0,1,.06,0l.82.94a.09.09,0,1,1-.13.11l-.82-.94a.08.08,0,0,1,0-.12S56.48,81.43,56.5,81.43Z"/><path class="f10e3856-ab03-4981-be4f-009a9892622e" d="M56.23,81.12a.09.09,0,0,1,.07,0l.12.14a.09.09,0,0,1,0,.12.09.09,0,0,1-.13,0l-.11-.13a.09.09,0,0,1,0-.13Z"/><path class="a39356fc-fd6e-45d6-b4ad-9a57da134c70" d="M16.29,23a.41.41,0,0,0,.62,0l6.2-7a.43.43,0,0,0,0-.56l-6.2-6.91a.41.41,0,0,0-.62,0l-6.2,6.91a.43.43,0,0,0,0,.56Z"/><path class="e42baba6-04f3-42f0-8278-adde6aeae8ef" d="M16.6,23.19a.52.52,0,0,1-.37-.16L10,16a.49.49,0,0,1,0-.66l6.2-6.92a.51.51,0,0,1,.74,0l6.2,6.92a.49.49,0,0,1,0,.66L17,23A.51.51,0,0,1,16.6,23.19Zm0-14.74a.36.36,0,0,0-.25.11l-6.2,6.92a.33.33,0,0,0,0,.44l6.2,7a.35.35,0,0,0,.5,0l6.2-7a.31.31,0,0,0,0-.44l-6.2-6.92A.33.33,0,0,0,16.6,8.45Z"/><path class="f10e3856-ab03-4981-be4f-009a9892622e" d="M20.1,14.37a.41.41,0,0,1-.29-.13l-3.53-4.06a.38.38,0,0,1,0-.53.37.37,0,0,1,.53,0l3.53,4.06a.36.36,0,0,1,0,.52A.34.34,0,0,1,20.1,14.37Z"/><path class="f10e3856-ab03-4981-be4f-009a9892622e" d="M21.23,15.68a.39.39,0,0,1-.29-.13l-.51-.6a.38.38,0,0,1,.05-.53.39.39,0,0,1,.53,0l.5.6a.37.37,0,0,1,0,.53A.38.38,0,0,1,21.23,15.68Z"/><path class="a39356fc-fd6e-45d6-b4ad-9a57da134c70" d="M16.29,63a.41.41,0,0,0,.62,0l6.2-7a.43.43,0,0,0,0-.56l-6.2-6.91a.41.41,0,0,0-.62,0l-6.2,6.91a.43.43,0,0,0,0,.56Z"/><path class="e42baba6-04f3-42f0-8278-adde6aeae8ef" d="M16.6,63.22a.51.51,0,0,1-.37-.16l-6.2-7a.49.49,0,0,1,0-.66l6.2-6.92a.52.52,0,0,1,.74,0l6.2,6.92a.49.49,0,0,1,0,.66l-6.2,7A.51.51,0,0,1,16.6,63.22Zm0-14.74a.36.36,0,0,0-.25.11l-6.2,6.92a.33.33,0,0,0,0,.44l6.2,7a.35.35,0,0,0,.5,0l6.2-7a.31.31,0,0,0,0-.44l-6.2-6.92A.33.33,0,0,0,16.6,48.48Z"/><path class="f10e3856-ab03-4981-be4f-009a9892622e" d="M20.1,54.4a.41.41,0,0,1-.29-.13l-3.53-4.06a.38.38,0,0,1,.57-.49l3.53,4.06a.37.37,0,0,1-.28.62Z"/><path class="f10e3856-ab03-4981-be4f-009a9892622e" d="M21.22,55.71a.35.35,0,0,1-.28-.13l-.51-.6A.38.38,0,1,1,21,54.5l.5.59a.38.38,0,0,1,0,.53A.38.38,0,0,1,21.22,55.71Z"/><path class="a39356fc-fd6e-45d6-b4ad-9a57da134c70" d="M30.24,33.24a.43.43,0,0,0,.31.14.43.43,0,0,0,.32-.14l6.2-7a.41.41,0,0,0,0-.56l-6.2-6.91a.4.4,0,0,0-.31-.14.39.39,0,0,0-.3.14L24,25.69a.43.43,0,0,0,0,.56Z"/><path class="e42baba6-04f3-42f0-8278-adde6aeae8ef" d="M30.55,33.46a.52.52,0,0,1-.37-.16l-6.2-7a.49.49,0,0,1,0-.66l6.2-6.92a.52.52,0,0,1,.74,0l6.21,6.92a.51.51,0,0,1,0,.66l-6.2,7A.53.53,0,0,1,30.55,33.46Zm0-14.74a.32.32,0,0,0-.24.11L24.1,25.75a.33.33,0,0,0,0,.44l6.2,7a.36.36,0,0,0,.51,0l6.2-7a.32.32,0,0,0,0-.44l-6.2-6.92A.33.33,0,0,0,30.55,18.72Z"/><path class="f10e3856-ab03-4981-be4f-009a9892622e" d="M34.05,24.64a.37.37,0,0,1-.28-.13l-3.53-4.06A.37.37,0,1,1,30.8,20L34.33,24a.37.37,0,0,1,0,.53A.36.36,0,0,1,34.05,24.64Z"/><path class="f10e3856-ab03-4981-be4f-009a9892622e" d="M35.18,26a.36.36,0,0,1-.29-.13l-.5-.6a.37.37,0,0,1,0-.53.38.38,0,0,1,.53,0l.5.59a.37.37,0,0,1,0,.53A.38.38,0,0,1,35.18,26Z"/><path class="a39356fc-fd6e-45d6-b4ad-9a57da134c70" d="M44.19,63a.43.43,0,0,0,.32.14.43.43,0,0,0,.31-.14L51,56a.43.43,0,0,0,0-.56l-6.2-6.91a.43.43,0,0,0-.31-.14.4.4,0,0,0-.31.14L38,55.45A.43.43,0,0,0,38,56Z"/><path class="e42baba6-04f3-42f0-8278-adde6aeae8ef" d="M44.51,63.22a.53.53,0,0,1-.38-.16l-6.2-7a.5.5,0,0,1,0-.66l6.21-6.92a.52.52,0,0,1,.74,0l6.2,6.92a.5.5,0,0,1,0,.66l-6.2,7A.52.52,0,0,1,44.51,63.22Zm0-14.74a.33.33,0,0,0-.25.11l-6.2,6.92a.32.32,0,0,0,0,.44l6.21,7a.35.35,0,0,0,.5,0L51,56a.33.33,0,0,0,0-.44l-6.21-6.92A.32.32,0,0,0,44.51,48.48Z"/><path class="f10e3856-ab03-4981-be4f-009a9892622e" d="M48,54.4a.39.39,0,0,1-.28-.13l-3.53-4.06a.37.37,0,1,1,.56-.49l3.53,4.06a.38.38,0,0,1,0,.53A.4.4,0,0,1,48,54.4Z"/><path class="f10e3856-ab03-4981-be4f-009a9892622e" d="M49.13,55.71a.37.37,0,0,1-.29-.13l-.5-.6a.37.37,0,0,1,0-.53.38.38,0,0,1,.53,0l.51.59a.38.38,0,0,1-.29.62Z"/><path class="a39356fc-fd6e-45d6-b4ad-9a57da134c70" d="M16.29,43a.41.41,0,0,0,.62,0l6.2-7a.41.41,0,0,0,0-.55l-6.2-6.92a.41.41,0,0,0-.62,0l-6.2,6.92a.41.41,0,0,0,0,.55Z"/><path class="e42baba6-04f3-42f0-8278-adde6aeae8ef" d="M16.6,43.21a.48.48,0,0,1-.37-.17L10,36a.49.49,0,0,1,0-.66l6.2-6.91a.51.51,0,0,1,.74,0l6.2,6.91a.49.49,0,0,1,0,.66L17,43A.48.48,0,0,1,16.6,43.21Zm0-14.74a.36.36,0,0,0-.25.11l-6.2,6.91a.35.35,0,0,0,0,.45l6.2,7a.33.33,0,0,0,.5,0l6.2-7a.33.33,0,0,0,0-.45l-6.2-6.91A.33.33,0,0,0,16.6,28.47Z"/><path class="f10e3856-ab03-4981-be4f-009a9892622e" d="M20.1,34.38a.37.37,0,0,1-.29-.13l-3.53-4.06a.38.38,0,0,1,.57-.49l3.53,4.06a.37.37,0,0,1-.28.62Z"/><path class="f10e3856-ab03-4981-be4f-009a9892622e" d="M21.22,35.7a.37.37,0,0,1-.28-.14l-.51-.6a.38.38,0,0,1,.58-.48l.5.6a.38.38,0,0,1,0,.53A.38.38,0,0,1,21.22,35.7Z"/><path class="a39356fc-fd6e-45d6-b4ad-9a57da134c70" d="M44.19,43a.43.43,0,0,0,.32.14.43.43,0,0,0,.31-.14L51,36a.41.41,0,0,0,0-.55l-6.2-6.92a.43.43,0,0,0-.31-.14.4.4,0,0,0-.31.14L38,35.44A.41.41,0,0,0,38,36Z"/><path class="e42baba6-04f3-42f0-8278-adde6aeae8ef" d="M44.51,43.21a.5.5,0,0,1-.38-.17l-6.2-7a.5.5,0,0,1,0-.66l6.21-6.91a.51.51,0,0,1,.74,0l6.2,6.91a.5.5,0,0,1,0,.66l-6.2,7A.5.5,0,0,1,44.51,43.21Zm0-14.74a.33.33,0,0,0-.25.11l-6.2,6.91a.34.34,0,0,0,0,.45l6.21,7a.33.33,0,0,0,.5,0l6.2-7a.35.35,0,0,0,0-.45l-6.21-6.91A.32.32,0,0,0,44.51,28.47Z"/><path class="f10e3856-ab03-4981-be4f-009a9892622e" d="M48,34.38a.35.35,0,0,1-.28-.13l-3.53-4.06a.37.37,0,0,1,.56-.49l3.53,4.06a.38.38,0,0,1,0,.53A.4.4,0,0,1,48,34.38Z"/><path class="f10e3856-ab03-4981-be4f-009a9892622e" d="M49.13,35.7a.38.38,0,0,1-.29-.14l-.5-.6a.37.37,0,0,1,0-.53.38.38,0,0,1,.53,0l.51.6a.38.38,0,0,1-.29.62Z"/><path class="a39356fc-fd6e-45d6-b4ad-9a57da134c70" d="M44.2,23a.4.4,0,0,0,.31.14.41.41,0,0,0,.31-.14L51,16a.43.43,0,0,0,0-.56l-6.2-6.91a.43.43,0,0,0-.31-.14.41.41,0,0,0-.31.14L38,15.42A.41.41,0,0,0,38,16Z"/><path class="e42baba6-04f3-42f0-8278-adde6aeae8ef" d="M44.51,23.19a.55.55,0,0,1-.38-.16l-6.2-7a.5.5,0,0,1,0-.66l6.2-6.92a.51.51,0,0,1,.74,0l6.2,6.92a.49.49,0,0,1,0,.66l-6.2,7A.52.52,0,0,1,44.51,23.19Zm-.25-.27a.35.35,0,0,0,.5,0l6.2-7a.33.33,0,0,0,0-.44l-6.2-6.92a.35.35,0,0,0-.5,0l-6.2,6.92a.32.32,0,0,0,0,.44Z"/><path class="f10e3856-ab03-4981-be4f-009a9892622e" d="M48,14.37a.39.39,0,0,1-.28-.13l-3.53-4.06a.38.38,0,0,1,0-.53.37.37,0,0,1,.53,0l3.53,4.06a.37.37,0,0,1,0,.52A.35.35,0,0,1,48,14.37Z"/><path class="f10e3856-ab03-4981-be4f-009a9892622e" d="M49.13,15.68a.41.41,0,0,1-.29-.13l-.5-.6a.37.37,0,0,1,0-.53.39.39,0,0,1,.53,0l.51.6a.38.38,0,0,1-.05.53A.36.36,0,0,1,49.13,15.68Z"/><path class="a39356fc-fd6e-45d6-b4ad-9a57da134c70" d="M16.29,83a.41.41,0,0,0,.62,0l6.2-7a.41.41,0,0,0,0-.55l-6.2-6.92a.41.41,0,0,0-.62,0l-6.2,6.92a.41.41,0,0,0,0,.55Z"/><path class="e42baba6-04f3-42f0-8278-adde6aeae8ef" d="M16.6,68.34a.48.48,0,0,1,.37.17l6.2,6.91a.49.49,0,0,1,0,.66l-6.2,7a.51.51,0,0,1-.74,0l-6.2-7a.49.49,0,0,1,0-.66l6.2-6.91A.48.48,0,0,1,16.6,68.34Zm0,14.75a.33.33,0,0,0,.25-.12l6.2-7a.33.33,0,0,0,0-.45l-6.2-6.91a.34.34,0,0,0-.5,0l-6.2,6.91a.35.35,0,0,0,0,.45l6.2,7A.35.35,0,0,0,16.6,83.09Z"/><path class="f10e3856-ab03-4981-be4f-009a9892622e" d="M16.56,69.61a.41.41,0,0,1,.29.13l3.53,4.06a.38.38,0,0,1-.57.49l-3.53-4.06a.37.37,0,0,1,.28-.62Z"/><path class="f10e3856-ab03-4981-be4f-009a9892622e" d="M20.72,74.39a.37.37,0,0,1,.29.13l.5.6a.37.37,0,1,1-.57.48l-.51-.6a.38.38,0,0,1,.05-.53A.41.41,0,0,1,20.72,74.39Z"/><path class="a39356fc-fd6e-45d6-b4ad-9a57da134c70" d="M44.19,83a.43.43,0,0,0,.32.14.43.43,0,0,0,.31-.14L51,76a.41.41,0,0,0,0-.55l-6.21-6.92a.39.39,0,0,0-.3-.14.4.4,0,0,0-.31.14L38,75.48A.41.41,0,0,0,38,76Z"/><path class="e42baba6-04f3-42f0-8278-adde6aeae8ef" d="M44.51,68.34a.5.5,0,0,1,.37.17l6.2,6.91a.49.49,0,0,1,0,.66l-6.2,7a.53.53,0,0,1-.75,0l-6.2-7a.5.5,0,0,1,0-.66l6.21-6.91A.47.47,0,0,1,44.51,68.34Zm0,14.75a.37.37,0,0,0,.25-.12L51,76a.35.35,0,0,0,0-.45l-6.21-6.91a.32.32,0,0,0-.49,0l-6.21,6.91a.35.35,0,0,0,0,.45l6.21,7A.33.33,0,0,0,44.51,83.09Z"/><path class="f10e3856-ab03-4981-be4f-009a9892622e" d="M44.47,69.61a.39.39,0,0,1,.28.13l3.53,4.06a.37.37,0,1,1-.56.49l-3.53-4.06a.38.38,0,0,1,0-.53A.38.38,0,0,1,44.47,69.61Z"/><path class="f10e3856-ab03-4981-be4f-009a9892622e" d="M48.62,74.39a.36.36,0,0,1,.29.13l.51.6a.38.38,0,0,1-.58.48l-.5-.6a.37.37,0,0,1,0-.53A.43.43,0,0,1,48.62,74.39Z"/></g></g></svg>