<svg xmlns="http://www.w3.org/2000/svg" viewBox="0 0 61.11 91.54"><defs><style>.aeae1201-7a9d-4e0d-9a0d-879960871062{fill:none;}.ed9f9361-9dda-486a-98b7-1dd3d23a9152{fill:#adadad;}.a21b6b87-93d8-4760-907c-a34a11d1419e{fill:#f6413a;}.ae1d6843-85c4-450e-aa78-6c849048d2f5{fill:#c51611;}.b6fdf956-9b78-4745-8ec6-6d2167552bc5{fill:#ffb3b3;}</style></defs><title>D_2</title><g id="bfd72046-fc63-429d-abaf-5b8d7edb56c4" data-name="Capa 2"><g id="a56fc794-77d7-4bb8-b1b5-18900b38c112" data-name="Objects"><rect class="aeae1201-7a9d-4e0d-9a0d-879960871062" x="0.13" y="0.12" width="60.86" height="91.29" rx="2.4"/><path class="ed9f9361-9dda-486a-98b7-1dd3d23a9152" d="M58.59,91.54H2.52A2.53,2.53,0,0,1,0,89V2.52A2.52,2.52,0,0,1,2.52,0H58.59a2.52,2.52,0,0,1,2.52,2.52V89A2.53,2.53,0,0,1,58.59,91.54ZM2.52.25A2.27,2.27,0,0,0,.25,2.52V89a2.28,2.28,0,0,0,2.27,2.28H58.59A2.28,2.28,0,0,0,60.86,89V2.52A2.27,2.27,0,0,0,58.59.25Z"/><path class="a21b6b87-93d8-4760-907c-a34a11d1419e" d="M5.47,8.08a.27.27,0,0,1,.19.08.3.3,0,0,1,.08.2.28.28,0,0,1-.08.2.26.26,0,0,1-.19.07H1.92a.31.31,0,0,1-.21-.07.26.26,0,0,1-.09-.21.31.31,0,0,1,.07-.2L3.88,5.74a5.74,5.74,0,0,0,.77-1,1.79,1.79,0,0,0,.27-.9,1.56,1.56,0,0,0-.17-.74,1.2,1.2,0,0,0-.5-.47,1.66,1.66,0,0,0-.8-.17,1.63,1.63,0,0,0-.81.21,1.31,1.31,0,0,0-.56.69.35.35,0,0,1-.1.11.2.2,0,0,1-.14.06.32.32,0,0,1-.2-.08.21.21,0,0,1-.1-.17.22.22,0,0,1,0-.13L1.67,3a1.81,1.81,0,0,1,.76-.81,2.17,2.17,0,0,1,1.06-.27,2.32,2.32,0,0,1,1.1.24,1.69,1.69,0,0,1,.69.66,2,2,0,0,1,.24,1,2.19,2.19,0,0,1-.12.7A3.39,3.39,0,0,1,5,5.25a7.4,7.4,0,0,1-.71.88L2.46,8.2l-.09-.12Z"/><path class="a21b6b87-93d8-4760-907c-a34a11d1419e" d="M3.73,12.1a.09.09,0,0,0,.07,0,.08.08,0,0,0,.07,0l1.44-1.62a.11.11,0,0,0,0-.13L3.87,8.75a.08.08,0,0,0-.07,0,.09.09,0,0,0-.07,0l-1.44,1.6a.11.11,0,0,0,0,.13Z"/><path class="ae1d6843-85c4-450e-aa78-6c849048d2f5" d="M3.8,12.15a.09.09,0,0,1-.08,0L2.28,10.49a.11.11,0,0,1,0-.15l1.44-1.6a.11.11,0,0,1,.17,0l1.43,1.6a.11.11,0,0,1,0,.15L3.89,12.11A.1.1,0,0,1,3.8,12.15Zm0-3.41-.06,0L2.31,10.37a.07.07,0,0,0,0,.1l1.43,1.62a.09.09,0,0,0,.12,0L5.3,10.47a.09.09,0,0,0,0-.1L3.86,8.76Z"/><path class="b6fdf956-9b78-4745-8ec6-6d2167552bc5" d="M4.61,10.11a.07.07,0,0,1-.06,0l-.82-.94A.09.09,0,0,1,3.86,9l.82.94a.1.1,0,0,1,0,.13Z"/><path class="b6fdf956-9b78-4745-8ec6-6d2167552bc5" d="M4.87,10.41a.07.07,0,0,1-.06,0l-.12-.14a.09.09,0,1,1,.13-.11l.12.14a.08.08,0,0,1,0,.12A.07.07,0,0,1,4.87,10.41Z"/><path class="a21b6b87-93d8-4760-907c-a34a11d1419e" d="M55.64,83.45a.27.27,0,0,1-.27-.27.24.24,0,0,1,.08-.2.27.27,0,0,1,.19-.08h3.55a.32.32,0,0,1,.21.08.23.23,0,0,1,.09.21.34.34,0,0,1-.08.2L57.23,85.8a6,6,0,0,0-.78,1,1.82,1.82,0,0,0-.26.9,1.51,1.51,0,0,0,.17.73,1.16,1.16,0,0,0,.5.48,1.77,1.77,0,0,0,.79.17,1.63,1.63,0,0,0,.81-.21,1.36,1.36,0,0,0,.57-.69.35.35,0,0,1,.1-.12.24.24,0,0,1,.14,0,.32.32,0,0,1,.2.08.22.22,0,0,1,.1.17.38.38,0,0,1,0,.13l-.1.15a1.76,1.76,0,0,1-.75.8,2.08,2.08,0,0,1-1.06.28,2.29,2.29,0,0,1-1.1-.24,1.74,1.74,0,0,1-.7-.67,1.91,1.91,0,0,1-.24-1,2.21,2.21,0,0,1,.13-.7,3.31,3.31,0,0,1,.38-.75,7.83,7.83,0,0,1,.71-.88l1.85-2.07.09.11Z"/><path class="a21b6b87-93d8-4760-907c-a34a11d1419e" d="M57.38,79.43a.11.11,0,0,0-.07,0,.11.11,0,0,0-.08,0L55.8,81.05a.09.09,0,0,0,0,.13l1.43,1.6a.09.09,0,0,0,.08,0,.09.09,0,0,0,.07,0l1.43-1.6a.09.09,0,0,0,0-.13Z"/><path class="ae1d6843-85c4-450e-aa78-6c849048d2f5" d="M57.31,79.38a.12.12,0,0,1,.08,0L58.83,81a.11.11,0,0,1,0,.15L57.39,82.8a.12.12,0,0,1-.17,0l-1.44-1.61a.11.11,0,0,1,0-.15l1.44-1.62A.13.13,0,0,1,57.31,79.38Zm0,3.42a.05.05,0,0,0,0,0l1.44-1.6a.07.07,0,0,0,0-.1l-1.44-1.63a.08.08,0,0,0-.11,0l-1.44,1.63a.07.07,0,0,0,0,.1l1.44,1.6A.06.06,0,0,0,57.31,82.8Z"/><path class="b6fdf956-9b78-4745-8ec6-6d2167552bc5" d="M56.5,81.43a.09.09,0,0,1,.06,0l.82.94a.09.09,0,1,1-.13.11l-.82-.94a.08.08,0,0,1,0-.12S56.48,81.43,56.5,81.43Z"/><path class="b6fdf956-9b78-4745-8ec6-6d2167552bc5" d="M56.23,81.12a.09.09,0,0,1,.07,0l.12.14a.09.09,0,0,1,0,.12.09.09,0,0,1-.13,0l-.11-.13a.09.09,0,0,1,0-.13Z"/><path class="a21b6b87-93d8-4760-907c-a34a11d1419e" d="M30.24,37.18a.45.45,0,0,0,.31.14.43.43,0,0,0,.31-.14l6.21-7a.4.4,0,0,0,0-.55l-6.2-6.92a.41.41,0,0,0-.31-.14.43.43,0,0,0-.31.14L24,29.63a.41.41,0,0,0,0,.55Z"/><path class="ae1d6843-85c4-450e-aa78-6c849048d2f5" d="M30.55,37.4a.5.5,0,0,1-.37-.17l-6.2-7a.49.49,0,0,1,0-.66l6.2-6.91a.51.51,0,0,1,.74,0l6.2,6.91a.5.5,0,0,1,0,.66l-6.2,7A.5.5,0,0,1,30.55,37.4Zm0-14.75a.32.32,0,0,0-.24.11L24.1,29.68a.35.35,0,0,0,0,.45l6.2,7a.35.35,0,0,0,.5,0l6.21-7a.34.34,0,0,0,0-.45l-6.2-6.92A.33.33,0,0,0,30.55,22.65Z"/><path class="b6fdf956-9b78-4745-8ec6-6d2167552bc5" d="M34.05,28.57a.34.34,0,0,1-.28-.13l-3.54-4.06a.38.38,0,0,1,.57-.49L34.33,28a.37.37,0,0,1,0,.53A.36.36,0,0,1,34.05,28.57Z"/><path class="b6fdf956-9b78-4745-8ec6-6d2167552bc5" d="M35.18,29.88a.36.36,0,0,1-.29-.13l-.5-.6a.37.37,0,0,1,0-.53.38.38,0,0,1,.53.05l.5.6a.37.37,0,0,1,0,.53A.43.43,0,0,1,35.18,29.88Z"/><path class="a21b6b87-93d8-4760-907c-a34a11d1419e" d="M30.24,68.82a.43.43,0,0,0,.31.14.43.43,0,0,0,.32-.14l6.2-7a.41.41,0,0,0,0-.56l-6.2-6.91a.4.4,0,0,0-.31-.14.43.43,0,0,0-.31.14L24,61.27a.43.43,0,0,0,0,.56Z"/><path class="ae1d6843-85c4-450e-aa78-6c849048d2f5" d="M30.55,54.14a.49.49,0,0,1,.37.16l6.21,6.92a.51.51,0,0,1,0,.66l-6.2,7a.53.53,0,0,1-.75,0l-6.2-7a.49.49,0,0,1,0-.66l6.2-6.92A.52.52,0,0,1,30.55,54.14Zm0,14.74a.36.36,0,0,0,.26-.11l6.2-7a.32.32,0,0,0,0-.44l-6.2-6.92a.34.34,0,0,0-.49,0L24.1,61.33a.33.33,0,0,0,0,.44l6.2,7A.36.36,0,0,0,30.55,68.88Z"/><path class="b6fdf956-9b78-4745-8ec6-6d2167552bc5" d="M30.52,55.41a.35.35,0,0,1,.28.13l3.53,4.06a.37.37,0,0,1,0,.53.37.37,0,0,1-.52,0L30.23,56a.39.39,0,0,1,0-.53A.38.38,0,0,1,30.52,55.41Z"/><path class="b6fdf956-9b78-4745-8ec6-6d2167552bc5" d="M34.67,60.18a.38.38,0,0,1,.29.14l.5.59a.38.38,0,0,1-.57.49l-.5-.6a.37.37,0,0,1,0-.53A.38.38,0,0,1,34.67,60.18Z"/></g></g></svg>