<svg xmlns="http://www.w3.org/2000/svg" viewBox="0 0 61.11 91.54"><defs><style>.a75e3266-b34d-47ef-929d-9f3f308f8ce0{fill:none;}.b245ec61-a227-4d0a-aa79-db9e93f2da84{fill:#adadad;}.e28c0509-80f0-488e-bc57-5337abe045fd{fill:#f6413a;}.a892d3b1-f104-42cc-88ad-4744f19cb1b7{fill:#c51611;}.b67075a7-4405-48af-801d-f39716719584{fill:#ffb3b3;}</style></defs><title>D_8</title><g id="aa73ca6c-ce3e-4fec-a5ef-bd5bbe06c903" data-name="Capa 2"><g id="baab19b8-435e-4ec4-83c6-33e146a6e247" data-name="Objects"><rect class="a75e3266-b34d-47ef-929d-9f3f308f8ce0" x="0.13" y="0.12" width="60.86" height="91.29" rx="2.4"/><path class="b245ec61-a227-4d0a-aa79-db9e93f2da84" d="M58.59,91.54H2.52A2.53,2.53,0,0,1,0,89V2.52A2.52,2.52,0,0,1,2.52,0H58.59a2.52,2.52,0,0,1,2.52,2.52V89A2.53,2.53,0,0,1,58.59,91.54ZM2.52.25A2.27,2.27,0,0,0,.25,2.52V89a2.28,2.28,0,0,0,2.27,2.28H58.59A2.28,2.28,0,0,0,60.86,89V2.52A2.27,2.27,0,0,0,58.59.25Z"/><path class="e28c0509-80f0-488e-bc57-5337abe045fd" d="M3.33,12.2a.1.1,0,0,0,.14,0l1.44-1.62a.11.11,0,0,0,0-.13L3.47,8.85a.1.1,0,0,0-.14,0l-1.44,1.6a.11.11,0,0,0,0,.13Z"/><path class="a892d3b1-f104-42cc-88ad-4744f19cb1b7" d="M3.4,12.25a.12.12,0,0,1-.09,0L1.88,10.59a.11.11,0,0,1,0-.15l1.44-1.6a.11.11,0,0,1,.17,0l1.43,1.6a.11.11,0,0,1,0,.15L3.49,12.21A.11.11,0,0,1,3.4,12.25Zm0-3.41a.07.07,0,0,0-.06,0l-1.43,1.6a.08.08,0,0,0,0,.11l1.43,1.62a.09.09,0,0,0,.12,0L4.9,10.57a.11.11,0,0,0,0-.11L3.46,8.86A.07.07,0,0,0,3.4,8.84Z"/><path class="b67075a7-4405-48af-801d-f39716719584" d="M4.21,10.21a.07.07,0,0,1-.06,0l-.82-.94a.09.09,0,0,1,0-.13.09.09,0,0,1,.12,0l.82.94a.11.11,0,0,1,0,.13Z"/><path class="b67075a7-4405-48af-801d-f39716719584" d="M4.47,10.51a.07.07,0,0,1-.06,0l-.12-.14a.09.09,0,1,1,.13-.11l.12.14a.09.09,0,0,1,0,.12Z"/><path class="e28c0509-80f0-488e-bc57-5337abe045fd" d="M4.36,5.22l0-.08a1.85,1.85,0,0,1,.6.36,2,2,0,0,1,.42.57,1.74,1.74,0,0,1-.12,1.64,1.91,1.91,0,0,1-.72.66,2.11,2.11,0,0,1-1,.25,2,2,0,0,1-1-.25,1.87,1.87,0,0,1-.73-.66,1.68,1.68,0,0,1-.27-.93A1.64,1.64,0,0,1,1.61,6a1.7,1.7,0,0,1,.44-.55,2.26,2.26,0,0,1,.56-.35l0,.09A2,2,0,0,1,2.1,4.9a2,2,0,0,1-.36-.51,1.59,1.59,0,0,1-.14-.66,1.69,1.69,0,0,1,.25-.92,1.82,1.82,0,0,1,.68-.64,1.85,1.85,0,0,1,.94-.24,1.92,1.92,0,0,1,.95.24,1.87,1.87,0,0,1,.67.64,1.78,1.78,0,0,1,.24.92,1.42,1.42,0,0,1-.14.66,1.68,1.68,0,0,1-.36.51A1.71,1.71,0,0,1,4.36,5.22ZM3.47,8.08a1.48,1.48,0,0,0,1-.37A1.26,1.26,0,0,0,4.73,6.1a1.34,1.34,0,0,0-.53-.47,1.63,1.63,0,0,0-1.45,0,1.41,1.41,0,0,0-.53.47,1.26,1.26,0,0,0,.21,1.61A1.44,1.44,0,0,0,3.47,8.08ZM2.18,3.73a1.21,1.21,0,0,0,.18.66,1.11,1.11,0,0,0,.47.44A1.3,1.3,0,0,0,3.47,5a1.24,1.24,0,0,0,.63-.17,1.2,1.2,0,0,0,.48-.44,1.21,1.21,0,0,0,.18-.66,1.21,1.21,0,0,0-.36-.91,1.29,1.29,0,0,0-.93-.35,1.28,1.28,0,0,0-.93.35A1.18,1.18,0,0,0,2.18,3.73Z"/><path class="e28c0509-80f0-488e-bc57-5337abe045fd" d="M57.78,79.33a.11.11,0,0,0-.07,0,.11.11,0,0,0-.08,0L56.2,81a.09.09,0,0,0,0,.12l1.43,1.61a.11.11,0,0,0,.08,0,.11.11,0,0,0,.07,0l1.44-1.61a.09.09,0,0,0,0-.12Z"/><path class="a892d3b1-f104-42cc-88ad-4744f19cb1b7" d="M57.71,79.28a.12.12,0,0,1,.08,0l1.44,1.62a.12.12,0,0,1,0,.16l-1.44,1.6a.11.11,0,0,1-.17,0l-1.44-1.6a.12.12,0,0,1,0-.16l1.44-1.62A.13.13,0,0,1,57.71,79.28Zm0,3.42a.05.05,0,0,0,0,0l1.44-1.6a.07.07,0,0,0,0-.1l-1.44-1.62s-.08,0-.11,0L56.21,81a.09.09,0,0,0,0,.1l1.44,1.6A.06.06,0,0,0,57.71,82.7Z"/><path class="b67075a7-4405-48af-801d-f39716719584" d="M56.9,81.33a.07.07,0,0,1,.06,0l.82.94a.09.09,0,1,1-.13.11l-.82-.94a.08.08,0,0,1,0-.12Z"/><path class="b67075a7-4405-48af-801d-f39716719584" d="M56.64,81a.06.06,0,0,1,.06,0l.12.13a.1.1,0,0,1,0,.13.09.09,0,0,1-.12,0l-.12-.14a.09.09,0,0,1,0-.13Z"/><path class="e28c0509-80f0-488e-bc57-5337abe045fd" d="M56.75,86.31l0,.09a2.07,2.07,0,0,1-.6-.37,1.76,1.76,0,0,1-.42-.56,1.73,1.73,0,0,1-.16-.72,1.68,1.68,0,0,1,.27-.93,2,2,0,0,1,.73-.66,2.21,2.21,0,0,1,1-.24,2.16,2.16,0,0,1,1,.24,2,2,0,0,1,.73.66,1.68,1.68,0,0,1,.27.93,1.58,1.58,0,0,1-.17.74,1.71,1.71,0,0,1-.43.56,2.6,2.6,0,0,1-.56.35l0-.1a1.87,1.87,0,0,1,.47.34,1.76,1.76,0,0,1,.37.51,1.59,1.59,0,0,1,.14.66,1.75,1.75,0,0,1-.25.91,1.85,1.85,0,0,1-.68.65,2.06,2.06,0,0,1-1.89,0,1.82,1.82,0,0,1-.67-.65,1.75,1.75,0,0,1-.25-.91,1.47,1.47,0,0,1,.15-.67,1.64,1.64,0,0,1,.36-.5A1.82,1.82,0,0,1,56.75,86.31Zm.89-2.85a1.52,1.52,0,0,0-1,.36,1.26,1.26,0,0,0-.21,1.61,1.45,1.45,0,0,0,.53.48,1.6,1.6,0,0,0,.73.17,1.58,1.58,0,0,0,.71-.17,1.37,1.37,0,0,0,.53-.48,1.16,1.16,0,0,0,.2-.68,1.21,1.21,0,0,0-.4-.93A1.5,1.5,0,0,0,57.64,83.46Zm1.29,4.35a1.22,1.22,0,0,0-.18-.67,1.27,1.27,0,0,0-.48-.44,1.26,1.26,0,0,0-.63-.16,1.29,1.29,0,0,0-.64.16,1.32,1.32,0,0,0-.47.44,1.22,1.22,0,0,0-.18.67,1.19,1.19,0,0,0,.36.9,1.41,1.41,0,0,0,1.86,0A1.19,1.19,0,0,0,58.93,87.81Z"/><path class="e28c0509-80f0-488e-bc57-5337abe045fd" d="M16.29,23a.41.41,0,0,0,.62,0l6.2-7a.43.43,0,0,0,0-.56l-6.2-6.91a.41.41,0,0,0-.62,0l-6.2,6.91a.43.43,0,0,0,0,.56Z"/><path class="a892d3b1-f104-42cc-88ad-4744f19cb1b7" d="M16.6,23.19a.51.51,0,0,1-.37-.16L10,16a.49.49,0,0,1,0-.66l6.2-6.92a.51.51,0,0,1,.74,0l6.2,6.92a.49.49,0,0,1,0,.66L17,23A.51.51,0,0,1,16.6,23.19Zm0-14.74a.36.36,0,0,0-.25.11l-6.2,6.92a.33.33,0,0,0,0,.44l6.2,7a.35.35,0,0,0,.5,0l6.2-7a.31.31,0,0,0,0-.44l-6.2-6.92A.33.33,0,0,0,16.6,8.45Z"/><path class="b67075a7-4405-48af-801d-f39716719584" d="M20.1,14.37a.41.41,0,0,1-.29-.13l-3.53-4.06a.38.38,0,0,1,0-.53.37.37,0,0,1,.53,0l3.53,4.06a.36.36,0,0,1,0,.52A.34.34,0,0,1,20.1,14.37Z"/><path class="b67075a7-4405-48af-801d-f39716719584" d="M21.23,15.68a.39.39,0,0,1-.29-.13l-.51-.6a.38.38,0,0,1,.05-.53.39.39,0,0,1,.53,0l.5.6a.37.37,0,0,1,0,.53A.38.38,0,0,1,21.23,15.68Z"/><path class="e28c0509-80f0-488e-bc57-5337abe045fd" d="M44.2,23a.4.4,0,0,0,.31.14.43.43,0,0,0,.31-.14L51,16a.43.43,0,0,0,0-.56l-6.2-6.91a.43.43,0,0,0-.31-.14.41.41,0,0,0-.31.14L38,15.42A.41.41,0,0,0,38,16Z"/><path class="a892d3b1-f104-42cc-88ad-4744f19cb1b7" d="M44.51,23.19a.53.53,0,0,1-.38-.16l-6.2-7a.5.5,0,0,1,0-.66l6.2-6.92a.51.51,0,0,1,.74,0l6.2,6.92a.49.49,0,0,1,0,.66l-6.2,7A.52.52,0,0,1,44.51,23.19Zm-.25-.27a.35.35,0,0,0,.5,0l6.2-7a.33.33,0,0,0,0-.44l-6.2-6.92a.35.35,0,0,0-.5,0l-6.2,6.92a.32.32,0,0,0,0,.44Z"/><path class="b67075a7-4405-48af-801d-f39716719584" d="M48,14.37a.39.39,0,0,1-.28-.13l-3.53-4.06a.38.38,0,0,1,0-.53.37.37,0,0,1,.53,0l3.53,4.06a.37.37,0,0,1,0,.52A.35.35,0,0,1,48,14.37Z"/><path class="b67075a7-4405-48af-801d-f39716719584" d="M49.13,15.68a.41.41,0,0,1-.29-.13l-.5-.6a.37.37,0,0,1,0-.53.39.39,0,0,1,.53,0l.51.6a.38.38,0,0,1-.05.53A.36.36,0,0,1,49.13,15.68Z"/><path class="e28c0509-80f0-488e-bc57-5337abe045fd" d="M44.19,83a.43.43,0,0,0,.32.14.43.43,0,0,0,.31-.14L51,76a.41.41,0,0,0,0-.55l-6.21-6.92a.39.39,0,0,0-.3-.14.4.4,0,0,0-.31.14L38,75.48A.41.41,0,0,0,38,76Z"/><path class="a892d3b1-f104-42cc-88ad-4744f19cb1b7" d="M44.51,68.34a.5.5,0,0,1,.37.17l6.2,6.91a.5.5,0,0,1,0,.66l-6.2,7a.53.53,0,0,1-.75,0l-6.2-7a.51.51,0,0,1,0-.66l6.21-6.91A.47.47,0,0,1,44.51,68.34Zm0,14.75a.37.37,0,0,0,.25-.12L51,76a.34.34,0,0,0,0-.45l-6.2-6.91a.33.33,0,0,0-.49,0l-6.2,6.91a.34.34,0,0,0,0,.45l6.2,7A.37.37,0,0,0,44.51,83.09Z"/><path class="b67075a7-4405-48af-801d-f39716719584" d="M44.47,69.61a.39.39,0,0,1,.28.13l3.53,4.06a.37.37,0,1,1-.56.49l-3.53-4.06a.38.38,0,0,1,0-.53A.38.38,0,0,1,44.47,69.61Z"/><path class="b67075a7-4405-48af-801d-f39716719584" d="M48.62,74.39a.36.36,0,0,1,.29.13l.5.6a.37.37,0,0,1,0,.53.38.38,0,0,1-.53-.05l-.5-.6a.37.37,0,0,1,0-.53A.43.43,0,0,1,48.62,74.39Z"/><path class="e28c0509-80f0-488e-bc57-5337abe045fd" d="M16.29,83a.41.41,0,0,0,.62,0l6.2-7a.41.41,0,0,0,0-.55l-6.2-6.92a.41.41,0,0,0-.62,0l-6.2,6.92a.41.41,0,0,0,0,.55Z"/><path class="a892d3b1-f104-42cc-88ad-4744f19cb1b7" d="M16.6,68.34a.48.48,0,0,1,.37.17l6.2,6.91a.49.49,0,0,1,0,.66l-6.2,7a.51.51,0,0,1-.74,0l-6.2-7a.49.49,0,0,1,0-.66l6.2-6.91A.48.48,0,0,1,16.6,68.34Zm0,14.75a.33.33,0,0,0,.25-.12l6.2-7a.33.33,0,0,0,0-.45l-6.2-6.91a.33.33,0,0,0-.5,0l-6.2,6.91a.35.35,0,0,0,0,.45l6.2,7A.35.35,0,0,0,16.6,83.09Z"/><path class="b67075a7-4405-48af-801d-f39716719584" d="M16.57,69.61a.41.41,0,0,1,.28.13l3.53,4.06a.37.37,0,0,1,0,.53.38.38,0,0,1-.53,0l-3.53-4.06a.38.38,0,0,1,0-.53A.38.38,0,0,1,16.57,69.61Z"/><path class="b67075a7-4405-48af-801d-f39716719584" d="M20.72,74.39a.37.37,0,0,1,.29.13l.5.6a.39.39,0,0,1,0,.53.38.38,0,0,1-.53-.05l-.51-.6a.38.38,0,0,1,.05-.53A.41.41,0,0,1,20.72,74.39Z"/><path class="e28c0509-80f0-488e-bc57-5337abe045fd" d="M16.29,51a.41.41,0,0,0,.62,0l6.2-7a.41.41,0,0,0,0-.55l-6.2-6.91a.41.41,0,0,0-.62,0l-6.2,6.91a.41.41,0,0,0,0,.55Z"/><path class="a892d3b1-f104-42cc-88ad-4744f19cb1b7" d="M16.6,51.24a.48.48,0,0,1-.37-.17l-6.2-7a.49.49,0,0,1,0-.66l6.2-6.92a.51.51,0,0,1,.74,0l6.2,6.92a.49.49,0,0,1,0,.66l-6.2,7A.48.48,0,0,1,16.6,51.24Zm0-14.74a.36.36,0,0,0-.25.11l-6.2,6.91a.35.35,0,0,0,0,.45l6.2,7a.35.35,0,0,0,.5,0l6.2-7a.31.31,0,0,0,0-.44l-6.2-6.92A.33.33,0,0,0,16.6,36.5Z"/><path class="b67075a7-4405-48af-801d-f39716719584" d="M20.1,42.42a.41.41,0,0,1-.29-.13l-3.53-4.06a.38.38,0,0,1,.57-.5l3.53,4.06a.37.37,0,0,1,0,.53A.34.34,0,0,1,20.1,42.42Z"/><path class="b67075a7-4405-48af-801d-f39716719584" d="M21.23,43.73a.37.37,0,0,1-.29-.14L20.43,43a.38.38,0,0,1,.58-.49l.5.6a.37.37,0,0,1,0,.53A.38.38,0,0,1,21.23,43.73Z"/><path class="e28c0509-80f0-488e-bc57-5337abe045fd" d="M44.2,51a.4.4,0,0,0,.31.14.43.43,0,0,0,.31-.14L51,44a.41.41,0,0,0,0-.55l-6.2-6.91a.43.43,0,0,0-.31-.14.41.41,0,0,0-.31.14L38,43.47A.4.4,0,0,0,38,44Z"/><path class="a892d3b1-f104-42cc-88ad-4744f19cb1b7" d="M44.51,51.24a.5.5,0,0,1-.38-.17l-6.2-7a.5.5,0,0,1,0-.66l6.2-6.92a.51.51,0,0,1,.74,0l6.2,6.92a.49.49,0,0,1,0,.66l-6.2,7A.5.5,0,0,1,44.51,51.24ZM44.26,51a.35.35,0,0,0,.5,0L51,44a.33.33,0,0,0,0-.44l-6.2-6.92a.35.35,0,0,0-.5,0l-6.2,6.91a.34.34,0,0,0,0,.45Z"/><path class="b67075a7-4405-48af-801d-f39716719584" d="M48,42.42a.39.39,0,0,1-.28-.13l-3.53-4.06a.38.38,0,0,1,.56-.5l3.53,4.06a.38.38,0,0,1,0,.53A.35.35,0,0,1,48,42.42Z"/><path class="b67075a7-4405-48af-801d-f39716719584" d="M49.13,43.73a.38.38,0,0,1-.29-.14l-.5-.59a.37.37,0,0,1,0-.53.38.38,0,0,1,.53,0l.51.6a.38.38,0,0,1-.05.53A.36.36,0,0,1,49.13,43.73Z"/><path class="e28c0509-80f0-488e-bc57-5337abe045fd" d="M30.52,36.28a.43.43,0,0,0,.32.14.43.43,0,0,0,.31-.14l6.2-7a.41.41,0,0,0,0-.55l-6.2-6.92a.43.43,0,0,0-.31-.14.4.4,0,0,0-.31.14l-6.2,6.92a.4.4,0,0,0,0,.55Z"/><path class="a892d3b1-f104-42cc-88ad-4744f19cb1b7" d="M30.84,36.5a.5.5,0,0,1-.38-.17l-6.2-7a.51.51,0,0,1,0-.66l6.21-6.91a.51.51,0,0,1,.74,0l6.2,6.91a.5.5,0,0,1,0,.66l-6.2,7A.5.5,0,0,1,30.84,36.5Zm0-14.75a.3.3,0,0,0-.25.12l-6.2,6.91a.34.34,0,0,0,0,.45l6.21,7a.33.33,0,0,0,.5,0l6.2-7a.35.35,0,0,0,0-.45l-6.21-6.91A.3.3,0,0,0,30.84,21.75Z"/><path class="b67075a7-4405-48af-801d-f39716719584" d="M34.33,27.67a.35.35,0,0,1-.28-.13l-3.53-4.06a.37.37,0,0,1,.56-.49l3.53,4.06a.38.38,0,0,1,0,.53A.38.38,0,0,1,34.33,27.67Z"/><path class="b67075a7-4405-48af-801d-f39716719584" d="M35.46,29a.37.37,0,0,1-.29-.13l-.5-.6a.37.37,0,0,1,0-.53.38.38,0,0,1,.53.05l.51.6a.38.38,0,0,1,0,.53A.37.37,0,0,1,35.46,29Z"/><path class="e28c0509-80f0-488e-bc57-5337abe045fd" d="M30.53,67.93a.43.43,0,0,0,.31.14.45.45,0,0,0,.31-.14l6.2-7a.41.41,0,0,0,0-.55l-6.2-6.92a.43.43,0,0,0-.31-.14.41.41,0,0,0-.31.14l-6.2,6.92a.4.4,0,0,0,0,.55Z"/><path class="a892d3b1-f104-42cc-88ad-4744f19cb1b7" d="M30.84,53.24a.5.5,0,0,1,.37.17l6.2,6.91a.49.49,0,0,1,0,.66l-6.2,7a.51.51,0,0,1-.74,0l-6.21-7a.5.5,0,0,1,0-.66l6.2-6.91A.48.48,0,0,1,30.84,53.24Zm0,14.74a.36.36,0,0,0,.25-.11l6.2-7a.35.35,0,0,0,0-.45l-6.2-6.92a.35.35,0,0,0-.5,0l-6.2,6.92a.34.34,0,0,0,0,.45l6.21,7A.33.33,0,0,0,30.84,68Z"/><path class="b67075a7-4405-48af-801d-f39716719584" d="M30.8,54.51a.35.35,0,0,1,.28.13l3.53,4.06a.37.37,0,1,1-.56.49l-3.53-4.06a.38.38,0,0,1,0-.53A.4.4,0,0,1,30.8,54.51Z"/><path class="b67075a7-4405-48af-801d-f39716719584" d="M35,59.28a.37.37,0,0,1,.29.14l.51.6a.38.38,0,0,1-.58.48l-.5-.6a.37.37,0,0,1,0-.53A.38.38,0,0,1,35,59.28Z"/></g></g></svg>