<svg xmlns="http://www.w3.org/2000/svg" viewBox="0 0 61.11 91.54"><defs><style>.bef73008-067c-486b-88e5-59efb012c672{fill:none;}.bcf6e029-40b0-430c-aee8-990881f93fa5{fill:#adadad;}.f5e18311-95cf-4068-9ebc-9be1dccc4a4d{fill:#f6413a;}.f57d64f7-fe8b-488f-b047-cca67197f828{fill:#c51611;}.ea45ac5c-d843-49f4-8f80-28a88820581f{fill:#ffb3b3;}</style></defs><title>D_5</title><g id="b9f0dfa8-045c-44e4-b4f3-15a49b1598ab" data-name="Capa 2"><g id="f4060d81-dc5a-438a-8a43-8d98826b02ee" data-name="Objects"><rect class="bef73008-067c-486b-88e5-59efb012c672" x="0.13" y="0.12" width="60.86" height="91.29" rx="2.4"/><path class="bcf6e029-40b0-430c-aee8-990881f93fa5" d="M58.59,91.54H2.52A2.53,2.53,0,0,1,0,89V2.52A2.52,2.52,0,0,1,2.52,0H58.59a2.52,2.52,0,0,1,2.52,2.52V89A2.53,2.53,0,0,1,58.59,91.54ZM2.52.25A2.27,2.27,0,0,0,.25,2.52V89a2.28,2.28,0,0,0,2.27,2.28H58.59A2.28,2.28,0,0,0,60.86,89V2.52A2.27,2.27,0,0,0,58.59.25Z"/><path class="f5e18311-95cf-4068-9ebc-9be1dccc4a4d" d="M3.56,8.56a2.36,2.36,0,0,1-.78-.13,1.94,1.94,0,0,1-.69-.38A.31.31,0,0,1,2,7.94a.38.38,0,0,1,0-.13A.29.29,0,0,1,2,7.62a.25.25,0,0,1,.2-.09.32.32,0,0,1,.21.09A2.1,2.1,0,0,0,3,7.91a1.69,1.69,0,0,0,.58.1,2.13,2.13,0,0,0,1-.21,1.63,1.63,0,0,0,.64-.61,1.72,1.72,0,0,0,.24-.91,1.57,1.57,0,0,0-.21-.83,1.45,1.45,0,0,0-.59-.56,1.88,1.88,0,0,0-.91-.2,1.89,1.89,0,0,0-.63.1A3.79,3.79,0,0,0,2.59,5a.62.62,0,0,1-.29.11.31.31,0,0,1-.19-.06A.26.26,0,0,1,2,4.91a.35.35,0,0,1,0-.18L2.4,2.16A.24.24,0,0,1,2.49,2a.27.27,0,0,1,.2-.07H5.54A.24.24,0,0,1,5.73,2a.24.24,0,0,1,.08.2.27.27,0,0,1-.27.27H2.82l.09-.08L2.52,4.7l-.17-.13a1.91,1.91,0,0,1,.36-.19,4.06,4.06,0,0,1,.52-.16,2.37,2.37,0,0,1,.61-.07,2.18,2.18,0,0,1,1.09.27,1.93,1.93,0,0,1,.76.74A2.12,2.12,0,0,1,6,6.26a2.52,2.52,0,0,1-.17.93,2,2,0,0,1-.5.73,2.27,2.27,0,0,1-.76.47A2.55,2.55,0,0,1,3.56,8.56Z"/><path class="f5e18311-95cf-4068-9ebc-9be1dccc4a4d" d="M3.73,12.1a.09.09,0,0,0,.07,0,.08.08,0,0,0,.07,0l1.44-1.62a.11.11,0,0,0,0-.13L3.87,8.75a.08.08,0,0,0-.07,0,.09.09,0,0,0-.07,0l-1.44,1.6a.11.11,0,0,0,0,.13Z"/><path class="f57d64f7-fe8b-488f-b047-cca67197f828" d="M3.8,12.15a.09.09,0,0,1-.08,0L2.28,10.49a.11.11,0,0,1,0-.15l1.44-1.6a.11.11,0,0,1,.17,0l1.43,1.6a.11.11,0,0,1,0,.15L3.89,12.11A.1.1,0,0,1,3.8,12.15Zm0-3.41-.06,0L2.31,10.37a.07.07,0,0,0,0,.1l1.43,1.62a.09.09,0,0,0,.12,0L5.3,10.47a.09.09,0,0,0,0-.1L3.86,8.76Z"/><path class="ea45ac5c-d843-49f4-8f80-28a88820581f" d="M4.61,10.11a.07.07,0,0,1-.06,0l-.82-.94A.09.09,0,0,1,3.86,9l.82.94a.1.1,0,0,1,0,.13Z"/><path class="ea45ac5c-d843-49f4-8f80-28a88820581f" d="M4.87,10.41a.07.07,0,0,1-.06,0l-.12-.14a.09.09,0,1,1,.13-.11l.12.14a.08.08,0,0,1,0,.12A.07.07,0,0,1,4.87,10.41Z"/><path class="f5e18311-95cf-4068-9ebc-9be1dccc4a4d" d="M57.68,83a2.66,2.66,0,0,1,.78.13,2.06,2.06,0,0,1,.7.38.27.27,0,0,1,.09.12.31.31,0,0,1,0,.13.27.27,0,0,1-.07.18A.27.27,0,0,1,59,84a.31.31,0,0,1-.21-.08,1.62,1.62,0,0,0-.53-.29,1.76,1.76,0,0,0-.59-.11,2,2,0,0,0-1,.22,1.59,1.59,0,0,0-.65.61,1.77,1.77,0,0,0-.23.9,1.64,1.64,0,0,0,.21.84,1.52,1.52,0,0,0,.59.56,1.93,1.93,0,0,0,.9.2,1.81,1.81,0,0,0,.63-.1,3.24,3.24,0,0,0,.49-.22.73.73,0,0,1,.28-.11.32.32,0,0,1,.3.2.28.28,0,0,1,0,.18l-.4,2.57a.29.29,0,0,1-.09.16.26.26,0,0,1-.21.08H55.71a.3.3,0,0,1-.2-.08.28.28,0,0,1-.08-.2.27.27,0,0,1,.28-.28h2.71l-.08.09.38-2.3.17.12a1.25,1.25,0,0,1-.35.19,3.52,3.52,0,0,1-.52.17,3,3,0,0,1-.61.07,2.21,2.21,0,0,1-1.1-.27,2,2,0,0,1-.76-.75,2.09,2.09,0,0,1-.28-1.1,2.41,2.41,0,0,1,.18-.93,2,2,0,0,1,.49-.72,2.39,2.39,0,0,1,.76-.48A2.8,2.8,0,0,1,57.68,83Z"/><path class="f5e18311-95cf-4068-9ebc-9be1dccc4a4d" d="M57.38,79.43a.11.11,0,0,0-.07,0,.11.11,0,0,0-.08,0L55.8,81.05a.09.09,0,0,0,0,.13l1.43,1.6a.09.09,0,0,0,.08,0,.09.09,0,0,0,.07,0l1.43-1.6a.09.09,0,0,0,0-.13Z"/><path class="f57d64f7-fe8b-488f-b047-cca67197f828" d="M57.31,79.38a.12.12,0,0,1,.08,0L58.83,81a.11.11,0,0,1,0,.15L57.39,82.8a.12.12,0,0,1-.17,0l-1.44-1.61a.11.11,0,0,1,0-.15l1.44-1.62A.13.13,0,0,1,57.31,79.38Zm0,3.42a.05.05,0,0,0,0,0l1.44-1.6a.07.07,0,0,0,0-.1l-1.44-1.63a.08.08,0,0,0-.11,0l-1.44,1.63a.07.07,0,0,0,0,.1l1.44,1.6A.06.06,0,0,0,57.31,82.8Z"/><path class="ea45ac5c-d843-49f4-8f80-28a88820581f" d="M56.5,81.43a.09.09,0,0,1,.06,0l.82.94a.09.09,0,1,1-.13.11l-.82-.94a.08.08,0,0,1,0-.12S56.48,81.43,56.5,81.43Z"/><path class="ea45ac5c-d843-49f4-8f80-28a88820581f" d="M56.23,81.12a.09.09,0,0,1,.07,0l.12.14a.09.09,0,0,1,0,.12.09.09,0,0,1-.13,0l-.11-.13a.09.09,0,0,1,0-.13Z"/><path class="f5e18311-95cf-4068-9ebc-9be1dccc4a4d" d="M16.29,23a.41.41,0,0,0,.62,0l6.2-7a.43.43,0,0,0,0-.56l-6.2-6.91a.41.41,0,0,0-.62,0l-6.2,6.91a.43.43,0,0,0,0,.56Z"/><path class="f57d64f7-fe8b-488f-b047-cca67197f828" d="M16.6,23.19a.51.51,0,0,1-.37-.16L10,16a.49.49,0,0,1,0-.66l6.2-6.92a.51.51,0,0,1,.74,0l6.2,6.92a.49.49,0,0,1,0,.66L17,23A.51.51,0,0,1,16.6,23.19Zm0-14.74a.36.36,0,0,0-.25.11l-6.2,6.92a.33.33,0,0,0,0,.44l6.2,7a.35.35,0,0,0,.5,0l6.2-7a.31.31,0,0,0,0-.44l-6.2-6.92A.33.33,0,0,0,16.6,8.45Z"/><path class="ea45ac5c-d843-49f4-8f80-28a88820581f" d="M20.1,14.37a.41.41,0,0,1-.29-.13l-3.53-4.06a.38.38,0,0,1,0-.53.37.37,0,0,1,.53,0l3.53,4.06a.36.36,0,0,1,0,.52A.34.34,0,0,1,20.1,14.37Z"/><path class="ea45ac5c-d843-49f4-8f80-28a88820581f" d="M21.23,15.68a.39.39,0,0,1-.29-.13l-.51-.6a.38.38,0,0,1,.05-.53.39.39,0,0,1,.53,0l.5.6a.37.37,0,0,1,0,.53A.38.38,0,0,1,21.23,15.68Z"/><path class="f5e18311-95cf-4068-9ebc-9be1dccc4a4d" d="M30.24,52.89a.43.43,0,0,0,.31.14.43.43,0,0,0,.32-.14l6.2-7a.41.41,0,0,0,0-.56l-6.2-6.91a.4.4,0,0,0-.31-.14.43.43,0,0,0-.31.14L24,45.34a.43.43,0,0,0,0,.56Z"/><path class="f57d64f7-fe8b-488f-b047-cca67197f828" d="M30.55,53.11a.52.52,0,0,1-.37-.16L24,46a.49.49,0,0,1,0-.66l6.2-6.92a.52.52,0,0,1,.74,0l6.21,6.92a.51.51,0,0,1,0,.66l-6.2,7A.53.53,0,0,1,30.55,53.11Zm0-14.74a.32.32,0,0,0-.24.11L24.1,45.4a.33.33,0,0,0,0,.44l6.2,7a.36.36,0,0,0,.51,0l6.2-7a.32.32,0,0,0,0-.44l-6.2-6.92A.33.33,0,0,0,30.55,38.37Z"/><path class="ea45ac5c-d843-49f4-8f80-28a88820581f" d="M34.05,44.29a.37.37,0,0,1-.28-.13L30.23,40.1a.39.39,0,0,1,0-.53.38.38,0,0,1,.53,0l3.53,4.06a.37.37,0,0,1,0,.53A.36.36,0,0,1,34.05,44.29Z"/><path class="ea45ac5c-d843-49f4-8f80-28a88820581f" d="M35.18,45.6a.36.36,0,0,1-.29-.13l-.5-.6a.37.37,0,0,1,0-.53.38.38,0,0,1,.53,0l.5.59a.37.37,0,0,1,0,.53A.38.38,0,0,1,35.18,45.6Z"/><path class="f5e18311-95cf-4068-9ebc-9be1dccc4a4d" d="M44.2,23a.4.4,0,0,0,.31.14.43.43,0,0,0,.31-.14L51,16a.43.43,0,0,0,0-.56l-6.2-6.91a.43.43,0,0,0-.31-.14.41.41,0,0,0-.31.14L38,15.42A.41.41,0,0,0,38,16Z"/><path class="f57d64f7-fe8b-488f-b047-cca67197f828" d="M44.51,23.19a.53.53,0,0,1-.38-.16l-6.2-7a.5.5,0,0,1,0-.66l6.2-6.92a.51.51,0,0,1,.74,0l6.2,6.92a.49.49,0,0,1,0,.66l-6.2,7A.52.52,0,0,1,44.51,23.19Zm-.25-.27a.35.35,0,0,0,.5,0l6.2-7a.33.33,0,0,0,0-.44l-6.2-6.92a.35.35,0,0,0-.5,0l-6.2,6.92a.32.32,0,0,0,0,.44Z"/><path class="ea45ac5c-d843-49f4-8f80-28a88820581f" d="M48,14.37a.39.39,0,0,1-.28-.13l-3.53-4.06a.38.38,0,0,1,0-.53.37.37,0,0,1,.53,0l3.53,4.06a.37.37,0,0,1,0,.52A.35.35,0,0,1,48,14.37Z"/><path class="ea45ac5c-d843-49f4-8f80-28a88820581f" d="M49.13,15.68a.41.41,0,0,1-.29-.13l-.5-.6a.37.37,0,0,1,0-.53.39.39,0,0,1,.53,0l.51.6a.38.38,0,0,1-.05.53A.36.36,0,0,1,49.13,15.68Z"/><path class="f5e18311-95cf-4068-9ebc-9be1dccc4a4d" d="M16.29,83a.41.41,0,0,0,.62,0l6.2-7a.41.41,0,0,0,0-.55l-6.2-6.92a.41.41,0,0,0-.62,0l-6.2,6.92a.41.41,0,0,0,0,.55Z"/><path class="f57d64f7-fe8b-488f-b047-cca67197f828" d="M16.6,68.34a.48.48,0,0,1,.37.17l6.2,6.91a.49.49,0,0,1,0,.66l-6.2,7a.51.51,0,0,1-.74,0l-6.2-7a.49.49,0,0,1,0-.66l6.2-6.91A.48.48,0,0,1,16.6,68.34Zm0,14.75a.33.33,0,0,0,.25-.12l6.2-7a.34.34,0,0,0,0-.45l-6.2-6.91a.34.34,0,0,0-.5,0l-6.2,6.91a.35.35,0,0,0,0,.45l6.2,7A.35.35,0,0,0,16.6,83.09Z"/><path class="ea45ac5c-d843-49f4-8f80-28a88820581f" d="M16.56,69.61a.41.41,0,0,1,.29.13l3.53,4.06a.38.38,0,0,1-.57.49l-3.53-4.06a.37.37,0,0,1,.28-.62Z"/><path class="ea45ac5c-d843-49f4-8f80-28a88820581f" d="M20.72,74.39a.37.37,0,0,1,.29.13l.5.6a.39.39,0,0,1,0,.53.38.38,0,0,1-.53-.05l-.51-.6a.38.38,0,0,1,.05-.53A.41.41,0,0,1,20.72,74.39Z"/><path class="f5e18311-95cf-4068-9ebc-9be1dccc4a4d" d="M44.19,83a.43.43,0,0,0,.32.14.43.43,0,0,0,.31-.14L51,76a.41.41,0,0,0,0-.55l-6.21-6.92a.39.39,0,0,0-.3-.14.4.4,0,0,0-.31.14L38,75.48A.41.41,0,0,0,38,76Z"/><path class="f57d64f7-fe8b-488f-b047-cca67197f828" d="M44.5,68.34a.47.47,0,0,1,.37.17l6.21,6.91a.5.5,0,0,1,0,.66l-6.2,7a.53.53,0,0,1-.75,0l-6.2-7a.5.5,0,0,1,0-.66l6.21-6.91A.46.46,0,0,1,44.5,68.34Zm0,14.75a.37.37,0,0,0,.26-.12L51,76a.34.34,0,0,0,0-.45l-6.2-6.91a.32.32,0,0,0-.49,0l-6.21,6.91a.35.35,0,0,0,0,.45l6.2,7A.37.37,0,0,0,44.5,83.09Z"/><path class="ea45ac5c-d843-49f4-8f80-28a88820581f" d="M44.47,69.61a.39.39,0,0,1,.28.13l3.53,4.06a.37.37,0,1,1-.56.49l-3.53-4.06a.38.38,0,0,1,0-.53A.38.38,0,0,1,44.47,69.61Z"/><path class="ea45ac5c-d843-49f4-8f80-28a88820581f" d="M48.62,74.39a.36.36,0,0,1,.29.13l.5.6a.37.37,0,0,1,0,.53.38.38,0,0,1-.53-.05l-.5-.6a.37.37,0,0,1,0-.53A.43.43,0,0,1,48.62,74.39Z"/></g></g></svg>