<svg xmlns="http://www.w3.org/2000/svg" viewBox="0 0 61.11 91.54"><defs><style>.adb79a92-93f1-4708-aa98-328bc32b6ee6{fill:none;}.f0a4c506-9cd5-4574-a3d2-8b404a8e3d4b{fill:#adadad;}.ec9eb497-8301-4da7-9063-524e249f3737{fill:#f6413a;}.a8209a70-8cc6-4198-a39f-ae905ed33245{fill:#c51611;}.afa5d881-3e4b-4e18-92f9-bc7ab5f09329{fill:#ffb3b3;}</style></defs><title>D_6</title><g id="bb4378d5-0a0b-44d8-9929-db554111783b" data-name="Capa 2"><g id="f8df8af1-5fcd-4ee4-a3ee-93886c6e5282" data-name="Objects"><rect class="adb79a92-93f1-4708-aa98-328bc32b6ee6" x="0.13" y="0.12" width="60.86" height="91.29" rx="2.4"/><path class="f0a4c506-9cd5-4574-a3d2-8b404a8e3d4b" d="M58.59,91.54H2.52A2.53,2.53,0,0,1,0,89V2.52A2.52,2.52,0,0,1,2.52,0H58.59a2.52,2.52,0,0,1,2.52,2.52V89A2.53,2.53,0,0,1,58.59,91.54ZM2.52.25A2.27,2.27,0,0,0,.25,2.52V89a2.28,2.28,0,0,0,2.27,2.28H58.59A2.28,2.28,0,0,0,60.86,89V2.52A2.27,2.27,0,0,0,58.59.25Z"/><path class="ec9eb497-8301-4da7-9063-524e249f3737" d="M4.14,8.64a2.24,2.24,0,0,1-1-.2,1.89,1.89,0,0,1-.68-.53,2.33,2.33,0,0,1-.39-.77A2.83,2.83,0,0,1,2,6.27a4.35,4.35,0,0,1,.12-1,6.67,6.67,0,0,1,.35-1.07,5.71,5.71,0,0,1,.58-1,4.4,4.4,0,0,1,.81-.86,3.44,3.44,0,0,1,1-.6.3.3,0,0,1,.12,0,.34.34,0,0,1,.2.06A.27.27,0,0,1,5.26,2a.28.28,0,0,1,0,.16A.34.34,0,0,1,5,2.29a3.54,3.54,0,0,0-.79.49,4.39,4.39,0,0,0-.72.71A5.45,5.45,0,0,0,3,4.37a4.29,4.29,0,0,0-.33,1l-.19.12a1.75,1.75,0,0,1,.43-.55,2.23,2.23,0,0,1,.63-.39,1.85,1.85,0,0,1,.74-.15A1.7,1.7,0,0,1,5,4.53,2.1,2.1,0,0,1,5.66,5a2.29,2.29,0,0,1,.55,1.5,2.1,2.1,0,0,1-.27,1,2.21,2.21,0,0,1-.74.78A1.9,1.9,0,0,1,4.14,8.64Zm0-.55a1.51,1.51,0,0,0,.78-.2,1.43,1.43,0,0,0,.54-.55,1.68,1.68,0,0,0,.19-.82,1.89,1.89,0,0,0-.16-.79,1.52,1.52,0,0,0-.5-.6,1.35,1.35,0,0,0-.8-.23,1.61,1.61,0,0,0-.87.23,1.54,1.54,0,0,0-.56.6,1.74,1.74,0,0,0-.2.82,1.55,1.55,0,0,0,.19.75,1.48,1.48,0,0,0,.54.57A1.56,1.56,0,0,0,4.12,8.09Z"/><path class="ec9eb497-8301-4da7-9063-524e249f3737" d="M3.73,12.1a.09.09,0,0,0,.07,0,.08.08,0,0,0,.07,0l1.44-1.62a.11.11,0,0,0,0-.13L3.87,8.75a.08.08,0,0,0-.07,0,.09.09,0,0,0-.07,0l-1.44,1.6a.11.11,0,0,0,0,.13Z"/><path class="a8209a70-8cc6-4198-a39f-ae905ed33245" d="M3.8,12.15a.09.09,0,0,1-.08,0L2.28,10.49a.11.11,0,0,1,0-.15l1.44-1.6a.11.11,0,0,1,.17,0l1.43,1.6a.11.11,0,0,1,0,.15L3.89,12.11A.1.1,0,0,1,3.8,12.15Zm0-3.41-.06,0L2.31,10.37a.07.07,0,0,0,0,.1l1.43,1.62a.09.09,0,0,0,.12,0L5.3,10.47a.09.09,0,0,0,0-.1L3.86,8.76Z"/><path class="afa5d881-3e4b-4e18-92f9-bc7ab5f09329" d="M4.61,10.11a.07.07,0,0,1-.06,0l-.82-.94A.09.09,0,0,1,3.86,9l.82.94a.1.1,0,0,1,0,.13Z"/><path class="afa5d881-3e4b-4e18-92f9-bc7ab5f09329" d="M4.87,10.41a.07.07,0,0,1-.06,0l-.12-.14a.09.09,0,1,1,.13-.11l.12.14a.08.08,0,0,1,0,.12A.07.07,0,0,1,4.87,10.41Z"/><path class="ec9eb497-8301-4da7-9063-524e249f3737" d="M57.11,82.9a2.13,2.13,0,0,1,1,.2,1.86,1.86,0,0,1,.67.53,2.31,2.31,0,0,1,.4.76,2.91,2.91,0,0,1,.13.87,4.44,4.44,0,0,1-.12,1,5.71,5.71,0,0,1-.35,1.06,5.11,5.11,0,0,1-.57,1,4.45,4.45,0,0,1-.81.87,3.44,3.44,0,0,1-1,.6l-.12,0a.31.31,0,0,1-.21-.07.29.29,0,0,1,0-.39.36.36,0,0,1,.17-.11,3.11,3.11,0,0,0,.78-.48,4.9,4.9,0,0,0,.72-.72,4.45,4.45,0,0,0,.56-.87,3.58,3.58,0,0,0,.33-1l.2-.13a1.82,1.82,0,0,1-.44.56,2.07,2.07,0,0,1-.62.38,1.86,1.86,0,0,1-.75.15A1.73,1.73,0,0,1,56.2,87a2.07,2.07,0,0,1-.62-.49,2.15,2.15,0,0,1-.4-.69A2.21,2.21,0,0,1,55,85a2.07,2.07,0,0,1,.27-1A2,2,0,0,1,56,83.2,2,2,0,0,1,57.11,82.9Zm0,.55a1.57,1.57,0,0,0-.79.19,1.43,1.43,0,0,0-.53.56,1.66,1.66,0,0,0-.2.82,1.85,1.85,0,0,0,.17.78,1.38,1.38,0,0,0,.49.6,1.41,1.41,0,0,0,.81.23,1.61,1.61,0,0,0,.87-.22,1.72,1.72,0,0,0,.56-.61A1.7,1.7,0,0,0,58.7,85a1.6,1.6,0,0,0-.18-.75,1.53,1.53,0,0,0-.55-.58A1.61,1.61,0,0,0,57.13,83.45Z"/><path class="ec9eb497-8301-4da7-9063-524e249f3737" d="M57.38,79.43a.11.11,0,0,0-.07,0,.11.11,0,0,0-.08,0L55.8,81.05a.09.09,0,0,0,0,.13l1.43,1.6a.09.09,0,0,0,.08,0,.09.09,0,0,0,.07,0l1.43-1.6a.09.09,0,0,0,0-.13Z"/><path class="a8209a70-8cc6-4198-a39f-ae905ed33245" d="M57.31,79.38a.12.12,0,0,1,.08,0L58.83,81a.11.11,0,0,1,0,.15L57.39,82.8a.12.12,0,0,1-.17,0l-1.44-1.61a.11.11,0,0,1,0-.15l1.44-1.62A.13.13,0,0,1,57.31,79.38Zm0,3.42a.05.05,0,0,0,0,0l1.44-1.6a.07.07,0,0,0,0-.1l-1.44-1.63a.08.08,0,0,0-.11,0l-1.44,1.63a.07.07,0,0,0,0,.1l1.44,1.6A.06.06,0,0,0,57.31,82.8Z"/><path class="afa5d881-3e4b-4e18-92f9-bc7ab5f09329" d="M56.5,81.43a.09.09,0,0,1,.06,0l.82.94a.09.09,0,1,1-.13.11l-.82-.94a.08.08,0,0,1,0-.12S56.48,81.43,56.5,81.43Z"/><path class="afa5d881-3e4b-4e18-92f9-bc7ab5f09329" d="M56.23,81.12a.09.09,0,0,1,.07,0l.12.14a.09.09,0,0,1,0,.12.09.09,0,0,1-.13,0l-.11-.13a.09.09,0,0,1,0-.13Z"/><path class="ec9eb497-8301-4da7-9063-524e249f3737" d="M16.29,23a.41.41,0,0,0,.62,0l6.2-7a.43.43,0,0,0,0-.56l-6.2-6.91a.41.41,0,0,0-.62,0l-6.2,6.91a.43.43,0,0,0,0,.56Z"/><path class="a8209a70-8cc6-4198-a39f-ae905ed33245" d="M16.6,23.19a.52.52,0,0,1-.37-.16L10,16a.49.49,0,0,1,0-.66l6.2-6.92a.51.51,0,0,1,.74,0l6.2,6.92a.49.49,0,0,1,0,.66L17,23A.51.51,0,0,1,16.6,23.19Zm0-14.74a.36.36,0,0,0-.25.11l-6.2,6.92a.33.33,0,0,0,0,.44l6.2,7a.35.35,0,0,0,.5,0l6.2-7a.31.31,0,0,0,0-.44l-6.2-6.92A.33.33,0,0,0,16.6,8.45Z"/><path class="afa5d881-3e4b-4e18-92f9-bc7ab5f09329" d="M20.1,14.37a.41.41,0,0,1-.29-.13l-3.53-4.06a.38.38,0,0,1,0-.53.37.37,0,0,1,.53,0l3.53,4.06a.36.36,0,0,1,0,.52A.34.34,0,0,1,20.1,14.37Z"/><path class="afa5d881-3e4b-4e18-92f9-bc7ab5f09329" d="M21.23,15.68a.39.39,0,0,1-.29-.13l-.51-.6a.38.38,0,0,1,.05-.53.39.39,0,0,1,.53,0l.5.6a.37.37,0,0,1,0,.53A.38.38,0,0,1,21.23,15.68Z"/><path class="ec9eb497-8301-4da7-9063-524e249f3737" d="M16.29,52.89a.41.41,0,0,0,.62,0l6.2-7a.43.43,0,0,0,0-.56l-6.2-6.91a.41.41,0,0,0-.62,0l-6.2,6.91a.43.43,0,0,0,0,.56Z"/><path class="a8209a70-8cc6-4198-a39f-ae905ed33245" d="M16.6,53.11a.51.51,0,0,1-.37-.16L10,46a.49.49,0,0,1,0-.66l6.2-6.92a.52.52,0,0,1,.74,0l6.2,6.92a.49.49,0,0,1,0,.66L17,53A.51.51,0,0,1,16.6,53.11Zm0-14.74a.36.36,0,0,0-.25.11l-6.2,6.92a.33.33,0,0,0,0,.44l6.2,7a.35.35,0,0,0,.5,0l6.2-7a.31.31,0,0,0,0-.44l-6.2-6.92A.33.33,0,0,0,16.6,38.37Z"/><path class="afa5d881-3e4b-4e18-92f9-bc7ab5f09329" d="M20.1,44.29a.41.41,0,0,1-.29-.13L16.28,40.1a.38.38,0,1,1,.57-.49l3.53,4.06a.37.37,0,0,1-.28.62Z"/><path class="afa5d881-3e4b-4e18-92f9-bc7ab5f09329" d="M21.22,45.6a.35.35,0,0,1-.28-.13l-.51-.6a.38.38,0,0,1,.58-.48l.5.59a.38.38,0,0,1,0,.53A.38.38,0,0,1,21.22,45.6Z"/><path class="ec9eb497-8301-4da7-9063-524e249f3737" d="M44.19,52.89a.43.43,0,0,0,.32.14.43.43,0,0,0,.31-.14l6.2-7a.43.43,0,0,0,0-.56l-6.2-6.91a.43.43,0,0,0-.31-.14.4.4,0,0,0-.31.14L38,45.34a.43.43,0,0,0,0,.56Z"/><path class="a8209a70-8cc6-4198-a39f-ae905ed33245" d="M44.51,53.11a.53.53,0,0,1-.38-.16l-6.2-7a.5.5,0,0,1,0-.66l6.21-6.92a.52.52,0,0,1,.74,0l6.2,6.92a.5.5,0,0,1,0,.66l-6.2,7A.52.52,0,0,1,44.51,53.11Zm0-14.74a.33.33,0,0,0-.25.11l-6.2,6.92a.32.32,0,0,0,0,.44l6.21,7a.35.35,0,0,0,.5,0l6.2-7a.33.33,0,0,0,0-.44l-6.21-6.92A.32.32,0,0,0,44.51,38.37Z"/><path class="afa5d881-3e4b-4e18-92f9-bc7ab5f09329" d="M48,44.29a.39.39,0,0,1-.28-.13L44.19,40.1a.37.37,0,1,1,.56-.49l3.53,4.06a.38.38,0,0,1,0,.53A.4.4,0,0,1,48,44.29Z"/><path class="afa5d881-3e4b-4e18-92f9-bc7ab5f09329" d="M49.13,45.6a.37.37,0,0,1-.29-.13l-.5-.6a.37.37,0,0,1,0-.53.38.38,0,0,1,.53,0l.51.59a.38.38,0,0,1-.29.62Z"/><path class="ec9eb497-8301-4da7-9063-524e249f3737" d="M44.2,23a.4.4,0,0,0,.31.14.41.41,0,0,0,.31-.14L51,16a.43.43,0,0,0,0-.56l-6.2-6.91a.43.43,0,0,0-.31-.14.41.41,0,0,0-.31.14L38,15.42A.41.41,0,0,0,38,16Z"/><path class="a8209a70-8cc6-4198-a39f-ae905ed33245" d="M44.51,23.19a.55.55,0,0,1-.38-.16l-6.2-7a.5.5,0,0,1,0-.66l6.2-6.92a.51.51,0,0,1,.74,0l6.2,6.92a.49.49,0,0,1,0,.66l-6.2,7A.52.52,0,0,1,44.51,23.19Zm-.25-.27a.35.35,0,0,0,.5,0l6.2-7a.33.33,0,0,0,0-.44l-6.2-6.92a.35.35,0,0,0-.5,0l-6.2,6.92a.32.32,0,0,0,0,.44Z"/><path class="afa5d881-3e4b-4e18-92f9-bc7ab5f09329" d="M48,14.37a.39.39,0,0,1-.28-.13l-3.53-4.06a.38.38,0,0,1,0-.53.37.37,0,0,1,.53,0l3.53,4.06a.37.37,0,0,1,0,.52A.35.35,0,0,1,48,14.37Z"/><path class="afa5d881-3e4b-4e18-92f9-bc7ab5f09329" d="M49.13,15.68a.41.41,0,0,1-.29-.13l-.5-.6a.37.37,0,0,1,0-.53.39.39,0,0,1,.53,0l.51.6a.38.38,0,0,1-.05.53A.36.36,0,0,1,49.13,15.68Z"/><path class="ec9eb497-8301-4da7-9063-524e249f3737" d="M16.29,83a.41.41,0,0,0,.62,0l6.2-7a.41.41,0,0,0,0-.55l-6.2-6.92a.41.41,0,0,0-.62,0l-6.2,6.92a.41.41,0,0,0,0,.55Z"/><path class="a8209a70-8cc6-4198-a39f-ae905ed33245" d="M16.6,68.34a.48.48,0,0,1,.37.17l6.2,6.91a.49.49,0,0,1,0,.66l-6.2,7a.51.51,0,0,1-.74,0l-6.2-7a.49.49,0,0,1,0-.66l6.2-6.91A.48.48,0,0,1,16.6,68.34Zm0,14.75a.33.33,0,0,0,.25-.12l6.2-7a.33.33,0,0,0,0-.45l-6.2-6.91a.34.34,0,0,0-.5,0l-6.2,6.91a.35.35,0,0,0,0,.45l6.2,7A.35.35,0,0,0,16.6,83.09Z"/><path class="afa5d881-3e4b-4e18-92f9-bc7ab5f09329" d="M16.56,69.61a.41.41,0,0,1,.29.13l3.53,4.06a.38.38,0,0,1-.57.49l-3.53-4.06a.37.37,0,0,1,.28-.62Z"/><path class="afa5d881-3e4b-4e18-92f9-bc7ab5f09329" d="M20.72,74.39a.37.37,0,0,1,.29.13l.5.6a.37.37,0,1,1-.57.48l-.51-.6a.38.38,0,0,1,.05-.53A.41.41,0,0,1,20.72,74.39Z"/><path class="ec9eb497-8301-4da7-9063-524e249f3737" d="M44.19,83a.43.43,0,0,0,.32.14.43.43,0,0,0,.31-.14L51,76a.41.41,0,0,0,0-.55l-6.21-6.92a.39.39,0,0,0-.3-.14.4.4,0,0,0-.31.14L38,75.48A.41.41,0,0,0,38,76Z"/><path class="a8209a70-8cc6-4198-a39f-ae905ed33245" d="M44.51,68.34a.5.5,0,0,1,.37.17l6.2,6.91a.49.49,0,0,1,0,.66l-6.2,7a.53.53,0,0,1-.75,0l-6.2-7a.5.5,0,0,1,0-.66l6.21-6.91A.47.47,0,0,1,44.51,68.34Zm0,14.75a.37.37,0,0,0,.25-.12L51,76a.35.35,0,0,0,0-.45l-6.21-6.91a.32.32,0,0,0-.49,0l-6.21,6.91a.35.35,0,0,0,0,.45l6.21,7A.33.33,0,0,0,44.51,83.09Z"/><path class="afa5d881-3e4b-4e18-92f9-bc7ab5f09329" d="M44.47,69.61a.39.39,0,0,1,.28.13l3.53,4.06a.37.37,0,1,1-.56.49l-3.53-4.06a.38.38,0,0,1,0-.53A.38.38,0,0,1,44.47,69.61Z"/><path class="afa5d881-3e4b-4e18-92f9-bc7ab5f09329" d="M48.62,74.39a.36.36,0,0,1,.29.13l.51.6a.38.38,0,0,1-.58.48l-.5-.6a.37.37,0,0,1,0-.53A.43.43,0,0,1,48.62,74.39Z"/></g></g></svg>