<svg xmlns="http://www.w3.org/2000/svg" viewBox="0 0 44.02 46.62"><defs><style>.a0d0b737-58fb-437a-a9c9-c47ba8d21d99{fill:#f8cb1b;stroke:#f8bb18;stroke-miterlimit:10;stroke-width:0.57px;}.b2261101-0ca4-4c86-9998-0797f29e0b99{fill:#424242;}.a8b7c401-0f91-4876-8f3d-1324deaed3e0{fill:#f4d88c;}</style></defs><title>luna</title><g id="bca770e1-431c-4dae-ba71-ca8f06a55d2a" data-name="Capa 2"><g id="ffecb37a-ffd2-4f47-9de6-bea329e35587" data-name="Objects"><path class="a0d0b737-58fb-437a-a9c9-c47ba8d21d99" d="M43.3,34.74A23,23,0,1,1,25.81.42a3.22,3.22,0,0,1,2.32,5,15.82,15.82,0,0,0,12.53,24.5,3.22,3.22,0,0,1,2.64,4.83Z"/><path class="b2261101-0ca4-4c86-9998-0797f29e0b99" d="M18.6,20.19a6,6,0,0,1-3.78-1.63.57.57,0,0,1,0-.8.56.56,0,0,1,.8,0,4.79,4.79,0,0,0,3.18,1.3,3.89,3.89,0,0,0,2.76-1.69.58.58,0,0,1,.8-.09.56.56,0,0,1,.09.8,4.94,4.94,0,0,1-3.59,2.11Z"/><path class="b2261101-0ca4-4c86-9998-0797f29e0b99" d="M15.11,20.53a.52.52,0,0,1-.31-.1.56.56,0,0,1-.16-.78l.82-1.25a.57.57,0,1,1,.95.63l-.82,1.24A.56.56,0,0,1,15.11,20.53Z"/><path class="b2261101-0ca4-4c86-9998-0797f29e0b99" d="M21.71,20.67a.56.56,0,0,1-.42-.18l-1-1.09a.57.57,0,0,1,0-.8.56.56,0,0,1,.8,0l1,1.09a.58.58,0,0,1-.41,1Z"/><path class="b2261101-0ca4-4c86-9998-0797f29e0b99" d="M18.32,21.78a.57.57,0,0,1-.56-.56l0-1.49a.57.57,0,0,1,.56-.58.56.56,0,0,1,.58.56l0,1.49a.57.57,0,0,1-.55.58Z"/><path class="a8b7c401-0f91-4876-8f3d-1324deaed3e0" d="M17.85,4.86a1.13,1.13,0,0,1-.42-2.19,13.81,13.81,0,0,1,8.33-.42,1.13,1.13,0,1,1-.68,2.16,11.82,11.82,0,0,0-6.82.37A1,1,0,0,1,17.85,4.86Z"/><path class="a8b7c401-0f91-4876-8f3d-1324deaed3e0" d="M14,6.62a1.13,1.13,0,0,1-.51-2.15l1.06-.53a1.13,1.13,0,1,1,1,2l-1.06.53A1.11,1.11,0,0,1,14,6.62Z"/></g></g></svg>