<svg xmlns="http://www.w3.org/2000/svg" viewBox="0 0 61.11 91.54"><defs><style>.faf42eda-05ad-4dde-a3a6-67cadc278944{fill:none;}.b1eb1946-96f9-470e-90b0-a4b21d2d7dc4{fill:#adadad;}.faae66c2-d05a-44f2-b7b5-4f765bd981ac{fill:#363026;}.addfb3a4-a964-4a01-85b3-79f3b07bae00{fill:#716b61;}.fc7f740d-9b03-4d8e-b0b6-5f067fb81bac{fill:#453f31;}.eb8b524f-4556-40aa-84c4-0796e055d826{fill:#aaa194;}</style></defs><title>P_6</title><g id="a12c346f-d011-47dc-ad65-5aa2bfd31346" data-name="Capa 2"><g id="a2482d33-a3f4-4b18-98bf-10d83d4e8cc5" data-name="Objects"><rect class="faf42eda-05ad-4dde-a3a6-67cadc278944" x="0.13" y="0.12" width="60.86" height="91.29" rx="2.4"/><path class="b1eb1946-96f9-470e-90b0-a4b21d2d7dc4" d="M58.59,91.54H2.52A2.53,2.53,0,0,1,0,89V2.52A2.52,2.52,0,0,1,2.52,0H58.59a2.52,2.52,0,0,1,2.52,2.52V89A2.53,2.53,0,0,1,58.59,91.54ZM2.52.25A2.27,2.27,0,0,0,.25,2.52V89a2.28,2.28,0,0,0,2.27,2.28H58.59A2.28,2.28,0,0,0,60.86,89V2.52A2.27,2.27,0,0,0,58.59.25Z"/><path class="faae66c2-d05a-44f2-b7b5-4f765bd981ac" d="M4.14,8.64a2.24,2.24,0,0,1-1-.2,1.89,1.89,0,0,1-.68-.53,2.33,2.33,0,0,1-.39-.77A2.83,2.83,0,0,1,2,6.27a4.35,4.35,0,0,1,.12-1,6.67,6.67,0,0,1,.35-1.07,5.71,5.71,0,0,1,.58-1,4.4,4.4,0,0,1,.81-.86,3.44,3.44,0,0,1,1-.6.3.3,0,0,1,.12,0,.34.34,0,0,1,.2.06A.27.27,0,0,1,5.26,2a.28.28,0,0,1,0,.16A.34.34,0,0,1,5,2.29a3.54,3.54,0,0,0-.79.49,4.39,4.39,0,0,0-.72.71A5.45,5.45,0,0,0,3,4.37a4.29,4.29,0,0,0-.33,1l-.19.12a1.75,1.75,0,0,1,.43-.55,2.23,2.23,0,0,1,.63-.39,1.85,1.85,0,0,1,.74-.15A1.73,1.73,0,0,1,5,4.53,2.1,2.1,0,0,1,5.66,5a2.29,2.29,0,0,1,.55,1.5,2.1,2.1,0,0,1-.27,1,2.21,2.21,0,0,1-.74.78A1.9,1.9,0,0,1,4.14,8.64Zm0-.55a1.51,1.51,0,0,0,.78-.2,1.43,1.43,0,0,0,.54-.55,1.68,1.68,0,0,0,.19-.82,1.89,1.89,0,0,0-.16-.79A1.43,1.43,0,0,0,5,5.14a1.29,1.29,0,0,0-.8-.24,1.61,1.61,0,0,0-.87.23,1.54,1.54,0,0,0-.56.6,1.74,1.74,0,0,0-.2.82,1.55,1.55,0,0,0,.19.75,1.48,1.48,0,0,0,.54.57A1.56,1.56,0,0,0,4.12,8.09Z"/><path class="faae66c2-d05a-44f2-b7b5-4f765bd981ac" d="M57.11,82.9a2.06,2.06,0,0,1,1,.2,1.89,1.89,0,0,1,.68.53,2.31,2.31,0,0,1,.4.76,2.91,2.91,0,0,1,.13.87,4.44,4.44,0,0,1-.12,1,5.71,5.71,0,0,1-.35,1.06,5.48,5.48,0,0,1-.57,1,4.7,4.7,0,0,1-.81.86,3.66,3.66,0,0,1-1,.6l-.13,0a.31.31,0,0,1-.2-.07.29.29,0,0,1,0-.39.32.32,0,0,1,.17-.11,3.29,3.29,0,0,0,.78-.48,4.9,4.9,0,0,0,.72-.72,4.45,4.45,0,0,0,.56-.87,3.58,3.58,0,0,0,.33-1l.2-.13a1.82,1.82,0,0,1-.44.56,2.07,2.07,0,0,1-.62.38,1.86,1.86,0,0,1-.75.15A1.73,1.73,0,0,1,56.2,87a2.07,2.07,0,0,1-.62-.49,2.15,2.15,0,0,1-.4-.69A2.24,2.24,0,0,1,55,85a2.06,2.06,0,0,1,.27-1,2.16,2.16,0,0,1,.74-.79A2,2,0,0,1,57.11,82.9Zm0,.55a1.55,1.55,0,0,0-.78.19,1.43,1.43,0,0,0-.53.56,1.65,1.65,0,0,0-.2.81,1.86,1.86,0,0,0,.17.79,1.38,1.38,0,0,0,.49.6,1.41,1.41,0,0,0,.81.23,1.61,1.61,0,0,0,.87-.22,1.72,1.72,0,0,0,.56-.61A1.7,1.7,0,0,0,58.7,85a1.49,1.49,0,0,0-.19-.75,1.43,1.43,0,0,0-.54-.58A1.65,1.65,0,0,0,57.12,83.45Z"/><path class="addfb3a4-a964-4a01-85b3-79f3b07bae00" d="M5.17,9.86a8,8,0,0,0-.82-.77L4,8.77a.19.19,0,0,0-.26,0l-.38.32a8,8,0,0,0-.82.77,1.28,1.28,0,0,0-.33.81,1,1,0,0,0,.26.71.9.9,0,0,0,.67.29.82.82,0,0,0,.52-.18s0,0,0,0l-.2.57a.08.08,0,0,0,.08.11h.56A.08.08,0,0,0,4.19,12L4,11.44s0,0,0,.05a.84.84,0,0,0,.52.18.9.9,0,0,0,.67-.29,1,1,0,0,0,.26-.71A1.28,1.28,0,0,0,5.17,9.86Z"/><path class="fc7f740d-9b03-4d8e-b0b6-5f067fb81bac" d="M4.11,12.15H3.55a.09.09,0,0,1-.08,0,.09.09,0,0,1,0-.1l.17-.5a.82.82,0,0,1-.52.18.93.93,0,0,1-.68-.3,1,1,0,0,1-.27-.72,1.27,1.27,0,0,1,.34-.82,6.14,6.14,0,0,1,.81-.76l0,0,.37-.32a.21.21,0,0,1,.28,0l.37.32h0a7,7,0,0,1,.82.77h0a1.27,1.27,0,0,1,.34.82,1,1,0,0,1-.27.72.93.93,0,0,1-.68.3A.82.82,0,0,1,4,11.5H4l.18.51a.12.12,0,0,1,0,.1A.09.09,0,0,1,4.11,12.15Zm-.44-.72h0s0,0,0,0l-.2.57a.07.07,0,0,0,0,.06.05.05,0,0,0,0,0h.56a.05.05,0,0,0,0,0,.07.07,0,0,0,0-.06L4,11.45a0,0,0,0,1,0,0H4l0,0a.79.79,0,0,0,.51.18.88.88,0,0,0,.65-.28,1,1,0,0,0,.26-.7,1.2,1.2,0,0,0-.32-.79h0a6.41,6.41,0,0,0-.83-.77h0L4,8.78a.18.18,0,0,0-.24,0l-.36.32,0,0a6,6,0,0,0-.8.76,1.17,1.17,0,0,0-.33.79,1,1,0,0,0,.26.7.88.88,0,0,0,.65.28.79.79,0,0,0,.51-.18l0,0h0Z"/><path class="eb8b524f-4556-40aa-84c4-0796e055d826" d="M4.51,9.65l0,0-.63-.52A.08.08,0,1,1,3.93,9l.64.52a.09.09,0,0,1-.06.15Z"/><path class="eb8b524f-4556-40aa-84c4-0796e055d826" d="M4.91,10s0,0,0,0l-.22-.18a.08.08,0,0,1,0-.12.07.07,0,0,1,.11,0L5,9.86A.09.09,0,0,1,5,10,.09.09,0,0,1,4.91,10Z"/><path class="addfb3a4-a964-4a01-85b3-79f3b07bae00" d="M55.94,81.67a7,7,0,0,0,.82.77l.38.33a.19.19,0,0,0,.13,0,.24.24,0,0,0,.13,0l.37-.33a6.45,6.45,0,0,0,.83-.77,1.26,1.26,0,0,0,.33-.81,1,1,0,0,0-.27-.7.86.86,0,0,0-.66-.29.82.82,0,0,0-.52.18l0,0,.2-.56a.09.09,0,0,0-.08-.12H57a.08.08,0,0,0-.08.11l.19.58,0,0a.84.84,0,0,0-.52-.18.88.88,0,0,0-.67.29,1,1,0,0,0-.26.7A1.21,1.21,0,0,0,55.94,81.67Z"/><path class="fc7f740d-9b03-4d8e-b0b6-5f067fb81bac" d="M57,79.38h.55a.11.11,0,0,1,.09.05.09.09,0,0,1,0,.09l-.18.5a.93.93,0,0,1,1.21.12,1.08,1.08,0,0,1,.26.72,1.22,1.22,0,0,1-.33.82,6.84,6.84,0,0,1-.81.76l0,0c-.12.09-.24.2-.37.31a.21.21,0,0,1-.28,0l-.37-.31h0a8.12,8.12,0,0,1-.83-.78h0a1.27,1.27,0,0,1-.33-.82,1.09,1.09,0,0,1,.27-.72.89.89,0,0,1,.68-.29.87.87,0,0,1,.53.18h0l-.17-.52a.1.1,0,0,1,0-.09A.1.1,0,0,1,57,79.38Zm.43.72h0s0,0,0,0l.2-.57a.13.13,0,0,0,0-.06.06.06,0,0,0-.06,0H57a.05.05,0,0,0,0,0,0,0,0,0,0,0,.06l.19.58v0h0l-.06,0a.79.79,0,0,0-.5-.18.86.86,0,0,0-.65.29,1,1,0,0,0-.26.69,1.22,1.22,0,0,0,.32.8h0a7,7,0,0,0,.82.77h0l.37.32a.19.19,0,0,0,.23,0l.37-.32,0,0a6.67,6.67,0,0,0,.8-.76,1.24,1.24,0,0,0,.33-.8,1,1,0,0,0-.26-.69.89.89,0,0,0-.65-.29.79.79,0,0,0-.51.18l0,0v0Z"/><path class="eb8b524f-4556-40aa-84c4-0796e055d826" d="M56.6,81.89a.06.06,0,0,1,0,0l.63.51a.09.09,0,0,1-.11.13L56.54,82a.09.09,0,0,1,0-.12A.09.09,0,0,1,56.6,81.89Z"/><path class="eb8b524f-4556-40aa-84c4-0796e055d826" d="M56.19,81.52l.06,0,.22.19a.08.08,0,0,1,0,.12.09.09,0,0,1-.12,0l-.22-.19a.08.08,0,0,1,0-.12A.09.09,0,0,1,56.19,81.52Z"/><path class="addfb3a4-a964-4a01-85b3-79f3b07bae00" d="M49.56,13.46a27.09,27.09,0,0,0-3.13-2.94L45,9.29a.71.71,0,0,0-1,0l-1.44,1.23a27.09,27.09,0,0,0-3.13,2.94,4.7,4.7,0,0,0-1.25,3.07,4,4,0,0,0,1,2.69,3.39,3.39,0,0,0,2.52,1.09,3.17,3.17,0,0,0,2-.68l.17-.14-.76,2.16a.32.32,0,0,0,.31.43h2.1a.33.33,0,0,0,.31-.43l-.74-2.2a1.24,1.24,0,0,0,.22.18,3.17,3.17,0,0,0,2,.68,3.39,3.39,0,0,0,2.52-1.09,4,4,0,0,0,1-2.69A4.7,4.7,0,0,0,49.56,13.46Z"/><path class="fc7f740d-9b03-4d8e-b0b6-5f067fb81bac" d="M45.52,22.15h-2.1a.42.42,0,0,1-.33-.16.44.44,0,0,1-.05-.37l.68-1.91a3.27,3.27,0,0,1-2,.68,3.47,3.47,0,0,1-2.57-1.12,4.07,4.07,0,0,1-1-2.74,4.78,4.78,0,0,1,1.27-3.12,28,28,0,0,1,3.13-2.94c.39-.33.92-.78,1.44-1.24a.83.83,0,0,1,1.07,0l1.43,1.24a25.71,25.71,0,0,1,3.14,2.94h0a4.72,4.72,0,0,1,1.27,3.12,4,4,0,0,1-1,2.74,3.47,3.47,0,0,1-2.57,1.12,3.27,3.27,0,0,1-2-.7l0,0,.66,2a.39.39,0,0,1-.06.36A.4.4,0,0,1,45.52,22.15Zm-1.65-2.73,0,0a.06.06,0,0,1,0,.08l-.76,2.15a.24.24,0,0,0,0,.23.26.26,0,0,0,.21.11h2.1a.25.25,0,0,0,.2-.1.26.26,0,0,0,0-.24L45,19.48a.08.08,0,0,1,0-.09.08.08,0,0,1,.08,0l.21.18a3.1,3.1,0,0,0,1.94.66,3.3,3.3,0,0,0,2.46-1.07,3.83,3.83,0,0,0,1-2.64,4.64,4.64,0,0,0-1.23-3h0a27.63,27.63,0,0,0-3.11-2.92L44.94,9.34a.69.69,0,0,0-.88,0l-1.43,1.24a27,27,0,0,0-3.12,2.92,4.64,4.64,0,0,0-1.23,3,3.85,3.85,0,0,0,1,2.64,3.31,3.31,0,0,0,2.46,1.07,3.1,3.1,0,0,0,1.94-.66l.16-.14Z"/><path class="eb8b524f-4556-40aa-84c4-0796e055d826" d="M47.06,12.64a.3.3,0,0,1-.2-.08l-2.41-2a.33.33,0,0,1,0-.45.31.31,0,0,1,.45,0l2.4,2a.32.32,0,0,1,.05.45A.33.33,0,0,1,47.06,12.64Z"/><path class="eb8b524f-4556-40aa-84c4-0796e055d826" d="M48.58,14a.33.33,0,0,1-.21-.07l-.84-.71a.32.32,0,0,1,0-.45.31.31,0,0,1,.45,0l.85.71a.32.32,0,0,1-.21.56Z"/><path class="addfb3a4-a964-4a01-85b3-79f3b07bae00" d="M21.65,13.46a26.29,26.29,0,0,0-3.13-2.94L17.09,9.29a.73.73,0,0,0-1,0l-1.43,1.23a26.29,26.29,0,0,0-3.13,2.94,4.7,4.7,0,0,0-1.25,3.07,4,4,0,0,0,1,2.69,3.37,3.37,0,0,0,2.52,1.09,3.19,3.19,0,0,0,2-.68l.17-.14-.76,2.16a.32.32,0,0,0,.31.43h2.09a.32.32,0,0,0,.31-.43l-.73-2.2a1.68,1.68,0,0,0,.21.18,3.19,3.19,0,0,0,2,.68,3.36,3.36,0,0,0,2.52-1.09,3.92,3.92,0,0,0,1-2.69A4.65,4.65,0,0,0,21.65,13.46Z"/><path class="fc7f740d-9b03-4d8e-b0b6-5f067fb81bac" d="M17.61,22.15H15.52a.42.42,0,0,1-.33-.16.4.4,0,0,1,0-.37l.67-1.91a3.22,3.22,0,0,1-2,.68,3.46,3.46,0,0,1-2.57-1.12,4,4,0,0,1-1-2.74,4.72,4.72,0,0,1,1.27-3.12,27.13,27.13,0,0,1,3.13-2.94l1.44-1.24a.83.83,0,0,1,1.07,0l1.43,1.24a26.47,26.47,0,0,1,3.14,2.94h0A4.76,4.76,0,0,1,23,16.53a4.06,4.06,0,0,1-1,2.74,3.48,3.48,0,0,1-2.58,1.12,3.26,3.26,0,0,1-2-.7l0,0,.65,2a.39.39,0,0,1-.38.52ZM16,19.42l0,0a.07.07,0,0,1,0,.08l-.76,2.15a.27.27,0,0,0,0,.23.25.25,0,0,0,.21.11h2.09a.27.27,0,0,0,.21-.1.29.29,0,0,0,0-.24l-.74-2.19a.08.08,0,0,1,0-.09.1.1,0,0,1,.09,0l.21.18a3.09,3.09,0,0,0,1.93.66,3.34,3.34,0,0,0,2.47-1.07,3.88,3.88,0,0,0,1-2.64,4.64,4.64,0,0,0-1.23-3h0a27,27,0,0,0-3.12-2.92L17,9.34a.69.69,0,0,0-.88,0l-1.43,1.24a25.42,25.42,0,0,0-3.12,2.92,4.61,4.61,0,0,0-1.24,3,3.9,3.9,0,0,0,1,2.64,3.34,3.34,0,0,0,2.47,1.07,3.14,3.14,0,0,0,1.94-.66l.16-.14Z"/><path class="eb8b524f-4556-40aa-84c4-0796e055d826" d="M19.15,12.64a.32.32,0,0,1-.2-.08l-2.4-2a.32.32,0,1,1,.41-.49l2.4,2a.33.33,0,0,1,0,.45A.3.3,0,0,1,19.15,12.64Z"/><path class="eb8b524f-4556-40aa-84c4-0796e055d826" d="M20.68,14a.31.31,0,0,1-.21-.07l-.85-.71a.32.32,0,0,1,0-.45.31.31,0,0,1,.45,0l.84.71a.32.32,0,0,1-.2.56Z"/><path class="addfb3a4-a964-4a01-85b3-79f3b07bae00" d="M49.56,43.69a27.1,27.1,0,0,0-3.13-2.93C46,40.39,45.5,40,45,39.52a.74.74,0,0,0-1,0c-.51.45-1,.87-1.44,1.24a27.1,27.1,0,0,0-3.13,2.93,4.72,4.72,0,0,0-1.25,3.07,3.94,3.94,0,0,0,1,2.69,3.4,3.4,0,0,0,2.52,1.1,3.17,3.17,0,0,0,2-.68l.17-.14-.76,2.15a.33.33,0,0,0,.31.44h2.1a.33.33,0,0,0,.31-.43l-.74-2.2.22.18a3.17,3.17,0,0,0,2,.68,3.4,3.4,0,0,0,2.52-1.1,3.94,3.94,0,0,0,1-2.69A4.72,4.72,0,0,0,49.56,43.69Z"/><path class="fc7f740d-9b03-4d8e-b0b6-5f067fb81bac" d="M45.52,52.39h-2.1a.4.4,0,0,1-.33-.17.42.42,0,0,1-.05-.36L43.72,50a3.26,3.26,0,0,1-2,.67,3.44,3.44,0,0,1-2.57-1.12,4,4,0,0,1-1-2.74,4.77,4.77,0,0,1,1.27-3.11,27.09,27.09,0,0,1,3.13-2.94c.39-.33.92-.78,1.44-1.24a.83.83,0,0,1,1.07,0l1.43,1.23a26.5,26.5,0,0,1,3.14,2.95h0a4.72,4.72,0,0,1,1.27,3.11,4,4,0,0,1-1,2.74,3.44,3.44,0,0,1-2.57,1.12,3.21,3.21,0,0,1-2-.7h0l.66,2a.41.41,0,0,1-.06.37A.4.4,0,0,1,45.52,52.39Zm-1.65-2.73h0a.07.07,0,0,1,0,.08l-.76,2.16a.24.24,0,0,0,0,.23.26.26,0,0,0,.21.11h2.1a.23.23,0,0,0,.2-.11.24.24,0,0,0,0-.23L45,49.71a.07.07,0,0,1,0-.08.06.06,0,0,1,.08,0l.21.17a3,3,0,0,0,1.94.67,3.3,3.3,0,0,0,2.46-1.07,3.86,3.86,0,0,0,1-2.65,4.64,4.64,0,0,0-1.23-3h0a27.63,27.63,0,0,0-3.11-2.92l-1.45-1.24a.67.67,0,0,0-.88,0c-.52.46-1.05.91-1.43,1.23a27.85,27.85,0,0,0-3.12,2.93,4.62,4.62,0,0,0-1.23,3,3.86,3.86,0,0,0,1,2.65,3.31,3.31,0,0,0,2.46,1.07,3,3,0,0,0,1.94-.67l.16-.13Z"/><path class="eb8b524f-4556-40aa-84c4-0796e055d826" d="M47.06,42.87a.29.29,0,0,1-.2-.07l-2.41-2a.33.33,0,0,1,0-.45.32.32,0,0,1,.45,0l2.4,2a.32.32,0,0,1,.05.45A.33.33,0,0,1,47.06,42.87Z"/><path class="eb8b524f-4556-40aa-84c4-0796e055d826" d="M48.58,44.26a.34.34,0,0,1-.21-.08l-.84-.71a.32.32,0,0,1,0-.45.33.33,0,0,1,.45,0l.85.71a.32.32,0,0,1,0,.45A.3.3,0,0,1,48.58,44.26Z"/><path class="addfb3a4-a964-4a01-85b3-79f3b07bae00" d="M21.65,43.69a26.3,26.3,0,0,0-3.13-2.93l-1.43-1.24a.76.76,0,0,0-1,0l-1.43,1.24a26.3,26.3,0,0,0-3.13,2.93,4.72,4.72,0,0,0-1.25,3.07,3.94,3.94,0,0,0,1,2.69,3.38,3.38,0,0,0,2.52,1.1,3.19,3.19,0,0,0,2-.68l.17-.14-.76,2.15a.33.33,0,0,0,.31.44h2.09a.32.32,0,0,0,.31-.43l-.73-2.2.21.18a3.19,3.19,0,0,0,2,.68,3.37,3.37,0,0,0,2.52-1.1,3.89,3.89,0,0,0,1-2.69A4.67,4.67,0,0,0,21.65,43.69Z"/><path class="fc7f740d-9b03-4d8e-b0b6-5f067fb81bac" d="M17.61,52.39H15.52a.4.4,0,0,1-.33-.17.38.38,0,0,1,0-.36L15.81,50a3.21,3.21,0,0,1-2,.67,3.42,3.42,0,0,1-2.57-1.12,4,4,0,0,1-1-2.74,4.72,4.72,0,0,1,1.27-3.11,26.29,26.29,0,0,1,3.13-2.94l1.44-1.24a.83.83,0,0,1,1.07,0l1.43,1.23a27.31,27.31,0,0,1,3.14,2.95h0A4.76,4.76,0,0,1,23,46.76a4,4,0,0,1-1,2.74,3.44,3.44,0,0,1-2.58,1.12,3.2,3.2,0,0,1-2-.7h0l.65,2a.44.44,0,0,1,0,.37A.42.42,0,0,1,17.61,52.39ZM16,49.66h0a.08.08,0,0,1,0,.08l-.76,2.16a.27.27,0,0,0,0,.23.25.25,0,0,0,.21.11h2.09a.25.25,0,0,0,.21-.11.27.27,0,0,0,0-.23l-.74-2.2a.07.07,0,0,1,0-.08.08.08,0,0,1,.09,0,1.73,1.73,0,0,0,.21.17,3,3,0,0,0,1.93.67,3.34,3.34,0,0,0,2.47-1.07,3.9,3.9,0,0,0,1-2.65,4.64,4.64,0,0,0-1.23-3h0a27,27,0,0,0-3.12-2.92L17,39.58a.67.67,0,0,0-.88,0l-1.43,1.23a26.2,26.2,0,0,0-3.12,2.93,4.58,4.58,0,0,0-1.24,3,3.9,3.9,0,0,0,1,2.65,3.34,3.34,0,0,0,2.47,1.07,3.09,3.09,0,0,0,1.94-.67l.16-.13Z"/><path class="eb8b524f-4556-40aa-84c4-0796e055d826" d="M19.15,42.87a.31.31,0,0,1-.2-.07l-2.4-2a.32.32,0,0,1-.05-.45.33.33,0,0,1,.46,0l2.4,2a.33.33,0,0,1,0,.45A.3.3,0,0,1,19.15,42.87Z"/><path class="eb8b524f-4556-40aa-84c4-0796e055d826" d="M20.68,44.26a.32.32,0,0,1-.21-.08l-.85-.71a.32.32,0,0,1,0-.45A.33.33,0,0,1,20,43l.84.71a.32.32,0,0,1,0,.45A.3.3,0,0,1,20.68,44.26Z"/><path class="addfb3a4-a964-4a01-85b3-79f3b07bae00" d="M49.56,73.8a28,28,0,0,0-3.13-2.94L45,69.63a.74.74,0,0,0-1,0l-1.44,1.23a28,28,0,0,0-3.13,2.94,4.7,4.7,0,0,0-1.25,3.07,4,4,0,0,0,1,2.69,3.4,3.4,0,0,0,2.52,1.1,3.12,3.12,0,0,0,2-.69l.17-.13L43.11,82a.32.32,0,0,0,.31.43h2.1a.33.33,0,0,0,.31-.43l-.74-2.19a1.84,1.84,0,0,0,.22.17,3.12,3.12,0,0,0,2,.69,3.4,3.4,0,0,0,2.52-1.1,4,4,0,0,0,1-2.69A4.7,4.7,0,0,0,49.56,73.8Z"/><path class="fc7f740d-9b03-4d8e-b0b6-5f067fb81bac" d="M45.52,82.5h-2.1a.43.43,0,0,1-.33-.17A.44.44,0,0,1,43,82l.68-1.91a3.27,3.27,0,0,1-2,.68,3.47,3.47,0,0,1-2.57-1.12,4,4,0,0,1-1-2.74,4.81,4.81,0,0,1,1.27-3.12,27.1,27.1,0,0,1,3.13-2.93c.39-.34.92-.78,1.44-1.25a.84.84,0,0,1,1.07,0l1.43,1.23a26.51,26.51,0,0,1,3.14,2.94h0a4.76,4.76,0,0,1,1.27,3.12,4,4,0,0,1-1,2.74,3.47,3.47,0,0,1-2.57,1.12,3.27,3.27,0,0,1-2-.7l0,0,.66,2a.39.39,0,0,1-.06.36A.39.39,0,0,1,45.52,82.5Zm-1.65-2.74,0,0a.07.07,0,0,1,0,.08L43.18,82a.26.26,0,0,0,0,.24.28.28,0,0,0,.21.1h2.1a.25.25,0,0,0,.2-.1.26.26,0,0,0,0-.24L45,79.82a.06.06,0,0,1,0-.08.06.06,0,0,1,.08,0l.21.18a3.11,3.11,0,0,0,1.94.67,3.31,3.31,0,0,0,2.46-1.08,3.81,3.81,0,0,0,1-2.64,4.6,4.6,0,0,0-1.23-3h0a26.74,26.74,0,0,0-3.11-2.93l-1.45-1.24a.69.69,0,0,0-.88,0l-1.43,1.24a26.12,26.12,0,0,0-3.12,2.93,4.6,4.6,0,0,0-1.23,3,3.81,3.81,0,0,0,1,2.64,3.32,3.32,0,0,0,2.46,1.08,3.11,3.11,0,0,0,1.94-.67l.16-.14Z"/><path class="eb8b524f-4556-40aa-84c4-0796e055d826" d="M47.06,73a.35.35,0,0,1-.2-.07l-2.41-2a.32.32,0,1,1,.41-.49l2.4,2a.32.32,0,0,1,.05.45A.33.33,0,0,1,47.06,73Z"/><path class="eb8b524f-4556-40aa-84c4-0796e055d826" d="M48.58,74.36a.33.33,0,0,1-.21-.07l-.84-.71a.32.32,0,1,1,.41-.49l.85.71a.32.32,0,0,1,0,.45A.29.29,0,0,1,48.58,74.36Z"/><path class="addfb3a4-a964-4a01-85b3-79f3b07bae00" d="M21.65,73.8a27.13,27.13,0,0,0-3.13-2.94l-1.43-1.23a.76.76,0,0,0-1,0l-1.43,1.23a27.13,27.13,0,0,0-3.13,2.94,4.7,4.7,0,0,0-1.25,3.07,4,4,0,0,0,1,2.69,3.38,3.38,0,0,0,2.52,1.1,3.14,3.14,0,0,0,2-.69l.17-.13L15.21,82a.32.32,0,0,0,.31.43h2.09a.32.32,0,0,0,.31-.43l-.73-2.19.21.17a3.14,3.14,0,0,0,2,.69,3.37,3.37,0,0,0,2.52-1.1,3.91,3.91,0,0,0,1-2.69A4.65,4.65,0,0,0,21.65,73.8Z"/><path class="fc7f740d-9b03-4d8e-b0b6-5f067fb81bac" d="M17.61,82.5H15.52a.43.43,0,0,1-.33-.17.4.4,0,0,1,0-.37l.67-1.91a3.22,3.22,0,0,1-2,.68,3.46,3.46,0,0,1-2.57-1.12,4,4,0,0,1-1-2.74,4.76,4.76,0,0,1,1.27-3.12,26.3,26.3,0,0,1,3.13-2.93l1.44-1.25a.84.84,0,0,1,1.07,0l1.43,1.23a27.32,27.32,0,0,1,3.14,2.94h0A4.8,4.8,0,0,1,23,76.87a4,4,0,0,1-1,2.74,3.48,3.48,0,0,1-2.58,1.12,3.26,3.26,0,0,1-2-.7l0,0L18,82a.42.42,0,0,1,0,.36A.4.4,0,0,1,17.61,82.5ZM16,79.76l0,0a.08.08,0,0,1,0,.08L15.27,82a.29.29,0,0,0,0,.24.27.27,0,0,0,.21.1h2.09a.27.27,0,0,0,.21-.1.29.29,0,0,0,0-.24l-.74-2.19a.06.06,0,0,1,0-.08.07.07,0,0,1,.09,0l.21.18a3.1,3.1,0,0,0,1.93.67,3.34,3.34,0,0,0,2.47-1.08,3.86,3.86,0,0,0,1-2.64,4.6,4.6,0,0,0-1.23-3h0a26.12,26.12,0,0,0-3.12-2.93L17,69.68a.69.69,0,0,0-.88,0l-1.43,1.24a24.66,24.66,0,0,0-3.12,2.93,4.56,4.56,0,0,0-1.24,3,3.86,3.86,0,0,0,1,2.64,3.34,3.34,0,0,0,2.47,1.08,3.15,3.15,0,0,0,1.94-.67l.16-.14Z"/><path class="eb8b524f-4556-40aa-84c4-0796e055d826" d="M19.15,73a.37.37,0,0,1-.2-.07l-2.4-2a.32.32,0,0,1-.05-.45.34.34,0,0,1,.46,0l2.4,2a.33.33,0,0,1,0,.45A.3.3,0,0,1,19.15,73Z"/><path class="eb8b524f-4556-40aa-84c4-0796e055d826" d="M20.68,74.36a.31.31,0,0,1-.21-.07l-.85-.71a.32.32,0,0,1,.42-.49l.84.71a.32.32,0,0,1,0,.45A.29.29,0,0,1,20.68,74.36Z"/></g></g></svg>