<svg xmlns="http://www.w3.org/2000/svg" viewBox="0 0 46.6 46.6"><defs><style>.fcd25742-3fb1-45fc-b7d0-93a5e1c14c89{fill:#f79011;}.b2385a3f-e29d-4248-8f8d-af983d3dfd68{fill:#cc6f12;}.bc1553d9-a810-4ed2-9a08-0ed230b6068b{fill:#f8cb1b;}.e1bdaf9e-e9eb-41ab-923f-74f9dc4ca6d0{fill:#313d40;}.b80e53f4-6b7d-4707-9ec0-af1f761d68ef{fill:#f9dea0;}</style></defs><title>sol</title><g id="bd25b111-626b-4f13-ade6-60a60d0c780d" data-name="Capa 2"><g id="a3840c9c-2cee-45b2-89e0-2f228cc2d309" data-name="Objects"><path class="fcd25742-3fb1-45fc-b7d0-93a5e1c14c89" d="M25.52,1.07l3,2.72,4-.85a3.3,3.3,0,0,1,3.84,2.22L37.58,9l3.87,1.24a3.31,3.31,0,0,1,2.21,3.84l-.85,4,2.72,3a3.31,3.31,0,0,1,0,4.44l-2.72,3,.85,4a3.3,3.3,0,0,1-2.21,3.84l-3.87,1.24-1.24,3.87a3.3,3.3,0,0,1-3.84,2.21l-4-.85-3,2.72a3.31,3.31,0,0,1-4.44,0l-3-2.72-4,.85a3.31,3.31,0,0,1-3.84-2.21L9,37.58,5.16,36.34A3.3,3.3,0,0,1,2.94,32.5l.85-4-2.72-3a3.31,3.31,0,0,1,0-4.44l2.72-3-.85-4a3.3,3.3,0,0,1,2.22-3.84L9,9l1.24-3.86A3.3,3.3,0,0,1,14.1,2.94l4,.85,3-2.72a3.31,3.31,0,0,1,4.44,0Z"/><path class="b2385a3f-e29d-4248-8f8d-af983d3dfd68" d="M23.3,46.6a3.5,3.5,0,0,1-2.36-.91L18,43l-3.86.83a3.51,3.51,0,0,1-4.09-2.36L8.85,37.75,5.09,36.54a3.52,3.52,0,0,1-2.36-4.09l.83-3.86L.91,25.66a3.52,3.52,0,0,1,0-4.72L3.56,18l-.83-3.86a3.52,3.52,0,0,1,2.36-4.09L8.85,8.85l1.21-3.76a3.52,3.52,0,0,1,4.09-2.36L18,3.56,20.94.91a3.52,3.52,0,0,1,4.72,0h0l2.93,2.65,3.86-.83a3.52,3.52,0,0,1,4.09,2.36l1.21,3.76,3.76,1.21a3.51,3.51,0,0,1,2.36,4.09L43,18l2.65,2.93a3.52,3.52,0,0,1,0,4.72L43,28.59l.83,3.86a3.51,3.51,0,0,1-2.36,4.09l-3.76,1.21-1.21,3.76a3.52,3.52,0,0,1-4.09,2.36L28.59,43l-2.93,2.65A3.5,3.5,0,0,1,23.3,46.6Zm-5.17-4,3.09,2.8a3.1,3.1,0,0,0,4.16,0l3.09-2.8,4.07.88a3.1,3.1,0,0,0,3.6-2.08l1.27-4,4-1.27a3.1,3.1,0,0,0,2.08-3.6l-.88-4.07,2.8-3.09a3.1,3.1,0,0,0,0-4.16l-2.8-3.09.88-4.07a3.08,3.08,0,0,0-2.08-3.59l-4-1.28-1.27-4a3.1,3.1,0,0,0-3.6-2.08L28.47,4l-3.09-2.8a3.1,3.1,0,0,0-4.16,0L18.13,4l-4.07-.88a3.1,3.1,0,0,0-3.6,2.08l-1.27,4-4,1.28a3.08,3.08,0,0,0-2.08,3.59L4,18.13l-2.8,3.09a3.1,3.1,0,0,0,0,4.16L4,28.47l-.88,4.07a3.1,3.1,0,0,0,2.08,3.6l4,1.27,1.27,4a3.1,3.1,0,0,0,3.6,2.08Z"/><path class="bc1553d9-a810-4ed2-9a08-0ed230b6068b" d="M23.3,40.76A17.46,17.46,0,1,1,40.76,23.3,17.48,17.48,0,0,1,23.3,40.76Z"/><path class="e1bdaf9e-e9eb-41ab-923f-74f9dc4ca6d0" d="M17.31,18.66a.69.69,0,0,0-.7.69v.93a.7.7,0,1,0,1.39,0v-.93A.69.69,0,0,0,17.31,18.66Z"/><path class="e1bdaf9e-e9eb-41ab-923f-74f9dc4ca6d0" d="M29.2,18.66a.69.69,0,0,0-.7.69v.93a.7.7,0,1,0,1.4,0v-.93A.7.7,0,0,0,29.2,18.66Z"/><path class="e1bdaf9e-e9eb-41ab-923f-74f9dc4ca6d0" d="M23.54,26.43a5.36,5.36,0,0,1-3.22-1.23.57.57,0,0,1-.12-.8.57.57,0,0,1,.8-.11c1.76,1.32,3.33,1.33,4.94,0a.57.57,0,0,1,.8.08.58.58,0,0,1-.08.81A4.89,4.89,0,0,1,23.54,26.43Z"/><path class="b80e53f4-6b7d-4707-9ec0-af1f761d68ef" d="M34.69,14a1.16,1.16,0,0,1-.85-.38A13.11,13.11,0,0,0,26,9.38a1.14,1.14,0,0,1,.17-2.28,15.15,15.15,0,0,1,9.38,5,1.14,1.14,0,0,1-.07,1.61A1.15,1.15,0,0,1,34.69,14Z"/><path class="b80e53f4-6b7d-4707-9ec0-af1f761d68ef" d="M36.89,16.84a1.13,1.13,0,0,1-.87-.4l-.76-.89A1.14,1.14,0,0,1,37,14.07l.77.89a1.14,1.14,0,0,1-.87,1.88Z"/></g></g></svg>