<svg xmlns="http://www.w3.org/2000/svg" viewBox="0 0 61.11 91.54"><defs><style>.b143fddf-d0c7-4c79-bf45-800780799ac0{fill:none;}.ae92f9b5-6529-47e4-bdc9-828f376a2e3d{fill:#adadad;}.eecf55c6-9986-4c72-bebf-24a21dad682b{fill:#363026;}.ab050070-e8bd-4f64-b9f6-203bcc2a0bec{fill:#716b61;}.aebf9932-6199-4d57-8d30-e421e1e55c10{fill:#453f31;}.b4c6d376-45c8-43e9-94bc-b37dbfc1b030{fill:#aaa194;}</style></defs><title>T_1</title><g id="a6174ccc-a24b-45c4-aafa-40c06791404e" data-name="Capa 2"><g id="aa37646b-3eb3-4fb5-a0ee-9b02c6371591" data-name="Objects"><rect class="b143fddf-d0c7-4c79-bf45-800780799ac0" x="0.13" y="0.12" width="60.86" height="91.29" rx="2.4"/><path class="ae92f9b5-6529-47e4-bdc9-828f376a2e3d" d="M58.59,91.54H2.52A2.53,2.53,0,0,1,0,89V2.52A2.52,2.52,0,0,1,2.52,0H58.59a2.52,2.52,0,0,1,2.52,2.52V89A2.53,2.53,0,0,1,58.59,91.54ZM2.52.25A2.27,2.27,0,0,0,.25,2.52V89a2.28,2.28,0,0,0,2.27,2.28H58.59A2.28,2.28,0,0,0,60.86,89V2.52A2.27,2.27,0,0,0,58.59.25Z"/><path class="eecf55c6-9986-4c72-bebf-24a21dad682b" d="M3.91,2.68,1.61,8.39a.35.35,0,0,1-.11.15.24.24,0,0,1-.15,0,.26.26,0,0,1-.2-.07.33.33,0,0,1-.07-.17.26.26,0,0,1,0-.12l2.5-6.1A.37.37,0,0,1,3.7,2a.31.31,0,0,1,.17,0A.22.22,0,0,1,4,2a.26.26,0,0,1,.11.14L6.63,8.19a.5.5,0,0,1,0,.12.24.24,0,0,1-.09.2.27.27,0,0,1-.2.07.24.24,0,0,1-.16-.05.31.31,0,0,1-.11-.14L3.74,2.64Zm-1.75,4,.23-.55H5.32l.12.55Z"/><path class="eecf55c6-9986-4c72-bebf-24a21dad682b" d="M57.2,88.85l2.3-5.71a.27.27,0,0,1,.25-.19A.28.28,0,0,1,60,83a.3.3,0,0,1,.08.18.45.45,0,0,1,0,.11l-2.5,6.11a.31.31,0,0,1-.12.15.38.38,0,0,1-.16,0,.34.34,0,0,1-.17,0,.53.53,0,0,1-.11-.14l-2.48-6.08a.52.52,0,0,1,0-.11.29.29,0,0,1,.08-.21.37.37,0,0,1,.2-.07.31.31,0,0,1,.17,0,.49.49,0,0,1,.11.14l2.35,5.75Zm1.75-4-.24.56H55.78l-.11-.56Z"/><path class="ab050070-e8bd-4f64-b9f6-203bcc2a0bec" d="M4.74,9.84a.84.84,0,0,0,0-.42,1,1,0,0,0-1.89.16.75.75,0,0,0,0,.26A1,1,0,0,0,3,11.74a1,1,0,0,0,.72-.27L3.65,12a.05.05,0,0,0,.05.07H4A.05.05,0,0,0,4,12l-.07-.52a.95.95,0,0,0,1.61-.59A1,1,0,0,0,4.74,9.84Z"/><path class="aebf9932-6199-4d57-8d30-e421e1e55c10" d="M4,12.08H3.7a.05.05,0,0,1-.05,0,.07.07,0,0,1,0-.06l.06-.47a1,1,0,0,1-.63.24H3a1,1,0,0,1-.91-.88,1,1,0,0,1,.8-1.05.67.67,0,0,1,0-.24,1,1,0,0,1,.32-.72,1,1,0,0,1,.75-.25,1,1,0,0,1,.86.8.94.94,0,0,1,0,.41,1,1,0,0,1,.8,1.05,1,1,0,0,1-.91.88H4.59A1,1,0,0,1,4,11.52L4,12a.07.07,0,0,1,0,.06A.05.05,0,0,1,4,12.08Zm-.23-.62h0v0L3.66,12v0H4v0l-.08-.52v0a0,0,0,0,1,0,0,1,1,0,0,0,.7.26.94.94,0,0,0,.1-1.86h0s0,0,0,0a1.13,1.13,0,0,0,0-.41.94.94,0,0,0-.83-.78h-.1a.94.94,0,0,0-.63.24,1,1,0,0,0-.3.7,1.07,1.07,0,0,0,0,.25s0,0,0,0h0A.94.94,0,0,0,3,11.72h.06a.94.94,0,0,0,.65-.26Z"/><path class="b4c6d376-45c8-43e9-94bc-b37dbfc1b030" d="M4.54,9.55h0a.09.09,0,0,1-.08-.1.58.58,0,0,0-.52-.56.09.09,0,0,1,0-.17.76.76,0,0,1,.67.75A.09.09,0,0,1,4.54,9.55Z"/><path class="b4c6d376-45c8-43e9-94bc-b37dbfc1b030" d="M4.55,9.87a.09.09,0,0,1-.09-.08V9.68a.09.09,0,0,1,.18,0v.11A.09.09,0,0,1,4.55,9.87Z"/><path class="ab050070-e8bd-4f64-b9f6-203bcc2a0bec" d="M56.37,81.48a1,1,0,0,0,0,.42,1,1,0,0,0,1.9-.16,1.09,1.09,0,0,0,0-.26,1,1,0,0,0-.1-1.89,1,1,0,0,0-.71.26l.07-.52s0-.06-.06-.06h-.24a.06.06,0,0,0-.06.06l.08.52a1,1,0,0,0-.72-.26,1,1,0,0,0-.09,1.89Z"/><path class="aebf9932-6199-4d57-8d30-e421e1e55c10" d="M57.28,82.71h-.09a1,1,0,0,1-.86-.8.94.94,0,0,1,0-.41,1,1,0,0,1,.12-1.93h.06a.92.92,0,0,1,.63.24l-.06-.48a0,0,0,0,1,0,0,.05.05,0,0,1,0,0h.24l.06,0a.07.07,0,0,1,0,.06l-.07.48a.94.94,0,0,1,.64-.24h.05a1,1,0,0,1,.12,1.93,1,1,0,0,1,0,.24,1,1,0,0,1-1,1Zm-.76-3.11h-.06a.93.93,0,0,0-.09,1.85h0v0a.94.94,0,0,0,0,.41.92.92,0,0,0,.83.77h.09a1,1,0,0,0,.94-.94.69.69,0,0,0,0-.25v0a0,0,0,0,1,0,0,.93.93,0,0,0-.1-1.85h-.05a1,1,0,0,0-.65.27h0s0,0,0,0l.07-.52s0,0,0,0,0,0,0,0h-.24l0,0a0,0,0,0,0,0,0l.07.52s0,0,0,0h0A1,1,0,0,0,56.52,79.6Z"/><path class="b4c6d376-45c8-43e9-94bc-b37dbfc1b030" d="M56.57,81.77h0a.08.08,0,0,1,.07.1.57.57,0,0,0,.53.56.1.1,0,0,1,.07.1.09.09,0,0,1-.1.08.76.76,0,0,1-.67-.76A.1.1,0,0,1,56.57,81.77Z"/><path class="b4c6d376-45c8-43e9-94bc-b37dbfc1b030" d="M56.56,81.45a.09.09,0,0,1,.08.09v.1a.09.09,0,0,1-.08.09.09.09,0,0,1-.09-.09v-.1A.09.09,0,0,1,56.56,81.45Z"/><path class="ab050070-e8bd-4f64-b9f6-203bcc2a0bec" d="M36.06,42.76a5.72,5.72,0,1,0-11.23-1.55,5.64,5.64,0,0,0,.22,1.55,5.72,5.72,0,1,0,4.87,9.77l-.44,3.13a.35.35,0,0,0,.34.39h1.46a.34.34,0,0,0,.34-.39l-.43-3.13a5.72,5.72,0,1,0,4.87-9.77Z"/><path class="aebf9932-6199-4d57-8d30-e421e1e55c10" d="M31.28,56.15H29.82a.41.41,0,0,1-.33-.15.44.44,0,0,1-.11-.36l.4-2.83a5.77,5.77,0,0,1-4.16,1.41,5.82,5.82,0,0,1-.7-11.54,5.65,5.65,0,0,1-.19-1.47,5.83,5.83,0,0,1,1.9-4.31,5.82,5.82,0,0,1,9.66,3.32,5.68,5.68,0,0,1-.1,2.46,5.82,5.82,0,0,1-.71,11.54,5.76,5.76,0,0,1-4.15-1.41l.4,2.83a.45.45,0,0,1-.45.51Zm-1.36-3.72h0a.09.09,0,0,1,.05.11l-.43,3.12a.25.25,0,0,0,.05.19.27.27,0,0,0,.18.08h1.46a.23.23,0,0,0,.18-.08.22.22,0,0,0,.06-.19l-.43-3.12a.09.09,0,0,1,.05-.11.11.11,0,0,1,.12,0A5.59,5.59,0,0,0,35.47,54,5.62,5.62,0,0,0,36,42.86a.1.1,0,0,1-.07,0,.1.1,0,0,1,0-.09,5.62,5.62,0,1,0-10.81,0,.14.14,0,0,1,0,.09.1.1,0,0,1-.07,0A5.62,5.62,0,0,0,25.64,54a5.56,5.56,0,0,0,4.21-1.56A.09.09,0,0,1,29.92,52.43Z"/><path class="b4c6d376-45c8-43e9-94bc-b37dbfc1b030" d="M34.84,41h-.05a.52.52,0,0,1-.47-.57c.19-1.74-1.48-3.11-3.13-3.38a.53.53,0,0,1-.43-.6.5.5,0,0,1,.6-.43c2.12.35,4.26,2.17,4,4.52A.52.52,0,0,1,34.84,41Z"/><path class="b4c6d376-45c8-43e9-94bc-b37dbfc1b030" d="M34.91,42.94a.52.52,0,0,1-.52-.53v-.63a.52.52,0,0,1,.52-.52.52.52,0,0,1,.53.52v.63A.53.53,0,0,1,34.91,42.94Z"/></g></g></svg>