<svg xmlns="http://www.w3.org/2000/svg" viewBox="0 0 61.11 91.54"><defs><style>.ebec1671-3370-4f4c-85c0-6127b1ab24ae{fill:none;}.be95d114-3c8a-45cb-b188-50559305a128{fill:#adadad;}.bb51327f-1e3f-49fe-baf7-0b2c69dd35e2{fill:#363026;}.fde4c1a2-0518-4771-9c86-0588a3dcc76f{fill:#716b61;}.b06a4c19-6003-4cff-a19e-924c608bb839{fill:#453f31;}.ea35a92e-9492-4f08-959a-beb0e59830de{fill:#aaa194;}</style></defs><title>T_6</title><g id="a07c4677-762a-45a0-81ac-6b674a34f712" data-name="Capa 2"><g id="bd4c4f22-ed32-42d4-987f-06efd4c833f9" data-name="Objects"><rect class="ebec1671-3370-4f4c-85c0-6127b1ab24ae" x="0.13" y="0.12" width="60.86" height="91.29" rx="2.4"/><path class="be95d114-3c8a-45cb-b188-50559305a128" d="M58.59,91.54H2.52A2.53,2.53,0,0,1,0,89V2.52A2.52,2.52,0,0,1,2.52,0H58.59a2.52,2.52,0,0,1,2.52,2.52V89A2.53,2.53,0,0,1,58.59,91.54ZM2.52.25A2.27,2.27,0,0,0,.25,2.52V89a2.28,2.28,0,0,0,2.27,2.28H58.59A2.28,2.28,0,0,0,60.86,89V2.52A2.27,2.27,0,0,0,58.59.25Z"/><path class="bb51327f-1e3f-49fe-baf7-0b2c69dd35e2" d="M4.14,8.64a2.24,2.24,0,0,1-1-.2,2,2,0,0,1-.68-.53,2.33,2.33,0,0,1-.39-.77A2.83,2.83,0,0,1,2,6.27a4.35,4.35,0,0,1,.12-1,6.67,6.67,0,0,1,.35-1.07,5.71,5.71,0,0,1,.58-1,4.4,4.4,0,0,1,.81-.86,3.44,3.44,0,0,1,1-.6.3.3,0,0,1,.12,0,.34.34,0,0,1,.2.06A.27.27,0,0,1,5.26,2a.28.28,0,0,1,0,.16A.34.34,0,0,1,5,2.29a3.54,3.54,0,0,0-.79.49,4.39,4.39,0,0,0-.72.71A5.45,5.45,0,0,0,3,4.37a3.8,3.8,0,0,0-.32,1l-.2.12a1.75,1.75,0,0,1,.43-.55,2.23,2.23,0,0,1,.63-.39,1.85,1.85,0,0,1,.74-.15A1.7,1.7,0,0,1,5,4.53,2.1,2.1,0,0,1,5.66,5a2.29,2.29,0,0,1,.55,1.5,2.1,2.1,0,0,1-.27,1,2.21,2.21,0,0,1-.74.78A1.9,1.9,0,0,1,4.14,8.64Zm0-.55a1.51,1.51,0,0,0,.78-.2,1.43,1.43,0,0,0,.54-.55,1.68,1.68,0,0,0,.19-.82,1.89,1.89,0,0,0-.16-.79A1.59,1.59,0,0,0,5,5.13a1.41,1.41,0,0,0-.81-.23,1.61,1.61,0,0,0-.87.23,1.54,1.54,0,0,0-.56.6,1.74,1.74,0,0,0-.2.82,1.55,1.55,0,0,0,.19.75,1.48,1.48,0,0,0,.54.57A1.56,1.56,0,0,0,4.12,8.09Z"/><path class="bb51327f-1e3f-49fe-baf7-0b2c69dd35e2" d="M57.11,82.9a2.13,2.13,0,0,1,1,.2,1.86,1.86,0,0,1,.67.53,2.31,2.31,0,0,1,.4.76,2.91,2.91,0,0,1,.13.87,4.44,4.44,0,0,1-.12,1,5.71,5.71,0,0,1-.35,1.06,5.48,5.48,0,0,1-.57,1,4.7,4.7,0,0,1-.81.86,3.44,3.44,0,0,1-1,.6l-.13,0a.31.31,0,0,1-.2-.07.29.29,0,0,1,0-.39.36.36,0,0,1,.17-.11,3.29,3.29,0,0,0,.78-.48,4.9,4.9,0,0,0,.72-.72,4.45,4.45,0,0,0,.56-.87,3.58,3.58,0,0,0,.33-1l.2-.13a1.82,1.82,0,0,1-.44.56,2.07,2.07,0,0,1-.62.38,1.86,1.86,0,0,1-.75.15A1.73,1.73,0,0,1,56.2,87a2.07,2.07,0,0,1-.62-.49,2.15,2.15,0,0,1-.4-.69A2.21,2.21,0,0,1,55,85a2.07,2.07,0,0,1,.27-1,2,2,0,0,1,1.8-1.08Zm0,.55a1.57,1.57,0,0,0-.79.19,1.43,1.43,0,0,0-.53.56,1.66,1.66,0,0,0-.2.82,1.93,1.93,0,0,0,.17.79,1.41,1.41,0,0,0,.49.59,1.34,1.34,0,0,0,.81.23,1.61,1.61,0,0,0,.87-.22A1.61,1.61,0,0,0,58.7,85a1.6,1.6,0,0,0-.18-.75,1.53,1.53,0,0,0-.55-.58A1.64,1.64,0,0,0,57.13,83.45Z"/><path class="fde4c1a2-0518-4771-9c86-0588a3dcc76f" d="M4.72,9.93a1,1,0,0,0,0-.43,1,1,0,0,0-1.9.17,1.17,1.17,0,0,0,0,.26,1,1,0,0,0-.8,1,1,1,0,0,0,.9.86,1,1,0,0,0,.71-.27l-.07.53s0,.06.06.06h.24A.06.06,0,0,0,4,12.08l-.08-.53a1,1,0,0,0,.72.27A1,1,0,0,0,5.52,11,.94.94,0,0,0,4.72,9.93Z"/><path class="b06a4c19-6003-4cff-a19e-924c608bb839" d="M3.93,12.16H3.69a.06.06,0,0,1-.06,0s0,0,0-.06l.07-.47A1,1,0,0,1,2.07,11a1,1,0,0,1,.8-1.05,1,1,0,0,1,0-.24A1,1,0,0,1,3.15,9a.94.94,0,0,1,.66-.25H3.9a1,1,0,0,1,.86.8.94.94,0,0,1,0,.41A1,1,0,0,1,5.54,11a1,1,0,0,1-.91.88H4.57a.92.92,0,0,1-.63-.24l.06.47a0,0,0,0,1,0,.06A.05.05,0,0,1,3.93,12.16Zm-.23-.62h0s0,0,0,0l-.07.52s0,0,0,0H4a0,0,0,0,0,0,0l-.07-.52a0,0,0,0,1,0,0h0a.94.94,0,0,0,.65.26h.06a.94.94,0,0,0,.09-1.86h0a.94.94,0,0,0,0-.41.91.91,0,0,0-.83-.77H3.81A1,1,0,0,0,3.18,9a.93.93,0,0,0-.31.7.73.73,0,0,0,0,.25h0a1,1,0,0,0-.78,1A.93.93,0,0,0,3,11.8H3a.94.94,0,0,0,.65-.26Z"/><path class="ea35a92e-9492-4f08-959a-beb0e59830de" d="M4.52,9.63h0a.07.07,0,0,1-.07-.09c0-.29-.25-.52-.53-.57a.08.08,0,0,1-.07-.1.09.09,0,0,1,.1-.07.75.75,0,0,1,.67.76A.09.09,0,0,1,4.52,9.63Z"/><path class="ea35a92e-9492-4f08-959a-beb0e59830de" d="M4.53,10a.08.08,0,0,1-.08-.08V9.76a.08.08,0,0,1,.08-.08.08.08,0,0,1,.09.08v.11A.08.08,0,0,1,4.53,10Z"/><path class="fde4c1a2-0518-4771-9c86-0588a3dcc76f" d="M56.38,81.61a1.17,1.17,0,0,0,0,.42,1,1,0,0,0,1.89-.16,1.09,1.09,0,0,0,0-.26,1,1,0,0,0,.8-1,1,1,0,0,0-.9-.85.9.9,0,0,0-.71.26l.07-.52a.07.07,0,0,0-.06-.07h-.24a.07.07,0,0,0-.06.07l.07.52a.9.9,0,0,0-.71-.26.94.94,0,0,0-.89.85A1,1,0,0,0,56.38,81.61Z"/><path class="b06a4c19-6003-4cff-a19e-924c608bb839" d="M57.3,82.84h-.09a1,1,0,0,1-.87-.81,1.14,1.14,0,0,1,0-.41,1,1,0,0,1,.12-1.92h.06a1,1,0,0,1,.63.23l-.07-.47a.14.14,0,0,1,0-.06l.06,0h.24l.06,0a.14.14,0,0,1,0,.06l-.07.47a1,1,0,0,1,.64-.23h0a1,1,0,0,1,.91.87,1,1,0,0,1-.79,1.05,1.13,1.13,0,0,1,0,.25,1,1,0,0,1-.32.72A1,1,0,0,1,57.3,82.84Zm-.76-3.11h-.06a.94.94,0,0,0-.09,1.86h0a.86.86,0,0,0,0,.42.93.93,0,0,0,.83.77h.09a.94.94,0,0,0,.94-.93.82.82,0,0,0,0-.26h0a.94.94,0,0,0,.78-1,1,1,0,0,0-.88-.85h0a.91.91,0,0,0-.65.26h0v0l.07-.52s0,0,0,0l0,0h-.24l0,0s0,0,0,0l.07.52v0h0A.9.9,0,0,0,56.54,79.73Z"/><path class="ea35a92e-9492-4f08-959a-beb0e59830de" d="M56.59,81.9h0a.09.09,0,0,1,.08.1.57.57,0,0,0,.52.56.1.1,0,0,1,.08.1.08.08,0,0,1-.1.07A.74.74,0,0,1,56.5,82,.09.09,0,0,1,56.59,81.9Z"/><path class="ea35a92e-9492-4f08-959a-beb0e59830de" d="M56.57,81.58a.09.09,0,0,1,.09.09v.1a.09.09,0,0,1-.09.09.09.09,0,0,1-.08-.09v-.1A.09.09,0,0,1,56.57,81.58Z"/><path class="fde4c1a2-0518-4771-9c86-0588a3dcc76f" d="M48.11,13.63A3.79,3.79,0,0,0,48.19,12a3.74,3.74,0,0,0-7.43.63,3.81,3.81,0,0,0,.14,1A3.74,3.74,0,1,0,44.09,20l-.28,2.05a.22.22,0,0,0,.22.25H45a.23.23,0,0,0,.23-.25L44.92,20a3.71,3.71,0,0,0,2.81,1,3.74,3.74,0,0,0,.38-7.43Z"/><path class="b06a4c19-6003-4cff-a19e-924c608bb839" d="M45,22.39H44a.26.26,0,0,1-.22-.1.28.28,0,0,1-.07-.23L44,20.2a3.77,3.77,0,0,1-2.5.94h-.22a3.81,3.81,0,0,1-.46-7.56,3.76,3.76,0,0,1,1.12-3.78,3.81,3.81,0,0,1,6.25,3.78,3.81,3.81,0,0,1-.46,7.56A3.72,3.72,0,0,1,45,20.2l.25,1.86a.25.25,0,0,1-.07.23A.26.26,0,0,1,45,22.39ZM44.09,20h0a.08.08,0,0,1,0,.07l-.29,2a.17.17,0,0,0,0,.12.14.14,0,0,0,.12.06H45a.14.14,0,0,0,.12-.06.17.17,0,0,0,0-.12l-.29-2A.07.07,0,0,1,45,20a3.6,3.6,0,0,0,2.75,1,3.67,3.67,0,0,0,.38-7.29l-.05,0a.13.13,0,0,1,0-.06,3.67,3.67,0,1,0-7.21-1,3.77,3.77,0,0,0,.14,1,.13.13,0,0,1,0,.06l-.05,0A3.67,3.67,0,0,0,41.29,21,3.59,3.59,0,0,0,44,20Z"/><path class="ea35a92e-9492-4f08-959a-beb0e59830de" d="M47.31,12.48h0A.35.35,0,0,1,47,12.1a2.26,2.26,0,0,0-2-2.21.35.35,0,0,1-.28-.39A.33.33,0,0,1,45,9.22a2.93,2.93,0,0,1,2.62,3A.34.34,0,0,1,47.31,12.48Z"/><path class="ea35a92e-9492-4f08-959a-beb0e59830de" d="M47.36,13.74A.34.34,0,0,1,47,13.4V13a.34.34,0,0,1,.68,0v.41A.34.34,0,0,1,47.36,13.74Z"/><path class="fde4c1a2-0518-4771-9c86-0588a3dcc76f" d="M20.2,13.63A3.64,3.64,0,0,0,20.29,12a3.74,3.74,0,0,0-7.43.63,3.81,3.81,0,0,0,.14,1A3.74,3.74,0,1,0,16.19,20l-.29,2.05a.22.22,0,0,0,.22.25h1a.22.22,0,0,0,.22-.25L17,20a3.69,3.69,0,0,0,2.8,1,3.74,3.74,0,0,0,.38-7.43Z"/><path class="b06a4c19-6003-4cff-a19e-924c608bb839" d="M17.08,22.39h-.95a.29.29,0,0,1-.23-.1.32.32,0,0,1-.07-.23l.26-1.86a3.73,3.73,0,0,1-2.71.93,3.81,3.81,0,0,1-.47-7.56A3.83,3.83,0,0,1,14,9.79a3.74,3.74,0,0,1,2.93-1,3.8,3.8,0,0,1,3.32,4.75,3.81,3.81,0,0,1-.46,7.56,3.76,3.76,0,0,1-2.72-.93l.26,1.86a.28.28,0,0,1-.07.23A.27.27,0,0,1,17.08,22.39ZM16.19,20h0s0,0,0,.07l-.28,2a.14.14,0,0,0,0,.12.14.14,0,0,0,.12.06h.95a.16.16,0,0,0,.12-.06.13.13,0,0,0,0-.12L17,20A.08.08,0,0,1,17,20a.06.06,0,0,1,.07,0,3.64,3.64,0,0,0,2.76,1,3.67,3.67,0,0,0,.37-7.29l0,0a.07.07,0,0,1,0-.06A3.55,3.55,0,0,0,20.22,12a3.67,3.67,0,0,0-6.09-2.1,3.71,3.71,0,0,0-1.2,2.72,3.4,3.4,0,0,0,.14,1,.13.13,0,0,1,0,.06l-.05,0A3.67,3.67,0,0,0,13.38,21a3.62,3.62,0,0,0,2.76-1Z"/><path class="ea35a92e-9492-4f08-959a-beb0e59830de" d="M19.41,12.48h0a.34.34,0,0,1-.3-.38A2.26,2.26,0,0,0,17,9.89a.34.34,0,0,1-.28-.39.33.33,0,0,1,.39-.28,2.94,2.94,0,0,1,2.62,3A.34.34,0,0,1,19.41,12.48Z"/><path class="ea35a92e-9492-4f08-959a-beb0e59830de" d="M19.45,13.74a.34.34,0,0,1-.34-.34V13a.35.35,0,0,1,.69,0v.41A.35.35,0,0,1,19.45,13.74Z"/><path class="fde4c1a2-0518-4771-9c86-0588a3dcc76f" d="M48.11,43.8a3.78,3.78,0,0,0,.08-1.65A3.74,3.74,0,1,0,40.9,43.8a3.74,3.74,0,1,0,3.19,6.4l-.28,2a.23.23,0,0,0,.22.26H45a.24.24,0,0,0,.23-.26l-.29-2a3.75,3.75,0,1,0,3.19-6.4Z"/><path class="b06a4c19-6003-4cff-a19e-924c608bb839" d="M45,52.56H44a.26.26,0,0,1-.22-.1.28.28,0,0,1-.07-.23L44,50.37a3.81,3.81,0,1,1-3.18-6.62,4,4,0,0,1-.13-1A3.81,3.81,0,0,1,44.88,39a3.81,3.81,0,0,1,3.31,4.76,3.81,3.81,0,0,1-.46,7.55A3.72,3.72,0,0,1,45,50.37l.25,1.86a.25.25,0,0,1-.07.23A.26.26,0,0,1,45,52.56Zm-.89-2.43h0a.09.09,0,0,1,0,.07l-.29,2a.17.17,0,0,0,0,.12.14.14,0,0,0,.12.06H45a.14.14,0,0,0,.12-.06.17.17,0,0,0,0-.12l-.29-2a.09.09,0,0,1,0-.07.08.08,0,0,1,.08,0,3.65,3.65,0,0,0,2.75,1,3.67,3.67,0,0,0,.38-7.29l-.05,0a.13.13,0,0,1,0-.06,3.68,3.68,0,1,0-7.07,0,.13.13,0,0,1,0,.06l-.05,0a3.67,3.67,0,0,0,.38,7.29,3.65,3.65,0,0,0,2.75-1A.06.06,0,0,1,44.09,50.13Z"/><path class="ea35a92e-9492-4f08-959a-beb0e59830de" d="M47.31,42.65h0a.35.35,0,0,1-.31-.38,2.27,2.27,0,0,0-2-2.21.35.35,0,0,1-.28-.39.33.33,0,0,1,.39-.28,2.94,2.94,0,0,1,2.62,3A.34.34,0,0,1,47.31,42.65Z"/><path class="ea35a92e-9492-4f08-959a-beb0e59830de" d="M47.36,43.91a.34.34,0,0,1-.34-.34v-.41a.34.34,0,0,1,.68,0v.41A.34.34,0,0,1,47.36,43.91Z"/><path class="fde4c1a2-0518-4771-9c86-0588a3dcc76f" d="M20.2,43.8a3.64,3.64,0,0,0,.09-1.65A3.74,3.74,0,1,0,13,43.8a3.74,3.74,0,1,0,3.19,6.4l-.29,2a.23.23,0,0,0,.22.26h1a.23.23,0,0,0,.22-.26l-.28-2a3.74,3.74,0,1,0,3.18-6.4Z"/><path class="b06a4c19-6003-4cff-a19e-924c608bb839" d="M17.08,52.56h-.95a.29.29,0,0,1-.23-.1.32.32,0,0,1-.07-.23l.26-1.86a3.78,3.78,0,0,1-2.71.93,3.81,3.81,0,0,1-.47-7.55,4,4,0,0,1-.12-1,3.81,3.81,0,1,1,7.5,1,3.81,3.81,0,1,1-3.18,6.62l.26,1.86a.28.28,0,0,1-.07.23A.27.27,0,0,1,17.08,52.56Zm-.89-2.43h0s0,0,0,.07l-.28,2a.14.14,0,0,0,0,.12.14.14,0,0,0,.12.06h.95a.16.16,0,0,0,.12-.06.13.13,0,0,0,0-.12l-.28-2a.09.09,0,0,1,0-.07.05.05,0,0,1,.07,0,3.65,3.65,0,0,0,2.76,1,3.67,3.67,0,0,0,.37-7.29l0,0a.07.07,0,0,1,0-.06,3.55,3.55,0,0,0,.08-1.62,3.65,3.65,0,0,0-3.26-3,3.61,3.61,0,0,0-2.83.93,3.71,3.71,0,0,0-1.2,2.72,3.36,3.36,0,0,0,.14,1,.13.13,0,0,1,0,.06l-.05,0a3.67,3.67,0,1,0,3.13,6.28S16.17,50.13,16.19,50.13Z"/><path class="ea35a92e-9492-4f08-959a-beb0e59830de" d="M19.41,42.65h0a.34.34,0,0,1-.3-.38A2.27,2.27,0,0,0,17,40.06a.34.34,0,0,1-.28-.39.33.33,0,0,1,.39-.28,3,3,0,0,1,2.62,3A.34.34,0,0,1,19.41,42.65Z"/><path class="ea35a92e-9492-4f08-959a-beb0e59830de" d="M19.45,43.91a.34.34,0,0,1-.34-.34v-.41a.35.35,0,0,1,.69,0v.41A.35.35,0,0,1,19.45,43.91Z"/><path class="fde4c1a2-0518-4771-9c86-0588a3dcc76f" d="M48.11,74a3.78,3.78,0,0,0,.08-1.65A3.74,3.74,0,1,0,40.9,74a3.74,3.74,0,0,0,.38,7.43,3.71,3.71,0,0,0,2.81-1l-.28,2a.22.22,0,0,0,.22.26H45a.23.23,0,0,0,.23-.26l-.29-2a3.71,3.71,0,0,0,2.81,1A3.74,3.74,0,0,0,48.11,74Z"/><path class="b06a4c19-6003-4cff-a19e-924c608bb839" d="M45,82.73H44a.26.26,0,0,1-.22-.1.27.27,0,0,1-.07-.23L44,80.55a3.79,3.79,0,0,1-2.72.92,3.81,3.81,0,0,1-.46-7.55,4,4,0,0,1-.13-1,3.85,3.85,0,0,1,1.25-2.82,3.81,3.81,0,0,1,6.25,3.79,3.81,3.81,0,0,1-.46,7.55A3.75,3.75,0,0,1,45,80.55l.25,1.85a.25.25,0,0,1-.07.23A.26.26,0,0,1,45,82.73Zm-.89-2.43h0a.07.07,0,0,1,0,.07l-.29,2a.17.17,0,0,0,0,.12.14.14,0,0,0,.12.06H45a.14.14,0,0,0,.12-.06.17.17,0,0,0,0-.12l-.29-2a.07.07,0,0,1,0-.07.06.06,0,0,1,.08,0A3.67,3.67,0,1,0,48.1,74a.09.09,0,0,1-.05,0A.13.13,0,0,1,48,74a3.66,3.66,0,0,0-3.18-4.65,3.6,3.6,0,0,0-2.83.94A3.67,3.67,0,0,0,40.83,73,3.72,3.72,0,0,0,41,74,.13.13,0,0,1,41,74a.09.09,0,0,1-.05,0A3.68,3.68,0,1,0,44,80.32.06.06,0,0,1,44.09,80.3Z"/><path class="ea35a92e-9492-4f08-959a-beb0e59830de" d="M47.31,72.82h0a.35.35,0,0,1-.31-.38,2.27,2.27,0,0,0-2-2.21.34.34,0,0,1-.28-.39.33.33,0,0,1,.39-.28,2.94,2.94,0,0,1,2.62,3A.34.34,0,0,1,47.31,72.82Z"/><path class="ea35a92e-9492-4f08-959a-beb0e59830de" d="M47.36,74.09a.35.35,0,0,1-.34-.35v-.41a.34.34,0,1,1,.68,0v.41A.35.35,0,0,1,47.36,74.09Z"/><path class="fde4c1a2-0518-4771-9c86-0588a3dcc76f" d="M20.2,74a3.64,3.64,0,0,0,.09-1.65A3.74,3.74,0,1,0,13,74a3.74,3.74,0,0,0,.38,7.43,3.71,3.71,0,0,0,2.81-1l-.29,2a.23.23,0,0,0,.22.26h1a.22.22,0,0,0,.22-.26l-.28-2a3.68,3.68,0,0,0,2.8,1A3.74,3.74,0,0,0,20.2,74Z"/><path class="b06a4c19-6003-4cff-a19e-924c608bb839" d="M17.08,82.73h-.95a.29.29,0,0,1-.23-.1.32.32,0,0,1-.07-.23l.26-1.85a3.77,3.77,0,0,1-2.71.92,3.81,3.81,0,0,1-.47-7.55,4,4,0,0,1-.12-1,3.81,3.81,0,1,1,7.5,1,3.81,3.81,0,1,1-3.18,6.63l.26,1.85a.28.28,0,0,1-.07.23A.27.27,0,0,1,17.08,82.73Zm-.89-2.43h0a.06.06,0,0,1,0,.07l-.28,2a.14.14,0,0,0,0,.12.14.14,0,0,0,.12.06h.95a.16.16,0,0,0,.12-.06.13.13,0,0,0,0-.12l-.28-2a.07.07,0,0,1,0-.07,0,0,0,0,1,.07,0A3.68,3.68,0,1,0,20.19,74s0,0,0,0a.07.07,0,0,1,0-.06,3.55,3.55,0,0,0,.08-1.62,3.65,3.65,0,0,0-3.26-3,3.58,3.58,0,0,0-2.83.94A3.67,3.67,0,0,0,12.93,73a3.36,3.36,0,0,0,.14,1,.13.13,0,0,1,0,.06A.09.09,0,0,1,13,74a3.68,3.68,0,0,0,.37,7.3,3.72,3.72,0,0,0,2.76-1S16.17,80.3,16.19,80.3Z"/><path class="ea35a92e-9492-4f08-959a-beb0e59830de" d="M19.41,72.82h0a.34.34,0,0,1-.3-.38A2.27,2.27,0,0,0,17,70.23a.33.33,0,0,1-.28-.39.33.33,0,0,1,.39-.28,3,3,0,0,1,2.62,3A.34.34,0,0,1,19.41,72.82Z"/><path class="ea35a92e-9492-4f08-959a-beb0e59830de" d="M19.45,74.09a.35.35,0,0,1-.34-.35v-.41a.35.35,0,0,1,.69,0v.41A.35.35,0,0,1,19.45,74.09Z"/></g></g></svg>