<svg xmlns="http://www.w3.org/2000/svg" viewBox="0 0 61.11 91.54"><defs><style>.b7e962d0-fcf9-4c67-a190-c65cb3218146{fill:none;}.e2bc8a9f-3211-4b6f-b347-03c1475fea03{fill:#adadad;}.bb205119-ff1e-4330-8562-0923f6d4332e{fill:#363026;}.e55c3594-3c7e-4744-a7ac-4fbb80653cf9{fill:#716b61;}.f68ca59f-1ef3-49ad-b3ad-868cba88cdef{fill:#453f31;}.f0695d36-bd2f-4722-9fe4-6c3b5a664594{fill:#aaa194;}</style></defs><title>T_7</title><g id="fe5fd261-826a-43d5-b562-044ff5f6a0ab" data-name="Capa 2"><g id="ad51d3e1-c51b-4bdd-887a-de9e1274375e" data-name="Objects"><rect class="b7e962d0-fcf9-4c67-a190-c65cb3218146" x="0.13" y="0.12" width="60.86" height="91.29" rx="2.4"/><path class="e2bc8a9f-3211-4b6f-b347-03c1475fea03" d="M58.59,91.54H2.52A2.53,2.53,0,0,1,0,89V2.52A2.52,2.52,0,0,1,2.52,0H58.59a2.52,2.52,0,0,1,2.52,2.52V89A2.53,2.53,0,0,1,58.59,91.54ZM2.52.25A2.27,2.27,0,0,0,.25,2.52V89a2.28,2.28,0,0,0,2.27,2.28H58.59A2.28,2.28,0,0,0,60.86,89V2.52A2.27,2.27,0,0,0,58.59.25Z"/><path class="bb205119-ff1e-4330-8562-0923f6d4332e" d="M3.14,8.57a.31.31,0,0,1-.21-.07.25.25,0,0,1-.09-.19.44.44,0,0,1,0-.15L5.38,2.34l.11.12H2.29a.27.27,0,0,1-.2-.07A.28.28,0,0,1,2,2.19.26.26,0,0,1,2.09,2a.28.28,0,0,1,.2-.08H5.77A.28.28,0,0,1,6,2,.25.25,0,0,1,6,2.19a.28.28,0,0,1,0,.13L3.41,8.38a.26.26,0,0,1-.11.14A.33.33,0,0,1,3.14,8.57Z"/><path class="bb205119-ff1e-4330-8562-0923f6d4332e" d="M58.11,83a.32.32,0,0,1,.2.08.23.23,0,0,1,.09.19.39.39,0,0,1,0,.14l-2.5,5.82-.12-.12H59a.26.26,0,0,1,.19.08.23.23,0,0,1,.08.2.26.26,0,0,1-.27.26H55.48a.24.24,0,0,1-.2-.07.28.28,0,0,1-.07-.19.59.59,0,0,1,0-.14l2.6-6.06A.37.37,0,0,1,58,83,.25.25,0,0,1,58.11,83Z"/><path class="e55c3594-3c7e-4744-a7ac-4fbb80653cf9" d="M4.74,9.93a.89.89,0,0,0,0-.43,1,1,0,0,0-1.89.17,1.15,1.15,0,0,0,0,.26.94.94,0,0,0-.79,1,1,1,0,0,0,.89.86,1,1,0,0,0,.72-.27l-.08.53a.06.06,0,0,0,.06.06h.24A.06.06,0,0,0,4,12.08l-.07-.53a.94.94,0,0,0,.71.27,1,1,0,0,0,.9-.86A1,1,0,0,0,4.74,9.93Z"/><path class="f68ca59f-1ef3-49ad-b3ad-868cba88cdef" d="M3.94,12.16H3.7l-.06,0a.06.06,0,0,1,0-.06l.06-.47a.94.94,0,0,1-.63.24H3a1,1,0,0,1-.12-1.93,1,1,0,0,1,0-.24A1,1,0,0,1,3.17,9a.93.93,0,0,1,.65-.25h.1a1,1,0,0,1,.86.8.94.94,0,0,1,0,.41,1,1,0,0,1-.12,1.93h0A.94.94,0,0,1,4,11.6l.07.47a.11.11,0,0,1,0,.06A.06.06,0,0,1,3.94,12.16Zm-.22-.62h0s0,0,0,0l-.07.52a0,0,0,0,0,0,0H4a0,0,0,0,0,0,0l-.07-.52s0,0,0,0h0a.92.92,0,0,0,.65.26h0A.93.93,0,0,0,5.52,11a1,1,0,0,0-.78-1h0a.82.82,0,0,0,0-.41.91.91,0,0,0-.83-.77H3.82A1,1,0,0,0,3.19,9a1,1,0,0,0-.3.7,1.07,1.07,0,0,0,0,.25h0A.94.94,0,0,0,3,11.8a.92.92,0,0,0,.7-.26Z"/><path class="f0695d36-bd2f-4722-9fe4-6c3b5a664594" d="M4.54,9.63h0a.08.08,0,0,1-.08-.09A.59.59,0,0,0,3.93,9a.08.08,0,0,1-.07-.1A.08.08,0,0,1,4,8.8a.74.74,0,0,1,.66.76A.08.08,0,0,1,4.54,9.63Z"/><path class="f0695d36-bd2f-4722-9fe4-6c3b5a664594" d="M4.55,10a.08.08,0,0,1-.09-.08V9.76a.09.09,0,0,1,.18,0v.11A.08.08,0,0,1,4.55,10Z"/><path class="e55c3594-3c7e-4744-a7ac-4fbb80653cf9" d="M56.4,81.61a.84.84,0,0,0,0,.42,1,1,0,0,0,1.89-.16.75.75,0,0,0,0-.26,1,1,0,0,0,.8-1,.94.94,0,0,0-.89-.85.92.92,0,0,0-.72.26l.07-.52a.06.06,0,0,0-.05-.07h-.25a.06.06,0,0,0,0,.07l.07.52a.92.92,0,0,0-.72-.26.94.94,0,0,0-.89.85A1,1,0,0,0,56.4,81.61Z"/><path class="f68ca59f-1ef3-49ad-b3ad-868cba88cdef" d="M57.32,82.84h-.1a1,1,0,0,1-.86-.81,1,1,0,0,1,0-.41,1,1,0,0,1,.11-1.92h.06a.94.94,0,0,1,.63.23l-.06-.47a.07.07,0,0,1,0-.06l0,0h.25l.05,0a.07.07,0,0,1,0,.06l-.06.47a1,1,0,0,1,.69-.23,1,1,0,0,1,.11,1.92.73.73,0,0,1,0,.25,1,1,0,0,1-.32.72A1,1,0,0,1,57.32,82.84Zm-.77-3.11h0a.94.94,0,0,0-.88.85.93.93,0,0,0,.78,1h0s0,0,0,0a1.19,1.19,0,0,0,0,.42,1,1,0,0,0,.84.77h.09a.94.94,0,0,0,.63-.24,1,1,0,0,0,.3-.69,1.15,1.15,0,0,0,0-.26s0,0,0,0h0a.93.93,0,0,0,.78-1,.94.94,0,0,0-.87-.85h-.06a.94.94,0,0,0-.65.26s0,0,0,0,0,0,0,0l.08-.52v0l0,0h-.25l0,0v0l.08.52s0,0,0,0,0,0,0,0A.94.94,0,0,0,56.55,79.73Z"/><path class="f0695d36-bd2f-4722-9fe4-6c3b5a664594" d="M56.6,81.9h0a.1.1,0,0,1,.08.1.56.56,0,0,0,.52.56.09.09,0,0,1,0,.17.75.75,0,0,1-.67-.75A.11.11,0,0,1,56.6,81.9Z"/><path class="f0695d36-bd2f-4722-9fe4-6c3b5a664594" d="M56.59,81.58a.09.09,0,0,1,.09.09v.1a.09.09,0,1,1-.18,0v-.1A.09.09,0,0,1,56.59,81.58Z"/><path class="e55c3594-3c7e-4744-a7ac-4fbb80653cf9" d="M48.11,13.63A3.79,3.79,0,0,0,48.19,12a3.74,3.74,0,0,0-7.43.63,3.81,3.81,0,0,0,.14,1A3.74,3.74,0,1,0,44.09,20l-.28,2.05a.22.22,0,0,0,.22.25H45a.23.23,0,0,0,.23-.25L44.92,20a3.71,3.71,0,0,0,2.81,1,3.74,3.74,0,0,0,.38-7.43Z"/><path class="f68ca59f-1ef3-49ad-b3ad-868cba88cdef" d="M45,22.39H44a.26.26,0,0,1-.22-.1.28.28,0,0,1-.07-.23L44,20.2a3.76,3.76,0,0,1-2.72.93,3.81,3.81,0,0,1-.46-7.56,3.8,3.8,0,0,1,4.06-4.75,3.8,3.8,0,0,1,3.31,4.75,3.81,3.81,0,0,1-.46,7.56A3.72,3.72,0,0,1,45,20.2l.25,1.86a.25.25,0,0,1-.07.23A.26.26,0,0,1,45,22.39ZM44.09,20h0a.08.08,0,0,1,0,.07l-.29,2a.17.17,0,0,0,0,.12.14.14,0,0,0,.12.06H45a.14.14,0,0,0,.12-.06.17.17,0,0,0,0-.12l-.29-2A.07.07,0,0,1,45,20a3.6,3.6,0,0,0,2.75,1,3.67,3.67,0,0,0,.38-7.29l-.05,0a.13.13,0,0,1,0-.06,3.68,3.68,0,1,0-7.07,0,.07.07,0,0,1,0,.06l-.05,0A3.67,3.67,0,0,0,41.29,21,3.6,3.6,0,0,0,44,20Z"/><path class="f0695d36-bd2f-4722-9fe4-6c3b5a664594" d="M47.31,12.48h0A.35.35,0,0,1,47,12.1a2.26,2.26,0,0,0-2-2.21.35.35,0,0,1-.28-.39A.33.33,0,0,1,45,9.22a2.93,2.93,0,0,1,2.62,3A.34.34,0,0,1,47.31,12.48Z"/><path class="f0695d36-bd2f-4722-9fe4-6c3b5a664594" d="M47.36,13.74A.34.34,0,0,1,47,13.4V13a.34.34,0,0,1,.68,0v.41A.34.34,0,0,1,47.36,13.74Z"/><path class="e55c3594-3c7e-4744-a7ac-4fbb80653cf9" d="M20.2,13.63A3.64,3.64,0,0,0,20.29,12a3.74,3.74,0,0,0-7.43.63,3.81,3.81,0,0,0,.14,1A3.74,3.74,0,1,0,16.19,20l-.29,2.05a.22.22,0,0,0,.22.25h1a.22.22,0,0,0,.22-.25L17,20a3.69,3.69,0,0,0,2.8,1,3.74,3.74,0,0,0,.38-7.43Z"/><path class="f68ca59f-1ef3-49ad-b3ad-868cba88cdef" d="M17.08,22.39h-1a.28.28,0,0,1-.22-.1.32.32,0,0,1-.07-.23l.26-1.86a3.74,3.74,0,0,1-2.49.94h-.22a3.81,3.81,0,0,1-.47-7.56A3.83,3.83,0,0,1,14,9.79a3.81,3.81,0,0,1,6.25,3.78,3.81,3.81,0,0,1-.46,7.56,3.74,3.74,0,0,1-2.72-.93l.26,1.86a.28.28,0,0,1-.07.23A.28.28,0,0,1,17.08,22.39ZM16.19,20h0s0,0,0,.07l-.28,2a.17.17,0,0,0,.15.18h1a.16.16,0,0,0,.12-.06.13.13,0,0,0,0-.12L17,20S17,20,17,20a.06.06,0,0,1,.07,0,3.64,3.64,0,0,0,2.76,1,3.67,3.67,0,0,0,.37-7.29l0,0a.07.07,0,0,1,0-.06A3.55,3.55,0,0,0,20.22,12a3.67,3.67,0,0,0-6.09-2.1,3.71,3.71,0,0,0-1.2,2.72,3.76,3.76,0,0,0,.13,1,.06.06,0,0,1,0,.06l-.05,0A3.67,3.67,0,0,0,13.38,21a3.62,3.62,0,0,0,2.76-1Z"/><path class="f0695d36-bd2f-4722-9fe4-6c3b5a664594" d="M19.41,12.48h0a.34.34,0,0,1-.3-.38A2.26,2.26,0,0,0,17,9.89a.34.34,0,0,1-.28-.39.33.33,0,0,1,.39-.28,2.94,2.94,0,0,1,2.62,3A.34.34,0,0,1,19.41,12.48Z"/><path class="f0695d36-bd2f-4722-9fe4-6c3b5a664594" d="M19.45,13.74a.34.34,0,0,1-.34-.34V13a.35.35,0,0,1,.69,0v.41A.35.35,0,0,1,19.45,13.74Z"/><path class="e55c3594-3c7e-4744-a7ac-4fbb80653cf9" d="M48.11,43.8a3.78,3.78,0,0,0,.08-1.65A3.74,3.74,0,1,0,40.9,43.8a3.74,3.74,0,1,0,3.19,6.4l-.28,2a.23.23,0,0,0,.22.26H45a.24.24,0,0,0,.23-.26l-.29-2a3.75,3.75,0,1,0,3.19-6.4Z"/><path class="f68ca59f-1ef3-49ad-b3ad-868cba88cdef" d="M45,52.56H44a.26.26,0,0,1-.22-.1.28.28,0,0,1-.07-.23L44,50.37a3.81,3.81,0,1,1-3.18-6.62,4,4,0,0,1-.13-1A3.81,3.81,0,0,1,44.88,39a3.81,3.81,0,0,1,3.31,4.76,3.81,3.81,0,0,1-.46,7.55A3.72,3.72,0,0,1,45,50.37l.25,1.86a.25.25,0,0,1-.07.23A.26.26,0,0,1,45,52.56Zm-.89-2.43h0a.09.09,0,0,1,0,.07l-.29,2a.17.17,0,0,0,0,.12.14.14,0,0,0,.12.06H45a.14.14,0,0,0,.12-.06.17.17,0,0,0,0-.12l-.29-2a.09.09,0,0,1,0-.07.08.08,0,0,1,.08,0,3.65,3.65,0,0,0,2.54,1h.21a3.67,3.67,0,0,0,.38-7.29l-.05,0a.13.13,0,0,1,0-.06,3.68,3.68,0,1,0-7.07,0,.07.07,0,0,1,0,.06l-.05,0a3.67,3.67,0,0,0,.38,7.29,3.65,3.65,0,0,0,2.75-1A.06.06,0,0,1,44.09,50.13Z"/><path class="f0695d36-bd2f-4722-9fe4-6c3b5a664594" d="M47.31,42.65h0a.35.35,0,0,1-.31-.38,2.27,2.27,0,0,0-2-2.21.35.35,0,0,1-.28-.39.33.33,0,0,1,.39-.28,2.94,2.94,0,0,1,2.62,3A.34.34,0,0,1,47.31,42.65Z"/><path class="f0695d36-bd2f-4722-9fe4-6c3b5a664594" d="M47.36,43.91a.34.34,0,0,1-.34-.34v-.41a.34.34,0,0,1,.68,0v.41A.34.34,0,0,1,47.36,43.91Z"/><path class="e55c3594-3c7e-4744-a7ac-4fbb80653cf9" d="M20.2,43.8a3.64,3.64,0,0,0,.09-1.65A3.74,3.74,0,1,0,13,43.8a3.74,3.74,0,1,0,3.19,6.4l-.29,2a.23.23,0,0,0,.22.26h1a.23.23,0,0,0,.22-.26l-.28-2a3.74,3.74,0,1,0,3.18-6.4Z"/><path class="f68ca59f-1ef3-49ad-b3ad-868cba88cdef" d="M17.08,52.56h-1a.28.28,0,0,1-.22-.1.32.32,0,0,1-.07-.23l.26-1.86a3.76,3.76,0,0,1-2.71.93,3.81,3.81,0,0,1-.47-7.55,4,4,0,0,1-.12-1,3.81,3.81,0,1,1,7.5,1,3.81,3.81,0,1,1-3.18,6.62l.26,1.86a.28.28,0,0,1-.07.23A.28.28,0,0,1,17.08,52.56Zm-.89-2.43h0s0,0,0,.07l-.28,2a.17.17,0,0,0,.15.18h1a.16.16,0,0,0,.12-.06.13.13,0,0,0,0-.12l-.28-2s0-.05,0-.07a.07.07,0,0,1,.07,0,3.68,3.68,0,0,0,2.55,1h.21a3.67,3.67,0,0,0,.37-7.29l0,0a.07.07,0,0,1,0-.06,3.55,3.55,0,0,0,.08-1.62,3.68,3.68,0,0,0-6.09-2.1,3.73,3.73,0,0,0-1.07,3.72.06.06,0,0,1,0,.06l-.05,0a3.67,3.67,0,1,0,3.13,6.28S16.17,50.13,16.19,50.13Z"/><path class="f0695d36-bd2f-4722-9fe4-6c3b5a664594" d="M19.41,42.65h0a.34.34,0,0,1-.3-.38A2.27,2.27,0,0,0,17,40.06a.34.34,0,0,1-.28-.39.33.33,0,0,1,.39-.28,3,3,0,0,1,2.62,3A.34.34,0,0,1,19.41,42.65Z"/><path class="f0695d36-bd2f-4722-9fe4-6c3b5a664594" d="M19.45,43.91a.34.34,0,0,1-.34-.34v-.41a.35.35,0,0,1,.69,0v.41A.35.35,0,0,1,19.45,43.91Z"/><path class="e55c3594-3c7e-4744-a7ac-4fbb80653cf9" d="M34.16,29a3.76,3.76,0,0,0-3.24-4.74A3.74,3.74,0,0,0,27,29a3.74,3.74,0,0,0,.38,7.43,3.71,3.71,0,0,0,2.81-1l-.29,2a.23.23,0,0,0,.23.26h1a.22.22,0,0,0,.22-.26l-.28-2a3.71,3.71,0,0,0,2.81,1A3.74,3.74,0,0,0,34.16,29Z"/><path class="f68ca59f-1ef3-49ad-b3ad-868cba88cdef" d="M31,37.76h-1a.3.3,0,0,1-.23-.11.26.26,0,0,1-.06-.23L30,35.57a3.81,3.81,0,1,1-3.17-6.63,3.54,3.54,0,0,1-.13-1A3.85,3.85,0,0,1,28,25.15a3.81,3.81,0,0,1,6.25,3.79,3.81,3.81,0,1,1-3.18,6.63l.26,1.85a.27.27,0,0,1-.07.23A.27.27,0,0,1,31,37.76Zm-.89-2.44h0a.08.08,0,0,1,0,.07l-.29,2a.14.14,0,0,0,0,.12.14.14,0,0,0,.12.06h1a.14.14,0,0,0,.12-.06.17.17,0,0,0,0-.12l-.29-2a.07.07,0,0,1,0-.07.06.06,0,0,1,.08,0,3.66,3.66,0,0,0,2.75,1,3.68,3.68,0,0,0,.37-7.3.05.05,0,0,1,0,0,.07.07,0,0,1,0-.06,3.66,3.66,0,0,0-3.18-4.65,3.58,3.58,0,0,0-2.83.94A3.67,3.67,0,0,0,26.88,28,3.72,3.72,0,0,0,27,29,.13.13,0,0,1,27,29a.05.05,0,0,1-.05,0,3.68,3.68,0,1,0,3.13,6.28Z"/><path class="f0695d36-bd2f-4722-9fe4-6c3b5a664594" d="M33.36,27.84h0a.35.35,0,0,1-.3-.38A2.27,2.27,0,0,0,31,25.25a.33.33,0,0,1-.28-.39.33.33,0,0,1,.39-.28,2.94,2.94,0,0,1,2.62,3A.34.34,0,0,1,33.36,27.84Z"/><path class="f0695d36-bd2f-4722-9fe4-6c3b5a664594" d="M33.41,29.11a.35.35,0,0,1-.35-.35v-.41a.35.35,0,0,1,.35-.34.34.34,0,0,1,.34.34v.41A.35.35,0,0,1,33.41,29.11Z"/><path class="e55c3594-3c7e-4744-a7ac-4fbb80653cf9" d="M48.11,74a3.78,3.78,0,0,0,.08-1.65A3.74,3.74,0,1,0,40.9,74a3.74,3.74,0,0,0,.38,7.43,3.71,3.71,0,0,0,2.81-1l-.28,2a.22.22,0,0,0,.22.26H45a.23.23,0,0,0,.23-.26l-.29-2a3.71,3.71,0,0,0,2.81,1A3.74,3.74,0,0,0,48.11,74Z"/><path class="f68ca59f-1ef3-49ad-b3ad-868cba88cdef" d="M45,82.73H44a.26.26,0,0,1-.22-.1.28.28,0,0,1-.07-.23L44,80.55a3.79,3.79,0,0,1-2.72.92,3.81,3.81,0,0,1-.46-7.55,4,4,0,0,1-.13-1,3.85,3.85,0,0,1,1.25-2.82,3.81,3.81,0,0,1,6.25,3.79,3.81,3.81,0,0,1-.46,7.55A3.75,3.75,0,0,1,45,80.55l.25,1.85a.25.25,0,0,1-.07.23A.26.26,0,0,1,45,82.73Zm-.89-2.43h0a.07.07,0,0,1,0,.07l-.29,2a.17.17,0,0,0,0,.12.14.14,0,0,0,.12.06H45a.14.14,0,0,0,.12-.06.17.17,0,0,0,0-.12l-.29-2a.07.07,0,0,1,0-.07.06.06,0,0,1,.08,0,3.65,3.65,0,0,0,2.54,1h.21A3.68,3.68,0,0,0,48.1,74a.09.09,0,0,1-.05,0A.13.13,0,0,1,48,74a3.66,3.66,0,0,0-3.18-4.65,3.61,3.61,0,0,0-2.83.94A3.67,3.67,0,0,0,40.83,73,3.72,3.72,0,0,0,41,74,.07.07,0,0,1,41,74a.09.09,0,0,1-.05,0A3.68,3.68,0,1,0,44,80.32.06.06,0,0,1,44.09,80.3Z"/><path class="f0695d36-bd2f-4722-9fe4-6c3b5a664594" d="M47.31,72.82h0a.35.35,0,0,1-.31-.38,2.27,2.27,0,0,0-2-2.21.34.34,0,0,1-.28-.39.33.33,0,0,1,.39-.28,2.94,2.94,0,0,1,2.62,3A.34.34,0,0,1,47.31,72.82Z"/><path class="f0695d36-bd2f-4722-9fe4-6c3b5a664594" d="M47.36,74.09a.35.35,0,0,1-.34-.35v-.41a.34.34,0,1,1,.68,0v.41A.35.35,0,0,1,47.36,74.09Z"/><path class="e55c3594-3c7e-4744-a7ac-4fbb80653cf9" d="M20.2,74a3.64,3.64,0,0,0,.09-1.65A3.74,3.74,0,1,0,13,74a3.74,3.74,0,0,0,.38,7.43,3.71,3.71,0,0,0,2.81-1l-.29,2a.23.23,0,0,0,.22.26h1a.22.22,0,0,0,.22-.26l-.28-2a3.68,3.68,0,0,0,2.8,1A3.74,3.74,0,0,0,20.2,74Z"/><path class="f68ca59f-1ef3-49ad-b3ad-868cba88cdef" d="M17.08,82.73h-1a.28.28,0,0,1-.22-.1.32.32,0,0,1-.07-.23l.26-1.85a3.75,3.75,0,0,1-2.71.92,3.81,3.81,0,0,1-.47-7.55,4,4,0,0,1-.12-1,3.81,3.81,0,1,1,7.5,1,3.81,3.81,0,1,1-3.18,6.63l.26,1.85a.27.27,0,0,1-.07.23A.28.28,0,0,1,17.08,82.73Zm-.89-2.43h0a.06.06,0,0,1,0,.07l-.28,2a.17.17,0,0,0,.15.18h1a.16.16,0,0,0,.12-.06.13.13,0,0,0,0-.12l-.28-2a.06.06,0,0,1,0-.07,0,0,0,0,1,.07,0,3.68,3.68,0,0,0,2.55,1h.21a3.68,3.68,0,0,0,.37-7.3s0,0,0,0a.07.07,0,0,1,0-.06,3.55,3.55,0,0,0,.08-1.62,3.65,3.65,0,0,0-3.26-3,3.58,3.58,0,0,0-2.83.94A3.72,3.72,0,0,0,13.06,74a.06.06,0,0,1,0,.06A.09.09,0,0,1,13,74a3.68,3.68,0,0,0,.37,7.3,3.72,3.72,0,0,0,2.76-1S16.17,80.3,16.19,80.3Z"/><path class="f0695d36-bd2f-4722-9fe4-6c3b5a664594" d="M19.41,72.82h0a.34.34,0,0,1-.3-.38A2.27,2.27,0,0,0,17,70.23a.33.33,0,0,1-.28-.39.33.33,0,0,1,.39-.28,3,3,0,0,1,2.62,3A.34.34,0,0,1,19.41,72.82Z"/><path class="f0695d36-bd2f-4722-9fe4-6c3b5a664594" d="M19.45,74.09a.35.35,0,0,1-.34-.35v-.41a.35.35,0,0,1,.69,0v.41A.35.35,0,0,1,19.45,74.09Z"/></g></g></svg>