<svg xmlns="http://www.w3.org/2000/svg" viewBox="0 0 61.11 91.54"><defs><style>.badda929-aca1-4c05-8b81-f651dc181e90{fill:none;}.b6dcca38-bbea-4dca-8fb6-ed3482aac971{fill:#adadad;}.b1b58ab5-3725-4041-a923-2ecde5e27069{fill:#363026;}.bf2a72eb-fcb2-494d-b804-e1e47bbc889f{fill:#716b61;}.f129dfff-5541-415b-a0d5-1bb4cf7d5a28{fill:#453f31;}.e2aa5085-1a3f-447a-b804-5896ac2e00ae{fill:#aaa194;}</style></defs><title>T_2</title><g id="f7bff369-dc36-4969-a750-b055ba0607cb" data-name="Capa 2"><g id="eeed136f-015b-4fd6-916c-ad8120915dc6" data-name="Objects"><rect class="badda929-aca1-4c05-8b81-f651dc181e90" x="0.13" y="0.12" width="60.86" height="91.29" rx="2.4"/><path class="b6dcca38-bbea-4dca-8fb6-ed3482aac971" d="M58.59,91.54H2.52A2.53,2.53,0,0,1,0,89V2.52A2.52,2.52,0,0,1,2.52,0H58.59a2.52,2.52,0,0,1,2.52,2.52V89A2.53,2.53,0,0,1,58.59,91.54ZM2.52.25A2.27,2.27,0,0,0,.25,2.52V89a2.28,2.28,0,0,0,2.27,2.28H58.59A2.28,2.28,0,0,0,60.86,89V2.52A2.27,2.27,0,0,0,58.59.25Z"/><path class="b1b58ab5-3725-4041-a923-2ecde5e27069" d="M5.47,8.08a.27.27,0,0,1,.19.08.3.3,0,0,1,.08.2.28.28,0,0,1-.08.2.26.26,0,0,1-.19.07H1.92a.31.31,0,0,1-.21-.07.26.26,0,0,1-.09-.21.31.31,0,0,1,.07-.2L3.88,5.74a5.74,5.74,0,0,0,.77-1,1.79,1.79,0,0,0,.27-.9,1.56,1.56,0,0,0-.17-.74,1.2,1.2,0,0,0-.5-.47,1.66,1.66,0,0,0-.8-.17,1.63,1.63,0,0,0-.81.21,1.31,1.31,0,0,0-.56.69.35.35,0,0,1-.1.11.2.2,0,0,1-.15.06.31.31,0,0,1-.19-.08.21.21,0,0,1-.1-.17.22.22,0,0,1,0-.13L1.67,3a1.81,1.81,0,0,1,.76-.81,2.17,2.17,0,0,1,1.06-.27,2.32,2.32,0,0,1,1.1.24,1.69,1.69,0,0,1,.69.66,2,2,0,0,1,.24,1,2.09,2.09,0,0,1-.12.69A3.23,3.23,0,0,1,5,5.25a7.4,7.4,0,0,1-.71.88L2.46,8.2l-.09-.12Z"/><path class="b1b58ab5-3725-4041-a923-2ecde5e27069" d="M55.64,83.45a.27.27,0,0,1-.27-.27.24.24,0,0,1,.08-.2.27.27,0,0,1,.19-.08h3.55a.32.32,0,0,1,.21.08.23.23,0,0,1,.09.21.34.34,0,0,1-.08.2L57.23,85.8a6,6,0,0,0-.78,1,1.82,1.82,0,0,0-.26.9,1.51,1.51,0,0,0,.17.73,1.16,1.16,0,0,0,.5.48,1.78,1.78,0,0,0,.8.17,1.59,1.59,0,0,0,.8-.21,1.36,1.36,0,0,0,.57-.69.35.35,0,0,1,.1-.12.24.24,0,0,1,.14,0,.32.32,0,0,1,.2.08.22.22,0,0,1,.1.17.38.38,0,0,1,0,.13l-.1.15a1.76,1.76,0,0,1-.75.8,2.08,2.08,0,0,1-1.06.28,2.29,2.29,0,0,1-1.1-.24,1.65,1.65,0,0,1-.69-.67,1.92,1.92,0,0,1-.25-1,2.21,2.21,0,0,1,.13-.7,3.31,3.31,0,0,1,.38-.75,7.83,7.83,0,0,1,.71-.88l1.85-2.07.09.11Z"/><path class="bf2a72eb-fcb2-494d-b804-e1e47bbc889f" d="M4.74,10a.85.85,0,0,0,0-.42,1,1,0,0,0-1.89.16.78.78,0,0,0,0,.26A1,1,0,0,0,3,11.88a1,1,0,0,0,.72-.26l-.07.52a.05.05,0,0,0,.05.06H4a.05.05,0,0,0,0-.06l-.07-.52A1,1,0,0,0,5.54,11,.94.94,0,0,0,4.74,10Z"/><path class="f129dfff-5541-415b-a0d5-1bb4cf7d5a28" d="M4,12.22H3.7a.05.05,0,0,1-.05,0s0,0,0-.06l.06-.47A1,1,0,0,1,3,11.9,1,1,0,0,1,2.09,11a1,1,0,0,1,.79-1,1,1,0,0,1,0-.24A1,1,0,0,1,3.17,9a.93.93,0,0,1,.65-.25h.1a1,1,0,0,1,.86.8.94.94,0,0,1,0,.41,1,1,0,0,1,.8,1,1,1,0,0,1-.91.88H4.59A.94.94,0,0,1,4,11.66l.07.47s0,0,0,.06A.05.05,0,0,1,4,12.22Zm-.23-.62h0v0l-.08.52v0H4v0l-.08-.52v0h0a.92.92,0,0,0,.7.26A.94.94,0,0,0,4.74,10h0s0,0,0,0a1.12,1.12,0,0,0,0-.41.93.93,0,0,0-.83-.77h-.1A1,1,0,0,0,3.19,9a1,1,0,0,0-.3.7,1.07,1.07,0,0,0,0,.25v0h0A.94.94,0,0,0,3,11.86h.06a.94.94,0,0,0,.65-.26Z"/><path class="e2aa5085-1a3f-447a-b804-5896ac2e00ae" d="M4.54,9.69h0a.08.08,0,0,1-.08-.09A.58.58,0,0,0,3.93,9a.08.08,0,0,1-.07-.1A.09.09,0,0,1,4,8.86a.77.77,0,0,1,.67.76A.1.1,0,0,1,4.54,9.69Z"/><path class="e2aa5085-1a3f-447a-b804-5896ac2e00ae" d="M4.55,10a.09.09,0,0,1-.09-.09V9.82a.09.09,0,0,1,.18,0v.11A.09.09,0,0,1,4.55,10Z"/><path class="bf2a72eb-fcb2-494d-b804-e1e47bbc889f" d="M56.37,81.29a1,1,0,0,0,0,.42,1,1,0,0,0,1.9-.16,1.17,1.17,0,0,0,0-.26,1,1,0,0,0,.8-1,1,1,0,0,0-.9-.86,1,1,0,0,0-.71.26l.07-.52s0-.06-.06-.06h-.24a.06.06,0,0,0-.06.06l.08.52a1,1,0,0,0-.72-.26,1,1,0,0,0-.09,1.89Z"/><path class="f129dfff-5541-415b-a0d5-1bb4cf7d5a28" d="M57.28,82.52h-.09a1,1,0,0,1-.86-.8.94.94,0,0,1,0-.41,1,1,0,0,1-.79-1,1,1,0,0,1,.91-.88h.06a.92.92,0,0,1,.63.24l-.06-.47a0,0,0,0,1,0-.06.05.05,0,0,1,0,0h.24a.06.06,0,0,1,.06,0s0,0,0,.06l-.07.47a.94.94,0,0,1,.64-.24h.06a1,1,0,0,1,.11,1.93,1,1,0,0,1,0,.24,1,1,0,0,1-.31.72A.94.94,0,0,1,57.28,82.52Zm-.76-3.1h-.06a.94.94,0,0,0-.09,1.86h0v0a.94.94,0,0,0,0,.41.94.94,0,0,0,1.86-.16.73.73,0,0,0,0-.25v0h0a1,1,0,0,0,.78-1,.93.93,0,0,0-.88-.84h-.05a.94.94,0,0,0-.65.26h0s0,0,0,0l.07-.52s0,0,0,0,0,0,0,0h-.27a0,0,0,0,0,0,0l.07.52a0,0,0,0,1,0,0h0A.94.94,0,0,0,56.52,79.42Z"/><path class="e2aa5085-1a3f-447a-b804-5896ac2e00ae" d="M56.57,81.59h0a.07.07,0,0,1,.07.09c0,.29.25.52.53.57a.08.08,0,0,1,.07.1.09.09,0,0,1-.1.07.76.76,0,0,1-.67-.76A.09.09,0,0,1,56.57,81.59Z"/><path class="e2aa5085-1a3f-447a-b804-5896ac2e00ae" d="M56.56,81.26a.09.09,0,0,1,.08.09v.11a.09.09,0,0,1-.08.08.09.09,0,0,1-.09-.08v-.11A.09.09,0,0,1,56.56,81.26Z"/><path class="bf2a72eb-fcb2-494d-b804-e1e47bbc889f" d="M34.16,28a3.84,3.84,0,0,0,.08-1.66,3.74,3.74,0,0,0-7.43.64A3.86,3.86,0,0,0,27,28a3.74,3.74,0,1,0,3.19,6.39l-.29,2.05a.23.23,0,0,0,.23.25h1a.22.22,0,0,0,.22-.25L31,34.37A3.74,3.74,0,1,0,34.16,28Z"/><path class="f129dfff-5541-415b-a0d5-1bb4cf7d5a28" d="M31,36.74h-1a.29.29,0,0,1-.22-.1.25.25,0,0,1-.07-.23L30,34.55a3.78,3.78,0,0,1-2.71.93,3.81,3.81,0,0,1-.46-7.56,3.47,3.47,0,0,1-.13-1A3.83,3.83,0,0,1,28,24.14a3.74,3.74,0,0,1,2.93-1,3.8,3.8,0,0,1,3.32,4.75,3.81,3.81,0,0,1-.46,7.56,3.76,3.76,0,0,1-2.72-.93l.26,1.86a.28.28,0,0,1-.07.23A.29.29,0,0,1,31,36.74Zm-.89-2.44h0a.07.07,0,0,1,0,.07l-.29,2a.18.18,0,0,0,0,.13.17.17,0,0,0,.12.05h1a.17.17,0,0,0,.12-.05.17.17,0,0,0,0-.12l-.29-2a.07.07,0,0,1,0-.07.08.08,0,0,1,.08,0,3.6,3.6,0,0,0,2.75,1,3.68,3.68,0,0,0,.38-7.3.05.05,0,0,1,0,0,0,0,0,0,1,0-.05,3.74,3.74,0,0,0,.09-1.63,3.68,3.68,0,0,0-6.1-2.09A3.71,3.71,0,0,0,26.88,27,3.77,3.77,0,0,0,27,28,.07.07,0,0,1,27,28,.05.05,0,0,1,27,28a3.68,3.68,0,0,0,.37,7.3,3.65,3.65,0,0,0,2.76-1Z"/><path class="e2aa5085-1a3f-447a-b804-5896ac2e00ae" d="M33.36,26.83h0a.35.35,0,0,1-.3-.38A2.26,2.26,0,0,0,31,24.24a.34.34,0,0,1,.11-.68,3,3,0,0,1,2.62,3A.35.35,0,0,1,33.36,26.83Z"/><path class="e2aa5085-1a3f-447a-b804-5896ac2e00ae" d="M33.41,28.09a.35.35,0,0,1-.35-.34v-.41a.35.35,0,0,1,.35-.35.35.35,0,0,1,.34.35v.41A.34.34,0,0,1,33.41,28.09Z"/><path class="bf2a72eb-fcb2-494d-b804-e1e47bbc889f" d="M34.16,59.62a3.74,3.74,0,1,0-7.35-1,3.73,3.73,0,0,0,.14,1A3.75,3.75,0,1,0,30.14,66l-.29,2a.23.23,0,0,0,.23.26h1a.22.22,0,0,0,.22-.26L31,66a3.75,3.75,0,1,0,3.19-6.4Z"/><path class="f129dfff-5541-415b-a0d5-1bb4cf7d5a28" d="M31,68.39h-1a.29.29,0,0,1-.22-.1.27.27,0,0,1-.07-.24L30,66.2a3.81,3.81,0,1,1-3.17-6.63,3.52,3.52,0,0,1-.13-1A3.83,3.83,0,0,1,28,55.79a3.81,3.81,0,0,1,6.25,3.78,3.81,3.81,0,1,1-3.18,6.63l.26,1.85a.3.3,0,0,1-.07.24A.29.29,0,0,1,31,68.39ZM30.14,66h0a.07.07,0,0,1,0,.07l-.29,2a.2.2,0,0,0,0,.13.17.17,0,0,0,.12,0h1a.17.17,0,0,0,.12,0,.2.2,0,0,0,0-.13l-.29-2a.07.07,0,0,1,0-.07A.08.08,0,0,1,31,66a3.67,3.67,0,1,0,3.13-6.28.05.05,0,0,1,0,0s0,0,0,0A3.74,3.74,0,0,0,34.18,58a3.66,3.66,0,0,0-3.27-3,3.6,3.6,0,0,0-2.83.94,3.68,3.68,0,0,0-1.2,2.72,3.83,3.83,0,0,0,.14,1,.11.11,0,0,1,0,0,.05.05,0,0,1-.05,0A3.68,3.68,0,1,0,30.09,66Z"/><path class="e2aa5085-1a3f-447a-b804-5896ac2e00ae" d="M33.36,58.48h0a.34.34,0,0,1-.3-.37A2.26,2.26,0,0,0,31,55.89a.35.35,0,0,1-.28-.4.33.33,0,0,1,.39-.28,3,3,0,0,1,2.62,3A.35.35,0,0,1,33.36,58.48Z"/><path class="e2aa5085-1a3f-447a-b804-5896ac2e00ae" d="M33.41,59.74a.35.35,0,0,1-.35-.34V59a.35.35,0,0,1,.35-.34.34.34,0,0,1,.34.34v.42A.34.34,0,0,1,33.41,59.74Z"/></g></g></svg>