<svg xmlns="http://www.w3.org/2000/svg" viewBox="0 0 61.11 91.54"><defs><style>.ece721b4-f117-406c-a253-758f56cfd92a{fill:none;}.b14d010b-a410-4d36-9477-5978568997a9{fill:#adadad;}.b97b2185-0fae-410f-bf81-8413e36b14b1{fill:#363026;}.a2f4d159-93e1-4c23-990d-3b38d8ffd0c0{fill:#716b61;}.ac940b44-bdee-4431-9639-85f4e96ce63f{fill:#453f31;}.a51160f6-894a-49dd-80c6-ea3ad75bd8e1{fill:#aaa194;}</style></defs><title>T_8</title><g id="fb1b2ca4-8bbd-4b0a-938c-97da1948fa17" data-name="Capa 2"><g id="e14581a1-8ce5-4c0b-baf6-6e5c47cf6122" data-name="Objects"><rect class="ece721b4-f117-406c-a253-758f56cfd92a" x="0.13" y="0.12" width="60.86" height="91.29" rx="2.4"/><path class="b14d010b-a410-4d36-9477-5978568997a9" d="M58.59,91.54H2.52A2.53,2.53,0,0,1,0,89V2.52A2.52,2.52,0,0,1,2.52,0H58.59a2.52,2.52,0,0,1,2.52,2.52V89A2.53,2.53,0,0,1,58.59,91.54ZM2.52.25A2.27,2.27,0,0,0,.25,2.52V89a2.28,2.28,0,0,0,2.27,2.28H58.59A2.28,2.28,0,0,0,60.86,89V2.52A2.27,2.27,0,0,0,58.59.25Z"/><path class="b97b2185-0fae-410f-bf81-8413e36b14b1" d="M4.36,5.22l0-.08a1.85,1.85,0,0,1,.6.36,2,2,0,0,1,.42.57,1.74,1.74,0,0,1-.12,1.64,1.91,1.91,0,0,1-.72.66,2.11,2.11,0,0,1-1,.25,2,2,0,0,1-1-.25,1.87,1.87,0,0,1-.73-.66,1.68,1.68,0,0,1-.27-.93A1.64,1.64,0,0,1,1.61,6a1.7,1.7,0,0,1,.44-.55,2.26,2.26,0,0,1,.56-.35l0,.09A2,2,0,0,1,2.1,4.9a2,2,0,0,1-.36-.51,1.59,1.59,0,0,1-.14-.66,1.69,1.69,0,0,1,.25-.92,1.82,1.82,0,0,1,.68-.64,1.85,1.85,0,0,1,.94-.24,1.92,1.92,0,0,1,.95.24,1.87,1.87,0,0,1,.67.64,1.78,1.78,0,0,1,.24.92,1.42,1.42,0,0,1-.14.66,1.68,1.68,0,0,1-.36.51A1.71,1.71,0,0,1,4.36,5.22ZM3.47,8.08a1.48,1.48,0,0,0,1-.37A1.26,1.26,0,0,0,4.73,6.1a1.34,1.34,0,0,0-.53-.47,1.63,1.63,0,0,0-1.45,0,1.41,1.41,0,0,0-.53.47,1.26,1.26,0,0,0,.21,1.61A1.44,1.44,0,0,0,3.47,8.08ZM2.18,3.73a1.21,1.21,0,0,0,.18.66,1.11,1.11,0,0,0,.47.44A1.3,1.3,0,0,0,3.47,5a1.24,1.24,0,0,0,.63-.17,1.2,1.2,0,0,0,.48-.44,1.21,1.21,0,0,0,.18-.66,1.21,1.21,0,0,0-.36-.91,1.29,1.29,0,0,0-.93-.35,1.28,1.28,0,0,0-.93.35A1.18,1.18,0,0,0,2.18,3.73Z"/><path class="b97b2185-0fae-410f-bf81-8413e36b14b1" d="M56.75,86.31l0,.09a2.07,2.07,0,0,1-.6-.37,1.76,1.76,0,0,1-.42-.56,1.73,1.73,0,0,1-.16-.72,1.68,1.68,0,0,1,.27-.93,2,2,0,0,1,.73-.66,2.21,2.21,0,0,1,1-.24,2.16,2.16,0,0,1,1,.24,2,2,0,0,1,.73.66,1.68,1.68,0,0,1,.27.93,1.58,1.58,0,0,1-.17.74,1.71,1.71,0,0,1-.43.56,2.6,2.6,0,0,1-.56.35l0-.1a1.87,1.87,0,0,1,.47.34,1.76,1.76,0,0,1,.37.51,1.59,1.59,0,0,1,.14.66,1.75,1.75,0,0,1-.25.91,1.85,1.85,0,0,1-.68.65,2.06,2.06,0,0,1-1.89,0,1.82,1.82,0,0,1-.67-.65,1.75,1.75,0,0,1-.25-.91,1.47,1.47,0,0,1,.15-.67,1.64,1.64,0,0,1,.36-.5A1.82,1.82,0,0,1,56.75,86.31Zm.89-2.85a1.52,1.52,0,0,0-1,.36,1.26,1.26,0,0,0-.21,1.61,1.45,1.45,0,0,0,.53.48,1.6,1.6,0,0,0,.73.17,1.58,1.58,0,0,0,.71-.17,1.37,1.37,0,0,0,.53-.48,1.16,1.16,0,0,0,.2-.68,1.21,1.21,0,0,0-.4-.93A1.5,1.5,0,0,0,57.64,83.46Zm1.29,4.35a1.22,1.22,0,0,0-.18-.67,1.27,1.27,0,0,0-.48-.44,1.26,1.26,0,0,0-.63-.16,1.29,1.29,0,0,0-.64.16,1.32,1.32,0,0,0-.47.44,1.22,1.22,0,0,0-.18.67,1.19,1.19,0,0,0,.36.9,1.41,1.41,0,0,0,1.86,0A1.19,1.19,0,0,0,58.93,87.81Z"/><path class="a2f4d159-93e1-4c23-990d-3b38d8ffd0c0" d="M4.33,10a.84.84,0,0,0,0-.42,1,1,0,0,0-1.89.16,1.09,1.09,0,0,0,0,.26,1,1,0,0,0-.79,1,.94.94,0,0,0,.89.85.93.93,0,0,0,.72-.26l-.08.52s0,.07.06.07h.24a.07.07,0,0,0,.06-.07l-.07-.52a.9.9,0,0,0,.71.26A1,1,0,0,0,4.33,10Z"/><path class="ac940b44-bdee-4431-9639-85f4e96ce63f" d="M3.53,12.22H3.29l-.06,0a.07.07,0,0,1,0-.06l.06-.47a1,1,0,0,1-.63.23H2.59A1,1,0,0,1,2.47,10a1.07,1.07,0,0,1,0-.25A1,1,0,0,1,2.76,9a1,1,0,0,1,.65-.25h.1a1,1,0,0,1,.86.81,1,1,0,0,1,0,.41,1,1,0,0,1,.79,1,1,1,0,0,1-.91.87H4.18a1,1,0,0,1-.64-.23l.07.47a.14.14,0,0,1,0,.06Zm-.22-.62h0v0l-.07.52s0,0,0,0l0,0h.24s0,0,0,0,0,0,0,0l-.07-.52v0h0a.92.92,0,0,0,.65.26h.05A.94.94,0,0,0,4.33,10h0a.86.86,0,0,0,0-.42A.93.93,0,0,0,3.5,8.8H3.41A.94.94,0,0,0,2.78,9a1,1,0,0,0-.3.69,1.15,1.15,0,0,0,0,.26h0a.94.94,0,0,0-.79,1,1,1,0,0,0,.88.85h.06a.9.9,0,0,0,.64-.26Z"/><path class="a51160f6-894a-49dd-80c6-ea3ad75bd8e1" d="M4.13,9.7h0A.09.09,0,0,1,4,9.6.57.57,0,0,0,3.52,9a.08.08,0,0,1-.07-.1.08.08,0,0,1,.1-.07.73.73,0,0,1,.66.75A.09.09,0,0,1,4.13,9.7Z"/><path class="a51160f6-894a-49dd-80c6-ea3ad75bd8e1" d="M4.14,10a.09.09,0,0,1-.09-.09v-.1a.09.09,0,0,1,.18,0v.1A.09.09,0,0,1,4.14,10Z"/><path class="a2f4d159-93e1-4c23-990d-3b38d8ffd0c0" d="M56.71,81.67a1.23,1.23,0,0,0,0,.43,1,1,0,0,0,1.9-.17,1.17,1.17,0,0,0,0-.26,1,1,0,0,0,.8-1,1,1,0,0,0-.9-.86.94.94,0,0,0-.71.27l.07-.53s0-.06-.06-.06h-.24a.06.06,0,0,0-.06.06l.08.53a1,1,0,0,0-.72-.27,1,1,0,0,0-.89.86A.94.94,0,0,0,56.71,81.67Z"/><path class="ac940b44-bdee-4431-9639-85f4e96ce63f" d="M57.63,82.9h-.09a1,1,0,0,1-.87-.8,1.12,1.12,0,0,1,0-.41,1,1,0,0,1,.12-1.93h.06a.94.94,0,0,1,.63.24l-.06-.47a.06.06,0,0,1,0-.06.09.09,0,0,1,.06,0h.24a.07.07,0,0,1,.06,0,.11.11,0,0,1,0,.06l-.07.47a.94.94,0,0,1,.64-.24h.05a1,1,0,0,1,.12,1.93,1,1,0,0,1,0,.24,1,1,0,0,1-1,1Zm-.76-3.1h-.06a.94.94,0,0,0-.88.84,1,1,0,0,0,.79,1h0v0a.94.94,0,0,0,0,.41.91.91,0,0,0,.83.77h.09a1,1,0,0,0,.63-.24.93.93,0,0,0,.31-.7.73.73,0,0,0,0-.25v0h0a1,1,0,0,0,.78-1,.93.93,0,0,0-.88-.84H58.4a.92.92,0,0,0-.65.26h0s0,0,0,0l.07-.52a0,0,0,0,0,0,0h-.3a0,0,0,0,0,0,0l.07.52s0,0,0,0h0A.9.9,0,0,0,56.87,79.8Z"/><path class="a51160f6-894a-49dd-80c6-ea3ad75bd8e1" d="M56.92,82h0a.08.08,0,0,1,.07.09c0,.29.25.52.53.57a.08.08,0,0,1,.07.1.09.09,0,0,1-.1.07.75.75,0,0,1-.67-.76A.09.09,0,0,1,56.92,82Z"/><path class="a51160f6-894a-49dd-80c6-ea3ad75bd8e1" d="M56.91,81.65a.08.08,0,0,1,.08.08v.11a.08.08,0,0,1-.08.08.08.08,0,0,1-.09-.08v-.11A.08.08,0,0,1,56.91,81.65Z"/><path class="a2f4d159-93e1-4c23-990d-3b38d8ffd0c0" d="M48.11,13.63A3.79,3.79,0,0,0,48.19,12a3.74,3.74,0,0,0-7.43.63,3.81,3.81,0,0,0,.14,1A3.74,3.74,0,1,0,44.09,20l-.28,2.05a.22.22,0,0,0,.22.25H45a.23.23,0,0,0,.23-.25L44.92,20a3.71,3.71,0,0,0,2.81,1,3.74,3.74,0,0,0,.38-7.43Z"/><path class="ac940b44-bdee-4431-9639-85f4e96ce63f" d="M45,22.39H44a.26.26,0,0,1-.22-.1.28.28,0,0,1-.07-.23L44,20.2a3.76,3.76,0,0,1-2.72.93,3.81,3.81,0,0,1-.46-7.56,3.76,3.76,0,0,1,1.12-3.78,3.81,3.81,0,0,1,6.25,3.78A3.81,3.81,0,1,1,45,20.2l.26,1.86a.25.25,0,0,1-.07.23A.26.26,0,0,1,45,22.39ZM44.09,20h0a.08.08,0,0,1,0,.07l-.29,2a.17.17,0,0,0,0,.12.14.14,0,0,0,.12.06H45a.14.14,0,0,0,.12-.06.17.17,0,0,0,0-.12l-.29-2a.08.08,0,0,1,0-.07A.08.08,0,0,1,45,20a3.65,3.65,0,0,0,2.75,1,3.67,3.67,0,0,0,.38-7.29l-.05,0a.13.13,0,0,1,0-.06,3.68,3.68,0,1,0-7.07,0,.13.13,0,0,1,0,.06l-.05,0A3.67,3.67,0,0,0,41.29,21,3.63,3.63,0,0,0,44,20,.06.06,0,0,1,44.09,20Z"/><path class="a51160f6-894a-49dd-80c6-ea3ad75bd8e1" d="M47.31,12.48h0A.35.35,0,0,1,47,12.1a2.26,2.26,0,0,0-2-2.21.35.35,0,0,1-.28-.39A.33.33,0,0,1,45,9.22a2.93,2.93,0,0,1,2.62,3A.34.34,0,0,1,47.31,12.48Z"/><path class="a51160f6-894a-49dd-80c6-ea3ad75bd8e1" d="M47.36,13.74A.34.34,0,0,1,47,13.4V13a.34.34,0,0,1,.68,0v.41A.34.34,0,0,1,47.36,13.74Z"/><path class="a2f4d159-93e1-4c23-990d-3b38d8ffd0c0" d="M20.2,13.63A3.64,3.64,0,0,0,20.29,12a3.74,3.74,0,0,0-7.43.63,3.81,3.81,0,0,0,.14,1A3.74,3.74,0,1,0,16.19,20l-.29,2.05a.22.22,0,0,0,.22.25h1a.22.22,0,0,0,.22-.25L17,20a3.69,3.69,0,0,0,2.8,1,3.74,3.74,0,0,0,.38-7.43Z"/><path class="ac940b44-bdee-4431-9639-85f4e96ce63f" d="M17.08,22.39h-.95a.29.29,0,0,1-.23-.1.32.32,0,0,1-.07-.23l.26-1.86a3.72,3.72,0,0,1-2.71.93,3.81,3.81,0,0,1-.47-7.56A3.83,3.83,0,0,1,14,9.79a3.81,3.81,0,0,1,6.25,3.78,3.81,3.81,0,0,1-.46,7.56,3.79,3.79,0,0,1-2.72-.93l.26,1.86a.28.28,0,0,1-.07.23A.27.27,0,0,1,17.08,22.39ZM16.19,20h0s0,0,0,.07l-.28,2a.14.14,0,0,0,0,.12.14.14,0,0,0,.12.06h.95a.14.14,0,0,0,.12-.06.13.13,0,0,0,0-.12L17,20A.08.08,0,0,1,17,20a.09.09,0,0,1,.08,0,3.63,3.63,0,0,0,2.75,1,3.67,3.67,0,0,0,.37-7.29l0,0a.07.07,0,0,1,0-.06A3.55,3.55,0,0,0,20.22,12a3.67,3.67,0,0,0-6.09-2.1,3.71,3.71,0,0,0-1.2,2.72,3.36,3.36,0,0,0,.14,1,.13.13,0,0,1,0,.06l-.05,0A3.67,3.67,0,1,0,16.14,20S16.17,20,16.19,20Z"/><path class="a51160f6-894a-49dd-80c6-ea3ad75bd8e1" d="M19.41,12.48h0a.34.34,0,0,1-.3-.38A2.26,2.26,0,0,0,17,9.89a.34.34,0,0,1-.28-.39.33.33,0,0,1,.39-.28,2.94,2.94,0,0,1,2.62,3A.34.34,0,0,1,19.41,12.48Z"/><path class="a51160f6-894a-49dd-80c6-ea3ad75bd8e1" d="M19.45,13.74a.34.34,0,0,1-.34-.34V13a.35.35,0,0,1,.69,0v.41A.35.35,0,0,1,19.45,13.74Z"/><path class="a2f4d159-93e1-4c23-990d-3b38d8ffd0c0" d="M48.11,43.8a3.78,3.78,0,0,0,.08-1.65A3.74,3.74,0,1,0,40.9,43.8a3.74,3.74,0,1,0,3.19,6.4l-.28,2a.23.23,0,0,0,.22.26H45a.24.24,0,0,0,.23-.26l-.29-2a3.75,3.75,0,1,0,3.19-6.4Z"/><path class="ac940b44-bdee-4431-9639-85f4e96ce63f" d="M45,52.56H44a.26.26,0,0,1-.22-.1.28.28,0,0,1-.07-.23L44,50.37a3.71,3.71,0,0,1-2.72.93,3.81,3.81,0,0,1-.46-7.55,4,4,0,0,1-.13-1A3.83,3.83,0,0,1,41.94,40a3.81,3.81,0,0,1,6.32,2.17,3.84,3.84,0,0,1-.07,1.62,3.81,3.81,0,0,1-.46,7.55A3.76,3.76,0,0,1,45,50.37l.26,1.86a.25.25,0,0,1-.07.23A.26.26,0,0,1,45,52.56Zm-.89-2.43h0a.09.09,0,0,1,0,.07l-.29,2a.17.17,0,0,0,0,.12.14.14,0,0,0,.12.06H45a.14.14,0,0,0,.12-.06.17.17,0,0,0,0-.12l-.29-2a.09.09,0,0,1,0-.07.08.08,0,0,1,.08,0,3.58,3.58,0,0,0,2.75,1,3.67,3.67,0,0,0,.38-7.29l-.05,0a.13.13,0,0,1,0-.06,3.66,3.66,0,0,0-3.18-4.65,3.62,3.62,0,0,0-2.83.93A3.67,3.67,0,0,0,41,43.78a.13.13,0,0,1,0,.06l-.05,0a3.67,3.67,0,0,0,.38,7.29,3.63,3.63,0,0,0,2.75-1A.06.06,0,0,1,44.09,50.13Z"/><path class="a51160f6-894a-49dd-80c6-ea3ad75bd8e1" d="M47.31,42.65h0a.35.35,0,0,1-.31-.38,2.27,2.27,0,0,0-2-2.21.35.35,0,0,1-.28-.39.33.33,0,0,1,.39-.28,2.94,2.94,0,0,1,2.62,3A.34.34,0,0,1,47.31,42.65Z"/><path class="a51160f6-894a-49dd-80c6-ea3ad75bd8e1" d="M47.36,43.91a.34.34,0,0,1-.34-.34v-.41a.34.34,0,0,1,.68,0v.41A.34.34,0,0,1,47.36,43.91Z"/><path class="a2f4d159-93e1-4c23-990d-3b38d8ffd0c0" d="M20.2,43.8a3.64,3.64,0,0,0,.09-1.65A3.74,3.74,0,1,0,13,43.8a3.74,3.74,0,1,0,3.19,6.4l-.29,2a.23.23,0,0,0,.22.26h1a.23.23,0,0,0,.22-.26l-.28-2a3.74,3.74,0,1,0,3.18-6.4Z"/><path class="ac940b44-bdee-4431-9639-85f4e96ce63f" d="M17.08,52.56h-.95a.29.29,0,0,1-.23-.1.32.32,0,0,1-.07-.23l.26-1.86a3.72,3.72,0,0,1-2.71.93,3.81,3.81,0,0,1-.47-7.55,4,4,0,0,1-.12-1,3.81,3.81,0,0,1,7.57-.65,3.84,3.84,0,0,1-.07,1.62,3.81,3.81,0,0,1-.46,7.55,3.74,3.74,0,0,1-2.72-.93l.26,1.86a.28.28,0,0,1-.07.23A.27.27,0,0,1,17.08,52.56Zm-.89-2.43h0s0,0,0,.07l-.28,2a.14.14,0,0,0,0,.12.14.14,0,0,0,.12.06h.95a.14.14,0,0,0,.12-.06.13.13,0,0,0,0-.12l-.28-2a.09.09,0,0,1,0-.07.09.09,0,0,1,.08,0,3.59,3.59,0,0,0,2.75,1,3.67,3.67,0,0,0,.37-7.29l0,0a.07.07,0,0,1,0-.06,3.55,3.55,0,0,0,.08-1.62,3.65,3.65,0,0,0-3.26-3,3.61,3.61,0,0,0-2.83.93,3.71,3.71,0,0,0-1.2,2.72,3.36,3.36,0,0,0,.14,1,.13.13,0,0,1,0,.06l-.05,0a3.67,3.67,0,0,0,.37,7.29,3.62,3.62,0,0,0,2.76-1S16.17,50.13,16.19,50.13Z"/><path class="a51160f6-894a-49dd-80c6-ea3ad75bd8e1" d="M19.41,42.65h0a.34.34,0,0,1-.3-.38A2.27,2.27,0,0,0,17,40.06a.34.34,0,0,1-.28-.39.33.33,0,0,1,.39-.28,3,3,0,0,1,2.62,3A.34.34,0,0,1,19.41,42.65Z"/><path class="a51160f6-894a-49dd-80c6-ea3ad75bd8e1" d="M19.45,43.91a.34.34,0,0,1-.34-.34v-.41a.35.35,0,0,1,.69,0v.41A.35.35,0,0,1,19.45,43.91Z"/><path class="a2f4d159-93e1-4c23-990d-3b38d8ffd0c0" d="M34.16,29a3.76,3.76,0,0,0-3.24-4.74A3.74,3.74,0,0,0,27,29a3.74,3.74,0,0,0,.38,7.43,3.71,3.71,0,0,0,2.81-1l-.29,2a.23.23,0,0,0,.23.26h1a.22.22,0,0,0,.22-.26l-.28-2a3.71,3.71,0,0,0,2.81,1A3.74,3.74,0,0,0,34.16,29Z"/><path class="ac940b44-bdee-4431-9639-85f4e96ce63f" d="M31,37.76h-1a.3.3,0,0,1-.23-.11.27.27,0,0,1-.06-.23L30,35.57a3.81,3.81,0,1,1-3.17-6.63,3.54,3.54,0,0,1-.13-1A3.85,3.85,0,0,1,28,25.15a3.81,3.81,0,0,1,6.25,3.79,3.81,3.81,0,1,1-3.18,6.63l.26,1.85a.27.27,0,0,1-.07.23A.27.27,0,0,1,31,37.76Zm-.89-2.44h0a.08.08,0,0,1,0,.07l-.29,2a.17.17,0,0,0,0,.12.14.14,0,0,0,.12.06h1a.14.14,0,0,0,.12-.06.17.17,0,0,0,0-.12l-.29-2a.07.07,0,0,1,0-.07s0,0,.08,0a3.65,3.65,0,0,0,2.54,1h.21a3.68,3.68,0,0,0,.37-7.3l0,0a.07.07,0,0,1,0-.06,3.66,3.66,0,0,0-3.18-4.65,3.63,3.63,0,0,0-2.83.94A3.67,3.67,0,0,0,26.88,28,3.72,3.72,0,0,0,27,29,.13.13,0,0,1,27,29a.09.09,0,0,1-.05,0,3.68,3.68,0,1,0,3.13,6.28S30.12,35.32,30.14,35.32Z"/><path class="a51160f6-894a-49dd-80c6-ea3ad75bd8e1" d="M33.36,27.84h0a.35.35,0,0,1-.3-.38A2.27,2.27,0,0,0,31,25.25a.33.33,0,0,1-.28-.39.33.33,0,0,1,.39-.28,2.94,2.94,0,0,1,2.62,3A.34.34,0,0,1,33.36,27.84Z"/><path class="a51160f6-894a-49dd-80c6-ea3ad75bd8e1" d="M33.41,29.11a.35.35,0,0,1-.35-.35v-.41a.35.35,0,0,1,.35-.34.34.34,0,0,1,.34.34v.41A.35.35,0,0,1,33.41,29.11Z"/><path class="a2f4d159-93e1-4c23-990d-3b38d8ffd0c0" d="M35.12,58.89a3.69,3.69,0,0,0,.09-1.66,3.75,3.75,0,0,0-7.44.64,3.5,3.5,0,0,0,.15,1,3.74,3.74,0,1,0,3.18,6.39l-.28,2a.22.22,0,0,0,.22.26h1a.23.23,0,0,0,.22-.26l-.29-2a3.74,3.74,0,1,0,3.19-6.39Z"/><path class="ac940b44-bdee-4431-9639-85f4e96ce63f" d="M32,67.65H31a.32.32,0,0,1-.22-.1.3.3,0,0,1-.07-.24L31,65.46a3.77,3.77,0,0,1-2.72.93,3.81,3.81,0,0,1-.46-7.56,3.89,3.89,0,0,1-.12-1,3.81,3.81,0,1,1,7.5,1,3.81,3.81,0,0,1-.47,7.56A3.72,3.72,0,0,1,32,65.46l.26,1.85a.34.34,0,0,1-.07.24A.32.32,0,0,1,32,67.65Zm-.9-2.44h0a.06.06,0,0,1,0,.07l-.28,2a.15.15,0,0,0,0,.13.18.18,0,0,0,.12.05h1a.16.16,0,0,0,.11-.05.16.16,0,0,0,0-.13l-.28-2a.06.06,0,0,1,0-.07.08.08,0,0,1,.08,0,3.61,3.61,0,0,0,2.76,1,3.68,3.68,0,0,0,.37-7.3.05.05,0,0,1,0,0,.07.07,0,0,1,0-.05,3.74,3.74,0,0,0,.09-1.63,3.68,3.68,0,0,0-7.3.63,3.77,3.77,0,0,0,.14,1,0,0,0,0,1,0,.05s0,0,0,0a3.68,3.68,0,0,0,.37,7.3,3.63,3.63,0,0,0,2.75-1Z"/><path class="a51160f6-894a-49dd-80c6-ea3ad75bd8e1" d="M34.32,57.74h0a.35.35,0,0,1-.31-.38,2.25,2.25,0,0,0-2-2.21.35.35,0,0,1-.29-.4.35.35,0,0,1,.4-.28,3,3,0,0,1,2.62,3A.35.35,0,0,1,34.32,57.74Z"/><path class="a51160f6-894a-49dd-80c6-ea3ad75bd8e1" d="M34.37,59a.34.34,0,0,1-.34-.34v-.41a.34.34,0,1,1,.68,0v.41A.34.34,0,0,1,34.37,59Z"/><path class="a2f4d159-93e1-4c23-990d-3b38d8ffd0c0" d="M48.11,74a3.78,3.78,0,0,0,.08-1.65A3.74,3.74,0,1,0,40.9,74a3.74,3.74,0,0,0,.38,7.43,3.71,3.71,0,0,0,2.81-1l-.28,2a.22.22,0,0,0,.22.26H45a.23.23,0,0,0,.23-.26l-.29-2a3.71,3.71,0,0,0,2.81,1A3.74,3.74,0,0,0,48.11,74Z"/><path class="ac940b44-bdee-4431-9639-85f4e96ce63f" d="M45,82.73H44a.26.26,0,0,1-.22-.1.28.28,0,0,1-.07-.23L44,80.54a3.76,3.76,0,0,1-2.72.93,3.81,3.81,0,0,1-.46-7.55,4,4,0,0,1-.13-1,3.85,3.85,0,0,1,1.25-2.82,3.81,3.81,0,0,1,6.25,3.79,3.81,3.81,0,0,1-.46,7.55A3.76,3.76,0,0,1,45,80.54l.26,1.86a.25.25,0,0,1-.07.23A.26.26,0,0,1,45,82.73Zm-.89-2.43h0a.07.07,0,0,1,0,.07l-.29,2a.17.17,0,0,0,0,.12.14.14,0,0,0,.12.06H45a.14.14,0,0,0,.12-.06.17.17,0,0,0,0-.12l-.29-2a.07.07,0,0,1,0-.07.06.06,0,0,1,.08,0A3.67,3.67,0,1,0,48.1,74a.09.09,0,0,1-.05,0A.13.13,0,0,1,48,74a3.66,3.66,0,0,0-3.18-4.65,3.63,3.63,0,0,0-2.83.94A3.67,3.67,0,0,0,40.83,73,3.72,3.72,0,0,0,41,74,.13.13,0,0,1,41,74a.09.09,0,0,1-.05,0A3.68,3.68,0,1,0,44,80.32.06.06,0,0,1,44.09,80.3Z"/><path class="a51160f6-894a-49dd-80c6-ea3ad75bd8e1" d="M47.31,72.82h0a.35.35,0,0,1-.31-.38,2.27,2.27,0,0,0-2-2.21.34.34,0,0,1-.28-.39.33.33,0,0,1,.39-.28,2.94,2.94,0,0,1,2.62,3A.34.34,0,0,1,47.31,72.82Z"/><path class="a51160f6-894a-49dd-80c6-ea3ad75bd8e1" d="M47.36,74.09a.35.35,0,0,1-.34-.35v-.41a.34.34,0,1,1,.68,0v.41A.35.35,0,0,1,47.36,74.09Z"/><path class="a2f4d159-93e1-4c23-990d-3b38d8ffd0c0" d="M20.2,74a3.64,3.64,0,0,0,.09-1.65A3.74,3.74,0,1,0,13,74a3.74,3.74,0,0,0,.38,7.43,3.71,3.71,0,0,0,2.81-1l-.29,2a.23.23,0,0,0,.22.26h1a.22.22,0,0,0,.22-.26l-.28-2a3.68,3.68,0,0,0,2.8,1A3.74,3.74,0,0,0,20.2,74Z"/><path class="ac940b44-bdee-4431-9639-85f4e96ce63f" d="M17.08,82.73h-.95a.29.29,0,0,1-.23-.1.32.32,0,0,1-.07-.23l.26-1.86a3.72,3.72,0,0,1-2.71.93,3.81,3.81,0,0,1-.47-7.55,4,4,0,0,1-.12-1,3.81,3.81,0,1,1,7.5,1,3.81,3.81,0,0,1-.46,7.55,3.74,3.74,0,0,1-2.72-.93l.26,1.86a.28.28,0,0,1-.07.23A.27.27,0,0,1,17.08,82.73Zm-.89-2.43h0a.06.06,0,0,1,0,.07l-.28,2a.14.14,0,0,0,0,.12.14.14,0,0,0,.12.06h.95a.14.14,0,0,0,.12-.06.13.13,0,0,0,0-.12l-.28-2a.07.07,0,0,1,0-.07s.05,0,.08,0A3.67,3.67,0,1,0,20.19,74s0,0,0,0a.07.07,0,0,1,0-.06,3.55,3.55,0,0,0,.08-1.62,3.67,3.67,0,0,0-7.29.62,3.36,3.36,0,0,0,.14,1,.13.13,0,0,1,0,.06A.09.09,0,0,1,13,74a3.68,3.68,0,1,0,3.13,6.28S16.17,80.3,16.19,80.3Z"/><path class="a51160f6-894a-49dd-80c6-ea3ad75bd8e1" d="M19.41,72.82h0a.34.34,0,0,1-.3-.38A2.27,2.27,0,0,0,17,70.23a.33.33,0,0,1-.28-.39.33.33,0,0,1,.39-.28,3,3,0,0,1,2.62,3A.34.34,0,0,1,19.41,72.82Z"/><path class="a51160f6-894a-49dd-80c6-ea3ad75bd8e1" d="M19.45,74.09a.35.35,0,0,1-.34-.35v-.41a.35.35,0,0,1,.69,0v.41A.35.35,0,0,1,19.45,74.09Z"/></g></g></svg>