<svg xmlns="http://www.w3.org/2000/svg" viewBox="0 0 961.03 155.47"><defs><style>.a95a6459-7f8d-497d-88e5-7a34775b2b70{fill:#1f8ebe;}.a632d5a4-d246-440f-a5e7-5201edc89f2a{fill:#f9f3e9;}.abe24fca-b5f6-4450-b808-73a1d75da442{fill:#dfd9d0;}</style></defs><title>cmumcdu1</title><g id="af510277-4dee-4055-acf6-b1d20489b0b6" data-name="Capa 2"><g id="a73188d9-96e6-4db9-85b9-1a7d98ac918c" data-name="Capa 1"><rect class="a95a6459-7f8d-497d-88e5-7a34775b2b70" x="321.64" width="158.89" height="51.32"/><path class="a632d5a4-d246-440f-a5e7-5201edc89f2a" d="M395,14.22a1.06,1.06,0,0,1,.84.36,1.22,1.22,0,0,1,.33.87v11.9a8.09,8.09,0,0,1-1.07,4.15,7.85,7.85,0,0,1-6.94,4,8,8,0,0,1-4.13-1.07,7.78,7.78,0,0,1-2.86-2.89,8.18,8.18,0,0,1-1-4.15V15.45a1.2,1.2,0,0,1,1.26-1.23,1.26,1.26,0,0,1,1.23,1.23v11.9a5.69,5.69,0,0,0,.75,2.94,5.39,5.39,0,0,0,2,2,5.48,5.48,0,0,0,2.78.74,5.6,5.6,0,0,0,2.82-.74,5.7,5.7,0,0,0,2.08-2,5.44,5.44,0,0,0,.8-2.94V15.45a1.3,1.3,0,0,1,.3-.87A1,1,0,0,1,395,14.22Z"/><path class="a632d5a4-d246-440f-a5e7-5201edc89f2a" d="M402.69,14.22a1.35,1.35,0,0,1,.58.15,1.41,1.41,0,0,1,.5.38l8,12-1.05,0,8-12a1.13,1.13,0,0,1,1-.53,1.33,1.33,0,0,1,.84.36,1.11,1.11,0,0,1,.36.87V34a1.19,1.19,0,0,1-.36.87,1.3,1.3,0,0,1-1.8,0,1.19,1.19,0,0,1-.36-.87V17.73l.75.15-7.08,10.77a1.51,1.51,0,0,1-.44.35.93.93,0,0,1-.52.16,1,1,0,0,1-.54-.16,1.43,1.43,0,0,1-.45-.35l-7-10.77.63-.78V34a1.24,1.24,0,0,1-.33.87,1.09,1.09,0,0,1-.84.36,1.05,1.05,0,0,1-.83-.36,1.27,1.27,0,0,1-.31-.87V15.45a1.23,1.23,0,0,1,.34-.86A1.16,1.16,0,0,1,402.69,14.22Z"/><rect class="a95a6459-7f8d-497d-88e5-7a34775b2b70" x="480.53" width="160" height="51.32"/><path class="a632d5a4-d246-440f-a5e7-5201edc89f2a" d="M568.61,15.63a1,1,0,0,1,.59.81,1.27,1.27,0,0,1-.29,1,.89.89,0,0,1-.69.42,1.6,1.6,0,0,1-.84-.18,9.29,9.29,0,0,0-2.13-1,8.79,8.79,0,0,0-5.64.27,7.63,7.63,0,0,0-2.55,1.73,7.8,7.8,0,0,0-1.68,2.63,9.3,9.3,0,0,0-.6,3.4,9.42,9.42,0,0,0,.63,3.54,7.86,7.86,0,0,0,1.73,2.65,7.21,7.21,0,0,0,2.55,1.66,8.38,8.38,0,0,0,3.16.58,8.48,8.48,0,0,0,2.37-.33,8.69,8.69,0,0,0,2.16-1,1.4,1.4,0,0,1,.84-.15,1.13,1.13,0,0,1,.72.42,1.26,1.26,0,0,1,.27,1,1,1,0,0,1-.57.77,11.35,11.35,0,0,1-1.71.82,11.11,11.11,0,0,1-2,.58,10.51,10.51,0,0,1-2.09.21,11.11,11.11,0,0,1-4.08-.75,10,10,0,0,1-3.39-2.15,10.26,10.26,0,0,1-2.32-3.41,11.26,11.26,0,0,1-.86-4.48,11.08,11.08,0,0,1,.81-4.29,10.3,10.3,0,0,1,2.27-3.4,10.57,10.57,0,0,1,3.39-2.25,10.7,10.7,0,0,1,4.18-.81,11.18,11.18,0,0,1,3,.43A10.21,10.21,0,0,1,568.61,15.63Z"/><rect class="a95a6459-7f8d-497d-88e5-7a34775b2b70" x="640.53" width="160" height="51.32"/><path class="a632d5a4-d246-440f-a5e7-5201edc89f2a" d="M721.09,14.25a8.6,8.6,0,0,1,3.86.82,7.72,7.72,0,0,1,2.77,2.3,10.33,10.33,0,0,1,1.67,3.37,14.28,14.28,0,0,1,.56,4A13.58,13.58,0,0,1,729,30a8.86,8.86,0,0,1-3,3.81,8.1,8.1,0,0,1-4.92,1.43h-7.5a1.13,1.13,0,0,1-.85-.36,1.22,1.22,0,0,1-.35-.87V15.45a1.18,1.18,0,0,1,.35-.86,1.15,1.15,0,0,1,.85-.34Zm-.3,18.66a6,6,0,0,0,3.77-1.12,6.29,6.29,0,0,0,2.13-3,11.88,11.88,0,0,0,.68-4.08,12.68,12.68,0,0,0-.38-3.11A7.91,7.91,0,0,0,725.82,19a5.71,5.71,0,0,0-2-1.8,6.32,6.32,0,0,0-3-.66h-6.15l.24-.24V33.21l-.17-.3Z"/><path class="a95a6459-7f8d-497d-88e5-7a34775b2b70" d="M800.53,0h160a0,0,0,0,1,0,0V51.32a0,0,0,0,1,0,0h-154a6,6,0,0,1-6-6V0A0,0,0,0,1,800.53,0Z" transform="translate(1761.05 51.32) rotate(180)"/><path class="a632d5a4-d246-440f-a5e7-5201edc89f2a" d="M887.39,14.22a1.09,1.09,0,0,1,.85.36,1.24,1.24,0,0,1,.33.87V27.36a8.08,8.08,0,0,1-1.07,4.14,8,8,0,0,1-2.87,2.89,7.86,7.86,0,0,1-4.08,1.07,8,8,0,0,1-4.12-1.07,7.7,7.7,0,0,1-2.86-2.89,8.07,8.07,0,0,1-1.06-4.14V15.45a1.22,1.22,0,0,1,.35-.87,1.27,1.27,0,0,1,1.77,0,1.16,1.16,0,0,1,.37.87V27.36a5.68,5.68,0,0,0,.75,2.93,5.53,5.53,0,0,0,4.8,2.77,5.58,5.58,0,0,0,2.82-.74,5.73,5.73,0,0,0,2.09-2,5.43,5.43,0,0,0,.79-2.93V15.45a1.31,1.31,0,0,1,.3-.87A1,1,0,0,1,887.39,14.22Z"/><rect class="abe24fca-b5f6-4450-b808-73a1d75da442" x="479.03" width="3" height="153.96"/><rect class="abe24fca-b5f6-4450-b808-73a1d75da442" x="639.03" width="3" height="153.96"/><rect class="abe24fca-b5f6-4450-b808-73a1d75da442" x="799.03" width="3" height="153.96"/><polygon class="abe24fca-b5f6-4450-b808-73a1d75da442" points="320.03 155.47 159.99 155.47 159.99 7.9 162.99 7.9 162.99 152.47 320.03 152.47 320.03 155.47"/><rect class="a95a6459-7f8d-497d-88e5-7a34775b2b70" x="160.03" width="161.6" height="51.32"/><path class="abe24fca-b5f6-4450-b808-73a1d75da442" d="M949.35,155.46H320V0h3V152.46H949.35a8.68,8.68,0,0,0,8.68-8.68V51.32h3v92.46A11.68,11.68,0,0,1,949.35,155.46Z"/><path class="abe24fca-b5f6-4450-b808-73a1d75da442" d="M160,155.47H10.18A10.2,10.2,0,0,1,0,145.29V7.9H3V145.29a7.19,7.19,0,0,0,7.18,7.18H160Z"/><path class="a95a6459-7f8d-497d-88e5-7a34775b2b70" d="M6,0h155.6a0,0,0,0,1,0,0V51.32a0,0,0,0,1,0,0H0a0,0,0,0,1,0,0V6A6,6,0,0,1,6,0Z"/><rect class="abe24fca-b5f6-4450-b808-73a1d75da442" x="159.99" width="3" height="57.54"/><path class="a632d5a4-d246-440f-a5e7-5201edc89f2a" d="M228.18,14.22A8.51,8.51,0,0,1,232,15a7.73,7.73,0,0,1,2.78,2.29,10.51,10.51,0,0,1,1.66,3.37,14.21,14.21,0,0,1,.55,4A13.58,13.58,0,0,1,236,30a8.77,8.77,0,0,1-2.93,3.8,8.11,8.11,0,0,1-4.91,1.42h-7.49a1.11,1.11,0,0,1-.85-.36,1.18,1.18,0,0,1-.35-.87V15.42a1.18,1.18,0,0,1,1.2-1.2Zm-.3,18.63a6,6,0,0,0,3.75-1.11,6.37,6.37,0,0,0,2.13-3,11.78,11.78,0,0,0,.68-4.07,12.6,12.6,0,0,0-.38-3.1A7.91,7.91,0,0,0,232.89,19a5.76,5.76,0,0,0-2-1.8,6.3,6.3,0,0,0-3-.66h-6.14l.24-.24V33.15l-.18-.3Z"/><path class="a632d5a4-d246-440f-a5e7-5201edc89f2a" d="M242.22,14.19a1.39,1.39,0,0,1,.59.15,1.29,1.29,0,0,1,.49.39l7.94,12-1.05,0,8-12a1.12,1.12,0,0,1,1-.54,1.31,1.31,0,0,1,.83.36,1.12,1.12,0,0,1,.36.87V34a1.19,1.19,0,0,1-.36.87,1.29,1.29,0,0,1-1.79,0,1.19,1.19,0,0,1-.36-.87V17.69l.75.15L251.6,28.59a1.73,1.73,0,0,1-.44.36,1,1,0,0,1-.52.15,1.1,1.1,0,0,1-.54-.15,1.62,1.62,0,0,1-.45-.36l-7-10.75.63-.78V34a1.24,1.24,0,0,1-.33.87,1.09,1.09,0,0,1-.84.36,1,1,0,0,1-.82-.36A1.28,1.28,0,0,1,241,34V15.42a1.24,1.24,0,0,1,.35-.86A1.13,1.13,0,0,1,242.22,14.19Z"/><path class="a632d5a4-d246-440f-a5e7-5201edc89f2a" d="M76.79,15.6a1,1,0,0,1,.58.81,1.25,1.25,0,0,1-.28,1,.89.89,0,0,1-.69.42,1.6,1.6,0,0,1-.84-.18,9.29,9.29,0,0,0-2.13-.95A8.17,8.17,0,0,0,71,16.35,8.31,8.31,0,0,0,67.8,17a7.63,7.63,0,0,0-4.22,4.36A9.2,9.2,0,0,0,63,24.7a9.39,9.39,0,0,0,.63,3.54,7.93,7.93,0,0,0,1.72,2.65,7.35,7.35,0,0,0,2.55,1.66,8.58,8.58,0,0,0,3.16.57,8.41,8.41,0,0,0,2.36-.33,8.69,8.69,0,0,0,2.16-1,1.4,1.4,0,0,1,.84-.15,1.13,1.13,0,0,1,.72.42,1.3,1.3,0,0,1,.27,1,1,1,0,0,1-.57.77,11.35,11.35,0,0,1-1.71.82,12,12,0,0,1-2,.58,10.41,10.41,0,0,1-2.08.21A11,11,0,0,1,67,34.73a10,10,0,0,1-3.39-2.15,10.21,10.21,0,0,1-2.32-3.4,11.25,11.25,0,0,1-.85-4.48,11.06,11.06,0,0,1,.81-4.28A10,10,0,0,1,63.48,17a10.42,10.42,0,0,1,3.38-2.25A10.7,10.7,0,0,1,71,14a11.1,11.1,0,0,1,3,.42A10.35,10.35,0,0,1,76.79,15.6Z"/><path class="a632d5a4-d246-440f-a5e7-5201edc89f2a" d="M82.24,14.19a1.35,1.35,0,0,1,.58.15,1.29,1.29,0,0,1,.49.39l7.94,12-1,0,8-12a1.11,1.11,0,0,1,1-.54,1.33,1.33,0,0,1,.84.36,1.12,1.12,0,0,1,.36.87V34a1.16,1.16,0,0,1-.36.86,1.29,1.29,0,0,1-1.79,0,1.16,1.16,0,0,1-.36-.86V17.7l.75.15L91.61,28.6a1.7,1.7,0,0,1-.44.35,1,1,0,0,1-.52.15,1.1,1.1,0,0,1-.54-.15,1.6,1.6,0,0,1-.45-.35l-7-10.75.62-.78V34a1.22,1.22,0,0,1-.33.86,1.14,1.14,0,0,1-1.66,0A1.25,1.25,0,0,1,81,34V15.42a1.21,1.21,0,0,1,.34-.85A1.16,1.16,0,0,1,82.24,14.19Z"/><path class="a632d5a4-d246-440f-a5e7-5201edc89f2a" d="M228.23,14.22a8.58,8.58,0,0,1,3.85.82,7.78,7.78,0,0,1,2.77,2.29,10.51,10.51,0,0,1,1.66,3.37,14.21,14.21,0,0,1,.55,4,13.58,13.58,0,0,1-1,5.26,8.77,8.77,0,0,1-2.93,3.8,8.11,8.11,0,0,1-4.91,1.42h-7.49a1.13,1.13,0,0,1-.85-.36,1.18,1.18,0,0,1-.35-.87V15.42a1.18,1.18,0,0,1,1.2-1.2Zm-.3,18.63a6,6,0,0,0,3.76-1.11,6.42,6.42,0,0,0,2.12-3,11.78,11.78,0,0,0,.68-4.07,12.6,12.6,0,0,0-.38-3.1A7.91,7.91,0,0,0,232.94,19a5.76,5.76,0,0,0-2-1.8,6.3,6.3,0,0,0-3-.66h-6.14l.24-.24V33.15l-.18-.3Z"/><path class="a632d5a4-d246-440f-a5e7-5201edc89f2a" d="M242.27,14.19a1.39,1.39,0,0,1,.59.15,1.29,1.29,0,0,1,.49.39l7.94,12-1,0,8-12a1.12,1.12,0,0,1,1-.54,1.36,1.36,0,0,1,.84.36,1.15,1.15,0,0,1,.35.87V34a1.22,1.22,0,0,1-.35.87,1.24,1.24,0,0,1-.9.36,1.22,1.22,0,0,1-.9-.36A1.19,1.19,0,0,1,258,34V17.69l.75.15-7.07,10.75a1.73,1.73,0,0,1-.44.36,1,1,0,0,1-.52.15,1.1,1.1,0,0,1-.54-.15,1.62,1.62,0,0,1-.45-.36l-7-10.75.63-.78V34a1.24,1.24,0,0,1-.33.87,1.09,1.09,0,0,1-.84.36,1,1,0,0,1-.82-.36,1.27,1.27,0,0,1-.31-.87V15.42a1.23,1.23,0,0,1,.34-.86A1.15,1.15,0,0,1,242.27,14.19Z"/></g></g></svg>