<svg xmlns="http://www.w3.org/2000/svg" viewBox="0 0 959.52 463.39"><defs><style>.aa22ddff-1483-404e-a206-dcc2fe4ef022{fill:#dfd9d0;}.fe2d5e75-782a-4ab6-9ff2-2ec9a998facb{fill:#1f8ebe;}.fd55b7f6-bd91-45d8-8a69-c82fcaa6fbef{fill:#f9f3e9;}</style></defs><title>cmumcdu4</title><g id="b72a76c3-c159-49e2-a68d-90fd1704a3e4" data-name="Capa 2"><g id="abc8e1b7-67a1-4233-8af6-8d2fe9a33d8e" data-name="Capa 1"><polygon class="aa22ddff-1483-404e-a206-dcc2fe4ef022" points="959.52 155.47 318.52 155.47 318.52 14.46 321.52 14.46 321.52 152.47 956.52 152.47 956.52 6.91 959.52 6.91 959.52 155.47"/><rect class="fe2d5e75-782a-4ab6-9ff2-2ec9a998facb" x="319.02" y="0.01" width="160" height="51.32"/><path class="fd55b7f6-bd91-45d8-8a69-c82fcaa6fbef" d="M393.53,14.22a1.09,1.09,0,0,1,.84.36,1.24,1.24,0,0,1,.33.87V27.36a8.17,8.17,0,0,1-1.06,4.14,8,8,0,0,1-2.87,2.9,7.86,7.86,0,0,1-4.08,1.06,8,8,0,0,1-4.13-1.06,7.8,7.8,0,0,1-2.86-2.9,8.17,8.17,0,0,1-1.05-4.14V15.45a1.21,1.21,0,0,1,.34-.87,1.22,1.22,0,0,1,.92-.36,1.19,1.19,0,0,1,.85.36,1.17,1.17,0,0,1,.38.87V27.36a5.74,5.74,0,0,0,.75,2.94,5.47,5.47,0,0,0,4.8,2.76,5.59,5.59,0,0,0,2.82-.73,5.89,5.89,0,0,0,2.09-2,5.58,5.58,0,0,0,.79-2.94V15.45a1.31,1.31,0,0,1,.3-.87A1,1,0,0,1,393.53,14.22Z"/><path class="fd55b7f6-bd91-45d8-8a69-c82fcaa6fbef" d="M401.18,14.22a1.52,1.52,0,0,1,1.08.54l7.95,12-1,0,8-12a1.12,1.12,0,0,1,1-.54,1.33,1.33,0,0,1,.84.36,1.12,1.12,0,0,1,.36.87V34a1.19,1.19,0,0,1-.36.87,1.3,1.3,0,0,1-1.8,0,1.19,1.19,0,0,1-.36-.87V17.73l.75.15-7.08,10.77a1.87,1.87,0,0,1-.43.36,1.07,1.07,0,0,1-.53.15,1.1,1.1,0,0,1-.54-.15,1.62,1.62,0,0,1-.45-.36l-7-10.77.63-.78V34a1.24,1.24,0,0,1-.33.87,1.09,1.09,0,0,1-.84.36,1.05,1.05,0,0,1-.83-.36A1.32,1.32,0,0,1,400,34V15.45a1.21,1.21,0,0,1,.34-.85A1.16,1.16,0,0,1,401.18,14.22Z"/><rect class="fe2d5e75-782a-4ab6-9ff2-2ec9a998facb" x="479.02" y="0.01" width="160" height="51.32"/><path class="fd55b7f6-bd91-45d8-8a69-c82fcaa6fbef" d="M567.1,15.63a1,1,0,0,1,.59.81,1.26,1.26,0,0,1-.29,1,.89.89,0,0,1-.69.42,1.6,1.6,0,0,1-.84-.18,9.26,9.26,0,0,0-2.13-.94,8.61,8.61,0,0,0-5.64.27,7.61,7.61,0,0,0-2.55,1.72,7.84,7.84,0,0,0-1.68,2.64,9.21,9.21,0,0,0-.6,3.39,9.39,9.39,0,0,0,.63,3.54A7.9,7.9,0,0,0,555.63,31a7.35,7.35,0,0,0,2.55,1.66,8.58,8.58,0,0,0,3.16.57,8.48,8.48,0,0,0,2.37-.33,8.69,8.69,0,0,0,2.16-1,1.4,1.4,0,0,1,.84-.15,1.13,1.13,0,0,1,.72.42,1.28,1.28,0,0,1,.27,1,1,1,0,0,1-.57.76,11.35,11.35,0,0,1-1.71.83,12,12,0,0,1-2,.58,10.51,10.51,0,0,1-2.09.21,11.11,11.11,0,0,1-4.08-.75,10.12,10.12,0,0,1-5.71-5.56,11.3,11.3,0,0,1-.86-4.49,11.08,11.08,0,0,1,.81-4.29,10.25,10.25,0,0,1,2.27-3.39,10.57,10.57,0,0,1,3.39-2.25,10.7,10.7,0,0,1,4.18-.81,11.17,11.17,0,0,1,3,.42A10.21,10.21,0,0,1,567.1,15.63Z"/><rect class="fe2d5e75-782a-4ab6-9ff2-2ec9a998facb" x="639.02" y="0.01" width="160" height="51.32"/><path class="fd55b7f6-bd91-45d8-8a69-c82fcaa6fbef" d="M719.59,14.25a8.56,8.56,0,0,1,3.85.83,7.73,7.73,0,0,1,2.78,2.29,10.36,10.36,0,0,1,1.66,3.38,14.21,14.21,0,0,1,.56,4,13.63,13.63,0,0,1-1,5.27,8.77,8.77,0,0,1-2.94,3.81,8.12,8.12,0,0,1-4.92,1.42h-7.5a1.15,1.15,0,0,1-.86-.36,1.21,1.21,0,0,1-.34-.87V15.45a1.15,1.15,0,0,1,.34-.85,1.18,1.18,0,0,1,.86-.35Zm-.3,18.66a6,6,0,0,0,3.76-1.11,6.37,6.37,0,0,0,2.13-3,11.88,11.88,0,0,0,.68-4.08,12.6,12.6,0,0,0-.38-3.1A8,8,0,0,0,724.31,19a5.71,5.71,0,0,0-2-1.8,6.27,6.27,0,0,0-3-.66h-6.15l.24-.24V33.21l-.18-.3Z"/><path class="fe2d5e75-782a-4ab6-9ff2-2ec9a998facb" d="M799,0H959a0,0,0,0,1,0,0V51.33a0,0,0,0,1,0,0H805a6,6,0,0,1-6-6V0A0,0,0,0,1,799,0Z" transform="translate(1758.04 51.33) rotate(180)"/><path class="fd55b7f6-bd91-45d8-8a69-c82fcaa6fbef" d="M885.89,14.22a1.09,1.09,0,0,1,.84.36,1.24,1.24,0,0,1,.33.87V27.36A8.08,8.08,0,0,1,886,31.5a8,8,0,0,1-2.86,2.9,7.86,7.86,0,0,1-4.08,1.06,8,8,0,0,1-4.13-1.06,7.8,7.8,0,0,1-2.86-2.9,8.17,8.17,0,0,1-1-4.14V15.45a1.21,1.21,0,0,1,.34-.87,1.22,1.22,0,0,1,.92-.36,1.19,1.19,0,0,1,.85.36,1.17,1.17,0,0,1,.38.87V27.36a5.74,5.74,0,0,0,.75,2.94,5.47,5.47,0,0,0,4.8,2.76,5.59,5.59,0,0,0,2.82-.73,5.78,5.78,0,0,0,2.08-2,5.49,5.49,0,0,0,.8-2.94V15.45a1.31,1.31,0,0,1,.3-.87A1,1,0,0,1,885.89,14.22Z"/><rect class="aa22ddff-1483-404e-a206-dcc2fe4ef022" x="477.52" y="0.01" width="3" height="461.89"/><rect class="aa22ddff-1483-404e-a206-dcc2fe4ef022" x="637.52" y="0.01" width="3" height="461.89"/><rect class="aa22ddff-1483-404e-a206-dcc2fe4ef022" x="797.52" y="0.01" width="3" height="461.89"/><polygon class="aa22ddff-1483-404e-a206-dcc2fe4ef022" points="959.52 258.11 318.52 258.11 318.52 153.97 321.52 153.97 321.52 255.11 956.52 255.11 956.52 153.97 959.52 153.97 959.52 258.11"/><polygon class="aa22ddff-1483-404e-a206-dcc2fe4ef022" points="959.52 360.75 318.52 360.75 318.52 256.61 321.52 256.61 321.52 357.75 956.52 357.75 956.52 256.61 959.52 256.61 959.52 360.75"/><path class="aa22ddff-1483-404e-a206-dcc2fe4ef022" d="M947.84,463.39H318.52V359.25h3V460.39H947.84a8.68,8.68,0,0,0,8.68-8.68V359.25h3v92.46A11.68,11.68,0,0,1,947.84,463.39Z"/><polygon class="aa22ddff-1483-404e-a206-dcc2fe4ef022" points="320.03 155.47 159.99 155.47 159.99 7.91 162.99 7.91 162.99 152.47 320.03 152.47 320.03 155.47"/><rect class="fe2d5e75-782a-4ab6-9ff2-2ec9a998facb" x="160.03" y="0.01" width="161.6" height="51.32"/><polygon class="aa22ddff-1483-404e-a206-dcc2fe4ef022" points="320.03 258.12 159.99 258.12 159.99 110.55 162.99 110.55 162.99 255.12 320.03 255.12 320.03 258.12"/><polygon class="aa22ddff-1483-404e-a206-dcc2fe4ef022" points="320.03 360.76 159.99 360.76 159.99 213.19 162.99 213.19 162.99 357.76 320.03 357.76 320.03 360.76"/><polygon class="aa22ddff-1483-404e-a206-dcc2fe4ef022" points="320.03 463.39 159.99 463.39 159.99 315.82 162.99 315.82 162.99 460.39 320.03 460.39 320.03 463.39"/><polygon class="aa22ddff-1483-404e-a206-dcc2fe4ef022" points="160.04 155.47 0 155.47 0 7.91 3 7.91 3 152.47 160.04 152.47 160.04 155.47"/><path class="fe2d5e75-782a-4ab6-9ff2-2ec9a998facb" d="M6,0h155.6a0,0,0,0,1,0,0V51.33a0,0,0,0,1,0,0H0a0,0,0,0,1,0,0V6A6,6,0,0,1,6,0Z"/><polygon class="aa22ddff-1483-404e-a206-dcc2fe4ef022" points="160.04 258.12 0 258.12 0 110.55 3 110.55 3 255.12 160.04 255.12 160.04 258.12"/><polygon class="aa22ddff-1483-404e-a206-dcc2fe4ef022" points="160.04 360.76 0 360.76 0 213.19 3 213.19 3 357.76 160.04 357.76 160.04 360.76"/><path class="aa22ddff-1483-404e-a206-dcc2fe4ef022" d="M160,463.39H10.18A10.19,10.19,0,0,1,0,453.21V315.82H3V453.21a7.19,7.19,0,0,0,7.18,7.18H160Z"/><rect class="aa22ddff-1483-404e-a206-dcc2fe4ef022" x="159.99" width="3" height="57.54"/><rect class="aa22ddff-1483-404e-a206-dcc2fe4ef022" x="318.53" width="3" height="57.54"/><path class="fd55b7f6-bd91-45d8-8a69-c82fcaa6fbef" d="M76.78,15.6a1,1,0,0,1,.59.81,1.26,1.26,0,0,1-.29,1,.89.89,0,0,1-.68.42,1.6,1.6,0,0,1-.84-.18,9.26,9.26,0,0,0-2.13-.94A8.23,8.23,0,0,0,71,16.35,8.32,8.32,0,0,0,67.8,17a7.33,7.33,0,0,0-2.54,1.72,7.8,7.8,0,0,0-1.68,2.63,9.21,9.21,0,0,0-.6,3.39,9.37,9.37,0,0,0,.63,3.53,7.84,7.84,0,0,0,1.72,2.65,7.35,7.35,0,0,0,2.55,1.66,8.85,8.85,0,0,0,5.52.24,8.69,8.69,0,0,0,2.16-1,1.4,1.4,0,0,1,.84-.15,1.13,1.13,0,0,1,.71.42,1.27,1.27,0,0,1,.27,1,1,1,0,0,1-.57.77,10.77,10.77,0,0,1-1.7.82,12.31,12.31,0,0,1-2,.59,11.27,11.27,0,0,1-2.08.2A11.11,11.11,0,0,1,67,34.74a10.14,10.14,0,0,1-5.7-5.56,11.24,11.24,0,0,1-.85-4.47,11.07,11.07,0,0,1,.8-4.29A10.45,10.45,0,0,1,63.47,17a10.57,10.57,0,0,1,3.39-2.25A10.88,10.88,0,0,1,71,14a11.41,11.41,0,0,1,3,.41A10.07,10.07,0,0,1,76.78,15.6Z"/><path class="fd55b7f6-bd91-45d8-8a69-c82fcaa6fbef" d="M82.23,14.2a1.39,1.39,0,0,1,.59.15,1.18,1.18,0,0,1,.49.38l7.94,12-1,0,8-12a1.13,1.13,0,0,1,1-.53,1.32,1.32,0,0,1,.84.35,1.12,1.12,0,0,1,.36.87V34a1.19,1.19,0,0,1-.36.87,1.3,1.3,0,0,1-1.8,0,1.19,1.19,0,0,1-.36-.87V17.7l.75.15L91.61,28.6a1.73,1.73,0,0,1-.44.36,1,1,0,0,1-.52.15,1.1,1.1,0,0,1-.54-.15,1.62,1.62,0,0,1-.45-.36l-7-10.75.63-.78V34a1.24,1.24,0,0,1-.33.87,1.09,1.09,0,0,1-.84.36,1,1,0,0,1-.82-.36A1.27,1.27,0,0,1,81,34V15.42a1.21,1.21,0,0,1,.34-.85A1.15,1.15,0,0,1,82.23,14.2Z"/><path class="fd55b7f6-bd91-45d8-8a69-c82fcaa6fbef" d="M228.22,14.22a8.55,8.55,0,0,1,3.85.82,7.72,7.72,0,0,1,2.77,2.3,10.06,10.06,0,0,1,1.66,3.36,13.91,13.91,0,0,1,.56,4,13.58,13.58,0,0,1-1,5.26,8.72,8.72,0,0,1-2.93,3.8,8.12,8.12,0,0,1-4.92,1.43h-7.48a1.15,1.15,0,0,1-.86-.36,1.21,1.21,0,0,1-.34-.87V15.42a1.16,1.16,0,0,1,1.2-1.2Zm-.29,18.63a6,6,0,0,0,3.75-1.11,6.39,6.39,0,0,0,2.13-3,11.88,11.88,0,0,0,.67-4.08,12.59,12.59,0,0,0-.37-3.1A7.91,7.91,0,0,0,232.94,19a5.64,5.64,0,0,0-2-1.79,6.3,6.3,0,0,0-3-.66h-6.14l.23-.24V33.15l-.17-.3Z"/><path class="fd55b7f6-bd91-45d8-8a69-c82fcaa6fbef" d="M242.27,14.19a1.39,1.39,0,0,1,.59.15,1.29,1.29,0,0,1,.49.39l7.94,12-1,0,8-12a1.1,1.1,0,0,1,1-.54,1.33,1.33,0,0,1,.84.36,1.12,1.12,0,0,1,.36.87V34a1.19,1.19,0,0,1-.36.87,1.29,1.29,0,0,1-1.79,0A1.19,1.19,0,0,1,258,34V17.69l.74.15L251.65,28.6a1.73,1.73,0,0,1-.44.36,1,1,0,0,1-.52.15,1.1,1.1,0,0,1-.54-.15,1.62,1.62,0,0,1-.45-.36l-7-10.76.63-.77V34a1.24,1.24,0,0,1-.33.87,1.09,1.09,0,0,1-.84.36,1,1,0,0,1-.82-.36A1.28,1.28,0,0,1,241,34V15.42a1.24,1.24,0,0,1,.35-.86A1.17,1.17,0,0,1,242.27,14.19Z"/></g></g></svg>