<svg xmlns="http://www.w3.org/2000/svg" viewBox="0 0 959.52 360.75"><defs><style>.e9e8f702-c551-47a2-8d44-855eb7b44744{fill:#dfd9d0;}.b6cc5b37-95a1-42b8-9377-bb3eebff554d{fill:#1f8ebe;}.e9af1175-6617-4d54-8c19-770672096b10{fill:#f9f3e9;}</style></defs><title>cmumcdu3</title><g id="a6a270d5-4e04-4910-a808-8369e6fb116d" data-name="Capa 2"><g id="bef7b448-a3d3-45f1-96ab-08271b9fcc2c" data-name="Capa 1"><polygon class="e9e8f702-c551-47a2-8d44-855eb7b44744" points="959.52 155.47 318.52 155.47 318.52 14.46 321.52 14.46 321.52 152.47 956.52 152.47 956.52 6.91 959.52 6.91 959.52 155.47"/><rect class="b6cc5b37-95a1-42b8-9377-bb3eebff554d" x="319.02" y="0.01" width="160" height="51.32"/><path class="e9af1175-6617-4d54-8c19-770672096b10" d="M393.53,14.22a1.09,1.09,0,0,1,.84.36,1.24,1.24,0,0,1,.33.87V27.36a8.17,8.17,0,0,1-1.06,4.14,8,8,0,0,1-2.87,2.9,7.86,7.86,0,0,1-4.08,1.06,8,8,0,0,1-4.13-1.06,7.8,7.8,0,0,1-2.86-2.9,8.17,8.17,0,0,1-1.05-4.14V15.45a1.21,1.21,0,0,1,.34-.87,1.22,1.22,0,0,1,.92-.36,1.19,1.19,0,0,1,.85.36,1.17,1.17,0,0,1,.38.87V27.36a5.74,5.74,0,0,0,.75,2.94,5.47,5.47,0,0,0,4.8,2.76,5.59,5.59,0,0,0,2.82-.73,5.89,5.89,0,0,0,2.09-2,5.58,5.58,0,0,0,.79-2.94V15.45a1.31,1.31,0,0,1,.3-.87A1,1,0,0,1,393.53,14.22Z"/><path class="e9af1175-6617-4d54-8c19-770672096b10" d="M401.18,14.22a1.52,1.52,0,0,1,1.08.54l7.95,12-1,0,8-12a1.12,1.12,0,0,1,1-.54,1.33,1.33,0,0,1,.84.36,1.12,1.12,0,0,1,.36.87V34a1.19,1.19,0,0,1-.36.87,1.3,1.3,0,0,1-1.8,0,1.19,1.19,0,0,1-.36-.87V17.73l.75.15-7.08,10.77a1.87,1.87,0,0,1-.43.36,1.07,1.07,0,0,1-.53.15,1.1,1.1,0,0,1-.54-.15,1.62,1.62,0,0,1-.45-.36l-7-10.77.63-.78V34a1.24,1.24,0,0,1-.33.87,1.09,1.09,0,0,1-.84.36,1.05,1.05,0,0,1-.83-.36A1.32,1.32,0,0,1,400,34V15.45a1.21,1.21,0,0,1,.34-.85A1.16,1.16,0,0,1,401.18,14.22Z"/><rect class="b6cc5b37-95a1-42b8-9377-bb3eebff554d" x="479.02" y="0.01" width="160" height="51.32"/><path class="e9af1175-6617-4d54-8c19-770672096b10" d="M567.1,15.63a1,1,0,0,1,.59.81,1.26,1.26,0,0,1-.29,1,.89.89,0,0,1-.69.42,1.6,1.6,0,0,1-.84-.18,9.26,9.26,0,0,0-2.13-.94,8.61,8.61,0,0,0-5.64.27,7.61,7.61,0,0,0-2.55,1.72,7.84,7.84,0,0,0-1.68,2.64,9.21,9.21,0,0,0-.6,3.39,9.39,9.39,0,0,0,.63,3.54A7.9,7.9,0,0,0,555.63,31a7.35,7.35,0,0,0,2.55,1.66,8.58,8.58,0,0,0,3.16.57,8.48,8.48,0,0,0,2.37-.33,8.69,8.69,0,0,0,2.16-1,1.4,1.4,0,0,1,.84-.15,1.13,1.13,0,0,1,.72.42,1.28,1.28,0,0,1,.27,1,1,1,0,0,1-.57.76,11.35,11.35,0,0,1-1.71.83,12,12,0,0,1-2,.58,10.51,10.51,0,0,1-2.09.21,11.11,11.11,0,0,1-4.08-.75,10.12,10.12,0,0,1-5.71-5.56,11.3,11.3,0,0,1-.86-4.49,11.08,11.08,0,0,1,.81-4.29,10.25,10.25,0,0,1,2.27-3.39,10.57,10.57,0,0,1,3.39-2.25,10.7,10.7,0,0,1,4.18-.81,11.17,11.17,0,0,1,3,.42A10.21,10.21,0,0,1,567.1,15.63Z"/><rect class="b6cc5b37-95a1-42b8-9377-bb3eebff554d" x="639.02" y="0.01" width="160" height="51.32"/><path class="e9af1175-6617-4d54-8c19-770672096b10" d="M719.59,14.25a8.56,8.56,0,0,1,3.85.83,7.73,7.73,0,0,1,2.78,2.29,10.36,10.36,0,0,1,1.66,3.38,14.21,14.21,0,0,1,.56,4,13.63,13.63,0,0,1-1,5.27,8.77,8.77,0,0,1-2.94,3.81,8.12,8.12,0,0,1-4.92,1.42h-7.5a1.15,1.15,0,0,1-.86-.36,1.21,1.21,0,0,1-.34-.87V15.45a1.15,1.15,0,0,1,.34-.85,1.18,1.18,0,0,1,.86-.35Zm-.3,18.66a6,6,0,0,0,3.76-1.11,6.37,6.37,0,0,0,2.13-3,11.88,11.88,0,0,0,.68-4.08,12.6,12.6,0,0,0-.38-3.1A8,8,0,0,0,724.31,19a5.71,5.71,0,0,0-2-1.8,6.27,6.27,0,0,0-3-.66h-6.15l.24-.24V33.21l-.18-.3Z"/><path class="b6cc5b37-95a1-42b8-9377-bb3eebff554d" d="M799,0H959a0,0,0,0,1,0,0V51.33a0,0,0,0,1,0,0H805a6,6,0,0,1-6-6V0A0,0,0,0,1,799,0Z" transform="translate(1758.04 51.33) rotate(180)"/><path class="e9af1175-6617-4d54-8c19-770672096b10" d="M885.89,14.22a1.09,1.09,0,0,1,.84.36,1.24,1.24,0,0,1,.33.87V27.36A8.08,8.08,0,0,1,886,31.5a8,8,0,0,1-2.86,2.9,7.86,7.86,0,0,1-4.08,1.06,8,8,0,0,1-4.13-1.06,7.8,7.8,0,0,1-2.86-2.9,8.17,8.17,0,0,1-1-4.14V15.45a1.21,1.21,0,0,1,.34-.87,1.22,1.22,0,0,1,.92-.36,1.19,1.19,0,0,1,.85.36,1.17,1.17,0,0,1,.38.87V27.36a5.74,5.74,0,0,0,.75,2.94,5.47,5.47,0,0,0,4.8,2.76,5.59,5.59,0,0,0,2.82-.73,5.78,5.78,0,0,0,2.08-2,5.49,5.49,0,0,0,.8-2.94V15.45a1.31,1.31,0,0,1,.3-.87A1,1,0,0,1,885.89,14.22Z"/><rect class="e9e8f702-c551-47a2-8d44-855eb7b44744" x="477.52" y="0.01" width="3" height="359.25"/><rect class="e9e8f702-c551-47a2-8d44-855eb7b44744" x="637.52" y="0.01" width="3" height="359.25"/><rect class="e9e8f702-c551-47a2-8d44-855eb7b44744" x="797.52" y="0.01" width="3" height="359.25"/><polygon class="e9e8f702-c551-47a2-8d44-855eb7b44744" points="959.52 258.11 318.52 258.11 318.52 153.97 321.52 153.97 321.52 255.11 956.52 255.11 956.52 153.97 959.52 153.97 959.52 258.11"/><path class="e9e8f702-c551-47a2-8d44-855eb7b44744" d="M947.84,360.75H318.52V256.61h3V357.75H947.84a8.68,8.68,0,0,0,8.68-8.68V256.61h3v92.46A11.68,11.68,0,0,1,947.84,360.75Z"/><polygon class="e9e8f702-c551-47a2-8d44-855eb7b44744" points="320.03 155.47 159.99 155.47 159.99 7.9 162.99 7.9 162.99 152.47 320.03 152.47 320.03 155.47"/><rect class="b6cc5b37-95a1-42b8-9377-bb3eebff554d" x="160.03" width="161.6" height="51.32"/><polygon class="e9e8f702-c551-47a2-8d44-855eb7b44744" points="320.03 258.12 159.99 258.12 159.99 110.55 162.99 110.55 162.99 255.12 320.03 255.12 320.03 258.12"/><polygon class="e9e8f702-c551-47a2-8d44-855eb7b44744" points="320.03 360.75 159.99 360.75 159.99 213.18 162.99 213.18 162.99 357.75 320.03 357.75 320.03 360.75"/><polygon class="e9e8f702-c551-47a2-8d44-855eb7b44744" points="160.04 155.47 0 155.47 0 7.9 3 7.9 3 152.47 160.04 152.47 160.04 155.47"/><path class="b6cc5b37-95a1-42b8-9377-bb3eebff554d" d="M6,0h155.6a0,0,0,0,1,0,0V51.32a0,0,0,0,1,0,0H0a0,0,0,0,1,0,0V6A6,6,0,0,1,6,0Z"/><polygon class="e9e8f702-c551-47a2-8d44-855eb7b44744" points="160.04 258.12 0 258.12 0 110.55 3 110.55 3 255.12 160.04 255.12 160.04 258.12"/><path class="e9e8f702-c551-47a2-8d44-855eb7b44744" d="M160,360.75H10.18A10.19,10.19,0,0,1,0,350.57V213.18H3V350.57a7.19,7.19,0,0,0,7.18,7.18H160Z"/><rect class="e9e8f702-c551-47a2-8d44-855eb7b44744" x="318.53" width="3" height="256.6"/><rect class="e9e8f702-c551-47a2-8d44-855eb7b44744" x="159.99" width="3" height="57.54"/><path class="e9af1175-6617-4d54-8c19-770672096b10" d="M76.78,15.6a1,1,0,0,1,.59.81,1.25,1.25,0,0,1-.29,1,.89.89,0,0,1-.68.42,1.6,1.6,0,0,1-.84-.18,9.26,9.26,0,0,0-2.13-.94A8.22,8.22,0,0,0,71,16.35,8.31,8.31,0,0,0,67.8,17a7.47,7.47,0,0,0-2.54,1.72,7.84,7.84,0,0,0-1.68,2.64A9.12,9.12,0,0,0,63,24.7a9.3,9.3,0,0,0,.63,3.53,7.84,7.84,0,0,0,1.72,2.65,7.21,7.21,0,0,0,2.55,1.66,8.85,8.85,0,0,0,5.52.24,8.66,8.66,0,0,0,2.16-1,1.4,1.4,0,0,1,.84-.15,1.13,1.13,0,0,1,.71.42,1.26,1.26,0,0,1,.27,1,1,1,0,0,1-.57.76,10.77,10.77,0,0,1-1.7.83,12.28,12.28,0,0,1-2,.58,10.48,10.48,0,0,1-2.08.21A11.11,11.11,0,0,1,67,34.73a10.28,10.28,0,0,1-3.38-2.16,10.17,10.17,0,0,1-2.32-3.39,11.25,11.25,0,0,1-.85-4.48,11,11,0,0,1,.8-4.28A10.38,10.38,0,0,1,63.47,17,10.67,10.67,0,0,1,71,14a11,11,0,0,1,3,.42A10.07,10.07,0,0,1,76.78,15.6Z"/><path class="e9af1175-6617-4d54-8c19-770672096b10" d="M82.23,14.19a1.39,1.39,0,0,1,.59.15,1.29,1.29,0,0,1,.49.39l7.94,12-1,0,8-12a1.12,1.12,0,0,1,1-.54,1.33,1.33,0,0,1,.84.36,1.12,1.12,0,0,1,.36.87V34a1.19,1.19,0,0,1-.36.87,1.3,1.3,0,0,1-1.8,0,1.19,1.19,0,0,1-.36-.87V17.69l.75.15L91.61,28.59a1.73,1.73,0,0,1-.44.36,1,1,0,0,1-.52.15,1.1,1.1,0,0,1-.54-.15,1.62,1.62,0,0,1-.45-.36l-7-10.75.63-.78V34a1.24,1.24,0,0,1-.33.87,1.09,1.09,0,0,1-.84.36,1,1,0,0,1-.82-.36A1.27,1.27,0,0,1,81,34V15.42a1.23,1.23,0,0,1,.34-.86A1.15,1.15,0,0,1,82.23,14.19Z"/><path class="e9af1175-6617-4d54-8c19-770672096b10" d="M228.22,14.21a8.56,8.56,0,0,1,3.85.83,7.7,7.7,0,0,1,2.77,2.29,10.11,10.11,0,0,1,1.66,3.37,13.86,13.86,0,0,1,.56,4,13.53,13.53,0,0,1-1,5.25,8.75,8.75,0,0,1-2.93,3.81,8.12,8.12,0,0,1-4.92,1.42h-7.48a1.15,1.15,0,0,1-.86-.36,1.21,1.21,0,0,1-.34-.87V15.41a1.15,1.15,0,0,1,.34-.85,1.18,1.18,0,0,1,.86-.35Zm-.29,18.63a6.05,6.05,0,0,0,3.75-1.1,6.37,6.37,0,0,0,2.13-3,11.86,11.86,0,0,0,.67-4.07,12.59,12.59,0,0,0-.37-3.1A7.82,7.82,0,0,0,232.94,19a5.76,5.76,0,0,0-2-1.8,6.3,6.3,0,0,0-3-.66h-6.14l.23-.24V33.14l-.17-.3Z"/><path class="e9af1175-6617-4d54-8c19-770672096b10" d="M242.27,14.18a1.39,1.39,0,0,1,.59.15,1.29,1.29,0,0,1,.49.39l7.94,12-1,0,8-12a1.1,1.1,0,0,1,1-.54,1.33,1.33,0,0,1,.84.36,1.12,1.12,0,0,1,.36.87V34a1.19,1.19,0,0,1-.36.87,1.29,1.29,0,0,1-1.79,0A1.19,1.19,0,0,1,258,34V17.69l.74.15-7.06,10.75a1.73,1.73,0,0,1-.44.36,1,1,0,0,1-.52.15,1.1,1.1,0,0,1-.54-.15,1.62,1.62,0,0,1-.45-.36l-7-10.75.63-.78V34a1.24,1.24,0,0,1-.33.87,1.09,1.09,0,0,1-.84.36,1,1,0,0,1-.82-.36A1.28,1.28,0,0,1,241,34V15.41a1.22,1.22,0,0,1,.35-.85A1.14,1.14,0,0,1,242.27,14.18Z"/></g></g></svg>