<svg xmlns="http://www.w3.org/2000/svg" viewBox="0 0 799.53 360.75"><defs><style>.f3cc5e7f-0a8d-4826-b82c-77418efa3c5d{fill:#dfd9d0;}.bec8751f-362f-4619-98ba-4f08955c2a3d{fill:#1f8ebe;}.b34f55e6-f057-459c-beb5-d9c83416dad6{fill:#f9f3e9;}</style></defs><title>dmumcdu3</title><g id="a187db6a-9593-44ac-ba19-327ecd10a8b2" data-name="Capa 2"><g id="f2b5eb57-7ab0-40f7-a9ad-33e7793c79de" data-name="Capa 1"><polygon class="f3cc5e7f-0a8d-4826-b82c-77418efa3c5d" points="799.53 155.47 158.53 155.47 158.53 14.46 161.53 14.46 161.53 152.47 796.53 152.47 796.53 6.91 799.53 6.91 799.53 155.47"/><rect class="bec8751f-362f-4619-98ba-4f08955c2a3d" x="159.03" y="0.01" width="160" height="51.32"/><path class="b34f55e6-f057-459c-beb5-d9c83416dad6" d="M233.54,14.22a1.09,1.09,0,0,1,.84.36,1.24,1.24,0,0,1,.33.87V27.36a8.08,8.08,0,0,1-1.07,4.14,8,8,0,0,1-2.86,2.9,7.86,7.86,0,0,1-4.08,1.06,8,8,0,0,1-4.13-1.06,7.8,7.8,0,0,1-2.86-2.9,8.17,8.17,0,0,1-1.05-4.14V15.45a1.21,1.21,0,0,1,.34-.87,1.22,1.22,0,0,1,.92-.36,1.19,1.19,0,0,1,.85.36,1.17,1.17,0,0,1,.38.87V27.36a5.74,5.74,0,0,0,.75,2.94,5.47,5.47,0,0,0,4.8,2.76,5.59,5.59,0,0,0,2.82-.73,5.78,5.78,0,0,0,2.08-2,5.49,5.49,0,0,0,.8-2.94V15.45a1.31,1.31,0,0,1,.3-.87A1,1,0,0,1,233.54,14.22Z"/><path class="b34f55e6-f057-459c-beb5-d9c83416dad6" d="M241.19,14.22a1.35,1.35,0,0,1,.58.15,1.32,1.32,0,0,1,.5.39l7.95,12-1.05,0,8-12a1.12,1.12,0,0,1,1-.54,1.33,1.33,0,0,1,.84.36,1.12,1.12,0,0,1,.36.87V34a1.19,1.19,0,0,1-.36.87,1.31,1.31,0,0,1-1.8,0,1.19,1.19,0,0,1-.36-.87V17.73l.75.15-7.08,10.77a1.73,1.73,0,0,1-.44.36,1,1,0,0,1-.52.15,1.1,1.1,0,0,1-.54-.15,1.62,1.62,0,0,1-.45-.36l-7-10.77.63-.78V34a1.24,1.24,0,0,1-.33.87,1.09,1.09,0,0,1-.84.36,1.05,1.05,0,0,1-.83-.36A1.27,1.27,0,0,1,240,34V15.45a1.21,1.21,0,0,1,.34-.85A1.16,1.16,0,0,1,241.19,14.22Z"/><rect class="bec8751f-362f-4619-98ba-4f08955c2a3d" x="319.03" y="0.01" width="160" height="51.32"/><path class="b34f55e6-f057-459c-beb5-d9c83416dad6" d="M407.11,15.63a1,1,0,0,1,.59.81,1.26,1.26,0,0,1-.29,1,.89.89,0,0,1-.69.42,1.6,1.6,0,0,1-.84-.18,9.26,9.26,0,0,0-2.13-.94,8.61,8.61,0,0,0-5.64.27,7.61,7.61,0,0,0-2.55,1.72,7.84,7.84,0,0,0-1.68,2.64,9.21,9.21,0,0,0-.6,3.39,9.39,9.39,0,0,0,.63,3.54A7.9,7.9,0,0,0,395.64,31a7.35,7.35,0,0,0,2.55,1.66,8.58,8.58,0,0,0,3.16.57,8.48,8.48,0,0,0,2.37-.33,8.69,8.69,0,0,0,2.16-1,1.4,1.4,0,0,1,.84-.15,1.13,1.13,0,0,1,.72.42,1.28,1.28,0,0,1,.27,1,1,1,0,0,1-.57.76,11.35,11.35,0,0,1-1.71.83,12,12,0,0,1-2,.58,10.51,10.51,0,0,1-2.09.21,11.11,11.11,0,0,1-4.08-.75,10.12,10.12,0,0,1-5.71-5.56,11.3,11.3,0,0,1-.86-4.49,11.08,11.08,0,0,1,.81-4.29,10.25,10.25,0,0,1,2.27-3.39,10.57,10.57,0,0,1,3.39-2.25,10.7,10.7,0,0,1,4.18-.81,11.17,11.17,0,0,1,3,.42A10.21,10.21,0,0,1,407.11,15.63Z"/><rect class="bec8751f-362f-4619-98ba-4f08955c2a3d" x="479.03" y="0.01" width="160" height="51.32"/><path class="b34f55e6-f057-459c-beb5-d9c83416dad6" d="M559.6,14.25a8.56,8.56,0,0,1,3.85.83,7.73,7.73,0,0,1,2.78,2.29,10.36,10.36,0,0,1,1.66,3.38,14.21,14.21,0,0,1,.56,4,13.63,13.63,0,0,1-1,5.27,8.77,8.77,0,0,1-2.94,3.81,8.12,8.12,0,0,1-4.92,1.42h-7.5a1.15,1.15,0,0,1-.86-.36,1.21,1.21,0,0,1-.34-.87V15.45a1.15,1.15,0,0,1,.34-.85,1.18,1.18,0,0,1,.86-.35Zm-.3,18.66a6,6,0,0,0,3.76-1.11,6.37,6.37,0,0,0,2.13-3,11.88,11.88,0,0,0,.68-4.08,12.6,12.6,0,0,0-.38-3.1A8,8,0,0,0,564.32,19a5.71,5.71,0,0,0-2-1.8,6.27,6.27,0,0,0-3-.66h-6.15l.24-.24V33.21l-.18-.3Z"/><path class="bec8751f-362f-4619-98ba-4f08955c2a3d" d="M639,0H799a0,0,0,0,1,0,0V51.33a0,0,0,0,1,0,0H645a6,6,0,0,1-6-6V0A0,0,0,0,1,639,0Z" transform="translate(1438.06 51.33) rotate(180)"/><path class="b34f55e6-f057-459c-beb5-d9c83416dad6" d="M725.9,14.22a1.09,1.09,0,0,1,.84.36,1.24,1.24,0,0,1,.33.87V27.36A8.08,8.08,0,0,1,726,31.5a8,8,0,0,1-2.86,2.9,7.86,7.86,0,0,1-4.08,1.06,8,8,0,0,1-4.13-1.06,7.8,7.8,0,0,1-2.86-2.9A8.17,8.17,0,0,1,711,27.36V15.45a1.21,1.21,0,0,1,.34-.87,1.22,1.22,0,0,1,.92-.36,1.19,1.19,0,0,1,.85.36,1.17,1.17,0,0,1,.38.87V27.36a5.74,5.74,0,0,0,.75,2.94,5.47,5.47,0,0,0,4.8,2.76,5.59,5.59,0,0,0,2.82-.73,5.78,5.78,0,0,0,2.08-2,5.49,5.49,0,0,0,.8-2.94V15.45a1.31,1.31,0,0,1,.3-.87A1,1,0,0,1,725.9,14.22Z"/><rect class="f3cc5e7f-0a8d-4826-b82c-77418efa3c5d" x="317.53" y="0.01" width="3" height="359.25"/><rect class="f3cc5e7f-0a8d-4826-b82c-77418efa3c5d" x="477.53" y="0.01" width="3" height="359.25"/><rect class="f3cc5e7f-0a8d-4826-b82c-77418efa3c5d" x="637.53" y="0.01" width="3" height="359.25"/><polygon class="f3cc5e7f-0a8d-4826-b82c-77418efa3c5d" points="799.53 258.11 158.53 258.11 158.53 153.97 161.53 153.97 161.53 255.11 796.53 255.11 796.53 153.97 799.53 153.97 799.53 258.11"/><path class="f3cc5e7f-0a8d-4826-b82c-77418efa3c5d" d="M787.85,360.75H158.53V256.61h3V357.75H787.85a8.68,8.68,0,0,0,8.68-8.68V256.61h3v92.46A11.68,11.68,0,0,1,787.85,360.75Z"/><polygon class="f3cc5e7f-0a8d-4826-b82c-77418efa3c5d" points="160.04 155.47 0 155.47 0 7.9 3 7.9 3 152.47 160.04 152.47 160.04 155.47"/><path class="bec8751f-362f-4619-98ba-4f08955c2a3d" d="M6,0h155.6a0,0,0,0,1,0,0V51.32a0,0,0,0,1,0,0H0a0,0,0,0,1,0,0V6A6,6,0,0,1,6,0Z"/><polygon class="f3cc5e7f-0a8d-4826-b82c-77418efa3c5d" points="160.04 258.12 0 258.12 0 110.55 3 110.55 3 255.12 160.04 255.12 160.04 258.12"/><path class="f3cc5e7f-0a8d-4826-b82c-77418efa3c5d" d="M160,360.75H10.18A10.19,10.19,0,0,1,0,350.57V213.18H3V350.57a7.19,7.19,0,0,0,7.18,7.18H160Z"/><rect class="f3cc5e7f-0a8d-4826-b82c-77418efa3c5d" x="158.54" width="3" height="256.6"/><path class="b34f55e6-f057-459c-beb5-d9c83416dad6" d="M68.18,14.22A8.55,8.55,0,0,1,72,15a7.7,7.7,0,0,1,2.77,2.29,10.11,10.11,0,0,1,1.66,3.37,14.21,14.21,0,0,1,.56,4A13.58,13.58,0,0,1,76,30a8.79,8.79,0,0,1-2.94,3.8,8.07,8.07,0,0,1-4.91,1.42H60.7a1.13,1.13,0,0,1-.86-.36A1.21,1.21,0,0,1,59.5,34V15.42a1.17,1.17,0,0,1,.34-.86,1.15,1.15,0,0,1,.86-.34Zm-.3,18.63a6,6,0,0,0,3.76-1.11,6.37,6.37,0,0,0,2.13-3,11.78,11.78,0,0,0,.67-4.07,12.59,12.59,0,0,0-.37-3.1A7.91,7.91,0,0,0,72.9,19a5.71,5.71,0,0,0-2-1.8,6.25,6.25,0,0,0-3-.66H61.74l.24-.24V33.15l-.18-.3Z"/><path class="b34f55e6-f057-459c-beb5-d9c83416dad6" d="M82.23,14.19a1.39,1.39,0,0,1,.59.15,1.37,1.37,0,0,1,.49.39l7.94,12-1,0,8-12a1.12,1.12,0,0,1,1-.54,1.33,1.33,0,0,1,.84.36,1.12,1.12,0,0,1,.36.87V34a1.19,1.19,0,0,1-.36.87,1.22,1.22,0,0,1-.9.36,1.18,1.18,0,0,1-.89-.36,1.16,1.16,0,0,1-.37-.87V17.69l.75.15L91.6,28.59a1.68,1.68,0,0,1-.43.36,1,1,0,0,1-.52.15,1.1,1.1,0,0,1-.54-.15,1.62,1.62,0,0,1-.45-.36l-7-10.75.63-.78V34a1.24,1.24,0,0,1-.33.87,1.09,1.09,0,0,1-.84.36,1,1,0,0,1-.82-.36A1.28,1.28,0,0,1,81,34V15.42a1.24,1.24,0,0,1,.35-.86A1.13,1.13,0,0,1,82.23,14.19Z"/></g></g></svg>