<svg xmlns="http://www.w3.org/2000/svg" viewBox="0 0 321.07 463.39"><defs><style>.cls-1{fill:#dfd9d0;}.cls-2{fill:#1f8ebe;}.cls-3{fill:#f9f3e9;}</style></defs><title>UD4</title><g id="Capa_2" data-name="Capa 2"><g id="Capa_1-2" data-name="Capa 1"><polygon class="cls-1" points="320.85 155.46 0.83 155.46 0.83 14.46 3.82 14.46 3.82 152.47 317.86 152.47 317.86 6.9 320.85 6.9 320.85 155.46"/><path class="cls-2" d="M6.76,0h154a0,0,0,0,1,0,0V51.32a0,0,0,0,1,0,0H.76a0,0,0,0,1,0,0V6A6,6,0,0,1,6.76,0Z"/><path class="cls-3" d="M87.51,14.22a1.06,1.06,0,0,1,.84.36,1.24,1.24,0,0,1,.33.87V27.36a8.07,8.07,0,0,1-1.06,4.14,8,8,0,0,1-2.87,2.89,7.86,7.86,0,0,1-4.08,1.07,8,8,0,0,1-4.12-1.07,7.8,7.8,0,0,1-2.87-2.89,8.17,8.17,0,0,1-1.05-4.14V15.45a1.22,1.22,0,0,1,.35-.87,1.26,1.26,0,0,1,2.14.87V27.36a5.68,5.68,0,0,0,.75,2.93,5.53,5.53,0,0,0,4.8,2.77,5.6,5.6,0,0,0,2.82-.74,5.73,5.73,0,0,0,2.09-2,5.43,5.43,0,0,0,.79-2.93V15.45a1.31,1.31,0,0,1,.3-.87A1,1,0,0,1,87.51,14.22Z"/><path class="cls-2" d="M160.76,0h160a0,0,0,0,1,0,0V51.32a0,0,0,0,1,0,0h-154a6,6,0,0,1-6-6V0A0,0,0,0,1,160.76,0Z" transform="translate(481.53 51.32) rotate(180)"/><path class="cls-3" d="M245,13a1.15,1.15,0,0,1,.87.35,1.2,1.2,0,0,1,.33.86V34a1.21,1.21,0,0,1-.34.87,1.15,1.15,0,0,1-.86.36,1.13,1.13,0,0,1-.85-.36,1.22,1.22,0,0,1-.35-.87V31.17l.57-.21a3.14,3.14,0,0,1-.43,1.51A5.45,5.45,0,0,1,242.67,34a7.29,7.29,0,0,1-1.85,1.14,5.72,5.72,0,0,1-2.28.44,6.57,6.57,0,0,1-3.66-1,7.38,7.38,0,0,1-2.56-2.88,9,9,0,0,1-.95-4.17,9,9,0,0,1,.95-4.2,7.34,7.34,0,0,1,2.55-2.87,6.67,6.67,0,0,1,7.9.53,5.56,5.56,0,0,1,1.31,1.59,3.66,3.66,0,0,1,.46,1.74l-.78-.18V14.25a1.18,1.18,0,0,1,.35-.86A1.15,1.15,0,0,1,245,13Zm-6.18,20.29a4.68,4.68,0,0,0,2.67-.77,5.29,5.29,0,0,0,1.8-2.1,7.24,7.24,0,0,0,0-6,5.27,5.27,0,0,0-1.81-2.09,4.71,4.71,0,0,0-2.66-.76,4.63,4.63,0,0,0-2.62.76,5.3,5.3,0,0,0-1.82,2.09,7.17,7.17,0,0,0,0,6,5.29,5.29,0,0,0,1.82,2.11A4.5,4.5,0,0,0,238.78,33.33Z"/><polygon class="cls-1" points="321.07 258.1 0 258.1 0 153.96 3 153.96 3 255.1 318.07 255.1 318.07 153.96 321.07 153.96 321.07 258.1"/><polygon class="cls-1" points="321.07 360.75 0 360.75 0 256.6 3 256.6 3 357.75 318.07 357.75 318.07 256.6 321.07 256.6 321.07 360.75"/><path class="cls-1" d="M309.39,463.39H11.68A11.69,11.69,0,0,1,0,451.71V359.25H3v92.46a8.69,8.69,0,0,0,8.68,8.68H309.39a8.69,8.69,0,0,0,8.68-8.68V359.25h3v92.46A11.69,11.69,0,0,1,309.39,463.39Z"/><rect class="cls-1" x="160.12" width="3" height="129.96"/><path class="cls-2" d="M165.16,139.91a6.54,6.54,0,0,1-.46,2.31,9.54,9.54,0,0,1-1.28,2.31,7.72,7.72,0,0,1-1.8,1.77,3.42,3.42,0,0,1-2,.68,2.29,2.29,0,0,1-1.28-.35,1.33,1.33,0,0,1-.51-1.17c0-.69.22-1.09.68-1.2a6.1,6.1,0,0,0,1.33-.49,2.93,2.93,0,0,0,1.12-1.06,2.81,2.81,0,0,0,.41-1.44,1.38,1.38,0,0,0-.41-1,1.45,1.45,0,0,0-1.06-.41,3.13,3.13,0,0,0-.79.11,1.73,1.73,0,0,0-.68.33,3,3,0,0,1-.66-.66,1.65,1.65,0,0,1-.27-1,2.49,2.49,0,0,1,.63-1.47,4,4,0,0,1,1.47-1,4.46,4.46,0,0,1,1.71-.38,3.71,3.71,0,0,1,2.75,1.06A4.16,4.16,0,0,1,165.16,139.91Z"/><rect class="cls-1" x="160.12" y="149.77" width="3" height="4.19"/><rect class="cls-1" x="160.12" y="153.96" width="3" height="78.63"/><path class="cls-2" d="M165.16,242.55a6.54,6.54,0,0,1-.46,2.31,9.36,9.36,0,0,1-1.28,2.31,7.72,7.72,0,0,1-1.8,1.77,3.42,3.42,0,0,1-2,.68,2.29,2.29,0,0,1-1.28-.35,1.33,1.33,0,0,1-.51-1.17c0-.69.22-1.09.68-1.2a6.1,6.1,0,0,0,1.33-.49,2.86,2.86,0,0,0,1.12-1.06,2.81,2.81,0,0,0,.41-1.44,1.38,1.38,0,0,0-.41-1,1.45,1.45,0,0,0-1.06-.41,3.13,3.13,0,0,0-.79.11,1.73,1.73,0,0,0-.68.33,2.76,2.76,0,0,1-.66-.66,1.63,1.63,0,0,1-.27-1,2.44,2.44,0,0,1,.63-1.46,3.88,3.88,0,0,1,1.47-1,4.46,4.46,0,0,1,1.71-.38,3.71,3.71,0,0,1,2.75,1.06A4.16,4.16,0,0,1,165.16,242.55Z"/><rect class="cls-1" x="160.12" y="252.41" width="3" height="4.19"/><rect class="cls-1" x="160.12" y="256.6" width="3" height="78.63"/><path class="cls-2" d="M165.16,345.19a6.54,6.54,0,0,1-.46,2.31,9.36,9.36,0,0,1-1.28,2.31,7.72,7.72,0,0,1-1.8,1.77,3.35,3.35,0,0,1-2,.68,2.21,2.21,0,0,1-1.28-.35,1.33,1.33,0,0,1-.51-1.17c0-.69.22-1.09.68-1.2a6.1,6.1,0,0,0,1.33-.49A2.79,2.79,0,0,0,161,348a2.76,2.76,0,0,0,.41-1.44,1.38,1.38,0,0,0-.41-1,1.45,1.45,0,0,0-1.06-.41,3.13,3.13,0,0,0-.79.11,1.88,1.88,0,0,0-.68.33,2.91,2.91,0,0,1-.66-.65,1.67,1.67,0,0,1-.27-1,2.44,2.44,0,0,1,.63-1.47,4,4,0,0,1,1.47-1,4.46,4.46,0,0,1,1.71-.38,3.75,3.75,0,0,1,2.75,1.06A4.17,4.17,0,0,1,165.16,345.19Z"/><rect class="cls-1" x="160.12" y="355.05" width="3" height="4.19"/><rect class="cls-1" x="160.12" y="359.25" width="3" height="78.63"/><path class="cls-2" d="M165.16,447.83a6.5,6.5,0,0,1-.46,2.31,9.6,9.6,0,0,1-1.28,2.32,7.87,7.87,0,0,1-1.8,1.76,3.35,3.35,0,0,1-2,.68,2.21,2.21,0,0,1-1.28-.35,1.33,1.33,0,0,1-.51-1.17c0-.69.22-1.09.68-1.2a5.62,5.62,0,0,0,1.33-.49,2.79,2.79,0,0,0,1.12-1.06,2.76,2.76,0,0,0,.41-1.44,1.4,1.4,0,0,0-.41-1,1.44,1.44,0,0,0-1.06-.4,3.11,3.11,0,0,0-.79.1,2.05,2.05,0,0,0-.68.33,2.91,2.91,0,0,1-.66-.65,1.67,1.67,0,0,1-.27-1,2.44,2.44,0,0,1,.63-1.47,4,4,0,0,1,1.47-1,4.46,4.46,0,0,1,1.71-.38,3.75,3.75,0,0,1,2.75,1.06A4.17,4.17,0,0,1,165.16,447.83Z"/><rect class="cls-1" x="160.12" y="457.69" width="3" height="4.19"/></g></g></svg>