<svg xmlns="http://www.w3.org/2000/svg" viewBox="0 0 1121.06 258.12"><defs><style>.ec55ae86-f18a-40ee-9bf9-23d4fe355c07{fill:#dfd9d0;}.b4ce7cf5-758c-4a31-bab6-b407bee42d64{fill:#1f8ebe;}.af5689b6-c527-48c4-83e5-59545d7b10c3{fill:#f9f3e9;}</style></defs><title>umidmcmumcdu2</title><g id="ac6424d2-df6f-450f-bb9e-98bb4f76ce5b" data-name="Capa 2"><g id="e6493032-eb96-4e4f-b917-7c8061004fe6" data-name="Capa 1"><polygon class="ec55ae86-f18a-40ee-9bf9-23d4fe355c07" points="1121.06 155.47 480.06 155.47 480.06 51.33 483.06 51.33 483.06 152.47 1118.06 152.47 1118.06 6.91 1121.06 6.91 1121.06 155.47"/><rect class="b4ce7cf5-758c-4a31-bab6-b407bee42d64" x="480.56" y="0.01" width="160" height="51.32"/><path class="af5689b6-c527-48c4-83e5-59545d7b10c3" d="M555.07,14.22a1.09,1.09,0,0,1,.84.36,1.24,1.24,0,0,1,.33.87V27.36a8.08,8.08,0,0,1-1.07,4.14,8,8,0,0,1-2.86,2.9,7.86,7.86,0,0,1-4.08,1.06,8,8,0,0,1-4.13-1.06,7.8,7.8,0,0,1-2.86-2.9,8.17,8.17,0,0,1-1-4.14V15.45a1.21,1.21,0,0,1,.34-.87,1.22,1.22,0,0,1,.92-.36,1.19,1.19,0,0,1,.85.36,1.17,1.17,0,0,1,.38.87V27.36a5.74,5.74,0,0,0,.75,2.94,5.47,5.47,0,0,0,4.8,2.76,5.59,5.59,0,0,0,2.82-.73,5.78,5.78,0,0,0,2.08-2,5.49,5.49,0,0,0,.8-2.94V15.45a1.31,1.31,0,0,1,.3-.87A1,1,0,0,1,555.07,14.22Z"/><path class="af5689b6-c527-48c4-83e5-59545d7b10c3" d="M562.72,14.22a1.35,1.35,0,0,1,.58.15,1.32,1.32,0,0,1,.5.39l8,12-1,0,8-12a1.12,1.12,0,0,1,1-.54,1.33,1.33,0,0,1,.84.36,1.12,1.12,0,0,1,.36.87V34a1.19,1.19,0,0,1-.36.87,1.3,1.3,0,0,1-1.8,0,1.19,1.19,0,0,1-.36-.87V17.73l.75.15-7.08,10.77a1.73,1.73,0,0,1-.44.36,1,1,0,0,1-.52.15,1.1,1.1,0,0,1-.54-.15,1.62,1.62,0,0,1-.45-.36l-7-10.77.63-.78V34a1.24,1.24,0,0,1-.33.87,1.09,1.09,0,0,1-.84.36,1.05,1.05,0,0,1-.83-.36,1.27,1.27,0,0,1-.31-.87V15.45a1.21,1.21,0,0,1,.34-.85A1.16,1.16,0,0,1,562.72,14.22Z"/><rect class="b4ce7cf5-758c-4a31-bab6-b407bee42d64" x="640.56" y="0.01" width="160" height="51.32"/><path class="af5689b6-c527-48c4-83e5-59545d7b10c3" d="M728.64,15.63a1,1,0,0,1,.59.81,1.26,1.26,0,0,1-.29,1,.89.89,0,0,1-.69.42,1.6,1.6,0,0,1-.84-.18,9.26,9.26,0,0,0-2.13-.94,8.61,8.61,0,0,0-5.64.27,7.61,7.61,0,0,0-2.55,1.72,7.84,7.84,0,0,0-1.68,2.64,9.21,9.21,0,0,0-.6,3.39,9.39,9.39,0,0,0,.63,3.54A7.9,7.9,0,0,0,717.17,31a7.35,7.35,0,0,0,2.55,1.66,8.58,8.58,0,0,0,3.16.57,8.48,8.48,0,0,0,2.37-.33,8.69,8.69,0,0,0,2.16-1,1.4,1.4,0,0,1,.84-.15,1.13,1.13,0,0,1,.72.42,1.28,1.28,0,0,1,.27,1,1,1,0,0,1-.57.76,11.35,11.35,0,0,1-1.71.83,12,12,0,0,1-2,.58,10.51,10.51,0,0,1-2.09.21,11.11,11.11,0,0,1-4.08-.75,10.12,10.12,0,0,1-5.71-5.56,11.3,11.3,0,0,1-.86-4.49,11.08,11.08,0,0,1,.81-4.29,10.25,10.25,0,0,1,2.27-3.39,10.57,10.57,0,0,1,3.39-2.25,10.7,10.7,0,0,1,4.18-.81,11.17,11.17,0,0,1,3,.42A10.21,10.21,0,0,1,728.64,15.63Z"/><rect class="b4ce7cf5-758c-4a31-bab6-b407bee42d64" x="800.56" y="0.01" width="160" height="51.32"/><path class="af5689b6-c527-48c4-83e5-59545d7b10c3" d="M881.13,14.25a8.56,8.56,0,0,1,3.85.83,7.73,7.73,0,0,1,2.78,2.29,10.36,10.36,0,0,1,1.66,3.38,14.21,14.21,0,0,1,.56,4A13.63,13.63,0,0,1,889,30a8.77,8.77,0,0,1-2.94,3.81,8.12,8.12,0,0,1-4.92,1.42h-7.5a1.15,1.15,0,0,1-.86-.36,1.21,1.21,0,0,1-.34-.87V15.45a1.15,1.15,0,0,1,.34-.85,1.18,1.18,0,0,1,.86-.35Zm-.3,18.66a6,6,0,0,0,3.76-1.11,6.37,6.37,0,0,0,2.13-3,11.88,11.88,0,0,0,.68-4.08,12.6,12.6,0,0,0-.38-3.1A8,8,0,0,0,885.85,19a5.71,5.71,0,0,0-2-1.8,6.27,6.27,0,0,0-3-.66h-6.15l.24-.24V33.21l-.18-.3Z"/><path class="b4ce7cf5-758c-4a31-bab6-b407bee42d64" d="M960.56,0h160a0,0,0,0,1,0,0V51.33a0,0,0,0,1,0,0h-154a6,6,0,0,1-6-6V0A0,0,0,0,1,960.56,0Z" transform="translate(2081.11 51.33) rotate(180)"/><path class="af5689b6-c527-48c4-83e5-59545d7b10c3" d="M1047.43,14.22a1.09,1.09,0,0,1,.84.36,1.24,1.24,0,0,1,.33.87V27.36a8.08,8.08,0,0,1-1.07,4.14,8,8,0,0,1-2.86,2.9,7.86,7.86,0,0,1-4.08,1.06,8,8,0,0,1-4.13-1.06,7.8,7.8,0,0,1-2.86-2.9,8.17,8.17,0,0,1-1-4.14V15.45a1.21,1.21,0,0,1,.34-.87,1.22,1.22,0,0,1,.92-.36,1.19,1.19,0,0,1,.85.36,1.17,1.17,0,0,1,.38.87V27.36a5.74,5.74,0,0,0,.75,2.94,5.47,5.47,0,0,0,4.8,2.76,5.59,5.59,0,0,0,2.82-.73,5.78,5.78,0,0,0,2.08-2,5.49,5.49,0,0,0,.8-2.94V15.45a1.31,1.31,0,0,1,.3-.87A1,1,0,0,1,1047.43,14.22Z"/><rect class="ec55ae86-f18a-40ee-9bf9-23d4fe355c07" x="639.06" y="0.01" width="3" height="256.6"/><rect class="ec55ae86-f18a-40ee-9bf9-23d4fe355c07" x="799.06" y="0.01" width="3" height="256.6"/><rect class="ec55ae86-f18a-40ee-9bf9-23d4fe355c07" x="959.06" y="0.01" width="3" height="256.6"/><path class="ec55ae86-f18a-40ee-9bf9-23d4fe355c07" d="M1109.38,258.11H480.06V154h3V255.11h626.32a8.68,8.68,0,0,0,8.68-8.68V154h3v92.46A11.68,11.68,0,0,1,1109.38,258.11Z"/><polygon class="ec55ae86-f18a-40ee-9bf9-23d4fe355c07" points="480.07 155.47 320.02 155.47 320.02 7.9 323.02 7.9 323.02 152.47 480.07 152.47 480.07 155.47"/><rect class="b4ce7cf5-758c-4a31-bab6-b407bee42d64" x="320.07" width="161.6" height="51.32"/><polygon class="ec55ae86-f18a-40ee-9bf9-23d4fe355c07" points="480.07 258.12 320.02 258.12 320.02 110.55 323.02 110.55 323.02 255.12 480.07 255.12 480.07 258.12"/><polygon class="ec55ae86-f18a-40ee-9bf9-23d4fe355c07" points="320.08 155.47 160.03 155.47 160.03 7.9 163.03 7.9 163.03 152.47 320.08 152.47 320.08 155.47"/><rect class="b4ce7cf5-758c-4a31-bab6-b407bee42d64" x="160.08" width="161.6" height="51.32"/><polygon class="ec55ae86-f18a-40ee-9bf9-23d4fe355c07" points="320.08 258.12 160.03 258.12 160.03 110.55 163.03 110.55 163.03 255.12 320.08 255.12 320.08 258.12"/><rect class="ec55ae86-f18a-40ee-9bf9-23d4fe355c07" x="480.06" y="0.01" width="3" height="256.6"/><rect class="ec55ae86-f18a-40ee-9bf9-23d4fe355c07" x="320.02" width="3" height="57.54"/><polygon class="ec55ae86-f18a-40ee-9bf9-23d4fe355c07" points="160.04 155.47 0 155.47 0 7.9 3 7.9 3 152.47 160.04 152.47 160.04 155.47"/><path class="b4ce7cf5-758c-4a31-bab6-b407bee42d64" d="M6,0h155.6a0,0,0,0,1,0,0V51.32a0,0,0,0,1,0,0H0a0,0,0,0,1,0,0V6A6,6,0,0,1,6,0Z"/><path class="ec55ae86-f18a-40ee-9bf9-23d4fe355c07" d="M160,258.12H10.18A10.2,10.2,0,0,1,0,247.94V110.55H3V247.94a7.19,7.19,0,0,0,7.18,7.18H160Z"/><rect class="ec55ae86-f18a-40ee-9bf9-23d4fe355c07" x="160.03" width="3" height="57.54"/><path class="af5689b6-c527-48c4-83e5-59545d7b10c3" d="M71.19,13.83a1.13,1.13,0,0,1,.85.36,1.29,1.29,0,0,1,.33.89V27.15a8.24,8.24,0,0,1-12.3,7.13,7.94,7.94,0,0,1-2.9-2.94,8.23,8.23,0,0,1-1.06-4.19V15.08a1.2,1.2,0,0,1,1.27-1.25,1.26,1.26,0,0,1,1.25,1.25V27.15a5.82,5.82,0,0,0,.76,3,5.56,5.56,0,0,0,4.86,2.79,5.72,5.72,0,0,0,2.86-.74,5.84,5.84,0,0,0,2.11-2.05,5.57,5.57,0,0,0,.81-3V15.08a1.37,1.37,0,0,1,.3-.89A1.07,1.07,0,0,1,71.19,13.83Z"/><path class="af5689b6-c527-48c4-83e5-59545d7b10c3" d="M78.94,13.83a1.39,1.39,0,0,1,.59.15,1.25,1.25,0,0,1,.5.4l8.06,12.19-1.07,0,8.15-12.16a1.14,1.14,0,0,1,1-.55,1.38,1.38,0,0,1,.85.36,1.17,1.17,0,0,1,.36.89V33.9a1.22,1.22,0,0,1-.36.88,1.34,1.34,0,0,1-1.83,0,1.22,1.22,0,0,1-.36-.88V17.39l.76.15L88.45,28.45a1.45,1.45,0,0,1-.44.37,1,1,0,0,1-.53.15,1.17,1.17,0,0,1-.55-.15,1.49,1.49,0,0,1-.45-.37L79.39,17.54l.64-.79V33.9a1.28,1.28,0,0,1-.33.88,1.13,1.13,0,0,1-.85.36,1.06,1.06,0,0,1-.84-.36,1.32,1.32,0,0,1-.32-.88V15.08a1.25,1.25,0,0,1,.35-.87A1.17,1.17,0,0,1,78.94,13.83Z"/><path class="af5689b6-c527-48c4-83e5-59545d7b10c3" d="M103.44,17.14a1.74,1.74,0,0,1-1.12-.3,1.17,1.17,0,0,1-.37-.94v-.43a1.1,1.1,0,0,1,.4-.94,1.82,1.82,0,0,1,1.12-.31,1.7,1.7,0,0,1,1.1.31,1.16,1.16,0,0,1,.36.94v.43a1.11,1.11,0,0,1-.38.94A1.75,1.75,0,0,1,103.44,17.14Zm1.22,16.76a1.26,1.26,0,0,1-.35.88,1.24,1.24,0,0,1-1.75,0,1.28,1.28,0,0,1-.33-.88V20.4a1.15,1.15,0,0,1,.35-.87,1.22,1.22,0,0,1,2.08.87Z"/><path class="af5689b6-c527-48c4-83e5-59545d7b10c3" d="M236.77,15.6a1,1,0,0,1,.58.81,1.24,1.24,0,0,1-.28,1,.89.89,0,0,1-.69.42,1.6,1.6,0,0,1-.84-.18,9.26,9.26,0,0,0-2.13-.94,8.12,8.12,0,0,0-2.39-.34,8.31,8.31,0,0,0-3.24.61,7.66,7.66,0,0,0-2.54,1.72,7.84,7.84,0,0,0-1.68,2.64,9.12,9.12,0,0,0-.6,3.38,9.3,9.3,0,0,0,.63,3.53,8,8,0,0,0,1.72,2.65,7.21,7.21,0,0,0,2.55,1.66,8.58,8.58,0,0,0,3.16.57,8.36,8.36,0,0,0,2.36-.33,8.66,8.66,0,0,0,2.16-1,1.4,1.4,0,0,1,.84-.15,1.13,1.13,0,0,1,.72.42,1.26,1.26,0,0,1,.27,1,1,1,0,0,1-.57.76,11.35,11.35,0,0,1-1.71.83,12,12,0,0,1-2,.58,10.41,10.41,0,0,1-2.08.21,11,11,0,0,1-4.07-.75,10.14,10.14,0,0,1-5.71-5.55,11.25,11.25,0,0,1-.85-4.48,11,11,0,0,1,.81-4.28A10.23,10.23,0,0,1,223.46,17,10.62,10.62,0,0,1,231,14a11.1,11.1,0,0,1,3,.42A10.21,10.21,0,0,1,236.77,15.6Z"/><path class="af5689b6-c527-48c4-83e5-59545d7b10c3" d="M242.22,14.19a1.35,1.35,0,0,1,.58.15,1.32,1.32,0,0,1,.5.39l7.93,12-1,0,8-12a1.12,1.12,0,0,1,1-.54,1.29,1.29,0,0,1,.83.36,1.12,1.12,0,0,1,.36.87V34a1.23,1.23,0,0,1-1.25,1.23,1.22,1.22,0,0,1-.9-.36,1.19,1.19,0,0,1-.36-.87V17.69l.75.15-7.07,10.75a1.68,1.68,0,0,1-.43.36,1,1,0,0,1-.53.15,1.1,1.1,0,0,1-.54-.15,1.62,1.62,0,0,1-.45-.36l-7-10.75.63-.78V34a1.24,1.24,0,0,1-.33.87,1.09,1.09,0,0,1-.84.36,1,1,0,0,1-.82-.36A1.23,1.23,0,0,1,241,34V15.42a1.24,1.24,0,0,1,.35-.86A1.12,1.12,0,0,1,242.22,14.19Z"/><path class="af5689b6-c527-48c4-83e5-59545d7b10c3" d="M388.21,14.21a8.56,8.56,0,0,1,3.85.83,7.7,7.7,0,0,1,2.77,2.29,10.51,10.51,0,0,1,1.66,3.37,14.21,14.21,0,0,1,.55,4,13.35,13.35,0,0,1-1,5.25,8.67,8.67,0,0,1-2.93,3.81,8.09,8.09,0,0,1-4.91,1.42h-7.49a1.13,1.13,0,0,1-.85-.36,1.22,1.22,0,0,1-.35-.87V15.41a1.2,1.2,0,0,1,1.2-1.2Zm-.3,18.63a6.08,6.08,0,0,0,3.76-1.1,6.44,6.44,0,0,0,2.13-3,12.11,12.11,0,0,0,.67-4.07,12.6,12.6,0,0,0-.38-3.1A8,8,0,0,0,392.93,19a5.71,5.71,0,0,0-2-1.8,6.27,6.27,0,0,0-3-.66h-6.14l.24-.24V33.14l-.18-.3Z"/><path class="af5689b6-c527-48c4-83e5-59545d7b10c3" d="M402.26,14.18a1.35,1.35,0,0,1,.58.15,1.41,1.41,0,0,1,.5.39l7.93,12-1,0,8-12a1.12,1.12,0,0,1,1-.54,1.33,1.33,0,0,1,.84.36,1.12,1.12,0,0,1,.36.87V34a1.19,1.19,0,0,1-.36.87,1.31,1.31,0,0,1-1.8,0A1.19,1.19,0,0,1,418,34V17.69l.75.15-7.07,10.75a1.68,1.68,0,0,1-.43.36,1,1,0,0,1-.53.15,1.1,1.1,0,0,1-.54-.15,1.62,1.62,0,0,1-.45-.36l-7-10.75.64-.78V34a1.25,1.25,0,0,1-.34.87,1.08,1.08,0,0,1-.83.36,1.05,1.05,0,0,1-.83-.36A1.27,1.27,0,0,1,401,34V15.41a1.21,1.21,0,0,1,.34-.85A1.16,1.16,0,0,1,402.26,14.18Z"/></g></g></svg>