<svg xmlns="http://www.w3.org/2000/svg" xmlns:xlink="http://www.w3.org/1999/xlink" viewBox="0 0 329 372.35"><defs><style>.cls-1{fill:none;}.cls-2{fill:#e89f51;}.cls-3{fill:#ce7f38;}.cls-4{fill:#e0bfa6;}.cls-5{fill:#cc7735;}.cls-6{fill:#b55f24;}.cls-7{fill:#ffd3a4;}.cls-8{fill:#efba89;}.cls-9{fill:#e09e6b;}.cls-10{clip-path:url(#clip-path);}.cls-11{fill:#f0efef;}.cls-12{fill:#1f70c9;}.cls-13{fill:#c0cbdd;}.cls-14{fill:#195fba;}.cls-15{fill:#fff;}.cls-16{fill:#212120;}.cls-17{clip-path:url(#clip-path-2);}.cls-18{fill:#1c1916;}.cls-19{fill:#212121;}</style><clipPath id="clip-path"><path class="cls-1" d="M144.57,205.92s3.66,6.56,39.54,4.57c32.25-1.78,35.41-18.09,33.16-22.45-6.67-12.93-18.76-12.38-37.46-11.34s-23.83,1-28.82,6.89c-5.87,7-6.42,22.33-6.42,22.33"/></clipPath><clipPath id="clip-path-2"><path class="cls-1" d="M307.08,196.64s-2.15,17.3-30.43,18.87c-25.43,1.4-29.57-24.92-28.24-29.47,4-13.51,12-26.29,26.78-27.11s20.18,10.73,24.67,16.15c5.28,6.37,7.22,21.56,7.22,21.56"/></clipPath></defs><title>Mistake feedback</title><g id="Layer_2" data-name="Layer 2"><g id="Layer_4" data-name="Layer 4"><path class="cls-2" d="M234.84,121.14s10-40.07,37.34-48.79S319,79.82,326.44,99.73s-7.72,46.55-35.6,49.78l-56-28.37"/><path class="cls-3" d="M235.49,121.3l.12-.44A103.88,103.88,0,0,1,245,98.25C250.88,87.81,259.8,77,272.38,73a47.85,47.85,0,0,1,14.54-2.38,38,38,0,0,1,24.42,8.7A48.79,48.79,0,0,1,325.81,100a29.63,29.63,0,0,1,1.85,10.43c0,17.33-14.13,35.81-36.89,38.45a.67.67,0,1,0,.15,1.33C314.36,147.45,329,128.44,329,110.4a30.93,30.93,0,0,0-1.94-10.9,50,50,0,0,0-14.88-21.23,39.38,39.38,0,0,0-25.26-9A49.5,49.5,0,0,0,272,71.71c-14,4.46-23.37,16.81-29.32,28A103.83,103.83,0,0,0,234.19,121a.67.67,0,0,0,1.3.32"/><path class="cls-2" d="M288.85,109.69s-24.26,6.91-28.56,31l28.56-31"/><path class="cls-3" d="M288.67,109a46.42,46.42,0,0,0-12.88,6.57c-6.69,4.8-14,12.69-16.16,25a.68.68,0,0,0,.54.78.67.67,0,0,0,.78-.55c2.11-11.82,9.11-19.42,15.62-24.09a48,48,0,0,1,8.69-4.94c1.16-.51,2.11-.86,2.76-1.1l.76-.25.26-.08a.67.67,0,0,0-.37-1.29"/><path class="cls-4" d="M310.55,143.1a42.91,42.91,0,0,1-5.36,3l0,.16a39.48,39.48,0,0,0,5.33-3.19m16.51-21.19a40.05,40.05,0,0,1-3.8,8.07,29.81,29.81,0,0,0,3.8-8.07"/><path class="cls-5" d="M296.9,100.4a74.5,74.5,0,0,0-7.8.4c5.68,7.82,9.75,17.51,12.59,28.06a149.3,149.3,0,0,1,3.3,15.88c12.34-6,20.28-17.3,22.21-28.88a31.83,31.83,0,0,0-25.47-15.32c-1.65-.1-3.27-.14-4.83-.14"/><path class="cls-6" d="M327.2,115.86c-1.93,11.58-9.87,22.88-22.21,28.88.07.46.14.93.2,1.39a42.91,42.91,0,0,0,5.36-3,52,52,0,0,0,11.1-10.87c.59-.76,1.13-1.52,1.61-2.25a40.05,40.05,0,0,0,3.8-8.07,17.63,17.63,0,0,0,.81-4.85s-.22-.45-.67-1.2"/><path class="cls-2" d="M215.18,276.68c3.13-5.93,12.12-7.72,23,2.28s34.76,31.25,34.23,37.57-3.16,13-9.83,13.7-37-31.6-42.48-37.57S211.85,283,215.18,276.68Z"/><path class="cls-3" d="M215.18,276.68l.59.31a8.47,8.47,0,0,1,7.82-4.48c3.8,0,8.69,1.94,14.14,6.95s13.94,12.64,21.13,19.9a122,122,0,0,1,9.2,10.16,30.17,30.17,0,0,1,2.74,4,6.34,6.34,0,0,1,.95,2.76v.16a20.2,20.2,0,0,1-2.52,8.66,8.7,8.7,0,0,1-6.72,4.42h-.15a7.89,7.89,0,0,1-3.3-1.28,72,72,0,0,1-9.71-7.45c-11.2-9.8-25.24-24.77-28.76-28.64a43.63,43.63,0,0,1-4.54-5.57,9,9,0,0,1-1.64-4.89,10.19,10.19,0,0,1,1.36-4.75l-.59-.31-.59-.31a11.4,11.4,0,0,0-1.52,5.37,10.36,10.36,0,0,0,1.85,5.61,44.12,44.12,0,0,0,4.68,5.76c2.7,3,11.5,12.36,20.52,21,4.51,4.34,9.08,8.5,13,11.58a46.86,46.86,0,0,0,5.29,3.72,8.67,8.67,0,0,0,4,1.47l.29,0a10,10,0,0,0,7.72-5.05,21.35,21.35,0,0,0,2.71-9.25v-.27a7.42,7.42,0,0,0-1.11-3.4c-2.41-4.42-8.37-10.81-14.93-17.25s-13.71-12.87-18.42-17.2c-5.6-5.15-10.78-7.29-15-7.3a9.81,9.81,0,0,0-9,5.2Z"/><path class="cls-2" d="M240.26,372.35c-.49-13-2.46-20.75-6.54-36.29-5.18-19.74-3.51-21.45-7.15-36-3.51-14-5.14-35-23.46-45.59s-31.21-1-39.45,7.75c-4.29,4.56-9.31,17-13.59,39.81-1.9,10.14-4.42,28.92-6.28,36.63-1.32,11.63-2.51,23.09-2.56,33.66Z"/><path class="cls-3" d="M141.9,372.35c0-10.51,1.23-21.93,2.55-33.54.94-3.91,2-10.51,3.13-17.42s2.2-14.15,3.15-19.2a180,180,0,0,1,6.76-26.65c2.31-6.49,4.63-10.68,6.66-12.83a47.16,47.16,0,0,1,10-8.35,25.62,25.62,0,0,1,13.28-3.86c4.58,0,9.67,1.3,15.34,4.58,9,5.22,13.88,12.94,17,21.17s4.39,16.93,6.15,24a135.37,135.37,0,0,1,3,16,162.24,162.24,0,0,0,4.17,20h0c4.07,15.55,6,23.22,6.51,36.12h1.34c-.49-13.05-2.48-20.92-6.56-36.46A165,165,0,0,1,230.23,316a134.49,134.49,0,0,0-3-16.09c-1.74-7-3-15.75-6.2-24.15s-8.25-16.45-17.57-21.86c-5.83-3.38-11.18-4.76-16-4.76a27.06,27.06,0,0,0-14,4.05,48.53,48.53,0,0,0-10.3,8.58c-2.25,2.41-4.59,6.72-6.94,13.3a182.94,182.94,0,0,0-6.82,26.85c-.95,5.09-2.06,12.32-3.15,19.24s-2.2,13.55-3.12,17.35v.08c-1.32,11.64-2.51,23.12-2.56,33.74Z"/><path class="cls-7" d="M172.42,357.36c-1.22,3.73-3.44,9.1-5.11,15h73c-1.41-12.63-5.88-27.21-9.19-37.15-4.36-13.06-8.55-56.08-18.16-63.14-10.31-7.58-33.16-3.59-35.87-.87C158.69,289.65,178.15,339.86,172.42,357.36Z"/><path class="cls-8" d="M171.79,357.15c-1.22,3.74-3.49,9.19-5.18,15.2H168c1.66-5.77,3.83-11.06,5.06-14.78a30,30,0,0,0,1.13-9.11c0-13.38-4.55-33.17-4.55-50.14,0-10.95,1.9-20.64,7.92-26.66a6,6,0,0,1,2-1,51,51,0,0,1,15.68-2.27c6.4,0,13.05,1.13,17.28,4.25a12.44,12.44,0,0,1,3.17,4c3.56,6.41,6.33,18.27,8.63,29.92s4.18,23.08,6.11,28.9c3.31,9.9,7.75,24.43,9.16,36.94H241c-1.41-12.75-5.91-27.38-9.24-37.36a134.1,134.1,0,0,1-3.3-14.3c-1.73-9-3.64-19.84-6-29.16a88.16,88.16,0,0,0-4-12.4c-1.49-3.47-3.11-6.14-5.09-7.61-4.65-3.4-11.52-4.5-18.07-4.51a59.63,59.63,0,0,0-11.88,1.19,30.61,30.61,0,0,0-4.26,1.16,7.25,7.25,0,0,0-2.53,1.35c-6.43,6.47-8.3,16.53-8.31,27.61,0,17.18,4.56,37,4.55,50.14A28.93,28.93,0,0,1,171.79,357.15Z"/><path class="cls-2" d="M152.17,370.47s.44.74,1.23,1.88h28.19c2.72-17.51-23.84-17.52-23.84-17.52s-10.58-9.23-24.93-23a2,2,0,0,1-.18-2.7c15.85-19.88,27.49-28.54,27.49-28.54l-5.88-22.86-43.92,49.88a5.88,5.88,0,0,0,.32,8.11Z"/><path class="cls-3" d="M110.2,336.19l41.45,34.73c.13.19.45.7.94,1.43h1.63l-.55-.79c-.3-.45-.53-.81-.69-1.06l-.24-.38-.06-.09L111.11,335.2a5.21,5.21,0,0,1-.28-7.18l43.09-48.92,5.45,21.2c-2.07,1.61-13,10.45-27.25,28.38a2.71,2.71,0,0,0-.59,1.68,2.67,2.67,0,0,0,.82,1.92c14.37,13.81,25,23.05,25,23.06l.19.16H158a43.59,43.59,0,0,1,12.66,2.22,18.92,18.92,0,0,1,7.29,4.34,10.8,10.8,0,0,1,3.16,7.84,15.18,15.18,0,0,1-.21,2.44h1.35a16,16,0,0,0,.2-2.44,12.19,12.19,0,0,0-4-9.2c-3.55-3.33-8.72-4.93-13-5.74a46.62,46.62,0,0,0-7.47-.8l-1.69-1.5c-3.64-3.24-12.28-11-23-21.35a1.32,1.32,0,0,1-.4-1,1.35,1.35,0,0,1,.29-.85,214,214,0,0,1,19.62-21.65c2.43-2.31,4.37-4,5.7-5.12.67-.56,1.18-1,1.52-1.24l.39-.3.13-.1.36-.27-6.31-24.52-44.76,50.83a6.54,6.54,0,0,0,.37,9Z"/><path class="cls-9" d="M210.3,336.54c-6.64,0-14.86,2.54-24.27,10.57a82.13,82.13,0,0,1,27.39-4.61,74.79,74.79,0,0,1,15,1.49,25.85,25.85,0,0,0-18.12-7.45"/><path class="cls-2" d="M156.78,272c-4.4.1-5.86,10.44-5.86,10.44s-1.12,26.12-1.43,34c-.14,3.54,6.08-12.17,11.72-15.63,4.51-2.76-.61-28.94-4.43-28.85"/><path class="cls-2" d="M179.58,283.09c71.59-7.47,117.31-31.58,124-69.08,5.7-32.1,6.1-97-23.12-121.64S209.74,50.38,168,54.94c-27.64,3-76.7,5.31-112.4,51-21.56,27.58-20.56,82.54-14.7,109.53,5.93,27.31,71.85,74.63,138.64,67.65"/><path class="cls-3" d="M179.58,283.09l.07.67c35.85-3.74,65.26-11.65,86.58-23.36s34.61-27.27,38-46.28a223.07,223.07,0,0,0,3.06-37.66c0-15.67-1.53-32.51-5.58-47.6s-10.64-28.42-20.83-37c-26.17-22-62.13-38.32-99.37-38.32a125.4,125.4,0,0,0-13.52.73c-13.8,1.51-33,2.84-53.32,9.53a122.15,122.15,0,0,0-59.54,41.7c-13.89,17.8-18.45,46.58-18.46,72.14a186.86,186.86,0,0,0,3.63,37.94c1.44,6.56,6.15,14.08,13.36,21.74,21.62,22.95,65.79,47.12,112.48,47.14a130.87,130.87,0,0,0,13.53-.7l-.07-.67-.07-.66a130.82,130.82,0,0,1-13.39.69c-30.81,0-60.62-10.68-83.39-24.53A136,136,0,0,1,54.61,236.4c-7.11-7.54-11.68-14.93-13-21.11A185.86,185.86,0,0,1,38,177.64c0-25.4,4.6-54,18.18-71.31a120.82,120.82,0,0,1,58.9-41.26c20.09-6.63,39.2-7.95,53.05-9.47a125,125,0,0,1,13.37-.72c36.84,0,72.55,16.14,98.51,38,9.88,8.31,16.39,21.39,20.39,36.32s5.54,31.67,5.54,47.25a221.3,221.3,0,0,1-3,37.43c-3.29,18.5-16.2,33.74-37.3,45.33s-50.35,19.48-86.08,23.21l.07.66"/><g class="cls-10"><path class="cls-11" d="M144.57,205.92s4.88,16.9,40.76,14.92c32.25-1.79,34.19-28.44,31.94-32.8-6.67-12.93-18.47-24.6-37.18-23.57S156,177.66,151,183.59c-5.87,7-6.42,22.33-6.42,22.33"/><path class="cls-12" d="M182.12,198.55a19,19,0,1,1-20-17.88,19,19,0,0,1,20,17.88"/><path class="cls-13" d="M144.71,203.88c-.07.77-.1,1.35-.12,1.69a1.94,1.94,0,0,0,.07.46,2.5,2.5,0,0,0,.41.42.92.92,0,0,0,.34-.22,18.22,18.22,0,0,1-.7-2.35m47.78-27.67c-3.84,0-8.06.23-12.68.49-18.71,1-23.83,1-28.82,6.89a18.31,18.31,0,0,0-2.46,4,18.89,18.89,0,0,1,13.61-6.9c.35,0,.71,0,1.06,0a18.94,18.94,0,0,1,15,7.34c1.3-.16,2.64-.27,4-.35,1-.06,2-.09,3-.09,16.33,0,26,7.49,29.72,11.1a13,13,0,0,0,2.86-8.35,5.27,5.27,0,0,0-.27-.95s-.62-1.59-1.82-3.9c-5.07-7.51-12.7-9.23-23.24-9.23"/><path class="cls-14" d="M163.2,180.64c-.35,0-.71,0-1.06,0a18.89,18.89,0,0,0-13.61,6.9,38.74,38.74,0,0,0-2.68,8.44c-.17,2.16-.77,5-1.08,7.18q0,.38-.06.69a18.22,18.22,0,0,0,.7,2.35c2.19-1.95,10.32-15.58,32.76-18.25a18.94,18.94,0,0,0-15-7.34"/><path class="cls-15" d="M172.87,189.82a3.47,3.47,0,1,1-3.66-3.27A3.48,3.48,0,0,1,172.87,189.82Z"/></g><path class="cls-16" d="M217.82,190.26c-10.43-13.74-30.34-13-40.08-12.42-31.93,1.14-32,29.28-32,29.28-1.54-.49-5.78-5.47-4.52-11.55,2.21-10.65,8.76-19.28,27.74-22.35,2.92-.47,20,2.1,23.44,2.69,13.51,2.28,12.56,1.4,14.66,1.67,4.7.6,7.85,4.79,9.2,7.41a10.68,10.68,0,0,1,1.38,4.08Z"/><g class="cls-17"><path class="cls-11" d="M307.08,196.64s-2.15,17.3-30.43,18.87c-25.43,1.4-29.57-24.92-28.24-29.47,4-13.51,12-26.29,26.78-27.11s20.18,10.73,24.67,16.15c5.28,6.37,7.22,21.56,7.22,21.56"/><path class="cls-12" d="M248.06,193.37c.58,10.46,7.73,18.57,16,18.11s14.45-9.3,13.87-19.76-7.73-18.56-16-18.11-14.46,9.3-13.88,19.76"/><path class="cls-13" d="M279.37,160.67c-7.62.42-15.75,2.62-19.58,4.93-4.41,4.15-7.63,9.84-9.9,16a59.93,59.93,0,0,0-1.57,5.8,6.94,6.94,0,0,0-.13,1.09c0,.19,0,.39,0,.59,1.08-8.46,6.66-15,13.73-15.43l.66,0c5.21,0,9.92,3.41,12.71,8.61l.51,0q1.14-.06,2.22-.06a32.54,32.54,0,0,1,21.37,7.56c4.55,3.78,6.78,7.56,7.37,7.56l.06,0c.17-.1.22-.42.2-.9s-.19-1.26-.38-2.36c-.46-2.14-1.21-4.9-1.56-7-1.15-4.27-2.85-9-5.24-11.84-2.2-2.65-4.62-6.77-8.25-10.19a22,22,0,0,0-12.24-4.22"/><path class="cls-14" d="M262.6,173.59l-.66,0c-7.07.39-12.65,7-13.73,15.43h0a31.58,31.58,0,0,0,2,9.11,30.94,30.94,0,0,1,25.1-16c-2.79-5.2-7.5-8.61-12.71-8.61"/><path class="cls-15" d="M253.8,184.34c.11,1.91,1.42,3.4,2.92,3.32s2.65-1.7,2.54-3.62-1.41-3.39-2.92-3.31S253.7,182.43,253.8,184.34Z"/></g><path class="cls-16" d="M248.32,187.36c5.21-21.27,19.71-25.61,27.38-26,25.11-2,31.14,35.88,31.14,35.88,3.76-.21,2.64-10.12,2.64-10.12-2.39-13.47-13.07-33.35-34-32.19-17.29,1-24.63,21.09-26.65,28A14.34,14.34,0,0,0,248.32,187.36Z"/><path class="cls-18" d="M289.65,124.61a26.69,26.69,0,0,0-3.25-3,22,22,0,0,0-3.65-2.46,14.47,14.47,0,0,0-8.26-1.86,16,16,0,0,0-7.9,3.2c-.62.4-1.16.9-1.75,1.34l-1.63,1.5-1.58,1.58c-.49.56-1,1.12-1.51,1.66a26.93,26.93,0,0,1,5.84-6.9,18.32,18.32,0,0,1,3.89-2.5,14.65,14.65,0,0,1,4.51-1.22,14.11,14.11,0,0,1,8.9,2.32A20.51,20.51,0,0,1,289.65,124.61Z"/><path class="cls-18" d="M147.59,165.2A76,76,0,0,0,155.9,168c2.81.8,5.64,1.56,8.49,2.2,5.7,1.32,11.43,2.51,17.21,3.41,2.88.55,5.78.95,8.67,1.41s5.8.76,8.7,1.21l17.46,2.15c-2.93-.09-5.86-.27-8.8-.4l-8.78-.72c-5.84-.61-11.67-1.37-17.47-2.33s-11.56-2.19-17.24-3.73A83.63,83.63,0,0,1,147.59,165.2Z"/><path class="cls-2" d="M231.65,304.48l-5.23-27.8s20.84,29.58,27.83,42.37c6.74,12.33,12.2,11,8.33,11.18S243.21,316.29,231.65,304.48Z"/><path class="cls-3" d="M231.65,304.48l.66-.13-5.23-27.79-.66.12-.55.39.91,1.29c4.08,5.83,20.81,29.89,26.89,41a33.61,33.61,0,0,0,6.89,9.21,15.63,15.63,0,0,0,2.18,1.65c.26.17.46.28.58.35l.1.06.25-.34-.31.29.06.05.25-.34-.31.29.47-.43h-.63a.6.6,0,0,0,.16.43l.47-.43h0l-.48-.45a.65.65,0,0,0-.17.45h.65l-.48-.45.44.42-.14-.6a.65.65,0,0,0-.3.18l.44.42-.14-.6.06.24,0-.24h0l.06.24,0-.24c-.07,0-.51,0-1.16,0h0a4.37,4.37,0,0,1-1.7-.56c-2.75-1.35-7.47-5.05-12.68-9.67s-11-10.2-16-15.32l-.48.47.66-.13-.66.13-.48.46c5.76,5.89,12.48,12.34,18.29,17.32a95.5,95.5,0,0,0,7.78,6.15,23.86,23.86,0,0,0,3,1.79,5.5,5.5,0,0,0,2.29.7h.1l1,0h.3a.81.81,0,0,0,.24-.06l.24-.17a.69.69,0,0,0,0-.95l-.23-.18c-.23-.14-.57-.32-1.11-.69-1.58-1.08-4.68-3.69-8.17-10.08s-10.48-17-16.57-26S227,276.3,227,276.29l-1.78-2.52,5.84,31,.14.14Z"/><path class="cls-4" d="M143,339.34l-.17,1,0,.05.12-1.07m4.48-26.18-.05.06-4.06,23.92-.14.81c.9-3.88,1.94-10.19,3-16.77.42-2.67.85-5.39,1.26-8"/><path class="cls-5" d="M155.64,307.21c-3,4.6-5.41,9.78-6,9.78-.11,0-.16-.17-.14-.52,0-1.39.13-3.34.23-5.61l-.56.56c-.52,3.21-1,6.63-1.58,10-1.1,6.91-2.19,13.51-3.13,17.42-.1.91-.21,1.81-.31,2.71l12,10.87s3.42-4.43,5.17-17.07c1.42-10.19-3.63-23.38-5.64-28.11"/><path class="cls-6" d="M149.16,311.42l-1,1.06c-.31.34-.51.58-.6.68-.41,2.63-.84,5.35-1.26,8-1,6.58-2.09,12.89-3,16.77l-.23,1.39-.12,1.07,1.22,1.11c.1-.9.21-1.8.31-2.71.94-3.91,2-10.51,3.13-17.42.53-3.34,1.06-6.76,1.58-10"/><path class="cls-6" d="M149.72,310.71c-.67.73-1.22,1.34-1.6,1.77l1-1.06.56-.56v-.15"/><path class="cls-5" d="M154.85,305.42c-2.07,2-3.84,3.9-5.13,5.29v.15c-.1,2.27-.18,4.22-.23,5.61,0,.35,0,.52.14.52.6,0,3-5.18,6-9.78-.48-1.14-.79-1.79-.79-1.79"/><path class="cls-2" d="M181.66,95S149,85.58,152.39,55.86,190.6,15,190.6,15a42.15,42.15,0,0,0-22.34,32.85S177.19,36.42,198,32,238.19,24.13,245.12.67c0,0,15.42,34.41,9.16,58.77a46.36,46.36,0,0,1-8.55,17.69L181.66,95"/><path class="cls-3" d="M181.85,94.32l-.32-.1a52.16,52.16,0,0,1-15.59-8.38c-6.79-5.41-13.12-13.64-13.12-25.77a34.7,34.7,0,0,1,.24-4.13c1.64-14.6,11-24.67,20.08-31.12a74.94,74.94,0,0,1,12.24-7c1.64-.75,3-1.29,4-1.65.48-.18.85-.32,1.1-.4l.37-.13-.2-.64-.27-.61A38.62,38.62,0,0,0,180,21.87a43.07,43.07,0,0,0-12.45,25.87.67.67,0,0,0,1.19.49l0,0c.48-.6,9.37-11.31,29.31-15.6,10.39-2.24,20.49-4.19,28.94-8.58S242.26,12.75,245.76.86l-.64-.19-.61.27s.16.37.45,1.05c2,4.82,10.15,25.39,10.15,44.48a51.59,51.59,0,0,1-1.48,12.8,45.71,45.71,0,0,1-8.42,17.44.66.66,0,0,0,.1.94.67.67,0,0,0,.94-.1,47,47,0,0,0,8.68-17.95,53,53,0,0,0,1.52-13.13c0-22.22-10.71-46-10.72-46.07a.65.65,0,0,0-.65-.4.67.67,0,0,0-.6.48c-3.43,11.57-9.85,18.08-18,22.36s-18.2,6.22-28.6,8.46c-21,4.51-30,16-30.1,16.1l.53.42.66.08a41.92,41.92,0,0,1,19-30.63c.91-.58,1.67-1,2.19-1.28l.6-.31.16-.08,0,0a.67.67,0,0,0,.36-.85.68.68,0,0,0-.84-.4,73.76,73.76,0,0,0-18,9.4c-9.21,6.56-18.93,16.93-20.64,32.06a39.61,39.61,0,0,0-.24,4.28c0,13.47,7.55,22.4,15,27.89a52.87,52.87,0,0,0,15,7.65.67.67,0,1,0,.37-1.29"/><path class="cls-4" d="M249.64,10.64c3.06,9,6.8,22.69,6.81,35.83a53,53,0,0,1-1.52,13.13,50.15,50.15,0,0,1-4.58,11.79l.34.19a29.42,29.42,0,0,0,2.2-4.38c6-15.42,2.84-31.34,1.84-39.05-.56-4.28-3-11.73-5.09-17.51"/><path class="cls-5" d="M249.68,72.56a40.55,40.55,0,0,1-3.1,4.57A41,41,0,0,0,250,72.71l-.29-.15"/><path class="cls-6" d="M250.35,71.39c-.22.4-.44.79-.67,1.17l.29.15c.25-.38.49-.75.72-1.13l-.34-.19"/><path class="cls-5" d="M245.08,77.31,182.31,94.78a.77.77,0,0,1,0,.37.68.68,0,0,1-.65.48.55.55,0,0,1-.18,0,52.87,52.87,0,0,1-15-7.65,41.23,41.23,0,0,1-7.81-7.39v0c11.16,14,26.77,18,42.71,18,1.29,0,2.59,0,3.88-.08C218.56,98,236,88.9,246.07,77.7a.59.59,0,0,1-.34.1.66.66,0,0,1-.42-.15.71.71,0,0,1-.23-.34"/><path class="cls-5" d="M246.31,5.37C242.87,37,220.59,50.63,210.93,55a45.07,45.07,0,0,1-17.86,3.65c-1.42,0-2.25-.08-2.25-.08,5.81-2.79,8.83-10.28,8.83-10.28C189.65,57,186,55,171.77,64.19,162,70.48,159.51,75.84,158.88,78.6a38.56,38.56,0,0,0,7.06,7.24,52.16,52.16,0,0,0,15.59,8.38l.32.1a.68.68,0,0,1,.46.46l62.77-17.47a.69.69,0,0,1,.13-.6,45.71,45.71,0,0,0,8.42-17.44,51.59,51.59,0,0,0,1.48-12.8c0-16.09-5.77-33.23-8.8-41.1"/><path class="cls-6" d="M158.88,78.6a5.9,5.9,0,0,0-.18,2A41.23,41.23,0,0,0,166.51,88a52.87,52.87,0,0,0,15,7.65.55.55,0,0,0,.18,0,.68.68,0,0,0,.65-.48.77.77,0,0,0,0-.37.68.68,0,0,0-.46-.46l-.32-.1a52.16,52.16,0,0,1-15.59-8.38,38.56,38.56,0,0,1-7.06-7.24M246.57,2.46c-.07,1-.15,2-.26,2.91,3,7.87,8.8,25,8.8,41.1a51.59,51.59,0,0,1-1.48,12.8,45.71,45.71,0,0,1-8.42,17.44.69.69,0,0,0-.13.6.71.71,0,0,0,.23.34.66.66,0,0,0,.42.15.59.59,0,0,0,.34-.1l.51-.57a40.55,40.55,0,0,0,3.1-4.57c.23-.38.45-.77.67-1.17a50.15,50.15,0,0,0,4.58-11.79,53,53,0,0,0,1.52-13.13c0-13.14-3.75-26.82-6.81-35.83C248,6,246.57,2.46,246.57,2.46"/><path class="cls-2" d="M105.47,141.74S94.31,96.82,63.62,87.06,11.16,95.43,2.79,117.75s8.65,52.17,39.9,55.8l62.78-31.81"/><path class="cls-3" d="M106.12,141.58a116.56,116.56,0,0,0-9.48-23.83C90,105.23,79.43,91.4,63.82,86.42a55,55,0,0,0-16.73-2.74A44.14,44.14,0,0,0,18.82,93.75,56,56,0,0,0,2.16,117.51,34.78,34.78,0,0,0,0,129.71c0,20.17,16.38,41.45,42.61,44.51a.69.69,0,0,0,.75-.59.68.68,0,0,0-.59-.75c-25.56-3-41.43-23.71-41.43-43.17A33.45,33.45,0,0,1,3.42,118,54.65,54.65,0,0,1,19.67,94.79,42.71,42.71,0,0,1,47.09,85,53.73,53.73,0,0,1,63.41,87.7C78.49,92.48,88.87,106,95.46,118.38a119.28,119.28,0,0,1,7.15,16.41c.76,2.17,1.31,4,1.67,5.19.18.62.32,1.1.41,1.43s.13.49.13.49a.67.67,0,0,0,1.3-.32"/><path class="cls-2" d="M44.92,128.91s27.21,7.74,32,34.73l-32-34.73"/><path class="cls-3" d="M44.74,129.55l.29.09a52.07,52.07,0,0,1,15.08,8.08,41.61,41.61,0,0,1,16.17,26,.67.67,0,0,0,.78.55.68.68,0,0,0,.54-.78C75.16,149.82,67,141,59.52,135.61a52.18,52.18,0,0,0-14.41-7.35.67.67,0,0,0-.83.47.66.66,0,0,0,.46.82h0"/><path class="cls-4" d="M18.39,164.71a42.9,42.9,0,0,0,18.31,8.7v-.22a48.93,48.93,0,0,1-18.31-8.48M1.72,141.18A33.7,33.7,0,0,0,7.64,153.5a44.93,44.93,0,0,1-5.92-12.32"/><path class="cls-5" d="M92.29,148.42l-16.47,8.34a42.39,42.39,0,0,1,1.78,6.77.68.68,0,0,1-.54.78h-.12a.67.67,0,0,1-.66-.56c-.06-.35-.13-.7-.2-1l-3.82-4.14-29,14.68a.68.68,0,0,1,.07.38.67.67,0,0,1-.67.59h-.08c-1.56-.19-3.09-.43-4.58-.74v.19a47.08,47.08,0,0,0,5.21.62c1.41.09,2.83.14,4.25.14a66.84,66.84,0,0,0,28.93-6.62c10.4-5,18.21-14.86,18.21-14.86a36.36,36.36,0,0,0-2.34-4.53"/><path class="cls-6" d="M36.7,173.19v.22c.44.1.89.18,1.33.26v-.19l-1.33-.29"/><path class="cls-5" d="M35.91,118.49c-1.76,0-3.57.06-5.43.17A35.65,35.65,0,0,0,1.87,135.94c3,17.44,18.06,34.3,40.9,36.94a.67.67,0,0,1,.52.37l29-14.68L45.85,129.92c-.35-.13-.63-.22-.82-.28l-.29-.09h0a.67.67,0,0,1,.18-1.31l.19,0a52.18,52.18,0,0,1,14.41,7.35,44.16,44.16,0,0,1,16.3,21.15l16.47-8.34c-5.53-9.36-21.64-29.93-56.38-29.93"/><path class="cls-6" d="M1.87,135.94c-.46.77-.68,1.23-.68,1.23a17.83,17.83,0,0,0,.53,4A44.93,44.93,0,0,0,7.64,153.5l.52.68a61,61,0,0,0,10.23,10.53,48.93,48.93,0,0,0,18.31,8.48l1.33.29c1.49.31,3,.55,4.58.74h.08a.67.67,0,0,0,.67-.59.68.68,0,0,0-.07-.38.67.67,0,0,0-.52-.37c-22.84-2.64-37.95-19.5-40.9-36.94"/><path class="cls-5" d="M45.85,129.92l26.41,28.65,3.82,4.14a41.69,41.69,0,0,0-16-25,52.7,52.7,0,0,0-14.26-7.8"/><path class="cls-6" d="M44.92,128.24a.67.67,0,0,0-.18,1.31h0l.29.09c.19.06.47.15.82.28a52.7,52.7,0,0,1,14.26,7.8,41.69,41.69,0,0,1,16,25c.07.35.14.7.2,1a.67.67,0,0,0,.66.56h.12a.68.68,0,0,0,.54-.78,42.39,42.39,0,0,0-1.78-6.77,44.16,44.16,0,0,0-16.3-21.15,52.18,52.18,0,0,0-14.41-7.35l-.19,0"/><path class="cls-7" d="M120.88,277.19s12.22-.15,40-15.31c28.16-15.36,36.26-28.33,40.72-35.81,10.9-18.26,68.88-10.56,72.57-3.85s13.57,17.59,18.6,15.75c0,0-14.08,20.45-48.43,31.17s-58.66,13.91-74.07,14.58S138.2,284,120.88,277.19Z"/><path class="cls-8" d="M120.88,277.19v.67c.14,0,12.46-.2,40.31-15.39,14.12-7.71,23.25-14.83,29.4-21a70.88,70.88,0,0,0,11.58-15.08c2.37-4,7.25-6.78,13.48-8.54A81.23,81.23,0,0,1,237,215.4a125,125,0,0,1,24.33,2.38,53.45,53.45,0,0,1,8.47,2.37,15.89,15.89,0,0,1,2.61,1.28,3.46,3.46,0,0,1,1.22,1.11,50.16,50.16,0,0,0,8.1,10.46,31.1,31.1,0,0,0,5.05,4.12,9.48,9.48,0,0,0,4.81,1.73,4.23,4.23,0,0,0,1.46-.25l-.23-.63-.55-.38,0,0c-.8,1.13-14.94,20.53-48,30.86-34.31,10.71-58.55,13.88-73.9,14.55-3.19.14-6.43.23-9.71.23-12.56,0-25.77-1.36-39.4-6.72l-.25.63v0l-.24.62c13.83,5.44,27.23,6.81,39.89,6.81,3.31,0,6.56-.09,9.77-.23,15.47-.67,39.83-3.87,74.24-14.61s48.73-31.35,48.78-31.43a.66.66,0,0,0,0-.79.67.67,0,0,0-.76-.22,2.87,2.87,0,0,1-1,.17,8.33,8.33,0,0,1-4.1-1.52c-4.67-2.92-10.2-9.56-12.68-14.1a4.79,4.79,0,0,0-1.68-1.59,23.89,23.89,0,0,0-5.67-2.37c-7.25-2.2-18.85-3.87-30.46-3.87a82.26,82.26,0,0,0-21.65,2.52c-6.39,1.81-11.6,4.69-14.27,9.15a69.94,69.94,0,0,1-11.38,14.82c-6.05,6-15.06,13.08-29.09,20.74-13.85,7.56-23.81,11.37-30.29,13.28a55.39,55.39,0,0,1-7.15,1.69c-.77.13-1.34.19-1.71.22l-.42,0h-.11a.69.69,0,0,0-.66.55.69.69,0,0,0,.42.75Z"/><polygon class="cls-15" points="213.14 234.45 217.75 244.42 220.93 235.79 213.14 234.45"/><polygon class="cls-15" points="265.68 234.7 261.07 244.67 257.88 236.04 265.68 234.7"/><path class="cls-7" d="M239.7,212.29s29.38-1.52,43,.94,10.17,17.91,1.34,20.83-29.21,7.71-41.67-1C237.84,229.88,239.7,212.29,239.7,212.29Z"/><path class="cls-8" d="M239.7,212.29l0,.67,1.56-.07c3-.13,10-.39,17.75-.39,8.33,0,17.55.3,23.55,1.39a10.92,10.92,0,0,1,6.6,3.4,8.38,8.38,0,0,1,2,5.55,11.71,11.71,0,0,1-2,6.44,10.45,10.45,0,0,1-5.27,4.15,76.57,76.57,0,0,1-22.72,3.93c-6.6,0-13.21-1.25-18.35-4.86a4.07,4.07,0,0,1-1.31-1.77c-1.13-2.49-1.47-6.86-1.47-10.68,0-2.08.1-4,.19-5.41,0-.7.09-1.27.13-1.67s.06-.61.06-.61l-.67-.07,0,.67,0-.67-.67-.07s-.38,3.59-.38,7.83a43.74,43.74,0,0,0,.61,7.9,14.64,14.64,0,0,0,1,3.33A5.5,5.5,0,0,0,242,233.6c5.47,3.83,12.36,5.1,19.12,5.1a77.72,77.72,0,0,0,23.14-4,11.75,11.75,0,0,0,6-4.67,13,13,0,0,0,2.27-7.19,9.76,9.76,0,0,0-2.28-6.42,12.2,12.2,0,0,0-7.38-3.85c-6.18-1.11-15.42-1.41-23.79-1.41-10.37,0-19.37.46-19.38.46l-.57,0-.06.57Z"/><path class="cls-7" d="M239.94,212.29s-29.38-1.52-43,.94-10.17,17.91-1.34,20.83,29.21,7.71,41.67-1C241.8,229.88,239.94,212.29,239.94,212.29Z"/><path class="cls-8" d="M239.94,212.29l0-.67s-9-.46-19.38-.46c-8.37,0-17.61.3-23.79,1.41a12.2,12.2,0,0,0-7.38,3.85,9.76,9.76,0,0,0-2.28,6.42,13,13,0,0,0,2.27,7.19,11.75,11.75,0,0,0,6,4.67,77.72,77.72,0,0,0,23.14,4c6.76,0,13.64-1.27,19.12-5.1a5.5,5.5,0,0,0,1.76-2.32c1.29-2.89,1.58-7.33,1.59-11.23,0-4.24-.38-7.81-.38-7.83l-.06-.57-.57,0,0,.67-.66.07s0,.22.05.61c.11,1.19.32,4,.32,7.08a43.08,43.08,0,0,1-.58,7.65,14,14,0,0,1-.89,3,4.07,4.07,0,0,1-1.31,1.77c-5.14,3.61-11.75,4.86-18.35,4.86a76.57,76.57,0,0,1-22.72-3.93,10.45,10.45,0,0,1-5.27-4.15,11.71,11.71,0,0,1-2-6.44,8.38,8.38,0,0,1,2-5.55,10.92,10.92,0,0,1,6.6-3.4c6-1.09,15.22-1.39,23.55-1.39,5.16,0,10,.11,13.53.23l4.22.16,1.56.07,0-.67-.66.07Z"/><path class="cls-19" d="M249.48,210.89c-1.2-.87-4-.41-10.13-.39s-8.94-.48-10.14.39,1,7.6,5.15,7.85c3.48.21,4.34.25,4.89.26h.19c.55,0,1.29-.05,4.77-.26C248.38,218.49,250.72,211.77,249.48,210.89Z"/><path class="cls-2" d="M255.06,319.55l-4.78-8.6-20-29s-37,16.34-27.3-14.19c9.48-29.82,30.37-6.7,30.79-6.22a415.4,415.4,0,0,1,34.84,43.84c10.82,11.37,4.63,18.71-.54,22.14"/><path class="cls-3" d="M255.65,319.22l-4.79-8.63-20.39-29.47-.5.23-.43.18c-2,.82-10.42,4.14-17.41,4.13a11.89,11.89,0,0,1-7.19-1.91c-1.79-1.36-2.95-3.53-3-7.15a28.91,28.91,0,0,1,1.6-8.63c1.82-5.75,4.07-9.45,6.44-11.69a10.41,10.41,0,0,1,7.34-3.06c3.89,0,7.82,2.09,10.79,4.26a35.31,35.31,0,0,1,5.09,4.52A416.07,416.07,0,0,1,268,305.77l0,.05,0,0c4.31,4.53,5.79,8.31,5.79,11.37a9.77,9.77,0,0,1-2,5.81,16.67,16.67,0,0,1-4.24,3.93l.74,1.12a17.46,17.46,0,0,0,4.58-4.27,11.09,11.09,0,0,0,2.23-6.59c0-3.52-1.7-7.62-6.16-12.3l-.48.46.55-.38a416.71,416.71,0,0,0-34.89-43.91,36,36,0,0,0-5.29-4.7c-3.09-2.25-7.21-4.51-11.58-4.52a11.75,11.75,0,0,0-8.26,3.43c-2.6,2.46-4.93,6.36-6.8,12.25a30.47,30.47,0,0,0-1.66,9c0,3.9,1.33,6.6,3.49,8.22a13.23,13.23,0,0,0,8,2.18,44,44,0,0,0,12.33-2.22,61.43,61.43,0,0,0,6-2.21l-.27-.61-.55.38,20,29,4.77,8.58,1.17-.66Z"/></g></g></svg>