<svg xmlns="http://www.w3.org/2000/svg" xmlns:xlink="http://www.w3.org/1999/xlink" viewBox="0 0 372.64 457.76"><defs><style>.cls-1{fill:none;}.cls-2{fill:#fee367;}.cls-3{fill:#dba333;}.cls-4{fill:#e89f51;}.cls-5{fill:#ce7f38;}.cls-6{fill:#f7bb4f;}.cls-7{fill:#c68325;}.cls-8{fill:#ba6628;}.cls-9{fill:#ed84e5;}.cls-10{fill:#d667d3;}.cls-11{fill:#fff;}.cls-12{fill:#e0bfa6;}.cls-13{fill:#cc7735;}.cls-14{fill:#b55f24;}.cls-15{fill:#ffe7ce;}.cls-16{fill:#efba89;}.cls-17{fill:#e7aa78;}.cls-18{fill:#d28b59;}.cls-19{clip-path:url(#clip-path);}.cls-20{fill:#f0f0f0;}.cls-21{fill:#30b271;}.cls-22{fill:#bcceea;}.cls-23{fill:#26996e;}.cls-24{fill:#b71a53;}.cls-25{fill:#212121;}.cls-26{fill:#e09e6b;}.cls-27{fill:#c58f6c;}.cls-28{fill:#b35923;}.cls-29{fill:#9f4717;}.cls-30{fill:#c57646;}.cls-31{fill:#b8683a;}.cls-32{fill:#a11336;}.cls-33{fill:#1d1915;}.cls-34{fill:#fcb042;}.cls-35{fill:#ed9520;}.cls-36{fill:#fce8c8;}.cls-37{fill:#45454c;}.cls-38{fill:#e44b86;}.cls-39{fill:#a0a0b1;}</style><clipPath id="clip-path"><path class="cls-1" d="M111.71,149.11s3.43,14.46,34.79,14.46c28.19,0,31.16-22.36,29.41-26.13-5.19-11.2-14.91-21.58-31.25-21.58s-21.65,10-26.28,14.74c-5.45,5.62-6.67,18.51-6.67,18.51"/></clipPath></defs><title>Puma niña glosa</title><g id="Layer_2" data-name="Layer 2"><g id="Layer_4" data-name="Layer 4"><path class="cls-2" d="M83.64,67.86S74.81,32.31,50.52,24.58,9,31.2,2.38,48.87,9.22,90.17,34,93s46.38-6.63,49.69-25.18"/><path class="cls-3" d="M83.64,67.86l.67-.17a91.45,91.45,0,0,0-7.51-18.9c-5.29-9.92-13.65-20.91-26.07-24.87a43.86,43.86,0,0,0-13.3-2.18,35.06,35.06,0,0,0-22.47,8A44.43,44.43,0,0,0,1.72,48.63,27.72,27.72,0,0,0,0,58.34c0,16,13,33,33.87,35.39a75.87,75.87,0,0,0,8.68.51c10.59,0,20.25-2.35,27.68-6.81S82.83,76.38,84.32,68l0-.14,0-.15-.67.17L83,67.74c-1.43,8-6.3,14.2-13.45,18.5s-16.57,6.61-27,6.61a75.22,75.22,0,0,1-8.52-.5C13.89,90,1.38,73.65,1.39,58.34A26.14,26.14,0,0,1,3,49.11a43.06,43.06,0,0,1,12.8-18.28,33.64,33.64,0,0,1,21.6-7.7A42.42,42.42,0,0,1,50.3,25.24C62.17,29,70.37,39.66,75.57,49.45a92.69,92.69,0,0,1,5.65,13c.6,1.71,1,3.12,1.33,4.09.14.49.24.87.31,1.13S83,68,83,68l.67-.17L83,67.74l.68.12"/><path class="cls-4" d="M27.77,55.72s23.66,7,27.47,28.41L27.77,55.72"/><path class="cls-5" d="M27.58,56.38l.22.07a41.16,41.16,0,0,1,11.89,6.37C45.13,67,53,73.22,54.73,83a.69.69,0,0,0,.81.56.7.7,0,0,0,.56-.81c-1.94-10.9-10.73-17.63-16.68-21.89A40.81,40.81,0,0,0,28,55.05a.69.69,0,1,0-.38,1.33"/><path class="cls-6" d="M29,49.18a26.35,26.35,0,0,0-4.71.41A35.44,35.44,0,0,0,1.8,63.2C4.11,77,16,90.26,34,92.35a75.22,75.22,0,0,0,8.52.5c.5,0,1,0,1.48,0,18.08.77,12.62-6,11.55-9.56L28.75,56.77l-.95-.32-.22-.07a.69.69,0,0,1-.48-.85.7.7,0,0,1,.67-.51.63.63,0,0,1,.19,0,50.5,50.5,0,0,1,11.46,5.84c14.35,9.65,16.07,28,16.16,27.4,1-6.75,6.46-22.22,9.29-26.77-6-3.47-25-12.34-35.87-12.34"/><path class="cls-7" d="M6.14,77.39a37.83,37.83,0,0,0,21.22,15,39.69,39.69,0,0,0,6.51,1.29q3,.34,6,.46l6.08.1c4.76,0,7.44-.76,8.09-1.05.42-.19.19-.9.29-1.34-.49,0-4.35.6-7.44.74A122.4,122.4,0,0,1,34,92.35C16,90.26,4.11,77,1.8,63.2"/><path class="cls-8" d="M27.77,55a.7.7,0,0,0-.67.51.69.69,0,0,0,.48.85l.22.07.95.32a64,64,0,0,1,10.94,6C48.3,68.5,55,83.87,55.16,84.35s.4.56.78.57a.64.64,0,0,0,.59-.81A43.7,43.7,0,0,0,39.42,60.89,40.81,40.81,0,0,0,28,55.05a.63.63,0,0,0-.19,0"/><path class="cls-2" d="M82.45,52.85s-4.63-21.09-10.6-31.69-20-20.1-36.32-12.7c0,0,15-3.87,20,10.05,0,0-25.17-10.82-40,4.08,0,0,17.56-2.54,26.72,4.2"/><path class="cls-3" d="M83.13,52.7S82,47.4,80.06,40.78s-4.57-14.57-7.6-20A32.49,32.49,0,0,0,62.4,9.93,27.27,27.27,0,0,0,47.15,5.14,28.75,28.75,0,0,0,35.24,7.83l.46,1.3.07,0a20.86,20.86,0,0,1,4.36-.45,16.94,16.94,0,0,1,8,1.84,14.3,14.3,0,0,1,6.75,8.24l.65-.23.28-.64A54.66,54.66,0,0,0,36.41,14c-7.18,0-15.16,1.83-21.36,8.08l-1.47,1.48,2.06-.3.56-.07a62,62,0,0,1,7-.39c5.81,0,13.66.84,18.64,4.53l.82-1.12c-5.46-4-13.52-4.79-19.46-4.8a61.68,61.68,0,0,0-7.77.47l.1.69.5.49c5.86-5.91,13.41-7.67,20.37-7.67a51.33,51.33,0,0,1,13.22,1.87c1.73.47,3.13.94,4.11,1.29.48.17.86.32,1.12.42l.38.15,1.46.63-.53-1.5a15.75,15.75,0,0,0-7.4-9,18.38,18.38,0,0,0-8.64-2,20.81,20.81,0,0,0-4.78.52l.18.67.28.63A27.41,27.41,0,0,1,47.15,6.53a25.83,25.83,0,0,1,14.47,4.55A31.11,31.11,0,0,1,71.25,21.5c2.93,5.2,5.58,13.1,7.47,19.67,1,3.29,1.71,6.24,2.24,8.38.26,1.07.47,1.93.61,2.52l.2.92,1.36-.29Z"/><path class="cls-9" d="M89.52,43.18A15.07,15.07,0,1,1,74.45,28.11,15.08,15.08,0,0,1,89.52,43.18Z"/><path class="cls-10" d="M89.52,43.18h-.69A14.39,14.39,0,1,1,84.61,33a14.29,14.29,0,0,1,4.22,10.16h1.39A15.77,15.77,0,1,0,74.45,59,15.77,15.77,0,0,0,90.22,43.18Z"/><path class="cls-9" d="M76.93,54.34A15.07,15.07,0,1,1,61.86,39.26,15.07,15.07,0,0,1,76.93,54.34Z"/><path class="cls-10" d="M76.93,54.34h-.69A14.37,14.37,0,1,1,72,44.17a14.32,14.32,0,0,1,4.21,10.17h1.39A15.77,15.77,0,1,0,61.86,70.1,15.77,15.77,0,0,0,77.63,54.34Z"/><path class="cls-11" d="M62.69,46.72a4,4,0,1,1-4-4A4,4,0,0,1,62.69,46.72Z"/><path class="cls-11" d="M77.26,33.05a2.9,2.9,0,1,1-2.89-2.89A2.89,2.89,0,0,1,77.26,33.05Z"/><path class="cls-2" d="M289,67.86s8.83-35.55,33.12-43.28,41.52,6.62,48.14,24.29S363.42,90.17,338.69,93,292.31,86.41,289,67.86"/><path class="cls-3" d="M289,67.86l-.68-.17a92.55,92.55,0,0,1,7.52-18.9c5.29-9.92,13.65-20.91,26.07-24.87a43.86,43.86,0,0,1,13.3-2.18,35.06,35.06,0,0,1,22.47,8,44.51,44.51,0,0,1,13.24,18.88,27.72,27.72,0,0,1,1.72,9.71c0,16-13,33-33.87,35.39a75.87,75.87,0,0,1-8.68.51c-10.6,0-20.26-2.35-27.68-6.81S289.81,76.38,288.32,68l0-.14,0-.15.68.17.68-.12c1.43,8,6.3,14.2,13.45,18.5s16.57,6.61,27,6.61a75.22,75.22,0,0,0,8.52-.5c20.14-2.34,32.64-18.7,32.64-34a26.14,26.14,0,0,0-1.64-9.23A43,43,0,0,0,356.8,30.83a33.6,33.6,0,0,0-21.59-7.7,42.42,42.42,0,0,0-12.87,2.11C310.47,29,302.27,39.66,297.07,49.45a92.69,92.69,0,0,0-5.65,13c-.6,1.71-1,3.12-1.33,4.09-.14.49-.24.87-.31,1.13s-.11.39-.11.39l-.67-.17.68-.12-.68.12"/><path class="cls-4" d="M344.87,55.72s-21.53,6.12-25.34,27.49l25.34-27.49"/><path class="cls-5" d="M345.06,56.38l-.22.07A41.16,41.16,0,0,0,333,62.82a32.77,32.77,0,0,0-12.74,20.51.69.69,0,1,1-1.36-.24,34.42,34.42,0,0,1,14.37-22.2,40.81,40.81,0,0,1,11.46-5.84.69.69,0,1,1,.38,1.33"/><path class="cls-6" d="M343.64,49.18a26.35,26.35,0,0,1,4.71.41A35.44,35.44,0,0,1,370.84,63.2C368.53,77,356.63,90.26,338.61,92.35a75.22,75.22,0,0,1-8.52.5c-.5,0-3.4.11-3.89.1a103.6,103.6,0,0,0-3.86-13.19l21.55-23,.95-.32.22-.07a.69.69,0,0,0,.48-.85.7.7,0,0,0-.67-.51.63.63,0,0,0-.19,0,40.81,40.81,0,0,0-11.46,5.84c-3.84,2.75-8.9,8.93-11.82,14.28-2-5-5.67-10.82-8.51-15.37,6-3.48,19.92-10.62,30.75-10.62"/><path class="cls-7" d="M370.84,63.2c.47.66,1.07,1.64,1.07,1.64s0,5-5.41,12.55a37.83,37.83,0,0,1-21.22,15,39.69,39.69,0,0,1-6.51,1.29c-2,.23-3.7.45-5.66.52-.54,0-1.34.06-1.86.06-.81,0-3.22,0-4-.06l-.3-1.34c.49,0,2.6-.06,3.1-.06a75.22,75.22,0,0,0,8.52-.5c18-2.09,29.92-15.4,32.23-29.15"/><path class="cls-8" d="M344.87,55a.7.7,0,0,1,.67.51.69.69,0,0,1-.48.85l-.22.07-.95.32a42.29,42.29,0,0,0-10.94,6c-3.63,2.79-8.31,8.8-10.88,13.94-.22-.57-.79-1.66-1-2.23a46.52,46.52,0,0,1,12.17-13.64,40.81,40.81,0,0,1,11.46-5.84.63.63,0,0,1,.19,0"/><path class="cls-2" d="M290.19,52.85s4.63-21.09,10.59-31.69,20-20.1,36.33-12.7c0,0-15-3.87-20,10.05,0,0,25.17-10.82,40,4.08,0,0-17.56-2.54-26.72,4.2"/><path class="cls-3" d="M289.51,52.7s1.16-5.3,3.07-11.92,4.57-14.57,7.6-20A32.49,32.49,0,0,1,310.24,9.93a27.27,27.27,0,0,1,15.25-4.79A28.75,28.75,0,0,1,337.4,7.83l-.46,1.3-.07,0a20.86,20.86,0,0,0-4.36-.45,16.94,16.94,0,0,0-8,1.84,14.3,14.3,0,0,0-6.75,8.24l-.65-.23-.28-.64A54.66,54.66,0,0,1,336.23,14c7.18,0,15.16,1.83,21.36,8.08l1.46,1.48-2.05-.3-.56-.07a62,62,0,0,0-7-.39c-5.81,0-13.66.84-18.64,4.53L330,26.23c5.46-4,13.52-4.79,19.46-4.8a61.68,61.68,0,0,1,7.77.47l-.1.69-.5.49c-5.86-5.91-13.41-7.67-20.37-7.67A51.33,51.33,0,0,0,323,17.28c-1.73.47-3.14.94-4.11,1.29l-1.12.42-.38.15-1.46.63.53-1.5a15.75,15.75,0,0,1,7.4-9,18.38,18.38,0,0,1,8.64-2,20.81,20.81,0,0,1,4.78.52l-.18.67-.28.63a27.41,27.41,0,0,0-11.34-2.56A25.83,25.83,0,0,0,311,11.08a31.11,31.11,0,0,0-9.63,10.42c-2.93,5.2-5.58,13.1-7.47,19.67-.95,3.29-1.72,6.24-2.24,8.38-.26,1.07-.47,1.93-.61,2.52s-.21.92-.21.92l-1.35-.29Z"/><path class="cls-9" d="M283.12,43.18a15.07,15.07,0,1,0,15.07-15.07A15.08,15.08,0,0,0,283.12,43.18Z"/><path class="cls-10" d="M283.12,43.18h.69A14.37,14.37,0,1,0,288,33a14.33,14.33,0,0,0-4.21,10.16h-1.39A15.77,15.77,0,1,1,298.19,59a15.77,15.77,0,0,1-15.77-15.77Z"/><path class="cls-9" d="M295.71,54.34a15.07,15.07,0,1,0,15.07-15.08A15.07,15.07,0,0,0,295.71,54.34Z"/><path class="cls-10" d="M295.71,54.34h.69a14.37,14.37,0,1,0,4.21-10.17,14.32,14.32,0,0,0-4.21,10.17H295A15.77,15.77,0,1,1,310.78,70.1,15.77,15.77,0,0,1,295,54.34Z"/><path class="cls-11" d="M310,46.72a4,4,0,1,0,4-4A4,4,0,0,0,310,46.72Z"/><path class="cls-11" d="M295.37,33.05a2.9,2.9,0,1,0,2.9-2.89A2.9,2.9,0,0,0,295.37,33.05Z"/><path class="cls-2" d="M52.92,452.13c7.5-7.25,12.43-16.35,22.24-18.31s43.15-3.6,69.63-14.39,48.39-31.38,60.16-41.52,5.88-24.84-8.5-19.94-25.18,24.19-36,30.41-30.07,17.32-50,20.92-35.63,1.63-51.65,8.5-22.89,16.35-24.19,27.46,8.5,16.35,18.3,6.87"/><path class="cls-3" d="M52.92,452.13l.49.5c3.79-3.67,6.9-7.77,10.26-11.15s6.91-6,11.62-7,15.65-1.87,28.54-3.88,27.9-5.11,41.22-10.54c26.64-10.86,48.6-31.52,60.35-41.64,4.46-3.84,6.52-8.38,6.52-12.39a9.67,9.67,0,0,0-2.69-6.91,10.09,10.09,0,0,0-7.39-2.84,17.52,17.52,0,0,0-5.62,1c-7.4,2.54-13.75,8.67-19.61,14.9s-11.25,12.57-16.47,15.56c-10.78,6.21-30,17.28-49.8,20.85-9.92,1.78-18.8,2.19-27.24,3s-16.46,2.05-24.57,5.53-13.9,7.61-17.87,12.33a29.16,29.16,0,0,0-6.74,15.69,18,18,0,0,0-.12,2,11.46,11.46,0,0,0,2.52,7.62,8.41,8.41,0,0,0,6.49,2.92c3.26,0,7-1.62,10.6-5.13l-.49-.5-.48-.5c-3.45,3.34-6.84,4.74-9.63,4.73a7,7,0,0,1-5.44-2.43,10.09,10.09,0,0,1-2.18-6.71,15.44,15.44,0,0,1,.12-1.88,27.58,27.58,0,0,1,6.42-14.95c3.79-4.52,9.41-8.55,17.35-11.95s15.76-4.61,24.15-5.42,17.33-1.23,27.36-3c20.1-3.63,39.44-14.79,50.24-21,5.57-3.22,11-9.63,16.79-15.82s12.07-12.16,19-14.53a16,16,0,0,1,5.17-.94,8.73,8.73,0,0,1,6.4,2.43,8.29,8.29,0,0,1,2.29,5.93c0,3.53-1.82,7.71-6,11.34-11.78,10.15-33.63,30.68-60,41.4-13.16,5.36-28.07,8.46-40.92,10.46S80,432.14,75,433.14,66.11,437,62.68,440.5s-6.54,7.55-10.24,11.13l.48.5"/><path class="cls-12" d="M209,374.55c-.33.47-.69.93-1.08,1.39a17,17,0,0,0,1.08-1.39"/><path class="cls-6" d="M207.93,373.62c-1.49.24-3,.44-4.59.61-3.2.4-6.62.65-10.28.74-1,0-1.95,0-2.9,0s-1.84,0-2.74,0a154,154,0,0,1-18.19,22,32,32,0,0,1-8,5.55q-.33,3.34-.64,6.81l-.12,1.54c19.1-11,34.68-25.5,44-33.51a19.87,19.87,0,0,0,3.44-3.77"/><path class="cls-7" d="M209.74,373.31l-1.81.31a19.87,19.87,0,0,1-3.44,3.77c-9.3,8-24.88,22.5-44,33.51,0,.46-.07.92-.09,1.37,1-.46,1.94-.91,2.8-1.35,16-9.53,29.31-21.24,38.41-29.19,2.15-1.91,3.8-3.39,4.71-4.21a17.74,17.74,0,0,0,1.56-1.58c.39-.46.75-.92,1.08-1.39a12.62,12.62,0,0,0,.76-1.24"/><path class="cls-6" d="M128.81,412.53C113,415.82,96.55,418.2,86,421.35c-16.6,4.94-20,13.12-20.71,16.73A21.4,21.4,0,0,1,75,433.14c5-1,15.74-1.89,28.59-3.89,2.51-.39,5.1-.82,7.74-1.31a15.76,15.76,0,0,1,3.58-8.21c2.74-3.14,7.16-5.22,13.66-5.24q.07-.64.21-1.89v-.07"/><path class="cls-7" d="M111.35,427.94c-2.64.49-5.23.92-7.74,1.31-12.85,2-23.6,2.89-28.59,3.89a21.4,21.4,0,0,0-9.74,4.94,7.25,7.25,0,0,0-.16,1.82,9.86,9.86,0,0,1,2.35-1.79,19.24,19.24,0,0,1,7.82-3.61c.74-.15,1.63-.29,2.64-.44a93.56,93.56,0,0,1,12.93-2.28A181.39,181.39,0,0,0,111.34,428v-.07"/><path class="cls-2" d="M165.82,351.11c-1,17.65-3.92,36-5.88,58.19s3.92,36.94-9.48,40.21-20.93-2.29-20.93-2.29-8.82,2.62-14-3.92-7.85-28.44,13.73-28.12c0,0,6.54-57.54,7.52-72.57s30.08-9.16,29.09,8.5"/><path class="cls-3" d="M165.82,351.11l-.69,0c-1,17.6-3.92,35.91-5.88,58.17-.36,4.09-.46,7.92-.46,11.47,0,4.13.13,7.88.13,11.2,0,4.71-.28,8.54-1.48,11.34a8.94,8.94,0,0,1-2.57,3.47,11.47,11.47,0,0,1-4.58,2.12,33.87,33.87,0,0,1-8,1,25.29,25.29,0,0,1-9.19-1.62,18.4,18.4,0,0,1-2.35-1.09c-.26-.15-.46-.27-.59-.36l-.14-.09,0,0-.28-.2-.33.1-.07,0a15.87,15.87,0,0,1-3.87.46,13.26,13.26,0,0,1-4.75-.81,10.65,10.65,0,0,1-4.63-3.36c-1.88-2.34-3.51-7.06-3.5-11.84A15.54,15.54,0,0,1,116,420.65c2.47-2.82,6.45-4.77,12.75-4.77h1.1l.07-.63s6.54-57.52,7.52-72.61a7.71,7.71,0,0,1,3.11-6,11.67,11.67,0,0,1,6.86-1.94,20.07,20.07,0,0,1,11.92,4.14,14.23,14.23,0,0,1,5.84,11.39c0,.27,0,.55,0,.83l.69,0,.7,0c0-.3,0-.6,0-.9a15.58,15.58,0,0,0-6.38-12.48,21.34,21.34,0,0,0-12.77-4.44,13,13,0,0,0-7.68,2.21,9.13,9.13,0,0,0-3.68,7c-.49,7.49-2.37,25.64-4.12,41.9-.88,8.13-1.73,15.79-2.36,21.42-.31,2.82-.57,5.12-.75,6.72l-.28,2.51.69.07v-.69h-.49c-6.57,0-11,2.08-13.8,5.24a17,17,0,0,0-3.8,11.3c0,5.09,1.65,10,3.8,12.71a12,12,0,0,0,5.23,3.79,14.77,14.77,0,0,0,5.24.91,16.54,16.54,0,0,0,4.33-.55l-.2-.67-.41.56c.08.06,4.71,3.46,13.13,3.46a35.61,35.61,0,0,0,8.37-1.05,12.68,12.68,0,0,0,5.12-2.39,11.34,11.34,0,0,0,3.79-6.52,41.31,41.31,0,0,0,.78-9.37c0-3.35-.13-7.09-.13-11.2,0-3.52.1-7.31.45-11.35,2-22.2,4.9-40.51,5.89-58.22l-.7,0"/><path class="cls-2" d="M216.67,351.11c1,17.65,3.92,36,5.88,58.19s-3.92,36.94,9.48,40.21S253,447.22,253,447.22s8.82,2.62,14-3.92,7.85-28.44-13.73-28.12c0,0-6.54-57.54-7.52-72.57s-30.07-9.16-29.09,8.5"/><path class="cls-3" d="M216.67,351.11l-.7,0c1,17.71,3.93,36,5.89,58.22.35,4,.45,7.83.45,11.35,0,4.1-.13,7.85-.13,11.2,0,4.76.25,8.74,1.6,11.89a10.12,10.12,0,0,0,3,4,12.75,12.75,0,0,0,5.12,2.39,35.61,35.61,0,0,0,8.37,1.05c8.42,0,13-3.4,13.13-3.46l-.41-.56-.2.67a16.54,16.54,0,0,0,4.33.55,14.73,14.73,0,0,0,5.24-.91,12,12,0,0,0,5.23-3.79c2.15-2.72,3.79-7.62,3.8-12.71a17,17,0,0,0-3.8-11.3c-2.76-3.16-7.23-5.25-13.8-5.24h-.49v.69l.69-.07-.28-2.51c-1.26-11.21-6.38-56.92-7.23-70a9.13,9.13,0,0,0-3.68-7,13,13,0,0,0-7.68-2.21,21.39,21.39,0,0,0-12.78,4.44A15.6,15.6,0,0,0,216,350.24c0,.3,0,.6,0,.91l.7,0,.69,0c0-.28,0-.56,0-.83a14.22,14.22,0,0,1,5.84-11.39,20.07,20.07,0,0,1,11.92-4.14,11.67,11.67,0,0,1,6.86,1.94,7.71,7.71,0,0,1,3.11,6c1,15.09,7.52,72.6,7.52,72.61l.07.63h1.1c6.3,0,10.28,1.95,12.75,4.77A15.54,15.54,0,0,1,270,431c0,4.78-1.62,9.5-3.5,11.84a10.65,10.65,0,0,1-4.63,3.36,13.26,13.26,0,0,1-4.75.81,17.1,17.1,0,0,1-2.84-.24c-.35-.06-.63-.13-.82-.17l-.21-.05-.07,0-.33-.1-.28.2,0,0c-.45.31-4.74,3.16-12.27,3.16a33.87,33.87,0,0,1-8-1,11.47,11.47,0,0,1-4.58-2.12,10,10,0,0,1-3.31-5.76,40.65,40.65,0,0,1-.74-9c0-3.32.13-7.07.13-11.2,0-3.55-.1-7.38-.46-11.47-2-22.26-4.9-40.57-5.88-58.17l-.69,0"/><path class="cls-13" d="M163,387.54l-.14.11c-.32,2.81-.65,5.68-1,8.62l.09.18,1-8.91"/><path class="cls-14" d="M163.25,385.64l-.14.11c-.07.63-.15,1.26-.22,1.9l.14-.11.22-1.9"/><path class="cls-6" d="M140.62,353.14l20.16,40.8c.89-8.05,1.81-15.62,2.61-22.9a47,47,0,0,1-9-4.11,37.6,37.6,0,0,1-10.89-9.78,39.19,39.19,0,0,1-2.69-3.86l-.2-.15"/><path class="cls-7" d="M163.39,371c-.8,7.28-1.72,14.85-2.61,22.9l1.15,2.33c.31-2.94.64-5.81,1-8.62.07-.64.15-1.27.22-1.9.56-4.9,1.12-9.64,1.63-14.27l-1.35-.44"/><path class="cls-6" d="M239.35,356.5a38.13,38.13,0,0,1-11.6,10.43,47,47,0,0,1-8.67,4c.87,7.9,1.89,16.15,2.84,25l17.43-39.39"/><path class="cls-7" d="M219.08,370.89l-1.35.44c.94,8.55,2.05,17.47,3.07,27.11l1.12-2.55c-.95-8.85-2-17.1-2.84-25"/><path class="cls-2" d="M239.88,235.59C236,198.1,225.05,174.1,198,173.69c-2.41,0-11.16,0-13.57,0-27,.41-37.92,24.41-41.85,61.9s-12.64,78.9-6.1,104.62c6.21,24.41,24.33,33.94,54.41,33.94s48.86-9.53,55.06-33.94c6.54-25.72-2.18-67.13-6.1-104.62"/><path class="cls-3" d="M239.88,235.59l.69-.07c-2-18.8-5.68-34.25-12.36-45.15a36.59,36.59,0,0,0-12.44-12.7A35.21,35.21,0,0,0,198,173l-6.79,0-6.8,0a35.21,35.21,0,0,0-17.73,4.68c-7.5,4.44-13,11.89-16.91,21.71s-6.41,22-7.89,36.14c-2.9,27.78-8.46,57.76-8.47,82a94.53,94.53,0,0,0,2.39,22.88c3.12,12.34,9.33,21,18.56,26.55s21.41,7.92,36.52,7.92,27.44-2.39,36.83-7.92,15.77-14.21,18.9-26.55A94.06,94.06,0,0,0,249,317.5c0-24.22-5.56-54.2-8.46-82l-.69.07-.69.07c2.91,27.85,8.46,57.82,8.45,81.84A93.34,93.34,0,0,1,245.31,340c-3.08,12.06-9.19,20.35-18.26,25.69s-21.16,7.73-36.13,7.73-26.9-2.38-35.8-7.72-14.86-13.63-17.94-25.7a93.34,93.34,0,0,1-2.33-22.54c0-24,5.54-54,8.45-81.84,2-18.69,5.66-34,12.17-44.56a35.28,35.28,0,0,1,12-12.24,33.79,33.79,0,0,1,17-4.47c1.2,0,4,0,6.78,0s5.57,0,6.77,0a33.76,33.76,0,0,1,17,4.47c7.16,4.24,12.45,11.39,16.33,21s6.33,21.74,7.8,35.76l.69-.07"/><path class="cls-15" d="M230.51,263.78c-3.13-29.87-11.81-66.33-33.34-66.66-1.92,0-8.89,0-10.81,0-21.52.33-30.2,36.79-33.33,66.66s-10.07,62.85-4.86,83.33c4.94,19.45,19.38,27,43.34,27s38.92-7.59,43.86-27c5.21-20.48-1.74-53.47-4.86-83.33"/><path class="cls-16" d="M230.51,263.78l.69-.08c-1.57-15-4.52-31.59-9.81-44.59-2.65-6.5-5.89-12.1-9.87-16.12s-8.75-6.48-14.33-6.57l-5.42,0-5.42,0C180.77,196.51,176,199,172,203c-6,6-10.27,15.61-13.41,26.47a202.06,202.06,0,0,0-6.27,34.24c-2.32,22.13-6.74,46-6.75,65.33a75.38,75.38,0,0,0,1.9,18.26c2.5,9.85,7.47,16.81,14.86,21.23s17.11,6.33,29.16,6.33,21.9-1.9,29.41-6.33,12.63-11.37,15.12-21.23a74.88,74.88,0,0,0,1.9-18.26c0-19.32-4.43-43.2-6.74-65.33l-.69.08-.69.07c2.32,22.19,6.74,46.06,6.73,65.18a74,74,0,0,1-1.85,17.91c-2.45,9.58-7.29,16.14-14.48,20.39s-16.8,6.13-28.71,6.13-21.38-1.9-28.45-6.13-11.77-10.8-14.22-20.39A73.53,73.53,0,0,1,147,329c0-19.12,4.41-43,6.73-65.18,1.56-14.89,4.51-31.43,9.72-44.21,2.6-6.4,5.77-11.84,9.57-15.68s8.19-6.06,13.36-6.14c1,0,3.18,0,5.4,0s4.44,0,5.39,0c5.18.08,9.57,2.31,13.37,6.14,5.7,5.75,10,15.14,13.07,25.88a202.21,202.21,0,0,1,6.22,34l.69-.07"/><path class="cls-12" d="M240.19,232.12c.13,1.12.26,2.25.38,3.4l-.69.07h0l.69-.07.27,2.49c-.15-1.56-.35-3.6-.6-5.85l-.05,0M237,213l-.07,0,0,.14.13.08L237,213"/><path class="cls-13" d="M237.38,215q1.56,7.09,2.57,15.16l.08.06a137.26,137.26,0,0,0-2.37-15.06l-.28-.16"/><path class="cls-14" d="M240,230.18l.24,1.94.05,0c-.06-.62-.14-1.27-.21-1.92l-.08-.06m-3-17c.15.62.29,1.24.43,1.87l.28.16a19.77,19.77,0,0,0-.58-2l-.13-.08"/><path class="cls-7" d="M240.57,235.52l-.69.07-.69.07c.15,1.49.32,3,.49,4.49.93.64,1.44,1,1.44,1s-.1-1.22-.28-3.16l-.27-2.49M236.92,213l-1.35.35a178.36,178.36,0,0,1,3.62,22.3l.69-.07.69-.07c-.12-1.15-.25-2.28-.38-3.4l-.24-1.94q-1-8.06-2.57-15.16c-.14-.63-.28-1.25-.43-1.87l0-.14"/><path class="cls-7" d="M144.76,217.22l-2.43,14.68,1.44-.32c.6-5,1.35-9.72,2.26-14.15l-1.27-.21"/><path class="cls-17" d="M218.92,216.89A234.06,234.06,0,0,1,180,220.13c-6.25,0-11.82-.25-16.5-.61l-.05.12c-1.12,2.75-2.14,5.67-3.06,8.72a278.24,278.24,0,0,1,33.32-3.88c.68,0,1.36,0,2,0,10.19,0,20.24,3.27,28.28,6.92l-.42-1.51a96.65,96.65,0,0,0-4.68-13"/><path class="cls-18" d="M162,219.4c-1.18,2.91-2.24,6-3.19,9.22l1.53-.26c.92-3.05,1.94-6,3.06-8.72l.05-.12L162,219.4m58.29-2.75-1.41.24a96.65,96.65,0,0,1,4.68,13l.42,1.51,1.65.77a110.19,110.19,0,0,0-4.28-13c-.35-.84-.7-1.66-1.06-2.46"/><path class="cls-2" d="M330.06,115.06c0,60.32-59.83,103-144.7,103.65-98.81.81-130.79-48.9-130.79-109.22S100.48.26,191.62,1c89,.7,138.44,53.77,138.44,114.09"/><path class="cls-3" d="M329.43,114.79h-.69c0,29.92-14.82,55.43-40.23,73.62s-61.46,29-103.78,29.34h-2.37c-48.36,0-80.25-12.31-100.07-32S54.65,139,54.64,109.23,65.88,52.54,88.26,33,144.24,1.39,189,1.39h2c44.39.35,78.82,13.74,102.15,34.51a104.35,104.35,0,0,1,35.6,78.88h1.39a105.76,105.76,0,0,0-36.06-79.92C270.44,13.84,235.66.35,191,0h-2C144,0,110,12.2,87.35,32s-34.1,47.13-34.1,77.25,7.91,57.55,28.06,77.54,52.47,32.38,101.05,32.38h2.38c42.55-.35,78.86-11.21,104.57-29.6s40.82-44.35,40.82-74.75h-.7"/><g class="cls-19"><path class="cls-20" d="M111.71,149.11s3.43,14.46,34.79,14.46c28.19,0,31.16-22.36,29.41-26.13-5.19-11.2-14.91-21.58-31.25-21.58s-21.65,10-26.28,14.74c-5.45,5.62-6.67,18.51-6.67,18.51"/><path class="cls-21" d="M163.19,142.57a16.09,16.09,0,1,1-16.09-16,16,16,0,0,1,16.09,16"/><path class="cls-22" d="M140.14,117.51a28.72,28.72,0,0,0-13.27,4.13c-3.8,3-6.23,6.63-8.49,9-2.47,2.54-4.07,6.57-5.08,10.22-.26,1.82-.91,4.19-1.29,6-.14.93-.23,1.63-.27,2s.08.67.27.75l.06,0c1,0,6.24-8.66,19.89-12.42A16.11,16.11,0,0,1,162.77,139a31.53,31.53,0,0,1,11.89,8.77,20.92,20.92,0,0,0,1.65-7.67c0-.21,0-.41,0-.6a4.72,4.72,0,0,0-.21-.9,41.88,41.88,0,0,0-2.09-4.82,36.88,36.88,0,0,0-11.92-13c-4.38-1.76-13.5-3.24-21.94-3.24"/><path class="cls-23" d="M147.1,126.58A16.08,16.08,0,0,0,132,137.17a50.05,50.05,0,0,1,13.42-1.71A42.32,42.32,0,0,1,162.77,139a16.07,16.07,0,0,0-15.67-12.37"/><path class="cls-11" d="M156.48,135.23a2.94,2.94,0,1,1-2.94-2.92A2.93,2.93,0,0,1,156.48,135.23Z"/></g><path d="M127,92.62c2.29-4.93,4.49-6.74,8.7-9.2a27.87,27.87,0,0,1,14.06-3.52c4.82,0,10.21.83,14.4,3.51s6.7,5.46,7.49,10.1c-2.88-3.62-5.31-5.83-9.09-7.38a36.59,36.59,0,0,0-12.8-2.89,39.3,39.3,0,0,0-12.54,2.55A25.75,25.75,0,0,0,127,92.62Z"/><path d="M262.37,92.62c-2.29-4.93-4.48-6.74-8.7-9.2a27.85,27.85,0,0,0-14.06-3.52c-4.82,0-10.21.83-14.4,3.51s-6.7,5.46-7.48,10.1c2.87-3.62,5.31-5.83,9.08-7.38a36.59,36.59,0,0,1,12.8-2.89,39.24,39.24,0,0,1,12.54,2.55A25.68,25.68,0,0,1,262.37,92.62Z"/><path class="cls-15" d="M103.41,202.84s49.36-6.65,66.29-21.26,17.16-14.38,25.51-14.38,18.32,5.56,25.5,13.91,44.87,18.67,65,9.86c0,0-27.71,18-57.16,23.07s-57.89,7-82.93,2.58-42.26-13.78-42.26-13.78"/><path class="cls-16" d="M103.41,202.84l.09.69s12.37-1.67,26.87-5.17a185.25,185.25,0,0,0,22.08-6.65c7.05-2.7,13.36-5.87,17.7-9.61,8.2-7.07,12.48-10.66,15.56-12.42a12.1,12.1,0,0,1,4.09-1.54,27.53,27.53,0,0,1,4.66-.25h.75c8,0,17.9,5.44,25,13.68a22.73,22.73,0,0,0,6.89,4.8c9.28,4.63,25,8.66,39.4,8.66,7.14,0,14-1,19.56-3.42l-.28-.64-.38-.59s-.42.28-1.23.78c-5.67,3.49-30.07,17.77-55.67,22.2-18,3.12-35.67,5-52.37,5a175.9,175.9,0,0,1-30.32-2.45,162.53,162.53,0,0,1-30.39-8.51c-3.7-1.44-6.62-2.75-8.61-3.69-1-.47-1.76-.85-2.28-1.11l-.58-.3-.19-.1-.33.61.09.69-.09-.69-.34.61c.05,0,17.32,9.43,42.48,13.86a176.85,176.85,0,0,0,30.56,2.47c16.8,0,34.52-1.92,52.61-5.05,29.63-5.15,57.38-23.16,57.42-23.18a.7.7,0,0,0,.23-.91.69.69,0,0,0-.89-.31c-5.33,2.33-12,3.31-19,3.31a99.76,99.76,0,0,1-27.87-4.3,69.3,69.3,0,0,1-10.9-4.22,21.45,21.45,0,0,1-6.47-4.46c-7.3-8.47-17.38-14.14-26-14.16h-.75a28.22,28.22,0,0,0-4.9.27c-2.22.38-4.27,1.33-7.24,3.47s-6.92,5.5-13.08,10.81c-4.12,3.56-10.32,6.7-17.29,9.36-10.45,4-22.62,6.94-32.17,8.87-4.77,1-8.89,1.69-11.82,2.16-1.46.24-2.62.42-3.42.53l-1.23.18a.7.7,0,0,0-.24,1.3l.34-.61"/><polyline class="cls-11" points="167.58 190.45 172.37 200.79 175.67 191.84 167.58 190.45"/><polyline class="cls-11" points="222.1 190.71 217.32 201.06 214.02 192.1 222.1 190.71"/><path class="cls-24" d="M179.76,192.45l16.08-9.57L210.13,192s-2.87,9.28-14.9,9.28c-15.33,0-15.47-8.78-15.47-8.78"/><path class="cls-15" d="M195.14,167.45s30.5-1.58,44.64,1S250.33,187,241.17,190s-30.31,8-43.24-1c-4.71-3.3-2.79-21.55-2.79-21.55"/><path class="cls-16" d="M195.14,167.45l0,.7s.58,0,1.62-.08c3.12-.14,10.37-.41,18.41-.41,8.64,0,18.22.32,24.45,1.45a11.26,11.26,0,0,1,6.85,3.53,8.69,8.69,0,0,1,2,5.75,12.22,12.22,0,0,1-2.11,6.69,10.83,10.83,0,0,1-5.48,4.3,79.22,79.22,0,0,1-23.57,4.09c-6.85,0-13.71-1.31-19-5a4.47,4.47,0,0,1-1.36-1.84c-1.17-2.59-1.53-7.13-1.52-11.09,0-2.16.1-4.16.19-5.61.05-.73.1-1.32.14-1.73s.05-.64.05-.64l-.69-.07,0,.7,0-.7-.69-.07s-.39,3.72-.39,8.12a45.18,45.18,0,0,0,.63,8.2,15.12,15.12,0,0,0,1,3.46,5.76,5.76,0,0,0,1.82,2.41c5.68,4,12.83,5.29,19.85,5.29a80.72,80.72,0,0,0,24-4.16,12.2,12.2,0,0,0,6.19-4.85,13.52,13.52,0,0,0,2.35-7.46,10.13,10.13,0,0,0-2.36-6.66,12.72,12.72,0,0,0-7.66-4c-6.42-1.16-16-1.47-24.7-1.47-10.76,0-20.1.49-20.1.49l-.6,0-.06.59.69.07"/><path class="cls-15" d="M195.4,167.45s-30.5-1.58-44.64,1S140.21,187,149.37,190s30.31,8,43.24-1c4.71-3.3,2.79-21.55,2.79-21.55"/><path class="cls-16" d="M195.4,167.45l0-.69s-9.34-.49-20.1-.49c-8.69,0-18.28.31-24.7,1.47a12.72,12.72,0,0,0-7.66,4,10.13,10.13,0,0,0-2.36,6.66,13.52,13.52,0,0,0,2.35,7.46,12.2,12.2,0,0,0,6.19,4.85,80.72,80.72,0,0,0,24,4.16c7,0,14.17-1.32,19.85-5.29a5.86,5.86,0,0,0,1.83-2.41c1.33-3,1.63-7.61,1.64-11.66,0-4.4-.39-8.11-.39-8.12l-.06-.59-.6,0,0,.69-.69.07s0,.23,0,.64c.11,1.23.33,4.1.33,7.34a45.35,45.35,0,0,1-.6,7.94,14.81,14.81,0,0,1-.92,3.15,4.47,4.47,0,0,1-1.36,1.84c-5.34,3.73-12.2,5-19.05,5a79.22,79.22,0,0,1-23.57-4.09,10.83,10.83,0,0,1-5.48-4.3,12.22,12.22,0,0,1-2.11-6.69,8.69,8.69,0,0,1,2-5.75,11.26,11.26,0,0,1,6.85-3.53c6.23-1.13,15.81-1.45,24.45-1.45,5.36,0,10.37.12,14,.24,1.83.06,3.33.12,4.37.17s1.62.08,1.62.08l0-.7-.69.07.69-.07"/><path class="cls-25" d="M205.3,166c-1.25-.9-4.13-.42-10.52-.4s-9.27-.5-10.52.4,1,7.89,5.34,8.16c3.61.21,4.51.25,5.08.26h.19c.58,0,1.35,0,5-.26,4.32-.27,6.75-7.24,5.47-8.16"/><path class="cls-12" d="M291.15,187.84l-.89.37-1.84,1.33c-.65.47-1.3.93-2,1.38a.65.65,0,0,1,0,.24q2.38-1.6,4.72-3.32"/><path class="cls-13" d="M284.78,190.38c-1.35.52-2.9,1.1-4.62,1.74A37.14,37.14,0,0,0,283.9,191l.88-.59"/><path class="cls-14" d="M290.26,188.21c-1,.42-2.9,1.17-5.48,2.17l-.88.59c.54-.2,1.06-.41,1.58-.64a.71.71,0,0,1,.28-.06.69.69,0,0,1,.61.37.6.6,0,0,1,.08.28c.67-.45,1.32-.91,2-1.38l1.84-1.33"/><path class="cls-12" d="M280.86,194.72c-1.72,1-3.82,2.15-6.24,3.43q-5.4,2.91-11.22,5.46a172.44,172.44,0,0,1-19,7.28,162.56,162.56,0,0,0,36.5-16.17"/><path class="cls-14" d="M274.62,198.15c-3.23,1.69-7,3.57-11.22,5.46q5.82-2.55,11.22-5.46"/><path class="cls-12" d="M94.1,198.1c2.92,1.88,5.84,3.61,8.79,5.2a.67.67,0,0,1-.16-.3q-4.26-2.25-8.11-4.78l-.52-.12"/><path class="cls-13" d="M98.85,199.23c1.64,1,3.34,1.92,5.08,2.83l.61-.09c.8-.11,2-.29,3.42-.53l.37-.06c-3.83-.85-7.07-1.59-9.48-2.15"/><path class="cls-14" d="M94.62,198.22q3.85,2.53,8.11,4.78a.7.7,0,0,1,0-.29.71.71,0,0,1,.59-.56l.62-.09c-1.74-.91-3.44-1.85-5.08-2.83-2.06-.48-3.51-.83-4.23-1"/><path class="cls-12" d="M240.24,212.1c-1.08.3-2.17.59-3.26.87v0c1.08-.28,2.16-.58,3.25-.89m-134.77-7.44a133.87,133.87,0,0,0,38.87,12.49l.07-.05a158.77,158.77,0,0,1-38.94-12.44"/><path class="cls-14" d="M144.41,217.1l-.07.05.31,0v0l-.25-.05"/><path class="cls-14" d="M144.66,217.15v0l.11,0v-.05h0l-.16,0"/><path class="cls-26" d="M205.84,218c-7.17.8-14.23,1.35-21.16,1.6l2,0c.94,0,1.84,0,2.68,0,4.25-.11,10.18-.75,16.43-1.59"/><path class="cls-27" d="M237,213h-.07v0l.07,0v0"/><path class="cls-28" d="M235.56,213.31c-2.26.54-4.55,1-6.84,1.42-2.89.5-5.76,1-8.62,1.4.08.17.16.34.23.52,5-.89,10.1-2,15.24-3.29v-.05"/><path class="cls-29" d="M236.91,213q-.67.18-1.35.33v.05l1.35-.35v0"/><path class="cls-28" d="M146,217.39v0c4.65.75,9.46,1.35,14.45,1.83l1.56.14,0-.1a159.41,159.41,0,0,1-16-1.91"/><path class="cls-29" d="M144.77,217.17v.05l1.27.21v0l-.48-.08-.73-.13h0"/><path class="cls-30" d="M218.67,216.34l-.24,0q-4.67.74-9.46,1.27l-3.13.37c-6.25.84-12.18,1.48-16.43,1.59-.84,0-1.74,0-2.68,0l-2,0q-4.32.16-8.57.16c-4.25,0-8.45-.12-12.57-.38l0,.12c4.68.36,10.25.61,16.5.61a234.06,234.06,0,0,0,38.93-3.24c-.09-.18-.17-.36-.25-.55"/><path class="cls-31" d="M162.07,219.3l0,.1,1.45.12,0-.12-1.47-.1m58-3.17-1.43.21c.08.19.16.37.25.55l1.41-.24c-.07-.18-.15-.35-.23-.52"/><path class="cls-14" d="M218.43,216.38c-3.17.47-6.33.89-9.46,1.27q4.8-.54,9.46-1.27"/><path class="cls-17" d="M280.05,193.58a52.52,52.52,0,0,1-7.2,1.17c-20.36,7.1-54.43,17.23-85.06,18.13-.82,0-1.66,0-2.52,0-20.19,0-53-6.36-73.3-10.75-2.66.47-4.82.81-6.29,1l1.11.53c2,.94,4.91,2.25,8.61,3.69a162.53,162.53,0,0,0,30.39,8.51,175.9,175.9,0,0,0,30.32,2.45c16.7,0,34.34-1.91,52.37-5,21.5-3.72,42.15-14.39,51.57-19.78"/><path class="cls-18" d="M285.76,190.27a.71.71,0,0,0-.28.06c-.52.23-1,.44-1.58.64a37.14,37.14,0,0,1-3.74,1.15c-2.17.8-4.62,1.69-7.31,2.63a52.52,52.52,0,0,0,7.2-1.17c-9.42,5.39-30.07,16.06-51.57,19.78-18,3.12-35.67,5-52.37,5a175.9,175.9,0,0,1-30.32-2.45,162.53,162.53,0,0,1-30.39-8.51c-3.7-1.44-6.62-2.75-8.61-3.69l-1.11-.53c1.47-.23,3.63-.57,6.29-1l-3.64-.79-.37.06c-1.46.24-2.62.42-3.42.53l-.61.09-.62.09a.71.71,0,0,0-.59.56.7.7,0,0,0,0,.29.67.67,0,0,0,.16.3l.2.11.32-.57-.32.57c.79.43,1.59.84,2.38,1.25a158.77,158.77,0,0,0,38.94,12.44l.25.05.16,0,.73.13.48.08a159.41,159.41,0,0,0,16,1.91l1.47.1c4.12.26,8.32.38,12.57.38q4.24,0,8.57-.16c6.93-.25,14-.8,21.16-1.6l3.13-.37c3.13-.38,6.29-.8,9.46-1.27l.24,0,1.43-.21c2.86-.44,5.73-.9,8.62-1.4,2.29-.4,4.58-.88,6.84-1.42q.67-.15,1.35-.33H237c1.09-.28,2.18-.57,3.26-.87,1.37-.39,2.75-.79,4.12-1.21a172.44,172.44,0,0,0,19-7.28c4.2-1.89,8-3.77,11.22-5.46,2.42-1.28,4.52-2.44,6.24-3.43,1.88-1.14,3.73-2.32,5.57-3.56a.65.65,0,0,0,0-.24.6.6,0,0,0-.08-.28.69.69,0,0,0-.61-.37"/><path class="cls-14" d="M241.68,7.16c-.05.47-.1.94-.16,1.41l.08,0c.05-.47.1-.94.14-1.41l-.06,0"/><path class="cls-13" d="M137.24,345.1c0,.23,0,.47-.05.71a44.64,44.64,0,0,0,2.3,5.16c.42.79.86,1.56,1.33,2.32l.25.19a47,47,0,0,1-3.83-8.38"/><path class="cls-14" d="M136.14,341.54c0,.28-.07.57-.1.86.34,1.14.72,2.28,1.15,3.41,0-.24,0-.48.05-.71-.4-1.15-.76-2.33-1.1-3.56"/><path class="cls-12" d="M247,339.09c-.1.44-.21.87-.32,1.29s-.2.78-.3,1.16c0,0,0,.07,0,.1.22-.84.42-1.69.61-2.55"/><path class="cls-13" d="M245.25,345.08a46.55,46.55,0,0,1-3.24,7.25c.28-.45.54-.9.79-1.36a34.79,34.79,0,0,0,2.46-5.65v-.24"/><path class="cls-14" d="M246.35,341.54c-.34,1.22-.7,2.4-1.1,3.54v.24c.41-1.2.78-2.43,1.1-3.68,0,0,0-.06,0-.1"/><path class="cls-13" d="M176.81,374l-.09.09a92.66,92.66,0,0,0,10.7.85l.11-.16c-3.77-.1-7.34-.35-10.72-.78"/><path class="cls-14" d="M175.13,373.8l-.07.07c.55.09,1.1.18,1.66.25l.09-.09-1.68-.23"/><path class="cls-28" d="M203.34,374.23q-3.41.36-7.05.51c-1.55.07-3.15.11-4.78.11h-.59c-1.15,0-2.28,0-3.39,0l-.11.16c.9,0,1.81,0,2.74,0s1.92,0,2.9,0c3.66-.09,7.08-.34,10.28-.74"/><path class="cls-28" d="M140.82,353.29a39.19,39.19,0,0,0,2.69,3.86,39.61,39.61,0,0,1-2.44-3.67l-.25-.19"/><path class="cls-6" d="M135,324.54a81.37,81.37,0,0,0,2.16,15.5c3.08,12.07,9,20.35,17.94,25.7a47.23,47.23,0,0,0,10.8,4.65,36.49,36.49,0,0,1-3.57-1.87C155,364.1,150,357.14,147.49,347.29a52.92,52.92,0,0,1-1.05-5.33A37.77,37.77,0,0,1,135,324.54m112.55-2.48c-1.52,6-4,13.38-10.44,19.7a53.58,53.58,0,0,1-1.09,5.53c-2.49,9.86-7.6,16.82-15.12,21.23-.36.22-.72.42-1.09.62a44.42,44.42,0,0,0,7.22-3.41c9.07-5.34,15.18-13.63,18.26-25.69a84.64,84.64,0,0,0,2.26-18"/><path class="cls-7" d="M248.89,316.71c-.41,1.56-.81,3.37-1.32,5.35a84.64,84.64,0,0,1-2.26,18c-3.08,12.06-9.19,20.35-18.26,25.69a44.42,44.42,0,0,1-7.22,3.41c-6.32,3.42-14.19,5.17-23.54,5.6q3.65-.15,7.05-.51c21-2.62,32.42-11.55,38.67-21.9a46.55,46.55,0,0,0,3.24-7.25c.4-1.14.76-2.32,1.1-3.54.1-.38.21-.77.3-1.16s.22-.85.32-1.29a102.33,102.33,0,0,0,1.92-22.38m-115.31-.17s-.06.58-.12,1.61a92.41,92.41,0,0,0,2.38,22.23c.09.39.2.78.3,1.16.34,1.23.7,2.41,1.1,3.56a47,47,0,0,0,3.83,8.38,39.61,39.61,0,0,0,2.44,3.67c5.78,7.31,14.32,12.77,26.09,15.63q2.67.6,5.53,1l1.68.23c3.38.43,6.95.68,10.72.78,1.11,0,2.24,0,3.39,0h.31c-10.08,0-18.51-1.39-25.31-4.46a47.23,47.23,0,0,1-10.8-4.65c-8.9-5.35-14.86-13.63-17.94-25.7a81.37,81.37,0,0,1-2.16-15.5,30.14,30.14,0,0,1-1.44-8"/><path class="cls-17" d="M235.48,343.27c-7.95,6.81-21.19,12-44,12-21.43,0-34.93-5.29-43.43-12,.22,1.26.47,2.47.77,3.64,2.45,9.59,7.17,16.15,14.22,20.39s16.53,6.13,28.43,6.13h0c11.91,0,21.51-1.9,28.71-6.13s12-10.81,14.48-20.39c.3-1.18.56-2.4.78-3.67"/><path class="cls-18" d="M237.13,341.76c-.52.51-1.07,1-1.65,1.51-.22,1.27-.48,2.49-.78,3.67-2.45,9.58-7.29,16.14-14.48,20.39s-16.8,6.13-28.71,6.13h0c-11.9,0-21.37-1.9-28.43-6.13s-11.77-10.8-14.22-20.39c-.3-1.17-.55-2.38-.77-3.64-.57-.44-1.11-.89-1.63-1.34a52.92,52.92,0,0,0,1.05,5.33c2.5,9.85,7.47,16.81,14.86,21.23a36.49,36.49,0,0,0,3.57,1.87c6.8,3.07,15.23,4.43,25.31,4.46h.28c1.63,0,3.23,0,4.78-.11,9.35-.43,17.22-2.18,23.54-5.6.37-.2.73-.4,1.09-.62,7.52-4.41,12.63-11.37,15.12-21.23a53.58,53.58,0,0,0,1.09-5.53"/><path class="cls-13" d="M142,184.26c.15.6,1.3,4.59,6.51,6.45l1.35.47.34-.13-1.08-.35a12.2,12.2,0,0,1-6.19-4.85,15.72,15.72,0,0,1-.93-1.59m106.92-1a14.73,14.73,0,0,1-1.37,2.57,12.46,12.46,0,0,1-5.31,4.52l.22.06A11.72,11.72,0,0,0,245,189a14.09,14.09,0,0,0,4-5.69"/><path class="cls-26" d="M180.21,194.36a46.47,46.47,0,0,1-5.65.48l-.34.91c.85,0,1.68.05,2.48.05,1.47,0,2.86-.05,4.17-.12a8.11,8.11,0,0,1-.66-1.32m28.86-.21a14.13,14.13,0,0,1-1.13,1.6c2,.19,4,.28,6,.28l1.48,0-.44-1.2a43.85,43.85,0,0,1-6-.66m-56.63-2.44-.42.16a84.79,84.79,0,0,0,17.89,3.62l-.34-.74a81.66,81.66,0,0,1-17.13-3m87.48-.54a82.53,82.53,0,0,1-19.7,3.62l-.47,1a76.58,76.58,0,0,0,20.65-4.48l-.48-.14"/><path class="cls-18" d="M150.23,191.05l-.34.13,2.13.69.42-.16c-.79-.22-1.52-.44-2.21-.66m92-.68c-.29.12-.58.23-.88.33-.46.16-.95.31-1.47.47l.48.14c.78-.3,1.47-.6,2.09-.88l-.22-.06"/><path class="cls-12" d="M169.57,194.75l.34.74c1.5.13,2.93.22,4.31.26l.34-.91-1.4,0c-1.2,0-2.4,0-3.59-.11"/><path class="cls-12" d="M220.22,194.79c-.94,0-1.89.07-2.84.07-.79,0-1.58,0-2.36-.05l.44,1.2c1.45,0,2.88-.1,4.29-.22l.47-1"/><path class="cls-32" d="M195.27,186c-.13.4-.28.78-.43,1.14a5.86,5.86,0,0,1-1.83,2.41,29.85,29.85,0,0,1-12.8,4.79,8.11,8.11,0,0,0,.66,1.32A51.63,51.63,0,0,0,195.5,193a49.3,49.3,0,0,0,12.44,2.75,14.13,14.13,0,0,0,1.13-1.6,29.25,29.25,0,0,1-11.54-4.58,5.76,5.76,0,0,1-1.82-2.41,9.63,9.63,0,0,1-.44-1.14"/><path class="cls-17" d="M247.91,182.09c-5,4.28-17.57,6.72-26.83,6.72-2.38,0-5.34.08-7.66-.14-8.58-.8-15.93-1.45-16.88-3.92a4.38,4.38,0,0,0-.39-.81,14.32,14.32,0,0,0,.82,2.65,4.47,4.47,0,0,0,1.36,1.84c5.33,3.73,12.19,5,19,5h0A79.22,79.22,0,0,0,241,189.38a10.83,10.83,0,0,0,5.48-4.3,13,13,0,0,0,1.48-3"/><path class="cls-18" d="M249.76,179.66a6.22,6.22,0,0,1-1.85,2.43,13,13,0,0,1-1.48,3,10.83,10.83,0,0,1-5.48,4.3,79.22,79.22,0,0,1-23.57,4.09h0c-6.84,0-13.7-1.31-19-5a4.47,4.47,0,0,1-1.36-1.84,14.32,14.32,0,0,1-.82-2.65,2.5,2.5,0,0,0-.27-.38,18.82,18.82,0,0,1-.61,2.46,9.63,9.63,0,0,0,.44,1.14,5.76,5.76,0,0,0,1.82,2.41,29.25,29.25,0,0,0,11.54,4.58,43.85,43.85,0,0,0,6,.66c.78,0,1.57.05,2.36.05,1,0,1.9,0,2.84-.07a82.53,82.53,0,0,0,19.7-3.62c.52-.16,1-.31,1.47-.47.3-.1.59-.21.88-.33a12.46,12.46,0,0,0,5.31-4.52,14.73,14.73,0,0,0,1.37-2.57,12,12,0,0,0,.81-3.62"/><path class="cls-17" d="M194.46,183.57a3.12,3.12,0,0,0-.47,1.08c-.75,2.78-7.79,4.47-17.81,4.47-3,0-6.28-.15-9.73-.47a127.87,127.87,0,0,1-22.54-3.89l.2.32a10.83,10.83,0,0,0,5.48,4.3,79.15,79.15,0,0,0,23.56,4.09h0c6.85,0,13.71-1.31,19.05-5a4.47,4.47,0,0,0,1.36-1.84,14.09,14.09,0,0,0,.89-3"/><path class="cls-18" d="M195.15,183.14a.91.91,0,0,0-.69.43,14.09,14.09,0,0,1-.89,3,4.47,4.47,0,0,1-1.36,1.84c-5.34,3.73-12.2,5-19.05,5h0a79.15,79.15,0,0,1-23.56-4.09,10.83,10.83,0,0,1-5.48-4.3l-.2-.32c-1.25-.35-1.89-.58-1.89-.58a.45.45,0,0,0,0,.08,15.72,15.72,0,0,0,.93,1.59,12.2,12.2,0,0,0,6.19,4.85l1.08.35c.69.22,1.42.44,2.21.66a81.66,81.66,0,0,0,17.13,3c1.19.07,2.39.11,3.59.11l1.4,0a46.47,46.47,0,0,0,5.65-.48,29.85,29.85,0,0,0,12.8-4.79,5.86,5.86,0,0,0,1.83-2.41c.15-.36.3-.74.43-1.14a18.82,18.82,0,0,0,.61-2.46,1,1,0,0,0-.73-.42"/><path class="cls-12" d="M128.39,448.18a17.74,17.74,0,0,1-3,.26c-.51,0-1.05,0-1.6-.08a14.68,14.68,0,0,0,1.8.11,13.22,13.22,0,0,0,2.79-.29"/><path class="cls-6" d="M112.53,431V431c0,4.78,1.62,9.5,3.5,11.84a10.65,10.65,0,0,0,4.63,3.36,13.43,13.43,0,0,0,4.74.81h0a15.87,15.87,0,0,0,3.87-.46l.07,0,.33-.1.28.2,0,0,.14.09c.13.09.33.21.59.36a18.4,18.4,0,0,0,2.35,1.09,25.29,25.29,0,0,0,9.19,1.62,33.87,33.87,0,0,0,8-1,11.47,11.47,0,0,0,4.58-2.12,8.94,8.94,0,0,0,2.57-3.47,22.69,22.69,0,0,0,1.41-7.68,28.06,28.06,0,0,1-10.33,1.58,93.19,93.19,0,0,1-18.82-2.35,14.33,14.33,0,0,1-5.15,1c-5.44,0-9.91-3.06-12-4.81"/><path class="cls-7" d="M111.2,429.75a24.08,24.08,0,0,0,0,3.39,20.87,20.87,0,0,0,3.7,10.6,12,12,0,0,0,5.23,3.79l.14.06a18.13,18.13,0,0,0,3.5.77c.55.05,1.09.08,1.6.08a17.74,17.74,0,0,0,3-.26,7.26,7.26,0,0,0,1-.28.67.67,0,0,0,.09.14,23.57,23.57,0,0,0,11,3.15h.59l1.19,0c.7,0,1.37,0,2-.05a35.78,35.78,0,0,0,6.35-1,12.68,12.68,0,0,0,5.12-2.39,11.34,11.34,0,0,0,3.79-6.52c.1-.4.18-.81.25-1.23a28.6,28.6,0,0,0,.41-5.14,11.12,11.12,0,0,1-1.34.66,22.69,22.69,0,0,1-1.41,7.68,8.94,8.94,0,0,1-2.57,3.47,11.47,11.47,0,0,1-4.58,2.12,33.87,33.87,0,0,1-8,1,25.29,25.29,0,0,1-9.19-1.62,18.4,18.4,0,0,1-2.35-1.09c-.26-.15-.46-.27-.59-.36l-.14-.09,0,0-.28-.2-.33.1-.07,0a15.87,15.87,0,0,1-3.87.46h0a13.43,13.43,0,0,1-4.74-.81,10.65,10.65,0,0,1-4.63-3.36c-1.88-2.34-3.51-7.06-3.5-11.84V431a14.91,14.91,0,0,1-1.33-1.2"/><path class="cls-6" d="M223.62,427.72c0,1.46-.05,2.86-.05,4.19a40.65,40.65,0,0,0,.74,9,10,10,0,0,0,3.31,5.76,11.47,11.47,0,0,0,4.58,2.12,33.87,33.87,0,0,0,8,1c7.53,0,11.82-2.85,12.27-3.16l0,0,.28-.2.33.1.07,0,.21.05c.19,0,.47.11.82.17a17.1,17.1,0,0,0,2.84.24,13.26,13.26,0,0,0,4.75-.81,10.65,10.65,0,0,0,4.63-3.36,19.5,19.5,0,0,0,3.39-9.64,18.8,18.8,0,0,1-10.26,2.89,24.38,24.38,0,0,1-9.23-1.84,23.88,23.88,0,0,1-9.5,2.09c-8.77,0-14.7-5.62-17.25-8.65"/><path class="cls-7" d="M222.26,425.94c0,2.11-.08,4.1-.08,6,0,4.76.25,8.74,1.6,11.89a10.42,10.42,0,0,0,2.13,3.24c1.92,1.81,4.69,2.74,8.54,3.67l.24.06a34.06,34.06,0,0,0,5.55.47,28.15,28.15,0,0,0,6.74-.79,22.9,22.9,0,0,0,6-2.52,15.58,15.58,0,0,0,3.9.44,18.92,18.92,0,0,0,4.45-.53l.25,0a7.58,7.58,0,0,0,.76-.26,12,12,0,0,0,5.23-3.79c2-2.47,3.49-6.76,3.76-11.35v-.2a17.06,17.06,0,0,1-1.46,1,19.5,19.5,0,0,1-3.39,9.64,10.65,10.65,0,0,1-4.63,3.36,13.26,13.26,0,0,1-4.75.81,17.1,17.1,0,0,1-2.84-.24c-.35-.06-.63-.13-.82-.17l-.21-.05-.07,0-.33-.1-.28.2,0,0c-.45.31-4.74,3.16-12.27,3.16a33.87,33.87,0,0,1-8-1,11.47,11.47,0,0,1-4.58-2.12,10,10,0,0,1-3.31-5.76,40.65,40.65,0,0,1-.74-9c0-1.33,0-2.73.05-4.19a19.1,19.1,0,0,1-1.36-1.78"/><path class="cls-26" d="M204.15,171.21h0a5.94,5.94,0,0,1-4.31,2.94l-3.36.19v.09a27.53,27.53,0,0,0,4.16-.33c1.93-.33,3.52-2.89,3.52-2.89"/><path class="cls-26" d="M185.3,171.18s.79,2.93,5,3.11c1.73.08,3.3.13,4.74.15v0h-.4c-.57,0-1.47,0-5.08-.26a5.75,5.75,0,0,1-4.25-2.92l0,0"/><path class="cls-18" d="M196.47,174.34c-.71,0-1.1.06-1.39.06v0h1.39v-.09"/><path class="cls-33" d="M204.14,171.21c-.21.11-3.08,1.61-8.51,1.61h-.11c-5.64,0-8.83-.47-10.17-1.59a5.75,5.75,0,0,0,4.25,2.92c3.61.21,4.51.25,5.08.26h.4c.29,0,.68,0,1.39-.06l3.36-.19a5.94,5.94,0,0,0,4.31-2.94"/><path class="cls-2" d="M145,228.25s-52.79-31.08-77.7-45.13-36-33.8-25.65-44.9,33.3-13.07,40.45,2.72-5.92,21-5.92,21L146,217.43l-1,10.82"/><path class="cls-3" d="M145,228.25l-.36.6-2.31-1.36C131.93,221.35,88.79,196,67,183.72c-9.37-5.29-16.81-11.38-21.93-17.55s-7.94-12.43-7.94-18.11a14.7,14.7,0,0,1,4-10.31c5.27-5.64,13.59-8.94,21.61-8.95a24.14,24.14,0,0,1,11.67,2.81,19.09,19.09,0,0,1,8.31,9,22,22,0,0,1,2.21,9,13.46,13.46,0,0,1-4.25,10,14.54,14.54,0,0,1-4.25,2.87l-.26-.65.43-.55,71.4,55.88-2.87,11.92-.5-.3.36-.6-.85-.65L146,217.43l-71.2-55.72,1.13-.45h0a13.44,13.44,0,0,0,4-2.75,12,12,0,0,0,3.63-8.8,20.64,20.64,0,0,0-2.07-8.48,17.79,17.79,0,0,0-7.72-8.39,22.75,22.75,0,0,0-11-2.64c-7.64,0-15.65,3.2-20.59,8.51a13.29,13.29,0,0,0-3.68,9.36c0,5.2,2.63,11.21,7.62,17.22s12.3,12,21.54,17.23c24.93,14.07,77.71,45.14,77.71,45.14l-.35.6-.53-.46.53.46"/><path class="cls-14" d="M283.69,181.86,306,164.65l-.14-.08,0,0a17.37,17.37,0,0,1-2.67-1.87l-.42-.38a13.45,13.45,0,0,1-4.1-7.92,7.49,7.49,0,0,0,1.9,2,12.15,12.15,0,0,0,3.17,4.9,13.85,13.85,0,0,0,2.64,2c.35.21.65.36.86.46l.23.1.06,0h0l1.14.45-18.3,14.13c-3.26,1.61-5.7,2.89-6.7,3.41"/><path class="cls-6" d="M92.55,175.39,70.49,162.51c3.78-.73,9.24-5.33,12.18-8a12.3,12.3,0,0,1-2.72,4,13.44,13.44,0,0,1-4,2.75h0l-1.13.45,17.72,13.68"/><path class="cls-7" d="M101.29,180.49l-8.74-5.1L74.83,161.71l1.13-.45h0a13.44,13.44,0,0,0,4-2.75,12.3,12.3,0,0,0,2.72-4c1.16-1.07,1.93-1.84,2-1.94a13.34,13.34,0,0,1-4,7.12,15.27,15.27,0,0,1-3.2,2.35l.15.12,0,0,23.65,18.32"/><path class="cls-6" d="M146,217.43c-.91,4.43-1.66,9.16-2.26,14.15,2.48-.55,8-1.72,15.08-3,1-3.21,2-6.31,3.19-9.22l-1.56-.14c-5-.48-9.8-1.08-14.45-1.83"/><path class="cls-2" d="M238.48,230.87s52.78-31.08,77.69-45.14,36-33.79,25.66-44.89-33.3-13.07-40.46,2.71,5.92,21,5.92,21l-70.71,48.71,1.9,17.64"/><path class="cls-3" d="M238.48,230.87l-.35-.6s52.78-31.08,77.7-45.15c9.25-5.21,16.56-11.21,21.55-17.22s7.62-12,7.62-17.22a13.38,13.38,0,0,0-3.68-9.37c-4.95-5.3-13-8.51-20.59-8.5a22.83,22.83,0,0,0-11,2.63,17.77,17.77,0,0,0-7.72,8.4,20.51,20.51,0,0,0-2.08,8.47,12,12,0,0,0,3.82,9,13.85,13.85,0,0,0,2.64,2c.35.21.65.36.86.46l.23.1.06,0h0l1.14.45-71.48,49.37L239,230.41l-.52.46-.35-.6.35.6-.53.46-2.76-17.84L306.87,164l.42.55-.25.64a14.48,14.48,0,0,1-4.26-2.86,13.45,13.45,0,0,1-4.24-10,21.94,21.94,0,0,1,2.2-9,19.17,19.17,0,0,1,8.32-9.05,24.24,24.24,0,0,1,11.67-2.8c8,0,16.33,3.31,21.61,9a14.77,14.77,0,0,1,4.05,10.31c0,5.67-2.83,11.94-7.94,18.11s-12.56,12.26-21.93,17.55c-12.45,7-31.88,18.31-48.19,27.83l-20.86,12.22-6.32,3.71-2.32,1.37-.5.29-.38-.43.53-.46"/><path class="cls-6" d="M290.39,178.45l18.3-14.13-1.14-.45h0l-.06,0-.23-.1c-.21-.1-.51-.25-.86-.46a13.85,13.85,0,0,1-2.64-2,12.15,12.15,0,0,1-3.17-4.9c6.19,4.83,22.74,9.26,22.74,9.26-7.32.56-23.51,8.12-32.93,12.8"/><path class="cls-6" d="M235.57,213.36c-5.14,1.32-10.24,2.4-15.24,3.29.36.8.71,1.62,1.06,2.46a110.19,110.19,0,0,1,4.28,13,104.22,104.22,0,0,1,14,8c-.17-1.5-.34-3-.49-4.49l.69-.07h0l-.69.07a178.36,178.36,0,0,0-3.62-22.3"/><rect class="cls-34" x="299.55" y="117.62" width="13.3" height="75.51" transform="translate(144.08 -147.3) rotate(34.92)"/><rect class="cls-35" x="300.09" y="115.89" width="7.24" height="75.51" transform="translate(142.63 -146.19) rotate(34.92)"/><path class="cls-36" d="M290,190.14l-11.88,8a1,1,0,0,1-1.49-1l2.46-14.66Z"/><path class="cls-37" d="M277.15,194.33l-.48,2.85a1,1,0,0,0,1.49,1l2.32-1.49Z"/><path class="cls-38" d="M334.32,118.17l-2.15-1.44c-2.93-2-7-.71-8,.8h0c-1.06,1.51-1.61,3-.1,4l7.72,5.38c1.51,1.06,2.55,0,3.61-1.55h0C336.43,123.85,336.56,119.74,334.32,118.17Z"/><rect class="cls-39" x="318.7" y="122.56" width="16.09" height="6.68" rx="0.61" transform="translate(130.9 -164.37) rotate(34.92)"/><path class="cls-2" d="M307.29,164.52l-.4.28c2.81.39,6.16.3,8.45.5,4.19.39,8.38.33,12.58.39,3.77.05,7.54.16,11.31.28h.52c6.87-9.42,8.06-18.72,2.08-25.13-10.36-11.1-33.3-13.07-40.46,2.71S307.29,164.52,307.29,164.52Z"/><path class="cls-3" d="M305.93,164.62l1.45.71a1.2,1.2,0,0,0,1.29-.38l0-.63-1.14-.45h0l-.06,0-.23-.1c-.21-.1-.51-.25-.86-.46a13.85,13.85,0,0,1-2.64-2,12,12,0,0,1-3.82-9,20.67,20.67,0,0,1,2.08-8.47,17.77,17.77,0,0,1,7.72-8.4,22.83,22.83,0,0,1,11-2.63c7.63,0,15.64,3.2,20.59,8.5a13.38,13.38,0,0,1,3.68,9.37c0,4.64-2.1,9.93-6.1,15.28h1.71c3.74-5.24,5.77-10.48,5.78-15.29a14.77,14.77,0,0,0-4.05-10.31c-5.28-5.64-13.6-9-21.61-9a24.24,24.24,0,0,0-11.67,2.8,19.17,19.17,0,0,0-8.32,9.05,21.94,21.94,0,0,0-2.2,9,13.45,13.45,0,0,0,4.24,10A16.13,16.13,0,0,0,305.93,164.62Z"/><path class="cls-6" d="M306.39,163.28c.35.21.65.36.86.46l.23.1.06,0h0l1.14.45-1.31,1c2.57.25,5.48.12,7.5.31,2.64.24,5.75,0,8.4,0-.93-.25-16.7-4.56-22.7-9.25a12.15,12.15,0,0,0,3.17,4.9A13.85,13.85,0,0,0,306.39,163.28Z"/><path class="cls-25" d="M176.32,140.36c-6.95-17.4-24.41-22.15-32.78-22.15-27.44-.51-31.72,31.18-31.72,31.18-4.1,0-8.81-3.08-8.47-8.21s5.94-4.23,5.94-4.23c3.65-10.7,14.41-24.08,34.07-24.08,18.87,0,28.64,14.81,32.63,23.51A6.65,6.65,0,0,1,176.32,140.36Z"/><path class="cls-25" d="M217.23,145.06c0,.31.31.5.54.29,10.83-9.7,19.52-10.43,27.73-10.43,27.44-.42,31.37,21.74,31.37,21.74,4.1,0,8.81-2.51,8.47-6.69s-5.93-3.44-5.93-3.44c-6.7-9.23-14.14-16.5-33.79-16.78-12.66-.18-19.69,4.49-27,11.59A4.86,4.86,0,0,0,217.23,145.06Z"/></g></g></svg>