<svg xmlns="http://www.w3.org/2000/svg" viewBox="0 0 410.25 166.73"><defs><style>.cls-1{fill:#1f8ebe;}</style></defs><title>llave arr</title><g id="Capa_2" data-name="Capa 2"><g id="Capa_1-2" data-name="Capa 1"><path class="cls-1" d="M0,153.58a12.15,12.15,0,0,1,.23-2.5,12.71,12.71,0,0,0,.22-2.48q7.71-34.44,19.71-52.78T49.61,70.68q17.45-6.81,39.18-6.8l41.23.45q17.21,0,30.8-5A46.24,46.24,0,0,0,182.34,44q7.93-10.44,7.93-26.73V15a14.39,14.39,0,0,1,4.31-10.64A14.39,14.39,0,0,1,205.22,0a13.69,13.69,0,0,1,10.42,4.31A14.85,14.85,0,0,1,219.72,15v2.72q.45,16.75,8.38,26.95t21.52,15a92.91,92.91,0,0,0,30.8,4.76l40.78-.45q19.92,0,34.43,5.43a64.77,64.77,0,0,1,24.46,15.86,95.47,95.47,0,0,1,17.22,26.05,192.8,192.8,0,0,1,12.23,36.92q2.26,10.41-2.72,14.5a16.28,16.28,0,0,1-10.42,4.08,12.6,12.6,0,0,1-8.15-2.95,15,15,0,0,1-5-8.38q-7.72-24-16.32-36.24t-20.61-16.54q-12-4.31-30.12-4.3l-40.78.45q-27.63,0-46.21-11.78a55.32,55.32,0,0,1-24.46-33.07l.9-.45Q199.33,75.65,181,87.21T134.55,98.76l-40.32-.45q-18.12,0-30.13,4.08T43.49,118.92q-8.61,12.45-16.31,36.47-4.08,11.78-14.95,11.33a14.28,14.28,0,0,1-8.38-4.08A11.93,11.93,0,0,1,0,153.58Z"/></g></g></svg>