<svg xmlns="http://www.w3.org/2000/svg" viewBox="0 0 410.25 166.73"><defs><style>.cls-1{fill:#1f8ebe;}</style></defs><title>llave aba</title><g id="Capa_2" data-name="Capa 2"><g id="Capa_1-2" data-name="Capa 1"><path class="cls-1" d="M410.25,13.15a12.89,12.89,0,0,1-.23,2.5,12,12,0,0,0-.22,2.49q-7.73,34.43-19.71,52.77T360.64,96.06q-17.44,6.8-39.18,6.79l-41.23-.45q-17.22,0-30.81,5a46.29,46.29,0,0,0-21.52,15.4Q220,133.22,220,149.52v2.26A14.71,14.71,0,0,1,205,166.73a13.7,13.7,0,0,1-10.42-4.3,14.83,14.83,0,0,1-4.08-10.65v-2.71q-.45-16.75-8.39-27t-21.51-15a93,93,0,0,0-30.81-4.76l-40.77.45q-19.93,0-34.43-5.43A64.58,64.58,0,0,1,30.16,81.56,95.24,95.24,0,0,1,12.94,55.51,192.8,192.8,0,0,1,.71,18.59Q-1.56,8.18,3.43,4.1A16.18,16.18,0,0,1,13.84,0,12.59,12.59,0,0,1,22,3a15.1,15.1,0,0,1,5,8.38q7.71,24,16.31,36.24T63.9,64.12q12,4.3,30.13,4.3L134.81,68q27.63,0,46.2,11.78a55.33,55.33,0,0,1,24.47,33.07l-.91.45q6.36-22.18,24.69-33.75T275.7,68l40.32.45q18.11,0,30.12-4.08t20.61-16.53q8.61-12.45,16.32-36.47Q387.14-.43,398,0A14.19,14.19,0,0,1,406.4,4.1,11.94,11.94,0,0,1,410.25,13.15Z"/></g></g></svg>