<svg xmlns="http://www.w3.org/2000/svg" viewBox="0 0 154.2 119.39"><defs><style>.ebf10786-529d-49f4-9d9a-63bfdf177189{fill:none;}.a30a9a7f-ebc5-45f3-a349-ce71f2193a9d{fill:#bfbd60;}.aa2a9ee8-9e3e-497d-8f80-d1e1c1935c4b{fill:#adadad;}.ec108ce2-2ed6-4b7b-a4ad-9a23a33748cf{fill:#d9d9d9;}.e337a956-86c8-4022-b4c9-8589ce85d1a7{fill:#e0dfcd;}.b875cbc4-4ec9-4690-ab8a-e2ee51d5fe03{fill:#fffef3;}.a0e323d7-5005-4aa9-8ea4-b25b8e2e66b5{fill:#d3d2cd;}.e56c7584-340a-4b79-a85e-8e33d3aaca42{fill:#dcdfe0;}.f0e4fb2e-515e-4c02-ba50-0c5580086fe7{fill:#bcbec0;}.e4a08ddf-cd7d-404f-9786-eb77fece6ef8{fill:#9b9a98;}</style></defs><title>100 3</title><g id="ba478415-c18a-4227-98dc-5609c9a6442d" data-name="Capa 2"><g id="a8a5ba5d-c8ad-4267-9442-d294857b046f" data-name="Capa 1"><rect class="ebf10786-529d-49f4-9d9a-63bfdf177189" width="154.2" height="119.39"/><g id="e3a8c8e3-5ec5-42b5-861e-2d377c726e62" data-name="f05d5629-8e67-4b15-8871-5753cd57dd4a"><g id="b014f996-ac52-4d15-8212-255cacab2466" data-name="bb1a5946-eed4-44e8-bdc6-4d108419ca10"><circle class="a30a9a7f-ebc5-45f3-a349-ce71f2193a9d" cx="25.7" cy="30.63" r="25.7"/><circle class="aa2a9ee8-9e3e-497d-8f80-d1e1c1935c4b" cx="25.7" cy="30.63" r="21.2"/><path class="ec108ce2-2ed6-4b7b-a4ad-9a23a33748cf" d="M5.24,31A21.21,21.21,0,0,1,35.53,11.84a21.21,21.21,0,0,0-20.22,37.3l.28.14,1,.51A21.21,21.21,0,0,1,5.24,31Z"/><path class="e337a956-86c8-4022-b4c9-8589ce85d1a7" d="M35.53,11.84a21.22,21.22,0,0,1-18.92,38A21.23,21.23,0,0,0,36.55,12.35Z"/><path class="b875cbc4-4ec9-4690-ab8a-e2ee51d5fe03" d="M25.45,50.53a19.2,19.2,0,0,1-9.18-2.72A19.56,19.56,0,0,1,9.6,41.22a19.13,19.13,0,0,0,7,5.94A18.27,18.27,0,0,0,25.41,49Z"/><path class="a0e323d7-5005-4aa9-8ea4-b25b8e2e66b5" d="M26.61,49a18.27,18.27,0,0,0,8.81-1.86,19.13,19.13,0,0,0,7-5.94,19.83,19.83,0,0,1-6.67,6.62,19.2,19.2,0,0,1-9.18,2.72Z"/><path class="ec108ce2-2ed6-4b7b-a4ad-9a23a33748cf" d="M11.18,23.36H14V38.68H10.91V26.31L8.06,27.93,6.83,25.65Z"/><path class="ec108ce2-2ed6-4b7b-a4ad-9a23a33748cf" d="M28.08,25.38a9.44,9.44,0,0,1,0,11.33,6.19,6.19,0,0,1-8.72.82,7,7,0,0,1-.81-.82,9.47,9.47,0,0,1,0-11.35,6.14,6.14,0,0,1,8.64-.89h0a6.8,6.8,0,0,1,.89.89Zm-7.26,1.84a8.07,8.07,0,0,0,0,7.72,2.92,2.92,0,0,0,4,1.08,2.87,2.87,0,0,0,1.08-1.08,6.89,6.89,0,0,0,1-3.84,7.05,7.05,0,0,0-1-3.87,3,3,0,0,0-2.53-1.51A2.87,2.87,0,0,0,20.82,27.22Z"/><path class="ec108ce2-2ed6-4b7b-a4ad-9a23a33748cf" d="M43.55,25.38a9.44,9.44,0,0,1,0,11.33,6.19,6.19,0,0,1-8.72.82,7,7,0,0,1-.81-.82,9.47,9.47,0,0,1,0-11.35,6.14,6.14,0,0,1,8.64-.89h0a6.8,6.8,0,0,1,.89.89Zm-7.26,1.84a8,8,0,0,0,0,7.72,2.92,2.92,0,0,0,4,1.08,2.87,2.87,0,0,0,1.08-1.08,6.89,6.89,0,0,0,1-3.84,7.05,7.05,0,0,0-1-3.87,3,3,0,0,0-2.53-1.51A2.87,2.87,0,0,0,36.29,27.22Z"/><path class="e56c7584-340a-4b79-a85e-8e33d3aaca42" d="M11,23.12h2.85V38.44H10.7V26.07L7.85,27.73,6.62,25.41Z"/><path class="e56c7584-340a-4b79-a85e-8e33d3aaca42" d="M27.84,25.14a9.44,9.44,0,0,1,0,11.33,6.19,6.19,0,0,1-8.72.82,7,7,0,0,1-.81-.82,9.47,9.47,0,0,1,0-11.35,6.13,6.13,0,0,1,8.63-.93l.06,0a6.8,6.8,0,0,1,.89.89Zm-7.26,1.79a8,8,0,0,0,0,7.72,2.92,2.92,0,0,0,4,1.08,2.87,2.87,0,0,0,1.08-1.08,8.16,8.16,0,0,0,0-7.71,2.9,2.9,0,0,0-2.52-1.51A2.84,2.84,0,0,0,20.58,26.93Z"/><path class="e56c7584-340a-4b79-a85e-8e33d3aaca42" d="M43.31,25.14a9.44,9.44,0,0,1,0,11.33,6.19,6.19,0,0,1-8.72.82,7,7,0,0,1-.81-.82,9.47,9.47,0,0,1,0-11.35,6.14,6.14,0,0,1,8.64-.89h0a6.8,6.8,0,0,1,.89.89Zm-7.26,1.79a8,8,0,0,0,0,7.72,2.92,2.92,0,0,0,4,1.08,2.87,2.87,0,0,0,1.08-1.08,8.16,8.16,0,0,0,0-7.71,2.9,2.9,0,0,0-2.52-1.51A2.84,2.84,0,0,0,36.05,26.93Z"/><g id="b07626ca-2cc5-4cbe-a3fc-16a232ed1c5b" data-name="a8a9254d-7081-4897-bc28-2f39cf10fa43"><path class="f0e4fb2e-515e-4c02-ba50-0c5580086fe7" d="M25.65,16.56h-.47l-.46,1.56a2.92,2.92,0,0,1-.72.06,2.35,2.35,0,0,1-.83-.11L23.11,18l2.36-7.2a8.4,8.4,0,0,1,1-.07,6.63,6.63,0,0,1,1,.08L29.79,18a1.57,1.57,0,0,1-.85.2,1.16,1.16,0,0,1-.79-.19,1.54,1.54,0,0,1-.38-.74l-.21-.71Zm0-1.35h1.53L27,14.55c-.16-.6-.36-1.34-.58-2.21h-.07c-.06.3-.23,1-.51,2Z"/></g><g id="fef739d3-961d-4233-a52f-74b5174238d2" data-name="bd5fe042-a7bb-4313-8a1e-29dd4d28bb66"><path class="e4a08ddf-cd7d-404f-9786-eb77fece6ef8" d="M25.43,16.56H25l-.46,1.56a2.92,2.92,0,0,1-.72.06,2.4,2.4,0,0,1-.84-.11L22.93,18l2.36-7.2a8.4,8.4,0,0,1,1-.07,6.63,6.63,0,0,1,1,.08L29.6,18a1.56,1.56,0,0,1-.84.2A1.16,1.16,0,0,1,28,18a1.46,1.46,0,0,1-.38-.74l-.21-.71Zm0-1.35H27l-.19-.66c-.17-.6-.36-1.34-.58-2.21h-.08c-.06.3-.23,1-.52,2Z"/></g><circle class="a30a9a7f-ebc5-45f3-a349-ce71f2193a9d" cx="77.1" cy="60.03" r="25.7"/><circle class="aa2a9ee8-9e3e-497d-8f80-d1e1c1935c4b" cx="77.1" cy="60.03" r="21.2"/><path class="ec108ce2-2ed6-4b7b-a4ad-9a23a33748cf" d="M56.63,60.4a21.22,21.22,0,0,1,30.3-19.18A21.23,21.23,0,0,0,68,79.22,21.2,21.2,0,0,1,56.63,60.4Z"/><path class="e337a956-86c8-4022-b4c9-8589ce85d1a7" d="M86.93,41.22A21.23,21.23,0,0,1,68,79.22a21.22,21.22,0,1,0,18.92-38Z"/><path class="b875cbc4-4ec9-4690-ab8a-e2ee51d5fe03" d="M76.85,79.93a19.4,19.4,0,0,1-9.19-2.73A19.74,19.74,0,0,1,61,70.6a19.32,19.32,0,0,0,7,5.94,18.31,18.31,0,0,0,8.82,1.86Z"/><path class="a0e323d7-5005-4aa9-8ea4-b25b8e2e66b5" d="M78,78.39a17.91,17.91,0,0,0,8.81-1.86,19.13,19.13,0,0,0,7-5.94,19.68,19.68,0,0,1-6.64,6.63A19.3,19.3,0,0,1,78,79.93Z"/><path class="ec108ce2-2ed6-4b7b-a4ad-9a23a33748cf" d="M62.61,52.77h2.85V68.09H62.34V55.72l-2.85,1.66-1.24-2.32Z"/><path class="ec108ce2-2ed6-4b7b-a4ad-9a23a33748cf" d="M79.47,54.79a8.41,8.41,0,0,1,1.89,5.65,8.49,8.49,0,0,1-1.89,5.67,6.15,6.15,0,0,1-8.68.85,5.69,5.69,0,0,1-.85-.85,9.47,9.47,0,0,1,0-11.35,6.14,6.14,0,0,1,8.64-.89h0a6.17,6.17,0,0,1,.89.88Zm-7.26,1.8a8.07,8.07,0,0,0,0,7.72,2.92,2.92,0,0,0,5.08,0,6.86,6.86,0,0,0,1-3.82,7.07,7.07,0,0,0-1-3.89,2.91,2.91,0,0,0-2.52-1.5,2.83,2.83,0,0,0-2.59,1.5Z"/><path class="ec108ce2-2ed6-4b7b-a4ad-9a23a33748cf" d="M94.94,54.79a8.41,8.41,0,0,1,1.89,5.65,8.49,8.49,0,0,1-1.89,5.67,6.15,6.15,0,0,1-8.68.85,5.69,5.69,0,0,1-.85-.85,9.47,9.47,0,0,1,0-11.35,6,6,0,0,1,4.77-2.25A6,6,0,0,1,94.94,54.79Zm-7.26,1.8a8.07,8.07,0,0,0,0,7.72,2.92,2.92,0,0,0,5.08,0,6.86,6.86,0,0,0,1-3.82,7.07,7.07,0,0,0-1-3.89,2.91,2.91,0,0,0-2.52-1.5A2.86,2.86,0,0,0,87.68,56.59Z"/><path class="e56c7584-340a-4b79-a85e-8e33d3aaca42" d="M62.37,52.53h2.81V67.85H62.06V55.48L59.2,57.13,58,54.82Z"/><path class="e56c7584-340a-4b79-a85e-8e33d3aaca42" d="M79.23,54.55a8.41,8.41,0,0,1,1.89,5.65,8.54,8.54,0,0,1-1.89,5.68,6.2,6.2,0,0,1-9.53,0,9.47,9.47,0,0,1,0-11.35,6.14,6.14,0,0,1,8.64-.9h0a5.76,5.76,0,0,1,.89.89ZM72,56.35a8.07,8.07,0,0,0,0,7.72,2.92,2.92,0,0,0,5.08,0,6.89,6.89,0,0,0,1-3.84,7.05,7.05,0,0,0-1-3.87,2.9,2.9,0,0,0-5.08,0Z"/><path class="e56c7584-340a-4b79-a85e-8e33d3aaca42" d="M94.7,54.55a8.41,8.41,0,0,1,1.89,5.65,8.54,8.54,0,0,1-1.89,5.68,6.2,6.2,0,0,1-9.53,0,9.47,9.47,0,0,1,0-11.35,6.14,6.14,0,0,1,8.64-.9h0a5.76,5.76,0,0,1,.89.89Zm-7.26,1.8a8.07,8.07,0,0,0,0,7.72,2.92,2.92,0,0,0,5.08,0,6.89,6.89,0,0,0,1-3.84,7.05,7.05,0,0,0-1-3.87,2.9,2.9,0,0,0-5.08,0Z"/><g id="e93f664a-0a9d-43ff-95e8-45fecae82cda" data-name="f2727900-6250-4586-881e-b69257caafd7"><path class="f0e4fb2e-515e-4c02-ba50-0c5580086fe7" d="M77.05,45.93h-.43l-.46,1.56a2.93,2.93,0,0,1-.72.07,2.41,2.41,0,0,1-.84-.12v-.09L77,40.19c.33,0,.67,0,1-.06a6.73,6.73,0,0,1,1,.07l2.32,7.22a1.67,1.67,0,0,1-.85.2,1.14,1.14,0,0,1-.78-.2,1.48,1.48,0,0,1-.39-.74L79.1,46h-2Zm0-1.35h1.6l-.19-.65c-.17-.6-.37-1.34-.59-2.21h-.06c-.06.31-.23,1-.52,2Z"/></g><g id="b9bc0392-0f95-404a-8e71-8e8227940db6" data-name="e5067ac1-ef80-4ff5-a5bf-0a11eb363cca"><path class="e4a08ddf-cd7d-404f-9786-eb77fece6ef8" d="M76.83,45.93H76.4l-.46,1.56a2.93,2.93,0,0,1-.72.07,2.41,2.41,0,0,1-.84-.12v-.09l2.36-7.2c.33,0,.67,0,1-.06a6.73,6.73,0,0,1,1,.07l2.32,7.22a1.67,1.67,0,0,1-.85.2,1.14,1.14,0,0,1-.78-.2,1.48,1.48,0,0,1-.39-.74l-.2-.71h-2Zm0-1.35h1.59l-.18-.65c-.17-.6-.37-1.34-.59-2.21h-.06c-.06.31-.23,1-.52,2Z"/></g><circle class="a30a9a7f-ebc5-45f3-a349-ce71f2193a9d" cx="128.5" cy="88.75" r="25.7"/><circle class="aa2a9ee8-9e3e-497d-8f80-d1e1c1935c4b" cx="128.5" cy="88.75" r="21.2"/><path class="ec108ce2-2ed6-4b7b-a4ad-9a23a33748cf" d="M108,89.13a21.22,21.22,0,0,1,30.32-19.2,21.22,21.22,0,0,0-18.91,38h0A21.2,21.2,0,0,1,108,89.13Z"/><path class="e337a956-86c8-4022-b4c9-8589ce85d1a7" d="M138.32,69.93a21.22,21.22,0,1,1-18.91,38h0A21.2,21.2,0,1,0,138.32,70Z"/><path class="b875cbc4-4ec9-4690-ab8a-e2ee51d5fe03" d="M128.24,108.67a19.46,19.46,0,0,1-15.84-9.36,19.13,19.13,0,0,0,7,5.94,17.91,17.91,0,0,0,8.81,1.86Z"/><path class="a0e323d7-5005-4aa9-8ea4-b25b8e2e66b5" d="M129.4,107.11a18,18,0,0,0,8.78-1.89,19.49,19.49,0,0,0,7-5.94,19.8,19.8,0,0,1-6.66,6.62,19.52,19.52,0,0,1-9.19,2.74Z"/><path class="ec108ce2-2ed6-4b7b-a4ad-9a23a33748cf" d="M114,81.49h2.86V96.81h-3.13V84.44l-2.85,1.66-1.23-2.31Z"/><path class="ec108ce2-2ed6-4b7b-a4ad-9a23a33748cf" d="M130.87,83.51a9.42,9.42,0,0,1,0,11.32,6.15,6.15,0,0,1-8.68.85,5.69,5.69,0,0,1-.85-.85,9.45,9.45,0,0,1,0-11.34,6.14,6.14,0,0,1,8.64-.9h0a5.76,5.76,0,0,1,.89.89Zm-7.26,1.81a8,8,0,0,0,0,7.72,2.92,2.92,0,0,0,4,1.09,3,3,0,0,0,1.1-1.09,6.92,6.92,0,0,0,1-3.83,7,7,0,0,0-1-3.88,2.91,2.91,0,0,0-2.53-1.51A2.83,2.83,0,0,0,123.61,85.32Z"/><path class="ec108ce2-2ed6-4b7b-a4ad-9a23a33748cf" d="M146.34,83.51a9.42,9.42,0,0,1,0,11.32,6.15,6.15,0,0,1-8.68.85,5.69,5.69,0,0,1-.85-.85,9.45,9.45,0,0,1,0-11.34,6.14,6.14,0,0,1,8.64-.9h0a5.76,5.76,0,0,1,.89.89Zm-7.26,1.81a8,8,0,0,0,0,7.72,2.9,2.9,0,0,0,4,1.1,2.86,2.86,0,0,0,1.11-1.1,6.92,6.92,0,0,0,1-3.83,7,7,0,0,0-1-3.88,2.91,2.91,0,0,0-2.53-1.51A2.84,2.84,0,0,0,139.08,85.32Z"/><path class="e56c7584-340a-4b79-a85e-8e33d3aaca42" d="M113.76,81.22h2.85V96.54h-3.12V84.22l-2.85,1.66-1.23-2.31Z"/><path class="e56c7584-340a-4b79-a85e-8e33d3aaca42" d="M130.63,83.27a9.44,9.44,0,0,1,0,11.33,6.15,6.15,0,0,1-8.68.85,5.69,5.69,0,0,1-.85-.85,9.47,9.47,0,0,1,0-11.35,6.14,6.14,0,0,1,8.64-.89h0a6.8,6.8,0,0,1,.89.89Zm-7.26,1.8a8,8,0,0,0-.05,7.72,2.92,2.92,0,0,0,5.08,0,6.87,6.87,0,0,0,1-3.83,7.06,7.06,0,0,0-1-3.88,3,3,0,0,0-2.53-1.51A2.83,2.83,0,0,0,123.37,85.07Z"/><path class="e56c7584-340a-4b79-a85e-8e33d3aaca42" d="M146.1,83.27a9.42,9.42,0,0,1,0,11.33,6.15,6.15,0,0,1-8.68.85,5.69,5.69,0,0,1-.85-.85,9.47,9.47,0,0,1,0-11.35,6.14,6.14,0,0,1,8.64-.89h0a6.8,6.8,0,0,1,.89.89Zm-7.26,1.8a8,8,0,0,0-.05,7.72,2.92,2.92,0,0,0,5.08,0,6.87,6.87,0,0,0,1-3.83,7.06,7.06,0,0,0-1-3.88,3,3,0,0,0-2.53-1.51,2.83,2.83,0,0,0-2.5,1.5Z"/><g id="a62bd20f-e1e4-4a16-9efa-97d43665f72d" data-name="ba1b644e-c608-4351-b3ea-c6bae7987265"><path class="f0e4fb2e-515e-4c02-ba50-0c5580086fe7" d="M128.44,74.69H128l-.46,1.56a2.93,2.93,0,0,1-.72.07,2.15,2.15,0,0,1-.83-.12v-.09l2.31-7.18c.33,0,.67-.05,1-.06a6.73,6.73,0,0,1,1,.07l2.32,7.21a1.68,1.68,0,0,1-.85.21,1.19,1.19,0,0,1-.78-.19,1.56,1.56,0,0,1-.39-.74l-.2-.71h-2Zm0-1.34H130l-.18-.67c-.17-.6-.37-1.34-.59-2.21h-.09c0,.31-.22,1-.51,2Z"/></g><g id="b8ed2025-d693-4cba-ac97-6583f77c8dd5" data-name="f2cf15ce-88b0-4a9e-8e54-3d8a72c20671"><path class="e4a08ddf-cd7d-404f-9786-eb77fece6ef8" d="M128.18,74.69h-.43l-.46,1.56a2.93,2.93,0,0,1-.72.07,2.15,2.15,0,0,1-.83-.12l-.06-.09L128,68.93c.33,0,.67-.05,1-.06a6.73,6.73,0,0,1,1,.07l2.32,7.21a1.68,1.68,0,0,1-.85.21,1.19,1.19,0,0,1-.78-.19,1.56,1.56,0,0,1-.39-.74l-.21-.71h-2Zm0-1.34h1.6l-.18-.67c-.17-.6-.37-1.34-.59-2.21h-.07a14.31,14.31,0,0,1-.51,2Z"/></g></g></g></g></g></svg>