<svg xmlns="http://www.w3.org/2000/svg" viewBox="0 0 154.2 119.39"><defs><style>.adfd550d-3b16-49bb-8fcb-968b27405d5e{fill:none;}.fa001199-f172-44ce-9933-d30dc1d64c2b{fill:#bfbd60;}.ec608e38-90ca-47e8-8c97-4ba0439b372d{fill:#adadad;}.b181b124-8766-4fa5-a840-de36d216ddc7{fill:#d9d9d9;}.a105ab24-a193-47bb-83e9-feb6a6526f17{fill:#e0dfcd;}.b8e378b8-9aee-4ada-bff8-a084ecf81afa{fill:#fffef3;}.f5343b95-7dba-4d18-a8cf-627450b7b159{fill:#d3d2cd;}.efa1cea6-1280-41af-a9e5-08437d1f4e87{fill:#dcdfe0;}.a7579116-cbcf-4a3d-81b2-fb71c632c309{fill:#bcbec0;}.ab2373a0-ab89-4018-95a2-98a7db476b84{fill:#9b9a98;}</style></defs><title>100 2</title><g id="a46d8cf7-6315-48e8-be0b-6222db26f2af" data-name="Capa 2"><g id="b8b5e4cb-b283-42d8-9f87-6ef2249e74b5" data-name="Capa 1"><rect class="adfd550d-3b16-49bb-8fcb-968b27405d5e" width="154.2" height="119.39"/><g id="ab16055a-743c-4c82-9d30-188809b3e76f" data-name="fa84592f-2106-4eb1-a937-82f8034d6728"><g id="bbe3bf91-4c98-4b9f-8ef2-76116dfb266a" data-name="a6c51663-bba4-4d84-b0ae-9ebcd0719a1b"><circle class="fa001199-f172-44ce-9933-d30dc1d64c2b" cx="32.14" cy="30.63" r="25.7"/><circle class="ec608e38-90ca-47e8-8c97-4ba0439b372d" cx="32.14" cy="30.63" r="21.2"/><path class="b181b124-8766-4fa5-a840-de36d216ddc7" d="M11.68,31A21.21,21.21,0,0,1,42,11.84,21.21,21.21,0,1,0,21.75,49.13l.28.15,1,.51A21.18,21.18,0,0,1,11.68,31Z"/><path class="a105ab24-a193-47bb-83e9-feb6a6526f17" d="M42,11.84a21.22,21.22,0,0,1-18.92,38A21.23,21.23,0,0,0,43,12.35Z"/><path class="b8e378b8-9aee-4ada-bff8-a084ecf81afa" d="M31.89,50.55a19.21,19.21,0,0,1-9.18-2.73A19.62,19.62,0,0,1,16,41.21a19.32,19.32,0,0,0,7,5.94A18.36,18.36,0,0,0,31.85,49Z"/><path class="f5343b95-7dba-4d18-a8cf-627450b7b159" d="M33.05,49a18.41,18.41,0,0,0,8.81-1.86,19.49,19.49,0,0,0,7-5.94,19.71,19.71,0,0,1-6.67,6.61A19.21,19.21,0,0,1,33,50.53Z"/><path class="b181b124-8766-4fa5-a840-de36d216ddc7" d="M17.62,23.36h2.82V38.68H17.35V26.31L14.5,27.93l-1.23-2.28Z"/><path class="b181b124-8766-4fa5-a840-de36d216ddc7" d="M34.52,25.38a9.44,9.44,0,0,1,0,11.33,6.2,6.2,0,0,1-8.72.82,5.7,5.7,0,0,1-.81-.82,9.47,9.47,0,0,1,0-11.35,6.13,6.13,0,0,1,8.63-.89h0a7.48,7.48,0,0,1,.89.89Zm-7.26,1.81a8.07,8.07,0,0,0,0,7.72,2.93,2.93,0,0,0,5.08,0,7,7,0,0,0,1-3.84,7,7,0,0,0-1-3.87,2.93,2.93,0,0,0-2.53-1.51A2.82,2.82,0,0,0,27.26,27.19Z"/><path class="b181b124-8766-4fa5-a840-de36d216ddc7" d="M50,25.38a9.44,9.44,0,0,1,0,11.33,6.2,6.2,0,0,1-8.72.82,5.7,5.7,0,0,1-.81-.82,9.47,9.47,0,0,1,0-11.35,6.13,6.13,0,0,1,8.63-.89h0a7.48,7.48,0,0,1,.89.89Zm-7.26,1.81a8,8,0,0,0,0,7.72,2.93,2.93,0,0,0,5.08,0,7,7,0,0,0,1-3.84,7,7,0,0,0-1-3.87,2.93,2.93,0,0,0-2.53-1.51A2.82,2.82,0,0,0,42.73,27.19Z"/><path class="efa1cea6-1280-41af-a9e5-08437d1f4e87" d="M17.44,23.12h2.85V38.44H17.14V26.07l-2.85,1.66-1.23-2.32Z"/><path class="efa1cea6-1280-41af-a9e5-08437d1f4e87" d="M34.28,25.14a9.42,9.42,0,0,1,0,11.32,6.14,6.14,0,0,1-9.53,0,9.45,9.45,0,0,1,0-11.34,6.14,6.14,0,0,1,8.63-.94l.06.05a7.48,7.48,0,0,1,.89.89ZM27,26.93a8,8,0,0,0,0,7.71,2.92,2.92,0,0,0,5.08,0,8.14,8.14,0,0,0,0-7.7,2.89,2.89,0,0,0-2.52-1.52A2.85,2.85,0,0,0,27,26.93Z"/><path class="efa1cea6-1280-41af-a9e5-08437d1f4e87" d="M49.75,25.14a9.42,9.42,0,0,1,0,11.32,6.14,6.14,0,0,1-9.53,0,9.45,9.45,0,0,1,0-11.34,6.13,6.13,0,0,1,8.63-.89h0a7.48,7.48,0,0,1,.89.89Zm-7.26,1.79a8,8,0,0,0,0,7.71,2.92,2.92,0,0,0,5.08,0,8.14,8.14,0,0,0,0-7.7,2.89,2.89,0,0,0-2.52-1.52A2.85,2.85,0,0,0,42.49,26.93Z"/><g id="b4398acb-705a-416f-9f3a-252bc9f77df8" data-name="ab287d56-d0b3-439e-9f84-92bb9498d8c1"><path class="a7579116-cbcf-4a3d-81b2-fb71c632c309" d="M32.09,16.55h-.47l-.46,1.56a2.92,2.92,0,0,1-.72.06,2.32,2.32,0,0,1-.83-.12l-.06-.12,2.36-7.2a6.63,6.63,0,0,1,1-.07,5.62,5.62,0,0,1,1,.08L36.23,18a1.69,1.69,0,0,1-.85.2,1.21,1.21,0,0,1-.79-.19,1.59,1.59,0,0,1-.38-.74L34,16.51H32.09Zm0-1.35h1.53l-.18-.66c-.16-.61-.36-1.34-.58-2.21h-.07c-.06.3-.23,1-.51,2Z"/></g><g id="b9f4a9e0-d38b-41dc-960d-e83980945aa4" data-name="a863f978-83bf-4bc7-8bdd-a45cc0a71fab"><path class="ab2373a0-ab89-4018-95a2-98a7db476b84" d="M31.87,16.55h-.43L31,18.11a2.92,2.92,0,0,1-.72.06,2.38,2.38,0,0,1-.84-.12l-.05-.12,2.36-7.2a6.63,6.63,0,0,1,1-.07,5.62,5.62,0,0,1,1,.08L36,18a1.65,1.65,0,0,1-.84.2,1.21,1.21,0,0,1-.79-.19,1.59,1.59,0,0,1-.38-.74l-.21-.71H31.87Zm0-1.35h1.57l-.19-.66c-.17-.61-.36-1.34-.58-2.21h-.08c-.06.3-.23,1-.52,2Z"/></g><circle class="fa001199-f172-44ce-9933-d30dc1d64c2b" cx="122.06" cy="88.76" r="25.7"/><circle class="ec608e38-90ca-47e8-8c97-4ba0439b372d" cx="122.28" cy="88.4" r="21.26"/><path class="b181b124-8766-4fa5-a840-de36d216ddc7" d="M101.62,89.12a21.22,21.22,0,0,1,30.3-19.19,21.22,21.22,0,0,0-18.92,38h0A21.18,21.18,0,0,1,101.62,89.12Z"/><path class="a105ab24-a193-47bb-83e9-feb6a6526f17" d="M131.89,69.93a21.22,21.22,0,1,1-18.92,38h0a21.22,21.22,0,1,0,18.92-38Z"/><path class="b8e378b8-9aee-4ada-bff8-a084ecf81afa" d="M121.81,108.65a19.32,19.32,0,0,1-9.19-2.72A19.71,19.71,0,0,1,106,99.31a19.32,19.32,0,0,0,7,5.94,18.17,18.17,0,0,0,8.82,1.86Z"/><path class="f5343b95-7dba-4d18-a8cf-627450b7b159" d="M123,107.11a18.18,18.18,0,0,0,8.81-1.86,19.49,19.49,0,0,0,7-5.94,19.8,19.8,0,0,1-6.66,6.62,19.35,19.35,0,0,1-9.18,2.72Z"/><path class="b181b124-8766-4fa5-a840-de36d216ddc7" d="M107.62,81.49h2.82V96.81h-3.12V84.44l-2.85,1.65-1.24-2.31Z"/><path class="b181b124-8766-4fa5-a840-de36d216ddc7" d="M124.44,83.55a8.41,8.41,0,0,1,1.89,5.65,8.56,8.56,0,0,1-1.89,5.67,6.14,6.14,0,0,1-9.53,0,9.47,9.47,0,0,1,0-11.35,6.13,6.13,0,0,1,8.63-.89h0a7.48,7.48,0,0,1,.89.89Zm-7.26,1.8a8.07,8.07,0,0,0,0,7.72,2.93,2.93,0,0,0,5.08,0,6.91,6.91,0,0,0,1-3.84,7,7,0,0,0-1-3.87,2.92,2.92,0,0,0-2.52-1.51,2.87,2.87,0,0,0-2.56,1.46Z"/><path class="b181b124-8766-4fa5-a840-de36d216ddc7" d="M139.9,83.55a8.41,8.41,0,0,1,1.89,5.65,8.56,8.56,0,0,1-1.89,5.67,6.14,6.14,0,0,1-9.53,0,9.47,9.47,0,0,1,0-11.35,6.13,6.13,0,0,1,8.63-.89h0a7.48,7.48,0,0,1,.89.89Zm-7.26,1.8a8.07,8.07,0,0,0,0,7.72,2.93,2.93,0,0,0,5.08,0,6.91,6.91,0,0,0,1-3.84,7,7,0,0,0-1-3.87,2.92,2.92,0,0,0-2.52-1.51,2.86,2.86,0,0,0-2.58,1.46Z"/><path class="efa1cea6-1280-41af-a9e5-08437d1f4e87" d="M107.33,81.25h2.85v15.3h-3.12V84.19l-2.86,1.66L103,83.55Z"/><path class="efa1cea6-1280-41af-a9e5-08437d1f4e87" d="M124.19,83.26a9.44,9.44,0,0,1,0,11.33,6.2,6.2,0,0,1-8.72.82,5.7,5.7,0,0,1-.81-.82,9.47,9.47,0,0,1,0-11.35,6.16,6.16,0,0,1,8.65-.88,7.31,7.31,0,0,1,.88.88Zm-7.26,1.81a8.07,8.07,0,0,0,0,7.72,2.93,2.93,0,0,0,5.08,0A6.91,6.91,0,0,0,123,89a7,7,0,0,0-1-3.87,2.92,2.92,0,0,0-2.52-1.51A2.87,2.87,0,0,0,116.93,85.07Z"/><path class="efa1cea6-1280-41af-a9e5-08437d1f4e87" d="M139.62,83.26a9.44,9.44,0,0,1,0,11.29,6.2,6.2,0,0,1-8.72.82,5.7,5.7,0,0,1-.81-.82,9.47,9.47,0,0,1,0-11.35,6.16,6.16,0,0,1,8.65-.88,7.31,7.31,0,0,1,.88.88Zm-7.26,1.81a8.07,8.07,0,0,0,0,7.72,2.93,2.93,0,0,0,5.08,0,8,8,0,0,0,0-7.73,2.92,2.92,0,0,0-2.52-1.51,2.88,2.88,0,0,0-2.52,1.5Z"/><g id="be495e94-05b6-410d-ad62-b23587487c9b" data-name="b9274e66-d54d-4496-97d8-a5947365ae64"><path class="a7579116-cbcf-4a3d-81b2-fb71c632c309" d="M122,74.68h-.39l-.46,1.56a3.51,3.51,0,0,1-.72.07,2.94,2.94,0,0,1-.84-.12V76.1L122,68.9a8.26,8.26,0,0,1,1-.06,5.61,5.61,0,0,1,1,.07l2.32,7.21a1.6,1.6,0,0,1-.85.21,1.14,1.14,0,0,1-.78-.2,1.4,1.4,0,0,1-.39-.74l-.2-.71h-2Zm0-1.35h1.61l-.19-.66c-.17-.6-.37-1.34-.59-2.21h-.06c-.06.31-.23,1-.52,2Z"/></g><g id="ed78ce47-68f5-4002-adec-550753b1915c" data-name="f7534518-0a9a-419b-b1a5-3e81c68267c7"><path class="ab2373a0-ab89-4018-95a2-98a7db476b84" d="M121.79,74.68h-.43l-.46,1.56a3.51,3.51,0,0,1-.72.07,2.94,2.94,0,0,1-.84-.12l0-.09,2.36-7.2a8.26,8.26,0,0,1,1-.06,5.61,5.61,0,0,1,1,.07L126,76.12a1.6,1.6,0,0,1-.85.21,1.14,1.14,0,0,1-.78-.2,1.4,1.4,0,0,1-.39-.74l-.2-.71h-2Zm0-1.35h1.59l-.18-.66c-.17-.6-.37-1.34-.59-2.21h-.06c-.06.31-.23,1-.52,2Z"/></g></g></g></g></g></svg>