<svg xmlns="http://www.w3.org/2000/svg" viewBox="0 0 154.2 119.39"><defs><style>.b45a0e83-4e37-4e33-8ce8-9554d68e2a11{fill:none;}.b84b7c0d-9092-4699-b94f-ad181c99e48c{fill:#bfbd60;}.a703f281-4d89-47a4-8fcc-e3f76b0c8c17{fill:#adadad;}.efc4e32d-b70b-4674-97b0-3fc44e2e5a8f{fill:#d9d9d9;}.b5a97984-be9d-47ee-9547-c252aa2a0b4c{fill:#e0dfcd;}.bce0fc78-b2c1-4ac1-bb04-8ac24028cf11{fill:#fffef3;}.b30f9ebb-44e5-4659-aae2-f218f3138b39{fill:#d3d2cd;}.bde00d79-64b3-4742-8482-50444632373e{fill:#dcdfe0;}.bd08b87d-afc2-49cc-ab7c-9b96210f0f2c{fill:#bcbec0;}.a5096762-849f-4b26-a33d-bebc85d864b2{fill:#9b9a98;}</style></defs><title>100 5</title><g id="a2955d1a-9021-4ae9-80ca-f4a0b4ce3f34" data-name="Capa 2"><g id="fa4b1465-cc61-453e-9e25-088768b58817" data-name="Capa 1"><rect class="b45a0e83-4e37-4e33-8ce8-9554d68e2a11" width="154.2" height="119.39"/><g id="a23787b1-7505-49f6-8f80-e172cddeac24" data-name="aa096071-7799-4a08-bcc1-1ccb5d63ab90"><g id="b8112a41-9a1a-48cf-98dc-54cc60c07764" data-name="b3a0d90d-bc15-49c2-b2d4-bc8dcb630593"><circle class="b84b7c0d-9092-4699-b94f-ad181c99e48c" cx="25.7" cy="30.63" r="25.7"/><circle class="a703f281-4d89-47a4-8fcc-e3f76b0c8c17" cx="25.7" cy="30.63" r="21.2"/><path class="efc4e32d-b70b-4674-97b0-3fc44e2e5a8f" d="M5.24,31A21.21,21.21,0,0,1,35.53,11.84a21.21,21.21,0,0,0-20.22,37.3l.28.14,1,.51A21.21,21.21,0,0,1,5.24,31Z"/><path class="b5a97984-be9d-47ee-9547-c252aa2a0b4c" d="M35.53,11.84a21.22,21.22,0,0,1-18.92,38A21.23,21.23,0,0,0,36.55,12.35Z"/><path class="bce0fc78-b2c1-4ac1-bb04-8ac24028cf11" d="M25.45,50.53a19.2,19.2,0,0,1-9.18-2.72A19.56,19.56,0,0,1,9.6,41.22a19.13,19.13,0,0,0,7,5.94A18.27,18.27,0,0,0,25.41,49Z"/><path class="b30f9ebb-44e5-4659-aae2-f218f3138b39" d="M26.61,49a18.27,18.27,0,0,0,8.81-1.86,19.13,19.13,0,0,0,7-5.94,19.83,19.83,0,0,1-6.67,6.62,19.2,19.2,0,0,1-9.18,2.72Z"/><path class="efc4e32d-b70b-4674-97b0-3fc44e2e5a8f" d="M11.18,23.36H14V38.68H10.91V26.31L8.06,27.93,6.83,25.65Z"/><path class="efc4e32d-b70b-4674-97b0-3fc44e2e5a8f" d="M28.08,25.38a9.44,9.44,0,0,1,0,11.33,6.19,6.19,0,0,1-8.72.82,7,7,0,0,1-.81-.82,9.47,9.47,0,0,1,0-11.35,6.14,6.14,0,0,1,8.64-.89h0a6.8,6.8,0,0,1,.89.89Zm-7.26,1.84a8.07,8.07,0,0,0,0,7.72,2.92,2.92,0,0,0,4,1.08,2.87,2.87,0,0,0,1.08-1.08,6.89,6.89,0,0,0,1-3.84,7.05,7.05,0,0,0-1-3.87,3,3,0,0,0-2.53-1.51A2.87,2.87,0,0,0,20.82,27.22Z"/><path class="efc4e32d-b70b-4674-97b0-3fc44e2e5a8f" d="M43.55,25.38a9.44,9.44,0,0,1,0,11.33,6.19,6.19,0,0,1-8.72.82,7,7,0,0,1-.81-.82,9.47,9.47,0,0,1,0-11.35,6.14,6.14,0,0,1,8.64-.89h0a6.8,6.8,0,0,1,.89.89Zm-7.26,1.84a8,8,0,0,0,0,7.72,2.92,2.92,0,0,0,4,1.08,2.87,2.87,0,0,0,1.08-1.08,6.89,6.89,0,0,0,1-3.84,7.05,7.05,0,0,0-1-3.87,3,3,0,0,0-2.53-1.51A2.87,2.87,0,0,0,36.29,27.22Z"/><path class="bde00d79-64b3-4742-8482-50444632373e" d="M11,23.12h2.85V38.44H10.7V26.07L7.85,27.73,6.62,25.41Z"/><path class="bde00d79-64b3-4742-8482-50444632373e" d="M27.84,25.14a9.44,9.44,0,0,1,0,11.33,6.19,6.19,0,0,1-8.72.82,7,7,0,0,1-.81-.82,9.47,9.47,0,0,1,0-11.35,6.13,6.13,0,0,1,8.63-.93l.06,0a6.8,6.8,0,0,1,.89.89Zm-7.26,1.79a8,8,0,0,0,0,7.72,2.92,2.92,0,0,0,4,1.08,2.87,2.87,0,0,0,1.08-1.08,8.16,8.16,0,0,0,0-7.71,2.9,2.9,0,0,0-2.52-1.51A2.84,2.84,0,0,0,20.58,26.93Z"/><path class="bde00d79-64b3-4742-8482-50444632373e" d="M43.31,25.14a9.44,9.44,0,0,1,0,11.33,6.19,6.19,0,0,1-8.72.82,7,7,0,0,1-.81-.82,9.47,9.47,0,0,1,0-11.35,6.14,6.14,0,0,1,8.64-.89h0a6.8,6.8,0,0,1,.89.89Zm-7.26,1.79a8,8,0,0,0,0,7.72,2.92,2.92,0,0,0,4,1.08,2.87,2.87,0,0,0,1.08-1.08,8.16,8.16,0,0,0,0-7.71,2.9,2.9,0,0,0-2.52-1.51A2.84,2.84,0,0,0,36.05,26.93Z"/><g id="a9ca9b4f-c1e5-4d59-b502-1d6d9313f4d9" data-name="f800791c-5c86-49a3-9fe2-939d0de49206"><path class="bd08b87d-afc2-49cc-ab7c-9b96210f0f2c" d="M25.65,16.56h-.47l-.46,1.56a2.92,2.92,0,0,1-.72.06,2.35,2.35,0,0,1-.83-.11L23.11,18l2.36-7.2a8.4,8.4,0,0,1,1-.07,6.63,6.63,0,0,1,1,.08L29.79,18a1.57,1.57,0,0,1-.85.2,1.16,1.16,0,0,1-.79-.19,1.54,1.54,0,0,1-.38-.74l-.21-.71Zm0-1.35h1.53L27,14.55c-.16-.6-.36-1.34-.58-2.21h-.07c-.06.3-.23,1-.51,2Z"/></g><g id="e28b5772-3071-4661-9d9b-ca07fd5675ea" data-name="ad1702c2-c33b-40fc-aae2-e1cb8ae28789"><path class="a5096762-849f-4b26-a33d-bebc85d864b2" d="M25.43,16.56H25l-.46,1.56a2.92,2.92,0,0,1-.72.06,2.4,2.4,0,0,1-.84-.11L22.93,18l2.36-7.2a8.4,8.4,0,0,1,1-.07,6.63,6.63,0,0,1,1,.08L29.6,18a1.56,1.56,0,0,1-.84.2A1.16,1.16,0,0,1,28,18a1.46,1.46,0,0,1-.38-.74l-.21-.71Zm0-1.35H27l-.19-.66c-.17-.6-.36-1.34-.58-2.21h-.08c-.06.3-.23,1-.52,2Z"/></g><circle class="b84b7c0d-9092-4699-b94f-ad181c99e48c" cx="77.1" cy="59.69" r="25.7"/><circle class="a703f281-4d89-47a4-8fcc-e3f76b0c8c17" cx="77.1" cy="59.69" r="21.2"/><path class="efc4e32d-b70b-4674-97b0-3fc44e2e5a8f" d="M56.63,60.06a21.22,21.22,0,0,1,30.3-19.13A21.21,21.21,0,0,0,67,78.35l1,.51A21.21,21.21,0,0,1,56.63,60.06Z"/><path class="b5a97984-be9d-47ee-9547-c252aa2a0b4c" d="M86.93,40.93A21.21,21.21,0,0,1,68,78.85,21.22,21.22,0,0,0,88,41.41Z"/><path class="bce0fc78-b2c1-4ac1-bb04-8ac24028cf11" d="M76.85,79.6a19.5,19.5,0,0,1-9.19-2.72A19.92,19.92,0,0,1,61,70.25a19.13,19.13,0,0,0,7,5.94,18.2,18.2,0,0,0,8.82,1.87Z"/><path class="b30f9ebb-44e5-4659-aae2-f218f3138b39" d="M78,78.06a18,18,0,0,0,8.81-1.87,19.13,19.13,0,0,0,7-5.94,19.65,19.65,0,0,1-6.66,6.63A19.42,19.42,0,0,1,78,79.6Z"/><path class="efc4e32d-b70b-4674-97b0-3fc44e2e5a8f" d="M62.61,52.43h2.85V67.75H62.34V55.38L59.49,57l-1.24-2.31Z"/><path class="efc4e32d-b70b-4674-97b0-3fc44e2e5a8f" d="M79.47,54.45a8.41,8.41,0,0,1,1.89,5.65,8.54,8.54,0,0,1-1.89,5.68,6.2,6.2,0,0,1-9.53,0,9.47,9.47,0,0,1,0-11.35,6.14,6.14,0,0,1,8.64-.9h0a5.76,5.76,0,0,1,.89.89Zm-7.29,1.77a8.07,8.07,0,0,0,0,7.72,2.92,2.92,0,0,0,4,1.08,2.87,2.87,0,0,0,1.08-1.08,6.89,6.89,0,0,0,1-3.84,7,7,0,0,0-1-3.86,2.9,2.9,0,0,0-5.08,0Z"/><path class="efc4e32d-b70b-4674-97b0-3fc44e2e5a8f" d="M94.94,54.45a8.41,8.41,0,0,1,1.89,5.65,8.54,8.54,0,0,1-1.89,5.68,6.2,6.2,0,0,1-9.53,0,9.47,9.47,0,0,1,0-11.35,6,6,0,0,1,4.77-2.2A5.89,5.89,0,0,1,94.94,54.45Zm-7.26,1.77a8.07,8.07,0,0,0,0,7.72,2.92,2.92,0,0,0,4,1.08,2.87,2.87,0,0,0,1.08-1.08,6.89,6.89,0,0,0,1-3.84,7,7,0,0,0-1-3.86,2.9,2.9,0,0,0-5.08,0Z"/><path class="bde00d79-64b3-4742-8482-50444632373e" d="M62.37,52.22h2.81V67.54H62.06V55.13L59.2,56.79,58,54.47Z"/><path class="bde00d79-64b3-4742-8482-50444632373e" d="M79.23,54.22a9.45,9.45,0,0,1,0,11.34,6.2,6.2,0,0,1-8.72.81,7.74,7.74,0,0,1-.81-.81,9.47,9.47,0,0,1,0-11.35,6.15,6.15,0,0,1,9.53,0ZM72,56a8.07,8.07,0,0,0,0,7.72,2.92,2.92,0,0,0,4,1.08,2.87,2.87,0,0,0,1.08-1.08,6.89,6.89,0,0,0,1-3.84,7.05,7.05,0,0,0-1-3.87,2.9,2.9,0,0,0-2.52-1.51A2.86,2.86,0,0,0,72,56Z"/><path class="bde00d79-64b3-4742-8482-50444632373e" d="M94.7,54.22a9.45,9.45,0,0,1,0,11.34,6.2,6.2,0,0,1-8.72.81,7.74,7.74,0,0,1-.81-.81,9.48,9.48,0,0,1,0-11.34,6.17,6.17,0,0,1,8.65-.88A7.31,7.31,0,0,1,94.7,54.22ZM87.44,56a8.07,8.07,0,0,0,0,7.72,2.92,2.92,0,0,0,4,1.08,2.87,2.87,0,0,0,1.08-1.08,6.89,6.89,0,0,0,1-3.84,7.05,7.05,0,0,0-1-3.87A2.9,2.9,0,0,0,90,54.53,2.86,2.86,0,0,0,87.44,56Z"/><g id="f6717a90-85d3-4047-843d-58933f8a7794" data-name="fed906d6-76fb-4d13-aa4e-1d060c506624"><path class="bd08b87d-afc2-49cc-ab7c-9b96210f0f2c" d="M77.05,45.62h-.43l-.44,1.6a2.92,2.92,0,0,1-.72.06,2.4,2.4,0,0,1-.84-.11v-.09L77,39.93c.33,0,.67,0,1-.06a8.39,8.39,0,0,1,1,.06l2.2,7.16a1.58,1.58,0,0,1-.85.21,1.14,1.14,0,0,1-.78-.2,1.48,1.48,0,0,1-.39-.74l-.2-.71H77.05Zm0-1.35h1.6l-.19-.66c-.17-.6-.37-1.34-.59-2.21h-.06c-.06.32-.23,1-.52,2Z"/></g><g id="a44d2155-c010-42c0-b5fc-a5212fcae753" data-name="e193304d-a49c-4bef-a726-5877331b2d5d"><path class="a5096762-849f-4b26-a33d-bebc85d864b2" d="M76.83,45.62H76.4l-.46,1.56a2.92,2.92,0,0,1-.72.06,2.4,2.4,0,0,1-.84-.11V47l2.36-7.2c.33,0,.67-.05,1-.06a6.73,6.73,0,0,1,1,.07l2.32,7.21a1.58,1.58,0,0,1-.85.21,1.14,1.14,0,0,1-.78-.2,1.5,1.5,0,0,1-.43-.74l-.2-.7h-2Zm0-1.35h1.59l-.18-.66c-.17-.6-.37-1.34-.59-2.21h-.06c-.06.32-.23,1-.52,2Z"/></g><circle class="b84b7c0d-9092-4699-b94f-ad181c99e48c" cx="128.5" cy="30.63" r="25.7"/><circle class="a703f281-4d89-47a4-8fcc-e3f76b0c8c17" cx="128.5" cy="30.63" r="21.2"/><path class="efc4e32d-b70b-4674-97b0-3fc44e2e5a8f" d="M108,31a21.22,21.22,0,0,1,30.32-19.16,21.22,21.22,0,0,0-18.91,38A21.18,21.18,0,0,1,108,31Z"/><path class="b5a97984-be9d-47ee-9547-c252aa2a0b4c" d="M138.32,11.84a21.22,21.22,0,1,1-18.91,38h0a21.22,21.22,0,1,0,18.91-38Z"/><path class="bce0fc78-b2c1-4ac1-bb04-8ac24028cf11" d="M128.24,50.53a19.2,19.2,0,0,1-9.18-2.72,19.53,19.53,0,0,1-6.66-6.59,19.13,19.13,0,0,0,7,5.94A18.27,18.27,0,0,0,128.21,49Z"/><path class="b30f9ebb-44e5-4659-aae2-f218f3138b39" d="M129.4,49a18.15,18.15,0,0,0,8.78-1.86,19.49,19.49,0,0,0,7-5.94,19.8,19.8,0,0,1-6.66,6.62,19.27,19.27,0,0,1-9.19,2.72Z"/><path class="efc4e32d-b70b-4674-97b0-3fc44e2e5a8f" d="M114,23.36h2.86V38.68h-3.13V26.31l-2.85,1.62-1.23-2.32Z"/><path class="efc4e32d-b70b-4674-97b0-3fc44e2e5a8f" d="M130.87,25.38a9.44,9.44,0,0,1,0,11.33,6.19,6.19,0,0,1-8.72.82,7,7,0,0,1-.81-.82,9.47,9.47,0,0,1,0-11.35,6.14,6.14,0,0,1,8.64-.89h0a6.8,6.8,0,0,1,.89.89Zm-7.26,1.84a8,8,0,0,0,0,7.72,2.92,2.92,0,0,0,4,1.08,2.87,2.87,0,0,0,1.08-1.08,6.89,6.89,0,0,0,1-3.84,7.05,7.05,0,0,0-1-3.87,3,3,0,0,0-2.53-1.51A2.87,2.87,0,0,0,123.61,27.22Z"/><path class="efc4e32d-b70b-4674-97b0-3fc44e2e5a8f" d="M146.34,25.38a9.44,9.44,0,0,1,0,11.33,6.19,6.19,0,0,1-8.72.82,7,7,0,0,1-.81-.82,9.47,9.47,0,0,1,0-11.35,6.14,6.14,0,0,1,8.64-.89h0a6.8,6.8,0,0,1,.89.89Zm-7.26,1.84a6.9,6.9,0,0,0-1,3.88,6.81,6.81,0,0,0,1,3.84,2.91,2.91,0,0,0,4,1.09,2.85,2.85,0,0,0,1.09-1.09,6.89,6.89,0,0,0,1-3.84,7,7,0,0,0-1-3.86,2.91,2.91,0,0,0-2.53-1.51A2.85,2.85,0,0,0,139.08,27.22Z"/><path class="bde00d79-64b3-4742-8482-50444632373e" d="M113.76,23.12h2.85V38.44h-3.12V26.07l-2.85,1.66-1.23-2.32Z"/><path class="bde00d79-64b3-4742-8482-50444632373e" d="M130.63,25.14a9.44,9.44,0,0,1,0,11.33,6.19,6.19,0,0,1-8.72.82,7,7,0,0,1-.81-.82,9.47,9.47,0,0,1,0-11.35,6.14,6.14,0,0,1,8.64-.89h0a6.8,6.8,0,0,1,.89.89Zm-7.26,1.79a8,8,0,0,0-.05,7.72,2.92,2.92,0,0,0,4,1.08,2.87,2.87,0,0,0,1.08-1.08,6.89,6.89,0,0,0,1-3.84,7.05,7.05,0,0,0-1-3.87,3,3,0,0,0-2.53-1.51A2.83,2.83,0,0,0,123.37,26.93Z"/><path class="bde00d79-64b3-4742-8482-50444632373e" d="M146.1,25.14a9.44,9.44,0,0,1,0,11.33,6.19,6.19,0,0,1-8.72.82,7,7,0,0,1-.81-.82,9.47,9.47,0,0,1,0-11.35,6.14,6.14,0,0,1,8.64-.89h0a6.8,6.8,0,0,1,.89.89Zm-7.26,1.79a8,8,0,0,0-.05,7.72,2.92,2.92,0,0,0,4,1.08,2.87,2.87,0,0,0,1.08-1.08,6.89,6.89,0,0,0,1-3.84,7.05,7.05,0,0,0-1-3.87,3,3,0,0,0-2.53-1.51A2.83,2.83,0,0,0,138.84,26.93Z"/><g id="b314e40c-3ab9-4f40-8596-b9cb333c5df3" data-name="a58898d3-6840-4e59-82e4-a6c54b1f5a90"><path class="bd08b87d-afc2-49cc-ab7c-9b96210f0f2c" d="M128.44,16.56H128l-.46,1.56a2.92,2.92,0,0,1-.72.06,2.35,2.35,0,0,1-.83-.11V18l2.35-7.2a8.4,8.4,0,0,1,1-.07,6.63,6.63,0,0,1,1,.08L132.66,18a1.57,1.57,0,0,1-.85.2A1.14,1.14,0,0,1,131,18a1.56,1.56,0,0,1-.39-.74l-.2-.71Zm0-1.35H130l-.18-.66c-.17-.6-.37-1.34-.59-2.21h-.09c0,.3-.22,1-.51,2Z"/></g><g id="bbb52da7-c054-416e-abf2-16723d7d79cc" data-name="a86dd742-4bce-4ed5-b392-6c75dd31f140"><path class="a5096762-849f-4b26-a33d-bebc85d864b2" d="M128.18,16.56h-.43l-.46,1.56a2.92,2.92,0,0,1-.72.06,2.35,2.35,0,0,1-.83-.11l-.06-.09,2.32-7.2a8.4,8.4,0,0,1,1-.07,6.63,6.63,0,0,1,1,.08L132.32,18a1.57,1.57,0,0,1-.85.2,1.14,1.14,0,0,1-.78-.19,1.56,1.56,0,0,1-.39-.74l-.21-.71Zm0-1.34h1.6l-.18-.66c-.17-.6-.37-1.34-.59-2.21h-.07a13.63,13.63,0,0,1-.51,2Z"/></g><circle class="b84b7c0d-9092-4699-b94f-ad181c99e48c" cx="25.7" cy="88.75" r="25.7"/><circle class="a703f281-4d89-47a4-8fcc-e3f76b0c8c17" cx="25.7" cy="88.75" r="21.2"/><path class="efc4e32d-b70b-4674-97b0-3fc44e2e5a8f" d="M5.24,89.13a21.21,21.21,0,0,1,30.29-19.2,21.22,21.22,0,0,0-18.92,38h0A21.19,21.19,0,0,1,5.24,89.13Z"/><path class="b5a97984-be9d-47ee-9547-c252aa2a0b4c" d="M35.53,69.93a21.22,21.22,0,1,1-18.92,38A21.21,21.21,0,0,0,36.55,70.52l-1-.51Z"/><path class="bce0fc78-b2c1-4ac1-bb04-8ac24028cf11" d="M25.45,108.67a19.45,19.45,0,0,1-9.18-2.74A19.83,19.83,0,0,1,9.6,99.31a19.13,19.13,0,0,0,7,5.94,17.91,17.91,0,0,0,8.81,1.86Z"/><path class="b30f9ebb-44e5-4659-aae2-f218f3138b39" d="M26.61,107.11a17.91,17.91,0,0,0,8.81-1.86,19.13,19.13,0,0,0,7-5.94,19.83,19.83,0,0,1-6.67,6.62,19.45,19.45,0,0,1-9.18,2.74Z"/><path class="efc4e32d-b70b-4674-97b0-3fc44e2e5a8f" d="M11.18,81.49H14V96.81H10.91V84.44L8.06,86.1,6.83,83.78Z"/><path class="efc4e32d-b70b-4674-97b0-3fc44e2e5a8f" d="M28.08,83.51a9.36,9.36,0,0,1,0,11.32,6.15,6.15,0,0,1-8.68.85,5.69,5.69,0,0,1-.85-.85,9.45,9.45,0,0,1,0-11.34,6.14,6.14,0,0,1,8.64-.9h0a5.76,5.76,0,0,1,.89.89Zm-7.26,1.81a8.07,8.07,0,0,0,0,7.72,2.92,2.92,0,0,0,4,1.09A3,3,0,0,0,25.9,93a6.92,6.92,0,0,0,1-3.83,7,7,0,0,0-1-3.88,2.91,2.91,0,0,0-2.53-1.51A2.83,2.83,0,0,0,20.82,85.32Z"/><path class="efc4e32d-b70b-4674-97b0-3fc44e2e5a8f" d="M43.55,83.51a9.42,9.42,0,0,1,0,11.32,6.15,6.15,0,0,1-8.68.85,5.69,5.69,0,0,1-.85-.85,9.45,9.45,0,0,1,0-11.34,6.14,6.14,0,0,1,8.64-.9h0a5.76,5.76,0,0,1,.89.89Zm-7.26,1.81a8,8,0,0,0,0,7.72,2.92,2.92,0,0,0,4,1.09A3,3,0,0,0,41.37,93a6.92,6.92,0,0,0,1-3.83,7,7,0,0,0-1-3.88,2.91,2.91,0,0,0-2.53-1.51A2.83,2.83,0,0,0,36.29,85.32Z"/><path class="bde00d79-64b3-4742-8482-50444632373e" d="M11,81.22h2.85V96.54H10.7V84.22L7.85,85.88,6.62,83.56Z"/><path class="bde00d79-64b3-4742-8482-50444632373e" d="M27.84,83.27a9.44,9.44,0,0,1,0,11.33,6.15,6.15,0,0,1-8.68.85,5.69,5.69,0,0,1-.85-.85,9.47,9.47,0,0,1,0-11.35,6.14,6.14,0,0,1,8.63-.94l.06,0a6.8,6.8,0,0,1,.89.89Zm-7.26,1.8a8,8,0,0,0,0,7.72,2.92,2.92,0,0,0,4,1.08,2.87,2.87,0,0,0,1.08-1.08,8.16,8.16,0,0,0,0-7.71,2.9,2.9,0,0,0-2.52-1.51,2.86,2.86,0,0,0-2.51,1.5Z"/><path class="bde00d79-64b3-4742-8482-50444632373e" d="M43.31,83.27a8.38,8.38,0,0,1,1.87,5.66,8.49,8.49,0,0,1-1.89,5.67,6.15,6.15,0,0,1-8.68.85,5.69,5.69,0,0,1-.85-.85,9.47,9.47,0,0,1,0-11.35,6.14,6.14,0,0,1,8.64-.89h0a6.8,6.8,0,0,1,.89.89Zm-7.26,1.8a8,8,0,0,0,0,7.72,2.92,2.92,0,0,0,4,1.08,2.87,2.87,0,0,0,1.08-1.08,8.16,8.16,0,0,0,0-7.71,2.9,2.9,0,0,0-2.52-1.51,2.86,2.86,0,0,0-2.51,1.5Z"/><g id="ff8d2ae9-92a8-49b1-823d-ce1ad11169f6" data-name="f8056b09-25b0-4bef-96b8-611473077f5a"><path class="bd08b87d-afc2-49cc-ab7c-9b96210f0f2c" d="M25.65,74.69h-.43l-.46,1.56a2.93,2.93,0,0,1-.72.07,2.1,2.1,0,0,1-.86-.1l-.06-.08,2.36-7.21c.33,0,.67-.05,1-.06a6.73,6.73,0,0,1,1,.07l2.32,7.21a1.68,1.68,0,0,1-.85.21,1.21,1.21,0,0,1-.79-.19,1.64,1.64,0,0,1-.38-.74l-.21-.71h-.41Zm0-1.34h1.53L27,72.67c-.16-.6-.36-1.34-.58-2.21h-.07c-.06.31-.23,1-.51,2Z"/></g><g id="ed24a622-b9bb-43ab-be8d-419282bc12ba" data-name="f8cf12fc-98f3-4141-a30c-b77583e97d16"><path class="a5096762-849f-4b26-a33d-bebc85d864b2" d="M25.43,74.69H25l-.46,1.56a2.93,2.93,0,0,1-.72.07A2.41,2.41,0,0,1,23,76.2l-.05-.09,2.36-7.18c.33,0,.67-.05,1-.06a6.73,6.73,0,0,1,1,.07l2.31,7.19a1.66,1.66,0,0,1-.84.21,1.07,1.07,0,0,1-.79-.2,1.39,1.39,0,0,1-.38-.74l-.21-.71Zm0-1.34H27l-.19-.67c-.17-.6-.36-1.34-.58-2.21h-.08c-.06.31-.23,1-.52,2Z"/></g><circle class="b84b7c0d-9092-4699-b94f-ad181c99e48c" cx="128.5" cy="88.75" r="25.7"/><circle class="a703f281-4d89-47a4-8fcc-e3f76b0c8c17" cx="128.5" cy="88.75" r="21.2"/><path class="efc4e32d-b70b-4674-97b0-3fc44e2e5a8f" d="M108,89.13a21.22,21.22,0,0,1,30.32-19.2,21.22,21.22,0,0,0-18.91,38h0A21.2,21.2,0,0,1,108,89.13Z"/><path class="b5a97984-be9d-47ee-9547-c252aa2a0b4c" d="M138.32,69.93a21.22,21.22,0,1,1-18.91,38h0A21.2,21.2,0,1,0,138.32,70Z"/><path class="bce0fc78-b2c1-4ac1-bb04-8ac24028cf11" d="M128.24,108.67a19.46,19.46,0,0,1-15.84-9.36,19.13,19.13,0,0,0,7,5.94,17.91,17.91,0,0,0,8.81,1.86Z"/><path class="b30f9ebb-44e5-4659-aae2-f218f3138b39" d="M129.4,107.11a18,18,0,0,0,8.78-1.89,19.49,19.49,0,0,0,7-5.94,19.8,19.8,0,0,1-6.66,6.62,19.52,19.52,0,0,1-9.19,2.74Z"/><path class="efc4e32d-b70b-4674-97b0-3fc44e2e5a8f" d="M114,81.49h2.86V96.81h-3.13V84.44l-2.85,1.66-1.23-2.31Z"/><path class="efc4e32d-b70b-4674-97b0-3fc44e2e5a8f" d="M130.87,83.51a9.42,9.42,0,0,1,0,11.32,6.15,6.15,0,0,1-8.68.85,5.69,5.69,0,0,1-.85-.85,9.45,9.45,0,0,1,0-11.34,6.14,6.14,0,0,1,8.64-.9h0a5.76,5.76,0,0,1,.89.89Zm-7.26,1.81a8,8,0,0,0,0,7.72,2.92,2.92,0,0,0,4,1.09,3,3,0,0,0,1.1-1.09,6.92,6.92,0,0,0,1-3.83,7,7,0,0,0-1-3.88,2.91,2.91,0,0,0-2.53-1.51A2.83,2.83,0,0,0,123.61,85.32Z"/><path class="efc4e32d-b70b-4674-97b0-3fc44e2e5a8f" d="M146.34,83.51a9.42,9.42,0,0,1,0,11.32,6.15,6.15,0,0,1-8.68.85,5.69,5.69,0,0,1-.85-.85,9.45,9.45,0,0,1,0-11.34,6.14,6.14,0,0,1,8.64-.9h0a5.76,5.76,0,0,1,.89.89Zm-7.26,1.81a8,8,0,0,0,0,7.72,2.9,2.9,0,0,0,4,1.1,2.86,2.86,0,0,0,1.11-1.1,6.92,6.92,0,0,0,1-3.83,7,7,0,0,0-1-3.88,2.91,2.91,0,0,0-2.53-1.51A2.84,2.84,0,0,0,139.08,85.32Z"/><path class="bde00d79-64b3-4742-8482-50444632373e" d="M113.76,81.22h2.85V96.54h-3.12V84.22l-2.85,1.66-1.23-2.31Z"/><path class="bde00d79-64b3-4742-8482-50444632373e" d="M130.63,83.27a9.44,9.44,0,0,1,0,11.33,6.15,6.15,0,0,1-8.68.85,5.69,5.69,0,0,1-.85-.85,9.47,9.47,0,0,1,0-11.35,6.14,6.14,0,0,1,8.64-.89h0a6.8,6.8,0,0,1,.89.89Zm-7.26,1.8a8,8,0,0,0-.05,7.72,2.92,2.92,0,0,0,4,1.08,2.87,2.87,0,0,0,1.08-1.08,6.87,6.87,0,0,0,1-3.83,7.06,7.06,0,0,0-1-3.88,3,3,0,0,0-2.53-1.51A2.83,2.83,0,0,0,123.37,85.07Z"/><path class="bde00d79-64b3-4742-8482-50444632373e" d="M146.1,83.27a9.42,9.42,0,0,1,0,11.33,6.15,6.15,0,0,1-8.68.85,5.69,5.69,0,0,1-.85-.85,9.47,9.47,0,0,1,0-11.35,6.14,6.14,0,0,1,8.64-.89h0a6.8,6.8,0,0,1,.89.89Zm-7.26,1.8a8,8,0,0,0-.05,7.72,2.92,2.92,0,0,0,4,1.08,2.87,2.87,0,0,0,1.08-1.08,6.87,6.87,0,0,0,1-3.83,7.06,7.06,0,0,0-1-3.88,3,3,0,0,0-2.53-1.51,2.83,2.83,0,0,0-2.5,1.5Z"/><g id="a6b07914-1c32-4677-a26b-b1f8edb4c6e7" data-name="bbef7959-e710-42b0-9658-ddf4de07cc82"><path class="bd08b87d-afc2-49cc-ab7c-9b96210f0f2c" d="M128.44,74.69H128l-.46,1.56a2.93,2.93,0,0,1-.72.07,2.15,2.15,0,0,1-.83-.12v-.09l2.31-7.18c.33,0,.67-.05,1-.06a6.73,6.73,0,0,1,1,.07l2.32,7.21a1.68,1.68,0,0,1-.85.21,1.19,1.19,0,0,1-.78-.19,1.56,1.56,0,0,1-.39-.74l-.2-.71h-2Zm0-1.34H130l-.18-.67c-.17-.6-.37-1.34-.59-2.21h-.09c0,.31-.22,1-.51,2Z"/></g><g id="a372a34c-098f-48ba-b67c-7177b81b1fcf" data-name="ac59815f-db0a-4a32-aae4-45a583bae6c2"><path class="a5096762-849f-4b26-a33d-bebc85d864b2" d="M128.18,74.69h-.43l-.46,1.56a2.93,2.93,0,0,1-.72.07,2.15,2.15,0,0,1-.83-.12l-.06-.09L128,68.93c.33,0,.67-.05,1-.06a6.73,6.73,0,0,1,1,.07l2.32,7.21a1.68,1.68,0,0,1-.85.21,1.19,1.19,0,0,1-.78-.19,1.56,1.56,0,0,1-.39-.74l-.21-.71h-2Zm0-1.34h1.6l-.18-.67c-.17-.6-.37-1.34-.59-2.21h-.07a14.31,14.31,0,0,1-.51,2Z"/></g></g></g></g></g></svg>