<svg xmlns="http://www.w3.org/2000/svg" viewBox="0 0 154.2 119.39"><defs><style>.bdd4b772-4879-4c6c-8b52-2b310fdcd075{fill:none;}.ff60db77-3074-4465-82ac-59ab200f8c32{fill:#9b935c;}.a0b06033-5167-45d6-a84b-706739939def{fill:#d1c671;}.a9524f03-0839-4c72-9d60-8ff533db75cc{fill:#777329;}.f4ad294e-f0e5-474c-90b2-0087973db209{fill:#eae3b0;}.f4513c03-e552-41b2-bc17-ed3eb87482f6{fill:#e0d8a2;}.ff89532d-0cb8-4ae8-8f9c-9cace85d7484{fill:#a59956;}.beb28301-2c31-4f89-a0a4-c0b5ed2bec99{fill:#999367;}.bae683aa-0cc4-4cee-9d0b-cf7f08e2e130{fill:#f9f2b2;}.b1da27ea-37eb-4ab7-ab0d-aedf2253a071{fill:#a39b62;}.bf589752-297d-4a79-a94e-dd50d6e5653e{fill:#fff2b0;}</style></defs><title>10</title><g id="e0c19d9a-8f0a-492e-b494-9def9f8a4a9b" data-name="Capa 2"><g id="a7f2dae7-688c-4ca5-a32c-d40957f160af" data-name="Capa 1"><rect class="bdd4b772-4879-4c6c-8b52-2b310fdcd075" width="154.2" height="119.39"/><g id="b1493ae3-5824-421d-a764-40076931f400" data-name="b115b0f7-e50c-48c0-9ce9-b3e4b4d00aa9"><g id="ab2398aa-6d72-4e1c-9376-2f7cb52f6949" data-name="ae39faaf-a452-4906-8699-2acbf41e922f"><circle class="ff60db77-3074-4465-82ac-59ab200f8c32" cx="77.1" cy="59.69" r="19.92"/><circle class="a0b06033-5167-45d6-a84b-706739939def" cx="77.1" cy="59.69" r="16.43"/><path class="a9524f03-0839-4c72-9d60-8ff533db75cc" d="M61.23,60A16.45,16.45,0,0,1,77.67,43.54h0a16.47,16.47,0,0,1,7,1.59,16.25,16.25,0,0,0-7.61-1.87,16.44,16.44,0,0,0-7,31.29A16.42,16.42,0,0,1,61.23,60Z"/><path class="f4ad294e-f0e5-474c-90b2-0087973db209" d="M84.71,45.13A16.44,16.44,0,0,1,70.05,74.55,16.44,16.44,0,0,0,84.71,45.13Z"/><path class="f4513c03-e552-41b2-bc17-ed3eb87482f6" d="M76.9,75.09a15.06,15.06,0,0,1-12.28-7.25,15.09,15.09,0,0,0,5.45,4.61,14.28,14.28,0,0,0,6.83,1.44Z"/><path class="ff89532d-0cb8-4ae8-8f9c-9cace85d7484" d="M77.8,73.93a14.28,14.28,0,0,0,6.83-1.44,15.09,15.09,0,0,0,5.45-4.61A15.14,15.14,0,0,1,84.92,73a15,15,0,0,1-7.12,2.12Z"/><path class="beb28301-2c31-4f89-a0a4-c0b5ed2bec99" d="M70.18,52.77h3v15.9H69.9V55.84l-3,1.72-1.27-2.4Z"/><path class="beb28301-2c31-4f89-a0a4-c0b5ed2bec99" d="M87.63,54.88a9.78,9.78,0,0,1,0,11.74,6.39,6.39,0,0,1-9,.87,5.51,5.51,0,0,1-.87-.87,9.83,9.83,0,0,1,0-11.77,6.38,6.38,0,0,1,9.88,0ZM80.1,56.77a7.13,7.13,0,0,0-1,4,7.17,7.17,0,0,0,1,4A3,3,0,0,0,84.17,66a3,3,0,0,0,1.2-1.21,8.41,8.41,0,0,0,0-8,3,3,0,0,0-4.07-1.2A3.08,3.08,0,0,0,80.1,56.77Z"/><path class="bae683aa-0cc4-4cee-9d0b-cf7f08e2e130" d="M70,52.6h3V68.49H69.71V55.66l-3,1.72L65.44,55Z"/><path class="bae683aa-0cc4-4cee-9d0b-cf7f08e2e130" d="M87.44,54.7a9.61,9.61,0,0,1,0,11.74,6.4,6.4,0,0,1-9,.88,6,6,0,0,1-.87-.88,9.83,9.83,0,0,1,0-11.77,6.36,6.36,0,0,1,8.94-1l.06,0a6.81,6.81,0,0,1,.93.93Zm-7.53,1.87a8.35,8.35,0,0,0,0,8A3,3,0,0,0,84,65.76a2.9,2.9,0,0,0,1.19-1.19,8.41,8.41,0,0,0,0-8,3,3,0,0,0-4.07-1.18A2.94,2.94,0,0,0,79.91,56.57Z"/><g id="aae07bf1-f1be-4be8-afbc-88c8443b1812" data-name="be7ece49-2d32-407a-b7e8-9d0dec60b22a"><path class="b1da27ea-37eb-4ab7-ab0d-aedf2253a071" d="M77.06,48.77h-.34L76.37,50a1.75,1.75,0,0,1-.56,0,1.8,1.8,0,0,1-.65-.1v-.06L77,44.24a4.82,4.82,0,0,1,.76,0q.39,0,.78,0l1.79,5.59a1.14,1.14,0,0,1-.65.16,1,1,0,0,1-.61-.15,1.09,1.09,0,0,1-.3-.57l-.16-.5H77.06Zm0-1H78.3l-.12-.5c-.13-.46-.29-1-.46-1.71h0a11.93,11.93,0,0,1-.4,1.59Z"/></g><g id="b0ab719d-8cd1-4a74-aa12-44c2fbed82e2" data-name="a13c310c-417a-413d-bd8a-b0b126c8f265"><path class="bf589752-297d-4a79-a94e-dd50d6e5653e" d="M76.88,48.77h-.33L76.18,50a2.53,2.53,0,0,1-.55,0,1.8,1.8,0,0,1-.65-.1v-.06l1.83-5.58a4.69,4.69,0,0,1,.75,0h.79l1.83,5.59a1.18,1.18,0,0,1-.66.16.86.86,0,0,1-.6-.15,1.1,1.1,0,0,1-.3-.56l-.19-.53H76.88Zm0-1h1.24l-.14-.5c-.13-.46-.29-1-.46-1.71h0a11.93,11.93,0,0,1-.4,1.59Z"/></g></g></g></g></g></svg>