<svg xmlns="http://www.w3.org/2000/svg" viewBox="0 0 154.2 119.39"><defs><style>.ec997d93-6937-43ed-ab09-6ac2f34d3e30{fill:none;}.a46f33e6-85e8-4403-950c-44b61cc501d2{fill:#9b935c;}.a2942edf-58ca-4eae-b940-27c926b8f34d{fill:#d1c671;}.aafa32cf-79f8-4aad-971d-a11ed6f15744{fill:#777329;}.b994433b-8866-4c97-a0b6-fa4cc12109cc{fill:#eae3b0;}.a538bec8-8f2a-461a-bb8e-9fe266444c31{fill:#e0d8a2;}.a16e6d35-5e2b-46b7-9242-0a344f4dde3c{fill:#a59956;}.fd852694-6a69-41bf-b00d-e43681ecedd2{fill:#999367;}.f53b46c6-05bc-4e86-af3d-fbe5153440b2{fill:#f9f2b2;}.f081dde3-2af8-49fd-8ea6-6b496ec28001{fill:#a39b62;}.e34271b5-f531-4225-bb44-1b9c2fc7ced3{fill:#fff2b0;}</style></defs><title>10 2</title><g id="e9b74f8f-d05e-4a81-ba21-323b0693904c" data-name="Capa 2"><g id="ba6e5241-aeac-4bdc-abeb-6a96fcf0b311" data-name="Capa 1"><rect class="ec997d93-6937-43ed-ab09-6ac2f34d3e30" width="154.2" height="119.39"/><g id="fcf9e5d6-279c-4165-9c94-fd0d59c486d4" data-name="ae4a1272-50c3-49e3-bea2-5c01a33eba54"><g id="e8a6ec2c-f2e2-4067-b9cb-0c575f7416b5" data-name="ea96a503-c3e1-4edf-8303-2e20818751de"><circle class="a46f33e6-85e8-4403-950c-44b61cc501d2" cx="25.11" cy="19.92" r="19.92"/><circle class="a2942edf-58ca-4eae-b940-27c926b8f34d" cx="25.11" cy="19.92" r="16.43"/><path class="aafa32cf-79f8-4aad-971d-a11ed6f15744" d="M9.24,20.16A16.45,16.45,0,0,1,32.72,5.31,16.44,16.44,0,0,0,17.11,34.25l.23.12q.36.2.72.36A16.45,16.45,0,0,1,9.24,20.16Z"/><path class="b994433b-8866-4c97-a0b6-fa4cc12109cc" d="M32.72,5.35A16.44,16.44,0,0,1,18.06,34.77,16.44,16.44,0,0,0,33.44,5.71Q33.08,5.52,32.72,5.35Z"/><path class="a538bec8-8f2a-461a-bb8e-9fe266444c31" d="M24.91,35.34a14.94,14.94,0,0,1-7.12-2.11,15.25,15.25,0,0,1-5.16-5.13,15,15,0,0,0,5.45,4.6,14,14,0,0,0,6.83,1.46Z"/><path class="a16e6d35-5e2b-46b7-9242-0a344f4dde3c" d="M25.81,34.16a14.05,14.05,0,0,0,6.83-1.45,15,15,0,0,0,5.45-4.6,15.25,15.25,0,0,1-5.16,5.13,14.94,14.94,0,0,1-7.12,2.11Z"/><path class="fd852694-6a69-41bf-b00d-e43681ecedd2" d="M18.19,13h3V28.9H17.91V16.07l-3,1.72-1.28-2.4Z"/><path class="fd852694-6a69-41bf-b00d-e43681ecedd2" d="M35.64,15.16a8.74,8.74,0,0,1,2,5.86,8.91,8.91,0,0,1-2,5.88,6.4,6.4,0,0,1-9,.87,6,6,0,0,1-.87-.87,9.77,9.77,0,0,1,0-11.77,6.38,6.38,0,0,1,9.88,0ZM28.11,17a8.41,8.41,0,0,0,0,8,3,3,0,0,0,5.27,0,8.41,8.41,0,0,0,0-8,3,3,0,0,0-5.27,0Z"/><path class="f53b46c6-05bc-4e86-af3d-fbe5153440b2" d="M18,12.83h3V28.71H17.72V15.89l-3,1.71-1.27-2.44Z"/><path class="f53b46c6-05bc-4e86-af3d-fbe5153440b2" d="M35.45,14.92a9.78,9.78,0,0,1,0,11.74,6.4,6.4,0,0,1-9,.87,6,6,0,0,1-.87-.87,9.83,9.83,0,0,1,0-11.77,6.38,6.38,0,0,1,9.88,0Zm-7.53,1.87a7.29,7.29,0,0,0-1,4,7.13,7.13,0,0,0,1,4,3,3,0,0,0,5.26,0,8.41,8.41,0,0,0,0-8,3,3,0,0,0-5.26,0Z"/><g id="e3331e56-ed4d-4b28-8460-9a4715440694" data-name="bd793cf1-cf45-4c26-9390-9b5d75262a7c"><path class="f081dde3-2af8-49fd-8ea6-6b496ec28001" d="M25.07,9h-.34l-.39,1.2a2.62,2.62,0,0,1-.56,0,1.8,1.8,0,0,1-.65-.09h0L25,4.52a4.7,4.7,0,0,1,.75,0,3.51,3.51,0,0,1,.79.06l1.84,5.58a1.23,1.23,0,0,1-.65.16,1,1,0,0,1-.61-.15,1.16,1.16,0,0,1-.3-.58L26.62,9H25.07Zm0-1h1.24l-.12-.51c-.13-.47-.29-1-.46-1.71h0a12.33,12.33,0,0,1-.4,1.59Z"/></g><g id="bcc4d3c1-4b55-482a-ab10-7a01a52a2ece" data-name="a03a0f57-3e9e-4e6e-baf0-ba1243a2d4b2"><path class="e34271b5-f531-4225-bb44-1b9c2fc7ced3" d="M24.89,9h-.33l-.37,1.22a2.53,2.53,0,0,1-.55,0,1.8,1.8,0,0,1-.65-.09v-.07l1.83-5.58a4.69,4.69,0,0,1,.75,0,3.51,3.51,0,0,1,.79.06l1.75,5.57a1.27,1.27,0,0,1-.66.16.92.92,0,0,1-.6-.15,1.16,1.16,0,0,1-.3-.58L26.4,9Zm0-1h1.24L26,7.48c-.14-.47-.29-1-.46-1.71h-.05a12.33,12.33,0,0,1-.4,1.59Z"/></g><circle class="a46f33e6-85e8-4403-950c-44b61cc501d2" cx="129.09" cy="99.47" r="19.92"/><circle class="a2942edf-58ca-4eae-b940-27c926b8f34d" cx="129.09" cy="99.47" r="16.43"/><path class="aafa32cf-79f8-4aad-971d-a11ed6f15744" d="M113.19,99.76a16.44,16.44,0,0,1,16.44-16.44h0a16.33,16.33,0,0,1,7,1.59A16.18,16.18,0,0,0,129.05,83a16.43,16.43,0,0,0-7,31.28A16.46,16.46,0,0,1,113.19,99.76Z"/><path class="b994433b-8866-4c97-a0b6-fa4cc12109cc" d="M136.7,84.91A16.43,16.43,0,0,1,122,114.32h0A16.43,16.43,0,0,0,136.7,84.91Z"/><path class="a538bec8-8f2a-461a-bb8e-9fe266444c31" d="M128.89,114.9a15.06,15.06,0,0,1-7.12-2.12,15.25,15.25,0,0,1-5.16-5.13,15.09,15.09,0,0,0,5.45,4.61,14.16,14.16,0,0,0,6.83,1.44Z"/><path class="a16e6d35-5e2b-46b7-9242-0a344f4dde3c" d="M129.79,113.7a14.16,14.16,0,0,0,6.83-1.44,15.09,15.09,0,0,0,5.45-4.61,15.25,15.25,0,0,1-5.16,5.13,15.06,15.06,0,0,1-7.12,2.12Z"/><path class="fd852694-6a69-41bf-b00d-e43681ecedd2" d="M122.13,92.57h3v15.88h-3.24V95.62l-3,1.72-1.27-2.4Z"/><path class="fd852694-6a69-41bf-b00d-e43681ecedd2" d="M139.62,94.66a9.78,9.78,0,0,1,0,11.74,6.4,6.4,0,0,1-9,.87,6,6,0,0,1-.87-.87,9.83,9.83,0,0,1,0-11.77,6.38,6.38,0,0,1,9.88,0Zm-7.53,1.87a7.13,7.13,0,0,0-1,4,7.21,7.21,0,0,0,1,4,3,3,0,0,0,5.27,0,8.41,8.41,0,0,0,0-8,3,3,0,0,0-5.27,0Z"/><path class="f53b46c6-05bc-4e86-af3d-fbe5153440b2" d="M121.94,92.38h3v15.88H121.7V95.44l-3,1.71-1.27-2.4Z"/><path class="f53b46c6-05bc-4e86-af3d-fbe5153440b2" d="M139.43,94.47a9.78,9.78,0,0,1,0,11.74,6.4,6.4,0,0,1-9,.87,6,6,0,0,1-.87-.87,9.81,9.81,0,0,1,0-11.76,6.37,6.37,0,0,1,9-1l0,0a5.72,5.72,0,0,1,.92.92Zm-7.53,1.88a8.35,8.35,0,0,0,0,8,3,3,0,0,0,5.26,0,8.41,8.41,0,0,0,0-8,3,3,0,0,0-5.26,0Z"/><g id="e068e334-f149-4ae0-b46a-a1297932596f" data-name="a51f8c10-0fc0-4b37-be2e-682728ec185c"><path class="f081dde3-2af8-49fd-8ea6-6b496ec28001" d="M129.05,88.57h-.34l-.35,1.21a2.62,2.62,0,0,1-.56,0,1.8,1.8,0,0,1-.65-.09v-.06L129,84.05a4.82,4.82,0,0,1,.76,0,5.08,5.08,0,0,1,.78,0l1.79,5.59a1.23,1.23,0,0,1-.65.16,1,1,0,0,1-.61-.15,1.17,1.17,0,0,1-.3-.57l-.16-.55h-1.5Zm0-1h1.24l-.14-.52c-.13-.46-.29-1-.46-1.71h0a9.74,9.74,0,0,1-.4,1.59Z"/></g><g id="bb3ff25e-fe37-4e78-b895-a46550ab6fb3" data-name="e13d5928-e933-4a82-83b1-0d6e9842e3fb"><path class="e34271b5-f531-4225-bb44-1b9c2fc7ced3" d="M128.88,88.57h-.34l-.35,1.21a2.62,2.62,0,0,1-.56,0,1.8,1.8,0,0,1-.65-.09v-.06l1.83-5.58a4.69,4.69,0,0,1,.75,0,5.21,5.21,0,0,1,.79,0l1.84,5.59a1.27,1.27,0,0,1-.66.16.92.92,0,0,1-.6-.15,1.17,1.17,0,0,1-.3-.57l-.16-.55H129Zm0-1h1.24l-.14-.52c-.13-.46-.29-1-.46-1.71h0a12.33,12.33,0,0,1-.4,1.59Z"/></g></g></g></g></g></svg>