<svg xmlns="http://www.w3.org/2000/svg" viewBox="0 0 154.2 119.39"><defs><style>.e60fd9bd-135f-4b11-a5d5-86f0fffc23b2{fill:none;}.b132a246-0f06-4f80-8668-128006bdb379{fill:#9b935c;}.b524af78-28a4-4afe-b46c-5db62015ee82{fill:#d1c671;}.e32e9765-2286-4a4a-948a-2e4a88ee0919{fill:#777329;}.aca7f98f-a52b-4abd-8f6f-500a9c69a60d{fill:#eae3b0;}.b013ed54-86a1-443a-8a73-96f1c2b7f267{fill:#e0d8a2;}.a8d5a5eb-4cfe-4b8c-b3ce-543b99299640{fill:#a59956;}.f1bbad59-3122-4237-968f-dfb57dc1d430{fill:#999367;}.a157e931-0498-46ed-a0a7-087aeaefe175{fill:#f9f2b2;}.a1e78bc1-ae00-43e0-a2f3-2abfc7a92c23{fill:#a39b62;}.fdcac4a7-3def-4e3a-8026-66131e10c03c{fill:#fff2b0;}</style></defs><title>10 7</title><g id="a88fc291-259c-4cf8-9b2e-7bd5384fdb63" data-name="Capa 2"><g id="fb8c35a7-45a2-42f9-a682-ee07347cfe26" data-name="Capa 1"><rect class="e60fd9bd-135f-4b11-a5d5-86f0fffc23b2" width="154.2" height="119.39"/><g id="b9e7e236-798a-4f01-9e50-5feb05d0c457" data-name="ab07915a-29ef-4413-b4a7-e82c9aa7ff81"><g id="b4975ab9-8e5b-4762-8bc7-ad7c5e1db1d1" data-name="e7a85f96-d332-476b-92c8-d1f31486858d"><circle class="b132a246-0f06-4f80-8668-128006bdb379" cx="25.11" cy="19.92" r="19.92"/><circle class="b524af78-28a4-4afe-b46c-5db62015ee82" cx="25.11" cy="19.92" r="16.43"/><path class="e32e9765-2286-4a4a-948a-2e4a88ee0919" d="M9.24,20.16A16.45,16.45,0,0,1,32.72,5.31,16.44,16.44,0,0,0,17.11,34.25l.23.12q.36.2.72.36A16.45,16.45,0,0,1,9.24,20.16Z"/><path class="aca7f98f-a52b-4abd-8f6f-500a9c69a60d" d="M32.72,5.35A16.44,16.44,0,0,1,18.06,34.77,16.44,16.44,0,0,0,33.44,5.71Q33.08,5.52,32.72,5.35Z"/><path class="b013ed54-86a1-443a-8a73-96f1c2b7f267" d="M24.91,35.34a14.94,14.94,0,0,1-7.12-2.11,15.25,15.25,0,0,1-5.16-5.13,15,15,0,0,0,5.45,4.6,14,14,0,0,0,6.83,1.46Z"/><path class="a8d5a5eb-4cfe-4b8c-b3ce-543b99299640" d="M25.81,34.16a14.05,14.05,0,0,0,6.83-1.45,15,15,0,0,0,5.45-4.6,15.25,15.25,0,0,1-5.16,5.13,14.94,14.94,0,0,1-7.12,2.11Z"/><path class="f1bbad59-3122-4237-968f-dfb57dc1d430" d="M18.19,13h3V28.9H17.91V16.07l-3,1.72-1.28-2.4Z"/><path class="f1bbad59-3122-4237-968f-dfb57dc1d430" d="M35.64,15.16a9.78,9.78,0,0,1,0,11.74,6.4,6.4,0,0,1-9,.87,6,6,0,0,1-.87-.87,9.77,9.77,0,0,1,0-11.77,6.38,6.38,0,0,1,9.88,0ZM28.11,17a8.41,8.41,0,0,0,0,8,3,3,0,0,0,5.27,0,7.21,7.21,0,0,0,1-4,7.29,7.29,0,0,0-1-4,3,3,0,0,0-5.27,0Z"/><path class="a157e931-0498-46ed-a0a7-087aeaefe175" d="M18,12.83h3V28.71H17.72V15.89l-3,1.71-1.27-2.44Z"/><path class="a157e931-0498-46ed-a0a7-087aeaefe175" d="M35.45,14.92a9.78,9.78,0,0,1,0,11.74,6.4,6.4,0,0,1-9,.87,6,6,0,0,1-.87-.87,9.81,9.81,0,0,1,0-11.76,6.37,6.37,0,0,1,9-1l0,0a5.72,5.72,0,0,1,.92.92Zm-7.53,1.87a7.29,7.29,0,0,0-1,4,7.13,7.13,0,0,0,1,4,3,3,0,0,0,5.26,0,8.41,8.41,0,0,0,0-8,3,3,0,0,0-5.26,0Z"/><g id="eeb9143b-f822-47e2-af29-204bf457fad3" data-name="a6c4ccaf-06c8-432b-a08b-9f976980da62"><path class="a1e78bc1-ae00-43e0-a2f3-2abfc7a92c23" d="M25.07,9h-.34l-.39,1.2a2.62,2.62,0,0,1-.56,0,1.8,1.8,0,0,1-.65-.09h0L25,4.52a4.7,4.7,0,0,1,.75,0,3.51,3.51,0,0,1,.79.06l1.84,5.58a1.23,1.23,0,0,1-.65.16,1,1,0,0,1-.61-.15,1.16,1.16,0,0,1-.3-.58L26.62,9H25.07Zm0-1h1.24l-.12-.51c-.13-.47-.29-1-.46-1.71h0a12.33,12.33,0,0,1-.4,1.59Z"/></g><g id="b39dffc6-0623-455a-9e77-2c2edcc11829" data-name="b695a9e2-4da3-4380-94f6-f2978d3954c7"><path class="fdcac4a7-3def-4e3a-8026-66131e10c03c" d="M24.89,9h-.33l-.37,1.22a2.53,2.53,0,0,1-.55,0,1.8,1.8,0,0,1-.65-.09v-.07l1.83-5.58a4.69,4.69,0,0,1,.75,0,3.51,3.51,0,0,1,.79.06l1.75,5.57a1.27,1.27,0,0,1-.66.16.92.92,0,0,1-.6-.15,1.16,1.16,0,0,1-.3-.58L26.4,9Zm0-1h1.24L26,7.48c-.14-.47-.29-1-.46-1.71h-.05a12.33,12.33,0,0,1-.4,1.59Z"/></g><circle class="b132a246-0f06-4f80-8668-128006bdb379" cx="129.09" cy="19.92" r="19.92"/><circle class="b524af78-28a4-4afe-b46c-5db62015ee82" cx="129.09" cy="19.92" r="16.43"/><path class="e32e9765-2286-4a4a-948a-2e4a88ee0919" d="M113.19,20.16A16.45,16.45,0,0,1,136.7,5.31,16.45,16.45,0,0,0,122,34.77,16.43,16.43,0,0,1,113.19,20.16Z"/><path class="aca7f98f-a52b-4abd-8f6f-500a9c69a60d" d="M136.7,5.35A16.44,16.44,0,0,1,122,34.77,16.44,16.44,0,0,0,137.42,5.71Q137.06,5.52,136.7,5.35Z"/><path class="b013ed54-86a1-443a-8a73-96f1c2b7f267" d="M128.89,35.34a14.94,14.94,0,0,1-7.12-2.11,15.25,15.25,0,0,1-5.16-5.13,15,15,0,0,0,5.45,4.6,14,14,0,0,0,6.83,1.46Z"/><path class="a8d5a5eb-4cfe-4b8c-b3ce-543b99299640" d="M129.79,34.16a14.05,14.05,0,0,0,6.83-1.45,15,15,0,0,0,5.45-4.6,15.25,15.25,0,0,1-5.16,5.13,14.94,14.94,0,0,1-7.12,2.11Z"/><path class="f1bbad59-3122-4237-968f-dfb57dc1d430" d="M122.13,13h3V28.9h-3.24V16.07l-3,1.72-1.27-2.4Z"/><path class="f1bbad59-3122-4237-968f-dfb57dc1d430" d="M139.62,15.16a9.78,9.78,0,0,1,0,11.74,6.4,6.4,0,0,1-9,.87,6,6,0,0,1-.87-.87,9.83,9.83,0,0,1,0-11.77,6.38,6.38,0,0,1,9.88,0ZM132.09,17a8.38,8.38,0,0,0-.05,8,3,3,0,0,0,5.27,0,7.21,7.21,0,0,0,1-4,7.29,7.29,0,0,0-1-4,3,3,0,0,0-4.09-1.13A3.06,3.06,0,0,0,132.09,17Z"/><path class="a157e931-0498-46ed-a0a7-087aeaefe175" d="M121.94,12.83h3V28.71H121.7V15.89l-3,1.71-1.27-2.44Z"/><path class="a157e931-0498-46ed-a0a7-087aeaefe175" d="M139.43,14.92a9.78,9.78,0,0,1,0,11.74,6.4,6.4,0,0,1-9,.87,6,6,0,0,1-.87-.87,9.81,9.81,0,0,1,0-11.76,6.37,6.37,0,0,1,9-1l0,0a5.72,5.72,0,0,1,.92.92Zm-7.53,1.87a7.29,7.29,0,0,0-1,4,7.13,7.13,0,0,0,1,4,3,3,0,0,0,5.26,0,7.13,7.13,0,0,0,1-4,7.29,7.29,0,0,0-1-4,3,3,0,0,0-5.26,0Z"/><g id="f47591b9-9e49-4e17-b0c3-c7638ad5d385" data-name="e1a1edb9-f6b9-44c5-9658-2316234425da"><path class="a1e78bc1-ae00-43e0-a2f3-2abfc7a92c23" d="M129.05,9h-.34l-.37,1.2a2.62,2.62,0,0,1-.56,0,1.8,1.8,0,0,1-.65-.09h0L129,4.52a4.82,4.82,0,0,1,.76,0,5.12,5.12,0,0,1,.78.06l1.77,5.58a1.23,1.23,0,0,1-.65.16,1,1,0,0,1-.61-.15,1.16,1.16,0,0,1-.3-.58L130.55,9Zm0-1h1.24l-.1-.51c-.13-.47-.29-1-.46-1.71h0a9.74,9.74,0,0,1-.4,1.59Z"/></g><g id="ef76825e-8d82-4e08-bd70-537fcd02d826" data-name="b2e7357a-48cf-43bf-b49f-3c7d9b7fba8a"><path class="fdcac4a7-3def-4e3a-8026-66131e10c03c" d="M128.88,9h-.34l-.35,1.22a2.62,2.62,0,0,1-.56,0,1.8,1.8,0,0,1-.65-.09v-.07l1.83-5.58a4.69,4.69,0,0,1,.75,0,3.51,3.51,0,0,1,.79.06l1.75,5.57a1.27,1.27,0,0,1-.66.16.92.92,0,0,1-.6-.15,1.16,1.16,0,0,1-.3-.58L130.38,9Zm0-1h1.24L130,7.48c-.13-.47-.29-1-.46-1.71h0a12.33,12.33,0,0,1-.4,1.59Z"/></g><circle class="b132a246-0f06-4f80-8668-128006bdb379" cx="25.11" cy="59.77" r="19.92"/><circle class="b524af78-28a4-4afe-b46c-5db62015ee82" cx="25.11" cy="59.77" r="16.43"/><path class="e32e9765-2286-4a4a-948a-2e4a88ee0919" d="M9.24,60.06A16.44,16.44,0,0,1,25.68,43.62h0a16.33,16.33,0,0,1,7,1.59,16.14,16.14,0,0,0-7.61-1.87,16.43,16.43,0,0,0-7,31.28A16.43,16.43,0,0,1,9.24,60.06Z"/><path class="aca7f98f-a52b-4abd-8f6f-500a9c69a60d" d="M32.72,45.21A16.43,16.43,0,0,1,18.06,74.62,16.43,16.43,0,0,0,32.72,45.21Z"/><path class="b013ed54-86a1-443a-8a73-96f1c2b7f267" d="M24.91,75.16A15.08,15.08,0,0,1,17.79,73a15.25,15.25,0,0,1-5.16-5.13,15.09,15.09,0,0,0,5.45,4.61A14.18,14.18,0,0,0,24.91,74Z"/><path class="a8d5a5eb-4cfe-4b8c-b3ce-543b99299640" d="M25.81,74a14.16,14.16,0,0,0,6.83-1.44A15,15,0,0,0,38.09,68a15.25,15.25,0,0,1-5.16,5.13,15.06,15.06,0,0,1-7.12,2.12Z"/><path class="f1bbad59-3122-4237-968f-dfb57dc1d430" d="M18.19,52.87h3V68.75H17.91V55.93l-3,1.71-1.28-2.4Z"/><path class="f1bbad59-3122-4237-968f-dfb57dc1d430" d="M35.64,55a9.78,9.78,0,0,1,0,11.74,6.4,6.4,0,0,1-9,.87,6,6,0,0,1-.87-.87,9.77,9.77,0,0,1,0-11.77,6.38,6.38,0,0,1,9.88,0Zm-7.53,1.87a8.41,8.41,0,0,0,0,8,3,3,0,0,0,5.27,0,8.41,8.41,0,0,0,0-8,3,3,0,0,0-5.27,0Z"/><path class="a157e931-0498-46ed-a0a7-087aeaefe175" d="M18,52.68h3V68.57H17.72V55.74l-3,1.71-1.27-2.39Z"/><path class="a157e931-0498-46ed-a0a7-087aeaefe175" d="M35.45,54.78a8.74,8.74,0,0,1,2,5.86,8.91,8.91,0,0,1-2,5.88,6.4,6.4,0,0,1-9,.87,6,6,0,0,1-.87-.87,9.83,9.83,0,0,1,0-11.77,6.36,6.36,0,0,1,8.94-1l.06,0a6.81,6.81,0,0,1,.93.93Zm-7.53,1.87a8.35,8.35,0,0,0,0,8,3,3,0,0,0,5.26,0,8.41,8.41,0,0,0,0-8,3,3,0,0,0-5.26,0Z"/><g id="baf13c46-4cf9-44b9-856e-d9a0b0815ef7" data-name="aa35e09b-898f-495a-b1b2-213b53b7ed60"><path class="a1e78bc1-ae00-43e0-a2f3-2abfc7a92c23" d="M25.07,48.87h-.34l-.35,1.21a2.62,2.62,0,0,1-.56,0,1.91,1.91,0,0,1-.63-.08v-.06L25,44.36a4.69,4.69,0,0,1,.75,0,5.21,5.21,0,0,1,.79,0L28.35,50a1.23,1.23,0,0,1-.65.16,1,1,0,0,1-.61-.15,1.17,1.17,0,0,1-.3-.57l-.16-.55h-1.5Zm0-1h1.24l-.12-.52c-.13-.46-.29-1-.46-1.71h0a12.33,12.33,0,0,1-.4,1.59Z"/></g><g id="b1e1f18b-64f8-461a-be89-3e5515bd19f0" data-name="e5a21b8b-6e2d-405c-9d62-863d53d3b036"><path class="fdcac4a7-3def-4e3a-8026-66131e10c03c" d="M24.89,48.87h-.33l-.37,1.21a2.53,2.53,0,0,1-.55,0A2.05,2.05,0,0,1,23,50v-.06l1.83-5.58a4.69,4.69,0,0,1,.75,0,5.21,5.21,0,0,1,.79,0l1.83,5.59a1.27,1.27,0,0,1-.66.16.92.92,0,0,1-.6-.15,1.17,1.17,0,0,1-.3-.57l-.16-.55H24.93Zm0-1h1.24L26,47.35c-.14-.46-.29-1-.46-1.71h-.05a12.33,12.33,0,0,1-.4,1.59Z"/></g><circle class="b132a246-0f06-4f80-8668-128006bdb379" cx="77.1" cy="59.77" r="19.92"/><circle class="b524af78-28a4-4afe-b46c-5db62015ee82" cx="77.1" cy="59.77" r="16.43"/><path class="e32e9765-2286-4a4a-948a-2e4a88ee0919" d="M61.19,60.06A16.44,16.44,0,0,1,77.63,43.62h0a16.33,16.33,0,0,1,7,1.59,16.14,16.14,0,0,0-7.61-1.87,16.43,16.43,0,0,0-7,31.28A16.42,16.42,0,0,1,61.19,60.06Z"/><path class="aca7f98f-a52b-4abd-8f6f-500a9c69a60d" d="M84.71,45.21A16.43,16.43,0,0,1,70.05,74.62,16.43,16.43,0,0,0,84.71,45.21Z"/><path class="b013ed54-86a1-443a-8a73-96f1c2b7f267" d="M76.9,75.16A15.08,15.08,0,0,1,69.78,73a15.25,15.25,0,0,1-5.16-5.13,14.73,14.73,0,0,0,5.45,4.61A14.18,14.18,0,0,0,76.9,74Z"/><path class="a8d5a5eb-4cfe-4b8c-b3ce-543b99299640" d="M77.8,74a14.16,14.16,0,0,0,6.83-1.44A14.85,14.85,0,0,0,90.08,68a15.25,15.25,0,0,1-5.16,5.13,15.06,15.06,0,0,1-7.12,2.12Z"/><path class="f1bbad59-3122-4237-968f-dfb57dc1d430" d="M70.19,52.87h3V68.75H69.9V55.93l-3,1.71-1.27-2.4Z"/><path class="f1bbad59-3122-4237-968f-dfb57dc1d430" d="M87.63,55a9.78,9.78,0,0,1,0,11.74,6.4,6.4,0,0,1-9,.87,6,6,0,0,1-.87-.87,9.83,9.83,0,0,1,0-11.77,6.38,6.38,0,0,1,9.88,0ZM80.1,56.87a8.41,8.41,0,0,0,0,8,3,3,0,0,0,5.27,0,8.41,8.41,0,0,0,0-8,3,3,0,0,0-4.09-1.13,3.06,3.06,0,0,0-1.13,1.13Z"/><path class="a157e931-0498-46ed-a0a7-087aeaefe175" d="M70,52.68h3V68.57H69.71V55.74l-3,1.71-1.27-2.39Z"/><path class="a157e931-0498-46ed-a0a7-087aeaefe175" d="M87.44,54.78a9.6,9.6,0,0,1,0,11.74,6.4,6.4,0,0,1-9,.87,6,6,0,0,1-.87-.87,9.83,9.83,0,0,1,0-11.77,6.36,6.36,0,0,1,9-.93h0a6.81,6.81,0,0,1,.93.93Zm-7.53,1.87a8.35,8.35,0,0,0,0,8,3,3,0,0,0,5.26,0,8.41,8.41,0,0,0,0-8,3,3,0,0,0-5.26,0Z"/><g id="fa587c08-31ae-4f62-8ffe-8bf7c2b054e9" data-name="fd8c9f77-4d5b-4809-ac63-cc9b8655449f"><path class="a1e78bc1-ae00-43e0-a2f3-2abfc7a92c23" d="M77.06,48.87h-.34l-.35,1.21a2.62,2.62,0,0,1-.56,0,1.86,1.86,0,0,1-.62-.08v-.06L77,44.36a4.82,4.82,0,0,1,.76,0,5.08,5.08,0,0,1,.78,0L80.35,50a1.23,1.23,0,0,1-.65.16,1,1,0,0,1-.61-.15,1.17,1.17,0,0,1-.3-.57l-.16-.55h-1.5Zm0-1H78.3l-.11-.52c-.13-.46-.29-1-.46-1.71h0a12.33,12.33,0,0,1-.4,1.59Z"/></g><g id="b917dbb6-57b2-46b8-9105-7e84b8039ae1" data-name="f8792ebd-e567-4dfc-830f-82c7db036742"><path class="fdcac4a7-3def-4e3a-8026-66131e10c03c" d="M76.88,48.87h-.33l-.36,1.21a2.53,2.53,0,0,1-.55,0A2.05,2.05,0,0,1,75,50v-.06l1.83-5.58a4.69,4.69,0,0,1,.75,0,5.21,5.21,0,0,1,.79,0l1.83,5.59a1.27,1.27,0,0,1-.66.16.92.92,0,0,1-.6-.15,1.17,1.17,0,0,1-.3-.57l-.16-.55H76.92Zm0-1h1.24L78,47.35c-.13-.46-.29-1-.46-1.71h0a12.33,12.33,0,0,1-.4,1.59Z"/></g><circle class="b132a246-0f06-4f80-8668-128006bdb379" cx="129.09" cy="59.77" r="19.92"/><circle class="b524af78-28a4-4afe-b46c-5db62015ee82" cx="129.09" cy="59.77" r="16.43"/><path class="e32e9765-2286-4a4a-948a-2e4a88ee0919" d="M113.19,60.06a16.44,16.44,0,0,1,16.44-16.44h0a16.33,16.33,0,0,1,7,1.59A16.14,16.14,0,0,0,129,43.34a16.43,16.43,0,0,0-7,31.28A16.41,16.41,0,0,1,113.19,60.06Z"/><path class="aca7f98f-a52b-4abd-8f6f-500a9c69a60d" d="M136.7,45.21A16.43,16.43,0,0,1,122,74.62,16.43,16.43,0,0,0,136.7,45.21Z"/><path class="b013ed54-86a1-443a-8a73-96f1c2b7f267" d="M128.89,75.16A15.08,15.08,0,0,1,121.77,73a15.25,15.25,0,0,1-5.16-5.13,15.09,15.09,0,0,0,5.45,4.61A14.18,14.18,0,0,0,128.89,74Z"/><path class="a8d5a5eb-4cfe-4b8c-b3ce-543b99299640" d="M129.79,74a14.16,14.16,0,0,0,6.83-1.44A15,15,0,0,0,142.07,68a15.25,15.25,0,0,1-5.16,5.13,15.06,15.06,0,0,1-7.12,2.12Z"/><path class="f1bbad59-3122-4237-968f-dfb57dc1d430" d="M122.13,52.87h3V68.75h-3.24V55.93l-3,1.71-1.27-2.4Z"/><path class="f1bbad59-3122-4237-968f-dfb57dc1d430" d="M139.62,55a9.78,9.78,0,0,1,0,11.74,6.4,6.4,0,0,1-9,.87,6,6,0,0,1-.87-.87,9.83,9.83,0,0,1,0-11.77,6.38,6.38,0,0,1,9.88,0Zm-7.53,1.87a8.41,8.41,0,0,0-.05,8,3,3,0,0,0,5.27,0,8.41,8.41,0,0,0,0-8,3,3,0,0,0-4.09-1.13A3.06,3.06,0,0,0,132.09,56.87Z"/><path class="a157e931-0498-46ed-a0a7-087aeaefe175" d="M121.94,52.68h3V68.57H121.7V55.74l-3,1.71-1.27-2.39Z"/><path class="a157e931-0498-46ed-a0a7-087aeaefe175" d="M139.43,54.78a9.6,9.6,0,0,1,0,11.74,6.4,6.4,0,0,1-9,.87,6,6,0,0,1-.87-.87,9.83,9.83,0,0,1,0-11.77,6.36,6.36,0,0,1,8.94-1l.06,0a6.81,6.81,0,0,1,.93.93Zm-7.53,1.87a8.35,8.35,0,0,0,0,8,3,3,0,0,0,5.26,0,7.13,7.13,0,0,0,1-4,7.21,7.21,0,0,0-1-4,3,3,0,0,0-5.26,0Z"/><g id="eb66e61d-824f-45ea-b9b3-63fe28b69fa2" data-name="e1bad903-2898-45fd-bd2c-39a9c77ba758"><path class="a1e78bc1-ae00-43e0-a2f3-2abfc7a92c23" d="M129.05,48.87h-.34l-.35,1.21a2.62,2.62,0,0,1-.56,0,2.09,2.09,0,0,1-.61-.08v-.06L129,44.36a4.82,4.82,0,0,1,.76,0,5.08,5.08,0,0,1,.78,0L132.35,50a1.23,1.23,0,0,1-.65.16,1,1,0,0,1-.61-.15,1.17,1.17,0,0,1-.3-.57l-.16-.55h-1.5Zm0-1h1.24l-.14-.52c-.13-.46-.29-1-.46-1.71h0a9.74,9.74,0,0,1-.4,1.59Z"/></g><g id="ae5614c0-5a18-45ba-9914-f75588a847b8" data-name="b67f49b7-8fcc-43c1-8130-42d365aa4cf3"><path class="fdcac4a7-3def-4e3a-8026-66131e10c03c" d="M128.88,48.87h-.34l-.35,1.21a2.62,2.62,0,0,1-.56,0A2.05,2.05,0,0,1,127,50v-.06l1.83-5.58a4.69,4.69,0,0,1,.75,0,5.21,5.21,0,0,1,.79,0l1.84,5.59a1.27,1.27,0,0,1-.66.16.92.92,0,0,1-.6-.15,1.17,1.17,0,0,1-.3-.57l-.16-.55H129Zm0-1h1.24l-.14-.52c-.13-.46-.29-1-.46-1.71h0a12.33,12.33,0,0,1-.4,1.59Z"/></g><circle class="b132a246-0f06-4f80-8668-128006bdb379" cx="25.11" cy="99.47" r="19.92"/><circle class="b524af78-28a4-4afe-b46c-5db62015ee82" cx="25.11" cy="99.47" r="16.43"/><path class="e32e9765-2286-4a4a-948a-2e4a88ee0919" d="M9.24,99.76A16.44,16.44,0,0,1,25.68,83.32h0a16.33,16.33,0,0,1,7,1.59A16.15,16.15,0,0,0,25.07,83a16.43,16.43,0,0,0-7,31.28A16.44,16.44,0,0,1,9.24,99.76Z"/><path class="aca7f98f-a52b-4abd-8f6f-500a9c69a60d" d="M32.72,84.91a16.43,16.43,0,0,1-14.66,29.41A16.43,16.43,0,0,0,32.72,84.91Z"/><path class="b013ed54-86a1-443a-8a73-96f1c2b7f267" d="M24.91,114.9a15.06,15.06,0,0,1-7.12-2.12,15.25,15.25,0,0,1-5.16-5.13,15.09,15.09,0,0,0,5.45,4.61,14.16,14.16,0,0,0,6.83,1.44Z"/><path class="a8d5a5eb-4cfe-4b8c-b3ce-543b99299640" d="M25.81,113.7a14.16,14.16,0,0,0,6.83-1.44,15.09,15.09,0,0,0,5.45-4.61,15.25,15.25,0,0,1-5.16,5.13,15.06,15.06,0,0,1-7.12,2.12Z"/><path class="f1bbad59-3122-4237-968f-dfb57dc1d430" d="M18.19,92.57h3v15.88H17.91V95.63l-3,1.71-1.28-2.4Z"/><path class="f1bbad59-3122-4237-968f-dfb57dc1d430" d="M35.64,94.66a9.78,9.78,0,0,1,0,11.74,6.4,6.4,0,0,1-9,.87,6,6,0,0,1-.87-.87,9.77,9.77,0,0,1,0-11.77,6.38,6.38,0,0,1,9.88,0Zm-7.53,1.87a8.41,8.41,0,0,0,0,8,3,3,0,0,0,5.27,0,8.41,8.41,0,0,0,0-8,3,3,0,0,0-5.27,0Z"/><path class="a157e931-0498-46ed-a0a7-087aeaefe175" d="M18,92.38h3v15.89H17.72V95.44l-3,1.71-1.27-2.39Z"/><path class="a157e931-0498-46ed-a0a7-087aeaefe175" d="M35.45,94.48a8.71,8.71,0,0,1,2,5.85,8.94,8.94,0,0,1-2,5.89,6.4,6.4,0,0,1-9,.87,6,6,0,0,1-.87-.87,9.83,9.83,0,0,1,0-11.77,6.36,6.36,0,0,1,8.94-1l.06,0a6.81,6.81,0,0,1,.93.93Zm-7.53,1.87a8.35,8.35,0,0,0,0,8,3,3,0,0,0,5.26,0,8.41,8.41,0,0,0,0-8,3,3,0,0,0-5.26,0Z"/><g id="ad52ee53-2785-4621-ad1a-35173d4bf0a4" data-name="ac736ed1-6e24-4f80-a983-70153af5684c"><path class="a1e78bc1-ae00-43e0-a2f3-2abfc7a92c23" d="M25.07,88.57h-.34l-.35,1.21a2.62,2.62,0,0,1-.56,0,1.8,1.8,0,0,1-.65-.09v-.06L25,84.05a4.69,4.69,0,0,1,.75,0,5.21,5.21,0,0,1,.79,0l1.79,5.59a1.23,1.23,0,0,1-.65.16,1,1,0,0,1-.61-.15,1.17,1.17,0,0,1-.3-.57l-.16-.55h-1.5Zm0-1h1.24l-.12-.52c-.13-.46-.29-1-.46-1.71h0a12.33,12.33,0,0,1-.4,1.59Z"/></g><g id="f7d2212b-e626-48c5-b4c9-9a5dd2ebb132" data-name="bb6c9689-fcdf-4196-87d9-67e129f24568"><path class="fdcac4a7-3def-4e3a-8026-66131e10c03c" d="M24.89,88.57h-.33l-.37,1.21a2.53,2.53,0,0,1-.55,0,1.8,1.8,0,0,1-.65-.09v-.06l1.83-5.58a4.69,4.69,0,0,1,.75,0,5.21,5.21,0,0,1,.79,0l1.83,5.59a1.27,1.27,0,0,1-.66.16.92.92,0,0,1-.6-.15,1.17,1.17,0,0,1-.3-.57l-.16-.55H24.93Zm0-1h1.24L26,87.05c-.14-.46-.29-1-.46-1.71h-.05a12.33,12.33,0,0,1-.4,1.59Z"/></g><circle class="b132a246-0f06-4f80-8668-128006bdb379" cx="129.09" cy="99.47" r="19.92"/><circle class="b524af78-28a4-4afe-b46c-5db62015ee82" cx="129.09" cy="99.47" r="16.43"/><path class="e32e9765-2286-4a4a-948a-2e4a88ee0919" d="M113.19,99.76a16.44,16.44,0,0,1,16.44-16.44h0a16.33,16.33,0,0,1,7,1.59A16.18,16.18,0,0,0,129.05,83a16.43,16.43,0,0,0-7,31.28A16.46,16.46,0,0,1,113.19,99.76Z"/><path class="aca7f98f-a52b-4abd-8f6f-500a9c69a60d" d="M136.7,84.91A16.43,16.43,0,0,1,122,114.32h0A16.43,16.43,0,0,0,136.7,84.91Z"/><path class="b013ed54-86a1-443a-8a73-96f1c2b7f267" d="M128.89,114.9a15.06,15.06,0,0,1-7.12-2.12,15.25,15.25,0,0,1-5.16-5.13,15.09,15.09,0,0,0,5.45,4.61,14.16,14.16,0,0,0,6.83,1.44Z"/><path class="a8d5a5eb-4cfe-4b8c-b3ce-543b99299640" d="M129.79,113.7a14.16,14.16,0,0,0,6.83-1.44,15.09,15.09,0,0,0,5.45-4.61,15.25,15.25,0,0,1-5.16,5.13,15.06,15.06,0,0,1-7.12,2.12Z"/><path class="f1bbad59-3122-4237-968f-dfb57dc1d430" d="M122.13,92.57h3v15.88h-3.24V95.63l-3,1.71-1.27-2.4Z"/><path class="f1bbad59-3122-4237-968f-dfb57dc1d430" d="M139.62,94.66a9.78,9.78,0,0,1,0,11.74,6.4,6.4,0,0,1-9,.87,6,6,0,0,1-.87-.87,9.83,9.83,0,0,1,0-11.77,6.38,6.38,0,0,1,9.88,0Zm-7.53,1.87a8.41,8.41,0,0,0-.05,8,3,3,0,0,0,5.27,0,8.41,8.41,0,0,0,0-8,3,3,0,0,0-4.09-1.13A3.06,3.06,0,0,0,132.09,96.53Z"/><path class="a157e931-0498-46ed-a0a7-087aeaefe175" d="M121.94,92.38h3v15.89H121.7V95.44l-3,1.71-1.27-2.39Z"/><path class="a157e931-0498-46ed-a0a7-087aeaefe175" d="M139.43,94.48a8.71,8.71,0,0,1,2,5.85,8.83,8.83,0,0,1-2,5.89,6.4,6.4,0,0,1-9,.87,6,6,0,0,1-.87-.87,9.83,9.83,0,0,1,0-11.77,6.36,6.36,0,0,1,8.94-1l.06,0a6.81,6.81,0,0,1,.93.93Zm-7.53,1.87a8.35,8.35,0,0,0,0,8,3,3,0,0,0,5.26,0,7.13,7.13,0,0,0,1-4,7.21,7.21,0,0,0-1-4,3,3,0,0,0-5.26,0Z"/><g id="e609824a-2285-4cf5-b052-a69fcb2f062a" data-name="a4f9c113-cf8f-4f4d-a530-7256c4cf8c70"><path class="a1e78bc1-ae00-43e0-a2f3-2abfc7a92c23" d="M129.05,88.57h-.34l-.35,1.21a2.62,2.62,0,0,1-.56,0,1.8,1.8,0,0,1-.65-.09v-.06L129,84.05a4.82,4.82,0,0,1,.76,0,5.08,5.08,0,0,1,.78,0l1.79,5.59a1.23,1.23,0,0,1-.65.16,1,1,0,0,1-.61-.15,1.17,1.17,0,0,1-.3-.57l-.16-.55h-1.5Zm0-1h1.24l-.14-.52c-.13-.46-.29-1-.46-1.71h0a9.74,9.74,0,0,1-.4,1.59Z"/></g><g id="fac01fe7-65ca-4436-bd06-432eac82e2cf" data-name="fc6746b1-df8f-4a2f-8881-5c2e9adcfccb"><path class="fdcac4a7-3def-4e3a-8026-66131e10c03c" d="M128.88,88.57h-.34l-.35,1.21a2.62,2.62,0,0,1-.56,0,1.8,1.8,0,0,1-.65-.09v-.06l1.83-5.58a4.69,4.69,0,0,1,.75,0,5.21,5.21,0,0,1,.79,0l1.84,5.59a1.27,1.27,0,0,1-.66.16.92.92,0,0,1-.6-.15,1.17,1.17,0,0,1-.3-.57l-.16-.55H129Zm0-1h1.24l-.14-.52c-.13-.46-.29-1-.46-1.71h0a12.33,12.33,0,0,1-.4,1.59Z"/></g></g></g></g></g></svg>