<svg xmlns="http://www.w3.org/2000/svg" viewBox="0 0 154.2 119.39"><defs><style>.be5ea691-a2be-4bea-a91d-e69f093e07b7{fill:none;}.b2cebb01-c034-4753-8014-fdc300637a4a{fill:#9b935c;}.a0028301-557a-4096-80ec-f4543cc2d8a3{fill:#d1c671;}.e7cd5802-12b9-407a-8443-fc28bf6681ad{fill:#777329;}.ab7c806b-b498-492b-b11e-1ba21afc0665{fill:#eae3b0;}.bcee3900-ba4b-47c4-bf27-997382190b5b{fill:#e0d8a2;}.ff84158f-a91c-4afa-80ed-1309afa34a65{fill:#a59956;}.a139c541-d5ac-43af-91c1-3a76ec1ecd17{fill:#999367;}.bed70df4-f65b-4ce7-b83d-d8905416a6c6{fill:#f9f2b2;}.af333bc0-c338-4c1e-bc29-c8bc1ddef020{fill:#a39b62;}.ea750f08-0aa3-4cc6-97e3-1321f4bf08f8{fill:#fff2b0;}</style></defs><title>10 9</title><g id="f6ed9e8b-b183-4981-9bce-d1644e255efa" data-name="Capa 2"><g id="a99362ef-bab5-4d0e-8a01-c3dcd7b5c3ab" data-name="Capa 1"><rect class="be5ea691-a2be-4bea-a91d-e69f093e07b7" width="154.2" height="119.39"/><g id="a1dc50cc-1a38-4619-9839-74010ee95a92" data-name="bd51afc6-488a-495c-be9d-0276ad3e692d"><g id="ec48d160-e74e-4b78-9b04-76e1d6de712e" data-name="b7dded40-fd3e-42da-8f32-1ea79f7065e8"><circle class="b2cebb01-c034-4753-8014-fdc300637a4a" cx="25.11" cy="19.92" r="19.92"/><circle class="a0028301-557a-4096-80ec-f4543cc2d8a3" cx="25.11" cy="19.92" r="16.43"/><path class="e7cd5802-12b9-407a-8443-fc28bf6681ad" d="M9.24,20.16A16.45,16.45,0,0,1,32.72,5.31,16.44,16.44,0,0,0,17.11,34.25l.23.12q.36.2.72.36A16.45,16.45,0,0,1,9.24,20.16Z"/><path class="ab7c806b-b498-492b-b11e-1ba21afc0665" d="M32.72,5.35A16.44,16.44,0,0,1,18.06,34.77,16.44,16.44,0,0,0,33.44,5.71Q33.08,5.52,32.72,5.35Z"/><path class="bcee3900-ba4b-47c4-bf27-997382190b5b" d="M24.91,35.34a14.94,14.94,0,0,1-7.12-2.11,15.25,15.25,0,0,1-5.16-5.13,15,15,0,0,0,5.45,4.6,14,14,0,0,0,6.83,1.46Z"/><path class="ff84158f-a91c-4afa-80ed-1309afa34a65" d="M25.81,34.16a14.05,14.05,0,0,0,6.83-1.45,15,15,0,0,0,5.45-4.6,15.25,15.25,0,0,1-5.16,5.13,14.94,14.94,0,0,1-7.12,2.11Z"/><path class="a139c541-d5ac-43af-91c1-3a76ec1ecd17" d="M18.19,13h3V28.9H17.91V16.07l-3,1.72-1.28-2.4Z"/><path class="a139c541-d5ac-43af-91c1-3a76ec1ecd17" d="M35.64,15.16a9.78,9.78,0,0,1,0,11.74,6.4,6.4,0,0,1-9,.87,6,6,0,0,1-.87-.87,9.77,9.77,0,0,1,0-11.77,6.38,6.38,0,0,1,9.88,0ZM28.11,17a8.41,8.41,0,0,0,0,8,3,3,0,0,0,5.27,0,7.21,7.21,0,0,0,1-4,7.29,7.29,0,0,0-1-4,3,3,0,0,0-5.27,0Z"/><path class="bed70df4-f65b-4ce7-b83d-d8905416a6c6" d="M18,12.83h3V28.71H17.72V15.89l-3,1.71-1.27-2.44Z"/><path class="bed70df4-f65b-4ce7-b83d-d8905416a6c6" d="M35.45,14.92a9.78,9.78,0,0,1,0,11.74,6.4,6.4,0,0,1-9,.87,6,6,0,0,1-.87-.87,9.83,9.83,0,0,1,0-11.77,6.38,6.38,0,0,1,9.88,0Zm-7.53,1.87a7.29,7.29,0,0,0-1,4,7.13,7.13,0,0,0,1,4,3,3,0,0,0,5.26,0,8.41,8.41,0,0,0,0-8,3,3,0,0,0-5.26,0Z"/><g id="ab22ed04-76fa-4b3e-ba97-b83d322d42f2" data-name="bd4aadbd-8c9f-454e-9de1-3a5555350ffa"><path class="af333bc0-c338-4c1e-bc29-c8bc1ddef020" d="M25.07,9h-.34l-.39,1.2a2.62,2.62,0,0,1-.56,0,1.8,1.8,0,0,1-.65-.09h0L25,4.52a4.7,4.7,0,0,1,.75,0,3.51,3.51,0,0,1,.79.06l1.84,5.58a1.23,1.23,0,0,1-.65.16,1,1,0,0,1-.61-.15,1.16,1.16,0,0,1-.3-.58L26.62,9H25.07Zm0-1h1.24l-.12-.51c-.13-.47-.29-1-.46-1.71h0a12.33,12.33,0,0,1-.4,1.59Z"/></g><g id="aa58cb00-9314-4bc3-8c20-83bba0756f56" data-name="b50ea255-78c4-4aab-ae89-4407318219b7"><path class="ea750f08-0aa3-4cc6-97e3-1321f4bf08f8" d="M24.89,9h-.33l-.37,1.22a2.53,2.53,0,0,1-.55,0,1.8,1.8,0,0,1-.65-.09v-.07l1.83-5.58a4.69,4.69,0,0,1,.75,0,3.51,3.51,0,0,1,.79.06l1.75,5.57a1.27,1.27,0,0,1-.66.16.92.92,0,0,1-.6-.15,1.16,1.16,0,0,1-.3-.58L26.4,9Zm0-1h1.24L26,7.48c-.14-.47-.29-1-.46-1.71h-.05a12.33,12.33,0,0,1-.4,1.59Z"/></g><circle class="b2cebb01-c034-4753-8014-fdc300637a4a" cx="77.1" cy="19.92" r="19.92"/><circle class="a0028301-557a-4096-80ec-f4543cc2d8a3" cx="77.1" cy="19.92" r="16.43"/><path class="e7cd5802-12b9-407a-8443-fc28bf6681ad" d="M61.19,20.16A16.44,16.44,0,0,1,84.71,5.31,16.44,16.44,0,0,0,69.33,34.37q.36.2.72.36A16.45,16.45,0,0,1,61.19,20.16Z"/><path class="ab7c806b-b498-492b-b11e-1ba21afc0665" d="M84.71,5.35A16.44,16.44,0,0,1,70.05,34.77,16.44,16.44,0,0,0,85.66,5.83l-.23-.12Q85.07,5.52,84.71,5.35Z"/><path class="bcee3900-ba4b-47c4-bf27-997382190b5b" d="M76.9,35.34a14.94,14.94,0,0,1-7.12-2.11,15.25,15.25,0,0,1-5.16-5.13,15,15,0,0,0,5.45,4.6,14,14,0,0,0,6.83,1.46Z"/><path class="ff84158f-a91c-4afa-80ed-1309afa34a65" d="M77.8,34.16a14.05,14.05,0,0,0,6.83-1.45,15,15,0,0,0,5.45-4.6,15.25,15.25,0,0,1-5.16,5.13,14.94,14.94,0,0,1-7.12,2.11Z"/><path class="a139c541-d5ac-43af-91c1-3a76ec1ecd17" d="M70.19,13h3V28.9H69.9V16.07l-3,1.72-1.27-2.4Z"/><path class="a139c541-d5ac-43af-91c1-3a76ec1ecd17" d="M87.63,15.16a9.78,9.78,0,0,1,0,11.74,6.4,6.4,0,0,1-9,.87,6,6,0,0,1-.87-.87,9.83,9.83,0,0,1,0-11.77,6.38,6.38,0,0,1,9.88,0ZM80.1,17a8.35,8.35,0,0,0,0,8,3,3,0,0,0,5.27,0,7.21,7.21,0,0,0,1-4,7.29,7.29,0,0,0-1-4,3,3,0,0,0-5.27,0Z"/><path class="bed70df4-f65b-4ce7-b83d-d8905416a6c6" d="M70,12.83h3V28.71H69.71V15.89l-3,1.71-1.27-2.44Z"/><path class="bed70df4-f65b-4ce7-b83d-d8905416a6c6" d="M87.44,14.92a9.78,9.78,0,0,1,0,11.74,6.4,6.4,0,0,1-9,.87,6,6,0,0,1-.87-.87,9.83,9.83,0,0,1,0-11.77,6.38,6.38,0,0,1,9.88,0Zm-7.53,1.87a7.29,7.29,0,0,0-1,4,7.13,7.13,0,0,0,1,4,3,3,0,0,0,5.26,0,8.41,8.41,0,0,0,0-8,3,3,0,0,0-5.26,0Z"/><g id="f69798ef-fd38-4583-b3ae-4b8059ab5952" data-name="ab0e382b-d271-44bb-8958-59171c01815f"><path class="af333bc0-c338-4c1e-bc29-c8bc1ddef020" d="M77.06,9h-.34l-.38,1.2a2.62,2.62,0,0,1-.56,0,1.8,1.8,0,0,1-.65-.09h0L77,4.52a4.82,4.82,0,0,1,.76,0,5.12,5.12,0,0,1,.78.06l1.78,5.58a1.23,1.23,0,0,1-.65.16,1,1,0,0,1-.61-.15,1.16,1.16,0,0,1-.3-.58L78.56,9Zm0-1H78.3l-.11-.51c-.13-.47-.29-1-.46-1.71h0a12.33,12.33,0,0,1-.4,1.59Z"/></g><g id="b314a498-d461-4168-9763-ed37a51877fb" data-name="b09b1fa4-dc1d-4eaf-a65f-dc5f60cef64c"><path class="ea750f08-0aa3-4cc6-97e3-1321f4bf08f8" d="M76.88,9h-.33l-.36,1.22a2.53,2.53,0,0,1-.55,0,1.8,1.8,0,0,1-.65-.09v-.07l1.83-5.58a4.69,4.69,0,0,1,.75,0,3.51,3.51,0,0,1,.79.06l1.75,5.57a1.27,1.27,0,0,1-.66.16.92.92,0,0,1-.6-.15,1.16,1.16,0,0,1-.3-.58L78.39,9Zm0-1h1.24L78,7.48c-.13-.47-.29-1-.46-1.71h0a12.33,12.33,0,0,1-.4,1.59Z"/></g><circle class="b2cebb01-c034-4753-8014-fdc300637a4a" cx="129.09" cy="19.92" r="19.92"/><circle class="a0028301-557a-4096-80ec-f4543cc2d8a3" cx="129.09" cy="19.92" r="16.43"/><path class="e7cd5802-12b9-407a-8443-fc28bf6681ad" d="M113.19,20.16A16.45,16.45,0,0,1,136.7,5.31,16.45,16.45,0,0,0,122,34.77,16.43,16.43,0,0,1,113.19,20.16Z"/><path class="ab7c806b-b498-492b-b11e-1ba21afc0665" d="M136.7,5.35A16.44,16.44,0,0,1,122,34.77,16.44,16.44,0,0,0,137.42,5.71Q137.06,5.52,136.7,5.35Z"/><path class="bcee3900-ba4b-47c4-bf27-997382190b5b" d="M128.89,35.34a14.94,14.94,0,0,1-7.12-2.11,15.25,15.25,0,0,1-5.16-5.13,15,15,0,0,0,5.45,4.6,14,14,0,0,0,6.83,1.46Z"/><path class="ff84158f-a91c-4afa-80ed-1309afa34a65" d="M129.79,34.16a14.05,14.05,0,0,0,6.83-1.45,15,15,0,0,0,5.45-4.6,15.25,15.25,0,0,1-5.16,5.13,14.94,14.94,0,0,1-7.12,2.11Z"/><path class="a139c541-d5ac-43af-91c1-3a76ec1ecd17" d="M122.13,13h3V28.9h-3.24V16.07l-3,1.72-1.27-2.4Z"/><path class="a139c541-d5ac-43af-91c1-3a76ec1ecd17" d="M139.62,15.16a9.78,9.78,0,0,1,0,11.74,6.4,6.4,0,0,1-9,.87,6,6,0,0,1-.87-.87,9.83,9.83,0,0,1,0-11.77,6.38,6.38,0,0,1,9.88,0ZM132.09,17a8.38,8.38,0,0,0-.05,8,3,3,0,0,0,5.27,0,7.21,7.21,0,0,0,1-4,7.29,7.29,0,0,0-1-4,3,3,0,0,0-4.09-1.13A3.06,3.06,0,0,0,132.09,17Z"/><path class="bed70df4-f65b-4ce7-b83d-d8905416a6c6" d="M121.94,12.83h3V28.71H121.7V15.89l-3,1.71-1.27-2.44Z"/><path class="bed70df4-f65b-4ce7-b83d-d8905416a6c6" d="M139.43,14.92a9.78,9.78,0,0,1,0,11.74,6.4,6.4,0,0,1-9,.87,6,6,0,0,1-.87-.87,9.83,9.83,0,0,1,0-11.77,6.38,6.38,0,0,1,9.88,0Zm-7.53,1.87a7.29,7.29,0,0,0-1,4,7.13,7.13,0,0,0,1,4,3,3,0,0,0,5.26,0,7.13,7.13,0,0,0,1-4,7.29,7.29,0,0,0-1-4,3,3,0,0,0-5.26,0Z"/><g id="ee2add21-c8d6-47d9-8646-999165e0434b" data-name="e84b54dd-2ca7-4d18-a940-d45ab59a9635"><path class="af333bc0-c338-4c1e-bc29-c8bc1ddef020" d="M129.05,9h-.34l-.37,1.2a2.62,2.62,0,0,1-.56,0,1.8,1.8,0,0,1-.65-.09h0L129,4.52a4.82,4.82,0,0,1,.76,0,5.12,5.12,0,0,1,.78.06l1.77,5.58a1.23,1.23,0,0,1-.65.16,1,1,0,0,1-.61-.15,1.16,1.16,0,0,1-.3-.58L130.55,9Zm0-1h1.24l-.1-.51c-.13-.47-.29-1-.46-1.71h0a9.74,9.74,0,0,1-.4,1.59Z"/></g><g id="b3453891-91b2-4bb1-a85f-dbc944592e72" data-name="f22971d5-f2d3-4a5e-9b35-61dd399a2378"><path class="ea750f08-0aa3-4cc6-97e3-1321f4bf08f8" d="M128.88,9h-.34l-.35,1.22a2.62,2.62,0,0,1-.56,0,1.8,1.8,0,0,1-.65-.09v-.07l1.83-5.58a4.69,4.69,0,0,1,.75,0,3.51,3.51,0,0,1,.79.06l1.75,5.57a1.27,1.27,0,0,1-.66.16.92.92,0,0,1-.6-.15,1.16,1.16,0,0,1-.3-.58L130.38,9Zm0-1h1.24L130,7.48c-.13-.47-.29-1-.46-1.71h0a12.33,12.33,0,0,1-.4,1.59Z"/></g><circle class="b2cebb01-c034-4753-8014-fdc300637a4a" cx="25.11" cy="59.77" r="19.92"/><circle class="a0028301-557a-4096-80ec-f4543cc2d8a3" cx="25.11" cy="59.77" r="16.43"/><path class="e7cd5802-12b9-407a-8443-fc28bf6681ad" d="M9.24,60.06A16.44,16.44,0,0,1,25.68,43.62h0a16.33,16.33,0,0,1,7,1.59,16.14,16.14,0,0,0-7.61-1.87,16.43,16.43,0,0,0-7,31.28A16.43,16.43,0,0,1,9.24,60.06Z"/><path class="ab7c806b-b498-492b-b11e-1ba21afc0665" d="M32.72,45.21A16.43,16.43,0,0,1,18.06,74.62,16.43,16.43,0,0,0,32.72,45.21Z"/><path class="bcee3900-ba4b-47c4-bf27-997382190b5b" d="M24.91,75.16A15.08,15.08,0,0,1,17.79,73a15.25,15.25,0,0,1-5.16-5.13,15.09,15.09,0,0,0,5.45,4.61A14.18,14.18,0,0,0,24.91,74Z"/><path class="ff84158f-a91c-4afa-80ed-1309afa34a65" d="M25.81,74a14.16,14.16,0,0,0,6.83-1.44A15,15,0,0,0,38.09,68a15.25,15.25,0,0,1-5.16,5.13,15.06,15.06,0,0,1-7.12,2.12Z"/><path class="a139c541-d5ac-43af-91c1-3a76ec1ecd17" d="M18.19,52.87h3V68.75H17.91V55.92l-3,1.72-1.28-2.4Z"/><path class="a139c541-d5ac-43af-91c1-3a76ec1ecd17" d="M35.64,55a9.78,9.78,0,0,1,0,11.74,6.4,6.4,0,0,1-9,.87,6,6,0,0,1-.87-.87,9.77,9.77,0,0,1,0-11.77,6.38,6.38,0,0,1,9.88,0Zm-7.53,1.87a7.13,7.13,0,0,0-1,4,7.21,7.21,0,0,0,1,4,3,3,0,0,0,5.27,0,8.41,8.41,0,0,0,0-8,3,3,0,0,0-5.27,0Z"/><path class="bed70df4-f65b-4ce7-b83d-d8905416a6c6" d="M18,52.68h3V68.57H17.72V55.74l-3,1.71-1.27-2.39Z"/><path class="bed70df4-f65b-4ce7-b83d-d8905416a6c6" d="M35.45,54.78a8.71,8.71,0,0,1,2,5.85,8.94,8.94,0,0,1-2,5.89,6.4,6.4,0,0,1-9,.87,6,6,0,0,1-.87-.87,9.83,9.83,0,0,1,0-11.77,6.36,6.36,0,0,1,8.94-1l.06,0a6.81,6.81,0,0,1,.93.93Zm-7.53,1.87a8.35,8.35,0,0,0,0,8,3,3,0,0,0,5.26,0,8.41,8.41,0,0,0,0-8,3,3,0,0,0-5.26,0Z"/><g id="a4fbdf48-7189-48e1-b869-0e8a79443236" data-name="b0838413-fb2a-474e-891c-3e7295f6726a"><path class="af333bc0-c338-4c1e-bc29-c8bc1ddef020" d="M25.07,48.87h-.34l-.35,1.21a2.62,2.62,0,0,1-.56,0,1.91,1.91,0,0,1-.63-.08v-.06L25,44.36a4.69,4.69,0,0,1,.75,0,5.21,5.21,0,0,1,.79,0L28.35,50a1.23,1.23,0,0,1-.65.16,1,1,0,0,1-.61-.15,1.17,1.17,0,0,1-.3-.57l-.16-.55h-1.5Zm0-1h1.24l-.12-.52c-.13-.46-.29-1-.46-1.71h0a12.33,12.33,0,0,1-.4,1.59Z"/></g><g id="ac0b59ef-7a33-42ee-95e6-9c1a5ded4735" data-name="fd199ba0-ddcf-4aad-bff1-859cb3205c4c"><path class="ea750f08-0aa3-4cc6-97e3-1321f4bf08f8" d="M24.89,48.87h-.33l-.37,1.21a2.53,2.53,0,0,1-.55,0A2.05,2.05,0,0,1,23,50v-.06l1.83-5.58a4.69,4.69,0,0,1,.75,0,5.21,5.21,0,0,1,.79,0l1.83,5.59a1.27,1.27,0,0,1-.66.16.92.92,0,0,1-.6-.15,1.17,1.17,0,0,1-.3-.57l-.16-.55H24.93Zm0-1h1.24L26,47.35c-.14-.46-.29-1-.46-1.71h-.05a12.33,12.33,0,0,1-.4,1.59Z"/></g><circle class="b2cebb01-c034-4753-8014-fdc300637a4a" cx="77.1" cy="59.77" r="19.92"/><circle class="a0028301-557a-4096-80ec-f4543cc2d8a3" cx="77.1" cy="59.77" r="16.43"/><path class="e7cd5802-12b9-407a-8443-fc28bf6681ad" d="M61.19,60.06A16.44,16.44,0,0,1,77.63,43.62h0a16.33,16.33,0,0,1,7,1.59,16.14,16.14,0,0,0-7.61-1.87,16.43,16.43,0,0,0-7,31.28A16.42,16.42,0,0,1,61.19,60.06Z"/><path class="ab7c806b-b498-492b-b11e-1ba21afc0665" d="M84.71,45.21A16.43,16.43,0,0,1,70.05,74.62,16.43,16.43,0,0,0,84.71,45.21Z"/><path class="bcee3900-ba4b-47c4-bf27-997382190b5b" d="M76.9,75.16A15.08,15.08,0,0,1,69.78,73a15.25,15.25,0,0,1-5.16-5.13,15.09,15.09,0,0,0,5.45,4.61A14.18,14.18,0,0,0,76.9,74Z"/><path class="ff84158f-a91c-4afa-80ed-1309afa34a65" d="M77.8,74a14.16,14.16,0,0,0,6.83-1.44A15,15,0,0,0,90.08,68a15.25,15.25,0,0,1-5.16,5.13,15.06,15.06,0,0,1-7.12,2.12Z"/><path class="a139c541-d5ac-43af-91c1-3a76ec1ecd17" d="M70.19,52.87h3V68.75H69.9V55.92l-3,1.72-1.27-2.4Z"/><path class="a139c541-d5ac-43af-91c1-3a76ec1ecd17" d="M87.63,55a9.78,9.78,0,0,1,0,11.74,6.4,6.4,0,0,1-9,.87,6,6,0,0,1-.87-.87,9.83,9.83,0,0,1,0-11.77,6.38,6.38,0,0,1,9.88,0ZM80.1,56.87a7.13,7.13,0,0,0-1,4,7.21,7.21,0,0,0,1,4,3,3,0,0,0,5.27,0,8.41,8.41,0,0,0,0-8,3,3,0,0,0-5.27,0Z"/><path class="bed70df4-f65b-4ce7-b83d-d8905416a6c6" d="M70,52.68h3V68.57H69.71V55.74l-3,1.71-1.27-2.39Z"/><path class="bed70df4-f65b-4ce7-b83d-d8905416a6c6" d="M87.44,54.78a8.71,8.71,0,0,1,2,5.85,8.83,8.83,0,0,1-2,5.89,6.4,6.4,0,0,1-9,.87,6,6,0,0,1-.87-.87,9.83,9.83,0,0,1,0-11.77,6.36,6.36,0,0,1,9-.93h0a6.81,6.81,0,0,1,.93.93Zm-7.53,1.87a8.35,8.35,0,0,0,0,8,3,3,0,0,0,5.26,0,8.41,8.41,0,0,0,0-8,3,3,0,0,0-5.26,0Z"/><g id="ae920109-a14f-4c98-96d1-df23c2e7cf7b" data-name="fa8a4399-882b-4c4c-935b-b22be5f50d0b"><path class="af333bc0-c338-4c1e-bc29-c8bc1ddef020" d="M77.06,48.87h-.34l-.35,1.21a2.62,2.62,0,0,1-.56,0,1.86,1.86,0,0,1-.62-.08v-.06L77,44.36a4.82,4.82,0,0,1,.76,0,5.08,5.08,0,0,1,.78,0L80.35,50a1.23,1.23,0,0,1-.65.16,1,1,0,0,1-.61-.15,1.17,1.17,0,0,1-.3-.57l-.16-.55h-1.5Zm0-1H78.3l-.11-.52c-.13-.46-.29-1-.46-1.71h0a12.33,12.33,0,0,1-.4,1.59Z"/></g><g id="af99df3d-047e-4791-b616-ca71eea894f6" data-name="a32600b5-bb8f-4c7b-b8a5-e3285d3e8c56"><path class="ea750f08-0aa3-4cc6-97e3-1321f4bf08f8" d="M76.88,48.87h-.33l-.36,1.21a2.53,2.53,0,0,1-.55,0A2.05,2.05,0,0,1,75,50v-.06l1.83-5.58a4.69,4.69,0,0,1,.75,0,5.21,5.21,0,0,1,.79,0l1.83,5.59a1.27,1.27,0,0,1-.66.16.92.92,0,0,1-.6-.15,1.17,1.17,0,0,1-.3-.57l-.16-.55H76.92Zm0-1h1.24L78,47.35c-.13-.46-.29-1-.46-1.71h0a12.33,12.33,0,0,1-.4,1.59Z"/></g><circle class="b2cebb01-c034-4753-8014-fdc300637a4a" cx="129.09" cy="59.77" r="19.92"/><circle class="a0028301-557a-4096-80ec-f4543cc2d8a3" cx="129.09" cy="59.77" r="16.43"/><path class="e7cd5802-12b9-407a-8443-fc28bf6681ad" d="M113.19,60.06a16.44,16.44,0,0,1,16.44-16.44h0a16.33,16.33,0,0,1,7,1.59A16.14,16.14,0,0,0,129,43.34a16.43,16.43,0,0,0-7,31.28A16.41,16.41,0,0,1,113.19,60.06Z"/><path class="ab7c806b-b498-492b-b11e-1ba21afc0665" d="M136.7,45.21A16.43,16.43,0,0,1,122,74.62,16.43,16.43,0,0,0,136.7,45.21Z"/><path class="bcee3900-ba4b-47c4-bf27-997382190b5b" d="M128.89,75.16A15.08,15.08,0,0,1,121.77,73a15.25,15.25,0,0,1-5.16-5.13,15.09,15.09,0,0,0,5.45,4.61A14.18,14.18,0,0,0,128.89,74Z"/><path class="ff84158f-a91c-4afa-80ed-1309afa34a65" d="M129.79,74a14.16,14.16,0,0,0,6.83-1.44A15,15,0,0,0,142.07,68a15.25,15.25,0,0,1-5.16,5.13,15.06,15.06,0,0,1-7.12,2.12Z"/><path class="a139c541-d5ac-43af-91c1-3a76ec1ecd17" d="M122.13,52.87h3V68.75h-3.24V55.92l-3,1.72-1.27-2.4Z"/><path class="a139c541-d5ac-43af-91c1-3a76ec1ecd17" d="M139.62,55a9.78,9.78,0,0,1,0,11.74,6.4,6.4,0,0,1-9,.87,6,6,0,0,1-.87-.87,9.83,9.83,0,0,1,0-11.77,6.38,6.38,0,0,1,9.88,0Zm-7.53,1.87a7.13,7.13,0,0,0-1,4,7.21,7.21,0,0,0,1,4,3,3,0,0,0,5.27,0,8.41,8.41,0,0,0,0-8,3,3,0,0,0-5.27,0Z"/><path class="bed70df4-f65b-4ce7-b83d-d8905416a6c6" d="M121.94,52.68h3V68.57H121.7V55.74l-3,1.71-1.27-2.39Z"/><path class="bed70df4-f65b-4ce7-b83d-d8905416a6c6" d="M139.43,54.78a8.71,8.71,0,0,1,2,5.85,8.83,8.83,0,0,1-2,5.89,6.4,6.4,0,0,1-9,.87,6,6,0,0,1-.87-.87,9.83,9.83,0,0,1,0-11.77,6.36,6.36,0,0,1,8.94-1l.06,0a6.81,6.81,0,0,1,.93.93Zm-7.53,1.87a8.35,8.35,0,0,0,0,8,3,3,0,0,0,5.26,0,7.13,7.13,0,0,0,1-4,7.21,7.21,0,0,0-1-4,3,3,0,0,0-5.26,0Z"/><g id="bbc5a53f-f4c9-4f24-9a51-d39174485ee6" data-name="a4355352-2e4d-47a3-ade1-fdd685b101e7"><path class="af333bc0-c338-4c1e-bc29-c8bc1ddef020" d="M129.05,48.87h-.34l-.35,1.21a2.62,2.62,0,0,1-.56,0,2.09,2.09,0,0,1-.61-.08v-.06L129,44.36a4.82,4.82,0,0,1,.76,0,5.08,5.08,0,0,1,.78,0L132.35,50a1.23,1.23,0,0,1-.65.16,1,1,0,0,1-.61-.15,1.17,1.17,0,0,1-.3-.57l-.16-.55h-1.5Zm0-1h1.24l-.14-.52c-.13-.46-.29-1-.46-1.71h0a9.74,9.74,0,0,1-.4,1.59Z"/></g><g id="a332b2d2-8445-4278-8539-2c0cdd0ab38f" data-name="a54c0533-758e-4263-a46d-eab27bb4dcd2"><path class="ea750f08-0aa3-4cc6-97e3-1321f4bf08f8" d="M128.88,48.87h-.34l-.35,1.21a2.62,2.62,0,0,1-.56,0A2.05,2.05,0,0,1,127,50v-.06l1.83-5.58a4.69,4.69,0,0,1,.75,0,5.21,5.21,0,0,1,.79,0l1.84,5.59a1.27,1.27,0,0,1-.66.16.92.92,0,0,1-.6-.15,1.17,1.17,0,0,1-.3-.57l-.16-.55H129Zm0-1h1.24l-.14-.52c-.13-.46-.29-1-.46-1.71h0a12.33,12.33,0,0,1-.4,1.59Z"/></g><circle class="b2cebb01-c034-4753-8014-fdc300637a4a" cx="25.11" cy="99.47" r="19.92"/><circle class="a0028301-557a-4096-80ec-f4543cc2d8a3" cx="25.11" cy="99.47" r="16.43"/><path class="e7cd5802-12b9-407a-8443-fc28bf6681ad" d="M9.24,99.76A16.44,16.44,0,0,1,25.68,83.32h0a16.33,16.33,0,0,1,7,1.59A16.15,16.15,0,0,0,25.07,83a16.43,16.43,0,0,0-7,31.28A16.44,16.44,0,0,1,9.24,99.76Z"/><path class="ab7c806b-b498-492b-b11e-1ba21afc0665" d="M32.72,84.91a16.43,16.43,0,0,1-14.66,29.41A16.43,16.43,0,0,0,32.72,84.91Z"/><path class="bcee3900-ba4b-47c4-bf27-997382190b5b" d="M24.91,114.9a15.06,15.06,0,0,1-7.12-2.12,15.25,15.25,0,0,1-5.16-5.13,15.09,15.09,0,0,0,5.45,4.61,14.16,14.16,0,0,0,6.83,1.44Z"/><path class="ff84158f-a91c-4afa-80ed-1309afa34a65" d="M25.81,113.7a14.16,14.16,0,0,0,6.83-1.44,15.09,15.09,0,0,0,5.45-4.61,15.25,15.25,0,0,1-5.16,5.13,15.06,15.06,0,0,1-7.12,2.12Z"/><path class="a139c541-d5ac-43af-91c1-3a76ec1ecd17" d="M18.19,92.57h3v15.88H17.91V95.63l-3,1.71-1.28-2.4Z"/><path class="a139c541-d5ac-43af-91c1-3a76ec1ecd17" d="M35.64,94.66a9.78,9.78,0,0,1,0,11.74,6.4,6.4,0,0,1-9,.87,6,6,0,0,1-.87-.87,9.77,9.77,0,0,1,0-11.77,6.38,6.38,0,0,1,9.88,0Zm-7.53,1.87a8.41,8.41,0,0,0,0,8,3,3,0,0,0,5.27,0,8.41,8.41,0,0,0,0-8,3,3,0,0,0-5.27,0Z"/><path class="bed70df4-f65b-4ce7-b83d-d8905416a6c6" d="M18,92.38h3v15.88H17.72V95.44l-3,1.71-1.27-2.39Z"/><path class="bed70df4-f65b-4ce7-b83d-d8905416a6c6" d="M35.45,94.47a9.78,9.78,0,0,1,0,11.74,6.38,6.38,0,0,1-9.88,0,9.81,9.81,0,0,1,0-11.76,6.37,6.37,0,0,1,9-1l0,0a5.72,5.72,0,0,1,.92.92Zm-7.53,1.88a8.35,8.35,0,0,0,0,8,3,3,0,0,0,5.26,0,8.41,8.41,0,0,0,0-8,3,3,0,0,0-5.26,0Z"/><g id="b86ad494-0b89-483e-95ce-e4433f50c389" data-name="ba804e51-e786-458b-9886-4435727b5922"><path class="af333bc0-c338-4c1e-bc29-c8bc1ddef020" d="M25.07,88.57h-.34l-.35,1.21a2.62,2.62,0,0,1-.56,0,1.8,1.8,0,0,1-.65-.09v-.06L25,84.05a4.69,4.69,0,0,1,.75,0,5.21,5.21,0,0,1,.79,0l1.79,5.59a1.23,1.23,0,0,1-.65.16,1,1,0,0,1-.61-.15,1.17,1.17,0,0,1-.3-.57l-.16-.55h-1.5Zm0-1h1.24l-.12-.52c-.13-.46-.29-1-.46-1.71h0a12.33,12.33,0,0,1-.4,1.59Z"/></g><g id="afc49545-26e7-4eee-8ffd-f7c8586e5353" data-name="fde50b95-f2d8-4aae-860d-3b630541e490"><path class="ea750f08-0aa3-4cc6-97e3-1321f4bf08f8" d="M24.89,88.57h-.33l-.37,1.21a2.53,2.53,0,0,1-.55,0,1.8,1.8,0,0,1-.65-.09v-.06l1.83-5.58a4.69,4.69,0,0,1,.75,0,5.21,5.21,0,0,1,.79,0l1.83,5.59a1.27,1.27,0,0,1-.66.16.92.92,0,0,1-.6-.15,1.17,1.17,0,0,1-.3-.57l-.16-.55H24.93Zm0-1h1.24L26,87.05c-.14-.46-.29-1-.46-1.71h-.05a12.33,12.33,0,0,1-.4,1.59Z"/></g><circle class="b2cebb01-c034-4753-8014-fdc300637a4a" cx="77.1" cy="99.47" r="19.92"/><circle class="a0028301-557a-4096-80ec-f4543cc2d8a3" cx="77.1" cy="99.47" r="16.43"/><path class="e7cd5802-12b9-407a-8443-fc28bf6681ad" d="M61.19,99.76A16.44,16.44,0,0,1,77.63,83.32h0a16.33,16.33,0,0,1,7,1.59A16.15,16.15,0,0,0,77.06,83a16.43,16.43,0,0,0-7,31.28A16.46,16.46,0,0,1,61.19,99.76Z"/><path class="ab7c806b-b498-492b-b11e-1ba21afc0665" d="M84.71,84.91a16.43,16.43,0,0,1-14.66,29.41A16.43,16.43,0,0,0,84.71,84.91Z"/><path class="bcee3900-ba4b-47c4-bf27-997382190b5b" d="M76.9,114.9a15.06,15.06,0,0,1-7.12-2.12,15.25,15.25,0,0,1-5.16-5.13,15.09,15.09,0,0,0,5.45,4.61,14.16,14.16,0,0,0,6.83,1.44Z"/><path class="ff84158f-a91c-4afa-80ed-1309afa34a65" d="M77.8,113.7a14.16,14.16,0,0,0,6.83-1.44,15.09,15.09,0,0,0,5.45-4.61,15.25,15.25,0,0,1-5.16,5.13,15.06,15.06,0,0,1-7.12,2.12Z"/><path class="a139c541-d5ac-43af-91c1-3a76ec1ecd17" d="M70.19,92.57h3v15.88H69.9V95.63l-3,1.71-1.27-2.4Z"/><path class="a139c541-d5ac-43af-91c1-3a76ec1ecd17" d="M87.63,94.66a9.78,9.78,0,0,1,0,11.74,6.4,6.4,0,0,1-9,.87,6,6,0,0,1-.87-.87,9.83,9.83,0,0,1,0-11.77,6.38,6.38,0,0,1,9.88,0ZM80.1,96.53a8.41,8.41,0,0,0,0,8,3,3,0,0,0,5.27,0,8.41,8.41,0,0,0,0-8,3,3,0,0,0-4.09-1.13,3.06,3.06,0,0,0-1.13,1.13Z"/><path class="bed70df4-f65b-4ce7-b83d-d8905416a6c6" d="M70,92.38h3v15.88H69.71V95.44l-3,1.71-1.27-2.39Z"/><path class="bed70df4-f65b-4ce7-b83d-d8905416a6c6" d="M87.44,94.47a9.78,9.78,0,0,1,0,11.74,6.38,6.38,0,0,1-9.88,0,9.81,9.81,0,0,1,0-11.76,6.37,6.37,0,0,1,9-1l0,0a5.72,5.72,0,0,1,.92.92Zm-7.53,1.88a8.35,8.35,0,0,0,0,8,3,3,0,0,0,5.26,0,8.41,8.41,0,0,0,0-8,3,3,0,0,0-5.26,0Z"/><g id="e3189e21-f24a-4c38-82d9-4ab4851a89b7" data-name="e3235af3-ddfa-4015-8d16-96e4ecca5441"><path class="af333bc0-c338-4c1e-bc29-c8bc1ddef020" d="M77.06,88.57h-.34l-.35,1.21a2.62,2.62,0,0,1-.56,0,1.8,1.8,0,0,1-.65-.09v-.06L77,84.05a4.82,4.82,0,0,1,.76,0,5.08,5.08,0,0,1,.78,0l1.79,5.59a1.23,1.23,0,0,1-.65.16,1,1,0,0,1-.61-.15,1.17,1.17,0,0,1-.3-.57l-.16-.55H77.1Zm0-1H78.3l-.11-.52c-.13-.46-.29-1-.46-1.71h0a12.33,12.33,0,0,1-.4,1.59Z"/></g><g id="b7d0342d-9166-4649-bdda-1ae7d103f27f" data-name="bef9b829-a08a-4db6-b31f-2b521e9c537c"><path class="ea750f08-0aa3-4cc6-97e3-1321f4bf08f8" d="M76.88,88.57h-.33l-.36,1.21a2.53,2.53,0,0,1-.55,0,1.8,1.8,0,0,1-.65-.09v-.06l1.83-5.58a4.69,4.69,0,0,1,.75,0,5.21,5.21,0,0,1,.79,0l1.83,5.59a1.27,1.27,0,0,1-.66.16.92.92,0,0,1-.6-.15,1.17,1.17,0,0,1-.3-.57l-.16-.55H76.92Zm0-1h1.24L78,87.05c-.13-.46-.29-1-.46-1.71h0a12.33,12.33,0,0,1-.4,1.59Z"/></g><circle class="b2cebb01-c034-4753-8014-fdc300637a4a" cx="129.09" cy="99.47" r="19.92"/><circle class="a0028301-557a-4096-80ec-f4543cc2d8a3" cx="129.09" cy="99.47" r="16.43"/><path class="e7cd5802-12b9-407a-8443-fc28bf6681ad" d="M113.19,99.76a16.44,16.44,0,0,1,16.44-16.44h0a16.33,16.33,0,0,1,7,1.59A16.18,16.18,0,0,0,129.05,83a16.43,16.43,0,0,0-7,31.28A16.46,16.46,0,0,1,113.19,99.76Z"/><path class="ab7c806b-b498-492b-b11e-1ba21afc0665" d="M136.7,84.91A16.43,16.43,0,0,1,122,114.32h0A16.43,16.43,0,0,0,136.7,84.91Z"/><path class="bcee3900-ba4b-47c4-bf27-997382190b5b" d="M128.89,114.9a15.06,15.06,0,0,1-7.12-2.12,15.25,15.25,0,0,1-5.16-5.13,15.09,15.09,0,0,0,5.45,4.61,14.16,14.16,0,0,0,6.83,1.44Z"/><path class="ff84158f-a91c-4afa-80ed-1309afa34a65" d="M129.79,113.7a14.16,14.16,0,0,0,6.83-1.44,15.09,15.09,0,0,0,5.45-4.61,15.25,15.25,0,0,1-5.16,5.13,15.06,15.06,0,0,1-7.12,2.12Z"/><path class="a139c541-d5ac-43af-91c1-3a76ec1ecd17" d="M122.13,92.57h3v15.88h-3.24V95.63l-3,1.71-1.27-2.4Z"/><path class="a139c541-d5ac-43af-91c1-3a76ec1ecd17" d="M139.62,94.66a9.78,9.78,0,0,1,0,11.74,6.4,6.4,0,0,1-9,.87,6,6,0,0,1-.87-.87,9.83,9.83,0,0,1,0-11.77,6.38,6.38,0,0,1,9.88,0Zm-7.53,1.87a8.41,8.41,0,0,0-.05,8,3,3,0,0,0,5.27,0,8.41,8.41,0,0,0,0-8,3,3,0,0,0-4.09-1.13A3.06,3.06,0,0,0,132.09,96.53Z"/><path class="bed70df4-f65b-4ce7-b83d-d8905416a6c6" d="M121.94,92.38h3v15.88H121.7V95.44l-3,1.71-1.27-2.39Z"/><path class="bed70df4-f65b-4ce7-b83d-d8905416a6c6" d="M139.43,94.47a9.78,9.78,0,0,1,0,11.74,6.38,6.38,0,0,1-9.88,0,9.81,9.81,0,0,1,0-11.76,6.37,6.37,0,0,1,9-1l0,0a5.72,5.72,0,0,1,.92.92Zm-7.53,1.88a8.35,8.35,0,0,0,0,8,3,3,0,0,0,5.26,0,7.13,7.13,0,0,0,1-4,7.21,7.21,0,0,0-1-4,3,3,0,0,0-5.26,0Z"/><g id="bcd98508-39a4-4f7b-b490-b3c3f4752705" data-name="a792a1b0-252b-438e-8e0e-c3af352109ba"><path class="af333bc0-c338-4c1e-bc29-c8bc1ddef020" d="M129.05,88.57h-.34l-.35,1.21a2.62,2.62,0,0,1-.56,0,1.8,1.8,0,0,1-.65-.09v-.06L129,84.05a4.82,4.82,0,0,1,.76,0,5.08,5.08,0,0,1,.78,0l1.79,5.59a1.23,1.23,0,0,1-.65.16,1,1,0,0,1-.61-.15,1.17,1.17,0,0,1-.3-.57l-.16-.55h-1.5Zm0-1h1.24l-.14-.52c-.13-.46-.29-1-.46-1.71h0a9.74,9.74,0,0,1-.4,1.59Z"/></g><g id="e6346090-882a-4c65-b78c-3e081a50d443" data-name="eec724fc-b6bc-4c2c-883e-4b3384c91532"><path class="ea750f08-0aa3-4cc6-97e3-1321f4bf08f8" d="M128.88,88.57h-.34l-.35,1.21a2.62,2.62,0,0,1-.56,0,1.8,1.8,0,0,1-.65-.09v-.06l1.83-5.58a4.69,4.69,0,0,1,.75,0,5.21,5.21,0,0,1,.79,0l1.84,5.59a1.27,1.27,0,0,1-.66.16.92.92,0,0,1-.6-.15,1.17,1.17,0,0,1-.3-.57l-.16-.55H129Zm0-1h1.24l-.14-.52c-.13-.46-.29-1-.46-1.71h0a12.33,12.33,0,0,1-.4,1.59Z"/></g></g></g></g></g></svg>