<svg xmlns="http://www.w3.org/2000/svg" viewBox="0 0 154.2 119.39"><defs><style>.a3545ee9-2595-4b6b-8559-4d328d81fa19{fill:none;}.fe22e81f-a886-4c4e-bf19-6ef0585e529b{fill:#adadad;}.eed1675c-5116-4dc2-8bb3-d1e7703bc903{fill:#bcbcbc;}.a0dbe183-0e8e-456b-bf89-4b9d6d2fe03e{fill:#848484;}.b25b0186-b57f-4737-91d1-87ebde9ec372{fill:#f2f2f2;}.a28770eb-368b-4ac3-bd1e-376c5de14b46{fill:#efefef;}.aaf9a8b9-8210-4ab5-b302-929c3f31ec9c{fill:#a2a2a3;}.bf8ba293-6e21-494e-b0cd-29577971915f{fill:#dbdbdb;}</style></defs><title>1 2</title><g id="add27978-46ce-4cd0-a3dd-3762e9047a19" data-name="Capa 2"><g id="b4ea8424-f790-4f23-a449-118d8203f819" data-name="Capa 1"><rect class="a3545ee9-2595-4b6b-8559-4d328d81fa19" width="154.2" height="119.39"/><g id="bc7c598d-eae9-4ed9-8d3a-cb9d3cf8ea9b" data-name="f58d830e-09dd-4028-afb3-eb88521cc776"><g id="b852a4e7-e935-4d7a-99c3-df1b6d4f3bb5" data-name="b3ccc9a2-95c7-47c9-a201-784945498d27"><path class="fe22e81f-a886-4c4e-bf19-6ef0585e529b" d="M8.51,22.14v.78a15.13,15.13,0,0,0,2.76,8.77l.28.4a15.22,15.22,0,0,0,7.58,5.6h0a15.21,15.21,0,0,0,9.66,0h0A15.17,15.17,0,0,0,36.37,32l.26-.34A15.29,15.29,0,0,0,39.39,23v-.78a15.28,15.28,0,0,0-2.76-8.77l-.28-.4a15.17,15.17,0,0,0-7.58-5.66h0a15.21,15.21,0,0,0-9.66,0h0A15.08,15.08,0,0,0,11.51,13l-.28.4A15,15,0,0,0,8.51,22.14Z"/><path class="eed1675c-5116-4dc2-8bb3-d1e7703bc903" d="M9.84,22.17v.72a13.81,13.81,0,0,0,2.52,8l.25.37a13.86,13.86,0,0,0,6.9,5.17h0a13.93,13.93,0,0,0,8.84,0h0a13.86,13.86,0,0,0,6.93-5.17l.25-.37a14,14,0,0,0,2.52-8v-.72a13.81,13.81,0,0,0-2.52-8l-.25-.37a13.83,13.83,0,0,0-6.93-5.11h0a13.93,13.93,0,0,0-8.84,0h0a13.75,13.75,0,0,0-6.88,5.14l-.25.37A13.81,13.81,0,0,0,9.84,22.17Z"/><path class="a0dbe183-0e8e-456b-bf89-4b9d6d2fe03e" d="M11.18,22.69A13.46,13.46,0,0,1,24.4,9h0a12.85,12.85,0,0,1,5.67,1.32A12.82,12.82,0,0,0,24,8.69,13.45,13.45,0,0,0,10.72,22.36h0a13.7,13.7,0,0,0,7.56,12.38A13.73,13.73,0,0,1,11.18,22.69Z"/><path class="b25b0186-b57f-4737-91d1-87ebde9ec372" d="M30.09,10.28A13.76,13.76,0,0,1,37.2,22.41,13.48,13.48,0,0,1,24,36.09h0a13,13,0,0,1-5.68-1.31,12.87,12.87,0,0,0,6.14,1.55A13.49,13.49,0,0,0,37.63,22.69,13.75,13.75,0,0,0,30.09,10.28Z"/><path class="a0dbe183-0e8e-456b-bf89-4b9d6d2fe03e" d="M23.34,17.23h2.84V33H23.07V20.27L20.22,22,19,19.57Z"/><path class="a28770eb-368b-4ac3-bd1e-376c5de14b46" d="M23.19,17.08H26V32.87H22.92V20.12l-2.85,1.7-1.22-2.38Z"/><g id="b50a19c4-3548-4970-8614-c9da0a837741" data-name="a4ac9529-c772-45d0-b7a3-c4f0314f7344"><path class="fe22e81f-a886-4c4e-bf19-6ef0585e529b" d="M23.93,13.33h-.3l-.29,1a1.69,1.69,0,0,1-.45,0,1.77,1.77,0,0,1-.52-.08h0l1.47-4.68a3.11,3.11,0,0,1,.61,0,3.31,3.31,0,0,1,.63,0l1.43,4.68a1.12,1.12,0,0,1-.53.13.75.75,0,0,1-.47-.12.82.82,0,0,1-.24-.48l-.13-.46H23.93Zm0-.87h1L24.81,12c-.11-.39-.23-.86-.37-1.43h0a12.25,12.25,0,0,1-.32,1.33Z"/></g><g id="b57a368f-ef46-4a5f-a16e-3390efee23f4" data-name="a073b496-cf6b-4a81-9867-66639cc1fb2f"><path class="a28770eb-368b-4ac3-bd1e-376c5de14b46" d="M23.79,13.33h-.28l-.29,1a1.69,1.69,0,0,1-.45,0,1.77,1.77,0,0,1-.52-.08h0l1.48-4.68a3.11,3.11,0,0,1,.61,0,3.31,3.31,0,0,1,.63,0l1.45,4.65a1.12,1.12,0,0,1-.53.13.82.82,0,0,1-.49-.12,1,1,0,0,1-.24-.48L25,13.29H23.79Zm0-.87h1L24.67,12c-.1-.39-.23-.86-.36-1.43h0a12.25,12.25,0,0,1-.32,1.33Z"/></g><path class="aaf9a8b9-8210-4ab5-b302-929c3f31ec9c" d="M24,35.31a12.13,12.13,0,0,1-8.75-4,12.87,12.87,0,0,1-3.35-8.89,12.63,12.63,0,0,0,3.58,8.65A11.58,11.58,0,0,0,24,34.57Z"/><path class="bf8ba293-6e21-494e-b0cd-29577971915f" d="M24.34,34.57a11.62,11.62,0,0,0,8.5-3.51,12.76,12.76,0,0,0,3.6-8.65,12.85,12.85,0,0,1-3.35,8.89,12.16,12.16,0,0,1-8.75,4Z"/><path class="fe22e81f-a886-4c4e-bf19-6ef0585e529b" d="M114.76,97.37h0a15.37,15.37,0,0,0,3,9.08h0a15.38,15.38,0,0,0,7.72,5.61h0a15.43,15.43,0,0,0,9.55,0h0a15.61,15.61,0,0,0,7.72-5.61h0a15.51,15.51,0,0,0,2.95-9.08h0a15.51,15.51,0,0,0-2.95-9.08h0A15.46,15.46,0,0,0,135,82.68h0a15.43,15.43,0,0,0-9.55,0h0a15.38,15.38,0,0,0-7.72,5.61h0A15.24,15.24,0,0,0,114.76,97.37Z"/><path class="eed1675c-5116-4dc2-8bb3-d1e7703bc903" d="M116.08,97.37h0a14,14,0,0,0,2.7,8.3h0a14.1,14.1,0,0,0,7.06,5.13h0a14.15,14.15,0,0,0,8.73,0h0a14.21,14.21,0,0,0,7.06-5.11h0a14.21,14.21,0,0,0,2.7-8.3h0a14.21,14.21,0,0,0-2.7-8.3h0A14.1,14.1,0,0,0,134.57,84h0a14.15,14.15,0,0,0-8.73,0h0a14,14,0,0,0-7.06,5.14h0A14,14,0,0,0,116.08,97.37Z"/><path class="a0dbe183-0e8e-456b-bf89-4b9d6d2fe03e" d="M117.42,97.48a13.26,13.26,0,0,1,18.92-12,13.24,13.24,0,1,0-12.91,23.12c.15.09.31.17.47.25l.63.32A13.23,13.23,0,0,1,117.42,97.48Z"/><path class="b25b0186-b57f-4737-91d1-87ebde9ec372" d="M136.34,85.57a13.24,13.24,0,0,1-11.83,23.64,13.05,13.05,0,0,0,6.1,1.48,13.24,13.24,0,0,0,5.68-25.2Z"/><path class="a0dbe183-0e8e-456b-bf89-4b9d6d2fe03e" d="M129.63,92.25h2.88v15.32h-3.12V95.19l-2.88,1.65-1.22-2.27Z"/><path class="a28770eb-368b-4ac3-bd1e-376c5de14b46" d="M129.43,92.09h2.85v15.28h-3.12V95l-2.84,1.66-1.23-2.3Z"/><g id="a022312c-b4f1-4916-b9b9-70b4fa5b0fc0" data-name="ebbfdc41-4fd9-49a1-ba6b-765c8363aac7"><path class="fe22e81f-a886-4c4e-bf19-6ef0585e529b" d="M130.17,88.47h-.27l-.29,1h-.45a1.77,1.77,0,0,1-.52-.08h0l1.47-4.5h.61a3.31,3.31,0,0,1,.63,0l1.45,4.5a1.12,1.12,0,0,1-.53.13.82.82,0,0,1-.49-.12.93.93,0,0,1-.24-.46l-.13-.45H130.2Zm0-.84h1l-.12-.42c-.1-.37-.23-.83-.36-1.38h0a11.45,11.45,0,0,1-.33,1.28Z"/></g><g id="bd29db1a-4630-43f3-a3e7-bd18a1d8fe43" data-name="b86b719d-56bd-4a4c-9323-084a605f36cb"><path class="a28770eb-368b-4ac3-bd1e-376c5de14b46" d="M130,88.47h-.27l-.28,1H129a1.89,1.89,0,0,1-.53-.08h0l1.48-4.5a3.11,3.11,0,0,1,.61,0,3.21,3.21,0,0,1,.62,0l1.45,4.5a1.12,1.12,0,0,1-.53.13.82.82,0,0,1-.49-.12.93.93,0,0,1-.24-.46l-.13-.45H130Zm0-.84h1l-.11-.42c-.11-.37-.23-.83-.37-1.38h0a11.4,11.4,0,0,1-.32,1.28Z"/></g><path class="aaf9a8b9-8210-4ab5-b302-929c3f31ec9c" d="M130.28,109.74A12.41,12.41,0,0,1,121.6,106a12.15,12.15,0,0,1-3.42-8.68,11.91,11.91,0,0,0,12.1,11.76Z"/><path class="bf8ba293-6e21-494e-b0cd-29577971915f" d="M130.63,109.05a11.88,11.88,0,0,0,8.43-3.32,12.15,12.15,0,0,0,3.67-8.44,12.3,12.3,0,0,1-3.42,8.68,12.49,12.49,0,0,1-8.68,3.77Z"/></g></g></g></g></svg>