<svg xmlns="http://www.w3.org/2000/svg" viewBox="0 0 154.2 119.39"><defs><style>.b27e1fc7-ba3c-493d-bde3-5c83f5cd8332{fill:none;}.aa1ad4a4-9d7f-4e8b-8823-c509c69f5d99{fill:#adadad;}.b8d07de7-cb78-4c76-90e0-88f5b8d63fd2{fill:#bcbcbc;}.b529e157-fc32-4703-9ede-5cf84bcff46e{fill:#848484;}.a19397dc-2350-4634-ba42-cd581abaede9{fill:#f2f2f2;}.a2134c73-76fb-409f-9875-d538ca9e884f{fill:#efefef;}.fe1bab24-b86c-42ad-9f90-d7395ca246dd{fill:#a2a2a3;}.f4abc059-8bd0-4a10-ae71-f41b9c18cfcc{fill:#dbdbdb;}</style></defs><title>1 3</title><g id="b515699f-8db1-40f2-be02-dc44a6257b45" data-name="Capa 2"><g id="e07af770-1376-4cdc-a88a-0e926761c5ae" data-name="Capa 1"><rect class="b27e1fc7-ba3c-493d-bde3-5c83f5cd8332" width="154.2" height="119.39"/><g id="b3e6af44-c69f-4d3c-999f-e539e417dcd0" data-name="af60481a-e6e4-48ce-8a31-a3260050b437"><g id="be597fe3-c1c8-4977-9597-74ff3ce7dbd7" data-name="e12585e9-9a69-49f7-8767-20624d30b1c8"><path class="aa1ad4a4-9d7f-4e8b-8823-c509c69f5d99" d="M8.51,22.14v.78a15.13,15.13,0,0,0,2.76,8.77l.28.4a15.22,15.22,0,0,0,7.58,5.6h0a15.21,15.21,0,0,0,9.66,0h0A15.17,15.17,0,0,0,36.37,32l.26-.34A15.29,15.29,0,0,0,39.39,23v-.78a15.28,15.28,0,0,0-2.76-8.77l-.28-.4a15.17,15.17,0,0,0-7.58-5.66h0a15.21,15.21,0,0,0-9.66,0h0A15.08,15.08,0,0,0,11.51,13l-.28.4A15,15,0,0,0,8.51,22.14Z"/><path class="b8d07de7-cb78-4c76-90e0-88f5b8d63fd2" d="M9.84,22.17v.72a13.81,13.81,0,0,0,2.52,8l.25.37a13.86,13.86,0,0,0,6.9,5.17h0a13.93,13.93,0,0,0,8.84,0h0a13.86,13.86,0,0,0,6.93-5.17l.25-.37a14,14,0,0,0,2.52-8v-.72a13.81,13.81,0,0,0-2.52-8l-.25-.37a13.83,13.83,0,0,0-6.93-5.11h0a13.93,13.93,0,0,0-8.84,0h0a13.75,13.75,0,0,0-6.88,5.14l-.25.37A13.81,13.81,0,0,0,9.84,22.17Z"/><path class="b529e157-fc32-4703-9ede-5cf84bcff46e" d="M11.18,22.69A13.46,13.46,0,0,1,24.4,9h0a12.85,12.85,0,0,1,5.67,1.32A12.82,12.82,0,0,0,24,8.69,13.45,13.45,0,0,0,10.72,22.36h0a13.7,13.7,0,0,0,7.56,12.38A13.73,13.73,0,0,1,11.18,22.69Z"/><path class="a19397dc-2350-4634-ba42-cd581abaede9" d="M30.09,10.28A13.76,13.76,0,0,1,37.2,22.41,13.48,13.48,0,0,1,24,36.09h0a13,13,0,0,1-5.68-1.31,12.87,12.87,0,0,0,6.14,1.55A13.49,13.49,0,0,0,37.63,22.69,13.75,13.75,0,0,0,30.09,10.28Z"/><path class="b529e157-fc32-4703-9ede-5cf84bcff46e" d="M23.34,17.23h2.84V33H23.07V20.27L20.22,22,19,19.57Z"/><path class="a2134c73-76fb-409f-9875-d538ca9e884f" d="M23.19,17.08H26V32.87H22.92V20.12l-2.85,1.7-1.22-2.38Z"/><g id="b7c29aa8-083d-4606-b4e0-d76f3e8e81b5" data-name="f02f947f-cf19-4ff9-8945-c2ce89d9c303"><path class="aa1ad4a4-9d7f-4e8b-8823-c509c69f5d99" d="M23.93,13.33h-.3l-.29,1a1.69,1.69,0,0,1-.45,0,1.77,1.77,0,0,1-.52-.08h0l1.47-4.68a3.11,3.11,0,0,1,.61,0,3.31,3.31,0,0,1,.63,0l1.43,4.68a1.12,1.12,0,0,1-.53.13.75.75,0,0,1-.47-.12.82.82,0,0,1-.24-.48l-.13-.46H23.93Zm0-.87h1L24.81,12c-.11-.39-.23-.86-.37-1.43h0a12.25,12.25,0,0,1-.32,1.33Z"/></g><g id="ff5cafab-367c-4dbc-842a-32027994d641" data-name="aee64b40-cd50-4df9-8c46-f424c3049bae"><path class="a2134c73-76fb-409f-9875-d538ca9e884f" d="M23.79,13.33h-.28l-.29,1a1.69,1.69,0,0,1-.45,0,1.77,1.77,0,0,1-.52-.08h0l1.48-4.68a3.11,3.11,0,0,1,.61,0,3.31,3.31,0,0,1,.63,0l1.45,4.65a1.12,1.12,0,0,1-.53.13.82.82,0,0,1-.49-.12,1,1,0,0,1-.24-.48L25,13.29H23.79Zm0-.87h1L24.67,12c-.1-.39-.23-.86-.36-1.43h0a12.25,12.25,0,0,1-.32,1.33Z"/></g><path class="fe1bab24-b86c-42ad-9f90-d7395ca246dd" d="M24,35.31a12.13,12.13,0,0,1-8.75-4,12.87,12.87,0,0,1-3.35-8.89,12.63,12.63,0,0,0,3.58,8.65A11.58,11.58,0,0,0,24,34.57Z"/><path class="f4abc059-8bd0-4a10-ae71-f41b9c18cfcc" d="M24.34,34.57a11.62,11.62,0,0,0,8.5-3.51,12.76,12.76,0,0,0,3.6-8.65,12.85,12.85,0,0,1-3.35,8.89,12.16,12.16,0,0,1-8.75,4Z"/><path class="aa1ad4a4-9d7f-4e8b-8823-c509c69f5d99" d="M114.76,97.37h0a15.37,15.37,0,0,0,3,9.08h0a15.38,15.38,0,0,0,7.72,5.61h0a15.43,15.43,0,0,0,9.55,0h0a15.61,15.61,0,0,0,7.72-5.61h0a15.51,15.51,0,0,0,2.95-9.08h0a15.51,15.51,0,0,0-2.95-9.08h0A15.46,15.46,0,0,0,135,82.68h0a15.43,15.43,0,0,0-9.55,0h0a15.38,15.38,0,0,0-7.72,5.61h0A15.24,15.24,0,0,0,114.76,97.37Z"/><path class="b8d07de7-cb78-4c76-90e0-88f5b8d63fd2" d="M116.08,97.37h0a14,14,0,0,0,2.7,8.3h0a14.1,14.1,0,0,0,7.06,5.13h0a14.15,14.15,0,0,0,8.73,0h0a14.21,14.21,0,0,0,7.06-5.11h0a14.21,14.21,0,0,0,2.7-8.3h0a14.21,14.21,0,0,0-2.7-8.3h0A14.1,14.1,0,0,0,134.57,84h0a14.15,14.15,0,0,0-8.73,0h0a14,14,0,0,0-7.06,5.14h0A14,14,0,0,0,116.08,97.37Z"/><path class="b529e157-fc32-4703-9ede-5cf84bcff46e" d="M117.42,97.48a13.26,13.26,0,0,1,18.92-12,13.24,13.24,0,1,0-12.91,23.12c.15.09.31.17.47.25l.63.32A13.23,13.23,0,0,1,117.42,97.48Z"/><path class="a19397dc-2350-4634-ba42-cd581abaede9" d="M136.34,85.57a13.24,13.24,0,0,1-11.83,23.64,13.05,13.05,0,0,0,6.1,1.48,13.24,13.24,0,0,0,5.68-25.2Z"/><path class="b529e157-fc32-4703-9ede-5cf84bcff46e" d="M129.63,92.25h2.88v15.32h-3.12V95.19l-2.88,1.65-1.22-2.27Z"/><path class="a2134c73-76fb-409f-9875-d538ca9e884f" d="M129.43,92.09h2.85v15.28h-3.12V95l-2.84,1.65-1.23-2.3Z"/><g id="a6c52843-d8b9-473e-9ce5-092924206aae" data-name="afcf9594-eaa0-4fd8-b97c-b5a7cb7aaa7e"><path class="aa1ad4a4-9d7f-4e8b-8823-c509c69f5d99" d="M130.17,88.47h-.27l-.29,1h-.45a1.77,1.77,0,0,1-.52-.08h0l1.47-4.5h.61a3.31,3.31,0,0,1,.63,0l1.45,4.5a1.12,1.12,0,0,1-.53.13.82.82,0,0,1-.49-.12.93.93,0,0,1-.24-.46l-.13-.45H130.2Zm0-.84h1l-.12-.42c-.1-.37-.23-.83-.36-1.38h0a11.45,11.45,0,0,1-.33,1.28Z"/></g><g id="fe45527e-6f70-4932-9b94-2e2fb42e532b" data-name="b66a3029-5e58-4ecd-b45b-85c0d649e2e8"><path class="a2134c73-76fb-409f-9875-d538ca9e884f" d="M130,88.47h-.27l-.28,1H129a1.89,1.89,0,0,1-.53-.08h0l1.48-4.5a3.11,3.11,0,0,1,.61,0,3.21,3.21,0,0,1,.62,0l1.45,4.5a1.12,1.12,0,0,1-.53.13.82.82,0,0,1-.49-.12.93.93,0,0,1-.24-.46l-.13-.45H130Zm0-.84h1l-.11-.42c-.11-.37-.23-.83-.37-1.38h0a11.4,11.4,0,0,1-.32,1.28Z"/></g><path class="fe1bab24-b86c-42ad-9f90-d7395ca246dd" d="M130.28,109.74A12.41,12.41,0,0,1,121.6,106a12.15,12.15,0,0,1-3.42-8.68,11.91,11.91,0,0,0,12.1,11.76Z"/><path class="f4abc059-8bd0-4a10-ae71-f41b9c18cfcc" d="M130.63,109.05a11.88,11.88,0,0,0,8.43-3.32,12.15,12.15,0,0,0,3.67-8.44,12.3,12.3,0,0,1-3.42,8.68,12.49,12.49,0,0,1-8.68,3.77Z"/><path class="aa1ad4a4-9d7f-4e8b-8823-c509c69f5d99" d="M62.33,60.17h0a15.37,15.37,0,0,0,3,9.08h0a15.52,15.52,0,0,0,7.72,5.61h0a15.43,15.43,0,0,0,9.55,0h0a15.46,15.46,0,0,0,7.72-5.61h0a15.51,15.51,0,0,0,3-9.08h0a15.37,15.37,0,0,0-3-9.08h0a15.42,15.42,0,0,0-7.81-5.61h0a15.43,15.43,0,0,0-9.55,0h0a15.38,15.38,0,0,0-7.72,5.61h0A15.33,15.33,0,0,0,62.33,60.17Z"/><path class="b8d07de7-cb78-4c76-90e0-88f5b8d63fd2" d="M63.63,60.17h0a14.07,14.07,0,0,0,2.7,8.3h0a14.1,14.1,0,0,0,7.06,5.1h0a14.15,14.15,0,0,0,8.73,0h0a14.18,14.18,0,0,0,7.06-5.13h0a14.14,14.14,0,0,0,2.7-8.3h0a14.14,14.14,0,0,0-2.7-8.3h0a14.1,14.1,0,0,0-7-5.18h0a14.15,14.15,0,0,0-8.73,0h0a14,14,0,0,0-7.06,5.14h0A14.09,14.09,0,0,0,63.63,60.17Z"/><path class="b529e157-fc32-4703-9ede-5cf84bcff46e" d="M65,60.28a13.25,13.25,0,0,1,18.91-12,13.24,13.24,0,0,0-13.4,22.84c.32.19.66.37,1,.53l.63.32A13.23,13.23,0,0,1,65,60.28Z"/><path class="a19397dc-2350-4634-ba42-cd581abaede9" d="M83.91,48.32A13.24,13.24,0,0,1,72.1,72,13.24,13.24,0,0,0,84.54,48.63Z"/><path class="b529e157-fc32-4703-9ede-5cf84bcff46e" d="M77.16,55.05H80V70.32H76.89V58L74,59.69l-1.23-2.31Z"/><path class="a2134c73-76fb-409f-9875-d538ca9e884f" d="M77,54.89h2.84V70.17H76.74V57.84l-2.85,1.64-1.23-2.3Z"/><g id="b39ac951-9e10-40af-a3c1-14433d9b95e1" data-name="a1c1c228-8757-42c5-8dbf-9130eed81e0d"><path class="aa1ad4a4-9d7f-4e8b-8823-c509c69f5d99" d="M77.74,51.27h-.23l-.29,1h-.45a1.77,1.77,0,0,1-.52-.08h0l1.41-4.45h.61a3.31,3.31,0,0,1,.63,0l1.44,4.5a1.12,1.12,0,0,1-.53.13.8.8,0,0,1-.48-.12,1,1,0,0,1-.25-.46L79,51.34H77.71Zm0-.84h1L78.63,50c-.11-.37-.23-.83-.37-1.38h0a11.4,11.4,0,0,1-.32,1.28Z"/></g><g id="b0d9e1cd-9b7b-4a95-b144-46057b2fbc57" data-name="fb5524b7-96be-4ba6-835c-9d6a005721bd"><path class="a2134c73-76fb-409f-9875-d538ca9e884f" d="M77.63,51.27h-.27l-.29,1h-.45a1.77,1.77,0,0,1-.52-.08h0l1.47-4.5h.61a3.31,3.31,0,0,1,.63,0l1.45,4.5a1.12,1.12,0,0,1-.53.13.75.75,0,0,1-.49-.12.86.86,0,0,1-.24-.46l-.13-.45H77.63Zm0-.84h1L78.51,50c-.11-.37-.23-.83-.37-1.38h0a11.4,11.4,0,0,1-.32,1.28Z"/></g><path class="fe1bab24-b86c-42ad-9f90-d7395ca246dd" d="M77.85,72.57a12.46,12.46,0,0,1-8.68-3.77,12.21,12.21,0,0,1-3.42-8.68,12,12,0,0,0,3.67,8.45,11.85,11.85,0,0,0,8.43,3.32Z"/><path class="f4abc059-8bd0-4a10-ae71-f41b9c18cfcc" d="M78.16,71.85a11.94,11.94,0,0,0,8.44-3.28,12.1,12.1,0,0,0,3.66-8.44,12.3,12.3,0,0,1-3.42,8.68,12.44,12.44,0,0,1-8.68,3.76Z"/></g></g></g></g></svg>