<svg xmlns="http://www.w3.org/2000/svg" viewBox="0 0 300 146.33"><defs><style>.cls-1{fill:#444;}.cls-2{fill:#fff;}.cls-3{fill:#222;}.cls-4{fill:red;}.cls-5{fill:#ffe600;}.cls-6{fill:#c0ecff;}</style></defs><title>auto 2</title><g id="Capa_2" data-name="Capa 2"><g id="Layer_2" data-name="Layer 2"><path class="cls-1" d="M31.3,58.37H268.7A31.3,31.3,0,0,1,300,89.67v0a34.56,34.56,0,0,1-34.56,34.56H34.56A34.56,34.56,0,0,1,0,89.67v0a31.3,31.3,0,0,1,31.3-31.3Z"/><path class="cls-1" d="M175.33,0l-116,1.51A20.36,20.36,0,0,0,41.83,12L11,67.52,237.8,65.69,196.27,10.3A25.79,25.79,0,0,0,175.33,0Z"/><circle class="cls-2" cx="58.99" cy="121.94" r="20.58"/><path class="cls-3" d="M59,146.33a24.4,24.4,0,1,1,24.4-24.39A24.42,24.42,0,0,1,59,146.33Zm0-41.16a16.77,16.77,0,1,0,16.77,16.77A16.78,16.78,0,0,0,59,105.17Z"/><circle class="cls-2" cx="225.46" cy="121.94" r="20.58"/><path class="cls-3" d="M225.46,146.33a24.4,24.4,0,1,1,24.39-24.39A24.42,24.42,0,0,1,225.46,146.33Zm0-41.16a16.77,16.77,0,1,0,16.76,16.77A16.79,16.79,0,0,0,225.46,105.17Z"/><path class="cls-4" d="M.08,83.94V74.09c6.7.09,12.32,3.16,12.32,9.85A12.38,12.38,0,0,1,.18,96.26Z"/><path class="cls-5" d="M300,74.83c0,6.57-6.86,6.86-11,2.75L277.13,65.69c-3.2-3.21.75-7.32,7.32-7.32C294.51,58.37,300,68.27,300,74.83Z"/><path class="cls-6" d="M32.83,58.37h82a2.21,2.21,0,0,0,2.21-2.21v-49H63a10.45,10.45,0,0,0-9.22,5.52L31,55.23A2.13,2.13,0,0,0,32.83,58.37Z"/><path class="cls-6" d="M169.3,7.15H124.39v48.7a2.52,2.52,0,0,0,2.52,2.52h85.53a1.57,1.57,0,0,0,1.19-2.59L182.74,13.33A17.72,17.72,0,0,0,169.3,7.15Z"/></g></g></svg>