<svg xmlns="http://www.w3.org/2000/svg" viewBox="0 0 278.12 140.52"><defs><style>.cls-1{fill:#9fc8d3;}.cls-2{fill:#bbedff;}.cls-3{fill:#a9d2db;}.cls-4{opacity:0.65;}.cls-5{fill:#fff;}.cls-6{opacity:0.5;}.cls-7{fill:#a01212;}.cls-8{fill:#1f8ebe;}</style></defs><title>2</title><g id="Capa_2" data-name="Capa 2"><g id="Capa_1-2" data-name="Capa 1"><path class="cls-1" d="M126.76,29c.2-14.25,122.25-31.68,144,.78C303.22,2.81,127.31-16.22,126.76,29Z"/><path class="cls-2" d="M114.8,79.21c-12.25,9-38.1,16.16-68.47,21.79,3.52,11.84,3,24.8.76,36.71,43.79-9.58,66.46-19.38,66.46-19.38Z"/><path class="cls-2" d="M117.09,84.57C128.19,68.32,231.33,100.83,275.31,67l-.4-36.93C229.3,66.26,90.38,25.65,71.14,63,72.71,77.85,116.63,68.63,117.09,84.57Z"/><path class="cls-2" d="M176.72,44.25V20.46s81.58-10.11,77.45,17.06C254.17,37.52,226.66,52.51,176.72,44.25Z"/><polygon class="cls-3" points="71.14 67 71.14 94.66 114.8 79.22 71.14 67"/><polygon class="cls-3" points="126.76 29.28 126.76 44.25 150.81 44.12 126.76 29.28"/><path class="cls-3" d="M173.9,44.12s-46.24-8.43-45.48-15.81,87.18-37.17,142.41.57c0,0-13.51,11.15-16.51,9.89s0-7,0-7-15.68-21.93-79-11.32l1.45,23.79Z"/><g class="cls-4"><path class="cls-5" d="M82.56,124.23a2,2,0,0,1-.47-4c.17,0,17.13-4.2,24.56-8a2,2,0,0,1,1.83,3.57c-7.85,4-24.72,8.17-25.44,8.34A2,2,0,0,1,82.56,124.23Z"/></g><g class="cls-4"><path class="cls-5" d="M71.73,127a2,2,0,0,1-.46-4l5-1.18a2,2,0,1,1,.93,3.9l-5,1.19A2.49,2.49,0,0,1,71.73,127Z"/></g><g class="cls-4"><path class="cls-5" d="M222,78.2a2,2,0,0,1,0-4c.23,0,22.91-.54,37.77-8a2,2,0,1,1,1.79,3.59C245.83,77.65,223,78.18,222,78.2Z"/></g><g class="cls-4"><path class="cls-5" d="M216,78.46h-5.06a2,2,0,1,1,0-4H216a2,2,0,1,1,0,4Z"/></g><g class="cls-6"><path class="cls-5" d="M87.42,80h-.06A27.59,27.59,0,0,1,77,77.64,2,2,0,0,1,76.12,75,2,2,0,0,1,78.8,74a24.27,24.27,0,0,0,8.69,1.9,2,2,0,0,1-.07,4Z"/></g><g class="cls-4"><path class="cls-5" d="M222.48,41.62a2,2,0,0,1-.25-4l9.36-1.17a2,2,0,1,1,.5,4l-9.36,1.17Z"/></g><path d="M176.72,46.66a1.61,1.61,0,0,1-1.61-1.6V20.92a2.58,2.58,0,0,1,2.28-2.56c2-.24,50-5.72,72.31,6.62a11,11,0,0,1,5.49,7.47,10.4,10.4,0,0,1-2,8.52,4.6,4.6,0,0,1-1.83,1.52,1.61,1.61,0,0,1-2.07-.94,1.59,1.59,0,0,1,.92-2.06h0a4.66,4.66,0,0,0,.46-.51,7.12,7.12,0,0,0,1.4-5.9,7.78,7.78,0,0,0-3.9-5.29c-17-9.36-51.59-8.4-69.83-6.31V45.06A1.6,1.6,0,0,1,176.72,46.66Z"/><path d="M47.08,140.52a2.81,2.81,0,0,1-.36-5.59c.49-.07,48-6.35,65.74-19.2V83.3c-14.15,6-26.25,9-54.59,16.1L47.37,102A2.81,2.81,0,0,1,46,96.59L56.51,94c30.59-7.66,42-10.52,57.61-17.5A2.8,2.8,0,0,1,118.07,79v38.11a2.8,2.8,0,0,1-1.06,2.19C99,133.68,49.54,140.22,47.45,140.5Z"/><path d="M71.14,94.81A2.8,2.8,0,0,1,68.34,92V63a2.8,2.8,0,0,1,5.28-1.31c3.28,6.19,12.79,7.3,22,8.37,8.77,1,17,2,21.73,7.09a2.81,2.81,0,0,1-4.14,3.8c-3.27-3.57-10.88-4.46-18.24-5.31S79.6,73.82,74,70.05V92A2.81,2.81,0,0,1,71.14,94.81Z"/><path d="M115.26,89.66a2.81,2.81,0,0,1-2.37-4.31c8-12.71,30.42-10.39,58.81-7.45,32.78,3.39,73.46,7.59,100.4-12.31V35.39c-25,15.24-67.29,14.15-108.27,13.08-41.78-1.09-81.24-2.11-90.18,15.76a2.81,2.81,0,1,1-5-2.51c10.53-21.06,49.83-20,95.35-18.86,40.59,1,86.61,2.24,109.23-15a2.78,2.78,0,0,1,2.94-.28,2.8,2.8,0,0,1,1.57,2.51V67a2.85,2.85,0,0,1-1.09,2.22C247.93,91.42,205.34,87,171.12,83.48c-25.4-2.62-47.33-4.89-53.48,4.87A2.81,2.81,0,0,1,115.26,89.66Z"/><path d="M200.1,48.94c-37.82,0-78-8.58-78-24.47S162.28,0,200.1,0s78,8.58,78,24.47S237.92,48.94,200.1,48.94Zm0-43.32c-44.86,0-72.4,11-72.4,18.85s27.54,18.85,72.4,18.85,72.4-11,72.4-18.85S245,5.62,200.1,5.62Z"/><path d="M124.89,46.93a2.81,2.81,0,0,1-2.81-2.81V24.87a2.81,2.81,0,1,1,5.62,0V44.12A2.81,2.81,0,0,1,124.89,46.93Z"/><path d="M199.5,48.93c-36.08,0-72.6-6.88-72.6-20S163.42,8.82,199.5,8.82s72.6,6.89,72.6,20.06S235.58,48.93,199.5,48.93Zm0-35.29c-42,0-67.79,8.87-67.79,15.24S157.5,44.12,199.5,44.12s67.79-8.88,67.79-15.24S241.5,13.64,199.5,13.64Z"/><path d="M59.05,108.15a1.61,1.61,0,0,1-1.6-1.61V97.72a1.61,1.61,0,1,1,3.21,0v8.82A1.61,1.61,0,0,1,59.05,108.15Z"/><path d="M81.49,102.43a1.6,1.6,0,0,1-1.6-1.6V92a1.61,1.61,0,0,1,3.21,0v8.83A1.61,1.61,0,0,1,81.49,102.43Z"/><path d="M102.09,97.28a1.6,1.6,0,0,1-1.6-1.6V86.85a1.61,1.61,0,0,1,3.21,0v8.83A1.61,1.61,0,0,1,102.09,97.28Z"/><path d="M96.26,59.17a1.6,1.6,0,0,1-1.6-1.6V48.74a1.61,1.61,0,0,1,3.21,0v8.83A1.61,1.61,0,0,1,96.26,59.17Z"/><path d="M125.58,57a1.6,1.6,0,0,1-1.6-1.61V46.53a1.6,1.6,0,1,1,3.2,0v8.82A1.6,1.6,0,0,1,125.58,57Z"/><path d="M153.91,57a1.61,1.61,0,0,1-1.6-1.61V46.53a1.61,1.61,0,1,1,3.21,0v8.82A1.61,1.61,0,0,1,153.91,57Z"/><path d="M182.33,57.89a1.61,1.61,0,0,1-1.6-1.61V47.46a1.61,1.61,0,1,1,3.21,0v8.82A1.61,1.61,0,0,1,182.33,57.89Z"/><path d="M140.18,30.89a1.61,1.61,0,0,1-1.61-1.61V20.46a1.61,1.61,0,1,1,3.21,0v8.82A1.61,1.61,0,0,1,140.18,30.89Z"/><path d="M152.09,27.26a1.6,1.6,0,0,1-1.6-1.61V16.83a1.6,1.6,0,1,1,3.2,0v8.82A1.6,1.6,0,0,1,152.09,27.26Z"/><path d="M162.69,24.52a1.61,1.61,0,0,1-1.61-1.6V14.09a1.61,1.61,0,0,1,3.21,0v8.83A1.6,1.6,0,0,1,162.69,24.52Z"/><path d="M171.74,22.85a1.61,1.61,0,0,1-1.61-1.61V12.42a1.61,1.61,0,1,1,3.21,0v8.82A1.6,1.6,0,0,1,171.74,22.85Z"/><path d="M182.33,30.89a1.61,1.61,0,0,1-1.6-1.61V20.46a1.61,1.61,0,1,1,3.21,0v8.82A1.61,1.61,0,0,1,182.33,30.89Z"/><path d="M193.87,29.92a1.61,1.61,0,0,1-1.61-1.61V19.49a1.61,1.61,0,1,1,3.21,0v8.82A1.61,1.61,0,0,1,193.87,29.92Z"/><path d="M217.21,30.48a1.6,1.6,0,0,1-1.61-1.6V20.06a1.61,1.61,0,1,1,3.21,0v8.82A1.6,1.6,0,0,1,217.21,30.48Z"/><path d="M205.54,29.17a1.38,1.38,0,0,1-1.38-1.38V19a1.38,1.38,0,1,1,2.76,0v8.82A1.38,1.38,0,0,1,205.54,29.17Z"/><path d="M228.45,31.67a1.6,1.6,0,0,1-1.6-1.6V21.24a1.61,1.61,0,0,1,3.21,0v8.83A1.61,1.61,0,0,1,228.45,31.67Z"/><path d="M239.34,33.35a1.61,1.61,0,0,1-1.61-1.61V22.92a1.61,1.61,0,1,1,3.21,0v8.82A1.61,1.61,0,0,1,239.34,33.35Z"/><path d="M249,36.89a1.6,1.6,0,0,1-1.6-1.6V26.46a1.6,1.6,0,0,1,3.2,0v8.83A1.6,1.6,0,0,1,249,36.89Z"/><path d="M210.92,57.89a1.6,1.6,0,0,1-1.6-1.61V47.46a1.6,1.6,0,1,1,3.2,0v8.82A1.6,1.6,0,0,1,210.92,57.89Z"/><path d="M239.34,54.68a1.61,1.61,0,0,1-1.61-1.6V44.25a1.61,1.61,0,0,1,3.21,0v8.83A1.6,1.6,0,0,1,239.34,54.68Z"/><path d="M267.17,46.66a1.61,1.61,0,0,1-1.61-1.6V36.23a1.61,1.61,0,0,1,3.21,0v8.83A1.6,1.6,0,0,1,267.17,46.66Z"/><path class="cls-7" d="M97.72,105.77a.47.47,0,0,1-.34-.13.44.44,0,0,1-.13-.33v-4.82l.11.16-.86.51a.39.39,0,0,1-.23.07.4.4,0,0,1-.33-.15.43.43,0,0,1-.13-.31.43.43,0,0,1,.23-.39l1.41-.85a.69.69,0,0,1,.34-.06.4.4,0,0,1,.31.13.48.48,0,0,1,.12.33v5.38a.45.45,0,0,1-.14.33A.48.48,0,0,1,97.72,105.77Z"/><path class="cls-7" d="M103.12,104.93a.41.41,0,0,1,.3.12.42.42,0,0,1,.13.31.35.35,0,0,1-.13.29.41.41,0,0,1-.3.12H100a.41.41,0,0,1-.31-.12.4.4,0,0,1-.12-.31.48.48,0,0,1,.13-.33l2-2.17a3.68,3.68,0,0,0,.59-.79,1.53,1.53,0,0,0,.22-.73,1.09,1.09,0,0,0-.54-1,1.2,1.2,0,0,0-.57-.14,1.16,1.16,0,0,0-.61.18,1.42,1.42,0,0,0-.5.53.42.42,0,0,1-.17.16.58.58,0,0,1-.18,0,.48.48,0,0,1-.31-.12.38.38,0,0,1-.14-.29.46.46,0,0,1,.08-.24,1.5,1.5,0,0,1,.21-.24,2.11,2.11,0,0,1,.76-.63,2.21,2.21,0,0,1,.91-.22,2.16,2.16,0,0,1,1.06.24,1.75,1.75,0,0,1,.68.67,2.08,2.08,0,0,1,.23,1,2.12,2.12,0,0,1-.13.73,3.78,3.78,0,0,1-.38.75,5.52,5.52,0,0,1-.59.75l-1.4,1.52-.1-.09Z"/><path class="cls-7" d="M106.36,105.86a1.92,1.92,0,0,1-1.54-.74,2.2,2.2,0,0,1-.41-.77,2.6,2.6,0,0,1-.14-.87,4.1,4.1,0,0,1,.08-.81,4.74,4.74,0,0,1,.27-1,4.27,4.27,0,0,1,.5-.94,3.73,3.73,0,0,1,.78-.81,3.11,3.11,0,0,1,1.09-.55l.18,0a.54.54,0,0,1,.31.09.38.38,0,0,1,.14.34.4.4,0,0,1-.1.28.62.62,0,0,1-.28.18,2.67,2.67,0,0,0-.66.32,3.3,3.3,0,0,0-.6.52,3.43,3.43,0,0,0-.47.66,2.58,2.58,0,0,0-.28.76l-.23,0a2.18,2.18,0,0,1,.35-.41,2,2,0,0,1,.49-.32,1.53,1.53,0,0,1,.66-.13,1.63,1.63,0,0,1,.71.16,2.1,2.1,0,0,1,.62.45,2.33,2.33,0,0,1,.43.67,2,2,0,0,1,.16.8,2.05,2.05,0,0,1-1,1.78A2,2,0,0,1,106.36,105.86Zm0-.84a1.19,1.19,0,0,0,.6-.15,1.24,1.24,0,0,0,.41-.44,1.33,1.33,0,0,0,.14-.63,1.42,1.42,0,0,0-.13-.63,1.17,1.17,0,0,0-.4-.45,1,1,0,0,0-.61-.17,1,1,0,0,0-.61.17,1.21,1.21,0,0,0-.42.45,1.35,1.35,0,0,0-.16.64,1.31,1.31,0,0,0,.15.61,1.18,1.18,0,0,0,.42.44A1.11,1.11,0,0,0,106.36,105Z"/><path class="cls-7" d="M148.73,65.74a.49.49,0,0,1-.34-.13.45.45,0,0,1-.14-.33V60.45l.12.17-.86.51a.42.42,0,0,1-.24.07.43.43,0,0,1-.33-.15.5.5,0,0,1-.13-.32.42.42,0,0,1,.24-.38l1.41-.85a.58.58,0,0,1,.33-.06.39.39,0,0,1,.31.13.45.45,0,0,1,.12.33v5.38a.44.44,0,0,1-.13.33A.57.57,0,0,1,148.73,65.74Z"/><path class="cls-7" d="M150.83,64.58a.44.44,0,0,1,.15,0,.5.5,0,0,1,.18.09,1.28,1.28,0,0,0,.39.24,1.47,1.47,0,0,0,.53.09,1.32,1.32,0,0,0,.62-.15,1.41,1.41,0,0,0,.46-.45,1.25,1.25,0,0,0,.18-.68,1.2,1.2,0,0,0-.17-.66,1.1,1.1,0,0,0-.44-.39,1.25,1.25,0,0,0-.57-.13,1.14,1.14,0,0,0-.28,0l-.22.06a.93.93,0,0,1-.24,0,.32.32,0,0,1-.27-.12.43.43,0,0,1-.1-.29.58.58,0,0,1,0-.19,1.36,1.36,0,0,1,.12-.17l1.67-1.84.2.18h-2.39a.41.41,0,0,1-.42-.42.4.4,0,0,1,.12-.29.44.44,0,0,1,.3-.11h2.85a.42.42,0,0,1,.35.13.46.46,0,0,1,.11.32.43.43,0,0,1,0,.19,1,1,0,0,1-.14.17l-1.66,1.84-.23-.24a.77.77,0,0,1,.24-.07,1.1,1.1,0,0,1,.28,0,1.68,1.68,0,0,1,.92.26,1.87,1.87,0,0,1,.64.7,2,2,0,0,1,.24,1,2.11,2.11,0,0,1-.3,1.14,2.05,2.05,0,0,1-.82.75,2.76,2.76,0,0,1-1.21.26,2.61,2.61,0,0,1-.69-.1,1.72,1.72,0,0,1-.58-.27.58.58,0,0,1-.21-.2.35.35,0,0,1-.05-.2.51.51,0,0,1,.12-.32A.42.42,0,0,1,150.83,64.58Z"/><path class="cls-7" d="M158.82,64.9a.42.42,0,1,1,0,.84h-3.16a.4.4,0,0,1-.31-.12.42.42,0,0,1-.12-.32.49.49,0,0,1,.12-.32l2-2.17A4.46,4.46,0,0,0,158,62a1.55,1.55,0,0,0,.21-.74,1.2,1.2,0,0,0-.14-.57,1.07,1.07,0,0,0-.4-.39,1.1,1.1,0,0,0-.57-.15,1.17,1.17,0,0,0-.6.19,1.42,1.42,0,0,0-.5.53.46.46,0,0,1-.17.15.39.39,0,0,1-.18,0,.48.48,0,0,1-.31-.12.34.34,0,0,1-.14-.28.35.35,0,0,1,.08-.24,2,2,0,0,1,.2-.25,2.22,2.22,0,0,1,.77-.62,2.06,2.06,0,0,1,.91-.22,2.21,2.21,0,0,1,1.06.24,1.73,1.73,0,0,1,.67.67,2,2,0,0,1,.24,1A2.14,2.14,0,0,1,159,62a3.72,3.72,0,0,1-.37.75,5.63,5.63,0,0,1-.6.75L156.59,65l-.1-.09Z"/><path class="cls-7" d="M236.46,64.22a.46.46,0,0,1-.48-.46V58.94l.12.16-.86.51a.45.45,0,0,1-.57-.07.52.52,0,0,1-.13-.32.44.44,0,0,1,.24-.39l1.41-.85a.81.81,0,0,1,.33-.06.39.39,0,0,1,.31.13.48.48,0,0,1,.12.33v5.38a.42.42,0,0,1-.14.33A.48.48,0,0,1,236.46,64.22Z"/><path class="cls-7" d="M238.56,63.07l.15,0a.85.85,0,0,1,.18.1,1.49,1.49,0,0,0,.39.23,1.25,1.25,0,0,0,.53.1,1.18,1.18,0,0,0,.61-.16,1.24,1.24,0,0,0,.47-.44,1.29,1.29,0,0,0,.18-.69,1.2,1.2,0,0,0-.17-.66,1.1,1.1,0,0,0-.44-.39,1.4,1.4,0,0,0-.57-.13,1.14,1.14,0,0,0-.28,0l-.23.07a.85.85,0,0,1-.23,0,.32.32,0,0,1-.27-.12.44.44,0,0,1-.1-.3.48.48,0,0,1,0-.18.66.66,0,0,1,.12-.17l1.67-1.84.2.18h-2.39a.41.41,0,0,1-.42-.42.38.38,0,0,1,.12-.29.41.41,0,0,1,.3-.12h2.85a.42.42,0,0,1,.35.14.44.44,0,0,1,.11.31.32.32,0,0,1,0,.19.52.52,0,0,1-.13.17l-1.66,1.85-.24-.25.25-.07a1.7,1.7,0,0,1,.28,0,1.63,1.63,0,0,1,.92.27,1.77,1.77,0,0,1,.64.69,2,2,0,0,1,.24,1,2.11,2.11,0,0,1-.3,1.14,2,2,0,0,1-.82.74,2.76,2.76,0,0,1-1.21.26,2.61,2.61,0,0,1-.69-.09,2,2,0,0,1-.58-.28.5.5,0,0,1-.21-.19.39.39,0,0,1,0-.2.52.52,0,0,1,.12-.33A.41.41,0,0,1,238.56,63.07Z"/><path class="cls-7" d="M244.46,64.28a2.6,2.6,0,0,1-.72-.1,1.85,1.85,0,0,1-.64-.33.47.47,0,0,1-.15-.21.53.53,0,0,1-.06-.24.39.39,0,0,1,.12-.25.4.4,0,0,1,.31-.12.59.59,0,0,1,.33.15l.38.2a1.25,1.25,0,0,0,.42.08,1.65,1.65,0,0,0,.77-.18,1.47,1.47,0,0,0,.55-.5,1.26,1.26,0,0,0,.2-.7,1.16,1.16,0,0,0-.17-.66,1.12,1.12,0,0,0-.46-.43,1.54,1.54,0,0,0-1.18-.06l-.41.19a.68.68,0,0,1-.32.09.52.52,0,0,1-.35-.1.44.44,0,0,1-.15-.25.68.68,0,0,1,0-.28l.32-2.3a.46.46,0,0,1,.15-.26.49.49,0,0,1,.3-.1h2.63a.43.43,0,0,1,.31.12.43.43,0,0,1,0,.6.43.43,0,0,1-.31.12H243.9l.1-.08-.29,2-.13-.27a.78.78,0,0,1,.27-.18,2.53,2.53,0,0,1,.44-.14,2.26,2.26,0,0,1,1.57.2,2,2,0,0,1,.74.74,2.06,2.06,0,0,1,.27,1.06,2,2,0,0,1-.19.87,2.14,2.14,0,0,1-.52.71,2.42,2.42,0,0,1-.77.47A2.6,2.6,0,0,1,244.46,64.28Z"/><polygon class="cls-8" points="47.87 80.83 28.68 69.75 28.68 74.74 0 74.74 0 86.93 28.68 86.93 28.68 91.92 47.87 80.83"/><path d="M54.57,118.14a.46.46,0,0,1-.34-.14.42.42,0,0,1-.14-.32v-4.83l.12.16-.86.52a.42.42,0,0,1-.24.07.43.43,0,0,1-.33-.15.5.5,0,0,1-.13-.32.42.42,0,0,1,.24-.38l1.41-.85a.58.58,0,0,1,.33-.06.39.39,0,0,1,.31.13.44.44,0,0,1,.13.32v5.39a.42.42,0,0,1-.14.32A.52.52,0,0,1,54.57,118.14Z"/><path d="M60,117.3a.42.42,0,1,1,0,.84H56.81a.4.4,0,0,1-.31-.12.42.42,0,0,1-.12-.32.45.45,0,0,1,.13-.32l2-2.17a4.46,4.46,0,0,0,.6-.79,1.55,1.55,0,0,0,.21-.74,1.15,1.15,0,0,0-.14-.57,1,1,0,0,0-.4-.39,1.1,1.1,0,0,0-.57-.15,1.17,1.17,0,0,0-.6.19,1.42,1.42,0,0,0-.5.53.46.46,0,0,1-.17.15.39.39,0,0,1-.18,0,.48.48,0,0,1-.31-.12.37.37,0,0,1-.14-.28.39.39,0,0,1,.08-.25c0-.07.12-.15.2-.24a2.22,2.22,0,0,1,.77-.62,2.06,2.06,0,0,1,.91-.22,2.18,2.18,0,0,1,1.06.24,1.66,1.66,0,0,1,.67.67,2,2,0,0,1,.24,1,2.12,2.12,0,0,1-.13.73,3.78,3.78,0,0,1-.38.75,4.93,4.93,0,0,1-.6.75l-1.39,1.52-.1-.09Z"/><path d="M64.69,118.14a.43.43,0,0,1-.32-.14.44.44,0,0,1-.12-.32V113.1l.16.05-1.95,2.48,0-.11h3.17a.43.43,0,0,1,.31.12.41.41,0,0,1,.12.3.4.4,0,0,1-.12.29.42.42,0,0,1-.31.11H61.8a.45.45,0,0,1-.31-.13.38.38,0,0,1-.14-.31.48.48,0,0,1,.11-.3L64.33,112a.36.36,0,0,1,.16-.14.45.45,0,0,1,.2,0A.43.43,0,0,1,65,112a.44.44,0,0,1,.12.32v5.39A.41.41,0,0,1,65,118,.45.45,0,0,1,64.69,118.14Z"/></g></g></svg>