<svg xmlns="http://www.w3.org/2000/svg" viewBox="0 0 278.12 140.52"><defs><style>.cls-1{fill:#9fc8d3;}.cls-2{fill:#bbedff;}.cls-3{fill:#a9d2db;}.cls-4{opacity:0.65;}.cls-5{fill:#fff;}.cls-6{opacity:0.5;}.cls-7{fill:#a01212;}.cls-8{fill:#1f8ebe;}</style></defs><title>3</title><g id="Capa_2" data-name="Capa 2"><g id="Capa_1-2" data-name="Capa 1"><path class="cls-1" d="M126.76,29c.2-14.25,122.25-31.68,144,.78C303.22,2.81,127.31-16.22,126.76,29Z"/><path class="cls-2" d="M114.8,79.22c-12.25,9-38.1,16.15-68.47,21.78,3.52,11.84,3,24.8.76,36.71,43.79-9.58,66.46-19.38,66.46-19.38Z"/><path class="cls-2" d="M117.09,84.57C128.19,68.32,231.33,100.83,275.31,67l-.4-36.93C229.3,66.26,90.38,25.65,71.14,63,72.71,77.85,116.63,68.63,117.09,84.57Z"/><path class="cls-2" d="M176.72,44.25V20.46s81.58-10.11,77.45,17.06C254.17,37.52,226.66,52.51,176.72,44.25Z"/><polygon class="cls-3" points="71.14 67.01 71.14 94.67 114.8 79.22 71.14 67.01"/><polygon class="cls-3" points="126.76 29.28 126.76 44.25 150.81 44.12 126.76 29.28"/><path class="cls-3" d="M173.9,44.12s-46.24-8.43-45.48-15.81,87.18-37.17,142.41.57c0,0-13.51,11.15-16.51,9.89s0-7,0-7-15.68-21.93-79-11.32l1.45,23.79Z"/><g class="cls-4"><path class="cls-5" d="M82.56,124.23a2,2,0,0,1-.47-4c.17,0,17.13-4.2,24.56-8a2,2,0,0,1,1.83,3.57c-7.85,4-24.72,8.17-25.44,8.34A2,2,0,0,1,82.56,124.23Z"/></g><g class="cls-4"><path class="cls-5" d="M71.73,127a2,2,0,0,1-.46-4l5-1.18a2,2,0,1,1,.93,3.9l-5,1.19A2.49,2.49,0,0,1,71.73,127Z"/></g><g class="cls-4"><path class="cls-5" d="M222,78.2a2,2,0,0,1,0-4c.23,0,22.91-.54,37.77-8a2,2,0,1,1,1.79,3.59C245.83,77.65,223,78.18,222,78.2Z"/></g><g class="cls-4"><path class="cls-5" d="M216,78.46h-5.06a2,2,0,1,1,0-4H216a2,2,0,1,1,0,4Z"/></g><g class="cls-6"><path class="cls-5" d="M87.42,80h-.06A27.59,27.59,0,0,1,77,77.64,2,2,0,0,1,76.12,75,2,2,0,0,1,78.8,74a23.93,23.93,0,0,0,8.69,1.9,2,2,0,0,1-.07,4Z"/></g><g class="cls-4"><path class="cls-5" d="M222.48,41.62a2,2,0,0,1-.25-4l9.36-1.17a2,2,0,1,1,.5,4l-9.36,1.17Z"/></g><path d="M176.72,46.66a1.6,1.6,0,0,1-1.61-1.6V20.93a2.58,2.58,0,0,1,2.28-2.57c2-.24,50-5.72,72.31,6.62a11,11,0,0,1,5.49,7.47,10.4,10.4,0,0,1-2,8.52,4.6,4.6,0,0,1-1.83,1.52,1.61,1.61,0,0,1-2.07-.94,1.59,1.59,0,0,1,.92-2.06h0a4.66,4.66,0,0,0,.46-.51,7.12,7.12,0,0,0,1.4-5.9,7.8,7.8,0,0,0-3.9-5.29c-17-9.36-51.59-8.4-69.83-6.31V45.06A1.6,1.6,0,0,1,176.72,46.66Z"/><path d="M47.08,140.52a2.81,2.81,0,0,1-.36-5.59c.49-.07,48-6.35,65.74-19.2V83.31c-14.15,6-26.23,9-54.56,16.09L47.37,102A2.81,2.81,0,0,1,46,96.59L56.54,94c30.57-7.65,42-10.51,57.58-17.49A2.8,2.8,0,0,1,118.07,79v38.11a2.8,2.8,0,0,1-1.06,2.19C99,133.68,49.54,140.22,47.45,140.5Z"/><path d="M71.14,94.81A2.8,2.8,0,0,1,68.34,92V63a2.8,2.8,0,0,1,5.28-1.31c3.28,6.19,12.79,7.3,22,8.37,8.77,1,17,2,21.73,7.09a2.81,2.81,0,0,1-4.14,3.8c-3.27-3.57-10.88-4.46-18.24-5.31S79.6,73.82,74,70.05V92A2.81,2.81,0,0,1,71.14,94.81Z"/><path d="M115.26,89.66a2.8,2.8,0,0,1-2.37-4.3c8-12.71,30.42-10.4,58.81-7.46,32.78,3.39,73.46,7.59,100.4-12.31V35.39c-25,15.24-67.29,14.15-108.27,13.08-41.78-1.08-81.24-2.11-90.18,15.76a2.81,2.81,0,1,1-5-2.51c10.53-21.06,49.83-20,95.35-18.86,40.59,1,86.61,2.24,109.23-15a2.78,2.78,0,0,1,2.94-.28,2.8,2.8,0,0,1,1.57,2.51V67a2.84,2.84,0,0,1-1.09,2.22C247.93,91.43,205.34,87,171.13,83.48c-25.41-2.62-47.34-4.89-53.49,4.87A2.79,2.79,0,0,1,115.26,89.66Z"/><path d="M200.1,48.94c-37.82,0-78-8.58-78-24.47S162.28,0,200.1,0s78,8.58,78,24.47S237.92,48.94,200.1,48.94Zm0-43.32c-44.86,0-72.4,11-72.4,18.85s27.54,18.85,72.4,18.85,72.4-11,72.4-18.85S245,5.62,200.1,5.62Z"/><path d="M124.89,46.93a2.81,2.81,0,0,1-2.81-2.81V24.87a2.81,2.81,0,1,1,5.62,0V44.12A2.81,2.81,0,0,1,124.89,46.93Z"/><path d="M199.5,48.94c-36.08,0-72.6-6.89-72.6-20.06s36.52-20,72.6-20,72.6,6.88,72.6,20S235.58,48.94,199.5,48.94Zm0-35.3c-42,0-67.79,8.88-67.79,15.24S157.5,44.12,199.5,44.12s67.79-8.87,67.79-15.24S241.5,13.64,199.5,13.64Z"/><path d="M59.05,108.15a1.61,1.61,0,0,1-1.6-1.61V97.72a1.61,1.61,0,0,1,3.21,0v8.82A1.61,1.61,0,0,1,59.05,108.15Z"/><path d="M81.49,102.43a1.6,1.6,0,0,1-1.6-1.6V92a1.61,1.61,0,0,1,3.21,0v8.83A1.61,1.61,0,0,1,81.49,102.43Z"/><path d="M102.09,97.28a1.6,1.6,0,0,1-1.6-1.6V86.85a1.61,1.61,0,0,1,3.21,0v8.83A1.61,1.61,0,0,1,102.09,97.28Z"/><path d="M96.26,59.17a1.6,1.6,0,0,1-1.6-1.6V48.74a1.61,1.61,0,0,1,3.21,0v8.83A1.61,1.61,0,0,1,96.26,59.17Z"/><path d="M125.58,57a1.6,1.6,0,0,1-1.6-1.61V46.53a1.6,1.6,0,1,1,3.2,0v8.82A1.6,1.6,0,0,1,125.58,57Z"/><path d="M153.91,57a1.61,1.61,0,0,1-1.6-1.61V46.53a1.61,1.61,0,1,1,3.21,0v8.82A1.61,1.61,0,0,1,153.91,57Z"/><path d="M182.33,57.89a1.61,1.61,0,0,1-1.6-1.61V47.46a1.61,1.61,0,1,1,3.21,0v8.82A1.61,1.61,0,0,1,182.33,57.89Z"/><path d="M140.18,30.89a1.61,1.61,0,0,1-1.61-1.61V20.46a1.61,1.61,0,1,1,3.21,0v8.82A1.61,1.61,0,0,1,140.18,30.89Z"/><path d="M152.09,27.26a1.6,1.6,0,0,1-1.6-1.61V16.83a1.6,1.6,0,1,1,3.2,0v8.82A1.6,1.6,0,0,1,152.09,27.26Z"/><path d="M162.69,24.52a1.61,1.61,0,0,1-1.61-1.6V14.09a1.61,1.61,0,0,1,3.21,0v8.83A1.6,1.6,0,0,1,162.69,24.52Z"/><path d="M171.74,22.85a1.61,1.61,0,0,1-1.61-1.61V12.42a1.61,1.61,0,1,1,3.21,0v8.82A1.6,1.6,0,0,1,171.74,22.85Z"/><path d="M182.33,30.89a1.61,1.61,0,0,1-1.6-1.61V20.46a1.61,1.61,0,1,1,3.21,0v8.82A1.61,1.61,0,0,1,182.33,30.89Z"/><path d="M193.87,29.92a1.61,1.61,0,0,1-1.61-1.61V19.49a1.61,1.61,0,1,1,3.21,0v8.82A1.61,1.61,0,0,1,193.87,29.92Z"/><path d="M217.21,30.48a1.6,1.6,0,0,1-1.61-1.6V20.06a1.61,1.61,0,1,1,3.21,0v8.82A1.6,1.6,0,0,1,217.21,30.48Z"/><path d="M205.54,29.17a1.38,1.38,0,0,1-1.38-1.38V19a1.38,1.38,0,1,1,2.76,0v8.82A1.38,1.38,0,0,1,205.54,29.17Z"/><path d="M228.45,31.67a1.6,1.6,0,0,1-1.6-1.6V21.24a1.61,1.61,0,0,1,3.21,0v8.83A1.61,1.61,0,0,1,228.45,31.67Z"/><path d="M239.34,33.35a1.61,1.61,0,0,1-1.61-1.61V22.92a1.61,1.61,0,1,1,3.21,0v8.82A1.61,1.61,0,0,1,239.34,33.35Z"/><path d="M249,36.89a1.6,1.6,0,0,1-1.6-1.6V26.46a1.6,1.6,0,0,1,3.2,0v8.83A1.6,1.6,0,0,1,249,36.89Z"/><path d="M210.92,57.89a1.6,1.6,0,0,1-1.6-1.61V47.46a1.6,1.6,0,1,1,3.2,0v8.82A1.6,1.6,0,0,1,210.92,57.89Z"/><path d="M239.34,54.68a1.61,1.61,0,0,1-1.61-1.6V44.25a1.61,1.61,0,0,1,3.21,0v8.83A1.6,1.6,0,0,1,239.34,54.68Z"/><path d="M267.17,46.66a1.6,1.6,0,0,1-1.61-1.6V36.23a1.61,1.61,0,0,1,3.21,0v8.83A1.6,1.6,0,0,1,267.17,46.66Z"/><path class="cls-7" d="M97.72,105.77a.47.47,0,0,1-.34-.13.44.44,0,0,1-.13-.33v-4.82l.11.16-.86.51a.39.39,0,0,1-.23.07.42.42,0,0,1-.33-.14.47.47,0,0,1-.13-.32.43.43,0,0,1,.23-.39l1.41-.85a.69.69,0,0,1,.34-.06.4.4,0,0,1,.31.13.48.48,0,0,1,.12.33v5.38a.45.45,0,0,1-.14.33A.48.48,0,0,1,97.72,105.77Z"/><path class="cls-7" d="M99.82,104.62l.15,0a.85.85,0,0,1,.18.1,1.4,1.4,0,0,0,.4.23,1.21,1.21,0,0,0,.52.1,1.26,1.26,0,0,0,1.08-.6,1.29,1.29,0,0,0,.18-.69,1.2,1.2,0,0,0-.16-.66,1.13,1.13,0,0,0-.45-.39,1.4,1.4,0,0,0-.57-.13,1.2,1.2,0,0,0-.28,0l-.22.07a.88.88,0,0,1-.24,0,.32.32,0,0,1-.27-.12.49.49,0,0,1-.09-.3.34.34,0,0,1,0-.18.47.47,0,0,1,.12-.18l1.66-1.83.2.18H99.69a.43.43,0,0,1-.31-.12.41.41,0,0,1-.12-.3.38.38,0,0,1,.12-.29.43.43,0,0,1,.31-.12h2.84a.42.42,0,0,1,.35.14.45.45,0,0,1,.12.31.41.41,0,0,1,0,.19.7.7,0,0,1-.13.17l-1.67,1.85-.23-.25a1.15,1.15,0,0,1,.25-.07,1.76,1.76,0,0,1,.27,0,1.64,1.64,0,0,1,.93.27,1.85,1.85,0,0,1,.64.69,2.28,2.28,0,0,1-.07,2.13,1.9,1.9,0,0,1-.82.74,2.73,2.73,0,0,1-1.21.26,2.59,2.59,0,0,1-.68-.09,2,2,0,0,1-.59-.28.56.56,0,0,1-.21-.19.53.53,0,0,1-.05-.2.48.48,0,0,1,.13-.33A.37.37,0,0,1,99.82,104.62Z"/><path class="cls-7" d="M105.4,105.81a.44.44,0,0,1-.32-.13.4.4,0,0,1-.14-.31.53.53,0,0,1,0-.2l2.26-5.07.1.2H104.6a.41.41,0,0,1-.42-.42.38.38,0,0,1,.12-.29.41.41,0,0,1,.3-.12h3.2a.48.48,0,0,1,.33.12.42.42,0,0,1,.14.32.48.48,0,0,1,0,.2l-2.41,5.41a.39.39,0,0,1-.17.21A.46.46,0,0,1,105.4,105.81Z"/><path class="cls-7" d="M148.73,65.74a.49.49,0,0,1-.34-.13.45.45,0,0,1-.14-.33V60.45l.12.17-.86.51a.42.42,0,0,1-.24.07.43.43,0,0,1-.33-.15.5.5,0,0,1-.13-.32.42.42,0,0,1,.24-.38l1.41-.85a.58.58,0,0,1,.33-.06.39.39,0,0,1,.31.13.45.45,0,0,1,.12.33v5.38a.44.44,0,0,1-.13.33A.57.57,0,0,1,148.73,65.74Z"/><path class="cls-7" d="M153.93,65.74a.44.44,0,0,1-.31-.13.44.44,0,0,1-.13-.33V60.7l.16,0-1.94,2.49-.05-.12h3.18a.41.41,0,0,1,.42.42.38.38,0,0,1-.12.29.41.41,0,0,1-.3.12H151a.47.47,0,0,1-.3-.13.41.41,0,0,1-.15-.32.44.44,0,0,1,.12-.3l2.86-3.58a.43.43,0,0,1,.16-.14.52.52,0,0,1,.21,0,.43.43,0,0,1,.45.46v5.38a.44.44,0,0,1-.13.33A.49.49,0,0,1,153.93,65.74Z"/><path class="cls-7" d="M156.74,64.58a.4.4,0,0,1,.15,0,.5.5,0,0,1,.18.09,1.28,1.28,0,0,0,.39.24,1.47,1.47,0,0,0,.53.1,1.24,1.24,0,0,0,1.08-.61,1.25,1.25,0,0,0,.18-.68,1.12,1.12,0,0,0-.17-.66,1,1,0,0,0-.44-.39,1.25,1.25,0,0,0-.57-.13,1.14,1.14,0,0,0-.28,0l-.22.06a.86.86,0,0,1-.24,0,.32.32,0,0,1-.27-.13.46.46,0,0,1-.1-.29.41.41,0,0,1,0-.19.53.53,0,0,1,.12-.17l1.66-1.84.2.18H156.6a.41.41,0,0,1-.42-.42.4.4,0,0,1,.12-.29.44.44,0,0,1,.3-.11h2.85a.42.42,0,0,1,.35.13.47.47,0,0,1,.12.32.45.45,0,0,1,0,.19l-.13.17-1.67,1.84-.23-.24a1.15,1.15,0,0,1,.25-.07,1,1,0,0,1,.27,0,1.71,1.71,0,0,1,.93.26,2,2,0,0,1,.64.7,2.13,2.13,0,0,1,.23,1,2.1,2.1,0,0,1-.3,1.13,2.05,2.05,0,0,1-.82.75,2.73,2.73,0,0,1-1.21.26,2.3,2.3,0,0,1-.69-.1,1.82,1.82,0,0,1-.58-.27.58.58,0,0,1-.21-.2.46.46,0,0,1,0-.2.51.51,0,0,1,.12-.32A.42.42,0,0,1,156.74,64.58Z"/><path class="cls-7" d="M236.46,64.22a.46.46,0,0,1-.48-.46V58.94l.12.16-.86.51a.42.42,0,0,1-.57-.07.52.52,0,0,1-.13-.32.45.45,0,0,1,.24-.39l1.41-.85a.81.81,0,0,1,.33-.06.39.39,0,0,1,.31.13.48.48,0,0,1,.12.33v5.38a.42.42,0,0,1-.14.33A.48.48,0,0,1,236.46,64.22Z"/><path class="cls-7" d="M241.66,64.22a.4.4,0,0,1-.31-.13.44.44,0,0,1-.13-.33V59.18l.16.06-1.94,2.48-.05-.12h3.18a.41.41,0,0,1,.3.12A.43.43,0,0,1,243,62a.36.36,0,0,1-.12.28.41.41,0,0,1-.3.12h-3.8a.41.41,0,0,1-.3-.13.4.4,0,0,1-.15-.31.47.47,0,0,1,.12-.31l2.86-3.58a.4.4,0,0,1,.16-.13.54.54,0,0,1,.21,0,.41.41,0,0,1,.32.13.44.44,0,0,1,.13.33v5.38a.44.44,0,0,1-.46.46Z"/><path class="cls-7" d="M246.1,64.31a1.85,1.85,0,0,1-.89-.2,1.92,1.92,0,0,1-.66-.54,2.28,2.28,0,0,1-.41-.77,2.83,2.83,0,0,1-.14-.87,5,5,0,0,1,.08-.81,6.12,6.12,0,0,1,.27-.94,4.52,4.52,0,0,1,.51-.94,3.72,3.72,0,0,1,.77-.82,3.16,3.16,0,0,1,1.1-.55l.18,0a.56.56,0,0,1,.31.09.4.4,0,0,1,.14.34.51.51,0,0,1-.1.29.56.56,0,0,1-.29.17,2.55,2.55,0,0,0-.66.33,3.13,3.13,0,0,0-.59.51,3.48,3.48,0,0,0-.48.66A3,3,0,0,0,245,61l-.22,0a2,2,0,0,1,.84-.73,1.51,1.51,0,0,1,.65-.13,1.8,1.8,0,0,1,.72.16,2.23,2.23,0,0,1,.62.45,2.48,2.48,0,0,1,.43.67,2.15,2.15,0,0,1,.16.8,2.11,2.11,0,0,1-1,1.78A2,2,0,0,1,246.1,64.31Zm0-.84a1.15,1.15,0,0,0,.59-.15,1.09,1.09,0,0,0,.41-.44,1.33,1.33,0,0,0,.15-.63,1.46,1.46,0,0,0-.14-.63,1,1,0,0,0-.4-.45,1.08,1.08,0,0,0-.6-.17,1.15,1.15,0,0,0-.62.17,1.17,1.17,0,0,0-.42.46,1.3,1.3,0,0,0-.15.63,1.28,1.28,0,0,0,.15.61,1.09,1.09,0,0,0,.41.44A1.15,1.15,0,0,0,246.1,63.47Z"/><polygon class="cls-8" points="47.87 80.83 28.68 69.75 28.68 74.74 0 74.74 0 86.93 28.68 86.93 28.68 91.92 47.87 80.83"/><path d="M54.57,118.13a.45.45,0,0,1-.34-.13.42.42,0,0,1-.14-.32v-4.83l.12.16-.86.52a.42.42,0,0,1-.24.07.43.43,0,0,1-.33-.15.5.5,0,0,1-.13-.32.45.45,0,0,1,.24-.39l1.41-.84a.67.67,0,0,1,.33-.07.42.42,0,0,1,.31.13.49.49,0,0,1,.13.33v5.39a.42.42,0,0,1-.14.32A.52.52,0,0,1,54.57,118.13Z"/><path d="M56.67,117l.15,0a.85.85,0,0,1,.18.1,1.28,1.28,0,0,0,.39.24,1.47,1.47,0,0,0,.53.09,1.32,1.32,0,0,0,.62-.15,1.41,1.41,0,0,0,.46-.45,1.39,1.39,0,0,0,0-1.35,1,1,0,0,0-.44-.38A1.25,1.25,0,0,0,58,115a1.14,1.14,0,0,0-.28,0l-.22.06a1,1,0,0,1-.24,0A.32.32,0,0,1,57,115a.43.43,0,0,1-.1-.29.53.53,0,0,1,0-.19,1.36,1.36,0,0,1,.12-.17l1.67-1.84.2.18H56.53a.41.41,0,0,1-.42-.42.4.4,0,0,1,.12-.29.41.41,0,0,1,.3-.12h2.85a.42.42,0,0,1,.35.14.46.46,0,0,1,.11.32.39.39,0,0,1,0,.18.75.75,0,0,1-.14.17L58,114.49l-.23-.24a1.1,1.1,0,0,1,.24-.08l.28,0a1.7,1.7,0,0,1,.92.26,1.8,1.8,0,0,1,.64.7,2,2,0,0,1,.24,1,2.11,2.11,0,0,1-.3,1.14A2,2,0,0,1,59,118a2.85,2.85,0,0,1-1.9.17,1.82,1.82,0,0,1-.58-.27.51.51,0,0,1-.21-.2.37.37,0,0,1-.05-.2.51.51,0,0,1,.12-.32A.39.39,0,0,1,56.67,117Z"/><path d="M62.57,118.2a2.68,2.68,0,0,1-.72-.11,1.83,1.83,0,0,1-.64-.32.62.62,0,0,1-.15-.21.57.57,0,0,1-.05-.24.34.34,0,0,1,.11-.25.4.4,0,0,1,.31-.12.64.64,0,0,1,.33.14,2.75,2.75,0,0,0,.38.2,1.25,1.25,0,0,0,.42.08,1.65,1.65,0,0,0,.77-.18,1.4,1.4,0,0,0,.55-.5,1.22,1.22,0,0,0,.2-.7,1.16,1.16,0,0,0-.17-.66,1.27,1.27,0,0,0-.46-.43,1.41,1.41,0,0,0-.65-.15,1.25,1.25,0,0,0-.53.1l-.41.18a.61.61,0,0,1-.67,0,.46.46,0,0,1-.15-.26.86.86,0,0,1,0-.27l.32-2.31a.44.44,0,0,1,.15-.25.44.44,0,0,1,.3-.11h2.63a.42.42,0,0,1,.31.13.41.41,0,0,1,.12.3.37.37,0,0,1-.12.29.41.41,0,0,1-.31.12H62l.1-.08-.29,2-.13-.27a.74.74,0,0,1,.27-.17,2.52,2.52,0,0,1,.44-.15,2.2,2.2,0,0,1,.5-.06,2.1,2.1,0,0,1,1.07.27,1.92,1.92,0,0,1,.74.73A2.09,2.09,0,0,1,65,116a2,2,0,0,1-.19.88,2.1,2.1,0,0,1-.52.7,2.42,2.42,0,0,1-.77.47A2.6,2.6,0,0,1,62.57,118.2Z"/></g></g></svg>