<svg xmlns="http://www.w3.org/2000/svg" viewBox="0 0 14.4 29"><defs><style>.cls-1{fill:#1f8ebe;}</style></defs><title>Fi (6)</title><g id="Capa_2" data-name="Capa 2"><g id="Numeracion"><g id="Fi"><g id="Fi-2" data-name="Fi"><path class="cls-1" d="M14.4,14.93a7.25,7.25,0,0,1-2.19,5.15,7.12,7.12,0,0,1-10,0A7.2,7.2,0,1,1,12.24,9.76,7.32,7.32,0,0,1,14.4,14.93Zm-1.4,0a7.43,7.43,0,0,0-1.5-4.51A5.46,5.46,0,0,0,7.2,8.23a5.48,5.48,0,0,0-4.31,2.19A7.42,7.42,0,0,0,1.4,14.93a7.46,7.46,0,0,0,1.46,4.55A5.51,5.51,0,0,0,7.2,21.7a5.49,5.49,0,0,0,4.33-2.22A7.47,7.47,0,0,0,13,14.93Z"/><rect class="cls-1" x="6.7" width="0.99" height="29"/></g></g></g></g></svg>