<svg xmlns="http://www.w3.org/2000/svg" viewBox="0 0 42.87 53.75"><defs><style>.cls-1{fill:none;stroke:#1f8ebe;stroke-miterlimit:10;}</style></defs><title>N_Racionales (6)</title><g id="Capa_2" data-name="Capa 2"><g id="Numeracion"><g id="N_Racionales"><g id="N_Racionales-2" data-name="N_Racionales"><path class="cls-1" d="M40.52,53.15c-6.11-1.61-12.08-3.43-17.32-5.24a8.55,8.55,0,0,0-2.76-.67C9.7,46.84.5,38.91.5,24.34S9.36.5,21.59.5,41.87,10,41.87,23.4C41.87,35,36.49,42.47,29,45.09v.27c4.5,1.14,9.41,2.21,13.23,2.89ZM35.69,23.67c0-9.07-4.7-18.4-14.31-18.4-9.87,0-14.7,9.13-14.63,18.94C6.68,33.81,12,42.47,21.12,42.47,30.45,42.47,35.69,34,35.69,23.67Z"/></g></g></g></g></svg>