<svg xmlns="http://www.w3.org/2000/svg" viewBox="0 0 101.86 119.37"><defs><style>.cls-1{fill:#f85823;}.cls-2{fill:#a94044;}.cls-3{fill:#f35a27;}</style></defs><title>Recurso 58</title><g id="Capa_2" data-name="Capa 2"><g id="Capa_1-2" data-name="Capa 1"><path class="cls-1" d="M89,119.37H12.85A12.87,12.87,0,0,1,0,106.52V12.85A12.87,12.87,0,0,1,12.85,0H89a12.87,12.87,0,0,1,12.85,12.85v93.67A12.87,12.87,0,0,1,89,119.37ZM12.85,1.3A11.56,11.56,0,0,0,1.3,12.85v93.67a11.56,11.56,0,0,0,11.55,11.55H89a11.56,11.56,0,0,0,11.55-11.55V12.85A11.56,11.56,0,0,0,89,1.3Z"/><path class="cls-2" d="M65.56,50.9H36.3a6.18,6.18,0,1,1,0-12.36H65.56a6.18,6.18,0,0,1,0,12.36ZM36.3,39.05a5.68,5.68,0,0,0,0,11.35H65.56a5.68,5.68,0,1,0,0-11.35Z"/><path class="cls-2" d="M65.56,65.87H36.3a6.19,6.19,0,0,1,0-12.37H65.56a6.19,6.19,0,0,1,0,12.37ZM36.3,54a5.68,5.68,0,0,0,0,11.35H65.56a5.68,5.68,0,1,0,0-11.35Z"/><path class="cls-2" d="M65.56,80.83H36.3a6.19,6.19,0,0,1,0-12.37H65.56a6.19,6.19,0,0,1,0,12.37ZM36.3,69a5.68,5.68,0,0,0,0,11.35H65.56a5.68,5.68,0,1,0,0-11.35Z"/><circle class="cls-3" cx="42.55" cy="44.91" r="4.53"/><circle class="cls-3" cx="59.31" cy="44.91" r="4.53"/><circle class="cls-3" cx="42.55" cy="59.87" r="4.53"/><circle class="cls-3" cx="59.31" cy="59.87" r="4.53"/><circle class="cls-3" cx="42.55" cy="74.84" r="4.53"/><circle class="cls-3" cx="59.31" cy="74.84" r="4.53"/></g></g></svg>