<svg xmlns="http://www.w3.org/2000/svg" viewBox="0 0 101.86 119.37"><defs><style>.cls-1{fill:#f85823;}.cls-2{fill:none;stroke:#a94044;stroke-miterlimit:10;stroke-width:0.61px;}.cls-3{fill:#f35a27;}</style></defs><title>Recurso 43</title><g id="Capa_2" data-name="Capa 2"><g id="Capa_1-2" data-name="Capa 1"><path class="cls-1" d="M89,119.37H12.85A12.87,12.87,0,0,1,0,106.52V12.85A12.87,12.87,0,0,1,12.85,0H89a12.87,12.87,0,0,1,12.85,12.85v93.67A12.87,12.87,0,0,1,89,119.37ZM12.85,1.3A11.56,11.56,0,0,0,1.3,12.85v93.67a11.56,11.56,0,0,0,11.55,11.55H89a11.56,11.56,0,0,0,11.55-11.55V12.85A11.56,11.56,0,0,0,89,1.3Z"/><rect class="cls-2" x="30.2" y="31.07" width="41.47" height="11.96" rx="5.44"/><rect class="cls-2" x="30.2" y="46.16" width="41.47" height="11.96" rx="5.44"/><rect class="cls-2" x="30.2" y="61.25" width="41.47" height="11.96" rx="5.44"/><rect class="cls-2" x="30.2" y="76.34" width="41.47" height="11.96" rx="5.44"/><circle class="cls-3" cx="42.48" cy="37.24" r="4.57"/><circle class="cls-3" cx="59.38" cy="37.24" r="4.57"/><circle class="cls-3" cx="42.48" cy="52.33" r="4.57"/><circle class="cls-3" cx="59.38" cy="52.33" r="4.57"/><circle class="cls-3" cx="42.48" cy="67.42" r="4.57"/><circle class="cls-3" cx="59.38" cy="67.42" r="4.57"/><circle class="cls-3" cx="42.48" cy="82.51" r="4.57"/><circle class="cls-3" cx="59.38" cy="82.51" r="4.57"/></g></g></svg>