<svg xmlns="http://www.w3.org/2000/svg" viewBox="0 0 101.86 119.37"><defs><style>.cls-1{fill:#f85823;}.cls-2{fill:#a94044;}.cls-3{fill:#f35a27;}</style></defs><title>Recurso 59</title><g id="Capa_2" data-name="Capa 2"><g id="Capa_1-2" data-name="Capa 1"><path class="cls-1" d="M89,119.37H12.85A12.87,12.87,0,0,1,0,106.52V12.85A12.87,12.87,0,0,1,12.85,0H89a12.87,12.87,0,0,1,12.85,12.85v93.67A12.87,12.87,0,0,1,89,119.37ZM12.85,1.3A11.56,11.56,0,0,0,1.3,12.85v93.67a11.56,11.56,0,0,0,11.55,11.55H89a11.56,11.56,0,0,0,11.55-11.55V12.85A11.56,11.56,0,0,0,89,1.3Z"/><path class="cls-2" d="M74.25,51H27.61a6.23,6.23,0,0,1,0-12.46H74.25a6.23,6.23,0,1,1,0,12.46ZM27.61,39.09a5.63,5.63,0,0,0,0,11.26H74.25a5.63,5.63,0,0,0,0-11.26Z"/><path class="cls-2" d="M74.25,65.91H27.61a6.23,6.23,0,0,1,0-12.46H74.25a6.23,6.23,0,1,1,0,12.46ZM27.61,54.06a5.63,5.63,0,1,0,0,11.25H74.25a5.63,5.63,0,1,0,0-11.25Z"/><path class="cls-2" d="M74.25,80.88H27.61a6.23,6.23,0,0,1,0-12.46H74.25a6.23,6.23,0,0,1,0,12.46ZM27.61,69a5.63,5.63,0,1,0,0,11.25H74.25a5.63,5.63,0,1,0,0-11.25Z"/><circle class="cls-3" cx="34.06" cy="44.91" r="4.53"/><circle class="cls-3" cx="50.82" cy="44.91" r="4.53"/><circle class="cls-3" cx="67.8" cy="44.91" r="4.53"/><circle class="cls-3" cx="34.06" cy="59.87" r="4.53"/><circle class="cls-3" cx="50.82" cy="59.87" r="4.53"/><circle class="cls-3" cx="67.8" cy="59.87" r="4.53"/><circle class="cls-3" cx="34.06" cy="74.84" r="4.53"/><circle class="cls-3" cx="50.82" cy="74.84" r="4.53"/><circle class="cls-3" cx="67.8" cy="74.84" r="4.53"/></g></g></svg>