<svg xmlns="http://www.w3.org/2000/svg" viewBox="0 0 315.68 88.86"><defs><style>.cls-1{fill:#f85823;}.cls-2{fill:#a94044;}.cls-3{fill:#f35a27;}</style></defs><title>Recurso 56</title><g id="Capa_2" data-name="Capa 2"><g id="Capa_1-2" data-name="Capa 1"><path class="cls-1" d="M307.67,83.16H210.55a8,8,0,0,1-8-8v-60a8,8,0,0,1,8-8h97.12a8,8,0,0,1,8,8v60A8,8,0,0,1,307.67,83.16ZM210.55,8.49a6.67,6.67,0,0,0-6.67,6.67v60a6.67,6.67,0,0,0,6.67,6.67h97.12a6.68,6.68,0,0,0,6.67-6.67v-60a6.68,6.68,0,0,0-6.67-6.67Z"/><path class="cls-1" d="M59.13,88.86H8a8,8,0,0,1-8-8V8A8,8,0,0,1,8,0H59.13a8,8,0,0,1,8,8V80.85A8,8,0,0,1,59.13,88.86ZM8,1.34A6.67,6.67,0,0,0,1.34,8V80.85A6.67,6.67,0,0,0,8,87.52H59.13a6.67,6.67,0,0,0,6.67-6.67V8a6.67,6.67,0,0,0-6.67-6.67Z"/><path class="cls-2" d="M56.89,20.74H10.25a6.23,6.23,0,0,1,0-12.46H56.89a6.23,6.23,0,0,1,0,12.46ZM10.25,8.88a5.63,5.63,0,0,0,0,11.26H56.89a5.63,5.63,0,1,0,0-11.26Z"/><path class="cls-2" d="M56.89,35.7H10.25a6.23,6.23,0,0,1,0-12.46H56.89a6.23,6.23,0,0,1,0,12.46ZM10.25,23.84a5.63,5.63,0,1,0,0,11.26H56.89a5.63,5.63,0,1,0,0-11.26Z"/><path class="cls-2" d="M56.89,50.66H10.25a6.23,6.23,0,0,1,0-12.46H56.89a6.23,6.23,0,0,1,0,12.46ZM10.25,38.8a5.63,5.63,0,0,0,0,11.26H56.89a5.63,5.63,0,0,0,0-11.26Z"/><path class="cls-2" d="M56.89,65.62H10.25a6.23,6.23,0,0,1,0-12.46H56.89a6.23,6.23,0,0,1,0,12.46ZM10.25,53.76a5.63,5.63,0,1,0,0,11.26H56.89a5.63,5.63,0,1,0,0-11.26Z"/><path class="cls-2" d="M56.89,80.58H10.25a6.23,6.23,0,0,1,0-12.46H56.89a6.23,6.23,0,0,1,0,12.46ZM10.25,68.72a5.63,5.63,0,1,0,0,11.26H56.89a5.63,5.63,0,0,0,0-11.26Z"/><circle class="cls-3" cx="16.7" cy="14.7" r="4.53"/><circle class="cls-3" cx="33.46" cy="14.7" r="4.53"/><circle class="cls-3" cx="50.43" cy="14.7" r="4.53"/><circle class="cls-3" cx="16.7" cy="29.66" r="4.53"/><circle class="cls-3" cx="33.46" cy="29.66" r="4.53"/><circle class="cls-3" cx="50.43" cy="29.66" r="4.53"/><circle class="cls-3" cx="16.7" cy="44.62" r="4.53"/><circle class="cls-3" cx="33.46" cy="44.62" r="4.53"/><circle class="cls-3" cx="50.43" cy="44.62" r="4.53"/><circle class="cls-3" cx="16.7" cy="59.58" r="4.53"/><circle class="cls-3" cx="33.46" cy="59.58" r="4.53"/><circle class="cls-3" cx="50.43" cy="59.58" r="4.53"/><circle class="cls-3" cx="16.7" cy="74.54" r="4.53"/><circle class="cls-3" cx="33.46" cy="74.54" r="4.53"/><circle class="cls-3" cx="50.43" cy="74.54" r="4.53"/><path class="cls-1" d="M160.4,64.24H109.28a8,8,0,0,1-8-8V15.28a8,8,0,0,1,8-8H160.4a8,8,0,0,1,8,8V56.23A8,8,0,0,1,160.4,64.24ZM109.28,8.61a6.67,6.67,0,0,0-6.67,6.67V56.23a6.67,6.67,0,0,0,6.67,6.67H160.4a6.67,6.67,0,0,0,6.67-6.67V15.28a6.67,6.67,0,0,0-6.67-6.67Z"/><path class="cls-2" d="M158.16,27H111.52a6.23,6.23,0,1,1,0-12.46h46.64a6.23,6.23,0,0,1,0,12.46ZM111.52,15.17a5.63,5.63,0,1,0,0,11.25h46.64a5.63,5.63,0,1,0,0-11.25Z"/><path class="cls-2" d="M158.16,42H111.52a6.23,6.23,0,1,1,0-12.46h46.64a6.23,6.23,0,0,1,0,12.46ZM111.52,30.13a5.63,5.63,0,1,0,0,11.26h46.64a5.63,5.63,0,0,0,0-11.26Z"/><path class="cls-2" d="M158.16,57H111.52a6.23,6.23,0,1,1,0-12.46h46.64a6.23,6.23,0,0,1,0,12.46ZM111.52,45.09a5.63,5.63,0,1,0,0,11.26h46.64a5.63,5.63,0,0,0,0-11.26Z"/><circle class="cls-3" cx="117.97" cy="20.99" r="4.53"/><circle class="cls-3" cx="134.73" cy="20.99" r="4.53"/><circle class="cls-3" cx="151.7" cy="20.99" r="4.53"/><circle class="cls-3" cx="117.97" cy="35.95" r="4.53"/><circle class="cls-3" cx="134.73" cy="35.95" r="4.53"/><circle class="cls-3" cx="151.7" cy="35.95" r="4.53"/><circle class="cls-3" cx="117.97" cy="50.91" r="4.53"/><circle class="cls-3" cx="134.73" cy="50.91" r="4.53"/><circle class="cls-3" cx="151.7" cy="50.91" r="4.53"/><rect class="cls-1" x="77.86" y="38.5" width="12.68" height="1.82" rx="0.91"/><rect class="cls-1" x="77.86" y="42.32" width="12.68" height="1.82" rx="0.91"/><path class="cls-1" d="M186.65,40.26h-2.89V37.37a1.27,1.27,0,0,0-1.27-1.27h-.31a1.27,1.27,0,0,0-1.28,1.27v2.89H178a1.27,1.27,0,0,0-1.27,1.27v.31A1.27,1.27,0,0,0,178,43.12h2.89V46a1.27,1.27,0,0,0,1.28,1.27h.31A1.27,1.27,0,0,0,183.76,46V43.12h2.89a1.27,1.27,0,0,0,1.27-1.28v-.31A1.27,1.27,0,0,0,186.65,40.26Z"/></g></g></svg>