<svg xmlns="http://www.w3.org/2000/svg" viewBox="0 0 101.86 119.37"><defs><style>.cls-1{fill:#f85823;}.cls-2{fill:#a94044;}.cls-3{fill:#f35a27;}</style></defs><title>Recurso 54</title><g id="Capa_2" data-name="Capa 2"><g id="Capa_1-2" data-name="Capa 1"><path class="cls-1" d="M89,119.37H12.85A12.87,12.87,0,0,1,0,106.52V12.85A12.87,12.87,0,0,1,12.85,0H89a12.87,12.87,0,0,1,12.85,12.85v93.67A12.87,12.87,0,0,1,89,119.37ZM12.85,1.3A11.56,11.56,0,0,0,1.3,12.85v93.67a11.56,11.56,0,0,0,11.55,11.55H89a11.56,11.56,0,0,0,11.55-11.55V12.85A11.56,11.56,0,0,0,89,1.3Z"/><path class="cls-2" d="M74.36,20.25H27.5a6.26,6.26,0,0,1,0-12.52H74.36a6.26,6.26,0,1,1,0,12.52ZM27.5,8.33a5.66,5.66,0,0,0,0,11.31H74.36a5.66,5.66,0,0,0,0-11.31Z"/><path class="cls-2" d="M74.36,35.28H27.5a6.26,6.26,0,0,1,0-12.52H74.36a6.26,6.26,0,1,1,0,12.52ZM27.5,23.36a5.66,5.66,0,0,0,0,11.31H74.36a5.66,5.66,0,0,0,0-11.31Z"/><path class="cls-2" d="M74.36,50.3H27.5a6.26,6.26,0,0,1,0-12.51H74.36a6.26,6.26,0,1,1,0,12.51ZM27.5,38.39a5.66,5.66,0,0,0,0,11.31H74.36a5.66,5.66,0,0,0,0-11.31Z"/><path class="cls-2" d="M74.36,65.33H27.5a6.26,6.26,0,0,1,0-12.51H74.36a6.26,6.26,0,1,1,0,12.51ZM27.5,53.42a5.66,5.66,0,0,0,0,11.31H74.36a5.66,5.66,0,0,0,0-11.31Z"/><path class="cls-2" d="M74.36,80.36H27.5a6.26,6.26,0,0,1,0-12.51H74.36a6.26,6.26,0,1,1,0,12.51ZM27.5,68.45a5.66,5.66,0,0,0,0,11.31H74.36a5.66,5.66,0,0,0,0-11.31Z"/><path class="cls-2" d="M74.36,95.39H27.5a6.26,6.26,0,0,1,0-12.51H74.36a6.26,6.26,0,1,1,0,12.51ZM27.5,83.48a5.66,5.66,0,0,0,0,11.31H74.36a5.66,5.66,0,0,0,0-11.31Z"/><path class="cls-2" d="M74.36,111.64H27.5a6.26,6.26,0,0,1,0-12.52H74.36a6.26,6.26,0,1,1,0,12.52ZM27.5,99.73a5.65,5.65,0,0,0,0,11.3H74.36a5.65,5.65,0,1,0,0-11.3Z"/><circle class="cls-3" cx="33.99" cy="14.18" r="4.55"/><circle class="cls-3" cx="50.82" cy="14.18" r="4.55"/><circle class="cls-3" cx="67.87" cy="14.18" r="4.55"/><circle class="cls-3" cx="33.99" cy="29.21" r="4.55"/><circle class="cls-3" cx="50.82" cy="29.21" r="4.55"/><circle class="cls-3" cx="67.87" cy="29.21" r="4.55"/><circle class="cls-3" cx="33.99" cy="44.24" r="4.55"/><circle class="cls-3" cx="50.82" cy="44.24" r="4.55"/><circle class="cls-3" cx="67.87" cy="44.24" r="4.55"/><circle class="cls-3" cx="33.99" cy="59.27" r="4.55"/><circle class="cls-3" cx="50.82" cy="59.27" r="4.55"/><circle class="cls-3" cx="67.87" cy="59.27" r="4.55"/><circle class="cls-3" cx="33.99" cy="74.3" r="4.55"/><circle class="cls-3" cx="50.82" cy="74.3" r="4.55"/><circle class="cls-3" cx="67.87" cy="74.3" r="4.55"/><circle class="cls-3" cx="33.99" cy="89.32" r="4.55"/><circle class="cls-3" cx="50.82" cy="89.32" r="4.55"/><circle class="cls-3" cx="67.87" cy="89.32" r="4.55"/><circle class="cls-3" cx="33.99" cy="105.57" r="4.55"/><circle class="cls-3" cx="50.82" cy="105.57" r="4.55"/><circle class="cls-3" cx="67.87" cy="105.57" r="4.55"/></g></g></svg>