<svg xmlns="http://www.w3.org/2000/svg" viewBox="0 0 101.86 119.37"><defs><style>.cls-1{fill:#f85823;}.cls-2{fill:#a94044;}.cls-3{fill:#f35a27;}</style></defs><title>Recurso 63</title><g id="Capa_2" data-name="Capa 2"><g id="Capa_1-2" data-name="Capa 1"><path class="cls-1" d="M89,119.37H12.85A12.87,12.87,0,0,1,0,106.52V12.85A12.87,12.87,0,0,1,12.85,0H89a12.87,12.87,0,0,1,12.85,12.85v93.67A12.87,12.87,0,0,1,89,119.37ZM12.85,1.3A11.56,11.56,0,0,0,1.3,12.85v93.67a11.56,11.56,0,0,0,11.55,11.55H89a11.56,11.56,0,0,0,11.55-11.55V12.85A11.56,11.56,0,0,0,89,1.3Z"/><path class="cls-2" d="M83.5,58.46H18.36a6.4,6.4,0,0,1,0-12.79H83.5a6.4,6.4,0,0,1,0,12.79ZM18.36,46.37a5.69,5.69,0,0,0,0,11.38H83.5a5.69,5.69,0,0,0,0-11.38Z"/><circle class="cls-3" cx="24.35" cy="52.26" r="4.61"/><circle class="cls-3" cx="41.43" cy="52.26" r="4.61"/><circle class="cls-3" cx="58.73" cy="52.26" r="4.61"/><path class="cls-2" d="M83.5,73.7H18.36a6.4,6.4,0,0,1,0-12.79H83.5a6.4,6.4,0,0,1,0,12.79ZM18.36,61.62a5.69,5.69,0,0,0,0,11.38H83.5a5.69,5.69,0,0,0,0-11.38Z"/><circle class="cls-3" cx="24.35" cy="67.5" r="4.61"/><circle class="cls-3" cx="41.43" cy="67.5" r="4.61"/><circle class="cls-3" cx="58.73" cy="67.5" r="4.61"/><circle class="cls-3" cx="76.72" cy="52.26" r="4.61"/><circle class="cls-3" cx="76.72" cy="67.5" r="4.61"/></g></g></svg>