<svg xmlns="http://www.w3.org/2000/svg" viewBox="0 0 101.86 119.37"><defs><style>.cls-1{fill:#f85823;}.cls-2{fill:#a94044;}.cls-3{fill:#f35a27;}</style></defs><title>Recurso 62</title><g id="Capa_2" data-name="Capa 2"><g id="Capa_1-2" data-name="Capa 1"><path class="cls-1" d="M89,119.37H12.85A12.87,12.87,0,0,1,0,106.52V12.85A12.87,12.87,0,0,1,12.85,0H89a12.87,12.87,0,0,1,12.85,12.85v93.67A12.87,12.87,0,0,1,89,119.37ZM12.85,1.3A11.56,11.56,0,0,0,1.3,12.85v93.67a11.56,11.56,0,0,0,11.55,11.55H89a11.56,11.56,0,0,0,11.55-11.55V12.85A11.56,11.56,0,0,0,89,1.3Z"/><path class="cls-2" d="M83.5,50.83H18.36a6.4,6.4,0,0,1,0-12.79H83.5a6.4,6.4,0,0,1,0,12.79ZM18.36,38.75a5.69,5.69,0,0,0,0,11.38H83.5a5.69,5.69,0,0,0,0-11.38Z"/><path class="cls-2" d="M83.5,66.08H18.36a6.4,6.4,0,0,1,0-12.79H83.5a6.4,6.4,0,0,1,0,12.79ZM18.36,54a5.69,5.69,0,0,0,0,11.37H83.5A5.69,5.69,0,1,0,83.5,54Z"/><path class="cls-2" d="M83.5,81.32H18.36a6.4,6.4,0,0,1,0-12.79H83.5a6.4,6.4,0,0,1,0,12.79ZM18.36,69.24a5.69,5.69,0,0,0,0,11.38H83.5a5.69,5.69,0,0,0,0-11.38Z"/><circle class="cls-3" cx="24.75" cy="44.63" r="4.61"/><circle class="cls-3" cx="41.83" cy="44.63" r="4.61"/><circle class="cls-3" cx="59.12" cy="44.63" r="4.61"/><circle class="cls-3" cx="24.75" cy="59.88" r="4.61"/><circle class="cls-3" cx="41.83" cy="59.88" r="4.61"/><circle class="cls-3" cx="59.12" cy="59.88" r="4.61"/><circle class="cls-3" cx="77.11" cy="44.63" r="4.61"/><circle class="cls-3" cx="77.11" cy="59.88" r="4.61"/><circle class="cls-3" cx="24.75" cy="75.12" r="4.61"/><circle class="cls-3" cx="41.83" cy="75.12" r="4.61"/><circle class="cls-3" cx="59.12" cy="75.12" r="4.61"/><circle class="cls-3" cx="77.11" cy="75.12" r="4.61"/></g></g></svg>