<svg xmlns="http://www.w3.org/2000/svg" viewBox="0 0 101.86 119.37"><defs><style>.cls-1{fill:#f85823;}.cls-2{fill:#a94044;}.cls-3{fill:#f35a27;}</style></defs><title>Recurso 46</title><g id="Capa_2" data-name="Capa 2"><g id="Capa_1-2" data-name="Capa 1"><path class="cls-1" d="M89,119.37H12.85A12.87,12.87,0,0,1,0,106.52V12.85A12.87,12.87,0,0,1,12.85,0H89a12.87,12.87,0,0,1,12.85,12.85v93.67A12.87,12.87,0,0,1,89,119.37ZM12.85,1.3A11.56,11.56,0,0,0,1.3,12.85v93.67a11.56,11.56,0,0,0,11.55,11.55H89a11.56,11.56,0,0,0,11.55-11.55V12.85A11.56,11.56,0,0,0,89,1.3Z"/><path class="cls-2" d="M83,27.11H18.89a6.27,6.27,0,1,1,0-12.53H83a6.27,6.27,0,1,1,0,12.53ZM18.89,15.19a5.66,5.66,0,0,0,0,11.32H83a5.66,5.66,0,0,0,0-11.32Z"/><circle class="cls-3" cx="24.8" cy="21.04" r="4.55"/><circle class="cls-3" cx="41.65" cy="21.04" r="4.55"/><circle class="cls-3" cx="58.72" cy="21.04" r="4.55"/><circle class="cls-3" cx="75.76" cy="21.04" r="4.55"/><path class="cls-2" d="M83,42.16H18.89a6.27,6.27,0,1,1,0-12.53H83a6.27,6.27,0,1,1,0,12.53ZM18.89,30.24a5.66,5.66,0,1,0,0,11.32H83a5.66,5.66,0,0,0,0-11.32Z"/><circle class="cls-3" cx="24.8" cy="36.09" r="4.55"/><circle class="cls-3" cx="41.65" cy="36.09" r="4.55"/><circle class="cls-3" cx="58.72" cy="36.09" r="4.55"/><circle class="cls-3" cx="75.76" cy="36.09" r="4.55"/><path class="cls-2" d="M83,57.21H18.89a6.27,6.27,0,1,1,0-12.53H83a6.27,6.27,0,1,1,0,12.53ZM18.89,45.28a5.66,5.66,0,0,0,0,11.32H83a5.66,5.66,0,0,0,0-11.32Z"/><circle class="cls-3" cx="24.8" cy="51.13" r="4.55"/><circle class="cls-3" cx="41.65" cy="51.13" r="4.55"/><circle class="cls-3" cx="58.72" cy="51.13" r="4.55"/><circle class="cls-3" cx="75.76" cy="51.13" r="4.55"/><path class="cls-2" d="M83,72.25H18.89a6.27,6.27,0,1,1,0-12.53H83a6.27,6.27,0,1,1,0,12.53ZM18.89,60.33a5.66,5.66,0,1,0,0,11.32H83a5.66,5.66,0,0,0,0-11.32Z"/><circle class="cls-3" cx="24.8" cy="66.18" r="4.55"/><circle class="cls-3" cx="41.65" cy="66.18" r="4.55"/><circle class="cls-3" cx="58.72" cy="66.18" r="4.55"/><circle class="cls-3" cx="75.76" cy="66.18" r="4.55"/><path class="cls-2" d="M83,88.52H18.89a6.27,6.27,0,1,1,0-12.53H83a6.27,6.27,0,1,1,0,12.53ZM18.89,76.59a5.66,5.66,0,0,0,0,11.32H83a5.66,5.66,0,0,0,0-11.32Z"/><circle class="cls-3" cx="24.8" cy="82.45" r="4.55"/><circle class="cls-3" cx="41.65" cy="82.45" r="4.55"/><circle class="cls-3" cx="58.72" cy="82.45" r="4.55"/><circle class="cls-3" cx="75.76" cy="82.45" r="4.55"/><path class="cls-2" d="M83,104.78H18.89a6.27,6.27,0,1,1,0-12.53H83a6.27,6.27,0,1,1,0,12.53ZM18.89,92.86a5.66,5.66,0,1,0,0,11.32H83a5.66,5.66,0,1,0,0-11.32Z"/><circle class="cls-3" cx="24.8" cy="98.71" r="4.55"/><circle class="cls-3" cx="41.65" cy="98.71" r="4.55"/><circle class="cls-3" cx="58.72" cy="98.71" r="4.55"/><circle class="cls-3" cx="75.76" cy="98.71" r="4.55"/></g></g></svg>