<svg xmlns="http://www.w3.org/2000/svg" viewBox="0 0 101.86 119.37"><defs><style>.cls-1{fill:#f85823;}.cls-2{fill:#a94044;}.cls-3{fill:#f35a27;}</style></defs><title>Recurso 41</title><g id="Capa_2" data-name="Capa 2"><g id="Capa_1-2" data-name="Capa 1"><path class="cls-1" d="M89,119.37H12.85A12.87,12.87,0,0,1,0,106.52V12.85A12.87,12.87,0,0,1,12.85,0H89a12.87,12.87,0,0,1,12.85,12.85v93.67A12.87,12.87,0,0,1,89,119.37ZM12.85,1.3A11.56,11.56,0,0,0,1.3,12.85v93.67a11.56,11.56,0,0,0,11.55,11.55H89a11.56,11.56,0,0,0,11.55-11.55V12.85A11.56,11.56,0,0,0,89,1.3Z"/><path class="cls-2" d="M91.54,43.32H10.32a6.29,6.29,0,0,1,0-12.58H91.54a6.29,6.29,0,0,1,0,12.58Zm-81.22-12a5.68,5.68,0,0,0,0,11.36H91.54a5.68,5.68,0,0,0,0-11.36Z"/><path class="cls-2" d="M91.54,58.42H10.32a6.29,6.29,0,0,1,0-12.58H91.54a6.29,6.29,0,0,1,0,12.58Zm-81.22-12a5.68,5.68,0,0,0,0,11.36H91.54a5.68,5.68,0,0,0,0-11.36Z"/><path class="cls-2" d="M91.54,73.53H10.32a6.29,6.29,0,0,1,0-12.58H91.54a6.29,6.29,0,1,1,0,12.58Zm-81.22-12a5.69,5.69,0,0,0,0,11.37H91.54a5.69,5.69,0,0,0,0-11.37Z"/><path class="cls-2" d="M91.54,88.63H10.32a6.29,6.29,0,0,1,0-12.58H91.54a6.29,6.29,0,0,1,0,12.58Zm-81.22-12a5.68,5.68,0,0,0,0,11.36H91.54a5.68,5.68,0,0,0,0-11.36Z"/><circle class="cls-3" cx="16.97" cy="37.22" r="4.57"/><circle class="cls-3" cx="33.89" cy="37.22" r="4.57"/><circle class="cls-3" cx="51.02" cy="37.22" r="4.57"/><circle class="cls-3" cx="68.13" cy="37.22" r="4.57"/><circle class="cls-3" cx="84.89" cy="37.22" r="4.57"/><circle class="cls-3" cx="16.97" cy="52.32" r="4.57"/><circle class="cls-3" cx="33.89" cy="52.32" r="4.57"/><circle class="cls-3" cx="51.02" cy="52.32" r="4.57"/><circle class="cls-3" cx="68.13" cy="52.32" r="4.57"/><circle class="cls-3" cx="84.89" cy="52.32" r="4.57"/><circle class="cls-3" cx="16.97" cy="67.43" r="4.57"/><circle class="cls-3" cx="33.89" cy="67.43" r="4.57"/><circle class="cls-3" cx="51.02" cy="67.43" r="4.57"/><circle class="cls-3" cx="68.13" cy="67.43" r="4.57"/><circle class="cls-3" cx="84.89" cy="67.43" r="4.57"/><circle class="cls-3" cx="16.97" cy="82.53" r="4.57"/><circle class="cls-3" cx="33.89" cy="82.53" r="4.57"/><circle class="cls-3" cx="51.02" cy="82.53" r="4.57"/><circle class="cls-3" cx="68.13" cy="82.53" r="4.57"/><circle class="cls-3" cx="84.89" cy="82.53" r="4.57"/></g></g></svg>