<svg xmlns="http://www.w3.org/2000/svg" viewBox="0 0 416.11 73.97"><defs><style>.cls-1,.cls-2{fill:none;stroke-miterlimit:10;}.cls-1{stroke:#f85823;stroke-width:1.35px;}.cls-2{stroke:#a94044;stroke-width:0.61px;}.cls-3{fill:#f35a27;}.cls-4{fill:#f85823;}</style></defs><title>Recurso 40</title><g id="Capa_2" data-name="Capa 2"><g id="Capa_1-2" data-name="Capa 1"><rect class="cls-1" x="302.67" y="0.89" width="112.77" height="72.4" rx="12.2"/><rect class="cls-1" x="0.67" y="0.67" width="131.84" height="72.62" rx="12.2"/><rect class="cls-2" x="3.9" y="8.37" width="125.39" height="11.96" rx="5.44"/><rect class="cls-2" x="3.9" y="23.46" width="125.39" height="11.96" rx="5.44"/><rect class="cls-2" x="3.9" y="38.55" width="125.39" height="11.96" rx="5.44"/><rect class="cls-2" x="3.9" y="53.64" width="125.39" height="11.96" rx="5.44"/><circle class="cls-3" cx="15.56" cy="14.54" r="4.57"/><circle class="cls-3" cx="32.46" cy="14.54" r="4.57"/><circle class="cls-3" cx="49.58" cy="14.54" r="4.57"/><circle class="cls-3" cx="66.67" cy="14.54" r="4.57"/><circle class="cls-3" cx="83.42" cy="14.54" r="4.57"/><circle class="cls-3" cx="100.54" cy="14.54" r="4.57"/><circle class="cls-3" cx="117.63" cy="14.54" r="4.57"/><circle class="cls-3" cx="15.56" cy="29.63" r="4.57"/><circle class="cls-3" cx="32.46" cy="29.63" r="4.57"/><circle class="cls-3" cx="49.58" cy="29.63" r="4.57"/><circle class="cls-3" cx="66.67" cy="29.63" r="4.57"/><circle class="cls-3" cx="83.42" cy="29.63" r="4.57"/><circle class="cls-3" cx="100.54" cy="29.63" r="4.57"/><circle class="cls-3" cx="117.63" cy="29.63" r="4.57"/><circle class="cls-3" cx="15.56" cy="44.72" r="4.57"/><circle class="cls-3" cx="32.46" cy="44.72" r="4.57"/><circle class="cls-3" cx="49.58" cy="44.72" r="4.57"/><circle class="cls-3" cx="66.67" cy="44.72" r="4.57"/><circle class="cls-3" cx="83.42" cy="44.72" r="4.57"/><circle class="cls-3" cx="100.54" cy="44.72" r="4.57"/><circle class="cls-3" cx="117.63" cy="44.72" r="4.57"/><circle class="cls-3" cx="15.56" cy="59.81" r="4.57"/><circle class="cls-3" cx="32.46" cy="59.81" r="4.57"/><circle class="cls-3" cx="49.58" cy="59.81" r="4.57"/><circle class="cls-3" cx="66.67" cy="59.81" r="4.57"/><circle class="cls-3" cx="83.42" cy="59.81" r="4.57"/><circle class="cls-3" cx="100.54" cy="59.81" r="4.57"/><circle class="cls-3" cx="117.63" cy="59.81" r="4.57"/><rect class="cls-1" x="168.29" y="0.67" width="98.6" height="72.62" rx="12.2"/><rect class="cls-2" x="171.43" y="8.37" width="92.33" height="11.96" rx="5.44"/><rect class="cls-2" x="171.43" y="23.46" width="92.33" height="11.96" rx="5.44"/><rect class="cls-2" x="171.43" y="38.55" width="92.33" height="11.96" rx="5.44"/><rect class="cls-2" x="171.43" y="53.64" width="92.33" height="11.96" rx="5.44"/><circle class="cls-3" cx="183.66" cy="14.54" r="4.57"/><circle class="cls-3" cx="200.56" cy="14.54" r="4.57"/><circle class="cls-3" cx="217.68" cy="14.54" r="4.57"/><circle class="cls-3" cx="234.77" cy="14.54" r="4.57"/><circle class="cls-3" cx="251.52" cy="14.54" r="4.57"/><circle class="cls-3" cx="183.66" cy="29.63" r="4.57"/><circle class="cls-3" cx="200.56" cy="29.63" r="4.57"/><circle class="cls-3" cx="217.68" cy="29.63" r="4.57"/><circle class="cls-3" cx="234.77" cy="29.63" r="4.57"/><circle class="cls-3" cx="251.52" cy="29.63" r="4.57"/><circle class="cls-3" cx="183.66" cy="44.72" r="4.57"/><circle class="cls-3" cx="200.56" cy="44.72" r="4.57"/><circle class="cls-3" cx="217.68" cy="44.72" r="4.57"/><circle class="cls-3" cx="234.77" cy="44.72" r="4.57"/><circle class="cls-3" cx="251.52" cy="44.72" r="4.57"/><circle class="cls-3" cx="183.66" cy="59.81" r="4.57"/><circle class="cls-3" cx="200.56" cy="59.81" r="4.57"/><circle class="cls-3" cx="217.68" cy="59.81" r="4.57"/><circle class="cls-3" cx="234.77" cy="59.81" r="4.57"/><circle class="cls-3" cx="251.52" cy="59.81" r="4.57"/><rect class="cls-4" x="142.39" y="34.25" width="12.79" height="1.83" rx="0.83"/><rect class="cls-4" x="142.39" y="38.1" width="12.79" height="1.83" rx="0.83"/><path class="cls-4" d="M289.14,35.54h-2.92V32.63a1.28,1.28,0,0,0-1.28-1.29h-.32a1.29,1.29,0,0,0-1.28,1.29v2.91h-2.92a1.29,1.29,0,0,0-1.28,1.29v.31a1.28,1.28,0,0,0,1.28,1.28h2.92v2.92a1.28,1.28,0,0,0,1.28,1.28h.32a1.28,1.28,0,0,0,1.28-1.28V38.42h2.92a1.28,1.28,0,0,0,1.28-1.28v-.31A1.28,1.28,0,0,0,289.14,35.54Z"/></g></g></svg>