<svg xmlns="http://www.w3.org/2000/svg" viewBox="0 0 101.86 119.37"><defs><style>.cls-1{fill:#f85823;}.cls-2{fill:#a94044;}.cls-3{fill:#f35a27;}</style></defs><title>Recurso 61</title><g id="Capa_2" data-name="Capa 2"><g id="Capa_1-2" data-name="Capa 1"><path class="cls-1" d="M89,119.37H12.85A12.87,12.87,0,0,1,0,106.52V12.85A12.87,12.87,0,0,1,12.85,0H89a12.87,12.87,0,0,1,12.85,12.85v93.67A12.87,12.87,0,0,1,89,119.37ZM12.85,1.3A11.56,11.56,0,0,0,1.3,12.85v93.67a11.56,11.56,0,0,0,11.55,11.55H89a11.56,11.56,0,0,0,11.55-11.55V12.85A11.56,11.56,0,0,0,89,1.3Z"/><path class="cls-2" d="M66,58.41H35.84a6.35,6.35,0,0,1,0-12.7H66a6.35,6.35,0,1,1,0,12.7ZM35.84,46.33a5.74,5.74,0,0,0,0,11.47H66a5.74,5.74,0,0,0,0-11.47Z"/><path class="cls-2" d="M66,73.66H35.84a6.35,6.35,0,0,1,0-12.7H66a6.35,6.35,0,1,1,0,12.7ZM35.84,61.57a5.74,5.74,0,0,0,0,11.47H66a5.74,5.74,0,0,0,0-11.47Z"/><circle class="cls-3" cx="42.39" cy="52.26" r="4.61"/><circle class="cls-3" cx="59.47" cy="52.26" r="4.61"/><circle class="cls-3" cx="42.39" cy="67.5" r="4.61"/><circle class="cls-3" cx="59.47" cy="67.5" r="4.61"/></g></g></svg>