<svg xmlns="http://www.w3.org/2000/svg" viewBox="0 0 154.2 119.39"><defs><style>.e14afb5c-6fa3-4410-8732-bd3a4f68ecff{fill:none;}.e6e6e4ee-199d-48cd-b3bb-8b364f341937{fill:#bfbd60;}.b5c870b9-b6d1-4f04-8663-95a2ad629ef5{fill:#adadad;}.acacaca5-5617-4d97-9c53-060a6d2e862b{fill:#d9d9d9;}.f9365ae5-aac9-4edd-8724-c9967bc0f4ba{fill:#e0dfcd;}.ef42c6c0-8a9a-471b-9683-d067ee368613{fill:#fffef3;}.a931a823-ab17-4dac-8fc1-57d98e7bf1e0{fill:#d3d2cd;}.a2e079c0-64ae-4616-8fa6-266a165ec90d{fill:#dcdfe0;}.bdad130c-b116-4db6-b344-5daca205a9e4{fill:#bcbec0;}.b5f46737-eb15-4c9f-bcb5-c242917e6d91{fill:#9b9a98;}</style></defs><title>100 4</title><g id="e1939612-3281-45a1-a765-85179a956dd9" data-name="Capa 2"><g id="af1633ad-eecd-48db-a8c6-9d36e947bb05" data-name="Capa 1"><rect class="e14afb5c-6fa3-4410-8732-bd3a4f68ecff" width="154.2" height="119.39"/><g id="bf6545ec-426c-4009-aac0-68f7d343fb84" data-name="b6b53f3f-f1cf-4eb0-b448-ce7955c976e0"><g id="a4e089df-934e-4eb2-ab12-67f283919982" data-name="b860e088-6b10-42ce-a23f-4404ee5f82dc"><circle class="e6e6e4ee-199d-48cd-b3bb-8b364f341937" cx="38.12" cy="30.63" r="25.7"/><circle class="b5c870b9-b6d1-4f04-8663-95a2ad629ef5" cx="38.12" cy="30.63" r="21.2"/><path class="acacaca5-5617-4d97-9c53-060a6d2e862b" d="M17.64,31a21.2,21.2,0,0,1,30.3-19.16A21.22,21.22,0,1,0,29,49.84h0A21.19,21.19,0,0,1,17.64,31Z"/><path class="f9365ae5-aac9-4edd-8724-c9967bc0f4ba" d="M47.94,11.84A21.22,21.22,0,0,1,29,49.84a21.22,21.22,0,0,0,18.91-38Z"/><path class="ef42c6c0-8a9a-471b-9683-d067ee368613" d="M37.86,50.53a19.31,19.31,0,0,1-9.18-2.72A19.62,19.62,0,0,1,22,41.22a19.32,19.32,0,0,0,7,5.94A18.36,18.36,0,0,0,37.83,49Z"/><path class="a931a823-ab17-4dac-8fc1-57d98e7bf1e0" d="M39,49a18.41,18.41,0,0,0,8.81-1.86,19.49,19.49,0,0,0,7-5.94,19.89,19.89,0,0,1-6.66,6.62A19.38,19.38,0,0,1,39,50.53Z"/><path class="acacaca5-5617-4d97-9c53-060a6d2e862b" d="M23.64,23.37h2.85V38.68H23.42V26.31l-2.91,1.62-1.23-2.27Z"/><path class="acacaca5-5617-4d97-9c53-060a6d2e862b" d="M40.49,25.38a9.47,9.47,0,0,1,0,11.33,6.19,6.19,0,0,1-8.72.81,5.17,5.17,0,0,1-.81-.81,9.47,9.47,0,0,1,0-11.35,6.16,6.16,0,0,1,8.65-.88,7.31,7.31,0,0,1,.88.88Zm-7.26,1.84a8,8,0,0,0,0,7.72,2.93,2.93,0,0,0,4,1.08,3,3,0,0,0,1.08-1.08,7,7,0,0,0,1-3.84,7.11,7.11,0,0,0-1-3.87,2.92,2.92,0,0,0-2.52-1.51A2.84,2.84,0,0,0,33.23,27.22Z"/><path class="acacaca5-5617-4d97-9c53-060a6d2e862b" d="M56,25.38a9.47,9.47,0,0,1,0,11.33,6.19,6.19,0,0,1-8.72.81,5.17,5.17,0,0,1-.81-.81,9.47,9.47,0,0,1,0-11.35,6.16,6.16,0,0,1,8.65-.88,7.31,7.31,0,0,1,.88.88ZM48.7,27.22a8,8,0,0,0,0,7.72,2.93,2.93,0,0,0,4,1.08,3,3,0,0,0,1.08-1.08,7,7,0,0,0,1-3.84,7.11,7.11,0,0,0-1-3.87,2.92,2.92,0,0,0-2.52-1.51A2.86,2.86,0,0,0,48.7,27.22Z"/><path class="a2e079c0-64ae-4616-8fa6-266a165ec90d" d="M23.42,23.12h2.85V38.44H23.12V26.07l-2.86,1.66L19,25.41Z"/><path class="a2e079c0-64ae-4616-8fa6-266a165ec90d" d="M40.25,25.14a9.47,9.47,0,0,1,0,11.33,6.19,6.19,0,0,1-8.72.81,5.17,5.17,0,0,1-.81-.81,9.47,9.47,0,0,1,0-11.35,6.13,6.13,0,0,1,8.63-.89h0a6.8,6.8,0,0,1,.89.89ZM33,26.93a8,8,0,0,0,0,7.72,2.92,2.92,0,0,0,4,1.09,3,3,0,0,0,1.09-1.09,7,7,0,0,0,1-3.84,7.11,7.11,0,0,0-1-3.87,2.92,2.92,0,0,0-2.52-1.51A2.86,2.86,0,0,0,33,26.93Z"/><path class="a2e079c0-64ae-4616-8fa6-266a165ec90d" d="M55.72,25.14a9.47,9.47,0,0,1,0,11.33,6.19,6.19,0,0,1-8.72.81,5.17,5.17,0,0,1-.81-.81,9.47,9.47,0,0,1,0-11.35,6.13,6.13,0,0,1,8.63-.89h0a6.8,6.8,0,0,1,.89.89Zm-7.3,1.79a8,8,0,0,0,0,7.72,2.93,2.93,0,0,0,4,1.08,3,3,0,0,0,1.08-1.08,7,7,0,0,0,1-3.84,7.11,7.11,0,0,0-1-3.87A2.92,2.92,0,0,0,51,25.43,2.84,2.84,0,0,0,48.42,26.93Z"/><g id="fdb4f367-0206-4c18-a6c0-8cb0ee01aaeb" data-name="a9b3f7fe-90e4-47f8-9916-3ae95354ecb8"><path class="bdad130c-b116-4db6-b344-5daca205a9e4" d="M38.07,16.56h-.43l-.46,1.56a2.92,2.92,0,0,1-.72.06,2.62,2.62,0,0,1-.84-.11V18L38,10.78a6.63,6.63,0,0,1,1-.07,5.7,5.7,0,0,1,1,.08L42.3,18a1.72,1.72,0,0,1-.85.2,1.19,1.19,0,0,1-.78-.19,1.52,1.52,0,0,1-.39-.74l-.2-.71h-2Zm0-1.35h1.57l-.22-.66c-.17-.6-.37-1.34-.59-2.21h-.06c-.06.3-.23,1-.52,2Z"/></g><g id="fb60c23a-f140-43e2-8c57-4bde4921845b" data-name="a72eddd6-087c-4608-8852-c87fbc8b7213"><path class="b5f46737-eb15-4c9f-bcb5-c242917e6d91" d="M37.85,16.56h-.43L37,18.12a2.88,2.88,0,0,1-.71.06,2.62,2.62,0,0,1-.84-.11V18l2.36-7.2a6.63,6.63,0,0,1,1-.07,5.7,5.7,0,0,1,1,.08L42.08,18a1.72,1.72,0,0,1-.85.2,1.19,1.19,0,0,1-.78-.19,1.52,1.52,0,0,1-.39-.74l-.2-.71h-2Zm0-1.35h1.57l-.18-.66c-.17-.6-.37-1.34-.59-2.21h0c-.06.3-.23,1-.52,2Z"/></g><circle class="e6e6e4ee-199d-48cd-b3bb-8b364f341937" cx="116.07" cy="30.63" r="25.7"/><circle class="b5c870b9-b6d1-4f04-8663-95a2ad629ef5" cx="116.07" cy="30.63" r="21.2"/><path class="acacaca5-5617-4d97-9c53-060a6d2e862b" d="M95.64,31a21.22,21.22,0,0,1,30.3-19.16A21.21,21.21,0,0,0,106,49.28l1,.51A21.18,21.18,0,0,1,95.64,31Z"/><path class="f9365ae5-aac9-4edd-8724-c9967bc0f4ba" d="M125.91,11.84a21.22,21.22,0,1,1-18.92,38,21.23,21.23,0,0,0,19.94-37.49Z"/><path class="ef42c6c0-8a9a-471b-9683-d067ee368613" d="M115.83,50.53a19.32,19.32,0,0,1-9.19-2.72A19.62,19.62,0,0,1,100,41.22a19.32,19.32,0,0,0,7,5.94A18.43,18.43,0,0,0,115.8,49Z"/><path class="a931a823-ab17-4dac-8fc1-57d98e7bf1e0" d="M117,49a18.41,18.41,0,0,0,8.81-1.86,19.49,19.49,0,0,0,7-5.94,19.8,19.8,0,0,1-6.66,6.62A19.38,19.38,0,0,1,117,50.53Z"/><path class="acacaca5-5617-4d97-9c53-060a6d2e862b" d="M101.64,23.37h2.85V38.68h-3.07V26.31l-2.9,1.62-1.24-2.31Z"/><path class="acacaca5-5617-4d97-9c53-060a6d2e862b" d="M118.42,25.38a9.47,9.47,0,0,1,0,11.33,6.19,6.19,0,0,1-8.72.81,5.17,5.17,0,0,1-.81-.81,9.47,9.47,0,0,1,0-11.35,6.16,6.16,0,0,1,8.65-.88,7.31,7.31,0,0,1,.88.88Zm-7.26,1.84a8,8,0,0,0,0,7.72,2.93,2.93,0,0,0,4,1.08,3,3,0,0,0,1.08-1.08,7,7,0,0,0,1-3.84,7.11,7.11,0,0,0-1-3.87,2.92,2.92,0,0,0-2.52-1.51,2.86,2.86,0,0,0-2.53,1.5Z"/><path class="acacaca5-5617-4d97-9c53-060a6d2e862b" d="M133.92,25.38a9.47,9.47,0,0,1,0,11.33,6.19,6.19,0,0,1-8.72.81,5.17,5.17,0,0,1-.81-.81,9.47,9.47,0,0,1,0-11.35,6.16,6.16,0,0,1,8.65-.88,7.31,7.31,0,0,1,.88.88Zm-7.28,1.84a8,8,0,0,0,0,7.72,2.93,2.93,0,0,0,4,1.08,3,3,0,0,0,1.08-1.08,7,7,0,0,0,1-3.84,7.09,7.09,0,0,0-1.08-3.88,2.92,2.92,0,0,0-2.52-1.51A2.86,2.86,0,0,0,126.64,27.22Z"/><path class="a2e079c0-64ae-4616-8fa6-266a165ec90d" d="M101.35,23.12h2.85V38.44h-3.12V26.07l-2.86,1.66L97,25.41Z"/><path class="a2e079c0-64ae-4616-8fa6-266a165ec90d" d="M118.21,25.14a9.47,9.47,0,0,1,0,11.33,6.19,6.19,0,0,1-8.72.81,5.17,5.17,0,0,1-.81-.81,9.47,9.47,0,0,1,0-11.35,6.13,6.13,0,0,1,8.63-.89h0a6.8,6.8,0,0,1,.89.89ZM111,26.93a8,8,0,0,0,0,7.72,2.93,2.93,0,0,0,4,1.08A3,3,0,0,0,116,34.65a7,7,0,0,0,1-3.84,7.11,7.11,0,0,0-1-3.87,2.92,2.92,0,0,0-2.52-1.51A2.86,2.86,0,0,0,111,26.93Z"/><path class="a2e079c0-64ae-4616-8fa6-266a165ec90d" d="M133.64,25.14a9.47,9.47,0,0,1,0,11.33,6.19,6.19,0,0,1-8.72.81,5.17,5.17,0,0,1-.81-.81,9.47,9.47,0,0,1,0-11.35,6.13,6.13,0,0,1,8.63-.89h0a6.8,6.8,0,0,1,.89.89Zm-7.22,1.79a8,8,0,0,0,0,7.72,2.93,2.93,0,0,0,4,1.08,3,3,0,0,0,1.08-1.08,7,7,0,0,0,1-3.84,7.09,7.09,0,0,0-1.08-3.88,2.92,2.92,0,0,0-2.52-1.51A2.88,2.88,0,0,0,126.42,26.93Z"/><g id="b4d767f3-ac65-4dcc-b0ee-cfd551c05187" data-name="bf1d1b31-94c4-400b-b9b1-6b4d5a6a867f"><path class="bdad130c-b116-4db6-b344-5daca205a9e4" d="M116,16.56h-.39l-.46,1.56a2.92,2.92,0,0,1-.72.06,2.62,2.62,0,0,1-.84-.11V18l2.36-7.2a6.63,6.63,0,0,1,1-.07,4.82,4.82,0,0,1,1,.08L120.3,18a1.72,1.72,0,0,1-.85.2,1.19,1.19,0,0,1-.78-.19,1.52,1.52,0,0,1-.39-.74l-.2-.71h-2Zm0-1.35h1.61l-.22-.66c-.17-.6-.37-1.34-.59-2.21h-.06c-.06.3-.23,1-.52,2Z"/></g><g id="bee04f89-b7e5-4651-96ec-1576d18c3e52" data-name="e43d4379-61b9-43ab-a57c-399160945e24"><path class="b5f46737-eb15-4c9f-bcb5-c242917e6d91" d="M115.81,16.56h-.39L115,18.12a2.92,2.92,0,0,1-.72.06,2.62,2.62,0,0,1-.84-.11V18l2.36-7.2a6.63,6.63,0,0,1,1-.07,4.82,4.82,0,0,1,1,.08L120.08,18a1.72,1.72,0,0,1-.85.2,1.19,1.19,0,0,1-.78-.19,1.52,1.52,0,0,1-.39-.74l-.2-.71h-2Zm0-1.35h1.61l-.18-.66c-.17-.6-.37-1.34-.59-2.21h-.06c-.06.3-.23,1-.52,2Z"/></g><circle class="e6e6e4ee-199d-48cd-b3bb-8b364f341937" cx="38.12" cy="88.75" r="25.7"/><circle class="b5c870b9-b6d1-4f04-8663-95a2ad629ef5" cx="38.12" cy="88.75" r="21.2"/><path class="acacaca5-5617-4d97-9c53-060a6d2e862b" d="M17.64,89.12A21.21,21.21,0,0,1,47.93,69.93a21.22,21.22,0,1,0-18.91,38h0A21.18,21.18,0,0,1,17.64,89.12Z"/><path class="f9365ae5-aac9-4edd-8724-c9967bc0f4ba" d="M47.94,69.93a21.22,21.22,0,0,1-18.91,38h0A21.2,21.2,0,0,0,47.94,70Z"/><path class="ef42c6c0-8a9a-471b-9683-d067ee368613" d="M37.86,108.66a19.44,19.44,0,0,1-9.18-2.73A19.71,19.71,0,0,1,22,99.31a19.32,19.32,0,0,0,7,5.94,18.13,18.13,0,0,0,8.81,1.86Z"/><path class="a931a823-ab17-4dac-8fc1-57d98e7bf1e0" d="M39,107.11a18.21,18.21,0,0,0,8.81-1.89,19.49,19.49,0,0,0,7-5.94,19.89,19.89,0,0,1-6.66,6.65A19.5,19.5,0,0,1,39,108.66Z"/><path class="acacaca5-5617-4d97-9c53-060a6d2e862b" d="M23.64,81.49h2.85V96.81H23.42V84.44l-2.91,1.65-1.23-2.31Z"/><path class="acacaca5-5617-4d97-9c53-060a6d2e862b" d="M40.49,83.51a8.46,8.46,0,0,1,1.93,5.65,8.56,8.56,0,0,1-1.89,5.67,6.14,6.14,0,0,1-9.53,0,9.47,9.47,0,0,1,0-11.35,6.13,6.13,0,0,1,8.63-.89h0a6.8,6.8,0,0,1,.89.89Zm-7.26,1.8a8,8,0,0,0,0,7.72,2.92,2.92,0,0,0,4,1.1,3.05,3.05,0,0,0,1.1-1.1,7,7,0,0,0,1-3.83,7.15,7.15,0,0,0-1-3.88,2.92,2.92,0,0,0-2.52-1.51A2.84,2.84,0,0,0,33.23,85.31Z"/><path class="acacaca5-5617-4d97-9c53-060a6d2e862b" d="M56,83.51a8.46,8.46,0,0,1,1.89,5.65A8.56,8.56,0,0,1,56,94.83a6.14,6.14,0,0,1-9.53,0,9.47,9.47,0,0,1,0-11.35,6.13,6.13,0,0,1,8.63-.89h0a6.8,6.8,0,0,1,.89.89Zm-7.26,1.8a8,8,0,0,0,0,7.72,2.92,2.92,0,0,0,4,1.1,3.05,3.05,0,0,0,1.1-1.1,7,7,0,0,0,1-3.83,7.15,7.15,0,0,0-1-3.88,2.92,2.92,0,0,0-2.52-1.51A2.86,2.86,0,0,0,48.7,85.31Z"/><path class="a2e079c0-64ae-4616-8fa6-266a165ec90d" d="M23.42,81.22h2.85V96.54H23.12V84.22l-2.86,1.65L19,83.56Z"/><path class="a2e079c0-64ae-4616-8fa6-266a165ec90d" d="M40.25,83.27a8.43,8.43,0,0,1,1.89,5.66,8.56,8.56,0,0,1-1.89,5.67,6.14,6.14,0,0,1-9.53,0,9.47,9.47,0,0,1,0-11.35,6.13,6.13,0,0,1,8.63-.89h0a6.8,6.8,0,0,1,.89.89ZM33,85.07a8,8,0,0,0,0,7.72,2.9,2.9,0,0,0,4,1.11,3,3,0,0,0,1.11-1.11,6.91,6.91,0,0,0,1-3.84,7.11,7.11,0,0,0-1-3.87,2.92,2.92,0,0,0-2.52-1.51A2.86,2.86,0,0,0,33,85.07Z"/><path class="a2e079c0-64ae-4616-8fa6-266a165ec90d" d="M55.72,83.27a8.44,8.44,0,0,1,1.92,5.66,8.56,8.56,0,0,1-1.89,5.67,6.14,6.14,0,0,1-9.53,0,9.47,9.47,0,0,1,0-11.35,6.13,6.13,0,0,1,8.63-.89h0a6.8,6.8,0,0,1,.89.89Zm-7.3,1.8a8,8,0,0,0,0,7.72,2.92,2.92,0,0,0,4,1.1,3.05,3.05,0,0,0,1.1-1.1,7,7,0,0,0,1-3.84,7.11,7.11,0,0,0-1-3.87A2.92,2.92,0,0,0,51,83.57,2.84,2.84,0,0,0,48.42,85.07Z"/><g id="fb4bfe8d-f4e6-46a8-a2eb-630d5544826e" data-name="a8eca035-14c7-4532-9261-ad6a656229d1"><path class="bdad130c-b116-4db6-b344-5daca205a9e4" d="M38.07,74.69h-.43l-.46,1.56a3.51,3.51,0,0,1-.72.07,2.5,2.5,0,0,1-.82-.1v-.09L38,68.93a8.26,8.26,0,0,1,1-.06,5.67,5.67,0,0,1,1,.07l2.32,7.21a1.7,1.7,0,0,1-.85.21,1.12,1.12,0,0,1-.78-.2,1.4,1.4,0,0,1-.39-.74l-.2-.71h-.42Zm0-1.35h1.57l-.22-.67c-.17-.6-.37-1.34-.59-2.21h-.06c-.06.31-.23,1-.52,2Z"/></g><g id="e08e80b8-d652-4dc1-be38-ba3ead070112" data-name="f0063aaf-9969-4b11-b0ba-f2c6496c91bd"><path class="b5f46737-eb15-4c9f-bcb5-c242917e6d91" d="M37.85,74.69h-.43L37,76.25a3.49,3.49,0,0,1-.71.07,2.38,2.38,0,0,1-.84-.12v-.09l2.36-7.18a8.26,8.26,0,0,1,1-.06,5.67,5.67,0,0,1,1,.07l2.32,7.21a1.7,1.7,0,0,1-.85.21,1.12,1.12,0,0,1-.78-.2,1.4,1.4,0,0,1-.39-.74l-.2-.71h-2Zm0-1.35h1.57l-.18-.67c-.17-.6-.37-1.34-.59-2.21h0c-.06.31-.23,1-.52,2Z"/></g><circle class="e6e6e4ee-199d-48cd-b3bb-8b364f341937" cx="116.08" cy="88.76" r="25.7"/><circle class="b5c870b9-b6d1-4f04-8663-95a2ad629ef5" cx="116.3" cy="88.44" r="21.26"/><path class="acacaca5-5617-4d97-9c53-060a6d2e862b" d="M95.64,89.12a21.22,21.22,0,0,1,30.3-19.19,21.22,21.22,0,0,0-18.92,38h0A21.18,21.18,0,0,1,95.64,89.12Z"/><path class="f9365ae5-aac9-4edd-8724-c9967bc0f4ba" d="M125.91,69.93a21.22,21.22,0,1,1-18.92,38A21.21,21.21,0,0,0,127.2,70.64l-.27-.15-1-.51Z"/><path class="ef42c6c0-8a9a-471b-9683-d067ee368613" d="M115.83,108.66a19.44,19.44,0,0,1-9.19-2.73A19.71,19.71,0,0,1,100,99.31a19.32,19.32,0,0,0,7,5.94,18.17,18.17,0,0,0,8.82,1.86Z"/><path class="a931a823-ab17-4dac-8fc1-57d98e7bf1e0" d="M117,107.11a18.18,18.18,0,0,0,8.81-1.86,19.49,19.49,0,0,0,7-5.94,19.8,19.8,0,0,1-6.66,6.62,19.5,19.5,0,0,1-9.18,2.73Z"/><path class="acacaca5-5617-4d97-9c53-060a6d2e862b" d="M101.64,81.49h2.85V96.81h-3.07V84.44l-2.9,1.65-1.24-2.31Z"/><path class="acacaca5-5617-4d97-9c53-060a6d2e862b" d="M118.42,83.51a8.46,8.46,0,0,1,1.89,5.65,8.56,8.56,0,0,1-1.89,5.67,6.14,6.14,0,0,1-9.53,0,9.47,9.47,0,0,1,0-11.35,6.13,6.13,0,0,1,8.63-.89h0a6.8,6.8,0,0,1,.89.89Zm-7.26,1.8a8,8,0,0,0,0,7.72,2.92,2.92,0,0,0,4,1.1,3.05,3.05,0,0,0,1.1-1.1,7,7,0,0,0,1-3.83,7.15,7.15,0,0,0-1-3.88,2.92,2.92,0,0,0-2.52-1.51,2.86,2.86,0,0,0-2.53,1.5Z"/><path class="acacaca5-5617-4d97-9c53-060a6d2e862b" d="M133.92,83.51a8.46,8.46,0,0,1,1.89,5.65,8.56,8.56,0,0,1-1.89,5.67,6.14,6.14,0,0,1-9.53,0,9.47,9.47,0,0,1,0-11.35,6.13,6.13,0,0,1,8.63-.89h0a6.8,6.8,0,0,1,.89.89Zm-7.26,1.8a8,8,0,0,0,0,7.72,2.92,2.92,0,0,0,4,1.1,3.05,3.05,0,0,0,1.1-1.1,7,7,0,0,0,1-3.83,7.15,7.15,0,0,0-1-3.88,2.92,2.92,0,0,0-2.52-1.51,2.87,2.87,0,0,0-2.58,1.5Z"/><path class="a2e079c0-64ae-4616-8fa6-266a165ec90d" d="M101.35,81.22h2.85V96.54h-3.12V84.22l-2.86,1.65L97,83.56Z"/><path class="a2e079c0-64ae-4616-8fa6-266a165ec90d" d="M118.21,83.27a8.43,8.43,0,0,1,1.89,5.66,8.56,8.56,0,0,1-1.89,5.67,6.14,6.14,0,0,1-9.53,0,9.47,9.47,0,0,1,0-11.37,6.13,6.13,0,0,1,8.63-.89h0a6.8,6.8,0,0,1,.89.89ZM111,85.07a8,8,0,0,0,0,7.72,2.92,2.92,0,0,0,4,1.1,3.05,3.05,0,0,0,1.1-1.1A7,7,0,0,0,117,89a7.11,7.11,0,0,0-1-3.87,2.92,2.92,0,0,0-2.52-1.51A2.86,2.86,0,0,0,111,85.07Z"/><path class="a2e079c0-64ae-4616-8fa6-266a165ec90d" d="M133.64,83.27a8.43,8.43,0,0,1,1.89,5.66,8.56,8.56,0,0,1-1.89,5.67,6.14,6.14,0,0,1-9.53,0,9.47,9.47,0,0,1,0-11.35,6.13,6.13,0,0,1,8.63-.89h0a6.8,6.8,0,0,1,.89.89Zm-7.22,1.8a8,8,0,0,0,0,7.72,2.92,2.92,0,0,0,4,1.1,3.05,3.05,0,0,0,1.1-1.1,7,7,0,0,0,.92-3.86,7.11,7.11,0,0,0-1-3.87,2.92,2.92,0,0,0-2.52-1.51,2.86,2.86,0,0,0-2.52,1.5Z"/><g id="bb5c8bf2-c2d3-47aa-9230-54214d130bec" data-name="b016c8b8-3cc5-4c6a-b050-e913184786c8"><path class="bdad130c-b116-4db6-b344-5daca205a9e4" d="M116,74.69h-.43l-.46,1.53a3.51,3.51,0,0,1-.72.07,2.38,2.38,0,0,1-.84-.12v-.09l2.36-7.2a8.26,8.26,0,0,1,1-.06,5.67,5.67,0,0,1,1,.07l2.32,7.21a1.7,1.7,0,0,1-.85.21,1.12,1.12,0,0,1-.78-.2,1.4,1.4,0,0,1-.39-.74l-.2-.71h-.42Zm0-1.35h1.61l-.19-.67c-.17-.6-.37-1.34-.59-2.21h-.06c-.06.31-.23,1-.52,2Z"/></g><g id="b3467564-5257-4680-b985-82d6e41a517e" data-name="f7d0ebca-f872-4ca5-82ef-a4e208bcdb4d"><path class="b5f46737-eb15-4c9f-bcb5-c242917e6d91" d="M115.81,74.69h-.39L115,76.25a3.51,3.51,0,0,1-.72.07,2.38,2.38,0,0,1-.84-.12v-.09l2.36-7.2a8.26,8.26,0,0,1,1-.06,5.67,5.67,0,0,1,1,.07l2.32,7.21a1.7,1.7,0,0,1-.85.21,1.12,1.12,0,0,1-.78-.2,1.4,1.4,0,0,1-.39-.74l-.2-.71h-2Zm0-1.35h1.61l-.18-.67c-.17-.6-.37-1.34-.59-2.21h-.06c-.06.31-.23,1-.52,2Z"/></g></g></g></g></g></svg>