<svg xmlns="http://www.w3.org/2000/svg" viewBox="0 0 154.2 119.39"><defs><style>.a0e5446d-2e23-4373-97fb-6f38b09dfc6d{fill:none;}.aa2fa346-f98a-4cbf-a567-53c900e58d7b{fill:#9b935c;}.a5ebc635-17e0-4bb8-ba2f-2897dde208a6{fill:#d1c671;}.a5154493-0c41-482d-9686-a9cd0a64c4f3{fill:#777329;}.a46fef9e-3586-4a48-ac9d-1a92b8790e4e{fill:#eae3b0;}.fc944cc4-08e7-49a6-a593-61c1af271119{fill:#e0d8a2;}.aa77385f-bf24-46c1-a7c9-0126a2b3ac70{fill:#a59956;}.ac194143-0d15-4b1d-83e3-3bd6232fd2d8{fill:#999367;}.b6a60786-af98-4dd2-a3df-1a6ef005797e{fill:#f9f2b2;}.a3aac3e4-9726-480c-837d-7d83b8dbc27b{fill:#a39b62;}.ba4ae514-1dd3-414d-b7e3-2239f3410a9d{fill:#fff2b0;}</style></defs><title>10 5</title><g id="a4f89d49-09e3-494a-9bb5-e83ef4e49b51" data-name="Capa 2"><g id="a484459d-11ed-4445-9abe-642598aae0ce" data-name="Capa 1"><rect class="a0e5446d-2e23-4373-97fb-6f38b09dfc6d" width="154.2" height="119.39"/><g id="ad320728-c282-47a4-b429-3853ed4f0b55" data-name="ba3a48a1-0108-4c57-a7bb-70c672e38dce"><g id="b6e0ed49-f6ed-4f5a-bfe0-d0fa31e679e9" data-name="b79945fa-2273-422b-9701-9f2e315a3335"><circle class="aa2fa346-f98a-4cbf-a567-53c900e58d7b" cx="25.11" cy="19.92" r="19.92"/><circle class="a5ebc635-17e0-4bb8-ba2f-2897dde208a6" cx="25.11" cy="19.92" r="16.43"/><path class="a5154493-0c41-482d-9686-a9cd0a64c4f3" d="M9.24,20.16A16.45,16.45,0,0,1,32.72,5.31,16.44,16.44,0,0,0,17.11,34.25l.23.12q.36.2.72.36A16.45,16.45,0,0,1,9.24,20.16Z"/><path class="a46fef9e-3586-4a48-ac9d-1a92b8790e4e" d="M32.72,5.35A16.44,16.44,0,0,1,18.06,34.77,16.44,16.44,0,0,0,33.44,5.71Q33.08,5.52,32.72,5.35Z"/><path class="fc944cc4-08e7-49a6-a593-61c1af271119" d="M24.91,35.34a14.94,14.94,0,0,1-7.12-2.11,15.25,15.25,0,0,1-5.16-5.13,15,15,0,0,0,5.45,4.6,14,14,0,0,0,6.83,1.46Z"/><path class="aa77385f-bf24-46c1-a7c9-0126a2b3ac70" d="M25.81,34.16a14.05,14.05,0,0,0,6.83-1.45,15,15,0,0,0,5.45-4.6,15.25,15.25,0,0,1-5.16,5.13,14.94,14.94,0,0,1-7.12,2.11Z"/><path class="ac194143-0d15-4b1d-83e3-3bd6232fd2d8" d="M18.19,13h3V28.9H17.91V16.07l-3,1.72-1.28-2.4Z"/><path class="ac194143-0d15-4b1d-83e3-3bd6232fd2d8" d="M35.64,15.16a9.78,9.78,0,0,1,0,11.74,6.4,6.4,0,0,1-9,.87,6,6,0,0,1-.87-.87,9.77,9.77,0,0,1,0-11.77,6.38,6.38,0,0,1,9.88,0ZM28.11,17a8.41,8.41,0,0,0,0,8,3,3,0,0,0,5.27,0,7.21,7.21,0,0,0,1-4,7.29,7.29,0,0,0-1-4,3,3,0,0,0-5.27,0Z"/><path class="b6a60786-af98-4dd2-a3df-1a6ef005797e" d="M18,12.83h3V28.71H17.72V15.89l-3,1.71-1.27-2.44Z"/><path class="b6a60786-af98-4dd2-a3df-1a6ef005797e" d="M35.45,14.92a9.78,9.78,0,0,1,0,11.74,6.4,6.4,0,0,1-9,.87,6,6,0,0,1-.87-.87,9.81,9.81,0,0,1,0-11.76,6.37,6.37,0,0,1,9-1l0,0a5.72,5.72,0,0,1,.92.92Zm-7.53,1.87a7.29,7.29,0,0,0-1,4,7.13,7.13,0,0,0,1,4,3,3,0,0,0,5.26,0,8.41,8.41,0,0,0,0-8,3,3,0,0,0-5.26,0Z"/><g id="a2e4fcd6-f951-49a5-bd7d-65a8a09575ba" data-name="e3e404ee-e339-4b51-85eb-4c911c0b2b32"><path class="a3aac3e4-9726-480c-837d-7d83b8dbc27b" d="M25.07,9h-.34l-.39,1.2a2.62,2.62,0,0,1-.56,0,1.8,1.8,0,0,1-.65-.09h0L25,4.52a4.7,4.7,0,0,1,.75,0,3.51,3.51,0,0,1,.79.06l1.84,5.58a1.23,1.23,0,0,1-.65.16,1,1,0,0,1-.61-.15,1.16,1.16,0,0,1-.3-.58L26.62,9H25.07Zm0-1h1.24l-.12-.51c-.13-.47-.29-1-.46-1.71h0a12.33,12.33,0,0,1-.4,1.59Z"/></g><g id="b524fd5c-349a-4662-9544-dea66583b8cd" data-name="a602facf-9f63-4616-ae31-482e505e346f"><path class="ba4ae514-1dd3-414d-b7e3-2239f3410a9d" d="M24.89,9h-.33l-.37,1.22a2.53,2.53,0,0,1-.55,0,1.8,1.8,0,0,1-.65-.09v-.07l1.83-5.58a4.69,4.69,0,0,1,.75,0,3.51,3.51,0,0,1,.79.06l1.75,5.57a1.27,1.27,0,0,1-.66.16.92.92,0,0,1-.6-.15,1.16,1.16,0,0,1-.3-.58L26.4,9Zm0-1h1.24L26,7.48c-.14-.47-.29-1-.46-1.71h-.05a12.33,12.33,0,0,1-.4,1.59Z"/></g><circle class="aa2fa346-f98a-4cbf-a567-53c900e58d7b" cx="129.09" cy="19.92" r="19.92"/><circle class="a5ebc635-17e0-4bb8-ba2f-2897dde208a6" cx="129.09" cy="19.92" r="16.43"/><path class="a5154493-0c41-482d-9686-a9cd0a64c4f3" d="M113.19,20.16A16.45,16.45,0,0,1,136.7,5.31,16.45,16.45,0,0,0,122,34.77,16.43,16.43,0,0,1,113.19,20.16Z"/><path class="a46fef9e-3586-4a48-ac9d-1a92b8790e4e" d="M136.7,5.35A16.44,16.44,0,0,1,122,34.77,16.44,16.44,0,0,0,137.42,5.71Q137.06,5.52,136.7,5.35Z"/><path class="fc944cc4-08e7-49a6-a593-61c1af271119" d="M128.89,35.34a14.94,14.94,0,0,1-7.12-2.11,15.25,15.25,0,0,1-5.16-5.13,15,15,0,0,0,5.45,4.6,14,14,0,0,0,6.83,1.46Z"/><path class="aa77385f-bf24-46c1-a7c9-0126a2b3ac70" d="M129.79,34.16a14.05,14.05,0,0,0,6.83-1.45,15,15,0,0,0,5.45-4.6,15.25,15.25,0,0,1-5.16,5.13,14.94,14.94,0,0,1-7.12,2.11Z"/><path class="ac194143-0d15-4b1d-83e3-3bd6232fd2d8" d="M122.13,13h3V28.9h-3.24V16.07l-3,1.72-1.27-2.4Z"/><path class="ac194143-0d15-4b1d-83e3-3bd6232fd2d8" d="M139.62,15.16a9.78,9.78,0,0,1,0,11.74,6.4,6.4,0,0,1-9,.87,6,6,0,0,1-.87-.87,9.83,9.83,0,0,1,0-11.77,6.38,6.38,0,0,1,9.88,0ZM132.09,17a8.38,8.38,0,0,0-.05,8,3,3,0,0,0,5.27,0,7.21,7.21,0,0,0,1-4,7.29,7.29,0,0,0-1-4,3,3,0,0,0-4.09-1.13A3.06,3.06,0,0,0,132.09,17Z"/><path class="b6a60786-af98-4dd2-a3df-1a6ef005797e" d="M121.94,12.83h3V28.71H121.7V15.89l-3,1.71-1.27-2.44Z"/><path class="b6a60786-af98-4dd2-a3df-1a6ef005797e" d="M139.43,14.92a9.78,9.78,0,0,1,0,11.74,6.4,6.4,0,0,1-9,.87,6,6,0,0,1-.87-.87,9.81,9.81,0,0,1,0-11.76,6.37,6.37,0,0,1,9-1l0,0a5.72,5.72,0,0,1,.92.92Zm-7.53,1.87a7.29,7.29,0,0,0-1,4,7.13,7.13,0,0,0,1,4,3,3,0,0,0,5.26,0,7.13,7.13,0,0,0,1-4,7.29,7.29,0,0,0-1-4,3,3,0,0,0-5.26,0Z"/><g id="b8a11fab-beff-438a-9efd-0e34d63c7900" data-name="a15e8f2a-bad0-4ecd-a821-dabfa9df25ab"><path class="a3aac3e4-9726-480c-837d-7d83b8dbc27b" d="M129.05,9h-.34l-.37,1.2a2.62,2.62,0,0,1-.56,0,1.8,1.8,0,0,1-.65-.09h0L129,4.52a4.82,4.82,0,0,1,.76,0,5.12,5.12,0,0,1,.78.06l1.77,5.58a1.23,1.23,0,0,1-.65.16,1,1,0,0,1-.61-.15,1.16,1.16,0,0,1-.3-.58L130.55,9Zm0-1h1.24l-.1-.51c-.13-.47-.29-1-.46-1.71h0a9.74,9.74,0,0,1-.4,1.59Z"/></g><g id="aee72847-8591-4bc1-8d39-7f0efffe8e37" data-name="a9864d83-8ed7-4e0a-8003-f3103d42e73c"><path class="ba4ae514-1dd3-414d-b7e3-2239f3410a9d" d="M128.88,9h-.34l-.35,1.22a2.62,2.62,0,0,1-.56,0,1.8,1.8,0,0,1-.65-.09v-.07l1.83-5.58a4.69,4.69,0,0,1,.75,0,3.51,3.51,0,0,1,.79.06l1.75,5.57a1.27,1.27,0,0,1-.66.16.92.92,0,0,1-.6-.15,1.16,1.16,0,0,1-.3-.58L130.38,9Zm0-1h1.24L130,7.48c-.13-.47-.29-1-.46-1.71h0a12.33,12.33,0,0,1-.4,1.59Z"/></g><circle class="aa2fa346-f98a-4cbf-a567-53c900e58d7b" cx="77.1" cy="59.77" r="19.92"/><circle class="a5ebc635-17e0-4bb8-ba2f-2897dde208a6" cx="77.1" cy="59.77" r="16.43"/><path class="a5154493-0c41-482d-9686-a9cd0a64c4f3" d="M61.19,60.06A16.44,16.44,0,0,1,77.63,43.62h0a16.33,16.33,0,0,1,7,1.59,16.14,16.14,0,0,0-7.61-1.87,16.43,16.43,0,0,0-7,31.28A16.42,16.42,0,0,1,61.19,60.06Z"/><path class="a46fef9e-3586-4a48-ac9d-1a92b8790e4e" d="M84.71,45.21A16.43,16.43,0,0,1,70.05,74.62,16.43,16.43,0,0,0,84.71,45.21Z"/><path class="fc944cc4-08e7-49a6-a593-61c1af271119" d="M76.9,75.16A15.08,15.08,0,0,1,69.78,73a15.25,15.25,0,0,1-5.16-5.13,15.09,15.09,0,0,0,5.45,4.61A14.18,14.18,0,0,0,76.9,74Z"/><path class="aa77385f-bf24-46c1-a7c9-0126a2b3ac70" d="M77.8,74a14.16,14.16,0,0,0,6.83-1.44A15,15,0,0,0,90.08,68a15.25,15.25,0,0,1-5.16,5.13,15.06,15.06,0,0,1-7.12,2.12Z"/><path class="ac194143-0d15-4b1d-83e3-3bd6232fd2d8" d="M70.19,52.87h3V68.75H69.9V55.93l-3,1.71-1.27-2.4Z"/><path class="ac194143-0d15-4b1d-83e3-3bd6232fd2d8" d="M87.63,55a9.78,9.78,0,0,1,0,11.74,6.4,6.4,0,0,1-9,.87,6,6,0,0,1-.87-.87,9.83,9.83,0,0,1,0-11.77,6.38,6.38,0,0,1,9.88,0ZM80.1,56.87a8.41,8.41,0,0,0,0,8,3,3,0,0,0,5.27,0,8.41,8.41,0,0,0,0-8,3,3,0,0,0-4.09-1.13,3.06,3.06,0,0,0-1.13,1.13Z"/><path class="b6a60786-af98-4dd2-a3df-1a6ef005797e" d="M70,52.68h3V68.57H69.71V55.74l-3,1.71-1.27-2.39Z"/><path class="b6a60786-af98-4dd2-a3df-1a6ef005797e" d="M87.44,54.78a9.6,9.6,0,0,1,0,11.74,6.4,6.4,0,0,1-9,.87,6,6,0,0,1-.87-.87,9.83,9.83,0,0,1,0-11.77,6.36,6.36,0,0,1,9-.93h0a6.81,6.81,0,0,1,.93.93Zm-7.53,1.87a8.35,8.35,0,0,0,0,8,3,3,0,0,0,5.26,0,8.41,8.41,0,0,0,0-8,3,3,0,0,0-5.26,0Z"/><g id="fed2fd2a-e619-4bfa-a174-af6e4095575e" data-name="bc82cb4c-b78d-4efc-a577-afefd44509c3"><path class="a3aac3e4-9726-480c-837d-7d83b8dbc27b" d="M77.06,48.87h-.34l-.35,1.21a2.62,2.62,0,0,1-.56,0,1.86,1.86,0,0,1-.62-.08v-.06L77,44.36a4.82,4.82,0,0,1,.76,0,5.08,5.08,0,0,1,.78,0L80.35,50a1.23,1.23,0,0,1-.65.16,1,1,0,0,1-.61-.15,1.17,1.17,0,0,1-.3-.57l-.16-.55h-1.5Zm0-1H78.3l-.11-.52c-.13-.46-.29-1-.46-1.71h0a12.33,12.33,0,0,1-.4,1.59Z"/></g><g id="f1f110f2-9e53-4f73-b6bf-e2ac6145ffcb" data-name="afbc1e0e-9367-4634-b00f-5503f5161897"><path class="ba4ae514-1dd3-414d-b7e3-2239f3410a9d" d="M76.88,48.87h-.33l-.36,1.21a2.53,2.53,0,0,1-.55,0A2.05,2.05,0,0,1,75,50v-.06l1.83-5.58a4.69,4.69,0,0,1,.75,0,5.21,5.21,0,0,1,.79,0l1.83,5.59a1.27,1.27,0,0,1-.66.16.92.92,0,0,1-.6-.15,1.17,1.17,0,0,1-.3-.57l-.16-.55H76.92Zm0-1h1.24L78,47.35c-.13-.46-.29-1-.46-1.71h0a12.33,12.33,0,0,1-.4,1.59Z"/></g><circle class="aa2fa346-f98a-4cbf-a567-53c900e58d7b" cx="25.11" cy="99.47" r="19.92"/><circle class="a5ebc635-17e0-4bb8-ba2f-2897dde208a6" cx="25.11" cy="99.47" r="16.43"/><path class="a5154493-0c41-482d-9686-a9cd0a64c4f3" d="M9.24,99.76A16.44,16.44,0,0,1,25.68,83.32h0a16.33,16.33,0,0,1,7,1.59A16.15,16.15,0,0,0,25.07,83a16.43,16.43,0,0,0-7,31.28A16.44,16.44,0,0,1,9.24,99.76Z"/><path class="a46fef9e-3586-4a48-ac9d-1a92b8790e4e" d="M32.72,84.91a16.43,16.43,0,0,1-14.66,29.41A16.43,16.43,0,0,0,32.72,84.91Z"/><path class="fc944cc4-08e7-49a6-a593-61c1af271119" d="M24.91,114.9a15.06,15.06,0,0,1-7.12-2.12,15.25,15.25,0,0,1-5.16-5.13,15.09,15.09,0,0,0,5.45,4.61,14.16,14.16,0,0,0,6.83,1.44Z"/><path class="aa77385f-bf24-46c1-a7c9-0126a2b3ac70" d="M25.81,113.7a14.16,14.16,0,0,0,6.83-1.44,15.09,15.09,0,0,0,5.45-4.61,15.25,15.25,0,0,1-5.16,5.13,15.06,15.06,0,0,1-7.12,2.12Z"/><path class="ac194143-0d15-4b1d-83e3-3bd6232fd2d8" d="M18.19,92.57h3v15.88H17.91V95.63l-3,1.71-1.28-2.4Z"/><path class="ac194143-0d15-4b1d-83e3-3bd6232fd2d8" d="M35.64,94.66a9.78,9.78,0,0,1,0,11.74,6.4,6.4,0,0,1-9,.87,6,6,0,0,1-.87-.87,9.77,9.77,0,0,1,0-11.77,6.38,6.38,0,0,1,9.88,0Zm-7.53,1.87a8.41,8.41,0,0,0,0,8,3,3,0,0,0,5.27,0,8.41,8.41,0,0,0,0-8,3,3,0,0,0-5.27,0Z"/><path class="b6a60786-af98-4dd2-a3df-1a6ef005797e" d="M18,92.38h3v15.89H17.72V95.44l-3,1.71-1.27-2.39Z"/><path class="b6a60786-af98-4dd2-a3df-1a6ef005797e" d="M35.45,94.48a8.71,8.71,0,0,1,2,5.85,8.94,8.94,0,0,1-2,5.89,6.4,6.4,0,0,1-9,.87,6,6,0,0,1-.87-.87,9.83,9.83,0,0,1,0-11.77,6.36,6.36,0,0,1,8.94-1l.06,0a6.81,6.81,0,0,1,.93.93Zm-7.53,1.87a8.35,8.35,0,0,0,0,8,3,3,0,0,0,5.26,0,8.41,8.41,0,0,0,0-8,3,3,0,0,0-5.26,0Z"/><g id="f4e9c96f-4639-4cf8-bf3d-ead59b134bbf" data-name="ecd69b01-96e5-42c0-ac7c-e1f65cc33429"><path class="a3aac3e4-9726-480c-837d-7d83b8dbc27b" d="M25.07,88.57h-.34l-.35,1.21a2.62,2.62,0,0,1-.56,0,1.8,1.8,0,0,1-.65-.09v-.06L25,84.05a4.69,4.69,0,0,1,.75,0,5.21,5.21,0,0,1,.79,0l1.79,5.59a1.23,1.23,0,0,1-.65.16,1,1,0,0,1-.61-.15,1.17,1.17,0,0,1-.3-.57l-.16-.55h-1.5Zm0-1h1.24l-.12-.52c-.13-.46-.29-1-.46-1.71h0a12.33,12.33,0,0,1-.4,1.59Z"/></g><g id="b3d9a89e-25b5-4fc6-a793-5a032fe82dfb" data-name="f67a369d-c9c7-4e4d-91d5-e9069b670b44"><path class="ba4ae514-1dd3-414d-b7e3-2239f3410a9d" d="M24.89,88.57h-.33l-.37,1.21a2.53,2.53,0,0,1-.55,0,1.8,1.8,0,0,1-.65-.09v-.06l1.83-5.58a4.69,4.69,0,0,1,.75,0,5.21,5.21,0,0,1,.79,0l1.83,5.59a1.27,1.27,0,0,1-.66.16.92.92,0,0,1-.6-.15,1.17,1.17,0,0,1-.3-.57l-.16-.55H24.93Zm0-1h1.24L26,87.05c-.14-.46-.29-1-.46-1.71h-.05a12.33,12.33,0,0,1-.4,1.59Z"/></g><circle class="aa2fa346-f98a-4cbf-a567-53c900e58d7b" cx="129.09" cy="99.47" r="19.92"/><circle class="a5ebc635-17e0-4bb8-ba2f-2897dde208a6" cx="129.09" cy="99.47" r="16.43"/><path class="a5154493-0c41-482d-9686-a9cd0a64c4f3" d="M113.19,99.76a16.44,16.44,0,0,1,16.44-16.44h0a16.33,16.33,0,0,1,7,1.59A16.18,16.18,0,0,0,129.05,83a16.43,16.43,0,0,0-7,31.28A16.46,16.46,0,0,1,113.19,99.76Z"/><path class="a46fef9e-3586-4a48-ac9d-1a92b8790e4e" d="M136.7,84.91A16.43,16.43,0,0,1,122,114.32h0A16.43,16.43,0,0,0,136.7,84.91Z"/><path class="fc944cc4-08e7-49a6-a593-61c1af271119" d="M128.89,114.9a15.06,15.06,0,0,1-7.12-2.12,15.25,15.25,0,0,1-5.16-5.13,15.09,15.09,0,0,0,5.45,4.61,14.16,14.16,0,0,0,6.83,1.44Z"/><path class="aa77385f-bf24-46c1-a7c9-0126a2b3ac70" d="M129.79,113.7a14.16,14.16,0,0,0,6.83-1.44,15.09,15.09,0,0,0,5.45-4.61,15.25,15.25,0,0,1-5.16,5.13,15.06,15.06,0,0,1-7.12,2.12Z"/><path class="ac194143-0d15-4b1d-83e3-3bd6232fd2d8" d="M122.13,92.57h3v15.88h-3.24V95.63l-3,1.71-1.27-2.4Z"/><path class="ac194143-0d15-4b1d-83e3-3bd6232fd2d8" d="M139.62,94.66a9.78,9.78,0,0,1,0,11.74,6.4,6.4,0,0,1-9,.87,6,6,0,0,1-.87-.87,9.83,9.83,0,0,1,0-11.77,6.38,6.38,0,0,1,9.88,0Zm-7.53,1.87a8.41,8.41,0,0,0-.05,8,3,3,0,0,0,5.27,0,8.41,8.41,0,0,0,0-8,3,3,0,0,0-4.09-1.13A3.06,3.06,0,0,0,132.09,96.53Z"/><path class="b6a60786-af98-4dd2-a3df-1a6ef005797e" d="M121.94,92.38h3v15.89H121.7V95.44l-3,1.71-1.27-2.39Z"/><path class="b6a60786-af98-4dd2-a3df-1a6ef005797e" d="M139.43,94.48a8.71,8.71,0,0,1,2,5.85,8.83,8.83,0,0,1-2,5.89,6.4,6.4,0,0,1-9,.87,6,6,0,0,1-.87-.87,9.83,9.83,0,0,1,0-11.77,6.36,6.36,0,0,1,8.94-1l.06,0a6.81,6.81,0,0,1,.93.93Zm-7.53,1.87a8.35,8.35,0,0,0,0,8,3,3,0,0,0,5.26,0,7.13,7.13,0,0,0,1-4,7.21,7.21,0,0,0-1-4,3,3,0,0,0-5.26,0Z"/><g id="a0ddc3ba-1413-453d-bdb7-89a8809d3478" data-name="ebdd485a-fdf0-4485-a6f5-971dab10b6c8"><path class="a3aac3e4-9726-480c-837d-7d83b8dbc27b" d="M129.05,88.57h-.34l-.35,1.21a2.62,2.62,0,0,1-.56,0,1.8,1.8,0,0,1-.65-.09v-.06L129,84.05a4.82,4.82,0,0,1,.76,0,5.08,5.08,0,0,1,.78,0l1.79,5.59a1.23,1.23,0,0,1-.65.16,1,1,0,0,1-.61-.15,1.17,1.17,0,0,1-.3-.57l-.16-.55h-1.5Zm0-1h1.24l-.14-.52c-.13-.46-.29-1-.46-1.71h0a9.74,9.74,0,0,1-.4,1.59Z"/></g><g id="ad1db30c-35bf-433d-9def-8d95b8ddae7c" data-name="bb1c55db-4c11-4112-8c25-2329ff3adfa1"><path class="ba4ae514-1dd3-414d-b7e3-2239f3410a9d" d="M128.88,88.57h-.34l-.35,1.21a2.62,2.62,0,0,1-.56,0,1.8,1.8,0,0,1-.65-.09v-.06l1.83-5.58a4.69,4.69,0,0,1,.75,0,5.21,5.21,0,0,1,.79,0l1.84,5.59a1.27,1.27,0,0,1-.66.16.92.92,0,0,1-.6-.15,1.17,1.17,0,0,1-.3-.57l-.16-.55H129Zm0-1h1.24l-.14-.52c-.13-.46-.29-1-.46-1.71h0a12.33,12.33,0,0,1-.4,1.59Z"/></g></g></g></g></g></svg>