<svg xmlns="http://www.w3.org/2000/svg" viewBox="0 0 154.2 119.39"><defs><style>.b4acd00e-9ec5-4061-8506-f48d78d671ed{fill:none;}.a992958c-e7f6-4441-9556-ec3f3f30b78c{fill:#adadad;}.f504342f-fdd6-4bd3-ae5d-c8af15a11c61{fill:#bcbcbc;}.a5569afc-9188-4514-b7ed-6fdbda504dc5{fill:#848484;}.aa5107f9-fc34-4f98-9854-14c7ae2f16a5{fill:#f2f2f2;}.a5fa7098-074d-451e-a57f-5265c841a5bd{fill:#efefef;}.e0b53440-865c-45e8-a700-ad8147619b29{fill:#a2a2a3;}.a13d6228-a85b-4051-90fd-a6d1964224cb{fill:#dbdbdb;}</style></defs><title>1 7</title><g id="b795197f-c6f0-4643-930a-7e42976194ca" data-name="Capa 2"><g id="b6c54694-fcb9-472b-88b4-c5c7002b8469" data-name="Capa 1"><rect class="b4acd00e-9ec5-4061-8506-f48d78d671ed" width="154.2" height="119.39"/><g id="b6188d49-ea4f-45ee-ab21-f1bd114ffed9" data-name="b77b74ff-0ace-4b48-88ed-f72ad6935abf"><g id="bca865df-f75c-43aa-8273-69308760c7cd" data-name="bd277fe6-5f3e-4799-b8d4-1df78c888761"><path class="a992958c-e7f6-4441-9556-ec3f3f30b78c" d="M8.49,22.14v.78a15.2,15.2,0,0,0,2.76,8.77l.28.4a15.22,15.22,0,0,0,7.58,5.6h0a15.21,15.21,0,0,0,9.66,0h0A15.17,15.17,0,0,0,36.35,32l.26-.34A15.22,15.22,0,0,0,39.37,23v-.78a15.2,15.2,0,0,0-2.76-8.77l-.28-.4a15.13,15.13,0,0,0-7.58-5.66h0a15.21,15.21,0,0,0-9.66,0h0A15.13,15.13,0,0,0,11.49,13l-.28.4A15.18,15.18,0,0,0,8.49,22.14Z"/><path class="f504342f-fdd6-4bd3-ae5d-c8af15a11c61" d="M9.82,22.17v.72a13.81,13.81,0,0,0,2.52,8l.25.37a13.9,13.9,0,0,0,6.9,5.17h0a13.93,13.93,0,0,0,8.84,0h0a13.86,13.86,0,0,0,6.93-5.17l.25-.37a13.81,13.81,0,0,0,2.52-8v-.72a13.81,13.81,0,0,0-2.52-8l-.25-.37a13.83,13.83,0,0,0-6.93-5.11h0a13.93,13.93,0,0,0-8.84,0h0a13.83,13.83,0,0,0-6.88,5.14l-.25.37A13.88,13.88,0,0,0,9.82,22.17Z"/><path class="a5569afc-9188-4514-b7ed-6fdbda504dc5" d="M11.16,22.69A13.46,13.46,0,0,1,24.39,9h0a12.79,12.79,0,0,1,5.67,1.32,12.76,12.76,0,0,0-6.13-1.63A13.46,13.46,0,0,0,10.7,22.36h0a13.74,13.74,0,0,0,7.56,12.38A13.73,13.73,0,0,1,11.16,22.69Z"/><path class="aa5107f9-fc34-4f98-9854-14c7ae2f16a5" d="M30.07,10.28a13.72,13.72,0,0,1,7.11,12.13A13.47,13.47,0,0,1,23.94,36.09h0a13,13,0,0,1-5.68-1.31,12.93,12.93,0,0,0,6.14,1.55A13.48,13.48,0,0,0,37.61,22.69,13.73,13.73,0,0,0,30.07,10.28Z"/><path class="a5569afc-9188-4514-b7ed-6fdbda504dc5" d="M23.32,17.23h2.84V33H23.05V20.27L20.2,22,19,19.57Z"/><path class="a5fa7098-074d-451e-a57f-5265c841a5bd" d="M23.17,17.08H26V32.87H22.9V20.12l-2.85,1.7-1.22-2.38Z"/><g id="f2e2a2bc-7f65-4db7-aab1-c15d2a9a909f" data-name="b2b5509b-1f62-452a-8549-b024ccbed827"><path class="a992958c-e7f6-4441-9556-ec3f3f30b78c" d="M23.91,13.33h-.3l-.29,1a1.7,1.7,0,0,1-.45,0,1.82,1.82,0,0,1-.52-.08h0l1.47-4.68a3.11,3.11,0,0,1,.61,0,3.32,3.32,0,0,1,.63,0l1.43,4.68a1.09,1.09,0,0,1-.53.13.77.77,0,0,1-.47-.12.88.88,0,0,1-.24-.48l-.13-.46H23.91Zm0-.87h1L24.79,12c-.11-.39-.23-.86-.37-1.43h0a8.87,8.87,0,0,1-.32,1.33Z"/></g><g id="ac3da17c-b053-4854-ad79-6242e03f589f" data-name="a898a885-a167-4c2d-8c47-33c71e54fd2e"><path class="a5fa7098-074d-451e-a57f-5265c841a5bd" d="M23.77,13.33h-.28l-.29,1a1.7,1.7,0,0,1-.45,0,1.82,1.82,0,0,1-.52-.08h0l1.48-4.68a3.11,3.11,0,0,1,.61,0,3.31,3.31,0,0,1,.63,0l1.45,4.65a1.09,1.09,0,0,1-.53.13.85.85,0,0,1-.49-.12,1.09,1.09,0,0,1-.24-.48L25,13.29H23.77Zm0-.87h1L24.65,12c-.1-.39-.23-.86-.36-1.43h-.05a8.87,8.87,0,0,1-.32,1.33Z"/></g><path class="e0b53440-865c-45e8-a700-ad8147619b29" d="M24,35.31a12.14,12.14,0,0,1-8.75-4,12.87,12.87,0,0,1-3.35-8.89,12.72,12.72,0,0,0,3.58,8.65A11.6,11.6,0,0,0,24,34.57Z"/><path class="a13d6228-a85b-4051-90fd-a6d1964224cb" d="M24.32,34.57a11.6,11.6,0,0,0,8.5-3.51,12.67,12.67,0,0,0,3.6-8.65,12.76,12.76,0,0,1-3.35,8.89,12.14,12.14,0,0,1-8.75,4Z"/><path class="a992958c-e7f6-4441-9556-ec3f3f30b78c" d="M8.49,97.37h0a15.53,15.53,0,0,0,3,9.08h0a15.49,15.49,0,0,0,7.73,5.61h0a15.4,15.4,0,0,0,9.54,0h0a15.49,15.49,0,0,0,7.73-5.61h0a15.48,15.48,0,0,0,2.9-9.08h0a15.48,15.48,0,0,0-2.9-9.08h0a15.41,15.41,0,0,0-7.73-5.6h0a15.4,15.4,0,0,0-9.54,0h0a15.45,15.45,0,0,0-7.73,5.61h0A15.5,15.5,0,0,0,8.49,97.37Z"/><path class="f504342f-fdd6-4bd3-ae5d-c8af15a11c61" d="M9.82,97.37h0a14.14,14.14,0,0,0,2.67,8.3h0a14.23,14.23,0,0,0,7.07,5.13h0a14.12,14.12,0,0,0,8.72,0h0a14.23,14.23,0,0,0,7.07-5.13h0A14.13,14.13,0,0,0,38,97.37h0a14.13,14.13,0,0,0-2.69-8.3h0a14.08,14.08,0,0,0-7.07-5.14h0a14.12,14.12,0,0,0-8.72,0h0a14.08,14.08,0,0,0-7.07,5.14h0A14.14,14.14,0,0,0,9.82,97.37Z"/><path class="a5569afc-9188-4514-b7ed-6fdbda504dc5" d="M11.16,97.48a13.25,13.25,0,0,1,18.91-12A13.24,13.24,0,0,0,17.16,108.6l.47.25.63.32A13.24,13.24,0,0,1,11.16,97.48Z"/><path class="aa5107f9-fc34-4f98-9854-14c7ae2f16a5" d="M30.07,85.57a13.24,13.24,0,0,1-11.81,23.64A13.24,13.24,0,0,0,31.58,86.33,11.85,11.85,0,0,0,30.07,85.57Z"/><path class="a5569afc-9188-4514-b7ed-6fdbda504dc5" d="M23.32,92.25h2.84v15.32H23.05V95.19L20.2,96.84,19,94.57Z"/><path class="a5fa7098-074d-451e-a57f-5265c841a5bd" d="M23.17,92.09H26v15.28H22.9V95l-2.85,1.65-1.22-2.3Z"/><g id="b802eeac-32be-4fdc-bc4d-d628f3ca5d6f" data-name="e3d75436-2e57-4ed6-b154-f86b5dd5791b"><path class="a992958c-e7f6-4441-9556-ec3f3f30b78c" d="M23.91,88.47h-.3l-.29,1h-.45a1.82,1.82,0,0,1-.52-.08h0l1.47-4.5h.61a3.31,3.31,0,0,1,.63,0l1.43,4.45a1.09,1.09,0,0,1-.53.13.78.78,0,0,1-.49-.12.93.93,0,0,1-.24-.46l-.13-.45H23.91Zm0-.84h1l-.12-.42c-.11-.37-.23-.83-.37-1.38h0a8.26,8.26,0,0,1-.32,1.28Z"/></g><g id="af7c94f6-a6d8-4431-b26f-3f630d61d840" data-name="bda1ed6e-4036-4226-af44-504ea2723ad5"><path class="a5fa7098-074d-451e-a57f-5265c841a5bd" d="M23.77,88.47h-.28l-.29,1h-.45a1.82,1.82,0,0,1-.52-.08h0l1.47-4.5h.61a3.31,3.31,0,0,1,.63,0l1.45,4.5a1.09,1.09,0,0,1-.53.13.85.85,0,0,1-.49-.12,1,1,0,0,1-.24-.46L25,88.49H23.8Zm0-.84h1l-.12-.42c-.1-.37-.23-.83-.36-1.38h-.05a8.26,8.26,0,0,1-.32,1.28Z"/></g><path class="a13d6228-a85b-4051-90fd-a6d1964224cb" d="M24.32,109.05a11.89,11.89,0,0,0,8.44-3.32,12,12,0,0,0,3.66-8.44A12.15,12.15,0,0,1,33,106a12.41,12.41,0,0,1-8.68,3.77Z"/><path class="a992958c-e7f6-4441-9556-ec3f3f30b78c" d="M8.49,60.17h0a15.53,15.53,0,0,0,3,9.08h0a15.49,15.49,0,0,0,7.73,5.61h0a15.4,15.4,0,0,0,9.54,0h0a15.49,15.49,0,0,0,7.73-5.61h0a15.48,15.48,0,0,0,2.9-9.08h0a15.48,15.48,0,0,0-2.9-9.08h0a15.45,15.45,0,0,0-7.73-5.61h0a15.4,15.4,0,0,0-9.54,0h0a15.45,15.45,0,0,0-7.73,5.61h0A15.53,15.53,0,0,0,8.49,60.17Z"/><path class="f504342f-fdd6-4bd3-ae5d-c8af15a11c61" d="M9.82,60.17h0a14.14,14.14,0,0,0,2.67,8.3h0a14.2,14.2,0,0,0,7.09,5.1h0a14.12,14.12,0,0,0,8.72,0h0a14.23,14.23,0,0,0,7.07-5.13h0a14.13,14.13,0,0,0,2.69-8.3h0a14.13,14.13,0,0,0-2.69-8.3h0a14.17,14.17,0,0,0-7.07-5.18h0a14,14,0,0,0-8.69,0h0a14.08,14.08,0,0,0-7.07,5.14h0A14.07,14.07,0,0,0,9.82,60.17Z"/><path class="a5569afc-9188-4514-b7ed-6fdbda504dc5" d="M11.16,60.28a13.25,13.25,0,0,1,18.91-12A13.24,13.24,0,0,0,17.16,71.4l.47.25.63.32A13.24,13.24,0,0,1,11.16,60.28Z"/><path class="aa5107f9-fc34-4f98-9854-14c7ae2f16a5" d="M30.07,48.32A13.24,13.24,0,0,1,18.26,72,13.24,13.24,0,1,0,30.7,48.63Z"/><path class="a5569afc-9188-4514-b7ed-6fdbda504dc5" d="M23.32,55.05h2.84V70.32H23.05V58l-2.85,1.7L19,57.38Z"/><path class="a5fa7098-074d-451e-a57f-5265c841a5bd" d="M23.17,54.89H26V70.17H22.9V57.84l-2.85,1.64-1.22-2.3Z"/><g id="e692523e-9b81-4ff9-9cb3-0dc27a641714" data-name="be5bb8bf-9400-4293-8f0b-b5b6281460b1"><path class="a992958c-e7f6-4441-9556-ec3f3f30b78c" d="M23.91,51.27h-.3l-.29,1h-.45a1.82,1.82,0,0,1-.52-.08h0l1.47-4.5h.61a3.31,3.31,0,0,1,.63,0l1.43,4.45a1.09,1.09,0,0,1-.53.13.78.78,0,0,1-.49-.12.93.93,0,0,1-.24-.46l-.13-.45H23.91Zm0-.84h1L24.79,50c-.11-.37-.23-.83-.37-1.38h0a8.26,8.26,0,0,1-.32,1.28Z"/></g><g id="bfaad909-4bb2-4b1a-a75b-e4a2fb29430d" data-name="fe29f2bd-7fb2-4f96-886a-492f7ffa9503"><path class="a5fa7098-074d-451e-a57f-5265c841a5bd" d="M23.77,51.27h-.28l-.29,1h-.45a1.82,1.82,0,0,1-.52-.08h0l1.47-4.5h.61a3.31,3.31,0,0,1,.63,0l1.45,4.5a1.09,1.09,0,0,1-.53.13.85.85,0,0,1-.49-.12,1,1,0,0,1-.24-.46L25,51.29H23.8Zm0-.84h1L24.65,50c-.1-.37-.23-.83-.36-1.38h-.05a8.26,8.26,0,0,1-.32,1.28Z"/></g><path class="e0b53440-865c-45e8-a700-ad8147619b29" d="M24,72.57a12.46,12.46,0,0,1-8.67-3.8,12.22,12.22,0,0,1-3.43-8.68,12.07,12.07,0,0,0,3.67,8.48A11.86,11.86,0,0,0,24,71.89Z"/><path class="a13d6228-a85b-4051-90fd-a6d1964224cb" d="M24.32,71.85a11.85,11.85,0,0,0,12.1-11.72A12.15,12.15,0,0,1,33,68.81a12.4,12.4,0,0,1-8.68,3.76Z"/><path class="a992958c-e7f6-4441-9556-ec3f3f30b78c" d="M114.74,22.14v.78a15.19,15.19,0,0,0,2.75,8.77l.29.4a15.2,15.2,0,0,0,7.57,5.6h0a15.21,15.21,0,0,0,9.66,0h0a15.11,15.11,0,0,0,7.6-5.65l.28-.4a15.18,15.18,0,0,0,2.72-8.72v-.78a15.12,15.12,0,0,0-2.76-8.72l-.28-.4A15.13,15.13,0,0,0,135,7.36h0a15.21,15.21,0,0,0-9.66,0h0A15.11,15.11,0,0,0,117.76,13l-.29.4A15.19,15.19,0,0,0,114.74,22.14Z"/><path class="f504342f-fdd6-4bd3-ae5d-c8af15a11c61" d="M116.06,22.17v.72a13.81,13.81,0,0,0,2.52,8l.26.37a13.86,13.86,0,0,0,6.93,5.17h0a13.9,13.9,0,0,0,8.83,0h0a13.87,13.87,0,0,0,6.89-5.17l.26-.37a13.81,13.81,0,0,0,2.52-8v-.72a13.81,13.81,0,0,0-2.52-8l-.26-.37a13.76,13.76,0,0,0-6.92-5.11h0a13.9,13.9,0,0,0-8.83,0h0a13.86,13.86,0,0,0-6.93,5.17l-.26.37A13.83,13.83,0,0,0,116.06,22.17Z"/><path class="a5569afc-9188-4514-b7ed-6fdbda504dc5" d="M117.4,22.69A13.47,13.47,0,0,1,130.6,9h0a12.86,12.86,0,0,1,5.68,1.32,12.79,12.79,0,0,0-6.11-1.59A13.46,13.46,0,0,0,117,22.37a13.75,13.75,0,0,0,7.54,12.37A13.75,13.75,0,0,1,117.4,22.69Z"/><path class="aa5107f9-fc34-4f98-9854-14c7ae2f16a5" d="M136.32,10.28a13.76,13.76,0,0,1,7.1,12.13,13.47,13.47,0,0,1-13.24,13.68h0a13,13,0,0,1-5.69-1.31,13,13,0,0,0,6.1,1.55,13.47,13.47,0,0,0,13.27-13.64A13.71,13.71,0,0,0,136.32,10.28Z"/><path class="a5569afc-9188-4514-b7ed-6fdbda504dc5" d="M129.61,17.23h2.88V33h-3.12V20.27L126.49,22l-1.22-2.41Z"/><path class="a5fa7098-074d-451e-a57f-5265c841a5bd" d="M129.41,17.08h2.85V32.87h-3.12V20.12l-2.84,1.7-1.23-2.38Z"/><g id="e3052c0f-039d-4305-a74a-9480a6479c0a" data-name="a62ab12c-4d17-4afc-9e70-4756fa044143"><path class="a992958c-e7f6-4441-9556-ec3f3f30b78c" d="M130.15,13.33h-.27l-.29,1a1.69,1.69,0,0,1-.45,0,1.82,1.82,0,0,1-.52-.08h0l1.47-4.68a3.11,3.11,0,0,1,.61,0,3.31,3.31,0,0,1,.63,0l1.45,4.65a1.09,1.09,0,0,1-.53.13.85.85,0,0,1-.49-.12,1.09,1.09,0,0,1-.24-.48l-.13-.46h-1.24Zm0-.87h1L131,12c-.1-.39-.23-.86-.36-1.43h0a10.33,10.33,0,0,1-.33,1.33Z"/></g><g id="b23a27dd-59e0-47a3-a152-0ddc9fb607f3" data-name="f6c94c73-9e2d-44f5-8d54-286aa84bd8b2"><path class="a5fa7098-074d-451e-a57f-5265c841a5bd" d="M130,13.33h-.27l-.28,1a1.69,1.69,0,0,1-.45,0,1.89,1.89,0,0,1-.53-.08h0L130,9.57a3.11,3.11,0,0,1,.61,0,3.21,3.21,0,0,1,.62,0l1.42,4.65a1.09,1.09,0,0,1-.53.13.85.85,0,0,1-.49-.12,1.09,1.09,0,0,1-.24-.48l-.13-.46H130Zm0-.87h1L130.9,12c-.11-.39-.23-.86-.37-1.43h0a8.87,8.87,0,0,1-.32,1.33Z"/></g><path class="e0b53440-865c-45e8-a700-ad8147619b29" d="M130.26,35.31a12.14,12.14,0,0,1-8.75-4,12.87,12.87,0,0,1-3.35-8.89,12.67,12.67,0,0,0,3.6,8.65,11.6,11.6,0,0,0,8.5,3.51Z"/><path class="a13d6228-a85b-4051-90fd-a6d1964224cb" d="M130.61,34.57a11.58,11.58,0,0,0,8.49-3.51,12.68,12.68,0,0,0,3.61-8.65,12.87,12.87,0,0,1-3.35,8.89,12.14,12.14,0,0,1-8.75,4Z"/><path class="a992958c-e7f6-4441-9556-ec3f3f30b78c" d="M114.74,97.37h0a15.37,15.37,0,0,0,3,9.08h0a15.46,15.46,0,0,0,7.72,5.61h0a15.43,15.43,0,0,0,9.55,0h0a15.52,15.52,0,0,0,7.72-5.61h0a15.44,15.44,0,0,0,3-9.08h0a15.44,15.44,0,0,0-3-9.08h0A15.46,15.46,0,0,0,135,82.68h0a15.43,15.43,0,0,0-9.55,0h0a15.42,15.42,0,0,0-7.72,5.61h0A15.37,15.37,0,0,0,114.74,97.37Z"/><path class="f504342f-fdd6-4bd3-ae5d-c8af15a11c61" d="M116.06,97.37h0a14.07,14.07,0,0,0,2.7,8.3h0a14.1,14.1,0,0,0,7.06,5.13h0a14.15,14.15,0,0,0,8.73,0h0a14.21,14.21,0,0,0,7.06-5.11h0a14.14,14.14,0,0,0,2.7-8.3h0a14.14,14.14,0,0,0-2.7-8.3h0A14.06,14.06,0,0,0,134.55,84h0a14.15,14.15,0,0,0-8.73,0h0a14.06,14.06,0,0,0-7.06,5.14h0A14.06,14.06,0,0,0,116.06,97.37Z"/><path class="a5569afc-9188-4514-b7ed-6fdbda504dc5" d="M117.4,97.48a13.26,13.26,0,0,1,18.92-12,13.24,13.24,0,0,0-12.91,23.12l.47.25.63.32A13.27,13.27,0,0,1,117.4,97.48Z"/><path class="aa5107f9-fc34-4f98-9854-14c7ae2f16a5" d="M136.32,85.57a13.24,13.24,0,0,1-11.83,23.64,13.08,13.08,0,0,0,6.1,1.48,13.24,13.24,0,0,0,5.68-25.2Z"/><path class="a5569afc-9188-4514-b7ed-6fdbda504dc5" d="M129.61,92.25h2.88v15.32h-3.12V95.19l-2.88,1.65-1.22-2.27Z"/><path class="a5fa7098-074d-451e-a57f-5265c841a5bd" d="M129.41,92.09h2.85v15.28h-3.12V95l-2.84,1.65-1.23-2.3Z"/><g id="afaa126d-b82f-4336-973c-8f84052dfbbc" data-name="b80a38c0-ff33-4b43-94a8-dd2ecc0d9196"><path class="a992958c-e7f6-4441-9556-ec3f3f30b78c" d="M130.15,88.47h-.27l-.29,1h-.45a1.82,1.82,0,0,1-.52-.08h0l1.47-4.5h.61a3.31,3.31,0,0,1,.63,0l1.45,4.5a1.09,1.09,0,0,1-.53.13.85.85,0,0,1-.49-.12,1,1,0,0,1-.24-.46l-.13-.45h-1.21Zm0-.84h1l-.12-.42c-.1-.37-.23-.83-.36-1.38h0a9.62,9.62,0,0,1-.33,1.28Z"/></g><g id="e4413b90-bee1-40da-8544-16c2877f7091" data-name="e1b84a4e-93e4-4d88-8bd9-0c67475132b4"><path class="a5fa7098-074d-451e-a57f-5265c841a5bd" d="M130,88.47h-.27l-.28,1H129a1.89,1.89,0,0,1-.53-.08h0l1.48-4.5a3.11,3.11,0,0,1,.61,0,3.21,3.21,0,0,1,.62,0l1.45,4.5a1.09,1.09,0,0,1-.53.13.85.85,0,0,1-.49-.12,1,1,0,0,1-.24-.46l-.13-.45H130Zm0-.84h1l-.11-.42c-.11-.37-.23-.83-.37-1.38h0a8.26,8.26,0,0,1-.32,1.28Z"/></g><path class="e0b53440-865c-45e8-a700-ad8147619b29" d="M130.26,109.74a12.41,12.41,0,0,1-8.68-3.77,12.15,12.15,0,0,1-3.42-8.68,12,12,0,0,0,3.66,8.44,11.89,11.89,0,0,0,8.44,3.32Z"/><path class="a13d6228-a85b-4051-90fd-a6d1964224cb" d="M130.61,109.05a11.86,11.86,0,0,0,8.43-3.32,12.07,12.07,0,0,0,3.67-8.44,12.25,12.25,0,0,1-3.42,8.68,12.46,12.46,0,0,1-8.68,3.77Z"/><path class="a992958c-e7f6-4441-9556-ec3f3f30b78c" d="M114.74,60.17h0a15.37,15.37,0,0,0,3,9.08h0a15.48,15.48,0,0,0,7.75,5.61h0a15.43,15.43,0,0,0,9.55,0h0a15.52,15.52,0,0,0,7.72-5.61h0a15.44,15.44,0,0,0,3-9.08h0a15.44,15.44,0,0,0-3-9.08h0A15.46,15.46,0,0,0,135,45.48h0a15.43,15.43,0,0,0-9.55,0h0a15.42,15.42,0,0,0-7.72,5.61h0A15.4,15.4,0,0,0,114.74,60.17Z"/><path class="f504342f-fdd6-4bd3-ae5d-c8af15a11c61" d="M116.06,60.17h0a14.07,14.07,0,0,0,2.7,8.3h0a14.13,14.13,0,0,0,7.06,5.1h0a14.15,14.15,0,0,0,8.73,0h0a14.14,14.14,0,0,0,7.06-5.13h0a14.14,14.14,0,0,0,2.7-8.3h0a14.14,14.14,0,0,0-2.7-8.3h0a14.19,14.19,0,0,0-7.06-5.18h0a14.15,14.15,0,0,0-8.73,0h0a14.06,14.06,0,0,0-7.06,5.14h0A14,14,0,0,0,116.06,60.17Z"/><path class="a5569afc-9188-4514-b7ed-6fdbda504dc5" d="M117.4,60.28a13.26,13.26,0,0,1,18.92-12A13.24,13.24,0,0,0,123.41,71.4l.47.25.63.32A13.27,13.27,0,0,1,117.4,60.28Z"/><path class="aa5107f9-fc34-4f98-9854-14c7ae2f16a5" d="M136.32,48.32A13.24,13.24,0,0,1,124.49,72a13.24,13.24,0,1,0,12.44-23.38l-.63-.31Z"/><path class="a5569afc-9188-4514-b7ed-6fdbda504dc5" d="M129.61,55.05h2.88V70.32h-3.12V58l-2.88,1.7-1.23-2.31Z"/><path class="a5fa7098-074d-451e-a57f-5265c841a5bd" d="M129.41,54.89h2.85V70.17h-3.12V57.84l-2.84,1.64-1.23-2.3Z"/><g id="ff41a5ad-b303-4836-a8e0-dc3b5d569cac" data-name="a70b938e-01be-4cc4-b99e-47e3876823ad"><path class="a992958c-e7f6-4441-9556-ec3f3f30b78c" d="M130.15,51.27h-.27l-.29,1h-.45a1.82,1.82,0,0,1-.52-.08h0l1.47-4.5h.61a3.31,3.31,0,0,1,.63,0l1.45,4.5a1.09,1.09,0,0,1-.53.13.85.85,0,0,1-.49-.12,1,1,0,0,1-.24-.46l-.13-.45h-1.21Zm0-.84h1L131,50c-.1-.37-.23-.83-.36-1.38h0a9.62,9.62,0,0,1-.33,1.28Z"/></g><g id="ae0705b9-6e6c-4a68-ba36-48ae8ba31c15" data-name="b243fb86-4214-48cd-bf5d-c9db71c23896"><path class="a5fa7098-074d-451e-a57f-5265c841a5bd" d="M130,51.27h-.27l-.28,1H129a1.89,1.89,0,0,1-.53-.08h0l1.48-4.5a3.11,3.11,0,0,1,.61,0,3.21,3.21,0,0,1,.62,0l1.45,4.5a1.09,1.09,0,0,1-.53.13.85.85,0,0,1-.49-.12,1,1,0,0,1-.24-.46l-.13-.45H130Zm0-.84h1L130.9,50c-.11-.37-.23-.83-.37-1.38h0a8.26,8.26,0,0,1-.32,1.28Z"/></g><path class="e0b53440-865c-45e8-a700-ad8147619b29" d="M130.26,72.57a12.41,12.41,0,0,1-8.68-3.77,12.15,12.15,0,0,1-3.42-8.68,11.91,11.91,0,0,0,12.1,11.77Z"/><path class="a13d6228-a85b-4051-90fd-a6d1964224cb" d="M130.61,71.85A11.9,11.9,0,0,0,139,68.57a12.07,12.07,0,0,0,3.67-8.44,12.25,12.25,0,0,1-3.42,8.68,12.42,12.42,0,0,1-8.68,3.76Z"/><path class="a992958c-e7f6-4441-9556-ec3f3f30b78c" d="M62.31,60.17h0a15.37,15.37,0,0,0,3,9.08h0A15.52,15.52,0,0,0,73,74.86h0a15.43,15.43,0,0,0,9.55,0h0a15.46,15.46,0,0,0,7.72-5.61h0a15.37,15.37,0,0,0,3-9.08h0a15.37,15.37,0,0,0-3-9.08h0a15.37,15.37,0,0,0-7.81-5.61h0a15.43,15.43,0,0,0-9.55,0h0a15.46,15.46,0,0,0-7.72,5.61h0A15.4,15.4,0,0,0,62.31,60.17Z"/><path class="f504342f-fdd6-4bd3-ae5d-c8af15a11c61" d="M63.61,60.17h0a14.14,14.14,0,0,0,2.7,8.3h0a14.19,14.19,0,0,0,7.06,5.1h0a14.15,14.15,0,0,0,8.73,0h0a14.1,14.1,0,0,0,7.06-5.13h0a14.07,14.07,0,0,0,2.7-8.3h0a14.07,14.07,0,0,0-2.7-8.3h0a14.1,14.1,0,0,0-7-5.18h0a14.15,14.15,0,0,0-8.73,0h0a14.06,14.06,0,0,0-7.06,5.14h0A14.09,14.09,0,0,0,63.61,60.17Z"/><path class="a5569afc-9188-4514-b7ed-6fdbda504dc5" d="M65,60.28a13.25,13.25,0,0,1,18.91-12,13.24,13.24,0,0,0-13.4,22.84c.33.19.66.37,1,.53l.63.32A13.23,13.23,0,0,1,65,60.28Z"/><path class="aa5107f9-fc34-4f98-9854-14c7ae2f16a5" d="M83.89,48.32A13.24,13.24,0,0,1,72.08,72,13.24,13.24,0,1,0,84.52,48.63Z"/><path class="a5569afc-9188-4514-b7ed-6fdbda504dc5" d="M77.14,55.05H80V70.32H76.87V58L74,59.69l-1.23-2.31Z"/><path class="a5fa7098-074d-451e-a57f-5265c841a5bd" d="M77,54.89h2.84V70.17H76.72V57.84l-2.85,1.64-1.23-2.3Z"/><g id="f0bc63eb-2383-4ac1-956e-de04bb254278" data-name="e4bd00c2-cc6d-4a14-92e1-fce85a5b7baa"><path class="a992958c-e7f6-4441-9556-ec3f3f30b78c" d="M77.72,51.27h-.23l-.29,1h-.45a1.82,1.82,0,0,1-.52-.08h0l1.41-4.45h.61a3.31,3.31,0,0,1,.63,0l1.44,4.5a1.09,1.09,0,0,1-.53.13.8.8,0,0,1-.48-.12,1,1,0,0,1-.25-.46l-.12-.45H77.69Zm0-.84h1L78.61,50c-.11-.37-.23-.83-.37-1.38h0a8.26,8.26,0,0,1-.32,1.28Z"/></g><g id="f07222e3-8993-4d38-bfc2-6d46185b041c" data-name="bb16946f-4a1f-4cc1-aae6-00b653d1ce18"><path class="a5fa7098-074d-451e-a57f-5265c841a5bd" d="M77.61,51.27h-.27l-.29,1H76.6a1.82,1.82,0,0,1-.52-.08h0l1.47-4.5h.61a3.32,3.32,0,0,1,.63,0l1.45,4.5a1.09,1.09,0,0,1-.53.13.78.78,0,0,1-.49-.12.93.93,0,0,1-.24-.46l-.13-.45H77.61Zm0-.84h1L78.49,50c-.11-.37-.23-.83-.37-1.38h0a8.26,8.26,0,0,1-.32,1.28Z"/></g><path class="e0b53440-865c-45e8-a700-ad8147619b29" d="M77.83,72.57a12.46,12.46,0,0,1-8.68-3.77,12.25,12.25,0,0,1-3.42-8.68,12.09,12.09,0,0,0,3.67,8.45,11.86,11.86,0,0,0,8.43,3.32Z"/><path class="a13d6228-a85b-4051-90fd-a6d1964224cb" d="M78.14,71.85a11.91,11.91,0,0,0,8.44-3.28,12.06,12.06,0,0,0,3.66-8.44,12.25,12.25,0,0,1-3.42,8.68,12.4,12.4,0,0,1-8.68,3.76Z"/></g></g></g></g></svg>