<svg xmlns="http://www.w3.org/2000/svg" viewBox="0 0 154.2 119.39"><defs><style>.fd46f6de-8986-4300-8e55-898d6276d59a{fill:none;}.e96bfeb3-5eaa-4e56-b5ce-ab4d1d29b649{fill:#adadad;}.ac9ad836-bfb3-40d4-ade4-8565319117b4{fill:#bcbcbc;}.f41616d8-d334-40cd-9232-db401a67a8c3{fill:#848484;}.a9a8d6d2-2958-4f29-b3ca-fb5ee7f8936d{fill:#f2f2f2;}.bea203c0-4609-4184-b4a6-42d752d081f3{fill:#efefef;}.b7dacf69-735c-437b-9043-f844ed646bba{fill:#a2a2a3;}.a8f5f477-fa76-4ab5-b487-d4bba83de2e5{fill:#dbdbdb;}</style></defs><title>1 8</title><g id="bfb88bd1-41dd-441f-ad73-0ed6840ba6d2" data-name="Capa 2"><g id="ba4c5357-7ab0-411a-91e8-81acbcd24ef6" data-name="Capa 1"><rect class="fd46f6de-8986-4300-8e55-898d6276d59a" width="154.2" height="119.39"/><g id="af6d6afd-8f64-467b-9b1d-8c8a6c91189f" data-name="ead76db9-8ff3-4b3e-97ab-20f7a9799000"><g id="f368f930-2939-4c82-b9c3-dce678e49b66" data-name="a1327501-074e-47a9-b153-b2b3f5ba8435"><path class="e96bfeb3-5eaa-4e56-b5ce-ab4d1d29b649" d="M8.49,22.14v.78a15.2,15.2,0,0,0,2.76,8.77l.28.4a15.22,15.22,0,0,0,7.58,5.6h0a15.21,15.21,0,0,0,9.66,0h0A15.17,15.17,0,0,0,36.35,32l.26-.34A15.22,15.22,0,0,0,39.37,23v-.78a15.2,15.2,0,0,0-2.76-8.77l-.28-.4a15.13,15.13,0,0,0-7.58-5.66h0a15.21,15.21,0,0,0-9.66,0h0A15.13,15.13,0,0,0,11.49,13l-.28.4A15.18,15.18,0,0,0,8.49,22.14Z"/><path class="ac9ad836-bfb3-40d4-ade4-8565319117b4" d="M9.82,22.17v.72a13.81,13.81,0,0,0,2.52,8l.25.37a13.9,13.9,0,0,0,6.9,5.17h0a13.93,13.93,0,0,0,8.84,0h0a13.86,13.86,0,0,0,6.93-5.17l.25-.37a13.81,13.81,0,0,0,2.52-8v-.72a13.81,13.81,0,0,0-2.52-8l-.25-.37a13.83,13.83,0,0,0-6.93-5.11h0a13.93,13.93,0,0,0-8.84,0h0a13.83,13.83,0,0,0-6.88,5.14l-.25.37A13.88,13.88,0,0,0,9.82,22.17Z"/><path class="f41616d8-d334-40cd-9232-db401a67a8c3" d="M11.16,22.69A13.46,13.46,0,0,1,24.39,9h0a12.79,12.79,0,0,1,5.67,1.32,12.76,12.76,0,0,0-6.13-1.63A13.46,13.46,0,0,0,10.7,22.36h0a13.74,13.74,0,0,0,7.56,12.38A13.73,13.73,0,0,1,11.16,22.69Z"/><path class="a9a8d6d2-2958-4f29-b3ca-fb5ee7f8936d" d="M30.07,10.28a13.72,13.72,0,0,1,7.11,12.13A13.47,13.47,0,0,1,23.94,36.09h0a13,13,0,0,1-5.68-1.31,12.93,12.93,0,0,0,6.14,1.55A13.48,13.48,0,0,0,37.61,22.69,13.73,13.73,0,0,0,30.07,10.28Z"/><path class="f41616d8-d334-40cd-9232-db401a67a8c3" d="M23.32,17.23h2.84V33H23.05V20.27L20.2,22,19,19.57Z"/><path class="bea203c0-4609-4184-b4a6-42d752d081f3" d="M23.17,17.08H26V32.87H22.9V20.12l-2.85,1.7-1.22-2.38Z"/><g id="b5dcd4b1-e49b-4772-9adb-b1a4a8f1ad19" data-name="a6ae0a26-ea9a-45c8-866f-05948e13c008"><path class="e96bfeb3-5eaa-4e56-b5ce-ab4d1d29b649" d="M23.91,13.33h-.3l-.29,1a1.7,1.7,0,0,1-.45,0,1.82,1.82,0,0,1-.52-.08h0l1.47-4.68a3.11,3.11,0,0,1,.61,0,3.32,3.32,0,0,1,.63,0l1.43,4.68a1.09,1.09,0,0,1-.53.13.77.77,0,0,1-.47-.12.88.88,0,0,1-.24-.48l-.13-.46H23.91Zm0-.87h1L24.79,12c-.11-.39-.23-.86-.37-1.43h0a8.87,8.87,0,0,1-.32,1.33Z"/></g><g id="b8e7d82d-3e53-4225-a911-963241bd6230" data-name="edbf8941-5d30-4f72-9c74-f77864e3b4c5"><path class="bea203c0-4609-4184-b4a6-42d752d081f3" d="M23.77,13.33h-.28l-.29,1a1.7,1.7,0,0,1-.45,0,1.82,1.82,0,0,1-.52-.08h0l1.48-4.68a3.11,3.11,0,0,1,.61,0,3.31,3.31,0,0,1,.63,0l1.45,4.65a1.09,1.09,0,0,1-.53.13.85.85,0,0,1-.49-.12,1.09,1.09,0,0,1-.24-.48L25,13.29H23.77Zm0-.87h1L24.65,12c-.1-.39-.23-.86-.36-1.43h-.05a8.87,8.87,0,0,1-.32,1.33Z"/></g><path class="b7dacf69-735c-437b-9043-f844ed646bba" d="M24,35.31a12.14,12.14,0,0,1-8.75-4,12.87,12.87,0,0,1-3.35-8.89,12.72,12.72,0,0,0,3.58,8.65A11.6,11.6,0,0,0,24,34.57Z"/><path class="a8f5f477-fa76-4ab5-b487-d4bba83de2e5" d="M24.32,34.57a11.6,11.6,0,0,0,8.5-3.51,12.67,12.67,0,0,0,3.6-8.65,12.76,12.76,0,0,1-3.35,8.89,12.14,12.14,0,0,1-8.75,4Z"/><path class="e96bfeb3-5eaa-4e56-b5ce-ab4d1d29b649" d="M8.49,97.37h0a15.53,15.53,0,0,0,3,9.08h0a15.49,15.49,0,0,0,7.73,5.61h0a15.4,15.4,0,0,0,9.54,0h0a15.49,15.49,0,0,0,7.73-5.61h0a15.48,15.48,0,0,0,2.9-9.08h0a15.48,15.48,0,0,0-2.9-9.08h0a15.41,15.41,0,0,0-7.73-5.6h0a15.4,15.4,0,0,0-9.54,0h0a15.45,15.45,0,0,0-7.73,5.61h0A15.5,15.5,0,0,0,8.49,97.37Z"/><path class="ac9ad836-bfb3-40d4-ade4-8565319117b4" d="M9.82,97.37h0a14.14,14.14,0,0,0,2.67,8.3h0a14.23,14.23,0,0,0,7.07,5.13h0a14.12,14.12,0,0,0,8.72,0h0a14.23,14.23,0,0,0,7.07-5.13h0A14.13,14.13,0,0,0,38,97.37h0a14.13,14.13,0,0,0-2.69-8.3h0a14.08,14.08,0,0,0-7.07-5.14h0a14.12,14.12,0,0,0-8.72,0h0a14.08,14.08,0,0,0-7.07,5.14h0A14.14,14.14,0,0,0,9.82,97.37Z"/><path class="f41616d8-d334-40cd-9232-db401a67a8c3" d="M11.16,97.48a13.25,13.25,0,0,1,18.91-12A13.24,13.24,0,0,0,17.16,108.6l.47.25.63.32A13.24,13.24,0,0,1,11.16,97.48Z"/><path class="a9a8d6d2-2958-4f29-b3ca-fb5ee7f8936d" d="M30.07,85.57a13.24,13.24,0,0,1-11.81,23.64A13.24,13.24,0,0,0,31.58,86.33,11.85,11.85,0,0,0,30.07,85.57Z"/><path class="f41616d8-d334-40cd-9232-db401a67a8c3" d="M23.32,92.25h2.84v15.32H23.05V95.19L20.2,96.84,19,94.57Z"/><path class="bea203c0-4609-4184-b4a6-42d752d081f3" d="M23.17,92.09H26v15.28H22.9V95l-2.85,1.65-1.22-2.3Z"/><g id="aa7e66fe-9b32-4c2c-9ac2-b8cf42b8a42a" data-name="f0126cb4-9d46-42d8-b105-641316bb07c4"><path class="e96bfeb3-5eaa-4e56-b5ce-ab4d1d29b649" d="M23.91,88.47h-.3l-.29,1h-.45a1.82,1.82,0,0,1-.52-.08h0l1.47-4.5h.61a3.31,3.31,0,0,1,.63,0l1.43,4.45a1.09,1.09,0,0,1-.53.13.78.78,0,0,1-.49-.12.93.93,0,0,1-.24-.46l-.13-.45H23.91Zm0-.84h1l-.12-.42c-.11-.37-.23-.83-.37-1.38h0a8.26,8.26,0,0,1-.32,1.28Z"/></g><g id="a7a494cd-379c-4fda-8f67-86221eb2db16" data-name="a64a58d6-8a46-4eb7-ad2d-64a60c67e2cc"><path class="bea203c0-4609-4184-b4a6-42d752d081f3" d="M23.77,88.47h-.28l-.29,1h-.45a1.82,1.82,0,0,1-.52-.08h0l1.47-4.5h.61a3.31,3.31,0,0,1,.63,0l1.45,4.5a1.09,1.09,0,0,1-.53.13.85.85,0,0,1-.49-.12,1,1,0,0,1-.24-.46L25,88.49H23.8Zm0-.84h1l-.12-.42c-.1-.37-.23-.83-.36-1.38h-.05a8.26,8.26,0,0,1-.32,1.28Z"/></g><path class="b7dacf69-735c-437b-9043-f844ed646bba" d="M24,109.74A12.45,12.45,0,0,1,15.34,106a12.22,12.22,0,0,1-3.43-8.68,12.07,12.07,0,0,0,3.7,8.4A11.86,11.86,0,0,0,24,109Z"/><path class="a8f5f477-fa76-4ab5-b487-d4bba83de2e5" d="M24.32,109.05a11.89,11.89,0,0,0,8.44-3.32,12,12,0,0,0,3.66-8.44A12.15,12.15,0,0,1,33,106a12.41,12.41,0,0,1-8.68,3.77Z"/><path class="e96bfeb3-5eaa-4e56-b5ce-ab4d1d29b649" d="M8.49,60.17h0a15.53,15.53,0,0,0,3,9.08h0a15.49,15.49,0,0,0,7.73,5.61h0a15.4,15.4,0,0,0,9.54,0h0a15.49,15.49,0,0,0,7.73-5.61h0a15.48,15.48,0,0,0,2.9-9.08h0a15.48,15.48,0,0,0-2.9-9.08h0a15.45,15.45,0,0,0-7.73-5.61h0a15.4,15.4,0,0,0-9.54,0h0a15.45,15.45,0,0,0-7.73,5.61h0A15.53,15.53,0,0,0,8.49,60.17Z"/><path class="ac9ad836-bfb3-40d4-ade4-8565319117b4" d="M9.82,60.17h0a14.14,14.14,0,0,0,2.67,8.3h0a14.2,14.2,0,0,0,7.09,5.1h0a14.12,14.12,0,0,0,8.72,0h0a14.23,14.23,0,0,0,7.07-5.13h0a14.13,14.13,0,0,0,2.69-8.3h0a14.13,14.13,0,0,0-2.69-8.3h0a14.17,14.17,0,0,0-7.07-5.18h0a14,14,0,0,0-8.69,0h0a14.08,14.08,0,0,0-7.07,5.14h0A14.07,14.07,0,0,0,9.82,60.17Z"/><path class="f41616d8-d334-40cd-9232-db401a67a8c3" d="M11.16,60.28a13.25,13.25,0,0,1,18.91-12A13.24,13.24,0,0,0,17.16,71.4l.47.25.63.32A13.24,13.24,0,0,1,11.16,60.28Z"/><path class="a9a8d6d2-2958-4f29-b3ca-fb5ee7f8936d" d="M30.07,48.32A13.24,13.24,0,0,1,18.26,72,13.24,13.24,0,1,0,30.7,48.63Z"/><path class="f41616d8-d334-40cd-9232-db401a67a8c3" d="M23.32,55.05h2.84V70.32H23.05V58l-2.85,1.7L19,57.38Z"/><path class="bea203c0-4609-4184-b4a6-42d752d081f3" d="M23.17,54.89H26V70.17H22.9V57.84l-2.85,1.64-1.22-2.3Z"/><g id="ee91f8dc-c85d-4577-b2ee-27057cbe2bcc" data-name="f84242f0-1698-4bad-939b-90f297299b53"><path class="e96bfeb3-5eaa-4e56-b5ce-ab4d1d29b649" d="M23.91,51.27h-.3l-.29,1h-.45a1.82,1.82,0,0,1-.52-.08h0l1.47-4.5h.61a3.31,3.31,0,0,1,.63,0l1.43,4.45a1.09,1.09,0,0,1-.53.13.78.78,0,0,1-.49-.12.93.93,0,0,1-.24-.46l-.13-.45H23.91Zm0-.84h1L24.79,50c-.11-.37-.23-.83-.37-1.38h0a8.26,8.26,0,0,1-.32,1.28Z"/></g><g id="f44183b5-88a5-4c77-89cc-fb1292502a91" data-name="ad8b8fcf-4b74-4671-80ba-710108c9a557"><path class="bea203c0-4609-4184-b4a6-42d752d081f3" d="M23.77,51.27h-.28l-.29,1h-.45a1.82,1.82,0,0,1-.52-.08h0l1.47-4.5h.61a3.31,3.31,0,0,1,.63,0l1.45,4.5a1.09,1.09,0,0,1-.53.13.85.85,0,0,1-.49-.12,1,1,0,0,1-.24-.46L25,51.29H23.8Zm0-.84h1L24.65,50c-.1-.37-.23-.83-.36-1.38h-.05a8.26,8.26,0,0,1-.32,1.28Z"/></g><path class="b7dacf69-735c-437b-9043-f844ed646bba" d="M24,72.57a12.46,12.46,0,0,1-8.67-3.8,12.22,12.22,0,0,1-3.43-8.68,12.07,12.07,0,0,0,3.67,8.48A11.86,11.86,0,0,0,24,71.89Z"/><path class="a8f5f477-fa76-4ab5-b487-d4bba83de2e5" d="M24.32,71.85a11.85,11.85,0,0,0,12.1-11.72A12.15,12.15,0,0,1,33,68.81a12.4,12.4,0,0,1-8.68,3.76Z"/><path class="e96bfeb3-5eaa-4e56-b5ce-ab4d1d29b649" d="M114.74,22.14v.78a15.19,15.19,0,0,0,2.75,8.77l.29.4a15.2,15.2,0,0,0,7.57,5.6h0a15.21,15.21,0,0,0,9.66,0h0a15.11,15.11,0,0,0,7.6-5.65l.28-.4a15.18,15.18,0,0,0,2.72-8.72v-.78a15.12,15.12,0,0,0-2.76-8.72l-.28-.4A15.13,15.13,0,0,0,135,7.36h0a15.21,15.21,0,0,0-9.66,0h0A15.11,15.11,0,0,0,117.76,13l-.29.4A15.19,15.19,0,0,0,114.74,22.14Z"/><path class="ac9ad836-bfb3-40d4-ade4-8565319117b4" d="M116.06,22.17v.72a13.81,13.81,0,0,0,2.52,8l.26.37a13.86,13.86,0,0,0,6.93,5.17h0a13.9,13.9,0,0,0,8.83,0h0a13.87,13.87,0,0,0,6.89-5.17l.26-.37a13.81,13.81,0,0,0,2.52-8v-.72a13.81,13.81,0,0,0-2.52-8l-.26-.37a13.76,13.76,0,0,0-6.92-5.11h0a13.9,13.9,0,0,0-8.83,0h0a13.86,13.86,0,0,0-6.93,5.17l-.26.37A13.83,13.83,0,0,0,116.06,22.17Z"/><path class="f41616d8-d334-40cd-9232-db401a67a8c3" d="M117.4,22.69A13.47,13.47,0,0,1,130.6,9h0a12.86,12.86,0,0,1,5.68,1.32,12.79,12.79,0,0,0-6.11-1.59A13.46,13.46,0,0,0,117,22.37a13.75,13.75,0,0,0,7.54,12.37A13.75,13.75,0,0,1,117.4,22.69Z"/><path class="a9a8d6d2-2958-4f29-b3ca-fb5ee7f8936d" d="M136.32,10.28a13.76,13.76,0,0,1,7.1,12.13,13.47,13.47,0,0,1-13.24,13.68h0a13,13,0,0,1-5.69-1.31,13,13,0,0,0,6.1,1.55,13.47,13.47,0,0,0,13.27-13.64A13.71,13.71,0,0,0,136.32,10.28Z"/><path class="f41616d8-d334-40cd-9232-db401a67a8c3" d="M129.61,17.23h2.88V33h-3.12V20.27L126.49,22l-1.22-2.41Z"/><path class="bea203c0-4609-4184-b4a6-42d752d081f3" d="M129.41,17.08h2.85V32.87h-3.12V20.12l-2.84,1.7-1.23-2.38Z"/><g id="e91572c5-415c-433e-b31e-8940fb7c3e19" data-name="fce7118b-5d58-428d-b1ac-af986504a1be"><path class="e96bfeb3-5eaa-4e56-b5ce-ab4d1d29b649" d="M130.15,13.33h-.27l-.29,1a1.69,1.69,0,0,1-.45,0,1.82,1.82,0,0,1-.52-.08h0l1.47-4.68a3.11,3.11,0,0,1,.61,0,3.31,3.31,0,0,1,.63,0l1.45,4.65a1.09,1.09,0,0,1-.53.13.85.85,0,0,1-.49-.12,1.09,1.09,0,0,1-.24-.48l-.13-.46h-1.24Zm0-.87h1L131,12c-.1-.39-.23-.86-.36-1.43h0a10.33,10.33,0,0,1-.33,1.33Z"/></g><g id="e98eca0d-ff4a-437a-9cd2-e5ff6f7df2a0" data-name="e2629855-d577-4b4a-8dfa-77a417de3782"><path class="bea203c0-4609-4184-b4a6-42d752d081f3" d="M130,13.33h-.27l-.28,1a1.69,1.69,0,0,1-.45,0,1.89,1.89,0,0,1-.53-.08h0L130,9.57a3.11,3.11,0,0,1,.61,0,3.21,3.21,0,0,1,.62,0l1.42,4.65a1.09,1.09,0,0,1-.53.13.85.85,0,0,1-.49-.12,1.09,1.09,0,0,1-.24-.48l-.13-.46H130Zm0-.87h1L130.9,12c-.11-.39-.23-.86-.37-1.43h0a8.87,8.87,0,0,1-.32,1.33Z"/></g><path class="b7dacf69-735c-437b-9043-f844ed646bba" d="M130.26,35.31a12.14,12.14,0,0,1-8.75-4,12.87,12.87,0,0,1-3.35-8.89,12.67,12.67,0,0,0,3.6,8.65,11.6,11.6,0,0,0,8.5,3.51Z"/><path class="a8f5f477-fa76-4ab5-b487-d4bba83de2e5" d="M130.61,34.57a11.58,11.58,0,0,0,8.49-3.51,12.68,12.68,0,0,0,3.61-8.65,12.87,12.87,0,0,1-3.35,8.89,12.14,12.14,0,0,1-8.75,4Z"/><path class="e96bfeb3-5eaa-4e56-b5ce-ab4d1d29b649" d="M114.74,97.37h0a15.37,15.37,0,0,0,3,9.08h0a15.46,15.46,0,0,0,7.72,5.61h0a15.43,15.43,0,0,0,9.55,0h0a15.52,15.52,0,0,0,7.72-5.61h0a15.44,15.44,0,0,0,3-9.08h0a15.44,15.44,0,0,0-3-9.08h0A15.46,15.46,0,0,0,135,82.68h0a15.43,15.43,0,0,0-9.55,0h0a15.42,15.42,0,0,0-7.72,5.61h0A15.37,15.37,0,0,0,114.74,97.37Z"/><path class="ac9ad836-bfb3-40d4-ade4-8565319117b4" d="M116.06,97.37h0a14.07,14.07,0,0,0,2.7,8.3h0a14.1,14.1,0,0,0,7.06,5.13h0a14.15,14.15,0,0,0,8.73,0h0a14.21,14.21,0,0,0,7.06-5.11h0a14.14,14.14,0,0,0,2.7-8.3h0a14.14,14.14,0,0,0-2.7-8.3h0A14.06,14.06,0,0,0,134.55,84h0a14.15,14.15,0,0,0-8.73,0h0a14.06,14.06,0,0,0-7.06,5.14h0A14.06,14.06,0,0,0,116.06,97.37Z"/><path class="f41616d8-d334-40cd-9232-db401a67a8c3" d="M117.4,97.48a13.26,13.26,0,0,1,18.92-12,13.24,13.24,0,0,0-12.91,23.12l.47.25.63.32A13.27,13.27,0,0,1,117.4,97.48Z"/><path class="a9a8d6d2-2958-4f29-b3ca-fb5ee7f8936d" d="M136.32,85.57a13.24,13.24,0,0,1-11.83,23.64,13.08,13.08,0,0,0,6.1,1.48,13.24,13.24,0,0,0,5.68-25.2Z"/><path class="f41616d8-d334-40cd-9232-db401a67a8c3" d="M129.61,92.25h2.88v15.32h-3.12V95.19l-2.88,1.65-1.22-2.27Z"/><path class="bea203c0-4609-4184-b4a6-42d752d081f3" d="M129.41,92.09h2.85v15.28h-3.12V95l-2.84,1.65-1.23-2.3Z"/><g id="b480c82b-9954-4c70-b8ef-421539fffc6f" data-name="b901c1aa-168d-44a3-90cf-84c40aec90bf"><path class="e96bfeb3-5eaa-4e56-b5ce-ab4d1d29b649" d="M130.15,88.47h-.27l-.29,1h-.45a1.82,1.82,0,0,1-.52-.08h0l1.47-4.5h.61a3.31,3.31,0,0,1,.63,0l1.45,4.5a1.09,1.09,0,0,1-.53.13.85.85,0,0,1-.49-.12,1,1,0,0,1-.24-.46l-.13-.45h-1.21Zm0-.84h1l-.12-.42c-.1-.37-.23-.83-.36-1.38h0a9.62,9.62,0,0,1-.33,1.28Z"/></g><g id="ec2c07d4-6758-436e-aa5e-8358efbf8e74" data-name="fd17bbad-bc77-4063-a85e-43d79bfacac1"><path class="bea203c0-4609-4184-b4a6-42d752d081f3" d="M130,88.47h-.27l-.28,1H129a1.89,1.89,0,0,1-.53-.08h0l1.48-4.5a3.11,3.11,0,0,1,.61,0,3.21,3.21,0,0,1,.62,0l1.45,4.5a1.09,1.09,0,0,1-.53.13.85.85,0,0,1-.49-.12,1,1,0,0,1-.24-.46l-.13-.45H130Zm0-.84h1l-.11-.42c-.11-.37-.23-.83-.37-1.38h0a8.26,8.26,0,0,1-.32,1.28Z"/></g><path class="b7dacf69-735c-437b-9043-f844ed646bba" d="M130.26,109.74a12.41,12.41,0,0,1-8.68-3.77,12.15,12.15,0,0,1-3.42-8.68,12,12,0,0,0,3.66,8.44,11.89,11.89,0,0,0,8.44,3.32Z"/><path class="a8f5f477-fa76-4ab5-b487-d4bba83de2e5" d="M130.61,109.05a11.86,11.86,0,0,0,8.43-3.32,12.07,12.07,0,0,0,3.67-8.44,12.25,12.25,0,0,1-3.42,8.68,12.46,12.46,0,0,1-8.68,3.77Z"/><path class="e96bfeb3-5eaa-4e56-b5ce-ab4d1d29b649" d="M114.74,60.17h0a15.37,15.37,0,0,0,3,9.08h0a15.48,15.48,0,0,0,7.75,5.61h0a15.43,15.43,0,0,0,9.55,0h0a15.52,15.52,0,0,0,7.72-5.61h0a15.44,15.44,0,0,0,3-9.08h0a15.44,15.44,0,0,0-3-9.08h0A15.46,15.46,0,0,0,135,45.48h0a15.43,15.43,0,0,0-9.55,0h0a15.42,15.42,0,0,0-7.72,5.61h0A15.4,15.4,0,0,0,114.74,60.17Z"/><path class="ac9ad836-bfb3-40d4-ade4-8565319117b4" d="M116.06,60.17h0a14.07,14.07,0,0,0,2.7,8.3h0a14.13,14.13,0,0,0,7.06,5.1h0a14.15,14.15,0,0,0,8.73,0h0a14.14,14.14,0,0,0,7.06-5.13h0a14.14,14.14,0,0,0,2.7-8.3h0a14.14,14.14,0,0,0-2.7-8.3h0a14.19,14.19,0,0,0-7.06-5.18h0a14.15,14.15,0,0,0-8.73,0h0a14.06,14.06,0,0,0-7.06,5.14h0A14,14,0,0,0,116.06,60.17Z"/><path class="f41616d8-d334-40cd-9232-db401a67a8c3" d="M117.4,60.28a13.26,13.26,0,0,1,18.92-12A13.24,13.24,0,0,0,123.41,71.4l.47.25.63.32A13.27,13.27,0,0,1,117.4,60.28Z"/><path class="a9a8d6d2-2958-4f29-b3ca-fb5ee7f8936d" d="M136.32,48.32A13.24,13.24,0,0,1,124.49,72a13.24,13.24,0,1,0,12.44-23.38l-.63-.31Z"/><path class="f41616d8-d334-40cd-9232-db401a67a8c3" d="M129.61,55.05h2.88V70.32h-3.12V58l-2.88,1.7-1.23-2.31Z"/><path class="bea203c0-4609-4184-b4a6-42d752d081f3" d="M129.41,54.89h2.85V70.17h-3.12V57.84l-2.84,1.64-1.23-2.3Z"/><g id="a19f5e30-dca6-42a9-a9eb-5700f45e875e" data-name="a3f4b49e-dc66-4f17-9657-2d211924a56c"><path class="e96bfeb3-5eaa-4e56-b5ce-ab4d1d29b649" d="M130.15,51.27h-.27l-.29,1h-.45a1.82,1.82,0,0,1-.52-.08h0l1.47-4.5h.61a3.31,3.31,0,0,1,.63,0l1.45,4.5a1.09,1.09,0,0,1-.53.13.85.85,0,0,1-.49-.12,1,1,0,0,1-.24-.46l-.13-.45h-1.21Zm0-.84h1L131,50c-.1-.37-.23-.83-.36-1.38h0a9.62,9.62,0,0,1-.33,1.28Z"/></g><g id="ea891972-56ae-4f35-af14-8177944036b8" data-name="ba780593-8d63-4bf8-b3f5-64de9e1105f4"><path class="bea203c0-4609-4184-b4a6-42d752d081f3" d="M130,51.27h-.27l-.28,1H129a1.89,1.89,0,0,1-.53-.08h0l1.48-4.5a3.11,3.11,0,0,1,.61,0,3.21,3.21,0,0,1,.62,0l1.45,4.5a1.09,1.09,0,0,1-.53.13.85.85,0,0,1-.49-.12,1,1,0,0,1-.24-.46l-.13-.45H130Zm0-.84h1L130.9,50c-.11-.37-.23-.83-.37-1.38h0a8.26,8.26,0,0,1-.32,1.28Z"/></g><path class="b7dacf69-735c-437b-9043-f844ed646bba" d="M130.26,72.57a12.41,12.41,0,0,1-8.68-3.77,12.15,12.15,0,0,1-3.42-8.68,11.91,11.91,0,0,0,12.1,11.77Z"/><path class="a8f5f477-fa76-4ab5-b487-d4bba83de2e5" d="M130.61,71.85A11.9,11.9,0,0,0,139,68.57a12.07,12.07,0,0,0,3.67-8.44,12.25,12.25,0,0,1-3.42,8.68,12.42,12.42,0,0,1-8.68,3.76Z"/><path class="e96bfeb3-5eaa-4e56-b5ce-ab4d1d29b649" d="M62.31,22.14v.78a15.13,15.13,0,0,0,2.76,8.77l.28.4a15.16,15.16,0,0,0,7.58,5.6h0a15.27,15.27,0,0,0,9.68,0h0A15.17,15.17,0,0,0,90.19,32l.28-.4a15.21,15.21,0,0,0,2.75-8.72v-.78a15.19,15.19,0,0,0-2.73-8.72l-.28-.4a15.11,15.11,0,0,0-7.6-5.65h0a15.21,15.21,0,0,0-9.66,0h0A15.13,15.13,0,0,0,65.37,13l-.28.4A15,15,0,0,0,62.31,22.14Z"/><path class="ac9ad836-bfb3-40d4-ade4-8565319117b4" d="M63.61,22.17v.72a13.82,13.82,0,0,0,2.53,8l.25.37a13.86,13.86,0,0,0,6.93,5.17h0a13.9,13.9,0,0,0,8.83,0h0a13.86,13.86,0,0,0,6.93-5.17l.26-.37a13.81,13.81,0,0,0,2.52-8v-.72a13.81,13.81,0,0,0-2.52-8l-.26-.37a13.74,13.74,0,0,0-6.91-5.11h0a13.9,13.9,0,0,0-8.83,0h0a13.86,13.86,0,0,0-6.93,5.17l-.25.37A13.77,13.77,0,0,0,63.61,22.17Z"/><path class="f41616d8-d334-40cd-9232-db401a67a8c3" d="M65,22.69A13.46,13.46,0,0,1,78.21,9h0a12.79,12.79,0,0,1,5.67,1.32,12.76,12.76,0,0,0-6.13-1.63A13.46,13.46,0,0,0,64.49,22.34v0h0a13.72,13.72,0,0,0,7.56,12.37A13.75,13.75,0,0,1,65,22.69Z"/><path class="a9a8d6d2-2958-4f29-b3ca-fb5ee7f8936d" d="M83.89,10.28A13.76,13.76,0,0,1,91,22.41,13.46,13.46,0,0,1,77.76,36.09a13,13,0,0,1-5.68-1.31,12.93,12.93,0,0,0,6.14,1.55A13.47,13.47,0,0,0,91.49,22.69,13.72,13.72,0,0,0,83.89,10.28Z"/><path class="f41616d8-d334-40cd-9232-db401a67a8c3" d="M77.14,17.23H80V33H76.87V20.27L74,22l-1.23-2.41Z"/><path class="bea203c0-4609-4184-b4a6-42d752d081f3" d="M77,17.08h2.84V32.87H76.72V20.12l-2.85,1.7-1.26-2.38Z"/><g id="af6ca36a-569e-4e04-9011-8bffbde3f0a7" data-name="ff7bb600-78ea-4a9e-848e-6c22cc7f72ff"><path class="e96bfeb3-5eaa-4e56-b5ce-ab4d1d29b649" d="M77.72,13.33h-.23l-.29,1a1.7,1.7,0,0,1-.45,0,1.82,1.82,0,0,1-.52-.08h0l1.38-4.68a3.11,3.11,0,0,1,.61,0,3.31,3.31,0,0,1,.63,0l1.44,4.67a1.09,1.09,0,0,1-.53.13.8.8,0,0,1-.48-.12,1,1,0,0,1-.25-.48l-.12-.46H77.69Zm0-.87h1L78.61,12c-.12-.39-.23-.86-.37-1.46h0a8.87,8.87,0,0,1-.32,1.33Z"/></g><g id="aaa00865-fe40-4a93-a8a0-61c105095b77" data-name="f2024b57-dc76-4944-bb0d-41c006e309df"><path class="bea203c0-4609-4184-b4a6-42d752d081f3" d="M77.61,13.33h-.27l-.29,1a1.69,1.69,0,0,1-.45,0,1.82,1.82,0,0,1-.52-.08h0l1.47-4.68a3.11,3.11,0,0,1,.61,0,3.32,3.32,0,0,1,.63,0l1.45,4.65a1.09,1.09,0,0,1-.53.13.78.78,0,0,1-.49-.12.88.88,0,0,1-.24-.48l-.13-.46H77.61Zm0-.87h1L78.49,12c-.11-.39-.23-.86-.37-1.43h0a8.87,8.87,0,0,1-.32,1.33Z"/></g><path class="b7dacf69-735c-437b-9043-f844ed646bba" d="M77.83,35.31a12.14,12.14,0,0,1-8.75-4,12.87,12.87,0,0,1-3.35-8.89,12.67,12.67,0,0,0,3.6,8.65,11.61,11.61,0,0,0,8.5,3.5Z"/><path class="a8f5f477-fa76-4ab5-b487-d4bba83de2e5" d="M78.14,34.57a11.6,11.6,0,0,0,8.5-3.51,12.67,12.67,0,0,0,3.6-8.65,12.87,12.87,0,0,1-3.35,8.89,12.14,12.14,0,0,1-8.75,4Z"/><path class="e96bfeb3-5eaa-4e56-b5ce-ab4d1d29b649" d="M62.31,97.37h0a15.37,15.37,0,0,0,3,9.08h0A15.52,15.52,0,0,0,73,112.06h0a15.43,15.43,0,0,0,9.55,0h0a15.46,15.46,0,0,0,7.72-5.61h0a15.37,15.37,0,0,0,3-9.08h0a15.37,15.37,0,0,0-3-9.08h0a15.37,15.37,0,0,0-7.81-5.61h0a15.43,15.43,0,0,0-9.55,0h0a15.46,15.46,0,0,0-7.72,5.61h0A15.4,15.4,0,0,0,62.31,97.37Z"/><path class="ac9ad836-bfb3-40d4-ade4-8565319117b4" d="M63.61,97.37h0a14.14,14.14,0,0,0,2.7,8.3h0a14.14,14.14,0,0,0,7.06,5.13h0a14.15,14.15,0,0,0,8.73,0h0a14.1,14.1,0,0,0,7.06-5.13h0a14.07,14.07,0,0,0,2.7-8.3h0a14.07,14.07,0,0,0-2.7-8.3h0a14.06,14.06,0,0,0-7.06-5.14h0a14.15,14.15,0,0,0-8.73,0h0a14.06,14.06,0,0,0-7.06,5.14h0A14.14,14.14,0,0,0,63.61,97.37Z"/><path class="f41616d8-d334-40cd-9232-db401a67a8c3" d="M65,97.48a13.25,13.25,0,0,1,18.91-12,13.24,13.24,0,0,0-13.4,22.84c.33.19.66.37,1,.53l.63.32A13.23,13.23,0,0,1,65,97.48Z"/><path class="a9a8d6d2-2958-4f29-b3ca-fb5ee7f8936d" d="M83.89,85.57a13.24,13.24,0,0,1-11.81,23.69A13.24,13.24,0,1,0,84.52,85.88Z"/><path class="f41616d8-d334-40cd-9232-db401a67a8c3" d="M77.14,92.25H80v15.32H76.87V95.19L74,96.84l-1.23-2.27Z"/><path class="bea203c0-4609-4184-b4a6-42d752d081f3" d="M77,92.09h2.84v15.28H76.72V95l-2.85,1.65-1.23-2.3Z"/><g id="bc88af05-e75f-4665-bac1-dcda58473d85" data-name="fd4446c8-c176-442f-a12c-41452da2bdef"><path class="e96bfeb3-5eaa-4e56-b5ce-ab4d1d29b649" d="M77.72,88.47h-.23l-.29,1h-.45a1.82,1.82,0,0,1-.52-.08h0l1.48-4.5h.61a3.32,3.32,0,0,1,.63,0l1.44,4.5a1.09,1.09,0,0,1-.53.13.8.8,0,0,1-.48-.12,1,1,0,0,1-.25-.46L79,88.49H77.76Zm0-.84h1l-.11-.42c-.11-.37-.23-.83-.37-1.38h0a8.26,8.26,0,0,1-.32,1.28Z"/></g><g id="a970928d-4dd9-45c2-9255-d9b2410cfecb" data-name="ec07db31-1104-4340-8cba-8f67fa02886b"><path class="bea203c0-4609-4184-b4a6-42d752d081f3" d="M77.61,88.47h-.27l-.29,1H76.6a1.82,1.82,0,0,1-.52-.08h0l1.47-4.5h.61a3.32,3.32,0,0,1,.63,0l1.45,4.5a1.09,1.09,0,0,1-.53.13.78.78,0,0,1-.49-.12.93.93,0,0,1-.24-.46l-.13-.45H77.61Zm0-.84h1l-.12-.42c-.11-.37-.23-.83-.37-1.38h0a8.26,8.26,0,0,1-.32,1.28Z"/></g><path class="b7dacf69-735c-437b-9043-f844ed646bba" d="M77.83,109.74A12.46,12.46,0,0,1,69.15,106a12.25,12.25,0,0,1-3.42-8.68,12.07,12.07,0,0,0,3.67,8.44,11.86,11.86,0,0,0,8.43,3.32Z"/><path class="a8f5f477-fa76-4ab5-b487-d4bba83de2e5" d="M78.14,109.05a11.88,11.88,0,0,0,8.47-3.36,12.06,12.06,0,0,0,3.66-8.44,12.25,12.25,0,0,1-3.42,8.68,12.41,12.41,0,0,1-8.68,3.77Z"/></g></g></g></g></svg>