<svg xmlns="http://www.w3.org/2000/svg" viewBox="0 0 641 258.1"><defs><style>.cls-1{fill:#dfd9d0;}.cls-2{fill:#1f8ebe;}.cls-3{fill:#f9f3e9;}</style></defs><title>DUDC2</title><g id="Capa_2" data-name="Capa 2"><g id="Capa_1-2" data-name="Capa 1"><polygon class="cls-1" points="641 155.46 0 155.46 0 14.46 3 14.46 3 152.46 638 152.46 638 6.9 641 6.9 641 155.46"/><path class="cls-2" d="M6.49,0h154a0,0,0,0,1,0,0V51.32a0,0,0,0,1,0,0H.49a0,0,0,0,1,0,0V6a6,6,0,0,1,6-6Z"/><rect class="cls-2" x="160.49" width="160" height="51.32"/><rect class="cls-2" x="320.49" width="160" height="51.32"/><path class="cls-2" d="M480.49,0h160a0,0,0,0,1,0,0V51.32a0,0,0,0,1,0,0h-154a6,6,0,0,1-6-6V0A0,0,0,0,1,480.49,0Z" transform="translate(1120.99 51.32) rotate(180)"/><rect class="cls-1" x="158.99" width="3" height="256.6"/><rect class="cls-1" x="478.99" width="3" height="256.6"/><path class="cls-1" d="M629.32,258.1H11.68A11.69,11.69,0,0,1,0,246.42V154H3v92.46a8.68,8.68,0,0,0,8.68,8.68H629.32a8.69,8.69,0,0,0,8.68-8.68V154h3v92.46A11.69,11.69,0,0,1,629.32,258.1Z"/><path class="cls-3" d="M78.42,14.24a8.56,8.56,0,0,1,3.85.83,7.83,7.83,0,0,1,2.78,2.29,10.46,10.46,0,0,1,1.66,3.38,14.27,14.27,0,0,1,.56,4,13.63,13.63,0,0,1-1,5.27,8.77,8.77,0,0,1-2.94,3.81,8.12,8.12,0,0,1-4.92,1.42h-7.5a1.18,1.18,0,0,1-.86-.35,1.21,1.21,0,0,1-.34-.87V15.45a1.18,1.18,0,0,1,1.2-1.21Zm-.3,18.66a6,6,0,0,0,3.76-1.11,6.27,6.27,0,0,0,2.13-3,11.8,11.8,0,0,0,.68-4.08,12.6,12.6,0,0,0-.38-3.1A7.91,7.91,0,0,0,83.14,19a5.62,5.62,0,0,0-2-1.8,6.27,6.27,0,0,0-3-.66H72l.24-.24V33.2L72,32.9Z"/><path class="cls-3" d="M248.34,14.22a1.09,1.09,0,0,1,.84.36,1.24,1.24,0,0,1,.33.87V27.36a8.08,8.08,0,0,1-1.07,4.14,7.85,7.85,0,0,1-6.94,4,8,8,0,0,1-4.13-1.07,7.78,7.78,0,0,1-2.86-2.89,8.17,8.17,0,0,1-1-4.14V15.45a1.21,1.21,0,0,1,.34-.87,1.22,1.22,0,0,1,.92-.36,1.19,1.19,0,0,1,.85.36,1.17,1.17,0,0,1,.38.87V27.36a5.74,5.74,0,0,0,.75,2.94,5.52,5.52,0,0,0,4.8,2.76,5.6,5.6,0,0,0,2.82-.74,5.75,5.75,0,0,0,2.08-2,5.49,5.49,0,0,0,.8-2.94V15.45a1.31,1.31,0,0,1,.3-.87A1,1,0,0,1,248.34,14.22Z"/><path class="cls-3" d="M404.57,13.05a1.15,1.15,0,0,1,.87.34,1.2,1.2,0,0,1,.33.86V34a1.21,1.21,0,0,1-.34.87,1.15,1.15,0,0,1-.86.36,1.13,1.13,0,0,1-.85-.36,1.22,1.22,0,0,1-.35-.87V31.17l.57-.21a3.14,3.14,0,0,1-.43,1.51A5.45,5.45,0,0,1,402.28,34a7,7,0,0,1-1.85,1.14,5.73,5.73,0,0,1-2.28.45,6.58,6.58,0,0,1-3.66-1,7.38,7.38,0,0,1-2.56-2.88,9,9,0,0,1-.95-4.17,9,9,0,0,1,.95-4.2,7.34,7.34,0,0,1,2.55-2.87,6.67,6.67,0,0,1,7.9.53,5.56,5.56,0,0,1,1.31,1.59,3.66,3.66,0,0,1,.46,1.74l-.78-.18V14.25a1.18,1.18,0,0,1,.35-.86A1.15,1.15,0,0,1,404.57,13.05Zm-6.18,20.28a4.68,4.68,0,0,0,2.67-.77,5.29,5.29,0,0,0,1.8-2.1,7.24,7.24,0,0,0,0-6,5.27,5.27,0,0,0-1.81-2.09,4.71,4.71,0,0,0-2.66-.76,4.63,4.63,0,0,0-2.62.76A5.3,5.3,0,0,0,394,24.42a7.17,7.17,0,0,0,0,6,5.39,5.39,0,0,0,1.82,2.12A4.57,4.57,0,0,0,398.39,33.33Z"/><path class="cls-3" d="M561,19.35a10.66,10.66,0,0,1,2.76.33,5.36,5.36,0,0,1,1.95.9,1.63,1.63,0,0,1,.72,1.29,1.27,1.27,0,0,1-.25.75.85.85,0,0,1-.74.36,1.24,1.24,0,0,1-.64-.15,2.16,2.16,0,0,1-.48-.39,2,2,0,0,0-.62-.42,3.25,3.25,0,0,0-1-.33,8.21,8.21,0,0,0-1.41-.12,5.36,5.36,0,0,0-2.88.78,5.43,5.43,0,0,0-2,2.1,6.27,6.27,0,0,0-.71,3,6.38,6.38,0,0,0,.69,3,5.4,5.4,0,0,0,1.92,2.1,5.21,5.21,0,0,0,2.85.78,6.19,6.19,0,0,0,1.67-.18,5.57,5.57,0,0,0,1.06-.42,3.69,3.69,0,0,0,.8-.6,1,1,0,0,1,.79-.3,1,1,0,0,1,.78.33,1.24,1.24,0,0,1,.27.81,1.6,1.6,0,0,1-.75,1.14,6.45,6.45,0,0,1-2,1,9.46,9.46,0,0,1-2.87.42,7.39,7.39,0,0,1-4-1.07,7.24,7.24,0,0,1-2.65-2.91,8.9,8.9,0,0,1-1-4.12,8.61,8.61,0,0,1,1-4.11,7.38,7.38,0,0,1,6.73-4Z"/><rect class="cls-1" x="318.99" width="3" height="129.95"/><path class="cls-2" d="M324,139.91a6.54,6.54,0,0,1-.46,2.31,9.54,9.54,0,0,1-1.28,2.31,7.72,7.72,0,0,1-1.8,1.77,3.42,3.42,0,0,1-2,.68,2.23,2.23,0,0,1-1.27-.35,1.31,1.31,0,0,1-.52-1.17c0-.69.22-1.09.68-1.2a6.1,6.1,0,0,0,1.33-.49,2.93,2.93,0,0,0,1.12-1.06,2.81,2.81,0,0,0,.41-1.44,1.38,1.38,0,0,0-.41-1,1.45,1.45,0,0,0-1.06-.41,3.13,3.13,0,0,0-.79.11,1.73,1.73,0,0,0-.68.33,3,3,0,0,1-.66-.66,1.65,1.65,0,0,1-.27-1,2.49,2.49,0,0,1,.63-1.47,4,4,0,0,1,1.47-1,4.46,4.46,0,0,1,1.71-.38,3.71,3.71,0,0,1,2.75,1.06A4.16,4.16,0,0,1,324,139.91Z"/><rect class="cls-1" x="318.99" y="149.77" width="3" height="4.19"/><rect class="cls-1" x="318.99" y="153.96" width="3" height="78.63"/><path class="cls-2" d="M324,242.55a6.54,6.54,0,0,1-.46,2.31,9.36,9.36,0,0,1-1.28,2.31,7.72,7.72,0,0,1-1.8,1.77,3.42,3.42,0,0,1-2,.68,2.23,2.23,0,0,1-1.27-.35,1.31,1.31,0,0,1-.52-1.17c0-.69.22-1.09.68-1.2a6.1,6.1,0,0,0,1.33-.49,2.86,2.86,0,0,0,1.12-1.06,2.81,2.81,0,0,0,.41-1.44,1.38,1.38,0,0,0-.41-1,1.45,1.45,0,0,0-1.06-.41,3.13,3.13,0,0,0-.79.11,1.73,1.73,0,0,0-.68.33,2.76,2.76,0,0,1-.66-.66,1.65,1.65,0,0,1-.27-1,2.44,2.44,0,0,1,.63-1.46,3.88,3.88,0,0,1,1.47-1,4.46,4.46,0,0,1,1.71-.38,3.71,3.71,0,0,1,2.75,1.06A4.16,4.16,0,0,1,324,242.55Z"/></g></g></svg>