<svg xmlns="http://www.w3.org/2000/svg" viewBox="0 0 321.07 360.75"><defs><style>.cls-1{fill:#dfd9d0;}.cls-2{fill:#1f8ebe;}.cls-3{fill:#f9f3e9;}</style></defs><title>UD3</title><g id="Capa_2" data-name="Capa 2"><g id="Capa_1-2" data-name="Capa 1"><polygon class="cls-1" points="320.57 155.46 0.55 155.46 0.55 14.46 3.54 14.46 3.54 152.47 317.58 152.47 317.58 6.9 320.57 6.9 320.57 155.46"/><path class="cls-2" d="M6.76,0h154a0,0,0,0,1,0,0V51.32a0,0,0,0,1,0,0H.76a0,0,0,0,1,0,0V6A6,6,0,0,1,6.76,0Z"/><path class="cls-3" d="M87.51,14.22a1.09,1.09,0,0,1,.84.36,1.24,1.24,0,0,1,.33.87V27.36a8.07,8.07,0,0,1-1.06,4.14,8,8,0,0,1-2.87,2.89,7.86,7.86,0,0,1-4.08,1.07,8,8,0,0,1-4.12-1.07,7.8,7.8,0,0,1-2.87-2.89,8.17,8.17,0,0,1-1.05-4.14V15.45a1.22,1.22,0,0,1,.35-.87,1.2,1.2,0,0,1,.91-.36,1.21,1.21,0,0,1,.86.36,1.16,1.16,0,0,1,.37.87V27.36a5.74,5.74,0,0,0,.75,2.94,5.55,5.55,0,0,0,4.8,2.76,5.6,5.6,0,0,0,2.82-.74,5.78,5.78,0,0,0,2.09-2,5.49,5.49,0,0,0,.79-2.94V15.45a1.31,1.31,0,0,1,.3-.87A1,1,0,0,1,87.51,14.22Z"/><path class="cls-2" d="M160.76,0h160a0,0,0,0,1,0,0V51.32a0,0,0,0,1,0,0h-154a6,6,0,0,1-6-6V0A0,0,0,0,1,160.76,0Z" transform="translate(481.53 51.32) rotate(180)"/><path class="cls-3" d="M245,13.05a1.15,1.15,0,0,1,.87.34,1.2,1.2,0,0,1,.33.86V34a1.21,1.21,0,0,1-.34.87,1.15,1.15,0,0,1-.86.36,1.13,1.13,0,0,1-.85-.36,1.22,1.22,0,0,1-.35-.87V31.17l.57-.21a3.14,3.14,0,0,1-.43,1.51A5.45,5.45,0,0,1,242.67,34a7,7,0,0,1-1.85,1.14,5.73,5.73,0,0,1-2.28.45,6.58,6.58,0,0,1-3.66-1,7.38,7.38,0,0,1-2.56-2.88,9,9,0,0,1-.95-4.17,9,9,0,0,1,.95-4.2,7.34,7.34,0,0,1,2.55-2.87,6.67,6.67,0,0,1,7.9.53,5.56,5.56,0,0,1,1.31,1.59,3.66,3.66,0,0,1,.46,1.74l-.78-.18V14.25a1.18,1.18,0,0,1,.35-.86A1.15,1.15,0,0,1,245,13.05Zm-6.18,20.28a4.68,4.68,0,0,0,2.67-.77,5.29,5.29,0,0,0,1.8-2.1,7.24,7.24,0,0,0,0-6,5.27,5.27,0,0,0-1.81-2.09,4.71,4.71,0,0,0-2.66-.76,4.63,4.63,0,0,0-2.62.76,5.3,5.3,0,0,0-1.82,2.09,7.17,7.17,0,0,0,0,6,5.39,5.39,0,0,0,1.82,2.12A4.57,4.57,0,0,0,238.78,33.33Z"/><polygon class="cls-1" points="321.07 258.1 0 258.1 0 153.96 3 153.96 3 255.1 318.07 255.1 318.07 153.96 321.07 153.96 321.07 258.1"/><path class="cls-1" d="M309.39,360.75H11.68A11.7,11.7,0,0,1,0,349.06V256.6H3v92.46a8.69,8.69,0,0,0,8.68,8.69H309.39a8.69,8.69,0,0,0,8.68-8.69V256.6h3v92.46A11.7,11.7,0,0,1,309.39,360.75Z"/><rect class="cls-1" x="159.85" width="3" height="129.96"/><path class="cls-2" d="M164.89,139.91a6.77,6.77,0,0,1-.46,2.31,9.54,9.54,0,0,1-1.28,2.31,7.72,7.72,0,0,1-1.8,1.77,3.42,3.42,0,0,1-2,.68,2.27,2.27,0,0,1-1.28-.35,1.33,1.33,0,0,1-.51-1.17c0-.69.22-1.09.68-1.2a6.3,6.3,0,0,0,1.33-.49,3,3,0,0,0,1.12-1.06,2.8,2.8,0,0,0,.4-1.44,1.37,1.37,0,0,0-.4-1,1.46,1.46,0,0,0-1.06-.41,3.27,3.27,0,0,0-.8.11,1.8,1.8,0,0,0-.68.33,2.91,2.91,0,0,1-.65-.66,1.65,1.65,0,0,1-.27-1,2.43,2.43,0,0,1,.63-1.47,4,4,0,0,1,1.47-1,4.38,4.38,0,0,1,1.71-.38,3.72,3.72,0,0,1,2.75,1.06A4.16,4.16,0,0,1,164.89,139.91Z"/><rect class="cls-1" x="159.85" y="149.77" width="3" height="4.19"/><rect class="cls-1" x="159.85" y="153.96" width="3" height="78.63"/><path class="cls-2" d="M164.89,242.55a6.77,6.77,0,0,1-.46,2.31,9.36,9.36,0,0,1-1.28,2.31,7.72,7.72,0,0,1-1.8,1.77,3.42,3.42,0,0,1-2,.68,2.27,2.27,0,0,1-1.28-.35,1.33,1.33,0,0,1-.51-1.17c0-.69.22-1.09.68-1.2a6.3,6.3,0,0,0,1.33-.49,2.93,2.93,0,0,0,1.12-1.06,2.8,2.8,0,0,0,.4-1.44,1.37,1.37,0,0,0-.4-1,1.46,1.46,0,0,0-1.06-.41,3.27,3.27,0,0,0-.8.11,1.8,1.8,0,0,0-.68.33,2.72,2.72,0,0,1-.65-.66,1.63,1.63,0,0,1-.27-1,2.38,2.38,0,0,1,.63-1.46,3.88,3.88,0,0,1,1.47-1,4.38,4.38,0,0,1,1.71-.38,3.72,3.72,0,0,1,2.75,1.06A4.16,4.16,0,0,1,164.89,242.55Z"/><rect class="cls-1" x="159.85" y="252.41" width="3" height="4.19"/><rect class="cls-1" x="159.85" y="256.6" width="3" height="78.63"/><path class="cls-2" d="M164.89,345.19a6.77,6.77,0,0,1-.46,2.31,9.36,9.36,0,0,1-1.28,2.31,7.72,7.72,0,0,1-1.8,1.77,3.35,3.35,0,0,1-2,.68,2.19,2.19,0,0,1-1.28-.35,1.33,1.33,0,0,1-.51-1.17c0-.69.22-1.09.68-1.2a6.3,6.3,0,0,0,1.33-.49,2.85,2.85,0,0,0,1.12-1.06,2.75,2.75,0,0,0,.4-1.44,1.37,1.37,0,0,0-.4-1,1.46,1.46,0,0,0-1.06-.41,3.27,3.27,0,0,0-.8.11,2,2,0,0,0-.68.33,2.86,2.86,0,0,1-.65-.65,1.67,1.67,0,0,1-.27-1,2.38,2.38,0,0,1,.63-1.47,4,4,0,0,1,1.47-1,4.38,4.38,0,0,1,1.71-.38,3.76,3.76,0,0,1,2.75,1.06A4.17,4.17,0,0,1,164.89,345.19Z"/></g></g></svg>