<svg xmlns="http://www.w3.org/2000/svg" viewBox="0 0 641 258.1"><defs><style>.cls-1{fill:#dfd9d0;}.cls-2{fill:#1f8ebe;}.cls-3{fill:#f9f3e9;}</style></defs><title>UMCDU2</title><g id="Capa_2" data-name="Capa 2"><g id="Capa_1-2" data-name="Capa 1"><polygon class="cls-1" points="641 155.46 0 155.46 0 14.46 3 14.46 3 152.46 638 152.46 638 6.9 641 6.9 641 155.46"/><path class="cls-2" d="M6.49,0h154a0,0,0,0,1,0,0V51.32a0,0,0,0,1,0,0H.49a0,0,0,0,1,0,0V6a6,6,0,0,1,6-6Z"/><path class="cls-3" d="M75,14.22a1.08,1.08,0,0,1,.84.35,1.27,1.27,0,0,1,.33.88v11.9a8,8,0,0,1-1.06,4.14A8.22,8.22,0,0,1,64,34.39a7.76,7.76,0,0,1-2.87-2.9,8.12,8.12,0,0,1-1.05-4.14V15.45a1.24,1.24,0,0,1,.35-.88,1.29,1.29,0,0,1,1.77,0,1.18,1.18,0,0,1,.37.88v11.9a5.72,5.72,0,0,0,.75,2.94,5.5,5.5,0,0,0,4.8,2.76A5.57,5.57,0,0,0,71,32.32a5.81,5.81,0,0,0,2.09-2,5.46,5.46,0,0,0,.79-2.94V15.45a1.34,1.34,0,0,1,.3-.88A1,1,0,0,1,75,14.22Z"/><path class="cls-3" d="M82.65,14.22a1.37,1.37,0,0,1,.59.14,1.39,1.39,0,0,1,.49.39l8,12-1.05,0,8-12a1.13,1.13,0,0,1,1-.53,1.38,1.38,0,0,1,.84.35,1.15,1.15,0,0,1,.36.88V34a1.17,1.17,0,0,1-.36.87,1.31,1.31,0,0,1-1.8,0,1.17,1.17,0,0,1-.36-.87V17.72l.75.15L92,28.64a1.68,1.68,0,0,1-.43.36,1,1,0,0,1-.53.15,1,1,0,0,1-.54-.15,1.62,1.62,0,0,1-.45-.36l-7-10.77.63-.78V34a1.22,1.22,0,0,1-.33.87,1.09,1.09,0,0,1-.84.36,1,1,0,0,1-.82-.36,1.26,1.26,0,0,1-.32-.87V15.45a1.24,1.24,0,0,1,.35-.86A1.13,1.13,0,0,1,82.65,14.22Z"/><rect class="cls-2" x="160.49" width="160" height="51.32"/><path class="cls-3" d="M248.58,15.62a1,1,0,0,1,.58.81,1.25,1.25,0,0,1-.28,1,.89.89,0,0,1-.69.42,1.6,1.6,0,0,1-.84-.18,9.26,9.26,0,0,0-2.13-.94,8.61,8.61,0,0,0-5.64.27,7.69,7.69,0,0,0-4.23,4.36,9.25,9.25,0,0,0-.6,3.39,9.35,9.35,0,0,0,.63,3.54,7.88,7.88,0,0,0,1.72,2.66,7.21,7.21,0,0,0,2.55,1.66,8.43,8.43,0,0,0,3.17.57,8.13,8.13,0,0,0,2.37-.33,8.34,8.34,0,0,0,2.16-1,1.47,1.47,0,0,1,.84-.14,1.11,1.11,0,0,1,.72.41,1.28,1.28,0,0,1,.27,1,1,1,0,0,1-.57.76,11.35,11.35,0,0,1-1.71.83,11.21,11.21,0,0,1-2,.58,10.41,10.41,0,0,1-2.08.21,11.11,11.11,0,0,1-4.08-.75A10.18,10.18,0,0,1,233,29.23a11.3,11.3,0,0,1-.85-4.49,11.11,11.11,0,0,1,.81-4.29,10.23,10.23,0,0,1,2.26-3.39,10.57,10.57,0,0,1,3.39-2.25,10.75,10.75,0,0,1,4.19-.81,11.5,11.5,0,0,1,3,.42A11,11,0,0,1,248.58,15.62Z"/><rect class="cls-2" x="320.49" width="160" height="51.32"/><path class="cls-3" d="M401.06,14.24a8.6,8.6,0,0,1,3.86.83,7.8,7.8,0,0,1,2.77,2.29,10.48,10.48,0,0,1,1.67,3.38,14.26,14.26,0,0,1,.55,4,13.63,13.63,0,0,1-1,5.27A8.77,8.77,0,0,1,406,33.82a8.12,8.12,0,0,1-4.92,1.42h-7.5a1.15,1.15,0,0,1-.85-.35,1.22,1.22,0,0,1-.35-.87V15.45a1.18,1.18,0,0,1,.35-.86,1.15,1.15,0,0,1,.85-.35Zm-.3,18.66a6.05,6.05,0,0,0,3.77-1.11,6.27,6.27,0,0,0,2.13-3,11.8,11.8,0,0,0,.67-4.08,12.59,12.59,0,0,0-.37-3.1A7.91,7.91,0,0,0,405.79,19a5.62,5.62,0,0,0-2-1.8,6.32,6.32,0,0,0-3-.66h-6.15l.24-.24V33.2l-.18-.3Z"/><path class="cls-2" d="M480.49,0h160a0,0,0,0,1,0,0V51.32a0,0,0,0,1,0,0h-154a6,6,0,0,1-6-6V0A0,0,0,0,1,480.49,0Z" transform="translate(1120.99 51.32) rotate(180)"/><path class="cls-3" d="M567.36,14.22a1.08,1.08,0,0,1,.84.35,1.28,1.28,0,0,1,.33.88V27.36a8,8,0,0,1-1.06,4.13,8.22,8.22,0,0,1-11.07,2.9,7.76,7.76,0,0,1-2.87-2.9,8.1,8.1,0,0,1-1-4.13V15.45a1.26,1.26,0,0,1,.35-.88,1.26,1.26,0,0,1,2.14.88V27.36a5.7,5.7,0,0,0,.75,2.93,5.53,5.53,0,0,0,4.8,2.77,5.6,5.6,0,0,0,2.82-.74,5.81,5.81,0,0,0,2.09-2,5.45,5.45,0,0,0,.79-2.93V15.45a1.36,1.36,0,0,1,.3-.88A1,1,0,0,1,567.36,14.22Z"/><rect class="cls-1" x="158.99" width="3" height="256.6"/><rect class="cls-1" x="318.99" width="3" height="256.6"/><rect class="cls-1" x="478.99" width="3" height="256.6"/><path class="cls-1" d="M629.32,258.1H11.68A11.69,11.69,0,0,1,0,246.42V154H3v92.46a8.68,8.68,0,0,0,8.68,8.68H629.32a8.69,8.69,0,0,0,8.68-8.68V154h3v92.46A11.69,11.69,0,0,1,629.32,258.1Z"/></g></g></svg>