<svg xmlns="http://www.w3.org/2000/svg" xmlns:xlink="http://www.w3.org/1999/xlink" viewBox="0 0 159.45 120.03"><defs><style>.cls-1,.cls-10,.cls-2{fill:none;}.cls-1,.cls-10,.cls-12,.cls-3,.cls-4,.cls-7,.cls-8,.cls-9{stroke:#000;stroke-miterlimit:10;}.cls-1,.cls-10,.cls-12,.cls-15,.cls-3,.cls-4,.cls-7,.cls-8,.cls-9{stroke-linecap:round;}.cls-1,.cls-3,.cls-4,.cls-7,.cls-8{stroke-width:0.25px;}.cls-3,.cls-5{fill:#c0a5b4;}.cls-4{fill:#615a52;}.cls-6{fill:#f7e8ed;}.cls-7{fill:#ffe3c3;}.cls-8{fill:#674a5c;}.cls-14,.cls-9{fill:#fff;}.cls-9{stroke-width:0.5px;}.cls-10{stroke-width:0.75px;}.cls-11{clip-path:url(#clip-path);}.cls-12{fill:#7e2d3a;}.cls-13{fill:#fea49c;}.cls-15{fill:#a0dbf0;stroke:#4a91cd;stroke-linejoin:round;}</style><clipPath id="clip-path"><path class="cls-1" d="M132.36,72.07c-3.79,1.39-14.72,9.09-27.89,9.21S82.16,80.2,77.66,77.81c-4.92-2.61-8.85-1.55-10.17,2.75s1.72,12.49,9.85,15.72,19.81,5.48,31.25,1.94,18.51-8.68,21.26-14.66S133.17,71.77,132.36,72.07Z"/></clipPath></defs><title>Correct feedbacK_alce</title><g id="Layer_2" data-name="Layer 2"><g id="Layer_1-2" data-name="Layer 1"><rect class="cls-2" width="159.45" height="120.03"/><path class="cls-3" d="M116.83,105c3.85-1.84,18.81-14.85,24-20.9s7.59-9.32,8.12-10,8-6.86,7.91-8.6-5.77-9.74-9-9.84-6.94,7.68-7.69,8.61-7.8,13.83-11,17S114.8,96,112,97.19s-3,5.22-1.6,7.07S115.12,105.79,116.83,105Z"/><path class="cls-4" d="M145.05,67.6c2,1.05,3.87,5.84,3.83,6.44,0,0,2.53-2.22,3.53-3.14a33,33,0,0,0,4.22-4.61c.46-.85.93-.71-2.11-5.34-2.78-3.45-5-5.33-6.49-5.44s-3.1,1.58-4.71,3.78a63.4,63.4,0,0,0-4.45,7.39S142.74,66.38,145.05,67.6Z"/><path class="cls-5" d="M83.57,120h40.62a64.08,64.08,0,0,0-4.75-9.06c-7.06-10.71-16.31-17.84-23.94-16.28-11.73,2.39-14.9,12.52-12.82,19.78A29,29,0,0,1,83.57,120Z"/><path d="M83.45,120h.25a28.41,28.41,0,0,0-.9-5.59,15.81,15.81,0,0,1,1.62-12.33c2.28-3.76,6.12-6.28,11.1-7.3,7.12-1.45,16.25,4.76,23.81,16.22a63.67,63.67,0,0,1,4.72,9h.28a64.41,64.41,0,0,0-4.79-9.13c-7.62-11.55-16.84-17.82-24.07-16.33-5,1-8.94,3.59-11.26,7.41a16,16,0,0,0-1.65,12.53A29.36,29.36,0,0,1,83.45,120Z"/><path class="cls-6" d="M90.07,102.67c.24,2-3.77,9-2.89,10.09s3.93.36,4.49.84c.27.23,1.32,3.48,2.48,6.43h23.49l0,0a1,1,0,0,1,.55,0h6.11a97.87,97.87,0,0,0-4.82-9.12c-1.69-2.42-6.46-10-15.51-14.79-5.11-2.67-13.09-1.91-18.32,4.31C85.45,100.71,89.83,100.67,90.07,102.67Z"/><path d="M86.39,100.77c1.19.2,3.4.58,3.56,1.91.11.91-.72,3-1.53,4.94-1,2.45-1.85,4.57-1.34,5.22s1.93.71,3,.7a3.54,3.54,0,0,1,1.47.15,26.22,26.22,0,0,1,1.25,3.08c.33.89.78,2.25,1.18,3.26h.26c-.41-1-.86-2.43-1.21-3.35a17.46,17.46,0,0,0-1.32-3.18,3.08,3.08,0,0,0-1.63-.21c-1,0-2.35,0-2.84-.61s.53-2.89,1.38-5,1.65-4.09,1.54-5.06c-.19-1.52-2.52-1.91-3.77-2.13a4.46,4.46,0,0,1-.57-.11c5.23-6.12,13.2-6.73,18.08-4.18,8.4,4.4,13.07,11.26,15.07,14.18l.39.57a95.19,95.19,0,0,1,4.79,9h.28a93.77,93.77,0,0,0-4.86-9.19l-.39-.57c-2-2.94-6.71-9.83-15.17-14.26-5.11-2.68-13.1-2-18.46,4.34l-.06.09,0,.06C85.6,100.63,85.77,100.66,86.39,100.77Z"/><path class="cls-5" d="M75.29,120c3.11-2.48,9-5.63,11.43-5.87l-.08-10.61c-2.19.29-17.8,8.44-21.85,16.48Z"/><path d="M64.93,120c4-7.91,19.4-16,21.73-16.36a.12.12,0,0,0,.1-.14.11.11,0,0,0-.14-.11c-2.36.32-18,8.6-22,16.61Z"/><path d="M86.71,114c-2.38.24-8.43,3.39-11.62,6h.4c3.18-2.48,9-5.52,11.24-5.75a.12.12,0,0,0,.11-.13.12.12,0,0,0-.12-.12Z"/><path class="cls-7" d="M87.42,28.48c4.35-1,9.77-1.38,13-6.83s3.68-6.89,3.84-10.34.48-4.52,2.55-4.81,1.86,4,4.27,4.32,1.67-6.53,5.13-6.62,3.56,4.35,4.56,7.35,4.11-1.29,4.43-3.34,5.64-3.31,5.63,6.35-13,15.35-19.84,17.06-17.79,1.81-21.45.76S85,29,87.42,28.48Z"/><path class="cls-3" d="M100.52,37.55a41.94,41.94,0,0,0,14.55,2.59c7.41.14,15.21-6,16.54-5.14s2,5.29-1.76,10.42-11.25,11-17.75,11.65"/><path class="cls-3" d="M71.76,28.94c13-3.85,27.61-4.15,38.62,3.51s14.52,22,19.31,24.41,9.42.16,11,1.44,5.91,14,2.08,23.78-28.09,24.74-52.51,23.62-33-9.1-39.9-24.42S43,37.39,71.76,28.94Z"/><path class="cls-3" d="M46.78,58c-1.2,4.63-2,8-4.9,12.18C37.63,76.29,28.11,79,28,80.56s3.11,4.71,9.46,4.71S53,82.68,57.32,77.77"/><path class="cls-8" d="M62.82,33.41a12.64,12.64,0,0,1-1-8.56C63,20.24,66.29,14,76.59,15.93c0,0-7.13.12-9.16,6.1,0,0,5.57-3.47,11.43-.59s11,9.63,11,9.63a55.93,55.93,0,0,0-10.46-3.31c-4.61-.77-8.27,3.55-8.27,3.55"/><path class="cls-7" d="M60.2,34.31c-5.58.92-12.48,3.31-18.92-1.53S34,26.15,32.21,22.19s-2.72-5.08-5.28-4.44-.27,5.6-2.95,7.11S18.92,18,14.81,19.52,12.7,26.31,13,30.32s-5.44.44-6.79-1.82S-2,27.3,2.59,38.63,25.12,50.47,34,49.22s21.74-6.34,25.52-9.31S63.34,33.79,60.2,34.31Z"/><path class="cls-9" d="M94.05,65.66c.23-4.57-3.2-12.58-7.09-12.58-4.6,0-8.93,5-9.15,11.9s7.69,9.85,11.93,8.08C91.89,72.16,93.87,69.35,94.05,65.66Z"/><ellipse cx="90.48" cy="64.43" rx="3.51" ry="4.52" transform="matrix(0.99, -0.13, 0.13, 0.99, -7.61, 12.31)"/><path class="cls-9" d="M111.12,56.92c-1.16-4.21-1-9.51,1.51-10.78,3.28-1.63,9.2,1.09,11.54,7.47,2.25,6.17-4.7,10.82-7.93,9.44S112.05,60.32,111.12,56.92Z"/><ellipse cx="117.75" cy="56.5" rx="3.37" ry="4.52" transform="translate(-4.57 10.72) rotate(-5.12)"/><path class="cls-10" d="M73.24,49.62c.65-3.17,1.61-11.19,6.52-11.85s8,3.77,8,3.77"/><path class="cls-10" d="M105.15,39c.12-2.75.44-7.43,3.39-7.36,1.58,0,5.62,4,6.49,5"/><path class="cls-1" d="M130.9,64.35c-.76,0-1.69.6-2.17,2a3.11,3.11,0,0,0,.36,2.58"/><ellipse cx="132.26" cy="66.37" rx="0.7" ry="0.76"/><g class="cls-11"><path class="cls-12" d="M132.36,72.07c-3.79,1.39-14.72,9.09-27.89,9.21s-22.38-1-26.81-3.47-8.85-1.55-10.17,2.75,1.72,12.49,9.85,15.72,19.81,5.48,31.25,1.94,18.51-8.68,21.26-14.66S133.17,71.77,132.36,72.07Z"/><path class="cls-13" d="M121.63,74c4.12,1.47,10.69,6.62,11,11.09s-24,26.81-43,20.43S58.27,93.65,60.27,83.36s2.95-15,15.8-12.77S119.4,73.22,121.63,74Z"/><path class="cls-14" d="M64.9,77.93c1.55,4,15.08,10.61,29,9.58S120.11,85,127.06,80s9.73-7.51,10.45-10.86-7-9.09-7-9.09S105.91,73.94,97.29,72.9,69.21,67,65.53,65.16,63.22,73.62,64.9,77.93Z"/></g><path class="cls-1" d="M132.36,72.07c-3.79,1.39-14.72,9.09-27.89,9.21S82.16,80.2,77.66,77.81c-4.92-2.61-8.85-1.55-10.17,2.75s1.72,12.49,9.85,15.72,19.81,5.48,31.25,1.94,18.51-8.68,21.26-14.66S133.17,71.77,132.36,72.07Z"/><path class="cls-15" d="M152.49,80.83s-2.77,7.9,5.38,10.25c0,0-9.92-3.78-12.52,1.77,0,0,.76-9.83-.84-10.59C144.51,82.26,151.15,82.43,152.49,80.83Z"/><path class="cls-15" d="M61.56,100s-6.26,4.81-6.41,6.7c0,0-5.68-8.3-8.15-8.74,0,0,6.4-1.16,7.13-3.64C54.13,94.3,55,98.52,61.56,100Z"/></g></g></svg>