<svg xmlns="http://www.w3.org/2000/svg" viewBox="0 0 136.34 300"><defs><style>.cls-1{fill:#ffcea0;}.cls-2{fill:#303030;}.cls-3{fill:#fff;}.cls-4{fill:#477d2e;}.cls-5{fill:#007d3a;}.cls-6{fill:#010201;}.cls-7{fill:#b9e3cb;}.cls-8{fill:#74307f;}.cls-9{fill:#fff0b0;}</style></defs><title>Ana</title><g id="Capa_2" data-name="Capa 2"><g id="Layer_3" data-name="Layer 3"><polygon class="cls-1" points="76.52 109.62 76.7 113.31 67.09 130.81 52.25 116.79 53.79 107.71 76.52 109.62"/><path d="M67.14,131.14,52,116.86l1.59-9.37,23.1,1.94.18,3.93,0,0ZM52.47,116.72,67,130.48l9.45-17.22-.16-3.45L54,107.93Z"/><path class="cls-1" d="M28.4,79.4c-7.41-2.81-2.14,10.1,2.83,7.1,4.85,19,40,50,68.27-2.91,6.11-.09,9.15-12.21,0-8.93l1.85-16.93L89.13,30.27l-32.47-7s-15,10.67-16,11.15S27.57,43,27.57,43L24.72,57.73l1.64,15.92Z"/><path d="M63.62,113.15a26.36,26.36,0,0,1-3.14-.19C45.34,111.13,33.76,96.69,31.1,86.81c-1.44.73-3.06.31-4.48-1.17-1.61-1.67-2.72-4.57-1.74-6,.39-.6,1.26-1.15,3.18-.52l-1.91-5.4-1.63-16v0l2.86-14.83.07,0c.5-.33,12.14-8.12,13.11-8.6s15.83-11,16-11.14l.07-.05.09,0,32.57,7.05,0,.1L101.56,57.7,99.74,74.36c2.84-.94,4.25-.3,4.93.43,1,1,1.09,2.88.27,4.81s-2.66,4.09-5.32,4.19C86.94,107.49,73.53,113.15,63.62,113.15Zm-32.26-27,.07.27c2.5,9.77,14,24.28,29.1,26.1,10,1.21,24.8-2.86,38.79-29.06l.06-.1h.12c2.52,0,4.31-2.15,5.06-4s.67-3.47-.18-4.37-2.56-1-4.81-.22l-.31.11,1.88-17.2L89,30.45l-32.28-7c-1.27.9-15,10.64-16,11.11s-12,7.86-13,8.53L24.93,57.74l1.63,15.87,2.18,6.14-.41-.16c-1.55-.59-2.63-.51-3.11.22-.76,1.15.06,3.85,1.69,5.55.65.67,2.34,2.1,4.22,1Z"/><path class="cls-2" d="M63.85,27.07S44.4,46.59,29.74,44.25c0,0,3,27.22-1.58,34.42H26.58S9,33.75,56.17,19c3.18-.48,7.68,2.06,7.68,2.06a16.14,16.14,0,0,1,8.56-2.67s38.72,1.87,29.45,55.83l-1,1s-5.81-5.33-6.42-31.87C94.46,43.36,72.74,42.05,63.85,27.07Z"/><path d="M28.27,78.88H26.44l-.05-.13c-.07-.2-7.61-19.93.77-37.39,5.06-10.54,14.8-18.13,29-22.56,3-.45,7,1.62,7.73,2a16.58,16.58,0,0,1,8.57-2.63A33.84,33.84,0,0,1,95,30.3c8,10,10.36,24.73,7,44v.06l-1.16,1.19-.14-.13c-.24-.22-5.87-5.67-6.49-31.83-2.15-.18-22-2.2-30.45-16.15-2,2-20.05,19-33.84,17.09.32,3,2.77,27.41-1.64,34.29Zm-1.54-.41h1.32c4.43-7.2,1.52-33.93,1.49-34.2l0-.26.26,0C44.16,46.34,63.51,27.12,63.7,26.93l.19-.19L64,27c8.74,14.71,30.24,16.17,30.45,16.18l.19,0v.18c.54,23.89,5.35,30.57,6.22,31.58l.78-.8c3.27-19.08.92-33.73-7-43.57a33.33,33.33,0,0,0-22.3-12A16,16,0,0,0,64,21.23l-.11.07-.11-.06s-4.48-2.51-7.55-2c-14,4.39-23.66,11.9-28.67,22.34C19.59,58.09,26.09,76.73,26.73,78.47Z"/><path d="M33.89,51.55a.39.39,0,0,1-.23-.07.4.4,0,0,1-.11-.57c3.53-5.3,7.51-8.11,11.8-8.33C51.91,42.24,56.77,48,57,48.27a.42.42,0,0,1,0,.58.41.41,0,0,1-.58-.06c-.05,0-4.8-5.71-11-5.39-4,.21-7.78,2.89-11.16,8A.41.41,0,0,1,33.89,51.55Z"/><path d="M91.32,50.54a.4.4,0,0,1-.36-.22c-2-3.77-4.4-5.81-7.1-6.06-4.74-.44-9,4.81-9,4.86a.41.41,0,0,1-.64-.51c.18-.23,4.55-5.64,9.73-5.17,3,.28,5.6,2.46,7.75,6.5a.41.41,0,0,1-.17.55A.45.45,0,0,1,91.32,50.54Z"/><path d="M59.81,80.34a.2.2,0,0,1-.2-.21c0-1.94,1.61-4.56,3.62-4.89,1-.17,3,.19,4.42,4.46a.2.2,0,0,1-.13.26.2.2,0,0,1-.26-.13c-1-3-2.4-4.44-4-4.18-1.76.29-3.27,2.71-3.27,4.48A.21.21,0,0,1,59.81,80.34Z"/><path d="M43.62,93.24a.21.21,0,0,1-.19-.13.2.2,0,0,1,.11-.26c5.78-2.34,4.86-7.22,4.82-7.43a.2.2,0,0,1,.16-.24.21.21,0,0,1,.24.16s1,5.42-5.06,7.89Z"/><path d="M85.75,90.76A5.33,5.33,0,0,1,82,89.44a6.93,6.93,0,0,1-2-4.56.22.22,0,0,1,.2-.21.19.19,0,0,1,.21.2,6.66,6.66,0,0,0,1.84,4.27,5.18,5.18,0,0,0,4,1.19.21.21,0,0,1,0,.41Z"/><path d="M61.3,95a32.76,32.76,0,0,1-13.6-2.73c-1.3-.67-1.3-1-1.3-1.11a.2.2,0,0,1,.2-.2.21.21,0,0,1,.21.19c.06.18.91.83,3.13,1.61,2.82,1,17.6,5.41,31.36-4.59a.21.21,0,0,1,.29,0,.22.22,0,0,1,0,.29A34,34,0,0,1,61.3,95ZM46.81,91.15Z"/><path d="M64,99.63c-1.38,0-2.45-.1-2.56-.11a.21.21,0,0,1,0-.41c.07,0,6.39.61,8.35-1.13a.19.19,0,0,1,.28,0,.21.21,0,0,1,0,.29C68.86,99.4,66.09,99.63,64,99.63Z"/><path d="M92.9,58.16h0a.21.21,0,0,1-.21-.2.19.19,0,0,1,.21-.2h0c.29,0,6.07-.09,6.39-6.63a.21.21,0,0,1,.22-.19.19.19,0,0,1,.19.21A6.9,6.9,0,0,1,92.9,58.16Z"/><path d="M95.23,61.38A3,3,0,0,1,94,61.13a.2.2,0,1,1,.17-.37c.15.07,3.69,1.63,7-5.13a.21.21,0,0,1,.28-.09.2.2,0,0,1,.09.27C99.19,60.54,96.69,61.38,95.23,61.38Z"/><path d="M36.9,61.11c-1.15,0-4.54-.53-5.87-6.52a.21.21,0,0,1,.16-.24.21.21,0,0,1,.24.16c1.51,6.83,5.73,6.18,5.78,6.17a.2.2,0,0,1,.07.4A2.28,2.28,0,0,1,36.9,61.11Z"/><path d="M35.79,64.76h0c-.06,0-5.88-1-6.72-6.29a.21.21,0,0,1,.18-.23.2.2,0,0,1,.23.17c.79,5,6.31,5.94,6.37,6a.2.2,0,0,1,0,.4Z"/><path class="cls-3" d="M49.14,79.06s4.54-1,5.56-7-1-17.41-1-17.41l-1.66-.77-2.92-.79-2.43-.06-1.44.26-1.34.47-1.35.71L41,55.68l-1.79,2-1.62,2.51-1.1,2.36-1,3.14-.58,2.75-.35,2.88v2.66L35,76.67l.78,2,.48.73,2.07-.9,1.78-.73L42,77.62l1.48-.07h1.17l2.86.72,1,.47Z"/><path class="cls-3" d="M81.62,78.26s-3.73.41-5.23-7.61c-1.12-6-.81-15.61-.81-15.61l2-1.37,3.32-1.56,2.91-.36,1.37.1,2.33.69,1.47.83,1.79,1.53,1.66,2.22,1.35,3,.62,2.33.22,3.05-.25,2.9L94,70.49l-.86,2-.44,1.44-.42,1-.92,1.31h-.73L89,75.77l-1.8.29-1.71.27-1.15.48-1,.58-1.25.69Z"/><path class="cls-4" d="M54,54.84S56.67,68.7,46.68,69,37,61.5,37,61.5l1.37-2.56,1.62-2.16,2.38-2.19,2.15-1.12L47.15,53l1.75.07,2.07.44,1.85.64Z"/><path d="M46.15,69.14c-3.16,0-5.59-.82-7.22-2.46a7.58,7.58,0,0,1-2.14-5.19l0-.06,1.38-2.56,1.63-2.19,2.43-2.23,2.19-1.13,2.69-.46,1.78.06,2.09.45,1.87.65,1.3.73,0,.07c.06.31,1.41,7.67-1.87,11.74a7.13,7.13,0,0,1-5.64,2.58Zm-9-7.6a7.34,7.34,0,0,0,2,4.92c1.66,1.67,4.19,2.47,7.53,2.37a6.83,6.83,0,0,0,5.4-2.46c3-3.76,2-10.66,1.82-11.43l-1.16-.64-1.82-.64-2.05-.43-1.72-.06-2.63.44-2.11,1.1L40,56.89,38.44,59Z"/><path class="cls-3" d="M41.81,55.15C42.89,56,43.55,66.2,37,61.5l1.91-3.42Z"/><path d="M39.91,62.88a5.53,5.53,0,0,1-3-1.26l-.11-.08,2-3.57,3-3,.1.08c.82.62,1.24,5-.15,6.91A2.2,2.2,0,0,1,39.91,62.88Zm-2.76-1.43c2,1.4,3.47,1.5,4.35.3,1.27-1.75.87-5.61.31-6.39L39,58.17Z"/><path class="cls-4" d="M75.91,54.84s-3.3,11.43,7.81,11.77c10.86.33,8.49-9.76,8.49-9.76l-2-2.54L87.9,52.72l-2.44-.82-2.22-.15-2.33.36L78.85,53l-1.78,1.09Z"/><path d="M84.24,66.77h-.52c-3.2-.1-5.53-1.12-6.93-3-2.55-3.5-1-8.87-1-8.92l0-.06,1.21-.8,1.78-1.09L80.85,52l2.37-.38,2.29.16L88,52.6l2.31,1.61,2.06,2.6c0,.18,1,4.46-1.38,7.38C89.58,65.9,87.31,66.77,84.24,66.77ZM76,54.93c-.14.57-1.33,5.41,1,8.62,1.34,1.83,3.59,2.81,6.69,2.9s5.6-.73,7-2.46c2.19-2.67,1.41-6.67,1.33-7.08l-2-2.49-2.24-1.56-2.4-.81-2.2-.15-2.3.37-2,.85L77.15,54.2Z"/><path d="M36.22,79.66l-.11-.13c-3.21-4.11-2-16.35,3.58-22.78,2.76-3.18,7.57-6.08,14.81-1.88a.21.21,0,0,1,.07.28.2.2,0,0,1-.28.07c-7-4-11.63-1.26-14.29,1.8-5.42,6.23-6.67,18-3.67,22.12a14.51,14.51,0,0,1,13.56.09.2.2,0,0,1,.07.28.22.22,0,0,1-.28.07,14.09,14.09,0,0,0-13.31,0Z"/><path class="cls-3" d="M80.2,52.41c1.08.81,1.81,10.58-4.79,5.87l.13-2.19.37-1.25.89-.65Z"/><path d="M78.46,59.71a5.74,5.74,0,0,1-3.14-1.3l-.07,0,.14-2.28.39-1.33.93-.68,3.5-1.84.08.06c.79.59,1.25,4.72-.06,6.51A2.09,2.09,0,0,1,78.46,59.71Zm-2.89-1.5c2.07,1.45,3.55,1.59,4.42.41,1.21-1.67.78-5.34.18-6l-3.3,1.73-.83.6-.35,1.2Z"/><path d="M81.54,78.53a.21.21,0,0,1-.16-.08.21.21,0,0,1,0-.29A13.12,13.12,0,0,1,91.22,76C96.46,68,94.66,58.61,90,54.39c-4-3.59-9.43-3.18-14.54,1.11a.21.21,0,0,1-.29,0,.21.21,0,0,1,0-.29c5.29-4.43,10.92-4.85,15.09-1.11,4.85,4.36,6.7,14.09,1.25,22.22l-.08.12-.14,0a12.69,12.69,0,0,0-9.61,2.09A.18.18,0,0,1,81.54,78.53Z"/><path class="cls-5" d="M94.5,30s2.31-1.74,2.22-3.73-3.72-5.21-5.17-4a1,1,0,0,0,0,1.39s-1.47-.54-1.74.42a10.25,10.25,0,0,0-.35,1.81l4.43,4.19Z"/><path class="cls-6" d="M93.82,30.34,89.25,26v-.09a11,11,0,0,1,.35-1.86.92.92,0,0,1,.47-.58,1.7,1.7,0,0,1,1-.1,1.11,1.11,0,0,1,.28-1.22,1.86,1.86,0,0,1,2-.07c1.55.67,3.41,2.65,3.48,4.18.1,2.08-2.2,3.83-2.3,3.9l0,0Zm-4.14-4.5L94,29.89l.46-.08c.29-.23,2.18-1.8,2.1-3.53-.05-1.22-1.69-3.16-3.23-3.83a1.56,1.56,0,0,0-1.6,0,.76.76,0,0,0,0,1.1l.58.63-.8-.3a1.88,1.88,0,0,0-1.21-.05.52.52,0,0,0-.27.34A9.87,9.87,0,0,0,89.68,25.84Z"/><path class="cls-2" d="M96.2,28.09s3.59-3,9.41,9.6c4.18,12.44.55,25.36,1.18,29.9s4.09,11.82,4.18,14.82-1.09,9.17,1.18,12.36,5.67,4.73,5.73,5.82c.3,5.67,11.73,7.63,11.73-4.55,0,0-5.46,2.91-5.67-.51s7.3-12.12,7.76-19.48c0-3.27-1.73-2.18-1.82-6-.06-2.51,4.91-6,6.09-18.3s-4.27-16.88-4.55-19.06.82,0,1.73-7c1.09-8.46-20.59-29-40.06-3.68C91.32,25,96.2,28.09,96.2,28.09Z"/><path d="M123.21,105.25c-2.93,0-5.4-2.06-5.53-4.65,0-.42-.82-1.06-1.74-1.8a20.07,20.07,0,0,1-4-3.91c-1.75-2.46-1.51-6.51-1.32-9.76.07-1.06.12-2,.1-2.71,0-1.48-.94-4.06-1.88-6.8a47,47,0,0,1-2.3-8,33.1,33.1,0,0,1,.27-6.39c.61-6.29,1.43-14.92-1.44-23.47-3.39-7.36-6-9.35-7.58-9.71a1.76,1.76,0,0,0-1.51.2l-.12.1-.12-.08c-.21-.14-5-3.27-3.17-6.35,11.42-14.85,22.67-13.11,28.36-10.76,7.58,3.13,12.63,10.27,12.07,14.56s-1.16,5.16-1.52,5.7c-.22.32-.3.45-.2,1.25a7.25,7.25,0,0,0,1,2.15c1.66,2.89,4.43,7.71,3.54,16.94A34.34,34.34,0,0,1,131.36,67a7.07,7.07,0,0,0-1.28,3,4.6,4.6,0,0,0,.95,3.15,4.06,4.06,0,0,1,.87,2.86c-.26,4.23-2.84,8.93-4.91,12.7-1.58,2.87-2.94,5.34-2.85,6.77a1.42,1.42,0,0,0,.67,1.26c1.44.8,4.67-.9,4.7-.92l.3-.16V96c0,6.66-3.32,9.13-6.44,9.21ZM97.29,27.57a2.94,2.94,0,0,1,.62.07c1.68.37,4.4,2.41,7.89,10,2.91,8.66,2,17.69,1.47,23.66a33.25,33.25,0,0,0-.28,6.3,48.8,48.8,0,0,0,2.28,7.92c1,2.77,1.86,5.38,1.91,6.91,0,.76,0,1.68-.1,2.75-.19,3.19-.42,7.16,1.24,9.5a19.35,19.35,0,0,0,3.88,3.83c1.11.9,1.85,1.5,1.88,2.1.13,2.42,2.5,4.33,5.28,4.26s5.93-2.35,6-8.46c-.88.42-3.42,1.52-4.79.76a1.84,1.84,0,0,1-.88-1.6c-.09-1.54,1.29-4.06,2.9-7,2.05-3.74,4.61-8.39,4.86-12.52a3.67,3.67,0,0,0-.79-2.6,5,5,0,0,1-1-3.38c0-.9.55-1.88,1.33-3.25a33.42,33.42,0,0,0,4.76-15.07c.88-9.11-1.85-13.86-3.48-16.7a7.23,7.23,0,0,1-1.06-2.31c-.11-.92,0-1.13.27-1.53s.92-1.37,1.46-5.52-4.41-11.07-11.83-14.13c-5.58-2.31-16.62-4-27.87,10.61-1.49,2.48,2.25,5.22,3,5.7A2.09,2.09,0,0,1,97.29,27.57Z"/><path class="cls-7" d="M107.75,293.34l-.28,1.16c-1,3.54-16.89,4.81-29.23,3v-3Z"/><path d="M89.86,298.53a85.26,85.26,0,0,1-11.65-.78l-.17,0v-3.37l30-1.22-.34,1.42C106.93,297.17,98.81,298.53,89.86,298.53Zm-11.41-1.16c12.88,1.8,27.92.28,28.83-2.93l.21-.88-29,1.18Z"/><path class="cls-5" d="M78.24,291.24v5.51s27.37-.68,29.51-3.41c0,0-8.54-7.07-19.56-4.63S78.64,290.31,78.24,291.24Z"/><path d="M78,297l0-5.8.07-.22c.11-.42.18-.43,1.92-.76,1.31-.25,3.74-.71,8.09-1.67,11-2.43,19.65,4.6,19.74,4.67l.15.13-.12.16c-2.18,2.77-28.54,3.46-29.66,3.49Zm.41-5.68v5.26c9.26-.24,26.65-1.19,29-3.18-1.26-1-9.27-6.65-19.21-4.45-4.36,1-6.8,1.42-8.11,1.67-1.55.29-1.55.3-1.6.47A1.83,1.83,0,0,1,78.45,291.28Z"/><path d="M89.31,292.71a.93.93,0,0,1-.23,0,1.41,1.41,0,0,1-.94-.94c-.2-.9.75-2,1.74-3.14.05-1.15.24-2.93,1-3.31a.83.83,0,0,1,.9.15.77.77,0,0,1,.32.55c.08.7-.73,1.6-1.67,2.65l-.12.12c0,.27,0,.53,0,.76a3.07,3.07,0,0,1-.37,2.93A.83.83,0,0,1,89.31,292.71Zm.55-3.48c-.77.88-1.45,1.79-1.32,2.41.06.27.29.48.68.65a.44.44,0,0,0,.4-.14,2.74,2.74,0,0,0,.25-2.55v-.05A2.55,2.55,0,0,1,89.86,289.23Zm1.3-3.61a.27.27,0,0,0-.13,0c-.41.21-.62,1.33-.71,2.45.72-.81,1.4-1.61,1.35-2.08a.37.37,0,0,0-.16-.26A.63.63,0,0,0,91.16,285.62Z"/><path class="cls-7" d="M36.49,294.81l.28,1.16c1,3.54,16.89,4.81,29.23,3v-3Z"/><path d="M54.37,300c-8.94,0-17.06-1.36-17.8-4l-.34-1.42h.27l29.7,1.21v3.37l-.17,0A85.3,85.3,0,0,1,54.37,300Zm-17.62-5,.22.89c.9,3.2,16,4.72,28.83,2.92v-2.63Z"/><path class="cls-5" d="M66,292.71v5.51s-27.36-.68-29.51-3.41c0,0,8.54-7.07,19.57-4.63S65.6,291.78,66,292.71Z"/><path d="M66.2,298.43H66c-1.12,0-27.48-.72-29.66-3.49l-.12-.16.15-.13c.09-.07,8.75-7.1,19.74-4.67,4.36,1,6.79,1.42,8.09,1.67,1.75.33,1.81.34,1.93.76a.9.9,0,0,0,.07.22v5.8Zm-29.4-3.6c2.34,2,19.73,2.94,29,3.18v-5.26a2.16,2.16,0,0,1-.08-.23c0-.17,0-.18-1.6-.47-1.31-.25-3.75-.71-8.11-1.67C46.07,288.18,38.07,293.87,36.8,294.83Z"/><path d="M53.7,294.17a.86.86,0,0,1-.59-.26,3.07,3.07,0,0,1-.37-2.93c0-.23,0-.49,0-.76l-.11-.12c-.94-1.05-1.75-2-1.68-2.65a.76.76,0,0,1,.33-.55.83.83,0,0,1,.9-.15c.72.38.92,2.16,1,3.31,1,1.11,1.93,2.24,1.73,3.14a1.39,1.39,0,0,1-.92.93A.73.73,0,0,1,53.7,294.17Zm-.55-3.48v.38a2.76,2.76,0,0,0,.26,2.55.4.4,0,0,0,.41.13,1,1,0,0,0,.66-.64C54.61,292.49,53.92,291.58,53.15,290.69Zm-1.29-3.6a.63.63,0,0,0-.35.14.37.37,0,0,0-.16.26c-.05.47.62,1.27,1.35,2.08-.09-1.12-.31-2.24-.72-2.45A.25.25,0,0,0,51.86,287.09Z"/><path class="cls-8" d="M42.49,193.77c-.85,11.81,2.48,51.92,12.65,98.77.9.9,11,0,11,0s2.61-77.93,5.86-82c0,0,5.94,77.93,6.26,80.69,0,0,8.14-.65,9.6-1.46,6.1-17.82,7.65-84.28,8.29-97.12C95.77,184.76,43.34,182,42.49,193.77Z"/><path d="M58.52,293.15c-1.74,0-3.18-.11-3.52-.46l0,0v-.06C44.81,245.91,41.4,206,42.28,193.75l.21,0-.21,0c.45-6.26,14.2-8.3,26.92-8.14,13.18.18,26.94,2.86,27.13,7-.09,1.89-.21,4.92-.35,8.75-.81,21.91-2.73,73.19-7.94,88.44l0,.07-.07,0c-1.48.82-9.35,1.46-9.68,1.49h-.2l0-.19c-.31-2.6-5.61-72.06-6.21-80-3,8.29-5.48,80.51-5.5,81.26v.18l-.18,0C65.08,292.84,61.39,293.15,58.52,293.15Zm-3.19-.72c.79.55,6.79.26,10.59-.07.18-5.14,2.69-77.93,5.9-81.94l.32-.41,0,.52c.06.77,5.75,75.42,6.25,80.49,1.23-.1,7.81-.69,9.24-1.38,5.18-15.29,7.09-66.4,7.9-88.24.15-3.84.26-6.87.35-8.75-.16-3.45-12.15-6.43-26.73-6.63-11.95-.16-26.07,1.78-26.5,7.76C41.78,206.5,45.66,247.85,55.33,292.43Z"/><path class="cls-1" d="M21.71,100.49S5.82,86.43.2,67.22c0,0,0-23.4,47.85-62,0,0,18.63-9.95,26.45-1.63-.16,1.29-2,1.06-2,1.06s1,2-3.92,1.26c0,0,.07,1.76-8.75.5a3.35,3.35,0,0,0-2.39,1.52c-.59.77,9.52-.66,9.06,1.83S49.8,12.3,48.58,12.17,17.09,52.68,14.09,65.51c0,0,10.72,18.84,18.34,26C32.43,91.55,32,102,21.71,100.49Z"/><path d="M23.64,100.84a13.55,13.55,0,0,1-2-.15h-.06l-.05,0c-.16-.14-16-14.32-21.56-33.37v0c0-.24.07-6,6-16.63C11.47,40.83,23.18,25,47.92,5c.8-.44,18.89-10,26.73-1.62l.07.07,0,.1c-.13,1-1.23,1.27-2,1.25a1.05,1.05,0,0,1-.19.76c-.48.64-1.78.82-3.86.51a.73.73,0,0,1-.19.24c-.64.58-2.68,1.09-8.71.23a3.07,3.07,0,0,0-2.11,1.32A19,19,0,0,0,59.87,8c2.54,0,5.71,0,6.57,1a1,1,0,0,1,.21.81c-.52,2.76-16.9,2.71-18.06,2.63-1.76.83-31.15,40-34.28,53.1.72,1.26,11,19,18.26,25.92l.07.06v.09c0,.2-.26,4.8-3.49,7.47A8.41,8.41,0,0,1,23.64,100.84Zm-1.84-.55c2.92.42,5.3-.11,7.09-1.59,2.85-2.35,3.28-6.41,3.33-7.07-7.55-7.18-18.2-25.83-18.31-26l0-.07,0-.08c1.71-7.32,12-22.94,17.94-31.6,7-10.2,15.88-22,16.77-21.89,1.79.19,17.24-.13,17.64-2.29a.52.52,0,0,0-.12-.48c-.73-.87-4.05-.86-6.25-.84-2,0-2.55,0-2.68-.29a.29.29,0,0,1,0-.3,3.62,3.62,0,0,1,2.54-1.61h0c6.25.89,7.92.23,8.35-.09.16-.12.17-.22.17-.22V5.62l.25,0c2.63.41,3.4,0,3.63-.32a.66.66,0,0,0,.06-.65l-.15-.33.36,0s1.59.18,1.81-.79c-7.67-8-25.95,1.65-26.14,1.74C23.49,25.28,11.81,41.06,6.36,50.79.68,60.93.42,66.74.41,67.19,5.8,85.61,20.86,99.44,21.8,100.29Z"/><path d="M68.53,6.08h0a.21.21,0,0,1-.16-.24s0-.26-.24-.58c-.54-.61-2.35-1.6-8.39-1.34a.21.21,0,1,1,0-.41c6-.25,8,.68,8.74,1.51a1.1,1.1,0,0,1,.31.9A.2.2,0,0,1,68.53,6.08Z"/><path d="M72.45,4.82a.22.22,0,0,1-.18-.1s-2.13-3.19-9.75-2.41a.2.2,0,0,1-.22-.18.21.21,0,0,1,.18-.23c7.9-.8,10.05,2.46,10.14,2.6a.21.21,0,0,1-.06.28A.19.19,0,0,1,72.45,4.82Z"/><path d="M9.29,66.94a.23.23,0,0,1-.17-.08.21.21,0,0,1,.06-.29,7.23,7.23,0,0,1,4.94-1.26.2.2,0,1,1-.06.4,7.07,7.07,0,0,0-4.65,1.2A.27.27,0,0,1,9.29,66.94Z"/><path class="cls-1" d="M97.65,181.71c10.51-18.5,1.75-34.58,1.73-39.42L93.08,140,86.88,146s3,25.45,3.13,25.63S97.65,181.71,97.65,181.71Z"/><path d="M97.67,182.08l-.18-.25c-1.78-2.34-7.57-10-7.66-10.16S88.07,157.6,86.68,146v-.1l6.36-6.1,6.56,2.37v.15a22.94,22.94,0,0,0,1,4.78c1.9,7.09,5.44,20.3-2.76,34.74ZM90.2,171.5c.34.49,5.28,7,7.42,9.84,7.92-14.18,4.58-26.68,2.57-34.17a25.59,25.59,0,0,1-1-4.74l-6.05-2.19-6,5.78C88.12,154.59,90.05,170.65,90.2,171.5Z"/><path class="cls-9" d="M54.5,111.46a12.93,12.93,0,0,0,0,3.08c.25.62,11.1,8,12.21,8s9.86-8.14,10-9.25a7.62,7.62,0,0,0,0-1.85s3.7-1.36,6.6,0,14.36,17.63,16.08,30.83c0,0-6.65,3-9.61,2.71,0,0,10.11,45.5,9.61,46.73s-42.16,7.52-58.19,1.6c-1.11-.12,2.09-10.85,2.09-14.18s2.52-49.81.34-56.47-23.27-20.84-21.91-22.19S30.34,96,32.43,91.55c0,0,4,5.22,10,11.65A33.87,33.87,0,0,0,54.5,111.46Z"/><path d="M61.6,196c-7.43,0-15.24-.57-20.47-2.5a.33.33,0,0,1-.23-.16c-.42-.57.09-3.05,1-7.06a47.51,47.51,0,0,0,1.23-7.16c0-.64.09-2.81.23-6.1.56-13.45,1.87-45,.11-50.31-1.25-3.81-9.08-10.37-14.8-15.16-4.56-3.81-7.14-6-7.18-6.91a.42.42,0,0,1,.12-.33A15.58,15.58,0,0,1,24,98.71c2.71-1.64,6.79-4.11,8.26-7.25l.14-.31.2.27s4.09,5.29,10,11.64a34.29,34.29,0,0,0,12,8.21l.15,0v.16a12,12,0,0,0,0,3c.34.56,11,7.88,12,7.88s9.67-8,9.78-9.06a7.65,7.65,0,0,0,0-1.8l0-.16.16-.06c.15-.06,3.82-1.37,6.75,0s14.49,17.84,16.21,31l0,.15-.14.06c-.27.12-6.22,2.75-9.33,2.75H90c1.28,5.75,10,45.35,9.55,46.59-.35.88-12.4,2.73-23.44,3.61C72.25,195.72,67,196,61.6,196ZM32.47,91.93c-1.62,3.11-5.6,5.52-8.26,7.13a16,16,0,0,0-2.36,1.57c-.26.53,3.78,3.92,7,6.64,6.08,5.09,13.64,11.42,14.93,15.35,1.78,5.41.47,37-.1,50.45-.13,3.16-.22,5.45-.22,6.08a46.91,46.91,0,0,1-1.24,7.25c-.58,2.69-1.37,6.39-1,6.74,16.28,6,56.62-.44,58-1.5.2-1.46-5.63-28.6-9.63-46.6l-.06-.27.27,0c2.64.22,8.41-2.21,9.38-2.63-1.77-13-13-29.14-16-30.51-2.45-1.15-5.57-.28-6.29-.05a8.32,8.32,0,0,1,0,1.73c-.14,1.24-9,9.43-10.19,9.43s-12.16-7.55-12.4-8.14a10.9,10.9,0,0,1,0-3,35,35,0,0,1-12-8.26C37.11,97.77,33.36,93.06,32.47,91.93Z"/><path d="M89.82,145.43a.22.22,0,0,1-.21-.18c-1.53-10.49-6.24-23.94-6.28-24.07a.2.2,0,1,1,.38-.14c.05.14,4.77,13.63,6.31,24.15a.2.2,0,0,1-.17.23Z"/></g></g></svg>