<svg xmlns="http://www.w3.org/2000/svg" xmlns:xlink="http://www.w3.org/1999/xlink" viewBox="0 0 153.75 120.03"><defs><style>.cls-1,.cls-2{fill:none;}.cls-1,.cls-3,.cls-5,.cls-6,.cls-7,.cls-9{stroke:#000;stroke-miterlimit:10;}.cls-1,.cls-13,.cls-3,.cls-5,.cls-6,.cls-7,.cls-9{stroke-linecap:round;}.cls-1,.cls-3,.cls-5,.cls-6{stroke-width:0.25px;}.cls-3,.cls-4{fill:#2f3c4c;}.cls-12,.cls-5{fill:#faf8eb;}.cls-10,.cls-6{fill:#fea49c;}.cls-11,.cls-7{fill:#fff;}.cls-7{stroke-width:0.5px;}.cls-8{clip-path:url(#clip-path);}.cls-9{fill:#7e2d3a;}.cls-13{fill:#a0dbf0;stroke:#4a91cd;stroke-linejoin:round;}</style><clipPath id="clip-path"><path class="cls-1" d="M89,54c-3.3,1.57-11.28,3.72-23.1,4.76s-20,.14-24.33-1.33c-4.15-1.4-8.1.33-8.95,3.29-1.15,4,2.43,11.5,10,13.93s18.92,4.53,28.95.42,13.42-6.95,15.89-11.79C90.19,57.87,89.68,53.7,89,54Z"/></clipPath></defs><title>Correct feedbacK_Oso Panda_5to0</title><g id="Layer_2" data-name="Layer 2"><g id="Layer_1-2" data-name="Layer 1"><rect class="cls-2" width="153.75" height="120.03"/><path class="cls-3" d="M81.54,80.28c.22,3.92,22.64.68,35.2-7.93S142.41,44.13,140.42,36s-11.87-10.68-16.55-7.52-13.53,27.35-20.3,32.21S81.29,75.76,81.54,80.28Z"/><path class="cls-4" d="M120.27,120c-2.73-7.08-13.86-23.81-17.61-30.17-11.79-20-31.15-19.43-38.73-18.42C45,74,42.85,104.62,39.87,120Z"/><path d="M40,120c.39-2,.77-4.78,1.17-7.2,1.31-8,2.95-17.84,6.28-25.88,3.89-9.39,9.29-14.42,16.5-15.38,15.68-2.09,30.64,4.65,39,18.76,3.67,6.23,14.49,22.57,17.24,29.7h.26c-2.77-7.23-13.52-23.44-17.28-29.82C94.75,76,79.7,69.22,63.92,71.32c-7.31,1-12.77,6.05-16.7,15.53-3.34,8.07-5,18-6.3,25.94-.4,2.44-.78,5.21-1.18,7.24Z"/><path class="cls-3" d="M67.6,21.11c2.31,6.14,11.38,8.4,17.89,5.95s9.93-9.4,7.62-15.53-9.45-9.13-16-6.68S65.3,15,67.6,21.11Z"/><path class="cls-5" d="M47.57,6.71c11-2,36.13,2,48.74,19.21s13.19,31.25,0,42.43S61.91,84.12,45,81.25,20.91,66.63,19.76,50.57,27.54,10.35,47.57,6.71Z"/><path class="cls-3" d="M27.56,35.69c-2.3,6.13-11.38,8.4-17.89,6s-9.93-9.4-7.62-15.53S11.5,17,18,19.43,29.86,29.56,27.56,35.69Z"/><path class="cls-6" d="M26.69,37c-1.75,4.64-8.61,6.36-13.54,4.5A9.25,9.25,0,0,1,7.39,29.71a9.27,9.27,0,0,1,12.08-5.05C24.39,26.51,28.43,32.32,26.69,37Z"/><path class="cls-3" d="M49.46,20.36c4.68-.67,15.48,3.92,15.29,15.58s-4.87,15-11.18,16.72-14.14,1.05-17.49-6.78S38.81,21.88,49.46,20.36Z"/><path class="cls-3" d="M76.44,17.83c2.68-1.43,10.61.58,16,8.41s3.06,14.15-1.15,17.4-12.61,1.52-17.2-6S70,21.27,76.44,17.83Z"/><path class="cls-7" d="M55.71,28.1c2-.31,5.32,2.59,5.54,6.63s-1.77,6.58-4.15,6.76-5.6-2.14-5.26-7.1S54.16,28.33,55.71,28.1Z"/><path class="cls-7" d="M82.89,26.61c1.67-.55,4.8,1.66,5.55,5.31s-.58,6.22-2.55,6.7-5-1.2-5.38-5.76S81.62,27,82.89,26.61Z"/><ellipse cx="58.8" cy="35.26" rx="1.44" ry="2.37" transform="translate(-2.49 4.53) rotate(-4.32)"/><ellipse cx="85.13" cy="33.19" rx="1.58" ry="2.56" transform="translate(-2.32 6.73) rotate(-4.46)"/><path d="M71.59,47.28c.71,0,1.14-2.8,4-2.8s4.37,8.1-2,10-11-4.59-8.17-7.39S70.3,47.28,71.59,47.28Z"/><path class="cls-1" d="M73.16,58.56s-.14-3.83-.28-5.3"/><g class="cls-8"><path class="cls-9" d="M90.27,48.24C87,49.81,77.69,57.75,65.87,58.79s-20.18.7-24.33-1.33-8.07-.82-8.95,3.29,2.43,11.5,10,13.93,18.18,3.69,28.21-.41,16-9.4,18-15.16S91,47.9,90.27,48.24Z"/><path class="cls-10" d="M79.33,51.87C83.14,53,89.41,57.27,90,61.41s-19.67,24-37.19,19.37-26.38-7.94-28-15.87c-1.92-9.59,1.58-14.17,13.28-13S77.27,51.29,79.33,51.87Z"/><path class="cls-11" d="M29.76,56.56C31.23,60.27,43.48,65.65,56,65,69,64.37,79.63,62.28,85.8,57.47s8.64-7.16,9.24-10.3-6.48-8.38-6.48-8.38S66.65,52.16,58.86,51.33s-25.4-5-28.74-6.69S28.18,52.57,29.76,56.56Z"/></g><path class="cls-1" d="M89,54c-3.3,1.57-11.28,3.72-23.1,4.76s-20,.14-24.33-1.33c-4.15-1.4-8.1.33-8.95,3.29-1.15,4,2.43,11.5,10,13.93s18.92,4.53,28.95.42,13.42-6.95,15.89-11.79C90.19,57.87,89.68,53.7,89,54Z"/><path class="cls-12" d="M120.71,120C108.55,89.35,96,81.25,78,82.49c-16.84,1.17-27.72,16.09-30.47,28.34-.23,1-1.06,7.27-1.52,9.2Z"/><path d="M46.15,120c.28-1.18.68-4.18,1-6.28.22-1.35.4-2.51.49-2.9C50.63,97.66,62,83.73,78,82.62c17.47-1.22,30.16,6.17,42.55,37.41h.27C108.37,88.57,95.64,81.15,78,82.37,61.87,83.48,50.4,97.52,47.41,110.8c-.09.39-.27,1.56-.49,2.91-.32,2-.75,5.16-1,6.32Z"/><path class="cls-4" d="M48.33,120c-2.86-4.24-9.53-12.41-9.53-12.41A72.59,72.59,0,0,0,55.38,92.83l-2.5-10.76c-11.17-1-31.32,4.66-34.54,24.75A26,26,0,0,0,21.57,120Z"/><path d="M52.93,82.18,53,82h-.09a37.53,37.53,0,0,0-20.32,4.49,27.65,27.65,0,0,0-14.35,20.37A25.75,25.75,0,0,0,21.43,120h.29a25.42,25.42,0,0,1-3.25-13.19C21.64,87,41.31,81.21,52.93,82.18Z"/><path d="M53.6,94.76a75.19,75.19,0,0,1-14.86,12.75l-.13.08.1.11c.07.08,6.62,8.13,9.47,12.33h.3c-2.62-3.91-8.66-11.42-9.49-12.38,1.14-.73,10-6.45,14.76-12.66Z"/><path class="cls-13" d="M127,86.43s-3,8.44,5.74,10.95c0,0-10.59-4-13.37,1.88,0,0,.81-10.49-.9-11.3C118.5,88,125.59,88.14,127,86.43Z"/><path class="cls-13" d="M34.22,88.35s-6.68,5.13-6.84,7.15c0,0-6.06-8.86-8.7-9.33,0,0,6.84-1.24,7.62-3.88C26.3,82.29,27.23,86.79,34.22,88.35Z"/></g></g></svg>