<svg xmlns="http://www.w3.org/2000/svg" xmlns:xlink="http://www.w3.org/1999/xlink" viewBox="0 0 401.87 512.75"><defs><style>.cls-1,.cls-11,.cls-15,.cls-2{fill:none;}.cls-10,.cls-11,.cls-15,.cls-17,.cls-2,.cls-20,.cls-21,.cls-23,.cls-24,.cls-26,.cls-3,.cls-5,.cls-8{stroke:#000;}.cls-10,.cls-2,.cls-30,.cls-31,.cls-8{stroke-miterlimit:10;}.cls-19,.cls-3,.cls-8{fill:#ed4f36;}.cls-15,.cls-17,.cls-20,.cls-21,.cls-23,.cls-24,.cls-26,.cls-3,.cls-5{stroke-linecap:round;}.cls-11,.cls-15,.cls-17,.cls-20,.cls-21,.cls-23,.cls-24,.cls-26,.cls-3,.cls-5{stroke-linejoin:round;}.cls-14,.cls-17,.cls-19,.cls-20,.cls-21,.cls-23,.cls-24,.cls-25,.cls-26,.cls-3,.cls-5,.cls-8{fill-rule:evenodd;}.cls-4{clip-path:url(#clip-path);}.cls-5{fill:#694342;}.cls-6{clip-path:url(#clip-path-4);}.cls-7{clip-path:url(#clip-path-5);}.cls-9{clip-path:url(#clip-path-6);}.cls-12{clip-path:url(#clip-path-7);}.cls-13{clip-path:url(#clip-path-8);}.cls-14,.cls-20{fill:#ffe8c6;}.cls-16{clip-path:url(#clip-path-9);}.cls-17{fill:#fea49c;}.cls-18{clip-path:url(#clip-path-10);}.cls-21{fill:#7b2325;}.cls-22{clip-path:url(#clip-path-11);}.cls-23{fill:#f06b6b;}.cls-24,.cls-25{fill:#fff;}.cls-26{fill:#1c1c1c;}.cls-27{fill:#fcb042;stroke:#562f09;stroke-miterlimit:10;}.cls-28{fill:#ed9520;}.cls-29{fill:#fce8c8;}.cls-30{fill:#e44b86;stroke:#b53167;}.cls-31{fill:#a0a0b1;stroke:#71717f;}</style><clipPath id="clip-path" transform="translate(15.08)"><path class="cls-1" d="M171.13,453.08c-15.95,8.53-30.23,14.05-54.9,20.5-21.89,5.72-48.51,21.52-52.16,1.09-2.16-12.11-2.65-19.47,7.56-35.46,7.36-11.52,22.9-19,38.05-23,14.56-3.86,40.78,4.2,48.06-14.55,8.33-21.47,3.1-47.6,20.09-49,6-.49,12.21,2.45,14.83,6.39C208.32,382.6,209.53,432.53,171.13,453.08Z"/></clipPath><clipPath id="clip-path-4" transform="translate(15.08)"><path class="cls-1" d="M251.55,492.71c.39,1,2.72,10.08,13.46,9.43,7.3-.45,11.34-9.63,11.14-10.86-1.62-9.88-17.69-44.42-22.28-61.5-4.34-16.13-9.7-59.22-11.39-62.35-.73-1.34-7.21-21.39-19.78-16s-8.57,25.41-8.21,28.1c.53,4,11.14,45.44,17.39,63.52C237.16,458.36,250.48,489.84,251.55,492.71Z"/></clipPath><clipPath id="clip-path-5" transform="translate(15.08)"><path class="cls-1" d="M154.64,491.74c-.32,4.22-4.25,14.2-12.1,13.78-10.17-.53-12.86-10.17-12.21-14.52.54-3.62,4.64-42.22,8.67-59.79,3.51-15.31,13.74-50.28,15.52-54.84,1.23-3.15,7.86-25.75,22.28-18.8,13.62,6.57,5,27.72,4.61,29.8-1.1,5.16-15.59,38-18.18,50.44S154.87,488.59,154.64,491.74Z"/></clipPath><clipPath id="clip-path-6" transform="translate(15.08)"><path class="cls-2" d="M218.88,211.87c1.14-6.5,6.13-8.57,8.28-8.29,3.52.45,64.17,15.36,65.49,15,1.12-.33,40.88-39.37,40.67-39.83-1.47-3.07-5.36-11,5.14-21,9.17-8.74,21.29-4.45,27.34,1.09,5.49,5,7.52,17.19,3.57,24.54-3.63,6.76-13,9.29-20.51,10s-43.89,47.24-52,49.56-69.49-18.36-73.38-20.95C222.93,221.58,217.79,218,218.88,211.87Z"/></clipPath><clipPath id="clip-path-7" transform="translate(15.08)"><path class="cls-2" d="M169.54,225.23c2.65-6-.36-10.51-2.28-11.5-3.17-1.63-62.35-25.95-62.42-26s-65.45-27.69-65.41-28.31c.23-3.4.71-12.22-12.82-17.41-11.83-4.54-21.36,4.07-24.82,11.51-3.14,6.75-.34,18.76,6.13,24,5.95,4.84,15.49,6.38,22.77,1.32,0,0,62.56,26.58,66.36,28.1,3.55,1.42,59,24,63.1,24.06C160.77,231.07,167,230.92,169.54,225.23Z"/></clipPath><clipPath id="clip-path-8" transform="translate(15.08)"><path class="cls-1" d="M197.07,194.85c-12.38.71-27.57,7.73-35.4,16.55-7,7.89-11,30.86-11.56,33.42-1.07,4.63-5,33.22-7.69,51.91-2.34,16.12-5.71,38.12-1.9,54.3,2.21,9.41,7.29,22.36,14.82,28.11,10.51,8,30,8.5,43.13,8,10.21-.42,24.38-3,33-8.54,9-5.82,18.48-18,22.39-28,5.62-14.52,3.32-36.4,2.3-52-1.16-17.81-7.51-48.65-10.5-58.54-1.74-5.77-6.23-26.47-14.28-33.93S208.52,194.19,197.07,194.85Z"/></clipPath><clipPath id="clip-path-9" transform="translate(15.08)"><path class="cls-1" d="M139.51,83.26C147.34,75.39,157.13,51,157,50.65c-3.47-10.08-13.52-21.48-22.06-27.86C119.73,11.45,84.21-2.68,75.52,1.14,70.11,3.51,69.35,44.91,79,65.49c3.33,7.13,16.48,21.45,15.67,21.05C77,77.87,69.78,103.22,70.1,103c15.11-10.79,32.3-8.85,31.37-8.55-16.34,5.1-16.72,18-16.37,17.75,14.47-11.38,17.79-11,24.19-12.38C109.74,99.72,132.22,90.59,139.51,83.26Z"/></clipPath><clipPath id="clip-path-10" transform="translate(15.08)"><path class="cls-1" d="M255.32,80c-6.25-8-15.92-28.26-15.84-28.39,5.85-9.64,16.74-23.3,26.39-29C282.23,13,319.48,4,327.6,8.94c5.06,3.06-.1,43.91-11.85,63.35-4,6.63-17.94,19.63-17.14,19.35,18.57-6.42,23.06,19.11,22.77,18.85-13.95-12.26-31.25-12-30.35-11.67,15.74,6.72,14.82,19.62,14.5,19.31-13.25-12.78-15.78-13.1-22.82-14.75C282.49,103.32,262,88.51,255.32,80Z"/></clipPath><clipPath id="clip-path-11" transform="translate(15.08)"><path class="cls-1" d="M147.29,174.56c3.94.08,14.21,1.19,19.21,1.44,7.19.36,24.45.61,27.72.61,2.74,0,17.09-.18,23.19-.61,4.3-.3,18.23-2.84,23.25-3.17,3.86-.25,12.85-.64,13.77,1,1.23,2.2-6.74,12.77-10,15.45-4.17,3.48-17.11,7.51-22.14,8.73-6.2,1.5-23.23,2.8-29.15,2.74-6.88-.08-25.82-1.64-33.8-4-4.67-1.4-14.18-5-18-8.59-2.89-2.73-8.52-11.61-7.58-13.21C134.67,173.51,144.55,174.5,147.29,174.56Z"/></clipPath></defs><title>Panda rojo glosa_5to</title><g id="Layer_2" data-name="Layer 2"><g id="Frame_6" data-name="Frame 6"><g id="OSO_ROJO" data-name="OSO ROJO"><g id="Cola"><g id="cola-2" data-name="cola"><path class="cls-3" d="M171.13,453.08c-15.95,8.53-30.23,14.05-54.9,20.5-21.89,5.72-48.51,21.52-52.16,1.09-2.16-12.11-2.65-19.47,7.56-35.46,7.36-11.52,22.9-19,38.05-23,14.56-3.86,40.78,4.2,48.06-14.55,8.33-21.47,3.1-47.6,20.09-49,6-.49,12.21,2.45,14.83,6.39C208.32,382.6,209.53,432.53,171.13,453.08Z" transform="translate(15.08)"/></g><g id="Relleno_cola" data-name="Relleno cola"><g class="cls-4"><path class="cls-5" d="M71.07,423.43C75.42,428.52,85.21,444.75,89,455c4.5,12.12,5.3,31.33,8.06,42.33s36.64.18,36.09-11.14c-.66-14-8.26-33.76-15.2-46.79-6-11.24-14.33-28.47-26-33.56C83.46,402.1,65.74,417.2,71.07,423.43Z" transform="translate(15.08)"/></g><g class="cls-4"><path class="cls-5" d="M132.19,399.93c-2.79,10.52,14.14,21.32,17.92,31.52,4.5,12.12,7.15,31.77,8,42.33.89,10.36,28.52.3,33.53-8.81,7.3-13.3-10.52-34.42-19.47-46.67-7.14-9.77-18.45-27.79-30.46-26.41C138.35,392.28,133.14,396.3,132.19,399.93Z" transform="translate(15.08)"/></g><g class="cls-4"><path class="cls-5" d="M144.26,371c4,10.13,24,8.87,33.08,14.87,10.78,7.13,24.52,21.44,31.48,29.43,6.83,7.84,23.2-16.59,21.86-26.9-2-15.05-28.8-21.59-43.25-26.19-11.53-3.68-31.3-11.56-40.18-3.35C144.73,361.18,142.9,367.5,144.26,371Z" transform="translate(15.08)"/></g></g></g><g id="pie_izq" data-name="pie izq"><g id="pierna_izq" data-name="pierna izq"><path class="cls-3" d="M251.55,492.71c.39,1,2.72,10.08,13.46,9.43,7.3-.45,11.34-9.63,11.14-10.86-1.62-9.88-17.69-44.42-22.28-61.5-4.34-16.13-9.7-59.22-11.39-62.35-.73-1.34-7.21-21.39-19.78-16s-8.57,25.41-8.21,28.1c.53,4,11.14,45.44,17.39,63.52C237.16,458.36,250.48,489.84,251.55,492.71Z" transform="translate(15.08)"/></g><g id="pie_izq-2" data-name="pie izq"><g class="cls-6"><path class="cls-5" d="M244,510.35h66.71a27.33,27.33,0,0,0,.78-4.79c1.22-17.56-23.81-27.84-32.34-41.68-8.33-13.49-11.15-42.26-23.59-48.71-4.19-2.18-11.79.21-16.34,2.65C234,420.64,226,426.4,224.41,433c-3.49,14.53,10.66,32.75,14.89,46.95C241.7,488,242.65,499.3,244,510.35Z" transform="translate(15.08)"/></g></g><g id="piecito_izq_" data-name="piecito izq "><path class="cls-5" d="M285.88,491.29c2.3,1,4.18,4.87,4.93,7.45,1,3.45,1.13,9.38-1.16,10.62s-12,1.17-17.15,1.27c-3.35.06-16.28,0-21.1-1.25-3.36-.88-1.63-9.77-.55-11.69,2.79-5,6.76-5.47,10.45-6.63,2.8-.88,9.37-1.48,13.93-1.37C278.54,489.77,283,490,285.88,491.29Z" transform="translate(15.08)"/></g></g><g id="pie_der" data-name="pie der"><g id="pierna_der" data-name="pierna der"><path class="cls-3" d="M154.64,491.74c-.32,4.22-4.25,14.2-12.1,13.78-10.17-.53-12.86-10.17-12.21-14.52.54-3.62,4.64-42.22,8.67-59.79,3.51-15.31,13.74-50.28,15.52-54.84,1.23-3.15,7.86-25.75,22.28-18.8,13.62,6.57,5,27.72,4.61,29.8-1.1,5.16-15.59,38-18.18,50.44S154.87,488.59,154.64,491.74Z" transform="translate(15.08)"/></g><g id="pie_izq_2" data-name="pie izq 2"><g class="cls-7"><path class="cls-5" d="M166.72,512.25c-1.66-9.86-4.41-20.33-4-28.22,1-17.07,14.74-41.33,7.68-56.33-2.52-5.36-10-8.85-15-10.43-5.77-1.8-15.32-3.38-19.92.48-10.29,8.64-6.52,33.72-10.56,47.74s-19.26,31.64-22.51,46.76Z" transform="translate(15.08)"/></g></g><g id="piecito_der" data-name="piecito der"><path class="cls-5" d="M154.22,488.57a14.67,14.67,0,0,1,6.27,7.16c1.62,3.73,2.78,10.28-1.3,13.58-2.76,2.22-15.78,2.51-22.6,2.6-3.63,0-20.24-.68-22.62-3.51-2.8-3.32-.49-12.6,1.1-14.67,3.86-5,9.17-5.44,13.56-6.05a76.34,76.34,0,0,1,13.52-.55C145.79,487.27,150.94,486.91,154.22,488.57Z" transform="translate(15.08)"/></g></g><g id="mano_izq" data-name="mano izq"><g id="brazo_izq" data-name="brazo izq"><path class="cls-8" d="M218.88,211.87c1.14-6.5,6.13-8.57,8.28-8.29,3.52.45,64.17,15.36,65.49,15,1.12-.33,40.88-39.37,40.67-39.83-1.47-3.07-5.36-11,5.14-21,9.17-8.74,21.29-4.45,27.34,1.09,5.49,5,7.52,17.19,3.57,24.54-3.63,6.76-13,9.29-20.51,10s-43.89,47.24-52,49.56-69.49-18.36-73.38-20.95C222.93,221.58,217.79,218,218.88,211.87Z" transform="translate(15.08)"/></g><g id="mano_izq-2" data-name="mano izq"><g class="cls-9"><path class="cls-5" d="M343.31,185.22c-4.4-3.74-12.52-6.57-15.33-11.61-4.08-7.33-6.54-21.13-1.62-27.93,7.59-10.51,31.31-14.62,42.46-8,14.19,8.43,22.06,38.33,14.6,53.06-3.4,6.71-14.74,12.68-22.19,11.67C354.14,201.44,349,190,343.31,185.22Z" transform="translate(15.08)"/></g><path class="cls-2" d="M218.88,211.87c1.14-6.5,6.13-8.57,8.28-8.29,3.52.45,64.17,15.36,65.49,15,1.12-.33,40.88-39.37,40.67-39.83-1.47-3.07-5.36-11,5.14-21,9.17-8.74,21.29-4.45,27.34,1.09,5.49,5,7.52,17.19,3.57,24.54-3.63,6.76-13,9.29-20.51,10s-43.89,47.24-52,49.56-69.49-18.36-73.38-20.95C222.93,221.58,217.79,218,218.88,211.87Z" transform="translate(15.08)"/></g></g><g id="mano_der" data-name="mano der"><g id="brazo_izq-2" data-name="brazo izq"><path class="cls-8" d="M169.54,225.23c2.65-6-.36-10.51-2.28-11.5-3.17-1.63-62.35-25.95-62.42-26s-65.45-27.69-65.41-28.31c.23-3.4.71-12.22-12.82-17.41-11.83-4.54-21.36,4.07-24.82,11.51-3.14,6.75-.34,18.76,6.13,24,5.95,4.84,15.49,6.38,22.77,1.32,0,0,62.56,26.58,66.36,28.1,3.55,1.42,59,24,63.1,24.06C160.77,231.07,167,230.92,169.54,225.23Z" transform="translate(15.08)"/><path class="cls-10" d="M169.54,225.23c2.65-6-.7-10.2-2.49-11.09l.42-.82c2.05,1.09,4.72,5.87,2.07,11.91Z" transform="translate(15.08)"/><path class="cls-11" d="M167.05,214.14l.42-.82" transform="translate(15.08)"/><path class="cls-10" d="M160.16,230.59c.6,0,6.88.33,9.38-5.36h0c-2.5,5.69-8.76,6.3-9.4,6.28Z" transform="translate(15.08)"/><path class="cls-11" d="M160.16,230.59l0,.92" transform="translate(15.08)"/></g><g id="mano_izq-3" data-name="mano izq"><g class="cls-12"><path class="cls-5" d="M32.7,169.27c2.62-5.14,9-10.87,9.69-16.6,1-8.34-2.08-22-9.24-26.42-11-6.78-34.53-1.46-42.27,8.94-9.87,13.23-5.64,43.86,6.91,54.59,5.72,4.89,18.48,6.05,25,2.25C28.93,188.41,29.31,175.91,32.7,169.27Z" transform="translate(15.08)"/></g><path class="cls-2" d="M169.54,225.23c2.65-6-.36-10.51-2.28-11.5-3.17-1.63-62.35-25.95-62.42-26s-65.45-27.69-65.41-28.31c.23-3.4.71-12.22-12.82-17.41-11.83-4.54-21.36,4.07-24.82,11.51-3.14,6.75-.34,18.76,6.13,24,5.95,4.84,15.49,6.38,22.77,1.32,0,0,62.56,26.58,66.36,28.1,3.55,1.42,59,24,63.1,24.06C160.77,231.07,167,230.92,169.54,225.23Z" transform="translate(15.08)"/></g></g><g id="cuerpo"><g id="cuerpo-2" data-name="cuerpo"><path class="cls-3" d="M197.07,194.85c-12.38.71-27.57,7.73-35.4,16.55-7,7.89-11,30.86-11.56,33.42-1.07,4.63-5,33.22-7.69,51.91-2.34,16.12-5.71,38.12-1.9,54.3,2.21,9.41,7.29,22.36,14.82,28.11,10.51,8,30,8.5,43.13,8,10.21-.42,24.38-3,33-8.54,9-5.82,18.48-18,22.39-28,5.62-14.52,3.32-36.4,2.3-52-1.16-17.81-7.51-48.65-10.5-58.54-1.74-5.77-6.23-26.47-14.28-33.93S208.52,194.19,197.07,194.85Z" transform="translate(15.08)"/></g><g id="detalle"><g class="cls-13"><path class="cls-5" d="M200,199c10,.16,25.49,4.57,30.85,13.2,8.47,13.64,13.8,35.77,16.57,52,3.69,21.54,5.33,50.3,6.79,73,1.24,19.25-2.65,43.2-14.74,55.17-9.55,9.46-29.57,12.18-42.9,11.86-14.82-.35-36.25-5.3-46.92-15.75-6-5.9-8.42-15.17-9.67-26.92-2.75-26,5.77-60.07,10.11-86.7,3-18.62,3.73-43.21,14.37-61.46C170.53,202.84,188.49,198.83,200,199Z" transform="translate(15.08)"/></g></g></g><g id="cabeza"><g id="OREJA_DER" data-name="OREJA DER"><g id="oreja_Der-2" data-name="oreja Der"><path class="cls-14" d="M139.51,83.26C147.34,75.39,157.13,51,157,50.65c-3.47-10.08-13.52-21.48-22.06-27.86C119.73,11.45,84.21-2.68,75.52,1.14,70.11,3.51,69.35,44.91,79,65.49c3.33,7.13,16.48,21.45,15.67,21.05C77,77.87,69.78,103.22,70.1,103c15.11-10.79,32.3-8.85,31.37-8.55-16.34,5.1-16.72,18-16.37,17.75,14.47-11.38,17.79-11,24.19-12.38C109.74,99.72,132.22,90.59,139.51,83.26Z" transform="translate(15.08)"/><path class="cls-15" d="M157,50.65c-3.47-10.08-13.52-21.48-22.06-27.86C119.73,11.45,84.21-2.68,75.52,1.14,70.11,3.51,69.35,44.91,79,65.49c3.33,7.13,16.48,21.45,15.67,21.05C77,77.87,69.78,103.22,70.1,103c15.11-10.79,32.3-8.85,31.37-8.55-16.34,5.1-16.72,18-16.37,17.75,14.47-11.38,17.79-11,24.19-12.38" transform="translate(15.08)"/></g><g id="relleno_oreja_der" data-name="relleno oreja der"><g class="cls-16"><path class="cls-17" d="M82.44,14.89c6-3.56,19.92,12.84,25,21.29,14.11,23.69,16.5,43.56,11.91,48.76-3.42,3.89-29.44-26.13-35.21-41.37C81.08,35.61,79.48,16.64,82.44,14.89Z" transform="translate(15.08)"/></g></g></g><g id="OREJA_IZQ" data-name="OREJA IZQ"><g id="oreja_Der-3" data-name="oreja Der"><path class="cls-14" d="M255.32,80c-6.25-8-15.19-30.2-15.12-30.33,5.86-9.64,16-21.36,25.67-27C282.23,13,319.48,4,327.6,8.94c5.06,3.06-.1,43.91-11.85,63.35-4,6.63-17.94,19.63-17.14,19.35,18.57-6.42,23.06,19.11,22.77,18.85-13.95-12.26-31.25-12-30.35-11.67,15.74,6.72,14.82,19.62,14.5,19.31-13.25-12.78-15.78-13.1-22.82-14.75C282.49,103.32,262,88.51,255.32,80Z" transform="translate(15.08)"/><path class="cls-15" d="M239.48,51.59c5.85-9.64,16.74-23.3,26.39-29C282.23,13,319.48,4,327.6,8.94c5.06,3.06-.1,43.91-11.85,63.35-4,6.63-17.94,19.63-17.14,19.35,18.57-6.42,23.06,19.11,22.77,18.85-13.95-12.26-31.25-12-30.35-11.67,15.74,6.72,14.82,19.62,14.5,19.31-13.25-12.78-15.78-13.1-22.82-14.75" transform="translate(15.08)"/></g><g id="relleno_oreja_der-2" data-name="relleno oreja der"><g class="cls-18"><path class="cls-17" d="M318.94,21.66c-5.51-4.31-21.53,10.05-27.53,17.85-17.09,22.21-21.3,42.34-17.17,48.05,3,4.21,31.77-23.18,39.3-37.68C317.47,42.33,321.65,23.78,318.94,21.66Z" transform="translate(15.08)"/></g></g></g><g id="cabeza-2" data-name="cabeza"><path class="cls-3" d="M192.75,42.37c22.23-1,45.74,5.1,64.05,20.44,35.3,29.57,53.25,114.5,53.45,115.06.53,1.55-17.72,8.67-26.64,11.48-5.58,1.76-26.94,9.49-38.74,12.75-15.14,4.2-37.21,11.12-51.13,11.41-17.83.39-36.27-4.65-51.52-8.15-11.21-2.58-28.58-8.5-36.75-11-1.8-.55-20-8.83-19.91-11.08,2-35,10-77.95,40.8-110.27C143.58,54.92,167.69,43.48,192.75,42.37Z" transform="translate(15.08)"/></g><g id="mechon_der" data-name="mechon der"><path class="cls-19" d="M107.69,176.17c-3.84-5.33-14.84-5.59-21.51-4.09A28.25,28.25,0,0,0,75.05,178c-2.82,2.51-7.13,10.35-7.13,10.35s8.44-.12,12,.53c3.75.67,11,1.8,12.07,3.93.42.84-2.12,3.21-2.13,7.48a57.59,57.59,0,0,0,.82,6.64,99.7,99.7,0,0,1,8-8c2-1.53,4.71-3.61,7.1-4.31C114.65,192,110.93,180.68,107.69,176.17Z" transform="translate(15.08)"/><path class="cls-15" d="M86.18,172.08A28.25,28.25,0,0,0,75.05,178c-2.82,2.51-7.13,10.35-7.13,10.35s8.44-.12,12,.53c3.75.67,11,1.8,12.07,3.93.42.84-2.12,3.21-2.13,7.48a57.59,57.59,0,0,0,.82,6.64,99.7,99.7,0,0,1,8-8c2-1.53,4.71-3.61,7.1-4.31" transform="translate(15.08)"/></g><g id="mechon_izq" data-name="mechon izq"><path class="cls-19" d="M286.67,170.33c4.9-4.37,15.7-2.22,21.88.69a28.07,28.07,0,0,1,9.58,8.15c2.21,3.06,4.71,11.65,4.71,11.65s-8.22-1.95-11.81-2.09c-3.81-.16-11.12-.64-12.63,1.22-.59.72,1.37,3.59.44,7.75A56.75,56.75,0,0,1,296.6,204a98.42,98.42,0,0,0-6.07-9.53c-1.59-1.92-3.81-4.55-6-5.76C276.43,184.24,282.52,174,286.67,170.33Z" transform="translate(15.08)"/><path class="cls-15" d="M308.55,171a28.07,28.07,0,0,1,9.58,8.15c2.21,3.06,4.71,11.65,4.71,11.65s-8.22-1.95-11.81-2.09c-3.81-.16-11.12-.64-12.63,1.22-.59.72,1.37,3.59.44,7.75A56.75,56.75,0,0,1,296.6,204a98.42,98.42,0,0,0-6.07-9.53c-1.59-1.92-3.81-4.55-6-5.76" transform="translate(15.08)"/></g><g id="barbilla"><path class="cls-20" d="M180.25,152c4.54-2.11,12.59-7.37,15-7.34s10.86,5.38,15.1,7.45c16.27,7.95,49.07,6,54.41,23.32,4.49,14.57-7.75,20.84-26.61,28.68-28.86,12-66.56,13.85-92.76,1.67-14.34-5.84-26.93-14.71-23.09-28.6C127.47,158.4,163.05,160,180.25,152Z" transform="translate(15.08)"/></g><g id="boca"><g id="boca-2" data-name="boca"><path class="cls-21" d="M147.29,174.56c3.94.08,14.21,1.19,19.21,1.44,7.19.36,24.45.61,27.72.61,2.74,0,17.09-.18,23.19-.61,4.3-.3,18.23-2.84,23.25-3.17,3.86-.25,12.85-.64,13.77,1,1.23,2.2-6.74,12.77-10,15.45-4.17,3.48-17.11,7.51-22.14,8.73-6.2,1.5-23.23,2.8-29.15,2.74-6.88-.08-25.82-1.64-33.8-4-4.67-1.4-14.18-5-18-8.59-2.89-2.73-8.52-11.61-7.58-13.21C134.67,173.51,144.55,174.5,147.29,174.56Z" transform="translate(15.08)"/></g><g id="lengua"><g class="cls-22"><path class="cls-23" d="M155.35,197.62c-.22-5.22,8.33-9.23,13-11.61,6.4-3.29,16.3-4.51,23.48-4.79,9-.35,21.92-.67,29.65,3.87,4,2.34,10.25,7.29,9.81,11.89-.62,6.35-11.27,10.32-17.31,12.35-12.23,4.13-30.85,3.76-43-.56C165.52,206.84,155.6,203.36,155.35,197.62Z" transform="translate(15.08)"/></g></g><g id="dientes"><g class="cls-22"><path class="cls-24" d="M99.83,147.7c2.56,3.48,58.22,3.86,93.73,3.4s93.65-5.76,93.7-5.84-2-31.91-10.49-41.56c-17.6-20-58.31-25.18-84.91-25.64C165,77.59,122.14,80,105.42,101,96.61,112,98.54,146,99.83,147.7Z" transform="translate(15.08)"/></g><g class="cls-22"><path class="cls-24" d="M289.77,188.89c-2.92-3.35-59.95,7.18-96.25,7.35C158.11,196.4,100,190,100,190.07s-.65,43.41,10.54,56.55c17.24,20.28,58.31,25.19,84.92,25.65,26.82.47,69.24-2.31,86.43-22.9C293.59,235.32,291.62,191,289.77,188.89Z" transform="translate(15.08)"/></g></g></g><g id="ojos"><g id="ojos-2" data-name="ojos"><path class="cls-25" d="M122.3,148.87c-1-1.16-.86-17.77,1.38-24.91,3.79-12.06,7.49-28.45,28-28.55,16.18-.08,21,11.75,25,20.78,4.43,9.92,6.47,25.3,5.71,27.93-.39,1.35-6.24,7.64-9.81,9.74-5.44,3.2-14,5.06-20.34,5.39-6.14.32-14.62-.7-20.26-3.15A29.09,29.09,0,0,1,122.3,148.87Z" transform="translate(15.08)"/><path d="M123.38,123.86c3.79-12,7.28-29.1,28.3-29.36v1.82c-20-.06-23.92,15.66-27.71,27.73Z" transform="translate(15.08)"/><path class="cls-11" d="M123.38,123.86l.6.19" transform="translate(15.08)"/><path d="M151.68,94.5c16.64,0,21.83,12.31,25.86,21.32l-1.64.73c-4-9-8.47-20.42-24.21-20.23Z" transform="translate(15.08)"/><path class="cls-11" d="M151.68,94.5v1.82" transform="translate(15.08)"/><path d="M177.54,115.82c4.48,10.07,5.87,25.65,5.11,28.36l-.43-.12c.75-2.56-1.94-17.73-6.32-27.51Z" transform="translate(15.08)"/><path class="cls-11" d="M177.54,115.82l-1.64.73" transform="translate(15.08)"/><path d="M172.74,154.07c-5.48,3.22-14.1,5.2-20.44,5.53l0-.7c6.27-.32,14.83-2.06,20.23-5.24Z" transform="translate(15.08)"/><path class="cls-11" d="M172.74,154.07l-.24-.41" transform="translate(15.08)"/><path d="M152.3,159.6c-6.18.32-14.76-.53-20.49-3l.42-1c5.56,2.42,13.93,3.61,20,3.29Z" transform="translate(15.08)"/><path class="cls-11" d="M152.3,159.6l0-.7" transform="translate(15.08)"/><path d="M131.81,156.59a29.43,29.43,0,0,1-9.66-7.6l.29-.24c2.29,2.79,6.52,5.44,9.79,6.86Z" transform="translate(15.08)"/><path class="cls-11" d="M131.81,156.59l.42-1" transform="translate(15.08)"/><path class="cls-25" d="M268,148.4c.95-1.16.73-17.68-1.55-24.77-3.86-12-7.66-28.24-28.07-28.19-16.11,0-20.81,11.83-24.76,20.84-4.34,9.9-6.26,25.21-5.48,27.83.39,1.33,6.26,7.55,9.83,9.62,5.44,3.14,14,4.93,20.27,5.21,6.12.27,14.54-.8,20.14-3.28A28.83,28.83,0,0,0,268,148.4Z" transform="translate(15.08)"/><path d="M266.1,123.72c-3.86-12-7.87-27.58-27.77-27.37V94.52c20.92.11,24.52,17.07,28.37,29Z" transform="translate(15.08)"/><path class="cls-11" d="M266.1,123.72l.59-.19" transform="translate(15.08)"/><path d="M238.33,96.35c-15.66-.08-20,11.27-23.94,20.29l-1.64-.72c3.94-9,9-21.24,25.57-21.4Z" transform="translate(15.08)"/><path class="cls-11" d="M238.33,96.35V94.52" transform="translate(15.08)"/><path d="M214.39,116.64c-4.28,9.76-6.85,24.87-6.09,27.4l-.43.13c-.78-2.69.49-18.2,4.88-28.25Z" transform="translate(15.08)"/><path class="cls-11" d="M214.39,116.64l-1.64-.72" transform="translate(15.08)"/><path d="M218,153.52c5.4,3.13,13.93,4.79,20.17,5.07l0,.7c-6.31-.28-14.9-2.2-20.38-5.36Z" transform="translate(15.08)"/><path class="cls-11" d="M218,153.52l-.24.41" transform="translate(15.08)"/><path d="M238.21,158.59c6.08.28,14.39-1,19.9-3.42l.44,1c-5.68,2.51-14.22,3.41-20.37,3.14Z" transform="translate(15.08)"/><path class="cls-11" d="M238.21,158.59l0,.7" transform="translate(15.08)"/><path d="M258.11,155.17c3.25-1.43,7.44-4.1,9.7-6.89l.29.24a29.37,29.37,0,0,1-9.55,7.63Z" transform="translate(15.08)"/><path class="cls-11" d="M258.11,155.17l.44,1" transform="translate(15.08)"/></g><g id="pupilas"><path class="cls-26" d="M164.77,124.3c3.76,0,6.81,4.17,6.82,9.37s-3,9.4-6.75,9.41-6.81-4.17-6.82-9.36S161,124.32,164.77,124.3Z" transform="translate(15.08)"/><path class="cls-26" d="M225.77,123.82c3.76,0,6.81,4.17,6.83,9.37s-3,9.4-6.76,9.41-6.8-4.17-6.82-9.36S222,123.84,225.77,123.82Z" transform="translate(15.08)"/></g></g><g id="ceja_gruesa" data-name="ceja gruesa"><path class="cls-20" d="M217.55,81.3c.24-3.92,10.35-10.45,17.46-11.79,8.44-1.59,14.78-.31,18.82,2.57,3,2.15,7.22,9.68,3.81,11.35-2.33,1.13-12.62-2.77-20.79-2.34C230.42,81.42,217.42,83.44,217.55,81.3Z" transform="translate(15.08)"/><path class="cls-20" d="M171.56,81.37c-.4-3.85-10.3-10.17-17.33-11.42-8.33-1.49-14.54-.13-18.53,2.71-3,2.16-7.25,9.74-3.88,11.38,2.2,1.08,12.51-2.88,20.64-2.56C158.83,81.72,171.78,83.51,171.56,81.37Z" transform="translate(15.08)"/></g><g id="nariz"><path class="cls-26" d="M194.9,154a2.43,2.43,0,0,1,1.85.59,1.28,1.28,0,0,1,.08,1.05,2.63,2.63,0,0,1-1.9,1.47,2.35,2.35,0,0,1-1.75-1,1.54,1.54,0,0,1-.21-1.31C193.22,154.3,194.27,154,194.9,154Z" transform="translate(15.08)"/></g></g></g><rect class="cls-27" x="296.98" y="158.71" width="96.05" height="16.92" transform="translate(119.54 465.68) rotate(-76.99)"/><rect class="cls-28" x="293.83" y="161.32" width="96.05" height="9.19" transform="translate(118.33 461.65) rotate(-76.99)"/><path class="cls-29" d="M342.93,216.53l-11.43,14.8a1.27,1.27,0,0,1-1.68.45,1.35,1.35,0,0,1-.57-.79l-3.92-18.49Z" transform="translate(15.08)"/><path d="M328.47,227.29l.78,3.59a1.13,1.13,0,0,0,1.46.9,1.33,1.33,0,0,0,.79-.56l2.24-2.81Z" transform="translate(15.08)"/><path class="cls-30" d="M360.53,109.83l-3.25-.67c-4.49-1-8.52,2.46-9.08,4.71h0c-.56,2.24-.56,4.26,1.79,4.82l11.66,2.69c2.24.56,3-1.24,3.47-3.59h0C365.79,115.55,364,110.62,360.53,109.83Z" transform="translate(15.08)"/><path class="cls-31" d="M347,116.33l18.61,4.26a.84.84,0,0,1,.56.79l-1.57,6.94a.84.84,0,0,1-.78.56l-18.61-4.25a.85.85,0,0,1-.56-.79l1.57-7A.57.57,0,0,1,347,116.33Z" transform="translate(15.08)"/><path class="cls-5" d="M346.05,174.36c.9-4.89,3.2-13.58,7.79-18.78s15.58,3.7,17.78,10.69.8,19.38-13.09,23.57S344.85,180.85,346.05,174.36Z" transform="translate(15.08)"/></g></g></svg>