<svg xmlns="http://www.w3.org/2000/svg" viewBox="0 0 122.61 120.02"><defs><style>.cls-1{fill:none;}.cls-2,.cls-3{fill:#ed4f36;}.cls-10,.cls-2,.cls-5,.cls-6,.cls-7,.cls-8,.cls-9{stroke:#000;stroke-miterlimit:10;}.cls-10,.cls-2,.cls-5,.cls-6,.cls-7{stroke-width:0.25px;}.cls-10,.cls-4{fill:#694342;}.cls-5,.cls-6,.cls-9{fill:#ffe8c6;}.cls-6,.cls-9{stroke-linecap:round;}.cls-7{fill:#feaf9e;}.cls-8{fill:#fff;}.cls-8,.cls-9{stroke-width:0.5px;}</style></defs><title>Mistake feedback_panda rojo_5to0</title><g id="Layer_2" data-name="Layer 2"><g id="Layer_1-2" data-name="Layer 1"><rect class="cls-1" width="122.61" height="120"/><path class="cls-2" d="M82.05,81.77c2-2.41,8.7-4.82,14.55,2.29s13.49,24.39,12.32,26.73-6.46,1.39-9.74-.93S76.71,88.1,82.05,81.77Z"/><path class="cls-3" d="M52.84,120h51.35c-7.77-35.5-23.86-48.56-39.48-47.94-11.59.46-13.75,15-12.82,21.85C52.53,98.63,53.78,113.76,52.84,120Z"/><path d="M51.83,94.76c.74,5.37,1.78,19.35.87,25.26H53c.89-6-.15-19.93-.88-25.3L52,94c-.66-4.86-.14-12.63,3.76-17.27a12,12,0,0,1,9-4.48l1.09,0c17.68,0,31.58,17.35,38.25,47.84h.25c-3.63-16.64-9.26-29.26-16.74-37.51C81,75.27,73.11,71.62,64.71,72a12.22,12.22,0,0,0-9.17,4.57C51.6,81.22,51.06,89.07,51.73,94Z"/><path class="cls-4" d="M104.26,120a99,99,0,0,0-4.51-11.5c-7.32-15.65-15.88-15.89-20-15.83-12.4.18-12,11-13.84,19.9-.36,1.72-.74,4.45-1.22,7.43Z"/><path d="M64.8,120c.16-1,.31-1.94.44-2.84.29-1.84.53-3.42.77-4.57.28-1.34.51-2.75.74-4.11,1.26-7.64,2.56-15.53,13-15.69,3.74-.06,12.45-.18,19.91,15.76A99.24,99.24,0,0,1,104.13,120h.26a100,100,0,0,0-4.53-11.56c-7.52-16.08-16.35-16-20.13-15.9-10.63.16-12,8.16-13.23,15.9-.22,1.36-.46,2.76-.74,4.1-.24,1.15-.48,2.74-.76,4.58-.14.91-.29,1.88-.46,2.88Z"/><path class="cls-3" d="M52.58,120c-5.42-3.9-13.75-12-13-14.88.92-3.52,8.88-10.83,12.64-10.7l2.32-9c-2.25,0-26,6.65-28.5,17.52-1.25,5.45,7,12.53,11.51,17Z"/><path d="M39.7,105.17c.93-3.54,8.69-10.61,12.42-10.61h.1v-.25h-.1c-3.81,0-11.73,7.19-12.67,10.8-.78,3,7.56,11,12.91,14.91h.43C47,115.89,39,107.91,39.7,105.17Z"/><path d="M37.37,120h.35L36,118.32c-4.61-4.44-10.91-10.52-9.82-15.29,2.47-10.76,26.23-17.42,28.38-17.42h0v-.25h0c-1.25,0-7.89,1.77-14.21,4.69-5.84,2.7-13.09,7.14-14.41,12.92-1.13,4.91,5.24,11,9.89,15.53Z"/><path class="cls-5" d="M83.84,40c-3.15-1.08-6.74-11.62-7.12-19.52S81.33,4.52,84.1,5s14,19.45,10.66,35.14c0,0,9.15,1.06,11.43,5.59.13.61-6-3.72-8.08-2.4-.12.08,5.52,2.5,5.82,8,0,.36-8.89-5.31-11.51-5.22S83.84,40,83.84,40Z"/><path class="cls-2" d="M53.1,18.33c5-1.26,25.61.85,38.89,21.56C100,52.44,102.07,62,102.07,62s4,2.15,3.35,5.88a4.23,4.23,0,0,0-3.46-.56,8.1,8.1,0,0,1,.17,6.81s-.46-5.41-2-5c-1.58,1.26-10.68,14-26.47,16.7-18.16,3.13-43.5-5.1-47.37-5.28S12.22,80.59,11,82s4-4.09,6.18-5-6.68-1-8.79-.34,4.46-6.2,12.29-6.85C20.67,69.78,20.05,26.57,53.1,18.33Z"/><path class="cls-6" d="M38.11,29.8c-.45-1.53-6.83-14-16.07-18.88S4.26,8.78,2,11.81s4.5,32.9,16,39.54c0,0-9.65.65-11.78,4.49-.68,1.94,4.43-.6,8-.1,0,0-4.1,3.28-4.21,5.61,1.19.51,9.23-3.08,13-2.93"/><path class="cls-7" d="M25.2,51.43c1,1-1.79-21.5-5.31-28.95S8.6,13.62,6.66,16.16,9.72,36.62,25.2,51.43Z"/><path class="cls-5" d="M73.9,60.72C74.14,60,89.44,68.8,89.76,74S81.42,83.89,78.3,84.91,63.42,87.55,63,78.67,71.42,68.48,73.9,60.72Z"/><path class="cls-8" d="M47.66,60.53C45.29,57.31,47.09,51.18,55,50s12.18,5.44,11.95,8.57S62.14,64,58.68,64.2C54.38,64.46,49,62.32,47.66,60.53Z"/><path class="cls-8" d="M80.15,43.87c2.1-.41,9.27,4.11,8.55,12.72-.33,2.2-1,4.32-4.45,4.95s-6.66-2.35-7.19-4.3C76.05,53.52,75.71,44.75,80.15,43.87Z"/><path class="cls-5" d="M54.13,46.85C57.63,48.3,63,50,64.73,48.47c.59-.36,1.61-.15-.17,1.87s-5.11,2.22-10.27,1.59-8.58-4-8.54-6.2S47.65,44.17,54.13,46.85Z"/><path class="cls-5" d="M72.71,41c.5,1,2.64-2.91,5.61-4,2.36-.88,5.94-.45,6.54-.51s-3.15-3.57-7.48-3.15C71.93,33.89,71.85,39.27,72.71,41Z"/><ellipse cx="61.78" cy="57.43" rx="3.35" ry="4.39" transform="translate(-5.02 5.93) rotate(-5.28)"/><ellipse cx="75.62" cy="65.92" rx="0.69" ry="1.09" transform="translate(-5.2 6.49) rotate(-4.75)"/><ellipse cx="82.86" cy="54" rx="2.77" ry="4.1" transform="translate(-4.62 7.85) rotate(-5.28)"/><path class="cls-9" d="M75.56,77.34c.47-2.08,1-3.57,1.61-3.7s2.38.21,3.19,2.63"/><path class="cls-2" d="M109.21,111.08c3.36-1.89-5.13-17.64-7.06-21.3-1.65-3.11-4.6-6.43-4-7.16s1.46-4.14-.24-8.92c-.63-1.77-6.9-5.62-13.37-.5-4.56,3.61-3,9.34-1.45,11.71,3.14,4.81,8,2.49,8.29,3.29.66,1.78,1.6,4.11,2.53,6.34,1.69,4.07,8.3,15.33,10.09,16.67A4.28,4.28,0,0,0,109.21,111.08Z"/><path class="cls-10" d="M87.88,70.59c1.29-.48,8.38-1.68,10.74,3.07a10.51,10.51,0,0,1-.16,10c-.15.31-1.37.13-3.75,1.58s-3,3.61-3.34,3.64-4.81-.27-6.65-1.93-4-4.28-3.37-9.72C81.9,72.94,86.34,71.16,87.88,70.59Z"/></g></g></svg>