<svg xmlns="http://www.w3.org/2000/svg" xmlns:xlink="http://www.w3.org/1999/xlink" viewBox="0 0 459.25 536.65"><defs><style>.cls-1,.cls-18,.cls-4,.cls-7{fill:none;}.cls-2,.cls-3,.cls-6{fill:#2f3c4c;}.cls-11,.cls-12,.cls-14,.cls-15,.cls-17,.cls-18,.cls-19,.cls-2,.cls-3,.cls-4,.cls-5,.cls-7,.cls-9{stroke:#000;}.cls-11,.cls-12,.cls-14,.cls-15,.cls-17,.cls-18,.cls-19,.cls-2,.cls-5,.cls-7,.cls-9{stroke-linecap:round;}.cls-11,.cls-12,.cls-14,.cls-15,.cls-17,.cls-18,.cls-19,.cls-2,.cls-4,.cls-5,.cls-7,.cls-9{stroke-linejoin:round;}.cls-11,.cls-12,.cls-14,.cls-15,.cls-16,.cls-17,.cls-19,.cls-2,.cls-3,.cls-5,.cls-6,.cls-9{fill-rule:evenodd;}.cls-23,.cls-24,.cls-3{stroke-miterlimit:10;}.cls-5{fill:#fef5e4;}.cls-8{clip-path:url(#clip-path);}.cls-9{fill:#fea49c;}.cls-10{clip-path:url(#clip-path-2);}.cls-11{fill:#faf8eb;}.cls-12{fill:#7b2325;}.cls-13{clip-path:url(#clip-path-3);}.cls-14{fill:#f06b6b;}.cls-15,.cls-16{fill:#fff;}.cls-17{fill:#1c1c1c;}.cls-18{stroke-width:3px;}.cls-20{fill:#fcb042;stroke:#562f09;stroke-miterlimit:10;}.cls-21{fill:#ed9520;}.cls-22{fill:#fce8c8;}.cls-23{fill:#e44b86;stroke:#b53167;}.cls-24{fill:#a0a0b1;stroke:#71717f;}</style><clipPath id="clip-path" transform="translate(0 6.61)"><path class="cls-1" d="M183.4,25c-2.7-5.55-17.67-17.7-26.83-19.38-14.82-2.72-28.86,4.91-34.52,14.65-7.94,13.66-3,36.19,8.36,42.47C145.74,71.15,155.67,67,161,65.84c5-1,17.81-3.93,21.56-10C194.48,36.6,185.94,30.15,183.4,25Z"/></clipPath><clipPath id="clip-path-2" transform="translate(0 6.61)"><path class="cls-1" d="M300.3,55.05c-2.48-5.65-1.11-25.51,3.53-33.59,7.49-13.07,22.39-18.85,33.49-16.88,15.55,2.77,29.56,21.1,27,33.83C360.87,55.58,340.05,68,335.73,71.33c-4,3.12-3.3,3.54-10.35,2.48C303,70.44,302.63,60.35,300.3,55.05Z"/></clipPath><clipPath id="clip-path-3" transform="translate(0 6.61)"><path class="cls-1" d="M183.81,147.56c6.56,1.58,17.64,4.92,25.8,6.34,9.64,1.69,26.09,2.75,31.24,3.22s24.19,2.41,31.56,2.49c6.8.08,18.7-1.2,29.14-1.6,2.5-.1,10.54-.55,10.66-.36s-7.38,13-11.95,16.23c-6.46,4.6-19.8,6.68-27.34,7.81-9.48,1.43-26.82,1.47-35.78.5-9.49-1-26.56-4.27-36.9-8.64-7.16-3-16.56-8-22.28-13.89-4-4.13-9.43-15.7-9.42-15.71S179.94,146.63,183.81,147.56Z"/></clipPath></defs><title>Panda glosa_5to0</title><g id="Layer_2" data-name="Layer 2"><g id="Frame_6" data-name="Frame 6"><g id="OSO_PANDA" data-name="OSO PANDA"><g id="cola"><path class="cls-2" d="M225.34,403c2.75-3.66,8.69-7.51,13.27-7.52,7.32,0,19.09,5.89,20.61,13.05,1.62,7.68-7.34,19.29-14.86,21.55-7.1,2.13-19.64-2.44-23-9.06C218.84,416,222,407.44,225.34,403Z" transform="translate(0 6.61)"/></g><g id="pierna_izq" data-name="pierna izq"><g id="pierna_izq-2" data-name="pierna izq"><path class="cls-2" d="M313.89,525.23c15.71-1,21.49-11.35,21.5-11.37s1.9-43.45,1-59.05c-1.27-21.4,10.85-91.18,7.5-96.35-2.57-4-34.35,10.87-60.3,18.14-24.66,6.9-33.08,30.17-33.12,33.53-.07,6,23.62,39.33,29.18,54.13,4.12,11,10.53,51.46,10.53,51.47S297.13,526.26,313.89,525.23Z" transform="translate(0 6.61)"/></g><g id="pata_izq" data-name="pata izq"><path class="cls-2" d="M327.68,508.88c2.45.65,8.36,1.69,11.91,7.2,2.64,4.11,1.5,11.53,1.12,12.06-1,1.34-22.14,1.16-30.7,1.15-5.85,0-19.91-.44-21-.78-1.57-.49-1.53-7.49-.84-10.6s2.35-7.89,4.35-9.07c3.84-2.27,12.94-2.33,17.75-2.33A65.92,65.92,0,0,1,327.68,508.88Z" transform="translate(0 6.61)"/></g></g><g id="pierna_der" data-name="pierna der"><g id="pierna_der-2" data-name="pierna der"><path class="cls-2" d="M142,524.08c-18.52-1.15-17.33-13.1-17.74-14.7,0,0-4.2-45.31-5.36-60.6-1.68-22-4.44-85.69-1.73-91.39,2.23-4.7,22.25-1.06,47.77,4.47,26.22,5.68,35.28,25.8,36.63,31.52,1.43,6-18.74,43-23.47,58.66-4.05,13.43-12.14,62.4-12.33,64.44C166.31,517.31,160.26,525.22,142,524.08Z" transform="translate(0 6.61)"/></g><g id="pata_der" data-name="pata der"><path class="cls-2" d="M163,510c1.45,1,3.52,4.88,4.67,8.07,1.05,2.92,1.09,9.88.76,10.32-.75,1-16.6,1.08-23,1.15-8.05.1-27.44-.22-28.89-.77s-1.5-7.76-.07-10.61c2-4,8.23-8.12,11.48-9.07a79.41,79.41,0,0,1,17.75-2.32C152.91,506.82,158.46,506.75,163,510Z" transform="translate(0 6.61)"/></g></g><g id="brazo_izq" data-name="brazo izq"><g id="brazo_izq-2" data-name="brazo izq"><path class="cls-3" d="M288.57,201.07c-1.58-8.35,2.5-13.31,5.14-14.2C297.3,185.65,362,169,363,168.27s39.84-61.66,40.2-62.2c6.46-9.84,9.12-17,11.94-19.22,4.39-3.41,20.9,2.55,28.22,7.33,6.1,4,12.76,11.12,15.27,18.9.84,2.58-5.48,15.09-12.57,22.89-5.23,5.77-57.72,62.64-66.3,67-7.23,3.66-77.11,10.08-82,8.8A14.4,14.4,0,0,1,288.57,201.07Z" transform="translate(0 6.61)"/><path d="M288.57,201.07c-1.58-8.35,2.14-13.72,5-14.71l.34,1c-2.46.79-6.89,5.35-5.31,13.7Z" transform="translate(0 6.61)"/><path class="cls-4" d="M293.54,186.36l.34,1" transform="translate(0 6.61)"/><path d="M297.67,212.27a15.5,15.5,0,0,1-9.1-11.2h0c1.48,7.81,8.66,10,9.38,10.16Z" transform="translate(0 6.61)"/><path class="cls-4" d="M297.67,212.27l.28-1" transform="translate(0 6.61)"/></g></g><g id="brazo_der" data-name="brazo der"><g id="brazo_der-2" data-name="brazo der"><path class="cls-2" d="M187.89,203.2c4.13-9.35-2.31-17.39-2.67-18-1.21-2-54.76-30.23-54.81-30.26s-52.5-28.63-63.74-34.39c-22-11.28-22.63-13.12-40.4-20-5.16-2-16,9.61-20.37,21.48-2.74,7.42-8.25,22.46-3.6,26.17,8.79,7,16.15,9.48,27.61,14.13.57.23,77,28.14,81.79,29.8,3.55,1.24,58.13,21.55,61.71,20.85C174.38,212.83,183.92,212.2,187.89,203.2Z" transform="translate(0 6.61)"/><path d="M185.28,207.71c4.13-9.35-2.74-17.05-3.13-17.69l.91-.56c.33.54,6.35,8.9,2.22,18.25Z" transform="translate(0 6.61)"/><path d="M170.66,216.83c1.05-.2,10.64-.12,14.62-9.12h0c-4,9-13.46,10.35-14.34,10.52Z" transform="translate(0 6.61)"/><path class="cls-4" d="M170.66,216.83l.28,1.4" transform="translate(0 6.61)"/></g></g><g id="cuerpo"><g id="cuerpo-2" data-name="cuerpo"><path class="cls-2" d="M237.81,139c-33.2-1.67-50.67,15.47-63.5,32.81s-53.23,86.7-58,114-6.94,68.27,2.52,101.44c4.53,15.91,22.87,26.15,35,30.67,18.83,7,56.41,14.31,80.81,14a224.18,224.18,0,0,0,67.95-12.07c19.91-6.8,33.88-14.81,39.12-29.27,15.93-44,11.35-73.62,9.83-97.78-1.74-27.56-31.81-102-40.87-116S302.84,142.24,237.81,139Z" transform="translate(0 6.61)"/></g><g id="detalle"><path class="cls-5" d="M141.88,246.77c-25.88,28.92-33.42,62.54-28.39,90.83,4,22.5,21.74,42.38,41.16,52S210,404.11,234.06,403c24.68-1.17,58.93-7.26,80-21.48,14.78-10,36.8-28.29,38.7-47.31,2.94-29.31-8.26-78.74-32-97.56-21.71-17.19-57.19-26.91-83.13-26.29C207.25,211.05,161.33,225,141.88,246.77Z" transform="translate(0 6.61)"/></g></g><g id="cabeza"><g id="OREJA_DER" data-name="OREJA DER"><g id="oreja_Der-2" data-name="oreja Der"><path class="cls-6" d="M185.44,23.92c-2.71-5.55-19.71-16.67-28.87-18.35-14.82-2.72-28.86,4.91-34.52,14.65-7.94,13.66-3,36.19,8.36,42.47C145.74,71.15,155.67,67,161,65.84c5-1,17.81-3.93,21.56-10C194.48,36.6,188,29.12,185.44,23.92Z" transform="translate(0 6.61)"/><path class="cls-7" d="M185.44,23.92c-2.71-5.55-19.71-16.67-28.87-18.35-14.82-2.72-28.86,4.91-34.52,14.65-7.94,13.66-3,36.19,8.36,42.47C145.74,71.15,155.67,67,161,65.84" transform="translate(0 6.61)"/></g><g id="relleno_oreja" data-name="relleno oreja"><g class="cls-8"><path class="cls-9" d="M126.87,33.42c3-10.39,15.47-14.61,23.79-14.29,8.86.35,20.76,9.07,23.93,17.35,2.15,5.64,1.09,15.76-3.35,19.86-8.4,7.75-29.3,6.6-38.09-.71C128.12,51.45,125,40.08,126.87,33.42Z" transform="translate(0 6.61)"/></g></g></g><g id="OREJA_IZQ" data-name="OREJA IZQ"><g id="oreja_Der-3" data-name="oreja Der"><path class="cls-6" d="M299.17,55.35c-2.48-5.65,0-25.81,4.66-33.89,7.49-13.07,22.39-18.85,33.49-16.88,15.55,2.77,29.56,21.1,27,33.83-3.45,17.17-16.81,26.28-26.87,32.23-4,3.12-5,4.23-12.07,3.17C303,70.44,301.5,60.65,299.17,55.35Z" transform="translate(0 6.61)"/><path class="cls-7" d="M299.17,55.35c-2.48-5.65,0-25.81,4.66-33.89,7.49-13.07,22.39-18.85,33.49-16.88,15.55,2.77,29.56,21.1,27,33.83-3.45,17.17-13.61,24.34-27.67,32.46" transform="translate(0 6.61)"/></g><g id="relleno_oreja_2" data-name="relleno oreja 2"><g class="cls-10"><path class="cls-9" d="M345.28,16.08c-9-3.48-18.69,2.25-23.6,7.87-5.63,6.45-8.39,20.35-4.84,28.15,2.39,5.23,10.11,10.68,15.86,10.78,10,.16,24.52-10.1,26.67-19.84C361.23,34.62,356.47,20.38,345.28,16.08Z" transform="translate(0 6.61)"/></g></g></g><g id="cabeza-2" data-name="cabeza"><path class="cls-11" d="M256.94,1.26c34.45,3.45,54.82,26,71.34,52.92,16.72,27.2,21.65,61.05,15.23,86.65-2.91,11.6-12.47,27.94-19.83,33.2-11.94,8.53-33.84,11.82-48.93,14.24-11.48,1.85-28.46,2.56-38.72,1.62a195.39,195.39,0,0,1-46.09-9.83c-10.67-3.82-26.11-9.88-33.64-17.18-8.79-8.52-18.92-29.28-19.8-44.73C134.63,85,155.92,46.49,189,20.61,208,5.76,223.67-2.07,256.94,1.26Z" transform="translate(0 6.61)"/></g><g id="barbilla"><path class="cls-6" d="M289.67,44.46c-18.74,2.17-23.3,23.3-25.67,34.92-2.9,14.14-.91,38.05,10.44,47,9.69,7.63,31.5,8,41.11.3,9.84-7.92,11.4-28.91,8.57-41.22C320.63,70.31,301.91,43,289.67,44.46Z" transform="translate(0 6.61)"/><path class="cls-6" d="M210.08,37.94c19.41,4.86,21.06,27,21.13,39.58.08,14.1-6.92,36-19.21,42.89-10.09,5.66-30.21,4.39-38.38-3.79-9.66-9.67-8.3-32.79-3.15-45.45C176.12,57.27,198.55,35.05,210.08,37.94Z" transform="translate(0 6.61)"/></g><g id="boca"><g id="boca-2" data-name="boca"><path class="cls-12" d="M183.81,147.56c6.56,1.58,17.64,4.92,25.8,6.34,9.64,1.69,26.09,2.75,31.24,3.22s24.19,2.41,31.56,2.49c6.8.08,18.7-1.2,29.14-1.6,2.5-.1,10.54-.55,10.66-.36s-7.38,13-11.95,16.23c-6.46,4.6-19.8,6.68-27.34,7.81-9.48,1.43-26.82,1.47-35.78.5-9.49-1-26.56-4.27-36.9-8.64-7.16-3-16.56-8-22.28-13.89-4-4.13-9.43-15.7-9.42-15.71S179.94,146.63,183.81,147.56Z" transform="translate(0 6.61)"/></g><g id="lengua"><g class="cls-13"><path class="cls-14" d="M195.83,168.43c.33-5.78,10.21-9.26,15.6-11.38,7.43-2.92,18.5-3.17,26.46-2.68,9.94.6,24.27,1.68,32.31,7.56,4.15,3,10.51,9.18,9.51,14.22-1.38,6.94-13.58,10.13-20.48,11.72-14,3.2-34.48.72-47.43-5.4C206,179.75,195.46,174.8,195.83,168.43Z" transform="translate(0 6.61)"/></g></g><g id="dientes"><g class="cls-13"><path class="cls-15" d="M151.56,56.21c2.22,3.85,56,11.21,95.39,14.63s96.56,2.07,96.62,2,.85-31.61-6.62-41.94c-16-22.17-57.07-31.75-84.24-34.95-27.39-3.24-71.5-5.18-90.77,14.55C152.11,20.55,150.48,54.34,151.56,56.21Z" transform="translate(0 6.61)"/></g><g class="cls-13"><path class="cls-15" d="M337.13,174.62c-2.76-3.73-60,8.71-100.67,4.67-39.35-3.9-94.47-23.5-94.54-23.43s-6.26,47.67,4.54,63.38c15.5,22.54,57.07,31.75,84.24,35,27.39,3.23,70.93,4.6,90.77-14.55C335.91,225.71,339,177.1,337.13,174.62Z" transform="translate(0 6.61)"/></g></g></g><g id="ojos"><g id="ojos-2" data-name="ojos"><path class="cls-16" d="M198.25,95.65a21,21,0,0,1-.15-7.49c1.14-6.49,6.6-17.07,15.21-15.6,7,1.19,8.3,6.15,9.72,10.18a22.72,22.72,0,0,1,.57,9.4,24.28,24.28,0,0,1-2.41,7.52,12.89,12.89,0,0,1-7.79,5.66c-3.89.67-9.61-.22-12.52-4.09A15.56,15.56,0,0,1,198.25,95.65Z" transform="translate(0 6.61)"/><path d="M197.89,88.12c1.15-6.53,6.46-17.57,15.53-16.2l-.22,1.27c-8.15-1.56-13.75,8.56-14.88,15Z" transform="translate(0 6.61)"/><path class="cls-4" d="M197.89,88.12l.43.08" transform="translate(0 6.61)"/><path d="M213.42,71.92c7.29,1.31,8.8,6.6,10.21,10.61l-1.2.42c-1.43-4.06-2.49-8.68-9.23-9.76Z" transform="translate(0 6.61)"/><path class="cls-4" d="M213.42,71.92l-.22,1.27" transform="translate(0 6.61)"/><path d="M223.63,82.53c1,2.79.49,6.82.13,9.63l-.31,0a22.24,22.24,0,0,0-1-9.17Z" transform="translate(0 6.61)"/><path class="cls-4" d="M223.63,82.53l-1.2.42" transform="translate(0 6.61)"/><path d="M221.33,99.74a13.08,13.08,0,0,1-7.89,5.82l-.08-.49A12.55,12.55,0,0,0,221,99.58Z" transform="translate(0 6.61)"/><path class="cls-4" d="M221.33,99.74l-.29-.16" transform="translate(0 6.61)"/><path d="M213.44,105.56c-3.94.68-9.84-.13-12.87-4.1l.61-.46c2.79,3.77,8.33,4.75,12.18,4.07Z" transform="translate(0 6.61)"/><path class="cls-4" d="M213.44,105.56l-.08-.49" transform="translate(0 6.61)"/><path d="M200.57,101.46a15.91,15.91,0,0,1-2.45-5.78l.26-.07a15.41,15.41,0,0,0,2.8,5.39Z" transform="translate(0 6.61)"/><path class="cls-4" d="M200.57,101.46l.61-.46" transform="translate(0 6.61)"/><path class="cls-16" d="M295.22,98.13a18.68,18.68,0,0,0,1.5-6.8c.09-6.21-3.33-16.76-11.55-17-6.75-.17-8.94,4.05-11,7.52a21,21,0,0,0-2.25,8.47,21.78,21.78,0,0,0,.93,7.29,12.26,12.26,0,0,0,6.33,6.57c3.56,1.34,9.09,1.62,12.58-1.46A14.58,14.58,0,0,0,295.22,98.13Z" transform="translate(0 6.61)"/><path d="M296.51,91.33C296.6,85.16,293,75,285.15,75l0-1.21c8.62.38,11.83,11.33,11.74,17.58Z" transform="translate(0 6.61)"/><path class="cls-4" d="M296.51,91.33h.41" transform="translate(0 6.61)"/><path d="M285.15,75c-6.48-.24-8.41,3.73-10.51,7.22l-1-.61c2.08-3.46,4.54-7.94,11.55-7.82Z" transform="translate(0 6.61)"/><path class="cls-4" d="M285.15,75l0-1.21" transform="translate(0 6.61)"/><path d="M274.64,82.18A20.18,20.18,0,0,0,272,90.35l-.29,0c.16-2.63.48-6.41,1.89-8.76Z" transform="translate(0 6.61)"/><path class="cls-4" d="M274.64,82.18l-1-.61" transform="translate(0 6.61)"/><path d="M273,97.58a12,12,0,0,0,6.27,6.4l-.16.43a12.54,12.54,0,0,1-6.4-6.73Z" transform="translate(0 6.61)"/><path class="cls-4" d="M273,97.58l-.29.1" transform="translate(0 6.61)"/><path d="M279.22,104c3.52,1.33,8.9,1.5,12.27-1.5l.47.53c-3.63,3.15-9.3,2.75-12.9,1.4Z" transform="translate(0 6.61)"/><path class="cls-4" d="M279.22,104l-.16.43" transform="translate(0 6.61)"/><path d="M291.49,102.48a14.55,14.55,0,0,0,3.62-4.4l.22.1A14.77,14.77,0,0,1,292,103Z" transform="translate(0 6.61)"/><path class="cls-4" d="M291.49,102.48l.47.53" transform="translate(0 6.61)"/></g><g id="pupilas"><path class="cls-17" d="M215.71,85.93c2.16.21,3.84,2.59,3.55,5.58s-2.39,5-4.55,4.79-3.84-2.59-3.55-5.57S213.55,85.72,215.71,85.93Z" transform="translate(0 6.61)"/><path class="cls-17" d="M280,86.77c1.94.19,3.29,2.51,3,5.19s-2,4.69-4,4.5-3.29-2.5-3-5.18S278,86.59,280,86.77Z" transform="translate(0 6.61)"/></g></g><g id="cejas"><path class="cls-18" d="M192.15,29.44s10.16-5.57,18.72-4.81c8.19.72,16.54,7.81,16.55,7.81" transform="translate(0 6.61)"/><path class="cls-18" d="M306.92,31.66s-8.12-6.32-15.14-7c-7.54-.77-17.42,4.19-17.42,4.19" transform="translate(0 6.61)"/></g><g id="nariz"><path class="cls-19" d="M243.81,123c4.86.42,15.42.92,15.55,4.76.1,2.75-2.19,5.66-4.26,7-3.24,2.08-9,1.43-12.79.95-4.16-.51-10.44-1.34-13.23-4.45-1.3-1.45-2.42-4.34-1.87-6.21C228.41,121,238.81,122.59,243.81,123Z" transform="translate(0 6.61)"/></g></g></g><rect class="cls-20" x="408.57" y="73.03" width="16.92" height="96.05" transform="translate(-9.79 47.74) rotate(-5.58)"/><rect class="cls-21" x="409.06" y="72.85" width="9.19" height="96.05" transform="translate(-9.79 47.41) rotate(-5.58)"/><path class="cls-22" d="M430.81,168.51l-6.12,17.67a1.27,1.27,0,0,1-1.45,1,1.32,1.32,0,0,1-.78-.57l-9.62-16.28Z" transform="translate(0 6.61)"/><path d="M420.53,183.32l1.89,3.15a1.12,1.12,0,0,0,1.67.38,1.27,1.27,0,0,0,.56-.78l1.23-3.37Z" transform="translate(0 6.61)"/><path class="cls-23" d="M413.47,61.76l-3.29.4c-4.57.47-7.29,5-7.11,7.36h0c.19,2.3.83,4.21,3.24,4l11.9-1.16c2.31-.19,2.48-2.14,2.15-4.51h0C420.29,65.5,417,61.4,413.47,61.76Z" transform="translate(0 6.61)"/><path class="cls-24" d="M402.69,72.25l19-1.9a.83.83,0,0,1,.78.57l.73,7.08a.85.85,0,0,1-.56.79l-19,1.89a.86.86,0,0,1-.78-.56L402.12,73A.57.57,0,0,1,402.69,72.25Z" transform="translate(0 6.61)"/></g></g></svg>