<svg xmlns="http://www.w3.org/2000/svg" xmlns:xlink="http://www.w3.org/1999/xlink" viewBox="0 0 380.75 481.55"><defs><style>.cls-1,.cls-4,.cls-7{fill:none;}.cls-10,.cls-12,.cls-14,.cls-15,.cls-17,.cls-19,.cls-2,.cls-20,.cls-22,.cls-23,.cls-4,.cls-5,.cls-6,.cls-7{stroke:#000;}.cls-10,.cls-12,.cls-14,.cls-15,.cls-17,.cls-19,.cls-2,.cls-20,.cls-22,.cls-23,.cls-4,.cls-5{stroke-linecap:round;}.cls-10,.cls-12,.cls-14,.cls-15,.cls-17,.cls-19,.cls-2,.cls-20,.cls-22,.cls-23,.cls-4,.cls-5,.cls-7{stroke-linejoin:round;}.cls-10,.cls-12,.cls-14,.cls-15,.cls-17,.cls-19,.cls-2,.cls-20,.cls-21,.cls-22,.cls-23,.cls-24,.cls-3,.cls-5,.cls-6{fill-rule:evenodd;}.cls-2{fill:url(#linear-gradient);}.cls-10,.cls-3,.cls-6{fill:#68605b;}.cls-5{fill:#b36c5e;}.cls-28,.cls-29,.cls-6{stroke-miterlimit:10;}.cls-8{clip-path:url(#clip-path);}.cls-9{clip-path:url(#clip-path-2);}.cls-11{clip-path:url(#clip-path-3);}.cls-12{fill:#ffe8c6;}.cls-13{clip-path:url(#clip-path-4);}.cls-14{fill:#fea49c;}.cls-15{fill:#2aeaf7;}.cls-16{clip-path:url(#clip-path-5);}.cls-17{fill:#7b2325;}.cls-18{clip-path:url(#clip-path-6);}.cls-19{fill:#f06b6b;}.cls-20,.cls-24{fill:#fff;}.cls-21{fill:url(#linear-gradient-2);}.cls-22{fill:#1c1c1c;}.cls-23{fill:#96a3b6;}.cls-25{fill:#fcb042;stroke:#562f09;stroke-miterlimit:10;}.cls-26{fill:#ed9520;}.cls-27{fill:#fce8c8;}.cls-28{fill:#e44b86;stroke:#b53167;}.cls-29{fill:#a0a0b1;stroke:#71717f;}</style><linearGradient id="linear-gradient" x1="-228.97" y1="-464.03" x2="-226.81" y2="-464.03" gradientTransform="translate(8811.11 26101.72) scale(37.61 55.5)" gradientUnits="userSpaceOnUse"><stop offset="0" stop-color="#27dae7"/><stop offset="0.81" stop-color="#f43353"/></linearGradient><clipPath id="clip-path" transform="translate(17.18)"><path class="cls-1" d="M204.76,274.12c-.41-.42-4.57-4.05-3-9.24,1.66-5.5,6.23-7,8.1-6.33,2.8.93,47.13,26.26,49.83,26.16,1.55-.11,50.24-32.08,49.93-32.5-2.91-3.32-3.94-10.17-1-14.63,4.47-6.75,11.52-9.24,19.21-8.62,6.23.52,14.12,7.89,14.53,14.74.62,10.9-7.27,19.93-22.42,24.19"/></clipPath><clipPath id="clip-path-2" transform="translate(17.18)"><path class="cls-1" d="M135.73,268c-.94-5.4-6.23-7.06-6.54-7.26-1.66-.73-47.65,6.22-49.42,5.6s-43.56-33.45-43.46-34c1.35-6.23.06-10.51-5.13-16.64C23.59,206.77,12,207,4.35,216.2c-3.32,4.05-4.53,11.87-2,17.16,3.73,8.1,12.12,12.29,21.15,12.71.41,0,43.53,37.08,53,39.36,8.2,2.08,52.84-5.6,55.23-7.68C132,277.54,136.76,273.91,135.73,268Z"/></clipPath><clipPath id="clip-path-3" transform="translate(17.18)"><path class="cls-1" d="M168.12,231.45c-12.46.21-28.86,3.74-37.27,11.94-4.57,4.46-7.89,18.37-8.2,19.52-.73,2.59-3.53,34.77-5.09,49.62-2,17.75-10.59,41.73-6.75,59.27,1.35,6,5.09,14.23,9.76,18.27,11.73,10.28,34.46,14.12,50.14,14.54,13.91.41,33.53-2.7,45.26-10.07,5.5-3.43,11.94-10.07,14.22-16.09,6.65-17.65-3.11-43.81-5.5-62.6-2.18-17.34-5.81-46.82-8.82-56-1-3-4.05-13.28-8.31-17.12C198.32,234.67,181.2,231.24,168.12,231.45Z"/></clipPath><clipPath id="clip-path-4" transform="translate(17.18)"><path class="cls-1" d="M69.6,126.71c.31.41-1.14,16.19-1.35,23-.42,11-.21,25.54-1.35,26.68-4.05,3.95-26.68-3.22-32.49-11.73-5.51-8.1-5.09-24.6.41-32.7C42.5,120.79,62.12,119,69.6,126.71Z"/></clipPath><clipPath id="clip-path-5" transform="translate(17.18)"><path class="cls-1" d="M284.9,140c-.41.31-.72,16.2-1.24,22.95-.83,11-.36,25.49.68,26.74,3.63,4.36,24.65-.38,31.39-8.27,6.44-7.47,7.79-24,3.12-32.59C312.41,137,293.21,133.14,284.9,140Z"/></clipPath><clipPath id="clip-path-6" transform="translate(17.18)"><path class="cls-1" d="M103.44,223.15c16.2,3.84,7.89,2.28,27,6.54s27.41,4.88,37.79,5.6c11.63.83,31,.42,42.67-.41a279.65,279.65,0,0,0,30.93-4c18.58-3.53,22.42.93,23.67,2.8,2.18,3.43,4.15,13-18.17,21.28-8.72,3.22-24.5,6.54-33.94,7.79-11.63,1.56-31.35,2.59-43,1.87a219.29,219.29,0,0,1-37.58-6.65c-7.68-2.18-20.76-6.75-27.41-10.9-18.48-11.42-19.1-15.15-20.66-17.33C84,228.75,77,216.81,103.44,223.15Z"/></clipPath><linearGradient id="linear-gradient-2" x1="-212.69" y1="-462.22" x2="-212.74" y2="-461.71" gradientTransform="translate(15548.47 49954.6) scale(72.27 107.73)" gradientUnits="userSpaceOnUse"><stop offset="0.01" stop-color="#68605b"/><stop offset="1" stop-color="#f43353"/></linearGradient></defs><title>Mandrill glosa</title><g id="Layer_2" data-name="Layer 2"><g id="Frame_6" data-name="Frame 6"><g id="Mandril"><g id="Cola"><g id="cola-2" data-name="cola"><path class="cls-2" d="M252.72,350.31c.62-2.69-8.51-2.49-8.51-2.49s5.92-25.12,6-27.92c.1-5-12.87,3.53-22.94,13-11.21,10.7-16.51,26.16-16.72,31-.2,6.23.94,13.81,5.4,15.78C228.64,385.4,250.44,360,252.72,350.31Z" transform="translate(17.18)"/></g></g><g id="pierna_izq" data-name="pierna izq"><path class="cls-3" d="M209.85,454.23c.1.1,2.7,7.27,12,6.95,8.82-.31,10.9-7.05,10.9-7.16.1-.31-5.81-33.53-8.1-47.44-2.07-13.08-4.77-42.67-6.75-44.43-.62-.52-6.43-3.63-14.53-2-8.62,1.76-12.87,6.64-13.29,8-.72,2.6,6.54,30.83,9.66,43.91C202.68,424.75,209.74,454.23,209.85,454.23Z" transform="translate(17.18)"/><path class="cls-4" d="M232.79,454c.1-.31-5.81-33.53-8.1-47.44-2.07-13.08-4.77-42.67-6.75-44.43-.62-.52-6.43-3.63-14.53-2-8.62,1.76-12.87,6.64-13.29,8-.72,2.6,6.54,30.83,9.66,43.91,2.9,12.67,10.07,42.15,10.07,42.25" transform="translate(17.18)"/></g><g id="pierna_der" data-name="pierna der"><path class="cls-3" d="M125,460.46c-.1.1-3,2.9-10.79,3.32-8.2.42-11.63-2.28-11.63-2.28s7.47-32.91,11.73-46.82c3.74-12.36,12.15-37.79,14.53-40.7,1-1.24,6.86-5.71,14.95-2.8a15,15,0,0,1,9.76,11.73c.21,4-11.11,27.1-15.67,38.83C133.44,432.84,125,460.35,125,460.46Z" transform="translate(17.18)"/><path class="cls-4" d="M102.61,461.5c-.1-.11,7.47-32.91,11.73-46.82,3.74-12.36,12.15-37.79,14.53-40.7,1-1.24,6.86-5.71,14.95-2.8a15,15,0,0,1,9.76,11.73c.21,4-11.11,27.1-15.67,38.83-4.26,11.1-12.67,38.61-12.77,38.72" transform="translate(17.18)"/></g><g id="pata_izq" data-name="pata izq"><path class="cls-5" d="M200.82,455.48c-1.87,1.25-3.85,5.08-4.47,7.78-.83,3.63.94,11.84,1.35,12.35.94.94,17.55,1.67,24.4,1.67,6.43,0,22.11-.73,23-1.56.63-.62,4.05-10.69,2.49-15.05-.72-1.87-1.89-2.86-4.56-4.57s-7-2.76-10.63-3.32-14.5-.06-18.13.25S202.68,454.22,200.82,455.48Z" transform="translate(17.18)"/></g><g id="pata_der" data-name="pata der"><path class="cls-5" d="M122.42,457.9c4.56,2.1,6.77,7,7.49,10.34s.31,10.59-.1,11.11C128.67,480.7,106,481,96.9,481c-5.09,0-15.26.31-18.27-.83-.42-.21-2.7-5.92-2.6-8.51.21-3.32-.31-8,7.69-13,5.91-3.63,17-2.9,18.37-3C105.52,455.37,119.67,456.64,122.42,457.9Z" transform="translate(17.18)"/></g><g id="brazo_izq" data-name="brazo izq"><g id="brazo_izq-2" data-name="brazo izq"><path class="cls-6" d="M201.75,264.88c1.66-5.5,6.23-7,8.1-6.33,2.8.93,47.13,26.26,49.83,26.16,1.55-.11,50.24-32.08,49.93-32.5-2.91-3.32-3.94-10.17-1-14.63,4.47-6.75,11.52-9.24,19.21-8.62,6.23.52,14.12,7.89,14.53,14.74.62,10.9-7.27,19.93-22.42,24.19-.11,0-52.12,39.55-61.25,39.55-4.88,0-51.08-30.62-53.88-33.32C204.35,273.7,200.19,270.07,201.75,264.88Z" transform="translate(17.18)"/><path d="M201.75,264.88c1.66-5.5,6.23-7.37,8.2-6.75l-.21.73c-1.66-.52-6.33.52-8,6Z" transform="translate(17.18)"/><path d="M210,258.13c2.91.93,47.34,25.95,49.73,25.75l.1,1.45c-3.11,0-47.23-25.64-49.93-26.47Z" transform="translate(17.18)"/><path class="cls-7" d="M210,258.13l-.21.73" transform="translate(17.18)"/><path d="M259.57,283.88c1.25.1,49.83-31.87,49.31-31.25l1.15-.94c.2,1.56-48.48,33.53-50.46,33.64Z" transform="translate(17.18)"/><path class="cls-7" d="M309,252.63l1.14-.94" transform="translate(17.18)"/><path d="M204.45,274.43c-.42-.42-4.26-4.26-2.7-9.55h0c-1.56,5.19,2.8,8.51,3.22,8.93Z" transform="translate(17.18)"/><path class="cls-7" d="M204.45,274.43l.52-.62" transform="translate(17.18)"/></g><g id="mano_der_2" data-name="mano der 2"><g class="cls-8"><path class="cls-5" d="M305.46,238.41c.31-15.06,13.08-27.41,29.38-27.1s28.54,13.19,28.23,28.24S350,267,333.69,266.64,305.15,253.46,305.46,238.41Z" transform="translate(17.18)"/></g></g></g><g id="brazo_der" data-name="brazo der"><g id="brazo_der-2" data-name="brazo der"><path class="cls-6" d="M135.73,268c-.94-5.4-6.23-7.06-6.54-7.26-1.66-.73-47.65,6.22-49.42,5.6s-43-33.54-42.9-34c1.35-6.23,0-10.69-5.16-16.82-8.2-9.65-20.35-8.61-28,.63-3.32,4-4.26,12.14-1.77,17.44,3.74,8.09,12.53,12.12,21.56,12.54.41,0,43.53,37.08,53,39.36,8.2,2.08,52.84-5.6,55.23-7.68C132,277.54,136.76,273.91,135.73,268Z" transform="translate(17.18)"/><path d="M135.73,268c-.94-5.4-6.34-6.75-6.75-6.85l.31-.73c.31.11,5.4,2.18,6.44,7.58Z" transform="translate(17.18)"/><path class="cls-7" d="M129,261.14l.31-.73" transform="translate(17.18)"/><path d="M131.16,277.54c.52-.41,5.6-3.53,4.57-9.55h0c1,5.92-3.43,10-3.84,10.28Z" transform="translate(17.18)"/><path class="cls-7" d="M131.16,277.54l.73.83" transform="translate(17.18)"/></g><g id="mano_der" data-name="mano der"><g class="cls-9"><path class="cls-5" d="M30.25,199.06c11.42,9.76,12.88,27.51,2.29,39.87S4.2,252.52-7.22,242.66s-12.87-27.51-2.29-39.86S18.83,189.2,30.25,199.06Z" transform="translate(17.18)"/></g></g></g><g id="cuerpo"><g id="cuerpo-2" data-name="cuerpo"><path class="cls-10" d="M168.12,231.45c-12.46.21-28.86,3.74-37.27,11.94-4.57,4.46-7.89,18.37-8.2,19.52-.73,2.59-3.53,34.77-5.09,49.62-2,17.75-10.59,41.73-6.75,59.27,1.35,6,5.09,14.23,9.76,18.27,11.73,10.28,34.46,14.12,50.14,14.54,13.91.41,33.53-2.7,45.26-10.07,5.5-3.43,11.94-10.07,14.22-16.09,6.65-17.65-3.11-43.81-5.5-62.6-2.18-17.34-5.81-46.82-8.82-56-1-3-4.05-13.28-8.31-17.12C198.32,234.67,181.2,231.24,168.12,231.45Z" transform="translate(17.18)"/></g><g id="detalle"><g class="cls-11"><path class="cls-12" d="M135.41,234.36c-9.55,35.5-5.91,59.07-8.72,84.29-2.07,18.58-11.83,43.71-7.37,61.87,2.91,12.05,7.79,22,15.78,26.89,18.17,10.9,51.39,7.27,70.59-3.43,6.86-3.84,13.09-18,14.95-27,3.74-17.64-5.91-41.73-8.3-59.69-3.43-25.33-1.45-40.59-11.11-84.6-1.66-7.69-22.94-11.63-33.63-11.32C157.11,221.8,137.39,227,135.41,234.36Z" transform="translate(17.18)"/></g></g></g><g id="pelitos_centro" data-name="pelitos centro"><path class="cls-12" d="M145.59,249.51c-13.29,9.66-15.16,36.86-10.9,32a19.42,19.42,0,0,1,15.15-6.23s12.77,26.89,16.72,27c3.74.1,20.14-22.53,20.14-22.53s6.85-.93,12.14,9.35c1.35,2.59,4.47-22.22-.1-30S182.34,245,172,244.12C160.74,243.29,152.13,244.74,145.59,249.51Z" transform="translate(17.18)"/></g><g id="cabeza"><g id="pelitos_izq" data-name="pelitos izq"><path class="cls-12" d="M121.92,240.69c1.14,14-43.08,17.44-44.12,15.57-.73-1.45,13.49-24.6,24.08-26.26C108.74,229,121.4,233.84,121.92,240.69Z" transform="translate(17.18)"/><path class="cls-12" d="M82.16,182.35c1.14,14-43.08,17.44-44.12,15.57-.73-1.45,13.5-24.6,24.08-26.26C69,170.51,81.64,175.5,82.16,182.35Z" transform="translate(17.18)"/><path class="cls-12" d="M90.36,133.76C77.7,148,32.64,107.71,33.68,104.9c.73-2.07,37-9.86,48.48-.93C89.53,109.68,96.59,126.81,90.36,133.76Z" transform="translate(17.18)"/></g><g id="pelitos_der" data-name="pelitos der"><path class="cls-12" d="M216.18,244.63c-2.7,13.81,39.45,24.71,40.8,23.05,1-1.35-8-28-19.21-31.56C231,234.05,217.53,237.78,216.18,244.63Z" transform="translate(17.18)"/><path class="cls-12" d="M274.11,198.33c.41,11,30.31,19.73,31.87,18.17,1.14-1.14-9.35-29.48-20.35-29.9C280.54,186.4,273.9,193.46,274.11,198.33Z" transform="translate(17.18)"/><path class="cls-12" d="M279.3,141.86c5.6,13.5,46.3-13.7,46-16.3-.21-2-34-15.46-43.29-6.23C278.26,123,277.53,137.5,279.3,141.86Z" transform="translate(17.18)"/></g><g id="OREJA_DER" data-name="OREJA DER"><g id="oreja_Der-2" data-name="oreja Der"><path class="cls-5" d="M69.6,126.71c.31.41-1.14,16.19-1.35,23-.42,11-.21,25.54-1.35,26.68-4.05,3.95-26.68-3.22-32.49-11.73-5.51-8.1-5.09-24.6.41-32.7C42.5,120.79,62.12,119,69.6,126.71Z" transform="translate(17.18)"/></g><g id="relleno_oreja_izq" data-name="relleno oreja izq"><g class="cls-13"><path class="cls-14" d="M40.32,133.45c4.88-6.43,19.73-9.86,26.58-5.4,21.8,14.23,9.45,41.84-.83,45.37-5,1.66-19.93-1.56-25.75-8.62C34.1,157.23,31.92,144.46,40.32,133.45Z" transform="translate(17.18)"/></g></g></g><g id="cabeza-2" data-name="cabeza"><path class="cls-10" d="M179.43,31.72S186.28,4.1,190.64,3.9c5.19-.31,16.72,29.58,16.72,29.58s11-13.8,12.87-25.22C221.79-1.19,257.5,46,268.5,72.41c15.57,37.17,19.41,66.75,14.74,110-1.76,15.68-4.88,27.41-5.92,32.6-2.07,9.65-36.74,32-55.53,40.9-14.75,7-44.77,15.14-52.43,14.22s-37.58-15.05-51.8-24.81c-16.4-11.31-41.73-27.82-48.17-45.78-3.74-10.38-3.22-20.55-2.91-37.06.83-35.71,11-75.18,23-94.68s68.83-74.12,70-66.64C162.61,21.34,179.43,31.72,179.43,31.72Z" transform="translate(17.18)"/><g id="barbilla"><path class="cls-15" d="M110.48,252.11C94.39,240.9,67.4,228.54,60.24,210.38c-.48-9.49,3-36.68,6.46-51.67,18.78,10.18,67.56,9.21,97.14,10.35,26.06,1,61.25-6.13,86.79-1,7.28,1.08,30.9,4.78,31.45,6.26-.49,22.14.86,45.65-17.51,58.84-16.09,11.52-25.77,22.7-45.39,25.4-15.26,2.08-46.93,9.44-61.67,5.18C141.94,259.24,123.77,261.45,110.48,252.11Z" transform="translate(17.18)"/></g></g><g id="boca"><path class="cls-5" d="M65.76,185.67c26.68-21.07,90.83,32,108,33s89.49-42.77,111.81-17.13c6.54,7.48,3.42,24-.83,33-6.65,14-26.27,25.85-40.49,32.19-20.35,9.13-61.87,12.14-73.4,11.31-15.05-1.14-50.76-8.3-69.55-19-14.84-8.51-36.33-22.94-41.42-39.24C56.93,209.55,57.66,192.11,65.76,185.67Z" transform="translate(17.18)"/></g><g id="OREJA_IZQ" data-name="OREJA IZQ"><g id="oreja_Der-3" data-name="oreja Der"><path class="cls-5" d="M284.9,140c-.41.31-.72,16.2-1.24,22.95-.83,11-1.44,25.42-.41,26.67,3.64,4.36,25.74-.31,32.48-8.2,6.44-7.47,7.79-24,3.12-32.59C312.41,137,293.21,133.14,284.9,140Z" transform="translate(17.18)"/></g><g id="relleno_oreja_izq-2" data-name="relleno oreja izq"><g class="cls-16"><path class="cls-14" d="M313.55,149.75c-4.15-6.95-18.58-11.83-25.84-8.2-23.15,11.83-13.92,40.59-4.16,45.16,4.78,2.28,20,.62,26.58-5.82C317.19,174,320.72,161.59,313.55,149.75Z" transform="translate(17.18)"/></g></g></g><g id="boca-2" data-name="boca"><g id="boca-3" data-name="boca"><path class="cls-17" d="M103.44,223.15c16.2,3.84,7.89,2.28,27,6.54s27.41,4.88,37.79,5.6c11.63.83,31,.42,42.67-.41a279.65,279.65,0,0,0,30.93-4c18.58-3.53,22.42.93,23.67,2.8,2.18,3.43,4.15,13-18.17,21.28-8.72,3.22-24.5,6.54-33.94,7.79-11.63,1.56-31.35,2.59-43,1.87a219.29,219.29,0,0,1-37.58-6.65c-7.68-2.18-20.76-6.75-27.41-10.9-18.48-11.42-19.1-15.15-20.66-17.33C84,228.75,77,216.81,103.44,223.15Z" transform="translate(17.18)"/></g><g id="lengua"><g class="cls-18"><path class="cls-19" d="M110.81,255.53c.62-8,14.43-12.56,22-15.36,10.38-3.84,25.74-3.84,36.75-2.91,13.81,1.15,33.63,3.12,44.64,11.53,5.6,4.36,14.32,13.08,12.77,20-2.18,9.55-19.11,13.6-28.76,15.68-19.41,4.05-47.86-.11-65.61-8.93C124.62,271.52,110.08,264.36,110.81,255.53Z" transform="translate(17.18)"/></g></g><g id="dientes"><g class="cls-18"><path class="cls-20" d="M63.27,158.47c2.7,4.47,65.71,11.94,111.28,15.16s112.43.93,112.53.83.52-37-8.41-48.9c-19.1-25.53-67-35.92-98.72-39.24C148,83,96.59,81.55,74.48,104.9,63.27,116.84,62,156.29,63.27,158.47Z" transform="translate(17.18)"/></g><g class="cls-18"><path class="cls-20" d="M284.49,254.29c-3.22-4.26-69.87,10.69-117,6.75C122,257.2,57,235.81,56.93,235.91s-6.33,55.23,6.44,73.19c18.48,25.95,67,35.92,98.72,39.24,32,3.32,82.64,4.15,105.48-18.58C284,313.46,286.67,257.09,284.49,254.29Z" transform="translate(17.18)"/></g></g></g><g id="nariz"><path class="cls-21" d="M214.1,117c-13.08,17.13-19.41,38-21.49,82.63,0,.93,20.14-7.47,21.39,7.58.83,9.86-6.75,15-12.35,16.5-9,2.6-22,2.91-31.46,2.29a110.7,110.7,0,0,1-22.32-4.36c-13.29-3.84-16.4-12.87-13-18.79,7.57-13.5,23.46-3.22,23.77-5,7.37-39.35,1.56-76.62-6.85-87.1C143.62,100.65,222,106.67,214.1,117Z" transform="translate(17.18)"/><path class="cls-4" d="M214.1,117c-13.08,17.13-19.41,38-21.49,82.63,0,.93,20.14-7.47,21.39,7.58.83,9.86-6.75,15-12.35,16.5-9,2.6-22,2.91-31.46,2.29a110.7,110.7,0,0,1-22.32-4.36c-13.29-3.84-16.4-12.87-13-18.79,7.57-13.5,23.46-3.22,23.77-5,7.37-39.35,1.56-76.62-6.85-87.1" transform="translate(17.18)"/><path class="cls-22" d="M144,207.78c.62-1.24,3.12-1.24,4.47-.83,1.76.52,4.77,2.7,4.36,4.47s-3.85,2.69-5.61,2.18S143.1,209.55,144,207.78Z" transform="translate(17.18)"/><path class="cls-22" d="M203.83,212.66c-.42-1.24-2.91-1.76-4.26-1.56-1.87.21-5.09,1.87-5,3.74s3.42,3.32,5.19,3S204.45,214.53,203.83,212.66Z" transform="translate(17.18)"/></g><g id="Ojeras"><path class="cls-23" d="M133.86,89.85c9.86.94,21.18,7.58,25.85,14.33,11.62,16.71,12.87,50.66,2.18,68-7.06,11.42-26.27,21.8-39.56,20.66-14.11-1.14-32.59-15.46-37.47-28.75-6.54-18,2.91-48.17,15.67-61.67C107.7,94.94,122.75,88.81,133.86,89.85Z" transform="translate(17.18)"/><path class="cls-23" d="M233.52,99.3c-9.87-.42-23.26,7.68-29.07,15.26-11.11,14.22-18.79,43.08-11.84,60.21,5.09,12.46,22.43,25.74,35.82,26.89,14.22,1.14,35-9.87,41.94-22.32,8.93-16,4.67-46.3-5.92-60.63C258.33,110.41,245.25,99.71,233.52,99.3Z" transform="translate(17.18)"/></g><g id="ojos"><g id="ojos-2" data-name="ojos"><path class="cls-24" d="M102.92,160.55a57.93,57.93,0,0,1-.21-15.78c1.56-10.69,4.36-25.12,22.22-27.3,13.81-1.66,20.35,5.19,24.6,12.45,4.47,7.58,3.22,20.56,1.87,29.28-.72,4.57-2.07,11.11-5.09,14.53-4.77,5.3-14.74,10-21.8,9.24-6.64-.62-14.63-6.95-18.37-12.35C104.27,168.23,103.44,163.77,102.92,160.55Z" transform="translate(17.18)"/><path d="M102.3,144.77c1.56-10.69,4-26,22.53-28.34l.2,2.18c-17.33,1.87-20.45,15.67-22,26.26Z" transform="translate(17.18)"/><path class="cls-7" d="M102.3,144.77l.73.1" transform="translate(17.18)"/><path d="M124.83,116.43c14.22-1.66,21.38,5.71,25.64,13l-1.87,1c-4.15-7.16-10.07-13.6-23.57-11.94Z" transform="translate(17.18)"/><path class="cls-7" d="M124.83,116.43l.2,2.18" transform="translate(17.18)"/><path d="M150.47,129.51c4.57,8,2.49,21.18,1.14,29.9l-.52-.11c1.35-8.72,1.76-21.49-2.49-28.75Z" transform="translate(17.18)"/><path class="cls-7" d="M150.47,129.51l-1.87,1" transform="translate(17.18)"/><path d="M146.52,174c-4.77,5.3-14.84,10.18-22,9.55l.11-.83c6.95.73,16.82-3.84,21.59-9Z" transform="translate(17.18)"/><path class="cls-7" d="M146.52,174l-.41-.41" transform="translate(17.18)"/><path d="M124.41,183.59c-6.75-.72-15-6.85-18.89-12.35l1-.73c3.73,5.4,11.41,11.73,18,12.36Z" transform="translate(17.18)"/><path class="cls-7" d="M124.41,183.59l.1-.83" transform="translate(17.18)"/><path d="M105.52,171.24c-1.87-2.8-2.29-7.37-2.81-10.59l.42-.1c.52,3.22,1.66,7.47,3.43,9.86Z" transform="translate(17.18)"/><path class="cls-7" d="M105.52,171.24l1-.73" transform="translate(17.18)"/><path class="cls-24" d="M249.81,173a48,48,0,0,0,3-16c.2-10.8-.32-25.54-17.65-30.52-13.39-3.84-21.08,1.87-26.37,8.3-5.61,6.75-6.64,19.83-6.54,28.65,0,3.85.52,9.35,2.49,12.67,3.84,6.54,12.67,14.43,20.24,15.26,6.65.73,15.58-4.46,20.35-9.24C247.32,180,248.78,175.91,249.81,173Z" transform="translate(17.18)"/><path d="M252.41,157c.21-10.8-.73-24.81-17.54-29.48l.62-2.08c17.85,5.29,17.85,20.76,17.65,31.56Z" transform="translate(17.18)"/><path class="cls-7" d="M252.41,157h.73" transform="translate(17.18)"/><path d="M234.87,127.54c-13.08-3.85-20,1.55-25.23,8L208,134.18c5.4-6.54,13.7-12.67,27.51-8.72Z" transform="translate(17.18)"/><path class="cls-7" d="M234.87,127.54l.62-2.08" transform="translate(17.18)"/><path d="M209.64,135.53c-5.4,6.44-7.16,19.1-7.16,27.92H202c0-8.82.21-22.11,6-29.27Z" transform="translate(17.18)"/><path class="cls-7" d="M209.64,135.53,208,134.18" transform="translate(17.18)"/><path d="M205,176c3.84,6.43,12.56,14.22,20,14.94l-.1.83c-7.68-.83-16.51-8.92-20.35-15.46Z" transform="translate(17.18)"/><path class="cls-7" d="M205,176l-.52.31" transform="translate(17.18)"/><path d="M224.9,191c6.54.73,15.16-4.56,19.83-9.34l.93.94c-4.77,4.87-14,9.86-20.86,9.23Z" transform="translate(17.18)"/><path class="cls-7" d="M224.9,191l-.1.83" transform="translate(17.18)"/><path d="M244.73,181.62c2.07-2.07,3.84-5.81,4.77-8.61l.42.1c-1,2.91-2.08,7.16-4.36,9.45Z" transform="translate(17.18)"/><path class="cls-7" d="M244.73,181.62l.93.94" transform="translate(17.18)"/></g><g id="pupilas"><path class="cls-22" d="M136,141.45c4.46.41,7.68,5.71,7.16,11.83s-4.46,10.9-8.93,10.59-7.68-5.71-7.16-11.83S131.57,141,136,141.45Z" transform="translate(17.18)"/><path class="cls-22" d="M218.46,147.88c4.47.42,7.69,5.71,7.17,11.84s-4.57,10.9-9,10.59-7.69-5.71-7.17-11.84C210,152.14,214,147.47,218.46,147.88Z" transform="translate(17.18)"/></g></g></g></g><rect class="cls-25" x="269.25" y="240.79" width="88.96" height="15.67" transform="translate(18.04 498.34) rotate(-76.99)"/><rect class="cls-26" x="266.34" y="243.21" width="88.96" height="8.51" transform="translate(16.92 494.6) rotate(-76.99)"/><path class="cls-27" d="M311.81,294.35l-10.58,13.7a1.18,1.18,0,0,1-1.56.42,1.21,1.21,0,0,1-.52-.73l-3.63-17.13Z" transform="translate(17.18)"/><path d="M298.42,304.31l.73,3.33a1,1,0,0,0,1.35.83,1.25,1.25,0,0,0,.73-.52l2.07-2.6Z" transform="translate(17.18)"/><path class="cls-28" d="M328.11,195.52l-3-.62c-4.15-.94-7.89,2.28-8.41,4.36h0c-.52,2.07-.52,3.94,1.66,4.46l10.8,2.49c2.08.52,2.8-1.14,3.22-3.32h0C333,200.81,331.33,196.25,328.11,195.52Z" transform="translate(17.18)"/><path class="cls-29" d="M315.55,201.54l17.23,4a.76.76,0,0,1,.52.72l-1.45,6.44a.78.78,0,0,1-.73.52l-17.23-3.95a.77.77,0,0,1-.52-.72l1.46-6.44A.52.52,0,0,1,315.55,201.54Z" transform="translate(17.18)"/><path class="cls-5" d="M305.44,246.16a18.9,18.9,0,0,1,19.1-18.84c10.52.22,18.55,9.17,18.34,19.64a18.89,18.89,0,0,1-19.09,18.84C313.2,265.58,305.24,256.63,305.44,246.16Z" transform="translate(17.18)"/></g></g></svg>