<svg xmlns="http://www.w3.org/2000/svg" viewBox="0 0 243.94 275.56"><defs><style>.cls-1{fill:#1f8ebe;}</style></defs><title>flecha curva arriba</title><g id="Capa_2" data-name="Capa 2"><g id="Capa_1-2" data-name="Capa 1"><path class="cls-1" d="M243.58,82.58,196.68,1.36a2.71,2.71,0,0,0-4.7,0L145.09,82.58a2.71,2.71,0,0,0,2.35,4.07h18.72A2.69,2.69,0,0,1,168.83,89v98.47a37.07,37.07,0,0,1-37.06,37.07H2.71A2.71,2.71,0,0,0,0,227.27v45.58a2.71,2.71,0,0,0,2.71,2.71H131.77a88.07,88.07,0,0,0,88.06-88.07V89a2.71,2.71,0,0,1,2.68-2.36h18.72A2.71,2.71,0,0,0,243.58,82.58Z"/></g></g></svg>