<svg xmlns="http://www.w3.org/2000/svg" xmlns:xlink="http://www.w3.org/1999/xlink" viewBox="0 0 121.84 124.26"><defs><style>.e983d61c-1f3e-4597-bb1d-aa200440e249,.ef98ef1c-2784-42ef-8349-18805a311084,.f8ec9733-64b7-4668-8161-9bbf5ee22e6e{fill:none;}.af545251-c2f1-40e6-b134-904c8eb3a225{fill:#6599ff;}.ee3219d0-dd09-47b3-87e4-9485256566c8,.f9e5d011-6eaf-4864-8863-4b63393f3ef6{fill:#f0eb6b;}.a0e3d69d-ea86-4e71-9dd7-3f8d8ef53879,.a6d3ed94-984f-4732-af44-9b4e7fcd740a,.ae50ce57-d2a0-42a7-b009-6371cc29c809,.af64393d-ee01-4fda-8cc7-9ba9fce45a81,.b50c39f2-13e5-46bc-b3d0-049b3bf25a02,.e983d61c-1f3e-4597-bb1d-aa200440e249,.ed65d049-ab82-4640-b2a5-e366125c3396,.edf2bdd5-4d69-492a-816b-1a35df27c1bb,.ee3219d0-dd09-47b3-87e4-9485256566c8,.f8ec9733-64b7-4668-8161-9bbf5ee22e6e{stroke:#000;stroke-linejoin:round;}.a0e3d69d-ea86-4e71-9dd7-3f8d8ef53879,.a6d3ed94-984f-4732-af44-9b4e7fcd740a,.ae50ce57-d2a0-42a7-b009-6371cc29c809,.af64393d-ee01-4fda-8cc7-9ba9fce45a81,.b50c39f2-13e5-46bc-b3d0-049b3bf25a02,.e983d61c-1f3e-4597-bb1d-aa200440e249,.ed65d049-ab82-4640-b2a5-e366125c3396,.edf2bdd5-4d69-492a-816b-1a35df27c1bb,.ee3219d0-dd09-47b3-87e4-9485256566c8{stroke-linecap:round;}.a0e3d69d-ea86-4e71-9dd7-3f8d8ef53879,.a6d3ed94-984f-4732-af44-9b4e7fcd740a,.af64393d-ee01-4fda-8cc7-9ba9fce45a81,.b50c39f2-13e5-46bc-b3d0-049b3bf25a02,.edf2bdd5-4d69-492a-816b-1a35df27c1bb,.ee3219d0-dd09-47b3-87e4-9485256566c8{stroke-width:0.16px;}.f5c79d20-2ffc-4f7e-bc8f-cf4898a3a42c{fill:#a0dbf0;}.a89fe3cb-f88f-4a36-9618-12e0c6f964b5{fill:#4a91cd;}.a0e3d69d-ea86-4e71-9dd7-3f8d8ef53879,.b25c19f4-db40-4ffc-a7c0-d83e998d2433,.ed65d049-ab82-4640-b2a5-e366125c3396{fill:#fff;}.ae50ce57-d2a0-42a7-b009-6371cc29c809,.ed65d049-ab82-4640-b2a5-e366125c3396,.f8ec9733-64b7-4668-8161-9bbf5ee22e6e{stroke-width:0.33px;}.edf2bdd5-4d69-492a-816b-1a35df27c1bb{fill:#74baed;}.e983d61c-1f3e-4597-bb1d-aa200440e249{stroke-width:0.66px;}.ae50ce57-d2a0-42a7-b009-6371cc29c809{fill:#7b2325;}.edb82232-9a0a-4067-be74-4e6fd8ac02d2{clip-path:url(#f61a2b7b-ddd9-4e58-b36a-cc342267f293);}.a6d3ed94-984f-4732-af44-9b4e7fcd740a{fill:#f06b6b;}.b50c39f2-13e5-46bc-b3d0-049b3bf25a02{fill:#f6e003;}.af64393d-ee01-4fda-8cc7-9ba9fce45a81{fill:#abf680;}.fd1c431e-1fe3-4e5a-816b-ba57f6d423ac{fill:#f5ece3;}</style><clipPath id="f61a2b7b-ddd9-4e58-b36a-cc342267f293"><path class="ef98ef1c-2784-42ef-8349-18805a311084" d="M32.56,76.68c-.59,1,3.1,5.11,4.88,6.37s6.43,2.49,8.08,2.68c2.87.36,12.75-.9,14.66-1.36a105.3,105.3,0,0,0,11.4-4.43c1.37-.76,7.36-4.07,8.62-6.29,1.17-2,2.25-9.18.86-9.78-.47-.21-2.25,1.19-3,1.55-1.92.9-7.38,3.34-8.19,3.63-1.22.46-12.47,3.2-12.63,3.24s-9.41,2.77-11.89,3.26c-1.65.33-5.73.83-8.14,1C35.88,76.68,32.89,76.14,32.56,76.68Z"/></clipPath></defs><title>Correct feedback_SUKI</title><g id="bdd697f6-df3d-4f39-a2f3-31b5af07e599" data-name="Capa 2"><g id="acc92b35-c7f6-4a99-848b-4d02da4e2bef" data-name="Capa 1"><rect class="ef98ef1c-2784-42ef-8349-18805a311084" x="0.96" width="120" height="124.26"/><g id="ec060e96-9889-4970-9359-af122a57f35b" data-name="cola"><path class="af545251-c2f1-40e6-b134-904c8eb3a225" d="M48.36,124.17c.23-1.83.47-3.1.47-3.1s1,1.3,2.5,3.1Z"/><path d="M48.45,124.08h2.71c-1.15-1.37-2-2.44-2.28-2.82C48.8,121.67,48.63,122.72,48.45,124.08Z"/></g><g id="b7f91405-5216-4042-9bcb-330e0140e7c8" data-name="brazo izq"><path class="ee3219d0-dd09-47b3-87e4-9485256566c8" d="M79.65,97.37c1-.33,13.18-12.4,14-13.23.93-1,12.64-13,15.39-17.11a17.17,17.17,0,0,0,2.4-4.61c.59-2.11.63-6.32.29-6.52s-2.94,1.62-5,3.38a35,35,0,0,0-3,3.19c-2.21,2.35-14.7,16.61-14.8,16.76S74.8,92.26,74.6,93c0,.14-1.37,2.64.39,4.31C76.9,99.08,79.44,97.46,79.65,97.37Z"/></g><g id="b9dc5d58-a866-45d4-a1e9-2e32f6a192fe" data-name="cuerpo-2"><path class="f9e5d011-6eaf-4864-8863-4b63393f3ef6" d="M52.17,124.24c-1.18-7.1-3-16-3.09-16.7,0-.33-1.47-6.26-.4-8.62,1.47-3.3,6.37-5.73,9.66-7.2,4.94-2.26,12.69-5.25,17.8-3.44,3.29,1.18,6.61,7.21,7.79,8.68,2.2,2.84,9.8,12.1,12.25,18.67,1,2.6,1.94,5.58,2.74,8.61Z"/><path d="M96.25,115.6C94,109.67,87.56,101.45,84.8,97.93c-.32-.39-.59-.74-.81-1s-.6-.85-1-1.51c-1.56-2.34-4.17-6.26-6.78-7.19-3.91-1.39-9.75-.27-17.86,3.43-3.46,1.55-8.24,4-9.69,7.24-.91,2,0,6.41.28,8.07.06.31.1.55.1.6,0,.26.28,1.54.65,3.48.67,3.43,2.43,13.15,2.43,13.15s.26,0,.27-.1h-.12c-.75-4.52-1.75-9.67-2.41-13.08-.37-1.87-.63-3.21-.65-3.46,0-.06,0-.23-.11-.62-.32-1.65-1.18-6-.29-8,1.43-3.2,6.17-5.62,9.61-7.16,8-3.63,13.92-4.78,17.74-3.43,2.55.91,5.15,4.8,6.7,7.13.44.67.8,1.2,1,1.52l.81,1c2.76,3.5,9.23,11.72,11.43,17.62,1.05,2.81,2.75,8.58,2.75,8.58H99S97.32,118.45,96.25,115.6Z"/></g><g id="b7ad7447-568a-4af8-ad91-07a080295585" data-name="brazo der"><path class="f9e5d011-6eaf-4864-8863-4b63393f3ef6" d="M52.91,105.05c-.44.63-12.3,5.53-12.4,6.12s9.51,9.65,12.25,12.35c.19.18.45.46.73.72H42.08c-4.43-3.8-9.33-8.74-9.06-11.79.39-4.65,15.87-13.13,16.66-13.23"/><path d="M42.2,124.24c-4.23-3.63-9.37-8.73-9.1-11.78.2-2.42,4.54-5.83,8.15-8.26a58,58,0,0,1,8.44-4.9.08.08,0,0,0,.07-.09s0-.08-.09-.07c-.88.11-16.34,8.64-16.73,13.3-.28,3.13,4.74,8.14,9,11.8Z"/><path d="M53.66,124.24l-.84-.78c-.65-.64-1.68-1.62-2.88-2.76-3.52-3.36-9.43-9-9.35-9.51.13-.31,3.68-1.92,6.53-3.22,3.51-1.59,5.65-2.58,5.86-2.88a.09.09,0,0,0,0-.11.08.08,0,0,0-.12,0,51.19,51.19,0,0,1-5.79,2.82c-4.46,2-6.57,3-6.62,3.33-.11.56,4.19,4.71,9.4,9.67l2.88,2.75c.14.16.49.47.71.67Z"/></g><path class="f5c79d20-2ffc-4f7e-bc8f-cf4898a3a42c" d="M116.4,81.84s-2.71,7.71,5.26,10c0,0-9.69-3.69-12.24,1.73,0,0,.74-9.61-.82-10.35C108.6,83.24,115.09,83.41,116.4,81.84Z"/><path class="a89fe3cb-f88f-4a36-9618-12e0c6f964b5" d="M116.4,81.84l.16,0,0,.06a9.9,9.9,0,0,0-.41,2.81,7.09,7.09,0,0,0,1,3.86,7.62,7.62,0,0,0,4.53,3.07l0,.16-.06.16-.15-.05a20.56,20.56,0,0,0-6.23-1.17,8.29,8.29,0,0,0-3.3.6,4.51,4.51,0,0,0-2.33,2.26.17.17,0,0,1-.33-.09s0-.56.09-1.43.08-2,.08-3.25a27.35,27.35,0,0,0-.19-3.62,5.76,5.76,0,0,0-.3-1.29,1,1,0,0,0-.41-.59.17.17,0,0,1-.09-.19.17.17,0,0,1,.17-.13h.52a32.15,32.15,0,0,0,3.8-.22,13.05,13.05,0,0,0,2-.41,2.91,2.91,0,0,0,1.3-.71.16.16,0,0,1,.21,0,.16.16,0,0,1,.07.2l-.15-.06.12.11a3.14,3.14,0,0,1-1.45.82,24.68,24.68,0,0,1-6,.66h-.53v-.17l.08-.15a1.27,1.27,0,0,1,.57.77,8.8,8.8,0,0,1,.41,2.2c.08.88.11,1.87.11,2.83,0,2.43-.18,4.7-.18,4.7h-.17l-.15-.06a4.84,4.84,0,0,1,2.5-2.42,8.67,8.67,0,0,1,3.45-.64,20.59,20.59,0,0,1,6.5,1.25.16.16,0,0,1,.11.21.19.19,0,0,1-.22.12h0a8,8,0,0,1-4.72-3.22,7.36,7.36,0,0,1-1.1-4,9.93,9.93,0,0,1,.45-3l.16,0,.13.11Z"/><path class="f5c79d20-2ffc-4f7e-bc8f-cf4898a3a42c" d="M35.21,104.06s-6.12,4.7-6.27,6.55c0,0-5.55-8.11-8-8.54,0,0,6.26-1.13,7-3.55C28,98.52,28.8,102.64,35.21,104.06Z"/><path class="a89fe3cb-f88f-4a36-9618-12e0c6f964b5" d="M35.21,104.06l.1.14-.27.2c-.58.46-2,1.65-3.37,2.9a19.56,19.56,0,0,0-1.77,1.87,3.28,3.28,0,0,0-.79,1.45.16.16,0,0,1-.12.15.16.16,0,0,1-.18-.07l-.25-.34c-.54-.78-1.94-2.73-3.46-4.53a26.13,26.13,0,0,0-2.29-2.42A4.49,4.49,0,0,0,21,102.24a.18.18,0,0,1-.14-.17.16.16,0,0,1,.14-.16l.26-.06a20.93,20.93,0,0,0,3.55-1,9.27,9.27,0,0,0,1.94-1,2.72,2.72,0,0,0,1.08-1.31.17.17,0,0,1,.16-.17.18.18,0,0,1,.17.17h0a5.64,5.64,0,0,0,1.28,2.27,10.48,10.48,0,0,0,5.84,3.14.15.15,0,0,1,.13.13.18.18,0,0,1-.06.17l-.1-.14,0,.17A10.68,10.68,0,0,1,29,100.84a5.83,5.83,0,0,1-1.26-2.3l.16,0,.16,0a3.31,3.31,0,0,1-1.46,1.67A14,14,0,0,1,23,101.73c-1.15.33-2,.49-2,.49l0-.16,0-.17a3.1,3.1,0,0,1,1.1.52,25.34,25.34,0,0,1,4.51,4.75c1.41,1.78,2.49,3.35,2.5,3.35l-.14.1h-.17a2,2,0,0,1,.33-.88A19.25,19.25,0,0,1,32.59,106c1.34-1.17,2.51-2.07,2.51-2.08l.1.14,0,.16Z"/><g id="e698d6eb-9a82-4e25-bb97-b0d1fd48ed4c" data-name="patita"><g id="e8e5a80b-738c-49b4-a468-4a89aacc4f26" data-name="cabeza"><g id="b954c177-061e-4b5e-8797-18218b692b52" data-name="cabeza-2"><path class="ee3219d0-dd09-47b3-87e4-9485256566c8" d="M17.56,72.61A40,40,0,0,0,68.79,96.47c19.94-7.28,30.54-29,23.4-49A40.53,40.53,0,0,0,39.45,23.43,38.24,38.24,0,0,0,17.56,72.61Z"/></g><g id="f7904b78-652f-4693-aaf8-bd6b9c5fa2d2" data-name="ojos"><g id="e5a6c279-d1ee-4697-8b21-f75ce0ae34e7" data-name="ojos-2"><path class="b25c19f4-db40-4ffc-a7c0-d83e998d2433" d="M35.49,74.17c2.71.75,5.87-3,8.49-4.12,3.51-1.46,7.93-2.9,9.79-6.22a7.2,7.2,0,0,0-.16-7.13c-1-1.76-2.1-3.18-4.11-3.68-3.57-.9-8.74,1.16-11.75,3.22s-6.33,5.93-6.92,9.39a7.43,7.43,0,0,0,.7,3.42C32.27,70.86,33.58,73.72,35.49,74.17Z"/><path d="M32,68.89a6.37,6.37,0,0,1-.6-3.11l-1.1-.2A7.24,7.24,0,0,0,31,69.3Z"/><path d="M31.37,65.73c.55-3.26,3.76-7.18,6.63-9.14l-.5-.71c-2.92,2-6.6,6-7.25,9.65Z"/><path class="f8ec9733-64b7-4668-8161-9bbf5ee22e6e" d="M31.37,65.73l-1.11-.2"/><path d="M38,56.59c3-2,8-4.22,11.45-3.32l.1-.45c-3.63-.9-9,1-12,3.06Z"/><path class="f8ec9733-64b7-4668-8161-9bbf5ee22e6e" d="M38,56.59l-.5-.71"/><path d="M43.87,70c-2.66,1.11-5.82,4.72-8.33,4l-.15.61c3,.75,6.08-3.22,8.64-4.29Z"/><path class="f8ec9733-64b7-4668-8161-9bbf5ee22e6e" d="M43.92,70l.11.3"/><path d="M35.54,73.93c-1.71-.45-2.77-3.32-3.57-5.08l-.95.4c.8,1.81,2.36,4.67,4.37,5.27Z"/><path class="f8ec9733-64b7-4668-8161-9bbf5ee22e6e" d="M35.54,73.93l-.15.6"/><path class="b25c19f4-db40-4ffc-a7c0-d83e998d2433" d="M90.39,55.47c-2,2.16-6.88,0-9.75.55s-6.55,1.22-9.17.26c-2.21-.8-3.64-4.39-4-5.7s-.9-2.7,0-4.3c1.91-3.47,8-5.38,11.9-5.53,2.92-.15,7.23,1,9.29,3.12,1,1,1.51,3,1.76,4.37C90.89,50.36,91.8,53.88,90.39,55.47Z"/><path d="M90.94,48.15c-.25-1.41-.75-3.52-1.86-4.67l-.8.75a8.66,8.66,0,0,1,1.65,4.12Z"/><path d="M89.13,43.43c-2.26-2.21-6.73-3.27-9.74-3.17l0,.86c2.86-.1,6.92,1.1,8.9,3.11Z"/><path class="f8ec9733-64b7-4668-8161-9bbf5ee22e6e" d="M89.13,43.48l-.79.75"/><path d="M79.44,40.36c-4,.15-10.15,2.31-12.11,5.83l.4.2c1.81-3.36,7.84-5.07,11.71-5.22Z"/><path class="f8ec9733-64b7-4668-8161-9bbf5ee22e6e" d="M79.39,40.31l0,.85"/><path d="M80.59,56.24c2.82-.56,7.74,1.75,10-.5l-.45-.46c-1.76,2.06-6.63,0-9.55.6Z"/><path class="f8ec9733-64b7-4668-8161-9bbf5ee22e6e" d="M80.59,56.19l0-.31"/><path d="M90.49,55.63c1.56-1.75.85-5.42.45-7.53l-1,.2c.45,2.16,1.51,5.52.15,6.92Z"/><path class="f8ec9733-64b7-4668-8161-9bbf5ee22e6e" d="M90.54,55.68l-.45-.45"/><path d="M31.37,68.59c-.15,0-1,.86-1.76.71l-.1.55a5.59,5.59,0,0,0,2.11-.25Z"/><path d="M29.61,69.31a4,4,0,0,1-1.76-1.15l-.2.25a3.3,3.3,0,0,0,1.86,1.46Z"/><path class="f8ec9733-64b7-4668-8161-9bbf5ee22e6e" d="M29.61,69.31l-.1.56"/><path d="M30.86,65.08a2.14,2.14,0,0,1-1.8.25l-.2.55a7.16,7.16,0,0,0,2,.3Z"/><path class="f8ec9733-64b7-4668-8161-9bbf5ee22e6e" d="M30.86,65.08l0,1.1"/><path d="M29.06,65.33a4.57,4.57,0,0,1-2.36-1.71l-.15.2a3.76,3.76,0,0,0,2.3,2.06Z"/><path class="f8ec9733-64b7-4668-8161-9bbf5ee22e6e" d="M29.06,65.33l-.2.55"/><path d="M32,68.89a6.37,6.37,0,0,1-.6-3.11l-1.1-.2A7.24,7.24,0,0,0,31,69.3Z"/><path class="f8ec9733-64b7-4668-8161-9bbf5ee22e6e" d="M32,68.89l-.95.42"/><path d="M90.94,48.5a21,21,0,0,0,1-2.26l-.55-.2A6.94,6.94,0,0,1,90,48Z"/><path d="M92,46.24A6.87,6.87,0,0,0,92.2,44L92,44A18.39,18.39,0,0,1,91.44,46Z"/><path class="f8ec9733-64b7-4668-8161-9bbf5ee22e6e" d="M92,46.24l-.55-.2"/><path d="M88.93,44.33a6.14,6.14,0,0,0,1.41-.95L89.88,43c-.25.4-1.25.3-1.4.35Z"/><path class="f8ec9733-64b7-4668-8161-9bbf5ee22e6e" d="M88.93,44.38l-.45-1"/><path d="M90.39,43.38c.85-1.11.4-3.37.4-3.32L90.54,40c0,.05.1,2.16-.66,3Z"/><path class="f8ec9733-64b7-4668-8161-9bbf5ee22e6e" d="M90.34,43.38,89.88,43"/><path d="M90.94,48.15c-.25-1.41-.75-3.52-1.86-4.67l-.8.75a8.66,8.66,0,0,1,1.65,4.12Z"/><path class="f8ec9733-64b7-4668-8161-9bbf5ee22e6e" d="M90.94,48.15l-1,.2"/></g><g id="a63a3a61-03c4-4071-9446-051c9fb172e1" data-name="pupilas 2"><path class="edf2bdd5-4d69-492a-816b-1a35df27c1bb" d="M46.94,62.89a3.69,3.69,0,0,0,4.53,2.46,3.61,3.61,0,0,0,2.2-4.61,3.68,3.68,0,0,0-4.52-2.47,3.59,3.59,0,0,0-2.23,4.55Z"/><path class="edf2bdd5-4d69-492a-816b-1a35df27c1bb" d="M81.61,51.92A3.49,3.49,0,1,0,84,47.57l-.08,0a3.44,3.44,0,0,0-2.26,4.31Z"/></g></g><g id="f84c6e3b-a6e8-49ad-b0d9-5d119cb041bc" data-name="cejas"><path class="e983d61c-1f3e-4597-bb1d-aa200440e249" d="M45.93,31.57s-4.87-1.35-12.1,2.16c-7.89,3.82-9.95,9-9.95,9"/><path class="e983d61c-1f3e-4597-bb1d-aa200440e249" d="M61.41,26.1s1.32-2,6.68-2.86"/></g><g id="ace75cd1-96cd-4e99-8fb2-a6eae8f9d928" data-name="boca"><g id="bc426601-0891-4eb8-b128-68079d72ee91" data-name="boca-2"><path class="ae50ce57-d2a0-42a7-b009-6371cc29c809" d="M32.56,76.68c-.59,1,3.1,5.11,4.88,6.37s6.43,2.49,8.08,2.68c2.87.36,12.75-.9,14.66-1.36a105.3,105.3,0,0,0,11.4-4.43c1.37-.76,7.36-4.07,8.62-6.29,1.17-2,2.25-9.18.86-9.78-.47-.21-2.25,1.19-3,1.55-1.92.9-7.38,3.34-8.19,3.63-1.22.46-12.47,3.2-12.63,3.24s-9.41,2.77-11.89,3.26c-1.65.33-5.73.83-8.14,1C35.88,76.68,32.89,76.14,32.56,76.68Z"/></g><g id="ff05f599-4496-4eea-9f0d-50c35d76b912" data-name="lengua"><g class="edb82232-9a0a-4067-be74-4e6fd8ac02d2"><path class="a6d3ed94-984f-4732-af44-9b4e7fcd740a" d="M46.05,88.64a19,19,0,0,0,11-.08c1.55-.57,4.26-1.63,4.38-3.26.08-1.16-1.57-2.4-2.6-3-2-1.09-5.34-1-7.62-.81a15.72,15.72,0,0,0-6,1.35c-1.14.62-3.33,1.71-3.24,3S44.66,88.22,46.05,88.64Z"/></g></g><g id="f1d8e50d-eb9c-41ed-9226-23c94735d5b1" data-name="dientes"><g class="edb82232-9a0a-4067-be74-4e6fd8ac02d2"><path class="a0e3d69d-ea86-4e71-9dd7-3f8d8ef53879" d="M18.51,66.75c3.52-10,19-16.92,29-20.43s25.79-7.15,35.11-2.18c4.49,2.44,9.62,14,9.62,14S71.87,70.63,58.21,75s-35.84,7.34-37.15,6.2C20.54,80.8,17,70.93,18.51,66.75Z"/></g><g class="edb82232-9a0a-4067-be74-4e6fd8ac02d2"><path class="ed65d049-ab82-4640-b2a5-e366125c3396" d="M102.81,92.89c-3.52,10-18.92,16.92-29,20.44S47.69,121,38.7,115.51C30.9,110.75,26,88,26,88s23.59,1.89,37.09-1.6c14-3.63,32.73-18,34.28-17.12C98.39,69.8,105.21,86,102.81,92.89Z"/></g></g></g><g id="a1567c57-d595-4e96-8771-82e9327de4c9" data-name="El pico"><path class="b50c39f2-13e5-46bc-b3d0-049b3bf25a02" d="M74.72,63.71c3,0,10-1.36,10-1.36A83.07,83.07,0,0,0,92.34,68c2.26,1.45,4.29,2.51,4.58,2.71s4.26,1.15,4.57,2.91c1.4,7.79-17.28,9.89-21.4,11.71-4.37,1.91-16.78,11.86-24.56,8.54-1.81-.76-3.32-4.52-3.52-5s-1-3.26-1.91-6.59c-1.1-3.71-2.21-7.38-2.21-7.38s7.53-3.52,10.25-5.73c2.26-1.85,3.11-6.18,6.38-7.33C68,60.66,71.55,63.62,74.72,63.71Z"/><path d="M64.72,64.17a5,5,0,0,1,.4,1.56H66A3.74,3.74,0,0,0,65.22,64Z"/><path d="M65.17,65.78a12.57,12.57,0,0,1-.5,1.91l.35.15a5.34,5.34,0,0,0,1-2.06Z"/><path class="f8ec9733-64b7-4668-8161-9bbf5ee22e6e" d="M65.12,65.78H66"/><path d="M67.13,63.57A7,7,0,0,0,68.34,65l.4-.56a11.53,11.53,0,0,1-1.32-1.2Z"/><path class="f8ec9733-64b7-4668-8161-9bbf5ee22e6e" d="M67.13,63.57l.3-.3"/><path d="M68.39,65.08a7.82,7.82,0,0,0,2.16.66l.1-.3a13.65,13.65,0,0,1-1.91-1Z"/><path class="f8ec9733-64b7-4668-8161-9bbf5ee22e6e" d="M68.34,65l.4-.56"/></g></g><g id="b6e27165-353d-4a1f-8955-5bee4c52e220" data-name="mechon"><path class="ee3219d0-dd09-47b3-87e4-9485256566c8" d="M39,20.25c-.06-3.43-2.31-7.81-5-10.34-3.65-3.4-10.69-5.1-14.56-5.39A22,22,0,0,0,9.66,6.17C5.1,7.9,0,12.39.08,12.42a16.87,16.87,0,0,1,8.1,1,10.59,10.59,0,0,1,4,3.44A13.38,13.38,0,0,0,8.83,22a19.54,19.54,0,0,0-.35,10.64s2.1-3.71,4.45-4.64c2.18-.84,5.17.24,6,.37s4.49,1.95,6.46,2.14c2.78.28,7.29.57,9.66-1.15S39.05,23.23,39,20.25Z"/></g><g id="b606b35a-e12b-4e00-80ef-7a9160ce51c2" data-name="cole"><path class="af64393d-ee01-4fda-8cc7-9ba9fce45a81" d="M43,22a9.6,9.6,0,0,0-1.38-3.33,7.33,7.33,0,0,0-1.88-1.87c-1.28-.29-7.67,4.64-8.74,5.45s-8.7,6.34-8.65,7.86c0,.41,1.27,1.84,2,2.64a8.93,8.93,0,0,0,2.49,1.91c1.29.18,7.69-4.46,8.71-5.29S42.81,23.29,43,22Z"/></g></g><path class="fd1c431e-1fe3-4e5a-816b-ba57f6d423ac" d="M61,98.53c5,9.86,9.38,20.31,7.58,25.71H98.85c-2.37-7.55-2.37-11.4-13.67-25.57-2-2.28-3.62-5.43-5.87-7.87A39.32,39.32,0,0,1,61,98.53Z"/><path d="M68.72,124.24h-.24c2.76-6.19-7.45-25.46-7.55-25.66l.19-.1C61.54,99.27,71.52,118,68.72,124.24Z"/></g></g></svg>