<svg xmlns="http://www.w3.org/2000/svg" xmlns:xlink="http://www.w3.org/1999/xlink" viewBox="0 0 364.28 371.66"><defs><style>.cls-1{fill:none;}.cls-2{fill:#e89f51;}.cls-3{fill:#ce7f38;}.cls-4{fill:#cc7735;}.cls-5{fill:#b55f24;}.cls-6{fill:#ffd3a4;}.cls-7{fill:#efba89;}.cls-8{clip-path:url(#clip-path);}.cls-9{fill:#f0efef;}.cls-10{fill:#1f70c9;}.cls-11{fill:#ccaa53;}.cls-12{fill:#c0cbdd;}.cls-13{fill:#195fba;}.cls-14{fill:#fff;}.cls-15{fill:#212120;}.cls-16{clip-path:url(#clip-path-2);}.cls-17{fill:#a0dbf0;}.cls-18{fill:#4a91cd;}.cls-19{fill:#eba548;}.cls-20{fill:#b71a53;}.cls-21{fill:#eaa66e;}.cls-22{fill:#212121;}.cls-23{fill:#e7a142;}.cls-24{fill:#e7aa78;}.cls-25{fill:#d89564;}.cls-26{fill:#e7cdba;}.cls-27{fill:#a6153c;}.cls-28{fill:#e09e6b;}.cls-29{fill:#d28b59;}.cls-30{fill:#1d1915;}.cls-31{fill:#d7911b;}.cls-32{fill:#ba6628;}</style><clipPath id="clip-path"><path class="cls-1" d="M81.23,183s5.14,5.76,35.29,8.49c27.11,2.45,28.78-11.44,27.4-15.75-4.08-12.8-12.58-25.09-28.3-26.51s-21.63,9.11-26.47,14c-5.7,5.71-7.92,19.81-7.92,19.81"/></clipPath><clipPath id="clip-path-2"><path class="cls-1" d="M254.07,194.18s-4.38,5.51-37.78,2.78c-30-2.46-31.77-17.22-29.57-21.23,6.54-11.89,17.83-22.48,35.25-21.06s22.16,12.88,26.66,18.54c5.3,6.66,5.44,21,5.44,21"/></clipPath></defs><title>Correct feedback_PUMA niño</title><g id="Layer_2" data-name="Layer 2"><g id="Layer_4" data-name="Layer 4"><path class="cls-2" d="M219.81,369.78s-.44.73-1.23,1.88H190.39c-2.72-17.52,23.84-17.52,23.84-17.52s10.58-9.24,24.93-23a2,2,0,0,0,.17-2.71c-15.84-19.87-27.48-28.53-27.48-28.53L217.73,277l43.92,49.88a5.88,5.88,0,0,1-.32,8.11Z"/><path class="cls-3" d="M261.78,335.5l-41.45,34.73c-.13.19-.45.7-.94,1.43h-1.63l.55-.79c.3-.45.53-.81.69-1.06l.24-.38.06-.09,41.57-34.83a5.21,5.21,0,0,0,.28-7.18l-43.09-48.92-5.45,21.2c2.07,1.61,12.95,10.44,27.25,28.38a2.71,2.71,0,0,1,.59,1.68,2.67,2.67,0,0,1-.82,1.92c-14.37,13.81-25,23.05-25,23.06l-.19.16H214A43.82,43.82,0,0,0,201.31,357a19.11,19.11,0,0,0-7.3,4.35,10.83,10.83,0,0,0-3.15,7.84,15.18,15.18,0,0,0,.21,2.44h-1.35a16.15,16.15,0,0,1-.2-2.44,12.19,12.19,0,0,1,4-9.2c3.55-3.33,8.72-4.93,13-5.74a48.41,48.41,0,0,1,7.47-.81c.27-.23.84-.73,1.69-1.49,3.64-3.24,12.28-11,23-21.36a1.29,1.29,0,0,0,.4-.95,1.35,1.35,0,0,0-.29-.85,214,214,0,0,0-19.62-21.65c-2.43-2.31-4.37-4-5.7-5.12-.67-.56-1.18-1-1.52-1.24l-.39-.3-.13-.1-.36-.27,6.31-24.52,44.76,50.83a6.54,6.54,0,0,1-.37,9Z"/><path class="cls-2" d="M105.82,105.15S94.66,60.23,64,50.46,11.52,58.83,3.15,81.15,11.8,133.33,43,137l62.78-31.81"/><path class="cls-3" d="M106.47,105A116.27,116.27,0,0,0,97,81.15c-6.66-12.52-17.2-26.34-32.82-31.33a55.3,55.3,0,0,0-16.73-2.73A44,44,0,0,0,19.17,57.16,55.92,55.92,0,0,0,2.52,80.92,34.53,34.53,0,0,0,.35,93.12c0,20.17,16.38,41.45,42.62,44.5a.67.67,0,1,0,.15-1.33c-25.56-3-41.43-23.71-41.43-43.17A33.41,33.41,0,0,1,3.77,81.39,54.61,54.61,0,0,1,20,58.2a42.73,42.73,0,0,1,27.42-9.77A53.81,53.81,0,0,1,63.77,51.1c15.07,4.79,25.46,18.3,32,30.68A118.62,118.62,0,0,1,103,98.2c.76,2.17,1.31,4,1.68,5.19.18.62.31,1.1.4,1.43s.13.49.13.49a.67.67,0,0,0,1.3-.32"/><path class="cls-2" d="M45.28,92.32s27.2,7.74,32,34.73l-32-34.73"/><path class="cls-3" d="M45.09,93l.29.09a51.94,51.94,0,0,1,15.08,8.08,41.58,41.58,0,0,1,16.17,26,.67.67,0,1,0,1.32-.24C75.51,113.22,67.36,104.39,59.87,99a52,52,0,0,0-14.41-7.35A.67.67,0,0,0,45.09,93h0"/><path class="cls-4" d="M92.65,111.82l-16.47,8.35A43.65,43.65,0,0,1,78,126.93a.67.67,0,0,1-.54.78h-.12a.67.67,0,0,1-.66-.55c-.06-.36-.13-.71-.2-1L72.61,122l-29,14.68a.72.72,0,0,1,.07.38.68.68,0,0,1-.67.6H43c-1.57-.18-3.09-.43-4.58-.73v.19a49.86,49.86,0,0,0,5.21.61c1.41.1,2.83.14,4.25.14a66.66,66.66,0,0,0,28.93-6.62c10.4-5,18.21-14.86,18.21-14.86a37,37,0,0,0-2.33-4.53"/><path class="cls-4" d="M36.26,81.9c-1.76,0-3.57,0-5.42.16A35.7,35.7,0,0,0,2.22,99.34c2.95,17.45,18.06,34.3,40.9,36.95a.69.69,0,0,1,.52.36l29-14.68L46.2,93.32l-.82-.27L45.09,93h0a.67.67,0,0,1,.19-1.32.57.57,0,0,1,.18,0A52,52,0,0,1,59.87,99a44.18,44.18,0,0,1,16.31,21.15l16.47-8.35C87.11,102.47,71,81.9,36.26,81.9"/><path class="cls-5" d="M2.22,99.34c-.46.78-.68,1.24-.68,1.24a17.52,17.52,0,0,0,.54,4A44.7,44.7,0,0,0,8,116.91c.16.22.33.45.51.67a61,61,0,0,0,10.23,10.54,49.14,49.14,0,0,0,18.31,8.47c.44.11.89.2,1.34.3,1.49.3,3,.55,4.58.73H43a.68.68,0,0,0,.67-.6.72.72,0,0,0-.07-.38.69.69,0,0,0-.52-.36c-22.84-2.65-37.95-19.5-40.9-36.95"/><path class="cls-4" d="M46.2,93.32,72.61,122l3.82,4.15a41.69,41.69,0,0,0-16-25A53.11,53.11,0,0,0,46.2,93.32"/><path class="cls-5" d="M45.28,91.64A.67.67,0,0,0,45.09,93h0l.29.09.82.27a53.11,53.11,0,0,1,14.26,7.81,41.69,41.69,0,0,1,16,25c.07.34.14.69.2,1a.67.67,0,0,0,.66.55h.12a.67.67,0,0,0,.54-.78,43.65,43.65,0,0,0-1.77-6.76A44.18,44.18,0,0,0,59.87,99a52,52,0,0,0-14.41-7.35.57.57,0,0,0-.18,0"/><path class="cls-2" d="M221.24,371.4c.73-9.17.21-17.2-.7-30.24-1.52-21.59.55-23-.38-38.89-.9-15.33,1.52-37.44-15.48-52.11s-32.32-7.2-42.63.31c-5.37,3.91-13.05,15.88-22,38.81-4,10.19-10.29,29.27-13.75,36.93-4.87,15.77-9.45,31.26-10.91,45.19Z"/><path class="cls-3" d="M116.1,371.4c1.47-13.81,6-29.23,10.86-44.95,1.75-3.88,4.18-10.54,6.68-17.52s5.09-14.32,7.07-19.39A190.31,190.31,0,0,1,153,263.09c3.67-6.3,6.91-10.21,9.46-12.06,5.94-4.33,13.5-8.59,22-8.58,6.11,0,12.75,2.18,19.78,8.24,8.35,7.21,11.92,16.21,13.55,25.4s1.24,18.51,1.69,26.22c.18,3.13.25,5.68.25,7.95,0,5.88-.45,9.81-.45,16.48,0,3.71.14,8.26.57,14.47.62,8.76,1,15.24,1,21.3,0,3-.11,5.88-.35,8.89h1.4c.24-3,.34-5.9.34-8.89,0-6.13-.44-12.64-1.05-21.39l-.69,0,.69,0c-.43-6.19-.57-10.71-.57-14.38,0-6.6.45-10.51.45-16.48,0-2.29-.07-4.88-.25-8-.45-7.61-.07-17-1.72-26.38s-5.35-18.75-14-26.21c-7.22-6.24-14.24-8.59-20.69-8.58-9,0-16.77,4.45-22.81,8.85-2.82,2.06-6.1,6.09-9.84,12.48A192.2,192.2,0,0,0,139.41,289c-2,5.11-4.57,12.43-7.07,19.43s-5,13.68-6.67,17.46v0l0,0c-4.88,15.81-9.47,31.35-10.93,45.4Z"/><path class="cls-6" d="M220.55,371.4A248.53,248.53,0,0,0,218,339.75c-2-14.47,2.12-60.12-6.5-69.36-9.26-9.93-33.85-10.26-37.2-8-22.79,15.62-9.6,57.47-19,74.57-2.64,4.78-9.41,20.27-14,34.41Z"/><path class="cls-7" d="M142,371.4c1.86-5.75,4.08-11.72,6.24-17.09,3.1-7.73,6.08-14.23,7.59-17,2.44-4.45,3.38-10.35,3.83-17,.66-9.91.21-21.44,1.72-31.9a50.25,50.25,0,0,1,4.07-14.53A27.14,27.14,0,0,1,174.67,263a7.35,7.35,0,0,1,2.66-.74,36.08,36.08,0,0,1,5.09-.31,61.68,61.68,0,0,1,15.32,2c5.27,1.41,10.19,3.67,13.24,6.94,2,2.08,3.35,6.58,4.19,12.33,1.28,8.64,1.44,20.07,1.47,30.7s-.1,20.43.65,25.95a247.65,247.65,0,0,1,2.57,31.56h1.39a249.14,249.14,0,0,0-2.58-31.74,137.33,137.33,0,0,1-.63-15.55c0-9.68.11-21.39-.54-31.57a94.48,94.48,0,0,0-1.71-13.71c-.86-3.9-2-7-3.8-8.91-3.34-3.58-8.48-5.89-13.89-7.34a62.94,62.94,0,0,0-15.68-2,37.87,37.87,0,0,0-5.29.32,8.25,8.25,0,0,0-3.25,1c-5.84,4-9.38,9.71-11.52,16.19-3.22,9.73-3.38,21.26-3.65,31.94s-.64,20.52-4.05,26.68a232.39,232.39,0,0,0-10.79,25.23c-1.16,3.15-2.27,6.36-3.28,9.51Z"/><path class="cls-2" d="M189.29,282.07c74.85-3.65,124.29-32.19,134.51-64.55s12.26-92-24.38-127.9C271,61.78,219.94,48.75,191,48.75S105,58.5,72.42,90.69,41,186.87,49.05,208.33c10.22,27.25,70.41,77.15,140.24,73.74"/><path class="cls-3" d="M188.67,281.89l0,.7c37.5-1.83,68.67-9.89,91.77-21.58s38.17-27,43.37-43.45a152.73,152.73,0,0,0,6.47-44.72c0-28.82-7.75-61.06-31-83.89C285,74.92,265,64.67,245,57.91s-40.08-10-54.65-10-36.1,2.44-58.12,8.92S87.72,73.8,71.31,90C49.86,111.24,43,145.9,43,173.44c0,14.7,2,27.36,4.8,34.95,2.53,6.73,8,14.69,15.76,22.91,23.37,24.61,67.89,51.44,118.32,51.45q3.41,0,6.85-.16l0-.7,0-.69q-3.4.17-6.78.17c-33.28,0-64-11.84-87.72-27a159.55,159.55,0,0,1-29.59-24.06c-7.7-8.12-13.05-16-15.46-22.44-2.76-7.33-4.73-19.9-4.72-34.46,0-27.32,6.9-61.68,27.93-82.44,16.16-16,38.47-26.43,60.35-32.86s43.33-8.88,57.73-8.87,34.33,3.24,54.2,10,39.66,16.9,53.74,30.71c22.91,22.46,30.61,54.31,30.61,82.9a151.15,151.15,0,0,1-6.41,44.3c-5,15.92-19.78,31-42.67,42.62S226,279.38,188.63,281.2l0,.69"/><g class="cls-8"><path class="cls-9" d="M81.23,183s3.57,6.45,33.72,9.19c27.11,2.45,30.35-12.14,29-16.45-4.08-12.8-12.58-25.09-28.3-26.51s-21.63,9.11-26.47,14c-5.7,5.71-7.92,19.81-7.92,19.81"/><path class="cls-10" d="M134.71,177c-.67,9-7.76,15.64-15.85,14.9s-14.11-8.59-13.45-17.55,7.76-15.63,15.85-14.9S135.37,168,134.71,177"/><path class="cls-11" d="M144.15,178.47a12.52,12.52,0,0,1-3.14,7.07l.18.28a11.41,11.41,0,0,0,2.88-5.67,13.3,13.3,0,0,0,.08-1.68"/><path class="cls-12" d="M110.82,150.63A25,25,0,0,0,98.05,154c-3.91,3-6.53,6.77-8.9,9.14-2.58,2.58-4.44,6.88-5.71,10.82-.4,2-1.22,4.53-1.73,6.5-.22,1-.36,1.77-.43,2.17,0,.14,0,.26,0,.37a4.06,4.06,0,0,0,.51.42c.87-.55,3.13-3.45,7.27-6.34A35.44,35.44,0,0,1,106,170.89c1.86-6.74,7.53-11.5,14-11.51.4,0,.81,0,1.22.06,8.09.73,14.11,8.59,13.45,17.55,0,.55-.11,1.09-.2,1.62a32.73,32.73,0,0,1,6.5,6.93,12.52,12.52,0,0,0,3.14-7.07A8.4,8.4,0,0,0,144,177a50.72,50.72,0,0,0-1.63-5.49A40.2,40.2,0,0,0,132,156.12c-4.06-2.32-12.71-4.75-20.83-5.48h-.32"/><path class="cls-13" d="M120,159.38c-6.51,0-12.18,4.77-14,11.51,1.4-.14,2.86-.22,4.4-.22,1.38,0,2.82.07,4.32.2a36.3,36.3,0,0,1,19.79,7.74c.09-.53.16-1.07.2-1.62.66-9-5.36-16.82-13.45-17.55-.41,0-.82-.06-1.22-.06"/><path class="cls-14" d="M128.87,169A2.79,2.79,0,0,1,126,171.7a2.9,2.9,0,0,1-2.46-3.21,2.79,2.79,0,0,1,2.9-2.73A2.89,2.89,0,0,1,128.87,169Z"/></g><path class="cls-15" d="M144,177c-5.35-20.09-20.78-24.79-29-25.53-26.77-3-33.57,32.1-33.57,32.1-2.78-.62-2.71-9.56-2.71-9.56,2.68-12.48,14.26-30.55,36.55-28.53,18.43,1.67,26.06,20.79,28.15,27.34A12.27,12.27,0,0,1,144,177Z"/><g class="cls-16"><path class="cls-9" d="M254.07,194.18s-3.86,10.73-37.26,8c-30-2.46-32.29-22.44-30.09-26.45,6.54-11.89,17.83-22.48,35.25-21.06s22.16,12.88,26.66,18.54c5.3,6.66,5.44,21,5.44,21"/><path class="cls-10" d="M201.05,179.61a16.32,16.32,0,1,0,17.6-14.94,16.32,16.32,0,0,0-17.6,14.94"/><path class="cls-11" d="M186.17,177.76c0,.11-.06.23-.09.37a9.81,9.81,0,0,0,.06,1.93,12.38,12.38,0,0,1,0-2.3"/><path class="cls-12" d="M219.78,156.61c-6.77,0-13.2.77-16.81,1.94a40.15,40.15,0,0,0-13.87,13.26,47.18,47.18,0,0,0-2.67,5.13,4.82,4.82,0,0,0-.26.82,12.38,12.38,0,0,0,0,2.3,12.51,12.51,0,0,0,2.37,5.71,35.91,35.91,0,0,1,12.7-7.45,16.31,16.31,0,0,1,16.09-13.7c.45,0,.9,0,1.35,0a16.34,16.34,0,0,1,14.91,14.59c13.71,5.14,18.62,14.62,19.95,15.37a4.12,4.12,0,0,0,.49-.37,2.25,2.25,0,0,0,.06-.4c0-.41,0-1.19-.11-2.21-.23-2-.72-4.71-.83-6.74-.75-4.11-2.09-8.69-4.49-11.7-2.2-2.77-4.46-6.93-8.24-10.62a30.06,30.06,0,0,0-13.76-5.7c-2.26-.19-4.57-.28-6.85-.28"/><path class="cls-13" d="M217.3,164.62a16.31,16.31,0,0,0-16.09,13.7A42.92,42.92,0,0,1,215.3,176c1.33,0,2.71.05,4.13.17a52,52,0,0,1,14.13,3,16.34,16.34,0,0,0-14.91-14.59c-.45,0-.9,0-1.35,0"/><path class="cls-14" d="M208.44,173.27a3,3,0,1,0,3.22-2.74A3,3,0,0,0,208.44,173.27Z"/></g><path class="cls-15" d="M186.43,176.94c9.11-18.87,26.74-20.73,35.8-20,29.75,1.85,31.48,37.71,31.48,37.71,3-.11,4.51-8.95,4.51-8.95-.89-12.79-10.62-32.71-35.3-34.73-20.35-1.66-31.79,15.69-35.18,21.84A11.06,11.06,0,0,0,186.43,176.94Z"/><path d="M230.34,130.27c-.09.06-6.25-4.75-9.46-6.72a17.84,17.84,0,0,0-9.44-2.94,22.28,22.28,0,0,0-10.61,2.54c-3.37,1.69-9.21,5.67-9.91,5.32-.49-.25,3.63-6,7.55-8.89a20.88,20.88,0,0,1,12.84-4.06A19,19,0,0,1,223.66,121C226.84,124.06,230.78,130,230.34,130.27Z"/><path d="M140.88,130.27c-.09.06-6.26-4.75-9.46-6.72a17.84,17.84,0,0,0-9.45-2.94,22.22,22.22,0,0,0-10.6,2.54c-3.38,1.69-9.22,5.67-9.92,5.32-.49-.25,3.63-6,7.56-8.89a20.88,20.88,0,0,1,12.84-4.06A19,19,0,0,1,134.2,121C137.37,124.06,141.32,130,140.88,130.27Z"/><path class="cls-17" d="M16.87,241.61s8.43,24-16.35,31.17c0,0,30.15-11.49,38.07,5.37,0,0-2.3-29.89,2.55-32.19C41.14,246,21,246.47,16.87,241.61Z"/><path class="cls-18" d="M16.87,241.61l-.49.18.05.16a30.2,30.2,0,0,1,1.3,8.76,22,22,0,0,1-3.25,12c-2.52,3.93-6.83,7.47-14.1,9.57l.14.5.19.49.44-.16c2-.73,10.77-3.64,19.41-3.63a25.49,25.49,0,0,1,10.3,1.87,14,14,0,0,1,7.25,7,.53.53,0,0,0,.61.28.51.51,0,0,0,.38-.54s-.13-1.77-.27-4.47-.27-6.35-.27-10.1a84.78,84.78,0,0,1,.61-11.26,20.31,20.31,0,0,1,.92-4,3.22,3.22,0,0,1,1.27-1.84.54.54,0,0,0,.29-.59.52.52,0,0,0-.52-.4H39.5a100.14,100.14,0,0,1-11.81-.67,37.94,37.94,0,0,1-6.39-1.29,8.81,8.81,0,0,1-4-2.21.52.52,0,0,0-.89.51l.49-.18-.4.34A9.75,9.75,0,0,0,21,244.48c5.82,1.83,14.82,2,18.51,2h1.65V246l-.22-.47a4.09,4.09,0,0,0-1.8,2.41,27.67,27.67,0,0,0-1.27,6.85c-.24,2.74-.33,5.8-.33,8.79,0,7.56.55,14.64.55,14.65l.52,0,.47-.23a15.08,15.08,0,0,0-7.78-7.52,26.52,26.52,0,0,0-10.72-2c-10.13,0-20.19,3.85-20.22,3.86a.52.52,0,0,0,.33,1c7.47-2.15,12-5.86,14.69-10a23.1,23.1,0,0,0,3.41-12.57,30.88,30.88,0,0,0-1.41-9.27l-.49.17-.4.34Z"/><path class="cls-17" d="M259.06,310.75s19,14.61,19.48,20.37c0,0,17.27-25.24,24.8-26.56,0,0-19.48-3.55-21.7-11.07C281.64,293.49,279,306.33,259.06,310.75Z"/><path class="cls-18" d="M259.06,310.75l-.31.42.81.63c1.82,1.43,6.38,5.1,10.52,9a61.29,61.29,0,0,1,5.49,5.82c1.46,1.82,2.39,3.49,2.45,4.52a.51.51,0,0,0,.39.46.5.5,0,0,0,.56-.21l.76-1.08c1.69-2.41,6-8.48,10.79-14.08a79.35,79.35,0,0,1,7.11-7.52c2.26-2,4.35-3.42,5.8-3.66a.52.52,0,0,0,.43-.51.53.53,0,0,0-.43-.52l-.83-.16a69.69,69.69,0,0,1-11-3.25,28.87,28.87,0,0,1-6.09-3.19,8.34,8.34,0,0,1-3.35-4.1.52.52,0,0,0-.52-.37.52.52,0,0,0-.49.41v0a17.93,17.93,0,0,1-4,7.06c-3.14,3.6-8.63,7.65-18.18,9.78a.52.52,0,0,0-.4.39.54.54,0,0,0,.2.53l.31-.42.12.51c10.06-2.23,15.82-6.61,19-10.46a18.08,18.08,0,0,0,3.93-7.21l-.51-.1-.5.15c.62,2.07,2.36,3.76,4.54,5.19a43.88,43.88,0,0,0,11.23,4.71c3.57,1,6.32,1.53,6.33,1.53l.1-.51-.09-.52a9.27,9.27,0,0,0-3.44,1.61c-4.27,2.94-9.66,9.21-14,14.77s-7.67,10.4-7.68,10.4l.43.3.52,0a6.75,6.75,0,0,0-1-2.75c-2-3.44-6.69-7.89-10.84-11.54s-7.8-6.44-7.81-6.45l-.32.41.12.51Z"/><path class="cls-19" d="M219.84,369c0,.18,0,.36,0,.55l1.4,1.28v-.55L220,369.2l-.19-.17"/><path class="cls-6" d="M300.75,245.87s-40.14,5.57-67.84-4.69S192,210,167.45,210.58c-38.19.94-53,24.11-64.08,28.39a152,152,0,0,1-22.55,7s33.71,27.79,64.21,32.59,63.29,2.56,92.53-3.05c39.36-7.56,63.19-29.64,63.19-29.64"/><path class="cls-7" d="M300.75,245.87l-.1-.68-1.9.23a213.2,213.2,0,0,1-23.2,1.27c-13.16,0-29.25-1.29-42.4-6.17-13.54-5-23.61-12.62-33.35-19s-19.15-11.62-31.3-11.62h-1.07c-19.23.48-32.65,6.57-42.58,13.06-5,3.25-9.07,6.59-12.61,9.38s-6.51,5-9.12,6c-6.54,2.54-11.64,3.45-15.86,4.75-2.11.65-3.81,1.15-5,1.48s-1.8.49-1.81.49a.69.69,0,0,0-.5.53.68.68,0,0,0,.25.69,116.49,116.49,0,0,0,20.45,15.18c12.52,7.38,28.86,15.37,44.26,17.79,11.58,1.82,23.56,3.81,35.46,3.81,19.57,0,39.09-3.37,57.31-6.86,39.56-7.6,63.47-29.76,63.53-29.81a.69.69,0,0,0-.57-1.19l.1.68-.48-.51-.26.24c-2.71,2.41-25.86,22.18-62.58,29.22-18.15,3.48-37.62,6.18-57.09,6.18a227.33,227.33,0,0,1-35.2-3.13c-15.1-2.37-31.34-10.28-43.77-17.62-6.22-3.66-10.73-8.2-14.44-10.8-1.86-1.3-3.33-2.37-4.33-3.11l-1.15-.87-.39-.3-.42.55.17.68a132.59,132.59,0,0,0,22.81-6.78c2.91-1.13,5.93-3.42,9.48-6.21C123.74,225,139,212,167.47,211.27h1c11.72,0,20.85,5,30.54,11.4s19.87,14.07,33.63,19.17c13.42,5,29.63,6.24,42.88,6.25a203.87,203.87,0,0,0,25.29-1.52l-.09-.69-.48-.51.48.51"/><polyline class="cls-14" points="129.01 223.35 134.35 235.6 138.45 225.19 129.01 223.35"/><polyline class="cls-14" points="192.9 225.08 187.02 237.08 183.39 226.5 192.9 225.08"/><path class="cls-20" d="M143.23,226l19.1-10.79,16.51,11s-3.58,17.53-17.68,17.21c-18-.4-17.93-17.43-17.93-17.43"/><path class="cls-6" d="M161.91,197.12s35.78-1.05,52.29,2.31,11.88,22,1.06,25.37-35.73,8.58-50.64-2.35c-5.44-4-2.71-25.33-2.71-25.33"/><path class="cls-21" d="M161.91,197.12l0,.7s1.33,0,3.59-.08,5.45-.08,9.18-.08c11.9,0,29.33.4,39.36,2.45a13.39,13.39,0,0,1,7.91,4.25,10.21,10.21,0,0,1,2.35,6.71,14.26,14.26,0,0,1-2.59,8,12.92,12.92,0,0,1-6.67,5.07,94.76,94.76,0,0,1-26.31,4.19c-8.52,0-17.16-1.63-23.72-6.45a4.84,4.84,0,0,1-1.46-1.95c-1.25-2.68-1.66-7.27-1.65-11.59,0-2.9.17-5.69.34-7.75.09-1,.17-1.87.24-2.46s.1-.92.1-.92l-.69-.09,0,.7,0-.7-.69-.09a101.35,101.35,0,0,0-.69,11.31,45.91,45.91,0,0,0,.69,8.62,15.59,15.59,0,0,0,1.09,3.55,6.45,6.45,0,0,0,1.89,2.5c6.93,5.07,15.86,6.71,24.55,6.71a95.92,95.92,0,0,0,26.72-4.25,14.27,14.27,0,0,0,7.4-5.61,15.61,15.61,0,0,0,2.84-8.79,11.65,11.65,0,0,0-2.67-7.61,14.87,14.87,0,0,0-8.7-4.71c-10.27-2.09-27.69-2.48-39.64-2.48-7.48,0-12.8.16-12.81.16l-.59,0-.08.58.69.09"/><path class="cls-6" d="M162.21,197.13s-35.69-2.65-52.34,0S97,218.6,107.68,222.4s35.31,10.17,50.7-.09c5.61-3.74,3.83-25.18,3.83-25.18"/><path class="cls-6" d="M162.21,197.13l0-.69s-16-1.19-31.59-1.19a147.54,147.54,0,0,0-20.91,1.16c-4.16.66-7.17,2.32-9.11,4.57a11.8,11.8,0,0,0-2.82,7.85,15.85,15.85,0,0,0,2.64,8.56,14.18,14.18,0,0,0,7,5.67c6.43,2.28,17.87,5.5,29.42,5.5,7.75,0,15.56-1.45,21.91-5.68a7,7,0,0,0,2.34-3.12,26.68,26.68,0,0,0,1.67-7.24,73.73,73.73,0,0,0,.39-8c0-4.2-.27-7.45-.27-7.46l-.05-.59-.59,0,0,.69-.69.06s.06.79.13,2.11.13,3.16.13,5.23A61.34,61.34,0,0,1,161,214.9a19.88,19.88,0,0,1-1.2,4.31,5.66,5.66,0,0,1-1.83,2.52c-6,4-13.56,5.44-21.14,5.44-11.29,0-22.63-3.17-29-5.42a12.79,12.79,0,0,1-6.28-5.12,14.49,14.49,0,0,1-2.41-7.8,10.42,10.42,0,0,1,2.48-6.94c1.7-2,4.37-3.48,8.28-4.1a144.88,144.88,0,0,1,20.69-1.15c7.76,0,15.64.29,21.57.59,3,.15,5.45.3,7.19.41l2.73.18.05-.69-.69.06.69-.06"/><path class="cls-22" d="M173.85,195.68c-1-.78-3-.75-6.85-.72-1.52,0-3.32,0-5.47,0-7.49-.19-10.85-.83-12.34.19s1,9.27,6.05,9.69c4.23.35,5.28.42,5.95.44h.22c.68,0,1.58,0,5.82-.18,5.07-.19,8.1-8.3,6.62-9.41"/><path class="cls-23" d="M99.22,215.34s.91,5.31,7.47,7.82A106.79,106.79,0,0,0,119,227.05l.67-.5a103.51,103.51,0,0,1-12.24-3.49,14.18,14.18,0,0,1-7-5.67,15.7,15.7,0,0,1-1.12-2l-.13,0m126.37-2.42a16,16,0,0,1-2.72,6.94,14.27,14.27,0,0,1-7.4,5.61c-1.93.59-4.3,1.24-7,1.85l.79.53c5.31-1.45,9.11-3.09,10.46-4.21a16.13,16.13,0,0,0,5.84-10.72"/><path class="cls-24" d="M177.61,228.67a16.92,16.92,0,0,1-1.44,2,74.83,74.83,0,0,0,8.81.5l-.54-1.54a51.89,51.89,0,0,1-6.83-.91m-34-.52a54.81,54.81,0,0,1-6.54.41l-.46,1.18c1.67.1,3.28.14,4.81.14,1,0,2,0,3,0a9.93,9.93,0,0,1-.79-1.68m63-.42a89.87,89.87,0,0,1-16,2L190,231a94.87,94.87,0,0,0,17.48-2.66l-.88-.59m-85.1-.8-.74.54a96.2,96.2,0,0,0,10.84,1.85l-.44-1a86.67,86.67,0,0,1-9.66-1.39"/><path class="cls-25" d="M208.5,227.32l-1.89.41.88.59c.62-.15,1.22-.31,1.8-.47l-.79-.53m-88.82-.77-.67.5,1.76.42.74-.54-1.83-.38"/><path class="cls-26" d="M131.17,228.32l.44,1c1.75.2,3.43.33,5,.42l.46-1.18h-.26c-1.91,0-3.81-.09-5.69-.24"/><path class="cls-26" d="M184.44,229.58l.54,1.54h.09c1.66,0,3.32-.05,4.94-.14l.63-1.29q-.94,0-1.89,0c-1.44,0-2.87-.05-4.31-.14"/><path class="cls-27" d="M161.58,218.49a13.44,13.44,0,0,1-.47,1.27,7,7,0,0,1-2.34,3.12c-4.48,3-10.12,4.61-15.53,5.3a7,7,0,0,0,.52,1.67,68.73,68.73,0,0,0,17.9-2.78,51.63,51.63,0,0,0,15.68,3.74c.17,0,.52-1.5.89-2.09a37,37,0,0,1-14-5.71,6.45,6.45,0,0,1-1.89-2.5,14.43,14.43,0,0,1-.73-2"/><path class="cls-24" d="M223.52,215.59c-6.25,5.55-23.16,9.09-34.4,9.09a33.72,33.72,0,0,1-6.09-.47c-9.93-1.85-18.89-3.86-19.93-6.78a5.4,5.4,0,0,0-.61-1.23,15.77,15.77,0,0,0,1.08,3.73,4.84,4.84,0,0,0,1.46,1.95c6.55,4.82,15.18,6.45,23.7,6.45h0a94.76,94.76,0,0,0,26.31-4.19,12.92,12.92,0,0,0,6.67-5.07,15.09,15.09,0,0,0,1.79-3.48"/><path class="cls-25" d="M225.59,212.86a7.56,7.56,0,0,1-2.07,2.73,15.09,15.09,0,0,1-1.79,3.48,12.92,12.92,0,0,1-6.67,5.07,94.76,94.76,0,0,1-26.31,4.19h0c-8.52,0-17.15-1.63-23.7-6.45a4.84,4.84,0,0,1-1.46-1.95,15.77,15.77,0,0,1-1.08-3.73,2.61,2.61,0,0,0-.23-.3,22.17,22.17,0,0,1-.68,2.59,14.43,14.43,0,0,0,.73,2,6.45,6.45,0,0,0,1.89,2.5,34.08,34.08,0,0,0,13.41,5.66,51.89,51.89,0,0,0,6.83.91c1.44.09,2.87.14,4.31.14q.94,0,1.89,0a89.87,89.87,0,0,0,16-2l1.89-.41c2.67-.61,5-1.26,7-1.85a14.27,14.27,0,0,0,7.4-5.61,16,16,0,0,0,2.72-6.94v-.06"/><path class="cls-24" d="M160.86,215.81a3.16,3.16,0,0,0-.75,1.44c-.88,3-8.21,4.8-18.77,4.8a119,119,0,0,1-13.61-.84A149.53,149.53,0,0,1,101.25,216l.38.61a12.79,12.79,0,0,0,6.28,5.12c6.32,2.25,17.65,5.42,28.93,5.42h0c7.58,0,15.12-1.43,21.14-5.44a5.66,5.66,0,0,0,1.83-2.52,18,18,0,0,0,1-3.4"/><path class="cls-25" d="M99.35,215.39a15.7,15.7,0,0,0,1.12,2,14.18,14.18,0,0,0,7,5.67,103.51,103.51,0,0,0,12.24,3.49l1.83.38a86.67,86.67,0,0,0,9.66,1.39c1.88.15,3.78.24,5.69.24h.26a54.81,54.81,0,0,0,6.54-.41,34.78,34.78,0,0,0,15.11-5.27,7,7,0,0,0,2.34-3.12,13.44,13.44,0,0,0,.47-1.27,22.17,22.17,0,0,0,.68-2.59,1.08,1.08,0,0,0-.76-.39.91.91,0,0,0-.64.3,18,18,0,0,1-1,3.4,5.66,5.66,0,0,1-1.83,2.52c-6,4-13.56,5.44-21.14,5.44h0c-11.28,0-22.61-3.17-28.93-5.42a12.79,12.79,0,0,1-6.28-5.12l-.38-.61c-1-.31-1.64-.54-1.9-.63"/><path class="cls-28" d="M172.5,201.76l-.22.11a6.81,6.81,0,0,1-5.05,3.22l-4.06.15v.1h.56a32.41,32.41,0,0,0,4.57-.28c2.27-.33,4.2-3.3,4.2-3.3"/><path class="cls-28" d="M150.55,201.63c.39.91,1.75,3.13,5.69,3.39,2,.13,3.86.24,5.54.29v0h-.59c-.67,0-1.72-.09-5.95-.44a6.52,6.52,0,0,1-4.69-3.19"/><path class="cls-29" d="M163.17,205.24l-1.39,0v0l1.39,0v-.1"/><path class="cls-30" d="M150.42,201.24a2.31,2.31,0,0,0,.13.39,6.52,6.52,0,0,0,4.69,3.19c4.23.35,5.28.42,5.95.44h.59l1.39,0,4.06-.15a6.81,6.81,0,0,0,5.05-3.22,22.54,22.54,0,0,1-9,1.56h-.89c-6.7-.17-10.44-.79-11.93-2.18"/><path class="cls-31" d="M228.76,277.78l-1.25.2h0l1.24-.21"/><path class="cls-2" d="M262.29,125.61s10.78-43.41,40.44-52.84,50.69,8.08,58.78,29.65-8.36,50.42-38.56,53.93l-60.66-30.74"/><path class="cls-3" d="M263,125.79s0-.16.13-.48a112.57,112.57,0,0,1,10.14-24.49c6.4-11.31,16.06-23,29.69-27.36a51.72,51.72,0,0,1,15.75-2.58,41.2,41.2,0,0,1,26.45,9.42,52.77,52.77,0,0,1,15.68,22.38,32.19,32.19,0,0,1,2,11.3c0,18.77-15.3,38.79-40,41.65a.72.72,0,0,0-.64.8.74.74,0,0,0,.81.64c25.38-3,41.24-23.55,41.24-43.09a33.71,33.71,0,0,0-2.09-11.81,54.19,54.19,0,0,0-16.12-23,42.64,42.64,0,0,0-27.37-9.76,53.53,53.53,0,0,0-16.19,2.65c-15.12,4.83-25.32,18.21-31.76,30.32a112.4,112.4,0,0,0-9.17,23,.74.74,0,0,0,.53.88.73.73,0,0,0,.88-.53"/><path class="cls-2" d="M332.43,110.71S309.11,117.35,305,140.5l27.45-29.79"/><path class="cls-2" d="M201,95s32.63-9.38,29.28-39.1S192,15,192,15a42.15,42.15,0,0,1,22.34,32.85S205.44,36.42,184.66,32,144.44,24.13,137.52.67c0,0-15.42,34.41-9.16,58.77a46.22,46.22,0,0,0,8.55,17.69L201,95"/><path class="cls-3" d="M200.79,94.32l.31-.1a52,52,0,0,0,15.6-8.38c6.79-5.41,13.11-13.64,13.12-25.77a36.94,36.94,0,0,0-.24-4.13c-1.64-14.6-11-24.67-20.08-31.12a75.36,75.36,0,0,0-12.24-7c-1.65-.75-3-1.29-4-1.65-.47-.18-.84-.32-1.09-.4l-.38-.13L192,15l.27-.61a38.49,38.49,0,0,1,10.28,7.51,43,43,0,0,1,12.46,25.87.67.67,0,0,1-1.2.49l0,0c-.48-.6-9.37-11.31-29.31-15.6C174.14,30.37,164,28.42,155.59,24S140.37,12.75,136.87.86l.65-.19.61.27s-.16.37-.45,1.05c-2,4.82-10.16,25.39-10.15,44.48A52.07,52.07,0,0,0,129,59.27a45.71,45.71,0,0,0,8.43,17.44.67.67,0,0,1-.1.94.68.68,0,0,1-1-.1,47.13,47.13,0,0,1-8.67-17.95,52.57,52.57,0,0,1-1.52-13.13c0-22.22,10.7-46,10.71-46.07a.67.67,0,0,1,1.26.08c3.43,11.57,9.85,18.08,18,22.36s18.21,6.22,28.6,8.46c21,4.51,30,16,30.11,16.1l-.53.42-.66.08a41.76,41.76,0,0,0-12.07-25.08,42.22,42.22,0,0,0-6.89-5.55c-.92-.58-1.67-1-2.2-1.28-.26-.14-.46-.25-.6-.31l-.15-.08-.05,0a.67.67,0,0,1,.48-1.25,73.57,73.57,0,0,1,18,9.4c9.22,6.56,18.93,16.93,20.64,32.06a37.27,37.27,0,0,1,.25,4.28c0,13.47-7.56,22.4-15,27.89a53.14,53.14,0,0,1-15,7.65.67.67,0,0,1-.37-1.29"/><path class="cls-4" d="M136.32,5.37C139.76,37,162.05,50.63,171.7,55a45.14,45.14,0,0,0,17.87,3.65c1.41,0,2.24-.08,2.24-.08C186,55.75,183,48.26,183,48.26,193,57,196.62,55,210.86,64.19c9.74,6.29,12.27,11.65,12.9,14.41a38.87,38.87,0,0,1-7.06,7.24,52,52,0,0,1-15.6,8.38l-.31.1a.68.68,0,0,0-.46.46,131.43,131.43,0,0,1-34.89-2.23c-18.29-3.8-27.89-15.24-27.89-15.24a.66.66,0,0,0-.12-.6A45.71,45.71,0,0,1,129,59.27a52.07,52.07,0,0,1-1.47-12.8c0-16.09,5.76-33.23,8.79-41.1"/><path class="cls-5" d="M223.76,78.6a38.87,38.87,0,0,1-7.06,7.24,52,52,0,0,1-15.6,8.38l-.31.1a.68.68,0,0,0-.46.46.77.77,0,0,0,0,.37.67.67,0,0,0,.64.48.58.58,0,0,0,.19,0,53.14,53.14,0,0,0,15-7.65,41.53,41.53,0,0,0,7.81-7.39,6.22,6.22,0,0,0-.18-2M136.06,2.46S134.65,6,133,10.64c-3.06,9-6.79,22.69-6.8,35.83a52.57,52.57,0,0,0,1.52,13.13,50.15,50.15,0,0,0,4.58,11.79q.33.6.66,1.17a43.4,43.4,0,0,0,3.1,4.57l.52.57a.59.59,0,0,0,.34.1.68.68,0,0,0,.42-.15.63.63,0,0,0,.22-.34.66.66,0,0,0-.12-.6A45.71,45.71,0,0,1,129,59.27a52.07,52.07,0,0,1-1.47-12.8c0-16.09,5.76-33.23,8.79-41.1-.1-1-.19-1.93-.26-2.91"/><path class="cls-4" d="M316.57,108.83c-28.85,8.45-24,39.8-10.34,45.39,5.33,2.17,18.22,3.43,32-3a42.57,42.57,0,0,0,24.07-31.28c.8-4.54-7.87-7.86-13.21-9.53S328.69,106.22,316.57,108.83Z"/><path class="cls-32" d="M332.43,110a.76.76,0,0,0-.21,0,45.06,45.06,0,0,0-12.41,6.32,40.12,40.12,0,0,0-10.54,11c.24.57.48,1.15.71,1.73a38,38,0,0,1,10.71-11.51A46.38,46.38,0,0,1,329,112.8c.94-.41,1.75-.72,2.35-.94l.3-.11.72-.24.24-.07a.75.75,0,0,0-.2-1.48"/><path class="cls-2" d="M143.18,294.58s-61.52-36-90.56-52.33-42-39.17-29.9-52,38.81-15.16,47.15,3.14S63,217.66,63,217.66L144.34,282l-1.16,12.55"/><path class="cls-3" d="M141,292.45c-8.79-5.14-61.31-35.95-87.95-50.9-10.78-6.05-19.31-13-25.12-20S19,207.64,19,201.62a15.45,15.45,0,0,1,4.29-10.86c5.77-6.16,15.1-9.87,24-9.86a26.64,26.64,0,0,1,12.82,3,20.59,20.59,0,0,1,9,9.74,23.77,23.77,0,0,1,2.42,9.82,13.89,13.89,0,0,1-4.23,10.21,15.64,15.64,0,0,1-4.63,3.18h0l-1.32.52,83.72,65.16.17-1.84L64.48,217.82a18.13,18.13,0,0,0,3.75-2.73,15.6,15.6,0,0,0,5-11.58A25.41,25.41,0,0,0,70.61,193a22.26,22.26,0,0,0-9.7-10.48,28.31,28.31,0,0,0-13.6-3.26c-9.34,0-19,3.84-25.18,10.38a17.06,17.06,0,0,0-4.73,12c0,6.57,3.29,13.83,9.26,21S41.3,236.82,52.22,243c25.4,14.26,75.68,43.63,87.85,50.75C141.81,294.72,141,292.45,141,292.45Z"/><path class="cls-4" d="M82,233.3,56.29,218.36c4.41-.85,10.78-6.17,14.19-9.29a14.26,14.26,0,0,1-3.16,4.65,15.64,15.64,0,0,1-4.63,3.18h0l-1.32.52L82,233.3"/><path class="cls-5" d="M92.19,239.21,82,233.3,61.35,217.43l1.32-.52h0a15.64,15.64,0,0,0,4.63-3.18,14.26,14.26,0,0,0,3.16-4.65c1.36-1.24,2.26-2.12,2.37-2.24a15.55,15.55,0,0,1-4.62,8.26,18.36,18.36,0,0,1-3.73,2.72l.17.14,0,0,27.57,21.24"/></g></g></svg>