<svg xmlns="http://www.w3.org/2000/svg" xmlns:xlink="http://www.w3.org/1999/xlink" viewBox="0 0 363.19 373.86"><defs><style>.cls-1{fill:none;}.cls-2,.cls-5,.cls-6{fill:#e89f51;}.cls-2,.cls-5{stroke:#ce7f38;stroke-miterlimit:10;}.cls-2{stroke-width:1.5px;}.cls-3{fill:#ffd3a4;}.cls-4{fill:#efba89;}.cls-7{fill:#ce7f38;}.cls-8{fill:#cc7735;}.cls-9{fill:#b55f24;}.cls-10{clip-path:url(#clip-path);}.cls-11{fill:#f0efef;}.cls-12{fill:#ccaa53;}.cls-13{fill:#1f70c9;}.cls-14{fill:#fff;}.cls-15{fill:#212120;}.cls-16{clip-path:url(#clip-path-2);}.cls-17{fill:#a0dbf0;}.cls-18{fill:#4a91cd;}.cls-19{fill:#b71a53;}.cls-20{fill:#eaa66e;}.cls-21{fill:#e7a142;}.cls-22{fill:#e7aa78;}.cls-23{fill:#d89564;}.cls-24{fill:#e7cdba;}.cls-25{fill:#a6153c;}.cls-26{fill:#e09e6b;}.cls-27{fill:#d28b59;}.cls-28{fill:#d7911b;}.cls-29{fill:#ba6628;}.cls-30{fill:#212121;}.cls-31{fill:#1d1915;}</style><clipPath id="clip-path"><path class="cls-1" d="M285,181.25s-4.52,1.88-34.58,5.49c-27,3.25-29.55-6.56-28.3-10.91,3.7-12.91,11.84-25.44,27.51-27.33s21.89,8.48,26.87,13.19c5.86,5.53,8.5,19.56,8.5,19.56"/></clipPath><clipPath id="clip-path-2"><path class="cls-1" d="M112.53,197.51s4.31.87,37.61-2.84c30-3.33,31.49-13.64,29.17-17.57-6.88-11.7-18.48-22-35.85-20s-21.77,13.52-26.11,19.31c-5.1,6.81-4.82,21.12-4.82,21.12"/></clipPath></defs><title>Correct feedback_PUMA niño_1</title><g id="Layer_2" data-name="Layer 2"><g id="Layer_4" data-name="Layer 4"><path class="cls-2" d="M232.29,373.11c.73-9.17.21-17.2-.71-30.23-1.51-21.59.56-23.05-.37-38.9-.9-15.32,1.52-37.44-15.48-52.11s-32.32-7.2-42.63.31c-5.37,3.91-13,15.88-22,38.81-4,10.19-10.3,29.27-13.76,36.93-4.87,15.77-9.44,31.26-10.9,45.19Z"/><path class="cls-3" d="M231.46,372.37A241.44,241.44,0,0,0,229,341.46c-2-14.46,2.12-60.12-6.5-69.36-9.26-9.93-33.86-10.26-37.21-8-22.79,15.62-9.6,57.47-19,74.57a232.74,232.74,0,0,0-14.1,33.67Z"/><path class="cls-4" d="M153.38,372.38c1.86-5.75,3.79-11,5.94-16.36,3.11-7.73,6.08-14.23,7.6-17,2.44-4.45,3.37-10.35,3.82-17,.67-9.91.22-21.44,1.72-31.9a50,50,0,0,1,4.08-14.53,27.06,27.06,0,0,1,9.18-10.94,7.28,7.28,0,0,1,2.65-.74,36.28,36.28,0,0,1,5.09-.31,61.75,61.75,0,0,1,15.33,2C214.06,267,219,269.3,222,272.58c2,2.07,3.36,6.57,4.2,12.33,1.27,8.63,1.44,20.06,1.46,30.69s-.09,20.43.66,26c1.17,8.65,2.83,19.69,2.86,30.82h1.39c0-11.24-1.7-22.33-2.88-31a137.65,137.65,0,0,1-.62-15.55c-.05-9.68.11-21.39-.54-31.57a94.15,94.15,0,0,0-1.71-13.7c-.87-3.91-2-7-3.8-8.92-3.35-3.58-8.48-5.89-13.89-7.34a63,63,0,0,0-15.69-2,38,38,0,0,0-5.29.32,8.25,8.25,0,0,0-3.24,1c-5.85,4-9.38,9.71-11.53,16.19-3.22,9.73-3.38,21.26-3.64,31.94s-.65,20.52-4.06,26.68a234.46,234.46,0,0,0-10.79,25.23c-1.16,3.15-2,5.63-3,8.78Z"/><path class="cls-5" d="M159.26,278.75l-54.5,26c-6.77,3.45-8.25,10.74-7.13,13.67l18.65,39.09a13.35,13.35,0,0,0-2.94,15.84l33.06,0c9.88-14.72-16.62-23.16-16.62-23.16s-4.35-10.4-11.52-29c-.37-1,.18-3.61,1.11-4.07,22.77-11.3,35.54-15.13,35.54-15.13"/><path class="cls-6" d="M258.11,104.18S268,59,298.34,48.29,351,55.12,360,77.18s-7.12,52.41-38.25,56.95l-63.68-29.95"/><path class="cls-7" d="M257.46,104a115.6,115.6,0,0,1,8.77-24.1c6.3-12.71,16.43-26.84,31.89-32.27a55,55,0,0,1,16.64-3.23,44.06,44.06,0,0,1,28.55,9.24,55.87,55.87,0,0,1,17.35,23.26,34.78,34.78,0,0,1,2.52,12.13c.59,20.16-15.16,41.92-41.29,45.73a.67.67,0,1,1-.2-1.32c25.47-3.71,40.72-24.92,40.15-44.37a33.42,33.42,0,0,0-2.42-11.66A54.68,54.68,0,0,0,342.5,54.73a42.72,42.72,0,0,0-27.7-9,53.74,53.74,0,0,0-16.24,3.15c-14.93,5.23-24.91,19-31.13,31.61a119.2,119.2,0,0,0-6.67,16.61c-.69,2.2-1.19,4-1.52,5.24-.16.62-.28,1.11-.36,1.44s-.11.5-.11.5a.67.67,0,1,1-1.31-.29"/><path class="cls-6" d="M318.25,89.57s-27,8.54-31,35.66l31-35.66"/><path class="cls-7" d="M318.45,90.21l-.28.1a52.08,52.08,0,0,0-14.84,8.52,41.63,41.63,0,0,0-15.4,26.5.67.67,0,0,1-.76.57.68.68,0,0,1-.57-.77c2-13.77,9.93-22.84,17.26-28.43a51.7,51.7,0,0,1,14.19-7.76.67.67,0,1,1,.4,1.27h0"/><path class="cls-8" d="M271.47,110.46l16.71,7.86a43.49,43.49,0,0,0-1.58,6.81.68.68,0,0,0,.57.77h.12a.66.66,0,0,0,.64-.57c.05-.35.11-.71.17-1.06l3.7-4.25,29.38,13.83a.68.68,0,0,0-.05.38.66.66,0,0,0,.68.57h.08c1.55-.22,3.07-.51,4.55-.86v.18a47.3,47.3,0,0,1-5.18.77c-1.42.14-2.83.22-4.25.27a66.68,66.68,0,0,1-29.11-5.77c-10.54-4.71-18.64-14.32-18.64-14.32a37.35,37.35,0,0,1,2.2-4.6"/><path class="cls-8" d="M327,78.9c1.76-.05,3.57-.05,5.42,0a35.68,35.68,0,0,1,29.11,16.44c-2.44,17.52-17,34.81-39.8,38.13a.67.67,0,0,0-.51.38L291.8,120l25.55-29.41.82-.3.28-.1h0a.66.66,0,0,0,.44-.84.69.69,0,0,0-.66-.47l-.18,0a51.7,51.7,0,0,0-14.19,7.76,44.16,44.16,0,0,0-15.68,21.62l-16.71-7.86C276.73,101,292.23,79.91,327,78.9"/><path class="cls-9" d="M361.49,95.34c.49.76.72,1.22.72,1.22a17.85,17.85,0,0,1-.42,4,44.57,44.57,0,0,1-5.55,12.49l-.5.7a60.68,60.68,0,0,1-9.92,10.82,48.88,48.88,0,0,1-18.05,9l-1.33.34c-1.48.35-3,.64-4.55.86h-.08a.66.66,0,0,1-.68-.57.68.68,0,0,1,.05-.38.67.67,0,0,1,.51-.38c22.76-3.32,37.36-20.61,39.8-38.13"/><path class="cls-8" d="M317.35,90.61,291.8,120l-3.7,4.25a41.65,41.65,0,0,1,15.23-25.44,52.92,52.92,0,0,1,14-8.22"/><path class="cls-9" d="M318.23,88.9a.69.69,0,0,1,.66.47.66.66,0,0,1-.44.84h0l-.28.1-.82.3a52.92,52.92,0,0,0-14,8.22,41.65,41.65,0,0,0-15.23,25.44c-.06.35-.12.71-.17,1.06a.66.66,0,0,1-.64.57h-.12a.68.68,0,0,1-.57-.77,43.49,43.49,0,0,1,1.58-6.81A44.16,44.16,0,0,1,303.86,96.7a51.7,51.7,0,0,1,14.19-7.76l.18,0"/><path class="cls-6" d="M179.86,283.47C104.94,282,54.68,254.93,43.52,222.89s-15-91.57,20.61-128.56c27.56-28.66,78.25-43.19,107.19-44s86.25,7.23,119.75,38.45S325.29,184,317.88,205.65c-9.42,27.53-68.13,79.18-138,77.82"/><path class="cls-7" d="M180.47,283.27v.7c-37.54-.73-68.92-7.88-92.36-18.89s-38.95-25.89-44.62-42.16a152.91,152.91,0,0,1-7.78-44.51c-.84-28.81,6-61.26,28.55-84.76C78.14,79.21,97.79,68.38,117.59,61s39.76-11.2,54.33-11.63,36.15,1.39,58.36,7.22,45,15.69,61.88,31.42c22.06,20.58,30,55,30.78,82.55.42,14.7-1.17,27.41-3.79,35.09-2.32,6.79-7.53,14.91-15.08,23.35-22.63,25.29-66.35,53.41-116.75,54.9-2.28.07-4.56.08-6.86,0v-.7l0-.69c2.27,0,4.54,0,6.79,0,33.26-1,63.67-13.7,86.88-29.52A159.39,159.39,0,0,0,303,228.1c7.46-8.33,12.57-16.35,14.8-22.87,2.54-7.41,4.14-20,3.71-34.6-.79-27.3-8.71-61.44-30.34-81.57C274.59,73.56,252,63.76,229.93,58s-43.57-7.6-58-7.18S137.73,55,118.07,62.34s-39.15,18-52.82,32.27c-22.23,23.12-29,55.19-28.16,83.76a151.37,151.37,0,0,0,7.7,44.09c5.49,15.77,20.68,30.46,43.9,41.36s54.42,18,91.8,18.76l0,.69"/><g class="cls-10"><path class="cls-11" d="M285,181.25s-3.38,6.56-33.44,10.17c-27,3.25-30.69-11.24-29.44-15.59,3.7-12.91,11.84-25.44,27.51-27.33s21.89,8.48,26.87,13.19c5.86,5.53,8.5,19.56,8.5,19.56"/><path class="cls-12" d="M221.94,178.58a12.58,12.58,0,0,0,3.35,7l-.18.28a11.54,11.54,0,0,1-3-5.59,14.28,14.28,0,0,1-.13-1.68"/><path class="cls-13" d="M248.23,178.24c.92,8.94,8.21,15.4,16.27,14.43s13.86-9,12.94-17.94-8.22-15.4-16.28-14.43-13.85,9-12.93,17.94"/><path class="cls-14" d="M264.9,167.85a2.8,2.8,0,0,0,3,2.65,2.91,2.91,0,0,0,2.36-3.29,2.79,2.79,0,0,0-3-2.64A2.9,2.9,0,0,0,264.9,167.85Z"/></g><path class="cls-15" d="M222,177.07c4.76-20.24,20-25.39,28.2-26.37,26.67-3.79,34.49,31.1,34.49,31.1,2.76-.7,2.43-9.64,2.43-9.64-3-12.39-15.15-30.12-37.36-27.44-18.38,2.21-25.45,21.54-27.34,28.15A12.1,12.1,0,0,0,222,177.07Z"/><g class="cls-16"><path class="cls-11" d="M112.53,197.51s4.17,10.61,37.48,6.91c30-3.34,31.62-23.39,29.3-27.32-6.88-11.7-18.48-22-35.85-20s-21.77,13.52-26.11,19.31c-5.1,6.81-4.82,21.12-4.82,21.12"/><path class="cls-12" d="M179.92,179.11c0,.11.07.23.1.36a9.66,9.66,0,0,1,0,1.94,11.91,11.91,0,0,0-.1-2.3"/><path class="cls-13" d="M176.7,181.77a16.32,16.32,0,1,1-18-14.42,16.33,16.33,0,0,1,18,14.42"/><path class="cls-14" d="M171,175.05a3,3,0,1,1-3.3-2.63A3,3,0,0,1,171,175.05Z"/></g><path class="cls-15" d="M179.64,178.29c-9.67-18.58-27.34-19.93-36.38-18.92C113.58,162.09,112.91,198,112.91,198c-3,0-4.78-8.81-4.78-8.81.52-12.81,9.66-33,34.28-35.75,20.28-2.26,32.22,14.75,35.8,20.8A11.14,11.14,0,0,1,179.64,178.29Z"/><path d="M134.37,132.94c.1.05,6.12-4.94,9.26-7a17.93,17.93,0,0,1,9.36-3.22A22.34,22.34,0,0,1,163.66,125c3.43,1.59,9.38,5.4,10.07,5,.48-.26-3.8-5.94-7.81-8.66A20.87,20.87,0,0,0,153,117.63a19,19,0,0,0-12.19,5.85C137.7,126.62,133.93,132.66,134.37,132.94Z"/><path d="M223.8,130.32c.09.05,6.12-4.94,9.26-7a17.87,17.87,0,0,1,9.36-3.22,22.36,22.36,0,0,1,10.67,2.23c3.43,1.59,9.38,5.4,10.07,5,.48-.26-3.81-5.94-7.81-8.66a20.9,20.9,0,0,0-13-3.69,19,19,0,0,0-12.18,5.85C227.13,124,223.35,130,223.8,130.32Z"/><path class="cls-17" d="M333.46,250.45s-7.72,24.25,17.26,30.68c0,0-30.47-10.61-37.89,6.47,0,0,1.42-29.94-3.5-32.09C309.33,255.51,329.52,255.42,333.46,250.45Z"/><path class="cls-18" d="M333.46,250.45l.5.16,0,.17a30.45,30.45,0,0,0-1,8.79,22.06,22.06,0,0,0,3.6,11.9c2.64,3.85,7,7.26,14.38,9.15l-.13.51-.17.49-.45-.15c-2.05-.66-10.87-3.32-19.51-3.06a25.57,25.57,0,0,0-10.24,2.18,14,14,0,0,0-7,7.22.53.53,0,0,1-.6.3.5.5,0,0,1-.4-.53s.08-1.76.14-4.47.08-6.35,0-10.1a84.41,84.41,0,0,0-.94-11.24,20.23,20.23,0,0,0-1-4,3.24,3.24,0,0,0-1.33-1.8.52.52,0,0,1,.21-1s.6,0,1.62,0a99.08,99.08,0,0,0,11.8-1,37.71,37.71,0,0,0,6.34-1.47,8.7,8.7,0,0,0,4-2.33.52.52,0,0,1,.66-.14.53.53,0,0,1,.25.62l-.5-.16.41.33a9.72,9.72,0,0,1-4.44,2.66c-5.76,2-14.76,2.44-18.45,2.55l-1.65,0v-.52l.21-.48a4.1,4.1,0,0,1,1.87,2.36,27.67,27.67,0,0,1,1.47,6.81c.32,2.73.5,5.79.58,8.78.23,7.55-.11,14.64-.11,14.65l-.52,0-.48-.2a15,15,0,0,1,7.55-7.75,26.63,26.63,0,0,1,10.66-2.28c10.13-.29,20.3,3.26,20.33,3.26a.54.54,0,0,1,.33.65.52.52,0,0,1-.63.35c-7.53-1.93-12.2-5.5-15-9.57a23.06,23.06,0,0,1-3.78-12.46,30.58,30.58,0,0,1,1.14-9.31l.49.16.41.33Z"/><path class="cls-17" d="M100.32,297.31s-18.6,15.16-18.88,20.93c0,0-18-24.72-25.56-25.83,0,0,19.37-4.11,21.36-11.7C77.24,280.71,80.28,293.47,100.32,297.31Z"/><path class="cls-18" d="M100.32,297.31l.33.4-.8.66c-1.77,1.49-6.22,5.28-10.25,9.33a61.15,61.15,0,0,0-5.32,6c-1.4,1.87-2.28,3.56-2.32,4.59a.52.52,0,0,1-.94.28l-.78-1.06c-1.77-2.36-6.3-8.3-11.21-13.76a79.74,79.74,0,0,0-7.32-7.3c-2.32-2-4.45-3.29-5.9-3.49a.52.52,0,0,1,0-1l.82-.19a69.2,69.2,0,0,0,10.92-3.57,28.58,28.58,0,0,0,6-3.37,8.33,8.33,0,0,0,3.23-4.19.53.53,0,0,1,.51-.39.51.51,0,0,1,.5.4v0a17.73,17.73,0,0,0,4.2,6.94c3.24,3.5,8.85,7.39,18.46,9.24a.52.52,0,0,1,.4.38.5.5,0,0,1-.17.53l-.33-.4-.1.51c-10.12-1.94-16-6.15-19.34-9.9a18.12,18.12,0,0,1-4.14-7.09l.5-.12.51.13c-.56,2.1-2.24,3.84-4.39,5.33a44.28,44.28,0,0,1-11.08,5c-3.54,1.13-6.28,1.71-6.29,1.71l-.11-.51.08-.51a9.21,9.21,0,0,1,3.48,1.5c4.36,2.81,9.92,8.92,14.45,14.36s8,10.16,8,10.17l-.43.31-.52,0a6.7,6.7,0,0,1,1-2.78c1.94-3.5,6.45-8.08,10.5-11.85s7.6-6.67,7.61-6.67l.33.4-.1.51Z"/><path class="cls-3" d="M67.39,250.55s40.28,4.39,67.67-6.68,40-32.4,64.53-32.51c38.21-.17,53.73,22.55,64.89,26.51a151.85,151.85,0,0,0,22.74,6.33S254.35,273,224,278.66s-63.18,4.41-92.58-.34c-39.56-6.4-64-27.77-64-27.77"/><path class="cls-4" d="M67.39,250.55l.07-.69,1.91.18a212.51,212.51,0,0,0,23.22.58c13.16-.38,29.2-2.14,42.21-7.4,13.38-5.41,23.23-13.3,32.77-20s18.81-12.18,31-12.53c.35,0,.7,0,1.06,0,19.24-.09,32.83,5.6,42.95,11.81,5.06,3.1,9.26,6.32,12.88,9s6.64,4.8,9.29,5.74c6.61,2.34,11.74,3.11,16,4.29,2.13.59,3.85,1,5,1.32s1.82.44,1.82.44a.7.7,0,0,1,.29,1.22,116,116,0,0,1-20,15.77c-12.29,7.74-28.39,16.2-43.72,19.08-11.52,2.16-23.43,4.5-35.33,4.85-19.56.57-39.17-2.23-57.49-5.19C91.54,272.57,67,251.12,66.93,251.07a.69.69,0,0,1-.18-.8.68.68,0,0,1,.71-.41l-.07.69.45-.52.28.23c2.77,2.32,26.5,21.41,63.41,27.37,18.23,2.95,37.78,5.08,57.24,4.51a227.34,227.34,0,0,0,35.1-4.17c15-2.81,31-11.19,43.23-18.89,6.11-3.84,10.49-8.51,14.12-11.22,1.82-1.35,3.25-2.46,4.23-3.24l1.12-.89.38-.31.45.53-.16.68a131.87,131.87,0,0,1-23-6.1c-2.93-1.05-6-3.25-9.65-5.94-10.89-8.06-26.56-20.65-55-20.53h-1c-11.72.35-20.7,5.63-30.2,12.29S148.92,239,135.32,244.51c-13.27,5.36-29.44,7.11-42.68,7.5a205.37,205.37,0,0,1-25.33-.77l.08-.69.45-.52-.45.52"/><polyline class="cls-14" points="238.39 223 233.42 235.41 229 225.12 238.39 223"/><polyline class="cls-14" points="174.58 226.61 180.8 238.43 184.13 227.75 174.58 226.61"/><path class="cls-19" d="M224.26,226.08l-19.41-10.22-16.18,11.48s4.09,17.42,18.17,16.69c17.95-.93,17.42-17.95,17.42-17.95"/><path class="cls-3" d="M204.73,197.75s-35.79,0-52.19,3.84S141.31,224,152.22,227s36,7.53,50.55-3.84c5.32-4.14,2-25.39,2-25.39"/><path class="cls-20" d="M204.73,197.75v.7l-3.58,0c-2.26,0-5.45.09-9.18.2-11.9.34-29.31,1.26-39.27,3.6a13.46,13.46,0,0,0-7.79,4.47,10.26,10.26,0,0,0-2.15,6.78,14.22,14.22,0,0,0,2.83,7.92,12.83,12.83,0,0,0,6.81,4.87,94.39,94.39,0,0,0,26.43,3.42c8.51-.25,17.1-2.13,23.52-7.13a5,5,0,0,0,1.39-2c1.18-2.72,1.45-7.32,1.32-11.64-.09-2.89-.34-5.67-.57-7.73-.12-1-.23-1.87-.31-2.46s-.13-.91-.13-.91l.68-.11v0l.69-.11a100.85,100.85,0,0,1,1,11.28,46,46,0,0,1-.43,8.65,16,16,0,0,1-1,3.57,6.3,6.3,0,0,1-1.82,2.55c-6.77,5.27-15.65,7.17-24.33,7.43A95.65,95.65,0,0,1,152,227.65a14.18,14.18,0,0,1-7.56-5.38,15.68,15.68,0,0,1-3.1-8.71,11.67,11.67,0,0,1,2.45-7.68,14.89,14.89,0,0,1,8.56-5c10.2-2.38,27.6-3.28,39.54-3.63,7.49-.22,12.81-.22,12.81-.22h.6l.09.58-.69.11"/><path class="cls-3" d="M204.44,197.77s35.6-3.69,52.31-1.56,13.47,21.11,2.94,25.22-35,11.2-50.69,1.39c-5.71-3.57-4.56-25-4.56-25"/><path class="cls-3" d="M206,197.72l-.07-.69s15.45-1.64,30.55-2.08a136.91,136.91,0,0,1,20.27.57,14.09,14.09,0,0,1,9,4.31,12,12,0,0,1,2.95,7.76,16.15,16.15,0,0,1-2.29,8.63,13.86,13.86,0,0,1-6.59,5.87c-6.16,2.47-17.14,6-28.32,6.33-7.5.22-15.11-1-21.38-5a7,7,0,0,1-2.35-3.05,26.86,26.86,0,0,1-1.83-7.2,75.14,75.14,0,0,1-.62-8c-.12-4.2,0-7.45,0-7.46l0-.6.58-.06.07.69.67,0s0,.8-.07,2.12,0,3.16,0,5.23a63.57,63.57,0,0,0,1,10.35,20,20,0,0,0,1.29,4.27,5.6,5.6,0,0,0,1.85,2.46c5.94,3.84,13.28,5.06,20.62,4.84,10.93-.32,21.81-3.81,27.87-6.24a12.47,12.47,0,0,0,5.93-5.3,14.78,14.78,0,0,0,2.1-7.86,10.61,10.61,0,0,0-2.6-6.86,12.72,12.72,0,0,0-8.14-3.87,136.4,136.4,0,0,0-20.06-.56c-7.52.22-15.13.74-20.87,1.2-2.87.23-5.26.45-6.94.61l-2.64.26-.07-.69.67,0-.67,0"/><path class="cls-21" d="M267.94,214.13l-.13.05a17,17,0,0,1-1.06,2,14.18,14.18,0,0,1-6.81,5.87,103,103,0,0,1-12.13,3.85l.69.48a108.16,108.16,0,0,0,12.2-4.25c6.48-2.7,7.24-8,7.24-8m-126.39,1.28A16.1,16.1,0,0,0,147.7,226c1.38,1.08,5.23,2.61,10.57,3.91l.79-.56c-2.7-.53-5.08-1.11-7-1.65a14.18,14.18,0,0,1-7.56-5.38,15.85,15.85,0,0,1-2.92-6.86"/><path class="cls-22" d="M190,229.74a50.09,50.09,0,0,1-6.81,1.11l-.48,1.57a74.89,74.89,0,0,0,8.78-.77,16.77,16.77,0,0,1-1.49-1.91m33.91-1.51a9.44,9.44,0,0,1-.73,1.7c1,0,1.95,0,3,0,1.53-.05,3.13-.14,4.8-.28l-.5-1.17a55.07,55.07,0,0,1-6.55-.22M161,229.66l-.86.62a96,96,0,0,0,17.55,2.14l-.67-1.27a91.59,91.59,0,0,1-16-1.49m85-3.3a84.84,84.84,0,0,1-9.62,1.67l-.41,1a96.15,96.15,0,0,0,10.78-2.17l-.75-.52"/><path class="cls-23" d="M159.06,229.3l-.79.56,1.82.42.86-.62-1.89-.36m88.75-3.37-1.82.43.75.52,1.76-.47-.69-.48"/><path class="cls-24" d="M236.37,228l-.41,1c-1.73.25-3.41.43-5,.57l-.5-1.17h.27c1.9-.05,3.8-.2,5.67-.41"/><path class="cls-24" d="M183.16,230.85l-.48,1.57h-.09q-2.51.08-5,0l-.67-1.27,1.9,0q2.15-.06,4.29-.27"/><path class="cls-25" d="M205.69,219.11c.16.43.33.85.51,1.25a7,7,0,0,0,2.43,3,36.84,36.84,0,0,0,15.68,4.84,7,7,0,0,1-.47,1.69,68.84,68.84,0,0,1-18-2.26,51.83,51.83,0,0,1-15.57,4.2c-.17,0-.56-1.48-1-2.07,4.81-1.13,10-3.11,13.85-6.12a6.3,6.3,0,0,0,1.82-2.55,12.71,12.71,0,0,0,.67-2"/><path class="cls-22" d="M143.7,218c6.4,5.36,23.41,8.41,34.64,8.08a33.9,33.9,0,0,0,6.08-.65c9.87-2.14,18.77-4.42,19.73-7.36a5.59,5.59,0,0,1,.56-1.26,15,15,0,0,1-1,3.77,5,5,0,0,1-1.39,2c-6.41,5-15,6.88-23.51,7.13h0a94.39,94.39,0,0,1-26.43-3.42,12.83,12.83,0,0,1-6.81-4.87A14.66,14.66,0,0,1,143.7,218"/><path class="cls-23" d="M141.54,215.35A7.72,7.72,0,0,0,143.7,218a14.66,14.66,0,0,0,1.89,3.42,12.83,12.83,0,0,0,6.81,4.87,94.39,94.39,0,0,0,26.43,3.42h0c8.51-.25,17.1-2.13,23.51-7.13a5,5,0,0,0,1.39-2,15,15,0,0,0,1-3.77c.08-.11.15-.21.23-.3a22.39,22.39,0,0,0,.75,2.58,12.71,12.71,0,0,1-.67,2,6.3,6.3,0,0,1-1.82,2.55A33.91,33.91,0,0,1,190,229.74a50.09,50.09,0,0,1-6.81,1.11q-2.15.21-4.29.27l-1.9,0a91.59,91.59,0,0,1-16-1.49l-1.89-.36c-2.7-.53-5.08-1.11-7-1.65a14.18,14.18,0,0,1-7.56-5.38,15.85,15.85,0,0,1-2.92-6.86v-.06"/><path class="cls-22" d="M206.34,216.4a3.44,3.44,0,0,1,.79,1.42c1,3,8.34,4.55,18.89,4.25a119.62,119.62,0,0,0,13.58-1.24,148,148,0,0,0,26.32-6c-.11.21-.23.42-.36.62a12.81,12.81,0,0,1-6.13,5.31c-6.25,2.43-17.48,5.93-28.76,6.26h0c-7.58.23-15.16-1-21.29-4.82a5.62,5.62,0,0,1-1.91-2.46,18,18,0,0,1-1.12-3.37"/><path class="cls-26" d="M194.29,202.7l.22.1a6.82,6.82,0,0,0,5.15,3.07l4.06,0v.1l-.56,0a32,32,0,0,1-4.58-.15c-2.28-.26-4.29-3.17-4.29-3.17"/><path class="cls-26" d="M216.22,201.92c-.36.92-1.65,3.19-5.59,3.56-2,.19-3.84.35-5.52.45v0h.59c.67,0,1.71-.14,5.93-.61a6.53,6.53,0,0,0,4.59-3.34"/><path class="cls-27" d="M203.72,205.9h1.39v0c-.48,0-.94.06-1.39.07v-.1"/><path class="cls-28" d="M140.28,280.33l1.25.16h0l-1.24-.17"/><path class="cls-6" d="M102.31,129.21s-12-43.07-42-51.64S9.91,87.14,2.45,108.94s9.83,50.15,40.12,52.77l59.74-32.5"/><path class="cls-7" d="M101.61,129.41s0-.16-.14-.48a113,113,0,0,0-10.86-24.18C83.89,93.63,73.89,82.2,60.14,78.27a52.1,52.1,0,0,0-15.82-2.12,41.18,41.18,0,0,0-26.16,10.2,52.58,52.58,0,0,0-15,22.83,31.85,31.85,0,0,0-1.67,11.35C2,139.29,17.9,158.86,42.63,161a.72.72,0,1,1-.12,1.44C17,160.23.59,140.1,0,120.58A33.49,33.49,0,0,1,1.77,108.7,54,54,0,0,1,17.21,85.25,42.63,42.63,0,0,1,44.27,74.7a53.62,53.62,0,0,1,16.27,2.17c15.25,4.38,25.83,17.46,32.63,29.37A112.71,112.71,0,0,1,103,129a.73.73,0,0,1-1.4.39"/><path class="cls-6" d="M31.76,116.37s23.51,6,28.31,29l-28.31-29"/><path class="cls-6" d="M162.7,96.78s-32.89-8.42-30.41-38.23,37-42,37-42a42.13,42.13,0,0,0-21.37,33.49s8.6-11.65,29.24-16.73,40-9,46.21-32.65c0,0,16.42,33.95,10.88,58.47a46.37,46.37,0,0,1-8,17.94L162.7,96.78"/><path class="cls-7" d="M162.86,96.13l-.31-.08a52.29,52.29,0,0,1-15.83-7.93c-6.95-5.2-13.52-13.25-13.88-25.37a38.9,38.9,0,0,1,.12-4.14c1.22-14.64,10.31-25,19.17-31.69a74.68,74.68,0,0,1,12-7.39c1.62-.79,3-1.38,3.91-1.77l1.08-.43.37-.14-.22-.63L169,16a38.67,38.67,0,0,0-10.06,7.81A43,43,0,0,0,147.25,50a.67.67,0,0,0,1.2.46l0,0c.47-.61,9-11.58,28.85-16.45,10.31-2.54,20.35-4.79,28.67-9.42S220.87,12.83,224,.84l-.65-.17-.61.29s.18.36.49,1c2.16,4.75,10.89,25.08,11.44,44.15A51.68,51.68,0,0,1,233.59,59a45.63,45.63,0,0,1-7.91,17.67.68.68,0,0,0,.13.94.66.66,0,0,0,.94-.13,47.07,47.07,0,0,0,8.15-18.19A53.11,53.11,0,0,0,236,46.12C235.37,23.91,224,.42,224,.38A.69.69,0,0,0,223.3,0a.67.67,0,0,0-.58.5c-3.09,11.67-9.32,18.36-17.38,22.88s-18,6.75-28.34,9.29c-20.84,5.12-29.57,16.9-29.62,17l.54.4.66.06a41.76,41.76,0,0,1,11.33-25.42,42.32,42.32,0,0,1,6.73-5.75c.9-.61,1.64-1.06,2.15-1.35l.59-.32.15-.08.05,0a.67.67,0,0,0-.52-1.24,73.45,73.45,0,0,0-17.74,9.92c-9,6.83-18.43,17.48-19.69,32.65a36.81,36.81,0,0,0-.13,4.29c.4,13.46,8.21,22.17,15.84,27.43a52.87,52.87,0,0,0,15.19,7.21.67.67,0,1,0,.33-1.3"/><path class="cls-8" d="M224.7,5.33c-2.51,31.75-24.39,46-33.92,50.62A45.08,45.08,0,0,1,173,60.12c-1.41,0-2.24,0-2.24,0,5.72-3,8.52-10.53,8.52-10.53-9.74,9-13.43,7.1-27.4,16.73-9.54,6.58-11.92,12-12.47,14.79a38.79,38.79,0,0,0,7.28,7,52.29,52.29,0,0,0,15.83,7.93l.31.08a.68.68,0,0,1,.48.45,131,131,0,0,0,34.8-3.25c18.18-4.34,27.43-16,27.43-16a.68.68,0,0,1,.11-.61A45.63,45.63,0,0,0,233.59,59a51.68,51.68,0,0,0,1.1-12.85c-.47-16.07-6.73-33-10-40.82"/><path class="cls-9" d="M139.44,81.1a6.23,6.23,0,0,0-.12,2,41.5,41.5,0,0,0,8,7.15,52.87,52.87,0,0,0,15.19,7.21.62.62,0,0,0,.19,0,.68.68,0,0,0,.63-.5.77.77,0,0,0,0-.37.68.68,0,0,0-.48-.45l-.31-.08a52.29,52.29,0,0,1-15.83-7.93,38.79,38.79,0,0,1-7.28-7M224.87,2.41c0,1-.1,2-.17,2.92,3.26,7.78,9.52,24.75,10,40.82A51.68,51.68,0,0,1,233.59,59a45.63,45.63,0,0,1-7.91,17.67.68.68,0,0,0-.11.61.61.61,0,0,0,.24.33.64.64,0,0,0,.76,0c.17-.19.34-.39.5-.59a41.31,41.31,0,0,0,3-4.66c.22-.38.43-.78.63-1.18a50.51,50.51,0,0,0,4.24-11.92A53.11,53.11,0,0,0,236,46.12c-.39-13.13-4.53-26.7-7.85-35.62-1.79-4.57-3.31-8.09-3.31-8.09"/><path class="cls-8" d="M47.56,114c29.08,7.6,25.15,39.08,11.66,45.06-5.26,2.33-18.11,4-32.11-2.09a42.58,42.58,0,0,1-25-30.57c-.94-4.51,7.63-8.09,12.92-9.91S35.37,111.77,47.56,114Z"/><path class="cls-29" d="M31.74,115.62l.21,0a45.17,45.17,0,0,1,12.59,6A40,40,0,0,1,55.4,132.29c-.23.58-.45,1.17-.66,1.75a38,38,0,0,0-11.05-11.19,46.26,46.26,0,0,0-8.46-4.49c-1-.38-1.77-.67-2.38-.87l-.3-.1-.73-.22-.24-.07a.75.75,0,0,1-.55-.91.77.77,0,0,1,.71-.57"/><path class="cls-20" d="M206.41,195.56l0,.7s1.29-.08,3.49-.18,5.33-.24,9-.34c11.62-.35,28.65-.44,38.5,1.32a13,13,0,0,1,7.85,4,10.42,10.42,0,0,1,2.5,6.64,14.51,14.51,0,0,1-2.31,8.07,12.57,12.57,0,0,1-6.36,5.26A90.63,90.63,0,0,1,233.52,226c-8.32.24-16.8-1.14-23.35-5.76a5,5,0,0,1-1.47-1.92c-1.3-2.64-1.84-7.22-2-11.53-.08-2.9,0-5.69.11-7.76.05-1,.11-1.88.16-2.47s.07-.92.07-.92l-.67-.07,0,.7,0-.7-.68-.06a101.6,101.6,0,0,0-.34,11.32,47,47,0,0,0,.92,8.6,16.8,16.8,0,0,0,1.17,3.51,6.34,6.34,0,0,0,1.92,2.44c6.91,4.87,15.68,6.25,24.16,6a91.6,91.6,0,0,0,26-5,13.93,13.93,0,0,0,7.06-5.81,15.89,15.89,0,0,0,2.52-8.87,11.85,11.85,0,0,0-2.83-7.53,14.46,14.46,0,0,0-8.64-4.46c-10.08-1.79-27.1-1.68-38.77-1.34-7.31.21-12.5.52-12.5.52l-.58,0-.06.6.68.06"/><path class="cls-30" d="M192.76,196.66c1-.81,3-.84,6.82-.92,1.52,0,3.33-.08,5.47-.18,7.48-.41,10.82-1.15,12.34-.17s-.72,9.3-5.76,9.87c-4.22.47-5.26.57-5.93.61h-.23c-.67,0-1.57,0-5.81,0-5.08,0-8.34-8.06-6.9-9.21"/><path class="cls-31" d="M216.35,201.54a2.44,2.44,0,0,1-.13.38,6.53,6.53,0,0,1-4.59,3.34c-4.22.47-5.26.57-5.93.61h-2l-4.06,0a6.82,6.82,0,0,1-5.15-3.07,22.69,22.69,0,0,0,9.09,1.3l.89,0c6.69-.37,10.4-1.1,11.86-2.52"/><path class="cls-23" d="M267.81,214.18a17,17,0,0,1-1.06,2,14.18,14.18,0,0,1-6.81,5.87,103,103,0,0,1-12.13,3.85l-1.82.43a84.84,84.84,0,0,1-9.62,1.67c-1.87.21-3.77.36-5.67.41h-.27a55.07,55.07,0,0,1-6.55-.22,34.87,34.87,0,0,1-15.25-4.82,7,7,0,0,1-2.43-3c-.18-.4-.35-.82-.51-1.25a22.39,22.39,0,0,1-.75-2.58,1.08,1.08,0,0,1,.75-.41.92.92,0,0,1,.65.28,18,18,0,0,0,1.12,3.37,5.62,5.62,0,0,0,1.91,2.46c6.13,3.84,13.71,5.05,21.29,4.82h0c11.28-.33,22.51-3.83,28.76-6.26a12.81,12.81,0,0,0,6.13-5.31c.13-.2.25-.41.36-.62,1-.34,1.63-.58,1.89-.68"/><path class="cls-5" d="M229.87,278.58,299,219.37s-15.24-6-6.9-24.3,35.07-16,47.15-3.15-.87,35.74-29.9,52-78.21,47.81-78.21,47.81Z"/><path class="cls-8" d="M279.84,235.17l25.27-15c-4.4-.85-10.58-6.25-14-9.36a14.89,14.89,0,0,0,3.21,4.75,15.86,15.86,0,0,0,4.4,3.15h0l1.21.46-20.29,16.07Z"/></g></g></svg>