<svg xmlns="http://www.w3.org/2000/svg" xmlns:xlink="http://www.w3.org/1999/xlink" viewBox="0 0 367.64 323.53"><defs><style>.cls-1{fill:none;}.cls-2{fill:#fee367;}.cls-3{fill:#dba333;}.cls-4{fill:#e89f51;}.cls-5{fill:#ce7f38;}.cls-6{fill:#e7cdba;}.cls-7{fill:#f7bb4f;}.cls-8{fill:#c68325;}.cls-9{fill:#ba6628;}.cls-10{fill:#ed84e5;}.cls-11{fill:#d667d3;}.cls-12{fill:#fff;}.cls-13{fill:#fbe386;}.cls-14{fill:#d7911b;}.cls-15{fill:#ffe7ce;}.cls-16{fill:#efba89;}.cls-17{clip-path:url(#clip-path);}.cls-18{fill:#f0efef;}.cls-19{fill:#30b271;}.cls-20{fill:#ccaa53;}.cls-21{fill:#c0cbdd;}.cls-22{fill:#269769;}.cls-23{fill:#212120;}.cls-24{clip-path:url(#clip-path-2);}.cls-25{fill:#a0dbf0;}.cls-26{fill:#4a91cd;}.cls-27{fill:#fbbc56;}.cls-28{fill:#eba548;}.cls-29{fill:#dc8c38;}.cls-30{fill:#eaa66e;}.cls-31{fill:#b71a53;}.cls-32{fill:#212121;}.cls-33{fill:#e7a142;}.cls-34{fill:#e7aa78;}.cls-35{fill:#d89564;}.cls-36{fill:#a6153c;}.cls-37{fill:#e09e6b;}.cls-38{fill:#d28b59;}.cls-39{fill:#1d1915;}.cls-40{fill:#fbb22f;}</style><clipPath id="clip-path"><path class="cls-1" d="M81.23,135.1s5.14,5.76,35.29,8.49c27.11,2.46,28.78-11.44,27.4-15.75-4.08-12.79-12.58-25.08-28.3-26.51s-21.63,9.11-26.47,14c-5.7,5.7-7.92,19.8-7.92,19.8"/></clipPath><clipPath id="clip-path-2"><path class="cls-1" d="M254.07,146.31s-4.38,5.5-37.78,2.77c-30-2.46-31.77-17.22-29.57-21.22,6.54-11.89,17.83-22.49,35.25-21.07s22.16,12.89,26.66,18.55c5.3,6.65,5.44,21,5.44,21"/></clipPath></defs><title>Correct feedback</title><g id="Layer_2" data-name="Layer 2"><g id="Layer_4" data-name="Layer 4"><path class="cls-2" d="M284,69.64s8.83-35.56,33.12-43.29S358.64,33,365.26,50.64s-6.84,41.3-31.58,44.17S287.31,88.19,284,69.64"/><path class="cls-3" d="M284,69.64l.67.16s0-.13.1-.38a92.21,92.21,0,0,1,8.3-20c5.23-9.25,13.14-18.83,24.26-22.36a42.16,42.16,0,0,1,12.87-2.11,33.62,33.62,0,0,1,21.6,7.69,43.06,43.06,0,0,1,12.81,18.29,26.28,26.28,0,0,1,1.64,9.22c0,15.32-12.5,31.68-32.65,34a72.93,72.93,0,0,1-8.51.5c-10.39,0-19.82-2.31-27-6.6s-12-10.54-13.44-18.51l-.68.13.67.16-.67-.16-.69.12c1.5,8.4,6.68,15,14.1,19.45S314.49,96,325.09,96a75.57,75.57,0,0,0,8.67-.51c20.85-2.42,33.87-19.34,33.88-35.39a27.5,27.5,0,0,0-1.73-9.71,44.53,44.53,0,0,0-13.23-18.88,35,35,0,0,0-22.48-8,43.82,43.82,0,0,0-13.29,2.17c-12.43,4-20.79,15-26.07,24.88a92.07,92.07,0,0,0-7.52,18.9l0,.14,0,.15.69-.12"/><path class="cls-4" d="M339.87,57.49S318.34,63.62,314.53,85l25.34-27.49"/><path class="cls-5" d="M339.68,56.82a41.48,41.48,0,0,0-11.46,5.84,34.48,34.48,0,0,0-14.38,22.2.7.7,0,1,0,1.37.25A33.07,33.07,0,0,1,329,63.79a42.28,42.28,0,0,1,7.69-4.37c1-.45,1.86-.77,2.44-1l.67-.22.23-.07a.7.7,0,0,0-.38-1.34"/><path class="cls-6" d="M340.27,94.22a41.67,41.67,0,0,1-6.51,1.28c-2,.23-4,.39-5.95.46,1.78,0,3.67-.09,5.6-.21a26,26,0,0,0,6.86-1.53"/><path class="cls-7" d="M338.63,51c-9.94,0-20.63,4.91-27,8.41a102.36,102.36,0,0,1,6.83,13.45,36.69,36.69,0,0,1,9.73-10.16,41.48,41.48,0,0,1,11.46-5.84.58.58,0,0,1,.19,0,.7.7,0,0,1,.19,1.37l-.23.07-.67.22-.27.1-18.25,19.8a123.85,123.85,0,0,1,4.57,16.27,73,73,0,0,0,8.39-.5c18-2.09,29.93-15.4,32.24-29.14a35.47,35.47,0,0,0-22.5-13.62,26.19,26.19,0,0,0-4.71-.4"/><path class="cls-8" d="M365.84,65C363.53,78.72,351.63,92,333.6,94.12a73,73,0,0,1-8.39.5c.09.45.19.9.28,1.35h2.32c2-.07,3.95-.23,5.95-.46a41.67,41.67,0,0,0,6.51-1.28,47,47,0,0,0,20.88-15.53c5.42-7.51,5.38-12.67,5.38-12.67a12.36,12.36,0,0,0-.69-1"/><path class="cls-9" d="M339.87,56.79a.58.58,0,0,0-.19,0,41.48,41.48,0,0,0-11.46,5.84,36.69,36.69,0,0,0-9.73,10.16c.22.53.44,1.06.65,1.59A35.25,35.25,0,0,1,329,63.79a42.28,42.28,0,0,1,7.69-4.37c.87-.38,1.61-.67,2.17-.87l.27-.1.67-.22.23-.07a.7.7,0,0,0-.19-1.37"/><path class="cls-2" d="M285.18,54.62s4.64-21.09,10.6-31.69,20-20.1,36.33-12.7c0,0-15-3.86-20,10.05,0,0,25.18-10.82,40,4.08,0,0-17.55-2.53-26.72,4.2"/><path class="cls-3" d="M285.86,54.77s.07-.33.21-.92c.48-2.08,1.77-7.44,3.59-13.43s4.17-12.6,6.73-17.15A31.1,31.1,0,0,1,306,12.85,25.79,25.79,0,0,1,320.48,8.3a27.21,27.21,0,0,1,11.34,2.57l.29-.64.17-.67A21.39,21.39,0,0,0,327.5,9a18.49,18.49,0,0,0-8.63,2,15.74,15.74,0,0,0-7.4,9l-.54,1.5,1.47-.63.38-.16a53.79,53.79,0,0,1,18.44-3.58c7,0,14.52,1.77,20.38,7.67l.49-.49.1-.68a57.93,57.93,0,0,0-7.77-.48c-5.93,0-14,.8-19.46,4.8l.83,1.12c5-3.68,12.83-4.54,18.63-4.53,2.19,0,4.09.12,5.44.23l1.58.16.56.07,2.05.3-1.46-1.47c-6.21-6.26-14.18-8.09-21.37-8.09a54.83,54.83,0,0,0-19.37,3.85l.27.64.66.23a14.32,14.32,0,0,1,6.74-8.24,17,17,0,0,1,8-1.84,21.52,21.52,0,0,1,3.21.24c.4.06.71.12.92.17l.23.05.08,0,.46-1.31a28.76,28.76,0,0,0-11.92-2.69,27.23,27.23,0,0,0-15.24,4.79,32.38,32.38,0,0,0-10.06,10.89c-3,5.4-5.69,13.34-7.6,20s-3.07,11.9-3.08,11.91l1.36.3Z"/><path class="cls-10" d="M278.12,45a15.07,15.07,0,1,0,15.07-15.07A15.07,15.07,0,0,0,278.12,45Z"/><path class="cls-11" d="M278.12,45h-.7a15.77,15.77,0,1,0,15.77-15.77A15.76,15.76,0,0,0,277.42,45h1.39A14.37,14.37,0,1,1,283,55.12,14.36,14.36,0,0,1,278.81,45Z"/><path class="cls-10" d="M290.7,56.11A15.08,15.08,0,1,0,305.78,41,15.08,15.08,0,0,0,290.7,56.11Z"/><path class="cls-11" d="M290.7,56.11H290a15.77,15.77,0,1,0,15.77-15.77A15.77,15.77,0,0,0,290,56.11h1.39a14.37,14.37,0,1,1,4.21,10.17,14.36,14.36,0,0,1-4.21-10.17Z"/><path class="cls-12" d="M305,48.49a4,4,0,1,0,4-4A4,4,0,0,0,305,48.49Z"/><path class="cls-12" d="M290.37,34.83a2.9,2.9,0,1,0,2.9-2.9A2.9,2.9,0,0,0,290.37,34.83Z"/><path class="cls-2" d="M84.33,65.44S75.5,29.89,51.21,22.16,9.69,28.79,3.07,46.45s6.84,41.3,31.58,44.17S81,84,84.33,65.44"/><path class="cls-3" d="M84.33,65.44l.68-.16a92.26,92.26,0,0,0-7.52-18.91C72.2,36.45,63.84,25.46,51.42,21.5a43.86,43.86,0,0,0-13.3-2.18,35.06,35.06,0,0,0-22.47,8A44.4,44.4,0,0,0,2.42,46.21,27.5,27.5,0,0,0,.69,55.92c0,16,13,33,33.88,35.39a75.57,75.57,0,0,0,8.67.51c10.6,0,20.26-2.35,27.68-6.81S83.52,74,85,65.57l0-.15,0-.14-.68.16-.68-.12c-1.43,8-6.3,14.2-13.45,18.5s-16.57,6.61-27,6.61a75.05,75.05,0,0,1-8.51-.5C14.58,87.6,2.08,71.24,2.08,55.92A26.05,26.05,0,0,1,3.72,46.7,43.06,43.06,0,0,1,16.53,28.41a33.62,33.62,0,0,1,21.59-7.7A42.48,42.48,0,0,1,51,22.82C62.86,26.59,71.06,37.24,76.27,47a93.89,93.89,0,0,1,5.65,13c.59,1.71,1,3.12,1.32,4.1.14.48.25.86.32,1.12s.1.39.1.39l.67-.17-.68-.12.68.12"/><path class="cls-4" d="M28.46,53.3S50,59.43,53.8,80.79L28.46,53.3"/><path class="cls-5" d="M28.27,54l.22.06A41,41,0,0,1,40.38,60.4,32.77,32.77,0,0,1,53.12,80.91a.7.7,0,1,0,1.37-.24,34.47,34.47,0,0,0-14.38-22.2,40.81,40.81,0,0,0-11.46-5.84.69.69,0,0,0-.86.48.7.7,0,0,0,.48.86"/><path class="cls-7" d="M29.69,46.76a26.35,26.35,0,0,0-4.71.41A35.48,35.48,0,0,0,2.49,60.78C4.8,74.53,16.7,87.84,34.73,89.93a75.05,75.05,0,0,0,8.51.5l1.48,0A130.86,130.86,0,0,1,49,75.56L29.44,54.35l-1-.32L28.27,54a.7.7,0,0,1,.19-1.37.63.63,0,0,1,.19,0,40.81,40.81,0,0,1,11.46,5.84,36.22,36.22,0,0,1,10.82,12,96,96,0,0,1,7.31-14.41c-6-3.47-17.72-9.3-28.55-9.3"/><path class="cls-8" d="M2.49,60.78c-.47.66-1.07,1.64-1.07,1.64s0,5,5.41,12.55A37.78,37.78,0,0,0,28.05,90a39.61,39.61,0,0,0,6.52,1.29c2,.23,4,.38,5.94.46h1.58l2.34,0c.09-.45.19-.9.29-1.35l-1.48,0a75.05,75.05,0,0,1-8.51-.5C16.7,87.84,4.8,74.53,2.49,60.78"/><path class="cls-9" d="M28.46,52.6A.7.7,0,0,0,28.27,54l.22.06,1,.32a42.13,42.13,0,0,1,10.94,6,34.21,34.21,0,0,1,9.87,11.77c.22-.57.44-1.14.68-1.7a36.22,36.22,0,0,0-10.82-12,40.81,40.81,0,0,0-11.46-5.84.63.63,0,0,0-.19,0"/><path class="cls-2" d="M83.15,50.43s-4.64-21.09-10.6-31.69S52.56-1.36,36.22,6c0,0,15-3.87,20,10.05,0,0-25.17-10.82-40,4.08,0,0,17.56-2.54,26.72,4.2"/><path class="cls-3" d="M83.82,50.28S82.66,45,80.75,38.36s-4.56-14.56-7.6-20A32.58,32.58,0,0,0,63.09,7.51,27.27,27.27,0,0,0,47.84,2.72,28.75,28.75,0,0,0,35.93,5.41l.46,1.3h.07a19.86,19.86,0,0,1,4.36-.46,16.94,16.94,0,0,1,8,1.84,14.3,14.3,0,0,1,6.75,8.24l.65-.23.28-.64A54.59,54.59,0,0,0,37.1,11.6c-7.18,0-15.16,1.83-21.36,8.08l-1.46,1.48,2-.3.56-.07a62,62,0,0,1,7-.39c5.81,0,13.66.85,18.64,4.53l.83-1.12C37.9,19.81,29.84,19,23.9,19a61.68,61.68,0,0,0-7.77.47l.1.69.5.49C22.59,14.75,30.14,13,37.1,13a51.2,51.2,0,0,1,13.22,1.87c1.73.47,3.14.94,4.11,1.29.49.17.86.32,1.12.42l.38.16,1.47.63-.54-1.51a15.75,15.75,0,0,0-7.4-9,18.38,18.38,0,0,0-8.64-2A20.81,20.81,0,0,0,36,5.37l.18.67.28.63A27.41,27.41,0,0,1,47.84,4.11,25.83,25.83,0,0,1,62.31,8.66a31.11,31.11,0,0,1,9.63,10.42c2.93,5.2,5.58,13.1,7.47,19.67,1,3.29,1.72,6.25,2.24,8.38.27,1.07.47,1.93.61,2.53s.21.91.21.92l1.35-.3Z"/><path class="cls-10" d="M90.21,40.76A15.07,15.07,0,1,1,75.14,25.69,15.08,15.08,0,0,1,90.21,40.76Z"/><path class="cls-11" d="M90.21,40.76h-.69A14.37,14.37,0,1,1,85.31,30.6a14.33,14.33,0,0,1,4.21,10.16h1.39A15.77,15.77,0,1,0,75.14,56.53,15.77,15.77,0,0,0,90.91,40.76Z"/><path class="cls-10" d="M77.63,51.92A15.08,15.08,0,1,1,62.55,36.85,15.08,15.08,0,0,1,77.63,51.92Z"/><path class="cls-11" d="M77.63,51.92h-.7a14.37,14.37,0,1,1-4.21-10.17,14.32,14.32,0,0,1,4.21,10.17h1.39A15.77,15.77,0,1,0,62.55,67.68,15.77,15.77,0,0,0,78.32,51.92Z"/><path class="cls-12" d="M63.38,44.3a4,4,0,1,1-4-4A4,4,0,0,1,63.38,44.3Z"/><path class="cls-12" d="M78,30.63a2.9,2.9,0,1,1-2.9-2.89A2.9,2.9,0,0,1,78,30.63Z"/><path class="cls-2" d="M215.34,215.69l70.1,77s28.87-17.56,32.48,9.48c2.67,20.05-19.61,23.83-33.18,12.18-5.44-4.67-80.66-81.63-80.66-81.63l11.26-17.06"/><path class="cls-3" d="M215.34,215.69l-.51.47,70.48,77.45.49-.3.39-.23c1.84-1.05,9.8-5.29,17.13-5.27a12.78,12.78,0,0,1,8.75,3c2.46,2.16,4.38,5.75,5.16,11.52a24.37,24.37,0,0,1,.21,3.11c0,5-1.8,8.69-4.61,11.14a16.61,16.61,0,0,1-11,3.7,26.08,26.08,0,0,1-16.66-6.39c-.64-.55-2.42-2.27-5-4.82-9-8.92-27.92-28.11-44.57-45.08-8.33-8.48-16.09-16.4-21.77-22.2l-6.77-6.92-2.51-2.57-.5.49.58.38,11.26-17-.58-.39-.51.47.51-.47-.58-.38-11.57,17.52.39.4s18.81,19.24,38.3,39.07c9.74,9.91,19.65,20,27.47,27.84,3.91,3.94,7.29,7.33,9.87,9.88s4.35,4.26,5.07,4.88a27.38,27.38,0,0,0,17.56,6.73,18,18,0,0,0,11.89-4c3.13-2.71,5.1-6.82,5.09-12.19a23.66,23.66,0,0,0-.23-3.29c-.79-6-2.83-9.95-5.61-12.39a14.18,14.18,0,0,0-9.67-3.3,33.94,33.94,0,0,0-12.46,2.85,46.5,46.5,0,0,0-5.78,2.85l.36.6.51-.47-70.7-77.68-.49.74.58.38"/><path class="cls-13" d="M315.69,315.79l-.23,0c-.32.39-.66.76-1,1.12a15.35,15.35,0,0,0,1.25-1.15"/><path class="cls-7" d="M226.17,254.31l9.46,9.64c16.65,17,35.56,36.16,44.57,45.08,2.57,2.55,4.35,4.27,5,4.82a26,26,0,0,0,16.65,6.39h0a16.61,16.61,0,0,0,11-3.7c.2-.18.4-.36.59-.55-.77.05-1.73.08-2.83.08-5.63,0-15-.92-23.64-6.07-5.58-3.35-39.3-35.2-60.78-55.69"/><path class="cls-14" d="M220.65,249l0,1.08c8,8.38,18.92,19.69,29.47,30.58,6.92,7,13.6,13.8,19.2,19.44,3.91,3.94,7.29,7.33,9.87,9.88s4.35,4.26,5.07,4.88a25.17,25.17,0,0,0,17.11,6.31,20.55,20.55,0,0,0,13-4.27c.36-.36.7-.73,1-1.12-.34,0-1,.11-2,.17-.19.19-.39.37-.59.55a16.61,16.61,0,0,1-11,3.7h0a26,26,0,0,1-16.65-6.39c-.64-.55-2.42-2.27-5-4.82-9-8.92-27.92-28.11-44.57-45.08l-9.46-9.64c-2-1.86-3.8-3.63-5.52-5.27"/><path class="cls-2" d="M221.24,323.53c.73-9.18.21-17.21-.7-30.24-1.52-21.59.55-23-.38-38.89-.9-15.33,1.52-37.45-15.48-52.12s-32.32-7.2-42.63.31c-5.37,3.91-13.05,15.89-22,38.82-4,10.19-10.29,29.26-13.75,36.92-4.87,15.77-9.45,31.26-10.91,45.2Z"/><path class="cls-3" d="M116.1,323.53c1.47-13.81,6-29.23,10.86-44.95,1.75-3.89,4.18-10.55,6.68-17.53s5.09-14.31,7.07-19.39A190.1,190.1,0,0,1,153,215.22c3.67-6.31,6.91-10.22,9.46-12.06,5.94-4.34,13.5-8.59,22-8.59,6.11,0,12.75,2.19,19.78,8.24,8.35,7.21,11.92,16.22,13.55,25.4s1.24,18.51,1.69,26.23c.18,3.12.25,5.68.25,7.94,0,5.89-.45,9.81-.45,16.48,0,3.71.14,8.27.57,14.48.62,8.75,1,15.23,1,21.3,0,3-.11,5.87-.35,8.89h1.4c.24-3,.34-5.91.34-8.89,0-6.14-.44-12.65-1.05-21.4l-.69.05.69-.05c-.43-6.18-.57-10.7-.57-14.38,0-6.6.45-10.51.45-16.48,0-2.29-.07-4.88-.25-8-.45-7.62-.07-17-1.72-26.39s-5.35-18.75-14-26.21c-7.22-6.24-14.24-8.58-20.69-8.58-9,0-16.77,4.45-22.81,8.85-2.82,2.06-6.1,6.09-9.84,12.49a191.09,191.09,0,0,0-12.39,26.64c-2,5.11-4.57,12.43-7.07,19.42s-5,13.68-6.67,17.47v0l0,0c-4.88,15.8-9.47,31.35-10.93,45.4Z"/><path class="cls-15" d="M220.55,323.53A248.55,248.55,0,0,0,218,291.87c-2-14.46,2.12-60.11-6.5-69.36-9.26-9.93-33.85-10.26-37.2-8-22.79,15.62-9.6,57.46-19,74.57-2.64,4.78-9.41,20.26-14,34.41Z"/><path class="cls-16" d="M142,323.53c1.86-5.76,4.08-11.73,6.24-17.1,3.1-7.73,6.08-14.23,7.59-17,2.44-4.44,3.38-10.35,3.83-17,.66-9.91.21-21.44,1.72-31.9a50.34,50.34,0,0,1,4.07-14.53,27.14,27.14,0,0,1,9.18-10.94,7.35,7.35,0,0,1,2.66-.74,36.08,36.08,0,0,1,5.09-.31,61.72,61.72,0,0,1,15.32,2c5.27,1.4,10.19,3.66,13.24,6.94,2,2.07,3.35,6.58,4.19,12.33,1.28,8.63,1.44,20.07,1.47,30.69s-.1,20.43.65,26a247.49,247.49,0,0,1,2.57,31.56h1.39a249.31,249.31,0,0,0-2.58-31.75,137.22,137.22,0,0,1-.63-15.55c0-9.68.11-21.39-.54-31.57a94.15,94.15,0,0,0-1.71-13.7c-.86-3.9-2-7-3.8-8.92-3.34-3.58-8.48-5.89-13.89-7.34a63.41,63.41,0,0,0-15.68-2,37.71,37.71,0,0,0-5.29.33,8.44,8.44,0,0,0-3.25,1c-5.84,4-9.38,9.71-11.52,16.19-3.22,9.73-3.38,21.26-3.65,32s-.64,20.51-4.05,26.67A232.39,232.39,0,0,0,143.87,314c-1.16,3.16-2.27,6.37-3.28,9.52Z"/><path class="cls-7" d="M184.83,289.21c-6.2.27-13.64,2.53-22.28,8.34a82.2,82.2,0,0,1,19.27-2.11,88.49,88.49,0,0,1,10.33.6l-7.32-6.83"/><path class="cls-2" d="M186.62,234c74.84-3.65,124.29-32.19,134.5-64.55s12.27-92-24.37-127.9C268.36,13.73,217.27.7,188.32.7s-86,9.75-118.57,41.93S38.33,138.82,46.38,160.27C56.6,187.52,116.79,237.42,186.62,234"/><path class="cls-3" d="M186.62,234l0,.69c37.5-1.83,68.67-9.89,91.77-21.58s38.17-27,43.37-43.45A152.68,152.68,0,0,0,328.26,125c0-28.82-7.75-61.06-31-83.89C282.93,27.05,263,16.8,243,10S202.9,0,188.32,0s-36.1,2.45-58.12,8.93-44.53,17-60.94,33.21C47.81,63.36,40.93,98,40.92,125.56c0,14.7,2,27.36,4.81,35,2.52,6.72,8,14.69,15.75,22.9C84.85,208,129.37,234.87,179.8,234.88c2.27,0,4.56-.06,6.85-.17l0-.69,0-.7q-3.41.17-6.78.17c-33.28,0-64.05-11.84-87.72-27a159.57,159.57,0,0,1-29.59-24.07c-7.7-8.11-13.05-16-15.46-22.43-2.76-7.33-4.73-19.9-4.72-34.47,0-27.32,6.9-61.68,27.93-82.43,16.16-16,38.47-26.43,60.35-32.87s43.33-8.87,57.73-8.87,34.34,3.24,54.2,10,39.66,16.9,53.74,30.71c22.91,22.46,30.61,54.32,30.61,82.9a151.15,151.15,0,0,1-6.41,44.3c-5,15.92-19.78,31.05-42.67,42.63s-53.86,19.61-91.21,21.43l0,.7"/><g class="cls-17"><path class="cls-18" d="M81.23,135.1s3.57,6.46,33.72,9.19c27.11,2.46,30.35-12.14,29-16.45-4.08-12.79-12.58-25.08-28.3-26.51s-21.63,9.11-26.47,14c-5.7,5.7-7.92,19.8-7.92,19.8"/><path class="cls-19" d="M134.71,129.12c-.67,9-7.76,15.63-15.85,14.9s-14.11-8.59-13.45-17.56,7.76-15.63,15.85-14.9,14.11,8.6,13.45,17.56"/><path class="cls-20" d="M144.15,130.59a12.58,12.58,0,0,1-3.14,7.08l.18.28a11.48,11.48,0,0,0,2.88-5.68,13.22,13.22,0,0,0,.08-1.68"/><path class="cls-21" d="M110.82,102.76a24.93,24.93,0,0,0-12.77,3.4c-3.91,3-6.53,6.76-8.9,9.14-2.58,2.58-4.44,6.88-5.71,10.81-.4,2-1.22,4.53-1.73,6.5-.22,1-.36,1.78-.43,2.18,0,.13,0,.26,0,.36a3.31,3.31,0,0,0,.51.42c.87-.55,3.13-3.44,7.27-6.34A35.34,35.34,0,0,1,106,123c1.86-6.75,7.53-11.51,14-11.51.4,0,.81,0,1.22,0,8.09.74,14.11,8.6,13.45,17.56,0,.55-.11,1.08-.2,1.61a32.73,32.73,0,0,1,6.5,6.94,12.58,12.58,0,0,0,3.14-7.08,8.35,8.35,0,0,0-.14-1.51,50.45,50.45,0,0,0-1.63-5.5A40.17,40.17,0,0,0,132,108.25c-4.06-2.33-12.71-4.75-20.83-5.49h-.32"/><path class="cls-22" d="M120,111.51c-6.51,0-12.18,4.76-14,11.51a41.27,41.27,0,0,1,4.4-.22c1.38,0,2.82.06,4.32.19a36.3,36.3,0,0,1,19.79,7.74c.09-.53.16-1.06.2-1.61.66-9-5.36-16.82-13.45-17.56-.41,0-.82,0-1.22,0"/><path class="cls-12" d="M128.87,121.09a2.79,2.79,0,0,1-2.89,2.73,2.9,2.9,0,0,1-2.46-3.21,2.79,2.79,0,0,1,2.9-2.73A2.9,2.9,0,0,1,128.87,121.09Z"/></g><path class="cls-23" d="M144,129.08c-5.35-20.09-20.78-24.79-29-25.53-26.77-3-33.57,32.09-33.57,32.09a13.57,13.57,0,0,1-6.9-4.43,3.24,3.24,0,0,1,3-5.37l1.16.24C81.45,113.61,93,95.53,115.32,97.55c18.43,1.67,26.06,20.79,28.15,27.34A12.36,12.36,0,0,1,144,129.08Z"/><g class="cls-24"><path class="cls-18" d="M254.07,146.31s-3.86,10.72-37.26,8c-30-2.45-32.29-22.44-30.09-26.44,6.54-11.89,17.83-22.49,35.25-21.07s22.16,12.89,26.66,18.55c5.3,6.65,5.44,21,5.44,21"/><path class="cls-19" d="M201.05,131.74a16.32,16.32,0,1,0,17.6-14.94,16.32,16.32,0,0,0-17.6,14.94"/><path class="cls-20" d="M186.17,129.88l-.09.37a9.81,9.81,0,0,0,.06,1.93,12.39,12.39,0,0,1,0-2.3"/><path class="cls-21" d="M219.78,108.74c-6.77,0-13.2.76-16.81,1.93a40.24,40.24,0,0,0-13.87,13.26,48.29,48.29,0,0,0-2.67,5.13,4.82,4.82,0,0,0-.26.82,12.39,12.39,0,0,0,0,2.3,12.58,12.58,0,0,0,2.37,5.72,35.75,35.75,0,0,1,12.7-7.46,16.32,16.32,0,0,1,16.09-13.7q.67,0,1.35.06a16.33,16.33,0,0,1,14.91,14.58c13.71,5.14,18.62,14.62,19.95,15.38a3.09,3.09,0,0,0,.49-.38,2.12,2.12,0,0,0,.06-.4c0-.41,0-1.18-.11-2.21-.23-2-.72-4.71-.83-6.74-.75-4.11-2.09-8.68-4.49-11.69-2.2-2.77-4.46-6.93-8.24-10.62A30.07,30.07,0,0,0,226.63,109c-2.26-.19-4.57-.27-6.85-.27"/><path class="cls-22" d="M217.3,116.74a16.32,16.32,0,0,0-16.09,13.7,42.92,42.92,0,0,1,14.09-2.28c1.33,0,2.71.05,4.13.17a52,52,0,0,1,14.13,3,16.33,16.33,0,0,0-14.91-14.58q-.68-.06-1.35-.06"/><path class="cls-12" d="M208.44,125.39a3,3,0,1,0,3.22-2.73A3,3,0,0,0,208.44,125.39Z"/></g><path class="cls-23" d="M186.43,129.06c9.11-18.86,26.74-20.72,35.8-20,29.75,1.85,31.48,37.71,31.48,37.71a15.06,15.06,0,0,0,7.91-2.88,3.33,3.33,0,0,0-1.92-6.09l-1.48,0c-.89-12.79-10.62-32.71-35.3-34.73-20.35-1.67-31.79,15.68-35.18,21.84A11,11,0,0,0,186.43,129.06Z"/><path d="M106.15,75.82c2.11-3.59,4.82-5.23,8.47-7.45a21.17,21.17,0,0,1,12.78-3.14,18.18,18.18,0,0,1,11.83,6.17c2.9,3.28,4.16,6.21,5.93,9.92a43.56,43.56,0,0,0-8.27-9.44A18.68,18.68,0,0,0,127.48,68a24.7,24.7,0,0,0-10.38,1.55C113.56,70.8,109.82,73.93,106.15,75.82Z"/><path d="M230.34,82.4c-3.11-2.81-6.12-6.54-9.33-8.52s-6.48-2.15-9.82-2.25-7,0-10.3,1.75-7.93,4.62-10,7.21c3.12-4,4.27-5.68,7.68-8.43a19.29,19.29,0,0,1,12.71-4.52,19,19,0,0,1,12.35,5.49A32.65,32.65,0,0,1,230.34,82.4Z"/><path class="cls-25" d="M16.87,193.74s8.43,24-16.35,31.16c0,0,30.15-11.49,38.07,5.37,0,0-2.3-29.89,2.55-32.19C41.14,198.08,21,198.59,16.87,193.74Z"/><path class="cls-26" d="M16.87,193.74l-.49.17.05.17a30.13,30.13,0,0,1,1.3,8.76,22.06,22.06,0,0,1-3.25,12C12,218.76,7.65,222.3.38,224.4l.14.5.19.49.44-.16c2-.72,10.77-3.63,19.41-3.63a25.49,25.49,0,0,1,10.3,1.88,13.93,13.93,0,0,1,7.25,7,.52.52,0,0,0,1-.26s-.13-1.76-.27-4.46-.27-6.35-.27-10.1a84.69,84.69,0,0,1,.61-11.26,20.43,20.43,0,0,1,.92-4,3.22,3.22,0,0,1,1.27-1.84.53.53,0,0,0,.29-.59.52.52,0,0,0-.52-.4s-.6,0-1.63,0a98.4,98.4,0,0,1-11.81-.68,37,37,0,0,1-6.39-1.29,8.72,8.72,0,0,1-4-2.21.52.52,0,0,0-.66-.11.51.51,0,0,0-.23.62l.49-.17-.4.33A9.76,9.76,0,0,0,21,196.61c5.82,1.82,14.82,2,18.51,2,1,0,1.65,0,1.65,0v-.52l-.22-.47a4.08,4.08,0,0,0-1.8,2.42,27.67,27.67,0,0,0-1.27,6.84c-.24,2.74-.33,5.8-.33,8.8,0,7.55.55,14.63.55,14.64l.52,0,.47-.22a15.1,15.1,0,0,0-7.78-7.53,26.68,26.68,0,0,0-10.72-2c-10.13,0-20.19,3.85-20.22,3.86a.51.51,0,0,0-.31.65.51.51,0,0,0,.64.33c7.47-2.15,12-5.85,14.69-10a23.09,23.09,0,0,0,3.41-12.56,30.72,30.72,0,0,0-1.41-9.27l-.49.17-.4.33Z"/><path class="cls-25" d="M251.22,263.35s19,14.61,19.48,20.37c0,0,17.27-25.24,24.79-26.56,0,0-19.48-3.55-21.69-11.07C273.8,246.09,271.14,258.93,251.22,263.35Z"/><path class="cls-26" d="M251.22,263.35l-.32.42s.3.22.82.63c1.82,1.43,6.38,5.1,10.52,9a60.11,60.11,0,0,1,5.49,5.82c1.46,1.82,2.39,3.48,2.45,4.52a.52.52,0,0,0,.39.46.5.5,0,0,0,.56-.21l.75-1.08c1.7-2.42,6.06-8.49,10.8-14.08a79.35,79.35,0,0,1,7.11-7.52c2.26-2,4.35-3.42,5.79-3.66a.52.52,0,0,0,0-1l-.83-.16a69.69,69.69,0,0,1-11-3.25,28.87,28.87,0,0,1-6.09-3.19,8.34,8.34,0,0,1-3.35-4.1.52.52,0,0,0-.52-.37.52.52,0,0,0-.49.41v0a17.68,17.68,0,0,1-4,7.06c-3.14,3.6-8.63,7.65-18.18,9.77a.53.53,0,0,0-.21.93l.32-.42.12.51c10.06-2.23,15.82-6.62,19-10.47a18,18,0,0,0,3.93-7.2l-.51-.1-.5.14c.62,2.08,2.35,3.77,4.54,5.2a44.24,44.24,0,0,0,11.23,4.71c3.57,1,6.32,1.53,6.33,1.53l.09-.51-.09-.52a9.3,9.3,0,0,0-3.43,1.61c-4.27,2.94-9.66,9.21-14,14.77s-7.66,10.4-7.67,10.4l.43.3.52,0a6.7,6.7,0,0,0-1-2.75c-2.05-3.44-6.69-7.9-10.84-11.54s-7.81-6.45-7.81-6.45l-.32.41.12.51Z"/><path class="cls-2" d="M269.94,323.53c0-.07,0-.12,0-.19-3.61-27-32.48-9.48-32.48-9.48L158.72,237,147.46,254s51,46.73,76,69.53Z"/><path class="cls-3" d="M189.59,293.52c10.82,9.9,21.82,20,30.44,27.81l2.41,2.2h2.07L221,320.3c-12.94-11.79-31.2-28.49-46.22-42.25L155.7,260.61,150,255.39l-1.64-1.5L158.84,238l78.5,76.71.46-.28.4-.23c1.83-1.06,9.79-5.29,17.13-5.28a12.85,12.85,0,0,1,8.75,3c2.46,2.16,4.38,5.75,5.15,11.53,0,0,0,.06,0,.09h1.4a2.66,2.66,0,0,1,0-.28c-.8-6-2.84-9.94-5.61-12.38a14.28,14.28,0,0,0-9.67-3.31,33.85,33.85,0,0,0-12.46,2.86,47.43,47.43,0,0,0-5.32,2.58l-78.94-77.14-.47.7-11.58,17.55.43.4S168,273.73,189.59,293.52Z"/><path class="cls-27" d="M182.6,287.13l2.23,2.08h0l-2.27-2.07"/><path class="cls-27" d="M192.15,296c8.64,8,19,17.71,27.7,25.66,0-.18,0-.36,0-.55-7.86-7.16-17.64-16.1-27.47-25.09l-.22,0"/><path class="cls-28" d="M219.84,321.15c0,.19,0,.37,0,.55l1.4,1.29v-.55L220,321.33l-.19-.18"/><path class="cls-29" d="M184.87,289.2h0l7.32,6.83.22,0-2.78-2.54-4.72-4.32"/><path class="cls-7" d="M224.51,323.53h4.12C219,316,205,304.66,193.7,295.39c9.77,8.94,19.48,17.82,27.27,24.91Z"/><path class="cls-14" d="M184.87,289.2l4.72,4.32,2.78,2.54c9.83,9,19.61,17.93,27.47,25.09l.19.18,1.22,1.11.72.66c.16.14.32.28.47.43h2.07L221,320.3c-7.79-7.09-17.5-16-27.27-24.91-10.65-8.72-18.93-15.59-18.93-15.59l7.83,7.33Z"/><path class="cls-2" d="M157.53,260s3.55-24.36,2.9-24.36c-.3,0-10.58-.56-10.58-.56s-4,19.67-6.1,23.92,13.78,1,13.78,1"/><path class="cls-15" d="M300.75,198s-40.14,5.57-67.84-4.7S192,162.09,167.45,162.7c-38.19,1-53,24.11-64.08,28.4a234.69,234.69,0,0,1-23.49,7.77s34.65,27,65.15,31.81,63.29,2.56,92.53-3.05c39.36-7.55,63.19-29.63,63.19-29.63"/><path class="cls-30" d="M300.75,198l-.1-.69-1.9.23a213.2,213.2,0,0,1-23.2,1.27c-13.16,0-29.25-1.28-42.4-6.16-13.54-5-23.61-12.62-33.35-19S180.65,162,168.5,162h-1.07c-19.23.48-32.65,6.57-42.58,13.07-5,3.24-9.07,6.59-12.61,9.37s-6.51,5-9.12,6c-6.54,2.54-12.4,4.48-16.62,5.78-2.11.65-3.81,1.14-5,1.47l-1.81.5a.69.69,0,0,0-.51.53.73.73,0,0,0,.25.69,220.56,220.56,0,0,0,21.21,14.16c12.52,7.37,28.86,15.36,44.26,17.79A228.56,228.56,0,0,0,180.31,234a307.11,307.11,0,0,0,57.38-5.69c39.56-7.59,63.47-29.76,63.53-29.8a.7.7,0,0,0-.57-1.2l.1.69-.48-.51-.26.24c-2.71,2.4-25.86,22.17-62.58,29.22a306.27,306.27,0,0,1-57.12,5.66A226.86,226.86,0,0,1,145.14,230c-15.1-2.36-31.34-10.28-43.77-17.61-6.22-3.67-11.49-7.18-15.2-9.78-1.86-1.3-3.32-2.37-4.33-3.12l-1.14-.86-.39-.3-.43.55.18.67a234.6,234.6,0,0,0,23.56-7.79c2.91-1.14,5.93-3.42,9.48-6.22,10.64-8.37,25.94-21.42,54.37-22.14h1c11.72,0,20.85,5,30.54,11.4s19.87,14.07,33.63,19.17c13.42,5,29.63,6.25,42.88,6.25a205.2,205.2,0,0,0,25.29-1.51l-.09-.69-.48-.51.48.51"/><polyline class="cls-12" points="129.01 175.47 134.35 187.73 138.45 177.31 129.01 175.47"/><polyline class="cls-12" points="192.9 177.21 187.02 189.21 183.39 178.62 192.9 177.21"/><path class="cls-31" d="M143.23,178.14l19.1-10.79,16.51,11s-3.61,10.8-17.7,10.48c-18-.4-17.91-10.69-17.91-10.69"/><path class="cls-15" d="M161.91,149.25s35.78-1.06,52.29,2.3,11.88,22.06,1.06,25.38-35.73,8.58-50.64-2.36c-5.44-4-2.71-25.32-2.71-25.32"/><path class="cls-30" d="M161.91,149.25l0,.69s1.33,0,3.59-.08,5.45-.08,9.18-.08c11.9,0,29.33.41,39.36,2.45a13.5,13.5,0,0,1,7.91,4.25,10.23,10.23,0,0,1,2.35,6.72,14.23,14.23,0,0,1-2.59,8,12.87,12.87,0,0,1-6.67,5.07,94.39,94.39,0,0,1-26.31,4.19c-8.52,0-17.16-1.63-23.72-6.44a4.88,4.88,0,0,1-1.46-2c-1.25-2.68-1.66-7.27-1.65-11.59,0-2.9.17-5.68.34-7.74.09-1,.17-1.88.24-2.47s.1-.91.1-.92l-.69-.08,0,.69,0-.69-.69-.09a101,101,0,0,0-.69,11.3,46.08,46.08,0,0,0,.69,8.63,15.74,15.74,0,0,0,1.09,3.55,6.42,6.42,0,0,0,1.89,2.49c6.93,5.07,15.86,6.71,24.55,6.71a95.92,95.92,0,0,0,26.72-4.25,14.26,14.26,0,0,0,7.4-5.6,15.64,15.64,0,0,0,2.84-8.79,11.65,11.65,0,0,0-2.67-7.61,14.88,14.88,0,0,0-8.7-4.72c-10.27-2.08-27.69-2.47-39.64-2.48-7.48,0-12.8.16-12.81.16l-.59,0-.08.59.69.09"/><path class="cls-15" d="M162.21,149.25s-35.69-2.65-52.34,0S97,170.73,107.68,174.53s35.31,10.16,50.7-.1c5.61-3.74,3.83-25.18,3.83-25.18"/><path class="cls-30" d="M162.21,149.25l0-.69s-16-1.19-31.59-1.19a145.93,145.93,0,0,0-20.91,1.17c-4.16.65-7.17,2.32-9.11,4.56A11.83,11.83,0,0,0,97.83,161a15.82,15.82,0,0,0,2.64,8.56,14.18,14.18,0,0,0,7,5.67c6.43,2.29,17.87,5.5,29.42,5.5,7.75,0,15.56-1.45,21.91-5.67a7,7,0,0,0,2.34-3.12,26.76,26.76,0,0,0,1.67-7.25,73.43,73.43,0,0,0,.39-8c0-4.21-.27-7.45-.27-7.46l-.05-.6-.59,0,0,.69-.69.06s.06.79.13,2.11.13,3.16.13,5.24A61.42,61.42,0,0,1,161,167a20.21,20.21,0,0,1-1.2,4.31,5.62,5.62,0,0,1-1.83,2.51c-6,4-13.56,5.45-21.14,5.44-11.29,0-22.63-3.16-29-5.42a12.79,12.79,0,0,1-6.28-5.12,14.46,14.46,0,0,1-2.41-7.8A10.45,10.45,0,0,1,101.7,154c1.7-2,4.37-3.48,8.28-4.1a144.88,144.88,0,0,1,20.69-1.15c7.76,0,15.64.3,21.57.59,3,.15,5.45.3,7.19.41s2.73.19,2.73.19l.05-.7-.69.06.69-.06"/><path class="cls-32" d="M173.85,147.8c-1-.77-3-.75-6.85-.72-1.52,0-3.32,0-5.47,0-7.49-.19-10.85-.83-12.34.19s1,9.28,6.05,9.7c4.23.35,5.28.41,5.95.44h.22c.68,0,1.58,0,5.82-.17,5.07-.2,8.1-8.3,6.62-9.42"/><path class="cls-33" d="M99.22,167.47s.91,5.3,7.47,7.81A104.87,104.87,0,0,0,119,179.17l.67-.5a103.51,103.51,0,0,1-12.24-3.49,14.18,14.18,0,0,1-7-5.67,14.93,14.93,0,0,1-1.12-2l-.13-.05M225.59,165a16.06,16.06,0,0,1-2.72,7,14.26,14.26,0,0,1-7.4,5.6c-1.93.59-4.3,1.24-7,1.86l.79.53c5.31-1.46,9.11-3.1,10.46-4.21A16.14,16.14,0,0,0,225.59,165"/><path class="cls-34" d="M177.61,180.79a16.1,16.1,0,0,1-1.44,2,74.85,74.85,0,0,0,8.81.51l-.54-1.55a51.89,51.89,0,0,1-6.83-.91m-34-.52a52.8,52.8,0,0,1-6.54.41l-.46,1.19c1.67.09,3.28.13,4.81.13,1,0,2,0,3-.05a9.93,9.93,0,0,1-.79-1.68m63-.41a91.76,91.76,0,0,1-16,2l-.63,1.29a95.73,95.73,0,0,0,17.48-2.66l-.88-.59m-85.1-.81-.74.54a96.33,96.33,0,0,0,10.84,1.86l-.44-1a86.67,86.67,0,0,1-9.66-1.39"/><path class="cls-35" d="M208.5,179.45l-1.89.41.88.59,1.8-.47-.79-.53m-88.82-.78-.67.5,1.76.42.74-.54-1.83-.38"/><path class="cls-6" d="M131.17,180.44l.44,1c1.75.19,3.43.33,5,.42l.46-1.19h-.26c-1.91,0-3.81-.08-5.69-.24"/><path class="cls-6" d="M184.44,181.7l.54,1.55h.09c1.66,0,3.32-.05,4.94-.14l.63-1.29-1.89,0c-1.44,0-2.87,0-4.31-.14"/><path class="cls-36" d="M161.58,170.62c-.14.44-.3.87-.47,1.27a7,7,0,0,1-2.34,3.12,34.9,34.9,0,0,1-15.11,5.26,9.93,9.93,0,0,0,.79,1.68c10.81-.39,17.21-2.76,17.21-2.76a57.35,57.35,0,0,0,14.51,3.55,16.1,16.1,0,0,0,1.44-2,34.08,34.08,0,0,1-13.41-5.66,6.42,6.42,0,0,1-1.89-2.49,15.41,15.41,0,0,1-.73-2"/><path class="cls-34" d="M223.52,167.71c-6.25,5.55-23.16,9.1-34.4,9.1a33.72,33.72,0,0,1-6.09-.47c-9.93-1.85-18.89-3.87-19.93-6.78a5.29,5.29,0,0,0-.61-1.24,15.63,15.63,0,0,0,1.08,3.73,4.88,4.88,0,0,0,1.46,2c6.55,4.81,15.18,6.44,23.7,6.44h0a94.39,94.39,0,0,0,26.31-4.19,12.87,12.87,0,0,0,6.67-5.07,14.7,14.7,0,0,0,1.79-3.48"/><path class="cls-35" d="M225.59,165a7.62,7.62,0,0,1-2.07,2.72,14.7,14.7,0,0,1-1.79,3.48,12.87,12.87,0,0,1-6.67,5.07,94.39,94.39,0,0,1-26.31,4.19h0c-8.52,0-17.15-1.63-23.7-6.44a4.88,4.88,0,0,1-1.46-2,15.63,15.63,0,0,1-1.08-3.73,2.45,2.45,0,0,0-.23-.29,23.27,23.27,0,0,1-.68,2.59,15.41,15.41,0,0,0,.73,2,6.42,6.42,0,0,0,1.89,2.49,34.08,34.08,0,0,0,13.41,5.66,51.89,51.89,0,0,0,6.83.91c1.44.1,2.87.14,4.31.14l1.89,0a91.76,91.76,0,0,0,16-2l1.89-.41c2.67-.62,5-1.27,7-1.86a14.26,14.26,0,0,0,7.4-5.6,16.06,16.06,0,0,0,2.72-7v0"/><path class="cls-34" d="M160.86,167.93a3.27,3.27,0,0,0-.75,1.44c-.88,3-8.21,4.8-18.77,4.8a121.16,121.16,0,0,1-13.61-.83,150.17,150.17,0,0,1-26.48-5.2c.12.21.25.41.38.61a12.79,12.79,0,0,0,6.28,5.12c6.32,2.26,17.65,5.42,28.93,5.42h0c7.58,0,15.12-1.42,21.14-5.44a5.62,5.62,0,0,0,1.83-2.51,18.13,18.13,0,0,0,1-3.41"/><path class="cls-35" d="M99.35,167.52a14.93,14.93,0,0,0,1.12,2,14.18,14.18,0,0,0,7,5.67,103.51,103.51,0,0,0,12.24,3.49l1.83.38a86.67,86.67,0,0,0,9.66,1.39c1.88.16,3.78.24,5.69.24h.26a52.8,52.8,0,0,0,6.54-.41A34.9,34.9,0,0,0,158.77,175a7,7,0,0,0,2.34-3.12c.17-.4.33-.83.47-1.27a23.27,23.27,0,0,0,.68-2.59,1.06,1.06,0,0,0-.76-.4.91.91,0,0,0-.64.3,18.13,18.13,0,0,1-1,3.41,5.62,5.62,0,0,1-1.83,2.51c-6,4-13.56,5.45-21.14,5.44h0c-11.28,0-22.61-3.16-28.93-5.42a12.79,12.79,0,0,1-6.28-5.12c-.13-.2-.26-.4-.38-.61-1-.31-1.64-.53-1.9-.62"/><path class="cls-37" d="M172.5,153.89l-.22.1a6.85,6.85,0,0,1-5.05,3.23l-4.06.14v.1h.56a30.91,30.91,0,0,0,4.57-.29c2.27-.33,4.2-3.29,4.2-3.29"/><path class="cls-37" d="M150.55,153.75c.39.91,1.75,3.14,5.69,3.39,2,.13,3.86.24,5.54.29v0h-.59c-.67,0-1.72-.09-5.95-.44a6.56,6.56,0,0,1-4.69-3.2"/><path class="cls-38" d="M163.17,157.36l-1.39,0v0l1.39,0v-.1"/><path class="cls-39" d="M150.42,153.37a2.09,2.09,0,0,0,.13.38,6.56,6.56,0,0,0,4.69,3.2c4.23.35,5.28.41,5.95.44h.59l1.39,0,4.06-.14a6.85,6.85,0,0,0,5.05-3.23,22.46,22.46,0,0,1-9,1.57h-.89c-6.7-.18-10.44-.8-11.93-2.18"/><path class="cls-7" d="M287.87,206.71a444.85,444.85,0,0,1-99,10.79c-48.33,0-84.48-7.19-94.53-9.42,2.15,1.38,4.49,2.83,7,4.3a226.41,226.41,0,0,0,25.57,12.56c14.27,6.06,32,6.64,32,6.64s0,.06,0,.1c7.09.63,14.25.93,21.42.93A306.27,306.27,0,0,0,237.43,227a143.83,143.83,0,0,0,50.44-20.24"/><path class="cls-40" d="M227.51,230.1q-3.37.54-6.8,1l-1.06.17c.18,1.42.33,2.84.44,4.25a33.76,33.76,0,0,0,3.83-4.87c1.21-.18,2.41-.36,3.6-.56h0"/><path class="cls-14" d="M228.76,229.9l-1.25.2h0l1.24-.21"/><path class="cls-40" d="M159.29,233.42a8.6,8.6,0,0,0,1.59,2.21c.14-.65.29-1.3.46-1.94l-2.05-.27m59-1.91-2.29.35c.41,2,.74,4.3,1,6.7.65-.57,1.26-1.14,1.82-1.69-.13-1.78-.29-3.57-.53-5.36"/><path class="cls-14" d="M219.65,231.29l-1.38.22c.24,1.79.4,3.58.53,5.36.46-.46.89-.9,1.29-1.33-.11-1.41-.26-2.83-.44-4.25"/><path class="cls-7" d="M214.61,232.06q-13.31,1.92-28,2.65h0c-2.29.11-4.58.17-6.85.17a145.57,145.57,0,0,1-17.07-1c-.25.95-.46,1.92-.66,2.9,5.92,5.14,19.18,10.53,32.08,10.53.7,0,1.4,0,2.1,0a33.39,33.39,0,0,0,19.45-7.61c-.15-1.5-.33-2.94-.53-4.31-.17-1.14-.35-2.23-.56-3.26"/><path class="cls-28" d="M161.34,233.69c-.17.64-.32,1.29-.46,1.94a16.29,16.29,0,0,0,1.19,1.13c.2-1,.41-1.95.66-2.9l-1.39-.17M216,231.86l-1.37.2c.21,1,.39,2.12.56,3.26.2,1.37.38,2.81.53,4.31l1.28-1.07c-.26-2.4-.59-4.65-1-6.7"/><path class="cls-14" d="M220.71,231.12a296.33,296.33,0,0,1-40.4,2.88c-7.08,0-14.15-.29-21.16-.9l.14.32,2.05.27,1.39.17a145.57,145.57,0,0,0,17.07,1c2.27,0,4.56-.06,6.85-.17h0q14.64-.71,28-2.65l1.37-.2,2.29-.35,1.38-.22,1.06-.17"/><path class="cls-28" d="M91.56,207.43a133.69,133.69,0,0,0,35.38,17.51,172.36,172.36,0,0,1-25.57-12.56c-2.5-1.47-4.84-2.92-7-4.3-1.85-.41-2.82-.65-2.82-.65m200.18-1.62-3.87.9A143.83,143.83,0,0,1,237.43,227a306.27,306.27,0,0,1-57.12,5.66c-7.17,0-14.33-.3-21.42-.93a3.55,3.55,0,0,0,.26,1.42c7,.61,14.08.9,21.16.9a296.33,296.33,0,0,0,40.4-2.88q3.42-.48,6.8-1l1.25-.2a190.3,190.3,0,0,0,48.9-15.63,139,139,0,0,0,14.08-8.46"/></g></g></svg>