<svg xmlns="http://www.w3.org/2000/svg" xmlns:xlink="http://www.w3.org/1999/xlink" viewBox="0 0 327.73 348.39"><defs><style>.cls-1{fill:#68605b;}.cls-1,.cls-2,.cls-3,.cls-4,.cls-5,.cls-6,.cls-7,.cls-8,.cls-9{stroke:#000;stroke-miterlimit:10;}.cls-1,.cls-2,.cls-3,.cls-4,.cls-5,.cls-6,.cls-7,.cls-9{stroke-width:0.5px;}.cls-2{fill:#ffe8c6;}.cls-3{fill:#2aeaf7;}.cls-4{fill:#b36c5e;}.cls-5{fill:#ffa996;}.cls-6{fill:url(#linear-gradient);}.cls-7{fill:#96a3b6;}.cls-8{fill:#fff;}.cls-9{fill:none;stroke-linecap:round;}</style><linearGradient id="linear-gradient" x1="185.1" y1="88.2" x2="185.1" y2="227.84" gradientUnits="userSpaceOnUse"><stop offset="0.4" stop-color="#68605b"/><stop offset="1" stop-color="#fe5858"/></linearGradient></defs><title>Mistake feedback_Mandril</title><g id="Layer_2" data-name="Layer 2"><g id="Layer_1-2" data-name="Layer 1"><path class="cls-1" d="M252.16,256.6c5.16-1.12,55,58.28,53.16,65.47s-24,7.87-39.47-9.53S225.83,262.34,252.16,256.6Z"/><path class="cls-1" d="M153.11,348.14c2.91-7.22,5.28-14.55,5.28-23.74,0-48.35-5.78-92.51,37.84-99.59,26.31-4.27,45.83.73,66.85,73.26a291.4,291.4,0,0,1,10,50.07Z"/><path class="cls-2" d="M178.18,348.14c6.68-27.43,12.2-61.84,10.84-78.11-3.44-41.34,62.74-26.45,68.65-22s8.85,50.06,15.74,80.08a145,145,0,0,1,2.94,20.05Z"/><path class="cls-1" d="M139.57,303.49c-1.48,7.87,20.67,23.62,28.05,28.05,4.67,2.8,12.43,9.25,15.64,16.6H151.87a3.79,3.79,0,0,0-.37-2.58c-2.46-2.95-43.42-26.33-41-42.07,5.41-27.07,62.74-55.85,70.12-56.84l.24,32.73C171.06,280.36,141.05,295.61,139.57,303.49Z"/><path class="cls-2" d="M66.3,134.91c-1-5.37-61,33.25-66,45.17-.14,4.53,60.84-.17,72.06,15.63C72.31,195.71,69.66,152.65,66.3,134.91Z"/><path class="cls-2" d="M72.15,200c-7.85-14.14-30.26,63.11-29.52,69.38s29.89-21,44.66-23.62S74,203.35,72.15,200Z"/><path class="cls-2" d="M136.37,265.84c-5.89-4-23.62,21.78-25.1,25.47s46.87-12.92,54.63-11.81S145.6,272.12,136.37,265.84Z"/><path class="cls-2" d="M251.63,94.14c-1.08-5.36,53.32,20.37,62.5,29.49,1.84,4.15-40.69,10.22-45.13,29.08C269,152.71,255.21,111.83,251.63,94.14Z"/><path class="cls-2" d="M277.42,155.18c1.94-16.06,48.32,37.28,50,43.37s-32.1,1.54-46.75,4.72S277,159,277.42,155.18Z"/><path class="cls-2" d="M271.56,241.83c3.95-5.93,30.09,11.26,32.85,14.12s-48.28,5.72-55,9.67S265.39,251.12,271.56,241.83Z"/><path class="cls-2" d="M180.17,284.05c1.1,9,5.65,24.88,10.82,27.07,3.2,1.35,5.6-13.75,8.18-13.84,1.68-.06,26,13.1,41.52,35.49,4.39,6.33,17.72-28,15.75-37.89s12.42,8.18,14.88,9.41,2.09-27.31-6.27-36.91S179.76,280.77,180.17,284.05Z"/><path class="cls-1" d="M125.87,2.58c1.4.53-16.24,23.62-15.74,25.1s29-34.06,70.36-26.33c1.83.34-21.89,15.75-22.14,25.59C181,6.77,202.88,1.85,210.76,2.09c-7.88,8.37-12.27,15.91-11.42,17.34,0,0,39.63,21.54,58.08,57.46S288.3,176,287.93,199.66s-50.56,64.58-104.81,50.93S87.53,221.07,72.4,190.06s-21.2-59.3-9.14-110.84C75.44,27.19,121.32.86,125.87,2.58Z"/><path class="cls-3" d="M68,175.06C53.21,242,63.91,237.3,85.32,248.38s104.44,38.75,129.17,41.7,38-2.58,47.61-15.13,29-67.3,25.67-88.33c-6.4-40.1-14.23-72.77-16.76-74.55-7.85-5.56-46.34-10.56-63.9.86-25.81,16.79-47.45,65.38-57.45,67C122.43,184.51,65.26,177.37,68,175.06Z"/><path class="cls-4" d="M73.14,180.22c-2.46-9.38-8.24-25.09-19.56-26.08S24.79,164.48,28.24,189s22.88,33.46,34.69,33.46S76.58,193.39,73.14,180.22Z"/><path class="cls-5" d="M74.14,186.63c-1.13-7.22-10-19.72-18.16-19.45s-16.79,12.92-12.55,27S65.17,219,70.34,213.6,75.06,192.53,74.14,186.63Z"/><path class="cls-4" d="M244.34,214.79c-31.55,5.35-38,10-77.87-.37-37.86-9.81-55.2-36-83.06-25S52.29,221.13,58.93,234.6s28.42,24.85,56.28,33,39,14.57,71.6,21.77c28.42,6.27,40.59,14.27,60.52,2.58s39.56-52.75,45-63.84c5.81-11.78,10.66-30.27,6.23-42.08-4.53-12.09-9.09-20.28-14.35-21C282.71,164.75,275.89,209.44,244.34,214.79Z"/><path class="cls-6" d="M111.48,148c20.3,4.06,60.53-8.12,75.66,12.18,15.48,20.78,17.59,23.74,22.55,42.07,0,0-12.55-4.79-17.71,4.8s1.84,23.62,26.94,20.3,34.69-13.29,38.75-19.56-4.06-25.1-16.24-14.39c0,0-4.47-17.35-14.8-43.55s-1.48-19.32,3.69-27.8,10.33-23.13,4.42-33.84"/><path class="cls-7" d="M110.37,131.75a144.54,144.54,0,0,1,60.9,5.54c21,6.64,24,21.77,20.71,34.88-4.65,18.56-33.63,22.85-59.83,17.89s-44.29-20.25-42.81-34.69S99.65,133.05,110.37,131.75Z"/><path class="cls-7" d="M235.62,76.58c8.74-1.57,16,1.45,26.05,16.47s16.76,38.68,19,57.75-1.67,33.61-13.15,36.75-29.29-5-42.73-38.24S214.27,80.44,235.62,76.58Z"/><path class="cls-8" d="M125.58,144.92c14-.71,30.12,2.67,42.3,4.52,15.59,2.36,17.45,23.08,2,28.23s-34.73,5.33-47.28-1.75S103.08,146.07,125.58,144.92Z"/><path class="cls-8" d="M239.8,105c13.82-2.83,25.42,15.55,27.78,33.22s.23,32.22-10.26,34.41S236.13,160.46,231,140,231.82,106.67,239.8,105Z"/><ellipse cx="166.39" cy="162.34" rx="10.83" ry="12.92" transform="translate(-19.69 23.01) rotate(-7.47)"/><ellipse cx="256.89" cy="148.36" rx="8.53" ry="12.41" transform="translate(-18.99 39.31) rotate(-8.44)"/><ellipse cx="205.81" cy="214.3" rx="3.09" ry="3.88" transform="matrix(0.79, -0.61, 0.61, 0.79, -88.07, 170.52)"/><ellipse cx="251.78" cy="201.5" rx="2.28" ry="3.57" transform="translate(-46.91 79.94) rotate(-16.53)"/><path class="cls-4" d="M151.77,348.14c.4-1.63.53-2.06.53-2.06,14.76-3,13.47-13.84,15.32-14.21,1.51-.3,12.75,8.44,16.7,16.27Z"/><path class="cls-9" d="M243.27,253.69c-2.5-3.56-15-11-18.72-10s-11,10-14.79,17.83"/><path class="cls-1" d="M289.37,326.8c-10.61-5.42-17-14.21-22.52-21.59-13.71-18.29-16.74-24.1-18-26.34-.22-.38.73-1.7-1.91-11.55-3.29-12.29-3.68-11.4-3.93-15.25-.49-7.63,4.15-6.28,11.56-5.17,9.84,1.48,17.28,11.71,19.34,14.41s10.84,17.79,18.06,28.4c3.14,4.61,10,9.93,15.87,18.45,4.79,7,3.08,11.75-.74,17.16S294.07,329.21,289.37,326.8Z"/><path class="cls-4" d="M268.33,278.15c4.44-2.57,8.16-11.31,8.36-11.39,1-.42,5.68-3.88,5.86-11.24s-6.42-13-10.65-11.45c-.54.2-5.44-8.07-14.44-12.32s-20.64-2.76-27,7.8c-12.36,20.5,6.08,34.44,21.55,43.88C254.21,283.63,261.23,282.24,268.33,278.15Z"/></g></g></svg>