<svg xmlns="http://www.w3.org/2000/svg" xmlns:xlink="http://www.w3.org/1999/xlink" viewBox="0 0 387.78 332.8"><defs><style>.cls-1,.cls-5{fill:none;}.cls-1,.cls-10,.cls-11,.cls-3,.cls-4,.cls-5,.cls-7{stroke:#000;stroke-miterlimit:10;}.cls-1,.cls-10,.cls-11,.cls-12,.cls-3,.cls-4,.cls-5,.cls-7{stroke-linecap:round;}.cls-1,.cls-10,.cls-3,.cls-4{stroke-width:0.5px;}.cls-2,.cls-3{fill:#ffb129;}.cls-4{fill:#fef5e4;}.cls-5{stroke-width:0.75px;}.cls-6{clip-path:url(#clip-path);}.cls-7{fill:#7e2d3a;}.cls-10,.cls-8{fill:#fea49c;}.cls-11,.cls-9{fill:#fff;}.cls-12{fill:#a0dbf0;stroke:#4a91cd;stroke-linejoin:round;}</style><clipPath id="clip-path"><path class="cls-1" d="M262.64,193.8c-10.19,3-34.1,5.71-68.62,3.6s-57.75-8.19-69.61-14.22c-11.35-5.77-23.47-2.55-27.18,5.49-5,10.89,2.15,33.71,22.87,43.86s52.64,21,83.3,13.64,41.65-14,50.82-26.68C264.52,205.22,264.82,193.15,262.64,193.8Z"/></clipPath></defs><title>Correct feedbacK_Tigre</title><g id="Layer_2" data-name="Layer 2"><g id="Layer_1-2" data-name="Layer 1"><path class="cls-2" d="M271.94,250.72c12.28-5.88,59.94-47.35,76.63-66.61a195.23,195.23,0,0,0,25.33-36.55c.36-.59,17.6-11.94,12.78-37.45-3.55-18.8-23.26-25.65-35.6-20.35-30.77,13.23-6.77,41.83-9.16,44.77S321.66,164.84,311.45,175s-46,47-54.83,50.94-9.54,16.65-5.11,22.53S266.49,253.34,271.94,250.72Z"/><path class="cls-1" d="M271.94,250.72c12.28-5.88,59.94-47.35,76.63-66.61a195.23,195.23,0,0,0,25.33-36.55c.36-.59,17.6-11.94,12.78-37.45-3.55-18.8-23.26-25.65-35.6-20.35-30.77,13.23-6.77,41.83-9.16,44.77S321.66,164.84,311.45,175s-46,47-54.83,50.94-9.54,16.65-5.11,22.53S266.49,253.34,271.94,250.72Z"/><path d="M338.79,194.28c-1.17-2.1-5.06-9-9.25-10.77-1.22-.72,7.55.68,12.44,6.2C342.78,190.77,338.79,194.28,338.79,194.28Z"/><path d="M300.61,229.17c-1.17-2.1-5.06-9-9.25-10.77-1.22-.72,8.4,1.65,13.29,7.17C304.88,226.53,300.61,229.17,300.61,229.17Z"/><path d="M358.68,171.32c-1.68-2.69-7.81-12.62-13.66-15-1.72-.94,10.83,1.5,17.77,8.62C363.92,166.34,358.68,171.32,358.68,171.32Z"/><path d="M327.51,153.72c3.06.83,13.14,3.62,17.07,8.54,1.4,1.37-4.05-9.71-12.87-14.3C330.08,147.27,327.51,153.72,327.51,153.72Z"/><path class="cls-3" d="M305.88,332.55c-3.85-13.18-8.95-28.06-15.33-44.8-27.83-72.93-55.38-78-82.58-73.57-45.09,7.32-44.83,49.92-44.83,99.9,0,5.71-.14,12-.31,18.47Z"/><path class="cls-4" d="M179.93,332.55H305.6c-3.91-12.44-8.77-26.46-14.43-42.27-26.23-73.25-50.59-78.94-74.4-75.21-39.48,6.2-38.22,48.6-37,98.33C179.9,319.31,179.93,325.8,179.93,332.55Z"/><path d="M163.26,298.18c1.89-2.35,10.56-4.83,23.4-1.53s23.7,14.1,20.85,13.23-23.77-2.54-27.84-2.67-15.64,4.32-16.79,4.32S162.25,299.45,163.26,298.18Z"/><path d="M287.24,279.87c-1-1.92-8.9,6-12.2,16.91-.89,2.93,6.23-5.21,8.64-6.23s8.27,1.53,8.4.89S288.64,282.54,287.24,279.87Z"/><path class="cls-3" d="M175.72,246.17c-7.63,1-66.88,30.77-72.48,58.75-1.39,8.94,8.63,19.48,18.42,27.63h38.41c-9-5.84-28.22-20.16-26.82-27.63C134.78,296.78,165.81,281,176,280"/><path class="cls-3" d="M303.6,39.16c-1.87-15-9.47-31.07-31.87-37.39s-36.29,8.36-40.44,20.6-4.72,46.25,22.46,62.57,38.15-2,43.34-10.37S305.26,52.42,303.6,39.16Z"/><path class="cls-4" d="M266.77,58.48c-1.48-7.7,10.43-26.7,20.22-29.12s12.72,2.29,15.77,9.79S301.87,67,297.42,74,271.6,83.53,266.77,58.48Z"/><path class="cls-3" d="M94.21,80.1c-2.3-18.72-10.84-40.17-39.16-44-29.88-4-51.32,29.7-54,43.95-3,15.81-.44,55.49,56,65.16"/><path class="cls-4" d="M15.38,76.67c12.72-14.14,36.36-9.22,49.91,2.22s27.38,43.87,21.86,56.35c-7,15.89-42.56,10.58-57.63.28S-2.94,97,15.38,76.67Z"/><path class="cls-3" d="M148.26,13.09C189-1.47,223.79,14.82,258.89,38.26s64.82,62.58,70.19,74.77c7.4,16.82,14.88,44.26-2.29,82.79-13.1,29.41-51.5,57.6-137.71,65.61C133,266.64,64,248,57.08,181.32,47.17,85.9,106.68,28,148.26,13.09Z"/><path class="cls-5" d="M140,67.38c6.36-10.61,10.68-16.78,22.38-17.8,15.72-1.36,28.49,11.7,28.49,11.7"/><path class="cls-5" d="M236.13,56.7c.55-6.8,2-15.76,14.36-16.53,7.26-.44,16.79,7.82,18.89,12.59"/><path class="cls-4" d="M162.75,84.81c20.53-1.87,55.32,14.87,58,45.77s-3.82,51.5-37.39,54.17-64.85-2.29-67.52-35.86S129.18,87.86,162.75,84.81Z"/><path class="cls-4" d="M265.75,68.78c18.31-3.43,41.42,14.27,49.15,44.25,5.41,21,2.73,44.64-19,52.65-23.79,8.76-50.74,0-58.91-31.66C228.57,101.45,240.79,73.46,265.75,68.78Z"/><path class="cls-4" d="M77.3,161.86c14.12-4.93,28.46-.68,63.55,13s68.83-3.16,90.19-3.16,48.45,8.78,60.27,24.42,14.88,26.35,14.88,26.35-21,22.48-54.55,31.63-94.61,18.7-133.9,2.29S55.3,213.75,57.21,179.79C57.21,179.79,63.19,166.79,77.3,161.86Z"/><g class="cls-6"><path class="cls-7" d="M268.83,177.89c-10.19,3-40.29,21.62-74.81,19.51s-58.48-6.68-69.61-14.22-22.92-5.8-27.18,5.49,2.15,33.71,22.87,43.86,50.86,18.29,81.52,10.94,50.13-19.81,58.47-35.31S271,177.24,268.83,177.89Z"/><path class="cls-8" d="M240.34,181.14c10.51,4.69,26.78,19.69,26.77,31.7s-66.85,59.63-115.42,39S70.62,222,77.78,194.81s10.56-39.58,43.81-31.24S234.64,178.6,240.34,181.14Z"/><path class="cls-9" d="M90.84,175.56c2.66,11.17,35.6,33.34,72.13,35.3s69.24,2.34,89.07-8.66,28-16.64,31-25.3-15.14-26.57-15.14-26.57S199.06,178.89,177,173.2s-71.12-25.24-80-31.36S88,163.54,90.84,175.56Z"/></g><path class="cls-1" d="M262.64,193.8c-10.19,3-34.1,5.71-68.62,3.6s-57.75-8.19-69.61-14.22c-11.35-5.77-23.47-2.55-27.18,5.49-5,10.89,2.15,33.71,22.87,43.86s52.64,21,83.3,13.64,41.65-14,50.82-26.68C264.52,205.22,264.82,193.15,262.64,193.8Z"/><path class="cls-10" d="M234.6,167.08c5.6-.38,14-2,15.51,1s.26,8.64-6.1,9.91-9.67,1-14.24,1-11.24-1.05-12-7.88C217.31,166.32,230.78,167.33,234.6,167.08Z"/><path class="cls-11" d="M161.1,100.45c13.18-2.93,33.57,5.08,41.2,22.12s3.31,32.81-4.07,40.69-29,17.55-49.85,5.6-17.91-31.9-13.22-45.27C140.25,109.09,147.92,103.37,161.1,100.45Z"/><path class="cls-11" d="M267.41,83.92c10.53-2.84,26.26,3.68,32,20.72s2.47,32.81-3,40.69-19.19,17.42-34.78,5.47-15.07-25.68-13.35-39.67S256.87,86.75,267.41,83.92Z"/><ellipse cx="187.55" cy="135.92" rx="11.19" ry="15.12"/><ellipse cx="282.91" cy="123.8" rx="10.42" ry="15.12" transform="translate(-12.04 32.32) rotate(-6.4)"/><path d="M220,80.1c3.08-.19,14.62-12.33,14.11-16s-36.37-.51-36.62,4.7S213.87,80.48,220,80.1Z"/><path d="M193.08,24.44c3.19-.61,13-12.12,13-13.26S187.93,6,177.73,6.41s-21.46,3.15-23.18,5S183.07,26.34,193.08,24.44Z"/><path d="M269.85,27c1.63.17,1-22.51-2.09-26.51a49,49,0,0,0-12.69.38C249,2,242.39,7,241.91,7.27S254,7.94,260.6,14.8,267.09,26.73,269.85,27Z"/><path d="M212.44,132.87c1.05.3,11.92-15,8.87-22.41s-10-2.29-11.06,5.72S209.1,131.92,212.44,132.87Z"/><path d="M108.79,67.91c-.67.86,9.36,16.7,17.4,16.69s5.9-8.41-1.12-12.41S110.94,65.18,108.79,67.91Z"/><path d="M238.65,131.73c-1,.3-11.92-15-8.86-22.41s10-2.29,11.06,5.72S242,130.77,238.65,131.73Z"/><path d="M99.81,115.51c2.79,5.28,12.4,28.62,29.18,38.92,0,0-5,3-21.74-9.54S98.09,112.27,99.81,115.51Z"/><path d="M323.26,113.3c-1.73,4-7.7,21.79-18.13,29.63,0,0,3.08,2.33,13.51-7.26S324.33,110.83,323.26,113.3Z"/><path d="M60.16,73c.48,1.32,11.25-2.64,13.71-12.42S76.68,45.67,75.82,44s-15.4-7.22-18.74-7.6c-1.62-.57,7.54,9,5.82,21.65S59.4,70.9,60.16,73Z"/><path d="M56.8,179.79c12.68,15,31,27.85,37.1,29.85s-21.37,4-32.24-2.19C60.23,204.88,56.13,194.77,56.8,179.79Z"/><path d="M330,186.89c-7.28,6.47-26.28,3.18-27.9,3.52S313,197.2,324.25,200C325.67,200.49,330.58,186.42,330,186.89Z"/><path d="M138.8,265.18c.35,3.22,1.55,13.79,5.64,17.58,1.09,1.38-8.59-3.49-11.67-12.56C132.35,268.51,138.8,265.18,138.8,265.18Z"/><path d="M115.69,284.65c1.14,3,4.91,13,9.81,15.64,1.4,1.06-9.19-1.27-14.41-9.29C110.27,289.46,115.69,284.65,115.69,284.65Z"/><path d="M112.62,324.25c2.83-.57,12.16-2.49,14.74-6.16,1-1-1.39,7.31-9,10.62C117,329.2,112.62,324.25,112.62,324.25Z"/><path d="M142,318.8c-.87,2.24-3.79,9.61-7.71,11.92-1.11.87,7.39-1.7,11.5-7.83C146.42,321.73,142,318.8,142,318.8Z"/><path d="M143.52,294.45c-2.06-1.24-8.85-5.34-10.47-9.59-.68-1.24.44,7.57,5.8,12.64C139.89,298.33,143.52,294.45,143.52,294.45Z"/><path d="M167.28,282.4c-1.58-1.82-6.73-7.84-6.94-12.38-.25-1.39-2,7.32,1.55,13.82C162.61,285,167.28,282.4,167.28,282.4Z"/><path class="cls-4" d="M342.42,133.38c.94,1.71-2.65-15.26,2.41-28.88S367.3,89.66,365,88.34c-6.21-3.5-23.51,2.94-27.77,11.82C331.83,111.36,334.8,119.58,342.42,133.38Z"/><path class="cls-12" d="M346.48,211.2s-8.43,24,16.35,31.16c0,0-30.15-11.49-38.07,5.37,0,0,2.3-29.89-2.55-32.19C322.21,215.54,342.39,216.05,346.48,211.2Z"/><path class="cls-12" d="M109.73,275.72s-19,14.61-19.48,20.36c0,0-17.26-25.23-24.79-26.56,0,0,19.48-3.54,21.7-11.07C87.16,258.45,89.81,271.29,109.73,275.72Z"/></g></g></svg>