<svg xmlns="http://www.w3.org/2000/svg" xmlns:xlink="http://www.w3.org/1999/xlink" viewBox="0 0 129.48 120"><defs><style>.cls-1,.cls-13{fill:none;}.cls-2,.cls-3{fill:#68605b;}.cls-10,.cls-11,.cls-13,.cls-2,.cls-5,.cls-6,.cls-7,.cls-8,.cls-9{stroke:#000;stroke-miterlimit:10;}.cls-10,.cls-13,.cls-2,.cls-5,.cls-6,.cls-7,.cls-8,.cls-9{stroke-width:0.25px;}.cls-4,.cls-5{fill:#ffe8c6;}.cls-6{fill:#2aeaf7;}.cls-12,.cls-7{fill:#b36c5e;}.cls-8{fill:#ffa996;}.cls-9{fill:url(#linear-gradient);}.cls-10{fill:#96a3b6;}.cls-11{fill:#fff;stroke-width:0.5px;}.cls-13{stroke-linecap:round;}</style><linearGradient id="linear-gradient" x1="65.39" y1="33.87" x2="65.39" y2="80.14" gradientUnits="userSpaceOnUse"><stop offset="0.4" stop-color="#68605b"/><stop offset="1" stop-color="#fe5858"/></linearGradient></defs><title>Mistake feedback_mandril</title><g id="Layer_2" data-name="Layer 2"><g id="Layer_1-2" data-name="Layer 1"><rect class="cls-1" width="129.48" height="120"/><path class="cls-2" d="M87.61,89.67c1.71-.37,18.23,19.31,17.62,21.7s-7.94,2.6-13.08-3.16S78.89,91.57,87.61,89.67Z"/><path class="cls-3" d="M54.84,120l39.62-.46a92.33,92.33,0,0,0-3.23-16.12c-7-24-13.43-25.7-22.15-24.28-14.46,2.34-12.54,17-12.54,33A20.85,20.85,0,0,1,54.84,120Z"/><path d="M56.41,112.14a20.71,20.71,0,0,1-1.7,7.86H55a20.8,20.8,0,0,0,1.68-7.86c0-1.71,0-3.42,0-5.06-.18-13.81-.33-25.74,12.48-27.82,4.48-.73,8.17-.57,11.63,2.57,3.8,3.45,7.1,10.32,10.38,21.62a86.57,86.57,0,0,1,3.31,15.47h.25a87.33,87.33,0,0,0-3.32-15.54C88.06,92,84.74,85.12,80.9,81.64c-3.54-3.2-7.29-3.37-11.84-2.63-13,2.12-12.87,14.14-12.69,28.07C56.39,108.73,56.41,110.43,56.41,112.14Z"/><path class="cls-4" d="M63.12,120H95.58a51.57,51.57,0,0,0-.93-6.64c-2.28-9.94-3.26-25.07-5.21-26.54s-23.89-6.4-22.75,7.3C67.14,99.48,65.32,110.94,63.12,120Z"/><path d="M63,120h.26c2-8.47,4-20.23,3.57-25.89-.3-3.54,1-6.11,3.7-7.63,6-3.33,17.5-.56,18.84.44,1.11.84,2,6.7,2.86,12.91.65,4.44,1.38,9.48,2.31,13.56a50.55,50.55,0,0,1,1,6.61h.25a53.65,53.65,0,0,0-1-6.67c-.94-4.07-1.67-9.1-2.31-13.53-1-6.81-1.76-12.18-3-13.08-1.41-1-12.87-3.91-19.11-.46-2.85,1.58-4.14,4.22-3.83,7.87C67,99.78,65,111.55,63,120Z"/><path class="cls-3" d="M54.37,120H64.68a14.69,14.69,0,0,0-5.08-5.5c-2.45-1.46-9.79-6.68-9.3-9.29s10.44-7.66,13.7-8l-.08-10.84c-2.45.32-21.44,9.86-23.24,18.83-.81,5.22,12.76,13,13.58,13.94A2,2,0,0,1,54.37,120Z"/><path d="M54.16,119.23a1.74,1.74,0,0,1,.09.77h.25a1.68,1.68,0,0,0-.15-.93,16.14,16.14,0,0,0-2-1.47c-4-2.71-12.16-8.34-11.53-12.37,1.75-8.75,20.19-18.08,23-18.7l.08,10.58c-3.47.44-13.21,5.5-13.69,8.08-.53,2.81,7.37,8.23,9.35,9.42a14.79,14.79,0,0,1,5,5.39h.27a14.71,14.71,0,0,0-5.16-5.6c-2.63-1.58-9.7-6.68-9.23-9.17S60.69,97.68,64,97.34h.12L64,86.23l-.14,0c-1.34.18-6.77,2.74-11.91,6.2-4.68,3.14-10.46,7.9-11.43,12.74-.66,4.19,7.65,9.88,11.64,12.62A17.44,17.44,0,0,1,54.16,119.23Z"/><path class="cls-5" d="M26,49.35c-.34-1.78-20.21,11-21.88,15,0,1.5,20.16-.06,23.87,5.17C28,69.49,27.14,55.22,26,49.35Z"/><path class="cls-5" d="M28,70.93c-2.6-4.69-10,20.91-9.78,23s9.91-7,14.8-7.83S28.58,72,28,70.93Z"/><path class="cls-5" d="M49.24,92.74c-2-1.33-7.82,7.21-8.31,8.43S56.46,96.89,59,97.26,52.3,94.81,49.24,92.74Z"/><path class="cls-5" d="M87.44,35.84c-.36-1.78,17.67,6.75,20.71,9.77.61,1.38-13.49,3.39-15,9.64C93.19,55.25,88.62,41.7,87.44,35.84Z"/><path class="cls-5" d="M96,56.06c.64-5.32,16,12.36,16.57,14.38S101.91,71,97.06,72,95.83,57.31,96,56.06Z"/><path class="cls-5" d="M94,84.78c1.31-2,10,3.73,10.89,4.68s-16,1.89-18.24,3.2S92,87.86,94,84.78Z"/><path class="cls-5" d="M63.76,98.77c.36,3,1.87,8.24,3.58,9,1.06.44,1.86-4.56,2.71-4.59.56,0,8.63,4.34,13.76,11.76,1.45,2.1,5.87-9.29,5.22-12.55s4.12,2.71,4.93,3.11.69-9-2.08-12.23S63.62,97.68,63.76,98.77Z"/><path class="cls-2" d="M45.76,5.5c.47.17-5.38,7.83-5.21,8.31S50.16,2.53,63.86,5.09c.61.11-7.25,5.22-7.33,8.48C64,6.88,71.28,5.25,73.89,5.34c-2.61,2.77-4.06,5.27-3.78,5.74,0,0,13.13,7.14,19.25,19S99.59,63,99.46,70.8,82.71,92.21,64.73,87.68,33.06,77.9,28.05,67.62,21,48,25,30.9C29.05,13.65,44.26,4.93,45.76,5.5Z"/><path class="cls-6" d="M26.58,62.65C21.69,84.83,25.23,83.28,32.33,87s34.6,12.84,42.8,13.82,12.59-.86,15.77-5,9.62-22.3,8.51-29.27c-2.12-13.29-4.71-24.11-5.55-24.7-2.6-1.84-15.36-3.5-21.18.28-8.55,5.57-15.72,21.67-19,22.22C44.62,65.78,25.68,63.42,26.58,62.65Z"/><path class="cls-7" d="M28.29,64.36c-.81-3.11-2.73-8.31-6.48-8.64s-9.54,3.43-8.4,11.54S21,78.35,24.91,78.35,29.43,68.72,28.29,64.36Z"/><path class="cls-8" d="M28.62,66.48c-.37-2.39-3.3-6.53-6-6.44S17,64.32,18.45,69s7.2,8.19,8.91,6.42S28.93,68.44,28.62,66.48Z"/><path class="cls-7" d="M85,75.82c-10.46,1.77-12.6,3.3-25.8-.12-12.55-3.26-18.29-12-27.53-8.28s-10.31,10.5-8.11,15S33,90.62,42.23,93.31,55.15,98.13,66,100.52c9.41,2.08,13.45,4.73,20.05.86S99.12,83.9,100.93,80.22c1.93-3.9,3.54-10,2.07-13.94s-3-6.72-4.76-7C97.73,59.24,95.48,74,85,75.82Z"/><path class="cls-9" d="M41,53.68c6.73,1.35,20.06-2.69,25.08,4,5.13,6.88,5.82,7.87,7.47,13.94,0,0-4.16-1.59-5.87,1.59s.61,7.83,8.93,6.73,11.49-4.41,12.84-6.49-1.35-8.31-5.38-4.77a139.55,139.55,0,0,0-4.91-14.43c-3.42-8.68-.49-6.4,1.22-9.21s3.43-7.66,1.47-11.21"/><path class="cls-10" d="M40.63,48.3a47.88,47.88,0,0,1,20.18,1.84c7,2.2,8,7.21,6.86,11.55-1.54,6.15-11.14,7.58-19.83,5.93S33.17,60.91,33.66,56.13,37.08,48.73,40.63,48.3Z"/><path class="cls-10" d="M82.13,30c2.9-.52,5.29.48,8.63,5.46s5.56,12.81,6.29,19.13-.56,11.14-4.36,12.18S83,65.15,78.53,54.12,75.06,31.3,82.13,30Z"/><path class="cls-11" d="M45.67,52.67c4.62-.24,10,.88,14,1.49a4.78,4.78,0,0,1,.65,9.36c-5.14,1.71-11.51,1.76-15.67-.58S38.21,53.05,45.67,52.67Z"/><path class="cls-11" d="M83.52,39.45c4.58-.94,8.42,5.15,9.2,11s.08,10.68-3.4,11.41-7-4-8.72-10.82S80.87,40,83.52,39.45Z"/><ellipse cx="59.19" cy="58.44" rx="3.59" ry="4.28" transform="translate(-7.1 8.19) rotate(-7.47)"/><ellipse cx="89.18" cy="53.8" rx="2.83" ry="4.11" transform="translate(-6.93 13.67) rotate(-8.44)"/><ellipse cx="72.25" cy="75.65" rx="1.03" ry="1.28" transform="translate(-31.18 59.95) rotate(-37.68)"/><ellipse cx="87.49" cy="71.41" rx="0.75" ry="1.18" transform="translate(-16.7 27.83) rotate(-16.53)"/><path class="cls-12" d="M65,120c-1.38-2.55-4.94-5.48-5.43-5.38s-.19,3.69-5.08,4.7c0,0-.05.29-.15.68Z"/><path d="M54.5,120c0-.21.1-.5.12-.57,3.62-.77,4.33-2.92,4.72-4.08.09-.29.19-.59.28-.61h0c.49,0,3.88,2.79,5.25,5.26h.28c-1.33-2.51-4.87-5.51-5.56-5.51h0c-.23.05-.33.34-.47.78-.37,1.12-1.06,3.2-4.6,3.93l-.07,0,0,.07s0,.3-.16.71Z"/><path class="cls-13" d="M84.67,88.71c-.83-1.18-5-3.66-6.21-3.31s-3.66,3.31-4.9,5.91"/><path class="cls-2" d="M99.94,112.93c-3.51-1.79-5.62-4.7-7.46-7.15a72.58,72.58,0,0,1-6-8.73,11.11,11.11,0,0,0-.63-3.83c-1.1-4.07-1.23-3.77-1.31-5-.16-2.53,1.38-2.08,3.83-1.71,3.27.49,5.73,3.88,6.41,4.77s3.59,5.9,6,9.41c1,1.53,3.31,3.29,5.26,6.12,1.58,2.31,1,3.89-.25,5.68S101.5,113.73,99.94,112.93Z"/><path class="cls-7" d="M93,96.81c1.47-.85,2.7-3.75,2.77-3.77a4.28,4.28,0,0,0,1.94-3.73c.06-2.43-2.13-4.3-3.53-3.79-.18.07-1.8-2.67-4.78-4.08a6.75,6.75,0,0,0-9,2.58c-4.1,6.79,2,11.41,7.14,14.54A11.83,11.83,0,0,0,93,96.81Z"/></g></g></svg>