<svg xmlns="http://www.w3.org/2000/svg" viewBox="0 0 353.43 341.26"><defs><style>.cls-1,.cls-6{fill:#ffb129;}.cls-1,.cls-2,.cls-3,.cls-4,.cls-5,.cls-6{stroke:#000;stroke-linecap:round;stroke-miterlimit:10;}.cls-1,.cls-2,.cls-3,.cls-5{stroke-width:0.5px;}.cls-2{fill:#fef5e4;}.cls-3{fill:none;}.cls-4{fill:#fff;}.cls-5{fill:#fea49c;}</style></defs><title>Mistake feedback_Tigre</title><g id="Layer_2" data-name="Layer 2"><g id="Layer_1-2" data-name="Layer 1"><path class="cls-1" d="M275.75,243.4c6.77-5.56,26.17-8.79,38.56,13.59s24.53,73.37,20.13,79.16-18.31.53-26.11-7.46S258,258,275.75,243.4Z"/><path class="cls-1" d="M315.24,341q-5.14-14.56-11.7-31.63c-29.15-76.4-58-81.69-86.5-77.07-47.24,7.67-47,52.29-47,104.64,0,1.32,0,2.68,0,4.06Z"/><path class="cls-2" d="M187.57,341H314.31c-3-9-6.4-18.6-10.12-29-27.48-76.73-53-82.69-77.93-78.78-41.36,6.49-40,50.9-38.79,103C187.51,337.79,187.54,339.39,187.57,341Z"/><path d="M170.2,320.3c2-2.47,11.06-5.06,24.51-1.6s24.83,14.76,21.85,13.85-24.91-2.66-29.18-2.79-16.38,4.53-17.58,4.53S169.14,321.63,170.2,320.3Z"/><path d="M300.07,301.12c-1.05-2-9.32,6.26-12.78,17.71-.94,3.07,6.52-5.46,9-6.52s8.66,1.6,8.8.93S301.54,303.92,300.07,301.12Z"/><path class="cls-1" d="M183.26,265.82c-8,1.07-70.07,32.23-75.93,61.54-.68,4.33,1.21,9,4.44,13.65h35.37c-5.24-5-9-10.08-8.37-13.65,1.59-8.53,34.1-25,44.75-26.11"/><path class="cls-1" d="M307.19,37.18C303.85,21.68,295.33,5.56,271.37,1s-37.09,12.05-40.3,25.21-.68,48.69,29.18,63.22,38.81-6.66,43.46-15.86S310.14,50.86,307.19,37.18Z"/><path class="cls-2" d="M271.41,60.65c-2.26-7.9,8.43-28.82,18.42-32.24s13.48,1.22,17.36,8.77,1.63,29.14-2.38,36.84S278.75,86.35,271.41,60.65Z"/><path class="cls-1" d="M93.34,99.06C89.21,79.74,77.81,62.45,48.43,56.75S5.28,89.16,1.37,105.55s-.6,60,59.2,64.86"/><path class="cls-2" d="M10.75,102.72c12-15.92,37.11-13,52.29-2.26s27.47,15.9,19.26,43.3S49.32,169.4,32.65,160-6.48,125.64,10.75,102.72Z"/><path class="cls-1" d="M143.57,24.17c41.13-18.93,79-5.13,117.76,16.11s73.42,59.32,80.11,71.57,19.59,44.81,5.22,86.59c-11,31.89-48.45,64.84-137.68,81.12C151,290.15,77.24,277,63.89,208.09,44.77,109.43,101.55,43.51,143.57,24.17Z"/><path class="cls-3" d="M239.27,61.61c-.05-7.15.61-16.64,13.47-18.57,7.54-1.13,18.24,6.62,20.87,11.4"/><path class="cls-2" d="M164.87,131.42c18-2.72,48.09-.67,48.67-.2,2.57,2.08,3.47,5.58,4.19,8.88,4.7,21.57.58,38.48-34.29,43.45s-67.81,4.35-72.69-19.11c-3.55-17.09,3.46-32.8,21-42.1C138.29,118.88,155.42,132.84,164.87,131.42Z"/><path class="cls-2" d="M271.3,71.49c18.79-5.26,44.53,11.08,55.34,41.66,7.57,21.4,7,46.33-15,56.68-24,11.33-52.95,4.66-64.39-27.62C235.49,109,245.68,78.67,271.3,71.49Z"/><path class="cls-4" d="M169.54,128.14c22.48.69,34,1.63,35.83,15.93,2,15.34-2.4,20.25-12.12,24s-36,7.88-60.21-1.6c-12.26-4.8-5-23.64,1.33-33C141.22,123.23,159.09,127.82,169.54,128.14Z"/><path class="cls-4" d="M274.41,87.13c14.64-3.64,27.75,1.43,35.27,18.69s5.59,34,.56,42.74-18.42,19.94-35.79,8.9S256.37,132,256.87,117.29,264.62,89.56,274.41,87.13Z"/><ellipse cx="193.2" cy="150.07" rx="11.73" ry="15.84" transform="translate(-12.42 17.52) rotate(-5.03)"/><ellipse cx="294.26" cy="127.33" rx="10.92" ry="15.84" transform="translate(-19.4 60.86) rotate(-11.43)"/><path d="M224.57,87.51c3.2-.49,14.12-14.22,13.25-18s-38,2.81-37.78,8.28S218.23,88.47,224.57,87.51Z"/><path d="M191.39,31.89c3.27-.92,12.42-13.83,12.31-15s-19.38-3.71-30-2.37-22.1,5.25-23.73,7.3S181.11,34.8,191.39,31.89Z"/><path d="M271.74,27.53c1.71,0-1.08-23.58-4.63-27.48a51,51,0,0,0-13.2,1.57c-6.26,1.75-12.67,7.53-13.15,7.87s12.7-.41,20.2,6.15S268.82,27.48,271.74,27.53Z"/><path d="M221.55,143.27c1.12.21,11.07-16.72,7.2-24.21s-10.66-1.46-11,7S218,142.58,221.55,143.27Z"/><path d="M107.43,85c-.62,1,11.29,16.57,19.68,15.82s5.39-9.32-2.3-12.85S109.42,82,107.43,85Z"/><path d="M248.8,139.66c-1.06.41-13.81-14.53-11.31-22.57s10.24-3.31,12.07,5S252.2,138.36,248.8,139.66Z"/><path d="M102.43,135.5c3.4,5.25,15.56,28.72,34,37.92,0,0-4.9,3.64-23.57-7.95S100.34,132.28,102.43,135.5Z"/><path d="M335.4,112.66c-1.44,4.35-6,23.44-16.2,32.59,0,0,3.43,2.14,13.43-8.82S336.28,110,335.4,112.66Z"/><path d="M56.21,97c.62,1.34,12.9-9.56,14.1-16.39s2.1-13.72,1-15.43-17.27-8.21-20.79-8.3c-1.74-.45,8.69,8.66,8.06,22S55.22,94.83,56.21,97Z"/><path d="M144.58,285.73c.36,3.37,1.62,14.45,5.9,18.41,1.15,1.45-9-3.65-12.22-13.15C137.82,289.22,144.58,285.73,144.58,285.73Z"/><path d="M120.37,306.12c1.19,3.18,5.14,13.6,10.27,16.39,1.47,1.11-9.62-1.33-15.09-9.73C114.69,311.17,120.37,306.12,120.37,306.12Z"/><path d="M149.52,316.39c-2.16-1.29-9.27-5.59-11-10-.71-1.3.46,7.93,6.08,13.24C145.72,320.46,149.52,316.39,149.52,316.39Z"/><path d="M174.41,303.77c-1.65-1.9-7-8.21-7.27-13-.27-1.46-2,7.67,1.62,14.48C169.52,306.44,174.41,303.77,174.41,303.77Z"/><path class="cls-2" d="M91.43,257c-8.41-8.07,65.91-70.85,147.85-71.1s86.62,30.61,88.44,41.43-57.86,43-94.74,49.59S130,294,91.43,257Z"/><path class="cls-5" d="M244,182.15c5.88-.13,14.73-1.48,16.18,1.79s-.13,9.06-6.84,10.09-10.16.62-15,.4-11.7-1.62-12.14-8.8C225.94,180.55,240,182.24,244,182.15Z"/><path class="cls-6" d="M124.51,119.56c19.18,17.19,35,16.62,45.56,16.79,16.64.26,46-6.2,46-6.2"/><path d="M343.3,206.18c-7.72,6.19-38.1,9.28-45,8.73-1.11,1,23.94,9.28,38,3.84C338.1,218.19,344,205.58,343.3,206.18Z"/><path d="M63.85,208.32c15.67,13.31,49.22,22.51,55.87,23.53s-33.82,8.77-46.12,4.22C71.69,233.66,65.72,223.91,63.85,208.32Z"/><path class="cls-3" d="M229.48,246.11c2.39-5.87,8.26-16.52,13.05-17.59s6.93,14.12,8.79,14.66"/><path d="M311.78,275.71c-1-2-9.32,6.26-12.79,17.71-.93,3.07,6.53-5.46,9.06-6.52s8.66,1.59,8.79.93S313.25,278.5,311.78,275.71Z"/><path d="M299.17,248.88c-1.05-2-9.32,6.26-12.79,17.71-.93,3.07,6.53-5.46,9.06-6.52s8.66,1.59,8.79.93S300.64,251.67,299.17,248.88Z"/><path class="cls-1" d="M330.45,339.49c12-.94,9.58-25.84,7.79-38.91-1.52-11.08-6.94-24.88-4.12-25.86s11-10.14,11.23-25.86c.1-5.83-8.81-21.32-34.63-20.25-19.19.8-26.62,21.17-24.51,30.11,4.26,18.11,20,17.58,20,20.24,0,5.89.23,13.75.53,21.32.55,13.76,3.13,24.67,7.21,31.21C317.1,336.57,321.32,339.75,330.45,339.49Z"/><path d="M305.84,286.66c3,1.48,13.09,6.32,18.73,4.8,1.83-.2-7.89,5.67-17.64,3.35C305.19,294.23,305.84,286.66,305.84,286.66Z"/><path d="M316.44,334.82c2.49-.29,10.66-1.29,12.79-4,.86-.74-.92,5.64-7.48,7.81C320.49,338.93,316.44,334.82,316.44,334.82Z"/><path class="cls-2" d="M305.39,227.82c-5.05,1.81-12.82,6.6-16.5,13.09-3.92,6.91-3.79,18.67-2.8,15.19,1.06-3.77,1.66-8.66,5-13.45,3.71-5.28,10.87-11.67,27.26-11.4,14.88.24,19.63,5.66,26.19,13.92,0,0-1.18-11.67-11.73-16S310.94,225.82,305.39,227.82Z"/><path d="M339.5,309.82c-2.4.78-10.31,3.3-14.78,1.66-1.45-.33,6.28,4.86,14,4.12C340.06,315.36,339.5,309.82,339.5,309.82Z"/></g></g></svg>