<svg xmlns="http://www.w3.org/2000/svg" xmlns:xlink="http://www.w3.org/1999/xlink" viewBox="0 0 356.13 461.18"><defs><style>.cls-1,.cls-11,.cls-24,.cls-8{fill:none;}.cls-10,.cls-2,.cls-32,.cls-7{fill:#ffb129;}.cls-10,.cls-11,.cls-19,.cls-2,.cls-21,.cls-22,.cls-24,.cls-25,.cls-26,.cls-32,.cls-4,.cls-5,.cls-8{stroke:#000;}.cls-19,.cls-2,.cls-21,.cls-22,.cls-24,.cls-25,.cls-26,.cls-4,.cls-5,.cls-8{stroke-linecap:round;}.cls-11,.cls-19,.cls-2,.cls-21,.cls-22,.cls-24,.cls-25,.cls-26,.cls-4,.cls-5,.cls-8{stroke-linejoin:round;}.cls-10,.cls-18,.cls-19,.cls-2,.cls-21,.cls-22,.cls-23,.cls-25,.cls-26,.cls-32,.cls-4,.cls-5,.cls-7{fill-rule:evenodd;}.cls-3{clip-path:url(#clip-path);}.cls-4{fill:#1c1c1c;}.cls-18,.cls-26,.cls-5{fill:#fef5e4;}.cls-6{clip-path:url(#clip-path-5);}.cls-9{clip-path:url(#clip-path-11);}.cls-10,.cls-30,.cls-31,.cls-32{stroke-miterlimit:10;}.cls-12{clip-path:url(#clip-path-14);}.cls-13{clip-path:url(#clip-path-18);}.cls-14{clip-path:url(#clip-path-22);}.cls-15{clip-path:url(#clip-path-29);}.cls-16{clip-path:url(#clip-path-31);}.cls-17{clip-path:url(#clip-path-34);}.cls-19{fill:#7b2325;}.cls-20{clip-path:url(#clip-path-47);}.cls-21{fill:#f06b6b;}.cls-22,.cls-23{fill:#fff;}.cls-24{stroke-width:3px;}.cls-25{fill:#fea49c;}.cls-26,.cls-32{stroke-width:0.75px;}.cls-27{fill:#fcb042;stroke:#562f09;stroke-miterlimit:10;}.cls-28{fill:#ed9520;}.cls-29{fill:#fce8c8;}.cls-30{fill:#e44b86;stroke:#b53167;}.cls-31{fill:#a0a0b1;stroke:#71717f;}</style><clipPath id="clip-path" transform="translate(10.33 13.49)"><path class="cls-1" d="M200.7,413.66c.11.1,2.7,7.26,12,6.95,8.83-.31,10.9-7.06,10.9-7.16.11-.31-8.4-33.53-11.73-47.55-3.11-12.87-8.09-42.14-10.17-43.81-.62-.51-6.64-3.21-14.64-.93-8.41,2.39-12.35,7.58-12.56,8.93-.52,2.59,8.93,30.21,13,43.08C191.26,385.42,200.6,413.66,200.7,413.66Z"/></clipPath><clipPath id="clip-path-5" transform="translate(10.33 13.49)"><path class="cls-1" d="M159.49,334.47c-3,12.25-6.64,28.24-11.94,39.34-5,10.39-18.58,29.38-30.1,38.41A66.66,66.66,0,0,1,81,426.76c-10.8.83-32,.83-36-1.14s-3.43-14,.93-15.37c3.32-1,16.61.31,23.78.21,10.27-.21,29.58-5.09,33.94-8.1,3.43-2.39,15.37-13.7,20-21.9,7.47-13.19,15.57-29.9,18.79-46.72.83-4.25,4.36-11.21,8.61-11.52S160.63,330.11,159.49,334.47Z"/></clipPath><clipPath id="clip-path-11" transform="translate(10.33 13.49)"><path class="cls-1" d="M119.42,417s-3.22,3.11-11.31,3.43c-7.89.31-11.22-2.6-11.22-2.6s8.2-33.32,11.94-46.3c3.22-11.11,4.88-37.48,6.65-40.59.83-1.45,5.71-6.85,14.22-5.5a15.08,15.08,0,0,1,11.83,9.76c.94,4-5.91,29.37-9.24,41.83C129,389.18,119.52,417,119.42,417Z"/></clipPath><clipPath id="clip-path-14" transform="translate(10.33 13.49)"><path class="cls-1" d="M193.65,227.65c.31-5.82,4.46-8.1,6.33-8.1,3.11,0,57.93,6.54,59,6.23s40.39-32.7,40.18-33.12c-1-2.8-3.84-10.07,6.12-18,8.72-6.95,19-2.18,23.78,3.12,4.36,4.77,5.19,15.57,1.14,21.7-3.74,5.6-11.84,7.47-18.69,7-5.5-.31-42.77,37.69-49.1,39.56s-60.32-8.52-63.85-10.28C198.21,235.64,193.33,233.15,193.65,227.65Z"/></clipPath><clipPath id="clip-path-18" transform="translate(10.33 13.49)"><path class="cls-1" d="M129.8,231.7c.11-5.51-4.67-8.2-5-8.41-1.45-1-48.48-3.32-50-4.26S36,179.69,36.06,179.17c2.08-5.92,1.45-10.38-2.8-17-6.75-10.69-18.9-11.42-27.82-3.42-3.95,3.53-6,11.31-4.36,17,2.59,8.62,11.62,15.16,20.76,16.92.41.11,38,40.91,46.4,44.54,7.27,3.11,52.63,4.88,55.33,3.32C124.2,240.21,129.59,237.72,129.8,231.7Z"/></clipPath><clipPath id="clip-path-22" transform="translate(10.33 13.49)"><path class="cls-1" d="M163.33,185.5c-12.56-.41-29.06,2.6-38,10.38-5,4.36-9.14,18.17-9.66,19.73-1.45,4.25-6.74,37.06-9.55,52.94-3,17.54-9.65,40.8-9.76,58.55-.1,9.24,2.18,25.74,9.87,28.44,14.74,5.09,36.23,3.22,51.8,3.64,13.08.41,29.48.83,43.6-.42,11.31-1,14.12-17.75,15.26-27.61,2.8-22.94-1.45-41.63-2.8-59.69-1.25-17.34-3.12-47.13-5.4-56-.73-2.8-2.91-12.87-6.75-16.71C193.54,190,176.41,185.81,163.33,185.5Z"/></clipPath><clipPath id="clip-path-29" transform="translate(10.33 13.49)"><path class="cls-1" d="M110.49,42C109.87,34.87,96.06,15.67,86.82,10,71.88.82,53.4,3.21,43.22,11.41,28.9,22.93,24.75,49.51,34.5,61c13.08,15.57,25.64,15.26,32,16.3,5.81.93,21,3.22,27.61-1.77C115.06,59.58,111.12,48.78,110.49,42Z"/></clipPath><clipPath id="clip-path-31" transform="translate(10.33 13.49)"><path class="cls-1" d="M244.93,54.8C247,48,264.45,32,274.72,28.33c16.51-5.92,34,.31,42.36,10.38,11.62,14.22,10.17,41-1.66,50.35-16.09,12.56-28.24,9.65-34.57,9.34-5.92-.2-21.18-1.24-26.68-7.47C236.83,71.1,243,61.24,244.93,54.8Z"/></clipPath><clipPath id="clip-path-34" transform="translate(10.33 13.49)"><path class="cls-1" d="M183.68,1.24c35.5,5.6,65.09,34.88,84.61,68.2,18.89,32.08,25.53,71,18.16,100.8-3.32,13.5-14.32,32.6-22.94,38.72-13.81,10-39.34,13.91-56.89,16.82-13.39,2.18-33.11,3.11-45.05,2.08-18.69-1.67-38.2-5.71-53.67-11.22-12.46-4.36-30.42-11.42-39.24-19.82-10.28-9.87-22.22-33.95-23.26-52C43,106.19,69.07,63,106,30.93,127.52,12.55,155.55-3.12,183.68,1.24Z"/></clipPath><clipPath id="clip-path-47" transform="translate(10.33 13.49)"><path class="cls-1" d="M96.58,167.54c10,2.49,19.83,5.5,32.39,7.58,14.74,2.39,31.14,3,39,3.74s28,2.9,39.25,3c10.69.1,19.93-.94,37.57-1.87,4.16-.21,14.33-1.35,14.54-1s-8.51,17.44-16.2,23.25c-10,7.48-23.15,9-35,11.11A173.88,173.88,0,0,1,163,214.46c-14.84-1.55-31.14-4-47.13-11.21C105,198.37,97,194,88.49,184.57c-6.55-7.27-12.57-22.32-12.57-22.32S90.15,166,96.58,167.54Z"/></clipPath></defs><title>Tigre glosa</title><g id="Layer_2" data-name="Layer 2"><g id="Frame_6" data-name="Frame 6"><g id="Tigre"><g id="pierna_izq" data-name="pierna izq"><g id="pierna_izq-2" data-name="pierna izq"><path class="cls-2" d="M200.7,413.68c.11.1,2.7,7.26,12.05,6.95,8.82-.31,10.9-7.06,10.9-7.16.1-.31-8.41-33.53-11.73-47.55-3.12-12.87-8.1-42.14-10.18-43.8-.62-.52-6.64-3.22-14.63-.94-8.41,2.39-12.36,7.58-12.57,8.93-.51,2.59,8.93,30.21,13,43.08C191.26,385.44,200.6,413.68,200.7,413.68Z" transform="translate(10.33 13.49)"/></g><g id="pata_izq" data-name="pata izq"><path class="cls-2" d="M198.73,417.52c-.83,1.35-1.87,5.29-2.39,7.68-.62,2.91-1.34,9.45-1,10,.52.72,12.77,1.55,17.75,1.66a200.62,200.62,0,0,0,20.35-1.14c.93-.32,1-4.47.93-6.44a23.77,23.77,0,0,0-2.39-8.93c-.41-.93-3.63-5.19-5.92-6.43-2.9-1.56-6-1.86-10.68-2.2s-9.77.12-13.3,2.09A9.86,9.86,0,0,0,198.73,417.52Z" transform="translate(10.33 13.49)"/></g><g id="relleno_pierna_der_2" data-name="relleno pierna der 2"><g class="cls-3"><path class="cls-4" d="M179,374.1a36.81,36.81,0,0,1,5.39-4.25c4.68-2.29,17.44-5.4,17.44-5.4s-13.6-2.7-18-.52C180.35,365.7,179,374.1,179,374.1Z" transform="translate(10.33 13.49)"/></g><g class="cls-3"><path class="cls-4" d="M231.12,383a36.89,36.89,0,0,0-6.75-1.35c-5.5-.1-18.06,3-18.06,3s9.86-9.13,15.78-8.51C225.93,376.49,231.12,383,231.12,383Z" transform="translate(10.33 13.49)"/></g><g class="cls-3"><path class="cls-4" d="M186.17,410.33a35,35,0,0,1,5.4-4.36c4.56-2.38,17.44-5.6,17.44-5.6s-13.6-2.6-18-.31C187.31,401.93,186.17,410.33,186.17,410.33Z" transform="translate(10.33 13.49)"/></g><g class="cls-3"><path class="cls-5" d="M241.91,428.81s-11.62,3.95-20,4.36a93.41,93.41,0,0,1-17.13-.62c-6-.52-19.2-4.46-19.2-4.46s6.54,12.35,12.66,15.36c7.27,3.63,20.45,4.67,28.86,2.91C239.32,443.86,241.91,428.81,241.91,428.81Z" transform="translate(10.33 13.49)"/></g></g></g><g id="cola"><g id="Cola-2" data-name="Cola"><path class="cls-2" d="M159.49,334.47c-3,12.25-6.64,28.24-11.94,39.34-5,10.39-18.58,29.38-30.1,38.41A66.66,66.66,0,0,1,81,426.76c-10.8.83-32,.83-36-1.14s-3.43-14,.93-15.37c3.32-1,16.61.31,23.78.21,10.27-.21,29.58-5.09,33.94-8.1,3.43-2.39,15.37-13.7,20-21.9,7.47-13.19,15.57-29.9,18.79-46.72.83-4.25,4.36-11.21,8.61-11.52S160.63,330.11,159.49,334.47Z" transform="translate(10.33 13.49)"/></g><g id="relleno_cola" data-name="relleno cola"><g class="cls-6"><path class="cls-4" d="M82.46,399.56A41.66,41.66,0,0,1,89.21,402c4.26,2.49,11.52,10.59,11.52,10.59s.32-10.7-4.25-13.19C93.16,397.48,82.46,399.56,82.46,399.56Z" transform="translate(10.33 13.49)"/></g><g class="cls-6"><path class="cls-5" d="M154.41,347.24s-5.82,14.84-9,21a173.83,173.83,0,0,1-16.19,25.54c-9.86,12.87-15.68,17.54-32.49,24.81-8,3.53-21.7,2.8-31.15,3-8,.2-26.68-1.46-26.68-1.46s-1.24,19.21,32.6,21.8c18.37,1.35,41.73-11.93,51.91-23C170,367.9,154.41,347.24,154.41,347.24Z" transform="translate(10.33 13.49)"/></g><g class="cls-6"><path class="cls-4" d="M74.78,414.72s-.83,5.39-1.45,7.78c-1,3.84-3.43,13-3.43,13s7.58-6.85,8.31-10.49C78.73,421.77,74.78,414.72,74.78,414.72Z" transform="translate(10.33 13.49)"/></g><g class="cls-6"><path class="cls-4" d="M50.18,397.9s1,5.5,1.24,7.78c.32,3.95,1.15,13.29,1.15,13.29s5-8.1,4.36-11.73C56.41,404.13,50.18,397.9,50.18,397.9Z" transform="translate(10.33 13.49)"/></g><g class="cls-6"><path class="cls-4" d="M120.77,366.55a38.55,38.55,0,0,1,6.75-1.56c5.4-.21,18.06,2.6,18.06,2.6s-10.28-8.72-16-8.21C125.65,359.8,120.77,366.55,120.77,366.55Z" transform="translate(10.33 13.49)"/></g><g class="cls-6"><path class="cls-4" d="M143.09,405a34.27,34.27,0,0,0-5.5-4.16c-4.67-2.28-17.55-5.29-17.55-5.29s13.4-3,18-.73C141.64,396.65,143.09,405,143.09,405Z" transform="translate(10.33 13.49)"/></g></g></g><g id="pierna_der" data-name="pierna der"><g id="pierna_der-2" data-name="pierna der"><path class="cls-7" d="M119.42,417s-3.22,3.11-11.31,3.43c-7.89.31-11.22-2.6-11.22-2.6s8.2-33.32,11.94-46.3c3.22-11.11,4.88-37.48,6.65-40.59.83-1.45,5.71-6.85,14.22-5.5a15.08,15.08,0,0,1,11.83,9.76c.94,4-5.91,29.37-9.24,41.83C129,389.18,119.52,417,119.42,417Z" transform="translate(10.33 13.49)"/><path class="cls-8" d="M96.89,417.83s8.2-33.32,11.94-46.3c3.22-11.11,4.88-37.48,6.65-40.59.83-1.45,5.71-6.85,14.22-5.5a15.08,15.08,0,0,1,11.83,9.76c.94,4-5.91,29.37-9.24,41.83-3.32,12.15-12.77,39.87-12.87,40" transform="translate(10.33 13.49)"/></g><g id="pata_der" data-name="pata der"><path class="cls-2" d="M119.21,413.89c2.81,2.8,2.81,7.88,3.33,11.41.51,3,.83,9.55.51,10.07-.41.73-10.9,1.46-15.15,1.46-6.23.1-21.08-1.25-22.22-1.66s-.93-4.88-.72-7c.2-2.49.83-5.92,2.28-7.89,2-3,6.44-5.6,9.65-6.95A26.71,26.71,0,0,1,108,411.5C112.89,411.55,118.28,413,119.21,413.89Z" transform="translate(10.33 13.49)"/></g><g id="relleno_pierna_der" data-name="relleno pierna der"><g class="cls-9"><path class="cls-4" d="M99.18,364.68s4.67-1.45,6.75-1.45c5.5-.11,18.06,2.69,18.06,2.69s-10.17-8.82-15.88-8.3C104.16,358,99.18,364.68,99.18,364.68Z" transform="translate(10.33 13.49)"/></g><g class="cls-9"><path class="cls-4" d="M138.63,398a36,36,0,0,0-4.78-5c-4.26-2.91-16.51-7.79-16.51-7.79s13.92-.83,17.86,2C138.42,389.49,138.63,398,138.63,398Z" transform="translate(10.33 13.49)"/></g><g class="cls-9"><path class="cls-4" d="M86.1,395a40.79,40.79,0,0,1,6.85-.52c5.5.63,17.54,5.19,17.54,5.19S102,389.28,96,389.18C92.12,389.18,86.1,395,86.1,395Z" transform="translate(10.33 13.49)"/></g></g></g><g id="brazo_izq" data-name="brazo izq"><g id="brazo_izq-2" data-name="brazo izq"><path class="cls-10" d="M193.65,227.65c.31-5.82,4.46-8.1,6.33-8.1,3.11,0,57.93,6.54,59,6.23s40.39-32.7,40.18-33.12c8.83-8.21,2.1-14.1,12.07-22,8.72-6.95,13.05,1.85,17.83,7.15,4.36,4.77,5.19,15.57,1.14,21.7-3.74,5.6-11.84,7.47-18.69,7-5.5-.31-42.77,37.69-49.1,39.56s-60.32-8.52-63.85-10.28C198.21,235.64,193.33,233.15,193.65,227.65Z" transform="translate(10.33 13.49)"/><path d="M193.65,227.65c.31-5.82,4.25-8.51,6.33-8.51V220c-1.77,0-6,2-6.33,7.68Z" transform="translate(10.33 13.49)"/><path class="cls-11" d="M258.74,225.05l.41,1.46" transform="translate(10.33 13.49)"/><path d="M198.52,236.26c-.51-.2-5.19-3.21-4.87-8.61h0c-.32,5.4,4.77,7.68,5.19,7.89Z" transform="translate(10.33 13.49)"/><path class="cls-11" d="M198.52,236.26l.32-.72" transform="translate(10.33 13.49)"/></g><g id="relleno_brazo_2" data-name="relleno brazo 2"><g class="cls-12"><path class="cls-4" d="M234,254.33s-3-4.36-3.53-6.54c-1.35-5.3-.62-18.38-.62-18.38s-9.14,11.53-7.48,16.82C223.54,250.38,234,254.33,234,254.33Z" transform="translate(10.33 13.49)"/></g><g class="cls-12"><path class="cls-4" d="M254.06,211s.21,5.29,1.15,7.37c2.07,5.09,10.58,15,10.58,15s-14.22-3.74-16.19-8.93C248.15,220.48,254.06,211,254.06,211Z" transform="translate(10.33 13.49)"/></g><g class="cls-12"><path class="cls-4" d="M311,228.69s-5.19-.94-7.16-2.08c-4.78-2.7-13.39-12.46-13.39-12.46s1.76,14.64,6.64,17.24C300.78,233.36,311,228.69,311,228.69Z" transform="translate(10.33 13.49)"/></g><g class="cls-12"><path class="cls-5" d="M298.92,163.23s19.9,5.4,25.8,15.93c3.23,5.69,3.11,10.82,2.46,17-.81,7.15-11.4,20.94-11.4,20.94s23.61-10.39,27.8-19.68c2.92-6.4,1.91-17.21-1.44-23.48C332.87,156.35,298.92,163.23,298.92,163.23Z" transform="translate(10.33 13.49)"/></g></g></g><g id="brazo_der" data-name="brazo der"><g id="brazo_der-2" data-name="brazo der"><path class="cls-10" d="M129.8,231.7c.11-5.51-4.67-8.2-5-8.41-1.45-1-48.48-3.32-50-4.26S36,179.69,36.06,179.17c2.08-5.92,1.45-10.38-2.8-17-6.75-10.69-18.9-11.42-27.82-3.42-3.95,3.53-6,11.31-4.36,17,2.59,8.62,11.62,15.16,20.76,16.92.41.11,38,40.91,46.4,44.54,7.27,3.11,52.63,4.88,55.33,3.32C124.2,240.21,129.59,237.72,129.8,231.7Z" transform="translate(10.33 13.49)"/><path d="M129.8,231.7c.11-5.51-4.88-7.89-5.19-8.1l.52-.62a10.76,10.76,0,0,1,4.67,8.72Z" transform="translate(10.33 13.49)"/><path class="cls-11" d="M124.61,223.6l.52-.62" transform="translate(10.33 13.49)"/><path d="M123.47,240.11c.52-.32,6.12-2.39,6.33-8.41h0c-.21,6-5.29,9-5.81,9.34Z" transform="translate(10.33 13.49)"/><path class="cls-11" d="M123.47,240.11l.52.93" transform="translate(10.33 13.49)"/></g><g id="relleno_brazo" data-name="relleno brazo"><g class="cls-13"><path class="cls-4" d="M88.07,254.33s3.53-4,4.36-6c2.08-5.09,2.91-18.17,2.91-18.17s7.57,12.56,5.39,17.65C98.87,251.73,88.07,254.33,88.07,254.33Z" transform="translate(10.33 13.49)"/></g><g class="cls-13"><path class="cls-4" d="M76.44,201.59s-.83,5.19-2,7.16c-2.59,4.78-12.25,13.71-12.25,13.71s14.53-2.08,17-7C81.22,211.66,76.44,201.59,76.44,201.59Z" transform="translate(10.33 13.49)"/></g><g class="cls-13"><path class="cls-4" d="M17.89,212.6s5.3-.32,7.37-1.25c5-2.18,14.75-10.9,14.75-10.9s-3.43,14.33-8.62,16.3C27.44,218.3,17.89,212.6,17.89,212.6Z" transform="translate(10.33 13.49)"/></g><g class="cls-13"><path class="cls-5" d="M47.06,163s-18.37-9-29.89-5.08c-6.23,2.18-9.55,5.91-13.19,11-4.15,5.92-5.4,23.36-5.4,23.36s-10.9-23.36-7.88-33.12c2.07-6.85,10.17-14.32,16.92-16.82C26.09,135.46,47.06,163,47.06,163Z" transform="translate(10.33 13.49)"/></g></g></g><g id="cuerpo"><g id="cuerpo-2" data-name="cuerpo"><path class="cls-2" d="M163.33,185.5c-12.56-.41-29.06,2.6-38,10.38-5,4.36-9.14,18.17-9.66,19.73-1.45,4.25-6.74,37.06-9.55,52.94-3,17.54-9.65,40.8-9.76,58.55-.1,9.24,2.18,25.74,9.87,28.44,14.74,5.09,36.23,3.22,51.8,3.64,13.08.41,29.48.83,43.6-.42,11.31-1,14.12-17.75,15.26-27.61,2.8-22.94-1.45-41.63-2.8-59.69-1.25-17.34-3.12-47.13-5.4-56-.73-2.8-2.91-12.87-6.75-16.71C193.54,190,176.41,185.81,163.33,185.5Z" transform="translate(10.33 13.49)"/></g><g id="detalle"><g class="cls-14"><path class="cls-5" d="M130.42,187.47c-16.71,19.42-9.13,41.32-11.83,59.28-5.71,39-24,108-6,118.76,21.7,12.87,78.27,8.2,84,2.28,24.61-25.64,14.22-82.53,12.15-118C207.56,231,207.24,221,196.24,188.3c-2.49-7.37-22.53-12.45-33.22-12.56C152.64,175.74,135.41,181.76,130.42,187.47Z" transform="translate(10.33 13.49)"/></g><g class="cls-14"><path class="cls-4" d="M59.73,255c11.52-4.15,26.37-14.43,38.62-13.5,5.91.42,12.25,6.23,17.85,8.31,6.54,2.39,22.43,6,22.43,6s-30,2.49-42.46-3.84c-8.93-4.57-18-.52-32.81,6C59.11,259.83,48,259.31,48,259.31S56.2,256.2,59.73,255Z" transform="translate(10.33 13.49)"/></g><g class="cls-14"><path class="cls-4" d="M58.28,283.29C70,279.66,85.37,269.8,97.52,271.77c5.19.83,10.17,6.85,15,8.72,5.19,2,18.06,3.73,18.06,3.73s-25.43,3.33-35.81-2.07c-8.83-4.57-17.86-1.45-33,4.36-4.36,1.66-15.47.62-15.47.62S54.64,284.43,58.28,283.29Z" transform="translate(10.33 13.49)"/></g><g class="cls-14"><path class="cls-4" d="M55.68,322.22c11.73-3.63,27.1-13.5,39.24-11.52,5.19.83,10.18,6.85,15,8.72,5.19,2,18.07,3.73,18.07,3.73s-25.44,3.33-35.82-2.07c-8.82-4.57-17.85-1.46-33,4.36-4.36,1.66-15.47.62-15.47.62S52.05,323.26,55.68,322.22Z" transform="translate(10.33 13.49)"/></g><g class="cls-14"><path class="cls-4" d="M258.74,335.72c-11.11-5.09-25.13-16.93-37.38-16.72-5.19.11-11,5.5-16.09,6.65-5.4,1.24-18.37,1.24-18.37,1.24s24.71,6.75,35.81,2.7c9.45-3.43,18,.93,32.18,8.72,4.05,2.18,15.26,2.6,15.26,2.6S262.16,337.27,258.74,335.72Z" transform="translate(10.33 13.49)"/></g><g class="cls-14"><path class="cls-4" d="M261.12,299.8c-11.1-5.09-25.12-16.92-37.37-16.72-5.19.11-11,5.51-16.09,6.65-5.4,1.24-18.37,1.24-18.37,1.24s24.7,6.75,35.81,2.7c9.45-3.42,18,.94,32.18,8.72,4.05,2.18,15.26,2.6,15.26,2.6S264.55,301.35,261.12,299.8Z" transform="translate(10.33 13.49)"/></g><g class="cls-14"><path class="cls-4" d="M263.2,262.42c-11.42-4.56-25.85-15.67-38.1-14.84-5.19.41-10.69,6-15.78,7.47-5.29,1.56-18.27,2.18-18.27,2.18s25,5.51,35.92.94c9.24-3.84,18,.1,32.6,7.06,4.15,2,15.36,1.87,15.36,1.87S266.63,263.88,263.2,262.42Z" transform="translate(10.33 13.49)"/></g></g></g><g id="cabeza"><g id="cabeza-2" data-name="cabeza"><path class="cls-2" d="M183.68,1.24c35.5,5.6,65.09,34.88,84.61,68.2,18.89,32.08,25.53,71,18.16,100.8-3.32,13.5-14.32,32.6-22.94,38.72-13.81,10-39.34,13.91-56.89,16.82-13.39,2.18-33.11,3.11-45.05,2.08-18.69-1.67-38.2-5.71-53.67-11.22-12.46-4.36-30.42-11.42-39.24-19.82-10.28-9.87-22.22-33.95-23.26-52C43,106.19,69.07,63,106,30.93,127.52,12.55,155.55-3.12,183.68,1.24Z" transform="translate(10.33 13.49)"/></g><g id="OREJA_DER" data-name="OREJA DER"><g id="oreja_Der-2" data-name="oreja Der"><path class="cls-7" d="M110.49,42C109.87,34.87,96.06,15.67,86.82,10,71.88.82,53.4,3.21,43.22,11.41,28.9,22.93,24.75,49.51,34.5,61c13.08,15.57,25.64,15.26,32,16.3,5.81.93,21,3.22,27.61-1.77C115.06,59.58,111.12,48.78,110.49,42Z" transform="translate(10.33 13.49)"/><path class="cls-8" d="M110.49,42C109.87,34.87,96.06,15.67,86.82,10,71.88.82,53.4,3.21,43.22,11.41,28.9,22.93,24.75,49.51,34.5,61c13.08,15.57,25.64,15.26,32,16.3" transform="translate(10.33 13.49)"/></g><g id="relleno_oreja" data-name="relleno oreja"><g class="cls-15"><path class="cls-5" d="M31.29,25.74c8.72-7.48,21.38-6.23,29.37-2.6,10.28,4.78,21.39,19.93,21,31.25C81.32,62.9,73.12,74.63,65,77.64c-14.11,5.3-41.73-2.08-47.85-15.88C12.91,51.69,22.57,33.31,31.29,25.74Z" transform="translate(10.33 13.49)"/></g><g class="cls-15"><path class="cls-4" d="M80.6,1.13c-.21,6.13-2.5,14.33-5.09,19.93-3.43,7.58-16.2,22.63-16.2,22.63s20.77-8,25.75-15.46S91.81,6.84,88.8-1.67C87.24-6,78.31-13,78.31-13S80.7-3.12,80.6,1.13Z" transform="translate(10.33 13.49)"/></g></g></g><g id="OREJA_IZQ" data-name="OREJA IZQ"><g id="oreja_Der-3" data-name="oreja Der"><path class="cls-7" d="M244.93,54.8C247,48,264.45,32,274.72,28.33c16.51-5.92,34,.31,42.36,10.38,11.62,14.22,10.17,41-1.66,50.35-16.09,12.56-28.24,9.65-34.57,9.34-5.92-.2-21.18-1.24-26.68-7.47C236.83,71.1,243,61.24,244.93,54.8Z" transform="translate(10.33 13.49)"/><path class="cls-8" d="M244.93,54.8C247,48,264.45,32,274.72,28.33c16.51-5.92,34,.31,42.36,10.38,11.62,14.22,10.17,41-1.66,50.35-16.09,12.56-28.24,9.65-34.57,9.34" transform="translate(10.33 13.49)"/></g><g id="relleno_oreja_2" data-name="relleno oreja 2"><g class="cls-16"><path class="cls-5" d="M323.41,55.22c-7-9.14-19.62-10.49-28.24-8.52-11,2.5-25.33,15.06-27,26.27-1.24,8.41,5.5,21.07,12.87,25.43,12.57,7.48,40,7,48.59-4.88C336.07,84.49,330.47,64.46,323.41,55.22Z" transform="translate(10.33 13.49)"/></g><g class="cls-16"><path class="cls-4" d="M280.22,21.06c-1,6-.51,14.54.83,20.56,1.87,8.1,11.22,25.43,11.22,25.43S273.58,55,270.36,46.6s-2.28-22.32,2.49-30c2.39-4,12.57-8.82,12.57-8.82S281,16.81,280.22,21.06Z" transform="translate(10.33 13.49)"/></g><g class="cls-16"><path class="cls-4" d="M89.21,63.83c3.43-.2,6.54,6.34,6,9.66-.62,3.74-6.23,9.45-9.65,7.89C80.8,79.3,83.81,64.15,89.21,63.83Z" transform="translate(10.33 13.49)"/></g></g></g><g id="barbilla"><g class="cls-17"><path class="cls-5" d="M182.64,157.78c25.33,3,66.23-5.5,84,12.67,10.27,10.48,14,33.84,9.86,48-5.92,20.45-31.25,41.83-51.29,48.79-46.3,16-130.17,10-160.8-28.34C48.21,218.62,42.29,171.38,60,152.49c21.59-22.94,73.5,1,104.85,3.53C170.29,156.54,177.35,157.16,182.64,157.78Z" transform="translate(10.33 13.49)"/></g><g class="cls-17"><path class="cls-18" d="M130.63,48.68c21.7,4.77,27.2,27.3,28.65,42.66,1.35,14.12-6.54,35.71-18.27,43.6-16,10.59-51,11.74-63.84-2.38-9.86-10.8-6.54-35.61.1-48.69C85.68,67.36,101.88,42.45,130.63,48.68Z" transform="translate(10.33 13.49)"/></g><g class="cls-17"><path class="cls-18" d="M224.79,56.05c-22.74.93-31.35,22.42-35.92,37.27-4.36,13.91-2.49,37.37,7.58,47.85,13.39,13.91,48.06,21,63.53,9.55,12.25-9,14-35.19,9.86-49.83C264.86,83.14,254.27,54.91,224.79,56.05Z" transform="translate(10.33 13.49)"/></g><g class="cls-17"><path class="cls-4" d="M170.18,68.71c1.87,1.14,1,5.09.52,7.27-1.24,5.5-8,16.92-10.38,15.88-2.59-1.14-2.18-11.83,0-16.09C161.78,73,167.07,67,170.18,68.71Z" transform="translate(10.33 13.49)"/></g><g class="cls-17"><path class="cls-4" d="M181.71,73.9c-2.08.73-2,4.88-1.87,7.06.21,5.71,4.77,18.07,7.27,17.55,2.69-.63,4.25-11.21,2.9-15.89C189.18,79.61,185.13,72.66,181.71,73.9Z" transform="translate(10.33 13.49)"/></g><g class="cls-17"><path class="cls-4" d="M42.91,95.7s6.33,24.5,12.56,33.12c5.71,8,19.42,12.87,25.33,20.66a41.88,41.88,0,0,1,2.7,5.29s-15-5.4-21.28-8.09c-8.62-3.74-24-5.51-28.13-14C28.9,122.59,42.91,95.7,42.91,95.7Z" transform="translate(10.33 13.49)"/></g><g class="cls-17"><path class="cls-4" d="M298.5,121.55s-10.7,23-18.38,30.32c-7.06,6.74-22.53,8.09-28.65,15.67-1.56,2-3.12,7.89-3.12,7.89s15.37-5.19,21.91-7.27c9-2.8,24.6-1,30.31-8.61C307.32,150.52,298.5,121.55,298.5,121.55Z" transform="translate(10.33 13.49)"/></g><g class="cls-17"><path class="cls-4" d="M66.89,103.49c-.83.21-3.53,8.41-2.39,11.83,2.08,6.54,17.34,15.26,17.76,14.43.2-.52-6.13-7.47-7.89-11.21C72.6,114.6,68.14,103.28,66.89,103.49Z" transform="translate(10.33 13.49)"/></g><g class="cls-17"><path class="cls-4" d="M277.73,122.9c.83.31,1.87,8.83.21,12-3.22,6-19.83,11.84-20.14,11-.1-.52,7.48-6.23,9.76-9.55C270.05,132.87,276.59,122.49,277.73,122.9Z" transform="translate(10.33 13.49)"/></g><g class="cls-17"><path class="cls-4" d="M168.94,43.9c3.32-3.84,24.08-2.28,25.33,2.08,1.35,4.77-9.34,10.17-13.5,9.76C177.66,55.32,165.62,47.74,168.94,43.9Z" transform="translate(10.33 13.49)"/></g><g class="cls-17"><path class="cls-4" d="M129.08,3.83s16.4-2.49,23.35-1.24C161.36,4.25,171,13.17,179.84,15c6.23,1.25,15.36-5,22.21-5.19,8.93-.31,29.28,5.09,29.28,5.09s-18-16-27.61-18.27C197-4.89,187.62-.84,180.77-1c-7.58-.31-17.33-5.29-25-4.67C146.62-5.2,129.08,3.83,129.08,3.83Z" transform="translate(10.33 13.49)"/></g><g class="cls-17"><path class="cls-4" d="M73.12,207.51s14.33,1.24,20.45.93c4.47-.2,14.64-2,14.64-2s-8.72,7.37-13.29,8.1C87.86,215.61,73.12,207.51,73.12,207.51Z" transform="translate(10.33 13.49)"/></g><g class="cls-17"><path class="cls-4" d="M253.23,224.12s-14.32-1.35-20.34-2.8c-4.36-1-14-4.57-14-4.57s7.17,8.82,11.63,10.38C237.25,229.41,253.23,224.12,253.23,224.12Z" transform="translate(10.33 13.49)"/></g></g><g id="boca"><g id="boca-2" data-name="boca"><path class="cls-19" d="M96.58,167.54c10,2.49,19.83,5.5,32.39,7.58,14.74,2.39,31.14,3,39,3.74s28,2.9,39.25,3c10.69.1,19.93-.94,37.57-1.87,4.16-.21,14.33-1.35,14.54-1s-8.51,17.44-16.2,23.25c-10,7.48-23.15,9-35,11.11A173.88,173.88,0,0,1,163,214.46c-14.84-1.55-31.14-4-47.13-11.21C105,198.37,97,194,88.49,184.57c-6.55-7.27-12.57-22.32-12.57-22.32S90.15,166,96.58,167.54Z" transform="translate(10.33 13.49)"/></g><g id="lengua"><g class="cls-20"><path class="cls-21" d="M110.49,205c.42-7.37,12.88-11.84,19.73-14.54,9.34-3.73,23.46-4.15,33.53-3.53,12.56.73,30.73,2,41,9.35,5.3,3.84,13.4,11.62,12.15,18-1.66,8.82-17.13,12.87-25.85,15-17.65,4.15-43.7,1.14-60.11-6.55C123.47,219.34,110.08,213.11,110.49,205Z" transform="translate(10.33 13.49)"/></g></g><g id="dientes"><g class="cls-20"><path class="cls-22" d="M60.77,91.86c2.59,4.47,62.28,13.91,111,18s112.53.42,112.64.31.41-35.71-8.1-47.33C257.39,37.15,209.63,26.15,178,22.52,146.1,18.88,94.71,16.91,72.39,40,61.39,51.38,59.63,89.68,60.77,91.86Z" transform="translate(10.33 13.49)"/></g><g class="cls-20"><path class="cls-22" d="M280.85,202.21c-3.32-4.36-67.58,14.54-118.45,9.55C113.61,207,52.67,180.83,52.57,180.93s-8.1,58.55,5.29,77.86C76,285,124.51,295.44,156.17,299.07,188,302.7,238.7,304,261.75,281.63,279.39,264.6,283.13,205.12,280.85,202.21Z" transform="translate(10.33 13.49)"/></g></g></g><g id="ojos"><g id="ojos-2" data-name="ojos"><path class="cls-23" d="M82.57,113a37.66,37.66,0,0,1-.11-16.3C86,82.73,96,65.39,120.36,68c15.57,1.66,22.21,7.57,26.78,15.88,3.63,6.64,3.53,17.65,2.49,25.23A42.39,42.39,0,0,1,144,124.67c-3.84,5.81-13.6,10-20.55,10.9-10.49,1.35-25.85,1.14-34-8.83A36.89,36.89,0,0,1,82.57,113Z" transform="translate(10.33 13.49)"/><path d="M82.05,96.64c3.53-14,13.39-32.29,38.41-29.69l-.21,2.18c-23.88-2.7-33.94,13.81-37.47,27.72Z" transform="translate(10.33 13.49)"/><path class="cls-11" d="M82.05,96.64l.73.21" transform="translate(10.33 13.49)"/><path d="M120.46,67c15.88,1.76,22.94,8,27.61,16.4l-1.87,1c-4.46-8.1-10.48-13.6-25.95-15.26Z" transform="translate(10.33 13.49)"/><path class="cls-11" d="M120.46,67l-.21,2.18" transform="translate(10.33 13.49)"/><path d="M148,83.35c3.74,7,2.8,18.17,1.87,25.75l-.52-.11c1-7.47.31-18.27-3.22-24.6Z" transform="translate(10.33 13.49)"/><path class="cls-11" d="M148,83.35l-1.87,1" transform="translate(10.33 13.49)"/><path d="M144.23,124.77c-3.94,5.92-13.81,10.17-20.76,11.11l-.1-.83c6.85-.94,16.61-4.88,20.34-10.59Z" transform="translate(10.33 13.49)"/><path class="cls-11" d="M144.23,124.77l-.52-.31" transform="translate(10.33 13.49)"/><path d="M123.57,135.88c-10.48,1.35-26.16,1.35-34.67-8.83l1-.83c8,9.87,23,10.28,33.53,8.83Z" transform="translate(10.33 13.49)"/><path class="cls-11" d="M123.57,135.88l-.1-.83" transform="translate(10.33 13.49)"/><path d="M88.9,127A35.4,35.4,0,0,1,82.36,113l.42-.1c1,4.36,3.73,9,7.16,13.18Z" transform="translate(10.33 13.49)"/><path class="cls-11" d="M88.9,127l1-.83" transform="translate(10.33 13.49)"/><path class="cls-23" d="M257.59,129a40.61,40.61,0,0,0,3.12-16.09c-.83-14.12-6.75-33.33-30.83-35.2-15.26-1.14-22.53,3.64-28.24,10.8-4.78,5.92-6.54,16.82-7,24.4a43.07,43.07,0,0,0,2.5,16.4c2.59,6.33,11.1,12.25,17.54,14.43,9.65,3.22,24.5,5.6,33.95-2.6A35.05,35.05,0,0,0,257.59,129Z" transform="translate(10.33 13.49)"/><path d="M260.29,113c-.83-14.12-7-32.49-30.52-34.15l.21-2.18c24.6,2.07,30.31,22.11,31.14,36.33Z" transform="translate(10.33 13.49)"/><path class="cls-11" d="M260.29,113H261" transform="translate(10.33 13.49)"/><path d="M229.77,78.89c-15-1.15-21.69,3.32-27.3,10.38l-1.66-1.35c5.81-7.27,13.7-12.46,29.17-11.21Z" transform="translate(10.33 13.49)"/><path class="cls-11" d="M229.77,78.89l.21-2.18" transform="translate(10.33 13.49)"/><path d="M202.47,89.27C197.9,95,195.41,105.46,195,113h-.52c.41-7.58,1.45-18.89,6.33-25.12Z" transform="translate(10.33 13.49)"/><path class="cls-11" d="M202.47,89.27l-1.66-1.35" transform="translate(10.33 13.49)"/><path d="M197.49,129.34c2.49,6.23,11,12,17.44,14.12l-.31.83c-6.54-2.18-15.06-8.31-17.65-14.74Z" transform="translate(10.33 13.49)"/><path class="cls-11" d="M197.49,129.34l-.52.21" transform="translate(10.33 13.49)"/><path d="M214.82,143.46c9.66,3.22,24.19,5.29,33.33-2.7l.83.93c-9.76,8.31-24.71,5.82-34.47,2.49Z" transform="translate(10.33 13.49)"/><path class="cls-11" d="M214.82,143.46l-.31.83" transform="translate(10.33 13.49)"/><path d="M248.25,140.76A34.16,34.16,0,0,0,257.39,129l.41.2a36.3,36.3,0,0,1-8.72,12.57Z" transform="translate(10.33 13.49)"/><path class="cls-11" d="M248.25,140.76l.83.93" transform="translate(10.33 13.49)"/></g><g id="pupilas"><path class="cls-4" d="M134.36,96.57c4.67.42,8.31,5.5,7.68,12S137,119.41,132.29,119s-8.31-5.5-7.69-12S129.69,96.16,134.36,96.57Z" transform="translate(10.33 13.49)"/><path class="cls-4" d="M213.33,104c4.46.42,7.68,5.71,7.06,11.94s-4.67,10.9-9.14,10.49-7.68-5.71-7.05-11.94S208.87,103.57,213.33,104Z" transform="translate(10.33 13.49)"/></g></g><g id="cejas"><g class="cls-17"><path class="cls-24" d="M116.53,40.39a31.57,31.57,0,0,1,15.91-2c8.88,1.23,16.05,7.35,16.05,7.35" transform="translate(10.33 13.49)"/></g><g class="cls-17"><path class="cls-24" d="M239.62,52.36a36.1,36.1,0,0,0-16-4.51,47,47,0,0,0-17.44,2.38" transform="translate(10.33 13.49)"/></g></g><g id="nariz"><g class="cls-17"><path class="cls-25" d="M171,153.63c5.71.52,18,1,18.17,5.5.11,3.22-2.49,6.65-4.88,8.2-3.73,2.5-10.48,1.77-14.84,1.15-4.88-.63-12.15-1.46-15.47-5.09-1.56-1.66-2.8-5.09-2.18-7.27C153.06,151.35,165.1,153.11,171,153.63Z" transform="translate(10.33 13.49)"/></g></g></g></g><path class="cls-26" d="M215.26,434.53c7.9-.13,18.66-4.51,19.15-4.51s.26,5.43-.54,6.17-13.3,1.54-18.92,1.6-19.54.13-20.22-1.85c-.5-1.41.42-5.32.8-5.3C197.46,430.74,203.7,434.71,215.26,434.53Z" transform="translate(10.33 13.49)"/><path class="cls-26" d="M103.65,434.53c-7.84-.13-18.52-4.51-19-4.51s-.26,5.43.53,6.17,13.21,1.54,18.78,1.6,19.4.13,20.08-1.85c.49-1.41-.42-5.32-.79-5.3C121.32,430.74,115.13,434.71,103.65,434.53Z" transform="translate(10.33 13.49)"/><rect class="cls-27" x="271.44" y="184.48" width="88.96" height="15.67" transform="translate(67.76 470.33) rotate(-76.99)"/><rect class="cls-28" x="268.53" y="186.9" width="88.96" height="8.51" transform="translate(66.63 466.59) rotate(-76.99)"/><path class="cls-29" d="M314,238l-10.58,13.7a1.18,1.18,0,0,1-1.56.42,1.21,1.21,0,0,1-.52-.73l-3.63-17.13Z" transform="translate(10.33 13.49)"/><path d="M300.61,248l.73,3.33a1,1,0,0,0,1.35.83,1.25,1.25,0,0,0,.73-.52l2.07-2.6Z" transform="translate(10.33 13.49)"/><path class="cls-30" d="M330.3,139.21l-3-.62c-4.15-.94-7.89,2.28-8.41,4.36h0c-.52,2.07-.52,3.94,1.66,4.46l10.8,2.49c2.08.52,2.8-1.14,3.22-3.32h0C335.18,144.5,333.52,139.94,330.3,139.21Z" transform="translate(10.33 13.49)"/><path class="cls-31" d="M317.74,145.23l17.23,4a.76.76,0,0,1,.52.72L334,156.34a.79.79,0,0,1-.73.52l-17.23-4a.77.77,0,0,1-.52-.72l1.45-6.44A.53.53,0,0,1,317.74,145.23Z" transform="translate(10.33 13.49)"/><path class="cls-32" d="M334.73,188.85c1-6.66-1.47-14.79-10.55-17.48s-11.26,10.64-13.06,18.2,1.45,16.21,8.77,16.92S333.47,197.38,334.73,188.85Z" transform="translate(10.33 13.49)"/><path class="cls-26" d="M331.08,175.39s-4.26-6.66-11.19-5.09c-4.21.95-7,7.49-7.78,11.47s-3.51,9.53-2.49,14.15,2,6.39,4.35,8.33c0,0,0-12.14,1.57-19C319.15,169.38,331.08,175.39,331.08,175.39Z" transform="translate(10.33 13.49)"/></g></g></svg>