<svg xmlns="http://www.w3.org/2000/svg" xmlns:xlink="http://www.w3.org/1999/xlink" viewBox="0 0 357.95 347.49"><defs><style>.cls-1{fill:none;}.cls-1,.cls-11,.cls-12,.cls-13,.cls-2,.cls-3,.cls-4,.cls-5,.cls-6,.cls-8{stroke:#000;stroke-miterlimit:10;}.cls-1,.cls-11,.cls-12,.cls-2,.cls-3,.cls-4,.cls-5,.cls-6{stroke-width:0.5px;}.cls-2{fill:#68605b;}.cls-3{fill:#ffe8c6;}.cls-4{fill:#2aeaf7;}.cls-5{fill:#b36c5e;}.cls-6{fill:#ffa996;}.cls-7{clip-path:url(#clip-path);}.cls-8{fill:#7e2d3a;}.cls-9{fill:#fea49c;}.cls-10,.cls-13{fill:#fff;}.cls-11{fill:url(#linear-gradient);}.cls-12{fill:#96a3b6;}.cls-14{fill:#a0dbf0;stroke:#4a91cd;stroke-linecap:round;stroke-linejoin:round;}</style><clipPath id="clip-path"><path class="cls-1" d="M277.8,214c-10.7,4-44,21.5-80.26,19.53-44.49-2.42-61.14-14-73.25-20.49-11.59-6.21-26.38-2.95-30.65,4.29-5.79,9.8-3,23.77,18.17,34.74s61.8,23.38,94.23,18.72,51.49-11.54,61-25.41S280,213.16,277.8,214Z"/></clipPath><linearGradient id="linear-gradient" x1="173.64" y1="69.16" x2="173.64" y2="216.54" gradientUnits="userSpaceOnUse"><stop offset="0.4" stop-color="#68605b"/><stop offset="1" stop-color="#fe5858"/></linearGradient></defs><title>Correct feedbacK_Mandril</title><g id="Layer_2" data-name="Layer 2"><g id="Layer_1-2" data-name="Layer 1"><path class="cls-2" d="M147.78,347.24h116a280.82,280.82,0,0,0-9.69-48.61c-20.3-70-39.15-74.88-64.56-70.76C147.4,234.71,153,277.36,153,324.06,153,333,150.63,340.18,147.78,347.24Z"/><path class="cls-3" d="M172,347.24h94.91a142.14,142.14,0,0,0-2.87-19.62c-6.65-29-9.5-73.07-15.21-77.35s-69.62-18.65-66.29,21.27C183.88,287.31,178.51,320.71,172,347.24Z"/><path class="cls-2" d="M146.33,344.49a4.09,4.09,0,0,1,.34,2.75h30.44c-3-7.21-10.65-13.55-15.22-16.29-7.13-4.28-28.51-19.49-27.09-27.09s30.42-22.34,39.93-23.29l-.24-31.6c-7.13.95-62.5,28.75-67.73,54.89C104.39,319.07,144,341.64,146.33,344.49Z"/><path class="cls-2" d="M250.61,253.31c10.24-5.23,50-42.1,63.93-59.23a215.68,215.68,0,0,0,22-32.33c.21-.37,17.07,3.06,19.61-6.44,3.19-11.88-11.77-10.52-11.77-14.25,0-17-9.86-29.6-20.37-31.55-29.28-5.42-9.68,32.67-11.67,35.28S292.09,177,283.57,186s-38.36,41.81-45.75,45.3-7.95,14.8-4.26,20S246.06,255.64,250.61,253.31Z"/><path class="cls-3" d="M64,141.05c-1-5.19-58.91,32.11-63.79,43.62-.13,4.38,58.76-.16,69.59,15.1C69.84,199.77,67.29,158.17,64,141.05Z"/><path class="cls-3" d="M69.7,203.94c-7.59-13.66-29.23,60.95-28.52,67s28.87-20.32,43.13-22.81S71.48,207.15,69.7,203.94Z"/><path class="cls-3" d="M131.72,267.5c-5.7-3.87-22.82,21-24.24,24.6s45.27-12.48,52.75-11.41S140.63,273.56,131.72,267.5Z"/><path class="cls-3" d="M243,101.67c-1-5.17,51.49,19.67,60.36,28.49,1.77,4-39.31,9.86-43.59,28.08C259.81,158.24,246.49,118.76,243,101.67Z"/><path class="cls-3" d="M267.94,160.62c1.87-15.51,46.66,36,48.29,41.89s-31,1.49-45.15,4.56S267.5,164.26,267.94,160.62Z"/><path class="cls-3" d="M262.29,244.31c3.81-5.73,29.06,10.87,31.72,13.63s-46.63,5.53-53.16,9.34S256.32,253.29,262.29,244.31Z"/><path class="cls-3" d="M174,285.09c1.07,8.67,5.46,24,10.46,26.13,3.09,1.31,5.4-13.27,7.9-13.36,1.62-.06,25.13,12.65,40.1,34.28,4.23,6.11,17.11-27.09,15.21-36.6s12,7.9,14.37,9.09,2-26.38-6.06-35.64S173.62,281.92,174,285.09Z"/><path class="cls-2" d="M119.36,2.31c1.35.51-15.68,22.82-15.21,24.24s34.69-32.08,68-25.42c3.5.69-21.15,15.2-21.38,24.71,21.86-19.49,43-24.24,50.61-24-7.6,8.08-12.36,15.21-9.27,18.3,0,0,38.73,30.17,56.56,64.87s29.82,95.76,29.46,118.57S229.26,266,176.86,252.77,84.55,224.25,69.93,194.31s-22.69-68.21-11.05-118C70.65,26.08,115,.65,119.36,2.31Z"/><path class="cls-4" d="M72.13,199.14c-14.25,64.63-10.39,40.8,10.28,51.49s100.87,37.43,124.75,40.28,36.71-2.5,46-14.62,37.71-68.14,32.08-87.92c-10.69-37.54-21-67.66-23.46-69.38-7.59-5.37-44.77-10.2-61.73.83C175.11,136,154.21,183,144.55,184.57,118.26,189,69.51,201.38,72.13,199.14Z"/><path class="cls-5" d="M70.65,184.81c-2.38-9.07-8-24.24-18.89-25.19S24,169.6,27.28,193.24s22.1,32.32,33.5,32.32S74,197.52,70.65,184.81Z"/><path class="cls-6" d="M69.22,188.61c-1.09-7-7.22-16.66-15.15-16.4S37.85,184.69,42,198.32s18.27,24.24,23.26,19.07S70.11,194.31,69.22,188.61Z"/><path class="cls-5" d="M232.11,210.71c-30.47,5.17-38.14,10-76.63,0-36.57-9.48-48.25-32.24-75.16-21.55s-29.81,35.15-23.4,48.16,27.45,24,54.36,31.84,37.64,14.08,69.15,21c27.44,6.06,39.21,13.79,58.45,2.5s38.2-50.95,43.49-61.66c5.61-11.38,24.24-35.29,16.75-45.27s-14.24-14.94-19.31-15.67C278.33,169.88,262.59,205.54,232.11,210.71Z"/><g class="cls-7"><path class="cls-8" d="M277.64,217.74c-10.81,2.1-43.2,17.28-79.21,12.83s-60.84-10.45-72.11-18.29-23.69-7.06-28.7,3.17.59,31.63,21.77,42.6,52.3,20.74,84.73,16.08,53.41-14.89,62.89-28.76S280,217.29,277.64,217.74Z"/><path class="cls-9" d="M247.68,218.72c10.77,5.14,27,20.31,26.45,31.52s-74.41,57.93-124.2,35.22-81.78-40.83-73-65.68,13-36.19,47.35-26S241.84,215.93,247.68,218.72Z"/><path class="cls-10" d="M91.4,208c2.94,10.5,43.68,36.37,81.95,38.8s66.58-1.26,87.19-11.24,29.06-15.12,32.12-23.18-16.2-25.13-16.2-25.13-71.7,25.63-94.9,19.94-74.81-24.79-84.23-30.67S88.23,196.67,91.4,208Z"/></g><path class="cls-1" d="M277.8,214c-10.7,4-44,21.5-80.26,19.53-44.49-2.42-61.14-14-73.25-20.49-11.59-6.21-26.38-2.95-30.65,4.29-5.79,9.8-3,23.77,18.17,34.74s61.8,23.38,94.23,18.72,51.49-11.54,61-25.41S280,213.16,277.8,214Z"/><path class="cls-11" d="M93.1,100.57c10.34,36,63.45-1.42,78.06,18.18,15,20.06,31.37,55.25,34.22,73.07,0,0-12.12-4.64-17.11,4.63s1.78,22.81,26,19.61,34.57-10,38.49-16,0-27.45-16.75-16.76c0,0-6.77-17.1-16.75-42.41s5.35-37.07,10.34-45.27,10.28-16.08,4.57-26.42"/><path class="cls-12" d="M98.8,88.81c10.39-9.19,31-15,52.76.71s39.21,42.06,33.86,72.36-42.77,42.06-68.08,33.86-36-42.06-34.57-65.94S89.54,97,98.8,88.81Z"/><path class="cls-12" d="M216.07,59.11c7.69-2.63,14.5-.48,25.19,13.3s19.25,36.6,23.29,55.37,2.14,33.74-7.84,38.26-26.86-1.43-42.54-33S197.3,65.52,216.07,59.11Z"/><path class="cls-13" d="M121.26,104c11.33-3.67,28.28-1.67,41.11,17.11S179,166,164,177.44s-35.64-.71-47.76-16.39S105.1,109.24,121.26,104Z"/><path class="cls-13" d="M225.34,86.43c13.15-3.7,25.43,14,28.75,31.61s2.14,32.31-7.84,35.16-21.15-10.93-27.33-31.12S217.74,88.57,225.34,86.43Z"/><ellipse cx="162.51" cy="148.3" rx="10.46" ry="14.13" transform="translate(-17.9 22.39) rotate(-7.47)"/><ellipse cx="240.18" cy="127.85" rx="8.26" ry="12.44" transform="translate(-24.22 63.64) rotate(-14.38)"/><ellipse cx="201.4" cy="204.89" rx="2.99" ry="3.74" transform="translate(-83.24 165.86) rotate(-37.68)"/><ellipse cx="243.1" cy="192.32" rx="2.99" ry="3.74" transform="translate(-44.66 77.09) rotate(-16.53)"/><path class="cls-5" d="M178.15,347.24c-3.7-7.63-14.77-16.26-16.26-16-1.78.36-.53,10.79-14.79,13.73,0,0-.14.45-.57,2.24Z"/><path class="cls-5" d="M326,147.09c4.24,2.56,9.45,15.06,10.52,15.06s14.17,2.22,18.53-3.39,4.46-13-9-16.84c-1.33-.63.18-9.54-4.36-18s-14.35-18.18-25.94-15.42-10.42,18.09-3.83,34.31C313.56,144.23,318.81,142.72,326,147.09Z"/><path class="cls-14" d="M335.85,215.38s-8.43,24,16.35,31.16c0,0-30.15-11.49-38.07,5.37,0,0,2.3-29.89-2.55-32.19C311.58,219.72,331.76,220.23,335.85,215.38Z"/><path class="cls-14" d="M99.82,290.59S80.78,305.2,80.34,311c0,0-17.27-25.24-24.79-26.57,0,0,19.48-3.54,21.69-11.06C77.24,273.33,79.9,286.16,99.82,290.59Z"/></g></g></svg>