<svg xmlns="http://www.w3.org/2000/svg" viewBox="0 0 300 300"><defs><style>.cls-1{fill:#82b544;}.cls-2{fill:#ff070b;}</style></defs><title>camino bifurcado</title><g id="Capa_2" data-name="Capa 2"><g id="Capa_1-2" data-name="Capa 1"><circle class="cls-1" cx="141.32" cy="39.37" r="20.64"/><polygon class="cls-2" points="21.68 264.4 62.53 256.42 34.37 224.76 21.68 264.4"/><rect class="cls-2" x="228.87" y="231.81" width="41.03" height="41.03" transform="matrix(0.76, 0.65, -0.65, 0.76, 224.84, -101.59)"/><polygon class="cls-1" points="41.66 218.98 40.6 217.92 116.41 142.12 116.41 45.63 117.9 45.63 117.9 142.74 41.66 218.98"/><polygon class="cls-1" points="240.42 218.98 164.18 142.74 164.18 45.63 165.68 45.63 165.68 142.12 241.48 217.92 240.42 218.98"/><polygon class="cls-1" points="67.08 250.88 66.02 249.82 140.6 175.48 214.7 249.82 213.64 250.88 140.59 177.6 67.08 250.88"/><path class="cls-1" d="M276.23,300H23.77A24,24,0,0,1,0,275.85V24.15A24,24,0,0,1,23.77,0H276.23A24,24,0,0,1,300,24.15v251.7A24,24,0,0,1,276.23,300ZM23.77,3A21,21,0,0,0,2.94,24.15v251.7A21,21,0,0,0,23.77,297H276.23a21,21,0,0,0,20.83-21.16V24.15A21,21,0,0,0,276.23,3Z"/></g></g></svg>