<svg xmlns="http://www.w3.org/2000/svg" xmlns:xlink="http://www.w3.org/1999/xlink" viewBox="0 0 366.94 323.91"><defs><style>.cls-1{fill:none;}.cls-2,.cls-7{fill:#fee367;}.cls-2{stroke:#dba333;stroke-miterlimit:10;stroke-width:1.5px;}.cls-3{fill:#ffe7ce;}.cls-4{fill:#eaa66e;}.cls-5{fill:#a0dbf0;}.cls-6{fill:#4a91cd;}.cls-8{fill:#dba333;}.cls-9{fill:#e89f51;}.cls-10{fill:#ce7f38;}.cls-11{fill:#e7cdba;}.cls-12{fill:#f7bb4f;}.cls-13{fill:#c68325;}.cls-14{fill:#ba6628;}.cls-15{fill:#ed84e5;}.cls-16{fill:#d667d3;}.cls-17{fill:#fff;}.cls-18{clip-path:url(#clip-path);}.cls-19{fill:#f0efef;}.cls-20{fill:#30b271;}.cls-21{fill:#212120;}.cls-22{clip-path:url(#clip-path-2);}.cls-23{fill:#b71a53;}.cls-24{fill:#212121;}.cls-25{fill:#e7a142;}.cls-26{fill:#e7aa78;}.cls-27{fill:#d89564;}.cls-28{fill:#a6153c;}.cls-29{fill:#e09e6b;}.cls-30{fill:#d28b59;}.cls-31{fill:#1d1915;}.cls-32{fill:#d7911b;}</style><clipPath id="clip-path"><path class="cls-1" d="M286.4,135.1s-3.12,1.77-33.27,4.51c-27.11,2.45-30.79-7.46-29.42-11.77,4.08-12.79,12.58-25.08,28.31-26.51s21.62,9.11,26.47,14c5.69,5.7,7.91,19.8,7.91,19.8"/></clipPath><clipPath id="clip-path-2"><path class="cls-1" d="M113.56,146.31s6.48.42,39.89-2.31c30-2.45,29.67-12.14,27.46-16.14-6.53-11.89-17.83-22.49-35.24-21.07S123.51,119.68,119,125.34c-5.3,6.65-5.44,21-5.44,21"/></clipPath></defs><title>Correct feedback_1</title><g id="Layer_2" data-name="Layer 2"><g id="Layer_4" data-name="Layer 4"><path class="cls-2" d="M237.42,323.15c.73-9.18.21-17.21-.71-30.24-1.51-21.59.56-23-.37-38.89-.9-15.33,1.52-37.44-15.48-52.11s-32.32-7.21-42.64.31c-5.36,3.9-13,15.88-22,38.81-4,10.19-10.3,29.26-13.76,36.92-4.87,15.77-9.44,31.26-10.91,45.2Z"/><path class="cls-3" d="M237,322.44c0-11.19-1.68-22.28-2.85-30.95-2-14.46,2.12-60.11-6.5-69.36-9.26-9.93-33.86-10.26-37.21-8-22.79,15.62-9.6,57.46-19,74.57-2.63,4.78-9.12,19.55-13.67,33.7Z"/><path class="cls-4" d="M158.48,322.44c1.86-5.76,3.82-11,6-16.39,3.11-7.73,6.08-14.22,7.6-17,2.44-4.44,3.37-10.35,3.82-17,.67-9.91.22-21.44,1.72-31.9a50,50,0,0,1,4.08-14.53,27.06,27.06,0,0,1,9.18-10.94,7.49,7.49,0,0,1,2.65-.74,37.87,37.87,0,0,1,5.09-.31,61.85,61.85,0,0,1,15.33,2c5.27,1.4,10.18,3.66,13.23,6.94,2,2.07,3.36,6.58,4.2,12.33,1.27,8.63,1.44,20.07,1.46,30.69s-.09,20.43.66,26A237.35,237.35,0,0,1,236,322.44h1.39a239,239,0,0,0-2.59-31,137.65,137.65,0,0,1-.62-15.55c-.05-9.68.11-21.39-.54-31.57a94.15,94.15,0,0,0-1.71-13.7c-.87-3.9-2-7-3.8-8.92-3.35-3.58-8.48-5.89-13.9-7.34a63.35,63.35,0,0,0-15.68-2,37.81,37.81,0,0,0-5.29.33,8.44,8.44,0,0,0-3.24,1c-5.85,4-9.38,9.71-11.53,16.19-3.22,9.73-3.38,21.26-3.64,32s-.65,20.51-4.06,26.67A234.46,234.46,0,0,0,160,313.63c-1.16,3.16-2,5.65-3,8.81Z"/><path class="cls-2" d="M164.39,228.79l-54.5,26c-6.78,3.44-8.25,10.73-7.13,13.66l18.65,39.09s-7.56,5.86-3.16,15.65l33.06-.05c9.88-14.72-16.4-23-16.4-23s-4.35-10.39-11.52-29c-.37-1,.18-3.61,1.11-4.07C147.27,255.82,160,252,160,252"/><path class="cls-5" d="M323.15,200.49s-7.73,24.25,17.25,30.67c0,0-30.47-10.61-37.89,6.48,0,0,1.42-29.95-3.49-32.1C299,205.54,319.2,205.46,323.15,200.49Z"/><path class="cls-6" d="M323.15,200.49l.49.15-.05.17a30.48,30.48,0,0,0-1,8.8,22,22,0,0,0,3.61,11.9c2.63,3.84,7,7.26,14.37,9.15l-.13.5-.17.49-.44-.14c-2.05-.67-10.88-3.32-19.52-3.07A25.78,25.78,0,0,0,310,230.62a14,14,0,0,0-7,7.23.53.53,0,0,1-.6.3.54.54,0,0,1-.4-.54s.08-1.76.14-4.47.09-6.35,0-10.1a85.8,85.8,0,0,0-.94-11.23,19.8,19.8,0,0,0-1-4,3.19,3.19,0,0,0-1.32-1.8.53.53,0,0,1-.31-.59A.52.52,0,0,1,299,205s.6,0,1.63,0a101.12,101.12,0,0,0,11.79-1,37.68,37.68,0,0,0,6.34-1.48,8.8,8.8,0,0,0,4-2.33.52.52,0,0,1,.65-.13.5.5,0,0,1,.25.61l-.49-.15.4.32a9.77,9.77,0,0,1-4.43,2.67c-5.77,2-14.76,2.43-18.45,2.55-1,0-1.65,0-1.65,0v-.52l.2-.48a4.1,4.1,0,0,1,1.87,2.36,27.62,27.62,0,0,1,1.48,6.81c.32,2.73.49,5.79.58,8.78.22,7.55-.12,14.65-.12,14.65l-.52,0-.48-.21a15.12,15.12,0,0,1,7.55-7.75,26.63,26.63,0,0,1,10.66-2.28c10.13-.29,20.3,3.26,20.33,3.27a.51.51,0,0,1,.33.64.53.53,0,0,1-.63.36c-7.53-1.94-12.2-5.51-15-9.58a23,23,0,0,1-3.79-12.45,30.81,30.81,0,0,1,1.14-9.31l.5.16.4.32Z"/><path class="cls-5" d="M90,247.34S71.4,262.5,71.13,268.27c0,0-18-24.72-25.56-25.83,0,0,19.37-4.11,21.36-11.69C66.93,230.75,70,243.5,90,247.34Z"/><path class="cls-6" d="M90,247.34l.33.41s-.29.23-.79.66c-1.78,1.48-6.23,5.28-10.25,9.32a59.9,59.9,0,0,0-5.32,6c-1.41,1.86-2.29,3.55-2.32,4.58a.52.52,0,0,1-.94.29s-.28-.39-.79-1.06c-1.77-2.37-6.3-8.31-11.2-13.76a78.71,78.71,0,0,0-7.33-7.31c-2.31-2-4.45-3.29-5.9-3.49a.52.52,0,0,1-.44-.5.51.51,0,0,1,.41-.52l.82-.19a70.32,70.32,0,0,0,10.93-3.57,29.21,29.21,0,0,0,6-3.37,8.29,8.29,0,0,0,3.23-4.2.53.53,0,0,1,1,0v0a17.61,17.61,0,0,0,4.21,6.94c3.24,3.5,8.84,7.4,18.45,9.24a.53.53,0,0,1,.41.39.52.52,0,0,1-.18.53l-.33-.41-.1.51c-10.12-1.93-16-6.15-19.34-9.9a18.28,18.28,0,0,1-4.14-7.08l.51-.12.5.13c-.55,2.09-2.24,3.83-4.38,5.32a44,44,0,0,1-11.09,5c-3.53,1.13-6.27,1.71-6.28,1.71l-.11-.51.07-.51a9.3,9.3,0,0,1,3.48,1.5c4.36,2.82,9.93,8.93,14.45,14.36s8,10.17,8,10.17l-.42.31-.52,0a6.72,6.72,0,0,1,1-2.78c2-3.5,6.45-8.08,10.5-11.85s7.61-6.67,7.61-6.67l.33.4-.1.51Z"/><path class="cls-7" d="M83.64,69.64S74.81,34.08,50.51,26.35,9,33,2.37,50.64,9.22,91.94,34,94.81s46.38-6.62,49.69-25.17"/><path class="cls-8" d="M83.64,69.64,83,69.8s0-.13-.1-.38a92.21,92.21,0,0,0-8.3-20C69.33,40.13,61.43,30.55,50.3,27a42.11,42.11,0,0,0-12.87-2.11,33.64,33.64,0,0,0-21.6,7.69A43,43,0,0,0,3,50.89a26.05,26.05,0,0,0-1.64,9.22c0,15.32,12.5,31.68,32.64,34a73,73,0,0,0,8.52.5c10.39,0,19.81-2.31,27-6.6S81.53,77.48,83,69.51l.68.13L83,69.8l.68-.16.68.12c-1.49,8.4-6.67,15-14.09,19.45S53.14,96,42.55,96a75.87,75.87,0,0,1-8.68-.51C13,93.08,0,76.16,0,60.11A27.72,27.72,0,0,1,1.72,50.4,44.55,44.55,0,0,1,15,31.52a35,35,0,0,1,22.47-8,43.83,43.83,0,0,1,13.3,2.17c12.42,4,20.78,15,26.07,24.88a91.66,91.66,0,0,1,7.51,18.9l0,.14,0,.15-.68-.12"/><path class="cls-9" d="M27.77,57.49S49.3,63.62,53.11,85L27.77,57.49"/><path class="cls-10" d="M28,56.82a41.48,41.48,0,0,1,11.46,5.84,34.47,34.47,0,0,1,14.37,22.2.69.69,0,0,1-.56.81.69.69,0,0,1-.8-.56A33.07,33.07,0,0,0,38.61,63.79a42,42,0,0,0-7.7-4.37c-1-.45-1.86-.77-2.44-1l-.67-.22-.22-.07A.7.7,0,1,1,28,56.82"/><path class="cls-11" d="M27.36,94.22a42.14,42.14,0,0,0,6.51,1.28c2,.23,4,.39,6,.46-1.78,0-3.67-.09-5.59-.21a26,26,0,0,1-6.87-1.53"/><path class="cls-12" d="M29,51c10,0,20.63,4.91,27,8.41a103.54,103.54,0,0,0-6.82,13.45,36.69,36.69,0,0,0-9.73-10.16A41.48,41.48,0,0,0,28,56.82a.63.63,0,0,0-.19,0,.7.7,0,0,0-.19,1.37l.22.07.67.22.28.1L47,78.35a123.85,123.85,0,0,0-4.57,16.27,73.15,73.15,0,0,1-8.4-.5C16,92,4.11,78.72,1.8,65A35.44,35.44,0,0,1,24.29,51.36,26.35,26.35,0,0,1,29,51"/><path class="cls-13" d="M1.8,65C4.11,78.72,16,92,34,94.12a73.15,73.15,0,0,0,8.4.5c-.1.45-.19.9-.28,1.35H39.82c-2-.07-3.94-.23-6-.46a42.14,42.14,0,0,1-6.51-1.28A46.93,46.93,0,0,1,6.49,78.69C1.06,71.18,1.1,66,1.1,66s.23-.39.7-1"/><path class="cls-14" d="M27.77,56.79a.63.63,0,0,1,.19,0,41.48,41.48,0,0,1,11.46,5.84,36.69,36.69,0,0,1,9.73,10.16c-.22.53-.44,1.06-.65,1.59a35.25,35.25,0,0,0-9.89-10.62,42,42,0,0,0-7.7-4.37c-.87-.38-1.61-.67-2.16-.87l-.28-.1-.67-.22-.22-.07a.7.7,0,0,1,.19-1.37"/><path class="cls-7" d="M82.45,54.62s-4.63-21.09-10.6-31.69-20-20.1-36.32-12.7c0,0,15-3.86,20,10.05,0,0-25.17-10.82-40,4.08,0,0,17.56-2.53,26.72,4.2"/><path class="cls-8" d="M81.77,54.77l-.2-.92c-.49-2.08-1.78-7.44-3.59-13.43s-4.17-12.6-6.73-17.15a31.2,31.2,0,0,0-9.63-10.42A25.83,25.83,0,0,0,47.15,8.3a27.28,27.28,0,0,0-11.34,2.57l-.28-.64-.18-.67A21.5,21.5,0,0,1,40.13,9a18.5,18.5,0,0,1,8.64,2,15.78,15.78,0,0,1,7.4,9l.53,1.5-1.46-.63-.38-.16a53.93,53.93,0,0,0-18.45-3.58c-7,0-14.51,1.77-20.38,7.67l-.49-.49-.1-.68a58.11,58.11,0,0,1,7.77-.48c5.94,0,14,.8,19.46,4.8l-.82,1.12c-5-3.68-12.83-4.54-18.64-4.53-2.19,0-4.08.12-5.43.23L16.2,25l-.56.07-2.06.3,1.47-1.47c6.2-6.26,14.18-8.09,21.36-8.09a54.92,54.92,0,0,1,19.38,3.85l-.28.64-.65.23a14.33,14.33,0,0,0-6.75-8.24,16.94,16.94,0,0,0-8-1.84,21.64,21.64,0,0,0-3.21.24c-.39.06-.7.12-.91.17l-.24.05-.07,0L35.24,9.6A28.75,28.75,0,0,1,47.15,6.91,27.27,27.27,0,0,1,62.4,11.7,32.58,32.58,0,0,1,72.46,22.59c3,5.4,5.68,13.34,7.6,20s3.07,11.9,3.07,11.91l-1.36.3Z"/><path class="cls-15" d="M89.52,45A15.07,15.07,0,1,1,74.45,29.89,15.07,15.07,0,0,1,89.52,45Z"/><path class="cls-16" d="M89.52,45h.7A15.77,15.77,0,1,1,74.45,29.19,15.76,15.76,0,0,1,90.22,45H88.83a14.39,14.39,0,1,0-4.22,10.16A14.33,14.33,0,0,0,88.83,45Z"/><path class="cls-15" d="M76.93,56.11A15.07,15.07,0,1,1,61.86,41,15.07,15.07,0,0,1,76.93,56.11Z"/><path class="cls-16" d="M76.93,56.11h.7A15.77,15.77,0,1,1,61.86,40.34,15.77,15.77,0,0,1,77.63,56.11H76.24A14.37,14.37,0,1,0,72,66.28a14.36,14.36,0,0,0,4.21-10.17Z"/><path class="cls-17" d="M62.69,48.49a4,4,0,1,1-4-4A4,4,0,0,1,62.69,48.49Z"/><path class="cls-17" d="M77.26,34.83a2.9,2.9,0,1,1-2.89-2.9A2.89,2.89,0,0,1,77.26,34.83Z"/><path class="cls-7" d="M283.3,65.44s8.84-35.55,33.13-43.28,41.51,6.63,48.14,24.29S357.72,87.75,333,90.62,286.62,84,283.3,65.44"/><path class="cls-8" d="M283.3,65.44l-.67-.16a92.55,92.55,0,0,1,7.51-18.91c5.29-9.92,13.65-20.91,26.08-24.87a43.85,43.85,0,0,1,13.29-2.18,35.06,35.06,0,0,1,22.48,8,44.4,44.4,0,0,1,13.23,18.88,27.49,27.49,0,0,1,1.72,9.71c0,16-13,33-33.87,35.39a75.61,75.61,0,0,1-8.68.51c-10.59,0-20.25-2.35-27.67-6.81S284.12,74,282.62,65.57l0-.15,0-.14.67.16.69-.12c1.42,8,6.29,14.2,13.44,18.5s16.57,6.61,27,6.61a75.22,75.22,0,0,0,8.52-.5c20.15-2.33,32.65-18.69,32.64-34a26.27,26.27,0,0,0-1.63-9.22,43.06,43.06,0,0,0-12.81-18.29,33.62,33.62,0,0,0-21.6-7.7,42.42,42.42,0,0,0-12.87,2.11C304.77,26.59,296.57,37.24,291.37,47a93.89,93.89,0,0,0-5.65,13c-.6,1.71-1,3.12-1.32,4.1-.14.48-.25.86-.32,1.12s-.1.39-.1.39l-.68-.17.69-.12-.69.12"/><path class="cls-9" d="M339.17,53.3s-21.53,6.13-25.34,27.49L339.17,53.3"/><path class="cls-10" d="M339.36,54l-.22.06a41.29,41.29,0,0,0-11.89,6.37,32.8,32.8,0,0,0-12.73,20.51.71.71,0,0,1-.81.57.69.69,0,0,1-.56-.81,34.39,34.39,0,0,1,14.38-22.2A41,41,0,0,1,339,52.63a.7.7,0,0,1,.38,1.34"/><path class="cls-12" d="M337.94,46.76a26.19,26.19,0,0,1,4.71.41,35.45,35.45,0,0,1,22.49,13.61c-2.3,13.75-14.21,27.06-32.23,29.15a75.22,75.22,0,0,1-8.52.5l-1.48,0a130.81,130.81,0,0,0-4.25-14.85L338.2,54.35l.94-.32.22-.06a.69.69,0,0,0,.48-.86.68.68,0,0,0-.66-.51.69.69,0,0,0-.2,0,41,41,0,0,0-11.45,5.84,36.22,36.22,0,0,0-10.82,12,96.94,96.94,0,0,0-7.31-14.41c6-3.47,17.72-9.3,28.54-9.3"/><path class="cls-13" d="M365.14,60.78c.47.66,1.08,1.64,1.08,1.64s0,5-5.41,12.55a37.84,37.84,0,0,1-21.23,15,39.49,39.49,0,0,1-6.51,1.29c-2,.23-4,.38-5.95.46h-1.58l-2.33,0-.3-1.35,1.48,0a75.22,75.22,0,0,0,8.52-.5c18-2.09,29.93-15.4,32.23-29.15"/><path class="cls-14" d="M339.18,52.6a.68.68,0,0,1,.66.51.69.69,0,0,1-.48.86l-.22.06-.94.32a42.15,42.15,0,0,0-10.95,6,34.29,34.29,0,0,0-9.86,11.77c-.22-.57-.45-1.14-.68-1.7a36.22,36.22,0,0,1,10.82-12A41,41,0,0,1,339,52.63a.69.69,0,0,1,.2,0"/><path class="cls-7" d="M284.49,50.43s4.64-21.09,10.6-31.69,20-20.1,36.33-12.7c0,0-15-3.87-20,10.05,0,0,25.18-10.82,40,4.08,0,0-17.55-2.54-26.72,4.2"/><path class="cls-8" d="M283.81,50.28S285,45,286.89,38.36s4.56-14.56,7.59-20A32.51,32.51,0,0,1,304.55,7.51a27.21,27.21,0,0,1,15.24-4.79A28.71,28.71,0,0,1,331.7,5.41l-.46,1.3h-.07a19.86,19.86,0,0,0-4.36-.46,17,17,0,0,0-8,1.84,14.28,14.28,0,0,0-6.74,8.24l-.66-.23-.27-.64a54.5,54.5,0,0,1,19.37-3.85c7.19,0,15.16,1.83,21.37,8.08l1.46,1.48-2.06-.3-.55-.07a62.25,62.25,0,0,0-7-.39c-5.81,0-13.65.85-18.64,4.53l-.82-1.12c5.47-4,13.53-4.79,19.46-4.8a61.28,61.28,0,0,1,7.77.47l-.1.69-.49.49C345,14.75,337.5,13,330.53,13a51.33,51.33,0,0,0-13.22,1.87c-1.72.47-3.13.94-4.1,1.29-.49.17-.87.32-1.12.42l-.38.16-1.47.63.54-1.51a15.72,15.72,0,0,1,7.4-9,18.37,18.37,0,0,1,8.63-2,20.71,20.71,0,0,1,4.78.52l-.17.67-.29.63a27.35,27.35,0,0,0-11.34-2.56,25.85,25.85,0,0,0-14.47,4.55,31.08,31.08,0,0,0-9.62,10.42c-2.93,5.2-5.58,13.1-7.48,19.67-1,3.29-1.71,6.25-2.24,8.38-.26,1.07-.46,1.93-.6,2.53s-.21.91-.21.92l-1.36-.3Z"/><path class="cls-15" d="M277.42,40.76A15.08,15.08,0,1,0,292.5,25.69,15.08,15.08,0,0,0,277.42,40.76Z"/><path class="cls-16" d="M277.42,40.76h.7a14.37,14.37,0,1,0,4.21-10.16,14.33,14.33,0,0,0-4.21,10.16h-1.39A15.77,15.77,0,1,1,292.5,56.53a15.77,15.77,0,0,1-15.77-15.77Z"/><path class="cls-15" d="M290,51.92a15.07,15.07,0,1,0,15.07-15.07A15.07,15.07,0,0,0,290,51.92Z"/><path class="cls-16" d="M290,51.92h.7a14.37,14.37,0,1,0,4.21-10.17,14.28,14.28,0,0,0-4.21,10.17h-1.39a15.77,15.77,0,1,1,15.76,15.76,15.77,15.77,0,0,1-15.76-15.76Z"/><path class="cls-17" d="M304.25,44.3a4,4,0,1,0,4-4A4,4,0,0,0,304.25,44.3Z"/><path class="cls-17" d="M289.68,30.63a2.9,2.9,0,1,0,2.9-2.89A2.9,2.9,0,0,0,289.68,30.63Z"/><path class="cls-7" d="M181,234c-74.85-3.65-124.29-32.19-134.51-64.55s-12.26-92,24.38-127.9C99.27,13.73,150.37.7,179.32.7s86,9.75,118.56,41.93,31.42,96.19,23.38,117.64C311,187.52,250.85,237.42,181,234"/><path class="cls-8" d="M181,234l0,.69c-37.51-1.83-68.67-9.89-91.77-21.58s-38.17-27-43.37-43.45A152.68,152.68,0,0,1,39.38,125c0-28.82,7.75-61.06,31-83.89,14.3-14,34.26-24.27,54.27-31S164.74,0,179.32,0s36.09,2.45,58.12,8.93,44.53,17,60.93,33.21c21.45,21.22,28.34,55.89,28.35,83.42,0,14.7-2,27.36-4.81,35-2.52,6.72-8,14.69-15.76,22.9-23.36,24.62-67.89,51.45-118.31,51.46-2.27,0-4.56-.06-6.85-.17l0-.69,0-.7q3.42.17,6.79.17c33.28,0,64-11.84,87.71-27a159.66,159.66,0,0,0,29.6-24.07c7.7-8.11,13-16,15.46-22.43,2.75-7.33,4.72-19.9,4.72-34.47,0-27.32-6.91-61.68-27.93-82.43-16.17-16-38.47-26.43-60.35-32.87s-43.33-8.87-57.73-8.87-34.34,3.24-54.21,10S85.45,28.25,71.37,42.06c-22.9,22.46-30.6,54.32-30.6,82.9a151.15,151.15,0,0,0,6.41,44.3c5,15.92,19.77,31.05,42.66,42.63s53.87,19.61,91.21,21.43l0,.7"/><g class="cls-18"><path class="cls-19" d="M286.4,135.1s-3.56,6.46-33.71,9.19c-27.11,2.46-30.35-12.14-29-16.45,4.08-12.79,12.58-25.08,28.31-26.51s21.62,9.11,26.47,14c5.69,5.7,7.91,19.8,7.91,19.8"/><path class="cls-20" d="M248.14,131.38a16,16,0,0,0,17.1,14.9,16.17,16.17,0,0,0,14.51-17.56,15.87,15.87,0,1,0-31.61,2.66"/><path class="cls-17" d="M264.66,121.81a3,3,0,0,0,3.27,2.72,3,3,0,1,0-3.27-2.72Z"/></g><path class="cls-21" d="M223.44,129.08c5.35-20.1,21-24.79,29.15-25.53,26.76-3,33.56,32.09,33.56,32.09a13.64,13.64,0,0,0,6.91-4.43,3.24,3.24,0,0,0-3-5.37l-1.17.24c-2.67-12.47-14.26-30.55-36.54-28.53-18.44,1.67-26.07,20.79-28.15,27.34A12.28,12.28,0,0,0,223.44,129.08Z"/><g class="cls-22"><path class="cls-19" d="M113.56,146.31s3.87,10.72,37.27,8c30-2.45,32.29-22.44,30.08-26.44-6.53-11.89-17.83-22.49-35.24-21.07S123.51,119.68,119,125.34c-5.3,6.65-5.44,21-5.44,21"/><path class="cls-20" d="M178.94,133.93A16.32,16.32,0,1,1,161.34,119a16.31,16.31,0,0,1,17.6,14.93"/><path class="cls-17" d="M171.55,127.59a3,3,0,1,1-3.22-2.74A3,3,0,0,1,171.55,127.59Z"/></g><path class="cls-21" d="M181.32,129c-9.11-18.87-26.85-20.67-35.92-19.93-29.74,1.85-31.47,37.71-31.47,37.71a15.06,15.06,0,0,1-7.91-2.88,3.33,3.33,0,0,1,1.91-6.09l1.48,0c.9-12.79,10.63-32.71,35.31-34.73,20.34-1.67,31.78,15.68,35.18,21.84A10.89,10.89,0,0,1,181.32,129Z"/><path d="M261.48,75.82c-2.11-3.59-4.81-5.23-8.47-7.45a21.16,21.16,0,0,0-12.77-3.14,18.15,18.15,0,0,0-11.83,6.17c-2.9,3.28-4.17,6.21-5.94,9.92.64-1.32,5.32-7.28,8.28-9.44a18.62,18.62,0,0,1,9.4-3.85,24.73,24.73,0,0,1,10.39,1.55C254.08,70.8,257.82,73.93,261.48,75.82Z"/><path d="M137.29,82.4c3.12-2.81,6.13-6.54,9.33-8.52s6.48-2.15,9.83-2.25,7,0,10.3,1.75,7.93,4.62,10,7.21c-3.12-4-4.27-5.68-7.69-8.43a19.29,19.29,0,0,0-12.71-4.52A19,19,0,0,0,144,73.13,33,33,0,0,0,137.29,82.4Z"/><path class="cls-3" d="M66.89,198s40.14,5.57,67.84-4.7,40.91-31.21,65.46-30.6c38.19,1,53,24.11,64.07,28.4a234.69,234.69,0,0,0,23.49,7.77s-34.64,27-65.14,31.81-63.29,2.56-92.53-3.05C90.71,220.08,66.89,198,66.89,198"/><path class="cls-4" d="M66.89,198l.09-.69,1.91.23a213,213,0,0,0,23.19,1.27c13.17,0,29.25-1.28,42.4-6.16,13.54-5,23.62-12.62,33.35-19S187,162,199.14,162h1.06c19.24.48,32.65,6.57,42.59,13.07,5,3.24,9.07,6.59,12.61,9.37s6.5,5,9.12,6c6.54,2.54,12.39,4.48,16.61,5.78,2.11.65,3.81,1.14,5,1.47l1.81.5a.7.7,0,0,1,.25,1.22A219,219,0,0,1,267,213.58c-12.51,7.37-28.85,15.36-44.26,17.79A228.52,228.52,0,0,1,187.33,234,307.11,307.11,0,0,1,130,228.31c-39.57-7.59-63.48-29.76-63.53-29.8a.69.69,0,0,1,.56-1.2l-.09.69.47-.51.27.24c2.7,2.4,25.86,22.17,62.58,29.22a306.18,306.18,0,0,0,57.12,5.66A226.86,226.86,0,0,0,222.5,230c15.1-2.36,31.33-10.28,43.77-17.61,6.21-3.67,11.48-7.18,15.2-9.78,1.85-1.3,3.32-2.37,4.32-3.12l1.15-.86.39-.3.42.55-.17.67A234.23,234.23,0,0,1,264,191.75c-2.9-1.14-5.92-3.42-9.47-6.22-10.65-8.37-25.94-21.42-54.37-22.14h-1c-11.73,0-20.85,5-30.54,11.4S148.73,188.85,135,194c-13.42,5-29.63,6.25-42.89,6.25a205.41,205.41,0,0,1-25.29-1.51l.1-.69.47-.51-.47.51"/><polyline class="cls-17" points="238.62 175.47 233.29 187.73 229.18 177.31 238.62 175.47"/><polyline class="cls-17" points="174.74 177.21 180.61 189.21 184.25 178.62 174.74 177.21"/><path class="cls-23" d="M224.41,178.14l-19.1-10.79-16.51,11s3.6,10.8,17.7,10.48c18-.4,17.91-10.69,17.91-10.69"/><path class="cls-3" d="M205.72,149.25s-35.77-1.06-52.28,2.3-11.88,22.06-1.07,25.38,35.74,8.58,50.65-2.36c5.44-4,2.7-25.32,2.7-25.32"/><path class="cls-4" d="M205.72,149.25l0,.69s-1.32,0-3.58-.08-5.45-.08-9.19-.08c-11.9,0-29.32.41-39.35,2.45a13.53,13.53,0,0,0-7.92,4.25,10.29,10.29,0,0,0-2.35,6.72,14.24,14.24,0,0,0,2.6,8,12.79,12.79,0,0,0,6.67,5.07,94.32,94.32,0,0,0,26.31,4.19c8.52,0,17.16-1.63,23.72-6.44a4.87,4.87,0,0,0,1.45-2c1.26-2.68,1.66-7.27,1.66-11.59,0-2.9-.17-5.68-.35-7.74-.08-1-.17-1.88-.23-2.47s-.11-.91-.11-.92l.69-.08,0,.69,0-.69.69-.09a99.63,99.63,0,0,1,.7,11.3,45.24,45.24,0,0,1-.7,8.63,15.74,15.74,0,0,1-1.09,3.55,6.23,6.23,0,0,1-1.89,2.49c-6.92,5.07-15.85,6.71-24.54,6.71a95.79,95.79,0,0,1-26.72-4.25,14.22,14.22,0,0,1-7.4-5.6,15.65,15.65,0,0,1-2.85-8.79,11.66,11.66,0,0,1,2.68-7.61,14.84,14.84,0,0,1,8.7-4.72c10.26-2.08,27.69-2.47,39.63-2.48,7.49,0,12.81.16,12.81.16l.6,0,.07.59-.69.09"/><path class="cls-3" d="M205.43,149.25s35.69-2.65,52.33,0,12.85,21.51,2.2,25.31-35.32,10.16-50.71-.1c-5.6-3.74-3.82-25.18-3.82-25.18"/><path class="cls-4" d="M205.43,149.25l-.06-.69s16-1.19,31.6-1.19a145.78,145.78,0,0,1,20.9,1.17A14.69,14.69,0,0,1,267,153.1,11.82,11.82,0,0,1,269.8,161a15.81,15.81,0,0,1-2.63,8.56,14.16,14.16,0,0,1-7,5.67c-6.42,2.29-17.87,5.5-29.41,5.5-7.75,0-15.57-1.45-21.91-5.67a7,7,0,0,1-2.34-3.12,26.39,26.39,0,0,1-1.67-7.25,73.5,73.5,0,0,1-.4-8c0-4.21.27-7.45.27-7.46l.05-.6.59,0,.06.69.69.06s-.07.79-.13,2.11-.14,3.16-.14,5.24A62.47,62.47,0,0,0,206.6,167a19.62,19.62,0,0,0,1.21,4.31,5.62,5.62,0,0,0,1.83,2.51c6,4,13.56,5.45,21.14,5.44,11.29,0,22.62-3.16,29-5.42a12.83,12.83,0,0,0,6.28-5.12,14.45,14.45,0,0,0,2.4-7.8,10.44,10.44,0,0,0-2.47-6.94c-1.71-2-4.37-3.48-8.29-4.1A144.73,144.73,0,0,0,237,148.76c-7.77,0-15.64.3-21.58.59-3,.15-5.44.3-7.18.41s-2.73.19-2.73.19l0-.7.69.06-.69-.06"/><path class="cls-24" d="M193.78,147.8c1-.77,3.05-.75,6.85-.72,1.52,0,3.33,0,5.47,0,7.49-.19,10.85-.83,12.34.19s-1,9.28-6.05,9.7c-4.22.35-5.27.41-5.94.44h-.23c-.67,0-1.57,0-5.81-.17-5.08-.2-8.1-8.3-6.63-9.42"/><path class="cls-25" d="M268.42,167.47l-.13.05a16.14,16.14,0,0,1-1.12,2,14.16,14.16,0,0,1-7,5.67A103.51,103.51,0,0,1,248,178.67l.68.5A106.06,106.06,0,0,0,261,175.28c6.55-2.51,7.47-7.81,7.47-7.81M142.05,165a16.14,16.14,0,0,0,5.84,10.73c1.35,1.11,5.15,2.75,10.45,4.21l.8-.53c-2.68-.62-5-1.27-7-1.86a14.22,14.22,0,0,1-7.4-5.6,15.94,15.94,0,0,1-2.72-7"/><path class="cls-26" d="M190,180.79a52,52,0,0,1-6.84.91l-.53,1.55a74.85,74.85,0,0,0,8.81-.51,16.1,16.1,0,0,1-1.44-2m33.94-.52a9.21,9.21,0,0,1-.79,1.68c1,0,2,.05,3,.05,1.54,0,3.14,0,4.82-.13l-.47-1.19a52.8,52.8,0,0,1-6.54-.41M161,179.86l-.88.59a95.71,95.71,0,0,0,17.49,2.66l-.64-1.29a91.88,91.88,0,0,1-16-2m85.1-.81a86.67,86.67,0,0,1-9.66,1.39l-.44,1a95.57,95.57,0,0,0,10.84-1.86l-.74-.54"/><path class="cls-27" d="M159.14,179.45l-.8.53,1.8.47.88-.59-1.88-.41m88.81-.78-1.83.38.74.54c.59-.13,1.17-.27,1.77-.42l-.68-.5"/><path class="cls-11" d="M236.46,180.44l-.44,1q-2.61.28-5,.42l-.47-1.19h.27c1.9,0,3.8-.08,5.68-.24"/><path class="cls-11" d="M183.19,181.7l-.53,1.55h-.09c-1.67,0-3.32-.05-4.94-.14l-.64-1.29,1.9,0c1.43,0,2.87,0,4.3-.14"/><path class="cls-28" d="M206.05,170.62c.15.44.31.87.48,1.27a7,7,0,0,0,2.34,3.12,34.86,34.86,0,0,0,15.1,5.26,9.21,9.21,0,0,1-.79,1.68c-10.81-.39-17.2-2.76-17.2-2.76a57.35,57.35,0,0,1-14.51,3.55,16.1,16.1,0,0,1-1.44-2,34,34,0,0,0,13.4-5.66,6.23,6.23,0,0,0,1.89-2.49,13,13,0,0,0,.73-2"/><path class="cls-26" d="M144.12,167.71c6.24,5.55,23.15,9.1,34.39,9.1a33.92,33.92,0,0,0,6.1-.47c9.93-1.85,18.88-3.87,19.93-6.78a5.31,5.31,0,0,1,.6-1.24,14.76,14.76,0,0,1-1.08,3.73,4.87,4.87,0,0,1-1.45,2c-6.56,4.81-15.19,6.44-23.7,6.44h0a94.32,94.32,0,0,1-26.31-4.19,12.79,12.79,0,0,1-6.67-5.07,14.7,14.7,0,0,1-1.79-3.48"/><path class="cls-27" d="M142,165a7.77,7.77,0,0,0,2.08,2.72,14.7,14.7,0,0,0,1.79,3.48,12.79,12.79,0,0,0,6.67,5.07,94.32,94.32,0,0,0,26.31,4.19h0c8.51,0,17.14-1.63,23.7-6.44a4.87,4.87,0,0,0,1.45-2,14.76,14.76,0,0,0,1.08-3.73,2.47,2.47,0,0,1,.24-.29,23.28,23.28,0,0,0,.67,2.59,13,13,0,0,1-.73,2,6.23,6.23,0,0,1-1.89,2.49,34,34,0,0,1-13.4,5.66,52,52,0,0,1-6.84.91c-1.43.1-2.87.14-4.3.14l-1.9,0a91.88,91.88,0,0,1-16-2l-1.88-.41c-2.68-.62-5-1.27-7-1.86a14.22,14.22,0,0,1-7.4-5.6,15.94,15.94,0,0,1-2.72-7v0"/><path class="cls-26" d="M206.78,167.93a3.49,3.49,0,0,1,.75,1.44c.88,3,8.2,4.8,18.76,4.8a121.16,121.16,0,0,0,13.61-.83,150.14,150.14,0,0,0,26.49-5.2l-.38.61a12.83,12.83,0,0,1-6.28,5.12c-6.32,2.26-17.65,5.42-28.94,5.42h0c-7.58,0-15.12-1.42-21.14-5.44a5.62,5.62,0,0,1-1.83-2.51,18.13,18.13,0,0,1-1-3.41"/><path class="cls-27" d="M268.29,167.52a16.14,16.14,0,0,1-1.12,2,14.16,14.16,0,0,1-7,5.67A103.51,103.51,0,0,1,248,178.67l-1.83.38a86.67,86.67,0,0,1-9.66,1.39c-1.88.16-3.78.24-5.68.24h-.27a52.8,52.8,0,0,1-6.54-.41,34.86,34.86,0,0,1-15.1-5.26,7,7,0,0,1-2.34-3.12c-.17-.4-.33-.83-.48-1.27a23.28,23.28,0,0,1-.67-2.59,1.06,1.06,0,0,1,.76-.4.91.91,0,0,1,.64.3,18.13,18.13,0,0,0,1,3.41,5.62,5.62,0,0,0,1.83,2.51c6,4,13.56,5.45,21.14,5.44h0c11.29,0,22.62-3.16,28.94-5.42a12.83,12.83,0,0,0,6.28-5.12l.38-.61c1-.31,1.64-.53,1.9-.62"/><path class="cls-29" d="M195.13,153.89l.22.1a6.88,6.88,0,0,0,5.06,3.23l4.06.14v.1h-.57a30.68,30.68,0,0,1-4.56-.29c-2.28-.33-4.21-3.29-4.21-3.29"/><path class="cls-29" d="M217.08,153.75c-.39.91-1.74,3.14-5.69,3.39-2,.13-3.85.24-5.53.29v0h.59c.67,0,1.72-.09,5.94-.44a6.55,6.55,0,0,0,4.69-3.2"/><path class="cls-30" d="M204.47,157.36l1.39,0v0l-1.39,0v-.1"/><path class="cls-31" d="M217.22,153.37a3,3,0,0,1-.14.38,6.55,6.55,0,0,1-4.69,3.2c-4.22.35-5.27.41-5.94.44h-.59l-1.39,0-4.06-.14a6.88,6.88,0,0,1-5.06-3.23,22.58,22.58,0,0,0,9.05,1.57h.89c6.7-.18,10.43-.8,11.93-2.18"/><path class="cls-32" d="M138.88,229.9l1.24.2h0l-1.24-.21"/><path class="cls-2" d="M235,228.62l69.1-59.21s-15.24-6-6.9-24.31,35.07-16,47.15-3.15-.87,35.75-29.9,52.05-78.21,47.81-78.21,47.81Z"/><path class="cls-12" d="M287.79,185.2l22.45-15c-4.4-.85-10.36-6.34-13.77-9.46a14.88,14.88,0,0,0,3,4.85,15.38,15.38,0,0,0,4.4,3.15h0l1.21.47-19.62,17.07Z"/></g></g></svg>