<svg xmlns="http://www.w3.org/2000/svg" viewBox="0 0 168.79 343.05"><defs><style>.cls-1{fill:#ffcb08;}.cls-2{fill:#bc2424;}.cls-3{fill:#f05023;}</style></defs><title>2</title><g id="Capa_2" data-name="Capa 2"><g id="Capa_1-2" data-name="Capa 1"><g id="Bloque1"><rect class="cls-1" x="0.88" y="160.95" width="15.79" height="15.79" transform="translate(177.62 160.07) rotate(90)"/><polygon class="cls-2" points="0.88 160.95 2.48 157.75 18.27 157.75 16.67 160.95 0.88 160.95"/><polygon class="cls-3" points="16.67 176.74 16.67 160.95 18.27 157.75 18.27 173.54 16.67 176.74"/></g><g id="Bloque1-2" data-name="Bloque1"><rect class="cls-1" x="17.6" y="160.95" width="15.79" height="15.79" transform="translate(194.34 143.35) rotate(90)"/><polygon class="cls-2" points="17.6 160.95 19.2 157.75 34.99 157.75 33.39 160.95 17.6 160.95"/><polygon class="cls-3" points="33.39 176.74 33.39 160.95 34.99 157.75 34.99 173.54 33.39 176.74"/></g><g id="Bloque1-3" data-name="Bloque1"><rect class="cls-1" x="34.33" y="160.95" width="15.79" height="15.79" transform="translate(211.07 126.62) rotate(90)"/><polygon class="cls-2" points="34.33 160.95 35.92 157.75 51.72 157.75 50.12 160.95 34.33 160.95"/><polygon class="cls-3" points="50.12 176.74 50.12 160.95 51.72 157.75 51.72 173.54 50.12 176.74"/></g><g id="Bloque1-4" data-name="Bloque1"><rect class="cls-1" x="51.05" y="160.95" width="15.79" height="15.79" transform="translate(227.79 109.9) rotate(90)"/><polygon class="cls-2" points="51.05 160.95 52.65 157.75 68.44 157.75 66.84 160.95 51.05 160.95"/><polygon class="cls-3" points="66.84 176.74 66.84 160.95 68.44 157.75 68.44 173.54 66.84 176.74"/></g><g id="Bloque1-5" data-name="Bloque1"><rect class="cls-1" x="67.78" y="160.95" width="15.79" height="15.79" transform="translate(244.52 93.17) rotate(90)"/><polygon class="cls-2" points="67.78 160.95 69.38 157.75 85.17 157.75 83.57 160.95 67.78 160.95"/><polygon class="cls-3" points="83.57 176.74 83.57 160.95 85.17 157.75 85.17 173.54 83.57 176.74"/></g><g id="Bloque1-6" data-name="Bloque1"><rect class="cls-1" x="84.5" y="160.95" width="15.79" height="15.79" transform="translate(261.24 76.45) rotate(90)"/><polygon class="cls-2" points="84.5 160.95 86.1 157.75 101.89 157.75 100.29 160.95 84.5 160.95"/><polygon class="cls-3" points="100.29 176.74 100.29 160.95 101.89 157.75 101.89 173.54 100.29 176.74"/></g><g id="Bloque1-7" data-name="Bloque1"><rect class="cls-1" x="101.23" y="160.95" width="15.79" height="15.79" transform="translate(277.97 59.72) rotate(90)"/><polygon class="cls-2" points="101.23 160.95 102.83 157.75 118.62 157.75 117.02 160.95 101.23 160.95"/><polygon class="cls-3" points="117.02 176.74 117.02 160.95 118.62 157.75 118.62 173.54 117.02 176.74"/></g><g id="Bloque1-8" data-name="Bloque1"><rect class="cls-1" x="117.95" y="160.95" width="15.79" height="15.79" transform="translate(294.69 43) rotate(90)"/><polygon class="cls-2" points="117.95 160.95 119.55 157.75 135.34 157.75 133.74 160.95 117.95 160.95"/><polygon class="cls-3" points="133.74 176.74 133.74 160.95 135.34 157.75 135.34 173.54 133.74 176.74"/></g><g id="Bloque1-9" data-name="Bloque1"><rect class="cls-1" x="134.68" y="160.95" width="15.79" height="15.79" transform="translate(311.42 26.27) rotate(90)"/><polygon class="cls-2" points="134.68 160.95 136.28 157.75 152.07 157.75 150.47 160.95 134.68 160.95"/><polygon class="cls-3" points="150.47 176.74 150.47 160.95 152.07 157.75 152.07 173.54 150.47 176.74"/></g><g id="Bloque1-10" data-name="Bloque1"><rect class="cls-1" x="151.4" y="160.95" width="15.79" height="15.79" transform="translate(328.14 9.55) rotate(90)"/><polygon class="cls-2" points="151.4 160.95 153 157.75 168.79 157.75 167.19 160.95 151.4 160.95"/><polygon class="cls-3" points="167.19 176.74 167.19 160.95 168.79 157.75 168.79 173.54 167.19 176.74"/></g><g id="Bloque1-11" data-name="Bloque1"><rect class="cls-1" x="0.88" y="143.42" width="15.79" height="15.79" transform="translate(160.09 142.55) rotate(90)"/><polygon class="cls-2" points="0.88 143.42 2.48 140.22 18.27 140.22 16.67 143.42 0.88 143.42"/><polygon class="cls-3" points="16.67 159.21 16.67 143.42 18.27 140.22 18.27 156.01 16.67 159.21"/></g><g id="Bloque1-12" data-name="Bloque1"><rect class="cls-1" x="17.6" y="143.42" width="15.79" height="15.79" transform="translate(176.81 125.82) rotate(90)"/><polygon class="cls-2" points="17.6 143.42 19.2 140.22 34.99 140.22 33.39 143.42 17.6 143.42"/><polygon class="cls-3" points="33.39 159.21 33.39 143.42 34.99 140.22 34.99 156.01 33.39 159.21"/></g><g id="Bloque1-13" data-name="Bloque1"><rect class="cls-1" x="34.33" y="143.42" width="15.79" height="15.79" transform="translate(193.54 109.1) rotate(90)"/><polygon class="cls-2" points="34.33 143.42 35.92 140.22 51.72 140.22 50.12 143.42 34.33 143.42"/><polygon class="cls-3" points="50.12 159.21 50.12 143.42 51.72 140.22 51.72 156.01 50.12 159.21"/></g><g id="Bloque1-14" data-name="Bloque1"><rect class="cls-1" x="51.05" y="143.42" width="15.79" height="15.79" transform="translate(210.26 92.37) rotate(90)"/><polygon class="cls-2" points="51.05 143.42 52.65 140.22 68.44 140.22 66.84 143.42 51.05 143.42"/><polygon class="cls-3" points="66.84 159.21 66.84 143.42 68.44 140.22 68.44 156.01 66.84 159.21"/></g><g id="Bloque1-15" data-name="Bloque1"><rect class="cls-1" x="67.78" y="143.42" width="15.79" height="15.79" transform="translate(226.99 75.64) rotate(90)"/><polygon class="cls-2" points="67.78 143.42 69.38 140.22 85.17 140.22 83.57 143.42 67.78 143.42"/><polygon class="cls-3" points="83.57 159.21 83.57 143.42 85.17 140.22 85.17 156.01 83.57 159.21"/></g><g id="Bloque1-16" data-name="Bloque1"><rect class="cls-1" x="84.5" y="143.42" width="15.79" height="15.79" transform="translate(243.71 58.92) rotate(90)"/><polygon class="cls-2" points="84.5 143.42 86.1 140.22 101.89 140.22 100.29 143.42 84.5 143.42"/><polygon class="cls-3" points="100.29 159.21 100.29 143.42 101.89 140.22 101.89 156.01 100.29 159.21"/></g><g id="Bloque1-17" data-name="Bloque1"><rect class="cls-1" x="101.23" y="143.42" width="15.79" height="15.79" transform="translate(260.44 42.19) rotate(90)"/><polygon class="cls-2" points="101.23 143.42 102.83 140.22 118.62 140.22 117.02 143.42 101.23 143.42"/><polygon class="cls-3" points="117.02 159.21 117.02 143.42 118.62 140.22 118.62 156.01 117.02 159.21"/></g><g id="Bloque1-18" data-name="Bloque1"><rect class="cls-1" x="117.95" y="143.42" width="15.79" height="15.79" transform="translate(277.16 25.47) rotate(90)"/><polygon class="cls-2" points="117.95 143.42 119.55 140.22 135.34 140.22 133.74 143.42 117.95 143.42"/><polygon class="cls-3" points="133.74 159.21 133.74 143.42 135.34 140.22 135.34 156.01 133.74 159.21"/></g><g id="Bloque1-19" data-name="Bloque1"><rect class="cls-1" x="134.68" y="143.42" width="15.79" height="15.79" transform="translate(293.89 8.74) rotate(90)"/><polygon class="cls-2" points="134.68 143.42 136.28 140.22 152.07 140.22 150.47 143.42 134.68 143.42"/><polygon class="cls-3" points="150.47 159.21 150.47 143.42 152.07 140.22 152.07 156.01 150.47 159.21"/></g><g id="Bloque1-20" data-name="Bloque1"><rect class="cls-1" x="151.4" y="143.42" width="15.79" height="15.79" transform="translate(310.61 -7.98) rotate(90)"/><polygon class="cls-2" points="151.4 143.42 153 140.22 168.79 140.22 167.19 143.42 151.4 143.42"/><polygon class="cls-3" points="167.19 159.21 167.19 143.42 168.79 140.22 168.79 156.01 167.19 159.21"/></g><g id="Bloque1-21" data-name="Bloque1"><rect class="cls-1" x="0.88" y="125.89" width="15.79" height="15.79" transform="translate(142.56 125.02) rotate(90)"/><polygon class="cls-2" points="0.88 125.89 2.48 122.69 18.27 122.69 16.67 125.89 0.88 125.89"/><polygon class="cls-3" points="16.67 141.69 16.67 125.89 18.27 122.69 18.27 138.49 16.67 141.69"/></g><g id="Bloque1-22" data-name="Bloque1"><rect class="cls-1" x="17.6" y="125.89" width="15.79" height="15.79" transform="translate(159.28 108.29) rotate(90)"/><polygon class="cls-2" points="17.6 125.89 19.2 122.69 34.99 122.69 33.39 125.89 17.6 125.89"/><polygon class="cls-3" points="33.39 141.69 33.39 125.89 34.99 122.69 34.99 138.49 33.39 141.69"/></g><g id="Bloque1-23" data-name="Bloque1"><rect class="cls-1" x="34.33" y="125.89" width="15.79" height="15.79" transform="translate(176.01 91.57) rotate(90)"/><polygon class="cls-2" points="34.33 125.89 35.92 122.69 51.72 122.69 50.12 125.89 34.33 125.89"/><polygon class="cls-3" points="50.12 141.69 50.12 125.89 51.72 122.69 51.72 138.49 50.12 141.69"/></g><g id="Bloque1-24" data-name="Bloque1"><rect class="cls-1" x="51.05" y="125.89" width="15.79" height="15.79" transform="translate(192.74 74.84) rotate(90)"/><polygon class="cls-2" points="51.05 125.89 52.65 122.69 68.44 122.69 66.84 125.89 51.05 125.89"/><polygon class="cls-3" points="66.84 141.69 66.84 125.89 68.44 122.69 68.44 138.49 66.84 141.69"/></g><g id="Bloque1-25" data-name="Bloque1"><rect class="cls-1" x="67.78" y="125.89" width="15.79" height="15.79" transform="translate(209.46 58.12) rotate(90)"/><polygon class="cls-2" points="67.78 125.89 69.38 122.69 85.17 122.69 83.57 125.89 67.78 125.89"/><polygon class="cls-3" points="83.57 141.69 83.57 125.89 85.17 122.69 85.17 138.49 83.57 141.69"/></g><g id="Bloque1-26" data-name="Bloque1"><rect class="cls-1" x="84.5" y="125.89" width="15.79" height="15.79" transform="translate(226.19 41.39) rotate(90)"/><polygon class="cls-2" points="84.5 125.89 86.1 122.69 101.89 122.69 100.29 125.89 84.5 125.89"/><polygon class="cls-3" points="100.29 141.69 100.29 125.89 101.89 122.69 101.89 138.49 100.29 141.69"/></g><g id="Bloque1-27" data-name="Bloque1"><rect class="cls-1" x="101.23" y="125.89" width="15.79" height="15.79" transform="translate(242.91 24.67) rotate(90)"/><polygon class="cls-2" points="101.23 125.89 102.83 122.69 118.62 122.69 117.02 125.89 101.23 125.89"/><polygon class="cls-3" points="117.02 141.69 117.02 125.89 118.62 122.69 118.62 138.49 117.02 141.69"/></g><g id="Bloque1-28" data-name="Bloque1"><rect class="cls-1" x="117.95" y="125.89" width="15.79" height="15.79" transform="translate(259.64 7.94) rotate(90)"/><polygon class="cls-2" points="117.95 125.89 119.55 122.69 135.34 122.69 133.74 125.89 117.95 125.89"/><polygon class="cls-3" points="133.74 141.69 133.74 125.89 135.34 122.69 135.34 138.49 133.74 141.69"/></g><g id="Bloque1-29" data-name="Bloque1"><rect class="cls-1" x="134.68" y="125.89" width="15.79" height="15.79" transform="translate(276.36 -8.78) rotate(90)"/><polygon class="cls-2" points="134.68 125.89 136.28 122.69 152.07 122.69 150.47 125.89 134.68 125.89"/><polygon class="cls-3" points="150.47 141.69 150.47 125.89 152.07 122.69 152.07 138.49 150.47 141.69"/></g><g id="Bloque1-30" data-name="Bloque1"><rect class="cls-1" x="151.4" y="125.89" width="15.79" height="15.79" transform="translate(293.09 -25.51) rotate(90)"/><polygon class="cls-2" points="151.4 125.89 153 122.69 168.79 122.69 167.19 125.89 151.4 125.89"/><polygon class="cls-3" points="167.19 141.69 167.19 125.89 168.79 122.69 168.79 138.49 167.19 141.69"/></g><g id="Bloque1-31" data-name="Bloque1"><rect class="cls-1" x="0.88" y="108.37" width="15.79" height="15.79" transform="translate(125.03 107.49) rotate(90)"/><polygon class="cls-2" points="0.88 108.37 2.48 105.17 18.27 105.17 16.67 108.37 0.88 108.37"/><polygon class="cls-3" points="16.67 124.16 16.67 108.37 18.27 105.17 18.27 120.96 16.67 124.16"/></g><g id="Bloque1-32" data-name="Bloque1"><rect class="cls-1" x="17.6" y="108.37" width="15.79" height="15.79" transform="translate(141.76 90.77) rotate(90)"/><polygon class="cls-2" points="17.6 108.37 19.2 105.17 34.99 105.17 33.39 108.37 17.6 108.37"/><polygon class="cls-3" points="33.39 124.16 33.39 108.37 34.99 105.17 34.99 120.96 33.39 124.16"/></g><g id="Bloque1-33" data-name="Bloque1"><rect class="cls-1" x="34.33" y="108.37" width="15.79" height="15.79" transform="translate(158.48 74.04) rotate(90)"/><polygon class="cls-2" points="34.33 108.37 35.92 105.17 51.72 105.17 50.12 108.37 34.33 108.37"/><polygon class="cls-3" points="50.12 124.16 50.12 108.37 51.72 105.17 51.72 120.96 50.12 124.16"/></g><g id="Bloque1-34" data-name="Bloque1"><rect class="cls-1" x="51.05" y="108.37" width="15.79" height="15.79" transform="translate(175.21 57.31) rotate(90)"/><polygon class="cls-2" points="51.05 108.37 52.65 105.17 68.44 105.17 66.84 108.37 51.05 108.37"/><polygon class="cls-3" points="66.84 124.16 66.84 108.37 68.44 105.17 68.44 120.96 66.84 124.16"/></g><g id="Bloque1-35" data-name="Bloque1"><rect class="cls-1" x="67.78" y="108.37" width="15.79" height="15.79" transform="translate(191.93 40.59) rotate(90)"/><polygon class="cls-2" points="67.78 108.37 69.38 105.17 85.17 105.17 83.57 108.37 67.78 108.37"/><polygon class="cls-3" points="83.57 124.16 83.57 108.37 85.17 105.17 85.17 120.96 83.57 124.16"/></g><g id="Bloque1-36" data-name="Bloque1"><rect class="cls-1" x="84.5" y="108.37" width="15.79" height="15.79" transform="translate(208.66 23.86) rotate(90)"/><polygon class="cls-2" points="84.5 108.37 86.1 105.17 101.89 105.17 100.29 108.37 84.5 108.37"/><polygon class="cls-3" points="100.29 124.16 100.29 108.37 101.89 105.17 101.89 120.96 100.29 124.16"/></g><g id="Bloque1-37" data-name="Bloque1"><rect class="cls-1" x="101.23" y="108.37" width="15.79" height="15.79" transform="translate(225.38 7.14) rotate(90)"/><polygon class="cls-2" points="101.23 108.37 102.83 105.17 118.62 105.17 117.02 108.37 101.23 108.37"/><polygon class="cls-3" points="117.02 124.16 117.02 108.37 118.62 105.17 118.62 120.96 117.02 124.16"/></g><g id="Bloque1-38" data-name="Bloque1"><rect class="cls-1" x="117.95" y="108.37" width="15.79" height="15.79" transform="translate(242.11 -9.59) rotate(90)"/><polygon class="cls-2" points="117.95 108.37 119.55 105.17 135.34 105.17 133.74 108.37 117.95 108.37"/><polygon class="cls-3" points="133.74 124.16 133.74 108.37 135.34 105.17 135.34 120.96 133.74 124.16"/></g><g id="Bloque1-39" data-name="Bloque1"><rect class="cls-1" x="134.68" y="108.37" width="15.79" height="15.79" transform="translate(258.83 -26.31) rotate(90)"/><polygon class="cls-2" points="134.68 108.37 136.28 105.17 152.07 105.17 150.47 108.37 134.68 108.37"/><polygon class="cls-3" points="150.47 124.16 150.47 108.37 152.07 105.17 152.07 120.96 150.47 124.16"/></g><g id="Bloque1-40" data-name="Bloque1"><rect class="cls-1" x="151.4" y="108.37" width="15.79" height="15.79" transform="translate(275.56 -43.04) rotate(90)"/><polygon class="cls-2" points="151.4 108.37 153 105.17 168.79 105.17 167.19 108.37 151.4 108.37"/><polygon class="cls-3" points="167.19 124.16 167.19 108.37 168.79 105.17 168.79 120.96 167.19 124.16"/></g><g id="Bloque1-41" data-name="Bloque1"><rect class="cls-1" x="0.88" y="90.84" width="15.79" height="15.79" transform="translate(107.5 89.96) rotate(90)"/><polygon class="cls-2" points="0.88 90.84 2.48 87.64 18.27 87.64 16.67 90.84 0.88 90.84"/><polygon class="cls-3" points="16.67 106.63 16.67 90.84 18.27 87.64 18.27 103.43 16.67 106.63"/></g><g id="Bloque1-42" data-name="Bloque1"><rect class="cls-1" x="17.6" y="90.84" width="15.79" height="15.79" transform="translate(124.23 73.24) rotate(90)"/><polygon class="cls-2" points="17.6 90.84 19.2 87.64 34.99 87.64 33.39 90.84 17.6 90.84"/><polygon class="cls-3" points="33.39 106.63 33.39 90.84 34.99 87.64 34.99 103.43 33.39 106.63"/></g><g id="Bloque1-43" data-name="Bloque1"><rect class="cls-1" x="34.33" y="90.84" width="15.79" height="15.79" transform="translate(140.95 56.51) rotate(90)"/><polygon class="cls-2" points="34.33 90.84 35.92 87.64 51.72 87.64 50.12 90.84 34.33 90.84"/><polygon class="cls-3" points="50.12 106.63 50.12 90.84 51.72 87.64 51.72 103.43 50.12 106.63"/></g><g id="Bloque1-44" data-name="Bloque1"><rect class="cls-1" x="51.05" y="90.84" width="15.79" height="15.79" transform="translate(157.68 39.79) rotate(90)"/><polygon class="cls-2" points="51.05 90.84 52.65 87.64 68.44 87.64 66.84 90.84 51.05 90.84"/><polygon class="cls-3" points="66.84 106.63 66.84 90.84 68.44 87.64 68.44 103.43 66.84 106.63"/></g><g id="Bloque1-45" data-name="Bloque1"><rect class="cls-1" x="67.78" y="90.84" width="15.79" height="15.79" transform="translate(174.41 23.06) rotate(90)"/><polygon class="cls-2" points="67.78 90.84 69.38 87.64 85.17 87.64 83.57 90.84 67.78 90.84"/><polygon class="cls-3" points="83.57 106.63 83.57 90.84 85.17 87.64 85.17 103.43 83.57 106.63"/></g><g id="Bloque1-46" data-name="Bloque1"><rect class="cls-1" x="84.5" y="90.84" width="15.79" height="15.79" transform="translate(191.13 6.34) rotate(90)"/><polygon class="cls-2" points="84.5 90.84 86.1 87.64 101.89 87.64 100.29 90.84 84.5 90.84"/><polygon class="cls-3" points="100.29 106.63 100.29 90.84 101.89 87.64 101.89 103.43 100.29 106.63"/></g><g id="Bloque1-47" data-name="Bloque1"><rect class="cls-1" x="101.23" y="90.84" width="15.79" height="15.79" transform="translate(207.86 -10.39) rotate(90)"/><polygon class="cls-2" points="101.23 90.84 102.83 87.64 118.62 87.64 117.02 90.84 101.23 90.84"/><polygon class="cls-3" points="117.02 106.63 117.02 90.84 118.62 87.64 118.62 103.43 117.02 106.63"/></g><g id="Bloque1-48" data-name="Bloque1"><rect class="cls-1" x="117.95" y="90.84" width="15.79" height="15.79" transform="translate(224.58 -27.11) rotate(90)"/><polygon class="cls-2" points="117.95 90.84 119.55 87.64 135.34 87.64 133.74 90.84 117.95 90.84"/><polygon class="cls-3" points="133.74 106.63 133.74 90.84 135.34 87.64 135.34 103.43 133.74 106.63"/></g><g id="Bloque1-49" data-name="Bloque1"><rect class="cls-1" x="134.68" y="90.84" width="15.79" height="15.79" transform="translate(241.31 -43.84) rotate(90)"/><polygon class="cls-2" points="134.68 90.84 136.28 87.64 152.07 87.64 150.47 90.84 134.68 90.84"/><polygon class="cls-3" points="150.47 106.63 150.47 90.84 152.07 87.64 152.07 103.43 150.47 106.63"/></g><g id="Bloque1-50" data-name="Bloque1"><rect class="cls-1" x="151.4" y="90.84" width="15.79" height="15.79" transform="translate(258.03 -60.56) rotate(90)"/><polygon class="cls-2" points="151.4 90.84 153 87.64 168.79 87.64 167.19 90.84 151.4 90.84"/><polygon class="cls-3" points="167.19 106.63 167.19 90.84 168.79 87.64 168.79 103.43 167.19 106.63"/></g><g id="Bloque1-51" data-name="Bloque1"><rect class="cls-1" x="0.88" y="73.31" width="15.79" height="15.79" transform="translate(89.98 72.44) rotate(90)"/><polygon class="cls-2" points="0.88 73.31 2.48 70.11 18.27 70.11 16.67 73.31 0.88 73.31"/><polygon class="cls-3" points="16.67 89.1 16.67 73.31 18.27 70.11 18.27 85.9 16.67 89.1"/></g><g id="Bloque1-52" data-name="Bloque1"><rect class="cls-1" x="17.6" y="73.31" width="15.79" height="15.79" transform="translate(106.7 55.71) rotate(90)"/><polygon class="cls-2" points="17.6 73.31 19.2 70.11 34.99 70.11 33.39 73.31 17.6 73.31"/><polygon class="cls-3" points="33.39 89.1 33.39 73.31 34.99 70.11 34.99 85.9 33.39 89.1"/></g><g id="Bloque1-53" data-name="Bloque1"><rect class="cls-1" x="34.33" y="73.31" width="15.79" height="15.79" transform="translate(123.43 38.98) rotate(90)"/><polygon class="cls-2" points="34.33 73.31 35.92 70.11 51.72 70.11 50.12 73.31 34.33 73.31"/><polygon class="cls-3" points="50.12 89.1 50.12 73.31 51.72 70.11 51.72 85.9 50.12 89.1"/></g><g id="Bloque1-54" data-name="Bloque1"><rect class="cls-1" x="51.05" y="73.31" width="15.79" height="15.79" transform="translate(140.15 22.26) rotate(90)"/><polygon class="cls-2" points="51.05 73.31 52.65 70.11 68.44 70.11 66.84 73.31 51.05 73.31"/><polygon class="cls-3" points="66.84 89.1 66.84 73.31 68.44 70.11 68.44 85.9 66.84 89.1"/></g><g id="Bloque1-55" data-name="Bloque1"><rect class="cls-1" x="67.78" y="73.31" width="15.79" height="15.79" transform="translate(156.88 5.53) rotate(90)"/><polygon class="cls-2" points="67.78 73.31 69.38 70.11 85.17 70.11 83.57 73.31 67.78 73.31"/><polygon class="cls-3" points="83.57 89.1 83.57 73.31 85.17 70.11 85.17 85.9 83.57 89.1"/></g><g id="Bloque1-56" data-name="Bloque1"><rect class="cls-1" x="84.5" y="73.31" width="15.79" height="15.79" transform="translate(173.6 -11.19) rotate(90)"/><polygon class="cls-2" points="84.5 73.31 86.1 70.11 101.89 70.11 100.29 73.31 84.5 73.31"/><polygon class="cls-3" points="100.29 89.1 100.29 73.31 101.89 70.11 101.89 85.9 100.29 89.1"/></g><g id="Bloque1-57" data-name="Bloque1"><rect class="cls-1" x="101.23" y="73.31" width="15.79" height="15.79" transform="translate(190.33 -27.92) rotate(90)"/><polygon class="cls-2" points="101.23 73.31 102.83 70.11 118.62 70.11 117.02 73.31 101.23 73.31"/><polygon class="cls-3" points="117.02 89.1 117.02 73.31 118.62 70.11 118.62 85.9 117.02 89.1"/></g><g id="Bloque1-58" data-name="Bloque1"><rect class="cls-1" x="117.95" y="73.31" width="15.79" height="15.79" transform="translate(207.05 -44.64) rotate(90)"/><polygon class="cls-2" points="117.95 73.31 119.55 70.11 135.34 70.11 133.74 73.31 117.95 73.31"/><polygon class="cls-3" points="133.74 89.1 133.74 73.31 135.34 70.11 135.34 85.9 133.74 89.1"/></g><g id="Bloque1-59" data-name="Bloque1"><rect class="cls-1" x="134.68" y="73.31" width="15.79" height="15.79" transform="translate(223.78 -61.37) rotate(90)"/><polygon class="cls-2" points="134.68 73.31 136.28 70.11 152.07 70.11 150.47 73.31 134.68 73.31"/><polygon class="cls-3" points="150.47 89.1 150.47 73.31 152.07 70.11 152.07 85.9 150.47 89.1"/></g><g id="Bloque1-60" data-name="Bloque1"><rect class="cls-1" x="151.4" y="73.31" width="15.79" height="15.79" transform="translate(240.5 -78.09) rotate(90)"/><polygon class="cls-2" points="151.4 73.31 153 70.11 168.79 70.11 167.19 73.31 151.4 73.31"/><polygon class="cls-3" points="167.19 89.1 167.19 73.31 168.79 70.11 168.79 85.9 167.19 89.1"/></g><g id="Bloque1-61" data-name="Bloque1"><rect class="cls-1" x="0.88" y="55.78" width="15.79" height="15.79" transform="translate(72.45 54.91) rotate(90)"/><polygon class="cls-2" points="0.88 55.78 2.48 52.58 18.27 52.58 16.67 55.78 0.88 55.78"/><polygon class="cls-3" points="16.67 71.57 16.67 55.78 18.27 52.58 18.27 68.37 16.67 71.57"/></g><g id="Bloque1-62" data-name="Bloque1"><rect class="cls-1" x="17.6" y="55.78" width="15.79" height="15.79" transform="translate(89.17 38.18) rotate(90)"/><polygon class="cls-2" points="17.6 55.78 19.2 52.58 34.99 52.58 33.39 55.78 17.6 55.78"/><polygon class="cls-3" points="33.39 71.57 33.39 55.78 34.99 52.58 34.99 68.37 33.39 71.57"/></g><g id="Bloque1-63" data-name="Bloque1"><rect class="cls-1" x="34.33" y="55.78" width="15.79" height="15.79" transform="translate(105.9 21.46) rotate(90)"/><polygon class="cls-2" points="34.33 55.78 35.92 52.58 51.72 52.58 50.12 55.78 34.33 55.78"/><polygon class="cls-3" points="50.12 71.57 50.12 55.78 51.72 52.58 51.72 68.37 50.12 71.57"/></g><g id="Bloque1-64" data-name="Bloque1"><rect class="cls-1" x="51.05" y="55.78" width="15.79" height="15.79" transform="translate(122.62 4.73) rotate(90)"/><polygon class="cls-2" points="51.05 55.78 52.65 52.58 68.44 52.58 66.84 55.78 51.05 55.78"/><polygon class="cls-3" points="66.84 71.57 66.84 55.78 68.44 52.58 68.44 68.37 66.84 71.57"/></g><g id="Bloque1-65" data-name="Bloque1"><rect class="cls-1" x="67.78" y="55.78" width="15.79" height="15.79" transform="translate(139.35 -11.99) rotate(90)"/><polygon class="cls-2" points="67.78 55.78 69.38 52.58 85.17 52.58 83.57 55.78 67.78 55.78"/><polygon class="cls-3" points="83.57 71.57 83.57 55.78 85.17 52.58 85.17 68.37 83.57 71.57"/></g><g id="Bloque1-66" data-name="Bloque1"><rect class="cls-1" x="84.5" y="55.78" width="15.79" height="15.79" transform="translate(156.07 -28.72) rotate(90)"/><polygon class="cls-2" points="84.5 55.78 86.1 52.58 101.89 52.58 100.29 55.78 84.5 55.78"/><polygon class="cls-3" points="100.29 71.57 100.29 55.78 101.89 52.58 101.89 68.37 100.29 71.57"/></g><g id="Bloque1-67" data-name="Bloque1"><rect class="cls-1" x="101.23" y="55.78" width="15.79" height="15.79" transform="translate(172.8 -45.44) rotate(90)"/><polygon class="cls-2" points="101.23 55.78 102.83 52.58 118.62 52.58 117.02 55.78 101.23 55.78"/><polygon class="cls-3" points="117.02 71.57 117.02 55.78 118.62 52.58 118.62 68.37 117.02 71.57"/></g><g id="Bloque1-68" data-name="Bloque1"><rect class="cls-1" x="117.95" y="55.78" width="15.79" height="15.79" transform="translate(189.53 -62.17) rotate(90)"/><polygon class="cls-2" points="117.95 55.78 119.55 52.58 135.34 52.58 133.74 55.78 117.95 55.78"/><polygon class="cls-3" points="133.74 71.57 133.74 55.78 135.34 52.58 135.34 68.37 133.74 71.57"/></g><g id="Bloque1-69" data-name="Bloque1"><rect class="cls-1" x="134.68" y="55.78" width="15.79" height="15.79" transform="translate(206.25 -78.89) rotate(90)"/><polygon class="cls-2" points="134.68 55.78 136.28 52.58 152.07 52.58 150.47 55.78 134.68 55.78"/><polygon class="cls-3" points="150.47 71.57 150.47 55.78 152.07 52.58 152.07 68.37 150.47 71.57"/></g><g id="Bloque1-70" data-name="Bloque1"><rect class="cls-1" x="151.4" y="55.78" width="15.79" height="15.79" transform="translate(222.98 -95.62) rotate(90)"/><polygon class="cls-2" points="151.4 55.78 153 52.58 168.79 52.58 167.19 55.78 151.4 55.78"/><polygon class="cls-3" points="167.19 71.57 167.19 55.78 168.79 52.58 168.79 68.37 167.19 71.57"/></g><g id="Bloque1-71" data-name="Bloque1"><rect class="cls-1" x="0.88" y="38.25" width="15.79" height="15.79" transform="translate(54.92 37.38) rotate(90)"/><polygon class="cls-2" points="0.88 38.26 2.48 35.05 18.27 35.05 16.67 38.26 0.88 38.26"/><polygon class="cls-3" points="16.67 54.05 16.67 38.26 18.27 35.05 18.27 50.85 16.67 54.05"/></g><g id="Bloque1-72" data-name="Bloque1"><rect class="cls-1" x="17.6" y="38.25" width="15.79" height="15.79" transform="translate(71.65 20.65) rotate(90)"/><polygon class="cls-2" points="17.6 38.26 19.2 35.05 34.99 35.05 33.39 38.26 17.6 38.26"/><polygon class="cls-3" points="33.39 54.05 33.39 38.26 34.99 35.05 34.99 50.85 33.39 54.05"/></g><g id="Bloque1-73" data-name="Bloque1"><rect class="cls-1" x="34.33" y="38.25" width="15.79" height="15.79" transform="translate(88.37 3.93) rotate(90)"/><polygon class="cls-2" points="34.33 38.26 35.92 35.05 51.72 35.05 50.12 38.26 34.33 38.26"/><polygon class="cls-3" points="50.12 54.05 50.12 38.26 51.72 35.05 51.72 50.85 50.12 54.05"/></g><g id="Bloque1-74" data-name="Bloque1"><rect class="cls-1" x="51.05" y="38.25" width="15.79" height="15.79" transform="translate(105.1 -12.8) rotate(90)"/><polygon class="cls-2" points="51.05 38.26 52.65 35.05 68.44 35.05 66.84 38.26 51.05 38.26"/><polygon class="cls-3" points="66.84 54.05 66.84 38.26 68.44 35.05 68.44 50.85 66.84 54.05"/></g><g id="Bloque1-75" data-name="Bloque1"><rect class="cls-1" x="67.78" y="38.25" width="15.79" height="15.79" transform="translate(121.82 -29.52) rotate(90)"/><polygon class="cls-2" points="67.78 38.26 69.38 35.05 85.17 35.05 83.57 38.26 67.78 38.26"/><polygon class="cls-3" points="83.57 54.05 83.57 38.26 85.17 35.05 85.17 50.85 83.57 54.05"/></g><g id="Bloque1-76" data-name="Bloque1"><rect class="cls-1" x="84.5" y="38.25" width="15.79" height="15.79" transform="translate(138.55 -46.25) rotate(90)"/><polygon class="cls-2" points="84.5 38.26 86.1 35.05 101.89 35.05 100.29 38.26 84.5 38.26"/><polygon class="cls-3" points="100.29 54.05 100.29 38.26 101.89 35.05 101.89 50.85 100.29 54.05"/></g><g id="Bloque1-77" data-name="Bloque1"><rect class="cls-1" x="101.23" y="38.25" width="15.79" height="15.79" transform="translate(155.27 -62.97) rotate(90)"/><polygon class="cls-2" points="101.23 38.26 102.83 35.05 118.62 35.05 117.02 38.26 101.23 38.26"/><polygon class="cls-3" points="117.02 54.05 117.02 38.26 118.62 35.05 118.62 50.85 117.02 54.05"/></g><g id="Bloque1-78" data-name="Bloque1"><rect class="cls-1" x="117.95" y="38.25" width="15.79" height="15.79" transform="translate(172 -79.7) rotate(90)"/><polygon class="cls-2" points="117.95 38.26 119.55 35.05 135.34 35.05 133.74 38.26 117.95 38.26"/><polygon class="cls-3" points="133.74 54.05 133.74 38.26 135.34 35.05 135.34 50.85 133.74 54.05"/></g><g id="Bloque1-79" data-name="Bloque1"><rect class="cls-1" x="134.68" y="38.25" width="15.79" height="15.79" transform="translate(188.72 -96.42) rotate(90)"/><polygon class="cls-2" points="134.68 38.26 136.28 35.05 152.07 35.05 150.47 38.26 134.68 38.26"/><polygon class="cls-3" points="150.47 54.05 150.47 38.26 152.07 35.05 152.07 50.85 150.47 54.05"/></g><g id="Bloque1-80" data-name="Bloque1"><rect class="cls-1" x="151.4" y="38.25" width="15.79" height="15.79" transform="translate(205.45 -113.15) rotate(90)"/><polygon class="cls-2" points="151.4 38.26 153 35.05 168.79 35.05 167.19 38.26 151.4 38.26"/><polygon class="cls-3" points="167.19 54.05 167.19 38.26 168.79 35.05 168.79 50.85 167.19 54.05"/></g><g id="Bloque1-81" data-name="Bloque1"><rect class="cls-1" x="0.88" y="20.73" width="15.79" height="15.79" transform="translate(37.39 19.85) rotate(90)"/><polygon class="cls-2" points="0.88 20.73 2.48 17.53 18.27 17.53 16.67 20.73 0.88 20.73"/><polygon class="cls-3" points="16.67 36.52 16.67 20.73 18.27 17.53 18.27 33.32 16.67 36.52"/></g><g id="Bloque1-82" data-name="Bloque1"><rect class="cls-1" x="17.6" y="20.73" width="15.79" height="15.79" transform="translate(54.12 3.13) rotate(90)"/><polygon class="cls-2" points="17.6 20.73 19.2 17.53 34.99 17.53 33.39 20.73 17.6 20.73"/><polygon class="cls-3" points="33.39 36.52 33.39 20.73 34.99 17.53 34.99 33.32 33.39 36.52"/></g><g id="Bloque1-83" data-name="Bloque1"><rect class="cls-1" x="34.33" y="20.73" width="15.79" height="15.79" transform="translate(70.84 -13.6) rotate(90)"/><polygon class="cls-2" points="34.33 20.73 35.92 17.53 51.72 17.53 50.12 20.73 34.33 20.73"/><polygon class="cls-3" points="50.12 36.52 50.12 20.73 51.72 17.53 51.72 33.32 50.12 36.52"/></g><g id="Bloque1-84" data-name="Bloque1"><rect class="cls-1" x="51.05" y="20.73" width="15.79" height="15.79" transform="translate(87.57 -30.32) rotate(90)"/><polygon class="cls-2" points="51.05 20.73 52.65 17.53 68.44 17.53 66.84 20.73 51.05 20.73"/><polygon class="cls-3" points="66.84 36.52 66.84 20.73 68.44 17.53 68.44 33.32 66.84 36.52"/></g><g id="Bloque1-85" data-name="Bloque1"><rect class="cls-1" x="67.78" y="20.73" width="15.79" height="15.79" transform="translate(104.29 -47.05) rotate(90)"/><polygon class="cls-2" points="67.78 20.73 69.38 17.53 85.17 17.53 83.57 20.73 67.78 20.73"/><polygon class="cls-3" points="83.57 36.52 83.57 20.73 85.17 17.53 85.17 33.32 83.57 36.52"/></g><g id="Bloque1-86" data-name="Bloque1"><rect class="cls-1" x="84.5" y="20.73" width="15.79" height="15.79" transform="translate(121.02 -63.77) rotate(90)"/><polygon class="cls-2" points="84.5 20.73 86.1 17.53 101.89 17.53 100.29 20.73 84.5 20.73"/><polygon class="cls-3" points="100.29 36.52 100.29 20.73 101.89 17.53 101.89 33.32 100.29 36.52"/></g><g id="Bloque1-87" data-name="Bloque1"><rect class="cls-1" x="101.23" y="20.73" width="15.79" height="15.79" transform="translate(137.74 -80.5) rotate(90)"/><polygon class="cls-2" points="101.23 20.73 102.83 17.53 118.62 17.53 117.02 20.73 101.23 20.73"/><polygon class="cls-3" points="117.02 36.52 117.02 20.73 118.62 17.53 118.62 33.32 117.02 36.52"/></g><g id="Bloque1-88" data-name="Bloque1"><rect class="cls-1" x="117.95" y="20.73" width="15.79" height="15.79" transform="translate(154.47 -97.22) rotate(90)"/><polygon class="cls-2" points="117.95 20.73 119.55 17.53 135.34 17.53 133.74 20.73 117.95 20.73"/><polygon class="cls-3" points="133.74 36.52 133.74 20.73 135.34 17.53 135.34 33.32 133.74 36.52"/></g><g id="Bloque1-89" data-name="Bloque1"><rect class="cls-1" x="134.68" y="20.73" width="15.79" height="15.79" transform="translate(171.2 -113.95) rotate(90)"/><polygon class="cls-2" points="134.68 20.73 136.28 17.53 152.07 17.53 150.47 20.73 134.68 20.73"/><polygon class="cls-3" points="150.47 36.52 150.47 20.73 152.07 17.53 152.07 33.32 150.47 36.52"/></g><g id="Bloque1-90" data-name="Bloque1"><rect class="cls-1" x="151.4" y="20.73" width="15.79" height="15.79" transform="translate(187.92 -130.67) rotate(90)"/><polygon class="cls-2" points="151.4 20.73 153 17.53 168.79 17.53 167.19 20.73 151.4 20.73"/><polygon class="cls-3" points="167.19 36.52 167.19 20.73 168.79 17.53 168.79 33.32 167.19 36.52"/></g><g id="Bloque1-91" data-name="Bloque1"><rect class="cls-1" x="0.88" y="3.2" width="15.79" height="15.79" transform="translate(19.87 2.32) rotate(90)"/><polygon class="cls-2" points="0.88 3.2 2.48 0 18.27 0 16.67 3.2 0.88 3.2"/><polygon class="cls-3" points="16.67 18.99 16.67 3.2 18.27 0 18.27 15.79 16.67 18.99"/></g><g id="Bloque1-92" data-name="Bloque1"><rect class="cls-1" x="17.6" y="3.2" width="15.79" height="15.79" transform="translate(36.59 -14.4) rotate(90)"/><polygon class="cls-2" points="17.6 3.2 19.2 0 34.99 0 33.39 3.2 17.6 3.2"/><polygon class="cls-3" points="33.39 18.99 33.39 3.2 34.99 0 34.99 15.79 33.39 18.99"/></g><g id="Bloque1-93" data-name="Bloque1"><rect class="cls-1" x="34.33" y="3.2" width="15.79" height="15.79" transform="translate(53.32 -31.13) rotate(90)"/><polygon class="cls-2" points="34.33 3.2 35.92 0 51.72 0 50.12 3.2 34.33 3.2"/><polygon class="cls-3" points="50.12 18.99 50.12 3.2 51.72 0 51.72 15.79 50.12 18.99"/></g><g id="Bloque1-94" data-name="Bloque1"><rect class="cls-1" x="51.05" y="3.2" width="15.79" height="15.79" transform="translate(70.04 -47.85) rotate(90)"/><polygon class="cls-2" points="51.05 3.2 52.65 0 68.44 0 66.84 3.2 51.05 3.2"/><polygon class="cls-3" points="66.84 18.99 66.84 3.2 68.44 0 68.44 15.79 66.84 18.99"/></g><g id="Bloque1-95" data-name="Bloque1"><rect class="cls-1" x="67.78" y="3.2" width="15.79" height="15.79" transform="translate(86.77 -64.58) rotate(90)"/><polygon class="cls-2" points="67.78 3.2 69.38 0 85.17 0 83.57 3.2 67.78 3.2"/><polygon class="cls-3" points="83.57 18.99 83.57 3.2 85.17 0 85.17 15.79 83.57 18.99"/></g><g id="Bloque1-96" data-name="Bloque1"><rect class="cls-1" x="84.5" y="3.2" width="15.79" height="15.79" transform="translate(103.49 -81.3) rotate(90)"/><polygon class="cls-2" points="84.5 3.2 86.1 0 101.89 0 100.29 3.2 84.5 3.2"/><polygon class="cls-3" points="100.29 18.99 100.29 3.2 101.89 0 101.89 15.79 100.29 18.99"/></g><g id="Bloque1-97" data-name="Bloque1"><rect class="cls-1" x="101.23" y="3.2" width="15.79" height="15.79" transform="translate(120.22 -98.03) rotate(90)"/><polygon class="cls-2" points="101.23 3.2 102.83 0 118.62 0 117.02 3.2 101.23 3.2"/><polygon class="cls-3" points="117.02 18.99 117.02 3.2 118.62 0 118.62 15.79 117.02 18.99"/></g><g id="Bloque1-98" data-name="Bloque1"><rect class="cls-1" x="117.95" y="3.2" width="15.79" height="15.79" transform="translate(136.94 -114.75) rotate(90)"/><polygon class="cls-2" points="117.95 3.2 119.55 0 135.34 0 133.74 3.2 117.95 3.2"/><polygon class="cls-3" points="133.74 18.99 133.74 3.2 135.34 0 135.34 15.79 133.74 18.99"/></g><g id="Bloque1-99" data-name="Bloque1"><rect class="cls-1" x="134.68" y="3.2" width="15.79" height="15.79" transform="translate(153.67 -131.48) rotate(90)"/><polygon class="cls-2" points="134.68 3.2 136.28 0 152.07 0 150.47 3.2 134.68 3.2"/><polygon class="cls-3" points="150.47 18.99 150.47 3.2 152.07 0 152.07 15.79 150.47 18.99"/></g><g id="Bloque1-100" data-name="Bloque1"><rect class="cls-1" x="151.4" y="3.2" width="15.79" height="15.79" transform="translate(170.39 -148.2) rotate(90)"/><polygon class="cls-2" points="151.4 3.2 153 0 168.79 0 167.19 3.2 151.4 3.2"/><polygon class="cls-3" points="167.19 18.99 167.19 3.2 168.79 0 168.79 15.79 167.19 18.99"/></g><g id="Bloque1-101" data-name="Bloque1"><rect class="cls-1" x="0.89" y="223.25" width="15.6" height="15.64" transform="translate(239.77 222.38) rotate(90)"/><polygon class="cls-2" points="0.88 223.27 2.46 220.11 18.1 220.11 16.52 223.27 0.88 223.27"/><polygon class="cls-3" points="16.52 238.87 16.52 223.27 18.1 220.11 18.1 235.71 16.52 238.87"/></g><g id="Bloque1-102" data-name="Bloque1"><rect class="cls-1" x="17.46" y="223.25" width="15.6" height="15.64" transform="translate(256.33 205.81) rotate(90)"/><polygon class="cls-2" points="17.44 223.27 19.02 220.11 34.67 220.11 33.08 223.27 17.44 223.27"/><polygon class="cls-3" points="33.08 238.87 33.08 223.27 34.67 220.11 34.67 235.71 33.08 238.87"/></g><g id="Bloque1-103" data-name="Bloque1"><rect class="cls-1" x="34.03" y="223.25" width="15.6" height="15.64" transform="translate(272.9 189.24) rotate(90)"/><polygon class="cls-2" points="34.01 223.27 35.59 220.11 51.23 220.11 49.65 223.27 34.01 223.27"/><polygon class="cls-3" points="49.65 238.87 49.65 223.27 51.23 220.11 51.23 235.71 49.65 238.87"/></g><g id="Bloque1-104" data-name="Bloque1"><rect class="cls-1" x="50.59" y="223.25" width="15.6" height="15.64" transform="translate(289.46 172.68) rotate(90)"/><polygon class="cls-2" points="50.57 223.27 52.16 220.11 67.8 220.11 66.21 223.27 50.57 223.27"/><polygon class="cls-3" points="66.21 238.87 66.21 223.27 67.8 220.11 67.8 235.71 66.21 238.87"/></g><g id="Bloque1-105" data-name="Bloque1"><rect class="cls-1" x="67.16" y="223.25" width="15.6" height="15.64" transform="translate(306.03 156.11) rotate(90)"/><polygon class="cls-2" points="67.14 223.27 68.72 220.11 84.36 220.11 82.78 223.27 67.14 223.27"/><polygon class="cls-3" points="82.78 238.87 82.78 223.27 84.36 220.11 84.36 235.71 82.78 238.87"/></g><g id="Bloque1-106" data-name="Bloque1"><rect class="cls-1" x="83.72" y="223.25" width="15.6" height="15.64" transform="translate(322.6 139.55) rotate(90)"/><polygon class="cls-2" points="83.7 223.27 85.29 220.11 100.93 220.11 99.34 223.27 83.7 223.27"/><polygon class="cls-3" points="99.34 238.87 99.34 223.27 100.93 220.11 100.93 235.71 99.34 238.87"/></g><g id="Bloque1-107" data-name="Bloque1"><rect class="cls-1" x="100.29" y="223.25" width="15.6" height="15.64" transform="translate(339.16 122.98) rotate(90)"/><polygon class="cls-2" points="100.27 223.27 101.86 220.11 117.5 220.11 115.91 223.27 100.27 223.27"/><polygon class="cls-3" points="115.91 238.87 115.91 223.27 117.5 220.11 117.5 235.71 115.91 238.87"/></g><g id="Bloque1-108" data-name="Bloque1"><rect class="cls-1" x="116.86" y="223.25" width="15.6" height="15.64" transform="translate(355.73 106.41) rotate(90)"/><polygon class="cls-2" points="116.84 223.27 118.42 220.11 134.06 220.11 132.48 223.27 116.84 223.27"/><polygon class="cls-3" points="132.48 238.87 132.48 223.27 134.06 220.11 134.06 235.71 132.48 238.87"/></g><g id="Bloque1-109" data-name="Bloque1"><rect class="cls-1" x="133.42" y="223.25" width="15.6" height="15.64" transform="translate(372.29 89.85) rotate(90)"/><polygon class="cls-2" points="133.4 223.27 134.99 220.11 150.63 220.11 149.04 223.27 133.4 223.27"/><polygon class="cls-3" points="149.04 238.87 149.04 223.27 150.63 220.11 150.63 235.71 149.04 238.87"/></g><g id="Bloque1-110" data-name="Bloque1"><rect class="cls-1" x="149.99" y="223.25" width="15.6" height="15.64" transform="translate(388.86 73.28) rotate(90)"/><polygon class="cls-2" points="149.97 223.27 151.55 220.11 167.19 220.11 165.61 223.27 149.97 223.27"/><polygon class="cls-3" points="165.61 238.87 165.61 223.27 167.19 220.11 167.19 235.71 165.61 238.87"/></g><g id="Bloque1-111" data-name="Bloque1"><rect class="cls-1" y="284.21" width="15.79" height="15.79" transform="translate(300 284.21) rotate(90)"/><polygon class="cls-2" points="0 284.21 1.6 281.01 17.39 281.01 15.79 284.21 0 284.21"/><polygon class="cls-3" points="15.79 300 15.79 284.21 17.39 281.01 17.39 296.8 15.79 300"/></g><g id="Bloque1-112" data-name="Bloque1"><rect class="cls-1" x="149.09" y="284.21" width="15.79" height="15.79" transform="translate(449.09 135.12) rotate(90)"/><polygon class="cls-2" points="149.09 284.21 150.69 281.01 166.48 281.01 164.88 284.21 149.09 284.21"/><polygon class="cls-3" points="164.88 300 164.88 284.21 166.48 281.01 166.48 296.8 164.88 300"/></g><g id="Bloque1-113" data-name="Bloque1"><rect class="cls-1" x="113.96" y="284.21" width="15.79" height="15.79" transform="translate(413.96 170.25) rotate(90)"/><polygon class="cls-2" points="113.96 284.21 115.56 281.01 131.35 281.01 129.75 284.21 113.96 284.21"/><polygon class="cls-3" points="129.75 300 129.75 284.21 131.35 281.01 131.35 296.8 129.75 300"/></g><g id="Bloque1-114" data-name="Bloque1"><rect class="cls-1" x="113.96" y="327.26" width="15.79" height="15.79" transform="translate(457.01 213.3) rotate(90)"/><polygon class="cls-2" points="113.96 327.26 115.56 324.06 131.35 324.06 129.75 327.26 113.96 327.26"/><polygon class="cls-3" points="129.75 343.05 129.75 327.26 131.35 324.06 131.35 339.85 129.75 343.05"/></g><g id="Bloque1-115" data-name="Bloque1"><rect class="cls-1" x="77.65" y="284.21" width="15.79" height="15.79" transform="translate(377.65 206.56) rotate(90)"/><polygon class="cls-2" points="77.65 284.21 79.25 281.01 95.04 281.01 93.44 284.21 77.65 284.21"/><polygon class="cls-3" points="93.44 300 93.44 284.21 95.04 281.01 95.04 296.8 93.44 300"/></g><g id="Bloque1-116" data-name="Bloque1"><rect class="cls-1" x="38.98" y="284.21" width="15.79" height="15.79" transform="translate(338.98 245.22) rotate(90)"/><polygon class="cls-2" points="38.98 284.21 40.59 281.01 56.38 281.01 54.78 284.21 38.98 284.21"/><polygon class="cls-3" points="54.78 300 54.78 284.21 56.38 281.01 56.38 296.8 54.78 300"/></g><g id="Bloque1-117" data-name="Bloque1"><rect class="cls-1" y="327.26" width="15.79" height="15.79" transform="translate(343.05 327.26) rotate(90)"/><polygon class="cls-2" points="0 327.26 1.6 324.06 17.39 324.06 15.79 327.26 0 327.26"/><polygon class="cls-3" points="15.79 343.05 15.79 327.26 17.39 324.06 17.39 339.85 15.79 343.05"/></g><g id="Bloque1-118" data-name="Bloque1"><rect class="cls-1" x="77.65" y="327.26" width="15.79" height="15.79" transform="translate(420.7 249.61) rotate(90)"/><polygon class="cls-2" points="77.65 327.26 79.25 324.06 95.04 324.06 93.44 327.26 77.65 327.26"/><polygon class="cls-3" points="93.44 343.05 93.44 327.26 95.04 324.06 95.04 339.85 93.44 343.05"/></g><g id="Bloque1-119" data-name="Bloque1"><rect class="cls-1" x="38.98" y="327.26" width="15.79" height="15.79" transform="translate(382.04 288.28) rotate(90)"/><polygon class="cls-2" points="38.98 327.26 40.59 324.06 56.38 324.06 54.78 327.26 38.98 327.26"/><polygon class="cls-3" points="54.78 343.05 54.78 327.26 56.38 324.06 56.38 339.85 54.78 343.05"/></g></g></g></svg>