<svg xmlns="http://www.w3.org/2000/svg" viewBox="0 0 245.94 302.28"><defs><style>.cls-1{fill:none;stroke:#dfd9d0;stroke-miterlimit:10;stroke-width:2.28px;}.cls-2{fill:#453f31;}</style></defs><title>signo de interrogacion</title><g id="Capa_2" data-name="Capa 2"><g id="Layer_2" data-name="Layer 2"><rect class="cls-1" x="1.14" y="1.14" width="243.65" height="300" rx="13"/><path class="cls-2" d="M112.58,149.42a6.42,6.42,0,0,1,6.54-6.54,31.84,31.84,0,0,0,12.93-3.19,22.37,22.37,0,0,0,9.08-8.18,23.25,23.25,0,0,0,3.36-12.68,23.75,23.75,0,0,0-3-12.11,21.85,21.85,0,0,0-8.18-8.18,22.78,22.78,0,0,0-11.54-3,25,25,0,0,0-11.29,2.62,29.68,29.68,0,0,0-9,6.87,9.38,9.38,0,0,1-4.17,2.46,5.74,5.74,0,0,1-4.83-1,6.41,6.41,0,0,1-3-4.67,6.27,6.27,0,0,1,1.88-5,39.7,39.7,0,0,1,30.43-14.23,36.54,36.54,0,0,1,18.16,4.58A35.07,35.07,0,0,1,153,99.93a35.68,35.68,0,0,1,4.91,18.9,33.37,33.37,0,0,1-9.65,24,35.54,35.54,0,0,1-10.64,7.44,39.9,39.9,0,0,1-13.09,3.44c-.32,0-.32,0,0-.08a2.61,2.61,0,0,0,1-.41V166.6a6.78,6.78,0,0,1-1.8,4.75,6,6,0,0,1-4.59,2,6.12,6.12,0,0,1-4.74-2,6.78,6.78,0,0,1-1.8-4.75Zm6.22,54a6.59,6.59,0,0,1-5.24-2,8,8,0,0,1-1.8-5.48v-3.27a7.69,7.69,0,0,1,1.8-5.4,6.75,6.75,0,0,1,5.24-2h1.47a6.77,6.77,0,0,1,5.24,2,7.74,7.74,0,0,1,1.8,5.4v3.27a8,8,0,0,1-1.8,5.48,6.61,6.61,0,0,1-5.24,2Z"/></g></g></svg>