<svg xmlns="http://www.w3.org/2000/svg" viewBox="0 0 169.72 162.37"><defs><style>.cls-1{fill:#1f8ebe;}</style></defs><title>estrella lineas</title><g id="Capa_2" data-name="Capa 2"><g id="Capa_1-2" data-name="Capa 1"><path class="cls-1" d="M38.46,162.37a9.8,9.8,0,0,1-9.64-11.45l7.65-44.63a3.76,3.76,0,0,0-1.09-3.35L3,71.34a9.8,9.8,0,0,1,5.43-16.7l44.8-6.51a3.82,3.82,0,0,0,2.86-2.07l20-40.6a9.79,9.79,0,0,1,17.56,0l20,40.6a3.79,3.79,0,0,0,2.85,2.07l44.8,6.51a9.79,9.79,0,0,1,5.43,16.7l-32.42,31.6a3.76,3.76,0,0,0-1.09,3.35l7.65,44.63a9.78,9.78,0,0,1-14.2,10.31L86.62,140.17a3.78,3.78,0,0,0-3.52,0L43,161.23A9.78,9.78,0,0,1,38.46,162.37ZM84.86,6a3.74,3.74,0,0,0-3.4,2.11l-20,40.6a9.83,9.83,0,0,1-7.37,5.36L9.25,60.58A3.79,3.79,0,0,0,7.15,67l32.42,31.6a9.8,9.8,0,0,1,2.82,8.67l-7.66,44.62a3.79,3.79,0,0,0,5.5,4l40.08-21.06a9.78,9.78,0,0,1,9.11,0l40.07,21.06a3.79,3.79,0,0,0,5.5-4l-7.66-44.62a9.8,9.8,0,0,1,2.82-8.67L162.57,67a3.79,3.79,0,0,0-2.1-6.46l-44.8-6.51a9.8,9.8,0,0,1-7.37-5.36l-20-40.6A3.72,3.72,0,0,0,84.86,6Z"/></g></g></svg>