<svg xmlns="http://www.w3.org/2000/svg" viewBox="0 0 163.08 150.72"><defs><style>.cls-1{fill:#1f8ebe;}</style></defs><title>hexagono lineas</title><g id="Capa_2" data-name="Capa 2"><g id="Capa_1-2" data-name="Capa 1"><path class="cls-1" d="M116.46,150.72H46.68a12.23,12.23,0,0,1-10.75-6.38L1.5,81.23a12.24,12.24,0,0,1,0-11.74L35.93,6.39A12.24,12.24,0,0,1,46.68,0h68.6A12.26,12.26,0,0,1,126,6.31l35.54,64a12.17,12.17,0,0,1,0,11.87l-34.35,62.2A12.25,12.25,0,0,1,116.46,150.72ZM46.68,6a6.26,6.26,0,0,0-5.49,3.26L6.77,72.37a6.25,6.25,0,0,0,0,6l34.42,63.1a6.26,6.26,0,0,0,5.49,3.26h69.78a6.24,6.24,0,0,0,5.48-3.23l34.35-62.2a6.18,6.18,0,0,0,0-6.05l-35.53-64A6.25,6.25,0,0,0,115.28,6Z"/></g></g></svg>