<svg xmlns="http://www.w3.org/2000/svg" viewBox="0 0 175.59 162.37"><defs><style>.cls-1{fill:#1f8ebe;}</style></defs><title>pentagono lineas</title><g id="Capa_2" data-name="Capa 2"><g id="Capa_1-2" data-name="Capa 1"><path class="cls-1" d="M134,162.37H41.33a12.25,12.25,0,0,1-11.58-8.25L.66,70A12.35,12.35,0,0,1,5.1,56L80,2.3a12.26,12.26,0,0,1,14.21-.06L170.41,56a12.31,12.31,0,0,1,4.5,14l-29.33,84.09A12.26,12.26,0,0,1,134,162.37ZM87.11,6a6.26,6.26,0,0,0-3.65,1.17L8.6,60.91A6.3,6.3,0,0,0,6.33,68l29.09,84.13a6.25,6.25,0,0,0,5.91,4.21H134a6.26,6.26,0,0,0,5.91-4.19l29.33-84.09a6.3,6.3,0,0,0-2.3-7.17L90.71,7.14A6.25,6.25,0,0,0,87.11,6Z"/></g></g></svg>