<svg xmlns="http://www.w3.org/2000/svg" viewBox="0 0 1200 342.94"><defs><style>.cls-1{fill:none;}.cls-2{fill:#dfd9cf;}.cls-3{fill:#a9a399;}</style></defs><title>Balanza_Equilibrada</title><g id="Layer_2" data-name="Layer 2"><g id="Layer_1-2" data-name="Layer 1"><rect class="cls-1" width="1200" height="342.86"/><g id="e93370b6-c0b9-4f8f-a9aa-8714e12e8f02"><g id="a969c973-04c2-491d-93a8-db04704b7234"><rect class="cls-2" x="991.11" y="121.18" width="15.56" height="40.64"/><path class="cls-3" d="M1154,121.18H844.89a46,46,0,0,1-46-46V70.07H1200v5.11A46,46,0,0,1,1154,121.18Z"/><rect class="cls-2" x="192.22" y="121.18" width="15.56" height="40.64"/><path class="cls-3" d="M355.11,121.18H46a46,46,0,0,1-46-46V70.07H401.11v5.11A46,46,0,0,1,355.11,121.18Z"/><rect class="cls-2" x="188.33" y="167.38" width="822.22" height="18.89"/><path class="cls-2" d="M654.63,245.5h0c-18.12-54-94.48-54-112.59,0h0c-67.15,0-104.82,80.76-104.82,80.76h56.85S516.8,289,598.33,289s104.26,37.29,104.26,37.29h58S721.78,245.5,654.63,245.5Z"/><rect class="cls-3" x="419.44" y="315.16" width="110" height="27.78" rx="12"/><rect class="cls-3" x="668.33" y="315.16" width="110" height="27.78" rx="12"/><path class="cls-2" d="M580.58,137.07l-25.75,44.6a21.14,21.14,0,0,0,18.31,31.72h51.5A21.14,21.14,0,0,0,643,181.65l-25.8-44.58a21.13,21.13,0,0,0-36.62,0Z"/><circle class="cls-3" cx="598.89" cy="175.71" r="19.44"/><path class="cls-3" d="M997.72,151.82h2.33a10.5,10.5,0,0,1,10.5,10.5v5.06H987.22v-5.06A10.5,10.5,0,0,1,997.72,151.82Z"/><path class="cls-3" d="M198.83,151.82h2.33a10.5,10.5,0,0,1,10.5,10.5v5.06H188.33v-5.06A10.5,10.5,0,0,1,198.83,151.82Z"/></g></g></g></g></svg>