<svg xmlns="http://www.w3.org/2000/svg" viewBox="0 0 125.11 120.02"><defs><style>.cls-1,.cls-10,.cls-6{fill:none;}.cls-2,.cls-3,.cls-9{fill:#ffb129;}.cls-10,.cls-2,.cls-5,.cls-6,.cls-7,.cls-8,.cls-9{stroke:#000;stroke-linecap:round;stroke-miterlimit:10;}.cls-2,.cls-5,.cls-8{stroke-width:0.25px;}.cls-4,.cls-5{fill:#fef5e4;}.cls-6{stroke-width:0.75px;}.cls-7{fill:#fff;}.cls-10,.cls-7{stroke-width:0.5px;}.cls-8{fill:#fea49c;}</style></defs><title>Mistake feedback_tigre_5to0</title><g id="Layer_2" data-name="Layer 2"><g id="Layer_1-2" data-name="Layer 1"><rect class="cls-1" width="125.11" height="120"/><path class="cls-2" d="M83.47,73.24C86,71,93.3,69.75,98,78.62s9.21,29.06,7.56,31.35-6.88.21-9.81-3S76.79,79,83.47,73.24Z"/><path class="cls-3" d="M51.87,120h55.75c-1.68-4.44-10.05-25-11.44-28.65C86.31,65.51,69.84,65.6,60.89,69.51,50.55,74,49.44,85.94,50.9,92.35,52.24,98.25,51.93,116.83,51.87,120Z"/><path d="M51.75,120H52c.09-5.31.28-22.13-1-27.7-1.52-6.71-.14-18.3,9.92-22.7a22.75,22.75,0,0,1,9-1.9,21,21,0,0,1,8.18,1.66c7.53,3.16,13.57,10.57,17.94,22,.63,1.65,2.73,6.75,5,12.15,2.61,6.36,5.54,14,6.47,16.45h.27c-.9-2.4-3.87-10.12-6.51-16.54C99,98.08,96.93,93,96.3,91.33c-4.4-11.53-10.48-19-18.08-22.18a22.33,22.33,0,0,0-17.38.25c-10.2,4.45-11.6,16.18-10.06,23C52,97.92,51.84,114.73,51.75,120Z"/><path class="cls-4" d="M60.5,120h47.15c-1.45-4-8.15-21-9.33-24.25-9.31-26-20.4-29.23-28.76-27.45C50.79,71.89,58.4,98.14,59,103.49,59.52,108.28,60.33,117.83,60.5,120Z"/><path d="M58.87,103.5c.54,4.86,1.34,14.34,1.51,16.52h.25c-.17-2.18-1-11.68-1.52-16.54-.07-.67-.25-1.65-.48-2.89-1.6-8.69-5.36-29,11-32.15C81.18,66,90.81,75.18,98.2,95.81c.58,1.61,2.44,6.29,4.42,11.24,2,5.12,4.14,10.88,4.9,13h.27c-.74-2-2.87-7.87-4.94-13.06-2-4.95-3.84-9.63-4.42-11.24C91,75,81.28,65.7,69.54,68.2,53,71.34,56.77,91.87,58.38,100.63,58.61,101.87,58.79,102.84,58.87,103.5Z"/><path d="M52,109c.67-.83,3.75-1.71,8.3-.54s8.41,5,7.4,4.69-8.44-.9-9.88-1-5.55,1.54-5.95,1.54S51.61,109.42,52,109Z"/><path d="M102.59,106.4c-.35-.68-3.15,2.12-4.32,6-.32,1,2.2-1.85,3.06-2.21s2.93.54,3,.31A29.94,29.94,0,0,0,102.59,106.4Z"/><path class="cls-3" d="M53.2,120c-3-2.93-14.72-14.59-14.49-15.79.6-3.18,10.82-8.57,14.8-9l1.8-14c-3,.4-26.15,12-28.33,23,.5,6.49,10.67,13.51,13.14,15.79Z"/><path d="M38.83,104.25c.58-3.07,10.74-8.47,14.69-8.86l0-.25c-4.12.41-14.31,5.83-14.91,9.07-.16.82,4.12,5.87,13.88,15.28L53,120h.36l-.74-.71C43.35,110.35,38.7,105,38.83,104.25Z"/><path d="M39.93,120h.37c-.47-.45-1.26-1.08-2.26-1.86-3.94-3.09-10.52-8.75-10.94-13.92,1.17-5.8,8.16-11.54,13.82-15.34,6.44-4.33,13-7.33,14.41-7.52l0-.24c-1.63.21-8.25,3.34-14.52,7.55C35.07,92.52,28,98.32,26.85,104.2v0c.42,5.29,7.06,11,11,14.11C38.73,119,39.45,119.59,39.93,120Z"/><path d="M40.88,88.69c.13,1.26.6,5.39,2.2,6.87.43.54-3.36-1.36-4.56-4.9C38.36,90,40.88,88.69,40.88,88.69Z"/><path d="M31.81,96.15c.45,1.19,1.92,5.08,3.84,6.12.54.42-3.6-.49-5.63-3.63C29.69,98,31.81,96.15,31.81,96.15Z"/><path d="M28.32,108.42c1.25-.22,5.35-.93,6.73-2.62.51-.46-1.16,3.44-4.63,4.85C29.77,110.85,28.32,108.42,28.32,108.42Z"/><path d="M37.25,117.69c1-.4,4.35-1.74,5.12-3.34.33-.46-.45,3-3.07,4.77C38.79,119.41,37.25,117.69,37.25,117.69Z"/><path d="M42.72,100.13c-.8-.48-3.46-2.08-4.09-3.74-.27-.49.17,3,2.27,4.94C41.3,101.65,42.72,100.13,42.72,100.13Z"/><path d="M41.05,107.54c-.39.85-1.66,3.68-3.23,4.51-.45.32,2.91-.53,4.63-2.84C42.72,108.76,41.05,107.54,41.05,107.54Z"/><path d="M49.52,116.32a6.2,6.2,0,0,1-1.4,3.11c-.38.27,1.16.27,2.58-1.69C50.93,117.37,49.52,116.32,49.52,116.32Z"/><path d="M52,95.43c-.61-.72-2.63-3.07-2.71-4.85-.1-.54-.77,2.87.6,5.41C50.19,96.42,52,95.43,52,95.43Z"/><path class="cls-2" d="M86.58,14.81c-.93-4.31-3.3-8.8-10-10.07a9.33,9.33,0,0,0-11.23,7c-.89,3.67-.19,13.57,8.13,17.61S84.32,27.52,85.61,25A15.85,15.85,0,0,0,86.58,14.81Z"/><path class="cls-5" d="M76.62,21.35c-.63-2.2,2.34-8,5.13-9s3.75.34,4.83,2.44.46,8.12-.66,10.27S78.66,28.51,76.62,21.35Z"/><path class="cls-2" d="M27,32.05c-1.15-5.38-4.33-10.2-12.51-11.78s-12,9-13.11,13.59-.17,16.7,16.49,18.06"/><path class="cls-5" d="M4,33.07c3.33-4.43,10.33-3.61,14.56-.63s7.65,4.43,5.36,12.06S14.76,51.64,10.11,49-.79,39.45,4,33.07Z"/><path class="cls-2" d="M41,11.19c11.45-5.27,22-1.43,32.8,4.49S94.26,32.2,96.12,35.61s5.46,12.48,1.46,24.12c-3.06,8.88-13.5,18.06-38.35,22.6-16.16,2.94-36.7-.72-40.41-19.91C13.49,34.94,29.31,16.58,41,11.19Z"/><path class="cls-6" d="M67.66,21.62c0-2,.17-4.63,3.76-5.17,2.1-.32,5.08,1.84,5.81,3.17"/><path class="cls-5" d="M46.94,41.06A66.12,66.12,0,0,1,60.5,41a4.21,4.21,0,0,1,1.16,2.47c1.32,6,.17,10.72-9.55,12.1s-18.88,1.21-20.24-5.32c-1-4.76,1-9.14,5.85-11.73C39.54,37.57,44.31,41.46,46.94,41.06Z"/><path class="cls-5" d="M76.59,24.37C81.82,22.9,89,27.46,92,36c2.11,6,1.94,12.9-4.18,15.78-6.69,3.16-14.74,1.3-17.93-7.69C66.61,34.82,69.45,26.37,76.59,24.37Z"/><path class="cls-7" d="M49.59,41c5.43.17,8.2.39,8.65,3.85.48,3.7-.58,4.89-2.93,5.79a22.63,22.63,0,0,1-14.54-.39c-3-1.16-1.21-5.71.32-8C42.75,39.79,47.06,40.9,49.59,41Z"/><path class="cls-7" d="M77.1,30.23c3.78-.94,7.17.37,9.11,4.83s1.45,8.79.15,11-4.76,5.15-9.25,2.3S72.44,41.84,72.57,38,74.57,30.86,77.1,30.23Z"/><ellipse cx="54.96" cy="46.31" rx="3.17" ry="3.83" transform="translate(-3.85 5) rotate(-5.03)"/><ellipse cx="81.78" cy="40.71" rx="3.28" ry="4.09" transform="translate(-6.45 17.02) rotate(-11.43)"/><path d="M63.57,28.83c.89-.13,3.93-4,3.69-5s-10.58.79-10.52,2.31S61.81,29.1,63.57,28.83Z"/><path d="M54.33,13.34c.91-.26,3.46-3.85,3.43-4.18s-5.4-1-8.36-.66-6.15,1.46-6.6,2S51.47,14.15,54.33,13.34Z"/><path d="M76.71,12.13c.47,0-.3-6.57-1.29-7.66a14.32,14.32,0,0,0-3.68.44A11.67,11.67,0,0,0,68.08,7.1C68,7.2,71.62,7,73.71,8.81S75.9,12.11,76.71,12.13Z"/><path d="M62.73,44.36c.31.06,3.08-4.65,2-6.74s-3-.41-3.06,2S61.74,44.17,62.73,44.36Z"/><path d="M30.94,28.14c-.17.26,3.15,4.61,5.49,4.4s1.5-2.6-.65-3.58S31.5,27.29,30.94,28.14Z"/><path d="M70.32,43.36c-.3.11-3.85-4-3.15-6.29s2.85-.92,3.36,1.38S71.27,43,70.32,43.36Z"/><path d="M29.55,42.2c.95,1.46,4.34,8,9.48,10.56,0,0-1.37,1-6.57-2.21S29,41.3,29.55,42.2Z"/><path d="M94.44,35.84c-.4,1.21-1.68,6.53-4.51,9.07,0,0,.95.6,3.74-2.45S94.69,35.09,94.44,35.84Z"/><path d="M16.68,31.46c.17.37,3.59-2.66,3.92-4.56s.59-3.82.3-4.3-4.81-2.29-5.79-2.31c-.49-.13,2.42,2.41,2.24,6.14S16.4,30.87,16.68,31.46Z"/><path class="cls-5" d="M26.49,76c-2.35-2.25,18.36-19.74,41.18-19.81S91.79,64.75,92.3,67.76s-16.12,12-26.39,13.82S37.22,86.33,26.49,76Z"/><path class="cls-8" d="M69,55.67c1.64,0,4.1-.41,4.51.5A2.12,2.12,0,0,1,71.62,59a17.17,17.17,0,0,1-4.17.11c-1.33-.06-3.26-.45-3.38-2.45C64,55.22,67.9,55.7,69,55.67Z"/><path class="cls-9" d="M35.7,37.76c5.34,4.79,9.74,4.63,12.69,4.68,4.63.07,12.81-1.73,12.81-1.73"/><path d="M96.64,61.89C94.49,63.61,86,64.47,84.11,64.32c-.32.28,6.66,2.58,10.57,1.07C95.19,65.23,96.85,61.72,96.64,61.89Z"/><path d="M18.8,62.48c4.37,3.71,13.71,6.27,15.57,6.56S25,71.48,21.52,70.21A16.69,16.69,0,0,1,18.8,62.48Z"/><path class="cls-10" d="M64.94,73c.66-1.64,2.3-4.6,3.63-4.9s2.11,3.65,2.05,4"/><path d="M97,86c-.4-.79-3.5,2.48-4.8,7-.35,1.21,2.45-2.16,3.4-2.59s3.25.64,3.3.37A35.52,35.52,0,0,0,97,86Z"/><path d="M92.26,75.41c-.39-.8-3.5,2.48-4.8,7-.35,1.22,2.45-2.16,3.4-2.58s3.25.63,3.3.37A34.51,34.51,0,0,0,92.26,75.41Z"/><path class="cls-2" d="M106.4,111c4.66-2,.24-12.44-2.3-17.84C102,88.57,96.94,81.1,97.93,80.29s2.79-4.05.71-10.87c-.77-2.53-5.38-7.55-15.56-3.61-7.56,2.93-6.66,11-4.58,14.57,4.23,7.24,8.48,4.36,8.85,5.51.82,2.54,2.93,8.15,4.1,11.38,2.14,5.87,4.69,10.22,7.23,12.5C100.65,111.53,102.79,112.33,106.4,111Z"/><path d="M89.21,91.52c1.42.22,6.11,1,8.16-.46.7-.33-2.37,3.51-6.59,3.82C90,94.87,89.21,91.52,89.21,91.52Z"/><path d="M100.15,110.86c.95-.46,4.08-2,4.56-3.45.24-.44.41,2.56-1.91,4.38C102.34,112.09,100.15,110.86,100.15,110.86Z"/><path class="cls-5" d="M80.84,66.19a14.6,14.6,0,0,0-4.78,7.87c-.61,3.51,2.44,6.59,2.33,6.14-.46-1.71-1.88-3.17-1.2-5.68.75-2.78,2.73-6.51,9.32-8.6,6-1.9,8,.08,11.81,2.76,0,0-1.49-5.16-6.32-5.63A16.3,16.3,0,0,0,80.84,66.19Z"/><path d="M105.89,97c-.85.66-3.66,2.81-5.68,2.7-.62.06,3.19,1.26,6.16-.1C106.89,99.28,105.89,97,105.89,97Z"/></g></g></svg>