<svg xmlns="http://www.w3.org/2000/svg" xmlns:xlink="http://www.w3.org/1999/xlink" viewBox="0 0 137.11 120.03"><defs><style>.cls-1,.cls-2,.cls-7{fill:none;}.cls-1,.cls-12,.cls-13,.cls-5,.cls-6,.cls-7,.cls-9{stroke:#000;stroke-miterlimit:10;}.cls-1,.cls-12,.cls-13,.cls-14,.cls-5,.cls-6,.cls-7,.cls-9{stroke-linecap:round;}.cls-1,.cls-5,.cls-6{stroke-width:0.25px;}.cls-3,.cls-5{fill:#ffb129;}.cls-4,.cls-6{fill:#fef5e4;}.cls-8{clip-path:url(#clip-path);}.cls-9{fill:#7e2d3a;}.cls-10,.cls-12{fill:#fea49c;}.cls-11,.cls-13{fill:#fff;}.cls-12,.cls-13{stroke-width:0.5px;}.cls-14{fill:#a0dbf0;stroke:#4a91cd;stroke-linejoin:round;}</style><clipPath id="clip-path"><path class="cls-1" d="M78.12,60.81c-3,.89-10,1.67-20.11,1s-16.92-2.4-20.4-4.17c-3.33-1.69-6.88-.74-8,1.61-1.48,3.19.63,9.88,6.7,12.86s15.43,6.15,24.41,4S73,72.06,75.65,68.34C78.67,64.15,78.76,60.62,78.12,60.81Z"/></clipPath></defs><title>Correct feedbacK_tigre_5to0</title><g id="Layer_2" data-name="Layer 2"><g id="Layer_1-2" data-name="Layer 1"><rect class="cls-2" width="137.11" height="120.03"/><path class="cls-3" d="M87.26,82.94c4.7-2.24,22.94-18,29.32-25.33a73.75,73.75,0,0,0,9.7-13.9c.14-.22,6.73-4.53,4.89-14.24a10.27,10.27,0,0,0-13.63-7.73c-11.77,5-2.59,15.9-3.5,17s-7.75,11.53-11.66,15.38S84.78,72,81.4,73.51s-3.65,6.33-2,8.56S85.18,83.94,87.26,82.94Z"/><path class="cls-1" d="M87.26,82.94c4.7-2.24,22.94-18,29.32-25.33a73.75,73.75,0,0,0,9.7-13.9c.14-.22,6.73-4.53,4.89-14.24a10.27,10.27,0,0,0-13.63-7.73c-11.77,5-2.59,15.9-3.5,17s-7.75,11.53-11.66,15.38S84.78,72,81.4,73.51s-3.65,6.33-2,8.56S85.18,83.94,87.26,82.94Z"/><path d="M120.45,52.75c-.64-1-3-4.8-5.22-5.69-.66-.36,4.14.57,6.8,3.27C122.46,50.85,120.45,52.75,120.45,52.75Z"/><path d="M111.83,62.54c-.5-1.1-2.31-5.16-4.41-6.35-.6-.44,4,1.13,6.29,4.17C114.07,60.94,111.83,62.54,111.83,62.54Z"/><path d="M99.71,73.46c-.4-1.14-1.86-5.34-3.85-6.7-.56-.49,3.92,1.46,5.92,4.68C102.09,72.05,99.71,73.46,99.71,73.46Z"/><path class="cls-3" d="M56,120h52.07c-1.57-4.94-8.79-20.57-10.91-26.13-9.7-25.42-30.56-31.36-40-29.83-15.72,2.56-9.68,12.94-6.18,30C51.85,98.52,55.76,116.68,56,120Z"/><path d="M50.82,94.1c1.22,6,4.83,22.76,5,25.93h.26c-.24-3.39-4.16-21.54-5.07-26-.61-3-1.28-5.7-1.94-8.33-1.85-7.49-3.32-13.41-.87-17.12,1.49-2.26,4.31-3.66,8.89-4.4S69.12,64.36,77,69c6.19,3.64,14.69,10.92,20.05,25,.86,2.25,2.49,6.09,4.22,10.17,2.53,5.93,5.73,13,6.68,15.92h.26c-.93-2.94-4.16-10-6.71-16-1.73-4.07-3.36-7.92-4.21-10.16C91.89,79.74,83.34,72.42,77.12,68.77c-7.93-4.66-15.54-5.54-20-4.82-4.65.76-7.53,2.19-9.06,4.51-2.51,3.8-1,9.77.84,17.32C49.53,88.4,50.21,91.12,50.82,94.1Z"/><path class="cls-4" d="M64.37,120H108c-1.33-4.2-3.46-9.62-5.34-14.86C93.48,79.64,74.82,57.72,60.92,59s2.45,36.92,2.87,54.26C63.83,115.1,64.35,117.87,64.37,120Z"/><path d="M63.66,113.23c0,.76.06,1.6.09,2.49.06,1.32.48,3,.49,4.31h.25c0-1.29-.43-3-.49-4.32,0-.89-.07-1.73-.09-2.48-.14-6-2.21-14.26-4.2-22.28-3-12.22-6.19-24.85-2.71-29.74a5.08,5.08,0,0,1,3.93-2.12c.38,0,.75-.05,1.13-.05,6.35,0,13.89,4.6,21.4,13.07,7.67,8.65,14.61,20.72,19,33.1,2.16,6,4.15,11.12,5.33,14.82h.26c-1.18-3.72-3.18-8.83-5.35-14.9C98.29,92.72,91.33,80.62,83.65,71.94c-8-9-16.1-13.7-22.74-13.1a5.36,5.36,0,0,0-4.11,2.23c-3.55,5-.39,17.67,2.67,29.94C61.46,99,63.52,107.28,63.66,113.23Z"/><path d="M52.07,99c.66-.82,3.68-1.68,8.15-.53s8.27,4.91,7.27,4.61-8.29-.88-9.7-.93-4.47,1.34-4.87,1.34S51.71,99.4,52.07,99Z"/><path d="M54.51,111.9c.65-.82,3.67-1.68,8.15-.53s6.14,4.27,5.15,4a45.4,45.4,0,0,0-6.47-.71c-1.42,0-5.58,1.76-6,1.76S54.15,112.35,54.51,111.9Z"/><path d="M101.25,101.54c-.35-.67-3.1,2.09-4.25,5.9-.31,1,2.17-1.82,3-2.17s2.88.53,2.93.31A28.64,28.64,0,0,0,101.25,101.54Z"/><path class="cls-3" d="M29.43,120H44.34c-3.78-2.93-10.76-9.55-10.25-12.66.6-3.64,13.74-11.24,17.74-11.69L50.49,80.31c-3,.45-26,14.54-28.19,27.06C21.78,111.15,25.79,116.45,29.43,120Z"/><path d="M36.17,89.41c6.11-4.91,12.45-8.55,14.21-9l0,.38a1.79,1.79,0,0,1,.24-.12l0-.42v-.14l-.13,0c-1.58.24-8.16,4-14.46,9-5.66,4.55-12.66,11.39-13.85,18.14-.62,4.51,5,10.57,7.08,12.67h.35c-1.94-1.9-7.8-8.1-7.18-12.63C23.59,100.73,30.55,93.94,36.17,89.41Z"/><path d="M51.43,95.73c-4.38.61-16.86,8-17.46,11.62-.52,3.18,6.48,9.79,10.17,12.68h.4c-3.58-2.76-10.84-9.5-10.32-12.63.57-3.49,13.16-11,17.25-11.44Z"/><path class="cls-5" d="M90.12,15.49c-.55-4.4-2.77-9.1-9.34-11a9.38,9.38,0,0,0-11.85,6c-1.21,3.59-1.38,13.55,6.58,18.34s11.18-.59,12.7-3A16.94,16.94,0,0,0,90.12,15.49Z"/><path class="cls-6" d="M79.33,21.15c-.44-2.26,3.06-7.82,5.92-8.53s3.73.67,4.63,2.87-.27,8.16-1.57,10.21S80.75,28.49,79.33,21.15Z"/><path class="cls-5" d="M28.76,27.49c-.67-5.49-3.18-11.78-11.48-12.9-8.75-1.18-15,8.71-15.82,12.88-.87,4.63-.13,16.26,16.42,19.1"/><path class="cls-6" d="M5.66,26.48c3.73-4.14,10.66-2.7,14.62.65s8,12.86,6.41,16.52c-2.06,4.65-12.47,3.1-16.89.08S.29,32.44,5.66,26.48Z"/><path class="cls-5" d="M44.6,7.85C56.52,3.58,66.73,8.36,77,15.23S95.61,31.87,97.19,35.44a31.84,31.84,0,0,1-.27,26C93.08,70,81.83,78.28,56.56,80.63c-16.43,1.52-36.65-4-38.68-23.48C15,29.19,32.41,12.21,44.6,7.85Z"/><path class="cls-7" d="M42.18,23.76c1.86-3.11,3.13-4.92,6.56-5.22,4.6-.4,8.34,3.43,8.34,3.43"/><path class="cls-7" d="M70.35,20.63c.16-2,.58-4.62,4.21-4.84,2.13-.14,4.92,2.29,5.53,3.69"/><path class="cls-6" d="M49.87,30.21c5.26-.54,12.05,3.32,14.48,12.07,2.51,9.08-1,15.09-9.58,15.88S36,57.1,36.8,47.2,41.27,31.11,49.87,30.21Z"/><path class="cls-6" d="M78.5,26.29c5.37-1,13,3.33,15.21,12.12,1.59,6.15-.87,11.67-7.24,14-7,2.57-13.31,0-15.09-6.53C68.78,36.39,71.19,27.66,78.5,26.29Z"/><path class="cls-6" d="M23.81,51.45c4.13-1.45,8.33-.2,18.62,3.82s20.17-.92,26.43-.92,14.2,2.57,17.66,7.15a26.39,26.39,0,0,1,4.36,7.72,37.23,37.23,0,0,1-16,9.27c-9.84,2.69-27.73,5.48-39.24.67S17.36,66.65,17.92,56.7A11,11,0,0,1,23.81,51.45Z"/><g class="cls-8"><path class="cls-9" d="M79.93,56.14C77,57,68.13,62.48,58,61.86s-17.14-2-20.4-4.17-6.72-1.69-8,1.61.63,9.88,6.7,12.86,14.9,5.36,23.89,3.2S74.93,69.56,77.37,65,80.57,56,79.93,56.14Z"/><path class="cls-10" d="M71.58,57.1c3.08,1.37,7.85,5.77,7.85,9.29S59.84,83.86,45.61,77.83,21.85,69.06,24,61.1,27,49.5,36.78,52,69.91,56.35,71.58,57.1Z"/><path class="cls-11" d="M27.77,55.46c.78,3.28,10.44,9.77,21.14,10.35s20.29.68,26.1-2.54,8.2-4.88,9.08-7.42-4.43-7.78-4.43-7.78S59.49,56.44,53,54.77s-20.84-7.4-23.45-9.19S26.93,51.94,27.77,55.46Z"/></g><path class="cls-1" d="M78.12,60.81c-3,.89-10,1.67-20.11,1s-16.92-2.4-20.4-4.17c-3.33-1.69-6.88-.74-8,1.61-1.48,3.19.63,9.88,6.7,12.86s15.43,6.15,24.41,4S73,72.06,75.65,68.34C78.67,64.15,78.76,60.62,78.12,60.81Z"/><path class="cls-12" d="M69.9,53c1.64-.11,4.1-.6,4.55.29a2.12,2.12,0,0,1-1.79,2.91,17.46,17.46,0,0,1-4.17.3c-1.35,0-3.3-.31-3.51-2.31C64.83,52.75,68.78,53.05,69.9,53Z"/><path class="cls-13" d="M48.36,33.45c3.86-.86,9.84,1.49,12.08,6.48s1,9.62-1.2,11.93a12.48,12.48,0,0,1-14.6,1.64c-6.12-3.51-5.25-9.35-3.88-13.27C42.25,36,44.5,34.31,48.36,33.45Z"/><path class="cls-13" d="M79.52,28.6c3.08-.83,7.69,1.09,9.37,6.08s.72,9.61-.9,11.92-5.62,5.11-10.19,1.61-4.41-7.53-3.91-11.63S76.43,29.43,79.52,28.6Z"/><ellipse cx="56.11" cy="43.85" rx="3.28" ry="4.43"/><ellipse cx="84.06" cy="40.29" rx="3.05" ry="4.43" transform="translate(-3.97 9.62) rotate(-6.4)"/><path d="M65.62,27.49c.9-.06,4.28-3.62,4.13-4.7S59.09,22.64,59,24.17,63.83,27.6,65.62,27.49Z"/><path d="M57.73,11.17c.94-.17,3.81-3.55,3.81-3.88s-5.31-1.51-8.3-1.4-6.29.92-6.8,1.46S54.8,11.73,57.73,11.17Z"/><path d="M80.23,11.93c.48.05.28-6.6-.61-7.77a14.55,14.55,0,0,0-3.72.11A11.75,11.75,0,0,0,72,6.14c-.14.09,3.55.2,5.48,2.21S79.42,11.85,80.23,11.93Z"/><path d="M63.41,43c.3.09,3.49-4.39,2.6-6.57s-2.94-.67-3.24,1.68S62.43,42.67,63.41,43Z"/><path d="M33,23.92c-.19.25,2.75,4.89,5.1,4.88s1.73-2.46-.33-3.63S33.66,23.12,33,23.92Z"/><path d="M71.09,42.62c-.31.08-3.49-4.39-2.6-6.57s2.94-.67,3.24,1.68S72.07,42.34,71.09,42.62Z"/><path d="M30.4,37.87c.82,1.54,3.63,8.38,8.55,11.4,0,0-1.45.89-6.37-2.8S29.9,36.91,30.4,37.87Z"/><path d="M95.89,37.22c-.51,1.17-2.26,6.38-5.32,8.68,0,0,.9.68,4-2.13S96.2,36.49,95.89,37.22Z"/><path d="M18.78,25.41c.14.38,3.3-.78,4-3.64s.82-4.37.57-4.88-4.51-2.11-5.49-2.22c-.47-.17,2.21,2.63,1.71,6.34S18.56,24.79,18.78,25.41Z"/><path d="M17.8,56.7c3.71,4.39,9.08,8.16,10.87,8.75s-6.26,1.17-9.45-.64A16.73,16.73,0,0,1,17.8,56.7Z"/><path d="M97.87,58.78c-2.13,1.9-7.7.93-8.17,1s3.17,2,6.47,2.81C96.59,62.77,98,58.64,97.87,58.78Z"/><path d="M36.23,89.18c.14,1.44.61,6.17,2.22,7.87.43.62-3.42-1.74-4.63-5.8C33.65,90.49,36.23,89.18,36.23,89.18Z"/><path d="M27.19,98.3c.45,1.35,1.93,5.81,3.86,7,.55.48-3.62-.57-5.67-4.16C25.06,100.45,27.19,98.3,27.19,98.3Z"/><path d="M26,116c1.12-.26,4.78-1.12,5.8-2.76.4-.45-.55,3.27-3.52,4.76C27.69,118.25,26,116,26,116Z"/><path d="M37.53,113.59c-.35,1-1.32,4.87-2.85,5.9-.57.51,2.64-1.18,4.34-4.07C39.27,114.9,37.53,113.59,37.53,113.59Z"/><path d="M38.13,102.68c-.81-.55-3.48-2.39-4.12-4.29-.26-.55.18,3.39,2.28,5.66C36.7,104.42,38.13,102.68,38.13,102.68Z"/><path d="M47.47,97.29c-.62-.81-2.65-3.51-2.73-5.54-.1-.63-.77,3.27.61,6.18C45.63,98.43,47.47,97.29,47.47,97.29Z"/><path class="cls-6" d="M114.09,38.57c.36.66-.87-6,1.07-11.23s8.59-5.64,7.7-6.14c-2.37-1.34-9,1.11-10.63,4.49C110.18,30,111.18,33.33,114.09,38.57Z"/><path class="cls-14" d="M121.9,77.61S119,86,127.59,88.47c0,0-10.5-4-13.26,1.87,0,0,.8-10.42-.89-11.22C113.44,79.12,120.47,79.3,121.9,77.61Z"/><path class="cls-14" d="M39.38,100.1s-6.63,5.09-6.79,7.09c0,0-6-8.79-8.64-9.25,0,0,6.79-1.24,7.56-3.86C31.51,94.08,32.44,98.55,39.38,100.1Z"/></g></g></svg>