<svg xmlns="http://www.w3.org/2000/svg" xmlns:xlink="http://www.w3.org/1999/xlink" viewBox="0 0 121.66 120.26"><defs><style>.cls-1,.cls-2{fill:none;}.cls-1,.cls-10,.cls-12,.cls-15,.cls-16,.cls-17,.cls-5,.cls-6,.cls-7,.cls-8,.cls-9{stroke:#000;stroke-miterlimit:10;}.cls-1,.cls-10,.cls-15,.cls-16,.cls-5,.cls-6,.cls-9{stroke-width:0.25px;}.cls-3,.cls-5{fill:#68605b;}.cls-4,.cls-6,.cls-7{fill:#ffe8c6;}.cls-17,.cls-7,.cls-8{stroke-width:0.5px;}.cls-8{fill:#2aeaf7;}.cls-18,.cls-9{fill:#b36c5e;}.cls-10{fill:#ffa996;}.cls-11{clip-path:url(#clip-path);}.cls-12{fill:#7e2d3a;}.cls-13{fill:#fea49c;}.cls-14,.cls-17{fill:#fff;}.cls-15{fill:url(#linear-gradient);}.cls-16{fill:#96a3b6;}.cls-19{fill:#a0dbf0;stroke:#4a91cd;stroke-linecap:round;stroke-linejoin:round;}</style><clipPath id="clip-path"><path class="cls-1" d="M84.24,62.21c-2.91,1.1-12,5.85-21.82,5.31C50.33,66.86,45.8,63.71,42.51,62s-7.17-.8-8.33,1.16c-1.57,2.67-.82,6.47,4.94,9.45s16.8,6.35,25.61,5.09,14-3.14,16.58-6.91S84.84,62,84.24,62.21Z"/></clipPath><linearGradient id="linear-gradient" x1="55.93" y1="22.84" x2="55.93" y2="62.9" gradientUnits="userSpaceOnUse"><stop offset="0.4" stop-color="#68605b"/><stop offset="1" stop-color="#fe5858"/></linearGradient></defs><title>Correct feedbacK_mandril_5to0</title><g id="Layer_2" data-name="Layer 2"><g id="Layer_1-2" data-name="Layer 1"><rect class="cls-2" width="121.66" height="120.03"/><path class="cls-3" d="M50.74,120H89.21c-.56-5.1-1.94-16.28-3.54-21.8C78.9,74.86,64.45,67.33,56,68.71,41.91,71,52.28,96.59,52.28,112.17A22.62,22.62,0,0,1,50.74,120Z"/><path d="M52.15,112.17A22.21,22.21,0,0,1,50.6,120h.27a22.39,22.39,0,0,0,1.53-7.86c0-4.65-.93-10.27-1.83-15.71-1.61-9.69-3.28-19.7.24-24.6a7.46,7.46,0,0,1,5.18-3c4.67-.75,10.42,1.28,15.39,5.45,4.35,3.66,10.35,10.78,14.17,24,1.77,6.09,3.2,18.73,3.53,21.76h.25c-.32-3-1.76-15.7-3.54-21.83C82,84.93,75.92,77.77,71.54,74.09c-5-4.21-10.85-6.28-15.59-5.5a7.79,7.79,0,0,0-5.34,3.12c-3.58,5-1.91,15.05-.29,24.79C51.22,101.93,52.15,107.54,52.15,112.17Z"/><path class="cls-4" d="M58.76,120H90.27a82.43,82.43,0,0,0-1-12.47c-2.08-9.71-10.57-29.94-12.48-31.37S60.44,70,61.55,83.32C62,88.51,63.8,98.45,58.76,120Z"/><path d="M61.6,85.08c.54,5.37,1.55,15.59-3,35h.25c4.53-19.37,3.51-29.59,3-35-.07-.64-.13-1.22-.17-1.75-.34-4,.72-6.73,3.13-8.06,4.09-2.27,10.72.18,11.88,1,1.89,1.42,10.29,21.89,12.43,31.3A56.06,56.06,0,0,1,90.19,117c.08,1.2-.1,2.36,0,3h.25c-.06-.69.12-1.85,0-3.07a55.14,55.14,0,0,0-1.08-9.43C87.11,97.9,78.82,77.58,76.84,76.09c-1.18-.88-8-3.38-12.15-1.06-2.51,1.39-3.6,4.18-3.26,8.3C61.47,83.86,61.53,84.45,61.6,85.08Z"/><path class="cls-3" d="M50.19,120h9.9a16.2,16.2,0,0,0-4.84-5.56C52.87,113,44.56,100.47,45,97.94s5.23-7.73,7.37-10.82L52.09,74.2c-2.38.32-14.66,15-16.41,23.74C34.89,103,49.27,118,50.06,119A3.72,3.72,0,0,1,50.19,120Z"/><path d="M49.48,118.16c-11.88-13-14-18.16-13.67-20.2C37.52,89.37,49.46,75.18,52,74.36l.05,2,.24-.14,0-2v-.14l-.14,0c-2.4.32-14.73,14.9-16.51,23.84-.48,3,4.14,9.91,13.73,20.41.36.38.59.64.67.74a4.25,4.25,0,0,1,.11,1h.25a3.22,3.22,0,0,0-.17-1.12C50.07,118.81,49.83,118.55,49.48,118.16Z"/><path d="M55.32,114.36c-2.49-1.49-10.6-14-10.16-16.4.33-1.73,2.76-4.77,4.85-7.48.31-.39.07-.49-.19-.15-2.14,2.71-4.57,5.79-4.9,7.58-.52,2.75,8,15.3,10.27,16.67A16.29,16.29,0,0,1,60,120h.28A16.16,16.16,0,0,0,55.32,114.36Z"/><path class="cls-5" d="M76.46,82.67c3.41-1.75,21.05-17,25.69-22.67a71,71,0,0,0,7.36-10.79c.08-.12,5.7,1,6.55-2.15,1.06-4-3.93-3.51-3.93-4.75,0-5.68-3.29-9.88-6.8-10.53-9.77-1.81-3.23,10.9-3.89,11.77s-6.78,10.74-9.62,13.74-17.17,16.85-19.63,18S69.53,80.24,70.77,82,74.94,83.44,76.46,82.67Z"/><path class="cls-6" d="M26.13,42.38c-.26-1.41-16,8.73-17.34,11.86,0,1.19,16,0,18.92,4.1C27.71,58.34,27,47,26.13,42.38Z"/><path class="cls-7" d="M27.67,59.48c-2.06-3.71-7.94,16.57-7.75,18.21s7.85-5.52,11.72-6.2S28.16,60.35,27.67,59.48Z"/><path class="cls-6" d="M44.53,76.76c-1.55-1.06-6.2,5.71-6.59,6.68s12.31-3.39,14.34-3.1S47,78.4,44.53,76.76Z"/><path class="cls-6" d="M74.79,31.68c-.28-1.41,14,5.34,16.41,7.74.48,1.09-10.69,2.68-11.85,7.64C79.35,47.06,75.73,36.32,74.79,31.68Z"/><path class="cls-6" d="M81.56,47.7c.51-4.21,12.69,9.79,13.13,11.39s-8.43.4-12.28,1.24S81.44,48.69,81.56,47.7Z"/><path class="cls-6" d="M80,70.45c1-1.56,7.9,3,8.63,3.71S76,75.66,74.2,76.7,78.4,72.89,80,70.45Z"/><path class="cls-6" d="M56,81.54c.29,2.35,1.48,6.53,2.84,7.1C59.71,89,60.34,85,61,85c.44,0,6.83,3.44,10.9,9.32,1.15,1.66,4.65-7.37,4.13-10s3.26,2.15,3.91,2.47.55-7.17-1.65-9.69S55.92,80.68,56,81.54Z"/><path class="cls-5" d="M23.83,9C28.47,8.23,33,13.34,33,13.34c1.37-4.33-2.67-9-2.49-9.21A35.83,35.83,0,0,1,49.7,11.06C50.46,9.87,49,5.38,47.77,4c4,.18,8.39,2,13.17,5.56s10.53,8.21,15.37,17.64,8.11,26,8,32.23-13.27,17-27.52,13.37S31.71,65,27.74,56.86,21,32.13,27.52,17.74C28.58,15.36,23.14,9.05,23.83,9Z"/><path class="cls-8" d="M28.33,58.17c-3.87,17.57-2.82,11.09,2.8,14S58.55,82.34,65,83.12s10-.68,12.5-4,10.25-18.53,8.72-23.9C83.35,45,80.54,36.85,79.88,36.39c-2.06-1.46-12.17-2.78-16.78.22C56.33,41,50.64,53.78,48,54.21,40.87,55.4,27.62,58.78,28.33,58.17Z"/><path class="cls-9" d="M27.93,54.28c-.64-2.47-2.16-6.59-5.14-6.85s-7.55,2.71-6.65,9.14,6,8.79,9.11,8.79S28.83,57.73,27.93,54.28Z"/><path class="cls-10" d="M27.54,55.31c-.29-1.89-2-4.53-4.12-4.46S19,54.25,20.13,58s5,6.59,6.32,5.18S27.78,56.86,27.54,55.31Z"/><path class="cls-9" d="M71.82,61.32c-8.28,1.4-10.37,2.71-20.83,0-9.94-2.58-13.12-8.77-20.43-5.86S22.46,65,24.2,68.55,31.66,75.08,39,77.21,49.21,81,57.77,82.92c7.46,1.65,10.66,3.75,15.89.68S84.05,69.75,85.48,66.84C87,63.75,92.07,57.25,90,54.54s-3.87-4.07-5.25-4.26C84.38,50.22,80.11,59.91,71.82,61.32Z"/><g class="cls-11"><path class="cls-12" d="M84.2,63.23c-2.94.57-11.75,4.7-21.53,3.49s-16.54-2.84-19.61-5-6.44-1.92-7.8.86.16,8.6,5.92,11.58,14.22,5.63,23,4.37,14.52-4,17.1-7.82S84.83,63.11,84.2,63.23Z"/><path class="cls-13" d="M76.05,63.5C79,64.89,83.4,69,83.24,72.06S63,87.81,49.48,81.64,27.25,70.54,29.65,63.78,33.18,54,42.52,56.71,74.47,62.74,76.05,63.5Z"/><path class="cls-14" d="M33.57,60.57c.8,2.86,11.87,9.89,22.28,10.55s18.1-.34,23.7-3.05,7.9-4.11,8.73-6.3-4.4-6.83-4.4-6.83-19.49,7-25.8,5.42S37.74,53.62,35.18,52,32.71,57.5,33.57,60.57Z"/></g><path class="cls-1" d="M84.24,62.21c-2.91,1.1-12,5.85-21.82,5.31C50.33,66.86,45.8,63.71,42.51,62s-7.17-.8-8.33,1.16c-1.57,2.67-.82,6.47,4.94,9.45s16.8,6.35,25.61,5.09,14-3.14,16.58-6.91S84.84,62,84.24,62.21Z"/><path class="cls-15" d="M34,31.38c2.81,9.79,17.25-.39,21.22,4.94s8.53,15,9.3,19.86c0,0-3.29-1.26-4.65,1.26s.49,6.2,7.08,5.33,9.4-2.71,10.46-4.36,0-7.46-4.55-4.55L68.33,42.33C65.62,35.45,69.79,32.25,71.14,30s2.8-4.37,1.25-7.18"/><path class="cls-16" d="M35.58,28.18c2.83-2.5,8.43-4.07,14.34.2S60.58,39.81,59.13,48s-12.28,11.47-19,8.7c-6.45-2.68-7.69-1.67-7.75-1.87C28.91,44.29,33.07,30.41,35.58,28.18Z"/><path class="cls-16" d="M67.46,20.11c2.09-.72,3.94-.13,6.85,3.61A46.64,46.64,0,0,1,81.6,39.63c1.1,5.1-.38,8.32-3.09,9.54s-7.3-.38-11.57-9S62.36,21.85,67.46,20.11Z"/><path class="cls-17" d="M43.86,32.91c2.55-.83,6.37-.38,9.26,3.85s3.75,10.12.38,12.69-8-.16-10.76-3.69S40.22,34.09,43.86,32.91Z"/><path class="cls-17" d="M68.4,28.79c3.11-.88,6,3.3,6.79,7.45s.5,7.63-1.85,8.3-5-2.58-6.45-7.34S66.61,29.29,68.4,28.79Z"/><ellipse cx="53.16" cy="42.89" rx="2.36" ry="3.18" transform="translate(-5.12 7.28) rotate(-7.47)"/><ellipse cx="71.91" cy="38.56" rx="1.95" ry="2.94" transform="translate(-7.32 19.06) rotate(-14.38)"/><ellipse cx="63.47" cy="59.74" rx="0.81" ry="1.02" transform="translate(-23.28 51.26) rotate(-37.68)"/><ellipse cx="74.81" cy="56.32" rx="0.81" ry="1.02" transform="translate(-12.93 23.6) rotate(-16.53)"/><path class="cls-18" d="M60.55,120.26c-1.34-2.48-4.82-5.78-5.3-5.68s-.18,3.6-4.93,4.58a7.88,7.88,0,0,1-.12,1.1Z"/><path d="M50.32,120.26c0-.19.08-.93.1-1,3.52-.76,4.21-2.85,4.58-4,.09-.27.19-.58.28-.6h0c.5,0,3.78,3.15,5.12,5.56h.28c-1.33-2.51-4.85-5.91-5.46-5.8-.23,0-.32.33-.47.76-.35,1.08-1,3.11-4.47,3.82h-.07l0,.07a9.06,9.06,0,0,1-.13,1.14Z"/><path class="cls-9" d="M106,44.32c1.42.86,3.15,5,3.51,5s4.73.75,6.18-1.13,1.49-4.34-3-5.62c-.44-.2.06-3.18-1.46-6s-4.78-6.07-8.65-5.15-3.48,6-1.28,11.45C101.83,43.37,103.58,42.86,106,44.32Z"/><path class="cls-19" d="M113.31,75.9s-2.82,8,5.45,10.4c0,0-10.06-3.83-12.7,1.79,0,0,.77-10-.85-10.74C105.21,77.35,111.94,77.52,113.31,75.9Z"/><path class="cls-19" d="M34.54,101s-6.36,4.88-6.5,6.8c0,0-5.77-8.42-8.28-8.87,0,0,6.5-1.18,7.24-3.69C27,95.24,27.89,99.52,34.54,101Z"/></g></g></svg>