<svg xmlns="http://www.w3.org/2000/svg" xmlns:xlink="http://www.w3.org/1999/xlink" viewBox="0 0 399.42 545.19"><defs><style>.cls-1,.cls-11,.cls-24,.cls-8{fill:none;}.cls-10,.cls-2,.cls-32,.cls-7{fill:#ffb129;}.cls-10,.cls-11,.cls-19,.cls-2,.cls-21,.cls-22,.cls-24,.cls-25,.cls-26,.cls-32,.cls-4,.cls-6,.cls-8{stroke:#000;}.cls-19,.cls-2,.cls-21,.cls-22,.cls-24,.cls-25,.cls-26,.cls-4,.cls-6,.cls-8{stroke-linecap:round;}.cls-11,.cls-19,.cls-2,.cls-21,.cls-22,.cls-24,.cls-25,.cls-26,.cls-4,.cls-6,.cls-8{stroke-linejoin:round;}.cls-10,.cls-18,.cls-19,.cls-2,.cls-21,.cls-22,.cls-23,.cls-25,.cls-26,.cls-32,.cls-4,.cls-6,.cls-7{fill-rule:evenodd;}.cls-3{clip-path:url(#clip-path);}.cls-4{fill:#1c1c1c;}.cls-5{clip-path:url(#clip-path-4);}.cls-18,.cls-26,.cls-6{fill:#fef5e4;}.cls-9{clip-path:url(#clip-path-10);}.cls-10,.cls-30,.cls-31,.cls-32{stroke-miterlimit:10;}.cls-12{clip-path:url(#clip-path-13);}.cls-13{clip-path:url(#clip-path-17);}.cls-14{clip-path:url(#clip-path-21);}.cls-15{clip-path:url(#clip-path-28);}.cls-16{clip-path:url(#clip-path-30);}.cls-17{clip-path:url(#clip-path-33);}.cls-19{fill:#7b2325;}.cls-20{clip-path:url(#clip-path-46);}.cls-21{fill:#f06b6b;}.cls-22,.cls-23{fill:#fff;}.cls-24{stroke-width:3px;}.cls-25{fill:#fea49c;}.cls-26,.cls-32{stroke-width:0.75px;}.cls-27{fill:#fcb042;stroke:#562f09;stroke-miterlimit:10;}.cls-28{fill:#ed9520;}.cls-29{fill:#fce8c8;}.cls-30{fill:#e44b86;stroke:#b53167;}.cls-31{fill:#a0a0b1;stroke:#71717f;}</style><clipPath id="clip-path" transform="translate(11.99 11.54)"><path class="cls-1" d="M213.58,509.9c.1.16,2.7,11.62,12,11.13,8.83-.5,10.9-11.3,10.9-11.47.11-.49-8.41-53.65-11.73-76.08-3.11-20.59-8.1-67.44-10.17-70.1-.62-.83-6.65-5.15-14.64-1.49-8.41,3.82-12.35,12.13-12.56,14.28-.52,4.16,8.93,48.34,13,68.94C204.13,464.71,213.48,509.9,213.58,509.9Z"/></clipPath><clipPath id="clip-path-4" transform="translate(11.99 11.54)"><path class="cls-1" d="M151.22,358.4c.83,15.33,2.25,35.23,0,50-2.14,13.85-11.26,40.79-21.49,55.38-10.77,15.42-24.3,24.81-37.3,29.81C80.16,498.41,55.49,505.9,50.08,505s-8.95-15.11-4.35-18.22c3.51-2.38,19.46-5.51,27.77-8.16,11.89-3.88,32.66-16.39,36.67-21.43,3.15-4,13-21.4,15.6-32.6,4-18,7.56-40.33,5.37-61.05-.54-5.25,1.11-14.6,6-16.47C141.86,345.39,151,352.91,151.22,358.4Z"/></clipPath><clipPath id="clip-path-10" transform="translate(11.99 11.54)"><path class="cls-1" d="M134.79,510.4s-3.21,5-11.31,5.47c-7.89.49-11.21-4.14-11.21-4.14s8.2-53.11,11.94-73.8c3.21-17.7,4.87-59.73,6.64-64.69.83-2.32,5.71-10.92,14.22-8.77s11.52,13.9,11.84,15.55c.93,6.45-5.92,46.83-9.24,66.68C144.34,466.06,134.9,510.4,134.79,510.4Z"/></clipPath><clipPath id="clip-path-13" transform="translate(11.99 11.54)"><path class="cls-1" d="M210.85,201.4c.36-6.75,5.18-9.4,7.35-9.4,3.62,0,67.26,7.59,68.46,7.23s46.89-38,46.65-38.45c-1.21-3.26-4.46-11.69,7.11-20.85,10.12-8.08,22.06-2.53,27.6,3.61,5.06,5.55,6,18.08,1.33,25.19-4.34,6.51-13.74,8.68-21.7,8.2-6.39-.36-49.66,43.75-57,45.92s-70-9.88-74.13-11.93C216.15,210.68,210.49,207.78,210.85,201.4Z"/></clipPath><clipPath id="clip-path-17" transform="translate(11.99 11.54)"><path class="cls-1" d="M150.63,206.1c.12-6.39-5.43-9.52-5.79-9.77-1.69-1.2-56.29-3.85-58.1-4.94s-45.07-45.68-44.95-46.28c2.41-6.87,1.68-12.05-3.26-19.77-7.83-12.41-21.93-13.26-32.3-4-4.58,4.09-7,13.13-5.06,19.76,3,10,13.5,17.6,24.1,19.65.49.12,44.12,47.49,53.88,51.71,8.44,3.61,61.11,5.66,64.24,3.85C144.12,216,150.38,213.09,150.63,206.1Z"/></clipPath><clipPath id="clip-path-21" transform="translate(11.99 11.54)"><path class="cls-1" d="M182.89,170.82c-13.41-.5-31,3.13-40.57,12.51-5.32,5.25-9.75,21.88-10.31,23.76-1.55,5.12-7.2,44.64-10.2,63.77C118.6,292,111.5,320,111.39,341.38c-.11,11.13,2.33,31,10.53,34.26,15.74,6.13,38.69,3.88,55.32,4.38,14,.5,31.48,1,46.56-.5,12.08-1.25,15.08-21.38,16.29-33.26,3-27.64-1.55-50.14-3-71.9-1.33-20.88-3.32-56.77-5.76-67.4-.78-3.38-3.11-15.5-7.21-20.13C215.15,176.2,196.86,171.2,182.89,170.82Z"/></clipPath><clipPath id="clip-path-28" transform="translate(11.99 11.54)"><path class="cls-1" d="M136.59,36c-.53-6.13-12.35-22.56-20.25-27.45C103.55.77,87.73,2.82,79,9.84,66.77,19.7,63.22,42.44,71.57,52.3,82.76,65.62,93.51,65.36,98.93,66.24c5,.8,17.94,2.76,23.63-1.51C140.5,51.05,137.13,41.82,136.59,36Z"/></clipPath><clipPath id="clip-path-30" transform="translate(11.99 11.54)"><path class="cls-1" d="M251.63,47c1.78-5.87,16.7-19.55,25.5-22.65,14.12-5.07,29.13.26,36.24,8.88,9.95,12.17,8.71,35.09-1.42,43.08-13.77,10.75-24.16,8.26-29.58,8-5.06-.18-18.12-1.07-22.83-6.4C244.7,60.91,249.94,52.48,251.63,47Z"/></clipPath><clipPath id="clip-path-33" transform="translate(11.99 11.54)"><path class="cls-1" d="M199.22,1.13c30.38,4.8,55.7,29.85,72.4,58.36,16.17,27.45,21.85,60.77,15.55,86.26-2.85,11.55-12.26,27.89-19.64,33.14-11.81,8.52-33.66,11.9-48.68,14.39-11.46,1.86-28.34,2.66-38.55,1.77-16-1.42-32.69-4.88-45.93-9.59-10.66-3.73-26-9.77-33.58-17-8.79-8.44-19-29.05-19.9-44.5-2-33,20.26-70,51.88-97.45C151.16,10.81,175.15-2.6,199.22,1.13Z"/></clipPath><clipPath id="clip-path-46" transform="translate(11.99 11.54)"><path class="cls-1" d="M124.69,143.44c8.53,2.13,17,4.71,27.71,6.49,12.62,2,26.65,2.57,33.41,3.19s24,2.49,33.58,2.58c9.15.09,17.05-.8,32.15-1.6,3.56-.18,12.26-1.15,12.44-.89s-7.28,14.93-13.86,19.9c-8.53,6.4-19.81,7.73-29.93,9.51a148.84,148.84,0,0,1-38.65,1c-12.7-1.33-26.65-3.46-40.33-9.59-9.33-4.18-16.17-7.91-23.45-16-5.6-6.22-10.75-19.1-10.75-19.1S119.18,142.11,124.69,143.44Z"/></clipPath></defs><title>Tigre glosa_5to</title><g id="Layer_2" data-name="Layer 2"><g id="Frame_6" data-name="Frame 6"><g id="Tigre"><g id="pierna_izq" data-name="pierna izq"><g id="pierna_izq-2" data-name="pierna izq"><path class="cls-2" d="M213.58,509.93c.11.17,2.7,11.63,12,11.13,8.82-.5,10.9-11.3,10.9-11.46.1-.5-8.41-53.66-11.74-76.08-3.11-20.6-8.09-67.44-10.17-70.1-.62-.83-6.64-5.15-14.64-1.5-8.4,3.82-12.35,12.13-12.56,14.29-.52,4.15,8.93,48.34,13,68.94C204.14,464.75,213.48,509.93,213.58,509.93Z" transform="translate(11.99 11.54)"/></g><g id="pata_izq" data-name="pata izq"><path class="cls-2" d="M211.61,513c-.83,1.35-1.87,5.3-2.39,7.68-.62,2.91-1.35,9.45-1,10,.52.73,12.77,1.56,17.76,1.66a200.19,200.19,0,0,0,20.34-1.14c.94-.31,1-4.46.94-6.44a24.06,24.06,0,0,0-2.39-8.92c-.42-.94-3.63-5.2-5.92-6.44-2.9-1.56-6-1.86-10.68-2.19s-9.77.11-13.3,2.09A9.82,9.82,0,0,0,211.61,513Z" transform="translate(11.99 11.54)"/></g><g id="relleno_pierna_der_2" data-name="relleno pierna der 2"><g class="cls-3"><path class="cls-4" d="M184.4,419.87s3.42-5.15,5.4-6.81c4.67-3.65,17.44-8.63,17.44-8.63s-13.6-4.32-18-.83C185.75,406.42,184.4,419.87,184.4,419.87Z" transform="translate(11.99 11.54)"/></g><g class="cls-3"><path class="cls-4" d="M238.83,440.22s-4.67-2.16-6.75-2.16c-5.5-.17-18.06,4.82-18.06,4.82s9.86-14.62,15.78-13.62C233.64,429.75,238.83,440.22,238.83,440.22Z" transform="translate(11.99 11.54)"/></g><g class="cls-3"><path class="cls-4" d="M195.48,487.11s3.43-5.31,5.4-7c4.57-3.82,17.44-9,17.44-9s-13.6-4.15-18-.5C196.62,473.66,195.48,487.11,195.48,487.11Z" transform="translate(11.99 11.54)"/></g></g></g><g id="cola"><g id="Cola-2" data-name="Cola"><path class="cls-2" d="M151.22,358.4c.83,15.33,2.25,35.23,0,50-2.14,13.85-11.26,40.79-21.49,55.38-10.77,15.42-24.3,24.81-37.3,29.81C80.16,498.41,55.49,505.9,50.08,505s-8.95-15.11-4.35-18.22c3.51-2.38,19.46-5.51,27.77-8.16,11.89-3.88,32.66-16.39,36.67-21.43,3.15-4,13-21.4,15.6-32.6,4-18,7.56-40.33,5.37-61.05-.54-5.25,1.11-14.6,6-16.47C141.86,345.39,151,352.91,151.22,358.4Z" transform="translate(11.99 11.54)"/></g><g id="relleno_cola" data-name="relleno cola"><g class="cls-5"><path class="cls-4" d="M84.52,461.44s6.28-.19,8.7.39c5.84,1.4,17.16,8.26,17.16,8.26s-3.41-12.56-9.61-13.85C96.24,455.24,84.52,461.44,84.52,461.44Z" transform="translate(11.99 11.54)"/></g><g class="cls-5"><path class="cls-6" d="M149.81,375.07s-1.52,19.34-3.1,27.61a211.19,211.19,0,0,1-9.84,35.47c-6.93,18.48-12.05,26-29.07,40.39-8.07,6.93-24.28,10.93-35.21,14.51C63.35,496.12,41,500.79,41,500.79s5.34,22.81,45.67,13.87c21.88-4.92,44.39-28.66,52.31-45.19C175.25,393.62,149.81,375.07,149.81,375.07Z" transform="translate(11.99 11.54)"/></g><g class="cls-5"><path class="cls-4" d="M80.93,481.81s.94,6.58,1.06,9.58c.14,4.84.59,16.32.59,16.32s6.41-10.66,6-15.14C88,488.63,80.93,481.81,80.93,481.81Z" transform="translate(11.99 11.54)"/></g><g class="cls-5"><path class="cls-4" d="M46.32,470.92s3.16,6,4.21,8.62c1.76,4.49,6,15.08,6,15.08s2.94-11.2.93-15.21C55.78,476,46.32,470.92,46.32,470.92Z" transform="translate(11.99 11.54)"/></g><g class="cls-5"><path class="cls-4" d="M117.46,409.45s4.81-3.31,7.31-4.2c6.22-2.15,22-3.37,22-3.37s-15.06-6.52-21.52-3.9C120.76,399.86,117.46,409.45,117.46,409.45Z" transform="translate(11.99 11.54)"/></g><g class="cls-5"><path class="cls-4" d="M157,446.29s-5.25-2.5-7.88-2.89c-6.25-1-22.31,0-22.31,0s14.54-8.24,20.67-7.2C152.41,437.13,157,446.29,157,446.29Z" transform="translate(11.99 11.54)"/></g></g></g><g id="pierna_der" data-name="pierna der"><g id="pierna_der-2" data-name="pierna der"><path class="cls-7" d="M134.79,510.4s-3.21,5-11.31,5.47c-7.89.49-11.21-4.14-11.21-4.14s8.2-53.11,11.94-73.8c3.21-17.7,4.87-59.73,6.64-64.69.83-2.32,5.71-10.92,14.22-8.77s11.52,13.9,11.84,15.55c.93,6.45-5.92,46.83-9.24,66.68C144.34,466.06,134.9,510.4,134.79,510.4Z" transform="translate(11.99 11.54)"/><path class="cls-8" d="M112.27,511.73s8.2-53.11,11.94-73.8c3.21-17.7,4.87-59.73,6.64-64.69.83-2.32,5.71-10.92,14.22-8.77s11.52,13.9,11.84,15.55c.93,6.45-5.92,46.83-9.24,66.68-3.33,19.36-12.77,63.54-12.88,63.71" transform="translate(11.99 11.54)"/></g><g id="pata_der" data-name="pata der"><path class="cls-2" d="M132.09,509.34c2.8,2.8,2.8,7.89,3.32,11.42.52,3,.83,9.55.52,10.07-.41.72-10.9,1.45-15.15,1.45-6.23.11-21.08-1.24-22.22-1.66s-.93-4.88-.73-7c.21-2.49.83-5.91,2.29-7.88,2-3,6.43-5.61,9.65-7A26.87,26.87,0,0,1,120.88,507C125.77,507,131.16,508.4,132.09,509.34Z" transform="translate(11.99 11.54)"/></g><g id="relleno_pierna_der" data-name="relleno pierna der"><g class="cls-9"><path class="cls-4" d="M114.55,410.26s4.67-2.32,6.75-2.32c5.5-.16,18.06,4.3,18.06,4.3S129.19,398.18,123.48,399C119.53,399.67,114.55,410.26,114.55,410.26Z" transform="translate(11.99 11.54)"/></g><g class="cls-9"><path class="cls-4" d="M158.63,458.92s-3-6-4.77-7.94c-4.26-4.64-16.51-12.41-16.51-12.41s13.91-1.33,17.86,3.14C158.43,445.35,158.63,458.92,158.63,458.92Z" transform="translate(11.99 11.54)"/></g><g class="cls-9"><path class="cls-4" d="M101.47,475.33s4.78-1.16,6.85-.83c5.5,1,17.55,8.27,17.55,8.27s-8.52-16.54-14.54-16.71C107.49,466.06,101.47,475.33,101.47,475.33Z" transform="translate(11.99 11.54)"/></g></g></g><g id="brazo_izq" data-name="brazo izq"><g id="brazo_izq-2" data-name="brazo izq"><path class="cls-10" d="M210.85,201.4c.36-6.75,5.18-9.4,7.35-9.4,3.62,0,67.26,7.59,68.46,7.23s46.89-38,46.65-38.45c10.25-9.53,2.44-16.38,14-25.54,10.13-8.07,15.16,2.16,20.7,8.3,5.06,5.55,6,18.08,1.33,25.19-4.34,6.51-13.74,8.68-21.7,8.2-6.39-.36-49.66,43.75-57,45.92s-70-9.88-74.13-11.93C216.15,210.68,210.49,207.78,210.85,201.4Z" transform="translate(11.99 11.54)"/><path d="M210.85,201.4c.36-6.75,4.94-9.89,7.35-9.89v1c-2,0-7,2.29-7.35,8.92Z" transform="translate(11.99 11.54)"/><path class="cls-11" d="M286.42,198.38l.48,1.69" transform="translate(11.99 11.54)"/><path d="M216.51,211.4c-.6-.24-6-3.74-5.66-10h0c-.36,6.26,5.54,8.92,6,9.16Z" transform="translate(11.99 11.54)"/><path class="cls-11" d="M216.51,211.4l.37-.84" transform="translate(11.99 11.54)"/></g><g id="relleno_brazo_2" data-name="relleno brazo 2"><g class="cls-12"><path class="cls-4" d="M257.74,232.37s-3.5-5.06-4.1-7.59c-1.57-6.15-.73-21.33-.73-21.33s-10.6,13.37-8.67,19.52C245.56,227.79,257.74,232.37,257.74,232.37Z" transform="translate(11.99 11.54)"/></g><g class="cls-12"><path class="cls-4" d="M281,182.11s.24,6.15,1.32,8.56c2.41,5.91,12.3,17.36,12.3,17.36s-16.52-4.34-18.81-10.37C274.13,193.08,281,182.11,281,182.11Z" transform="translate(11.99 11.54)"/></g><g class="cls-12"><path class="cls-4" d="M347.05,202.6s-6-1.08-8.32-2.41c-5.54-3.13-15.55-14.46-15.55-14.46s2.05,17,7.72,20C335.24,208,347.05,202.6,347.05,202.6Z" transform="translate(11.99 11.54)"/></g><g class="cls-12"><path class="cls-6" d="M333.07,126.61s23.11,6.26,30,18.49c3.75,6.61,3.62,12.56,2.86,19.69-.94,8.3-13.24,24.32-13.24,24.32s27.42-12.07,32.28-22.86c3.39-7.43,2.22-20-1.67-27.26C372.5,118.62,333.07,126.61,333.07,126.61Z" transform="translate(11.99 11.54)"/></g></g></g><g id="brazo_der" data-name="brazo der"><g id="brazo_der-2" data-name="brazo der"><path class="cls-10" d="M150.63,206.1c.12-6.39-5.43-9.52-5.79-9.77-1.69-1.2-56.29-3.85-58.1-4.94s-45.07-45.68-44.95-46.28c2.41-6.87,1.68-12.05-3.26-19.77-7.83-12.41-21.93-13.26-32.3-4-4.58,4.09-7,13.13-5.06,19.76,3,10,13.5,17.6,24.1,19.65.49.12,44.12,47.49,53.88,51.71,8.44,3.61,61.11,5.66,64.24,3.85C144.12,216,150.38,213.09,150.63,206.1Z" transform="translate(11.99 11.54)"/><path d="M150.63,206.1c.12-6.39-5.67-9.16-6-9.4l.6-.73c.24.12,5.55,3.74,5.43,10.13Z" transform="translate(11.99 11.54)"/><path class="cls-11" d="M144.6,196.7l.6-.73" transform="translate(11.99 11.54)"/><path d="M143.27,215.86c.61-.36,7.11-2.77,7.36-9.76h0c-.25,7-6.15,10.48-6.75,10.85Z" transform="translate(11.99 11.54)"/><path class="cls-11" d="M143.27,215.86l.61,1.09" transform="translate(11.99 11.54)"/></g><g id="relleno_brazo" data-name="relleno brazo"><g class="cls-13"><path class="cls-4" d="M102.17,232.37s4.1-4.58,5.06-7c2.42-5.9,3.38-21.09,3.38-21.09s8.8,14.58,6.27,20.49C114.71,229.36,102.17,232.37,102.17,232.37Z" transform="translate(11.99 11.54)"/></g><g class="cls-13"><path class="cls-4" d="M88.67,171.14s-1,6-2.29,8.32c-3,5.54-14.22,15.91-14.22,15.91S89,193,91.93,187.29C94.22,182.84,88.67,171.14,88.67,171.14Z" transform="translate(11.99 11.54)"/></g><g class="cls-13"><path class="cls-4" d="M20.69,183.92s6.15-.36,8.56-1.45c5.79-2.53,17.12-12.65,17.12-12.65s-4,16.63-10,18.92C31.78,190.55,20.69,183.92,20.69,183.92Z" transform="translate(11.99 11.54)"/></g><g class="cls-13"><path class="cls-6" d="M54.56,126.31s-21.33-10.49-34.71-5.91c-7.23,2.53-11.09,6.87-15.31,12.78-4.82,6.87-6.26,27.12-6.26,27.12s-12.66-27.12-9.16-38.45c2.41-8,11.81-16.64,19.64-19.53C30.22,94.37,54.56,126.31,54.56,126.31Z" transform="translate(11.99 11.54)"/></g></g></g><g id="cuerpo"><g id="cuerpo-2" data-name="cuerpo"><path class="cls-2" d="M182.89,170.82c-13.41-.5-31,3.13-40.57,12.51-5.32,5.25-9.75,21.88-10.31,23.76-1.55,5.12-7.2,44.64-10.2,63.77C118.6,292,111.5,320,111.39,341.38c-.11,11.13,2.33,31,10.53,34.26,15.74,6.13,38.69,3.88,55.32,4.38,14,.5,31.48,1,46.56-.5,12.08-1.25,15.08-21.38,16.29-33.26,3-27.64-1.55-50.14-3-71.9-1.33-20.88-3.32-56.77-5.76-67.4-.78-3.38-3.11-15.5-7.21-20.13C215.15,176.2,196.86,171.2,182.89,170.82Z" transform="translate(11.99 11.54)"/></g><g id="detalle"><g class="cls-14"><path class="cls-6" d="M147.75,173.2C129.9,196.58,138,223,135.11,244.6c-6.09,47-25.6,130-6.42,143,23.16,15.5,83.58,9.88,89.68,2.75,26.27-30.89,15.18-99.41,13-142.17-1.22-22.64-1.56-34.64-13.31-74-2.66-8.88-24.05-15-35.47-15.13C171.48,159.07,153.07,166.32,147.75,173.2Z" transform="translate(11.99 11.54)"/></g><g class="cls-14"><path class="cls-4" d="M72.26,254.48c12.3-5,28.16-17.38,41.24-16.26,6.32.5,13.08,7.5,19.07,10,7,2.87,23.94,7.25,23.94,7.25s-32,3-45.34-4.63c-9.53-5.5-19.18-.62-35,7.25-4.55,2.25-16.41,1.63-16.41,1.63S68.49,256,72.26,254.48Z" transform="translate(11.99 11.54)"/></g><g class="cls-14"><path class="cls-4" d="M70.71,288.61c12.52-4.37,28.93-16.25,41.9-13.88,5.54,1,10.87,8.26,16.08,10.51,5.54,2.37,19.28,4.5,19.28,4.5s-27.16,4-38.24-2.5c-9.42-5.5-19.07-1.75-35.25,5.25-4.66,2-16.52.75-16.52.75S66.83,290,70.71,288.61Z" transform="translate(11.99 11.54)"/></g><g class="cls-14"><path class="cls-4" d="M67.94,335.51c12.52-4.38,28.93-16.26,41.9-13.88,5.54,1,10.86,8.25,16.07,10.5,5.55,2.38,19.29,4.5,19.29,4.5s-27.16,4-38.24-2.5c-9.43-5.5-19.07-1.75-35.25,5.25-4.66,2-16.52.75-16.52.75S64.06,336.76,67.94,335.51Z" transform="translate(11.99 11.54)"/></g><g class="cls-14"><path class="cls-4" d="M284.77,351.76c-11.86-6.13-26.83-20.38-39.91-20.13-5.54.12-11.75,6.63-17.18,8-5.77,1.5-19.62,1.5-19.62,1.5s26.38,8.13,38.24,3.25c10.09-4.12,19.18,1.13,34.37,10.51C285,357.51,297,358,297,358S288.43,353.64,284.77,351.76Z" transform="translate(11.99 11.54)"/></g><g class="cls-14"><path class="cls-4" d="M287.32,308.5c-11.86-6.13-26.83-20.39-39.91-20.14-5.54.13-11.75,6.63-17.18,8-5.77,1.5-19.62,1.5-19.62,1.5S237,306,248.85,301.12c10.09-4.13,19.18,1.12,34.37,10.5,4.32,2.63,16.29,3.13,16.29,3.13S291,310.37,287.32,308.5Z" transform="translate(11.99 11.54)"/></g><g class="cls-14"><path class="cls-4" d="M289.54,263.48c-12.2-5.5-27.61-18.88-40.69-17.88-5.54.5-11.42,7.25-16.85,9-5.65,1.88-19.51,2.63-19.51,2.63s26.72,6.63,38.36,1.12c9.86-4.62,19.18.13,34.81,8.51,4.43,2.37,16.4,2.25,16.4,2.25S293.19,265.23,289.54,263.48Z" transform="translate(11.99 11.54)"/></g></g></g><g id="cabeza"><g id="cabeza-2" data-name="cabeza"><path class="cls-2" d="M199.22,1.13c30.38,4.8,55.7,29.85,72.4,58.36,16.17,27.45,21.85,60.77,15.55,86.26-2.85,11.55-12.26,27.89-19.64,33.14-11.81,8.52-33.66,11.9-48.68,14.39-11.46,1.86-28.34,2.66-38.55,1.77-16-1.42-32.69-4.88-45.93-9.59-10.66-3.73-26-9.77-33.58-17-8.79-8.44-19-29.05-19.9-44.5-2-33,20.26-70,51.88-97.45C151.16,10.81,175.15-2.6,199.22,1.13Z" transform="translate(11.99 11.54)"/></g><g id="OREJA_DER" data-name="OREJA DER"><g id="oreja_Der-2" data-name="oreja Der"><path class="cls-7" d="M136.59,36c-.53-6.13-12.35-22.56-20.25-27.45C103.55.77,87.73,2.82,79,9.84,66.77,19.7,63.22,42.44,71.57,52.3,82.76,65.62,93.51,65.36,98.93,66.24c5,.8,17.94,2.76,23.63-1.51C140.5,51.05,137.13,41.82,136.59,36Z" transform="translate(11.99 11.54)"/><path class="cls-8" d="M136.59,36c-.53-6.13-12.35-22.56-20.25-27.45C103.55.77,87.73,2.82,79,9.84,66.77,19.7,63.22,42.44,71.57,52.3,82.76,65.62,93.51,65.36,98.93,66.24" transform="translate(11.99 11.54)"/></g><g id="relleno_oreja" data-name="relleno oreja"><g class="cls-15"><path class="cls-6" d="M68.81,22.09c7.46-6.39,18.3-5.33,25.14-2.22,8.8,4.09,18.3,17.06,18,26.74-.27,7.29-7.29,17.32-14.22,19.9C85.6,71,62,64.73,56.73,52.92,53.09,44.3,61.35,28.58,68.81,22.09Z" transform="translate(11.99 11.54)"/></g><g class="cls-15"><path class="cls-4" d="M111,1a49.93,49.93,0,0,1-4.35,17.06C103.72,24.58,92.8,37.46,92.8,37.46s17.76-6.84,22-13.23S120.6,5.93,118-1.36c-1.34-3.73-9-9.68-9-9.68S111.1-2.6,111,1Z" transform="translate(11.99 11.54)"/></g></g></g><g id="OREJA_IZQ" data-name="OREJA IZQ"><g id="oreja_Der-3" data-name="oreja Der"><path class="cls-7" d="M251.63,47c1.78-5.87,16.7-19.55,25.5-22.65,14.12-5.07,29.13.26,36.24,8.88,9.95,12.17,8.71,35.09-1.42,43.08-13.77,10.75-24.16,8.26-29.58,8-5.06-.18-18.12-1.07-22.83-6.4C244.7,60.91,249.94,52.48,251.63,47Z" transform="translate(11.99 11.54)"/><path class="cls-8" d="M251.63,47c1.78-5.87,16.7-19.55,25.5-22.65,14.12-5.07,29.13.26,36.24,8.88,9.95,12.17,8.71,35.09-1.42,43.08-13.77,10.75-24.16,8.26-29.58,8" transform="translate(11.99 11.54)"/></g><g id="relleno_oreja_2" data-name="relleno oreja 2"><g class="cls-16"><path class="cls-6" d="M318.79,47.32c-6-7.81-16.79-9-24.16-7.28-9.42,2.13-21.68,12.88-23.1,22.47-1.06,7.2,4.71,18,11,21.77,10.75,6.39,34.2,6,41.57-4.18C329.63,72.37,324.83,55.23,318.79,47.32Z" transform="translate(11.99 11.54)"/></g><g class="cls-16"><path class="cls-4" d="M281.84,18.1a50.83,50.83,0,0,0,.71,17.59c1.6,6.92,9.59,21.76,9.59,21.76s-16-10.3-18.74-17.5-2-19.1,2.13-25.67c2-3.38,10.75-7.55,10.75-7.55S282.46,14.45,281.84,18.1Z" transform="translate(11.99 11.54)"/></g><g class="cls-16"><path class="cls-4" d="M118.38,54.7c2.93-.18,5.6,5.42,5.15,8.26-.53,3.2-5.33,8.08-8.26,6.75C111.19,67.93,113.76,55,118.38,54.7Z" transform="translate(11.99 11.54)"/></g></g></g><g id="barbilla"><g class="cls-17"><path class="cls-6" d="M198.33,135.09c21.68,2.58,56.68-4.71,71.87,10.84,8.79,9,12,29,8.44,41-5.07,17.5-26.74,35.8-43.89,41.75-39.62,13.68-111.39,8.53-137.6-24.25-13.86-17.32-18.92-57.74-3.73-73.91,18.48-19.63,62.89.89,89.72,3C187.76,134,193.8,134.56,198.33,135.09Z" transform="translate(11.99 11.54)"/></g><g class="cls-17"><path class="cls-18" d="M153.83,41.73c18.56,4.08,23.27,23.36,24.51,36.51,1.16,12.08-5.59,30.56-15.63,37.31-13.68,9.06-43.62,10-54.63-2-8.44-9.23-5.6-30.47.09-41.66C115.36,57.72,129.22,36.4,153.83,41.73Z" transform="translate(11.99 11.54)"/></g><g class="cls-17"><path class="cls-18" d="M234.4,48c-19.46.8-26.83,19.19-30.74,31.9-3.73,11.9-2.13,32,6.49,40.95,11.46,11.9,41.13,17.94,54.36,8.17,10.49-7.73,12-30.11,8.44-42.64C268.69,71.22,259.63,47.06,234.4,48Z" transform="translate(11.99 11.54)"/></g><g class="cls-17"><path class="cls-4" d="M187.67,58.87c1.6,1,.89,4.35.45,6.22-1.07,4.71-6.84,14.48-8.89,13.59-2.22-1-1.86-10.13,0-13.77C180.48,62.51,185,57.36,187.67,58.87Z" transform="translate(11.99 11.54)"/></g><g class="cls-17"><path class="cls-4" d="M197.53,63.31c-1.77.63-1.69,4.18-1.6,6,.18,4.89,4.09,15.46,6.22,15,2.31-.54,3.64-9.6,2.49-13.59C203.93,68.2,200.46,62.25,197.53,63.31Z" transform="translate(11.99 11.54)"/></g><g class="cls-17"><path class="cls-4" d="M78.76,82s5.42,21,10.75,28.34c4.89,6.84,16.61,11,21.68,17.67a37.94,37.94,0,0,1,2.31,4.53s-12.89-4.61-18.22-6.92c-7.37-3.2-20.52-4.71-24.07-12C66.77,105,78.76,82,78.76,82Z" transform="translate(11.99 11.54)"/></g><g class="cls-17"><path class="cls-4" d="M297.47,104.09s-9.15,19.63-15.72,25.94c-6,5.77-19.28,6.93-24.52,13.41-1.33,1.69-2.67,6.75-2.67,6.75s13.15-4.44,18.75-6.22c7.73-2.39,21.05-.88,25.94-7.37C305,128.87,297.47,104.09,297.47,104.09Z" transform="translate(11.99 11.54)"/></g><g class="cls-17"><path class="cls-4" d="M99.28,88.63c-.71.18-3,7.2-2,10.13,1.78,5.59,14.83,13.06,15.19,12.35.18-.45-5.24-6.4-6.75-9.6C104.17,98.14,100.35,88.45,99.28,88.63Z" transform="translate(11.99 11.54)"/></g><g class="cls-17"><path class="cls-4" d="M279.7,105.24c.71.27,1.6,7.55.18,10.31-2.75,5.15-17,10.12-17.23,9.41-.09-.44,6.39-5.33,8.35-8.17C273.13,113.77,278.73,104.89,279.7,105.24Z" transform="translate(11.99 11.54)"/></g><g class="cls-17"><path class="cls-4" d="M186.61,37.64c2.84-3.29,20.61-2,21.67,1.78,1.16,4.08-8,8.7-11.55,8.35C194.07,47.41,183.76,40.93,186.61,37.64Z" transform="translate(11.99 11.54)"/></g><g class="cls-17"><path class="cls-4" d="M152.49,3.35s14-2.13,20-1.07c7.64,1.43,15.9,9.07,23.45,10.66,5.33,1.07,13.15-4.26,19-4.44,7.64-.26,25.05,4.36,25.05,4.36S224.63-.82,216.37-2.78c-5.78-1.33-13.77,2.13-19.64,2-6.48-.27-14.83-4.54-21.41-4C167.51-4.38,152.49,3.35,152.49,3.35Z" transform="translate(11.99 11.54)"/></g><g class="cls-17"><path class="cls-4" d="M104.61,177.64s12.26,1.07,17.5.8c3.82-.18,12.53-1.69,12.53-1.69s-7.46,6.31-11.37,6.93C117.23,184.57,104.61,177.64,104.61,177.64Z" transform="translate(11.99 11.54)"/></g><g class="cls-17"><path class="cls-4" d="M258.74,191.86s-12.26-1.16-17.41-2.4c-3.73-.89-12-3.91-12-3.91s6.13,7.55,9.95,8.88C245.06,196.39,258.74,191.86,258.74,191.86Z" transform="translate(11.99 11.54)"/></g></g><g id="boca"><g id="boca-2" data-name="boca"><path class="cls-19" d="M124.69,143.44c8.53,2.13,17,4.71,27.71,6.49,12.62,2,26.65,2.57,33.41,3.19s24,2.49,33.58,2.58c9.15.09,17.05-.8,32.15-1.6,3.56-.18,12.26-1.15,12.44-.89s-7.28,14.93-13.86,19.9c-8.53,6.4-19.81,7.73-29.93,9.51a148.84,148.84,0,0,1-38.65,1c-12.7-1.33-26.65-3.46-40.33-9.59-9.33-4.18-16.17-7.91-23.45-16-5.6-6.22-10.75-19.1-10.75-19.1S119.18,142.11,124.69,143.44Z" transform="translate(11.99 11.54)"/></g><g id="lengua"><g class="cls-20"><path class="cls-21" d="M136.59,175.51c.36-6.31,11-10.13,16.88-12.44,8-3.19,20.08-3.55,28.69-3,10.75.62,26.3,1.69,35.09,8,4.53,3.29,11.46,9.95,10.4,15.37-1.42,7.55-14.66,11-22.12,12.79-15.1,3.55-37.4,1-51.44-5.6C147.7,187.77,136.24,182.44,136.59,175.51Z" transform="translate(11.99 11.54)"/></g></g><g id="dientes"><g class="cls-20"><path class="cls-22" d="M94,78.68c2.22,3.82,53.3,11.91,95,15.37s96.3.36,96.39.27.35-30.56-6.93-40.51c-16.17-21.94-57-31.36-84.13-34.47-27.27-3.11-71.24-4.8-90.34,14.92C94.57,44,93.06,76.82,94,78.68Z" transform="translate(11.99 11.54)"/></g><g class="cls-20"><path class="cls-22" d="M282.37,173.11c-2.84-3.73-57.83,12.44-101.36,8.17-41.75-4.08-93.9-26.47-94-26.38s-6.93,50.1,4.53,66.63c15.55,22.38,57,31.35,84.13,34.46C203,259.1,246.3,260.17,266,241.07,281.12,226.5,284.32,175.6,282.37,173.11Z" transform="translate(11.99 11.54)"/></g></g></g><g id="ojos"><g id="ojos-2" data-name="ojos"><path class="cls-23" d="M112.7,96.8a32,32,0,0,1-.09-13.94c3-12,11.55-26.83,32.42-24.61,13.33,1.42,19,6.48,22.92,13.59,3.11,5.69,3,15.1,2.13,21.59a36.23,36.23,0,0,1-4.79,13.32c-3.29,5-11.64,8.53-17.59,9.33-9,1.16-22.12,1-29.14-7.55A31.51,31.51,0,0,1,112.7,96.8Z" transform="translate(11.99 11.54)"/><path d="M112.25,82.77c3-12,11.46-27.63,32.87-25.41l-.18,1.87C124.51,56.92,115.89,71,112.87,83Z" transform="translate(11.99 11.54)"/><path class="cls-11" d="M112.25,82.77l.62.18" transform="translate(11.99 11.54)"/><path d="M145.12,57.36c13.59,1.51,19.63,6.84,23.63,14l-1.6.89c-3.82-6.93-9-11.64-22.21-13.06Z" transform="translate(11.99 11.54)"/><path class="cls-11" d="M145.12,57.36l-.18,1.87" transform="translate(11.99 11.54)"/><path d="M168.66,71.4c3.2,5.95,2.4,15.54,1.6,22l-.44-.09c.88-6.4.26-15.64-2.76-21Z" transform="translate(11.99 11.54)"/><path class="cls-11" d="M168.66,71.4l-1.6.89" transform="translate(11.99 11.54)"/><path d="M165.46,106.84c-3.37,5.07-11.81,8.71-17.76,9.51l-.09-.71c5.86-.8,14.21-4.18,17.41-9.06Z" transform="translate(11.99 11.54)"/><path class="cls-11" d="M165.46,106.84l-.44-.26" transform="translate(11.99 11.54)"/><path d="M147.79,116.35c-9,1.15-22.39,1.15-29.67-7.55l.88-.71c6.84,8.43,19.72,8.79,28.7,7.55Z" transform="translate(11.99 11.54)"/><path class="cls-11" d="M147.79,116.35l-.09-.71" transform="translate(11.99 11.54)"/><path d="M118.12,108.71a30.2,30.2,0,0,1-5.6-11.91l.35-.09A29.57,29.57,0,0,0,119,108Z" transform="translate(11.99 11.54)"/><path class="cls-11" d="M118.12,108.71,119,108" transform="translate(11.99 11.54)"/><path class="cls-23" d="M262.47,110.48a34.79,34.79,0,0,0,2.66-13.77c-.71-12.08-5.77-28.51-26.38-30.11-13.06-1-19.28,3.11-24.16,9.24-4.09,5.06-5.6,14.39-6,20.87a36.85,36.85,0,0,0,2.13,14c2.22,5.42,9.5,10.48,15,12.35,8.26,2.75,21,4.8,29.05-2.22A30,30,0,0,0,262.47,110.48Z" transform="translate(11.99 11.54)"/><path d="M264.78,96.8c-.71-12.08-5.95-27.8-26.12-29.22l.18-1.87c21,1.78,25.94,18.92,26.65,31.09Z" transform="translate(11.99 11.54)"/><path class="cls-11" d="M264.78,96.8h.62" transform="translate(11.99 11.54)"/><path d="M238.66,67.58c-12.79-1-18.56,2.84-23.36,8.88l-1.42-1.15c5-6.22,11.72-10.66,25-9.6Z" transform="translate(11.99 11.54)"/><path class="cls-11" d="M238.66,67.58l.18-1.87" transform="translate(11.99 11.54)"/><path d="M215.3,76.46c-3.91,4.89-6,13.86-6.4,20.34h-.44c.35-6.48,1.24-16.16,5.42-21.49Z" transform="translate(11.99 11.54)"/><path class="cls-11" d="M215.3,76.46l-1.42-1.15" transform="translate(11.99 11.54)"/><path d="M211,110.75c2.13,5.33,9.41,10.31,14.92,12.08l-.27.71c-5.59-1.86-12.88-7.1-15.1-12.61Z" transform="translate(11.99 11.54)"/><path class="cls-11" d="M211,110.75l-.45.18" transform="translate(11.99 11.54)"/><path d="M225.87,122.83c8.26,2.76,20.7,4.53,28.52-2.31l.71.8c-8.35,7.11-21.15,5-29.5,2.13Z" transform="translate(11.99 11.54)"/><path class="cls-11" d="M225.87,122.83l-.27.71" transform="translate(11.99 11.54)"/><path d="M254.47,120.52a29,29,0,0,0,7.82-10l.36.18a31.09,31.09,0,0,1-7.46,10.75Z" transform="translate(11.99 11.54)"/><path class="cls-11" d="M254.47,120.52l.72.8" transform="translate(11.99 11.54)"/></g><g id="pupilas"><path class="cls-4" d="M157,82.71c4,.36,7.1,4.71,6.57,10.3s-4.35,9.24-8.35,8.89-7.11-4.71-6.57-10.31S153,82.35,157,82.71Z" transform="translate(11.99 11.54)"/><path class="cls-4" d="M224.59,89.05c3.82.36,6.58,4.89,6,10.22s-4,9.33-7.81,9-6.58-4.89-6-10.22S220.77,88.7,224.59,89.05Z" transform="translate(11.99 11.54)"/></g></g><g id="cejas"><g class="cls-17"><path class="cls-24" d="M141.76,34.64A26.87,26.87,0,0,1,155.37,33c7.6,1,13.74,6.29,13.74,6.29" transform="translate(11.99 11.54)"/></g><g class="cls-17"><path class="cls-24" d="M247.09,44.88A30.91,30.91,0,0,0,233.42,41a40.21,40.21,0,0,0-14.92,2" transform="translate(11.99 11.54)"/></g></g><g id="nariz"><g class="cls-17"><path class="cls-25" d="M188.38,131.54c4.89.44,15.37.89,15.55,4.71.09,2.75-2.13,5.68-4.18,7-3.19,2.14-9,1.51-12.7,1-4.18-.53-10.39-1.24-13.24-4.35-1.33-1.42-2.39-4.36-1.86-6.22C173,129.58,183.32,131.09,188.38,131.54Z" transform="translate(11.99 11.54)"/></g></g></g></g><path class="cls-26" d="M228.14,530c7.9-.13,18.66-4.5,19.15-4.5s.26,5.42-.54,6.16-13.31,1.55-18.92,1.61-19.54.13-20.23-1.85c-.49-1.42.43-5.32.81-5.31C210.33,526.19,216.58,530.16,228.14,530Z" transform="translate(11.99 11.54)"/><path class="cls-26" d="M116.52,530c-7.83-.13-18.52-4.5-19-4.5s-.26,5.42.54,6.16,13.21,1.55,18.78,1.61,19.4.13,20.08-1.85c.49-1.42-.42-5.32-.79-5.31C134.2,526.19,128,530.16,116.52,530Z" transform="translate(11.99 11.54)"/><rect class="cls-27" x="310.88" y="152.33" width="88.96" height="15.67" transform="translate(131.3 481.89) rotate(-76.99)"/><rect class="cls-28" x="307.96" y="154.75" width="88.96" height="8.51" transform="translate(130.18 478.15) rotate(-76.99)"/><path class="cls-29" d="M353.44,205.89l-10.59,13.7a1.18,1.18,0,0,1-1.56.42,1.25,1.25,0,0,1-.52-.73l-3.63-17.13Z" transform="translate(11.99 11.54)"/><path d="M340.05,215.85l.72,3.33a1,1,0,0,0,1.35.83,1.25,1.25,0,0,0,.73-.52l2.07-2.6Z" transform="translate(11.99 11.54)"/><path class="cls-30" d="M369.74,107.06l-3-.62c-4.15-.94-7.88,2.28-8.4,4.36h0c-.52,2.07-.52,3.94,1.66,4.46l10.79,2.49c2.08.52,2.81-1.14,3.22-3.32h0C374.61,112.35,373,107.79,369.74,107.06Z" transform="translate(11.99 11.54)"/><path class="cls-31" d="M357.17,113.08l17.24,4a.77.77,0,0,1,.52.72l-1.46,6.44a.77.77,0,0,1-.72.52l-17.24-3.95A.77.77,0,0,1,355,120l1.46-6.44A.52.52,0,0,1,357.17,113.08Z" transform="translate(11.99 11.54)"/><path class="cls-32" d="M374.16,156.7c1-6.66-1.47-14.79-10.54-17.48s-11.27,10.64-13.07,18.2,1.45,16.2,8.77,16.92S372.91,165.23,374.16,156.7Z" transform="translate(11.99 11.54)"/><path class="cls-26" d="M371.4,143.89s-4.25-6.66-11.19-5.09c-4.2,1-7,7.5-7.77,11.47s-3.52,9.53-2.5,14.16,2,6.38,4.35,8.32c0,0,0-12.14,1.57-19C359.47,137.88,371.4,143.89,371.4,143.89Z" transform="translate(11.99 11.54)"/></g></g></svg>