<svg xmlns="http://www.w3.org/2000/svg" xmlns:xlink="http://www.w3.org/1999/xlink" viewBox="0 0 129.48 120"><defs><style>.cls-1,.cls-13{fill:none;}.cls-2,.cls-3{fill:#68605b;}.cls-10,.cls-11,.cls-12,.cls-13,.cls-2,.cls-6,.cls-7,.cls-8,.cls-9{stroke:#000;stroke-miterlimit:10;}.cls-10,.cls-11,.cls-13,.cls-2,.cls-6,.cls-7,.cls-8,.cls-9{stroke-width:0.25px;}.cls-4,.cls-6{fill:#ffe8c6;}.cls-5,.cls-8{fill:#b36c5e;}.cls-7{fill:#2aeaf7;}.cls-9{fill:#ffa996;}.cls-10{fill:url(#linear-gradient);}.cls-11{fill:#96a3b6;}.cls-12{fill:#fff;stroke-width:0.5px;}.cls-13{stroke-linecap:round;}</style><linearGradient id="linear-gradient" x1="51.8" y1="27.4" x2="51.8" y2="63.4" gradientUnits="userSpaceOnUse"><stop offset="0.4" stop-color="#68605b"/><stop offset="1" stop-color="#fe5858"/></linearGradient></defs><title>Mistake feedback_mandril_5to0</title><g id="Layer_2" data-name="Layer 2"><g id="Layer_1-2" data-name="Layer 1"><rect class="cls-1" width="129.48" height="120"/><path class="cls-2" d="M80.52,77.74c2-.43,20.87,22.32,20.17,25.07s-9.09,3-15-3.65S70.54,79.93,80.52,77.74Z"/><path class="cls-3" d="M47.15,120H94.43a101.3,101.3,0,0,0-3.2-16.58c-7-24-24.53-38.77-33.25-37.36-14.46,2.35-15.09,12-13.19,27.81C45.38,98.76,47.76,116.43,47.15,120Z"/><path d="M45,96.71c.84,6.61,2.53,20.32,2,23.29h.25c.5-3.15-1.12-16.25-2-23.32-.15-1.15-.27-2.12-.35-2.83-2.05-17-.61-25.44,13.08-27.66a7.64,7.64,0,0,1,1.19-.1c4.36,0,10.34,3.41,16,9.19a68,68,0,0,1,15.94,28.17A101,101,0,0,1,94.3,120h.25a100.59,100.59,0,0,0-3.2-16.62,68.19,68.19,0,0,0-16-28.27C69.12,68.72,62.46,65.2,58,65.94c-6.91,1.12-11,4-12.82,8.94-1.73,4.67-1.44,11-.47,19C44.75,94.59,44.87,95.56,45,96.71Z"/><path class="cls-4" d="M60.57,120H96.43c-.4-2.78-3.55-12.25-7.56-22.45C84.71,87,74.19,72.76,72.24,71.29S53.87,68.53,55,82.22C55.45,87.53,62.55,110.74,60.57,120Z"/><path d="M56.69,91.08c2.05,8.87,5.13,22.51,3.74,28.92h.26c1.38-6.47-1.58-19.58-3.75-29a86.91,86.91,0,0,1-1.81-8.81c-.38-4.65,1.2-8,4.72-9.94,4.63-2.56,11.18-1.73,12.31-.88,2.06,1.55,12.55,15.92,16.59,26.2C92.86,108,95.91,117.26,96.31,120h.25c-.39-2.73-3.44-12-7.57-22.5C84.93,87.18,74.38,72.75,72.31,71.19c-1.2-.9-7.79-1.79-12.58.86-3.61,2-5.24,5.42-4.85,10.18A90,90,0,0,0,56.69,91.08Z"/><path class="cls-3" d="M34.38,120H49a18.42,18.42,0,0,0-5.94-6.68c-2.89-1.74-14.1-7.71-13.52-10.79s11.76-9,15.51-10.39l.53-17.4c-2.88.38-25.28,17.2-27.4,27.79-1,6.16,15.07,15.31,16,16.47A3.27,3.27,0,0,1,34.38,120Z"/><path d="M34.15,119.08a3.19,3.19,0,0,1,.1.92h.25a3.14,3.14,0,0,0-.16-1.08A19.28,19.28,0,0,0,32,117.18c-4.67-3.2-14.39-9.85-13.64-14.62,1.2-6,8.9-13.65,13.38-17.66C38.27,79,44.34,75,45.64,74.86l0-.25c-2.66.36-25.33,17-27.52,27.9-.77,4.93,9,11.65,13.74,14.88A18.6,18.6,0,0,1,34.15,119.08Z"/><path d="M41.72,112.37c-3.74-2.15-12.51-7.21-12-9.81.56-3,11.7-8.92,15.43-10.3L45.05,92c-3.53,1.3-15,7.26-15.59,10.48-.53,2.78,8,7.71,12.14,10.08l1.43.83A18.62,18.62,0,0,1,48.9,120h.28a18.8,18.8,0,0,0-6-6.79C42.8,113,42.31,112.71,41.72,112.37Z"/><path class="cls-5" d="M50.37,120c-1.77-2.9-5.61-6.35-6.17-6.24-.72.14-3.86,4.25-9.64,5.44,0,0,0,.5-.1.8Z"/><path d="M34.58,120c0-.17.07-.61.09-.69a18.6,18.6,0,0,0,8.54-4.65,4.4,4.4,0,0,1,1-.78h0c.52,0,4.2,3.24,6,6.12h.3c-1.69-2.81-5.49-6.37-6.3-6.37h0a3.76,3.76,0,0,0-1.13.83,18.31,18.31,0,0,1-8.51,4.61l-.09,0v.08a7.44,7.44,0,0,1-.11.82Z"/><path class="cls-6" d="M21.17,39.45C20.9,38.06,5.44,48,4.14,51.09c0,1.17,15.68,0,18.58,4C22.72,55.12,22,44,21.17,39.45Z"/><path class="cls-6" d="M22.68,56.23c-2-3.64-7.81,16.28-7.62,17.89S22.77,68.7,26.58,68,23.15,57.09,22.68,56.23Z"/><path class="cls-6" d="M39.23,73.2c-1.52-1-6.09,5.62-6.47,6.57s12.09-3.33,14.09-3S41.61,74.82,39.23,73.2Z"/><path class="cls-6" d="M69,28.93c-.28-1.38,13.75,5.25,16.12,7.61.47,1.07-10.5,2.63-11.64,7.5C73.43,44,69.87,33.5,69,28.93Z"/><path class="cls-6" d="M75.6,44.67c.5-4.14,12.46,9.61,12.89,11.18s-8.28.4-12,1.22S75.48,45.64,75.6,44.67Z"/><path class="cls-6" d="M74.09,67c1-1.53,7.76,2.91,8.47,3.64s-12.45,1.48-14.19,2.5S72.5,69.41,74.09,67Z"/><path class="cls-6" d="M50.52,77.9c.29,2.31,1.46,6.41,2.8,7,.82.35,1.44-3.55,2.11-3.57.43,0,6.7,3.38,10.7,9.15,1.13,1.63,4.57-7.23,4.06-9.77s3.2,2.11,3.84,2.43.54-7.05-1.62-9.52S50.42,77.05,50.52,77.9Z"/><path class="cls-2" d="M18.09,6.42c-.28-.27,10.16.62,14.38,5.38.26.3.59-3.33-3-6.89-.34-.34,12,3.47,12.92,6,1.61-5-.69-5.95-.78-6.48,3.48.62,13.61,4.84,13.83,5.21,0,0,10.22,5.55,15,14.81s8,25.57,7.87,31.66-13,16.65-27,13.13-24.65-7.61-28.55-15.6-5.26-24.74-.28-37.45C23.26,14.17,22.9,11.14,18.09,6.42Z"/><path class="cls-7" d="M21.6,49.8c-3.81,17.25-1.05,16,4.47,18.9s26.93,10,33.3,10.75,9.81-.66,12.28-3.9,7.48-17.35,6.62-22.77C76.62,42.44,74.6,34,74,33.56c-2-1.44-12-2.73-16.48.22-6.65,4.33-12.23,16.86-14.81,17.28C35.64,52.23,20.9,50.39,21.6,49.8Z"/><path class="cls-8" d="M22.93,51.13c-.63-2.42-2.13-6.47-5-6.73s-7.43,2.67-6.54,9,5.9,8.63,9,8.63S23.82,54.52,22.93,51.13Z"/><path class="cls-9" d="M23.19,52.78c-.29-1.86-2.57-5.09-4.68-5s-4.33,3.33-3.24,7,5.61,6.37,6.94,5S23.43,54.3,23.19,52.78Z"/><path class="cls-8" d="M67.07,60C58.94,61.42,57.27,62.61,47,60c-9.76-2.53-14.23-9.3-21.41-6.44s-8,8.16-6.31,11.64,7.32,6.4,14.51,8.5,10,3.76,18.46,5.61c7.32,1.62,10.46,3.68,15.6.67S78,66.33,79.45,63.47c1.5-3,2.75-7.81,1.61-10.85s-2.35-5.23-3.7-5.42C77,47.14,75.21,58.66,67.07,60Z"/><path class="cls-10" d="M32.82,42.82c5.23,1,15.6-2.1,19.5,3.14s4.54,6.12,5.82,10.85c0,0-3.24-1.24-4.57,1.23s.48,6.09,7,5.24,8.94-3.43,10-5.05-1.05-6.47-4.19-3.71A105.64,105.64,0,0,0,62.5,43.29c-2.66-6.75-.38-5,1-7.16s2.66-6,1.14-8.73"/><path class="cls-11" d="M32.53,38.63a37.15,37.15,0,0,1,15.7,1.43c5.42,1.71,6.19,5.61,5.34,9-1.2,4.79-8.67,5.89-15.43,4.62s-11.41-5.23-11-9S29.77,39,32.53,38.63Z"/><path class="cls-11" d="M64.82,24.41c2.26-.41,4.12.37,6.72,4.24s4.32,10,4.89,14.89S76,52.21,73,53s-7.55-1.28-11-9.86S59.32,25.4,64.82,24.41Z"/><path class="cls-12" d="M39.91,42.93c2.75-.17,5.94.62,8.34,1,3.07.55,3.44,5.38.38,6.58s-6.84,1.25-9.32-.41S35.47,43.2,39.91,42.93Z"/><path class="cls-12" d="M65.25,34.88c3.22-.6,5.92,3.31,6.48,7.07s0,6.86-2.4,7.33-4.94-2.6-6.14-7S63.38,35.23,65.25,34.88Z"/><ellipse cx="47.27" cy="47.03" rx="2.82" ry="3.01" transform="translate(-3 3.22) rotate(-3.78)"/><ellipse cx="68.93" cy="44.16" rx="2.29" ry="2.65" transform="translate(-7.25 14.19) rotate(-11.17)"/><ellipse cx="57.14" cy="59.91" rx="0.8" ry="1" transform="translate(-24.71 47.43) rotate(-37.68)"/><ellipse cx="68.99" cy="56.61" rx="0.59" ry="0.92" transform="translate(-13.25 21.96) rotate(-16.53)"/><path class="cls-13" d="M66.79,70.07c-.64-.92-3.86-2.85-4.82-2.57s-2.85,2.57-3.81,4.59"/><path class="cls-2" d="M97.61,109.44c-4-2.08-9.41-10.26-11.51-13.09-5.2-7-6.35-9.22-6.84-10.08-.08-.15.28-.66-.72-4.43-1.25-4.71-1.4-4.36-1.49-5.84-.19-2.92,1.57-2.4,4.38-2,3.73.57,6.56,4.49,7.34,5.52s4.11,6.81,6.85,10.88c1.19,1.76,6.77,8.62,9,11.88,1.82,2.67,1.17,4.5-.28,6.57S99.4,110.36,97.61,109.44Z"/><path class="cls-8" d="M86.66,86c1.68-1,3.09-4.33,3.17-4.36a4.93,4.93,0,0,0,2.22-4.31c.07-2.82-2.43-5-4-4.38-.2.08-2.06-3.09-5.47-4.72a7.69,7.69,0,0,0-10.25,3C67.6,79.06,74.6,84.4,80.46,88A13.48,13.48,0,0,0,86.66,86Z"/></g></g></svg>