<svg xmlns="http://www.w3.org/2000/svg" xmlns:xlink="http://www.w3.org/1999/xlink" viewBox="0 0 374.34 550.08"><defs><style>.cls-1,.cls-4,.cls-7{fill:none;}.cls-10,.cls-12,.cls-14,.cls-15,.cls-17,.cls-19,.cls-2,.cls-20,.cls-22,.cls-23,.cls-4,.cls-5,.cls-6,.cls-7{stroke:#000;}.cls-10,.cls-12,.cls-14,.cls-15,.cls-17,.cls-19,.cls-2,.cls-20,.cls-22,.cls-23,.cls-4,.cls-5{stroke-linecap:round;}.cls-10,.cls-12,.cls-14,.cls-15,.cls-17,.cls-19,.cls-2,.cls-20,.cls-22,.cls-23,.cls-4,.cls-5,.cls-7{stroke-linejoin:round;}.cls-10,.cls-12,.cls-14,.cls-15,.cls-17,.cls-19,.cls-2,.cls-20,.cls-21,.cls-22,.cls-23,.cls-24,.cls-3,.cls-5,.cls-6{fill-rule:evenodd;}.cls-2{fill:url(#linear-gradient);}.cls-10,.cls-3,.cls-6{fill:#68605b;}.cls-5{fill:#b36c5e;}.cls-28,.cls-29,.cls-6{stroke-miterlimit:10;}.cls-8{clip-path:url(#clip-path);}.cls-9{clip-path:url(#clip-path-2);}.cls-11{clip-path:url(#clip-path-3);}.cls-12{fill:#ffe8c6;}.cls-13{clip-path:url(#clip-path-4);}.cls-14{fill:#fea49c;}.cls-15{fill:#2aeaf7;}.cls-16{clip-path:url(#clip-path-5);}.cls-17{fill:#7b2325;}.cls-18{clip-path:url(#clip-path-6);}.cls-19{fill:#f06b6b;}.cls-20,.cls-24{fill:#fff;}.cls-21{fill:url(#linear-gradient-2);}.cls-22{fill:#1c1c1c;}.cls-23{fill:#96a3b6;}.cls-25{fill:#fcb042;stroke:#562f09;stroke-miterlimit:10;}.cls-26{fill:#ed9520;}.cls-27{fill:#fce8c8;}.cls-28{fill:#e44b86;stroke:#b53167;}.cls-29{fill:#a0a0b1;stroke:#71717f;}</style><linearGradient id="linear-gradient" x1="-228.97" y1="-1278.46" x2="-226.81" y2="-1278.46" gradientTransform="translate(8811.11 71282.17) scale(37.61 55.5)" gradientUnits="userSpaceOnUse"><stop offset="0" stop-color="#27dae7"/><stop offset="0.81" stop-color="#f43353"/></linearGradient><clipPath id="clip-path" transform="translate(17.18)"><path class="cls-1" d="M198.34,232.07c-.41-.41-4.56-4-3-9.24,1.67-5.5,6.23-7,8.1-6.33,2.8.94,47.13,26.27,49.83,26.16,1.56-.1,50.25-32.08,49.93-32.49-2.9-3.32-3.94-10.17-1-14.64,4.46-6.75,11.52-9.24,19.2-8.61,6.23.51,14.12,7.88,14.53,14.74.63,10.9-7.26,19.93-22.42,24.18"/></clipPath><clipPath id="clip-path-2" transform="translate(17.18)"><path class="cls-1" d="M135.73,221c-.94-5.4-6.23-7.06-6.54-7.27-1.66-.73-47.65,6.23-49.42,5.61s-43.56-33.45-43.46-34c1.35-6.23.06-10.51-5.13-16.64-7.59-9-19.15-8.76-26.83.48C1,173.22-.18,181,2.32,186.33c3.73,8.1,12.12,12.29,21.15,12.7.41,0,43.53,37.08,53,39.37,8.2,2.07,52.84-5.61,55.23-7.68C132,230.51,136.76,226.88,135.73,221Z"/></clipPath><clipPath id="clip-path-3" transform="translate(17.18)"><path class="cls-1" d="M166,193.69c-12.46.24-28.86,4.36-37.27,13.95-4.57,5.22-7.89,21.48-8.2,22.81-.73,3-3.53,40.65-5.09,58-2,20.75-10.59,48.78-6.75,69.29,1.35,7,5.09,16.62,9.76,21.36,11.73,12,34.47,16.5,50.14,17,13.91.49,33.53-3.15,45.26-11.77,5.51-4,11.94-11.77,14.23-18.8,6.64-20.63-3.12-51.21-5.51-73.17-2.18-20.27-5.81-54.73-8.82-65.41-1-3.52-4-15.53-8.31-20C196.19,197.45,179.06,193.44,166,193.69Z"/></clipPath><clipPath id="clip-path-4" transform="translate(17.18)"><path class="cls-1" d="M97.69,100.52c.22.33-.8,12.84-1,18.27-.29,8.72-.15,20.24-.95,21.14-2.85,3.13-18.81-2.55-22.9-9.29-3.88-6.42-3.59-19.5.29-25.92C78.59,95.83,92.42,94.44,97.69,100.52Z"/></clipPath><clipPath id="clip-path-5" transform="translate(17.18)"><path class="cls-1" d="M249.46,111.05c-.3.25-.52,12.84-.88,18.19-.59,8.72-.25,20.2.48,21.19,2.56,3.46,17.37-.29,22.13-6.55,4.54-5.92,5.49-19,2.19-25.83C268.85,108.67,255.31,105.62,249.46,111.05Z"/></clipPath><clipPath id="clip-path-6" transform="translate(17.18)"><path class="cls-1" d="M121.55,177c11.41,3,5.56,1.81,19,5.18s19.32,3.87,26.64,4.44a228.62,228.62,0,0,0,30.07-.33,174.11,174.11,0,0,0,21.81-3.2c13.1-2.8,15.8.74,16.68,2.22,1.54,2.71,2.93,10.28-12.8,16.86-6.15,2.55-17.27,5.19-23.93,6.17-8.2,1.24-22.1,2.06-30.3,1.48a138.89,138.89,0,0,1-26.48-5.26c-5.42-1.73-14.64-5.35-19.32-8.64-13-9-13.47-12-14.56-13.74C107.86,181.4,102.89,171.94,121.55,177Z"/></clipPath><linearGradient id="linear-gradient-2" x1="-212.74" y1="-1283.88" x2="-212.78" y2="-1283.48" gradientTransform="translate(15548.47 138443.16) scale(72.27 107.73)" gradientUnits="userSpaceOnUse"><stop offset="0.01" stop-color="#68605b"/><stop offset="1" stop-color="#f43353"/></linearGradient></defs><title>Mandrill glosa_5to</title><g id="Layer_2" data-name="Layer 2"><g id="Frame_6" data-name="Frame 6"><g id="Mandril"><g id="Cola"><g id="cola-2" data-name="cola"><path class="cls-2" d="M252.72,333.22c.62-2.7-8.51-2.49-8.51-2.49s5.92-25.12,6-27.93c.1-5-12.87,3.53-22.94,13-11.21,10.69-16.51,26.16-16.72,31-.2,6.23.94,13.81,5.4,15.78C228.64,368.31,250.44,342.88,252.72,333.22Z" transform="translate(17.18)"/></g></g><g id="pierna_izq" data-name="pierna izq"><path class="cls-3" d="M202.72,527.19c.1.18,2.7,12.38,12,11.85,8.82-.53,10.9-12,10.9-12.2.1-.53-5.81-57.11-8.1-80.8-2.07-22.28-4.77-72.67-6.74-75.67A13.73,13.73,0,0,0,196.28,367c-8.61,3-12.87,11.31-13.29,13.61-.72,4.42,6.54,52.51,9.66,74.79C195.56,477,202.61,527.19,202.72,527.19Z" transform="translate(17.18)"/><path class="cls-4" d="M225.66,526.84c.1-.53-5.81-57.11-8.1-80.8-2.07-22.28-4.77-72.67-6.74-75.67A13.73,13.73,0,0,0,196.28,367c-8.61,3-12.87,11.31-13.29,13.61-.72,4.42,6.54,52.51,9.66,74.79,2.91,21.57,10.07,71.78,10.07,72" transform="translate(17.18)"/></g><g id="pierna_der" data-name="pierna der"><path class="cls-3" d="M117,531.72c-.1.19-3.07,5.24-10.86,5.91-8.21.66-11.58-4.27-11.58-4.27-.1-.19,8.13-59.65,12.66-84.85,4-22.38,12.9-68.44,15.34-73.69,1.06-2.25,7-10.29,15-4.93s9.45,19.33,9.53,21.4c.13,7.35-11.65,49-16.45,70.29C126,481.69,117,531.53,117,531.72Z" transform="translate(17.18)"/><path class="cls-4" d="M94.6,533.36c-.1-.19,8.13-59.65,12.66-84.85,4-22.38,12.9-68.44,15.34-73.69,1.06-2.25,7-10.29,15-4.93s10.17,13,10.25,15.1c.13,7.35-12.37,55.35-17.17,76.59-4.47,20.12-13.43,69.95-13.53,70.14" transform="translate(17.18)"/></g><g id="pata_izq" data-name="pata izq"><path class="cls-5" d="M193.69,528.2c-1.87,1.26-3.84,5.09-4.47,7.79-.83,3.63.94,11.83,1.35,12.35.94.94,18,.7,24.8.7,6.43,0,21.71.24,22.64-.59.63-.63,4.05-10.7,2.5-15.06-.73-1.86-1.9-2.85-4.57-4.56s-7-2.76-10.63-3.32-14.49-.06-18.13.25S195.55,527,193.69,528.2Z" transform="translate(17.18)"/></g><g id="pata_der" data-name="pata der"><path class="cls-5" d="M117.34,527.22c4.5,2.21,6.58,7.19,7.22,10.53s0,10.59-.39,11.1c-1.18,1.32-27.09.45-31.68.45s-15.91.36-19-.22c-.41-.22-3-6.72-2.85-9.31.29-3.32-.1-8,8-12.77,6-3.48,17.09-2.46,18.45-2.53C100.51,524.24,114.62,525.88,117.34,527.22Z" transform="translate(17.18)"/></g><g id="brazo_izq" data-name="brazo izq"><g id="brazo_izq-2" data-name="brazo izq"><path class="cls-6" d="M195.33,222.83c1.67-5.5,6.23-7,8.1-6.33,2.8.94,47.13,26.27,49.83,26.16,1.56-.1,50.25-32.08,49.93-32.49-2.9-3.32-3.94-10.17-1-14.64,4.46-6.75,11.52-9.24,19.2-8.61,6.23.51,14.12,7.88,14.53,14.74.63,10.9-7.26,19.93-22.42,24.18-.1,0-52.11,39.56-61.25,39.56-4.88,0-51.07-30.63-53.88-33.33C197.93,231.66,193.78,228,195.33,222.83Z" transform="translate(17.18)"/><path d="M195.33,222.83c1.67-5.5,6.23-7.37,8.21-6.74l-.21.72c-1.66-.52-6.33.52-8,6Z" transform="translate(17.18)"/><path d="M203.54,216.09c2.9.93,47.33,25.95,49.72,25.74l.1,1.45c-3.11,0-47.23-25.64-49.93-26.47Z" transform="translate(17.18)"/><path class="cls-7" d="M203.54,216.09l-.21.72" transform="translate(17.18)"/><path d="M253.16,241.83c1.24.11,49.83-31.87,49.31-31.25l1.14-.93c.21,1.56-48.48,33.53-50.45,33.63Z" transform="translate(17.18)"/><path class="cls-7" d="M302.57,210.58l1.14-.93" transform="translate(17.18)"/><path d="M198,232.38c-.41-.41-4.25-4.25-2.7-9.55h0c-1.55,5.19,2.81,8.52,3.22,8.93Z" transform="translate(17.18)"/><path class="cls-7" d="M198,232.38l.52-.62" transform="translate(17.18)"/></g><g id="mano_der_2" data-name="mano der 2"><g class="cls-8"><path class="cls-5" d="M299,196.36c.31-15.05,13.08-27.4,29.38-27.09S357,182.45,356.66,197.5s-13.08,27.41-29.38,27.1S298.73,211.41,299,196.36Z" transform="translate(17.18)"/></g></g></g><g id="brazo_der" data-name="brazo der"><g id="brazo_der-2" data-name="brazo der"><path class="cls-6" d="M135.73,221c-.94-5.4-6.23-7.06-6.54-7.27-1.66-.73-47.65,6.23-49.42,5.61s-43-33.54-42.9-34.06c1.35-6.23,0-10.69-5.16-16.81-8.2-9.65-20.35-8.62-28,.62-3.32,4-4.26,12.15-1.77,17.44,3.74,8.1,12.53,12.13,21.56,12.54.41,0,43.53,37.08,53,39.37,8.2,2.07,52.84-5.61,55.23-7.68C132,230.51,136.76,226.88,135.73,221Z" transform="translate(17.18)"/><path d="M135.73,221c-.94-5.4-6.34-6.75-6.75-6.85l.31-.73c.31.1,5.4,2.18,6.44,7.58Z" transform="translate(17.18)"/><path class="cls-7" d="M129,214.11l.31-.73" transform="translate(17.18)"/><path d="M131.16,230.51c.52-.42,5.6-3.53,4.57-9.55h0c1,5.92-3.43,10-3.84,10.28Z" transform="translate(17.18)"/><path class="cls-7" d="M131.16,230.51l.73.83" transform="translate(17.18)"/></g><g id="mano_der" data-name="mano der"><g class="cls-9"><path class="cls-5" d="M30.25,152c11.42,9.76,12.88,27.51,2.29,39.86S4.2,205.49-7.22,195.63s-12.87-27.51-2.29-39.87S18.83,142.17,30.25,152Z" transform="translate(17.18)"/></g></g></g><g id="cuerpo"><g id="cuerpo-2" data-name="cuerpo"><path class="cls-10" d="M166,193.69c-12.46.24-28.86,4.36-37.27,13.95-4.57,5.22-7.89,21.48-8.2,22.81-.73,3-3.53,40.65-5.09,58-2,20.75-10.59,48.78-6.75,69.29,1.35,7,5.09,16.62,9.76,21.36,11.73,12,34.47,16.5,50.14,17,13.91.49,33.53-3.15,45.26-11.77,5.51-4,11.94-11.77,14.23-18.8,6.64-20.63-3.12-51.21-5.51-73.17-2.18-20.27-5.81-54.73-8.82-65.41-1-3.52-4-15.53-8.31-20C196.19,197.45,179.06,193.44,166,193.69Z" transform="translate(17.18)"/></g><g id="detalle"><g class="cls-11"><path class="cls-12" d="M133.28,197.08c-9.55,41.5-5.92,69-8.72,98.53-2.08,21.72-11.84,51.09-7.37,72.32C120.09,382,125,393.66,133,399.36c18.17,12.74,51.39,8.49,70.6-4,6.85-4.49,13.08-21,14.95-31.55,3.73-20.63-5.92-48.78-8.31-69.77-3.43-29.61-1.45-47.45-11.11-98.9-1.66-9-22.94-13.59-33.63-13.22C155,182.4,135.25,188.47,133.28,197.08Z" transform="translate(17.18)"/></g></g></g><g id="pelitos_centro" data-name="pelitos centro"><path class="cls-12" d="M151.26,197.85c-9.37,7.66-10.69,29.21-7.69,25.35a12.84,12.84,0,0,1,10.69-4.94s9,21.31,11.78,21.39c2.63.08,14.19-17.85,14.19-17.85s4.83-.74,8.56,7.4c1,2.06,3.15-17.61-.07-23.78s-11.56-11.19-18.88-11.84C161.94,192.92,155.87,194.07,151.26,197.85Z" transform="translate(17.18)"/></g><g id="cabeza"><g id="pelitos_izq" data-name="pelitos izq"><path class="cls-12" d="M134.57,190.86c.81,11.11-30.37,13.82-31.1,12.34-.51-1.15,9.52-19.5,17-20.81C125.28,181.56,134.21,185.43,134.57,190.86Z" transform="translate(17.18)"/><path class="cls-12" d="M106.55,144.62c.8,11.11-30.37,13.83-31.1,12.34-.51-1.15,9.51-19.5,17-20.81C97.25,135.24,106.18,139.19,106.55,144.62Z" transform="translate(17.18)"/><path class="cls-12" d="M120.83,93.73c-1.59,15.73-50,5.29-50.67,2.81-.5-1.83,19.54-22.79,31.28-21.12C109,76.49,121.63,86,120.83,93.73Z" transform="translate(17.18)"/></g><g id="pelitos_der" data-name="pelitos der"><path class="cls-12" d="M201,194c-1.9,10.94,27.81,19.58,28.76,18.26.73-1.07-5.63-22.21-13.54-25C211.48,185.6,202,188.56,201,194Z" transform="translate(17.18)"/><path class="cls-12" d="M241.85,157.29c.29,8.72,21.36,15.64,22.46,14.4.8-.9-6.59-23.36-14.34-23.69C246.38,147.83,241.7,153.43,241.85,157.29Z" transform="translate(17.18)"/><path class="cls-12" d="M236.52,102.86c-3.2,12.46,37.25,10.89,38.37,8.85.87-1.55-14.32-26.75-25.13-24.19C245.47,88.5,237.59,98.86,236.52,102.86Z" transform="translate(17.18)"/></g><g id="OREJA_DER" data-name="OREJA DER"><g id="oreja_Der-2" data-name="oreja Der"><path class="cls-5" d="M97.69,100.52c.22.33-.8,12.84-1,18.27-.29,8.72-.15,20.24-.95,21.14-2.85,3.13-18.81-2.55-22.9-9.29-3.88-6.42-3.59-19.5.29-25.92C78.59,95.83,92.42,94.44,97.69,100.52Z" transform="translate(17.18)"/></g><g id="relleno_oreja_izq" data-name="relleno oreja izq"><g class="cls-13"><path class="cls-14" d="M77.06,105.87c3.44-5.1,13.9-7.81,18.73-4.28,15.37,11.27,6.66,33.16-.59,36-3.51,1.31-14-1.24-18.14-6.83A21.77,21.77,0,0,1,77.06,105.87Z" transform="translate(17.18)"/></g></g></g><g id="cabeza-2" data-name="cabeza"><path class="cls-10" d="M175.11,25.24s4.83-21.88,7.9-22c3.66-.24,11.78,23.45,11.78,23.45s7.76-10.94,9.08-20c1.1-7.49,26.27,30,34,50.84,11,29.46,13.69,52.91,10.39,87.22a259.35,259.35,0,0,1-4.17,25.83c-1.46,7.65-25.9,25.34-39.14,32.42-10.39,5.51-31.56,12-37,11.27s-26.49-11.93-36.51-19.67c-11.56-9-29.42-22.05-33.95-36.28-2.64-8.23-2.27-16.29-2-29.37.58-28.3,7.71-59.59,16.24-75S160.26-4.87,161.06,1.05A37.42,37.42,0,0,0,175.11,25.24Z" transform="translate(17.18)"/><g id="barbilla"><path class="cls-15" d="M126.51,199.91c-11.34-8.88-30.37-18.68-35.42-33.07-.33-7.52,2.15-29.07,4.56-40.95,13.24,8.06,47.62,7.3,68.47,8.2,18.37.82,43.18-4.85,61.18-.82,5.13.85,21.78,3.79,22.17,5-.35,17.55.6,36.18-12.35,46.63-11.34,9.13-18.16,18-32,20.14-10.76,1.64-33.08,7.47-43.47,4.1C148.68,205.56,135.88,207.32,126.51,199.91Z" transform="translate(17.18)"/></g></g><g id="boca"><path class="cls-5" d="M95,147.26c18.81-16.71,64,25.34,76.11,26.16s63.07-33.9,78.8-13.58c4.61,5.93,2.42,19-.58,26.17-4.68,11.1-18.51,20.48-28.54,25.5-14.34,7.24-43.61,9.63-51.73,9-10.61-.9-35.79-6.58-49-15.06-10.46-6.74-25.61-18.18-29.2-31.1C88.77,166.18,89.28,152.36,95,147.26Z" transform="translate(17.18)"/></g><g id="OREJA_IZQ" data-name="OREJA IZQ"><g id="oreja_Der-3" data-name="oreja Der"><path class="cls-5" d="M249.46,111.05c-.3.25-.52,12.84-.88,18.19-.59,8.72-1,20.15-.29,21.14,2.56,3.45,18.14-.24,22.9-6.5,4.54-5.92,5.49-19,2.19-25.83C268.85,108.67,255.31,105.62,249.46,111.05Z" transform="translate(17.18)"/></g><g id="relleno_oreja_izq-2" data-name="relleno oreja izq"><g class="cls-16"><path class="cls-14" d="M269.65,118.79c-2.93-5.51-13.1-9.38-18.22-6.5-16.32,9.38-9.8,32.17-2.93,35.79,3.37,1.81,14.13.49,18.74-4.61C272.21,138,274.7,128.17,269.65,118.79Z" transform="translate(17.18)"/></g></g></g><g id="boca-2" data-name="boca"><g id="boca-3" data-name="boca"><path class="cls-17" d="M121.55,177c11.41,3,5.56,1.81,19,5.18s19.32,3.87,26.64,4.44a228.62,228.62,0,0,0,30.07-.33,174.11,174.11,0,0,0,21.81-3.2c13.1-2.8,15.8.74,16.68,2.22,1.54,2.71,2.93,10.28-12.8,16.86-6.15,2.55-17.27,5.19-23.93,6.17-8.2,1.24-22.1,2.06-30.3,1.48a138.89,138.89,0,0,1-26.48-5.26c-5.42-1.73-14.64-5.35-19.32-8.64-13-9-13.47-12-14.56-13.74C107.86,181.4,102.89,171.94,121.55,177Z" transform="translate(17.18)"/></g><g id="lengua"><g class="cls-18"><path class="cls-19" d="M126.74,202.63c.44-6.34,10.17-10,15.52-12.18,7.31-3,18.14-3,25.9-2.3,9.73.9,23.71,2.46,31.46,9.13,4,3.45,10.1,10.37,9,15.88-1.53,7.57-13.46,10.78-20.26,12.42-13.69,3.21-33.74-.08-46.25-7.07C136.47,215.3,126.23,209.62,126.74,202.63Z" transform="translate(17.18)"/></g></g><g id="dientes"><g class="cls-18"><path class="cls-20" d="M93.23,125.7c1.9,3.54,46.32,9.46,78.44,12s79.25.74,79.32.66.37-29.29-5.92-38.75c-13.47-20.24-47.2-28.47-69.59-31.1s-58.76-3.79-74.35,14.73C93.23,92.71,92.35,124,93.23,125.7Z" transform="translate(17.18)"/></g><g class="cls-18"><path class="cls-20" d="M249.16,201.64c-2.27-3.37-49.24,8.47-82.46,5.35-32-3.05-77.86-20-77.93-19.91s-4.47,43.77,4.53,58c13,20.57,47.2,28.47,69.59,31.1,22.54,2.63,58.25,3.29,74.35-14.73C248.8,248.54,250.7,203.86,249.16,201.64Z" transform="translate(17.18)"/></g></g></g><g id="nariz"><path class="cls-21" d="M199.55,92.79c-9.22,13.57-13.68,30.11-15.15,65.49,0,.74,14.2-5.92,15.08,6a12.32,12.32,0,0,1-8.71,13.08c-6.37,2.06-15.51,2.3-22.17,1.81a69.78,69.78,0,0,1-15.73-3.46c-9.37-3-11.57-10.2-9.15-14.89,5.34-10.69,16.54-2.55,16.76-4,5.19-31.18,1.09-60.72-4.83-69C149.87,79.87,205.11,84.64,199.55,92.79Z" transform="translate(17.18)"/><path class="cls-4" d="M199.55,92.79c-9.22,13.57-13.68,30.11-15.15,65.49,0,.74,14.2-5.92,15.08,6a12.32,12.32,0,0,1-8.71,13.08c-6.37,2.06-15.51,2.3-22.17,1.81a69.78,69.78,0,0,1-15.73-3.46c-9.37-3-11.57-10.2-9.15-14.89,5.34-10.69,16.54-2.55,16.76-4,5.19-31.18,1.09-60.72-4.83-69" transform="translate(17.18)"/><path class="cls-22" d="M150.16,164.78c.44-1,2.19-1,3.14-.66,1.25.41,3.37,2.14,3.08,3.54s-2.71,2.14-3.95,1.73S149.5,166.18,150.16,164.78Z" transform="translate(17.18)"/><path class="cls-22" d="M192.31,168.65c-.3-1-2.05-1.4-3-1.24-1.32.17-3.59,1.48-3.52,3s2.42,2.64,3.66,2.39S192.75,170.13,192.31,168.65Z" transform="translate(17.18)"/></g><g id="Ojeras"><path class="cls-23" d="M140.75,71.32c7.58.74,16.27,6,19.86,11.35,8.93,13.25,9.88,40.15,1.67,53.89-5.42,9.05-20.17,17.28-30.38,16.37-10.84-.9-25-12.26-28.78-22.79-5-14.23,2.23-38.17,12-48.87C120.66,75.35,132.22,70.49,140.75,71.32Z" transform="translate(17.18)"/><path class="cls-23" d="M214.82,78.8c-7.31-.33-17.24,6.09-21.55,12.1C185,102.17,179.34,125,184.5,138.62c3.77,9.87,16.62,20.4,26.55,21.31,10.54.9,25.93-7.82,31.08-17.69,6.62-12.67,3.47-36.7-4.38-48.05C233.21,87.61,223.51,79.13,214.82,78.8Z" transform="translate(17.18)"/></g><g id="ojos"><g id="ojos-2" data-name="ojos"><path class="cls-24" d="M127.58,125.44a37.89,37.89,0,0,1-.12-9.75c.9-6.61,2.52-15.53,12.84-16.88,8-1,11.75,3.21,14.21,7.7,2.58,4.69,1.86,12.7,1.08,18.09-.42,2.83-1.2,6.87-2.94,9-2.76,3.28-8.52,6.16-12.59,5.71-3.84-.38-8.46-4.29-10.62-7.63C128.36,130.18,127.88,127.43,127.58,125.44Z" transform="translate(17.18)"/><path d="M127.22,115.69c.9-6.61,2.34-16,13-17.52l.12,1.35c-10,1.16-11.82,9.69-12.72,16.23Z" transform="translate(17.18)"/><path class="cls-7" d="M127.22,115.69l.42.06" transform="translate(17.18)"/><path d="M140.24,98.17c8.21-1,12.35,3.53,14.81,8l-1.08.64c-2.4-4.42-5.82-8.4-13.61-7.37Z" transform="translate(17.18)"/><path class="cls-7" d="M140.24,98.17l.12,1.35" transform="translate(17.18)"/><path d="M155.05,106.26c2.64,4.94,1.44,13.08.66,18.47l-.3-.06c.78-5.39,1-13.28-1.44-17.77Z" transform="translate(17.18)"/><path class="cls-7" d="M155.05,106.26l-1.08.64" transform="translate(17.18)"/><path d="M152.77,133.78c-2.76,3.27-8.58,6.28-12.71,5.9l.06-.51c4,.44,9.71-2.38,12.47-5.59Z" transform="translate(17.18)"/><path class="cls-7" d="M152.77,133.78l-.24-.26" transform="translate(17.18)"/><path d="M140,139.68c-3.9-.45-8.7-4.23-10.92-7.63l.6-.45c2.16,3.33,6.6,7.25,10.38,7.63Z" transform="translate(17.18)"/><path class="cls-7" d="M140,139.68l.06-.51" transform="translate(17.18)"/><path d="M129.08,132.05c-1.08-1.74-1.32-4.56-1.62-6.55l.24-.06a16.31,16.31,0,0,0,2,6.09Z" transform="translate(17.18)"/><path class="cls-7" d="M129.08,132.05l.6-.45" transform="translate(17.18)"/><path class="cls-24" d="M221.61,131.22a30.76,30.76,0,0,0,1.8-9.94c.13-6.72-.18-15.88-10.59-19-8-2.39-12.64,1.16-15.82,5.16-3.36,4.2-4,12.33-3.92,17.82,0,2.39.31,5.81,1.49,7.88,2.31,4.06,7.6,9,12.15,9.49,4,.45,9.34-2.78,12.21-5.75C220.11,135.55,221,133,221.61,131.22Z" transform="translate(17.18)"/><path d="M223.17,121.28c.12-6.72-.44-15.43-10.53-18.34l.37-1.29c10.72,3.29,10.72,12.91,10.59,19.63Z" transform="translate(17.18)"/><path class="cls-7" d="M223.17,121.28h.43" transform="translate(17.18)"/><path d="M212.64,102.94c-7.85-2.39-12,1-15.14,5l-1-.83c3.24-4.07,8.23-7.88,16.51-5.43Z" transform="translate(17.18)"/><path class="cls-7" d="M212.64,102.94l.37-1.29" transform="translate(17.18)"/><path d="M197.5,107.91c-3.24,4-4.3,11.88-4.3,17.37h-.31c0-5.49.12-13.75,3.61-18.2Z" transform="translate(17.18)"/><path class="cls-7" d="M197.5,107.91l-1-.83" transform="translate(17.18)"/><path d="M194.7,133.09c2.3,4,7.53,8.85,12,9.3l-.06.52c-4.61-.52-9.91-5.56-12.21-9.62Z" transform="translate(17.18)"/><path class="cls-7" d="M194.7,133.09l-.31.2" transform="translate(17.18)"/><path d="M206.66,142.39c3.92.45,9.09-2.84,11.9-5.81l.56.58c-2.87,3-8.41,6.13-12.52,5.75Z" transform="translate(17.18)"/><path class="cls-7" d="M206.66,142.39l-.06.52" transform="translate(17.18)"/><path d="M218.56,136.58a15.31,15.31,0,0,0,2.86-5.36l.25.06c-.62,1.81-1.25,4.46-2.62,5.88Z" transform="translate(17.18)"/><path class="cls-7" d="M218.56,136.58l.56.58" transform="translate(17.18)"/></g><g id="pupilas"><path class="cls-22" d="M146.71,113.63c2.58.26,4.44,3.53,4.14,7.32s-2.58,6.73-5.16,6.54-4.43-3.53-4.13-7.31S144.13,113.38,146.71,113.63Z" transform="translate(17.18)"/><path class="cls-22" d="M202.8,115.6c2.67.26,4.61,3.55,4.29,7.36s-2.74,6.78-5.42,6.58-4.61-3.55-4.29-7.36S200.12,115.34,202.8,115.6Z" transform="translate(17.18)"/></g></g></g></g><rect class="cls-25" x="269.25" y="197.79" width="88.96" height="15.67" transform="translate(59.94 465.02) rotate(-76.99)"/><rect class="cls-26" x="266.34" y="200.21" width="88.96" height="8.51" transform="translate(58.81 461.28) rotate(-76.99)"/><path class="cls-27" d="M311.81,251.35l-10.58,13.71a1.13,1.13,0,0,1-2.08-.32l-3.63-17.12Z" transform="translate(17.18)"/><path d="M298.42,261.32l.73,3.32a1,1,0,0,0,1.35.83,1.21,1.21,0,0,0,.73-.52l2.07-2.59Z" transform="translate(17.18)"/><path class="cls-28" d="M328.11,152.52l-3-.62c-4.15-.93-7.89,2.29-8.41,4.36h0c-.52,2.08-.52,4,1.66,4.47l10.8,2.49c2.08.52,2.8-1.14,3.22-3.32h0C333,157.82,331.33,153.25,328.11,152.52Z" transform="translate(17.18)"/><path class="cls-29" d="M315.55,158.55l17.23,3.94a.77.77,0,0,1,.52.73l-1.45,6.43a.76.76,0,0,1-.73.52l-17.23-3.94a.8.8,0,0,1-.52-.73l1.46-6.43A.52.52,0,0,1,315.55,158.55Z" transform="translate(17.18)"/><path class="cls-5" d="M305.44,203.17c.21-10.47,8.5-19.06,19.1-18.84s18.55,9.17,18.34,19.63-8.5,19.06-19.09,18.84S305.24,213.63,305.44,203.17Z" transform="translate(17.18)"/></g></g></svg>