<svg xmlns="http://www.w3.org/2000/svg" xmlns:xlink="http://www.w3.org/1999/xlink" viewBox="0 0 335.16 548.81"><defs><style>.cls-1,.cls-15,.cls-17,.cls-5{fill:none;}.cls-2{fill:#f0eb6b;}.cls-11,.cls-12,.cls-15,.cls-16,.cls-17,.cls-2,.cls-3,.cls-5,.cls-7,.cls-8,.cls-9{stroke:#000;stroke-linejoin:round;}.cls-11,.cls-12,.cls-16,.cls-17,.cls-2,.cls-3,.cls-5,.cls-7,.cls-8,.cls-9{stroke-linecap:round;}.cls-3,.cls-4{fill:#f6e003;}.cls-6{clip-path:url(#clip-path);}.cls-7{fill:#fffca0;}.cls-8{fill:#abf680;}.cls-9{fill:#902e31;}.cls-10{clip-path:url(#clip-path-2);}.cls-11{fill:#f06b6b;}.cls-12,.cls-14{fill:#fff;}.cls-13{clip-path:url(#clip-path-4);}.cls-16{fill:#74baed;}.cls-17{stroke-width:3px;}.cls-18{fill:#fcb042;stroke:#562f09;}.cls-18,.cls-21,.cls-22{stroke-miterlimit:10;}.cls-19{fill:#ed9520;}.cls-20{fill:#fce8c8;}.cls-21{fill:#e44b86;stroke:#b53167;}.cls-22{fill:#a0a0b1;stroke:#71717f;}</style><clipPath id="clip-path"><path class="cls-1" d="M160.74,290c-22.22-.15-34.39,10.3-47,24.57-6.57,7.43-9,16.17-10.88,25.4-1.23,6.15-9,47.49-11.88,68-3.34,24-14.06,56.86-8.23,80.4,2.22,8.95,7.74,21.58,15.51,26.54,15.26,9.74,42.22,1.3,60.32,1.29,17.14,0,42,6.75,57.1-1.29,8.3-4.41,16.37-15.66,19.45-24.53,8.2-23.53-2.92-58.1-5.86-82.84-2.41-20.32-8.46-56.56-11.12-67.27-2.57-10.3-5.1-18.54-10.21-24.73C197.27,302.62,183.22,290.13,160.74,290Z"/></clipPath><clipPath id="clip-path-2"><path class="cls-1" d="M91.27,243.41c9,3.07,28,7.79,32.61,8.63,6,1.09,42.79,4.16,43.39,4.2s42.23,2.25,45.38,2.14c2.53-.09,28.55-4.62,36.61-6.24,2.77-.55,17.07-5.61,18.35-4.45,2.81,2.52-15.62,23.82-20,27.21-6.51,5.06-35.68,8.62-40,9.16-4.45.57-38.39,1.53-42.49,1.16-4.85-.45-42.36-8.17-49-10.63-4.49-1.68-24.93-10.69-30-15.95-3.67-3.82-13.73-19.63-11.14-22C76.9,235,86.61,241.81,91.27,243.41Z"/></clipPath><clipPath id="clip-path-4"><path class="cls-1" d="M91.27,243.41c9,3.07,28,7.79,32.61,8.63,6,1.09,42.79,4.16,43.39,4.2s42.23,2.25,45.38,2.14c2.53-.09,28.19-4.45,36.25-6.06,2.77-.55,17.43-5.79,18.71-4.63,2.81,2.52-15.62,23.82-20,27.21-6.51,5.06-35.68,8.62-40,9.16-4.45.57-38.39,1.53-42.49,1.16-4.85-.45-42.36-8.17-49-10.63-4.49-1.68-24.93-10.69-30-15.95-3.67-3.82-13.73-19.63-11.14-22C76.9,235,86.61,241.81,91.27,243.41Z"/></clipPath></defs><title>Suki glosa</title><g id="Layer_2" data-name="Layer 2"><g id="Layer_4" data-name="Layer 4"><path class="cls-2" d="M184.62,87.33S155.92,82.68,151.19,71c-4.33-10.71-7.14-35.27,16.35-54.84C178,7.42,211.32.5,211.32.5S195.92,26,197.85,31.05c0,0,28.38-17.32,40.64-2.89,0,0-21.16-1.68-17.07,22.61,2.53,15.08-2.65,34.31-15.64,38.16S184.62,87.33,184.62,87.33Z"/><g id="pata_izq" data-name="pata izq"><path class="cls-3" d="M176.06,538.79c.39,1.38,5.32,3.86,7.41,5a57.34,57.34,0,0,0,8.74,3.54c1.42.15,11.17-3.19,14.45-3,2.72.13,10.94,3.68,11.69,3.58s6.88-4.88,9-5.28c2.86-.54,13.61,3.2,13.82,2.5s-7.22-4.41-10.28-6.36c-2.35-1.49-7.58-5-7.78-5.06s-5.71-3.68-8.45-4.59c-4.72-1.56-11.49-2-16.47-2-5.32,0-14-.34-17.56,2.42C178.53,531.1,175.61,537.2,176.06,538.79Z"/></g><g id="pierna_izq" data-name="pierna izq"><path class="cls-4" d="M180.83,529.63s5.13,4.67,17.6,4.52c11.76-.14,16.5-4.59,16.51-4.61s1.29-14.36,1.81-20.53c.48-5.67,2.54-17.52,1.55-18.9-1.6-2.22-8-6-19.67-6.13-11.93-.16-19.46,3.1-20.22,5.75-.69,2.38-.26,13.7.08,19.55C178.86,515.42,180.82,529.62,180.83,529.63Z"/><path class="cls-5" d="M214.94,529.54s1.29-14.36,1.81-20.53c.48-5.67,2.54-17.52,1.55-18.9-1.6-2.22-8-6-19.67-6.13-11.93-.16-19.46,3.1-20.22,5.75-.69,2.38-.26,13.7.08,19.55.37,6.14,2.33,20.34,2.34,20.35"/></g><g id="pata_der" data-name="pata der"><path class="cls-3" d="M97.62,530.14c-2.35,1.28-9.13,3.67-12.94,5.48-3.59,1.71-12.11,4.55-11.7,6.21s10.17-1.5,13.52-.16c1.85.74,4.54,4.67,5.58,5,1.55.44,8.75-2.48,10.84-2.26,1.86.2,8.48,3.86,9,3.92,1,.12,13.92-2,17.85-3.8,2.82-1.3,10.31-6.36,10.56-7.79s-3.61-8.21-6.69-10.15c-4-2.52-10.91-1.86-15.62-1.78s-11.32.55-15.75,2.33C100.72,527.74,98.55,529.64,97.62,530.14Z"/></g><g id="pierna_der" data-name="pierna der"><path class="cls-4" d="M135.17,528.57s-4.93,4.73-17.14,4.76c-12.37,0-17.37-4.74-17.38-4.76S99.06,514.14,98.82,508s-.86-16.74.23-20.27c.75-2.44,6.93-5.09,17.86-5.44,11.94-.37,17.7,3,19.82,4.8,1.57,1.38.5,14.25.26,20.41C136.75,513.88,135.19,528.55,135.17,528.57Z"/><path class="cls-5" d="M100.65,528.57S99.06,514.14,98.82,508s-.86-16.74.23-20.27c.75-2.44,6.93-5.09,17.86-5.44,11.94-.37,17.7,3,19.82,4.8,1.57,1.38.5,14.25.26,20.41-.24,6.38-1.8,21-1.82,21.07"/></g><g id="brazo_izq" data-name="brazo izq"><path class="cls-2" d="M203.05,337c-3.07-6.64-.1-10.54,1.93-11.76,2.68-1.62,48.72-19.43,55.15-23.39,3.83-2.35,35.84-36,43.06-42.17A71.64,71.64,0,0,1,315.83,250c7.7-4.37,17.26-7.82,18.07-7.1s-2.67,13.67-5.84,19.88c-2.43,4.78-7.06,9.86-9.59,12.73-9.7,11-38.38,37.5-44.71,41.63-6,3.89-57.26,24.77-60.8,25.86C210.53,343.74,206,343.42,203.05,337Z"/></g><g id="brazo_der" data-name="brazo der"><path class="cls-2" d="M116.92,342.69c-3.25,5.08-6.39,5.72-9.19,5.52-3.18-.22-38.92-22.91-44.86-27.89C57.2,315.57,22.25,276,15.51,267.05A71.45,71.45,0,0,1,6.57,253.6c-3.84-8-6.94-17.47-5.85-18.53s13.47,3.62,19.45,7.21c4.66,2.8,9.5,8,12.17,10.62,11,10.82,39.42,46.13,43.92,50s40.44,25.86,41.84,28.33C119.32,333.41,120.4,337.25,116.92,342.69Z"/></g><g id="cola"><path class="cls-2" d="M118.89,460.27c.56-9,4.15-16.06,8.32-28.13,4.76-13.75,12.36-31.05,12.39-31.05s5.78,12.37,11.31,26.27c5.61,14.11,9.83,26.56,10,27.26.09.53,2.86,16,0,22-3.15,6.54-10.19,13.68-19.09,14.91a22.37,22.37,0,0,1-19.18-7.43C118.12,478.62,118.42,467.69,118.89,460.27Z"/></g><g id="cuerpo"><g id="cuerpo-2" data-name="cuerpo"><path class="cls-2" d="M160.74,290c-22.22-.15-34.39,10.3-47,24.57-6.57,7.43-9,16.17-10.88,25.4-1.23,6.15-9,47.49-11.88,68-3.34,24-14.06,56.86-8.23,80.4,2.22,8.95,7.74,21.58,15.51,26.54,15.26,9.74,42.22,1.3,60.32,1.29,17.14,0,42,6.75,57.1-1.29,8.3-4.41,16.37-15.66,19.45-24.53,8.2-23.53-2.92-58.1-5.86-82.84-2.41-20.32-8.46-56.56-11.12-67.27-2.57-10.3-5.1-18.54-10.21-24.73C197.27,302.62,183.22,290.13,160.74,290Z"/></g><g id="detalle"><g class="cls-6"><path class="cls-7" d="M120,302.28c-13.69,15.28-11.19,64.19-14.89,91.86-2.77,20.61-7.24,62.9-7.43,68.93-.1,3.19-5.09,29.48,1.32,36.62,10.62,11.82,42.43,2.86,60.65,3.21,17.63.33,47.68,9.81,58.76-.86,6.76-6.52,4.78-32.43,4.82-35.55.09-6.32-5.8-50.5-9.09-72-4.27-27.88-2.68-77.32-16.79-92.52-6.25-6.74-26.74-14.16-39.24-14C145.9,288,126,295.59,120,302.28Z"/></g></g></g><g id="cole"><path class="cls-8" d="M150.1,97c-.89-1.16-1.7-8.29-1.49-11.25.16-2.15,1.37-7.24,2.16-7.95,3.09-2.76,28,.63,32.1,1.13,4.68.55,33.49,3.32,35.79,7.44.66,1.18-.52,7-1.45,10.41-.87,3.17-2.75,8.25-3.75,9-3.26,2.49-27.78.06-31.85-.5S152.67,100.29,150.1,97Z"/></g><g id="cabeza"><path class="cls-2" d="M174.85,92A120,120,0,1,1,45.44,201.81,119.84,119.84,0,0,1,174.85,92Z"/></g><g id="boca"><g id="boca-2" data-name="boca"><path class="cls-9" d="M91.27,243.41c9,3.07,28,7.79,32.61,8.63,6,1.09,42.79,4.16,43.39,4.2s42.23,2.25,45.38,2.14c2.53-.09,24.49-2.4,36.25-6.06,8.73-2,17.43-5.79,18.71-4.63,2.81,2.52-15.62,23.82-20,27.21-6.51,5.06-35.68,8.62-40,9.16-4.45.57-38.39,1.53-42.49,1.16-4.85-.45-42.36-8.17-49-10.63-4.49-1.68-24.93-10.69-30-15.95-3.67-3.82-13.73-19.63-11.14-22C76.9,235,86.61,241.81,91.27,243.41Z"/></g><g id="lengua"><g class="cls-10"><path class="cls-11" d="M130.68,287.4c.2-4.77,8.3-7.76,12.72-9.57,6.08-2.5,15.2-2.84,21.77-2.54,8.19.38,20,1.1,26.72,5.84,3.45,2.44,8.77,7.44,8,11.6-1,5.74-11.06,8.52-16.73,9.91-11.46,2.81-28.4,1-39.15-3.87C139.22,296.6,130.45,292.65,130.68,287.4Z"/></g></g><g id="dientes"><g class="cls-10"><path class="cls-12" d="M40.77,169c3.15,5.2,79.45,13.12,131,16.83s132.07,2.25,132.15,2.14.84-44.31-9.8-58.63c-22.33-30.06-78.74-42.3-116-46.13-37.55-3.87-98-5.64-123.93,21.75C40.65,119.16,39.2,166.38,40.77,169Z"/></g><g class="cls-13"><path class="cls-12" d="M296.16,329.27c-3.76-5-83.76,9.48-136.6,5.15C108.21,330.2,29.49,307.84,29.4,307.93s-6.7,62.61,7.8,83c21.72,30.51,78.74,42.3,116,46.13,37.55,3.87,97.28,5,123.92-21.75C295.78,396.57,298.58,332.53,296.16,329.27Z"/></g></g></g><path class="cls-14" d="M69.56,215.79c-.23-2.35-.16-5.86,1.19-7.79,6.13-8.72,22.8-11.33,33.43-12.08,10.16-.72,25.78-.09,33.26,6.83,2.6,2.4,4.33,7.39,4.43,10.92.12,4.31-1.8,10.48-4.86,13.51-7.76,7.7-24.43,9.23-35.35,8.79-8.72-.35-21.58-2.68-27.7-8.91C71.42,224.47,69.92,219.4,69.56,215.79Z"/><path d="M68,215.94c-.24-2.46-.21-6.43,1.4-8.9L72.12,209c-1.11,1.4-1.21,4.43-1,6.67Z"/><path d="M69.39,207c6.75-9.26,24-11.64,34.7-12.4l.18,2.56C93.7,198,77.63,200.77,72.12,209Z"/><path class="cls-15" d="M69.39,207,72.12,209"/><path d="M104.09,194.64c10.25-.73,26.09.52,33.83,7.59l-.95,1c-7.23-6.76-22.62-6.78-32.7-6.06Z"/><path class="cls-15" d="M104.09,194.64l.18,2.56"/><path d="M101.64,236.46c-8.76-.35-22-2.29-28.37-8.72l1.38-1.35c5.83,6,18.35,8.74,27,9.09Z"/><path class="cls-15" d="M101.64,236.46l0-1"/><path d="M73.27,227.74A22.55,22.55,0,0,1,68,215.94l3.14-.31c.34,3.44,1.14,8.39,3.52,10.76Z"/><path class="cls-15" d="M73.27,227.74l1.38-1.35"/><path d="M262.8,226.83c-4-8.75-19.4-13.6-29.56-15.82l.55-2.51c10.27,2.25,26.88,6.83,32,16.87Z"/><path class="cls-15" d="M262.8,226.83l3-1.46"/><path d="M233.24,211c-10.59-2.32-27.44-5.28-35.56,1.46l-.89-1.09c8.77-7,26.29-5.22,37-2.88Z"/><path class="cls-15" d="M233.24,211l.55-2.51"/><path d="M69.26,217.34a24,24,0,0,1-6.51-1.67l.78-1.58c2.41,1.24,5.86.13,6.33.15Z"/><path d="M62.75,215.67c-3-1.55-4.86-5.31-4.79-5.21l.7-.7a15.68,15.68,0,0,0,4.87,4.33Z"/><path class="cls-15" d="M62.75,215.67l.78-1.58"/><path d="M70.15,209.56a29.32,29.32,0,0,1-6.23-3.23l1-1.43c3.17,2.3,5.8,1.43,6.42,1.55Z"/><path class="cls-15" d="M70.15,209.56l1.21-3.11"/><path d="M63.92,206.33c-5-3.63-5.91-8.19-5.84-8.05l.63-.51a18.13,18.13,0,0,0,6.23,7.13Z"/><path class="cls-15" d="M63.92,206.33l1-1.43"/><path d="M68,215.94c-.24-2.46-.21-6.43,1.4-8.9L72.12,209c-1.11,1.4-1.21,4.43-1,6.67Z"/><path class="cls-15" d="M68,215.94l3.14-.31"/><path d="M263,228c.24-.05,4.64.07,7.54-1.37l.78,1.57a62.83,62.83,0,0,1-7.43,2.83Z"/><path d="M271.11,230.87a46.05,46.05,0,0,0,5.53-3.41l.39.5a18.19,18.19,0,0,1-5.14,4.49Z"/><path d="M264.17,224.44c.35,0,5,1.42,7.45.2l.75,1.59c-3.08,1.38-8.28,1.53-7.94,1.54Z"/><path class="cls-15" d="M264.17,224.44l.26,3.33"/><path d="M271.62,224.64c3.56-1.6,7.37-7.1,7.41-7.16l.52.47c0-.06-3.1,6.3-7.18,8.28Z"/><path class="cls-15" d="M271.62,224.64l.75,1.59"/><path d="M262.86,233.45c.53-2.35.8-5.07-.06-6.62l3-1.46c1.13,2.55.75,6.06.14,8.76a1.59,1.59,0,0,1-2,1.17h0A1.57,1.57,0,0,1,262.86,233.45Z"/><g id="pupilas"><path class="cls-16" d="M114,200.37A13.87,13.87,0,1,1,99.2,213.08,13.75,13.75,0,0,1,114,200.37Z"/></g><g id="El_pico" data-name="El pico"><path class="cls-3" d="M168.75,227.57c-11.69-.49-17.87,10.31-26.28,12.79-10.21,3-35.16,3.94-35.25,4s-6.63,11.88-13,20.95C89.68,271.72,83.41,279,83.4,279s-10.82,13.46-8.34,20.08c10.1,27,72.47,12.78,87.48,13.66s76.74,22.82,89.28-3.37c2.55-5.32-5.33-17.34-5.34-17.36s-4.64-9.12-9-18.63-8.16-19-8.21-19-23.43-5.72-32.81-9.92C187.58,240.49,181.72,228.1,168.75,227.57Z"/><path d="M166.77,234.84c0-.1.06,3.53-.84,5.09l-2.27-1.41a25.63,25.63,0,0,0,1.69-4.11Z"/><path d="M165.93,239.93c-1.31,2-5.83,4.08-5.76,4l-.77-.87a32.62,32.62,0,0,0,4.26-4.57Z"/><path class="cls-15" d="M165.93,239.93l-2.27-1.41"/><path d="M175.21,235.63a30.59,30.59,0,0,0,1.72,4.43l-2,1.18c-.87-1.57-1-5.31-1-5.26Z"/><path class="cls-15" d="M175.21,235.63l-1.36.35"/><path d="M176.93,240.06a38,38,0,0,0,3.88,4.68l-.84.8c.06.05-3.94-2.41-5.08-4.3Z"/><path class="cls-15" d="M176.93,240.06l-2,1.18"/></g><g id="cejas"><path class="cls-17" d="M69.92,162.6S91.22,159,106.7,160c16,.94,37.38,7.21,37.38,7.21"/><path class="cls-17" d="M270.65,178.17s-21.6-5.61-35.3-7c-14.12-1.44-37.1-.25-37.1-.25"/></g><rect class="cls-18" x="308.33" y="220.65" width="15.1" height="85.71" transform="translate(67.42 -64.34) rotate(13.01)"/><rect class="cls-19" x="308.98" y="219.52" width="8.22" height="85.71" transform="translate(67.09 -63.74) rotate(13.01)"/><path class="cls-20" d="M314,307.6l-10.19,13.23a1.09,1.09,0,0,1-2-.38L298.2,304Z"/><path d="M301.09,317.22l.72,3.23a1.12,1.12,0,0,0,2,.39l2-2.53Z"/><path class="cls-21" d="M329.74,212.41l-2.88-.61c-3.95-.91-7.63,2.21-8.1,4.25h0c-.47,2-.45,3.78,1.59,4.25l10.41,2.41c2,.47,2.67-1.13,3.14-3.17h0C334.37,217.5,332.77,213.11,329.74,212.41Z"/><rect class="cls-22" x="315.9" y="219.97" width="18.26" height="7.58" rx="0.61" transform="translate(58.71 -67.42) rotate(13.01)"/></g></g></svg>