<svg xmlns="http://www.w3.org/2000/svg" xmlns:xlink="http://www.w3.org/1999/xlink" viewBox="0 0 147.68 120.03"><defs><style>.cls-1,.cls-2{fill:none;}.cls-1,.cls-10,.cls-12,.cls-3,.cls-4,.cls-7,.cls-8,.cls-9{stroke:#000;stroke-miterlimit:10;}.cls-1,.cls-10,.cls-3,.cls-4,.cls-7,.cls-9{stroke-width:0.25px;}.cls-3,.cls-5{fill:#ed4f36;}.cls-4,.cls-6{fill:#694342;}.cls-7,.cls-9{fill:#ffe8c6;}.cls-14,.cls-8{fill:#fff;}.cls-8{stroke-width:0.5px;}.cls-15,.cls-9{stroke-linecap:round;}.cls-10{fill:#feaf9e;}.cls-11{clip-path:url(#clip-path);}.cls-12{fill:#7e2d3a;}.cls-13{fill:#fea49c;}.cls-15{fill:#a0dbf0;stroke:#4a91cd;stroke-linejoin:round;}</style><clipPath id="clip-path"><path class="cls-1" d="M97.67,64.74c-3.42-.17-9.91-4.85-11.31-3.62-11.34,10-28.91,8.39-33.2,8.32-4.67-.08-9.67-.62-10.24,1.1-1.22,3.67,5.69,8.17,13,9.35s12.79,1.88,20.33,0c10.54-2.64,12.87-5.33,16-8.28C96.6,67.5,98.72,64.8,97.67,64.74Z"/></clipPath></defs><title>Correct feedbacK_panda rojo_5to0</title><g id="Layer_2" data-name="Layer 2"><g id="Layer_1-2" data-name="Layer 1"><rect class="cls-2" width="147.68" height="120.03"/><path class="cls-3" d="M91.88,88.88c2-.34,28.69-7.93,34.57-15.89s8.56-18.36,8.7-26.36-11.58-12.19-15.72-4.36c-2,8.31.74,13.33-2.88,20.74s-25,19.61-25,19.61"/><path class="cls-4" d="M124.64,56.35c3.18-.36,7.83,2.1,8.2,3.86a53.46,53.46,0,0,0,3-11.46c.49-5-3.26-11.17-8.78-11.66s-9.53,2.83-9.91,7.21-.26,9.6,1.43,10.88A9,9,0,0,0,124.64,56.35Z"/><path class="cls-5" d="M111.07,120c-13.94-42-27-44.15-31.95-43.84-11.23.71-14.32,11.29-14.5,19.49-.05,2.43-.87,17.67-2,24.35Z"/><path d="M62.79,120c1.08-6.68,1.91-22,2-24.35.12-5.56,1.76-18.57,14.38-19.36q.38,0,.75,0c10.91,0,21.63,15.34,31.06,43.74h.26c-9.48-28.57-20.29-44-31.32-44-.26,0-.51,0-.77,0a13.58,13.58,0,0,0-11.49,7c-2.44,4.18-3.05,9.17-3.12,12.62,0,2.3-.88,17.7-2,24.35Z"/><path class="cls-6" d="M111.68,120c-1.45-4.61-6.91-18.32-8.92-22.57C95.6,82.31,86.94,76.24,82.92,76.31c-12,.23-9.26,25.75-11,34.39-.4,2-.76,5.74-1.3,9.33Z"/><path d="M70.72,120c.22-1.47.41-3.3.59-4.6.25-1.9.47-3.55.7-4.71a69,69,0,0,0,.79-9C73.31,91.11,74,76.61,82.92,76.44H83c3.78,0,12.38,5.68,19.66,21.07,2,4.24,7.44,17.92,8.9,22.52h.26c-1.43-4.56-6.92-18.37-8.93-22.62-7.33-15.5-16-21.22-19.89-21.22h-.07c-9.13.17-9.85,14.81-10.37,25.5a68.52,68.52,0,0,1-.78,9c-.24,1.17-.46,2.82-.71,4.73-.18,1.3-.37,3.15-.6,4.63Z"/><path class="cls-5" d="M63.55,120c-4.93-4.77-10.31-10-9.61-13.8S63,93.3,66,93.42L68.35,87C66.56,87,49.74,91.62,45.77,101c-2.61,6.14.91,13.92,5.13,19.08Z"/><path d="M45.89,101c3.8-9,19.71-13.61,22.28-13.86l-.11.3h.26l.21-.56h-.18c-1.87,0-18.74,4.72-22.7,14C42.5,108.32,48.3,117,50.74,120h.32C48.73,117.19,42.73,108.42,45.89,101Z"/><path d="M64.91,93.59c-2.53.37-10.34,8.56-11.09,12.62-.67,3.61,3.86,8.19,8.42,12.57.32.31.82.94,1.13,1.25h.36c-.37-.37-.9-1-1.28-1.39-4.51-4.34-9-8.91-8.39-12.38.72-3.9,8.74-12.05,10.88-12.42A1,1,0,0,0,64.91,93.59Z"/><path class="cls-7" d="M89.6,37.18c-3.2-.37-8.73-9.59-10.7-17s1.11-16,3.81-16.1,17.22,15.49,17.22,31c0,0,8.85-.86,11.92,2.95.25.56-6.44-2.28-8.11-.61-.09.09,5.72,1.23,7.13,6.39.09.34-9.47-3.2-11.93-2.58S89.6,37.18,89.6,37.18Z"/><path class="cls-3" d="M53.57,21.07C58.08,18.86,77.92,17.88,95.38,34S112.9,62.39,112.9,62.39a10,10,0,0,1,5.39,3.19s-3-.59-4.81.89a5.75,5.75,0,0,1,2.14,4.29s-1.1-1.83-2.67-.68C111,71.49,92.06,84,81.12,86s-37.87-.37-41.56.24-13.28,2.83-14.14,4.43,2.95-4.67,4.79-6-6.51.37-8.36,1.48,2.95-6.76,10.21-9C32.06,77.14,24.06,35.58,53.57,21.07Z"/><path class="cls-8" d="M57.57,58.45c-2.8-2.77-3.1-13.51,3.81-16.42s12.84,7.06,13.27,10.28-3.25,6.6-6.35,7.52S59.13,60,57.57,58.45Z"/><path class="cls-8" d="M88.12,36.64c1.81-.81,9.22,2.09,10.33,10.47.15,2.16-.07,4.33-3,5.6S88.86,51.81,88,50,84.28,38.36,88.12,36.64Z"/><path class="cls-9" d="M40.38,35.87c-.74-1.35-9.31-11.84-19-14.55S4.15,22.92,2.67,26.24,13.61,56.36,25.79,60.3c0,0-9,2.58-10.21,6.64-.25,2,4.06-1.48,7.5-1.72,0,0-3.2,3.93-2.83,6.14,1.23.25,8.28-5.53,11.85-6.14"/><path class="cls-7" d="M83.39,51.38c.75-.16,4.12,5.72,9.94,6.95s16,5.33,17.38,13.2c0,0-13.12,10-25.74,13.77s-38.45,1.31-42.3.82S33,72,38.82,66.69c9.68-8.88,24.26-2.38,32.62-4.84S81.81,51.73,83.39,51.38Z"/><path class="cls-7" d="M54,32.69c3.24-1.61,7.87-.12,9.84,1,.74.37.92-.8-1.17-2.34a13.23,13.23,0,0,0-11.06-2.4c-5,1.23-5.78,4.43-5.29,6.52S47.94,35.72,54,32.69Z"/><path class="cls-7" d="M79,29.8c.67.86,2.21-2,3.56-2.33s3.2-.31,3.75-.49-4.06-3.82-6-3.51S77.86,28.33,79,29.8Z"/><path class="cls-10" d="M31.28,57.24C32.47,58,26.52,39,21.69,32.67S9.23,26.61,7.92,29.39,13.66,46.42,31.28,57.24Z"/><ellipse cx="69.74" cy="52.29" rx="3.12" ry="4.54" transform="translate(-10.1 17.3) rotate(-13.2)"/><ellipse cx="84.53" cy="56.04" rx="0.66" ry="1.05" transform="translate(-12.65 27.04) rotate(-16.92)"/><ellipse cx="93.09" cy="47.21" rx="2.57" ry="4" transform="translate(-9.56 28.3) rotate(-16.45)"/><g class="cls-11"><path class="cls-12" d="M97.42,53.89c-2.85,1.89-10.39,10.45-21.23,13S57.54,70.37,53.4,69.09s-7.61.37-7.87,4.25,3.83,10.19,11.18,11.37,17.39.86,26.16-4.29S98.7,69.89,99.82,64.32,98,53.48,97.42,53.89Z"/><path class="cls-13" d="M85.5,59.9c3.68.46,10.11,3.55,11.23,7.26S82,86.09,65.13,84.31,38.34,83.2,38,74.15s-1.79-8,9.24-8.5S83.5,59.65,85.5,59.9Z"/><path class="cls-14" d="M41.16,69.76C43,73,54.8,75.38,66.72,73.86c11.69-1.49,21.56-5.79,26.64-11s7.06-7.76,7.18-10.72-7.16-6.77-7.16-6.77S74.84,60.61,67.49,60.93,43.2,59.84,39.87,58.79,39.14,66.32,41.16,69.76Z"/></g><path class="cls-1" d="M97.67,64.74c-3.42-.17-9.91-4.85-11.31-3.62-11.34,10-28.91,8.39-33.2,8.32-4.67-.08-9.67-.62-10.24,1.1-1.22,3.67,5.69,8.17,13,9.35s12.79,1.88,20.33,0c10.54-2.64,12.87-5.33,16-8.28C96.6,67.5,98.72,64.8,97.67,64.74Z"/><path class="cls-15" d="M136,92.4s-2.78,7.91,5.38,10.26c0,0-9.93-3.78-12.54,1.77,0,0,.76-9.85-.84-10.6C128,93.83,134.65,94,136,92.4Z"/><path class="cls-15" d="M49.17,105.47s-6.27,4.81-6.42,6.71c0,0-5.69-8.32-8.17-8.76,0,0,6.42-1.16,7.15-3.64C41.73,99.78,42.6,104,49.17,105.47Z"/></g></g></svg>