<svg xmlns="http://www.w3.org/2000/svg" viewBox="0 0 127.6 120.02"><defs><style>.cls-1,.cls-8{fill:none;}.cls-2,.cls-3{fill:#2f3c4c;}.cls-2,.cls-5,.cls-6,.cls-7,.cls-8{stroke:#000;stroke-linecap:round;stroke-miterlimit:10;}.cls-2,.cls-5,.cls-6{stroke-width:0.25px;}.cls-4,.cls-5{fill:#faf8eb;}.cls-6{fill:#fea49c;}.cls-7{fill:#fff;}.cls-7,.cls-8{stroke-width:0.5px;}</style></defs><title>Mistake feedback_oso polar_5to0</title><g id="Layer_2" data-name="Layer 2"><g id="Layer_1-2" data-name="Layer 1"><rect class="cls-1" width="127.6" height="120"/><path class="cls-2" d="M81.19,72.68c.76-1.84,14.73-4.09,21.7,7.5s11,18.46,7.9,22.17-15.61,0-19.41-2.48S75.71,85.92,81.19,72.68Z"/><path class="cls-3" d="M111.09,120c-2.35-6.69-5.46-14.23-8-20.72C94.64,77.61,80.09,57.39,54,61.22,40.85,63.15,41.75,99.9,39.68,120Z"/><path d="M39.8,120c.4-3.9.53-8.87.84-13.61C41.92,87,43.51,62.89,54,61.35c21.43-3.15,37.92,9.63,49,38,.74,1.91,1.51,3.81,2.31,5.84,1.89,4.74,4,10.12,5.67,14.84h.26c-1.66-4.75-3.79-10.17-5.7-14.94-.8-2-1.56-3.92-2.31-5.83C92.1,70.77,75.54,57.93,54,61.1c-10.69,1.57-12.28,25.81-13.57,45.29-.31,4.75-.44,9.73-.84,13.63Z"/><path class="cls-4" d="M111.25,120c-7.22-19.5-19.6-38.73-38.38-36.25-17.92,2.36-24.06,9.8-28.51,22.1-1.51,4.69-2.81,11.42-3.65,14.15Z"/><path d="M40.84,120c.33-1.1.6-3.23,1.09-5.1.73-2.77,1.64-6.2,2.54-9,4.41-12.15,10.47-19.65,28.42-22a25.24,25.24,0,0,1,3.32-.22c17.59,0,28.7,19.6,34.91,36.35h.27c-6.24-16.85-17.42-36.6-35.18-36.6a26,26,0,0,0-3.36.22C54.78,86,48.67,93.58,44.24,105.83c-.91,2.82-1.82,6.26-2.55,9-.5,1.91-.78,4.08-1.11,5.17Z"/><path class="cls-3" d="M18.3,120H43.15c-2.45-5.66-8.24-18.61-8.24-18.61A60.42,60.42,0,0,0,42.34,94l4.75-16.57c-11.17-1-33.66,8.59-37.31,23.41C9.17,106.54,13.94,116.1,18.3,120Z"/><path d="M42.44,94.12l-.2-.15a60.08,60.08,0,0,1-7.41,7.34l-.07.07,0,.08c.06.13,5.78,12.94,8.21,18.56h.28c-2.31-5.33-7.72-17.46-8.23-18.57A59.73,59.73,0,0,0,42.44,94.12Z"/><path d="M18.11,120h.39c-4.32-3.8-9.2-13.5-8.6-19.11,3.73-15.12,26.65-24.28,37.18-23.32l0-.24c-5.77-.54-14.23,1.73-21.54,5.77-5,2.75-13.68,8.72-15.9,17.74C9,106.57,13.74,116,18.11,120Z"/><path class="cls-2" d="M65.83,18.5c1,6.16,9,10,15.58,8.92s11-6.92,10-13.07S84.33,4.06,77.79,5.12,64.83,12.34,65.83,18.5Z"/><path class="cls-5" d="M50.39,5.67c12.09-.84,33.34,8.65,41.88,27.07s6.45,31.64-8,39.6S49.24,80.6,34,74.75,14.26,56.59,16.2,41.39,29.27,7.14,50.39,5.67Z"/><path class="cls-2" d="M26,29.06c-3.3,5.3-12.19,5.71-17.81,2.2S.68,20.62,4,15.33,14.51,8.59,20.13,12.1,29.29,23.77,26,29.06Z"/><path class="cls-6" d="M24.94,30.09c-2.5,4-9.23,4.31-13.48,1.66a8.82,8.82,0,0,1-3.17-12,8.82,8.82,0,0,1,12.22-2.45C24.76,19.9,27.44,26.08,24.94,30.09Z"/><path class="cls-2" d="M47.23,34.45c4.27,1.08,13.06,3.72,12.18,7.68-1.41,6.38-6.57,7.15-12.53,7.28-12.78.29-16.06-3.25-18.48-7.13S30.53,30.21,47.23,34.45Z"/><path class="cls-2" d="M73.48,18.72c2.73-.82,9.67,2.48,13.14,10.65s.2,13.53-4.27,15.74-11.9-.93-14.73-8.7S66.94,20.68,73.48,18.72Z"/><path class="cls-7" d="M45.24,38.36c5.25-.09,9.27,2.13,9.5,4.48s-2.36,3.76-5.41,3.78-9.41-1.52-8.92-4.39A4.65,4.65,0,0,1,45.24,38.36Z"/><path class="cls-7" d="M75.21,30.84c1.76-.55,5,1.73,5.77,5.45s-.67,6.33-2.74,6.79S73,41.81,72.65,37.16,73.88,31.25,75.21,30.84Z"/><ellipse cx="50.69" cy="42.54" rx="1.99" ry="2.51" transform="translate(-6.05 8.48) rotate(-9.03)"/><ellipse cx="78.41" cy="37.94" rx="1.66" ry="2.6" transform="translate(-3.99 9.69) rotate(-6.9)"/><path d="M67.77,48.46c.68,0,1.06-2.68,3.79-2.7s4.25,7.66-1.81,9.57-10.48-4.26-7.85-6.95S66.54,48.47,67.77,48.46Z"/><path class="cls-8" d="M67.77,60.29s.59-3.6.73-5"/><path class="cls-8" d="M62.91,63.76a6.87,6.87,0,0,1,4.86-3.47c1.37-.18,3.31,2.61,3.25,3.28"/><path class="cls-2" d="M90.08,60c4.16-2.26,9.72-2.24,12.74-.48s13.88,24.61,13.67,31.3-3.89,11.24-7.44,12.65S95.64,90.6,92,86s-8.72-8.47-9.12-13S86,62.22,90.08,60Z"/></g></g></svg>