<svg xmlns="http://www.w3.org/2000/svg" viewBox="0 0 101.86 119.37"><defs><style>.cls-1{fill:#f85823;}.cls-2{fill:#a94044;}.cls-3{fill:#f35a27;}</style></defs><title>Recurso 49</title><g id="Capa_2" data-name="Capa 2"><g id="Capa_1-2" data-name="Capa 1"><path class="cls-1" d="M89,119.37H12.85A12.87,12.87,0,0,1,0,106.52V12.85A12.87,12.87,0,0,1,12.85,0H89a12.87,12.87,0,0,1,12.85,12.85v93.67A12.87,12.87,0,0,1,89,119.37ZM12.85,1.3A11.56,11.56,0,0,0,1.3,12.85v93.67a11.56,11.56,0,0,0,11.55,11.55H89a11.56,11.56,0,0,0,11.55-11.55V12.85A11.56,11.56,0,0,0,89,1.3Z"/><path class="cls-2" d="M58.18,50.75H43.68a6.38,6.38,0,0,1,0-12.75h14.5a6.38,6.38,0,0,1,0,12.75ZM43.68,38.62a5.76,5.76,0,1,0,0,11.51h14.5a5.76,5.76,0,1,0,0-11.51Z"/><path class="cls-2" d="M58.18,66.06H43.68a6.38,6.38,0,0,1,0-12.75h14.5a6.38,6.38,0,0,1,0,12.75ZM43.68,53.93a5.76,5.76,0,1,0,0,11.51h14.5a5.76,5.76,0,1,0,0-11.51Z"/><path class="cls-2" d="M58.18,81.37H43.68a6.38,6.38,0,0,1,0-12.75h14.5a6.38,6.38,0,0,1,0,12.75ZM43.68,69.23a5.76,5.76,0,0,0,0,11.52h14.5a5.76,5.76,0,0,0,0-11.52Z"/><circle class="cls-3" cx="50.93" cy="44.57" r="4.63"/><circle class="cls-3" cx="50.93" cy="59.88" r="4.63"/><circle class="cls-3" cx="50.93" cy="75.19" r="4.63"/></g></g></svg>