<svg xmlns="http://www.w3.org/2000/svg" viewBox="0 0 101.86 119.37"><defs><style>.cls-1{fill:#f85823;}.cls-2{fill:#a94044;}.cls-3{fill:#f35a27;}</style></defs><title>Recurso 53</title><g id="Capa_2" data-name="Capa 2"><g id="Capa_1-2" data-name="Capa 1"><path class="cls-1" d="M89,119.37H12.85A12.87,12.87,0,0,1,0,106.52V12.85A12.87,12.87,0,0,1,12.85,0H89a12.87,12.87,0,0,1,12.85,12.85v93.67A12.87,12.87,0,0,1,89,119.37ZM12.85,1.3A11.56,11.56,0,0,0,1.3,12.85v93.67a11.56,11.56,0,0,0,11.55,11.55H89a11.56,11.56,0,0,0,11.55-11.55V12.85A11.56,11.56,0,0,0,89,1.3Z"/><path class="cls-2" d="M57,28.37H44.83a6.26,6.26,0,1,1,0-12.52H57a6.26,6.26,0,0,1,0,12.52ZM44.83,16.46a5.66,5.66,0,0,0,0,11.31H57a5.66,5.66,0,1,0,0-11.31Z"/><path class="cls-2" d="M57,43.4H44.83a6.26,6.26,0,0,1,0-12.52H57A6.26,6.26,0,0,1,57,43.4ZM44.83,31.49a5.65,5.65,0,0,0,0,11.3H57a5.65,5.65,0,1,0,0-11.3Z"/><path class="cls-2" d="M57,58.43H44.83a6.26,6.26,0,0,1,0-12.52H57a6.26,6.26,0,0,1,0,12.52ZM44.83,46.52a5.65,5.65,0,0,0,0,11.3H57a5.65,5.65,0,1,0,0-11.3Z"/><path class="cls-2" d="M57,73.46H44.83a6.26,6.26,0,0,1,0-12.52H57a6.26,6.26,0,0,1,0,12.52ZM44.83,61.54a5.66,5.66,0,0,0,0,11.31H57a5.66,5.66,0,1,0,0-11.31Z"/><path class="cls-2" d="M57,88.49H44.83a6.26,6.26,0,0,1,0-12.52H57a6.26,6.26,0,0,1,0,12.52ZM44.83,76.57a5.66,5.66,0,0,0,0,11.31H57a5.66,5.66,0,1,0,0-11.31Z"/><path class="cls-2" d="M57,103.51H44.83a6.26,6.26,0,1,1,0-12.51H57a6.26,6.26,0,1,1,0,12.51ZM44.83,91.6a5.66,5.66,0,0,0,0,11.31H57A5.66,5.66,0,1,0,57,91.6Z"/><circle class="cls-3" cx="50.93" cy="22.3" r="4.55"/><circle class="cls-3" cx="50.93" cy="37.33" r="4.55"/><circle class="cls-3" cx="50.93" cy="52.36" r="4.55"/><circle class="cls-3" cx="50.93" cy="67.39" r="4.55"/><circle class="cls-3" cx="50.93" cy="82.42" r="4.55"/><circle class="cls-3" cx="50.93" cy="97.45" r="4.55"/></g></g></svg>