<svg xmlns="http://www.w3.org/2000/svg" viewBox="0 0 101.86 119.37"><defs><style>.cls-1{fill:#f85823;}.cls-2{fill:none;stroke:#a94044;stroke-miterlimit:10;stroke-width:0.61px;}.cls-3{fill:#f35a27;}</style></defs><title>Recurso 42</title><g id="Capa_2" data-name="Capa 2"><g id="Capa_1-2" data-name="Capa 1"><path class="cls-1" d="M89,119.37H12.85A12.87,12.87,0,0,1,0,106.52V12.85A12.87,12.87,0,0,1,12.85,0H89a12.87,12.87,0,0,1,12.85,12.85v93.67A12.87,12.87,0,0,1,89,119.37ZM12.85,1.3A11.56,11.56,0,0,0,1.3,12.85v93.67a11.56,11.56,0,0,0,11.55,11.55H89a11.56,11.56,0,0,0,11.55-11.55V12.85A11.56,11.56,0,0,0,89,1.3Z"/><rect class="cls-2" x="30.2" y="23.52" width="41.47" height="11.96" rx="5.44"/><rect class="cls-2" x="30.2" y="38.61" width="41.47" height="11.96" rx="5.44"/><rect class="cls-2" x="30.2" y="53.7" width="41.47" height="11.96" rx="5.44"/><rect class="cls-2" x="30.2" y="68.79" width="41.47" height="11.96" rx="5.44"/><rect class="cls-2" x="30.2" y="83.89" width="41.47" height="11.96" rx="5.44"/><circle class="cls-3" cx="42.48" cy="29.69" r="4.57"/><circle class="cls-3" cx="59.38" cy="29.69" r="4.57"/><circle class="cls-3" cx="42.48" cy="44.79" r="4.57"/><circle class="cls-3" cx="59.38" cy="44.79" r="4.57"/><circle class="cls-3" cx="42.48" cy="59.88" r="4.57"/><circle class="cls-3" cx="59.38" cy="59.88" r="4.57"/><circle class="cls-3" cx="42.48" cy="74.97" r="4.57"/><circle class="cls-3" cx="59.38" cy="74.97" r="4.57"/><circle class="cls-3" cx="42.48" cy="90.06" r="4.57"/><circle class="cls-3" cx="59.38" cy="90.06" r="4.57"/></g></g></svg>