<svg xmlns="http://www.w3.org/2000/svg" viewBox="0 0 299.4 103.31"><defs><style>.cls-1{fill:#f85823;}.cls-2{fill:#a94044;}.cls-3{fill:#f35a27;}</style></defs><title>Recurso 52</title><g id="Capa_2" data-name="Capa 2"><g id="Capa_1-2" data-name="Capa 1"><path class="cls-1" d="M291.36,83.57H193.8a8,8,0,0,1-8.05-8V15.27a8.06,8.06,0,0,1,8.05-8h97.56a8.06,8.06,0,0,1,8,8.05V75.53A8,8,0,0,1,291.36,83.57Zm-97.56-75a6.7,6.7,0,0,0-6.7,6.7V75.53a6.71,6.71,0,0,0,6.7,6.7h97.56a6.71,6.71,0,0,0,6.7-6.7V15.27a6.71,6.71,0,0,0-6.7-6.7Z"/><path class="cls-1" d="M76.84,103.31H8.05a8,8,0,0,1-8-8V8.05A8.06,8.06,0,0,1,8.05,0H76.84a8.06,8.06,0,0,1,8,8.05V95.27A8,8,0,0,1,76.84,103.31ZM8.05,1.34A6.72,6.72,0,0,0,1.34,8.05V95.27A6.72,6.72,0,0,0,8.05,102H76.84a6.71,6.71,0,0,0,6.7-6.7V8.05a6.72,6.72,0,0,0-6.7-6.71Z"/><path class="cls-2" d="M74.55,20.39H10.34a6.31,6.31,0,1,1,0-12.61H74.55a6.31,6.31,0,0,1,0,12.61ZM10.34,8.48a5.61,5.61,0,1,0,0,11.21H74.55a5.61,5.61,0,0,0,0-11.21Z"/><path class="cls-2" d="M74.55,35.42H10.34a6.31,6.31,0,1,1,0-12.61H74.55a6.31,6.31,0,0,1,0,12.61ZM10.34,23.51a5.61,5.61,0,1,0,0,11.21H74.55a5.61,5.61,0,0,0,0-11.21Z"/><path class="cls-2" d="M74.55,50.45H10.34a6.31,6.31,0,1,1,0-12.61H74.55a6.31,6.31,0,0,1,0,12.61ZM10.34,38.54a5.61,5.61,0,1,0,0,11.21H74.55a5.61,5.61,0,0,0,0-11.21Z"/><path class="cls-2" d="M74.55,65.48H10.34a6.31,6.31,0,1,1,0-12.61H74.55a6.31,6.31,0,0,1,0,12.61ZM10.34,53.56a5.61,5.61,0,0,0,0,11.22H74.55a5.61,5.61,0,0,0,0-11.22Z"/><path class="cls-2" d="M74.55,80.51H10.34a6.31,6.31,0,1,1,0-12.61H74.55a6.31,6.31,0,0,1,0,12.61ZM10.34,68.59a5.61,5.61,0,1,0,0,11.22H74.55a5.61,5.61,0,0,0,0-11.22Z"/><path class="cls-2" d="M74.55,95.53H10.34a6.3,6.3,0,1,1,0-12.6H74.55a6.3,6.3,0,0,1,0,12.6ZM10.34,83.62a5.61,5.61,0,1,0,0,11.22H74.55a5.61,5.61,0,0,0,0-11.22Z"/><circle class="cls-3" cx="16.63" cy="14.28" r="4.55"/><circle class="cls-3" cx="33.47" cy="14.28" r="4.55"/><circle class="cls-3" cx="50.52" cy="14.28" r="4.55"/><circle class="cls-3" cx="16.63" cy="29.31" r="4.55"/><circle class="cls-3" cx="33.47" cy="29.31" r="4.55"/><circle class="cls-3" cx="50.52" cy="29.31" r="4.55"/><circle class="cls-3" cx="16.63" cy="44.33" r="4.55"/><circle class="cls-3" cx="33.47" cy="44.33" r="4.55"/><circle class="cls-3" cx="50.52" cy="44.33" r="4.55"/><circle class="cls-3" cx="16.63" cy="59.36" r="4.55"/><circle class="cls-3" cx="33.47" cy="59.36" r="4.55"/><circle class="cls-3" cx="50.52" cy="59.36" r="4.55"/><circle class="cls-3" cx="68.25" cy="14.28" r="4.55"/><circle class="cls-3" cx="68.25" cy="29.31" r="4.55"/><circle class="cls-3" cx="68.25" cy="44.33" r="4.55"/><circle class="cls-3" cx="68.25" cy="59.36" r="4.55"/><circle class="cls-3" cx="16.63" cy="74.39" r="4.55"/><circle class="cls-3" cx="33.47" cy="74.39" r="4.55"/><circle class="cls-3" cx="50.52" cy="74.39" r="4.55"/><circle class="cls-3" cx="68.25" cy="74.39" r="4.55"/><circle class="cls-3" cx="16.63" cy="89.42" r="4.55"/><circle class="cls-3" cx="33.47" cy="89.42" r="4.55"/><circle class="cls-3" cx="50.52" cy="89.42" r="4.55"/><circle class="cls-3" cx="68.25" cy="89.42" r="4.55"/><path class="cls-1" d="M143.23,103.31h-16a8,8,0,0,1-8-8V8.05a8.06,8.06,0,0,1,8-8h16a8.06,8.06,0,0,1,8,8.05V95.27A8,8,0,0,1,143.23,103.31Zm-16-102a6.71,6.71,0,0,0-6.7,6.71V95.27a6.71,6.71,0,0,0,6.7,6.7h16a6.71,6.71,0,0,0,6.7-6.7V8.05a6.72,6.72,0,0,0-6.7-6.71Z"/><path class="cls-2" d="M141.33,20.34h-12.2a6.26,6.26,0,1,1,0-12.51h12.2a6.26,6.26,0,1,1,0,12.51ZM129.13,8.43a5.66,5.66,0,0,0,0,11.31h12.2a5.66,5.66,0,1,0,0-11.31Z"/><path class="cls-2" d="M141.33,35.37h-12.2a6.26,6.26,0,1,1,0-12.51h12.2a6.26,6.26,0,1,1,0,12.51Zm-12.2-11.91a5.66,5.66,0,0,0,0,11.31h12.2a5.66,5.66,0,1,0,0-11.31Z"/><path class="cls-2" d="M141.33,50.4h-12.2a6.26,6.26,0,1,1,0-12.52h12.2a6.26,6.26,0,0,1,0,12.52Zm-12.2-11.91a5.66,5.66,0,0,0,0,11.31h12.2a5.66,5.66,0,1,0,0-11.31Z"/><path class="cls-2" d="M141.33,65.43h-12.2a6.26,6.26,0,1,1,0-12.52h12.2a6.26,6.26,0,0,1,0,12.52Zm-12.2-11.91a5.66,5.66,0,0,0,0,11.31h12.2a5.66,5.66,0,1,0,0-11.31Z"/><path class="cls-2" d="M141.33,80.46h-12.2a6.26,6.26,0,1,1,0-12.52h12.2a6.26,6.26,0,0,1,0,12.52Zm-12.2-11.91a5.65,5.65,0,1,0,0,11.3h12.2a5.65,5.65,0,1,0,0-11.3Z"/><path class="cls-2" d="M141.33,95.49h-12.2a6.26,6.26,0,1,1,0-12.52h12.2a6.26,6.26,0,0,1,0,12.52Zm-12.2-11.91a5.65,5.65,0,1,0,0,11.3h12.2a5.65,5.65,0,1,0,0-11.3Z"/><circle class="cls-3" cx="135.23" cy="14.28" r="4.55"/><circle class="cls-3" cx="135.23" cy="29.31" r="4.55"/><circle class="cls-3" cx="135.23" cy="44.33" r="4.55"/><circle class="cls-3" cx="135.23" cy="59.36" r="4.55"/><circle class="cls-3" cx="135.23" cy="74.39" r="4.55"/><circle class="cls-3" cx="135.23" cy="89.42" r="4.55"/><rect class="cls-1" x="94.29" y="47.62" width="12.74" height="1.82" rx="0.9"/><rect class="cls-1" x="94.29" y="51.46" width="12.74" height="1.82" rx="0.9"/><path class="cls-1" d="M177.51,48.66h-2.9v-2.9a1.28,1.28,0,0,0-1.28-1.28H173a1.28,1.28,0,0,0-1.28,1.28v2.9h-2.91a1.28,1.28,0,0,0-1.27,1.28v.32a1.27,1.27,0,0,0,1.27,1.27h2.91v2.91A1.28,1.28,0,0,0,173,55.72h.31a1.28,1.28,0,0,0,1.28-1.28V51.53h2.9a1.27,1.27,0,0,0,1.28-1.27v-.32A1.28,1.28,0,0,0,177.51,48.66Z"/></g></g></svg>