<svg xmlns="http://www.w3.org/2000/svg" viewBox="0 0 357.41 77.45"><defs><style>.cls-1{fill:#f85823;}.cls-2{fill:#a94044;}.cls-3{fill:#f35a27;}</style></defs><title>Recurso 60</title><g id="Capa_2" data-name="Capa 2"><g id="Capa_1-2" data-name="Capa 1"><path class="cls-1" d="M349.25,77.45h-99a8.18,8.18,0,0,1-8.17-8.16V8.16A8.18,8.18,0,0,1,250.29,0h99a8.17,8.17,0,0,1,8.16,8.16V69.29A8.17,8.17,0,0,1,349.25,77.45Zm-99-76.09a6.81,6.81,0,0,0-6.8,6.8V69.29a6.81,6.81,0,0,0,6.8,6.8h99a6.8,6.8,0,0,0,6.79-6.8V8.16a6.8,6.8,0,0,0-6.79-6.8Z"/><rect class="cls-1" x="133.38" y="25.68" width="12.92" height="1.85" rx="0.93"/><rect class="cls-1" x="133.38" y="29.58" width="12.92" height="1.85" rx="0.93"/><path class="cls-1" d="M227.51,27.1h-2.94v-3a1.3,1.3,0,0,0-1.3-1.29H223a1.29,1.29,0,0,0-1.29,1.29v3h-2.95a1.3,1.3,0,0,0-1.29,1.3v.32A1.29,1.29,0,0,0,218.71,30h2.95V33A1.29,1.29,0,0,0,223,34.25h.32a1.3,1.3,0,0,0,1.3-1.29V30h2.94a1.3,1.3,0,0,0,1.3-1.29V28.4A1.3,1.3,0,0,0,227.51,27.1Z"/><path class="cls-1" d="M114.29,49.78H8.16A8.17,8.17,0,0,1,0,41.62V15.49A8.17,8.17,0,0,1,8.16,7.33H114.29a8.17,8.17,0,0,1,8.16,8.16V41.62A8.17,8.17,0,0,1,114.29,49.78ZM8.16,8.69a6.81,6.81,0,0,0-6.8,6.8V41.62a6.81,6.81,0,0,0,6.8,6.8H114.29a6.81,6.81,0,0,0,6.8-6.8V15.49a6.81,6.81,0,0,0-6.8-6.8Z"/><path class="cls-2" d="M112.3,27.28H10.15a6.35,6.35,0,0,1,0-12.7H112.3a6.35,6.35,0,1,1,0,12.7ZM10.15,15.2a5.74,5.74,0,0,0,0,11.47H112.3a5.74,5.74,0,1,0,0-11.47Z"/><path class="cls-2" d="M112.3,42.53H10.15a6.35,6.35,0,0,1,0-12.7H112.3a6.35,6.35,0,1,1,0,12.7ZM10.15,30.44a5.74,5.74,0,0,0,0,11.47H112.3a5.74,5.74,0,1,0,0-11.47Z"/><circle class="cls-3" cx="18.3" cy="21.13" r="4.61"/><circle class="cls-3" cx="35.38" cy="21.13" r="4.61"/><circle class="cls-3" cx="52.67" cy="21.13" r="4.61"/><circle class="cls-3" cx="69.94" cy="21.13" r="4.61"/><circle class="cls-3" cx="86.86" cy="21.13" r="4.61"/><circle class="cls-3" cx="104.15" cy="21.13" r="4.61"/><circle class="cls-3" cx="18.3" cy="36.37" r="4.61"/><circle class="cls-3" cx="35.38" cy="36.37" r="4.61"/><circle class="cls-3" cx="52.67" cy="36.37" r="4.61"/><circle class="cls-3" cx="69.94" cy="36.37" r="4.61"/><circle class="cls-3" cx="86.86" cy="36.37" r="4.61"/><circle class="cls-3" cx="104.15" cy="36.37" r="4.61"/><path class="cls-1" d="M199.18,49.78H165.4a8.18,8.18,0,0,1-8.17-8.16V15.49a8.18,8.18,0,0,1,8.17-8.16h33.78a8.17,8.17,0,0,1,8.16,8.16V41.62A8.17,8.17,0,0,1,199.18,49.78ZM165.4,8.69a6.81,6.81,0,0,0-6.8,6.8V41.62a6.81,6.81,0,0,0,6.8,6.8h33.78a6.81,6.81,0,0,0,6.8-6.8V15.49a6.81,6.81,0,0,0-6.8-6.8Z"/><path class="cls-2" d="M197.38,27.28H167.2a6.35,6.35,0,1,1,0-12.7h30.18a6.35,6.35,0,0,1,0,12.7ZM167.2,15.2a5.74,5.74,0,0,0,0,11.47h30.18a5.74,5.74,0,0,0,0-11.47Z"/><path class="cls-2" d="M197.38,42.53H167.2a6.35,6.35,0,1,1,0-12.7h30.18a6.35,6.35,0,0,1,0,12.7ZM167.2,30.44a5.74,5.74,0,0,0,0,11.47h30.18a5.74,5.74,0,0,0,0-11.47Z"/><circle class="cls-3" cx="173.75" cy="21.13" r="4.61"/><circle class="cls-3" cx="190.83" cy="21.13" r="4.61"/><circle class="cls-3" cx="173.75" cy="36.37" r="4.61"/><circle class="cls-3" cx="190.83" cy="36.37" r="4.61"/></g></g></svg>