<svg xmlns="http://www.w3.org/2000/svg" viewBox="0 0 399.19 89.14"><defs><style>.cls-1{fill:#f85823;}.cls-2{fill:#a94044;}.cls-3{fill:#f35a27;}</style></defs><title>Recurso 44</title><g id="Capa_2" data-name="Capa 2"><g id="Capa_1-2" data-name="Capa 1"><path class="cls-1" d="M124.74,89.14H8.05a8.07,8.07,0,0,1-8-8.06v-73A8.06,8.06,0,0,1,8.05,0H124.74a8.06,8.06,0,0,1,8,8.05v73A8.07,8.07,0,0,1,124.74,89.14ZM8.05,1.35a6.7,6.7,0,0,0-6.7,6.7v73a6.71,6.71,0,0,0,6.7,6.71H124.74a6.72,6.72,0,0,0,6.7-6.71v-73a6.71,6.71,0,0,0-6.7-6.7Z"/><path class="cls-1" d="M391.13,89.14H274.45a8.07,8.07,0,0,1-8.05-8.06v-73a8.06,8.06,0,0,1,8.05-8H391.13a8.07,8.07,0,0,1,8.06,8.05v73A8.07,8.07,0,0,1,391.13,89.14ZM274.45,1.35a6.71,6.71,0,0,0-6.71,6.7v73a6.72,6.72,0,0,0,6.71,6.71H391.13a6.72,6.72,0,0,0,6.71-6.71v-73a6.71,6.71,0,0,0-6.71-6.7Z"/><path class="cls-2" d="M122.94,20.13H9.85a6.27,6.27,0,1,1,0-12.53H122.94a6.27,6.27,0,1,1,0,12.53ZM9.85,8.21a5.66,5.66,0,0,0,0,11.32H122.94a5.66,5.66,0,0,0,0-11.32Z"/><path class="cls-2" d="M122.94,35.18H9.85a6.27,6.27,0,1,1,0-12.53H122.94a6.27,6.27,0,1,1,0,12.53ZM9.85,23.25a5.66,5.66,0,0,0,0,11.32H122.94a5.66,5.66,0,0,0,0-11.32Z"/><path class="cls-2" d="M122.94,50.22H9.85a6.27,6.27,0,1,1,0-12.53H122.94a6.27,6.27,0,1,1,0,12.53ZM9.85,38.3a5.66,5.66,0,0,0,0,11.32H122.94a5.66,5.66,0,0,0,0-11.32Z"/><path class="cls-2" d="M122.94,65.27H9.85a6.27,6.27,0,1,1,0-12.53H122.94a6.27,6.27,0,1,1,0,12.53ZM9.85,53.35a5.66,5.66,0,0,0,0,11.32H122.94a5.66,5.66,0,0,0,0-11.32Z"/><path class="cls-2" d="M122.94,81.54H9.85A6.27,6.27,0,1,1,9.85,69H122.94a6.27,6.27,0,1,1,0,12.53ZM9.85,69.61a5.66,5.66,0,1,0,0,11.32H122.94a5.66,5.66,0,0,0,0-11.32Z"/><circle class="cls-3" cx="15.51" cy="14.06" r="4.55"/><circle class="cls-3" cx="32.36" cy="14.06" r="4.55"/><circle class="cls-3" cx="49.43" cy="14.06" r="4.55"/><circle class="cls-3" cx="66.47" cy="14.06" r="4.55"/><circle class="cls-3" cx="83.17" cy="14.06" r="4.55"/><circle class="cls-3" cx="100.24" cy="14.06" r="4.55"/><circle class="cls-3" cx="117.28" cy="14.06" r="4.55"/><circle class="cls-3" cx="15.51" cy="29.1" r="4.55"/><circle class="cls-3" cx="32.36" cy="29.1" r="4.55"/><circle class="cls-3" cx="49.43" cy="29.1" r="4.55"/><circle class="cls-3" cx="66.47" cy="29.1" r="4.55"/><circle class="cls-3" cx="83.17" cy="29.1" r="4.55"/><circle class="cls-3" cx="100.24" cy="29.1" r="4.55"/><circle class="cls-3" cx="117.28" cy="29.1" r="4.55"/><circle class="cls-3" cx="15.51" cy="44.15" r="4.55"/><circle class="cls-3" cx="32.36" cy="44.15" r="4.55"/><circle class="cls-3" cx="49.43" cy="44.15" r="4.55"/><circle class="cls-3" cx="66.47" cy="44.15" r="4.55"/><circle class="cls-3" cx="83.17" cy="44.15" r="4.55"/><circle class="cls-3" cx="100.24" cy="44.15" r="4.55"/><circle class="cls-3" cx="117.28" cy="44.15" r="4.55"/><circle class="cls-3" cx="15.51" cy="59.2" r="4.55"/><circle class="cls-3" cx="32.36" cy="59.2" r="4.55"/><circle class="cls-3" cx="49.43" cy="59.2" r="4.55"/><circle class="cls-3" cx="66.47" cy="59.2" r="4.55"/><circle class="cls-3" cx="83.17" cy="59.2" r="4.55"/><circle class="cls-3" cx="100.24" cy="59.2" r="4.55"/><circle class="cls-3" cx="117.28" cy="59.2" r="4.55"/><circle class="cls-3" cx="15.51" cy="75.46" r="4.55"/><circle class="cls-3" cx="32.36" cy="75.46" r="4.55"/><circle class="cls-3" cx="49.43" cy="75.46" r="4.55"/><circle class="cls-3" cx="66.47" cy="75.46" r="4.55"/><circle class="cls-3" cx="83.17" cy="75.46" r="4.55"/><circle class="cls-3" cx="100.24" cy="75.46" r="4.55"/><circle class="cls-3" cx="117.28" cy="75.46" r="4.55"/><path class="cls-1" d="M224,79.27H175.17a8.07,8.07,0,0,1-8-8.06V15.29a8.06,8.06,0,0,1,8-8.06H224a8.06,8.06,0,0,1,8,8.06V71.21A8.07,8.07,0,0,1,224,79.27ZM175.17,8.58a6.72,6.72,0,0,0-6.71,6.71V71.21a6.72,6.72,0,0,0,6.71,6.71H224a6.72,6.72,0,0,0,6.7-6.71V15.29A6.72,6.72,0,0,0,224,8.58Z"/><path class="cls-2" d="M222.27,27H176.91a6.27,6.27,0,0,1,0-12.53h45.36a6.27,6.27,0,1,1,0,12.53ZM176.91,15a5.66,5.66,0,1,0,0,11.32h45.36a5.66,5.66,0,0,0,0-11.32Z"/><path class="cls-2" d="M222.27,42H176.91a6.27,6.27,0,0,1,0-12.53h45.36a6.27,6.27,0,1,1,0,12.53ZM176.91,30.07a5.66,5.66,0,1,0,0,11.32h45.36a5.66,5.66,0,0,0,0-11.32Z"/><path class="cls-2" d="M222.27,57H176.91a6.27,6.27,0,0,1,0-12.53h45.36a6.27,6.27,0,1,1,0,12.53ZM176.91,45.11a5.66,5.66,0,1,0,0,11.32h45.36a5.66,5.66,0,0,0,0-11.32Z"/><path class="cls-2" d="M222.27,72.08H176.91a6.27,6.27,0,0,1,0-12.53h45.36a6.27,6.27,0,1,1,0,12.53ZM176.91,60.16a5.66,5.66,0,1,0,0,11.32h45.36a5.66,5.66,0,0,0,0-11.32Z"/><circle class="cls-3" cx="182.63" cy="20.87" r="4.55"/><circle class="cls-3" cx="199.48" cy="20.87" r="4.55"/><circle class="cls-3" cx="216.55" cy="20.87" r="4.55"/><circle class="cls-3" cx="182.63" cy="35.92" r="4.55"/><circle class="cls-3" cx="199.48" cy="35.92" r="4.55"/><circle class="cls-3" cx="216.55" cy="35.92" r="4.55"/><circle class="cls-3" cx="182.63" cy="50.96" r="4.55"/><circle class="cls-3" cx="199.48" cy="50.96" r="4.55"/><circle class="cls-3" cx="216.55" cy="50.96" r="4.55"/><circle class="cls-3" cx="182.63" cy="66.01" r="4.55"/><circle class="cls-3" cx="199.48" cy="66.01" r="4.55"/><circle class="cls-3" cx="216.55" cy="66.01" r="4.55"/><rect class="cls-1" x="143.62" y="41.85" width="12.75" height="1.83" rx="0.91"/><rect class="cls-1" x="143.62" y="45.69" width="12.75" height="1.83" rx="0.91"/><path class="cls-1" d="M253.58,43.24h-2.91v-2.9a1.28,1.28,0,0,0-1.28-1.28h-.31a1.28,1.28,0,0,0-1.28,1.28v2.9h-2.91a1.28,1.28,0,0,0-1.28,1.28v.32a1.28,1.28,0,0,0,1.28,1.28h2.91V49a1.28,1.28,0,0,0,1.28,1.28h.31A1.28,1.28,0,0,0,250.67,49v-2.9h2.91a1.29,1.29,0,0,0,1.28-1.28v-.32A1.29,1.29,0,0,0,253.58,43.24Z"/></g></g></svg>