<svg xmlns="http://www.w3.org/2000/svg" viewBox="0 0 101.86 119.37"><defs><style>.cls-1{fill:#f85823;}.cls-2{fill:#a94044;}.cls-3{fill:#f35a27;}</style></defs><title>Recurso 57</title><g id="Capa_2" data-name="Capa 2"><g id="Capa_1-2" data-name="Capa 1"><path class="cls-1" d="M89,119.37H12.85A12.87,12.87,0,0,1,0,106.52V12.85A12.87,12.87,0,0,1,12.85,0H89a12.87,12.87,0,0,1,12.85,12.85v93.67A12.87,12.87,0,0,1,89,119.37ZM12.85,1.3A11.56,11.56,0,0,0,1.3,12.85v93.67a11.56,11.56,0,0,0,11.55,11.55H89a11.56,11.56,0,0,0,11.55-11.55V12.85A11.56,11.56,0,0,0,89,1.3Z"/><path class="cls-2" d="M65.56,43.47H36.3A6.23,6.23,0,0,1,36.3,31H65.56a6.23,6.23,0,1,1,0,12.46ZM36.3,31.61a5.63,5.63,0,0,0,0,11.26H65.56a5.63,5.63,0,0,0,0-11.26Z"/><path class="cls-2" d="M65.56,58.43H36.3A6.23,6.23,0,1,1,36.3,46H65.56a6.23,6.23,0,0,1,0,12.46ZM36.3,46.58a5.63,5.63,0,1,0,0,11.25H65.56a5.63,5.63,0,1,0,0-11.25Z"/><path class="cls-2" d="M65.56,73.39H36.3a6.23,6.23,0,1,1,0-12.45H65.56a6.23,6.23,0,1,1,0,12.45ZM36.3,61.54a5.63,5.63,0,1,0,0,11.25H65.56a5.63,5.63,0,1,0,0-11.25Z"/><path class="cls-2" d="M65.56,88.36H36.3a6.23,6.23,0,0,1,0-12.46H65.56a6.23,6.23,0,1,1,0,12.46ZM36.3,76.5a5.63,5.63,0,1,0,0,11.25H65.56a5.63,5.63,0,1,0,0-11.25Z"/><circle class="cls-3" cx="42.55" cy="37.43" r="4.53"/><circle class="cls-3" cx="59.31" cy="37.43" r="4.53"/><circle class="cls-3" cx="42.55" cy="52.39" r="4.53"/><circle class="cls-3" cx="59.31" cy="52.39" r="4.53"/><circle class="cls-3" cx="42.55" cy="67.36" r="4.53"/><circle class="cls-3" cx="59.31" cy="67.36" r="4.53"/><circle class="cls-3" cx="42.55" cy="82.32" r="4.53"/><circle class="cls-3" cx="59.31" cy="82.32" r="4.53"/></g></g></svg>