<svg xmlns="http://www.w3.org/2000/svg" xmlns:xlink="http://www.w3.org/1999/xlink" viewBox="0 0 451.6 366.2"><defs><style>.cls-1{fill:none;}.cls-1,.cls-10,.cls-2,.cls-3,.cls-4,.cls-5,.cls-6,.cls-7,.cls-8{stroke:#000;stroke-miterlimit:10;}.cls-1,.cls-2,.cls-3,.cls-4,.cls-5,.cls-7,.cls-8{stroke-width:0.5px;}.cls-2,.cls-4{fill:#ed4f36;}.cls-3{fill:#694342;}.cls-13,.cls-4,.cls-7{stroke-linecap:round;}.cls-5,.cls-7{fill:#ffe8c6;}.cls-12,.cls-6{fill:#fff;}.cls-8{fill:#feaf9e;}.cls-9{clip-path:url(#clip-path);}.cls-10{fill:#7e2d3a;}.cls-11{fill:#fea49c;}.cls-13{fill:#a0dbf0;stroke:#4a91cd;stroke-linejoin:round;}</style><clipPath id="clip-path"><path class="cls-1" d="M341.48,217.77c-12.28-.61-35.57-17.41-40.57-13-40.68,35.89-103.72,30.11-119.09,29.84-16.76-.29-34.7-2.2-36.76,4-4.38,13.16,20.42,29.3,46.75,33.53s45.88,6.76,72.93,0c37.82-9.46,46.17-19.12,57.34-29.7C337.65,227.65,345.23,218,341.48,217.77Z"/></clipPath></defs><title>Correct feedbacK_Panda rojo</title><g id="Layer_2" data-name="Layer 2"><g id="Layer_1-2" data-name="Layer 1"><path class="cls-2" d="M298.41,293.13c6.17,0,90-8.38,111.59-26.91s34.85-45,39.26-66.16-28.67-37.49-45-18.52c-10.15,21.17-4.41,35.72-19,53.81s-84.69,41-84.69,41"/><path class="cls-3" d="M412.87,221.23c9.72.46,21.83,8.83,22.05,13.68,0,0,11.47-15.88,15.44-28.89s-4.19-31.1-20.51-34.85-30,3.31-33.3,14.78-4.26,29.92.37,33.89S403.39,220.79,412.87,221.23Z"/><path class="cls-2" d="M338.55,366c-21.07-73.22-66-105.69-81.8-104.69-35.46,2.23-43.87,37.22-47.12,58.15-1.22,7.83-5.41,25.73-9,46.54Z"/><path class="cls-3" d="M339,366A293.48,293.48,0,0,0,322.9,323.9c-22.62-47.85-48.85-48.48-61.54-48.24-38,.72-36.59,33.9-42.16,61.15-1.35,6.59-3.14,17-5,29.14Z"/><path class="cls-4" d="M225.64,291c-5.65,0-58.77,10.51-71.29,31.78-8.65,14.68,3.4,31.3,17.59,43.15h40.31c-.44-.36-.88-.71-1.36-1-15.83-11.09-33-21.2-30.74-30.07s28.61-29.48,38.09-29.2"/><path class="cls-5" d="M312.52,118.9c-11.46-1.32-31.31-34.4-38.37-60.87S278.12.69,287.82.25s61.76,55.58,61.76,111.16c0,0,31.75-3.09,42.78,10.58.88,2-23.11-8.2-29.11-2.2-.33.33,20.53,4.42,25.58,22.93.33,1.21-34-11.47-42.78-9.26S312.52,118.9,312.52,118.9Z"/><path class="cls-2" d="M183.29,61.12c16.15-7.94,87.33-11.47,150,46.32s62.85,101.89,62.85,101.89,11.83,2.18,19.33,11.45c0,0-10.65-2.1-17.27,3.19,0,0,7.7,5.69,7.7,15.39,0,0-3.94-6.55-9.58-2.44-6.94,5.07-74.94,50-114.2,57.09s-135.85-1.32-149.09.89S85.37,305,82.28,310.77,92.87,294,99.48,289.16s-23.38,1.32-30,5.29,10.58-24.26,36.61-32.19C106.1,262.26,77.43,113.17,183.29,61.12Z"/><path class="cls-6" d="M187.7,194.77C176,184.15,174.76,143,203.58,131.84s53.51,27,55.28,39.41-13.53,25.28-26.47,28.81S194.17,200.65,187.7,194.77Z"/><path class="cls-6" d="M308,111.26c7.24-3.2,36.75,8.23,41.16,41.17.59,8.52-.29,17-12.05,22s-26.17-3.53-29.41-10.59S292.68,118,308,111.26Z"/><path class="cls-7" d="M135.94,114.2c-2.64-4.85-33.37-42.49-68.22-52.2S6,67.74.68,79.65,39.94,187.71,83.6,201.83c0,0-32.2,9.26-36.61,23.82-.88,7,14.56-5.3,26.91-6.18,0,0-11.47,14.11-10.15,22.05,4.41.89,29.7-19.84,42.5-22.05"/><path class="cls-5" d="M290.25,169.85c2.7-.6,14.78,20.51,35.65,24.92s57.34,19.11,62.34,47.34c0,0-47.05,35.88-92.33,49.4S158,296.22,144.18,294.45s-34.41-50.28-13.82-69.69,87-8.52,117-17.35S284.59,171.1,290.25,169.85Z"/><path class="cls-5" d="M184.83,102.8c11.6-5.79,28.23-.44,35.29,3.53,2.64,1.33,3.31-2.86-4.19-8.38s-21.84-13-39.7-8.6-20.73,15.88-19,23.38S163.09,113.67,184.83,102.8Z"/><path class="cls-5" d="M274.59,92.44c2.43,3.06,7.94-7.06,12.79-8.38s11.47-1.1,13.46-1.77-14.56-13.67-21.4-12.57S270.4,87.15,274.59,92.44Z"/><path class="cls-8" d="M103.32,190.87c4.27,2.62-17.07-65.5-34.42-88.14S24.2,81,19.5,91,40.1,152.05,103.32,190.87Z"/><ellipse cx="238.42" cy="171.17" rx="12.94" ry="17.48" transform="translate(-39.5 76.82) rotate(-16.92)"/><ellipse cx="294.35" cy="186.54" rx="2.38" ry="3.77" transform="translate(-41.56 93.77) rotate(-16.92)"/><ellipse cx="327.77" cy="152.84" rx="10.21" ry="15.76" transform="translate(-30.3 102.04) rotate(-16.92)"/><g class="cls-9"><path class="cls-10" d="M340.59,178.83c-10.25,6.79-37.27,37.49-76.16,46.8S197.5,238,182.65,233.37s-27.3,1.32-28.21,15.24,13.74,36.56,40.08,40.79,62.42,3.09,93.84-15.38,56.82-37.79,60.82-57.75S342.78,177.37,340.59,178.83Z"/><path class="cls-11" d="M297.82,200.41c13.21,1.64,36.25,12.74,40.3,26S285.4,294.36,224.75,288s-96.1-4-97.33-36.46S121,223,160.56,221,290.66,199.52,297.82,200.41Z"/><path class="cls-12" d="M138.76,235.76c6.71,11.45,48.94,20.17,91.68,14.72,41.95-5.36,77.37-20.76,95.58-39.62s25.32-27.83,25.75-38.43-25.7-24.29-25.7-24.29-66.5,54.81-92.85,56-87.16-3.94-99.1-7.71S131.53,223.43,138.76,235.76Z"/></g><path class="cls-1" d="M341.48,217.77c-12.28-.61-35.57-17.41-40.57-13-40.68,35.89-103.72,30.11-119.09,29.84-16.76-.29-34.7-2.2-36.76,4-4.38,13.16,20.42,29.3,46.75,33.53s45.88,6.76,72.93,0c37.82-9.46,46.17-19.12,57.34-29.7C337.65,227.65,345.23,218,341.48,217.77Z"/><path class="cls-13" d="M421.61,279s-8.77,25,17,32.42c0,0-31.36-12-39.6,5.58,0,0,2.39-31.09-2.65-33.48C396.37,283.55,417.36,284.08,421.61,279Z"/><path class="cls-13" d="M147.44,320.3s-19.8,15.2-20.26,21.18c0,0-18-26.25-25.79-27.63,0,0,20.26-3.68,22.57-11.51C124,302.34,126.72,315.69,147.44,320.3Z"/></g></g></svg>