<svg xmlns="http://www.w3.org/2000/svg" viewBox="0 0 347.64 323.48"><defs><style>.cls-1{fill:#2f3c4c;}.cls-1,.cls-2,.cls-3,.cls-4,.cls-5{stroke:#000;stroke-linecap:round;stroke-miterlimit:10;}.cls-1,.cls-2,.cls-3,.cls-5{stroke-width:0.5px;}.cls-2{fill:#faf8eb;}.cls-3{fill:#fea49c;}.cls-4{fill:#fff;}.cls-5{fill:none;}</style></defs><title>Mistake feedback_Oso Panda</title><g id="Layer_2" data-name="Layer 2"><g id="Layer_1-2" data-name="Layer 1"><path class="cls-1" d="M246.8,213.83c2.07-4.51,41.43-9.44,61.67,19.55s31.86,46.13,23.33,55.18-44.11-.73-55-7S231.91,246.31,246.8,213.83Z"/><path class="cls-1" d="M305.5,323.23c-6.71-19.44-15.06-39.22-22.44-58.14-23.76-60.89-73.44-59.76-94.64-56.3-37.29,6.07-70.8,71.72-84.56,114.44Z"/><path class="cls-2" d="M306,323.23c-.14-.39-.27-.79-.42-1.19-20.24-55.09-65.9-60.69-93.86-60.2-50.73.88-81.75,18.55-96.63,42.44a87.07,87.07,0,0,0-8.61,19Z"/><path class="cls-1" d="M156.36,232.66c-31.35-2.92-103.55,7.42-113.79,49-1.84,17,10.66,31.39,23.72,41.56h68.12c-6.24-15.52-23.65-27.64-23.65-27.64s24-11.8,42.26-31.76"/><path class="cls-1" d="M212.73,45.6C216.08,66.21,243,79,264.88,75.44s36.91-23.14,33.57-43.75S274.65-2.75,252.77.81,209.39,25,212.73,45.6Z"/><path class="cls-2" d="M161,2.64c40.46-2.81,111.59,29,140.19,90.63s21.57,105.91-26.65,132.55-117.39,27.65-168.43,8.07S40.1,173.08,46.61,122.21,90.34,7.56,161,2.64Z"/><path class="cls-1" d="M79.38,81c-11.06,17.72-40.82,19.1-59.63,7.36S-5.35,52.71,5.7,35,41,12.43,59.77,24.17,90.43,63.25,79.38,81Z"/><path class="cls-3" d="M75.85,84.38C67.49,97.78,45,98.83,30.74,90S11.75,63,20.11,49.61,46.79,32.54,61,41.42,84.21,71,75.85,84.38Z"/><path class="cls-1" d="M150.94,106.7c14.49,3.7,44.3,12.69,41.33,26.16-4.79,21.75-22.28,24.36-42.53,24.82-43.34,1-54.46-11.07-62.68-24.29S94.3,92.25,150.94,106.7Z"/><path class="cls-1" d="M240,53.09c9.26-2.8,32.78,8.46,44.57,36.3s.67,46.11-14.51,53.62-40.36-3.15-49.95-29.62S217.8,59.8,240,53.09Z"/><path class="cls-4" d="M141,117.24c19.54-.31,34.54,8,35.38,16.77s-8.79,14.07-20.14,14.17-35.08-5.7-33.24-16.43S133.63,117.36,141,117.24Z"/><path class="cls-4" d="M246.4,91.87c6.33-2,18.08,6.26,20.75,19.69s-2.41,22.85-9.86,24.53-18.74-4.59-20.1-21.37S241.6,93.35,246.4,91.87Z"/><ellipse cx="161.32" cy="132.88" rx="7.43" ry="9.39" transform="translate(-18.54 26.43) rotate(-8.86)"/><ellipse cx="257.91" cy="117.52" rx="5.96" ry="9.39" transform="translate(-12.14 31.49) rotate(-6.83)"/><path d="M227.57,160.58c2.28,0,3.56-8.94,12.7-9s14.2,25.67-6.07,32-35.09-14.25-26.28-23.25S223.46,160.63,227.57,160.58Z"/><path class="cls-5" d="M227.58,200.21s2-12.07,2.44-16.75"/><path class="cls-1" d="M271.33,182.89c11.66-5.41,27.36-5.1,36-.62s40.33,61.5,40.06,78-10.11,28.64-20.05,32-49.1-29-59.61-40.47S252.93,226,251.6,214.75,259.91,188.18,271.33,182.89Z"/><path class="cls-5" d="M211.3,211.82c2.25-5.49,10-10.76,16.28-11.61,4.56-.62,11,8.71,10.87,11"/></g></g></svg>