<svg xmlns="http://www.w3.org/2000/svg" xmlns:xlink="http://www.w3.org/1999/xlink" viewBox="0 0 427.15 330.6"><defs><style>.cls-1{fill:none;}.cls-1,.cls-2,.cls-3,.cls-4,.cls-5,.cls-7{stroke:#000;stroke-miterlimit:10;}.cls-1,.cls-10,.cls-2,.cls-3,.cls-4,.cls-5,.cls-7{stroke-linecap:round;}.cls-1,.cls-2,.cls-3,.cls-4{stroke-width:0.5px;}.cls-2{fill:#2f3c4c;}.cls-3{fill:#faf8eb;}.cls-4,.cls-8{fill:#fea49c;}.cls-5,.cls-9{fill:#fff;}.cls-6{clip-path:url(#clip-path);}.cls-7{fill:#7e2d3a;}.cls-10{fill:#a0dbf0;stroke:#4a91cd;stroke-linejoin:round;}</style><clipPath id="clip-path"><path class="cls-1" d="M283.11,161.73c-10.67,5.07-36.41,12-74.56,15.37s-64.57.45-78.54-4.29c-13.37-4.54-26.11,1.05-28.86,10.59-3.73,12.94,7.85,37.12,32.19,45s61.07,14.62,93.44,1.38,43.32-22.43,51.29-38.06C287,174.12,285.39,160.65,283.11,161.73Z"/></clipPath></defs><title>Correct feedbacK_Oso Panda</title><g id="Layer_2" data-name="Layer 2"><g id="Layer_1-2" data-name="Layer 1"><path class="cls-2" d="M258.64,244.4c.62,11.15,64.48,1.94,100.24-22.58S432,141.45,426.33,118.25s-33.81-30.41-47.14-21.39-38.54,77.89-57.82,91.73S257.92,231.53,258.64,244.4Z"/><path class="cls-2" d="M322.81,330.35c-7.41-19.74-16.56-39.79-24.69-59-25.81-60.95-75.88-57.13-97.45-54.26-54.78,7.3-74.32,69.7-82.82,113.23Z"/><path class="cls-2" d="M214.14,55.48c7.44,19.8,36.72,27.11,57.74,19.22s32-30.35,24.6-50.15S266-4.89,245,3,206.71,35.69,214.14,55.48Z"/><path class="cls-3" d="M149.5,9c35.63-6.48,116.59,6.47,157.3,62s42.57,100.86,0,137-111,50.89-165.63,41.64-77.72-47.19-81.42-99S84.85,20.75,149.5,9Z"/><path class="cls-2" d="M84.91,102.54c-7.44,19.79-36.72,27.11-57.74,19.21s-32-30.34-24.6-50.14S33.08,42.16,54.1,50.06,92.35,82.74,84.91,102.54Z"/><path class="cls-4" d="M82.09,106.64c-5.62,15-27.78,20.51-43.68,14.53s-24.23-23-18.61-37.93,23.08-22.28,39-16.3S87.72,91.66,82.09,106.64Z"/><path class="cls-2" d="M156,59.58c15.11-2.16,50,12.65,49.35,50.28s-15.73,48.42-36.09,54-45.65,3.4-56.44-21.9S121.59,64.49,156,59.58Z"/><path class="cls-2" d="M245.73,53.72c8.64-4.63,34.24,1.85,51.51,27.14s9.87,45.65-3.7,56.14-40.71,4.93-55.52-19.43S225,64.81,245.73,53.72Z"/><path class="cls-5" d="M172.4,90.19C181,89,194.61,100.6,195.54,116.8s-7.41,26.37-17.35,27.06-23.37-8.56-22-28.45S165.93,91.12,172.4,90.19Z"/><path class="cls-5" d="M273,82.23c6.39-2,18.38,6.16,21.21,19.73s-2.21,23.18-9.74,25-19-4.46-20.57-21.44S268.15,83.78,273,82.23Z"/><ellipse cx="185.3" cy="118.91" rx="6.03" ry="9.51" transform="translate(-9.21 15.75) rotate(-4.75)"/><ellipse cx="281.54" cy="106.7" rx="6.03" ry="9.51" transform="translate(-7.87 23.67) rotate(-4.75)"/><path d="M227,139.93c2.31,0,3.7-9,12.95-9s14.11,26.14-6.48,32.38-35.39-14.8-26.37-23.82S222.83,139.93,227,139.93Z"/><path class="cls-1" d="M232.09,176.36s-.47-12.37-.93-17.12"/><g class="cls-6"><path class="cls-7" d="M287.29,143c-10.67,5.06-40.59,30.69-78.74,34.07s-65.12,2.24-78.54-4.29-26-2.65-28.86,10.59,7.85,37.12,32.19,45,58.67,11.92,91-1.32,51.66-30.32,58.27-48.92S289.57,142,287.29,143Z"/><path class="cls-8" d="M252,154.75c12.27,3.48,32.53,17.45,34.48,30.8s-63.48,77.33-120,62.5-85.12-25.62-90.23-51.21c-6.19-31,5.1-45.73,42.87-42S245.34,152.87,252,154.75Z"/><path class="cls-9" d="M92,169.9c4.74,12,44.29,29.32,84.74,27.29,41.76-2.09,76.2-8.85,96.12-24.36s27.9-23.12,29.81-33.25-20.91-27-20.91-27S211.05,155.69,185.94,153s-82-16.29-92.76-21.62S86.9,157,92,169.9Z"/></g><path class="cls-1" d="M283.11,161.73c-10.67,5.07-36.41,12-74.56,15.37s-64.57.45-78.54-4.29c-13.37-4.54-26.11,1.05-28.86,10.59-3.73,12.94,7.85,37.12,32.19,45s61.07,14.62,93.44,1.38,43.32-22.43,51.29-38.06C287,174.12,285.39,160.65,283.11,161.73Z"/><path class="cls-3" d="M324,330.35l-.67-1.89c-20.29-55-62.69-63.55-89.15-62.07-48,2.7-90,29-103.6,53.7a64,64,0,0,0-4.44,10.26Z"/><path class="cls-2" d="M149.61,250.93c-31.82-2-91.73,9.48-100.9,51.88-.82,10.38,3.58,19.64,10.14,27.54h76.47a88.63,88.63,0,0,0-17.17-15.43s27.15-8.63,47.37-27.52"/><path class="cls-10" d="M358.22,235s-8.43,24,16.35,31.17c0,0-30.14-11.5-38.06,5.36,0,0,2.3-29.89-2.55-32.19C334,239.36,354.14,239.88,358.22,235Z"/><path class="cls-10" d="M93.93,240.48s-19,14.61-19.48,20.36c0,0-17.26-25.23-24.79-26.56,0,0,19.48-3.54,21.69-11.07C71.35,223.21,74,236.05,93.93,240.48Z"/></g></g></svg>