<svg xmlns="http://www.w3.org/2000/svg" xmlns:xlink="http://www.w3.org/1999/xlink" viewBox="0 0 387.6 527.23"><defs><style>.cls-1,.cls-11,.cls-15,.cls-2{fill:none;}.cls-10,.cls-11,.cls-15,.cls-17,.cls-2,.cls-20,.cls-21,.cls-23,.cls-24,.cls-26,.cls-3,.cls-5,.cls-8{stroke:#000;}.cls-10,.cls-2,.cls-30,.cls-31,.cls-8{stroke-miterlimit:10;}.cls-19,.cls-3,.cls-8{fill:#ed4f36;}.cls-15,.cls-17,.cls-20,.cls-21,.cls-23,.cls-24,.cls-26,.cls-3,.cls-5{stroke-linecap:round;}.cls-11,.cls-15,.cls-17,.cls-20,.cls-21,.cls-23,.cls-24,.cls-26,.cls-3,.cls-5{stroke-linejoin:round;}.cls-14,.cls-17,.cls-19,.cls-20,.cls-21,.cls-23,.cls-24,.cls-25,.cls-26,.cls-3,.cls-5,.cls-8{fill-rule:evenodd;}.cls-4{clip-path:url(#clip-path);}.cls-5{fill:#694342;}.cls-6{clip-path:url(#clip-path-4);}.cls-7{clip-path:url(#clip-path-5);}.cls-9{clip-path:url(#clip-path-6);}.cls-12{clip-path:url(#clip-path-7);}.cls-13{clip-path:url(#clip-path-8);}.cls-14,.cls-20{fill:#ffe8c6;}.cls-16{clip-path:url(#clip-path-9);}.cls-17{fill:#fea49c;}.cls-18{clip-path:url(#clip-path-10);}.cls-21{fill:#7b2325;}.cls-22{clip-path:url(#clip-path-11);}.cls-23{fill:#f06b6b;}.cls-24,.cls-25{fill:#fff;}.cls-26{fill:#1c1c1c;}.cls-27{fill:#fcb042;stroke:#562f09;stroke-miterlimit:10;}.cls-28{fill:#ed9520;}.cls-29{fill:#fce8c8;}.cls-30{fill:#e44b86;stroke:#b53167;}.cls-31{fill:#a0a0b1;stroke:#71717f;}</style><clipPath id="clip-path" transform="translate(13.74)"><path class="cls-1" d="M126.39,469.61c-17.93-2.35-32.76-6.17-56.57-15.3-21.13-8.09-52-10.74-43-29.47,5.29-11.11,9.18-17.38,26.79-24.43,12.69-5.09,29.66-2.09,44.32,3.47C112,409.22,128.59,431,145.43,420c19.28-12.61,30.23-36.89,44.85-28.12,5.13,3.08,8.5,9.11,8.34,13.83C197.66,434,169.57,475.26,126.39,469.61Z"/></clipPath><clipPath id="clip-path-4" transform="translate(13.74)"><path class="cls-1" d="M232.35,483c.38.8,2.71,7.86,13.45,7.35,7.3-.35,11.34-7.51,11.14-8.47-1.61-7.71-17.69-34.67-22.28-48-4.33-12.58-9.7-46.21-11.39-48.65-.72-1.06-7.21-16.7-19.78-12.46s-8.57,19.82-8.21,21.92c.53,3.1,11.14,35.47,17.39,49.58C218,456.13,231.27,480.7,232.35,483Z"/></clipPath><clipPath id="clip-path-5" transform="translate(13.74)"><path class="cls-1" d="M152.77,483.06c-.3,3.47-4.08,11.69-11.61,11.35-9.78-.44-12.35-8.38-11.73-12,.52-3,4.46-34.77,8.33-49.25,3.36-12.6,13.19-41.4,14.9-45.16,1.18-2.59,7.55-21.2,21.4-15.47,13.07,5.4,4.84,22.82,4.42,24.53-1.06,4.26-15,31.28-17.45,41.54S153,480.47,152.77,483.06Z"/></clipPath><clipPath id="clip-path-6" transform="translate(13.74)"><path class="cls-2" d="M220.86,274c1-5.91,5.59-7.8,7.54-7.55,3.21.41,58.46,14,59.66,13.64,1-.3,37.24-35.87,37.05-36.28-1.34-2.8-4.88-10,4.68-19.13,8.36-8,19.39-4.05,24.91,1,5,4.57,6.85,15.66,3.25,22.35-3.31,6.16-11.84,8.47-18.68,9.08s-40,43-47.4,45.14S228.57,285.5,225,283.14C224.55,282.82,219.87,279.55,220.86,274Z"/></clipPath><clipPath id="clip-path-7" transform="translate(13.74)"><path class="cls-2" d="M154.49,283.29c2.41-5.5-.33-9.57-2.08-10.47-2.89-1.49-56.8-23.64-56.86-23.67S35.92,223.93,36,223.36c.21-3.1.65-11.13-11.68-15.86C13.51,203.36,4.83,211.21,1.67,218c-2.85,6.14-.3,17.09,5.59,21.89,5.42,4.41,14.11,5.81,20.74,1.2,0,0,57,24.21,60.45,25.6,3.23,1.29,53.72,21.82,57.48,21.91C146.5,288.61,152.21,288.47,154.49,283.29Z"/></clipPath><clipPath id="clip-path-8" transform="translate(13.74)"><path class="cls-1" d="M186,224.69c-12.44.71-27.69,7.65-35.56,16.37-7,7.8-11,30.5-11.61,33-1.08,4.57-5,32.83-7.72,51.3-2.35,15.94-5.74,37.69-1.92,53.68,2.23,9.31,7.34,22.1,14.89,27.79,10.56,7.95,30.13,8.41,43.33,7.87,10.25-.41,24.49-2.92,33.14-8.44,9-5.75,18.56-17.75,22.48-27.7,5.65-14.36,3.33-36,2.31-51.38-1.16-17.6-7.54-48.08-10.54-57.86-1.75-5.71-6.26-26.17-14.35-33.54S197.5,224.05,186,224.69Z"/></clipPath><clipPath id="clip-path-9" transform="translate(13.74)"><path class="cls-1" d="M120.71,103.37c9.73-9.78,21.89-40.06,21.72-40.54-4.31-12.53-16.8-26.7-27.42-34.62C96.11,14.11,52-3.45,41.17,1.29c-6.73,3-7.67,54.41,4.3,80,4.14,8.86,20.48,26.66,19.47,26.16C43,96.66,34,128.18,34.43,127.9c18.78-13.42,40.15-11,39-10.63-20.31,6.34-20.78,22.41-20.34,22.07,18-14.16,22.11-13.64,30.06-15.39C83.7,123.82,111.64,112.48,120.71,103.37Z"/></clipPath><clipPath id="clip-path-10" transform="translate(13.74)"><path class="cls-1" d="M264.65,99.29C256.88,89.32,244.86,64.16,245,64c7.28-12,20.81-29,32.8-36C298.1,16.08,344.4,4.87,354.49,11c6.28,3.8-.12,54.57-14.73,78.73-5,8.25-22.3,24.41-21.3,24.06,23.08-8,28.66,23.75,28.29,23.43-17.33-15.24-38.83-15-37.71-14.51,19.56,8.36,18.41,24.4,18,24-16.47-15.89-19.61-16.28-28.36-18.34C298.41,128.3,272.91,109.89,264.65,99.29Z"/></clipPath><clipPath id="clip-path-11" transform="translate(13.74)"><path class="cls-1" d="M130.38,216.84c4.89.11,17.66,1.49,23.87,1.8,8.94.44,30.39.76,34.45.75,3.41,0,21.24-.22,28.82-.75,5.35-.38,22.66-3.54,28.91-3.94,4.79-.31,16-.8,17.11,1.26,1.53,2.73-8.37,15.86-12.37,19.19-5.18,4.33-21.26,9.34-27.52,10.86-7.7,1.86-28.87,3.48-36.23,3.4-8.55-.1-32.08-2-42-5-5.8-1.74-17.62-6.24-22.33-10.68-3.59-3.39-10.59-14.43-9.42-16.42C114.69,215.54,127,216.76,130.38,216.84Z"/></clipPath></defs><title>Panda rojo glosa</title><g id="Layer_2" data-name="Layer 2"><g id="Frame_6" data-name="Frame 6"><g id="OSO_ROJO" data-name="OSO ROJO"><g id="Cola"><g id="cola-2" data-name="cola"><path class="cls-3" d="M126.39,469.61c-17.93-2.35-32.76-6.17-56.57-15.3-21.13-8.09-52-10.74-43-29.47,5.29-11.11,9.18-17.38,26.79-24.43,12.69-5.09,29.66-2.09,44.32,3.47C112,409.22,128.59,431,145.43,420c19.28-12.61,30.23-36.89,44.85-28.12,5.13,3.08,8.5,9.11,8.34,13.83C197.66,434,169.57,475.26,126.39,469.61Z" transform="translate(13.74)"/></g><g id="Relleno_cola" data-name="Relleno cola"><g class="cls-4"><path class="cls-5" d="M62.3,387.25c.57,6.67-.92,25.57-3.78,36.06-3.4,12.47-13.94,28.56-18.1,39.11s29.69,21.47,35.84,11.95c7.58-11.73,12.94-32.26,14.88-46.88,1.68-12.63,4.92-31.5-1.61-42.44C84.79,377.12,61.6,379.08,62.3,387.25Z" transform="translate(13.74)"/></g><g class="cls-4"><path class="cls-5" d="M125.67,403.73c-8.38,6.93-.92,25.56-3.78,36.06-3.4,12.47-12.68,30-18.1,39.11-5.31,8.94,23,16.85,32.39,12.35,13.68-6.56,11.5-34.11,11.35-49.28-.12-12.09,1.18-33.34-9.39-39.21C135.14,401.1,128.56,401.34,125.67,403.73Z" transform="translate(13.74)"/></g><g class="cls-4"><path class="cls-5" d="M152.34,387.23c-2.68,10.54,14.35,21.19,18.23,31.35,4.62,12.07,7.46,31.7,8.46,42.25,1,10.35,28.53,0,33.44-9.14,7.17-13.37-10.85-34.32-19.92-46.48-7.23-9.69-18.71-27.61-30.71-26.11C158.43,379.52,153.27,383.6,152.34,387.23Z" transform="translate(13.74)"/></g></g></g><g id="pie_izq" data-name="pie izq"><g id="pierna_izq" data-name="pierna izq"><path class="cls-3" d="M232.35,483c.38.8,2.71,7.86,13.45,7.35,7.3-.35,11.34-7.51,11.14-8.47-1.61-7.71-17.69-34.67-22.28-48-4.33-12.58-9.7-46.21-11.39-48.65-.72-1.06-7.21-16.7-19.78-12.46s-8.57,19.82-8.21,21.92c.53,3.1,11.14,35.47,17.39,49.58C218,456.13,231.27,480.7,232.35,483Z" transform="translate(13.74)"/></g><g id="pie_izq-2" data-name="pie izq"><g class="cls-6"><path class="cls-5" d="M220,424.5c4.56-1.91,12.15-3.77,16.34-2.07,12.44,5,15.27,27.49,23.59,38,8.53,10.8,33.56,18.81,32.35,32.52-1.65,18.65-36.25,38.37-53.75,31.72-15.39-5.85-12.55-36.32-18.43-51.7-4.23-11.09-18.38-25.3-14.89-36.64C206.79,431.19,214.75,426.7,220,424.5Z" transform="translate(13.74)"/></g></g><g id="piecito_izq_" data-name="piecito izq "><path class="cls-5" d="M257.91,480.78c2.3,1.05,4.19,4.83,4.94,7.39,1,3.41,1.12,9.29-1.16,10.5s-12,1.17-17.16,1.27c-3.35.06-16.27,0-21.09-1.24-3.37-.88-1.63-9.68-.55-11.58,2.79-4.91,6.76-5.41,10.44-6.56,2.81-.87,9.38-1.47,13.94-1.36C250.57,479.28,255.06,479.49,257.91,480.78Z" transform="translate(13.74)"/></g></g><g id="pie_der" data-name="pie der"><g id="pierna_der" data-name="pierna der"><path class="cls-3" d="M152.77,483.06c-.3,3.47-4.08,11.69-11.61,11.35-9.78-.44-12.35-8.38-11.73-12,.52-3,4.46-34.77,8.33-49.25,3.36-12.6,13.19-41.4,14.9-45.16,1.18-2.59,7.55-21.2,21.4-15.47,13.07,5.4,4.84,22.82,4.42,24.53-1.06,4.26-15,31.28-17.45,41.54S153,480.47,152.77,483.06Z" transform="translate(13.74)"/></g><g id="pie_izq_2" data-name="pie izq 2"><g class="cls-7"><path class="cls-5" d="M153.51,421.73c4.87,1.3,12,4.17,14.43,8.59,6.78,12.35-6.46,32.33-7.37,46.39-.86,13.09,10.73,34.78,1.13,43.72-13,12.07-49.89,5.71-58.19-9.93-7.49-14.12,15.65-33.92,20.74-49.06,3.88-11.55.25-32.2,10.14-39.31C138.81,419,148,420.24,153.51,421.73Z" transform="translate(13.74)"/></g></g><g id="piecito_der" data-name="piecito der"><path class="cls-5" d="M151.82,480.68a13,13,0,0,1,5.74,6.3c1.49,3.28,2.55,9-1.19,11.95-2.53,2-14.45,2.21-20.7,2.29-3.32,0-18.54-.6-20.72-3.09-2.56-2.92-.44-11.09,1-12.91,3.54-4.43,8.4-4.79,12.42-5.33a72.77,72.77,0,0,1,12.38-.48C144.1,479.53,148.82,479.21,151.82,480.68Z" transform="translate(13.74)"/></g></g><g id="mano_izq" data-name="mano izq"><g id="brazo_izq" data-name="brazo izq"><path class="cls-8" d="M220.86,274c1-5.91,5.59-7.8,7.54-7.55,3.21.41,58.46,14,59.66,13.64,1-.3,37.24-35.87,37.05-36.28-1.34-2.8-4.88-10,4.68-19.13,8.36-8,19.39-4.05,24.91,1,5,4.57,6.85,15.66,3.25,22.35-3.31,6.16-11.84,8.47-18.68,9.08s-40,43-47.4,45.14S228.57,285.5,225,283.14C224.55,282.82,219.87,279.55,220.86,274Z" transform="translate(13.74)"/></g><g id="mano_izq-2" data-name="mano izq"><g class="cls-9"><path class="cls-5" d="M334.21,249.69c-4-3.4-11.41-6-14-10.56-3.72-6.69-6-19.25-1.48-25.45,6.91-9.58,28.53-13.32,38.68-7.29,12.93,7.68,20.1,34.92,13.3,48.33-3.1,6.11-13.43,11.55-20.21,10.63C344.08,264.47,339.38,254.09,334.21,249.69Z" transform="translate(13.74)"/></g><path class="cls-2" d="M220.86,274c1-5.91,5.59-7.8,7.54-7.55,3.21.41,58.46,14,59.66,13.64,1-.3,37.24-35.87,37.05-36.28-1.34-2.8-4.88-10,4.68-19.13,8.36-8,19.39-4.05,24.91,1,5,4.57,6.85,15.66,3.25,22.35-3.31,6.16-11.84,8.47-18.68,9.08s-40,43-47.4,45.14S228.57,285.5,225,283.14C224.55,282.82,219.87,279.55,220.86,274Z" transform="translate(13.74)"/></g></g><g id="mano_der" data-name="mano der"><g id="brazo_izq-2" data-name="brazo izq"><path class="cls-8" d="M154.49,283.29c2.41-5.5-.33-9.57-2.08-10.47-2.89-1.49-56.8-23.64-56.86-23.67S35.92,223.93,36,223.36c.21-3.1.65-11.13-11.68-15.86C13.51,203.36,4.83,211.21,1.67,218c-2.85,6.14-.3,17.09,5.59,21.89,5.42,4.41,14.11,5.81,20.74,1.2,0,0,57,24.21,60.45,25.6,3.23,1.29,53.72,21.82,57.48,21.91C146.5,288.61,152.21,288.47,154.49,283.29Z" transform="translate(13.74)"/><path class="cls-10" d="M154.49,283.29c2.41-5.5-.64-9.29-2.27-10.1l.38-.74c1.87,1,4.3,5.34,1.89,10.84Z" transform="translate(13.74)"/><path class="cls-11" d="M152.22,273.19l.38-.74" transform="translate(13.74)"/><path class="cls-10" d="M145.94,288.18c.55,0,6.27.29,8.55-4.89h0c-2.28,5.18-8,5.74-8.57,5.72Z" transform="translate(13.74)"/><path class="cls-11" d="M145.94,288.18l0,.83" transform="translate(13.74)"/></g><g id="mano_izq-3" data-name="mano izq"><g class="cls-12"><path class="cls-5" d="M29.83,232.32c2.39-4.68,8.23-9.91,8.83-15.13.86-7.59-1.9-20.06-8.41-24.06C20.18,187-1.21,191.8-8.27,201.27c-9,12.06-5.13,40,6.3,49.73,5.21,4.45,16.83,5.51,22.74,2C26.4,249.75,26.75,238.36,29.83,232.32Z" transform="translate(13.74)"/></g><path class="cls-2" d="M154.49,283.29c2.41-5.5-.33-9.57-2.08-10.47-2.89-1.49-56.8-23.64-56.86-23.67S35.92,223.93,36,223.36c.21-3.1.65-11.13-11.68-15.86C13.51,203.36,4.83,211.21,1.67,218c-2.85,6.14-.3,17.09,5.59,21.89,5.42,4.41,14.11,5.81,20.74,1.2,0,0,57,24.21,60.45,25.6,3.23,1.29,53.72,21.82,57.48,21.91C146.5,288.61,152.21,288.47,154.49,283.29Z" transform="translate(13.74)"/></g></g><g id="cuerpo"><g id="cuerpo-2" data-name="cuerpo"><path class="cls-3" d="M186,224.69c-12.44.71-27.69,7.65-35.56,16.37-7,7.8-11,30.5-11.61,33-1.08,4.57-5,32.83-7.72,51.3-2.35,15.94-5.74,37.69-1.92,53.68,2.23,9.31,7.34,22.1,14.89,27.79,10.56,7.95,30.13,8.41,43.33,7.87,10.25-.41,24.49-2.92,33.14-8.44,9-5.75,18.56-17.75,22.48-27.7,5.65-14.36,3.33-36,2.31-51.38-1.16-17.6-7.54-48.08-10.54-57.86-1.75-5.71-6.26-26.17-14.35-33.54S197.5,224.05,186,224.69Z" transform="translate(13.74)"/></g><g id="detalle"><g class="cls-13"><path class="cls-5" d="M188.91,228.82c10.08.16,25.6,4.52,31,13.05,8.51,13.48,13.86,35.35,16.65,51.37,3.7,21.29,5.34,49.72,6.81,72.12,1.25,19-2.66,42.7-14.8,54.53-9.6,9.35-29.7,12.05-43.1,11.74-14.88-.35-36.4-5.25-47.12-15.58-6.05-5.83-8.46-15-9.71-26.61-2.77-25.74,5.79-59.38,10.15-85.7,3-18.4,3.75-42.71,14.43-60.76C159.35,232.6,177.39,228.63,188.91,228.82Z" transform="translate(13.74)"/></g></g></g><g id="cabeza"><g id="OREJA_DER" data-name="OREJA DER"><g id="oreja_Der-2" data-name="oreja Der"><path class="cls-14" d="M120.71,103.37c9.73-9.78,21.89-40.06,21.72-40.54-4.31-12.53-16.8-26.7-27.42-34.62C96.11,14.11,52-3.45,41.17,1.29c-6.73,3-7.67,54.41,4.3,80,4.14,8.86,20.48,26.66,19.47,26.16C43,96.66,34,128.18,34.43,127.9c18.78-13.42,40.15-11,39-10.63-20.31,6.34-20.78,22.41-20.34,22.07,18-14.16,22.11-13.64,30.06-15.39C83.7,123.82,111.64,112.48,120.71,103.37Z" transform="translate(13.74)"/><path class="cls-15" d="M142.43,62.83c-4.31-12.53-16.8-26.7-27.42-34.62C96.11,14.11,52-3.45,41.17,1.29c-6.73,3-7.67,54.41,4.3,80,4.14,8.86,20.48,26.66,19.47,26.16C43,96.66,34,128.18,34.43,127.9c18.78-13.42,40.15-11,39-10.63-20.31,6.34-20.78,22.41-20.34,22.07,18-14.16,22.11-13.64,30.06-15.39" transform="translate(13.74)"/></g><g id="relleno_oreja_der" data-name="relleno oreja der"><g class="cls-16"><path class="cls-17" d="M49.77,18.38c7.5-4.42,24.76,16,31,26.47C98.33,74.29,101.3,99,95.6,105.45,91.34,110.28,59,73,51.83,54,48.08,44.14,46.09,20.56,49.77,18.38Z" transform="translate(13.74)"/></g></g></g><g id="OREJA_IZQ" data-name="OREJA IZQ"><g id="oreja_Der-3" data-name="oreja Der"><path class="cls-14" d="M264.65,99.29c-7.77-10-18.89-37.54-18.79-37.7,7.28-12,19.91-26.55,31.9-33.58C298.1,16.08,344.4,4.87,354.49,11c6.28,3.8-.12,54.57-14.73,78.73-5,8.25-22.3,24.41-21.3,24.06,23.08-8,28.66,23.75,28.29,23.43-17.33-15.24-38.83-15-37.71-14.51,19.56,8.36,18.41,24.4,18,24-16.47-15.89-19.61-16.28-28.36-18.34C298.41,128.3,272.91,109.89,264.65,99.29Z" transform="translate(13.74)"/><path class="cls-15" d="M245,64c7.28-12,20.81-29,32.8-36C298.1,16.08,344.4,4.87,354.49,11c6.28,3.8-.12,54.57-14.73,78.73-5,8.25-22.3,24.41-21.3,24.06,23.08-8,28.66,23.75,28.29,23.43-17.33-15.24-38.83-15-37.71-14.51,19.56,8.36,18.41,24.4,18,24-16.47-15.89-19.61-16.28-28.36-18.34" transform="translate(13.74)"/></g><g id="relleno_oreja_der-2" data-name="relleno oreja der"><g class="cls-18"><path class="cls-17" d="M343.72,26.8C336.87,21.44,317,39.29,309.5,49,288.26,76.6,283,101.62,288.16,108.71c3.78,5.23,39.49-28.82,48.85-46.83C341.89,52.49,347.09,29.44,343.72,26.8Z" transform="translate(13.74)"/></g></g></g><g id="cabeza-2" data-name="cabeza"><path class="cls-3" d="M186.87,52.54c27.64-1.22,56.86,6.34,79.62,25.4,43.87,36.76,66.19,142.33,66.43,143,.66,1.92-22,10.78-33.11,14.27-6.93,2.18-33.49,11.79-48.14,15.85-18.83,5.21-46.26,13.81-63.56,14.18-22.17.48-45.08-5.78-64-10.14-14-3.2-35.53-10.56-45.69-13.66-2.24-.69-24.9-11-24.74-13.77,2.43-43.52,12.48-96.9,50.71-137.06C125.76,68.14,155.74,53.92,186.87,52.54Z" transform="translate(13.74)"/></g><g id="mechon_der" data-name="mechon der"><path class="cls-19" d="M81.15,218.85c-4.77-6.63-18.44-6.95-26.74-5.09a35.12,35.12,0,0,0-13.82,7.3c-3.5,3.12-8.86,12.86-8.86,12.86s10.49-.14,14.89.66c4.65.84,13.66,2.24,15,4.89.52,1-2.64,4-2.64,9.29A71.66,71.66,0,0,0,60,257s6.62-7.33,9.94-9.92c2.45-1.9,5.86-4.49,8.83-5.36C89.8,238.49,85.18,224.45,81.15,218.85Z" transform="translate(13.74)"/><path class="cls-15" d="M54.41,213.76a35.12,35.12,0,0,0-13.82,7.3c-3.5,3.12-8.86,12.86-8.86,12.86s10.49-.14,14.89.66c4.65.84,13.66,2.24,15,4.89.52,1-2.64,4-2.64,9.29A71.66,71.66,0,0,0,60,257s6.62-7.33,9.94-9.92c2.45-1.9,5.86-4.49,8.83-5.36" transform="translate(13.74)"/></g><g id="mechon_izq" data-name="mechon izq"><path class="cls-19" d="M303.61,211.58c6.1-5.43,19.51-2.76,27.2.86a35,35,0,0,1,11.91,10.14c2.74,3.8,5.85,14.48,5.85,14.48s-10.21-2.43-14.68-2.61c-4.73-.19-13.82-.78-15.7,1.52-.73.9,1.71,4.46.55,9.64a71,71,0,0,1-2.79,7.84s-4.86-8.6-7.54-11.85c-2-2.39-4.74-5.66-7.45-7.16C290.89,228.87,298.45,216.17,303.61,211.58Z" transform="translate(13.74)"/><path class="cls-15" d="M330.81,212.44a35,35,0,0,1,11.91,10.14c2.74,3.8,5.85,14.48,5.85,14.48s-10.21-2.43-14.68-2.61c-4.73-.19-13.82-.78-15.7,1.52-.73.9,1.71,4.46.55,9.64a71,71,0,0,1-2.79,7.84s-4.86-8.6-7.54-11.85c-2-2.39-4.74-5.66-7.45-7.16" transform="translate(13.74)"/></g><g id="barbilla"><path class="cls-20" d="M171.34,188.76c5.64-2.62,15.65-9.15,18.64-9.11s13.49,6.69,18.76,9.26c20.22,9.88,61,7.47,67.62,29,5.59,18.11-9.63,25.9-33.06,35.65-35.88,14.93-82.74,17.21-115.3,2.07-17.83-7.26-33.47-18.29-28.7-35.54C105.74,196.76,150,198.69,171.34,188.76Z" transform="translate(13.74)"/></g><g id="boca"><g id="boca-2" data-name="boca"><path class="cls-21" d="M130.38,216.84c4.89.11,17.66,1.49,23.87,1.8,8.94.44,30.39.76,34.45.75,3.41,0,21.24-.22,28.82-.75,5.35-.38,22.66-3.54,28.91-3.94,4.79-.31,16-.8,17.11,1.26,1.53,2.73-8.37,15.86-12.37,19.19-5.18,4.33-21.26,9.34-27.52,10.86-7.7,1.86-28.87,3.48-36.23,3.4-8.55-.1-32.08-2-42-5-5.8-1.74-17.62-6.24-22.33-10.68-3.59-3.39-10.59-14.43-9.42-16.42C114.69,215.54,127,216.76,130.38,216.84Z" transform="translate(13.74)"/></g><g id="lengua"><g class="cls-22"><path class="cls-23" d="M140.4,245.51c-.28-6.49,10.34-11.47,16.12-14.44,7.94-4.08,20.25-5.59,29.18-5.94,11.14-.44,27.24-.84,36.85,4.8,5,2.91,12.74,9.07,12.19,14.79-.77,7.89-14,12.81-21.51,15.35-15.2,5.13-38.35,4.66-53.47-.71C153,257,140.7,252.64,140.4,245.51Z" transform="translate(13.74)"/></g></g><g id="dientes"><g class="cls-22"><path class="cls-24" d="M71.38,183.46c3.19,4.32,72.36,4.8,116.5,4.23s116.4-7.16,116.46-7.26-2.45-39.67-13-51.66C269.43,104,218.84,97.47,185.77,96.9c-33.34-.58-86.65,2.39-107.44,28.46C67.38,139.08,69.78,181.29,71.38,183.46Z" transform="translate(13.74)"/></g><g class="cls-22"><path class="cls-24" d="M307.47,234.66c-3.63-4.17-74.51,8.92-119.64,9.13-44,.21-116.19-7.76-116.26-7.67s-.8,54,13.1,70.3c21.43,25.19,72.48,31.3,105.55,31.87,33.33.58,86.06-2.87,107.42-28.46C312.22,292.37,309.77,237.29,307.47,234.66Z" transform="translate(13.74)"/></g></g></g><g id="ojos"><g id="ojos-2" data-name="ojos"><path class="cls-25" d="M99.31,184.92c-1.19-1.45-1.07-22.1,1.72-31,4.71-15,9.31-35.36,34.81-35.48,20.12-.1,26.1,14.6,31.11,25.82,5.51,12.33,8.05,31.45,7.1,34.72-.48,1.67-7.75,9.5-12.19,12.11-6.77,4-17.44,6.29-25.28,6.7-7.64.39-18.17-.87-25.19-3.92A36.26,36.26,0,0,1,99.31,184.92Z" transform="translate(13.74)"/><path d="M100.66,153.83c4.7-15,9-36.18,35.17-36.5v2.27c-24.86-.07-29.73,19.47-34.44,34.46Z" transform="translate(13.74)"/><path class="cls-11" d="M100.66,153.83l.74.23" transform="translate(13.74)"/><path d="M135.83,117.33c20.68,0,27.14,15.31,32.14,26.51l-2,.91c-5-11.24-10.53-25.39-30.09-25.15Z" transform="translate(13.74)"/><path class="cls-11" d="M135.83,117.33v2.27" transform="translate(13.74)"/><path d="M168,143.84c5.57,12.51,7.3,31.88,6.35,35.25l-.54-.16c.94-3.18-2.4-22-7.85-34.18Z" transform="translate(13.74)"/><path class="cls-11" d="M168,143.84l-2,.91" transform="translate(13.74)"/><path d="M162,191.37c-6.81,4-17.52,6.47-25.4,6.88l0-.87c7.79-.4,18.43-2.56,25.15-6.51Z" transform="translate(13.74)"/><path class="cls-11" d="M162,191.37l-.29-.5" transform="translate(13.74)"/><path d="M136.6,198.25c-7.68.4-18.35-.66-25.47-3.74l.53-1.22c6.91,3,17.31,4.49,24.9,4.09Z" transform="translate(13.74)"/><path class="cls-11" d="M136.6,198.25l0-.87" transform="translate(13.74)"/><path d="M111.13,194.51a36.56,36.56,0,0,1-12-9.45l.36-.29c2.85,3.46,8.1,6.76,12.17,8.52Z" transform="translate(13.74)"/><path class="cls-11" d="M111.13,194.51l.53-1.22" transform="translate(13.74)"/><path class="cls-25" d="M280.35,184.33c1.17-1.45.9-22-1.94-30.79-4.78-14.87-9.52-35.1-34.88-35-20,0-25.87,14.71-30.77,25.91-5.39,12.3-7.78,31.33-6.82,34.58.49,1.67,7.78,9.39,12.22,12,6.76,3.91,17.4,6.13,25.2,6.48,7.6.34,18.07-1,25-4.07A36,36,0,0,0,280.35,184.33Z" transform="translate(13.74)"/><path d="M278,153.66c-4.79-14.88-9.78-34.28-34.51-34v-2.26c26,.13,30.48,21.2,35.26,36Z" transform="translate(13.74)"/><path class="cls-11" d="M278,153.66l.74-.24" transform="translate(13.74)"/><path d="M243.53,119.63c-19.46-.1-24.84,14-29.75,25.23l-2.05-.9c4.9-11.18,11.22-26.4,31.79-26.59Z" transform="translate(13.74)"/><path class="cls-11" d="M243.53,119.63v-2.26" transform="translate(13.74)"/><path d="M213.78,144.86c-5.33,12.12-8.52,30.9-7.57,34l-.54.16c-1-3.34.61-22.63,6.06-35.11Z" transform="translate(13.74)"/><path class="cls-11" d="M213.78,144.86l-2.05-.9" transform="translate(13.74)"/><path d="M218.31,190.7c6.71,3.88,17.31,6,25.07,6.3l0,.87c-7.84-.36-18.52-2.73-25.32-6.66Z" transform="translate(13.74)"/><path class="cls-11" d="M218.31,190.7l-.29.51" transform="translate(13.74)"/><path d="M243.38,197c7.56.34,17.89-1.21,24.74-4.25l.54,1.22c-7.06,3.11-17.68,4.24-25.32,3.9Z" transform="translate(13.74)"/><path class="cls-11" d="M243.38,197l0,.87" transform="translate(13.74)"/><path d="M268.12,192.75c4-1.78,9.24-5.1,12.05-8.57l.36.3c-2.86,3.51-7.68,7.63-11.87,9.49Z" transform="translate(13.74)"/><path class="cls-11" d="M268.12,192.75l.54,1.22" transform="translate(13.74)"/></g><g id="pupilas"><path class="cls-26" d="M152.1,154.38c4.67,0,8.46,5.18,8.48,11.64s-3.72,11.68-8.39,11.7-8.46-5.18-8.49-11.64S147.43,154.39,152.1,154.38Z" transform="translate(13.74)"/><path class="cls-26" d="M227.92,153.78c4.67,0,8.46,5.18,8.48,11.64s-3.72,11.69-8.39,11.7-8.46-5.18-8.48-11.64S223.25,153.8,227.92,153.78Z" transform="translate(13.74)"/></g></g><g id="ceja_gruesa" data-name="ceja gruesa"><path class="cls-20" d="M217.7,100.93c.3-4.88,12.86-13,21.71-14.66,10.49-2,18.36-.38,23.39,3.2,3.76,2.67,9,12,4.73,14.1-2.9,1.42-15.69-3.44-25.84-2.91C233.7,101.08,217.54,103.59,217.7,100.93Z" transform="translate(13.74)"/><path class="cls-20" d="M160.54,101c-.5-4.79-12.81-12.65-21.54-14.2-10.36-1.85-18.07-.16-23,3.36-3.78,2.69-9,12.12-4.83,14.16,2.74,1.33,15.56-3.58,25.66-3.19C144.71,101.46,160.81,103.67,160.54,101Z" transform="translate(13.74)"/></g><g id="nariz"><path class="cls-26" d="M189.55,191.27a3,3,0,0,1,2.3.73,1.59,1.59,0,0,1,.1,1.3,3.25,3.25,0,0,1-2.36,1.83,2.89,2.89,0,0,1-2.17-1.22,1.9,1.9,0,0,1-.27-1.62C187.46,191.66,188.77,191.31,189.55,191.27Z" transform="translate(13.74)"/></g></g></g><rect class="cls-27" x="284.48" y="224.82" width="96.05" height="16.92" transform="translate(44.1 504.75) rotate(-76.99)"/><rect class="cls-28" x="281.34" y="227.44" width="96.05" height="9.19" transform="translate(42.88 500.71) rotate(-76.99)"/><path class="cls-29" d="M330.43,282.65,319,297.45a1.27,1.27,0,0,1-1.68.45,1.33,1.33,0,0,1-.56-.79l-3.92-18.49Z" transform="translate(13.74)"/><path d="M316,293.41l.78,3.59a1.13,1.13,0,0,0,1.46.9,1.35,1.35,0,0,0,.78-.56l2.24-2.81Z" transform="translate(13.74)"/><path class="cls-30" d="M348,176l-3.25-.67c-4.48-1-8.52,2.46-9.08,4.7h0c-.56,2.25-.56,4.26,1.8,4.82l11.65,2.69c2.24.56,3-1.23,3.48-3.58h0C353.3,181.67,351.51,176.73,348,176Z" transform="translate(13.74)"/><path class="cls-31" d="M334.47,182.45l18.61,4.26a.85.85,0,0,1,.56.78l-1.57,6.95a.85.85,0,0,1-.79.56l-18.6-4.26a.83.83,0,0,1-.56-.78l1.57-7C333.69,182.56,334,182.34,334.47,182.45Z" transform="translate(13.74)"/><path class="cls-5" d="M333.56,240.48c.9-4.89,3.19-13.58,7.79-18.78s15.58,3.7,17.77,10.69.8,19.37-13.08,23.57S332.36,247,333.56,240.48Z" transform="translate(13.74)"/></g></g></svg>