<svg xmlns="http://www.w3.org/2000/svg" viewBox="0 0 365.71 355.97"><defs><style>.cls-1,.cls-3{fill:#ed4f36;}.cls-1,.cls-2,.cls-3,.cls-4,.cls-5,.cls-6,.cls-7{stroke:#000;stroke-miterlimit:10;}.cls-1,.cls-2,.cls-3,.cls-4,.cls-5,.cls-6{stroke-width:0.5px;}.cls-2{fill:#694342;}.cls-3,.cls-5{stroke-linecap:round;}.cls-4,.cls-5{fill:#ffe8c6;}.cls-6{fill:#feaf9e;}.cls-7{fill:#fff;}</style></defs><title>Mistake feedback_Panda rojo</title><g id="Layer_2" data-name="Layer 2"><g id="Layer_1-2" data-name="Layer 1"><path class="cls-1" d="M251.15,254.62c6.28-7.44,26.87-14.91,45,7.08s41.68,75.35,38,82.58-19.94,4.28-30.09-2.89S234.63,274.18,251.15,254.62Z"/><path class="cls-1" d="M316.77,355.72c-21.57-70-64.85-101.23-80.38-100.32-35.77,2.1-44.4,37.35-47.77,58.43-1.16,7.26-4.89,23.09-8.35,41.89Z"/><path class="cls-2" d="M317.14,355.72a299,299,0,0,0-14.31-36.87c-22.61-48.35-49.06-49.1-61.86-48.91-38.3.57-37,34-42.77,61.49-1.19,5.7-2.73,14.25-4.37,24.29Z"/><path class="cls-3" d="M202.24,280.73c-5.7,0-56.65,14.9-69.38,36.29-7.64,12.86.52,27.26,12.17,38.7H184c-14-9.69-27.16-18.58-25.12-26.45,2.33-8.93,28-26.16,37.53-25.84"/><path class="cls-4" d="M287.41,122.52c-11-3.74-23.55-40.57-24.88-68.16S278.64-1.31,288.3.32,337.35,68.23,325.53,123c0,0,32,3.71,39.92,19.54.45,2.14-21-13-28.23-8.37-.39.26,19.3,8.73,20.34,28,.07,1.27-31-18.53-40.2-18.23S287.41,122.52,287.41,122.52Z"/><path class="cls-1" d="M180.05,46.92c17.61-4.39,89.41,3,135.8,75.31,28.1,43.82,35.2,77.32,35.2,77.32s13.8,7.49,11.72,20.54c0,0-6.14-4.19-12.09-2,0,0,6.23,11.25.6,23.79,0,0-1.63-18.89-7-17.29C338.75,229,307,273.46,251.8,283c-63.41,10.91-151.91-17.82-165.42-18.46s-49.12-.13-53.38,4.86,14-14.27,21.55-17.64S31.23,248,23.86,250.55s15.6-21.66,42.94-24C66.8,226.59,64.63,75.71,180.05,46.92Z"/><path class="cls-5" d="M127.7,87c-1.57-5.34-23.86-49-56.14-65.95S9.47,13.57,1.72,24.18,17.43,139.05,57.47,162.25c0,0-33.7,2.28-41.15,15.69-2.37,6.77,15.48-2.12,27.84-.37,0,0-14.31,11.48-14.69,19.58C33.63,199,61.71,186.4,74.78,187"/><path class="cls-6" d="M82.6,162.51C86.24,166,76.34,87.45,64.06,61.44S24.63,30.49,17.87,39.34,28.53,110.8,82.6,162.51Z"/><path class="cls-4" d="M252.69,195c.84-2.62,54.27,28.24,55.38,46.47s-29.13,34.47-40,38-52,9.2-53.6-21.79S244,222.09,252.69,195Z"/><path class="cls-7" d="M154.47,196.11c-9.26-13-2.24-37.56,28.54-42.44s47.49,21.84,46.6,34.39S210.89,210,197.4,210.83C180.64,211.89,159.59,203.28,154.47,196.11Z"/><path class="cls-7" d="M275.35,129.29c7.82-1.62,34.48,15.93,31.83,49.33-1.24,8.53-3.92,16.75-16.58,19.18s-24.76-9.11-26.73-16.69C260.12,166.71,258.84,132.7,275.35,129.29Z"/><path class="cls-4" d="M183.65,146.55c12.2,5,30.91,11,37,5.63,2.05-1.24,5.63-.5-.59,6.53s-17.87,7.78-35.88,5.56c-18.42-2.28-30-13.88-29.83-21.64S161,137.18,183.65,146.55Z"/><path class="cls-4" d="M248.54,126.18c1.73,3.53,9.2-10.17,19.57-14,8.27-3.07,20.74-1.55,22.84-1.78s-11-12.45-26.1-11C245.81,101.27,245.53,120.07,248.54,126.18Z"/><ellipse cx="209.48" cy="183.64" rx="13.05" ry="17.63" transform="translate(-14.48 17.97) rotate(-4.75)"/><ellipse cx="258.68" cy="213.13" rx="2.39" ry="3.8" transform="translate(-16.76 22.15) rotate(-4.75)"/><ellipse cx="285.43" cy="168.56" rx="10.3" ry="15.89" transform="translate(-12.97 24.21) rotate(-4.75)"/><path class="cls-4" d="M258.48,253c1.63-7.27,3.41-12.46,5.63-12.9s8.3.74,11.12,9.19"/><path class="cls-1" d="M329.65,348.63c11.66-4.66,7.16-31.7,4.29-45.73-2.44-11.91-8.93-25.67-6.26-27.61s9.87-14.61,8.79-32.22c-.41-6.52-18.48-23-44.09-11.16-18,8.33-18.26,29-15.43,38.37,5.73,18.92,23.5,15.19,23.73,18.16.5,6.56,1.41,15.25,2.35,23.61,1.72,15.18,5.18,26.57,9.74,32.63C316.31,349.39,320.72,351.67,329.65,348.63Z"/><path class="cls-2" d="M305.5,225.9c4.63-.53,28.6,1.41,31.87,19.5s-5.43,28.4-9.74,33.72c-.75.93-4.53-.72-13.56,2.19S301,290.93,300,290.77s-15.27-5-19.68-12.15-9.16-17.91-1.95-35.74C284,228.77,300,226.52,305.5,225.9Z"/></g></g></svg>