<svg xmlns="http://www.w3.org/2000/svg" viewBox="0 0 211.92 265.81"><defs><style>.cls-1{fill:#ffc33e;}.cls-2{fill:#c51611;}</style></defs><title>Bolsa</title><g id="Layer_2" data-name="Layer 2"><g id="Layer_1-2" data-name="Layer 1"><path class="cls-1" d="M135.64,69.18c3.09-7.25,39.73-53.19,46.87-61.13a1.84,1.84,0,0,0-1-3C174.19,3.55,156,.17,146.64.92c-11.42.91-23.11,9.68-46.46,8.79S75.06,1,63.65.09C54.29-.66,42.57,3.55,35.25,5c-1.39.28-1.29,1.63-1,3,4.44,21.21,47.3,55.37,46.5,61.36-.69,5.19-32.73,21-53.51,58.52C19.47,142,3.3,164.65.91,185.37c-5.67,49.1,15.21,80.44,63.21,80.44h86c48,0,61.63-36,61.79-85.43.06-18.56-12.88-34.94-19.44-48.27C172.81,92.11,133.52,74.14,135.64,69.18Z"/><path class="cls-2" d="M66.25,64c6-8,27.69-6.18,41.46-6.18S143.8,60,144,63.71s-2.85,7.37-2.85,7.37,15.44,4.75,12.31,13.38c-1.8,5-33.36-6.38-45.4-6.38S62.31,88.53,59.84,86.76c-5.94-4.28,6.41-15.21,6.41-15.21S65.16,65.42,66.25,64Z"/></g></g></svg>