<svg xmlns="http://www.w3.org/2000/svg" viewBox="0 0 278.12 140.52"><defs><style>.cls-1{fill:#9fc8d3;}.cls-2{fill:#bbedff;}.cls-3{fill:#a9d2db;}.cls-4{opacity:0.65;}.cls-5{fill:#fff;}.cls-6{opacity:0.5;}.cls-7{fill:#a01212;}.cls-8{fill:#1f8ebe;}</style></defs><title>6</title><g id="Capa_2" data-name="Capa 2"><g id="Capa_1-2" data-name="Capa 1"><path class="cls-1" d="M126.76,29c.2-14.25,122.25-31.68,144,.78C303.22,2.81,127.31-16.22,126.76,29Z"/><path class="cls-2" d="M114.8,79.21c-12.25,9-38.1,16.16-68.47,21.79,3.52,11.84,3,24.8.76,36.71,43.79-9.58,66.46-19.38,66.46-19.38Z"/><path class="cls-2" d="M117.09,84.57C128.19,68.32,231.33,100.83,275.31,67l-.4-36.93C229.3,66.26,90.38,25.65,71.14,63,72.71,77.85,116.63,68.63,117.09,84.57Z"/><path class="cls-2" d="M176.72,44.25V20.46s81.58-10.11,77.45,17.06C254.17,37.52,226.66,52.51,176.72,44.25Z"/><polygon class="cls-3" points="71.14 67 71.14 94.66 114.8 79.22 71.14 67"/><polygon class="cls-3" points="126.76 29.28 126.76 44.25 150.81 44.12 126.76 29.28"/><path class="cls-3" d="M173.9,44.12s-46.24-8.43-45.48-15.81,87.18-37.17,142.41.57c0,0-13.51,11.15-16.51,9.89s0-7,0-7-15.68-21.93-79-11.32l1.45,23.79Z"/><g class="cls-4"><path class="cls-5" d="M82.56,124.23a2,2,0,0,1-.47-4c.17,0,17.13-4.2,24.56-8a2,2,0,0,1,1.83,3.57c-7.85,4-24.72,8.17-25.44,8.34A2,2,0,0,1,82.56,124.23Z"/></g><g class="cls-4"><path class="cls-5" d="M71.73,127a2,2,0,0,1-.46-4l5-1.18a2,2,0,1,1,.93,3.9l-5,1.19A2.49,2.49,0,0,1,71.73,127Z"/></g><g class="cls-4"><path class="cls-5" d="M222,78.2a2,2,0,0,1,0-4c.23,0,22.91-.54,37.77-8a2,2,0,1,1,1.79,3.59C245.83,77.65,223,78.18,222,78.2Z"/></g><g class="cls-4"><path class="cls-5" d="M216,78.46h-5.06a2,2,0,1,1,0-4H216a2,2,0,1,1,0,4Z"/></g><g class="cls-6"><path class="cls-5" d="M87.42,80h-.06A27.59,27.59,0,0,1,77,77.64,2,2,0,0,1,78.8,74a23.81,23.81,0,0,0,8.69,1.91,2,2,0,0,1-.07,4Z"/></g><g class="cls-4"><path class="cls-5" d="M222.48,41.62a2,2,0,0,1-.25-4l9.36-1.17a2,2,0,1,1,.5,4l-9.36,1.17Z"/></g><path d="M176.72,46.66a1.61,1.61,0,0,1-1.61-1.6V20.92a2.58,2.58,0,0,1,2.28-2.56c2-.24,50-5.72,72.31,6.62a11,11,0,0,1,5.49,7.47,10.4,10.4,0,0,1-2,8.52,4.55,4.55,0,0,1-1.84,1.52,1.6,1.6,0,0,1-1.14-3h0a4.66,4.66,0,0,0,.46-.51,7.12,7.12,0,0,0,1.4-5.9,7.78,7.78,0,0,0-3.9-5.29c-17-9.37-51.59-8.4-69.83-6.31V45.06A1.6,1.6,0,0,1,176.72,46.66Z"/><path d="M47.08,140.52a2.81,2.81,0,0,1-.36-5.59c.49-.07,48-6.35,65.74-19.2V83.3c-14.15,6-26.23,9-54.56,16.1L47.37,102A2.81,2.81,0,0,1,46,96.59L56.54,94c30.57-7.65,42-10.52,57.58-17.49A2.8,2.8,0,0,1,118.07,79v38.11a2.8,2.8,0,0,1-1.06,2.19C99,133.68,49.54,140.22,47.45,140.5Z"/><path d="M71.14,94.81A2.8,2.8,0,0,1,68.34,92V63a2.8,2.8,0,0,1,5.28-1.31c3.28,6.19,12.79,7.3,22,8.37,8.77,1,17,2,21.73,7.09a2.81,2.81,0,0,1-4.14,3.8c-3.27-3.57-10.88-4.46-18.24-5.31S79.6,73.82,74,70.05V92A2.81,2.81,0,0,1,71.14,94.81Z"/><path d="M115.26,89.66a2.81,2.81,0,0,1-2.37-4.31c8-12.71,30.42-10.39,58.81-7.45,32.78,3.39,73.46,7.59,100.4-12.31V35.39c-25,15.24-67.29,14.14-108.27,13.08-41.78-1.08-81.24-2.11-90.18,15.76a2.81,2.81,0,1,1-5-2.51c10.53-21.06,49.83-20,95.35-18.86,40.59,1,86.61,2.24,109.23-15a2.78,2.78,0,0,1,2.94-.28,2.8,2.8,0,0,1,1.57,2.51V67a2.85,2.85,0,0,1-1.09,2.22C247.93,91.42,205.34,87,171.12,83.48c-25.4-2.62-47.33-4.89-53.48,4.87A2.81,2.81,0,0,1,115.26,89.66Z"/><path d="M200.1,48.94c-37.82,0-78-8.58-78-24.47S162.28,0,200.1,0s78,8.58,78,24.47S237.92,48.94,200.1,48.94Zm0-43.32c-44.86,0-72.4,11-72.4,18.85s27.54,18.85,72.4,18.85,72.4-11,72.4-18.85S245,5.62,200.1,5.62Z"/><path d="M124.89,46.93a2.81,2.81,0,0,1-2.81-2.81V24.87a2.81,2.81,0,1,1,5.62,0V44.12A2.81,2.81,0,0,1,124.89,46.93Z"/><path d="M199.5,48.93c-36.08,0-72.6-6.88-72.6-20S163.42,8.82,199.5,8.82s72.6,6.89,72.6,20.06S235.58,48.93,199.5,48.93Zm0-35.29c-42,0-67.79,8.87-67.79,15.24S157.5,44.12,199.5,44.12s67.79-8.88,67.79-15.24S241.5,13.64,199.5,13.64Z"/><path d="M59.05,108.15a1.61,1.61,0,0,1-1.6-1.61V97.72a1.61,1.61,0,1,1,3.21,0v8.82A1.61,1.61,0,0,1,59.05,108.15Z"/><path d="M81.49,102.43a1.6,1.6,0,0,1-1.6-1.6V92a1.61,1.61,0,0,1,3.21,0v8.83A1.61,1.61,0,0,1,81.49,102.43Z"/><path d="M102.09,97.28a1.61,1.61,0,0,1-1.6-1.61V86.85a1.61,1.61,0,0,1,3.21,0v8.82A1.61,1.61,0,0,1,102.09,97.28Z"/><path d="M96.26,59.17a1.6,1.6,0,0,1-1.6-1.6V48.74a1.61,1.61,0,0,1,3.21,0v8.83A1.61,1.61,0,0,1,96.26,59.17Z"/><path d="M125.58,57a1.6,1.6,0,0,1-1.6-1.61V46.53a1.6,1.6,0,1,1,3.2,0v8.82A1.6,1.6,0,0,1,125.58,57Z"/><path d="M153.91,57a1.61,1.61,0,0,1-1.6-1.61V46.53a1.61,1.61,0,1,1,3.21,0v8.82A1.61,1.61,0,0,1,153.91,57Z"/><path d="M182.33,57.88a1.6,1.6,0,0,1-1.6-1.6V47.46a1.61,1.61,0,1,1,3.21,0v8.82A1.6,1.6,0,0,1,182.33,57.88Z"/><path d="M140.18,30.88a1.6,1.6,0,0,1-1.61-1.6V20.46a1.61,1.61,0,1,1,3.21,0v8.82A1.6,1.6,0,0,1,140.18,30.88Z"/><path d="M152.09,27.26a1.6,1.6,0,0,1-1.6-1.61V16.83a1.6,1.6,0,1,1,3.2,0v8.82A1.6,1.6,0,0,1,152.09,27.26Z"/><path d="M162.69,24.52a1.61,1.61,0,0,1-1.61-1.6V14.09a1.61,1.61,0,0,1,3.21,0v8.83A1.6,1.6,0,0,1,162.69,24.52Z"/><path d="M171.74,22.85a1.61,1.61,0,0,1-1.61-1.61V12.42a1.61,1.61,0,1,1,3.21,0v8.82A1.6,1.6,0,0,1,171.74,22.85Z"/><path d="M182.33,30.88a1.6,1.6,0,0,1-1.6-1.6V20.46a1.61,1.61,0,1,1,3.21,0v8.82A1.6,1.6,0,0,1,182.33,30.88Z"/><path d="M193.87,29.92a1.61,1.61,0,0,1-1.61-1.61V19.49a1.61,1.61,0,1,1,3.21,0v8.82A1.61,1.61,0,0,1,193.87,29.92Z"/><path d="M217.21,30.48a1.6,1.6,0,0,1-1.61-1.6V20.05a1.61,1.61,0,0,1,3.21,0v8.83A1.6,1.6,0,0,1,217.21,30.48Z"/><path d="M205.54,29.17a1.38,1.38,0,0,1-1.38-1.38V19a1.38,1.38,0,1,1,2.76,0v8.82A1.38,1.38,0,0,1,205.54,29.17Z"/><path d="M228.45,31.67a1.6,1.6,0,0,1-1.6-1.6V21.24a1.61,1.61,0,0,1,3.21,0v8.83A1.61,1.61,0,0,1,228.45,31.67Z"/><path d="M239.34,33.34a1.6,1.6,0,0,1-1.61-1.6V22.92a1.61,1.61,0,1,1,3.21,0v8.82A1.6,1.6,0,0,1,239.34,33.34Z"/><path d="M249,36.89a1.6,1.6,0,0,1-1.6-1.6V26.46a1.6,1.6,0,0,1,3.2,0v8.83A1.6,1.6,0,0,1,249,36.89Z"/><path d="M210.92,57.88a1.59,1.59,0,0,1-1.6-1.6V47.46a1.6,1.6,0,1,1,3.2,0v8.82A1.59,1.59,0,0,1,210.92,57.88Z"/><path d="M239.34,54.68a1.61,1.61,0,0,1-1.61-1.6V44.25a1.61,1.61,0,0,1,3.21,0v8.83A1.6,1.6,0,0,1,239.34,54.68Z"/><path d="M267.17,46.66a1.61,1.61,0,0,1-1.61-1.6V36.23a1.61,1.61,0,0,1,3.21,0v8.83A1.6,1.6,0,0,1,267.17,46.66Z"/><path class="cls-7" d="M97.72,105.77a.47.47,0,0,1-.34-.13.44.44,0,0,1-.13-.33v-4.82l.11.16-.86.51a.39.39,0,0,1-.23.07.4.4,0,0,1-.33-.15.43.43,0,0,1-.13-.31.42.42,0,0,1,.23-.39l1.41-.85a.59.59,0,0,1,.34-.06.4.4,0,0,1,.31.13.48.48,0,0,1,.12.33v5.38a.45.45,0,0,1-.14.33A.48.48,0,0,1,97.72,105.77Z"/><path class="cls-7" d="M101.68,105.86a1.94,1.94,0,0,1-1.27-.42,2.55,2.55,0,0,1-.79-1.15,5.33,5.33,0,0,1,0-3.35,2.55,2.55,0,0,1,.79-1.15,2,2,0,0,1,1.27-.41,2,2,0,0,1,1.28.41,2.61,2.61,0,0,1,.78,1.15,5.33,5.33,0,0,1,0,3.35,2.61,2.61,0,0,1-.78,1.15A2,2,0,0,1,101.68,105.86Zm0-.91a1,1,0,0,0,.73-.27,1.83,1.83,0,0,0,.47-.79,4.27,4.27,0,0,0,.16-1.27,4.34,4.34,0,0,0-.16-1.28,1.83,1.83,0,0,0-.47-.79,1,1,0,0,0-.73-.27,1.08,1.08,0,0,0-.73.27,1.64,1.64,0,0,0-.46.79,4.31,4.31,0,0,0-.17,1.28,4.24,4.24,0,0,0,.17,1.27,1.64,1.64,0,0,0,.46.79A1.08,1.08,0,0,0,101.68,105Z"/><path class="cls-7" d="M106.88,99.36a2,2,0,0,1,.89.2,2,2,0,0,1,.66.53,2.48,2.48,0,0,1,.41.77,2.67,2.67,0,0,1,.14.89,4.08,4.08,0,0,1-.08.8,4.4,4.4,0,0,1-.27.93,4.2,4.2,0,0,1-.5.93,3.73,3.73,0,0,1-.78.81,3.29,3.29,0,0,1-1.09.55l-.18,0a.54.54,0,0,1-.32-.11.39.39,0,0,1-.13-.33.39.39,0,0,1,.1-.28.53.53,0,0,1,.28-.17,3.12,3.12,0,0,0,.87-.48,3.35,3.35,0,0,0,.73-.77,2.5,2.5,0,0,0,.41-1l.22,0a2.18,2.18,0,0,1-.33.38,1.56,1.56,0,0,1-.5.33,1.53,1.53,0,0,1-.66.13,1.6,1.6,0,0,1-.71-.16,2,2,0,0,1-.62-.45,2.09,2.09,0,0,1-.43-.66,1.94,1.94,0,0,1-.17-.8,2,2,0,0,1,.28-1,2.13,2.13,0,0,1,.74-.75A2,2,0,0,1,106.88,99.36Zm0,.83a1.06,1.06,0,0,0-.58.16,1.09,1.09,0,0,0-.42.43,1.34,1.34,0,0,0-.15.64,1.44,1.44,0,0,0,.14.62,1.17,1.17,0,0,0,.4.45,1.06,1.06,0,0,0,.61.17,1.11,1.11,0,0,0,1-.62,1.33,1.33,0,0,0,.15-.63,1.37,1.37,0,0,0-.14-.61,1.11,1.11,0,0,0-.42-.44A1.15,1.15,0,0,0,106.88,100.19Z"/><path class="cls-7" d="M148.73,65.74a.49.49,0,0,1-.34-.13.45.45,0,0,1-.14-.33V60.45l.12.17-.86.51a.42.42,0,0,1-.24.07.43.43,0,0,1-.33-.15.5.5,0,0,1-.13-.32.42.42,0,0,1,.24-.38l1.41-.85a.58.58,0,0,1,.33-.06.39.39,0,0,1,.31.13.45.45,0,0,1,.12.33v5.38a.44.44,0,0,1-.13.33A.57.57,0,0,1,148.73,65.74Z"/><path class="cls-7" d="M151.92,65.74a.52.52,0,0,1-.35-.13.44.44,0,0,1-.13-.33V60.45l.12.17-.87.51a.39.39,0,0,1-.23.07.43.43,0,0,1-.33-.15.45.45,0,0,1-.13-.32.43.43,0,0,1,.23-.38l1.42-.85a.58.58,0,0,1,.33-.06.39.39,0,0,1,.31.13.45.45,0,0,1,.12.33v5.38a.42.42,0,0,1-.14.33A.52.52,0,0,1,151.92,65.74Z"/><path class="cls-7" d="M155.23,65.8a2.69,2.69,0,0,1-.73-.11,1.7,1.7,0,0,1-.63-.32.45.45,0,0,1-.15-.21.53.53,0,0,1-.06-.24.38.38,0,0,1,.11-.25.41.41,0,0,1,.31-.12.63.63,0,0,1,.34.14,2,2,0,0,0,.38.2,1.2,1.2,0,0,0,.42.08,1.65,1.65,0,0,0,.77-.18,1.47,1.47,0,0,0,.55-.5,1.34,1.34,0,0,0,0-1.36,1.17,1.17,0,0,0-.46-.42,1.34,1.34,0,0,0-.66-.16,1.24,1.24,0,0,0-.52.1,2.63,2.63,0,0,0-.41.19.71.71,0,0,1-.32.09.52.52,0,0,1-.35-.1.49.49,0,0,1-.16-.25.9.9,0,0,1,0-.28l.31-2.3a.43.43,0,0,1,.15-.26.45.45,0,0,1,.31-.1h2.63a.41.41,0,0,1,.3.12.41.41,0,0,1,0,.6.44.44,0,0,1-.3.11h-2.41l.1-.08-.29,2-.13-.27a.66.66,0,0,1,.27-.17,2.52,2.52,0,0,1,.44-.15,2.21,2.21,0,0,1,1.57.21,2,2,0,0,1,.74.73,2.13,2.13,0,0,1,.27,1.07,2,2,0,0,1-.19.87,2.24,2.24,0,0,1-1.29,1.17A2.6,2.6,0,0,1,155.23,65.8Z"/><path class="cls-7" d="M236.46,64.22a.46.46,0,0,1-.48-.46V58.94l.12.16-.86.51a.45.45,0,0,1-.57-.07.52.52,0,0,1-.13-.32.44.44,0,0,1,.24-.39l1.41-.85a.81.81,0,0,1,.33-.06.39.39,0,0,1,.31.13.48.48,0,0,1,.12.33v5.38a.42.42,0,0,1-.14.33A.48.48,0,0,1,236.46,64.22Z"/><path class="cls-7" d="M239.65,64.22a.48.48,0,0,1-.35-.13.44.44,0,0,1-.13-.33V58.94l.12.16-.87.51a.39.39,0,0,1-.23.07.42.42,0,0,1-.33-.14.47.47,0,0,1-.13-.32.45.45,0,0,1,.23-.39l1.42-.85a.81.81,0,0,1,.33-.06.4.4,0,0,1,.31.13.48.48,0,0,1,.12.33v5.38a.45.45,0,0,1-.14.33A.48.48,0,0,1,239.65,64.22Z"/><path class="cls-7" d="M244.43,61v-.17a1.88,1.88,0,0,1,.58.38,1.65,1.65,0,0,1,.39.53,1.51,1.51,0,0,1,.14.62,1.68,1.68,0,0,1-.27.93,2.05,2.05,0,0,1-.74.66,2.13,2.13,0,0,1-1,.25,2.09,2.09,0,0,1-1-.25,2,2,0,0,1-.74-.66,1.68,1.68,0,0,1-.27-.93,1.49,1.49,0,0,1,.16-.71,1.77,1.77,0,0,1,.43-.51,3.6,3.6,0,0,1,.53-.34l-.05.2a1.78,1.78,0,0,1-.45-.28,1.39,1.39,0,0,1-.35-.44,1.57,1.57,0,0,1-.13-.63,1.63,1.63,0,0,1,.26-.89,1.9,1.9,0,0,1,.68-.64,2,2,0,0,1,1.92,0,1.9,1.9,0,0,1,.68.64,1.62,1.62,0,0,1,.25.89,1.3,1.3,0,0,1-.15.65,1.53,1.53,0,0,1-.36.43A2.32,2.32,0,0,1,244.43,61Zm-1,2.37a1.21,1.21,0,0,0,.82-.29,1,1,0,0,0,.32-.73,1,1,0,0,0-.15-.53,1.08,1.08,0,0,0-.42-.37,1.2,1.2,0,0,0-.57-.13,1.27,1.27,0,0,0-.58.13,1.13,1.13,0,0,0-.41.37,1,1,0,0,0-.15.53.94.94,0,0,0,.32.73A1.21,1.21,0,0,0,243.48,63.41Zm-1-3.7a.93.93,0,0,0,.13.5,1.14,1.14,0,0,0,.35.34,1.1,1.1,0,0,0,.51.12.95.95,0,0,0,.85-.46.93.93,0,0,0,.13-.5.9.9,0,0,0-.28-.69,1.06,1.06,0,0,0-1.41,0A.9.9,0,0,0,242.49,59.71Z"/><polygon class="cls-8" points="47.87 80.83 28.68 69.75 28.68 74.74 0 74.74 0 86.93 28.68 86.93 28.68 91.92 47.87 80.83"/><path d="M54.57,118.13a.45.45,0,0,1-.34-.13.42.42,0,0,1-.14-.32v-4.83l.12.16-.86.52a.42.42,0,0,1-.24.07.43.43,0,0,1-.33-.15.5.5,0,0,1-.13-.32.45.45,0,0,1,.24-.39l1.41-.84a.67.67,0,0,1,.33-.07.42.42,0,0,1,.31.13.49.49,0,0,1,.13.33v5.39a.42.42,0,0,1-.14.32A.52.52,0,0,1,54.57,118.13Z"/><path d="M58.53,118.22a2,2,0,0,1-1.28-.41,2.58,2.58,0,0,1-.79-1.16,5.49,5.49,0,0,1,0-3.34,2.5,2.5,0,0,1,.79-1.15,2,2,0,0,1,1.28-.41,1.94,1.94,0,0,1,1.27.41,2.5,2.5,0,0,1,.79,1.15,5.3,5.3,0,0,1,0,3.34,2.58,2.58,0,0,1-.79,1.16A2,2,0,0,1,58.53,118.22Zm0-.9a1.08,1.08,0,0,0,.73-.27,1.76,1.76,0,0,0,.46-.8,4.83,4.83,0,0,0,0-2.54,1.67,1.67,0,0,0-.46-.79,1.09,1.09,0,0,0-1.46,0,1.68,1.68,0,0,0-.47.79,5.12,5.12,0,0,0,0,2.54,1.77,1.77,0,0,0,.47.8A1.08,1.08,0,0,0,58.53,117.32Z"/><path d="M63,118.17a.47.47,0,0,1-.32-.12.4.4,0,0,1-.14-.31.54.54,0,0,1,0-.21l2.26-5.07.1.2H62.23a.44.44,0,0,1-.3-.11.41.41,0,0,1-.12-.31.4.4,0,0,1,.12-.29.41.41,0,0,1,.3-.12h3.19a.49.49,0,0,1,.34.13.4.4,0,0,1,.14.32.43.43,0,0,1,0,.19l-2.41,5.41a.47.47,0,0,1-.42.29Z"/></g></g></svg>