<svg xmlns="http://www.w3.org/2000/svg" viewBox="0 0 122.61 120"><defs><style>.cls-1{fill:none;}.cls-2,.cls-3,.cls-6{fill:#ed4f36;}.cls-10,.cls-11,.cls-2,.cls-5,.cls-6,.cls-7,.cls-8,.cls-9{stroke:#000;stroke-miterlimit:10;}.cls-10,.cls-2,.cls-9{stroke-width:0.5px;}.cls-11,.cls-4{fill:#694342;}.cls-10,.cls-5,.cls-7{fill:#ffe8c6;}.cls-11,.cls-5,.cls-6,.cls-7,.cls-8{stroke-width:0.25px;}.cls-10,.cls-7{stroke-linecap:round;}.cls-8{fill:#feaf9e;}.cls-9{fill:#fff;}</style></defs><title>Mistake feedback_panda rojo</title><g id="Layer_2" data-name="Layer 2"><g id="Layer_1-2" data-name="Layer 1"><rect class="cls-1" width="122.61" height="120"/><path class="cls-2" d="M82.83,87.3c2-2.41,8.69-4.83,14.55,2.29s13.49,24.39,12.31,26.73-6.46,1.38-9.74-.94S77.48,93.63,82.83,87.3Z"/><path class="cls-3" d="M104.08,120c-7-22.48-21-32.75-26-32.45-11.58.68-14.37,12.09-15.46,18.91C62.22,108.78,61.13,114,60,120Z"/><path d="M60.15,120c.58-3.15,1.1-6.28,1.59-8.62.45-2.13.8-3.8,1-4.9C63.43,102,65.6,88.4,78.06,87.67h.2c2.44,0,7,2.31,12,7.59,4.09,4.36,9.86,12.36,13.72,24.74h.27C97.51,98.47,83.94,87.42,78.29,87.42H78c-12.66.75-14.85,14.5-15.57,19-.18,1.09-.53,2.77-1,4.89-.5,2.35-1,5.5-1.61,8.67Z"/><path class="cls-4" d="M104.2,120a100.18,100.18,0,0,0-4.65-11.91c-7.32-15.65-15.88-15.9-20-15.83-12.39.18-12,11-13.84,19.9-.38,1.8-.77,4.7-1.28,7.84Z"/><path d="M64.53,120c.51-3.1.91-6,1.28-7.82.28-1.34.51-2.75.74-4.11,1.26-7.64,2.56-15.54,13-15.69,3.72-.06,12.45-.18,19.91,15.76A100.14,100.14,0,0,1,104.07,120h.26a101.94,101.94,0,0,0-4.66-12c-7.53-16.09-16.37-16-20.14-15.9-10.63.16-12,8.16-13.23,15.9-.22,1.36-.45,2.76-.73,4.1-.38,1.81-.78,4.75-1.29,7.87Z"/><path class="cls-3" d="M60.83,120c-4.41-3-8.53-6.06-7.88-8.54.75-2.89,9-8.47,12.14-8.36L67,95.75c-1.85,0-18.34,4.82-22.46,11.74-2.42,4.08.16,8.85,3.8,12.51Z"/><path d="M53.07,111.49c.7-2.71,8.76-8.27,11.93-8.27h.09a.13.13,0,0,0,0-.25H65c-3.33,0-11.43,5.61-12.17,8.46C52.16,114,56.27,117,60.61,120h.44l0,0C56.64,117,52.44,113.91,53.07,111.49Z"/><path d="M48.51,120c-2.65-2.65-6.6-7.84-3.86-12.44C48.7,100.75,65.14,95.87,67,95.87h0a.12.12,0,0,0,.12-.12.12.12,0,0,0-.12-.13h0c-1.94,0-18.37,4.77-22.56,11.81-2.07,3.49-.68,8.09,3.74,12.57Z"/><path class="cls-5" d="M94.56,44.54c-3.56-1.21-7.62-13.13-8-22.06s5.22-18,8.34-17.5S110.73,27,106.9,44.7c0,0,10.35,1.2,12.92,6.32.15.69-6.81-4.21-9.13-2.71-.13.09,6.24,2.83,6.58,9.08,0,.41-10-6-13-5.9S94.56,44.54,94.56,44.54Z"/><path class="cls-6" d="M59.81,20.07c5.7-1.42,29,1,44,24.38,9.1,14.18,11.39,25,11.39,25s4.47,2.43,3.8,6.65a4.77,4.77,0,0,0-3.92-.63,9.17,9.17,0,0,1,.2,7.69s-.53-6.11-2.28-5.59C111.18,79,100.89,93.39,83,96.46c-20.53,3.54-49.17-5.76-53.55-6s-15.89,0-17.27,1.57,4.53-4.61,7-5.71S11.64,85.17,9.26,86s5.05-7,13.9-7.76C23.16,78.22,22.46,29.39,59.81,20.07Z"/><path class="cls-7" d="M42.87,33c-.51-1.73-7.72-15.85-18.17-21.35s-20.1-2.42-22.61,1S7.18,49.89,20.14,57.4c0,0-10.91.74-13.32,5.08-.77,2.19,5-.69,9-.12,0,0-4.63,3.71-4.76,6.34,1.35.58,10.44-3.48,14.67-3.31"/><path class="cls-8" d="M28.27,57.48c1.18,1.13-2-24.29-6-32.71s-12.76-10-14.95-7.15S10.77,40.75,28.27,57.48Z"/><path class="cls-5" d="M83.33,68c.27-.84,17.56,9.15,17.92,15s-9.43,11.16-13,12.31-16.81,3-17.34-7.06S80.52,76.77,83.33,68Z"/><path class="cls-9" d="M51.53,68.36c-3-4.19-.72-12.16,9.24-13.74s15.37,7.07,15.09,11.13-6.06,7.1-10.43,7.37C60,73.47,53.19,70.68,51.53,68.36Z"/><path class="cls-9" d="M90.66,46.73c2.53-.52,11.16,5.16,10.3,16-.4,2.76-1.27,5.42-5.36,6.2s-8-3-8.66-5.4C85.73,58.84,85.32,47.83,90.66,46.73Z"/><path class="cls-5" d="M61,52.32c4,1.63,10,3.57,12,1.82.67-.4,1.82-.16-.19,2.11S67,58.77,61.16,58.05s-9.71-4.49-9.66-7S53.65,49.28,61,52.32Z"/><path class="cls-5" d="M82,45.72c.56,1.15,3-3.29,6.34-4.54,2.67-1,6.71-.5,7.39-.57s-3.55-4-8.45-3.55C81.1,37.66,81,43.74,82,45.72Z"/><ellipse cx="69.34" cy="64.32" rx="4.22" ry="5.71" transform="translate(-5.09 5.96) rotate(-4.75)"/><ellipse cx="85.26" cy="73.87" rx="0.78" ry="1.23" transform="translate(-5.82 7.31) rotate(-4.75)"/><ellipse cx="93.92" cy="59.44" rx="3.33" ry="5.14" transform="translate(-4.6 7.98) rotate(-4.75)"/><path class="cls-10" d="M85.2,86.77c.53-2.35,1.1-4,1.82-4.17s2.69.24,3.6,3"/><path class="cls-6" d="M108.24,117.72c3.77-1.5,2.31-10.26,1.38-14.8-.79-3.85-2.89-8.3-2-8.93s3.19-4.73,2.84-10.43c-.13-2.11-6-7.44-14.27-3.62-5.84,2.7-5.91,9.4-5,12.43,1.85,6.12,7.6,4.91,7.68,5.87.16,2.13.45,4.94.76,7.64.56,4.92,1.68,8.6,3.15,10.57C103.92,118,105.35,118.71,108.24,117.72Z"/><path class="cls-11" d="M100.42,78c1.5-.17,9.26.46,10.31,6.31a12.41,12.41,0,0,1-3.15,10.92c-.24.3-1.47-.24-4.39.71S99,99.05,98.62,99s-4.94-1.62-6.37-3.94-3-5.79-.63-11.57C93.47,78.93,98.64,78.2,100.42,78Z"/></g></g></svg>