<svg xmlns="http://www.w3.org/2000/svg" xmlns:xlink="http://www.w3.org/1999/xlink" viewBox="0 0 378.67 456.05"><defs><style>.cls-1,.cls-18,.cls-4,.cls-7{fill:none;}.cls-2,.cls-3{fill:#2f3c4c;}.cls-11,.cls-12,.cls-14,.cls-15,.cls-17,.cls-18,.cls-19,.cls-2,.cls-4,.cls-6,.cls-7,.cls-9{stroke:#000;stroke-linejoin:round;}.cls-11,.cls-12,.cls-14,.cls-15,.cls-17,.cls-18,.cls-19,.cls-2,.cls-6,.cls-7,.cls-9{stroke-linecap:round;}.cls-11,.cls-12,.cls-14,.cls-15,.cls-16,.cls-17,.cls-19,.cls-2,.cls-3,.cls-6,.cls-9{fill-rule:evenodd;}.cls-5{clip-path:url(#clip-path);}.cls-6{fill:#fef5e4;}.cls-8{clip-path:url(#clip-path-2);}.cls-9{fill:#fea49c;}.cls-10{clip-path:url(#clip-path-3);}.cls-11{fill:#faf8eb;}.cls-12{fill:#7b2325;}.cls-13{clip-path:url(#clip-path-4);}.cls-14{fill:#f06b6b;}.cls-15,.cls-16{fill:#fff;}.cls-17{fill:#1c1c1c;}.cls-18{stroke-width:3px;}.cls-20{fill:#fcb042;stroke:#562f09;stroke-miterlimit:10;}.cls-21{fill:#ed9520;}.cls-22{fill:#fce8c8;}.cls-23{fill:#e44b86;stroke:#b53167;}.cls-23,.cls-24{stroke-miterlimit:10;}.cls-24{fill:#a0a0b1;stroke:#71717f;}</style><clipPath id="clip-path" transform="translate(0 7.99)"><path class="cls-1" d="M197.15,185.75c-18.84,0-43.53,1.8-57.93,12.19-5.88,4.24-13.18,19.09-13.57,20-.89,2-8.31,37.23-10.28,53.43-2.73,22.38-10.65,53.66-3.59,75.07,3.39,10.26,16.92,20.56,26,23.48,14.06,4.52,42.27,5.54,60.49,5.33,16.12-.18,36.65-.88,53.44-5.83,14.86-4.38,22.6-11.52,26.51-20.85,11.89-28.37,4.38-60.22,3.24-75.81-1.3-17.79-9.15-47.79-12.9-56.37-1.38-3.16-6.34-14.07-11.43-17.91C242.45,187.38,216.66,185.75,197.15,185.75Z"/></clipPath><clipPath id="clip-path-2" transform="translate(0 7.99)"><path class="cls-1" d="M132.57,30.06c-3.28-6.72-21.36-21.4-32.45-23.43C82.21,3.34,65.24,12.56,58.39,24.34c-9.6,16.51-3.63,43.75,10.11,51.34C87,85.91,99,80.83,105.53,79.49c6-1.25,21.52-4.75,26.05-12.08C146,44.14,135.63,36.34,132.57,30.06Z"/></clipPath><clipPath id="clip-path-3" transform="translate(0 7.99)"><path class="cls-1" d="M273.89,66.45c-3-6.84-1.35-30.84,4.26-40.62C287.21,10,305.22,3.05,318.64,5.44c18.79,3.34,35.73,25.5,32.64,40.89C347.1,67.08,321.93,82,316.72,86.12c-4.83,3.78-4,4.28-12.52,3C277.15,85.05,276.7,72.85,273.89,66.45Z"/></clipPath><clipPath id="clip-path-4" transform="translate(0 7.99)"><path class="cls-1" d="M133.06,178.28c7.93,1.91,21.32,5.94,31.18,7.67,11.66,2,31.55,3.32,37.77,3.89s29.24,2.91,38.16,3c8.21.1,22.6-1.45,35.22-1.94,3-.12,12.75-.66,12.89-.43s-8.92,15.68-14.45,19.62c-7.8,5.55-23.94,8.07-33,9.44-11.46,1.73-32.43,1.77-43.26.6-11.46-1.23-32.11-5.16-44.6-10.44-8.65-3.65-20-9.65-26.93-16.79-4.82-5-11.4-19-11.4-19S128.37,177.15,133.06,178.28Z"/></clipPath></defs><title>Panda glosa</title><g id="Layer_2" data-name="Layer 2"><g id="Frame_6" data-name="Frame 6"><g id="OSO_PANDA" data-name="OSO PANDA"><g id="cola"><path class="cls-2" d="M182,321c2.75-3.66,8.69-7.51,13.27-7.52,7.32,0,19.09,5.89,20.61,13.05,1.62,7.68-7.34,19.29-14.86,21.55-7.1,2.13-19.64-2.44-23-9.06C175.5,334,178.68,325.46,182,321Z" transform="translate(0 7.99)"/></g><g id="pierna_izq" data-name="pierna izq"><g id="pierna_izq-2" data-name="pierna izq"><path class="cls-2" d="M254.55,440.32c11.76-.72,16.08-13.42,16.08-13.43s1.42-26.77.73-38.22c-1-15.69-5.12-48.06-7.62-51.85-1.93-2.92-12.47-10.83-31.88-5.5-18.44,5.06-24.74,22.12-24.77,24.59-.05,4.4,17.67,28.84,21.83,39.7,3.08,8.05,7.87,32.64,7.87,32.65S242,441.08,254.55,440.32Z" transform="translate(0 7.99)"/></g><g id="pata_izq" data-name="pata izq"><path class="cls-2" d="M272.58,426.9c2.44.65,8.35,1.69,11.9,7.2,2.65,4.11,1.51,11.53,1.13,12.06-1,1.34-22.14,1.16-30.7,1.15-5.85,0-19.91-.44-21-.78-1.57-.49-1.53-7.49-.84-10.6s2.35-7.89,4.35-9.07c3.84-2.27,12.93-2.33,17.75-2.33A65.92,65.92,0,0,1,272.58,426.9Z" transform="translate(0 7.99)"/></g></g><g id="pierna_der" data-name="pierna der"><g id="pierna_der-2" data-name="pierna der"><path class="cls-2" d="M142.49,440.44c-13.56-.79-14.9-15-15.21-16.09,0,0-5.49-24.1-6.34-34.63-1.23-15.18-.6-46.82,1.38-50.75,1.64-3.24,13.65-13,32.33-9.14,19.18,3.91,25.81,17.77,26.81,21.71,1,4.15-13.72,29.65-17.18,40.42-3,9.25-6.47,35.88-6.62,37.28C158.07,429.81,155.86,441.22,142.49,440.44Z" transform="translate(0 7.99)"/></g><g id="pata_der" data-name="pata der"><path class="cls-2" d="M159.61,428c1.45,1,3.52,4.88,4.67,8.07,1.06,2.92,1.1,9.88.76,10.32-.75,1-16.6,1.07-23,1.15-8.05.1-27.44-.22-28.89-.77s-1.49-7.76-.07-10.61c2-4,8.23-8.12,11.48-9.07a79.56,79.56,0,0,1,17.75-2.32C149.49,424.84,155,424.77,159.61,428Z" transform="translate(0 7.99)"/></g></g><g id="brazo_izq" data-name="brazo izq"><g id="brazo_izq-2" data-name="brazo izq"><path class="cls-3" d="M244.93,227.68c-1.23-6.52,1.95-10.4,4-11.09,2.81-1,53.36-14,54.15-14.53s31.11-48.15,31.39-48.58c5-7.68,7.12-13.29,9.33-15,3.43-2.67,16.32,2,22,5.72,4.77,3.12,10,8.69,11.94,14.77.65,2-4.29,11.77-9.82,17.87-4.09,4.51-45.08,48.92-51.78,52.31C310.53,232,256,237,252.15,236A11.25,11.25,0,0,1,244.93,227.68Z" transform="translate(0 7.99)"/><path d="M244.93,227.68c-1.23-6.52,1.67-10.71,3.88-11.49l.27.79c-1.93.62-5.38,4.18-4.15,10.7Z" transform="translate(0 7.99)"/><path d="M248.81,216.19c2.83-1,53.29-14.3,53.82-14.76l.91,1.26c-1.05.69-51.69,13.35-54.46,14.29Z" transform="translate(0 7.99)"/><path class="cls-4" d="M248.81,216.19l.27.79" transform="translate(0 7.99)"/><path d="M302.63,201.43c.62-.39,30.92-47.94,31.2-48.37l1.3.85c-.28.42-30.57,48-31.59,48.78Z" transform="translate(0 7.99)"/><path class="cls-4" d="M302.63,201.43l.91,1.26" transform="translate(0 7.99)"/><path d="M333.83,153.06c5-7.63,7.1-13.26,9.51-15.2l1,1.23c-2,1.49-4.08,7.08-9.16,14.82Z" transform="translate(0 7.99)"/><path class="cls-4" d="M333.83,153.06l1.3.85" transform="translate(0 7.99)"/><path d="M343.34,137.86c4-2.82,17.11,1.9,22.93,5.69l-.85,1.3c-5.61-3.68-18.27-8.27-21.13-5.76Z" transform="translate(0 7.99)"/><path class="cls-4" d="M343.34,137.86l1,1.23" transform="translate(0 7.99)"/><path d="M366.27,143.55c4.85,3.18,10.2,8.93,12.24,15.18l-1.47.47c-1.89-5.91-6.94-11.3-11.62-14.35Z" transform="translate(0 7.99)"/><path class="cls-4" d="M366.27,143.55l-.85,1.3" transform="translate(0 7.99)"/><path d="M378.51,158.73c.64,2.51-4.37,12.44-10,18.63l-1.15-1c5.47-6,10.32-15.61,9.66-17.12Z" transform="translate(0 7.99)"/><path class="cls-4" d="M378.51,158.73l-1.47.47" transform="translate(0 7.99)"/><path d="M368.53,177.36c-4.09,4.51-45.1,48.95-52,52.48l-.7-1.38c6.5-3.25,47.47-47.64,51.55-52.14Z" transform="translate(0 7.99)"/><path class="cls-4" d="M368.53,177.36l-1.15-1" transform="translate(0 7.99)"/><path d="M316.53,229.84c-5.89,2.93-60.54,7.6-64.49,6.58l.21-.81c3.68,1,58.18-4.38,63.58-7.15Z" transform="translate(0 7.99)"/><path class="cls-4" d="M316.53,229.84l-.7-1.38" transform="translate(0 7.99)"/><path d="M252,236.42a12.1,12.1,0,0,1-7.11-8.74h0a10.44,10.44,0,0,0,7.32,7.93Z" transform="translate(0 7.99)"/><path class="cls-4" d="M252,236.42l.21-.81" transform="translate(0 7.99)"/></g></g><g id="brazo_der" data-name="brazo der"><g id="brazo_der-2" data-name="brazo der"><path class="cls-3" d="M147,226.74c3.23-7.3-1.8-13.57-2.08-14-.94-1.54-42.77-23.61-42.81-23.63s-41-22.36-49.77-26.86C35.17,153.41,34.66,152,20.78,146.61c-4-1.56-12.49,7.5-15.91,16.77-2.13,5.8-6.44,17.55-2.8,20.44,6.86,5.47,12.61,7.41,21.55,11,.45.18,60.17,22,63.88,23.27,2.77,1,45.4,16.83,48.2,16.28C136.45,234.26,143.9,233.77,147,226.74Z" transform="translate(0 7.99)"/><path d="M147,226.74c3.23-7.3-2.13-13.31-2.44-13.82l.71-.43c.26.42,5,6.95,1.73,14.25Z" transform="translate(0 7.99)"/><path d="M144.56,212.92c-.79-1.38-42.77-23.13-42.82-23.16l.74-1.36s41.7,22.41,42.79,24.09Z" transform="translate(0 7.99)"/><path class="cls-4" d="M144.56,212.92l.71-.43" transform="translate(0 7.99)"/><path d="M101.74,189.76S60.74,167.4,52,162.91l.71-1.38c8.79,4.51,49.74,26.84,49.79,26.87Z" transform="translate(0 7.99)"/><path class="cls-4" d="M101.74,189.76l.74-1.36" transform="translate(0 7.99)"/><path d="M52,162.91c-17.2-8.82-17.65-10.23-31.48-15.58l.56-1.45c13.93,5.4,14.5,6.86,31.63,15.65Z" transform="translate(0 7.99)"/><path class="cls-4" d="M52,162.91l.71-1.38" transform="translate(0 7.99)"/><path d="M20.5,147.33c-3.34-1.61-11.56,7.2-14.9,16.32l-1.45-.54c3.49-9.42,12.21-18.72,16.91-17.23Z" transform="translate(0 7.99)"/><path class="cls-4" d="M20.5,147.33l.56-1.45" transform="translate(0 7.99)"/><path d="M5.6,163.65c-2.13,5.8-6.39,17.31-3,19.57l-1,1.21c-3.92-3.54.43-15.52,2.57-21.32Z" transform="translate(0 7.99)"/><path class="cls-4" d="M5.6,163.65l-1.45-.54" transform="translate(0 7.99)"/><path d="M2.55,183.22c6.77,5.4,12.4,7.28,21.37,10.92l-.59,1.44C14.4,192,8.54,190,1.58,184.43Z" transform="translate(0 7.99)"/><path class="cls-4" d="M2.55,183.22l-1,1.21" transform="translate(0 7.99)"/><path d="M23.92,194.14c.42.17,60.14,22,63.84,23.26l-.52,1.46c-3.71-1.3-63.44-23.09-63.91-23.28Z" transform="translate(0 7.99)"/><path class="cls-4" d="M23.92,194.14l-.59,1.44" transform="translate(0 7.99)"/><path d="M87.76,217.4c2.78,1,45.32,17,47.83,16.46l.22,1.1c-3.09.52-45.81-15.13-48.57-16.1Z" transform="translate(0 7.99)"/><path class="cls-4" d="M87.76,217.4l-.52,1.46" transform="translate(0 7.99)"/><path d="M135.59,233.86c.82-.15,8.31-.09,11.41-7.12h0c-3.1,7-10.51,8.08-11.19,8.22Z" transform="translate(0 7.99)"/><path class="cls-4" d="M135.59,233.86l.22,1.1" transform="translate(0 7.99)"/></g></g><g id="cuerpo"><g id="cuerpo-2" data-name="cuerpo"><path class="cls-2" d="M197.15,185.75c-18.84,0-43.53,1.8-57.93,12.19-5.88,4.24-13.18,19.09-13.57,20-.89,2-8.31,37.23-10.28,53.43-2.73,22.38-10.65,53.66-3.59,75.07,3.39,10.26,16.92,20.56,26,23.48,14.06,4.52,42.27,5.54,60.49,5.33,16.12-.18,36.65-.88,53.44-5.83,14.86-4.38,22.6-11.52,26.51-20.85,11.89-28.37,4.38-60.22,3.24-75.81-1.3-17.79-9.15-47.79-12.9-56.37-1.38-3.16-6.34-14.07-11.43-17.91C242.45,187.38,216.66,185.75,197.15,185.75Z" transform="translate(0 7.99)"/></g><g id="detalle"><g class="cls-5"><path class="cls-6" d="M129.51,262c-19.31,19.53-24.93,42.23-21.18,61.32,3,15.2,22.75,33,30.71,35.08,17.37,4.61,41.27,9.83,59.24,9.06,18.41-.79,44-4.9,59.7-14.5,11-6.73,27.45-19.11,28.87-31.94,2.19-19.79-6.16-53.16-23.9-65.87-16.2-11.61-42.67-18.17-62-17.75C178.28,237.85,144,247.3,129.51,262Z" transform="translate(0 7.99)"/></g></g></g><g id="cabeza"><g id="OREJA_DER" data-name="OREJA DER"><g id="oreja_Der-2" data-name="oreja Der"><path class="cls-3" d="M135,28.82c-3.28-6.72-23.82-20.16-34.91-22.19C82.21,3.34,65.24,12.56,58.39,24.34c-9.6,16.51-3.63,43.75,10.11,51.34C87,85.91,99,80.83,105.53,79.49c6-1.25,21.52-4.75,26.05-12.08C146,44.14,138.09,35.1,135,28.82Z" transform="translate(0 7.99)"/><path class="cls-7" d="M135,28.82c-3.28-6.72-23.82-20.16-34.91-22.19C82.21,3.34,65.24,12.56,58.39,24.34c-9.6,16.51-3.63,43.75,10.11,51.34C87,85.91,99,80.83,105.53,79.49" transform="translate(0 7.99)"/></g><g id="relleno_oreja" data-name="relleno oreja"><g class="cls-8"><path class="cls-9" d="M64.23,40.3C67.83,27.73,82.93,22.63,93,23c10.7.41,25.09,10.95,28.92,21,2.6,6.83,1.32,19-4,24-10.15,9.38-35.42,8-46-.85C65.73,62.09,61.92,48.34,64.23,40.3Z" transform="translate(0 7.99)"/></g></g></g><g id="OREJA_IZQ" data-name="OREJA IZQ"><g id="oreja_Der-3" data-name="oreja Der"><path class="cls-3" d="M272.52,66.81c-3-6.84,0-31.2,5.63-41C287.21,10,305.22,3.05,318.64,5.44c18.79,3.34,35.73,25.5,32.64,40.89-4.18,20.75-20.33,31.77-32.49,39-4.83,3.78-6.07,5.11-14.59,3.83C277.15,85.05,275.34,73.21,272.52,66.81Z" transform="translate(0 7.99)"/><path class="cls-7" d="M272.52,66.81c-3-6.84,0-31.2,5.63-41C287.21,10,305.22,3.05,318.64,5.44c18.79,3.34,35.73,25.5,32.64,40.89-4.18,20.75-16.45,29.42-33.46,39.24" transform="translate(0 7.99)"/></g><g id="relleno_oreja_2" data-name="relleno oreja 2"><g class="cls-10"><path class="cls-9" d="M328.26,19.33c-10.94-4.2-22.6,2.72-28.53,9.52-6.81,7.8-10.14,24.6-5.85,34,2.88,6.33,12.22,12.91,19.17,13,12.05.2,29.64-12.21,32.24-24C347.54,41.75,341.79,24.54,328.26,19.33Z" transform="translate(0 7.99)"/></g></g></g><g id="cabeza-2" data-name="cabeza"><path class="cls-11" d="M221.46,1.42c41.65,4.17,66.27,31.48,86.25,64,20.21,32.88,26.17,73.79,18.4,104.74-3.51,14-15.07,33.78-24,40.14-14.43,10.31-40.9,14.29-59.15,17.22-13.88,2.23-34.41,3.09-46.81,2-19.4-1.78-39.63-6.12-55.71-11.89-12.9-4.62-31.56-11.95-40.66-20.77-10.64-10.3-22.88-35.4-23.94-54.08-2.26-40.11,23.47-86.62,63.5-117.91C162.35,6.86,181.24-2.61,221.46,1.42Z" transform="translate(0 7.99)"/></g><g id="barbilla"><path class="cls-3" d="M265.41,48.14c-23.84,2.76-29.64,29.63-32.65,44.4-3.68,18-1.15,48.39,13.27,59.75,12.32,9.7,40.06,10.21,52.28.38,12.51-10.07,14.49-36.76,10.89-52.41C304.77,81,281,46.34,265.41,48.14Z" transform="translate(0 7.99)"/><path class="cls-3" d="M164.21,39.85C188.89,46,191,74.18,191.07,90.18c.1,17.92-8.79,45.76-24.43,54.54-12.83,7.2-38.4,5.58-48.8-4.83-12.28-12.29-10.55-41.69-4-57.79C121,64.43,149.54,36.17,164.21,39.85Z" transform="translate(0 7.99)"/></g><g id="boca"><g id="boca-2" data-name="boca"><path class="cls-12" d="M133.06,178.28c7.93,1.91,21.32,5.94,31.18,7.67,11.66,2,31.55,3.32,37.77,3.89s29.24,2.91,38.16,3c8.21.1,22.6-1.45,35.22-1.94,3-.12,12.75-.66,12.89-.43s-8.92,15.68-14.45,19.62c-7.8,5.55-23.94,8.07-33,9.44-11.46,1.73-32.43,1.77-43.26.6-11.46-1.23-32.11-5.16-44.6-10.44-8.65-3.65-20-9.65-26.93-16.79-4.82-5-11.4-19-11.4-19S128.37,177.15,133.06,178.28Z" transform="translate(0 7.99)"/></g><g id="lengua"><g class="cls-13"><path class="cls-14" d="M147.58,203.51c.4-7,12.35-11.2,18.87-13.76,9-3.53,22.36-3.83,32-3.24,12,.73,29.35,2,39.07,9.14,5,3.66,12.7,11.1,11.49,17.19-1.67,8.39-16.41,12.25-24.76,14.17-16.87,3.87-41.68.87-57.34-6.53C159.92,217.19,147.14,211.21,147.58,203.51Z" transform="translate(0 7.99)"/></g></g><g id="dientes"><g class="cls-13"><path class="cls-15" d="M94.07,67.85c2.69,4.65,67.67,13.55,115.32,17.68S326.12,88,326.19,87.94s1-38.22-8-50.7C298.81,10.44,249.2-1.14,216.35-5c-33.11-3.9-86.43-6.26-109.73,17.59C94.74,24.74,92.76,65.59,94.07,67.85Z" transform="translate(0 7.99)"/></g><g class="cls-13"><path class="cls-15" d="M318.4,211c-3.34-4.52-72.47,10.52-121.69,5.64-47.58-4.72-114.21-28.41-114.3-28.33s-7.56,57.63,5.5,76.62c18.74,27.25,69,38.39,101.84,42.26,33.11,3.91,85.74,5.56,109.73-17.59C316.93,272.75,320.61,214,318.4,211Z" transform="translate(0 7.99)"/></g></g></g><g id="ojos"><g id="ojos-2" data-name="ojos"><path class="cls-16" d="M134.18,116.61a36.49,36.49,0,0,1-.26-13.14c2-11.4,11.59-30,26.7-27.39,12.31,2.1,14.57,10.79,17.06,17.87,1.65,4.68,1.65,11.59,1,16.52a42.64,42.64,0,0,1-4.24,13.2c-2.45,4.43-8.68,9.06-13.68,9.93-6.83,1.18-16.87-.38-22-7.18A27.14,27.14,0,0,1,134.18,116.61Z" transform="translate(0 7.99)"/><path d="M133.54,103.4c2-11.47,11.35-30.85,27.27-28.44l-.38,2.23c-14.31-2.74-24.15,15-26.13,26.34Z" transform="translate(0 7.99)"/><path class="cls-4" d="M133.54,103.4l.76.13" transform="translate(0 7.99)"/><path d="M160.81,75c12.8,2.31,15.45,11.59,17.93,18.62l-2.11.74c-2.51-7.13-4.37-15.23-16.2-17.13Z" transform="translate(0 7.99)"/><path class="cls-4" d="M160.81,75l-.38,2.23" transform="translate(0 7.99)"/><path d="M178.74,93.58c1.7,4.9.87,12,.23,16.92l-.55-.07a39.11,39.11,0,0,0-1.79-16.11Z" transform="translate(0 7.99)"/><path class="cls-4" d="M178.74,93.58l-2.11.74" transform="translate(0 7.99)"/><path d="M174.71,123.81c-2.5,4.5-8.75,9.31-13.86,10.21l-.15-.85c4.88-.83,11.08-5.27,13.49-9.65Z" transform="translate(0 7.99)"/><path class="cls-4" d="M174.71,123.81l-.52-.29" transform="translate(0 7.99)"/><path d="M160.85,134c-6.92,1.2-17.27-.22-22.59-7.2l1.06-.8c4.9,6.61,14.63,8.33,21.38,7.15Z" transform="translate(0 7.99)"/><path class="cls-4" d="M160.85,134l-.15-.85" transform="translate(0 7.99)"/><path d="M138.26,126.82A27.44,27.44,0,0,1,134,116.67l.46-.11a26.93,26.93,0,0,0,4.91,9.46Z" transform="translate(0 7.99)"/><path class="cls-4" d="M138.26,126.82l1.06-.8" transform="translate(0 7.99)"/><path class="cls-16" d="M283.94,129.61a35.08,35.08,0,0,0,2.82-12.82c.17-11.7-6.26-31.6-21.78-32-12.71-.33-16.85,7.63-20.8,14.18-2.56,4.24-3.93,11-4.24,16a41.51,41.51,0,0,0,1.74,13.74c1.64,4.9,7.12,10.57,11.95,12.38,6.7,2.53,17.13,3.07,23.72-2.74A27.4,27.4,0,0,0,283.94,129.61Z" transform="translate(0 7.99)"/><path d="M286.38,116.79c.17-11.63-6.65-30.76-21.43-30.87l.06-2.27c16.26.71,22.3,21.36,22.14,33.15Z" transform="translate(0 7.99)"/><path class="cls-4" d="M286.38,116.79h.77" transform="translate(0 7.99)"/><path d="M265,85.92c-12.22-.44-15.84,7-19.81,13.62l-1.92-1.16c3.94-6.52,8.58-15,21.79-14.73Z" transform="translate(0 7.99)"/><path class="cls-4" d="M265,85.92l.06-2.27" transform="translate(0 7.99)"/><path d="M245.14,99.54a37.9,37.9,0,0,0-4.92,15.4l-.56,0c.32-5,.91-12.08,3.56-16.53Z" transform="translate(0 7.99)"/><path class="cls-4" d="M245.14,99.54l-1.92-1.16" transform="translate(0 7.99)"/><path d="M242,128.58c1.61,4.82,7.09,10.3,11.82,12.07l-.3.81c-4.94-1.87-10.4-7.73-12.08-12.69Z" transform="translate(0 7.99)"/><path class="cls-4" d="M242,128.58l-.56.19" transform="translate(0 7.99)"/><path d="M253.78,140.65c6.63,2.5,16.78,2.83,23.13-2.84l.88,1c-6.83,5.94-17.53,5.2-24.31,2.65Z" transform="translate(0 7.99)"/><path class="cls-4" d="M253.78,140.65l-.3.81" transform="translate(0 7.99)"/><path d="M276.91,137.81a27.08,27.08,0,0,0,6.82-8.3l.42.2a27.65,27.65,0,0,1-6.36,9.1Z" transform="translate(0 7.99)"/><path class="cls-4" d="M276.91,137.81l.88,1" transform="translate(0 7.99)"/></g><g id="pupilas"><path class="cls-17" d="M164.83,99.56c3.8.37,6.74,4.55,6.23,9.79s-4.2,8.78-8,8.42-6.73-4.55-6.23-9.79S161,99.2,164.83,99.56Z" transform="translate(0 7.99)"/><path class="cls-17" d="M255.15,108.2c3.65.35,6.21,4.72,5.72,9.78s-3.83,8.85-7.49,8.49-6.21-4.71-5.72-9.77S251.49,107.85,255.15,108.2Z" transform="translate(0 7.99)"/></g></g><g id="cejas"><path class="cls-18" d="M143.14,35.49s12.28-6.74,22.63-5.82c9.9.87,20,9.44,20,9.44" transform="translate(0 7.99)"/><path class="cls-18" d="M281.88,38.17s-9.81-7.64-18.3-8.51c-9.12-.93-21,5.06-21,5.06" transform="translate(0 7.99)"/></g><g id="nariz"><path class="cls-19" d="M205.59,159c5.88.52,18.64,1.12,18.8,5.76.12,3.33-2.65,6.84-5.15,8.45-3.91,2.52-10.85,1.73-15.47,1.15-5-.62-12.61-1.61-16-5.38-1.57-1.75-2.92-5.25-2.25-7.5C187,156.55,199.55,158.43,205.59,159Z" transform="translate(0 7.99)"/></g></g></g><rect class="cls-20" x="304.34" y="172.31" width="96.05" height="16.92" transform="translate(96.92 491.4) rotate(-76.99)"/><rect class="cls-21" x="301.2" y="174.92" width="96.05" height="9.19" transform="translate(95.7 487.36) rotate(-76.99)"/><path class="cls-22" d="M350.3,230.14l-11.44,14.79a1.26,1.26,0,0,1-1.68.45,1.31,1.31,0,0,1-.56-.78l-3.92-18.5Z" transform="translate(0 7.99)"/><path d="M335.84,240.9l.78,3.58a1.12,1.12,0,0,0,1.46.9,1.24,1.24,0,0,0,.78-.56l2.25-2.8Z" transform="translate(0 7.99)"/><path class="cls-23" d="M367.89,123.43l-3.25-.67c-4.48-1-8.51,2.47-9.08,4.71h0c-.56,2.24-.56,4.26,1.8,4.82L369,135c2.25.56,3-1.23,3.48-3.59h0C373.16,129.15,371.37,124.22,367.89,123.43Z" transform="translate(0 7.99)"/><path class="cls-24" d="M354.33,129.94l18.61,4.25a.86.86,0,0,1,.56.79l-1.57,7a.85.85,0,0,1-.79.56l-18.6-4.26a.84.84,0,0,1-.56-.79l1.57-6.94A.56.56,0,0,1,354.33,129.94Z" transform="translate(0 7.99)"/></g></g></svg>