<svg xmlns="http://www.w3.org/2000/svg" xmlns:xlink="http://www.w3.org/1999/xlink" viewBox="0 0 121.76 124.17"><defs><style>.cls-1,.cls-11,.cls-9{fill:none;}.cls-2{fill:#6599ff;}.cls-3,.cls-4{fill:#f0eb6b;}.cls-10,.cls-11,.cls-12,.cls-14,.cls-15,.cls-16,.cls-17,.cls-18,.cls-3,.cls-9{stroke:#000;stroke-linejoin:round;}.cls-10,.cls-11,.cls-12,.cls-14,.cls-15,.cls-16,.cls-17,.cls-18,.cls-3{stroke-linecap:round;}.cls-10,.cls-14,.cls-15,.cls-17,.cls-18,.cls-3{stroke-width:0.16px;}.cls-5{fill:#a0dbf0;}.cls-6{fill:#4a91cd;}.cls-7{fill:#f5ece3;}.cls-15,.cls-16,.cls-8{fill:#fff;}.cls-12,.cls-16,.cls-9{stroke-width:0.33px;}.cls-10{fill:#74baed;}.cls-11{stroke-width:0.66px;}.cls-12{fill:#7b2325;}.cls-13{clip-path:url(#clip-path);}.cls-14{fill:#f06b6b;}.cls-17{fill:#f6e003;}.cls-18{fill:#abf680;}</style><clipPath id="clip-path"><path class="cls-1" d="M30.81,67.78c-.36.89,2.29,4.35,3.54,5.4a14.53,14.53,0,0,0,5.56,2.09c2,.22,8.59-1.17,9.86-1.62a62.78,62.78,0,0,0,7.53-4.2c.9-.7,4.82-3.76,5.59-5.73.71-1.78,1.16-8.06.2-8.54-.33-.17-1.47,1.1-2,1.44-1.26.84-4.86,3.13-5.39,3.4-.81.44-8.31,3.16-8.41,3.2s-6.25,2.69-7.91,3.19A46.48,46.48,0,0,1,34,67.53C33.05,67.68,31,67.3,30.81,67.78Z"/></clipPath></defs><title>Correct feedbacK_suki_5to0</title><g id="Layer_2" data-name="Layer 2"><g id="Layer_1-2" data-name="Layer 1"><g id="bdd697f6-df3d-4f39-a2f3-31b5af07e599"><g id="acc92b35-c7f6-4a99-848b-4d02da4e2bef"><polygon class="cls-1" points="1.47 0 121.47 0 120.96 124.01 0.96 124.01 1.47 0"/><g id="ec060e96-9889-4970-9359-af122a57f35b"><path class="cls-2" d="M48.86,124.17c.23-1.83.47-3.1.47-3.1s1,1.3,2.5,3.1Z"/><path d="M49,124.08h2.71c-1.15-1.37-2-2.44-2.28-2.82C49.3,121.67,49.13,122.72,49,124.08Z"/></g><g id="b7f91405-5216-4042-9bcb-330e0140e7c8"><path class="cls-3" d="M76.26,89.9c1-.33,13.18-12.4,14-13.23.93-1,12.64-13,15.39-17.11a17,17,0,0,0,2.4-4.61c.59-2.11.63-6.32.29-6.52s-2.94,1.62-5,3.38a37.71,37.71,0,0,0-3,3.19c-2.21,2.35-14.7,16.61-14.8,16.76s-14.13,13-14.33,13.77c0,.14-1.37,2.64.39,4.31C73.51,91.61,76.05,90,76.26,89.9Z"/></g><g id="b9dc5d58-a866-45d4-a1e9-2e32f6a192fe"><path class="cls-4" d="M52.64,124H99.36a83.51,83.51,0,0,0-2.68-8.38C94.23,109.06,86.63,99.8,84.43,97,83.25,95.49,75,82.29,71.68,81.11c-5.11-1.81-11.82-.89-16.76,1.37C51.63,84,47.74,85.69,46.27,89c-1.07,2.36,2.14,14.34,3.31,18.55S51.48,117,52.64,124Z"/><path d="M51.86,120c.2,1.27.42,2.61.65,4h.25c-.23-1.42-.45-2.78-.66-4.06a122,122,0,0,0-2.39-12.44c-1.34-4.8-4.34-16.22-3.32-18.47,1.45-3.26,5.24-5,8.58-6.44,5.44-2.49,12-3,16.67-1.37,2.55.91,8.31,9.41,11.08,13.49.79,1.16,1.36,2,1.62,2.32l.83,1.07c2.76,3.49,9.21,11.69,11.4,17.56A85.79,85.79,0,0,1,99.23,124h.26a83,83,0,0,0-2.69-8.42c-2.2-5.92-8.67-14.13-11.43-17.64l-.84-1.07c-.25-.31-.81-1.14-1.6-2.3-3-4.42-8.58-12.65-11.2-13.59C67,79.31,60.37,79.85,54.87,82.37c-3.39,1.51-7.22,3.22-8.71,6.57-1,2.24,1.63,12.64,3.3,18.63A118.5,118.5,0,0,1,51.86,120Z"/></g><g id="b7ad7447-568a-4af8-ad91-07a080295585"><path class="cls-4" d="M52,124c-.21-.28-.41-.56-.56-.75-2.74-3.66-12.35-15.94-12.25-16.74s12-7.44,12.4-8.29L48.4,90.32c-.79.14-16.27,11.63-16.66,17.94-.26,4.07,4.49,10.63,8.87,15.75Z"/><path d="M39.11,106.51c-.08.62,4.27,6.36,9.54,13.24,1.13,1.48,2.11,2.76,2.73,3.59l.27.36.23.31h.31c-.11-.16-.23-.31-.33-.45l-.28-.37c-.62-.83-1.6-2.11-2.73-3.59-3.55-4.64-9.5-12.41-9.49-13.06.11-.41,3.83-2.7,6.54-4.37,3.5-2.15,5.64-3.48,5.84-3.89l-.22-.11c-.19.37-3.14,2.19-5.75,3.79C41.28,104.72,39.16,106.07,39.11,106.51Z"/><path d="M40.77,124c-4.24-5-9.17-11.64-8.9-15.74.38-6.1,15.68-17.65,16.55-17.82l0-.25c-.88.15-16.37,11.73-16.76,18C31.35,112.39,36.2,119,40.44,124Z"/></g><path class="cls-5" d="M116.4,81.59s-2.71,7.71,5.26,10c0,0-9.69-3.69-12.24,1.73,0,0,.74-9.61-.82-10.35C108.6,83,115.09,83.16,116.4,81.59Z"/><path class="cls-6" d="M116.4,81.59h.16v.06a9.9,9.9,0,0,0-.41,2.81,7.19,7.19,0,0,0,1,3.86,7.63,7.63,0,0,0,4.53,3.07v.16l-.06.16-.15,0a20.33,20.33,0,0,0-6.23-1.17,8.29,8.29,0,0,0-3.3.6,4.51,4.51,0,0,0-2.33,2.26.17.17,0,0,1-.21.12.18.18,0,0,1-.12-.21s0-.56.09-1.43.08-2,.08-3.25a27.35,27.35,0,0,0-.19-3.62,5.76,5.76,0,0,0-.3-1.29,1,1,0,0,0-.41-.59.17.17,0,0,1-.09-.19.17.17,0,0,1,.17-.13h.52a32.15,32.15,0,0,0,3.8-.22,13.38,13.38,0,0,0,2-.41,2.91,2.91,0,0,0,1.3-.71.17.17,0,0,1,.21,0,.16.16,0,0,1,.07.2l-.15-.06.12.11a3.14,3.14,0,0,1-1.45.82,24.7,24.7,0,0,1-6,.66h-.53V83l.08-.15a1.27,1.27,0,0,1,.57.77,8.64,8.64,0,0,1,.41,2.2c.08.88.11,1.87.11,2.83,0,2.43-.18,4.7-.18,4.7h-.17l-.15-.06a4.88,4.88,0,0,1,2.5-2.42,8.7,8.7,0,0,1,3.45-.64,20.32,20.32,0,0,1,6.5,1.25.16.16,0,0,1,.12.19v0a.19.19,0,0,1-.22.12h0a8,8,0,0,1-4.72-3.22,7.42,7.42,0,0,1-1.1-4,10.14,10.14,0,0,1,.45-3h.16l.13.11Z"/><path class="cls-5" d="M35.21,103.81s-6.12,4.7-6.27,6.55c0,0-5.55-8.11-8-8.54,0,0,6.26-1.13,7-3.55C28,98.27,28.8,102.39,35.21,103.81Z"/><path class="cls-6" d="M35.21,103.81l.1.14-.27.2c-.58.46-2,1.65-3.37,2.9a19.56,19.56,0,0,0-1.77,1.87,3.38,3.38,0,0,0-.79,1.45.16.16,0,0,1-.12.15.16.16,0,0,1-.18-.07l-.25-.34c-.54-.78-1.94-2.73-3.46-4.53a26.2,26.2,0,0,0-2.29-2.42A4.53,4.53,0,0,0,21,102a.18.18,0,0,1-.14-.17.16.16,0,0,1,.14-.16l.26-.06a20.8,20.8,0,0,0,3.55-1,9.37,9.37,0,0,0,1.94-1,2.72,2.72,0,0,0,1.08-1.31.17.17,0,0,1,.16-.17.18.18,0,0,1,.17.17h0a5.57,5.57,0,0,0,1.28,2.27,10.54,10.54,0,0,0,5.84,3.14.15.15,0,0,1,.13.13.18.18,0,0,1-.06.17l-.1-.14V104A10.69,10.69,0,0,1,29,100.59a5.83,5.83,0,0,1-1.26-2.3h.32A3.27,3.27,0,0,1,26.6,100a14.12,14.12,0,0,1-3.6,1.52c-1.15.33-2,.49-2,.49v-.33a3,3,0,0,1,1.1.52,25.38,25.38,0,0,1,4.51,4.75c1.41,1.78,2.49,3.35,2.5,3.35l-.14.1H28.8a2,2,0,0,1,.33-.88,19.14,19.14,0,0,1,3.46-3.73c1.34-1.17,2.51-2.07,2.51-2.08l.1.14v0Z"/><path class="cls-7" d="M69.14,124H99.28c-2.29-7.4-2.41-11.32-13.6-25.34-2-2.28-9.44-13.75-11.69-16.19a39.29,39.29,0,0,1-18.31,7.73C60.61,99.94,69.46,120.7,69.14,124Z"/><path d="M57.36,93.78C62.55,103.87,68.75,119.27,69,124h.26c-.28-5.12-6.52-20.27-11.69-30.34-.62-1.2-1.2-2.33-1.72-3.36A39.5,39.5,0,0,0,74,82.65c1.23,1.38,3.84,5.15,6.37,8.79,2.22,3.22,4.32,6.25,5.25,7.31,9.76,12.24,11.09,16.83,12.78,22.64.25.83.5,1.7.78,2.62h.26c-.29-.94-.55-1.83-.8-2.69-1.7-5.84-3-10.45-12.83-22.73-.92-1.06-3-4.08-5.24-7.29-2.58-3.73-5.25-7.59-6.46-8.9L74,82.31l-.09.07a39.26,39.26,0,0,1-18.25,7.71l-.17,0,.08.16C56.11,91.34,56.72,92.53,57.36,93.78Z"/><g id="e698d6eb-9a82-4e25-bb97-b0d1fd48ed4c"><g id="e8e5a80b-738c-49b4-a468-4a89aacc4f26"><g id="b954c177-061e-4b5e-8797-18218b692b52"><path class="cls-3" d="M16.31,67.47A37.12,37.12,0,0,0,63.86,89.61,35.71,35.71,0,0,0,85.58,44.13,37.63,37.63,0,0,0,37.42,21.52l-.8.3A35.49,35.49,0,0,0,16.31,67.47Z"/></g><g id="f7904b78-652f-4693-aaf8-bd6b9c5fa2d2"><g id="e5a6c279-d1ee-4697-8b21-f75ce0ae34e7"><path class="cls-8" d="M35.2,63.69c2.19.61,4.76-2.43,6.88-3.34,2.85-1.18,6.43-2.35,7.94-5a5.84,5.84,0,0,0-.13-5.78,5.37,5.37,0,0,0-3.34-3c-2.89-.73-7.08.94-9.52,2.61S31.9,54,31.42,56.77A5.92,5.92,0,0,0,32,59.54C32.59,61,33.65,63.32,35.2,63.69Z"/><path d="M32.37,59.41a5.1,5.1,0,0,1-.49-2.52L31,56.73a5.82,5.82,0,0,0,.57,3Z"/><path d="M31.86,56.85c.44-2.65,3-5.82,5.37-7.41l-.4-.58c-2.37,1.62-5.36,4.87-5.88,7.82Z"/><path class="cls-9" d="M31.86,56.85l-.9-.17"/><path d="M37.23,49.44c2.43-1.62,6.49-3.42,9.28-2.69l.09-.37c-3-.73-7.3.81-9.73,2.48Z"/><path class="cls-9" d="M37.23,49.44l-.4-.58"/><path d="M42,60.31c-2.16.9-4.72,3.83-6.75,3.24l-.12.5c2.43.6,4.92-2.61,7-3.48Z"/><path class="cls-9" d="M42,60.31l.09.24"/><path d="M35.24,63.5c-1.39-.37-2.25-2.7-2.9-4.12l-.77.32c.65,1.47,1.92,3.79,3.55,4.27Z"/><path class="cls-9" d="M35.24,63.5l-.12.48"/><path class="cls-8" d="M80.68,49.43c-1.58,1.7-5.44,0-7.71.43s-5.17,1-7.24.21c-1.75-.64-2.88-3.47-3.17-4.51s-.71-2.13,0-3.4c1.51-2.74,6.33-4.25,9.41-4.37,2.31-.12,5.71.79,7.34,2.47a7.06,7.06,0,0,1,1.39,3.45C81.08,45.39,81.79,48.17,80.68,49.43Z"/><path d="M81.11,43.64A7.49,7.49,0,0,0,79.64,40l-.63.59a7,7,0,0,1,1.31,3.26Z"/><path d="M79.68,39.91C77.9,38.16,74.36,37.32,72,37.4v.68a10.59,10.59,0,0,1,7,2.46Z"/><path class="cls-9" d="M79.68,40l-.62.59"/><path d="M72,37.48c-3.16.12-8,1.83-9.57,4.61l.32.16c1.43-2.66,6.2-4,9.25-4.13Z"/><path class="cls-9" d="M72,37.44v.68"/><path d="M72.93,50c2.23-.44,6.12,1.39,7.91-.39l-.36-.36c-1.39,1.62-5.24,0-7.55.47Z"/><path class="cls-9" d="M72.93,50v-.25"/><path d="M80.76,49.55c1.23-1.38.67-4.28.35-5.95l-.79.16c.36,1.71,1.2,4.36.12,5.47Z"/><path class="cls-9" d="M80.8,49.59l-.36-.35"/><path d="M31.86,59.17c-.13,0-.81.69-1.43.57l-.08.45A4.5,4.5,0,0,0,32.06,60Z"/><path d="M30.43,59.75A3.32,3.32,0,0,1,29,58.82l-.16.2a2.65,2.65,0,0,0,1.51,1.18Z"/><path class="cls-9" d="M30.43,59.75l-.08.45"/><path d="M31.44,56.32a1.71,1.71,0,0,1-1.46.2l-.16.45a5.58,5.58,0,0,0,1.62.24Z"/><path class="cls-9" d="M31.44,56.32v.89"/><path d="M30,56.52a3.74,3.74,0,0,1-1.91-1.38L28,55.3A3,3,0,0,0,29.81,57Z"/><path class="cls-9" d="M30,56.52l-.16.45"/><path d="M32.37,59.41a5.1,5.1,0,0,1-.49-2.52L31,56.73a5.82,5.82,0,0,0,.57,3Z"/><path class="cls-9" d="M32.37,59.41l-.77.34"/><path d="M81.11,43.92a15,15,0,0,0,.79-1.79L81.47,42a5.27,5.27,0,0,1-1.1,1.55Z"/><path d="M82,42.13a5.3,5.3,0,0,0,.16-1.77H82a14.84,14.84,0,0,1-.44,1.58Z"/><path class="cls-9" d="M82,42.13,81.52,42"/><path d="M79.53,40.62a4.92,4.92,0,0,0,1.11-.75l-.36-.3c-.2.32-1,.24-1.11.28Z"/><path class="cls-9" d="M79.53,40.66l-.36-.79"/><path d="M80.68,39.87A4,4,0,0,0,81,37.25l-.2,0a4.2,4.2,0,0,1-.52,2.37Z"/><path class="cls-9" d="M80.64,39.87l-.36-.3"/><path d="M81.11,43.64A7.49,7.49,0,0,0,79.64,40l-.63.59a7,7,0,0,1,1.31,3.26Z"/><path class="cls-9" d="M81.11,43.64l-.79.16"/></g><g id="a63a3a61-03c4-4071-9446-051c9fb172e1"><path class="cls-10" d="M44.48,54.54a3,3,0,0,0,3.67,2,2.93,2.93,0,0,0,1.79-3.74h0a3,3,0,0,0-3.67-2,2.92,2.92,0,0,0-1.81,3.69Z"/><path class="cls-10" d="M73.74,46.62a2.76,2.76,0,1,0,1.89-3.44h-.06a2.72,2.72,0,0,0-1.79,3.41h0Z"/></g></g><g id="f84c6e3b-a6e8-49ad-b0d9-5d119cb041bc"><path class="cls-11" d="M42.64,29.37s-4.52-1.25-11.23,2c-7.33,3.54-9.24,8.35-9.24,8.35"/><path class="cls-11" d="M57,24.3s1.22-1.86,6.2-2.66"/></g><g id="ace75cd1-96cd-4e99-8fb2-a6eae8f9d928"><g id="bc426601-0891-4eb8-b128-68079d72ee91"><path class="cls-12" d="M30.81,67.78c-.36.89,2.29,4.35,3.54,5.4a14.53,14.53,0,0,0,5.56,2.09c2,.22,8.59-1.17,9.86-1.62a62.78,62.78,0,0,0,7.53-4.2c.9-.7,4.82-3.76,5.59-5.73.71-1.78,1.16-8.06.2-8.54-.33-.17-1.47,1.1-2,1.44-1.26.84-4.86,3.13-5.39,3.4-.81.44-8.31,3.16-8.41,3.2s-6.25,2.69-7.91,3.19A46.48,46.48,0,0,1,34,67.53C33.05,67.68,31,67.3,30.81,67.78Z"/></g><g id="ff05f599-4496-4eea-9f0d-50c35d76b912"><g class="cls-13"><path class="cls-14" d="M40.38,77.78a10.13,10.13,0,0,0,7.44-.39c1-.55,2.81-1.55,2.83-3,0-1-1.15-2-1.87-2.54-1.4-.88-3.65-.71-5.18-.47a8.63,8.63,0,0,0-4,1.35c-.74.57-2.18,1.59-2.07,2.71S39.43,77.46,40.38,77.78Z"/></g></g><g id="f1d8e50d-eb9c-41ed-9226-23c94735d5b1"><g class="cls-13"><path class="cls-15" d="M20.93,59.55c2-8.8,12.19-15.29,18.81-18.64s17.16-7,23.65-2.95c3.12,2,7,11.9,7,11.9S57.14,61.34,48.08,65.55,24.14,73,23.21,72.05C22.84,71.72,20.07,63.24,20.93,59.55Z"/></g><g class="cls-13"><path class="cls-16" d="M78.9,79.79c-2,8.81-12.13,15.29-18.81,18.65s-17.35,7.46-23.64,3C31,97.48,26.81,77.83,26.81,77.83s16,.94,25-2.5c9.32-3.58,21.43-16.65,22.51-15.93C75,59.82,80.26,73.72,78.9,79.79Z"/></g></g></g><g id="a1567c57-d595-4e96-8771-82e9327de4c9"><path class="cls-17" d="M67.34,54.69a74.14,74.14,0,0,0,9.28-1.26,77,77,0,0,0,7.08,5.24C85.79,60,87.68,61,88,61.19s4,1.07,4.24,2.7c1.3,7.23-16,9.18-19.86,10.87-4.06,1.77-15.58,11-22.8,7.92-1.68-.7-3.08-4.19-3.27-4.64s-.93-3-1.77-6.11c-1-3.45-2.05-6.85-2.05-6.85s7-3.27,9.51-5.32C54.05,58,54.84,54,57.87,53,61.1,51.86,64.4,54.61,67.34,54.69Z"/><path d="M58.06,55.12a4.56,4.56,0,0,1,.37,1.45h.82A3.43,3.43,0,0,0,58.52,55Z"/><path d="M58.48,56.61A11.82,11.82,0,0,1,58,58.38l.33.14a5,5,0,0,0,.93-1.91Z"/><path class="cls-9" d="M58.43,56.61h.82"/><path d="M60.3,54.56a6.48,6.48,0,0,0,1.12,1.33l.37-.52a10,10,0,0,1-1.23-1.12Z"/><path class="cls-9" d="M60.3,54.56l.27-.28"/><path d="M61.47,56a7,7,0,0,0,2,.61l.09-.27a14.92,14.92,0,0,1-1.77-.93Z"/><path class="cls-9" d="M61.42,55.89l.37-.52"/></g></g><g id="b6e27165-353d-4a1f-8955-5bee4c52e220"><path class="cls-3" d="M36.21,18.87c-.06-3.19-2.15-7.25-4.65-9.6-3.38-3.16-9.92-4.73-13.51-5A20.32,20.32,0,0,0,9,5.8,32.93,32.93,0,0,0,.08,11.6a15.66,15.66,0,0,1,7.52.93,9.77,9.77,0,0,1,3.71,3.19A12.54,12.54,0,0,0,8.2,20.49a18.13,18.13,0,0,0-.32,9.88s2-3.45,4.13-4.31c2-.78,4.8.22,5.57.34s4.16,1.81,6,2c2.58.26,6.77.53,9-1.07S36.25,21.63,36.21,18.87Z"/></g><g id="b606b35a-e12b-4e00-80ef-7a9160ce51c2"><path class="cls-18" d="M39.92,20.49a8.92,8.92,0,0,0-1.28-3.09,6.89,6.89,0,0,0-1.75-1.74c-1.19-.26-7.12,4.31-8.11,5.06s-8.07,5.89-8,7.3a9.52,9.52,0,0,0,1.86,2.45,8.32,8.32,0,0,0,2.31,1.77c1.2.17,7.14-4.14,8.08-4.91S39.74,21.69,39.92,20.49Z"/></g></g></g></g></g></g></svg>