<svg xmlns="http://www.w3.org/2000/svg" viewBox="0 0 120 120"><defs><style>.cls-1,.cls-2,.cls-5{fill:#6599ff;}.cls-1,.cls-10,.cls-5,.cls-7,.cls-8,.cls-9{stroke:#000;}.cls-1{stroke-miterlimit:10;}.cls-1,.cls-10,.cls-5{stroke-width:0.18px;}.cls-3{fill:#f5ece3;}.cls-4,.cls-8,.cls-9{fill:none;}.cls-10,.cls-5,.cls-7,.cls-8,.cls-9{stroke-linecap:round;stroke-linejoin:round;}.cls-6{fill:#fff;}.cls-7{fill:#114283;stroke-width:0.36px;}.cls-8{stroke-width:1.08px;}.cls-9{stroke-width:0.72px;}.cls-10{fill:#ff9531;}</style></defs><title>Mistake feedback_kuno_5to0</title><g id="Layer_2" data-name="Layer 2"><g id="Layer_1-2" data-name="Layer 1"><g id="fdcf0468-955e-4ed6-90f9-16cc0319eb61"><g id="b68e15b5-9986-4525-976a-cb041e096d58"><g id="ab81ea36-63c6-4636-bb66-a9e68188d02c"><path class="cls-1" d="M75.43,72.17c1.83-2.73,5.47-1.52,5.65-1.48,1,.1,21.29,15.78,21.52,16s10.43,1.38,7.94,7-11.9,1.51-13.36.49S77.07,79.72,76.37,78.37C76.16,78.18,73.42,75.13,75.43,72.17Z"/></g><g id="f28518bd-c8a6-41d3-a27e-cfa6c3877c04"><g id="f03eaf21-ba06-4389-95f0-a18521e47eb8"><path class="cls-2" d="M51.28,120h52.09c-.85-3.07-2.17-6.83-3.16-9.48-2.68-7.34-10.65-20.12-13.12-23.3-1.31-1.69-12.38-20.78-16-22.1-5.69-2-14.34,1.33-19.86,3.84-3.66,1.6-8.64,4.29-10.28,8-1.21,2.63,6.73,24.15,6.73,24.53C47.72,102.2,50,112.23,51.28,120Z"/><path d="M47.52,101.45c0,.29.3,1.73.72,3.89.71,3.62,2.1,9.8,2.92,14.66h.25c-.82-4.87-2.22-11.07-2.92-14.71-.41-2.08-.7-3.58-.72-3.85,0-.09-.16-.53-.9-2.53-2-5.42-6.68-19.84-5.74-21.89,1.22-2.73,4.13-5.33,10.12-7.94,9-4.11,15.48-5.36,19.76-3.84,2.78,1,10.17,12.84,13.72,18.53,1.14,1.82,2,3.13,2.27,3.53,2.5,3.22,10.44,16,13.09,23.26,1.09,2.93,2.38,6.64,3.15,9.44h.26c-.78-2.83-2.07-6.57-3.17-9.52-2.66-7.29-10.63-20.1-13.14-23.34-.3-.38-1.11-1.69-2.24-3.5C81.1,77.49,74,66,71.1,65c-4.35-1.54-10.88-.28-20,3.85-6,2.64-9,5.28-10.23,8.06C39.92,79.06,44.45,93,46.64,99,47.12,100.31,47.5,101.34,47.52,101.45Z"/></g></g><g id="fc351277-548a-4708-afcb-0eab64324549"><path class="cls-2" d="M42.8,120H55.69a2.7,2.7,0,0,1-.2-.31C52.42,115,36.1,103.75,36.26,102.46c.12-1,10-12.48,10.5-13.61L45,76.41c-.89.17-16.61,20.16-17.06,28.28C27.6,109.78,37.59,113.91,42.8,120Z"/><path d="M36.13,102.45c-.07.6,2.21,2.38,6.6,5.74,4.71,3.61,10.93,8.92,12.65,11.57,0,.07.1.16.16.24h.3c-.09-.13-.18-.26-.25-.38-1.75-2.68-8-8-12.7-11.63-3.23-2.47-6.57-5-6.51-5.51s3.4-4.64,6.07-7.92a69.43,69.43,0,0,0,4.42-5.66l-.23-.09c-.2.47-2.23,3-4.38,5.59C38.71,98.75,36.2,101.88,36.13,102.45Z"/><path d="M42.63,120H43a47.65,47.65,0,0,0-8.11-7c-3.86-2.75-7-5.37-6.79-8.36.44-7.85,16-27.82,17-28.16L45,76.29c-.57.11-5,5.67-8.78,11.21-3,4.45-8.14,12.6-8.39,17.18-.2,3.12,3,5.78,6.89,8.57A48.35,48.35,0,0,1,42.63,120Z"/></g><path class="cls-3" d="M103.26,120c-.79-3.32-3.49-13.53-7.09-18.71C93,95.8,80.11,75.06,77.71,71.78,73,73.78,65,75.25,62,74.87c-1.81,0-13.84-.3-18.4.11,1.32,2.45,18.2,38.55,20.16,45Z"/><path d="M63.64,120h.26C62,113.6,45.49,78.39,43.81,75.09c2.06-.17,6.81-.32,17.76-.1H62c3.18.4,11.06-1.15,15.68-3.07,2.63,3.64,15.46,24.26,18.63,29.65,3.18,4.58,5.24,12.15,6.18,16.29.11.5.56,1.76.65,2.13h.26c-.09-.38-.55-1.66-.67-2.18-.94-4.17-3-11.77-6.21-16.37C93.32,96,80.31,75.12,77.81,71.7l-.06-.08-.09,0C72.77,73.72,64.85,75.11,62,74.75h-.43c-11.31-.23-16-.06-18,.12l-.19,0,.09.16C44.66,77.21,61.64,113.5,63.64,120Z"/><rect class="cls-4" width="120" height="120"/><g id="a989e017-4b60-4533-896d-b9dde57c82f9"><path class="cls-1" d="M81.7,42.77c1.87-.29,7.4,4.95,9.6,8,2.64,3.61,5.34,13.8,5.34,13.8s-7.9-1.44-11.15-2.35c-2.35-.68-7.1-2-7.74-2.79s-2-7-1.2-9.81C77.28,47.1,80.45,43,81.7,42.77Z"/></g><g id="e60be0d4-010c-41dd-a2b1-fc1da8128cba"><path class="cls-5" d="M37.48,6.15C53.24,1.49,67.34,4.66,78.53,15,90.87,26.58,93.76,53.18,91,59.93c-2,5-5.72,13.55-29.25,18.72-28.1,6.15-37-2.39-40.9-6.25C16.69,68.23,8.67,44,14.52,28.05,18.64,16.68,25.56,9.64,37.48,6.15Z"/></g><g id="a0eb3342-9b73-4159-a504-4cfbf4be4657"><path class="cls-1" d="M17.39,53.77c-2.21.38-5.58,7-6.73,10.54-1.41,4.23-1,14.75-.88,14.75s7.2-3.49,9.84-5.68c2.2-1.75,6-5.48,6.34-6.93"/></g><g id="af6b43e2-d565-4581-af72-3b448c8e0f1c"><g id="b9f8b13e-f057-4744-b461-7652fd189d21"><path class="cls-6" d="M36.52,49.46a3,3,0,0,1,0-2.07c1.92-4.44,5.27-5.25,9.34-5.56,2.44.2,6.11,0,8.77,2.77A3.9,3.9,0,0,1,55.31,47a4,4,0,0,1-.77,2.62,16.75,16.75,0,0,1-8.95,2.66c-2.83.11-5.28.34-8-.89A3.21,3.21,0,0,1,36.52,49.46Z"/></g><path d="M55.21,47.07a5.47,5.47,0,0,0-.71-2.14A7.16,7.16,0,0,0,50,42.82c-2.38-.34-5.79-.61-8.21.13a7.72,7.72,0,0,0-5,4.78C35.9,50,38.29,51.51,38,51.66s-.89-.32-1.44-1.12A3.84,3.84,0,0,1,36.37,47,7.82,7.82,0,0,1,42,42.1c3.4-.71,5.77-.19,8.24.11S55,44,55.38,44.87a3.86,3.86,0,0,1,.27,2.23C55.5,47.39,55.21,47.07,55.21,47.07Z"/><g id="bf52ec7c-8cdb-47fd-8667-8853fe4e87a3"><path class="cls-7" d="M49.87,43.34a4.66,4.66,0,1,1-4.36,4.86v0h0A4.63,4.63,0,0,1,49.87,43.34Z"/></g></g><g id="fe333e49-4852-4c95-b19a-ede7e31dc664"><g id="a4db0e2a-a82e-4344-b6b9-4219f9f7a947"><path class="cls-6" d="M84.46,45.65c-1.91,1.85-3.87,2.1-6.1,2.52a10.21,10.21,0,0,1-7.46-1,5.11,5.11,0,0,1-1.06-2.66A5.49,5.49,0,0,1,70,41.82c1.59-3.57,4.53-4,6.42-4.74,3.23-.48,6-.26,8.26,4.09A4.4,4.4,0,0,1,85,43.38,4.56,4.56,0,0,1,84.46,45.65Z"/></g><path d="M70,44.54A8.38,8.38,0,0,1,70.28,42a5.8,5.8,0,0,1,3-3.1c1.8-.84,4.43-1.81,6.46-1.51s3.7,1.85,4.75,4.1S84,45.88,84.26,46s.64-.53.94-1.5a5.52,5.52,0,0,0-.48-3.81c-.65-1.44-2.45-4-5.24-4.11A14,14,0,0,0,73,37.94a7.18,7.18,0,0,0-3.54,4.27,5.72,5.72,0,0,0,.17,2.47C69.79,45,70,44.54,70,44.54Z"/></g><g id="b531b8e3-86cc-45e8-82fb-1cbe771d3dbd"><path class="cls-8" d="M36.65,40.17a91.85,91.85,0,0,0,10.62,2c7.87,1.12,10.12.06,10.12.06"/></g><g id="af2edd64-0abd-44b3-83d6-4072b68373a2"><path class="cls-8" d="M66.54,35.8s3-5.82,7.19-6.26c5.59-.58,7.8,1.78,7.8,1.78"/></g><g id="ba7d4ead-2cf7-4932-9378-8d3918bfb68d"><path class="cls-9" d="M36.14,59.42a42.83,42.83,0,0,0,15.44,2.25c10.34-.5,10.9-2.42,10.9-2.42"/></g><g id="a3f45f82-beb0-4ba4-beb9-12c100fcc96c"><path class="cls-10" d="M67.92,51.43c-2.88.48-4.66,4.66-7.12,6-2.88,1.76-10.47,3.9-10.53,3.94s2.54,3.52,4.8,7.16c2,3.36,2.89,5.82,3.71,6.82s3.23,4.13,5.54,4.74C71.19,82,81.19,75.38,85.23,73.8c3.6-1.44,19.55-2.55,17.48-8.51-.53-1.64-4.32-1.54-5-1.76A17.22,17.22,0,0,1,92.24,62a25.55,25.55,0,0,1-7.79-7.21,46,46,0,0,1-7.9,0C73.88,54.28,70.81,50.94,67.92,51.43Z"/><path d="M68.65,53.33a4.12,4.12,0,0,1,.95,1.87h-.87a6.45,6.45,0,0,0-.53-1.68Z"/><path d="M69.6,55.2a3.26,3.26,0,0,1-1,1.92L68.26,57a7.66,7.66,0,0,0,.47-1.81Z"/><path d="M70.46,52.94a12.94,12.94,0,0,0,1.27,1.4l-.42.43a6.83,6.83,0,0,1-1.07-1.59Z"/><path d="M71.73,54.34c.48.37,1.69,1.2,1.69,1.2l-.09.18a9.81,9.81,0,0,1-2-.95Z"/></g><path class="cls-7" d="M80.33,39.47a4.25,4.25,0,0,1,4.33,4.21,4.32,4.32,0,0,1-4,4.6,4.25,4.25,0,0,1-4.33-4.21h0A4.32,4.32,0,0,1,80.33,39.47Z"/><g id="f8154810-dd7e-4b3a-b757-8f3abbe1e374"><path class="cls-1" d="M98,90.25c-1.26-1.32-9.37-8.41-13-14a31.18,31.18,0,0,0-5.59-3.64c-2-1.13-3.83-3.49-3.09-4.6.43-.6,3.82-1.22,9.39-.94,5,.21,6.35,2.56,7,3.16,3,3.19,11.76,13.15,11.9,13.35s5.56,4.64,5.83,5.56c.07.21,1.67,3.56-.72,5.82"/></g></g></g></g></g></svg>