<svg xmlns="http://www.w3.org/2000/svg" xmlns:xlink="http://www.w3.org/1999/xlink" viewBox="0 0 372.96 609.97"><defs><style>.cls-1,.cls-18,.cls-20{fill:none;}.cls-2{fill:#f0eb6b;}.cls-11,.cls-12,.cls-14,.cls-15,.cls-18,.cls-19,.cls-2,.cls-20,.cls-3,.cls-4,.cls-5{stroke:#000;stroke-linejoin:round;}.cls-11,.cls-12,.cls-14,.cls-15,.cls-19,.cls-2,.cls-20,.cls-3,.cls-4,.cls-5{stroke-linecap:round;}.cls-3{fill:#f6e003;}.cls-4{fill:#6599ff;stroke-width:0.5px;}.cls-5{fill:#fffca0;}.cls-6{fill:#fcb042;stroke:#562f09;stroke-miterlimit:10;}.cls-7{fill:#ed9520;}.cls-8{fill:#fce8c8;}.cls-9{fill:#e44b86;stroke:#b53167;}.cls-10,.cls-9{stroke-miterlimit:10;}.cls-10{fill:#a0a0b1;stroke:#71717f;}.cls-11{fill:#e815de;}.cls-12{fill:#902e31;}.cls-13{clip-path:url(#clip-path);}.cls-14{fill:#f06b6b;}.cls-15,.cls-17{fill:#fff;}.cls-16{clip-path:url(#clip-path-3);}.cls-19{fill:#74baed;}.cls-20{stroke-width:3px;}</style><clipPath id="clip-path"><path class="cls-1" d="M124.1,206.58c7.64,2.61,23.76,6.61,27.67,7.32,5.09.93,36.3,3.53,36.81,3.57s35.83,1.91,38.5,1.81c2.15-.07,24.22-3.92,31.06-5.29,2.35-.47,14.48-4.76,15.57-3.78,2.38,2.14-13.25,20.21-17,23.09-5.52,4.29-30.27,7.31-33.94,7.77s-32.57,1.3-36,1c-4.12-.38-35.94-6.93-41.58-9-3.8-1.42-21.15-9.06-25.45-13.53-3.11-3.24-11.65-16.65-9.45-18.66C111.91,199.45,120.15,205.22,124.1,206.58Z"/></clipPath><clipPath id="clip-path-3"><path class="cls-1" d="M124.1,206.58c7.64,2.61,23.76,6.61,27.67,7.32,5.09.93,36.3,3.53,36.81,3.57s35.83,1.91,38.5,1.81c2.15-.07,23.92-3.77,30.75-5.14,2.35-.47,14.79-4.91,15.88-3.93,2.38,2.14-13.25,20.21-17,23.09-5.52,4.29-30.27,7.31-33.94,7.77s-32.57,1.3-36,1c-4.12-.38-35.94-6.93-41.58-9-3.8-1.42-21.15-9.06-25.45-13.53-3.11-3.24-11.65-16.65-9.45-18.66C111.91,199.45,120.15,205.22,124.1,206.58Z"/></clipPath></defs><title>Suki glosa_5to0</title><g id="Layer_2" data-name="Layer 2"><g id="Frame_6" data-name="Frame 6"><path class="cls-2" d="M203.3,74.17s-24.35-4-28.36-13.86c-3.68-9.08-6.06-29.92,13.87-46.52C197.68,6.37,226,.5,226,.5s-13.06,21.63-11.43,25.92c0,0,24.08-14.7,34.48-2.45,0,0-17.95-1.43-14.48,19.18,2.15,12.79-2.25,29.11-13.27,32.37S203.3,74.17,203.3,74.17Z"/><g id="pata_izq" data-name="pata izq"><path class="cls-3" d="M197,599.92c.39,1.38,5.32,3.86,7.41,5a57.51,57.51,0,0,0,8.74,3.54c1.42.15,11.17-3.19,14.45-3,2.72.13,10.94,3.68,11.69,3.58s6.88-4.88,9-5.28c2.86-.54,13.61,3.2,13.82,2.5s-7.22-4.41-10.28-6.36c-2.35-1.49-7.58-5-7.78-5.06s-5.71-3.68-8.45-4.59c-4.72-1.56-11.49-2-16.47-2-5.32,0-14-.34-17.56,2.42C199.48,592.23,196.56,598.33,197,599.92Z"/></g><g id="pata_der" data-name="pata der"><path class="cls-3" d="M118.57,591.27c-2.35,1.28-9.13,3.67-12.94,5.48-3.59,1.71-12.11,4.55-11.7,6.21s10.17-1.5,13.52-.16c1.85.74,4.54,4.67,5.58,5,1.55.44,8.75-2.48,10.84-2.26,1.86.2,8.48,3.86,9,3.92,1,.12,13.92-2,17.85-3.8,2.82-1.3,10.31-6.36,10.56-7.79s-3.61-8.21-6.69-10.15c-4-2.52-10.91-1.86-15.62-1.78s-11.32.55-15.75,2.33C121.67,588.87,119.5,590.77,118.57,591.27Z"/></g><g id="pierna_der" data-name="pierna der"><path class="cls-3" d="M225.22,589c0-.31.91-43.94,1-62.76s.51-50.68-.12-61.61c-.45-7.29-3.93-15.48-10.21-16.39-6.78-1.22-10.09,9.1-11.29,14.57-.91,4.25.35,43.09.46,61.61.17,19.42.4,65.33.45,65.33"/></g><g id="pierna_der-2" data-name="pierna der"><path class="cls-3" d="M135.18,587c0-.31-.91-41.92-1-60.74s-.52-50.68.11-61.61c.46-7.29,3.94-15.48,10.21-16.39,6.79-1.22,10.1,9.1,11.29,14.57.92,4.25-.34,43.09-.46,61.61-.17,19.42-.39,65.33-.45,65.33"/></g><g id="brazo_izq" data-name="brazo izq"><path class="cls-2" d="M222.09,297.35c-4.49-7.75-1.23-12.84,1.07-14.64,3.14-2.25,57.53-28.92,65.06-34.51,4.39-3.34,40-47.85,48.24-56.21a91,91,0,0,1,14.39-13.21c8.95-6.2,20.34-11.38,21.39-10.61s-1.85,17.05-5,25c-2.43,6.13-7.63,12.87-10.4,16.56-10.69,14.49-43,50-50.26,55.66-6.93,5.41-67.48,36.43-71.64,38.15C232,304.87,226.45,304.86,222.09,297.35Z"/></g><g id="brazo_der" data-name="brazo der"><path class="cls-2" d="M143.57,300.86c-4,6.27-7.86,7-11.3,6.76-3.93-.25-47.78-28.13-55.15-34.27-6.87-5.89-49.86-54.53-58.21-65.46A82.15,82.15,0,0,1,8,191.31C3.31,181.48-.5,169.82.73,168.59s16.58,4.42,23.83,8.84c5.77,3.44,11.67,9.83,15,13,13.51,13.26,48.39,56.62,53.92,61.41s49.62,31.81,51.34,34.76S147.87,294.23,143.57,300.86Z"/></g><g id="cola"><path class="cls-4" d="M135.58,434.7c.6-9,4.2-16.1,8.3-28.1,4.8-13.8,12.4-31,12.4-31s5.8,12.4,11.3,26.3c5.6,14.1,9.8,26.6,10,27.3.1.5,2.9,16,0,22-3.2,6.39-10.2,13.6-19.1,14.8a22.45,22.45,0,0,1-19.2-7.41C134.78,453,135.08,442.09,135.58,434.7Z"/></g><g id="cuerpo"><g id="cuerpo-2"><path class="cls-2" d="M180.71,228.79c-22.2-.11-27.17,11.08-39.77,27.81-6.6,8.65-12.36,20.6-14.26,31.36-1.2,7.14-9.58,55.51-12.48,79.49-3.3,28.07-8.91,68.2-7.13,80.67s3.34,25.27,11.14,31c15.3,11.34,42.2,1.52,60.3,1.52,17.1,0,42,7.95,57.1-1.52,8.3-5.15,11.19-13.89,15.82-28.86s-3.77-55-6.77-83.88c-2.4-23.74-9.88-65.19-12.48-77.71-2.6-12-5.23-24.11-10.33-31.36C211.25,242.1,203.21,228.91,180.71,228.79Z"/></g><g id="detalle"><path class="cls-5" d="M148.78,243.05c-13.7,17.9-20,75.22-23.67,107.5-2.8,24.09-6.37,60.25-6.57,67.27-.1,3.74-3.13,51.34,3.27,59.65,10.6,13.8,40.15,4.64,58.45,5,17.6.35,45.58,6.45,56.68-6.06,6.8-7.6,7.2-51,7.2-54.6.1-7.37-6.63-45.76-9.93-70.9-4.3-32.63-11.1-91.85-25.2-109.63-6.3-7.84-18.3-15.17-30.8-14.93C165.91,226.46,154.78,235.22,148.78,243.05Z"/></g></g><rect class="cls-6" x="306.05" y="196.49" width="85.7" height="15.1" transform="translate(71.56 498.06) rotate(-76.99)"/><rect class="cls-7" x="303.25" y="198.82" width="85.7" height="8.2" transform="translate(70.47 494.46) rotate(-76.99)"/><path class="cls-8" d="M347,248.13l-10.2,13.2a1.13,1.13,0,0,1-1.5.4,1.16,1.16,0,0,1-.5-.7l-3.5-16.5Z"/><path d="M334.18,257.73l.7,3.2a1,1,0,0,0,1.3.8,1.16,1.16,0,0,0,.7-.5l2-2.5Z"/><path class="cls-9" d="M362.78,152.93l-2.9-.6c-4-.9-7.6,2.2-8.1,4.2h0c-.5,2-.5,3.8,1.6,4.3l10.4,2.4c2,.5,2.7-1.1,3.1-3.2h0C367.38,158,365.78,153.63,362.78,152.93Z"/><path class="cls-10" d="M350.58,158.73l16.6,3.8a.75.75,0,0,1,.5.7l-1.4,6.2a.75.75,0,0,1-.7.5l-16.6-3.8a.75.75,0,0,1-.5-.7l1.4-6.2C350,158.83,350.28,158.63,350.58,158.73Z"/><g id="cole"><path class="cls-11" d="M174,82.37c-.75-1-1.44-7-1.26-9.54.13-1.83,1.16-6.15,1.83-6.75,2.62-2.34,23.76.53,27.23,1,4,.47,28.42,2.82,30.37,6.31.56,1-.44,5.94-1.23,8.83-.74,2.69-2.33,7-3.18,7.64-2.77,2.11-23.57.05-27-.43S176.19,85.16,174,82.37Z"/></g><g id="cabeza"><path class="cls-2" d="M195,78.13a99.57,99.57,0,1,1-.29,0Z"/></g><g id="boca"><g id="boca-2"><path class="cls-12" d="M124.1,206.58c7.64,2.61,23.76,6.61,27.67,7.32,5.09.93,36.3,3.53,36.81,3.57s35.83,1.91,38.5,1.81c2.15-.07,20.78-2,30.75-5.14,7.41-1.7,14.79-4.91,15.88-3.93,2.38,2.14-13.25,20.21-17,23.09-5.52,4.29-30.27,7.31-33.94,7.77s-32.57,1.3-36,1c-4.12-.38-35.94-6.93-41.58-9-3.8-1.42-21.15-9.06-25.45-13.53-3.11-3.24-11.65-16.65-9.45-18.66C111.91,199.45,120.15,205.22,124.1,206.58Z"/></g><g id="lengua"><g class="cls-13"><path class="cls-14" d="M157.54,243.9c.17-4,7-6.58,10.79-8.12,5.16-2.12,12.89-2.41,18.47-2.15,6.95.32,17,.93,22.67,5,2.92,2.07,7.44,6.32,6.78,9.84-.84,4.87-9.38,7.23-14.19,8.41-9.72,2.39-24.09.85-33.21-3.28C164.78,251.71,157.34,248.36,157.54,243.9Z"/></g></g><g id="dientes"><g class="cls-13"><path class="cls-15" d="M81.26,143.45c2.67,4.42,67.4,11.13,111.14,14.28s112,1.91,112.11,1.82.71-37.59-8.31-49.74c-18.95-25.51-66.8-35.89-98.42-39.14-31.85-3.28-83.14-4.78-105.14,18.45C81.16,101.17,79.93,141.23,81.26,143.45Z"/></g><g class="cls-16"><path class="cls-15" d="M297.93,279.42c-3.19-4.24-71.06,8.05-115.89,4.37-43.57-3.58-110.35-22.55-110.43-22.47s-5.68,53.12,6.62,70.42c18.43,25.88,66.8,35.88,98.41,39.13,31.86,3.29,82.53,4.24,105.14-18.45C297.61,336.52,300,282.19,297.93,279.42Z"/></g></g></g><path class="cls-17" d="M113,180.1c-.18-2.06-.12-5.13.88-6.82,4.58-7.63,17-9.91,25-10.57,7.59-.63,19.26-.08,24.84,6,1.94,2.1,3.24,6.46,3.31,9.55.09,3.78-1.34,9.17-3.63,11.83-5.79,6.73-18.24,8.07-26.4,7.69-6.51-.31-16.12-2.35-20.69-7.8C114.41,187.69,113.29,183.26,113,180.1Z"/><path d="M111.86,180.23c-.18-2.15-.16-5.63,1-7.79l2,1.72c-.83,1.22-.91,3.87-.75,5.83Z"/><path d="M112.9,172.41c5-8.11,17.92-10.19,25.91-10.85l.14,2.24c-7.9.73-19.9,3.15-24,10.36Z"/><path class="cls-18" d="M112.9,172.41l2,1.75"/><path d="M138.81,161.59c7.66-.64,19.49.46,25.27,6.64l-.71.88c-5.4-5.92-16.89-5.94-24.42-5.31Z"/><path class="cls-18" d="M138.81,161.59l.14,2.24"/><path d="M137,198.19c-6.54-.31-16.43-2-21.18-7.63l1-1.18c4.35,5.25,13.7,7.64,20.16,8Z"/><path class="cls-18" d="M137,198.19v-.88"/><path d="M115.8,190.56a21.39,21.39,0,0,1-3.94-10.33l2.35-.27c.25,3,.85,7.34,2.62,9.42Z"/><path class="cls-18" d="M115.8,190.56l1-1.18"/><path d="M269.63,192.52c-3.4-7.43-16.46-11.54-25.08-13.43L245,177c8.72,1.91,22.81,5.8,27.15,14.32Z"/><path d="M244.55,179.09c-9-2-23.24-2.9-30.17,1.23l-.76-.92c7.44-5.94,22.31-4.43,31.39-2.44Z"/><path class="cls-18" d="M244.55,179.09,245,177"/><path d="M112.8,181.46a15.68,15.68,0,0,1-4.86-1.47l.58-1.38c1.8,1.09,4.38.11,4.73.13Z"/><path d="M107.94,180c-2.24-1.35-3.63-4.64-3.58-4.56l.52-.61a12.69,12.69,0,0,0,3.64,3.79Z"/><path class="cls-18" d="M107.94,180l.58-1.38"/><path d="M113.47,174.65a20.74,20.74,0,0,1-4.66-2.83l.75-1.25a5.84,5.84,0,0,0,4.79,1.36Z"/><path class="cls-18" d="M113.47,174.65l.9-2.72"/><path d="M108.81,171.82a13,13,0,0,1-4.36-7l.47-.45a15.38,15.38,0,0,0,4.65,6.24Z"/><path class="cls-18" d="M108.81,171.82l.75-1.25"/><path d="M111.86,180.23c-.18-2.15-.16-5.63,1-7.79l2,1.72c-.83,1.22-.91,3.87-.75,5.83Z"/><path class="cls-18" d="M111.86,180.23l2.35-.27"/><path d="M270.51,195.65c.2-.05,3.94.06,6.4-1.17l.66,1.34a54.59,54.59,0,0,1-6.31,2.4Z"/><path d="M276.19,194.78a38.37,38.37,0,0,0,4.69-2.89l.33.43c-1.2,1.53-2.3,3.07-4.36,3.81Z"/><path d="M270.79,190.49c.3,0,4.24,1.2,6.32.17l.64,1.35c-2.62,1.17-7,1.29-6.74,1.3Z"/><path d="M277.11,190.66c3-1.36,6.25-6,6.29-6.08l.44.4s-2.63,5.35-6.09,7Z"/><path d="M269.68,198.13c.45-2,.68-4.3-.05-5.61l2.54-1.24c1,2.16.64,5.14.12,7.43a1.34,1.34,0,0,1-1.62,1l-.08,0h0A1.32,1.32,0,0,1,269.68,198.13Z"/><g id="pupilas"><path class="cls-19" d="M147.39,166.6c6.31.48,11.07,6.28,10.63,13s-5.93,11.72-12.24,11.25-11.07-6.27-10.62-13a.53.53,0,0,1,0-.13c.45-6.63,5.89-11.61,12.15-11.13Z"/></g><g id="El_pico" data-name="El pico"><path class="cls-3" d="M189.84,193.14c-9.92-.41-15.17,8.75-22.3,10.85-8.66,2.55-29.83,3.35-29.91,3.4s-5.62,10.08-11,17.77c-3.85,5.44-9.17,11.62-9.17,11.62s-9.18,11.42-7.08,17c8.57,22.91,61.48,10.84,74.22,11.59s65.1,19.36,75.74-2.86c2.16-4.51-4.52-14.71-4.53-14.73s-3.94-7.73-7.63-15.8-6.93-16.12-7-16.12-19.88-4.85-27.84-8.42C205.81,204.1,200.84,193.59,189.84,193.14Z"/><path d="M188.16,199.31c0-.08.05,3-.72,4.32l-1.92-1.2A22,22,0,0,0,187,199Z"/><path d="M187.44,203.63c-1.11,1.7-4.94,3.46-4.88,3.39l-.66-.73a28.26,28.26,0,0,0,3.62-3.88Z"/><path class="cls-18" d="M187.44,203.63l-1.92-1.2"/><path d="M195.32,200a24.17,24.17,0,0,0,1.46,3.76l-1.7,1c-.74-1.33-.85-4.5-.85-4.46Z"/><path class="cls-18" d="M195.32,200l-1.16.3"/><path d="M196.78,203.74a31.23,31.23,0,0,0,3.29,4l-.72.68c.06,0-3.34-2-4.31-3.65Z"/><path class="cls-18" d="M196.78,203.74l-1.7,1"/></g><g id="cejas"><path class="cls-20" d="M106,138s18.07-3.05,31.2-2.2c13.58.8,31.72,6.11,31.72,6.11"/><path class="cls-20" d="M276.29,151.23s-18.33-4.76-30-5.94c-12-1.22-31.48-.21-31.48-.21"/></g></g></g></svg>