<svg xmlns="http://www.w3.org/2000/svg" xmlns:xlink="http://www.w3.org/1999/xlink" viewBox="0 0 346.33 475.38"><defs><style>.cls-1,.cls-18,.cls-7{fill:none;}.cls-10,.cls-11,.cls-13,.cls-14,.cls-16,.cls-18,.cls-2,.cls-24,.cls-25,.cls-3,.cls-4,.cls-5,.cls-6,.cls-7,.cls-8,.cls-9{stroke:#000;}.cls-10,.cls-11,.cls-13,.cls-14,.cls-16,.cls-18,.cls-2,.cls-3,.cls-4,.cls-9{stroke-linecap:round;}.cls-10,.cls-11,.cls-13,.cls-14,.cls-16,.cls-18,.cls-2,.cls-3,.cls-4,.cls-7,.cls-9{stroke-linejoin:round;}.cls-10,.cls-11,.cls-13,.cls-14,.cls-15,.cls-16,.cls-2,.cls-24,.cls-25,.cls-3,.cls-4,.cls-5,.cls-8,.cls-9{fill-rule:evenodd;}.cls-2{fill:url(#linear-gradient);}.cls-3{fill:url(#linear-gradient-2);}.cls-4{fill:url(#linear-gradient-3);}.cls-22,.cls-23,.cls-24,.cls-25,.cls-5,.cls-6,.cls-8{stroke-miterlimit:10;}.cls-5{fill:url(#linear-gradient-4);}.cls-8{fill:url(#linear-gradient-5);}.cls-9{fill:url(#linear-gradient-6);}.cls-10{fill:url(#linear-gradient-7);}.cls-11{fill:#7b2325;}.cls-12{clip-path:url(#clip-path);}.cls-13{fill:#f06b6b;}.cls-14,.cls-15{fill:#fff;}.cls-16{fill:#1c1c1c;}.cls-17{clip-path:url(#clip-path-4);}.cls-18{stroke-width:3px;}.cls-19{fill:#fcb042;stroke:#562f09;stroke-miterlimit:10;}.cls-20{fill:#ed9520;}.cls-21{fill:#fce8c8;}.cls-22{fill:#e44b86;stroke:#b53167;}.cls-23{fill:#a0a0b1;stroke:#71717f;}.cls-24{fill:url(#linear-gradient-8);}.cls-25{fill:url(#linear-gradient-9);}</style><linearGradient id="linear-gradient" x1="-2827.75" y1="495.58" x2="-2828.27" y2="495.77" gradientTransform="matrix(130.48, 0, 0, -79.48, 369097.56, 39732.18)" gradientUnits="userSpaceOnUse"><stop offset="0" stop-color="#3dabbc"/><stop offset="1" stop-color="#64b276"/></linearGradient><linearGradient id="linear-gradient-2" x1="-2803.22" y1="495.03" x2="-2803.24" y2="494.49" gradientTransform="matrix(48.62, 0, 0, -110.65, 136520.43, 55183.67)" gradientUnits="userSpaceOnUse"><stop offset="0" stop-color="#3eadbe"/><stop offset="1" stop-color="#63b278"/></linearGradient><linearGradient id="linear-gradient-3" x1="-2815.76" y1="495.13" x2="-2815.77" y2="494.6" gradientTransform="matrix(71.22, 0, 0, -106.56, 200662.17, 53166.62)" gradientUnits="userSpaceOnUse"><stop offset="0" stop-color="#3eadbe"/><stop offset="1" stop-color="#5eaa72"/></linearGradient><linearGradient id="linear-gradient-4" x1="-2827.1" y1="495.6" x2="-2827.11" y2="495.99" gradientTransform="matrix(126.14, 0, 0, -78, 356894.99, 38904.83)" xlink:href="#linear-gradient-2"/><linearGradient id="linear-gradient-5" x1="-2828.18" y1="495.62" x2="-2828.17" y2="496.01" gradientTransform="matrix(134.07, 0, 0, -71.53, 379247.71, 35698.51)" xlink:href="#linear-gradient-2"/><linearGradient id="linear-gradient-6" x1="-2821.71" y1="494.5" x2="-2821.71" y2="495.08" gradientTransform="matrix(92.35, 0, 0, -163.99, 260765.58, 81435.07)" gradientUnits="userSpaceOnUse"><stop offset="0" stop-color="#3eadbe"/><stop offset="1" stop-color="#64b276"/></linearGradient><linearGradient id="linear-gradient-7" x1="-2833.03" y1="495.16" x2="-2833" y2="494.37" gradientTransform="matrix(206.79, 0, 0, -207.97, 586005.22, 103013.39)" xlink:href="#linear-gradient-2"/><clipPath id="clip-path"><path class="cls-1" d="M124.7,198.48c4.44.37,17.52,2,23.27,2.31,8.19.38,29.81-.2,33.28-.36,2.91-.13,21.07-1.11,27.8-2.13,4.59-.7,21.14-5.55,26.46-6.63,3.59-.73,12.71-2.79,14.08-1.24,2.18,2.48-4.82,17.46-8,21.14-4,4.71-19.84,11.88-25.43,13.76-6.85,2.31-28.35,4.94-35,5.15-7.77.24-31.94-.8-41.06-3.58-5.43-1.65-17.5-7.07-21.74-11.43-3.5-3.6-10.73-15.95-9.16-18.09C110.41,195.74,121.75,198.23,124.7,198.48Z"/></clipPath><clipPath id="clip-path-4"><path class="cls-1" d="M174.92.51c18-.71,16.71,35,34.79,42C230,50.38,258.34,37.79,275.3,56c11.58,12.41,17.21,63.08,9.87,84.49a31.69,31.69,0,0,0,5.74,30.73c5.51,6.5,15.62,28.64,2.34,40.39-20.78,18.39-81,29.16-111.26,30.83-22.14,1.22-100.88-14-110.57-18.78-2.67-1.32-22.53-23.44-5.19-37.59,11-9,13.77-24,8.42-37.94-15.34-39.91-4.71-77.76,4-85.45,23.66-20.84,46.64-5.88,68.26-22.5C160.09,30.06,158.29,1.17,174.92.51Z"/></clipPath><linearGradient id="linear-gradient-8" x1="336.39" y1="226.26" x2="336.23" y2="215.24" gradientTransform="matrix(1, 0, 0, 1, 0, 0)" xlink:href="#linear-gradient-2"/><linearGradient id="linear-gradient-9" x1="315.13" y1="221.63" x2="315" y2="212.48" gradientTransform="matrix(1, 0, 0, 1, 0, 0)" xlink:href="#linear-gradient-2"/></defs><title>Camaleon 5 glosa</title><g id="Layer_2" data-name="Layer 2"><g id="Frame_6" data-name="Frame 6"><g id="CAMALEON"><g id="Cola"><g id="cola-2" data-name="cola"><path class="cls-2" d="M124.92,389.12c-16.7-8.06-34.88-14.24-47.06-37.38-10.08-19.14-18.34-40.37,2.39-49.82,13.09-6,28.29,16,9.72,22.95-6.12,2.29-9.16-6.05-8.9-10.07.33-5.1,4.73-2.77,4.73-2.77s-3.69-1.42-4.59,1.07C79.83,317,82,321,83.57,324c4.11,7.73,12.74,14.27,21.34,19.93,7.39,4.86,20.94,5.35,29.36,2.64,13.38-4.31,19.55-2.52,34.17-32.08,9.37-19,40.76-5.77,47.9,8.16a27.67,27.67,0,0,1,1.37,21.3c-7.34,19.86-35.27,39.17-55.91,45.8C151.26,393.13,139.48,396.15,124.92,389.12Z"/></g></g><g id="pie_izq" data-name="pie izq"><g id="pierna_izq" data-name="pierna izq"><path class="cls-3" d="M226,454.61c.39.67-18,2.19-17.24,14.56.48,7.51,7.42,5.46,29.8,5.42,14.42,0,23,1.83,23.58-6.23.79-11.31-13.59-12.8-13.72-13.27-.19-.68,7-37.19,3.37-51.65-3.2-12.78-20.51-44.59-22.65-46.82-.77-.81-8.21-14.84-18.34-9.12s-2.36,18.9-1.6,20.63c1.1,2.5,18.06,26.71,23.54,39.32C236.48,416.19,225.26,453.4,226,454.61Z"/></g></g><g id="pie_der" data-name="pie der"><g id="pierna_der" data-name="pierna der"><path class="cls-4" d="M131.49,457.23c-.1.94,8.31,2.12,7.65,12-.26,3.92-5.81,4.43-19.71,4.71-20.49.42-30-.54-29.2-6.26,1.94-14.13,19.88-11.2,20.24-11.92s13.73-34.67,20-49.36c5.25-12.29,16.53-37.18,18.26-40.64,1.16-2.31,7-20.66,19.11-14.44,11.5,5.91.44,21.28-.14,22.78-1.53,3.95-14.25,27.35-19.33,38.92C142.86,425.66,131.55,456.65,131.49,457.23Z"/></g></g><g id="mano_izq" data-name="mano izq"><g id="brazo_izq" data-name="brazo izq"><path class="cls-5" d="M206.86,248.72c1.19-5.77,5.45-7.7,7.37-7.44,3.7.5,67,18.65,68.36,18.18.8-.27,31-32.85,30.75-33.07-1-.81-2.8-6-1.34-10.57s4.74-6.24,6.94-6.54c.12,0-8.45-18.71,1.7-20.45,19-3,14.88,21.76,15.72,21.59,7.19-1.43,4.39-6.24,8.3,3.53-2.7,8.6-6.57,17.24-18.36,23.53-.65.36-30.21,39.49-36.12,41.62-8.88,3.19-75.66-18.26-79.78-21.2C210,257.58,205.75,254.14,206.86,248.72Z"/><path class="cls-6" d="M206.86,248.72c1.19-5.77,5.34-8.1,7.42-7.85l-.11.83c-1.75-.27-6.12,1.25-7.31,7Z"/><path class="cls-7" d="M214.28,240.87l-.11.83"/><path class="cls-6" d="M210.16,258.24a10.33,10.33,0,0,1-3.3-9.52h0c-1.11,5.42,3.36,8.53,3.79,8.84Z"/><path class="cls-7" d="M210.16,258.24l.49-.68"/></g></g><g id="mano_izq_2" data-name="mano izq 2"><g id="brazo_izq-2" data-name="brazo izq"><path class="cls-8" d="M156.47,258.75c.38-5.9-3.31-8.85-5.23-9.12-3.3-.46-61.55-2-63-2.41-.06,0-45.74-36.12-45.47-36.56,2.07-3.42,15-16.07.79-25.32C35.7,180.26,30.17,191.5,26.43,196c-.1.12-17.26-18.08-24.2-7.76C-5,199,12.69,208.73,12.42,209c-5.2,4.38-10.11,16.86-4.66,22.19,5.61,5.48,15.5.08,22.64-5.5,0,0,46.17,36.85,52.83,39.35,5.13,1.91,63.42,3,67.31,1.67C151.06,266.49,156.11,264.3,156.47,258.75Z"/><path d="M156.47,258.75c.38-5.9-3.52-8.49-5.29-8.7l.12-.83c2.07.32,5.55,3.63,5.17,9.53Z"/><path class="cls-7" d="M151.18,250.05l.12-.83"/><path d="M150.4,266.28c.5-.18,5.71-2,6.07-7.53h0a10.32,10.32,0,0,1-5.79,8.32Z"/><path class="cls-7" d="M150.4,266.28l.28.79"/></g></g><g id="cuerpo"><g id="cuerpo-2" data-name="cuerpo"><path class="cls-9" d="M183.59,201.62c-11.37.72-24.92,8.2-31.8,16.45s-10,32.24-10.35,33.8c-.48,2.35-4.78,34-6,53.1-1,16.26-2.49,38.66,2.2,54.26,2.6,8.62,7.57,20.83,14.9,26.07,9.67,6.92,27.3,7.95,39.1,6.5,13.15-1.62,31.47-8,40.38-17.83,4.58-5,7-14.43,8.28-21.1,3-15,1-35.75-.65-50.95-1.82-17-8.76-47-11.46-55.79-1.71-5.58-5.67-25.92-13.49-33.38C207.5,205.92,194.07,201,183.59,201.62Z"/></g></g><g id="cabeza"><g id="cabeza-2" data-name="cabeza"><path class="cls-10" d="M174.92.51c18-.71,16.71,35,34.79,42C230,50.38,258.34,37.79,275.3,56c11.58,12.41,17.21,63.08,9.87,84.49a31.69,31.69,0,0,0,5.74,30.73c5.51,6.5,15.62,28.64,2.34,40.39-20.78,18.39-81,29.16-111.26,30.83-22.14,1.22-100.88-14-110.57-18.78-2.67-1.32-22.53-23.44-5.19-37.59,11-9,13.77-24,8.42-37.94-15.34-39.91-4.71-77.76,4-85.45,23.66-20.84,46.64-5.88,68.26-22.5C160.09,30.06,158.29,1.17,174.92.51Z"/></g><g id="boca"><g id="boca-2" data-name="boca"><path class="cls-11" d="M124.7,198.48c4.44.37,17.52,2,23.27,2.31,8.19.38,29.81-.2,33.28-.36,2.91-.13,21.07-1.11,27.8-2.13,4.59-.7,21.14-5.55,26.46-6.63,3.59-.73,12.71-2.79,14.08-1.24,2.18,2.48-4.82,17.46-8,21.14-4,4.71-19.84,11.88-25.43,13.76-6.85,2.31-28.35,4.94-35,5.15-7.77.24-31.94-.8-41.06-3.58-5.43-1.65-17.5-7.07-21.74-11.43-3.5-3.6-10.73-15.95-9.16-18.09C110.41,195.74,121.75,198.23,124.7,198.48Z"/></g><g id="lengua"><g class="cls-12"><path class="cls-13" d="M139,221.79c-.47-5.81,9.17-10.4,14.3-13.18,7.21-3.91,18.42-5.64,26.6-6.28,10.21-.8,24.91-1.87,34,2.81,4.55,2.33,12,7.31,11.71,12.42-.37,7.16-12.5,11.71-19.22,14.19-13.83,5.11-35,5.57-49.14,1.39C151.05,231.32,139.48,228.23,139,221.79Z"/></g></g><g id="dientes"><g class="cls-12"><path class="cls-14" d="M62,164.05c3.37,4.18,73.54,1.25,116.55-1.05s116-11.3,116.1-11.4-4-40-15.15-51.67C256.69,76,205.85,71.6,172.78,72.37c-33.33.78-86.48,5.92-106.19,32.81C56.12,119.47,60.33,161.93,62,164.05Z"/></g><g class="cls-12"><path class="cls-14" d="M299.8,208.57c-3.76-4-74.62,14.2-118.47,16.23-42.88,2-116.76-5.15-116.83-5.06s1.62,52.73,15.87,68.13c22.46,24.29,73.7,28.33,106.76,27.56,33.34-.77,85.94-6.31,106.18-32.8C306.86,264.91,302.14,211.08,299.8,208.57Z"/></g></g></g><g id="ojos"><g id="ojos-2" data-name="ojos"><path class="cls-15" d="M92.23,155.79c-2.44-5.24-4-20.4-1.86-28.77,3.53-13.62,12.18-31.56,37.39-31.89,19.42-.26,27.21,11.09,32.43,21.74,4.72,9.66,5.43,25,5.25,27.73-.13,2.08-3.9,14.29-7.92,19-5,5.79-14.43,11.21-21.85,12.94-8.24,1.93-20.62,1.64-28.1-2.31C101.21,170.84,95.26,162.3,92.23,155.79Z"/><path d="M90,126.92c3.55-13.66,12-32.46,37.75-32.93l0,2.27c-24.68.19-33.51,17.28-37,30.86Z"/><path class="cls-7" d="M90,126.92l.75.2"/><path d="M127.74,94c19.87-.17,28.19,11.66,33.45,22.39l-2,1c-5.17-10.58-12.42-21.44-31.41-21.1Z"/><path class="cls-7" d="M127.74,94l0,2.27"/><path d="M161.19,116.38c4.82,9.92,4.7,25.51,4.53,28.24l-.56,0c.18-2.68-1.34-17.81-6-27.22Z"/><path class="cls-7" d="M161.19,116.38l-2,1"/><path d="M157.75,163.76c-5,5.83-14.49,11.42-22,13.18l-.2-.85c7.35-1.71,16.81-7,21.73-12.71Z"/><path class="cls-7" d="M157.75,163.76l-.45-.38"/><path d="M135.77,176.94c-8.3,1.93-20.86,1.86-28.51-2.15l.62-1.18c7.31,3.89,19.52,4.39,27.69,2.48Z"/><path class="cls-7" d="M135.77,176.94l-.2-.85"/><path d="M107.26,174.79c-6.51-3.47-12.19-12.37-15.24-18.9l.42-.2c3,6.5,9.24,14.67,15.44,17.92Z"/><path class="cls-7" d="M107.26,174.79l.62-1.18"/><path class="cls-15" d="M267.1,148.08c2-5.43,2.21-20.64-.69-28.78-4.72-13.24-14.93-30.31-40.06-28.41C207,92.35,200.23,104.31,196,115.38c-3.85,10-3.2,25.36-2.79,28,.32,2.06,5.16,13.87,9.57,18.17,5.45,5.32,15.37,9.87,22.91,10.94,8.38,1.18,20.68-.19,27.79-4.79C259.48,163.84,264.65,154.83,267.1,148.08Z"/><path d="M266.05,119.43C261.34,106.23,251,90,226.44,92l-.17-2.26C251.92,88,262,105.89,266.78,119.17Z"/><path class="cls-7" d="M266.05,119.43l.73-.26"/><path d="M226.44,92c-18.93,1.33-25.21,12.77-29.43,23.76l-2.08-.8c4.29-11.15,11.54-23.64,31.34-25.22Z"/><path class="cls-7" d="M226.44,92l-.17-2.26"/><path d="M197,115.78c-3.79,9.76-4,24.95-3.55,27.6l-.55.08c-.42-2.7-1.9-18.2,2-28.48Z"/><path class="cls-7" d="M197,115.78l-2.08-.8"/><path d="M203,161.38c5.41,5.28,15.3,9.67,22.77,10.72l-.12.86c-7.61-1.09-17.56-5.81-23.06-11.16Z"/><path class="cls-7" d="M203,161.38l-.41.42"/><path d="M225.72,172.1c8.31,1.18,20.43-.4,27.36-4.92l.73,1.12C246.54,173,234,174.15,225.6,173Z"/><path class="cls-7" d="M225.72,172.1l-.12.86"/><path d="M253.08,167.18c5.89-3.78,11.36-12.45,13.8-19.18l.44.16c-2.46,6.77-7.34,16.12-13.51,20.14Z"/><path class="cls-7" d="M253.08,167.18l.73,1.12"/></g><g id="pupilas"><path class="cls-16" d="M140.75,132.21c4.67-.21,8.66,4.83,8.95,11.29s-3.25,11.82-7.92,12-8.66-4.83-8.94-11.29S136.09,132.42,140.75,132.21Z"/><path class="cls-16" d="M214.84,128.62c4.67-.21,8.66,4.83,8.95,11.28s-3.25,11.83-7.91,12-8.66-4.84-8.95-11.29S210.18,128.82,214.84,128.62Z"/></g></g><g id="cejas"><g class="cls-17"><path class="cls-18" d="M88.58,79.07s16.33-7.21,31.6-8.37c16-1.21,34,3.72,34,3.72"/></g><g class="cls-17"><path class="cls-18" d="M259.57,70.12s-18.2-3.9-31.3-3.68c-13.68.23-32.54,5-32.55,5"/></g></g><g id="nariz"><g class="cls-17"><path class="cls-16" d="M169.53,167.78c.36-.91,2.18-1.27,3.12-1,2,.62,4.33,4.76,3.73,6-.29.62-3.74-1.48-5.1-2.1C170.1,170.22,169.15,168.74,169.53,167.78Z"/></g><g class="cls-17"><path class="cls-16" d="M190.51,166.85c-.44-.88-2.29-1.07-3.2-.7-2,.8-3.89,5.12-3.18,6.36.34.58,3.6-1.81,4.9-2.54C190.15,169.33,191,167.78,190.51,166.85Z"/></g></g></g></g><rect class="cls-19" x="270.51" y="219.51" width="99.71" height="17.57" transform="translate(25.82 489.04) rotate(-76.99)"/><rect class="cls-20" x="267.24" y="222.22" width="99.71" height="9.54" transform="translate(24.55 484.85) rotate(-76.99)"/><path class="cls-21" d="M318.21,279.54,306.34,294.9a1.25,1.25,0,0,1-2.32-.35l-4.08-19.2Z"/><path d="M303.2,290.71l.82,3.72a1.15,1.15,0,0,0,1.51.93,1.3,1.3,0,0,0,.81-.58l2.33-2.91Z"/><path class="cls-22" d="M336.48,168.77l-3.37-.7c-4.66-1-8.85,2.56-9.43,4.89h0c-.58,2.32-.58,4.42,1.86,5l12.1,2.79c2.33.59,3.14-1.28,3.61-3.72h0C342,174.7,340.09,169.58,336.48,168.77Z"/><path class="cls-23" d="M322.4,175.52l19.32,4.42a.88.88,0,0,1,.58.81L340.67,188a.88.88,0,0,1-.82.58l-19.31-4.42a.88.88,0,0,1-.58-.82l1.63-7.21A.58.58,0,0,1,322.4,175.52Z"/><path class="cls-24" d="M327.43,220.17c1-5.24,2.28-13.79,7.36-14.83s14.62,3.94,9.64,14.31-17.21,18.46-17.21,18.46S326.19,226.7,327.43,220.17Z"/><path class="cls-25" d="M306.9,214.88c.63-3.33,6.84-11.82,11.72-10.68s9,14.79-.52,25C313.28,234.36,303.89,230.75,306.9,214.88Z"/></g></g></svg>