<svg xmlns="http://www.w3.org/2000/svg" xmlns:xlink="http://www.w3.org/1999/xlink" viewBox="0 0 368.1 319.6"><defs><style>.cls-1{fill:none;}.cls-1,.cls-10,.cls-11,.cls-2,.cls-3,.cls-4,.cls-5,.cls-6,.cls-8{stroke:#000;stroke-miterlimit:10;}.cls-1,.cls-10,.cls-11,.cls-12,.cls-2,.cls-3,.cls-4,.cls-5,.cls-6,.cls-8{stroke-linecap:round;}.cls-1,.cls-2,.cls-3,.cls-4,.cls-5{stroke-width:0.5px;}.cls-2{fill:#317043;}.cls-3{fill:#568c64;}.cls-11,.cls-4{fill:#45adb0;}.cls-5{fill:#d0a26e;}.cls-6{fill:#fff;}.cls-7{clip-path:url(#clip-path);}.cls-8{fill:#7e2d3a;}.cls-9{fill:#fea49c;}.cls-10{fill:#316b6f;}.cls-11{stroke-width:0.75px;}.cls-12{fill:#a0dbf0;stroke:#4a91cd;stroke-linejoin:round;}</style><clipPath id="clip-path"><path class="cls-1" d="M238.91,158.51c-11,.52-29.69-12.09-34.15-8.15C168.41,182.43,112.08,177.27,98.34,177c-15-.26-31-2-32.84,3.55-3.92,11.75,18.24,26.17,41.78,29.95s41,6,65.16,0c33.79-8.45,41.25-17.08,51.23-26.54C237.59,170.81,244.43,158.24,238.91,158.51Z"/></clipPath></defs><title>Correct feedbacK_Tortuga</title><g id="Layer_2" data-name="Layer 2"><g id="Layer_1-2" data-name="Layer 1"><path class="cls-2" d="M242.16,319.35c-7.22-60.84-67.57-121.61-87-121-75.94,2.55-72.84,70.19-68.9,121Z"/><path class="cls-3" d="M250.47,319.35c-6.73-61-64.87-122-83.61-121.35-73.08,2.56-69.9,70.54-66.11,121.35Z"/><path class="cls-4" d="M195.15,225.29c4.31,1.24,37.42,9.19,69,2.93S357.72,161,366.46,145.5s-25.68-42.93-42.67-39.33c-13,2.76-32.18,56.88-51.3,68.57S209.7,210.25,200.56,209,186.42,222.79,195.15,225.29Z"/><path class="cls-5" d="M261.33,319.35c-5.9-61.62-67.57-124-87.3-123.32-77.12,2.59-72.72,72.32-68.72,123.32Z"/><path class="cls-4" d="M134.26.73C171.42-1,260-1.83,281.8,73.86s11.54,124.44-64.15,143.69-130.86,11.54-175.76-9S-53,9.71,134.26.73Z"/><path class="cls-6" d="M64.74,142.69c-13.84-19.19-19-64.92,23.58-75.95s53.53,50.78,50.73,65.35C134.23,157.19,98.42,189.36,64.74,142.69Z"/><path class="cls-6" d="M263.27,111.87c6.56-22.63-7.14-67.09-30.21-68.35-35.74-2-24.47,53.65-20,67.78C220.86,135.65,252.82,148,263.27,111.87Z"/><g class="cls-7"><path class="cls-8" d="M240.21,127.18c-9.16,6.07-33.3,33.5-68.05,41.83s-59.8,11-73.08,6.91-24.39,1.18-25.2,13.62S86.16,222.21,109.69,226s55.78,2.75,83.86-13.75,43.57-34.68,47.14-52.51S242.17,125.88,240.21,127.18Z"/><path class="cls-9" d="M202,146.47c11.8,1.47,32.39,11.38,36,23.25s-47.1,60.7-101.3,55-85.86-3.58-87-32.58S44,166.66,79.35,164.88,195.59,145.67,202,146.47Z"/></g><path class="cls-1" d="M238.91,158.51c-11,.52-29.69-12.09-34.15-8.15C168.41,182.43,112.08,177.27,98.34,177c-15-.26-31-2-32.84,3.55-3.92,11.75,18.24,26.17,41.78,29.95s41,6,65.16,0c33.79-8.45,41.25-17.08,51.23-26.54C237.59,170.81,244.43,158.24,238.91,158.51Z"/><ellipse cx="249.29" cy="96.14" rx="7.1" ry="12.15" transform="translate(-11.11 36.32) rotate(-8.15)"/><ellipse cx="126.23" cy="123.72" rx="7.1" ry="12.15" transform="translate(-16.27 19.15) rotate(-8.15)"/><path class="cls-10" d="M348.82,140.46c2.79.1,7.29-2.17,6.9-6.7s-5.39-7.82-8.54-7.82-8,5.46-7,9.59S343.5,140.26,348.82,140.46Z"/><path class="cls-10" d="M333.92,122.52c1-.63,2.33-5.21,1.05-6.82s-5.09-.87-6.21-.12-2.82,5.11-1.42,6.42A6.15,6.15,0,0,0,333.92,122.52Z"/><path class="cls-5" d="M131.46,285.5c4.34-2.37,43.35-14.58,60.3-16.55s35.47.39,44.93,6.3"/><path class="cls-11" d="M49.09,46.07c1.77-3.75,9.65-20.89,24.43-25.42s29.76,1.18,29.76,1.18"/><path class="cls-11" d="M183.27,23.79c2.17-2.7,11.88-15.08,23.92-15.76s22.51,6.5,22.51,6.5"/><path class="cls-4" d="M161,319.35c-14.61-9.36-62.21-22.54-63-24.19-2-4,23.61-39.85,26.21-46.71,2.36-6.24,1.38-16-3.55-19.11-3.78-2.43-5.91-2.7-15.37,2.75-8.31,4.79-55.57,57.55-58.33,81.72a14.51,14.51,0,0,0,.46,5.54Z"/><path class="cls-12" d="M337.26,203.06s-8.48,24.15,16.44,31.34c0,0-30.31-11.56-38.28,5.39,0,0,2.32-30-2.56-32.36C312.86,207.43,333.15,207.94,337.26,203.06Z"/><path class="cls-12" d="M59.3,261.59s-19.14,14.7-19.59,20.48c0,0-17.36-25.37-24.93-26.71,0,0,19.59-3.56,21.82-11.13C36.6,244.23,39.27,257.14,59.3,261.59Z"/></g></g></svg>