<svg xmlns="http://www.w3.org/2000/svg" xmlns:xlink="http://www.w3.org/1999/xlink" viewBox="0 0 96.06 120"><defs><style>.cls-1,.cls-11{fill:none;}.cls-10,.cls-11,.cls-2,.cls-4,.cls-6,.cls-7,.cls-8,.cls-9{stroke:#000;stroke-miterlimit:10;}.cls-10,.cls-11,.cls-2,.cls-4,.cls-6,.cls-7,.cls-8{stroke-linecap:round;}.cls-2,.cls-4,.cls-7{stroke-width:0.25px;}.cls-2{fill:url(#linear-gradient);}.cls-3{fill:url(#linear-gradient-2);}.cls-4{fill:url(#linear-gradient-3);}.cls-5{fill:url(#linear-gradient-4);}.cls-10,.cls-6,.cls-8,.cls-9{stroke-width:0.5px;}.cls-6{fill:url(#linear-gradient-5);}.cls-7{fill:url(#linear-gradient-6);}.cls-8{fill:url(#linear-gradient-7);}.cls-9{fill:#fff;}.cls-10{fill:url(#linear-gradient-8);}</style><linearGradient id="linear-gradient" x1="-4905.32" y1="183.69" x2="-4926.28" y2="-15.45" gradientTransform="translate(4985.01)" gradientUnits="userSpaceOnUse"><stop offset="0" stop-color="#ef4323"/><stop offset="0.52" stop-color="#f58220"/></linearGradient><linearGradient id="linear-gradient-2" x1="-4914.79" y1="185.16" x2="-4935.85" y2="-14.91" xlink:href="#linear-gradient"/><linearGradient id="linear-gradient-3" x1="-4925.53" y1="185.82" x2="-4946.49" y2="-13.32" xlink:href="#linear-gradient"/><linearGradient id="linear-gradient-4" x1="-4933.86" y1="187.37" x2="-4954.98" y2="-13.28" xlink:href="#linear-gradient"/><linearGradient id="linear-gradient-5" x1="-4900.62" y1="183.2" x2="-4921.58" y2="-15.95" xlink:href="#linear-gradient"/><linearGradient id="linear-gradient-6" x1="-4904.23" y1="183.58" x2="-4925.19" y2="-15.57" xlink:href="#linear-gradient"/><linearGradient id="linear-gradient-7" x1="-4913.19" y1="184.52" x2="-4934.15" y2="-14.62" xlink:href="#linear-gradient"/><linearGradient id="linear-gradient-8" x1="-4934.52" y1="189.43" x2="-4955.87" y2="-13.35" xlink:href="#linear-gradient"/></defs><title>Mistake feedback_camaleon3</title><g id="Layer_2" data-name="Layer 2"><g id="Layer_1-2" data-name="Layer 1"><rect class="cls-1" width="96.06" height="120"/><path class="cls-2" d="M58.32,88.32c2.22-1.63,24.8,10.87,26,14.89s-1.36,6.44-7.68,3C69.54,102.31,51.15,93.56,58.32,88.32Z"/><path class="cls-3" d="M46.26,120H80.45a57.51,57.51,0,0,0-3-8.84c-10-23.06-21.07-26.51-26.47-25.42-10.83,2.18-5.67,14.59-4.62,20.09A50,50,0,0,1,46.26,120Z"/><path d="M46.18,105.85a48.94,48.94,0,0,1,0,14.15h.25a49.22,49.22,0,0,0,0-14.19c-.16-.83-.41-1.83-.68-2.88-1.08-4.23-2.55-10-.22-13.72A7.89,7.89,0,0,1,51,85.86c2.36-.47,14.73-1.5,26.32,25.35a57.27,57.27,0,0,1,3,8.79h.25a58.73,58.73,0,0,0-3.06-8.89c-4.42-10.24-9.46-17.57-15-21.82s-10-4-11.63-3.67a8.16,8.16,0,0,0-5.6,3.46c-2.38,3.78-.89,9.64.2,13.91C45.77,104,46,105,46.18,105.85Z"/><path class="cls-4" d="M22.37,4.33c2.53-.24,17.21,6.12,25.68,8.39S73,14.82,80,33.51C83.34,43,82.6,51.76,85.74,54.73S97,62,91.33,72.66,71.68,92.51,57,96.44,19.47,98.8,11.67,95,.41,85.57,3.16,78.88s4.58-11.2,3.4-18.4S1,44.43,3.68,39.25s14.41-5.87,16-15.74-.86-13.71-1-15.15S20.33,4.53,22.37,4.33Z"/><path class="cls-5" d="M56.35,120a2,2,0,0,0-.07-1.42C55.24,115.5,49,117.4,48,117s-8.38-6.55-8.05-7.27,7.33-6.75,8.91-7.86l-3.61-3.54c-5.83,3.34-14.87,8.71-14.67,11.73.16,2.43,8,8,11,9.93Z"/><path d="M41.79,120c-2.67-1.75-11-7.51-11.13-9.94-.2-3.12,10.18-9.07,14.62-11.61a.12.12,0,0,0,0-.17.13.13,0,0,0-.17,0c-7.39,4.24-14.92,9-14.74,11.84.16,2.41,7.42,7.61,10.93,9.93Z"/><path d="M39.79,109.69a.35.35,0,0,0,0,.28c.49,1.22,7.1,6.75,8.11,7.16a5.71,5.71,0,0,0,1.92,0c2.23-.23,5.61-.57,6.33,1.54a1.79,1.79,0,0,1,0,1.38h.28a2.15,2.15,0,0,0-.09-1.46c-.78-2.3-4.27-1.94-6.58-1.71a5.73,5.73,0,0,1-1.81.06c-1.15-.46-8.13-6.44-8-7.1.31-.68,7.33-6.72,8.87-7.81a.12.12,0,0,0,0-.17.13.13,0,0,0-.18,0C47.26,102.82,40.16,108.89,39.79,109.69Z"/><path class="cls-6" d="M60.46,27.48c.26-1.31,1.74-6.46,6.63-6.55,5.14-.09,8.21,4.37,8.21,4.37"/><path class="cls-7" d="M74.82,79.28c-.56.17,3.91-5.54,1.71-7.21-3.28-2.49-6.82,3.8-8.78,10-1,1-7.62.17-9.17,3.14s-.4,4.59,9.43,4.72c2.1.39,4.19,6.94,10.74,17.16,2.23,2.1,7.08.26,6.29-2.62s-10-16.11-9.43-18.08,6.16-1.18,6.68-5S77.31,78.49,74.82,79.28Z"/><path class="cls-8" d="M55.3,84.12c1.18-1.31,4.33-5,6.81-5.24s4.72,1.84,4.72,1.84"/><path class="cls-9" d="M35.26,44.56c2.89-.82,13.55-2.58,14.67,7.92,1,9.81-4.67,10.82-12.93,12-5,.74-11.83.54-13.67-6.08S26,47.18,35.26,44.56Z"/><path class="cls-10" d="M19.4,44.82c3.8,1.31,11.28,4.25,19.52,2.62S50.72,41,50.72,41"/><path class="cls-9" d="M69.32,31.72c3.82-1,10.55,3,12.84,11.92s.07,14-3.73,15.66-10.68-.2-14.09-8.19S63,33.42,69.32,31.72Z"/><ellipse cx="71.8" cy="48.1" rx="2.36" ry="4.04" transform="translate(-10.39 21.39) rotate(-15.81)"/><ellipse cx="47" cy="55.18" rx="2.36" ry="4.04" transform="translate(-6.42 6.19) rotate(-7.06)"/><path class="cls-11" d="M59.23,67.18a5.36,5.36,0,0,1,2.88,1.22"/><path class="cls-11" d="M67.92,64a10.72,10.72,0,0,0-.48,3"/></g></g></svg>