<svg xmlns="http://www.w3.org/2000/svg" xmlns:xlink="http://www.w3.org/1999/xlink" viewBox="0 0 329.28 338"><defs><style>.cls-1{fill:none;}.cls-1,.cls-10,.cls-2,.cls-3,.cls-4,.cls-5,.cls-6,.cls-7,.cls-8{stroke:#000;stroke-miterlimit:10;}.cls-1,.cls-10,.cls-12,.cls-2,.cls-3,.cls-4,.cls-5,.cls-6,.cls-7,.cls-8{stroke-linecap:round;}.cls-1,.cls-2,.cls-3,.cls-4,.cls-5{stroke-width:0.5px;}.cls-2{fill:url(#linear-gradient);}.cls-3{fill:url(#linear-gradient-2);}.cls-4{fill:url(#linear-gradient-3);}.cls-5{fill:url(#linear-gradient-4);}.cls-6,.cls-7{stroke-width:0.75px;}.cls-6{fill:url(#linear-gradient-5);}.cls-7{fill:url(#linear-gradient-6);}.cls-8{fill:#fff;}.cls-9{clip-path:url(#clip-path);}.cls-10{fill:#7e2d3a;}.cls-11{fill:#fea49c;}.cls-12{fill:#a0dbf0;stroke:#4a91cd;stroke-linejoin:round;}</style><linearGradient id="linear-gradient" x1="867.36" y1="520.91" x2="898.59" y2="-62.9" gradientTransform="translate(-615.92)" gradientUnits="userSpaceOnUse"><stop offset="0" stop-color="#7fb541"/><stop offset="1" stop-color="#2babe2"/></linearGradient><linearGradient id="linear-gradient-2" x1="803.27" y1="517.49" x2="834.5" y2="-66.33" xlink:href="#linear-gradient"/><linearGradient id="linear-gradient-3" x1="754.23" y1="514.86" x2="785.46" y2="-68.95" xlink:href="#linear-gradient"/><linearGradient id="linear-gradient-4" x1="737.04" y1="513.94" x2="768.27" y2="-69.87" xlink:href="#linear-gradient"/><linearGradient id="linear-gradient-5" x1="715.51" y1="512.79" x2="746.74" y2="-71.02" xlink:href="#linear-gradient"/><linearGradient id="linear-gradient-6" x1="810.02" y1="517.85" x2="841.26" y2="-65.97" xlink:href="#linear-gradient"/><clipPath id="clip-path"><path class="cls-1" d="M243.07,199.4c-12.07,2.68-28,8.32-40.5,11.09-48.85,10.81-97.36-2.56-111.32-2.8-15.21-.27-25.76,3.2-27.63,8.81-4,11.94,21.8,31.91,45.71,35.75s41.65,6.14,66.21,0c34.33-8.58,41.91-17.35,52.05-27C241.73,211.9,248.55,198.18,243.07,199.4Z"/></clipPath></defs><title>Correct feedbacK_Camaleon1</title><g id="Layer_2" data-name="Layer 2"><g id="Layer_1-2" data-name="Layer 1"><path class="cls-2" d="M204.17,284.17c4-1.6,45.25-16.82,69.07-39.24s35.64-44.85,37.24-46.45,13,2.4,17.62-4.81-9.21-15.21-12.81-15.81c0,0,11.81-18.42,5-23s-16.81,14.42-16.81,14.42-17.82-11.41-22.83-4,10.61,19.83,10.61,19.83-32.83,63.06-85.89,81.48"/><path class="cls-3" d="M153.32,337.75h98.31c-1.29-3.59-2.73-7.25-4.35-11-30.43-70.48-64.38-81-80.88-77.68-33.1,6.67-17.35,44.58-14.15,61.39C153.6,317.57,153.9,327.31,153.32,337.75Z"/><path class="cls-4" d="M79.11.27C86.84-.47,131.69,19,157.59,25.9s76.08,6.4,97.7,63.53c10.15,29,7.88,55.79,17.49,64.87s34.5,22.16,17.08,54.79S229.8,269.75,185,281.77,70.23,289,46.4,277.36s-34.43-28.83-26-49.25,14-34.24,10.41-56.26-17-49-8.81-64.87S66,89,71,58.87,68.33,17,67.83,12.58,72.87.87,79.11.27Z"/><path class="cls-5" d="M148.91,287.57c-17.82,10.21-45.44,26.63-44.84,35.84.22,3.48,5.56,8.91,12.1,14.34h31.9c-7.3-6-16-14-15.37-15.34,1-2.2,22.42-20.62,27.22-24"/><path class="cls-6" d="M79.25,82c3.13-2.81,22.81-16.89,48.84-10.48,15.25,3.75,37.24,23.22,37.24,23.22"/><path class="cls-7" d="M195.5,71c.8-4,5.33-19.75,20.28-20,15.71-.28,25.1,13.35,25.1,13.35"/><path class="cls-8" d="M107.47,109.39c8.84-2.5,41.84-1.21,55.86,38S146,198,130.69,200.28c-18.51,2.75-42.64-11-48.25-31.23S79,117.39,107.47,109.39Z"/><path class="cls-8" d="M222.59,84c11.68-3.16,32.23,9,39.24,36.44s.2,42.64-11.41,47.85-32.63-.6-43-25S203.37,89.16,222.59,84Z"/><ellipse cx="230.18" cy="134.03" rx="7.22" ry="12.34" transform="translate(-27.81 67.8) rotate(-15.81)"/><ellipse cx="148.49" cy="151.38" rx="7.22" ry="12.34" transform="translate(-35.64 46.2) rotate(-15.81)"/><g class="cls-9"><path class="cls-10" d="M244.39,167.57c-9.3,6.17-33.83,34-69.14,42.5s-60.75,11.18-74.24,7-24.78,1.2-25.61,13.83,12.48,33.2,36.39,37,56.66,2.8,85.19-14,44.27-35.23,47.9-53.35S246.38,166.25,244.39,167.57Z"/><path class="cls-11" d="M205.57,187.17c12,1.49,32.91,11.56,36.58,23.62s-47.86,61.67-102.92,55.88S52,263,50.87,233.57,45,207.68,81,205.88,199.06,186.36,205.57,187.17Z"/></g><path class="cls-1" d="M243.07,199.4c-12.07,2.68-28,8.32-40.5,11.09-48.85,10.81-97.36-2.56-111.32-2.8-15.21-.27-25.76,3.2-27.63,8.81-4,11.94,21.8,31.91,45.71,35.75s41.65,6.14,66.21,0c34.33-8.58,41.91-17.35,52.05-27C241.73,211.9,248.55,198.18,243.07,199.4Z"/><path class="cls-1" d="M191.76,192.34c1.33.13,6.94,1.33,8.81,3.74"/><path class="cls-1" d="M218.32,182.6c-.4.66-1.87,7.87-1.47,9.21"/><path class="cls-12" d="M309.06,282.69s-8.43,24,16.35,31.16c0,0-30.14-11.49-38.06,5.37,0,0,2.3-29.89-2.56-32.19C284.79,287,305,287.54,309.06,282.69Z"/><path class="cls-12" d="M44.77,288.14s-19,14.61-19.48,20.37C25.29,308.51,8,283.27.5,282c0,0,19.48-3.55,21.69-11.07C22.19,270.88,24.85,283.72,44.77,288.14Z"/></g></g></svg>