<svg xmlns="http://www.w3.org/2000/svg" xmlns:xlink="http://www.w3.org/1999/xlink" viewBox="0 0 327.39 336.98"><defs><style>.cls-1{fill:none;}.cls-1,.cls-10,.cls-2,.cls-3,.cls-4,.cls-5,.cls-6,.cls-7,.cls-8{stroke:#000;stroke-miterlimit:10;}.cls-1,.cls-10,.cls-12,.cls-2,.cls-3,.cls-4,.cls-5,.cls-6,.cls-7,.cls-8{stroke-linecap:round;}.cls-1,.cls-2,.cls-3,.cls-4,.cls-5{stroke-width:0.5px;}.cls-2{fill:url(#linear-gradient);}.cls-3{fill:url(#linear-gradient-2);}.cls-4{fill:url(#linear-gradient-3);}.cls-5{fill:url(#linear-gradient-4);}.cls-6,.cls-7{stroke-width:0.75px;}.cls-6{fill:url(#linear-gradient-5);}.cls-7{fill:url(#linear-gradient-6);}.cls-8{fill:#fff;}.cls-9{clip-path:url(#clip-path);}.cls-10{fill:#7e2d3a;}.cls-11{fill:#fea49c;}.cls-12{fill:#a0dbf0;stroke:#4a91cd;stroke-linejoin:round;}</style><linearGradient id="linear-gradient" x1="865.7" y1="519.33" x2="896.84" y2="-62.71" gradientTransform="translate(-615.92)" gradientUnits="userSpaceOnUse"><stop offset="0" stop-color="#91298c"/><stop offset="0.37" stop-color="#2e378e"/><stop offset="1" stop-color="#2babe2"/></linearGradient><linearGradient id="linear-gradient-2" x1="801.8" y1="515.91" x2="832.94" y2="-66.13" xlink:href="#linear-gradient"/><linearGradient id="linear-gradient-3" x1="752.91" y1="513.3" x2="784.05" y2="-68.74" xlink:href="#linear-gradient"/><linearGradient id="linear-gradient-4" x1="735.77" y1="512.38" x2="766.91" y2="-69.66" xlink:href="#linear-gradient"/><linearGradient id="linear-gradient-5" x1="714.31" y1="511.23" x2="745.45" y2="-70.81" xlink:href="#linear-gradient"/><linearGradient id="linear-gradient-6" x1="808.54" y1="516.27" x2="839.68" y2="-65.77" xlink:href="#linear-gradient"/><clipPath id="clip-path"><path class="cls-1" d="M241.44,198.79c-12,2.68-27.88,8.3-40.38,11.06-48.7,10.78-97.06-2.55-111-2.79-15.17-.27-25.68,3.19-27.54,8.78-4,11.91,21.73,31.82,45.57,35.65s41.51,6.12,66,0c34.22-8.56,41.78-17.3,51.89-26.88C240.1,211.26,246.9,197.58,241.44,198.79Z"/></clipPath></defs><title>Correct feedbacK_Camaleon5</title><g id="Layer_2" data-name="Layer 2"><g id="Layer_1-2" data-name="Layer 1"><path class="cls-2" d="M202.66,283.31c4-1.6,45.11-16.77,68.86-39.13s35.53-44.71,37.12-46.3,13,2.39,17.57-4.79-9.18-15.17-12.78-15.77c0,0,11.78-18.37,5-23s-16.76,14.37-16.76,14.37-17.77-11.37-22.76-4,10.58,19.76,10.58,19.76-32.73,62.88-85.63,81.24"/><path class="cls-3" d="M152,336.73h98c-1.28-3.58-2.72-7.23-4.33-11C215.3,255.49,181.45,245,165,248.31c-33,6.65-17.3,44.44-14.11,61.21C152.24,316.61,152.54,326.32,152,336.73Z"/><path class="cls-4" d="M78,.27c7.72-.74,52.43,18.63,78.24,25.55s75.85,6.39,97.41,63.34c10.11,28.88,7.85,55.62,17.43,64.67s34.4,22.09,17,54.63-59.88,60.47-104.59,72.45S69.12,288.1,45.37,276.52,11,247.78,19.42,227.42s14-34.13,10.38-56.09-17-48.9-8.78-64.67,43.91-17.9,48.83-48-2.62-41.75-3.12-46.14S71.75.87,78,.27Z"/><path class="cls-5" d="M147.57,286.7c-17.77,10.18-45.31,26.55-44.72,35.73.23,3.46,5.55,8.88,12.07,14.3h31.8c-7.27-6-15.95-13.92-15.32-15.3,1-2.2,22.35-20.56,27.14-23.95"/><path class="cls-6" d="M78.11,81.79c3.13-2.81,22.75-16.85,48.7-10.46,15.2,3.74,37.12,23.15,37.12,23.15"/><path class="cls-7" d="M194,70.8c.79-4,5.32-19.7,20.22-20,15.66-.28,25,13.3,25,13.3"/><path class="cls-8" d="M106.25,109.05c8.81-2.48,41.71-1.19,55.69,37.93S144.7,197.4,129.4,199.67c-18.45,2.74-42.51-11-48.1-31.13S77.9,117,106.25,109.05Z"/><path class="cls-8" d="M221,83.7c11.64-3.15,32.13,9,39.12,36.33s.2,42.52-11.38,47.71-32.53-.6-42.91-25S201.86,88.89,221,83.7Z"/><ellipse cx="228.58" cy="133.62" rx="7.19" ry="12.31" transform="translate(-27.76 67.35) rotate(-15.81)"/><ellipse cx="147.14" cy="150.92" rx="7.19" ry="12.31" transform="translate(-35.56 45.81) rotate(-15.81)"/><g class="cls-9"><path class="cls-10" d="M242.76,167.06c-9.28,6.15-33.74,33.94-68.94,42.37s-60.57,11.15-74,7-24.71,1.2-25.53,13.79,12.44,33.09,36.27,36.92,56.5,2.79,84.94-13.92,44.13-35.13,47.75-53.19S244.74,165.75,242.76,167.06Z"/><path class="cls-11" d="M204.05,186.6c11.95,1.49,32.81,11.53,36.47,23.55s-47.72,61.48-102.61,55.71-87-3.63-88.09-33-5.82-25.81,30-27.61S197.56,185.79,204.05,186.6Z"/></g><path class="cls-1" d="M241.44,198.79c-12,2.68-27.88,8.3-40.38,11.06-48.7,10.78-97.06-2.55-111-2.79-15.17-.27-25.68,3.19-27.54,8.78-4,11.91,21.73,31.82,45.57,35.65s41.51,6.12,66,0c34.22-8.56,41.78-17.3,51.89-26.88C240.1,211.26,246.9,197.58,241.44,198.79Z"/><path class="cls-1" d="M190.28,191.76c1.33.13,6.92,1.33,8.78,3.72"/><path class="cls-1" d="M216.76,182c-.4.67-1.86,7.85-1.46,9.18"/><path class="cls-12" d="M309.06,282s-8.43,24,16.35,31.17c0,0-30.14-11.5-38.06,5.36,0,0,2.3-29.88-2.56-32.18C284.79,286.32,305,286.83,309.06,282Z"/><path class="cls-12" d="M44.77,287.43S25.73,302,25.29,307.8c0,0-17.26-25.24-24.79-26.57,0,0,19.48-3.54,21.69-11.07C22.19,270.16,24.85,283,44.77,287.43Z"/></g></g></svg>