<svg xmlns="http://www.w3.org/2000/svg" xmlns:xlink="http://www.w3.org/1999/xlink" viewBox="0 0 273.29 346.96"><defs><style>.cls-1,.cls-10,.cls-2,.cls-3,.cls-4,.cls-5,.cls-6,.cls-7,.cls-8,.cls-9{stroke:#000;stroke-miterlimit:10;}.cls-1,.cls-10,.cls-2,.cls-3,.cls-4,.cls-5,.cls-6,.cls-7,.cls-9{stroke-linecap:round;}.cls-1,.cls-2,.cls-3,.cls-4,.cls-5,.cls-6,.cls-7,.cls-9{stroke-width:0.5px;}.cls-1{fill:url(#linear-gradient);}.cls-2{fill:url(#linear-gradient-2);}.cls-3{fill:url(#linear-gradient-3);}.cls-4{fill:url(#linear-gradient-4);}.cls-5{fill:url(#linear-gradient-5);}.cls-6{fill:url(#linear-gradient-6);}.cls-7{fill:url(#linear-gradient-7);}.cls-8{fill:#fff;}.cls-9{fill:url(#linear-gradient-8);}.cls-10{fill:none;}</style><linearGradient id="linear-gradient" x1="-4752.75" y1="537.44" x2="-4815.54" y2="-58.99" gradientTransform="translate(4985.01)" gradientUnits="userSpaceOnUse"><stop offset="0" stop-color="#e9118b"/><stop offset="1" stop-color="#ef4323"/></linearGradient><linearGradient id="linear-gradient-2" x1="-4781.5" y1="540.47" x2="-4844.28" y2="-55.96" xlink:href="#linear-gradient"/><linearGradient id="linear-gradient-3" x1="-4813.29" y1="543.82" x2="-4876.07" y2="-52.62" xlink:href="#linear-gradient"/><linearGradient id="linear-gradient-4" x1="-4838.48" y1="546.47" x2="-4901.27" y2="-49.96" xlink:href="#linear-gradient"/><linearGradient id="linear-gradient-5" x1="-4738.68" y1="535.96" x2="-4801.46" y2="-60.47" xlink:href="#linear-gradient"/><linearGradient id="linear-gradient-6" x1="-4749.48" y1="537.1" x2="-4812.26" y2="-59.33" xlink:href="#linear-gradient"/><linearGradient id="linear-gradient-7" x1="-4776.33" y1="539.93" x2="-4839.12" y2="-56.51" xlink:href="#linear-gradient"/><linearGradient id="linear-gradient-8" x1="-4840.22" y1="554.62" x2="-4904.15" y2="-52.7" xlink:href="#linear-gradient"/></defs><title>Mistake feedback_Camaleon4</title><g id="Layer_2" data-name="Layer 2"><g id="Layer_1-2" data-name="Layer 1"><path class="cls-1" d="M168.24,251.79c6.68-4.88,74.3,32.57,78,44.6s-4.09,19.3-23,9C201.86,293.71,146.79,267.49,168.24,251.79Z"/><path class="cls-2" d="M131.82,346.71c2.11-15.72,2.45-32,.45-42.47-3.13-16.48-18.57-53.62,13.87-60.16,16.17-3.27,49.44,7.06,79.26,76.12a162.67,162.67,0,0,1,9,26.51Z"/><path class="cls-3" d="M60.6.27c7.58-.73,51.53,18.31,76.91,25.11s74.55,6.28,95.74,62.26c9.94,28.39,7.72,54.68,17.13,63.57s33.81,21.71,16.75,53.69-58.86,59.45-102.81,71.22S51.9,283.18,28.55,271.8s-33.74-28.25-25.5-48.26S16.78,190,13.25,168.41s-16.68-48.07-8.63-63.57,43.16-17.59,48-47.15-2.58-41-3.07-45.35S54.48.86,60.6.27Z"/><path class="cls-4" d="M139.79,292.4c-4.7,3.34-25.7,21.39-26.68,23.55s21.19,20.6,24.13,21.78,21.78-4.52,24.92,4.7c.64,1.89.42,3.26-.36,4.28H118.56c-8.41-5.53-33-22.3-33.5-29.78-.59-9,26.48-25.11,43.94-35.12"/><path class="cls-5" d="M174.65,69.59c.79-3.92,5.23-19.36,19.88-19.62,15.39-.27,24.59,13.08,24.59,13.08"/><path class="cls-6" d="M217.68,224.72c-1.67.53,11.7-16.58,5.11-21.58C213,195.68,202.38,214.52,196.5,233c-3.14,3.14-22.83.53-27.47,9.42s-1.18,13.73,28.25,14.12c6.28,1.18,12.56,20.8,32.18,51.4,6.67,6.28,21.19.79,18.83-7.84S218.47,251.79,220,245.91s18.44-3.53,20-14.91S225.14,222.36,217.68,224.72Z"/><path class="cls-7" d="M159.22,239.24c3.53-3.93,12.95-14.91,20.4-15.7S193.75,229,193.75,229"/><path class="cls-8" d="M99.18,120.73c8.67-2.44,40.61-7.71,43.95,23.74,3.12,29.36-14,32.39-38.72,36-15,2.22-35.44,1.63-40.93-18.18S71.32,128.58,99.18,120.73Z"/><path class="cls-9" d="M51.7,121.52c11.38,3.92,33.78,12.72,58.47,7.85,24.5-4.84,35.31-19.23,35.31-19.23"/><path class="cls-8" d="M201.2,82.28c11.45-3.1,31.59,8.83,38.46,35.71s.19,41.79-11.18,46.89-32-.59-42.19-24.53S182.37,87.38,201.2,82.28Z"/><ellipse cx="208.64" cy="131.35" rx="7.07" ry="12.1" transform="translate(-27.9 61.83) rotate(-15.81)"/><ellipse cx="134.35" cy="152.54" rx="7.07" ry="12.1" transform="translate(-17.72 17.66) rotate(-7.06)"/><path class="cls-10" d="M171,188.49c1.31.13,6.8,1.3,8.63,3.66"/><path class="cls-10" d="M197,178.94c-.39.65-1.83,7.72-1.44,9"/></g></g></svg>