<svg xmlns="http://www.w3.org/2000/svg" xmlns:xlink="http://www.w3.org/1999/xlink" viewBox="0 0 349.8 454.7"><defs><style>.cls-1,.cls-2,.cls-25,.cls-9{fill:none;}.cls-2{clip-path:url(#clip-path);}.cls-3,.cls-8{fill:#45adb0;}.cls-12,.cls-13,.cls-17,.cls-19,.cls-21,.cls-24,.cls-25,.cls-3,.cls-5,.cls-6,.cls-8,.cls-9{stroke:#000;}.cls-12,.cls-13,.cls-17,.cls-19,.cls-21,.cls-24,.cls-25,.cls-3,.cls-5,.cls-6{stroke-linecap:round;}.cls-12,.cls-13,.cls-17,.cls-19,.cls-21,.cls-24,.cls-25,.cls-3,.cls-5,.cls-6,.cls-9{stroke-linejoin:round;}.cls-12,.cls-13,.cls-15,.cls-17,.cls-19,.cls-21,.cls-23,.cls-24,.cls-3,.cls-5,.cls-6,.cls-8{fill-rule:evenodd;}.cls-4{clip-path:url(#clip-path-48);}.cls-5{fill:#316b6f;}.cls-6{fill:#f1f2e4;}.cls-7{clip-path:url(#clip-path-52);}.cls-29,.cls-30,.cls-8{stroke-miterlimit:10;}.cls-10{clip-path:url(#clip-path-56);}.cls-11{clip-path:url(#clip-path-58);}.cls-12{fill:#317043;}.cls-13{fill:#568c64;}.cls-14{clip-path:url(#clip-path-60);}.cls-15{fill:#d0a26e;}.cls-16{clip-path:url(#clip-path-107);}.cls-17{fill:#7b2325;}.cls-18{clip-path:url(#clip-path-109);}.cls-19{fill:#f06b6b;}.cls-20{clip-path:url(#clip-path-110);}.cls-21,.cls-23{fill:#fff;}.cls-22{clip-path:url(#clip-path-111);}.cls-24{fill:#1c1c1c;}.cls-25{stroke-width:3px;}.cls-26{fill:#fcb042;stroke:#562f09;stroke-miterlimit:10;}.cls-27{fill:#ed9520;}.cls-28{fill:#fce8c8;}.cls-29{fill:#e44b86;stroke:#b53167;}.cls-30{fill:#a0a0b1;stroke:#71717f;}</style><clipPath id="clip-path"><path class="cls-1" d="M179.48,167.59c-15.35-.51-33.57,9.35-44.37,19-4.51,4-8.44,11.44-10.84,17-1.15,2.67-8,33-9.79,47.43-1.85,15-3.84,35.36-2,50.37,1.21,10,7.67,23.93,15,28.92,9.6,6.54,31.18,14.26,45.5,14.49,12.69.2,29.17-3.64,40.77-11.24,12.62-8.27,18.35-15.39,21.09-25.19,6.07-21.64,3.57-45.09,3.19-57-.48-14.72-5.36-39.25-7.47-46.6-1.52-5.31-4.12-11.31-7.55-15C213,179.1,195,168.1,179.48,167.59Z"/></clipPath><clipPath id="clip-path-48" transform="translate(0 3.17)"><path class="cls-1" d="M199.71,442.33s6.64,5.16,22.06,4.41c14-.68,16.09-.82,19.61-5.85,3.8-5.43.22-19.86-1.58-22.05,0,0-5.73-27.51-8.82-39.15-5.6-21.05-18.29-64-21.67-69.31-.72-1.13-4.49-6.77-11.31-5.06-9.19,2.3-9.28,9.88-9.57,13.68-.48,6.4,4.89,46.29,6.89,65.58,1.3,12.58,3.76,29.9,4.36,42.78C199.89,431.85,199.7,442.32,199.71,442.33Z"/></clipPath><clipPath id="clip-path-52" transform="translate(0 3.17)"><path class="cls-1" d="M135.37,443.66c-1,1-5.89,3.7-19,2.59-15.73-1.34-18.35-1.16-21.89-7.09-3.41-5.73,3.92-21.88,3.92-21.9s6.39-27.83,9.7-39.6C113.5,358.36,125.59,319,128.5,314c1-1.71,6.52-11.91,16.35-8.41,8.89,3.16,7,13.92,7,15.09.1,5.91-7.16,41.93-10,59.92-2.17,13.63-6.19,31.7-6.92,45.48C134.58,431.36,136.86,442.07,135.37,443.66Z"/></clipPath><clipPath id="clip-path-56" transform="translate(0 3.17)"><path class="cls-1" d="M208.75,226.62c.85-7.44,5.59-10.62,8.05-10.61,3,0,56.06,5.85,57.09,5.39s32.22-43.62,32.53-44c6-6.93,9.42-11.64,11.86-13,3.81-2.09,15.92,4.11,21.1,8.56,4.32,3.71,8.75,9.91,9.9,16.19.38,2.08-6,11.28-12.07,16.44-5.23,4.48-48.23,39.63-55.77,41.74-7.15,2-64.79-8.37-68.4-10.59A11.41,11.41,0,0,1,208.75,226.62Z"/></clipPath><clipPath id="clip-path-58" transform="translate(0 3.17)"><path class="cls-1" d="M142.85,222.93c2.36-7.19-3.86-12.39-4.22-12.78-1.16-1.2-46.09-15.91-46.82-16.34-.92-.54-47.31-38.29-47.79-38.67-10.57-8.3-11.3-9-20.86-14.08-3.07-1.64-11.69,3.53-15.79,9.51C4,155.49-1.81,165.51,1.48,168.79A98.91,98.91,0,0,0,20.62,184.1c.33.21,53,31.16,59,33.54,4.67,1.85,50.34,14.4,53.32,13.6C133.67,231,140.77,229.25,142.85,222.93Z"/></clipPath><clipPath id="clip-path-60" transform="translate(0 3.17)"><path class="cls-2" d="M179.3,172.58c-14.56-.58-31.94,8.8-42.09,18-4.36,4-8,11.29-10.24,16.77-1.09,2.63-7.69,32.33-9.4,46.45-1.77,14.67-3.73,34.54-2,49.21,1.15,9.74,7.36,23.37,14.48,28.27,9,6.23,29.33,13.89,42.87,14.1,12,.2,27.6-3.68,38.5-11,12.17-8.16,17.57-15.19,20.15-24.71,5.73-21.14,3.26-44,2.9-55.58-.45-14.33-5-38.22-7-45.38-1.43-5.12-3.89-10.91-7.17-14.48C210.9,184,194.05,173.18,179.3,172.58Z"/></clipPath><clipPath id="clip-path-107" transform="translate(0 3.17)"><path class="cls-1" d="M178.81.53c35.15.64,75.42,10.79,98,41,22.8,30.58,20.71,74.2,11.77,104.44-3.75,12.67-14.75,30.15-22.67,36.25-11.21,8.63-31.14,15.25-45.5,18.59-12.19,2.84-30.52,3-41.6,3.11-19.72.14-40.87,1.77-57.61-2.59-9.35-2.43-22.1-8.21-29.12-13.74C81.6,179.4,68,159.23,62.85,143.21c-9.17-28.67-10.48-69,12.2-99.6C97.91,12.78,140.29-.18,178.81.53Z"/></clipPath><clipPath id="clip-path-109" transform="translate(0 3.17)"><path class="cls-1" d="M106.75,166.42c8.13.69,21.29,3.09,31.61,3.67,12.64.72,33.11-.15,39-.18s30.08.3,39.12-.29c8.14-.53,21.66-3.36,35-4.26,3-.21,12.79-.77,13-.45.34.48-7.08,18-12.62,23.06-7.21,6.6-23.22,9.79-32.26,12.15-11.89,3.12-30.93,4.82-42.37,4.67C165,204.63,143,203.37,129,198.62c-9.07-3.08-21.31-7.23-28.76-14.23-5.41-5.09-12.47-19-12.43-19S101.91,166,106.75,166.42Z"/></clipPath><clipPath id="clip-path-110" transform="translate(0 3.17)"><path class="cls-1" d="M106.75,166.42c8.13.69,21.29,3.09,31.61,3.67,12.64.72,33.11-.15,39-.18s30.08.3,39.12-.29c8.14-.53,21.66-3.36,35-4.26,3-.21,12.79-.77,13-.45.34.48-7.08,18-12.62,23.06-7.21,6.6-22.6,9.72-31.63,12.09-11.9,3.11-33,5.4-44.45,5.25-12.24-.16-33.75-1.89-47.73-6.64-9.07-3.08-20.29-7.28-27.74-14.28-5.41-5.09-12.47-19-12.43-19S101.91,166,106.75,166.42Z"/></clipPath><clipPath id="clip-path-111" transform="translate(0 3.17)"><path class="cls-1" d="M106.75,166.42c8.13.69,21.29,3.09,31.61,3.67,12.64.72,33.11-.15,39-.18s30.08.3,39.12-.29c8.14-.53,21.66-3.36,35-4.26,3-.21,12.79-.77,13-.45.34.48-7.08,18-12.62,23.06-7.21,6.6-22.81,9.79-31.84,12.15-11.9,3.12-32.53,5.4-44,5.26-12.24-.16-33.3-1.89-47.28-6.64-9.08-3.08-21-7.35-28.47-14.35-5.41-5.09-12.47-19-12.43-19S101.91,166,106.75,166.42Z"/></clipPath></defs><title>Tortuga glosa_2</title><g id="Layer_2" data-name="Layer 2"><g id="Frame_6" data-name="Frame 6"><g id="TORTUGA"><g id="pierna_izq" data-name="pierna izq"><g id="pierna_izq-2" data-name="pierna izq"><path class="cls-3" d="M199.71,442.33s6.64,5.16,22.06,4.41c14-.68,16.09-.82,19.61-5.85,3.8-5.43.22-19.86-1.58-22.05,0,0-5.73-27.51-8.82-39.15-5.6-21.05-18.29-64-21.67-69.31-.72-1.13-4.49-6.77-11.31-5.06-9.19,2.3-9.28,9.88-9.57,13.68-.48,6.4,4.89,46.29,6.89,65.58,1.3,12.58,3.76,29.9,4.36,42.78C199.89,431.85,199.7,442.32,199.71,442.33Z" transform="translate(0 3.17)"/></g><g id="mancha_pie_izq" data-name="mancha pie izq"><g class="cls-4"><path class="cls-5" d="M208.93,368.64c2-1,5.43.91,6.82,2.61,2.63,3.21,4.72,11.55,1.22,13.78-2.79,1.78-8.41-1.8-10-4.72C205.27,377,205.76,370.23,208.93,368.64Z" transform="translate(0 3.17)"/></g><g class="cls-4"><path class="cls-5" d="M221.18,389.14c-.8,1.1.31,3.43,1.33,4.33s3.18,1.5,4.2.73,1.21-3.51.39-4.65C226,388.05,222.23,387.71,221.18,389.14Z" transform="translate(0 3.17)"/></g><g class="cls-4"><path class="cls-6" d="M188.44,448c-1.31-2.34.16-7.52,2.64-8.53,1.49-.61,3.94.77,5,2,1.68,2,3.11,6.83,1.24,8.69S189.78,450.41,188.44,448Z" transform="translate(0 3.17)"/></g><g class="cls-4"><path class="cls-6" d="M210.31,448c-1.45-2.25.15-7.54,2.64-8.53,3.26-1.31,6.13,1.49,6.83,3.72.6,1.91-1.06,5-2.8,6S211.42,449.74,210.31,448Z" transform="translate(0 3.17)"/><path class="cls-6" d="M229.08,447.92c-1.45-2.24.15-7.53,2.64-8.53,3.26-1.3,6.12,1.5,6.82,3.73.6,1.9-1.06,5.05-2.79,6.05S230.19,449.63,229.08,447.92Z" transform="translate(0 3.17)"/></g></g></g><g id="pierna_der" data-name="pierna der"><g id="pierna_der-2" data-name="pierna der"><path class="cls-3" d="M135.37,443.66c-1,1-5.89,3.7-19,2.59-15.73-1.34-18.35-1.16-21.89-7.09-3.41-5.73,3.92-21.88,3.92-21.9s6.39-27.83,9.7-39.6C113.5,358.36,125.59,319,128.5,314c1-1.71,6.52-11.91,16.35-8.41,8.89,3.16,7,13.92,7,15.09.1,5.91-7.16,41.93-10,59.92-2.17,13.63-6.19,31.7-6.92,45.48C134.58,431.36,136.86,442.07,135.37,443.66Z" transform="translate(0 3.17)"/></g><g id="mancha_pie_izq_2" data-name="mancha pie izq 2"><g class="cls-7"><path class="cls-5" d="M134.24,369.49c-1.92-1-5.45.74-6.89,2.38-2.73,3.13-5.09,11.4-1.67,13.74,2.73,1.87,8.47-1.53,10.11-4.4C137.63,378,137.36,371.18,134.24,369.49Z" transform="translate(0 3.17)"/></g><g class="cls-7"><path class="cls-5" d="M121.15,389.38c.73,1.14-.51,3.41-1.58,4.24s-3.27,1.31-4.24.48-1-3.58-.12-4.66C116.38,388,120.18,387.89,121.15,389.38Z" transform="translate(0 3.17)"/></g><g class="cls-7"><path class="cls-6" d="M156,448c1.31-2.34-.16-7.52-2.64-8.53-1.49-.61-3.94.77-5,2-1.68,2-3.11,6.83-1.25,8.69S154.68,450.41,156,448Z" transform="translate(0 3.17)"/></g><g class="cls-7"><path class="cls-6" d="M124.19,447.2c1.46-2.25-.15-7.54-2.64-8.53-3.26-1.31-6.12,1.5-6.82,3.72-.6,1.91,1.06,5.05,2.79,6.05S123.09,448.91,124.19,447.2Z" transform="translate(0 3.17)"/><path class="cls-6" d="M105,446.09c1.46-2.25-.15-7.53-2.63-8.53-3.26-1.31-6.13,1.5-6.83,3.72-.6,1.91,1.06,5.06,2.79,6.05S103.87,447.8,105,446.09Z" transform="translate(0 3.17)"/></g></g></g><g id="brazo_izq" data-name="brazo izq"><g id="brazo_izq-2" data-name="brazo izq"><path class="cls-8" d="M208.75,226.62c.85-7.44,5.59-10.62,8.05-10.61,3,0,56.06,5.85,57.09,5.39s32.22-43.62,32.53-44c6-6.93,9.42-11.64,11.86-13,3.81-2.09,15.92,4.11,21.1,8.56,4.32,3.71,8.75,9.91,9.9,16.19.38,2.08-6,11.28-12.07,16.44-5.23,4.48-48.23,39.63-55.77,41.74-7.15,2-64.79-8.37-68.4-10.59A11.41,11.41,0,0,1,208.75,226.62Z" transform="translate(0 3.17)"/><path d="M208.75,226.62c.85-7.44,5.42-11,8.05-11v.84c-2.29,0-7.2,2.75-8.05,10.19Z" transform="translate(0 3.17)"/><path class="cls-9" d="M216.8,215.59v.84" transform="translate(0 3.17)"/><path d="M212.82,237.13a12.25,12.25,0,0,1-4.07-10.51h0a10.59,10.59,0,0,0,4.51,9.8Z" transform="translate(0 3.17)"/><path class="cls-9" d="M212.82,237.13l.44-.71" transform="translate(0 3.17)"/></g><g id="manchas_bra_izq" data-name="manchas bra izq"><g class="cls-10"><path class="cls-5" d="M314.5,178.46c-.23-2.05,2.41-5,4.46-5.22,2.23-.19,6.23,2.66,5.69,4.84C323.93,181.05,315.06,183.55,314.5,178.46Z" transform="translate(0 3.17)"/></g><g class="cls-10"><path class="cls-5" d="M323,188.68c-.16-1.5,1.77-3.69,3.27-3.82s4.56,1.94,4.17,3.54C329.92,190.57,323.42,192.4,323,188.68Z" transform="translate(0 3.17)"/></g></g></g><g id="brazo_der" data-name="brazo der"><g id="brazo_der-2" data-name="brazo der"><path class="cls-8" d="M142.85,222.93c2.36-7.19-3.86-12.39-4.22-12.78-1.16-1.2-46.09-15.91-46.82-16.34-.92-.54-47.31-38.29-47.79-38.67-10.57-8.3-11.3-9-20.86-14.08-3.07-1.64-11.69,3.53-15.79,9.51C4,155.49-1.81,165.51,1.48,168.79A98.91,98.91,0,0,0,20.62,184.1c.33.21,53,31.16,59,33.54,4.67,1.85,50.34,14.4,53.32,13.6C133.67,231,140.77,229.25,142.85,222.93Z" transform="translate(0 3.17)"/><path d="M142.85,222.93c2.36-7.19-4.11-12.1-4.5-12.51l.55-.53c.34.36,6.31,5.85,3.95,13Z" transform="translate(0 3.17)"/><path class="cls-9" d="M138.35,210.42l.55-.53" transform="translate(0 3.17)"/><path d="M132.78,230.74c.77-.2,8-1.49,10.07-7.81h0c-2.08,6.32-9,8.6-9.8,8.8Z" transform="translate(0 3.17)"/><path class="cls-9" d="M132.78,230.74l.27,1" transform="translate(0 3.17)"/></g><g id="manchas_bra_der" data-name="manchas bra der"><g class="cls-11"><path class="cls-5" d="M31.91,154.17c-.05-2.06-3.07-4.67-5.12-4.57-2.24.1-5.82,3.47-5,5.55C22.91,158,32,159.29,31.91,154.17Z" transform="translate(0 3.17)"/></g><g class="cls-11"><path class="cls-5" d="M24.84,165.43c0-1.5-2.24-3.41-3.75-3.34s-4.26,2.54-3.66,4.06C18.25,168.24,24.93,169.18,24.84,165.43Z" transform="translate(0 3.17)"/></g></g></g><g id="cuerpo"><g id="cuerpo-2" data-name="cuerpo"><path class="cls-12" d="M179.48,167.59c-15.35-.51-33.57,9.35-44.37,19-4.51,4-8.44,11.44-10.84,17-1.15,2.67-8,33-9.79,47.43-1.85,15-3.84,35.36-2,50.37,1.21,10,7.67,23.93,15,28.92,9.6,6.54,31.18,14.26,45.5,14.49,12.69.2,29.17-3.64,40.77-11.24,12.62-8.27,18.35-15.39,21.09-25.19,6.07-21.64,3.57-45.09,3.19-57-.48-14.72-5.36-39.25-7.47-46.6-1.52-5.31-4.12-11.31-7.55-15C213,179.1,195,168.1,179.48,167.59Z" transform="translate(0 3.17)"/><path class="cls-13" d="M179.3,172.58c-14.56-.58-31.94,8.8-42.09,18-4.36,4-8,11.29-10.24,16.77-1.09,2.63-7.69,32.33-9.4,46.45-1.77,14.67-3.73,34.54-2,49.21,1.15,9.74,7.36,23.37,14.48,28.27,9,6.23,29.33,13.89,42.87,14.1,12,.2,27.6-3.68,38.5-11,12.17-8.16,17.57-15.19,20.15-24.71,5.73-21.14,3.26-44,2.9-55.58-.45-14.33-5-38.22-7-45.38-1.43-5.12-3.89-10.91-7.17-14.48C210.9,184,194.05,173.18,179.3,172.58Z" transform="translate(0 3.17)"/></g><g id="detalle"><g class="cls-14"><path class="cls-15" d="M134,200.15c-4.65,15.15-5.83,19.35-7.44,27.85-3.61,19-7.12,45.8-6.56,64.22.38,12.67,4.45,26.11,13.44,35.71,8.65,9.25,26.42,15.49,39.07,16s30.63-4.58,40.15-12.91c9.8-8.57,17.83-26.21,18.59-39.2,1-17,1-40.57-2.51-61.44-2.41-14.32-6.37-27.24-12.5-36.68-7.43-11.44-21.83-26.32-35.07-26.84C163.89,166.17,138.66,185.07,134,200.15Z" transform="translate(0 3.17)"/></g><g class="cls-14"><path d="M134.49,200.29c-4.65,15.15-6,19.27-7.64,27.75l-.51-.09c1.61-8.5,2.58-12.79,7.23-27.94Z" transform="translate(0 3.17)"/></g><g class="cls-14"><path d="M126.85,228c-3.62,19-7,45.79-6.41,64.17l-.83,0c-.55-18.46,3.11-45.25,6.73-64.28Z" transform="translate(0 3.17)"/></g><g class="cls-14"><path class="cls-9" d="M126.85,228l-.51-.09" transform="translate(0 3.17)"/></g><g class="cls-14"><path d="M120.44,292.21c.37,12.61,4.46,25.88,13.38,35.4l-.7.65c-9.06-9.7-13.12-23.3-13.51-36Z" transform="translate(0 3.17)"/></g><g class="cls-14"><path class="cls-9" d="M120.44,292.21l-.83,0" transform="translate(0 3.17)"/></g><g class="cls-14"><path d="M133.82,327.61c8.54,9.16,26.17,15.34,38.74,15.82l0,1c-12.74-.5-30.65-6.79-39.4-16.13Z" transform="translate(0 3.17)"/></g><g class="cls-14"><path class="cls-9" d="M133.82,327.61l-.7.65" transform="translate(0 3.17)"/></g><g class="cls-14"><path d="M172.56,343.43c12.55.49,30.39-4.54,39.82-12.8l.63.73c-9.63,8.4-27.76,13.51-40.49,13Z" transform="translate(0 3.17)"/></g><g class="cls-14"><path class="cls-9" d="M172.56,343.43l0,1" transform="translate(0 3.17)"/></g><g class="cls-14"><path d="M212.38,330.63c9.71-8.47,17.84-25.93,18.59-38.85l.63,0c-.77,13.06-8.71,30.88-18.59,39.54Z" transform="translate(0 3.17)"/></g><g class="cls-14"><path class="cls-9" d="M212.38,330.63l.63.73" transform="translate(0 3.17)"/></g><g class="cls-14"><path d="M231,291.78c1-17,1-40.53-2.46-61.37l.51-.09c3.51,20.89,3.58,44.45,2.58,61.5Z" transform="translate(0 3.17)"/></g><g class="cls-14"><path class="cls-9" d="M231,291.78l.63,0" transform="translate(0 3.17)"/></g><g class="cls-14"><path d="M228.51,230.41c-2.4-14.31-6.54-27.09-12.64-36.46l.8-.53c6.17,9.51,9.94,22.56,12.35,36.9Z" transform="translate(0 3.17)"/></g><g class="cls-14"><path class="cls-9" d="M228.51,230.41l.51-.09" transform="translate(0 3.17)"/></g><g class="cls-14"><path d="M215.87,194c-7.4-11.4-21.66-26.17-34.68-26.63l0-1c13.46.58,28,15.58,35.45,27.06Z" transform="translate(0 3.17)"/></g><g class="cls-14"><path class="cls-9" d="M215.87,194l.8-.53" transform="translate(0 3.17)"/></g><g class="cls-14"><path d="M181.19,167.32c-17.11-.71-42.16,18.07-46.7,33l-.92-.28c4.73-15.26,30.13-34.28,47.65-33.65Z" transform="translate(0 3.17)"/></g><g class="cls-14"><path class="cls-9" d="M181.19,167.32l0-1" transform="translate(0 3.17)"/></g><g class="cls-14"><path d="M120.14,291.61c.1,0,25.91,8.86,53.61,9.16l0,1.67c-28-.32-53.9-9.63-53.82-9.61Z" transform="translate(0 3.17)"/></g><g class="cls-14"><path d="M173.75,300.77c29.68.34,57.36-9.42,57.45-9.44l.16.94c.08,0-27.65,10.49-57.63,10.17Z" transform="translate(0 3.17)"/></g><g class="cls-14"><path class="cls-9" d="M173.75,300.77l0,1.67" transform="translate(0 3.17)"/></g><g class="cls-14"><path d="M230.81,291.77c1-17,1.07-40.51-2.43-61.34l.77-.13c3.51,20.9,3.61,44.47,2.61,61.53Z" transform="translate(0 3.17)"/></g><g class="cls-14"><path class="cls-9" d="M230.81,291.77l.95.06" transform="translate(0 3.17)"/></g><g class="cls-14"><path d="M228.87,231.25A231.57,231.57,0,0,1,178.75,237v-.78a197.7,197.7,0,0,0,49.9-6.73Z" transform="translate(0 3.17)"/></g><g class="cls-14"><path class="cls-9" d="M228.87,231.25l-.21-1.77" transform="translate(0 3.17)"/></g><g class="cls-14"><path d="M178.75,237a185.51,185.51,0,0,1-52.29-8.11l.26-1.77a165.1,165.1,0,0,0,52,9.1Z" transform="translate(0 3.17)"/></g><g class="cls-14"><path class="cls-9" d="M178.75,237v-.78" transform="translate(0 3.17)"/></g><g class="cls-14"><path d="M127,228.07c-3.61,19-6.88,45.77-6.32,64.13l-1.24,0c-.56-18.48,3.18-45.28,6.8-64.32Z" transform="translate(0 3.17)"/></g><g class="cls-14"><path class="cls-9" d="M127,228.07l-.76-.15" transform="translate(0 3.17)"/></g><g class="cls-14"><path d="M120.65,292.2C121,304.78,125.11,318,134,327.44l-1.05,1c-9.09-9.75-13.14-23.44-13.53-36.19Z" transform="translate(0 3.17)"/></g><g class="cls-14"><path class="cls-9" d="M120.65,292.2l-1.24,0" transform="translate(0 3.17)"/></g><g class="cls-14"><path d="M134,327.44c8.49,9.12,26,15.28,38.58,15.75l-.06,1.44c-12.78-.5-30.76-6.82-39.57-16.2Z" transform="translate(0 3.17)"/></g><g class="cls-14"><path class="cls-9" d="M134,327.44l-1.05,1" transform="translate(0 3.17)"/></g><g class="cls-14"><path d="M172.57,343.19c12.51.49,30.28-4.51,39.65-12.74l.95,1.09c-9.69,8.43-27.88,13.57-40.66,13.09Z" transform="translate(0 3.17)"/></g><g class="cls-14"><path class="cls-9" d="M172.57,343.19l-.06,1.44" transform="translate(0 3.17)"/></g><g class="cls-14"><path d="M212.22,330.45c9.68-8.42,17.84-25.79,18.59-38.68l.95.06c-.78,13.09-8.67,31-18.59,39.71Z" transform="translate(0 3.17)"/></g><g class="cls-14"><path class="cls-9" d="M212.22,330.45l.95,1.09" transform="translate(0 3.17)"/></g><g class="cls-14"><path d="M181.18,167.56c-17-.73-42,18-46.46,32.8l-1.38-.42c4.78-15.34,30.27-34.44,47.89-33.82Z" transform="translate(0 3.17)"/></g><g class="cls-14"><path class="cls-9" d="M181.18,167.56l0-1.44" transform="translate(0 3.17)"/></g><g class="cls-14"><path d="M134.72,200.36c-4.65,15.15-6.14,19.22-7.75,27.71l-.76-.15c1.61-8.5,2.47-12.83,7.13-28Z" transform="translate(0 3.17)"/></g><g class="cls-14"><path class="cls-9" d="M134.72,200.36l-1.38-.42" transform="translate(0 3.17)"/></g><g class="cls-14"><path d="M215.67,194.08c-7.39-11.38-21.58-26.09-34.49-26.52l0-1.44c13.56.6,28.17,15.66,35.65,27.17Z" transform="translate(0 3.17)"/></g><g class="cls-14"><path class="cls-9" d="M215.67,194.08l1.21-.79" transform="translate(0 3.17)"/></g><g class="cls-14"><path d="M228.38,230.43c-2.4-14.3-6.63-27-12.71-36.35l1.21-.79c6.18,9.54,9.86,22.66,12.27,37Z" transform="translate(0 3.17)"/></g><g class="cls-14"><path class="cls-9" d="M228.38,230.43l.77-.13" transform="translate(0 3.17)"/></g></g></g><g id="cabeza"><g id="cabeza-2" data-name="cabeza"><path class="cls-3" d="M178.81.53c35.15.64,75.42,10.79,98,41,22.8,30.58,20.71,74.2,11.77,104.44-3.75,12.67-14.75,30.15-22.67,36.25-11.21,8.63-31.14,15.25-45.5,18.59-12.19,2.84-30.52,3-41.6,3.11-19.72.14-40.87,1.77-57.61-2.59-9.35-2.43-22.1-8.21-29.12-13.74C81.6,179.4,68,159.23,62.85,143.21c-9.17-28.67-10.48-69,12.2-99.6C97.91,12.78,140.29-.18,178.81.53Z" transform="translate(0 3.17)"/></g><g id="cara_manchas" data-name="cara manchas"><g class="cls-16"><path class="cls-5" d="M161.28,6.37c1-6.06,12.26-9.45,18.38-9,7.21.54,20.08,6.87,19.56,14.08-.5,6.92-13.46,11.78-20.34,11C172.52,21.65,160.11,13.42,161.28,6.37Z" transform="translate(0 3.17)"/></g><g class="cls-16"><path class="cls-5" d="M215.7,12.07c-1.51.6-3.59,4.56-3.27,6.16.47,2.32,5.93,6.38,8.25,5.89,2.12-.45,5.52-5.83,4.85-7.86C224.81,14.07,218,11.15,215.7,12.07Z" transform="translate(0 3.17)"/></g></g><g id="boca"><g id="boca-2" data-name="boca"><path class="cls-17" d="M106.75,166.42c8.13.69,21.43,2.57,31.74,3.15,12.86.35,32.84,0,38.71,0s30.26.17,39.3-.42c8.14-.53,21.62-2.86,34.94-3.76,3-.21,12.79-.77,13-.45.34.48-7.08,18-12.62,23.06-7.21,6.6-22,10.07-31,12.43-11.9,3.11-33.63,5.06-45.07,4.91-12.24-.16-33.56-1.52-47.54-6.27-9.07-3.09-20.48-7.65-27.93-14.65-5.41-5.09-12.47-19-12.43-19S101.91,166,106.75,166.42Z" transform="translate(0 3.17)"/></g><g id="lengua"><g class="cls-18"><path class="cls-19" d="M122,189.11c-.29-7.51,12-13.24,18.74-16.65,9.22-4.7,23.49-6.4,33.83-6.77,12.91-.47,31.56-.86,42.68,5.72C223,174.8,232,182,231.29,188.58c-.92,9.14-16.27,14.8-25,17.7-17.63,5.88-44.44,5.25-61.94-1C136.57,202.45,122.3,197.38,122,189.11Z" transform="translate(0 3.17)"/></g></g><g id="dientes"><g class="cls-20"><path class="cls-21" d="M58.58,90.27c3.14,4.37,69.78,6.4,116.49,5.93S291.5,88.05,291.56,88s-2.56-38.6-12.85-50.3C256.86,12.82,206.34,6.1,173.27,5.41,139.94,4.71,86.63,7.5,65.74,33.49,55,46.87,57,88.13,58.58,90.27Z" transform="translate(0 3.17)"/></g><g class="cls-22"><path class="cls-21" d="M295.31,174.36c-4-4-71.32,27.19-120.23,27-47.44-.13-116.41-26.83-116.49-26.75S54.84,240.11,71.44,260c21.22,25.38,72.37,31.56,105.44,32.25,33.33.7,85.94-2.67,107.52-28.08C302,243.45,298.27,177.28,295.31,174.36Z" transform="translate(0 3.17)"/></g></g></g><g id="ojos"><g id="ojos-2" data-name="ojos"><path class="cls-23" d="M82.8,129.66a45.44,45.44,0,0,1-2.68-19.19C82,92.19,97.93,65.13,122.25,66.66c20.46,1.3,27.12,12.84,32.92,23.72,3.44,6.46,4.84,16.67,4.57,24a55.56,55.56,0,0,1-5.2,19.89c-3.76,7.41-14.21,14.46-22.27,16.45-11.77,2.91-29.09,3-39.73-7.37A42.27,42.27,0,0,1,82.8,129.66Z" transform="translate(0 3.17)"/><path d="M79.73,110.43c1.88-18.38,17.59-46.26,42.59-44.9l-.14,2.26c-23.65-1.7-39.85,24.54-41.68,42.72Z" transform="translate(0 3.17)"/><path class="cls-9" d="M79.73,110.43l.77.08" transform="translate(0 3.17)"/><path d="M122.32,65.53c20.88,1.4,28,13.42,33.83,24.32l-2,1.05c-5.78-10.86-12-21.92-32-23.11Z" transform="translate(0 3.17)"/><path class="cls-9" d="M122.32,65.53l-.14,2.26" transform="translate(0 3.17)"/><path d="M156.15,89.85c3.53,6.68,4.14,17.18,3.86,24.53l-.55,0c.27-7.29-1.92-17.2-5.28-23.46Z" transform="translate(0 3.17)"/><path class="cls-9" d="M156.15,89.85l-2,1.05" transform="translate(0 3.17)"/><path d="M154.8,134.4c-3.81,7.48-14.28,14.71-22.43,16.73l-.2-.84c8-2,18.4-8.83,22.11-16.16Z" transform="translate(0 3.17)"/><path class="cls-9" d="M154.8,134.4l-.52-.27" transform="translate(0 3.17)"/><path d="M132.37,151.13c-11.82,2.93-29.42,3.21-40.29-7.32l.93-.95c10.4,10.23,27.45,10.33,39.16,7.43Z" transform="translate(0 3.17)"/><path class="cls-9" d="M132.37,151.13l-.2-.84" transform="translate(0 3.17)"/><path d="M92.08,143.81a42.16,42.16,0,0,1-9.49-14.07l.43-.17c1.86,4.64,5.73,9.14,10,13.29Z" transform="translate(0 3.17)"/><path class="cls-9" d="M92.08,143.81l.93-.95" transform="translate(0 3.17)"/><path class="cls-23" d="M267.67,130.27a55.29,55.29,0,0,0,1.53-19.83c-2.52-18.14-10.9-45.73-42.08-43.53-15.66,1.11-21.55,8.47-26.2,16.68s-4.78,21.71-4.5,31.14c.18,6.13,1.58,14.74,3.83,20.07,2.81,6.67,11.31,13.58,18.17,15.91,11.93,4,31.36,6.67,41.72-4.78C264.3,141.33,266.31,135.3,267.67,130.27Z" transform="translate(0 3.17)"/><path d="M268.82,110.49C266.31,92.39,257.68,65.66,227.2,68L227,65.78c31.87-2,40,26.43,42.55,44.61Z" transform="translate(0 3.17)"/><path class="cls-9" d="M268.82,110.49l.77-.1" transform="translate(0 3.17)"/><path d="M227.2,68c-15.33,1-20.7,8-25.31,16.1L199.94,83C204.65,74.76,211,67,227,65.78Z" transform="translate(0 3.17)"/><path class="cls-9" d="M227.2,68,227,65.78" transform="translate(0 3.17)"/><path d="M201.89,84.14c-4.54,7.9-5.48,21.16-5.19,30.58l-.56,0c-.28-9.44-1-23.18,3.8-31.7Z" transform="translate(0 3.17)"/><path class="cls-9" d="M201.89,84.14,199.94,83" transform="translate(0 3.17)"/><path d="M200.52,134.68c2.77,6.61,11.26,13.33,18,15.61l-.28.83c-6.95-2.36-15.44-9.46-18.3-16.21Z" transform="translate(0 3.17)"/><path class="cls-9" d="M200.52,134.68l-.54.23" transform="translate(0 3.17)"/><path d="M218.56,150.29c11.88,4,31,6.45,41.08-4.81l1,.89c-10.66,11.65-30.37,8.8-42.35,4.75Z" transform="translate(0 3.17)"/><path class="cls-9" d="M218.56,150.29l-.28.83" transform="translate(0 3.17)"/><path d="M259.64,145.48c4.08-4.49,6.44-10.25,7.81-15.27l.45.12c-1.37,5-3,11.33-7.27,16Z" transform="translate(0 3.17)"/><path class="cls-9" d="M259.64,145.48l1,.89" transform="translate(0 3.17)"/></g><g id="pupilas"><path class="cls-24" d="M137.89,101.07c3.81,0,7.15,3.87,7.15,9.14s-3.34,9.15-7.14,9.15-7.15-3.88-7.15-9.15S134.08,101.07,137.89,101.07Z" transform="translate(0 3.17)"/><path class="cls-24" d="M214.65,101c3.67,0,6.63,4.1,6.63,9.18s-3,9.18-6.63,9.18-6.64-4.1-6.64-9.18S211,101,214.65,101Z" transform="translate(0 3.17)"/></g></g><g id="cejas"><g class="cls-16"><path class="cls-25" d="M88,46.72S105,40.64,120,40.2c15.58-.46,33.71,4.87,33.71,4.87" transform="translate(0 3.17)"/></g><g class="cls-16"><path class="cls-25" d="M260.93,45.72S242.6,41.31,229.72,41C216.3,40.63,197,44.27,197,44.27" transform="translate(0 3.17)"/></g></g></g></g><rect class="cls-26" x="273.53" y="189.74" width="96.05" height="16.92" transform="translate(56.06 470.06) rotate(-76.99)"/><rect class="cls-27" x="270.39" y="192.35" width="96.05" height="9.19" transform="translate(54.84 466.02) rotate(-76.99)"/><path class="cls-28" d="M319.49,247.57l-11.44,14.79a1.26,1.26,0,0,1-1.68.45,1.31,1.31,0,0,1-.56-.78l-3.92-18.5Z" transform="translate(0 3.17)"/><path d="M305,258.33l.78,3.58a1.12,1.12,0,0,0,1.46.9,1.24,1.24,0,0,0,.78-.56l2.25-2.8Z" transform="translate(0 3.17)"/><path class="cls-29" d="M337.08,140.86l-3.25-.67c-4.48-1-8.51,2.47-9.08,4.71h0c-.56,2.24-.56,4.26,1.8,4.82l11.65,2.69c2.25.56,3-1.23,3.48-3.59h0C342.35,146.58,340.56,141.65,337.08,140.86Z" transform="translate(0 3.17)"/><path class="cls-30" d="M323.52,147.36l18.61,4.26a.86.86,0,0,1,.56.79l-1.57,7a.85.85,0,0,1-.79.56l-18.6-4.26a.84.84,0,0,1-.56-.79l1.57-6.94A.57.57,0,0,1,323.52,147.36Z" transform="translate(0 3.17)"/></g></g></svg>