<svg xmlns="http://www.w3.org/2000/svg" xmlns:xlink="http://www.w3.org/1999/xlink" viewBox="0 0 96.06 120"><defs><style>.cls-1,.cls-11{fill:none;}.cls-10,.cls-11,.cls-2,.cls-4,.cls-6,.cls-7,.cls-8,.cls-9{stroke:#000;stroke-miterlimit:10;}.cls-10,.cls-11,.cls-2,.cls-4,.cls-6,.cls-7,.cls-8{stroke-linecap:round;}.cls-10,.cls-2,.cls-4,.cls-6,.cls-7,.cls-8,.cls-9{stroke-width:0.5px;}.cls-2{fill:url(#linear-gradient);}.cls-3{fill:url(#linear-gradient-2);}.cls-4{fill:url(#linear-gradient-3);}.cls-5{fill:url(#linear-gradient-4);}.cls-6{fill:url(#linear-gradient-5);}.cls-7{fill:url(#linear-gradient-6);}.cls-8{fill:url(#linear-gradient-7);}.cls-9{fill:#fff;}.cls-10{fill:url(#linear-gradient-8);}</style><linearGradient id="linear-gradient" x1="-4905.05" y1="183.69" x2="-4926.02" y2="-15.45" gradientTransform="translate(4985.01)" gradientUnits="userSpaceOnUse"><stop offset="0" stop-color="#91298c"/><stop offset="0.37" stop-color="#2e378e"/><stop offset="1" stop-color="#2babe2"/></linearGradient><linearGradient id="linear-gradient-2" x1="-4914.29" y1="185.52" x2="-4935.43" y2="-15.31" xlink:href="#linear-gradient"/><linearGradient id="linear-gradient-3" x1="-4925.27" y1="185.82" x2="-4946.23" y2="-13.32" xlink:href="#linear-gradient"/><linearGradient id="linear-gradient-4" x1="-4933.46" y1="187.92" x2="-4954.72" y2="-13.99" xlink:href="#linear-gradient"/><linearGradient id="linear-gradient-5" x1="-4900.36" y1="183.2" x2="-4921.32" y2="-15.95" xlink:href="#linear-gradient"/><linearGradient id="linear-gradient-6" x1="-4903.96" y1="183.58" x2="-4924.92" y2="-15.57" xlink:href="#linear-gradient"/><linearGradient id="linear-gradient-7" x1="-4912.93" y1="184.52" x2="-4933.89" y2="-14.62" xlink:href="#linear-gradient"/><linearGradient id="linear-gradient-8" x1="-4934.26" y1="189.43" x2="-4955.61" y2="-13.35" xlink:href="#linear-gradient"/></defs><title>Mistake feedback_camaleon5</title><g id="Layer_2" data-name="Layer 2"><g id="Layer_1-2" data-name="Layer 1"><rect class="cls-1" width="96.06" height="120"/><path class="cls-2" d="M58.58,88.32c2.23-1.63,24.81,10.87,26,14.89s-1.37,6.44-7.69,3C69.8,102.31,51.42,93.56,58.58,88.32Z"/><path class="cls-3" d="M46.75,120H80.89a59.36,59.36,0,0,0-3.23-8.84C67.71,88.1,56.6,84.65,51.2,85.74c-10.83,2.18-5.68,14.59-4.63,20.09A49.74,49.74,0,0,1,46.75,120Z"/><path d="M46.32,105.88A48.69,48.69,0,0,1,46.5,120H47a48.65,48.65,0,0,0-.19-14.22c-.15-.83-.41-1.83-.68-2.88-1.07-4.21-2.53-10-.23-13.62A7.71,7.71,0,0,1,51.25,86c2.35-.47,14.63-1.48,26.18,25.27A59.63,59.63,0,0,1,80.64,120h.51a60.26,60.26,0,0,0-3.26-8.94C66.19,84,53.57,85,51.15,85.5A8.27,8.27,0,0,0,45.47,89c-2.41,3.83-.91,9.71.18,14C45.92,104.07,46.17,105.06,46.32,105.88Z"/><path class="cls-4" d="M22.64,4.33c2.53-.24,17.2,6.12,25.68,8.39s24.89,2.1,32,20.79C83.6,43,82.86,51.76,86,54.73S97.3,62,91.6,72.66,71.94,92.51,57.27,96.44,19.73,98.8,11.94,95,.67,85.57,3.42,78.88,8,67.68,6.83,60.48s-5.57-16-2.89-21.23,14.42-5.87,16-15.74S19.11,9.8,19,8.36,20.6,4.53,22.64,4.33Z"/><path class="cls-5" d="M56.89,120c.12-.3-.18-1-.34-1.42-1-3.08-7.34-1.18-8.32-1.57s-8.39-6.55-8.06-7.27,7.34-6.75,8.91-7.86l-3.6-3.54c-5.83,3.34-14.87,8.71-14.68,11.73.16,2.38,7.93,7.86,11.06,9.93Z"/><path d="M39.94,109.64a.48.48,0,0,0,0,.37c.52,1.3,7.12,6.81,8.18,7.23a5.32,5.32,0,0,0,2,0c2.19-.23,5.5-.57,6.19,1.45.15.44.45,1.07.3,1.34h.53c.12-.35-.2-1-.35-1.5-.82-2.4-4.37-2-6.72-1.79a6.55,6.55,0,0,1-1.75.07c-1.08-.44-7.8-6.16-7.92-6.94.29-.62,7.07-6.52,8.83-7.76a.25.25,0,1,0-.29-.41C47.45,102.72,40.31,108.83,39.94,109.64Z"/><path d="M42.31,120c-5.24-3.44-11.13-8.06-11.26-10-.2-3,10.52-9.18,14.55-11.49a.25.25,0,0,0-.25-.44c-7.42,4.26-15,9-14.8,12,.16,2.39,7.23,7.5,10.85,9.92Z"/><path class="cls-6" d="M60.72,27.48c.26-1.31,1.75-6.46,6.64-6.55,5.14-.09,8.21,4.37,8.21,4.37"/><path class="cls-7" d="M75.09,79.28c-.56.17,3.9-5.54,1.7-7.21C73.52,69.58,70,75.87,68,82c-1.05,1-7.62.17-9.17,3.14s-.39,4.59,9.43,4.72c2.1.39,4.2,6.94,10.75,17.16,2.23,2.1,7.07.26,6.29-2.62s-10-16.11-9.44-18.08,6.16-1.18,6.69-5S77.58,78.49,75.09,79.28Z"/><path class="cls-8" d="M55.57,84.12c1.18-1.31,4.32-5,6.81-5.24s4.72,1.84,4.72,1.84"/><path class="cls-9" d="M35.52,44.56c2.89-.82,13.56-2.58,14.67,7.92,1.05,9.81-4.67,10.82-12.92,12-5,.74-11.84.54-13.67-6.08S26.22,47.18,35.52,44.56Z"/><path class="cls-10" d="M19.67,44.82c3.8,1.31,11.28,4.25,19.52,2.62S51,41,51,41"/><path class="cls-9" d="M69.58,31.72c3.83-1,10.55,3,12.84,11.92s.07,14-3.73,15.66S68,59.1,64.61,51.11,63.3,33.42,69.58,31.72Z"/><ellipse cx="72.07" cy="48.1" rx="2.36" ry="4.04" transform="translate(-10.38 21.46) rotate(-15.81)"/><ellipse cx="47.26" cy="55.18" rx="2.36" ry="4.04" transform="translate(-6.42 6.22) rotate(-7.06)"/><path class="cls-11" d="M59.5,67.18a5.39,5.39,0,0,1,2.88,1.22"/><path class="cls-11" d="M68.19,64a10.72,10.72,0,0,0-.48,3"/></g></g></svg>