<svg xmlns="http://www.w3.org/2000/svg" xmlns:xlink="http://www.w3.org/1999/xlink" viewBox="0 0 136.87 120.01"><defs><style>.cls-1,.cls-2{fill:none;}.cls-1,.cls-11,.cls-12,.cls-13,.cls-5,.cls-7,.cls-9{stroke:#000;stroke-miterlimit:10;}.cls-1,.cls-11,.cls-12,.cls-13,.cls-15,.cls-5,.cls-7,.cls-9{stroke-linecap:round;}.cls-1,.cls-12,.cls-5,.cls-9{stroke-width:0.25px;}.cls-3{fill:#317043;}.cls-4{fill:#568c64;}.cls-13,.cls-14,.cls-5{fill:#45adb0;}.cls-12,.cls-6{fill:#d0a26e;}.cls-7{fill:#fff;}.cls-11,.cls-7{stroke-width:0.5px;}.cls-8{clip-path:url(#clip-path);}.cls-9{fill:#7e2d3a;}.cls-10{fill:#fea49c;}.cls-11{fill:#316b6f;}.cls-13{stroke-width:0.75px;}.cls-15{fill:#a0dbf0;stroke:#4a91cd;stroke-linejoin:round;}</style><clipPath id="clip-path"><path class="cls-1" d="M88.33,61.67c-4,.19-10.75-4.37-12.37-3C62.8,70.33,42.41,68.47,37.44,68.38c-5.42-.1-11.22-.71-11.89,1.28-1.42,4.26,6.61,9.48,15.12,10.85s14.84,2.18,23.59,0C76.5,77.45,79.2,74.32,82.81,70.9,87.85,66.13,90.33,61.58,88.33,61.67Z"/></clipPath></defs><title>Correct feedbacK_tortuga</title><g id="Layer_2" data-name="Layer 2"><g id="Layer_1-2" data-name="Layer 1"><rect class="cls-2" width="136.87" height="120"/><path class="cls-3" d="M89.52,120C86.74,98.09,65,75.88,58,76.11,30.66,77,31.68,101.67,33.09,120Z"/><path d="M33.22,120c-1-13.6-1.45-28,6.07-36.37C43.44,79,49.73,76.52,58,76.24h.12c3.63,0,10.83,5.64,17.2,13.5C83,99.25,88.19,110.53,89.4,120h.25c-1.21-9.53-6.39-20.87-14.14-30.43C69.09,81.67,61.81,76,58.1,76H58c-8.34.28-14.69,2.8-18.89,7.49C31.52,92,31.92,106.37,33,120Z"/><path class="cls-4" d="M92.53,120C89.93,98,69,75.73,62.24,76c-26.3.92-25.24,25.68-23.88,44Z"/><path d="M38.48,120c-.82-11-2-27.77,6.09-36.82,4-4.44,9.92-6.82,17.68-7.09h.11c3.49,0,10.42,5.67,16.55,13.56,7.42,9.55,12.37,20.86,13.5,30.36h.25c-1.13-9.55-6.1-20.92-13.55-30.52-6.24-8-13.33-13.76-16.87-13.64-7.83.27-13.83,2.68-17.86,7.17-8.17,9.13-7,26-6.15,37Z"/><path class="cls-5" d="M72.49,85.85c1.56.45,13.54,3.33,25,1.06s33.87-24.35,37-29.94-9.3-15.55-15.44-14.24c-4.71,1-11.65,20.59-18.58,24.82S77.75,80.41,74.44,80,69.33,84.94,72.49,85.85Z"/><path class="cls-6" d="M96.47,120C94.15,97.81,72,75,64.84,75.26,37.08,76.19,38.56,101.58,40,120Z"/><path d="M40.13,120c-.92-11.74-2.16-28.09,6-37.22,4.15-4.64,10.44-7.13,18.71-7.41H65C72,75.38,94,97.9,96.35,120h.25c-1-9.64-6.13-21.18-14-31C76.12,80.94,68.73,75.13,65,75.13h-.12c-8.34.28-14.69,2.8-18.88,7.5-8.23,9.2-7,25.6-6.07,37.38Z"/><path class="cls-5" d="M50.44,4.56C63.9,3.91,96,3.63,103.85,31s4.18,45.05-23.22,52S33.26,87.23,17,79.79-17.36,7.81,50.44,4.56Z"/><path class="cls-7" d="M25.28,56c-5-7-6.89-23.5,8.53-27.5S53.19,46.84,52.18,52.11C50.43,61.19,37.47,72.84,25.28,56Z"/><path class="cls-7" d="M97.15,44.79c2.37-8.19-2.59-24.28-10.94-24.74C73.27,19.34,77.35,39.47,79,44.59,81.79,53.4,93.36,57.86,97.15,44.79Z"/><g class="cls-8"><path class="cls-9" d="M88.8,50.33c-3.32,2.2-12.06,12.13-24.64,15.14s-21.65,4-26.45,2.51-8.83.42-9.12,4.93S33,84.73,41.55,86.1s20.19,1,30.36-5S87.68,68.57,89,62.12,89.51,49.86,88.8,50.33Z"/><path class="cls-10" d="M75,57.32c4.27.53,11.72,4.12,13,8.41s-17,22-36.67,19.91S20.24,84.35,19.84,73.85,17.76,64.62,30.57,64,72.65,57,75,57.32Z"/></g><path class="cls-1" d="M88.33,61.67c-4,.19-10.75-4.37-12.37-3C62.8,70.33,42.41,68.47,37.44,68.38c-5.42-.1-11.22-.71-11.89,1.28-1.42,4.26,6.61,9.48,15.12,10.85s14.84,2.18,23.59,0C76.5,77.45,79.2,74.32,82.81,70.9,87.85,66.13,90.33,61.58,88.33,61.67Z"/><ellipse cx="92.08" cy="39.1" rx="2.57" ry="4.4" transform="translate(-4.61 13.45) rotate(-8.15)"/><ellipse cx="47.54" cy="49.08" rx="2.57" ry="4.4" transform="translate(-6.48 7.24) rotate(-8.15)"/><path class="cls-11" d="M128.12,55.14a2.37,2.37,0,0,0,2.49-2.43,3.44,3.44,0,0,0-3.09-2.82A3.33,3.33,0,0,0,125,53.36C125.33,54.86,126.19,55.07,128.12,55.14Z"/><path class="cls-11" d="M122.72,48.64a2.49,2.49,0,0,0,.38-2.46c-.46-.58-1.84-.32-2.25,0s-1,1.85-.51,2.33A2.23,2.23,0,0,0,122.72,48.64Z"/><path class="cls-12" d="M49.43,107.65c1.57-.86,15.69-5.28,21.83-6s12.84.15,16.26,2.29"/><path class="cls-13" d="M19.61,21c.64-1.36,3.5-7.56,8.85-9.2a18.54,18.54,0,0,1,10.77.43"/><path class="cls-13" d="M68.19,12.9c.78-1,4.3-5.45,8.65-5.7A14.71,14.71,0,0,1,85,9.55"/><path class="cls-14" d="M59.66,120c-5.82-3.36-22.07-8.29-22.36-8.87-.71-1.46,8.55-14.42,9.49-16.91.86-2.26.5-5.77-1.28-6.92-1.37-.87-2.14-1-5.57,1-3,1.74-20.11,20.83-21.11,29.58A7.9,7.9,0,0,0,19,120Z"/><path d="M19.12,120a8.35,8.35,0,0,1-.17-2.1C20,109.15,37.28,90,40,88.42c3.4-2,4.11-1.85,5.44-1,1.72,1.1,2.08,4.54,1.23,6.77A59.5,59.5,0,0,1,43,100.41c-3.65,5.75-6.21,9.89-5.77,10.78.12.25,1.44.7,5.52,2,5.2,1.72,12.94,4.68,16.69,6.78h.49c-3.61-2.16-11.71-5.24-17.1-7a49.9,49.9,0,0,1-5.38-1.9c-.4-.84,3.16-6.45,5.76-10.54a62.34,62.34,0,0,0,3.74-6.27c.87-2.32.48-5.91-1.34-7.07-1.39-.89-2.19-1-5.69,1C36.74,90,19.71,109,18.7,117.88a8.56,8.56,0,0,0,.18,2.13Z"/><path class="cls-15" d="M123.93,77.8s-3.07,8.74,5.95,11.35c0,0-11-4.19-13.85,1.95,0,0,.83-10.88-.93-11.72C115.1,79.38,122.44,79.57,123.93,77.8Z"/><path class="cls-15" d="M23.31,99s-6.93,5.32-7.09,7.41c0,0-6.29-9.18-9-9.66,0,0,7.09-1.29,7.9-4C15.09,92.71,16.06,97.38,23.31,99Z"/></g></g></svg>