<svg xmlns="http://www.w3.org/2000/svg" viewBox="0 0 294.37 318.5"><defs><style>.cls-1,.cls-7{fill:#45adb0;}.cls-1,.cls-2,.cls-3,.cls-4,.cls-5,.cls-6,.cls-7{stroke:#000;stroke-miterlimit:10;}.cls-1,.cls-2,.cls-3,.cls-4{stroke-width:0.5px;}.cls-2{fill:#317043;}.cls-3{fill:#568c64;}.cls-4{fill:#d0a26e;}.cls-5{fill:#fff;}.cls-6{fill:#316b6f;}.cls-7{stroke-linecap:round;stroke-width:0.75px;}</style></defs><title>Mistake feedback_Tortuga</title><g id="Layer_2" data-name="Layer 2"><g id="Layer_1-2" data-name="Layer 1"><path class="cls-1" d="M211,199.67c8.14-3.11,80.07,54.42,80.07,62.79s.52,31.92-61.23,5.24S200,203.85,211,199.67Z"/><path class="cls-2" d="M241.19,318.25c-7.07-60.67-67.3-121.33-86.73-120.68-75.73,2.55-72.52,70.1-68.59,120.68Z"/><path class="cls-3" d="M249.45,318.25c-6.57-60.8-64.6-121.72-83.28-121.07-72.89,2.55-69.6,70.45-65.82,121.07Z"/><path class="cls-4" d="M260.27,318.25c-5.75-61.44-67.29-123.69-87-123-76.91,2.58-72.4,72.22-68.41,123Z"/><path class="cls-1" d="M133.7.73c37-1.77,125.21-2.55,146.93,72.82s11.49,123.93-63.88,143.09-130.32,11.5-175-8.94S-52.82,9.67,133.7.73Z"/><path class="cls-5" d="M62.44,136.4c-14.4-22.46,8-40.61,27.92-42.18,43.69-3.45,50.21,21.72,46.57,36C130.65,154.92,83,168.53,62.44,136.4Z"/><path class="cls-5" d="M254.81,125.88c7.85-22.12-3.14-67.12-26-69.73C193.4,52.09,201.32,108,205,122.35,211.24,147,242.29,161.14,254.81,125.88Z"/><ellipse cx="241.84" cy="109.41" rx="7.07" ry="12.1" transform="translate(-8.23 20.4) rotate(-4.75)"/><ellipse cx="124.68" cy="123.8" rx="7.07" ry="12.1" transform="translate(-9.82 10.75) rotate(-4.75)"/><path class="cls-6" d="M141.77,42.67c2.78.1,11.19-6.67,10.8-11.18s-8.64-7.85-11.78-7.85-12,5.88-11,10S136.47,42.48,141.77,42.67Z"/><path class="cls-6" d="M170,25.52c1.07-.65,2.11-5.89.57-7.88S165,16.18,163.77,17s-2.64,5.73-1,7.39S168,26.75,170,25.52Z"/><path class="cls-4" d="M130.91,284.31c4.32-2.35,43.18-14.52,60.05-16.48s35.33.39,44.75,6.28"/><path class="cls-7" d="M50.65,85.69c3.85,3.4,21.15,19.07,44.71,17.73s44.12-14.17,44.12-14.17"/><path class="cls-7" d="M189.46,32.86s8.24-13.15,23-11.77,18.64,8.63,18.64,8.63"/><path class="cls-1" d="M160.67,318.25c-14.12-9.34-62.31-22.67-63.12-24.32-2-4,23.52-39.69,26.1-46.51,2.36-6.22,1.38-15.9-3.53-19-3.77-2.41-5.89-2.68-15.31,2.75-8.27,4.77-55.34,57.3-58.08,81.37a14.61,14.61,0,0,0,.5,5.75Z"/><path class="cls-1" d="M167,199.14c0-2.35,11.78-18.84,19.1-18.58,11,.4,20.41,5.5,23.29,13.61"/><path class="cls-1" d="M191.88,178.47c.34-6.55,45.41-19,60.7-13.6,17,6,28.79,59.65,38.73,84.25S282.41,281.56,272,280,190.31,208.3,191.88,178.47Z"/><path class="cls-6" d="M248.13,191c2,.09,5.24-2,5-6.13s-3.88-7.15-6.15-7.15-5.76,5-5.05,8.77S244.3,190.85,248.13,191Z"/><path class="cls-6" d="M228.16,186c.6-.36,1.16-3.31.29-4.44s-3.18-.84-3.83-.4-1.46,3.21-.54,4.15A3.77,3.77,0,0,0,228.16,186Z"/></g></g></svg>