<svg xmlns="http://www.w3.org/2000/svg" xmlns:xlink="http://www.w3.org/1999/xlink" viewBox="0 0 329.17 336.98"><defs><style>.cls-1{fill:none;}.cls-1,.cls-10,.cls-2,.cls-3,.cls-4,.cls-5,.cls-6,.cls-7,.cls-8{stroke:#000;stroke-miterlimit:10;}.cls-1,.cls-10,.cls-12,.cls-2,.cls-3,.cls-4,.cls-5,.cls-6,.cls-7,.cls-8{stroke-linecap:round;}.cls-1,.cls-2,.cls-3,.cls-4,.cls-5{stroke-width:0.5px;}.cls-2{fill:url(#linear-gradient);}.cls-3{fill:url(#linear-gradient-2);}.cls-4{fill:url(#linear-gradient-3);}.cls-5{fill:url(#linear-gradient-4);}.cls-6,.cls-7{stroke-width:0.75px;}.cls-6{fill:url(#linear-gradient-5);}.cls-7{fill:url(#linear-gradient-6);}.cls-8{fill:#fff;}.cls-9{clip-path:url(#clip-path);}.cls-10{fill:#7e2d3a;}.cls-11{fill:#fea49c;}.cls-12{fill:#a0dbf0;stroke:#4a91cd;stroke-linejoin:round;}</style><linearGradient id="linear-gradient" x1="867.48" y1="519.33" x2="898.62" y2="-62.71" gradientTransform="translate(-615.92)" gradientUnits="userSpaceOnUse"><stop offset="0.35" stop-color="#e6b821"/><stop offset="1" stop-color="#7fb541"/></linearGradient><linearGradient id="linear-gradient-2" x1="803.58" y1="515.91" x2="834.72" y2="-66.13" xlink:href="#linear-gradient"/><linearGradient id="linear-gradient-3" x1="754.69" y1="513.3" x2="785.83" y2="-68.74" xlink:href="#linear-gradient"/><linearGradient id="linear-gradient-4" x1="737.56" y1="512.38" x2="768.69" y2="-69.66" xlink:href="#linear-gradient"/><linearGradient id="linear-gradient-5" x1="716.09" y1="511.23" x2="747.23" y2="-70.81" xlink:href="#linear-gradient"/><linearGradient id="linear-gradient-6" x1="810.32" y1="516.27" x2="841.46" y2="-65.77" xlink:href="#linear-gradient"/><clipPath id="clip-path"><path class="cls-1" d="M243.22,198.79c-12,2.68-27.88,8.3-40.38,11.06-48.7,10.78-97.06-2.55-111-2.79-15.17-.27-25.68,3.19-27.54,8.78-4,11.91,21.73,31.82,45.57,35.65s41.51,6.12,66,0c34.23-8.56,41.78-17.3,51.9-26.88C241.88,211.26,248.68,197.58,243.22,198.79Z"/></clipPath></defs><title>Correct feedbacK_Camaleon2</title><g id="Layer_2" data-name="Layer 2"><g id="Layer_1-2" data-name="Layer 1"><path class="cls-2" d="M204.44,283.31c4-1.6,45.11-16.77,68.86-39.13s35.53-44.71,37.13-46.3,13,2.39,17.56-4.79-9.18-15.17-12.77-15.77c0,0,11.77-18.37,5-23s-16.77,14.37-16.77,14.37-17.76-11.37-22.75-4,10.57,19.76,10.57,19.76-32.73,62.88-85.62,81.24"/><path class="cls-3" d="M153.74,336.73h98c-1.28-3.58-2.72-7.23-4.33-11-30.34-70.26-64.19-80.76-80.64-77.44-33,6.65-17.3,44.44-14.11,61.21C154,316.61,154.32,326.32,153.74,336.73Z"/><path class="cls-4" d="M79.75.27C87.47-.47,132.18,18.9,158,25.82s75.85,6.39,97.4,63.34c10.12,28.88,7.85,55.62,17.43,64.67s34.4,22.09,17,54.63S230,268.93,185.28,280.91,70.9,288.1,47.15,276.52s-34.33-28.74-25.95-49.1,14-34.13,10.38-56.09-17-48.9-8.78-64.67,43.91-17.9,48.84-48S69,16.94,68.51,12.55,73.53.87,79.75.27Z"/><path class="cls-5" d="M149.35,286.7c-17.77,10.18-45.31,26.55-44.71,35.73.22,3.46,5.54,8.88,12.07,14.3h31.8c-7.28-6-16-13.92-15.33-15.3,1-2.2,22.36-20.56,27.15-23.95"/><path class="cls-6" d="M79.89,81.79C83,79,102.64,64.94,128.59,71.33c15.2,3.74,37.12,23.15,37.12,23.15"/><path class="cls-7" d="M195.79,70.8c.8-4,5.32-19.7,20.22-20,15.66-.28,25,13.3,25,13.3"/><path class="cls-8" d="M108,109.05c8.82-2.48,41.72-1.19,55.69,37.93s-17.24,50.42-32.54,52.69c-18.45,2.74-42.51-11-48.1-31.13S79.69,117,108,109.05Z"/><path class="cls-8" d="M222.8,83.7c11.65-3.15,32.14,9,39.12,36.33s.2,42.52-11.37,47.71-32.54-.6-42.92-25S203.64,88.89,222.8,83.7Z"/><ellipse cx="230.36" cy="133.62" rx="7.19" ry="12.31" transform="translate(-27.7 67.84) rotate(-15.81)"/><ellipse cx="148.93" cy="150.92" rx="7.19" ry="12.31" transform="translate(-35.49 46.3) rotate(-15.81)"/><g class="cls-9"><path class="cls-10" d="M244.54,167.06c-9.28,6.15-33.73,33.94-68.94,42.37s-60.57,11.15-74,7-24.71,1.2-25.53,13.79,12.44,33.09,36.28,36.92,56.49,2.79,84.93-13.92S241.4,218.09,245,200,246.52,165.75,244.54,167.06Z"/><path class="cls-11" d="M205.83,186.6c12,1.49,32.81,11.53,36.47,23.55s-47.71,61.48-102.61,55.71-87-3.63-88.09-33-5.82-25.81,30-27.61S199.35,185.79,205.83,186.6Z"/></g><path class="cls-1" d="M243.22,198.79c-12,2.68-27.88,8.3-40.38,11.06-48.7,10.78-97.06-2.55-111-2.79-15.17-.27-25.68,3.19-27.54,8.78-4,11.91,21.73,31.82,45.57,35.65s41.51,6.12,66,0c34.23-8.56,41.78-17.3,51.9-26.88C241.88,211.26,248.68,197.58,243.22,198.79Z"/><path class="cls-1" d="M192.06,191.76c1.33.13,6.92,1.33,8.78,3.72"/><path class="cls-1" d="M218.54,182c-.4.67-1.86,7.85-1.46,9.18"/><path class="cls-12" d="M309.06,282.69s-8.43,24,16.35,31.16c0,0-30.14-11.49-38.06,5.37,0,0,2.3-29.89-2.56-32.19C284.79,287,305,287.54,309.06,282.69Z"/><path class="cls-12" d="M44.77,288.14s-19,14.61-19.48,20.37C25.29,308.51,8,283.27.5,282c0,0,19.48-3.55,21.69-11.07C22.19,270.88,24.85,283.72,44.77,288.14Z"/><path class="cls-12" d="M309.06,282.69s-8.43,24,16.35,31.16c0,0-30.14-11.49-38.06,5.37,0,0,2.3-29.89-2.56-32.19C284.79,287,305,287.54,309.06,282.69Z"/><path class="cls-12" d="M44.77,288.14s-19,14.61-19.48,20.37C25.29,308.51,8,283.27.5,282c0,0,19.48-3.55,21.69-11.07C22.19,270.88,24.85,283.72,44.77,288.14Z"/></g></g></svg>