<svg xmlns="http://www.w3.org/2000/svg" viewBox="0 0 272.21 162.38"><defs><style>.cls-1{fill:#1f8ebe;}</style></defs><title>rectangulo lineas</title><g id="Capa_2" data-name="Capa 2"><g id="Capa_1-2" data-name="Capa 1"><path class="cls-1" d="M260.89,162.38H11.32A11.34,11.34,0,0,1,0,151.05V11.32A11.34,11.34,0,0,1,11.32,0H260.89a11.34,11.34,0,0,1,11.32,11.32V151.05A11.34,11.34,0,0,1,260.89,162.38ZM11.32,6A5.33,5.33,0,0,0,6,11.32V151.05a5.33,5.33,0,0,0,5.32,5.33H260.89a5.33,5.33,0,0,0,5.32-5.33V11.32A5.32,5.32,0,0,0,260.89,6Z"/></g></g></svg>