<svg xmlns="http://www.w3.org/2000/svg" xmlns:xlink="http://www.w3.org/1999/xlink" viewBox="0 0 411.4 511.71"><defs><style>.cls-1,.cls-2,.cls-24,.cls-8{fill:none;}.cls-2{clip-path:url(#clip-path);}.cls-3,.cls-7{fill:#45adb0;}.cls-11,.cls-12,.cls-16,.cls-18,.cls-20,.cls-23,.cls-24,.cls-3,.cls-30,.cls-5,.cls-7,.cls-8{stroke:#000;}.cls-11,.cls-12,.cls-16,.cls-18,.cls-20,.cls-23,.cls-24,.cls-3,.cls-30,.cls-5{stroke-linecap:round;}.cls-11,.cls-12,.cls-16,.cls-18,.cls-20,.cls-23,.cls-24,.cls-3,.cls-30,.cls-5,.cls-8{stroke-linejoin:round;}.cls-11,.cls-12,.cls-14,.cls-16,.cls-18,.cls-20,.cls-22,.cls-23,.cls-3,.cls-30,.cls-5,.cls-7{fill-rule:evenodd;}.cls-4{clip-path:url(#clip-path-48);}.cls-5{fill:#316b6f;}.cls-6{clip-path:url(#clip-path-50);}.cls-28,.cls-29,.cls-7{stroke-miterlimit:10;}.cls-9{clip-path:url(#clip-path-52);}.cls-10{clip-path:url(#clip-path-54);}.cls-11{fill:#317043;}.cls-12{fill:#568c64;}.cls-13{clip-path:url(#clip-path-56);}.cls-14{fill:#d0a26e;}.cls-15{clip-path:url(#clip-path-103);}.cls-16{fill:#7b2325;}.cls-17{clip-path:url(#clip-path-105);}.cls-18{fill:#f06b6b;}.cls-19{clip-path:url(#clip-path-106);}.cls-20,.cls-22{fill:#fff;}.cls-21{clip-path:url(#clip-path-107);}.cls-23{fill:#1c1c1c;}.cls-24{stroke-width:3px;}.cls-25{fill:#fcb042;stroke:#562f09;stroke-miterlimit:10;}.cls-26{fill:#ed9520;}.cls-27{fill:#fce8c8;}.cls-28{fill:#e44b86;stroke:#b53167;}.cls-29{fill:#a0a0b1;stroke:#71717f;}.cls-30{fill:#f1f2e4;}</style><clipPath id="clip-path"><path class="cls-1" d="M213.85,151.34c-20.41-.65-44.63,11.92-59,24.22-6,5.15-11.23,14.57-14.42,21.72-1.52,3.41-10.66,42.08-13,60.46-2.45,19.13-5.1,45.06-2.69,64.19,1.61,12.72,10.21,30.5,20,36.86,12.76,8.33,41.45,18.17,60.49,18.47,16.86.26,38.78-4.64,54.19-14.32,16.79-10.55,24.4-19.63,28-32.11,8.07-27.58,4.75-57.47,4.24-72.67-.63-18.76-7.12-50-9.92-59.38-2-6.77-5.48-14.42-10.05-19.11C258.41,166,234.51,152,213.85,151.34Z"/></clipPath><clipPath id="clip-path-48" transform="translate(0 2.68)"><path class="cls-1" d="M239.38,503.22s10.28,6.11,34.18,5.22c21.74-.8,24.93-1,30.39-6.92,5.9-6.44.34-23.52-2.45-26.12,0,0-8.87-32.58-13.67-46.36-8.68-24.93-28.35-75.78-33.58-82.08a17.89,17.89,0,0,0-17.53-6c-14.24,2.73-14.38,11.71-14.83,16.21-.75,7.57,7.59,54.81,10.68,77.66,2,14.9,5.82,35.4,6.76,50.67C239.66,490.81,239.36,503.2,239.38,503.22Z"/></clipPath><clipPath id="clip-path-50" transform="translate(0 2.68)"><path class="cls-1" d="M164.39,504.76c-1.53,1.25-9.31,4.5-30,3.15-24.82-1.63-29-1.41-34.54-8.61-5.39-7,6.18-26.56,6.19-26.58s10.08-33.78,15.3-48.07c8.55-23.43,27.64-71.16,32.23-77.25,1.57-2.08,10.29-14.46,25.8-10.21,14,3.84,11,16.89,11,18.32.16,7.17-11.3,50.9-15.83,72.74-3.43,16.53-9.77,38.47-10.93,55.19C163.14,489.83,166.74,502.84,164.39,504.76Z"/></clipPath><clipPath id="clip-path-52" transform="translate(0 2.68)"><path class="cls-1" d="M246.89,187.52c1-9.66,6.52-13.77,9.39-13.77,3.53,0,65.43,7.59,66.62,7s37.6-56.56,38-57c7-9,11-15.09,13.84-16.82,4.44-2.71,18.57,5.32,24.62,11.09,5,4.81,10.21,12.86,11.55,21,.45,2.7-7,14.62-14.08,21.33-6.1,5.8-56.29,51.39-65.08,54.13-8.34,2.6-75.61-10.86-79.82-13.75A15.3,15.3,0,0,1,246.89,187.52Z"/></clipPath><clipPath id="clip-path-54" transform="translate(0 2.68)"><path class="cls-1" d="M182.29,198.25c3-10.3-4.92-17.76-5.39-18.31-1.47-1.72-58.86-22.79-59.78-23.4-1.18-.77-60.43-54.83-61-55.37C42.58,89.28,41.64,88.34,29.43,81c-3.91-2.35-14.91,5-20.16,13.61-4.32,7-11.72,21.4-7.52,26.1A130.21,130.21,0,0,0,26.2,142.64c.42.31,67.65,44.62,75.32,48,6,2.65,64.29,20.63,68.09,19.48C170.58,209.84,179.64,207.29,182.29,198.25Z"/></clipPath><clipPath id="clip-path-56" transform="translate(0 2.68)"><path class="cls-2" d="M213.62,157.71c-19.37-.75-42.47,11.2-56,23-5.79,5.06-10.59,14.38-13.61,21.37-1.45,3.35-10.23,41.21-12.5,59.19-2.36,18.7-5,44-2.65,62.73,1.52,12.4,9.78,29.78,19.24,36,12,7.94,39,17.69,57,18,16,.25,36.68-4.69,51.17-14,16.18-10.4,23.36-19.35,26.79-31.49,7.62-26.95,4.33-56,3.85-70.84-.6-18.26-6.66-48.71-9.32-57.84-1.91-6.53-5.19-13.89-9.53-18.45C255.62,172.28,233.22,158.47,213.62,157.71Z"/></clipPath><clipPath id="clip-path-103" transform="translate(0 2.68)"><path class="cls-1" d="M212.26.52c29.75.55,63.83,9.14,82.92,34.75,19.3,25.88,17.53,62.8,10,88.39C302,134.39,292.66,149.18,286,154.35c-9.49,7.3-26.36,12.9-38.51,15.73-10.32,2.4-25.83,2.56-35.21,2.63-16.69.12-34.59,1.5-48.77-2.19-7.91-2.05-18.7-7-24.64-11.63-8.85-7-20.38-24-24.71-37.59C106.35,97,105.24,62.88,124.43,37,143.78,10.89,179.65-.08,212.26.52Z"/></clipPath><clipPath id="clip-path-105" transform="translate(0 2.68)"><path class="cls-1" d="M151.26,140.94c6.88.58,18,2.61,26.76,3.11,10.69.6,28-.13,33-.16s25.46.25,33.11-.24c6.89-.45,18.34-2.84,29.61-3.61,2.57-.18,10.83-.65,11-.38s-6,15.23-10.69,19.52c-6.1,5.58-19.65,8.29-27.3,10.29-10.07,2.63-26.19,4.07-35.87,3.95-10.35-.14-28.93-1.2-40.76-5.23-7.68-2.6-18-6.12-24.34-12-4.58-4.31-10.56-16.06-10.53-16.11S147.17,140.59,151.26,140.94Z"/></clipPath><clipPath id="clip-path-106" transform="translate(0 2.68)"><path class="cls-1" d="M151.26,140.94c6.88.58,18,2.61,26.76,3.11,10.69.6,28-.13,33-.16s25.46.25,33.11-.24c6.89-.45,18.34-2.84,29.61-3.61,2.57-.18,10.83-.65,11-.38s-6,15.23-10.69,19.52c-6.1,5.58-19.13,8.23-26.77,10.23-10.08,2.63-27.95,4.57-37.62,4.45-10.36-.14-28.57-1.6-40.4-5.62-7.68-2.61-17.18-6.17-23.48-12.09-4.58-4.31-10.56-16.06-10.53-16.11S147.17,140.59,151.26,140.94Z"/></clipPath><clipPath id="clip-path-107" transform="translate(0 2.68)"><path class="cls-1" d="M151.26,140.94c6.88.58,18,2.61,26.76,3.11,10.69.6,28-.13,33-.16s25.46.25,33.11-.24c6.89-.45,18.34-2.84,29.61-3.61,2.57-.18,10.83-.65,11-.38s-6,15.23-10.69,19.52c-6.1,5.58-19.3,8.29-26.95,10.29C237,172.1,219.58,174,209.9,173.91c-10.36-.13-28.18-1.59-40-5.61-7.68-2.61-17.79-6.23-24.09-12.15-4.58-4.31-10.56-16.06-10.53-16.11S147.17,140.59,151.26,140.94Z"/></clipPath></defs><title>Tortuga glosa_5to0</title><g id="Layer_2" data-name="Layer 2"><g id="Frame_6" data-name="Frame 6"><g id="TORTUGA"><g id="pierna_izq" data-name="pierna izq"><g id="pierna_izq-2" data-name="pierna izq"><path class="cls-3" d="M239.38,503.22s10.28,6.11,34.18,5.22c21.74-.8,24.93-1,30.39-6.92,5.9-6.44.34-23.52-2.45-26.12,0,0-8.87-32.58-13.67-46.36-8.68-24.93-28.35-75.78-33.58-82.08a17.89,17.89,0,0,0-17.53-6c-14.24,2.73-14.38,11.71-14.83,16.21-.75,7.57,7.59,54.81,10.68,77.66,2,14.9,5.82,35.4,6.76,50.67C239.66,490.81,239.36,503.2,239.38,503.22Z" transform="translate(0 2.68)"/></g><g id="mancha_pie_izq" data-name="mancha pie izq"><g class="cls-4"><path class="cls-5" d="M253.67,416c3-1.16,8.41,1.07,10.56,3.08,4.07,3.8,7.32,13.68,1.89,16.33-4.32,2.1-13-2.14-15.43-5.6C248,425.88,248.75,417.83,253.67,416Z" transform="translate(0 2.68)"/></g><g class="cls-4"><path class="cls-5" d="M272.65,440.23c-1.24,1.3.47,4.07,2.05,5.13s4.93,1.78,6.52.86,1.87-4.16.61-5.5C280.15,438.94,274.28,438.53,272.65,440.23Z" transform="translate(0 2.68)"/></g></g></g><g id="pierna_der" data-name="pierna der"><g id="pierna_der-2" data-name="pierna der"><path class="cls-3" d="M164.39,504.76c-1.53,1.25-9.31,4.5-30,3.15-24.82-1.63-29-1.41-34.54-8.61-5.39-7,6.18-26.56,6.19-26.58s10.08-33.78,15.3-48.07c8.55-23.43,27.64-71.16,32.23-77.25,1.57-2.08,10.29-14.46,25.8-10.21,14,3.84,11,16.89,11,18.32.16,7.17-11.3,50.9-15.83,72.74-3.43,16.53-9.77,38.47-10.93,55.19C163.14,489.83,166.74,502.84,164.39,504.76Z" transform="translate(0 2.68)"/></g><g id="mancha_pie_izq_2" data-name="mancha pie izq 2"><g class="cls-6"><path class="cls-5" d="M162.61,414.73c-3-1.26-8.61.9-10.89,2.9-4.31,3.79-8,13.83-2.62,16.67,4.3,2.27,13.35-1.86,15.94-5.34C168,425,167.53,416.78,162.61,414.73Z" transform="translate(0 2.68)"/></g><g class="cls-6"><path class="cls-5" d="M141.94,438.88c1.16,1.39-.8,4.13-2.49,5.14s-5.15,1.6-6.69.59-1.58-4.34-.19-5.66C134.42,437.21,140.42,437.06,141.94,438.88Z" transform="translate(0 2.68)"/></g></g></g><g id="brazo_izq" data-name="brazo izq"><g id="brazo_izq-2" data-name="brazo izq"><path class="cls-7" d="M246.89,187.52c1-9.66,6.52-13.77,9.39-13.77,3.53,0,65.43,7.59,66.62,7s37.6-56.56,38-57c7-9,11-15.09,13.84-16.82,4.44-2.71,18.57,5.32,24.62,11.09,5,4.81,10.21,12.86,11.55,21,.45,2.7-7,14.62-14.08,21.33-6.1,5.8-56.29,51.39-65.08,54.13-8.34,2.6-75.61-10.86-79.82-13.75A15.3,15.3,0,0,1,246.89,187.52Z" transform="translate(0 2.68)"/><path d="M246.89,187.52c1-9.66,6.32-14.27,9.39-14.31v1.09c-2.68-.06-8.4,3.56-9.39,13.22Z" transform="translate(0 2.68)"/><path class="cls-8" d="M256.28,173.21v1.09" transform="translate(0 2.68)"/><path d="M251.64,201.15a16.71,16.71,0,0,1-4.75-13.63h0a14.15,14.15,0,0,0,5.26,12.7Z" transform="translate(0 2.68)"/><path class="cls-8" d="M251.64,201.15l.51-.93" transform="translate(0 2.68)"/></g><g id="manchas_bra_izq" data-name="manchas bra izq"><g class="cls-9"><path class="cls-5" d="M370.29,125.06c-.26-2.66,2.81-6.53,5.21-6.77,2.6-.25,7.27,3.45,6.65,6.28C381.3,128.41,371,131.66,370.29,125.06Z" transform="translate(0 2.68)"/></g><g class="cls-9"><path class="cls-5" d="M380.23,138.31c-.19-1.95,2.06-4.78,3.81-5,1.91-.18,5.32,2.53,4.87,4.59C388.29,140.76,380.71,143.14,380.23,138.31Z" transform="translate(0 2.68)"/></g></g></g><g id="brazo_der" data-name="brazo der"><g id="brazo_der-2" data-name="brazo der"><path class="cls-7" d="M182.29,198.25c3-10.3-4.92-17.76-5.39-18.31-1.47-1.72-58.86-22.79-59.78-23.4-1.18-.77-60.43-54.83-61-55.37C42.58,89.28,41.64,88.34,29.43,81c-3.91-2.35-14.91,5-20.16,13.61-4.32,7-11.72,21.4-7.52,26.1A130.21,130.21,0,0,0,26.2,142.64c.42.31,67.65,44.62,75.32,48,6,2.65,64.29,20.63,68.09,19.48C170.58,209.84,179.64,207.29,182.29,198.25Z" transform="translate(0 2.68)"/><path d="M182.29,198.25c3-10.3-5.24-17.34-5.74-17.93l.7-.75c.44.51,8.06,8.38,5,18.68Z" transform="translate(0 2.68)"/><path class="cls-8" d="M176.55,180.32l.7-.75" transform="translate(0 2.68)"/><path d="M169.44,209.43c1-.3,10.2-2.14,12.85-11.18h0c-2.65,9-11.55,12.3-12.51,12.59Z" transform="translate(0 2.68)"/><path class="cls-8" d="M169.44,209.43l.34,1.41" transform="translate(0 2.68)"/></g><g id="manchas_bra_der" data-name="manchas bra der"><g class="cls-10"><path class="cls-5" d="M40.61,99.78c-.06-3-3.91-6.68-6.54-6.55-2.86.15-7.43,5-6.38,8C29.12,105.26,40.77,107.11,40.61,99.78Z" transform="translate(0 2.68)"/></g><g class="cls-10"><path class="cls-5" d="M31.58,115.91c0-2.16-2.86-4.89-4.78-4.79-2.1.11-5.44,3.63-4.67,5.82C23.17,119.92,31.7,121.27,31.58,115.91Z" transform="translate(0 2.68)"/></g></g></g><g id="cuerpo"><g id="cuerpo-2" data-name="cuerpo"><path class="cls-11" d="M213.85,151.34c-20.41-.65-44.63,11.92-59,24.22-6,5.15-11.23,14.57-14.42,21.72-1.52,3.41-10.66,42.08-13,60.46-2.45,19.13-5.1,45.06-2.69,64.19,1.61,12.72,10.21,30.5,20,36.86,12.76,8.33,41.45,18.17,60.49,18.47,16.86.26,38.78-4.64,54.19-14.32,16.79-10.55,24.4-19.63,28-32.11,8.07-27.58,4.75-57.47,4.24-72.67-.63-18.76-7.12-50-9.92-59.38-2-6.77-5.48-14.42-10.05-19.11C258.41,166,234.51,152,213.85,151.34Z" transform="translate(0 2.68)"/><path class="cls-12" d="M213.62,157.71c-19.37-.75-42.47,11.2-56,23-5.79,5.06-10.59,14.38-13.61,21.37-1.45,3.35-10.23,41.21-12.5,59.19-2.36,18.7-5,44-2.65,62.73,1.52,12.4,9.78,29.78,19.24,36,12,7.94,39,17.69,57,18,16,.25,36.68-4.69,51.17-14,16.18-10.4,23.36-19.35,26.79-31.49,7.62-26.95,4.33-56,3.85-70.84-.6-18.26-6.66-48.71-9.32-57.84-1.91-6.53-5.19-13.89-9.53-18.45C255.62,172.28,233.22,158.47,213.62,157.71Z" transform="translate(0 2.68)"/></g><g id="detalle"><g class="cls-13"><path class="cls-14" d="M153.43,192.84c-6.19,19.31-7.74,24.66-9.89,35.49-4.8,24.25-9.46,58.37-8.73,81.85.51,16.15,5.93,33.27,17.87,45.52,11.5,11.79,35.12,19.74,51.94,20.36s40.72-5.84,53.38-16.46c13-10.92,23.7-33.4,24.72-50,1.32-21.71,1.31-51.7-3.35-78.29-3.19-18.26-8.46-34.72-16.61-46.75-9.88-14.58-29-33.56-46.62-34.21C193.13,149.53,159.59,173.62,153.43,192.84Z" transform="translate(0 2.68)"/></g><g class="cls-13"><path d="M154,193c-6.18,19.31-8,24.55-10.16,35.37l-.68-.12c2.15-10.84,3.43-16.29,9.62-35.61Z" transform="translate(0 2.68)"/></g><g class="cls-13"><path d="M143.88,228.39c-4.8,24.24-9.26,58.35-8.52,81.77l-1.09,0c-.74-23.53,4.13-57.67,8.93-81.93Z" transform="translate(0 2.68)"/></g><g class="cls-13"><path class="cls-8" d="M143.88,228.39l-.68-.12" transform="translate(0 2.68)"/></g><g class="cls-13"><path d="M135.36,310.16c.5,16.08,5.94,33,17.79,45.12l-.93.84c-12-12.36-17.44-29.71-17.95-45.92Z" transform="translate(0 2.68)"/></g><g class="cls-13"><path class="cls-8" d="M135.36,310.16l-1.09,0" transform="translate(0 2.68)"/></g><g class="cls-13"><path d="M153.15,355.28c11.36,11.68,34.79,19.56,51.5,20.17l-.05,1.22c-16.94-.63-40.74-8.66-52.38-20.55Z" transform="translate(0 2.68)"/></g><g class="cls-13"><path class="cls-8" d="M153.15,355.28l-.93.84" transform="translate(0 2.68)"/></g><g class="cls-13"><path d="M204.65,375.45c16.69.62,40.41-5.79,52.93-16.31l.84.92c-12.8,10.71-36.89,17.23-53.82,16.61Z" transform="translate(0 2.68)"/></g><g class="cls-13"><path class="cls-8" d="M204.65,375.45l-.05,1.22" transform="translate(0 2.68)"/></g><g class="cls-13"><path d="M257.58,359.14c12.92-10.8,23.72-33.05,24.71-49.52l.85.05c-1,16.65-11.58,39.36-24.72,50.39Z" transform="translate(0 2.68)"/></g><g class="cls-13"><path class="cls-8" d="M257.58,359.14l.84.92" transform="translate(0 2.68)"/></g><g class="cls-13"><path d="M282.29,309.62c1.33-21.7,1.4-51.65-3.26-78.22l.68-.11c4.66,26.62,4.75,56.65,3.43,78.38Z" transform="translate(0 2.68)"/></g><g class="cls-13"><path class="cls-8" d="M282.29,309.62l.85.05" transform="translate(0 2.68)"/></g><g class="cls-13"><path d="M279,231.4c-3.19-18.23-8.7-34.52-16.8-46.47l1.07-.67c8.2,12.12,13.21,28.76,16.41,47Z" transform="translate(0 2.68)"/></g><g class="cls-13"><path class="cls-8" d="M279,231.4l.68-.11" transform="translate(0 2.68)"/></g><g class="cls-13"><path d="M262.23,184.93c-9.84-14.52-28.8-33.35-46.11-33.93l0-1.23c17.89.74,37.2,19.86,47.13,34.49Z" transform="translate(0 2.68)"/></g><g class="cls-13"><path class="cls-8" d="M262.23,184.93l1.07-.67" transform="translate(0 2.68)"/></g><g class="cls-13"><path d="M216.12,151c-22.74-.91-56.05,23-62.08,42l-1.22-.36c6.29-19.44,40.06-43.69,63.35-42.89Z" transform="translate(0 2.68)"/></g><g class="cls-13"><path class="cls-8" d="M216.12,151l0-1.23" transform="translate(0 2.68)"/></g><g class="cls-13"><path d="M135,309.4c.13,0,34.45,11.3,71.27,11.67l0,2.14C169,322.8,134.55,310.93,134.66,311Z" transform="translate(0 2.68)"/></g><g class="cls-13"><path d="M206.23,321.07c39.46.44,76.26-12,76.38-12l.21,1.19c.11,0-36.76,13.37-76.61,13Z" transform="translate(0 2.68)"/></g><g class="cls-13"><path class="cls-8" d="M206.23,321.07l0,2.14" transform="translate(0 2.68)"/></g><g class="cls-13"><path d="M282.08,309.61c1.33-21.7,1.43-51.63-3.22-78.18l1-.17c4.67,26.64,4.8,56.68,3.47,78.42Z" transform="translate(0 2.68)"/></g><g class="cls-13"><path class="cls-8" d="M282.08,309.61l1.27.07" transform="translate(0 2.68)"/></g><g class="cls-13"><path d="M279.51,232.48a320.73,320.73,0,0,1-66.62,7.31v-1a273.11,273.11,0,0,0,66.34-8.58Z" transform="translate(0 2.68)"/></g><g class="cls-13"><path class="cls-8" d="M279.51,232.48l-.28-2.26" transform="translate(0 2.68)"/></g><g class="cls-13"><path d="M212.89,239.79a256.46,256.46,0,0,1-69.52-10.33l.35-2.26c.23.06,31.81,11.55,69.17,11.6Z" transform="translate(0 2.68)"/></g><g class="cls-13"><path class="cls-8" d="M212.89,239.79v-1" transform="translate(0 2.68)"/></g><g class="cls-13"><path d="M144.05,228.42c-4.8,24.23-9.15,58.34-8.41,81.74l-1.65,0c-.74-23.55,4.24-57.7,9-82Z" transform="translate(0 2.68)"/></g><g class="cls-13"><path class="cls-8" d="M144.05,228.42l-1-.18" transform="translate(0 2.68)"/></g><g class="cls-13"><path d="M135.64,310.16c.49,16,5.93,32.84,17.74,44.91l-1.4,1.26c-12.07-12.42-17.47-29.87-18-46.13Z" transform="translate(0 2.68)"/></g><g class="cls-13"><path class="cls-8" d="M135.64,310.16l-1.65,0" transform="translate(0 2.68)"/></g><g class="cls-13"><path d="M153.38,355.07c11.29,11.62,34.63,19.47,51.28,20.07l-.07,1.84c-17-.64-40.89-8.7-52.61-20.65Z" transform="translate(0 2.68)"/></g><g class="cls-13"><path class="cls-8" d="M153.38,355.07l-1.4,1.26" transform="translate(0 2.68)"/></g><g class="cls-13"><path d="M204.66,375.14c16.63.63,40.26-5.75,52.71-16.23l1.27,1.38c-12.88,10.75-37.06,17.3-54,16.69Z" transform="translate(0 2.68)"/></g><g class="cls-13"><path class="cls-8" d="M204.66,375.14l-.07,1.84" transform="translate(0 2.68)"/></g><g class="cls-13"><path d="M257.37,358.91c12.87-10.74,23.73-32.87,24.71-49.3l1.27.07c-1,16.69-11.53,39.52-24.71,50.61Z" transform="translate(0 2.68)"/></g><g class="cls-13"><path class="cls-8" d="M257.37,358.91l1.27,1.38" transform="translate(0 2.68)"/></g><g class="cls-13"><path d="M216.11,151.31c-22.6-.94-55.8,22.92-61.76,41.8l-1.83-.54c6.35-19.55,40.23-43.89,63.66-43.1Z" transform="translate(0 2.68)"/></g><g class="cls-13"><path class="cls-8" d="M216.11,151.31l.07-1.84" transform="translate(0 2.68)"/></g><g class="cls-13"><path d="M154.35,193.11c-6.19,19.31-8.16,24.5-10.3,35.31l-1-.18c2.15-10.84,3.3-16.35,9.49-35.67Z" transform="translate(0 2.68)"/></g><g class="cls-13"><path class="cls-8" d="M154.35,193.11l-1.83-.54" transform="translate(0 2.68)"/></g><g class="cls-13"><path d="M262,185.1c-9.82-14.5-28.68-33.25-45.85-33.79l.07-1.84c18,.77,37.44,20,47.38,34.63Z" transform="translate(0 2.68)"/></g><g class="cls-13"><path class="cls-8" d="M262,185.1l1.6-1" transform="translate(0 2.68)"/></g><g class="cls-13"><path d="M278.86,231.43C275.67,213.2,270,197,262,185.1l1.6-1c8.23,12.15,13.12,28.88,16.32,47.16Z" transform="translate(0 2.68)"/></g><g class="cls-13"><path class="cls-8" d="M278.86,231.43l1-.17" transform="translate(0 2.68)"/></g></g></g><g id="cabeza"><g id="cabeza-2" data-name="cabeza"><path class="cls-3" d="M212.26.52c29.75.55,63.83,9.14,82.92,34.75,19.3,25.88,17.53,62.8,10,88.39C302,134.39,292.66,149.18,286,154.35c-9.49,7.3-26.36,12.9-38.51,15.73-10.32,2.4-25.83,2.56-35.21,2.63-16.69.12-34.59,1.5-48.77-2.19-7.91-2.05-18.7-7-24.64-11.63-8.85-7-20.38-24-24.71-37.59C106.35,97,105.24,62.88,124.43,37,143.78,10.89,179.65-.08,212.26.52Z" transform="translate(0 2.68)"/></g><g id="cara_manchas" data-name="cara manchas"><g class="cls-15"><path class="cls-5" d="M197.42,5.47c.85-5.13,10.37-8,15.56-7.62,6.1.46,17,5.82,16.55,11.92-.42,5.85-11.39,10-17.21,9.27C206.93,18.4,196.43,11.43,197.42,5.47Z" transform="translate(0 2.68)"/></g><g class="cls-15"><path class="cls-5" d="M243.48,10.29c-1.28.51-3,3.86-2.77,5.21.4,2,5,5.41,7,5,1.79-.38,4.67-4.93,4.1-6.65S245.45,9.51,243.48,10.29Z" transform="translate(0 2.68)"/></g></g><g id="boca"><g id="boca-2" data-name="boca"><path class="cls-16" d="M151.26,140.94c6.88.58,18.14,2.17,26.87,2.67,10.88.29,27.8,0,32.76,0s25.62.14,33.27-.35c6.89-.45,18.3-2.42,29.57-3.19,2.57-.18,10.83-.65,11-.38s-6,15.23-10.69,19.52c-6.1,5.58-18.6,8.52-26.25,10.52-10.07,2.64-28.47,4.28-38.14,4.16-10.36-.14-28.41-1.29-40.24-5.31-7.68-2.61-17.34-6.48-23.64-12.4-4.58-4.31-10.56-16.06-10.53-16.11S147.17,140.59,151.26,140.94Z" transform="translate(0 2.68)"/></g><g id="lengua"><g class="cls-17"><path class="cls-18" d="M164.15,160.15c-.25-6.36,10.19-11.22,15.86-14.1,7.81-4,19.88-5.42,28.64-5.73,10.93-.39,26.72-.73,36.13,4.84,4.85,2.87,12.46,8.93,11.89,14.54-.77,7.73-13.77,12.52-21.14,15-14.92,5-37.63,4.44-52.43-.88C176.51,171.44,164.43,167.15,164.15,160.15Z" transform="translate(0 2.68)"/></g></g><g id="dientes"><g class="cls-19"><path class="cls-20" d="M110.49,76.49c2.66,3.69,59.06,5.41,98.6,5s98.55-6.9,98.6-7S305.52,41.84,296.81,32c-18.49-21-61.25-26.71-89.24-27.3-28.22-.59-73.34,1.78-91,23.77C107.45,39.75,109.19,74.68,110.49,76.49Z" transform="translate(0 2.68)"/></g><g class="cls-21"><path class="cls-20" d="M310.86,147.66c-3.42-3.38-60.36,23-101.76,22.9-40.16-.12-98.53-22.72-98.6-22.64s-3.18,55.39,10.87,72.2c18,21.48,61.26,26.71,89.25,27.29,28.21.59,72.74-2.26,91-23.77C316.5,206.14,313.37,150.13,310.86,147.66Z" transform="translate(0 2.68)"/></g></g></g><g id="ojos"><g id="ojos-2" data-name="ojos"><path class="cls-22" d="M131,109.82a38.48,38.48,0,0,1-2.27-16.23c1.57-15.48,15.08-38.39,35.66-37.09,17.32,1.1,23,10.86,27.86,20.07,2.92,5.48,4.1,14.11,3.87,20.31a46.7,46.7,0,0,1-4.4,16.84c-3.18,6.27-12,12.24-18.85,13.92-10,2.47-24.62,2.54-33.62-6.24A35.51,35.51,0,0,1,131,109.82Z" transform="translate(0 2.68)"/><path d="M128.39,93.55c1.59-15.56,14.89-39.16,36.05-38l-.12,1.91C144.31,56,130.59,78.23,129,93.62Z" transform="translate(0 2.68)"/><path class="cls-8" d="M128.39,93.55l.65.07" transform="translate(0 2.68)"/><path d="M164.44,55.55c17.67,1.18,23.72,11.35,28.64,20.58l-1.67.89c-4.9-9.2-10.12-18.56-27.09-19.56Z" transform="translate(0 2.68)"/><path class="cls-8" d="M164.44,55.55l-.12,1.91" transform="translate(0 2.68)"/><path d="M193.08,76.13c3,5.65,3.5,14.54,3.27,20.76l-.48,0A43.74,43.74,0,0,0,191.41,77Z" transform="translate(0 2.68)"/><path class="cls-8" d="M193.08,76.13l-1.67.89" transform="translate(0 2.68)"/><path d="M191.94,113.83c-3.23,6.34-12.09,12.46-19,14.17l-.17-.71c6.75-1.66,15.58-7.47,18.71-13.68Z" transform="translate(0 2.68)"/><path class="cls-8" d="M191.94,113.83l-.45-.22" transform="translate(0 2.68)"/><path d="M173,128c-10,2.47-24.9,2.71-34.11-6.2l.79-.8c8.81,8.65,23.24,8.74,33.15,6.29Z" transform="translate(0 2.68)"/><path class="cls-8" d="M173,128l-.17-.71" transform="translate(0 2.68)"/><path d="M138.84,121.8a35.7,35.7,0,0,1-8-11.91l.37-.14c1.57,3.93,4.85,7.74,8.45,11.25Z" transform="translate(0 2.68)"/><path class="cls-8" d="M138.84,121.8l.79-.8" transform="translate(0 2.68)"/><path class="cls-22" d="M287.47,110.34a47.26,47.26,0,0,0,1.3-16.78c-2.14-15.35-9.24-38.71-35.63-36.85-13.25.94-18.23,7.17-22.17,14.12s-4.05,18.37-3.81,26.36c.15,5.18,1.34,12.47,3.24,17,2.39,5.65,9.57,11.5,15.38,13.47,10.1,3.41,26.55,5.65,35.31-4C284.61,119.7,286.31,114.6,287.47,110.34Z" transform="translate(0 2.68)"/><path d="M288.44,93.6c-2.13-15.32-9.42-37.95-35.23-35.93l-.13-1.91c27-1.72,33.87,22.37,36,37.75Z" transform="translate(0 2.68)"/><path class="cls-8" d="M288.44,93.6l.65-.09" transform="translate(0 2.68)"/><path d="M253.21,57.67c-13,.87-17.52,6.74-21.42,13.63l-1.65-.93c4-7,9.4-13.61,22.94-14.61Z" transform="translate(0 2.68)"/><path class="cls-8" d="M253.21,57.67l-.13-1.91" transform="translate(0 2.68)"/><path d="M231.79,71.3c-3.84,6.68-4.63,17.9-4.4,25.88l-.47,0c-.24-8-.82-19.62,3.22-26.83Z" transform="translate(0 2.68)"/><path class="cls-8" d="M231.79,71.3l-1.65-.93" transform="translate(0 2.68)"/><path d="M230.63,114.08c2.35,5.59,9.53,11.28,15.27,13.21l-.23.7c-5.88-2-13.08-8-15.5-13.72Z" transform="translate(0 2.68)"/><path class="cls-8" d="M230.63,114.08l-.46.19" transform="translate(0 2.68)"/><path d="M245.9,127.29c10.06,3.41,26.27,5.46,34.77-4.07l.84.75c-9,9.86-25.7,7.44-35.84,4Z" transform="translate(0 2.68)"/><path class="cls-8" d="M245.9,127.29l-.23.7" transform="translate(0 2.68)"/><path d="M280.67,123.22a31.59,31.59,0,0,0,6.61-12.93l.38.1c-1.16,4.26-2.56,9.59-6.15,13.58Z" transform="translate(0 2.68)"/><path class="cls-8" d="M280.67,123.22l.84.75" transform="translate(0 2.68)"/></g><g id="pupilas"><path class="cls-23" d="M177.62,85.62c3.23,0,6,3.28,6,7.74s-2.82,7.74-6,7.74-6-3.28-6-7.74S174.4,85.62,177.62,85.62Z" transform="translate(0 2.68)"/><path class="cls-23" d="M242.59,85.53c3.11,0,5.62,3.47,5.62,7.77s-2.51,7.77-5.62,7.77S237,97.61,237,93.31,239.48,85.53,242.59,85.53Z" transform="translate(0 2.68)"/></g></g><g id="cejas"><g class="cls-15"><path class="cls-24" d="M135.35,39.62s14.44-5.14,27.08-5.52c13.19-.39,28.54,4.12,28.54,4.12" transform="translate(0 2.68)"/></g><g class="cls-15"><path class="cls-24" d="M281.76,38.77s-15.51-3.73-26.41-4c-11.36-.29-27.7,2.79-27.7,2.79" transform="translate(0 2.68)"/></g></g></g></g><rect class="cls-25" x="326.23" y="125.28" width="96.05" height="16.92" transform="translate(159.7 470.96) rotate(-76.99)"/><rect class="cls-26" x="323.08" y="127.89" width="96.05" height="9.19" transform="translate(158.48 466.93) rotate(-76.99)"/><path class="cls-27" d="M372.18,183.1l-11.43,14.8a1.27,1.27,0,0,1-1.68.45,1.29,1.29,0,0,1-.56-.79l-3.93-18.49Z" transform="translate(0 2.68)"/><path d="M357.72,193.86l.79,3.59a1.12,1.12,0,0,0,1.45.9,1.33,1.33,0,0,0,.79-.56L363,195Z" transform="translate(0 2.68)"/><path class="cls-28" d="M389.78,76.4l-3.25-.67c-4.49-1-8.52,2.47-9.08,4.71h0c-.56,2.24-.56,4.26,1.79,4.82L390.9,88c2.24.56,3-1.24,3.47-3.59h0C395.05,82.12,393.25,77.19,389.78,76.4Z" transform="translate(0 2.68)"/><path class="cls-29" d="M376.22,82.9l18.6,4.26a.84.84,0,0,1,.56.79l-1.57,7a.85.85,0,0,1-.78.56L374.42,91.2a.86.86,0,0,1-.56-.79l1.57-7C375.43,83,375.77,82.79,376.22,82.9Z" transform="translate(0 2.68)"/><path class="cls-30" d="M255.87,505.69c-2.26-2.66.23-8.92,4.08-10.1,5.06-1.55,9.5,1.77,10.58,4.41.93,2.25,0,6.93-2.64,8.11S257.58,507.71,255.87,505.69Z" transform="translate(0 2.68)"/><path class="cls-30" d="M284.84,505.57c-2-2.67.21-8.93,3.58-10.11,4.43-1.54,8.32,1.78,9.27,4.41.81,2.26-1.44,6-3.79,7.17S286.34,507.59,284.84,505.57Z" transform="translate(0 2.68)"/><path class="cls-30" d="M146.74,506c2.3-2.73-.23-9.15-4.16-10.36a9.17,9.17,0,0,0-10.77,4.52c-.95,2.32,1.67,6.14,4.41,7.35S145,508.11,146.74,506Z" transform="translate(0 2.68)"/><path class="cls-30" d="M116.42,504.69c2.3-2.73-.24-9.15-4.16-10.36-5.15-1.58-9.67,1.82-10.77,4.52-.95,2.32,1.67,6.14,4.4,7.35S114.67,506.76,116.42,504.69Z" transform="translate(0 2.68)"/></g></g></svg>