<svg xmlns="http://www.w3.org/2000/svg" xmlns:xlink="http://www.w3.org/1999/xlink" viewBox="0 0 121.67 120.03"><defs><style>.cls-1,.cls-13,.cls-2{fill:none;}.cls-1,.cls-11,.cls-13,.cls-3,.cls-5,.cls-7,.cls-8,.cls-9{stroke:#000;stroke-miterlimit:10;}.cls-1,.cls-11,.cls-13,.cls-14,.cls-3,.cls-5,.cls-7,.cls-8,.cls-9{stroke-linecap:round;}.cls-1,.cls-3,.cls-5{stroke-width:0.25px;}.cls-3{fill:url(#linear-gradient);}.cls-4{fill:url(#linear-gradient-2);}.cls-5{fill:url(#linear-gradient-3);}.cls-6{fill:url(#linear-gradient-4);}.cls-7,.cls-8{stroke-width:0.75px;}.cls-7{fill:url(#linear-gradient-5);}.cls-8{fill:url(#linear-gradient-6);}.cls-9{fill:#fff;}.cls-13,.cls-9{stroke-width:0.5px;}.cls-10{clip-path:url(#clip-path);}.cls-11{fill:#7e2d3a;}.cls-12{fill:#fea49c;}.cls-14{fill:#a0dbf0;stroke:#4a91cd;stroke-linejoin:round;}</style><linearGradient id="linear-gradient" x1="697.75" y1="184.9" x2="710.83" y2="-59.66" gradientTransform="translate(-615.92)" gradientUnits="userSpaceOnUse"><stop offset="0" stop-color="#7fb541"/><stop offset="1" stop-color="#2babe2"/></linearGradient><linearGradient id="linear-gradient-2" x1="676.44" y1="218.25" x2="693.43" y2="-99.3" xlink:href="#linear-gradient"/><linearGradient id="linear-gradient-3" x1="658.17" y1="151.4" x2="667.11" y2="-15.78" xlink:href="#linear-gradient"/><linearGradient id="linear-gradient-4" x1="649.22" y1="238.07" x2="670.09" y2="-151.97" xlink:href="#linear-gradient"/><linearGradient id="linear-gradient-5" x1="647.08" y1="150.8" x2="656.03" y2="-16.38" xlink:href="#linear-gradient"/><linearGradient id="linear-gradient-6" x1="674.15" y1="152.25" x2="683.09" y2="-14.93" xlink:href="#linear-gradient"/><clipPath id="clip-path"><path class="cls-1" d="M72.25,61.06c-3.46.77-8,2.38-11.6,3.18-14,3.09-27.88-.74-31.87-.81-4.36-.07-7.38.92-7.92,2.53C19.72,69.38,27.11,75.1,34,76.2s11.93,1.75,19,0c9.83-2.46,12-5,14.91-7.72C71.87,64.64,73.82,60.71,72.25,61.06Z"/></clipPath></defs><title>Correct feedbacK_camaleon1_5to0</title><g id="Layer_2" data-name="Layer 2"><g id="Layer_1-2" data-name="Layer 1"><rect class="cls-2" width="121.67" height="120.03"/><path class="cls-3" d="M63.9,85.83c1.56-.68,17.6-7.07,26.86-16.5s13.85-18.85,14.48-19.52,5.06,1,6.85-2-3.58-6.4-5-6.65c0,0,4.6-7.74,2-9.68s-6.54,6.06-6.54,6.06-6.93-4.79-8.87-1.68,4.12,8.33,4.12,8.33S85,70.68,64.37,78.42"/><path class="cls-4" d="M48.76,120H89.84c-1-2.61-5.86-15.38-6.61-17C72,79.25,60.14,69.57,49.09,72.51c-11.2,3-1.16,23.61-.44,33.95C48.81,108.79,48.92,116.38,48.76,120Z"/><path d="M48.52,106.47c.16,2.34.27,9.91.12,13.56h.25c.15-3.67,0-11.23-.12-13.58a67.1,67.1,0,0,0-2.19-10.76c-2.5-9.83-5.34-21,2.54-23.06,11.37-3,23.12,7.52,34,30.5.75,1.58,5.55,14.19,6.58,16.9H90c-1-2.54-5.87-15.41-6.63-17C72.4,79.92,60.56,69.34,49.06,72.39c-8.12,2.16-5.25,13.42-2.72,23.36A66.78,66.78,0,0,1,48.52,106.47Z"/><path class="cls-5" d="M25.3,4c2.21-.21,15.06,5.35,22.47,7.34s21.79,1.83,28,18.19c2.91,8.29,2.26,16,5,18.58s9.88,6.34,4.89,15.69-17.2,17.37-30,20.81-32.85,2.06-39.68-1.26S6.07,75.13,8.48,69.28s4-9.8,3-16.11-4.87-14-2.52-18.57,12.61-5.14,14-13.78-.76-12-.9-13.26S23.51,4.21,25.3,4Z"/><path class="cls-6" d="M39.35,120H49.1c-1.78-5.65-8.21-12.38-8.39-12.77-.48-1.1,4-12.52,6.15-14.26l-2.3-6.56c-7.81,5.2-14.09,18.36-13.83,23C30.82,111.1,36.5,117.22,39.35,120Z"/><path d="M30.86,109.48C30.61,105,36.56,92,44.37,86.71l.31-.27-.19-.12-.13.09c-7.94,5.28-14,18.55-13.75,23.09.07,1.19,2.87,4.92,8.56,10.53h.36C32.46,113.07,30.9,110.26,30.86,109.48Z"/><path d="M41.5,108c-.34-.39-.64-.71-.67-.78-.41-.92,3.59-11.48,5.55-13.48l-.16-.19c-2,2-6.15,12.58-5.62,13.77a6,6,0,0,0,.71.84C43,110.07,47.52,115.48,49,120h.26C47.79,115.4,43.24,109.92,41.5,108Z"/><path class="cls-7" d="M25.34,27.45a16.51,16.51,0,0,1,14-3C43.69,25.52,50,31.1,50,31.1"/><path class="cls-8" d="M58.63,24.3c.23-1.15,1.53-5.66,5.81-5.74,4.49-.08,7.18,3.82,7.18,3.82"/><path class="cls-9" d="M35.75,33.76C38,33.13,46.41,33.45,50,43.45s-4.4,12.89-8.31,13.47c-4.72.7-10.87-2.8-12.3-8S28.5,35.8,35.75,33.76Z"/><path class="cls-9" d="M65.08,27.28c3-.8,8.22,2.3,10,9.29s0,10.86-2.91,12.19-8.31-.15-11-6.38S60.18,28.61,65.08,27.28Z"/><ellipse cx="69.33" cy="40.84" rx="1.84" ry="3.15" transform="translate(-8.51 20.44) rotate(-15.81)"/><ellipse cx="47.45" cy="45.26" rx="1.84" ry="3.15" transform="translate(-10.54 14.64) rotate(-15.81)"/><g class="cls-10"><path class="cls-11" d="M73.82,52c-2.67,1.77-9.69,9.75-19.8,12.17s-17.4,3.2-21.26,2-7.1.35-7.33,4S29,79.62,35.85,80.72s16.22.8,24.39-4S72.92,66.63,74,61.44,74.39,51.59,73.82,52Z"/><path class="cls-12" d="M61.51,57.56C65,58,70.94,60.87,72,64.32S58.28,82,42.52,80.32s-25-1-25.31-9.48-1.67-7.41,8.62-7.92S59.65,57.33,61.51,57.56Z"/></g><path class="cls-1" d="M72.25,61.06c-3.46.77-8,2.38-11.6,3.18-14,3.09-27.88-.74-31.87-.81-4.36-.07-7.38.92-7.92,2.53C19.72,69.38,27.11,75.1,34,76.2s11.93,1.75,19,0c9.83-2.46,12-5,14.91-7.72C71.87,64.64,73.82,60.71,72.25,61.06Z"/><path class="cls-13" d="M57.2,55.65a4.76,4.76,0,0,1,2.52,1.07"/><path class="cls-13" d="M64.81,52.86a9,9,0,0,0-.42,2.64"/><path class="cls-14" d="M107.76,101s-2.9,8.25,5.61,10.7c0,0-10.35-3.94-13.07,1.84,0,0,.79-10.26-.87-11.05C99.43,102.49,106.35,102.67,107.76,101Z"/><path class="cls-14" d="M17,102.88s-6.54,5-6.69,7c0,0-5.93-8.67-8.51-9.12,0,0,6.69-1.22,7.45-3.8C9.27,97,10.18,101.36,17,102.88Z"/></g></g></svg>