<svg xmlns="http://www.w3.org/2000/svg" xmlns:xlink="http://www.w3.org/1999/xlink" viewBox="0 0 96.06 120.02"><defs><style>.cls-1{fill:none;}.cls-10,.cls-11,.cls-2,.cls-5,.cls-6,.cls-7,.cls-8,.cls-9{stroke:#000;stroke-miterlimit:10;}.cls-10,.cls-11,.cls-2,.cls-5,.cls-6,.cls-7,.cls-9{stroke-linecap:round;}.cls-11,.cls-2,.cls-5{stroke-width:0.25px;}.cls-2{fill:url(#linear-gradient);}.cls-3{fill:url(#linear-gradient-2);}.cls-4{fill:url(#linear-gradient-3);}.cls-5{fill:url(#linear-gradient-4);}.cls-6,.cls-7,.cls-8,.cls-9{stroke-width:0.5px;}.cls-6{fill:url(#linear-gradient-5);}.cls-7{fill:url(#linear-gradient-6);}.cls-8{fill:#fff;}.cls-9{fill:url(#linear-gradient-7);}.cls-10{fill:#45adb0;}.cls-11{fill:url(#linear-gradient-8);}</style><linearGradient id="linear-gradient" x1="-4965.43" y1="238.67" x2="-4991.37" y2="-7.79" gradientTransform="translate(4994.71 -599.52) rotate(-6.44)" gradientUnits="userSpaceOnUse"><stop offset="0" stop-color="#e9118b"/><stop offset="1" stop-color="#ef4323"/></linearGradient><linearGradient id="linear-gradient-2" x1="-4917.57" y1="207.34" x2="-4945.76" y2="-60.44" gradientTransform="translate(4985.01)" xlink:href="#linear-gradient"/><linearGradient id="linear-gradient-3" x1="-4941.19" y1="236.1" x2="-4977.71" y2="-110.89" gradientTransform="translate(4985.01)" xlink:href="#linear-gradient"/><linearGradient id="linear-gradient-4" x1="-4935.15" y1="157.75" x2="-4952.87" y2="-10.59" gradientTransform="translate(4985.01)" xlink:href="#linear-gradient"/><linearGradient id="linear-gradient-5" x1="-4914.09" y1="155.53" x2="-4931.81" y2="-12.81" gradientTransform="translate(4985.01)" xlink:href="#linear-gradient"/><linearGradient id="linear-gradient-6" x1="-4924.72" y1="156.65" x2="-4942.44" y2="-11.69" gradientTransform="translate(4985.01)" xlink:href="#linear-gradient"/><linearGradient id="linear-gradient-7" x1="-4942.75" y1="160.8" x2="-4960.8" y2="-10.62" gradientTransform="translate(4985.01)" xlink:href="#linear-gradient"/><linearGradient id="linear-gradient-8" x1="-5006.55" y1="257.33" x2="-5030.35" y2="31.18" gradientTransform="translate(4962.73 -1018.39) rotate(-10.95)" xlink:href="#linear-gradient"/></defs><title>Mistake feedback_camaleon4_5to0</title><g id="Layer_2" data-name="Layer 2"><g id="Layer_1-2" data-name="Layer 1"><rect class="cls-1" width="96.06" height="120"/><path class="cls-2" d="M47.94,80.11c2.5-2.31,31.83,10,33.88,14.74s-.77,8.12-9,4.74C63.6,95.79,39.92,87.55,47.94,80.11Z"/><path class="cls-3" d="M38.21,120H79.88c-.84-3.21-5.51-16.7-6.8-19.68-10-23.06-19.78-28.16-29.94-26.2s-9.8,14.62-9.09,21.57S37.11,114.84,38.21,120Z"/><path d="M38.09,120h.25c-1.11-5.22-3.47-17.53-4.17-24.32-1.31-12.82,1.71-20,9-21.43C55,72,64.18,80,73,100.39c1.3,3,5.93,16.36,6.79,19.63H80c-.83-3.17-5.51-16.7-6.82-19.73C64.35,79.81,55.08,71.72,43.11,74c-7.42,1.43-10.51,8.74-9.18,21.7C34.62,102.51,37,114.77,38.09,120Z"/><path class="cls-4" d="M28,120h18.5a6,6,0,0,0-.39-2.17c-1.29-4.69-9-1.79-10.21-2.39S25.72,101.3,26.12,100.2s6.59-7.55,8.52-9.24L34.7,82c-7.15,5.1-20.31,14.1-20.07,18.69C14.82,104.32,24.13,116.64,28,120Z"/><path d="M26.24,100.25c.38-1,6.57-7.51,8.49-9.2l-.17-.19C32.81,92.4,26.43,99,26,100.16c-.29.78,3.2,6.26,4.28,7.93,2.26,3.47,4.88,7.16,5.53,7.48a5.75,5.75,0,0,0,2.36-.07c2.75-.35,6.89-.88,7.79,2.39a5.92,5.92,0,0,1,.38,2.13h.26a6.47,6.47,0,0,0-.4-2.2c-1-3.47-5.23-2.93-8.06-2.57a6,6,0,0,1-2.22.09C34.61,114.69,25.91,101.14,26.24,100.25Z"/><path d="M27.8,120h.37c-3.93-3.36-13.23-15.83-13.42-19.32-.22-4.24,11.56-12.59,18.6-17.57l1.42-1-.14-.21-1.42,1c-7.54,5.34-18.94,13.42-18.71,17.79C14.7,104.48,24,116.6,27.8,120Z"/><path class="cls-5" d="M18.49,4.33C20.63,4.13,33,9.5,40.2,11.42s21,1.77,27,17.57c2.81,8,2.18,15.44,4.84,18s9.54,6.12,4.73,15.15-16.62,16.78-29,20.1S16,84.19,9.45,81s-9.53-8-7.2-13.62,3.88-9.47,2.88-15.56S.42,38.22,2.69,33.85s12.19-5,13.55-13.31S15.51,9,15.37,7.74A3.81,3.81,0,0,1,18.49,4.33Z"/><path class="cls-6" d="M50.69,23.9c.22-1.11,1.47-5.46,5.61-5.54,4.34-.08,6.94,3.69,6.94,3.69"/><path class="cls-7" d="M46.33,71.78c1-1.11,3.65-4.21,5.76-4.43a5.86,5.86,0,0,1,4,1.55"/><path class="cls-8" d="M31.65,37.78c2.11-.59,9.9-1.88,10.72,5.79.76,7.17-3.41,7.9-9.44,8.79-3.67.54-8.65.4-10-4.43S24.85,39.7,31.65,37.78Z"/><path class="cls-9" d="M16,38.56c3.21,1.1,9.54,3.59,16.51,2.21s10-5.43,10-5.43"/><path class="cls-8" d="M57.62,27.9c2.85-.78,7.88,2.2,9.6,8.91s0,10.44-2.79,11.71-8-.15-10.54-6.12S52.91,29.17,57.62,27.9Z"/><ellipse cx="59.47" cy="40.15" rx="1.77" ry="3.02" transform="translate(-8.69 17.73) rotate(-15.81)"/><ellipse cx="40.23" cy="45.54" rx="1.72" ry="2.95" transform="translate(-5.29 5.29) rotate(-7.06)"/><path class="cls-10" d="M49.65,57.46a4.53,4.53,0,0,1,2.44,1"/><path class="cls-10" d="M57,54.76a9.08,9.08,0,0,0-.41,2.55"/><path class="cls-11" d="M66.82,70.14c-.55.31,2.89-7,.22-8.39-4-2.11-6.3,5.62-7,12.9C59.14,76,52.07,76.38,51.09,80s.58,5.2,10.89,3.36c2.28,0,5.89,6.9,15,17,2.78,1.89,7.46-1.14,6-4.19S69,80.18,69.17,77.88s6.18-2.56,5.91-6.91S69.25,68.76,66.82,70.14Z"/></g></g></svg>