<svg xmlns="http://www.w3.org/2000/svg" viewBox="0 0 111.39 120.02"><defs><style>.cls-1{fill:none;}.cls-10,.cls-11,.cls-2,.cls-7{fill:#45adb0;}.cls-10,.cls-11,.cls-12,.cls-2,.cls-6,.cls-8,.cls-9{stroke:#000;stroke-miterlimit:10;}.cls-12,.cls-2,.cls-6{stroke-width:0.25px;}.cls-3{fill:#317043;}.cls-4{fill:#568c64;}.cls-5,.cls-6{fill:#d0a26e;}.cls-10,.cls-6{stroke-linecap:round;}.cls-8{fill:#fff;}.cls-11,.cls-8,.cls-9{stroke-width:0.5px;}.cls-12,.cls-9{fill:#316b6f;}</style></defs><title>Mistake feedback_tortuga_5to0</title><g id="Layer_2" data-name="Layer 2"><g id="Layer_1-2" data-name="Layer 1"><rect class="cls-1" width="111.39" height="120"/><path class="cls-2" d="M70.86,66.55c3.66-1.71,36.08,30,36.08,34.6s.24,17.6-27.59,2.89S65.9,68.85,70.86,66.55Z"/><path class="cls-3" d="M89.1,120C86,98.14,62.79,66.94,55.83,67.17c-27,.91-24.55,34.39-23.12,52.85Z"/><path d="M32.83,120c-1.06-13.78-2.64-35.12,7-45.9,3.85-4.3,9.23-6.6,16-6.82h.08c3.39,0,11,7.57,18.08,18.07,3.89,5.75,13,21,15,34.66h.25c-1.94-13.7-11.12-29-15-34.8C66.87,74.4,59.31,66.94,55.83,67.05,49,67.27,43.55,69.6,39.65,74,29.93,84.81,31.52,106.2,32.58,120Z"/><path class="cls-4" d="M92.11,120C89.19,98.09,66.68,67.05,60,67.29,34,68.2,36.6,101.55,38,120Z"/><path d="M37.85,120h.25l0-.41c-1-13.78-2.58-35.19,6.86-45.72,3.65-4.08,8.72-6.25,15.06-6.48h.08c3.28,0,10.6,7.53,17.47,18,3.77,5.73,12.63,21,14.45,34.62h.24c-1.81-13.7-10.7-29-14.48-34.76-7-10.69-14.27-18.1-17.68-18.1H60c-6.42.23-11.55,2.44-15.25,6.56-9.51,10.62-8,32.08-6.92,45.91Z"/><path class="cls-5" d="M96.06,120C93.4,97.9,70.37,68.92,61.65,68.71c-27.48-.65-23.51,32.76-22,51.31Z"/><path d="M39.49,120h.26c-.07-.81-.14-2.21-.21-3.06-1.15-13.88-2.73-32.89,6.24-42.39,3.73-4,9.08-5.88,15.87-5.73,4.23.1,12.27,7.24,19.57,17.36,8.2,11.37,13.53,24,14.71,33.82h.25c-1.18-9.85-6.53-22.56-14.76-34C74,75.71,66,68.69,61.66,68.59c-6.88-.16-12.28,1.79-16.06,5.8-9,9.59-7.46,28.66-6.31,42.59C39.36,117.83,39.43,119.22,39.49,120Z"/><path class="cls-6" d="M49.09,107.66c1.57-.85,15.7-5.27,21.83-6s12.84.14,16.27,2.29"/><path class="cls-7" d="M54.85,120c-6.36-4.52-21.3-11.26-21.57-12-.71-2,8.55-19.55,9.49-22.92.86-3.06.5-7.83-1.28-9.38-1.37-1.19-2.14-1.32-5.57,1.36-3,2.35-20.12,28.24-21.11,40.1A20.09,20.09,0,0,0,14.9,120Z"/><path d="M15,120a21.51,21.51,0,0,1-.1-2.85c.57-6.79,6.38-17.68,9.79-23.57C29.48,85.39,34.48,78.34,36,77.16c3.38-2.65,4.09-2.5,5.4-1.36,1.74,1.5,2.1,6.21,1.25,9.25-.36,1.28-1.92,4.6-3.72,8.45-2.92,6.22-6.22,13.28-5.77,14.55.12.31,1.59,1,5.77,3A131.73,131.73,0,0,1,54.63,120h.44a123.07,123.07,0,0,0-16-9.16A44.13,44.13,0,0,1,33.4,108c-.42-1.17,3-8.48,5.76-14.36a89.93,89.93,0,0,0,3.73-8.48c.87-3.11.48-8-1.32-9.51-1.49-1.3-2.37-1.27-5.73,1.35-1.53,1.2-6.56,8.27-11.34,16.52-3.42,5.9-9.24,16.83-9.82,23.67a20.21,20.21,0,0,0,.1,2.87Z"/><path class="cls-2" d="M44.61,5c11.81-.57,40-.82,46.89,23.24s3.67,39.55-20.39,45.67-40,5.3-54.29-1.22S-14.93,7.88,44.61,5Z"/><path class="cls-8" d="M24.47,46.86c-4.1-6.39,2.28-11.56,7.94-12,12.44-1,14.29,6.19,13.26,10.26C43.88,52.13,30.33,56,24.47,46.86Z"/><path class="cls-8" d="M81.57,42.75c2.26-6.36-.9-19.29-7.47-20-10.18-1.17-7.9,14.91-6.86,19C69.05,48.82,78,52.88,81.57,42.75Z"/><ellipse cx="77.84" cy="38.02" rx="2.03" ry="3.48" transform="translate(-2.88 6.57) rotate(-4.75)"/><ellipse cx="42.18" cy="43.27" rx="2.01" ry="3.44" transform="translate(-3.44 3.64) rotate(-4.75)"/><path class="cls-9" d="M47.18,18.41c.89,0,3.57-2.13,3.45-3.57s-2.76-2.5-3.76-2.5-3.82,1.88-3.51,3.19A4.5,4.5,0,0,0,47.18,18.41Z"/><path class="cls-9" d="M56.21,12.94a2.61,2.61,0,0,0,.18-2.52,2,2,0,0,0-2.19-.21c-.37.25-.84,1.82-.31,2.35A2.15,2.15,0,0,0,56.21,12.94Z"/><path class="cls-10" d="M18.1,32.15c1.23,1.08,6.75,6.08,14.27,5.65a33.77,33.77,0,0,0,14.08-4.52"/><path class="cls-10" d="M62.4,15.28s2.63-4.2,7.33-3.76,6,2.76,6,2.76"/><path class="cls-11" d="M55.24,68.36c0-.76,3.76-6,6.1-5.93,3.5.12,6.51,1.75,7.43,4.34"/><path class="cls-2" d="M71.39,70c.13-2.64,13.36-7.69,19-5.5,6.3,2.43,14.16,24.1,17.84,34s-4.47,12.94-8.35,12.31S70.81,82.07,71.39,70Z"/><path class="cls-12" d="M92.26,75.09a2.12,2.12,0,0,0,1.84-2.47c-.11-1.68-1.44-2.89-2.28-2.89s-2.14,2-1.88,3.54S90.84,75,92.26,75.09Z"/><path class="cls-12" d="M84.85,73.07A2,2,0,0,0,85,71.28a1.2,1.2,0,0,0-1.42-.17c-.25.18-.55,1.3-.2,1.68A1.31,1.31,0,0,0,84.85,73.07Z"/></g></g></svg>