<svg xmlns="http://www.w3.org/2000/svg" xmlns:xlink="http://www.w3.org/1999/xlink" viewBox="0 0 346.86 538.48"><defs><style>.cls-1,.cls-18,.cls-7{fill:none;}.cls-10,.cls-11,.cls-13,.cls-14,.cls-16,.cls-18,.cls-2,.cls-24,.cls-25,.cls-3,.cls-4,.cls-5,.cls-6,.cls-7,.cls-8,.cls-9{stroke:#000;}.cls-10,.cls-11,.cls-13,.cls-14,.cls-16,.cls-18,.cls-2,.cls-3,.cls-4,.cls-9{stroke-linecap:round;}.cls-10,.cls-11,.cls-13,.cls-14,.cls-16,.cls-18,.cls-2,.cls-3,.cls-4,.cls-7,.cls-9{stroke-linejoin:round;}.cls-10,.cls-11,.cls-13,.cls-14,.cls-15,.cls-16,.cls-2,.cls-24,.cls-25,.cls-3,.cls-4,.cls-5,.cls-8,.cls-9{fill-rule:evenodd;}.cls-2{fill:url(#linear-gradient);}.cls-3{fill:url(#linear-gradient-2);}.cls-4{fill:url(#linear-gradient-3);}.cls-22,.cls-23,.cls-24,.cls-25,.cls-5,.cls-6,.cls-8{stroke-miterlimit:10;}.cls-5{fill:url(#linear-gradient-4);}.cls-8{fill:url(#linear-gradient-5);}.cls-9{fill:url(#linear-gradient-6);}.cls-10{fill:url(#linear-gradient-7);}.cls-11{fill:#7b2325;}.cls-12{clip-path:url(#clip-path);}.cls-13{fill:#f06b6b;}.cls-14,.cls-15{fill:#fff;}.cls-16{fill:#1c1c1c;}.cls-17{clip-path:url(#clip-path-4);}.cls-18{stroke-width:3px;}.cls-19{fill:#fcb042;stroke:#562f09;stroke-miterlimit:10;}.cls-20{fill:#ed9520;}.cls-21{fill:#fce8c8;}.cls-22{fill:#e44b86;stroke:#b53167;}.cls-23{fill:#a0a0b1;stroke:#71717f;}.cls-24{fill:url(#linear-gradient-8);}.cls-25{fill:url(#linear-gradient-9);}</style><linearGradient id="linear-gradient" x1="-2827.89" y1="-351.82" x2="-2828.49" y2="-351.59" gradientTransform="matrix(130.48, 0, 0, -79.48, 369097.56, -27592.57)" gradientUnits="userSpaceOnUse"><stop offset="0" stop-color="#3dabbc"/><stop offset="1" stop-color="#64b276"/></linearGradient><linearGradient id="linear-gradient-2" x1="-2803.22" y1="-349.5" x2="-2803.25" y2="-350.17" gradientTransform="matrix(48.62, 0, 0, -110.65, 136520.43, -38214.72)" gradientUnits="userSpaceOnUse"><stop offset="0" stop-color="#3eadbe"/><stop offset="1" stop-color="#63b278"/></linearGradient><linearGradient id="linear-gradient-3" x1="-2815.76" y1="-349.71" x2="-2815.77" y2="-350.35" gradientTransform="matrix(71.22, 0, 0, -106.56, 200662.17, -36813.78)" gradientUnits="userSpaceOnUse"><stop offset="0" stop-color="#3eadbe"/><stop offset="1" stop-color="#5eaa72"/></linearGradient><linearGradient id="linear-gradient-4" x1="-2827.1" y1="-351.28" x2="-2827.11" y2="-350.89" gradientTransform="matrix(126.14, 0, 0, -78, 356894.99, -27183.49)" xlink:href="#linear-gradient-2"/><linearGradient id="linear-gradient-5" x1="-2828.18" y1="-352.2" x2="-2828.17" y2="-351.81" gradientTransform="matrix(134.07, 0, 0, -71.53, 379247.71, -24972.36)" xlink:href="#linear-gradient-2"/><linearGradient id="linear-gradient-6" x1="-2821.74" y1="-347.18" x2="-2821.74" y2="-346.49" gradientTransform="matrix(92.35, 0, 0, -163.99, 260765.58, -56583.19)" gradientUnits="userSpaceOnUse"><stop offset="0" stop-color="#3eadbe"/><stop offset="1" stop-color="#64b276"/></linearGradient><linearGradient id="linear-gradient-7" x1="-2833.07" y1="-345.38" x2="-2833.04" y2="-346.06" gradientTransform="matrix(206.79, 0, 0, -207.97, 586005.22, -71801.39)" xlink:href="#linear-gradient-2"/><clipPath id="clip-path"><path class="cls-1" d="M124.77,170.24c3.81.32,15,1.75,20,2,7,.32,25.56-.17,28.53-.3,2.5-.12,18.07-1,23.84-1.84,3.94-.6,18.13-4.75,22.69-5.68,3.07-.62,10.9-2.39,12.07-1.06,1.87,2.12-4.13,15-6.84,18.12-3.46,4-17,10.19-21.8,11.81-5.87,2-24.3,4.23-30,4.41-6.66.21-27.39-.69-35.21-3.07-4.66-1.42-15-6.07-18.64-9.81-3-3.08-9.19-13.67-7.85-15.5C112.52,167.9,122.24,170,124.77,170.24Z"/></clipPath><clipPath id="clip-path-4"><path class="cls-1" d="M167.83.51c15.47-.61,14.33,30,29.82,36,17.43,6.73,41.7-4.07,56.24,11.53,9.92,10.64,14.75,54.08,8.46,72.44a27.16,27.16,0,0,0,4.93,26.34c4.72,5.58,13.39,24.55,2,34.63-17.82,15.77-69.44,25-95.39,26.43-19,1.05-86.49-12-94.8-16.1-2.29-1.13-19.32-20.1-4.45-32.23,9.43-7.69,11.81-20.6,7.22-32.53-13.15-34.21-4-66.66,3.45-73.26,20.29-17.86,40-5,58.53-19.28C155.11,25.85,153.57,1.07,167.83.51Z"/></clipPath><linearGradient id="linear-gradient-8" x1="336.92" y1="195.98" x2="336.76" y2="184.96" gradientTransform="matrix(1, 0, 0, 1, 0, 0)" xlink:href="#linear-gradient-2"/><linearGradient id="linear-gradient-9" x1="315.66" y1="191.35" x2="315.53" y2="182.2" gradientTransform="matrix(1, 0, 0, 1, 0, 0)" xlink:href="#linear-gradient-2"/></defs><title>Camaleon 5 glosa_5to0</title><g id="Layer_2" data-name="Layer 2"><g id="Frame_6" data-name="Frame 6"><g id="CAMALEON"><g id="Cola"><g id="cola-2" data-name="cola"><path class="cls-2" d="M106,425.56c-18.88-10-39.41-17.59-53.18-46.17-11.38-23.64-20.71-49.86,2.71-61.53,14.79-7.37,32,19.78,11,28.35-6.91,2.82-10.34-7.48-10.05-12.45.38-6.29,5.35-3.41,5.35-3.42s-4.17-1.75-5.19,1.33c-1.56,4.77.9,9.8,2.67,13.44,4.64,9.56,14.39,17.63,24.11,24.63,8.35,6,23.66,6.6,33.16,3.25,15.12-5.33,22.09-3.11,38.6-39.62,10.59-23.41,46.06-7.13,54.12,10.07a37.14,37.14,0,0,1,1.55,26.32c-8.29,24.52-39.85,48.37-63.17,56.57C135.79,430.51,122.48,434.24,106,425.56Z"/></g></g><g id="pie_izq" data-name="pie izq"><g id="pierna_izq" data-name="pierna izq"><path class="cls-3" d="M226,512.77c.39.83-18,2.73-17.24,18.11.48,9.35,7.42,6.79,29.8,6.75,14.42,0,23,2.27,23.58-7.76.79-14.07-13.59-15.93-13.72-16.5-.19-.85,7-46.28,3.37-64.27-3.2-15.9-20.51-55.48-22.65-58.25-.77-1-8.21-18.47-18.34-11.35s-2.36,23.52-1.6,25.66c1.1,3.12,18.06,33.24,23.54,48.93C236.48,465,225.26,511.26,226,512.77Z"/></g></g><g id="pie_der" data-name="pie der"><g id="pierna_der" data-name="pierna der"><path class="cls-4" d="M131.49,516.55c-.1,1.15,8.31,2.59,7.65,14.75-.26,4.8-5.81,5.42-19.71,5.77-20.49.51-30-.67-29.2-7.68,1.94-17.3,19.88-13.71,20.24-14.59s13.73-42.47,20-60.47c5.25-15.06,16.53-45.55,18.26-49.78,1.16-2.84,7-25.32,19.11-17.7,11.5,7.24.44,26.07-.14,27.91-1.53,4.83-14.25,33.5-19.33,47.68C142.86,477.87,131.55,515.83,131.49,516.55Z"/></g></g><g id="mano_izq" data-name="mano izq"><g id="brazo_izq" data-name="brazo izq"><path class="cls-5" d="M206.86,218.79c1.19-5.76,5.45-7.69,7.37-7.44,3.7.5,67,18.65,68.36,18.18.8-.27,31-32.84,30.75-33.06-1-.82-2.8-6-1.34-10.58s4.74-6.23,6.94-6.53c.12,0-8.45-18.72,1.7-20.45,19-3,14.88,21.76,15.72,21.59,7.19-1.44,4.39-6.25,8.3,3.52-2.7,8.61-6.57,17.24-18.36,23.54-.65.35-30.21,39.48-36.12,41.61-8.88,3.19-75.66-18.26-79.78-21.2C210,227.65,205.75,224.22,206.86,218.79Z"/><path class="cls-6" d="M206.86,218.79c1.19-5.76,5.34-8.1,7.42-7.85l-.11.83c-1.75-.27-6.12,1.26-7.31,7Z"/><path class="cls-7" d="M214.28,210.94l-.11.83"/><path class="cls-6" d="M210.16,228.32a10.36,10.36,0,0,1-3.3-9.53h0c-1.11,5.43,3.36,8.54,3.79,8.84Z"/><path class="cls-7" d="M210.16,228.32l.49-.69"/></g></g><g id="mano_izq_2" data-name="mano izq 2"><g id="brazo_izq-2" data-name="brazo izq"><path class="cls-8" d="M156.47,228.83c.38-5.9-3.31-8.86-5.23-9.12-3.3-.46-61.55-2.05-63-2.41-.06,0-45.74-36.13-45.47-36.57,2.07-3.41,15-16.06.79-25.31-7.84-5.09-13.37,6.15-17.11,10.68-.1.12-17.26-18.09-24.2-7.77C-5,169.08,12.69,178.8,12.42,179c-5.2,4.38-10.11,16.86-4.66,22.2,5.61,5.48,15.5.07,22.64-5.51,0,0,46.17,36.85,52.83,39.35,5.13,1.92,63.42,3,67.31,1.67C151.06,236.56,156.11,234.38,156.47,228.83Z"/><path d="M156.47,228.83c.38-5.9-3.52-8.49-5.29-8.71l.12-.83c2.07.32,5.55,3.64,5.17,9.54Z"/><path class="cls-7" d="M151.18,220.12l.12-.83"/><path d="M150.4,236.35c.5-.17,5.71-2,6.07-7.52h0a10.28,10.28,0,0,1-5.79,8.31Z"/><path class="cls-7" d="M150.4,236.35l.28.79"/></g></g><g id="cuerpo"><g id="cuerpo-2" data-name="cuerpo"><path class="cls-9" d="M180,182.18c-12.52.86-27.44,9.7-35,19.45s-11.06,38.13-11.4,40c-.52,2.78-5.26,40.18-6.63,62.79-1.17,19.23-2.74,45.71,2.42,64.16,2.85,10.19,8.33,24.63,16.4,30.83,10.64,8.18,30.06,9.4,43.05,7.68,14.47-1.91,34.65-9.5,44.46-21.08,5-6,7.66-17.07,9.12-25,3.27-17.73,1.07-42.27-.72-60.25-2-20.09-9.64-55.54-12.62-66-1.88-6.59-6.24-30.65-14.85-39.46C206.34,187.27,191.55,181.4,180,182.18Z"/></g></g><g id="cabeza"><g id="cabeza-2" data-name="cabeza"><path class="cls-10" d="M167.83.51c15.47-.61,14.33,30,29.82,36,17.43,6.73,41.7-4.07,56.24,11.53,9.92,10.64,14.75,54.08,8.46,72.44a27.16,27.16,0,0,0,4.93,26.34c4.72,5.58,13.39,24.55,2,34.63-17.82,15.77-69.44,25-95.39,26.43-19,1.05-86.49-12-94.8-16.1-2.29-1.13-19.32-20.1-4.45-32.23,9.43-7.69,11.81-20.6,7.22-32.53-13.15-34.21-4-66.66,3.45-73.26,20.29-17.86,40-5,58.53-19.28C155.11,25.85,153.57,1.07,167.83.51Z"/></g><g id="boca"><g id="boca-2" data-name="boca"><path class="cls-11" d="M124.77,170.24c3.81.32,15,1.75,20,2,7,.32,25.56-.17,28.53-.3,2.5-.12,18.07-1,23.84-1.84,3.94-.6,18.13-4.75,22.69-5.68,3.07-.62,10.9-2.39,12.07-1.06,1.87,2.12-4.13,15-6.84,18.12-3.46,4-17,10.19-21.8,11.81-5.87,2-24.3,4.23-30,4.41-6.66.21-27.39-.69-35.21-3.07-4.66-1.42-15-6.07-18.64-9.81-3-3.08-9.19-13.67-7.85-15.5C112.52,167.9,122.24,170,124.77,170.24Z"/></g><g id="lengua"><g class="cls-12"><path class="cls-13" d="M137,190.23c-.41-5,7.86-8.92,12.26-11.31,6.17-3.35,15.79-4.83,22.8-5.38,8.76-.69,21.36-1.6,29.17,2.41,3.91,2,10.28,6.27,10.05,10.65-.32,6.14-10.72,10-16.48,12.17-11.86,4.38-30,4.77-42.13,1.19C147.36,198.39,137.45,195.75,137,190.23Z"/></g></g><g id="dientes"><g class="cls-12"><path class="cls-14" d="M71,140.72c2.9,3.58,63.06,1.08,99.93-.9s99.49-9.69,99.54-9.77-3.42-34.29-13-44.3C237.94,65.24,194.35,61.46,166,62.12c-28.58.66-74.15,5.07-91,28.13C66,102.5,69.58,138.91,71,140.72Z"/></g><g class="cls-12"><path class="cls-14" d="M274.9,178.9c-3.23-3.46-64,12.17-101.58,13.91-36.76,1.7-100.1-4.42-100.16-4.34s1.39,45.21,13.61,58.41C106,267.7,150,271.17,178.3,270.51c28.58-.66,73.68-5.41,91-28.12C281,227.2,276.9,181,274.9,178.9Z"/></g></g></g><g id="ojos"><g id="ojos-2" data-name="ojos"><path class="cls-15" d="M96.93,133.64c-2.09-4.5-3.46-17.49-1.59-24.66,3-11.68,10.44-27.07,32.05-27.35,16.66-.22,23.33,9.51,27.8,18.64,4.06,8.29,4.66,21.46,4.51,23.78-.11,1.78-3.35,12.25-6.79,16.26-4.25,5-12.38,9.61-18.74,11.1-7.06,1.65-17.67,1.4-24.09-2C104.63,146.54,99.53,139.23,96.93,133.64Z"/><path d="M95,108.89c3-11.71,10.31-27.83,32.37-28.23l0,1.94c-21.16.17-28.72,14.82-31.74,26.46Z"/><path class="cls-7" d="M95,108.89l.65.17"/><path d="M127.38,80.66c17-.15,24.17,10,28.68,19.19l-1.73.85c-4.43-9.08-10.65-18.39-26.93-18.1Z"/><path class="cls-7" d="M127.38,80.66l0,1.94"/><path d="M156.06,99.85c4.12,8.5,4,21.87,3.88,24.21l-.48,0c.15-2.3-1.15-15.27-5.13-23.33Z"/><path class="cls-7" d="M156.06,99.85l-1.73.85"/><path d="M153.1,140.48c-4.29,5-12.42,9.79-18.84,11.29l-.17-.72c6.3-1.47,14.41-6,18.63-10.9Z"/><path class="cls-7" d="M153.1,140.48l-.38-.33"/><path d="M134.26,151.77c-7.12,1.66-17.88,1.6-24.44-1.84l.53-1c6.26,3.33,16.73,3.77,23.74,2.13Z"/><path class="cls-7" d="M134.26,151.77l-.17-.72"/><path d="M109.82,149.93c-5.58-3-10.46-10.6-13.07-16.21l.36-.17c2.59,5.57,7.92,12.58,13.24,15.37Z"/><path class="cls-7" d="M109.82,149.93l.53-1"/><path class="cls-15" d="M246.86,127c1.68-4.66,1.89-17.7-.59-24.67C242.22,91,233.46,76.37,211.92,78c-16.6,1.26-22.4,11.51-26,21-3.31,8.6-2.75,21.75-2.39,24.05.27,1.76,4.42,11.88,8.2,15.57,4.67,4.56,13.18,8.46,19.64,9.38,7.18,1,17.73-.16,23.82-4.1C240.32,140.54,244.76,132.82,246.86,127Z"/><path d="M246,102.47C241.92,91.15,233.08,77.26,212,79L211.85,77c22-1.55,30.67,13.82,34.73,25.22Z"/><path class="cls-7" d="M246,102.47l.63-.22"/><path d="M212,79c-16.23,1.15-21.61,11-25.23,20.38L185,98.65c3.68-9.56,9.9-20.27,26.87-21.62Z"/><path class="cls-7" d="M212,79,211.85,77"/><path d="M186.77,99.34c-3.25,8.37-3.4,21.38-3.05,23.66l-.47.07c-.36-2.32-1.63-15.6,1.73-24.42Z"/><path class="cls-7" d="M186.77,99.34,185,98.65"/><path d="M191.86,138.43c4.64,4.53,13.12,8.29,19.52,9.19l-.1.74c-6.53-.93-15.05-5-19.77-9.57Z"/><path class="cls-7" d="M191.86,138.43l-.35.36"/><path d="M211.38,147.62c7.13,1,17.52-.34,23.46-4.21l.62,1c-6.23,4-16.94,5-24.18,4Z"/><path class="cls-7" d="M211.38,147.62l-.1.74"/><path d="M234.84,143.41c5-3.24,9.74-10.68,11.83-16.45l.38.14c-2.11,5.8-6.3,13.82-11.59,17.27Z"/><path class="cls-7" d="M234.84,143.41l.62,1"/></g><g id="pupilas"><path class="cls-16" d="M138.53,113.42c4-.17,7.43,4.15,7.67,9.68s-2.78,10.14-6.78,10.32-7.43-4.15-7.67-9.68S134.53,113.6,138.53,113.42Z"/><path class="cls-16" d="M202.05,110.34c4-.18,7.43,4.15,7.68,9.68s-2.79,10.14-6.79,10.32-7.42-4.15-7.67-9.68S198.05,110.52,202.05,110.34Z"/></g></g><g id="cejas"><g class="cls-17"><path class="cls-18" d="M93.8,67.86s14-6.18,27.1-7.17c13.69-1,29.14,3.19,29.14,3.19"/></g><g class="cls-17"><path class="cls-18" d="M240.4,60.19S224.8,56.84,213.57,57c-11.73.2-27.91,4.27-27.91,4.27"/></g></g><g id="nariz"><g class="cls-17"><path class="cls-16" d="M163.21,143.92c.3-.78,1.87-1.09,2.67-.84,1.75.53,3.71,4.08,3.2,5.19-.25.52-3.21-1.27-4.38-1.8C163.69,146,162.88,144.75,163.21,143.92Z"/></g><g class="cls-17"><path class="cls-16" d="M181.19,143.12c-.38-.75-2-.92-2.74-.6-1.69.69-3.34,4.39-2.73,5.45.3.51,3.09-1.55,4.2-2.18S181.58,143.92,181.19,143.12Z"/></g></g></g></g><rect class="cls-19" x="271.04" y="189.22" width="99.71" height="17.57" transform="translate(55.74 466.1) rotate(-76.99)"/><rect class="cls-20" x="267.78" y="191.94" width="99.71" height="9.54" transform="translate(54.47 461.91) rotate(-76.99)"/><path class="cls-21" d="M318.75,249.26l-11.87,15.36a1.32,1.32,0,0,1-1.75.46,1.34,1.34,0,0,1-.58-.81l-4.07-19.2Z"/><path d="M303.74,260.43l.81,3.72a1.17,1.17,0,0,0,1.51.93,1.36,1.36,0,0,0,.82-.58l2.33-2.91Z"/><path class="cls-22" d="M337,138.49l-3.37-.7c-4.65-1-8.84,2.56-9.42,4.89h0c-.59,2.32-.59,4.42,1.86,5l12.1,2.79c2.32.58,3.14-1.28,3.6-3.72h0C342.48,144.42,340.62,139.3,337,138.49Z"/><path class="cls-23" d="M322.94,145.24l19.31,4.42a.86.86,0,0,1,.58.81l-1.63,7.22a.87.87,0,0,1-.81.58l-19.32-4.42a.88.88,0,0,1-.58-.82l1.63-7.21C322.12,145.35,322.47,145.12,322.94,145.24Z"/><path class="cls-24" d="M328,189.89c1-5.24,2.29-13.79,7.37-14.83S350,179,345,189.37s-17.21,18.45-17.21,18.45S326.72,196.42,328,189.89Z"/><path class="cls-25" d="M307.44,184.6c.63-3.33,6.84-11.82,11.71-10.68s9,14.79-.52,25C313.81,204.08,304.43,200.46,307.44,184.6Z"/></g></g></svg>