<svg xmlns="http://www.w3.org/2000/svg" xmlns:xlink="http://www.w3.org/1999/xlink" viewBox="0 0 433.49 353.01"><defs><style>.cls-1,.cls-6{fill:none;}.cls-1,.cls-10,.cls-3,.cls-4,.cls-5,.cls-6,.cls-7,.cls-8{stroke:#000;stroke-miterlimit:10;}.cls-1,.cls-3,.cls-4,.cls-5,.cls-8{stroke-width:0.5px;}.cls-2,.cls-5{fill:#d89955;}.cls-3{fill:#cf9c5d;}.cls-4{fill:#ffe8c6;}.cls-13,.cls-6{stroke-linecap:round;}.cls-12,.cls-7{fill:#fff;}.cls-7{stroke-width:0.75px;}.cls-11,.cls-8{fill:#fea49c;}.cls-9{clip-path:url(#clip-path);}.cls-10{fill:#7e2d3a;}.cls-13{fill:#a0dbf0;stroke:#4a91cd;stroke-linejoin:round;}</style><clipPath id="clip-path"><path class="cls-1" d="M337.24,243.51c-11.29,2.2-45.11,18.05-82.72,13.41s-62.65-12.33-75.3-19.1c-12.1-6.48-25.5-4.25-30,3.31-6,10.23.62,33,22.73,44.48s54.62,21.65,88.48,16.79,55.77-15.55,65.67-30S339.66,243.05,337.24,243.51Z"/></clipPath></defs><title>Correct feedbacK_Zorro</title><g id="Layer_2" data-name="Layer 2"><g id="Layer_1-2" data-name="Layer 1"><path class="cls-2" d="M311.61,309.85c12-5.75,58.48-46.2,74.76-65a237,237,0,0,0,25.8-35.47c.35-.58,23.16-3.21,18.47-28.1-3.47-18.34-12.47-26.43-24.94-27-47.51-2.12-26.71,37.33-29,40.2s-16.54,31.56-26.51,41.44-44.86,45.88-53.5,49.7-9.3,16.25-5,22S306.3,312.4,311.61,309.85Z"/><path class="cls-1" d="M311.61,309.85c12-5.75,58.48-46.2,74.76-65a237,237,0,0,0,25.8-35.47c.35-.58,23.16-3.21,18.47-28.1-3.47-18.34-12.47-26.43-24.94-27-47.51-2.12-26.71,37.33-29,40.2s-16.54,31.56-26.51,41.44-44.86,45.88-53.5,49.7-9.3,16.25-5,22S306.3,312.4,311.61,309.85Z"/><path class="cls-3" d="M68.3,352.76h69.15c-17.21-35.27-45.76-66.73-83.87-65-14.83.35-6.12,8,0,13.28C58.83,305.52,73.53,327.46,68.3,352.76Z"/><path class="cls-4" d="M143.61,352.76c-4.31-12.73-12.15-26.67-28.76-40.2-31.94-26-64.64-29.45-70.12-23.16s13.46,9.06,21.9,34.12a45.28,45.28,0,0,1,0,29.24Z"/><path class="cls-5" d="M332.14,352.65c-.74-2.22-1.52-4.44-2.37-6.68-27.15-71.15-54-76.08-80.57-71.77-37.25,6-38.78,38.91-38.37,78.45Z"/><path class="cls-5" d="M217.74,305.41c-6.53.87-51.81,23.31-66.52,47.24h35.05c10.15-6.83,25.25-13.6,31.72-14.24"/><path class="cls-4" d="M238.61,352.65c3.11-4,6.4-7.58,8.53-7.42,1.42.11,4.91,3.19,10,7.42h62.18a154.77,154.77,0,0,0-2.91-27.89s5.82,3.68,7.3,6.28c0,0-13.53-30.05-22.09-37.87s-25.41-2.28-25.41-2.28c-16,0-36.72,11.23-44.91,39.14-2,7.31-2.43,16-2.2,22.62Z"/><path class="cls-5" d="M236.77,122.52c-9.34-17.8-13-38-3.3-64.07S264.24-2.31,272.35.4s39.7,43.35,51.71,84.51c6.34,21.71-8.64,49.8-16.3,55.61"/><path class="cls-5" d="M172.7,86.18C211.78,70.33,262,70,296.27,92.88s54.79,90,67,112.4c2.23,4.1,19.23-1.95,24.19,1.86s6.33,11.13-5.58,40.2S305,315.45,229,312.11,126.3,285,105,239.2,99.5,115.88,172.7,86.18Z"/><path class="cls-6" d="M189.08,146.66c.37-10.37,5-34.8,20.28-36.84s24.94,11.72,24.94,11.72"/><path class="cls-6" d="M285.35,118.93c.38-8.56,1.35-23.09,10.55-22.89,4.91.11,16.45,11.69,19.53,15.86"/><path class="cls-5" d="M145.66,122.05C135,100.71,117.92,83.11,85.38,74S3.77,60.71.57,70.31s18.14,67.48,45.34,108.28c14.93,22.4,54.94,26.67,66.14,23.47"/><path class="cls-7" d="M188.91,183.73c3.86-7.43,13.7-19.76,29.7-21.75s30.52,10.18,36.47,22.34,4.2,18,.83,23.91S240.16,227.49,218.36,225c-21.28-2.42-27.17-10.12-31.14-15.33S185.77,189.76,188.91,183.73Z"/><ellipse cx="240.68" cy="192.29" rx="10.92" ry="14.05" transform="translate(-22.96 32.93) rotate(-7.47)"/><path class="cls-7" d="M311.68,148.87c4.63-1.91,15.12,3.35,21.07,13.61,5.72,9.88,9.32,24.23-1.06,32.07s-21.34,2.5-27.23-5C300,183.82,297.73,154.64,311.68,148.87Z"/><ellipse cx="321.14" cy="177.03" rx="8.62" ry="12.99" transform="translate(-20.29 43.26) rotate(-7.47)"/><path class="cls-5" d="M221.46,86.37c4.47-3,2.79-11.73-3.16-18.8s-23.82-15.82-34.62-11.35,6.14,17.68,11.73,20.28c0,0-15.82-5.77-27.92-1.49s-6.88,14.71,13.77,14.89"/><path class="cls-8" d="M112.34,202.8s2.91-63.68-37.63-99.15S5.8,67.32,1.64,70.31c-6.23,4.46,12.81,50.77,30.4,84.81C46.9,183.88,62.2,206.8,112.34,202.8Z"/><path class="cls-4" d="M365,206.52s-29.43,23.14-61.25,28.54-45.41,9.49-83.19-1.86S169,202.31,140.88,213.47,109.49,245.42,116.19,259s27.34,36,55.44,44.17,66.87,12.11,100.12,6.66c28.05-4.61,51.67-13.37,71.77-25.15s32.35-24.76,37.87-35.94c5.86-11.88,10-29.37,9.67-33.72s-1.25-8.33-6.55-9.08c-1.55-.23-7.4.07-13.74.71A19.59,19.59,0,0,1,365,206.52Z"/><g class="cls-9"><path class="cls-10" d="M337.24,243.51c-11.29,2.2-45.11,18.05-82.72,13.41S191,246,179.22,237.82s-24.73-7.37-30,3.31.62,33,22.73,44.48,54.62,21.65,88.48,16.79,55.77-15.55,65.67-30S339.66,243.05,337.24,243.51Z"/><path class="cls-11" d="M306,244.54c11.25,5.37,28.24,21.21,27.62,32.91s-77.7,60.49-129.69,36.79-85.4-42.64-76.18-68.59,13.56-37.79,49.44-27.16S299.85,241.63,306,244.54Z"/><path class="cls-12" d="M142.76,233.32c3.07,11,39.39,33.2,79.36,35.74s75.74,3.47,97.27-6.95,30.34-15.79,33.53-24.21S336,211.66,336,211.66s-74.86,26.76-99.1,20.82-78.11-25.89-88-32S139.45,221.52,142.76,233.32Z"/></g><path class="cls-1" d="M337.24,243.51c-11.29,2.2-45.11,18.05-82.72,13.41s-62.65-12.33-75.3-19.1c-12.1-6.48-25.5-4.25-30,3.31-6,10.23.62,33,22.73,44.48s54.62,21.65,88.48,16.79,55.77-15.55,65.67-30S339.66,243.05,337.24,243.51Z"/><path d="M379.52,205.9c1.81,0,5.83-.12,7.51.81s3.84,2.79,4.34,7-6.89,9.37-9.18,9.62-11.73-2.8-13.84-8.25.5-7.51,2.49-8.07A41.28,41.28,0,0,1,379.52,205.9Z"/><path class="cls-13" d="M416.64,236.76s-8.43,24,16.35,31.17c0,0-30.15-11.49-38.07,5.37,0,0,2.3-29.89-2.55-32.19C392.37,241.11,412.55,241.62,416.64,236.76Z"/><path class="cls-13" d="M140.23,295s-19,14.61-19.48,20.37c0,0-17.27-25.24-24.8-26.56,0,0,19.48-3.55,21.7-11.07C117.65,277.71,120.3,290.55,140.23,295Z"/></g></g></svg>