<svg xmlns="http://www.w3.org/2000/svg" xmlns:xlink="http://www.w3.org/1999/xlink" viewBox="0 0 144.71 120.03"><defs><style>.cls-1,.cls-2,.cls-6{fill:none;}.cls-1,.cls-11,.cls-5,.cls-6,.cls-7,.cls-8,.cls-9{stroke:#000;stroke-miterlimit:10;}.cls-1,.cls-5,.cls-8,.cls-9{stroke-width:0.25px;}.cls-3,.cls-5{fill:#d89955;}.cls-4,.cls-9{fill:#ffe8c6;}.cls-14,.cls-6{stroke-linecap:round;}.cls-6{stroke-width:0.75px;}.cls-13,.cls-7{fill:#fff;}.cls-7{stroke-width:0.5px;}.cls-12,.cls-8{fill:#fea49c;}.cls-10{clip-path:url(#clip-path);}.cls-11{fill:#7e2d3a;}.cls-14{fill:#a0dbf0;stroke:#4a91cd;stroke-linejoin:round;}</style><clipPath id="clip-path"><path class="cls-1" d="M111.75,83.88c-3.72.73-14.89,6-27.3,4.43S63.76,84.24,59.59,82c-4-2.14-8.42-1.4-9.9,1.1-2,3.38.21,10.9,7.51,14.68s18,7.15,29.21,5.55,18.41-5.14,21.68-9.92S112.55,83.73,111.75,83.88Z"/></clipPath></defs><title>Correct feedbacK_zorro</title><g id="Layer_2" data-name="Layer 2"><g id="Layer_1-2" data-name="Layer 1"><rect class="cls-2" width="144.71" height="120.03"/><path class="cls-3" d="M103.29,105.78c4-1.89,19.31-15.25,24.68-21.45a77.58,77.58,0,0,0,8.52-11.72c.11-.19,7.65-1.06,6.1-9.27-1.15-6.06-4.12-8.73-8.24-8.91-15.68-.7-8.81,12.32-9.58,13.27S119.31,78.12,116,81.38,101.21,96.53,98.36,97.79s-3.07,5.36-1.65,7.26S101.54,106.62,103.29,105.78Z"/><path class="cls-1" d="M103.29,105.78c4-1.89,19.31-15.25,24.68-21.45a77.58,77.58,0,0,0,8.52-11.72c.11-.19,7.65-1.06,6.1-9.27-1.15-6.06-4.12-8.73-8.24-8.91-15.68-.7-8.81,12.32-9.58,13.27S119.31,78.12,116,81.38,101.21,96.53,98.36,97.79s-3.07,5.36-1.65,7.26S101.54,106.62,103.29,105.78Z"/><path class="cls-4" d="M22.09,120h25.3c-1-4-3.68-9-9-13.35C27.79,98.08,17,97,15.18,99s4.45,3,7.23,11.27A12.86,12.86,0,0,1,22.09,120Z"/><path d="M22,120h.28a13,13,0,0,0,.3-9.77,18.38,18.38,0,0,0-5.92-8.5c-1.46-1.3-2-1.85-1.33-2.64,1.68-1.92,12.37-1,23,7.65,4.73,3.86,7.91,8.67,9,13.26h.26c-1.1-4.67-4.31-9.54-9.11-13.45C27.51,97.69,16.86,96.92,15.09,99c-.88,1,0,1.8,1.35,3a18.3,18.3,0,0,1,5.86,8.4A12.74,12.74,0,0,1,22,120Z"/><path class="cls-3" d="M110.11,120c-.22-.66-.57-1.66-.82-2.32-9-23.49-17.84-25.12-26.6-23.7C70.46,96,70,107.08,70.14,120Z"/><path d="M70.26,120c-.13-13.76.63-24,12.45-25.89,7.94-1.29,17.21-.64,26.46,23.61.23.61.57,1.59.81,2.28h.26c-.24-.72-.6-1.74-.84-2.36-9.32-24.43-18.68-25.09-26.73-23.78-5.73.93-9.26,3.75-11.1,8.88C69.93,107.36,70,113.73,70,120Z"/><path class="cls-3" d="M62.38,120c3.34-2.18,7.94-4.61,10-4.82l-.08-10.89c-2.13.28-16.69,7.9-21.69,15.71Z"/><path d="M62.61,120c3.3-2.12,7.77-4.49,9.79-4.7l0-.24c-2.12.21-6.87,2.73-10.22,4.94Z"/><path d="M50.76,120c5-7.77,19.43-15.31,21.56-15.59l0-.25c-2.15.29-16.83,8-21.82,15.84Z"/><path class="cls-4" d="M79.49,120c1-1.22,1.86-2.62,2.52-2.57.44,0,1.62,1.3,3.13,2.57h20.8a54.13,54.13,0,0,0-1.08-9.32,9.68,9.68,0,0,1,2.41,2.07s-4.47-9.92-7.29-12.5-8.39-.76-8.39-.76c-5.28,0-12.12,3.71-14.82,12.93a27.94,27.94,0,0,0-.62,7.58Z"/><path d="M82,117.34H82c-.61,0-1.35,1.08-2.63,2.69h.32c.6-.75,1.63-2.44,2.31-2.44h0c.37,0,1.5,1.23,2.79,2.3L85,120h.39L85,119.7C83.53,118.51,82.47,117.37,82,117.34Z"/><path d="M76.28,120a27.17,27.17,0,0,1,.61-7.55c2.6-8.86,9.26-12.83,14.7-12.83h0c.06,0,5.52-1.77,8.27.73,2.29,2.1,5.74,9.2,6.88,11.63a14.07,14.07,0,0,0-1.85-1.4l-.25-.16.06.29a53,53,0,0,1,1.07,9.3h.25a55.85,55.85,0,0,0-1-9,8.45,8.45,0,0,1,2.12,1.86l.22-.11c-.18-.41-4.51-10-7.33-12.55s-8.07-.92-8.49-.78c-5.53,0-12.29,4-14.92,13A27.34,27.34,0,0,0,76,120Z"/><path class="cls-5" d="M78.58,43.94c-3.08-5.88-4.29-12.53-1.09-21.15S87.65,2.73,90.33,3.62s13.11,14.32,17.07,27.9c2.1,7.17-2.85,16.44-5.38,18.36"/><path class="cls-5" d="M57.43,31.94c12.9-5.23,29.49-5.34,40.8,2.21s18.09,29.73,22.12,37.11c.73,1.35,6.34-.64,8,.62s2.09,3.67-1.84,13.27S101.09,107.63,76,106.53s-33.92-9-41-24.07S33.27,41.75,57.43,31.94Z"/><path class="cls-6" d="M62.84,51.91c.12-3.43,1.66-11.49,6.7-12.16s8.23,3.87,8.23,3.87"/><path class="cls-6" d="M94.62,42.76c.13-2.83.45-7.63,3.48-7.56,1.63,0,5.44,3.86,6.45,5.23"/><path class="cls-5" d="M48.5,43.78c-3.52-7-9.15-12.85-19.89-15.84S1.66,23.53.61,26.7s6,22.28,15,35.75c4.93,7.4,18.14,8.8,21.84,7.75"/><path class="cls-7" d="M62.78,64.15c1.28-2.45,4.53-6.53,9.81-7.18s10.07,3.36,12,7.37,1.39,5.93.27,7.9a12.57,12.57,0,0,1-12.39,5.54c-7-.8-9-3.34-10.28-5.06S61.75,66.14,62.78,64.15Z"/><ellipse cx="79.88" cy="66.97" rx="3.61" ry="4.64" transform="translate(-8.03 10.95) rotate(-7.47)"/><path class="cls-7" d="M103.32,52.64c1.52-.63,5,1.1,7,4.49s3.08,8-.35,10.59-7,.82-9-1.66C99.46,64.18,98.71,54.54,103.32,52.64Z"/><ellipse cx="106.44" cy="61.93" rx="2.85" ry="4.29" transform="translate(-7.15 14.36) rotate(-7.47)"/><path class="cls-5" d="M73.53,32c1.47-1,.92-3.87-1-6.2s-7.87-5.22-11.43-3.75,2,5.84,3.87,6.7c0,0-5.22-1.91-9.22-.49s-2.27,4.85,4.55,4.91"/><path class="cls-8" d="M37.51,70.44s1-21-12.43-32.73S2.33,25.72,1,26.7c-2.06,1.47,4.23,16.76,10,28C15.9,64.2,21,71.76,37.51,70.44Z"/><path class="cls-9" d="M120.91,71.67s-9.72,7.64-20.22,9.42-15,3.14-27.47-.61S56.2,70.28,46.93,74,36.56,84.51,38.78,89s9,11.88,18.3,14.58a80.25,80.25,0,0,0,33.05,2.2,68.16,68.16,0,0,0,23.7-8.31c6.63-3.89,10.68-8.17,12.5-11.86,1.93-3.92,3.31-9.7,3.19-11.13s-.41-2.75-2.16-3a32.16,32.16,0,0,0-4.54.23A6.61,6.61,0,0,1,120.91,71.67Z"/><g class="cls-10"><path class="cls-11" d="M111.75,83.88c-3.72.73-14.89,6-27.3,4.43s-21-3.6-24.86-6.31-8.17-2.43-9.9,1.1S49.9,94,57.2,97.78s18,7.15,29.21,5.55,18.41-5.14,21.68-9.92S112.55,83.73,111.75,83.88Z"/><path class="cls-12" d="M101.42,84.22c3.72,1.77,9.33,7,9.12,10.87s-25.65,20-42.81,12.14S39.53,93.15,42.58,84.59s4.47-12.48,16.32-9S99.41,83.26,101.42,84.22Z"/><path class="cls-13" d="M47.55,80.52c1,3.62,13,11,26.2,11.8s25,1.14,32.11-2.3,10-5.21,11.07-8-5.59-8.66-5.59-8.66S86.63,82.2,78.63,80.24s-25.79-8.55-29-10.57S46.46,76.62,47.55,80.52Z"/></g><path class="cls-1" d="M111.75,83.88c-3.72.73-14.89,6-27.3,4.43S63.76,84.24,59.59,82c-4-2.14-8.42-1.4-9.9,1.1-2,3.38.21,10.9,7.51,14.68s18,7.15,29.21,5.55,18.41-5.14,21.68-9.92S112.55,83.73,111.75,83.88Z"/><path d="M125.71,71.47a6.88,6.88,0,0,1,2.48.26,2.83,2.83,0,0,1,1.43,2.32c.17,1.39-2.27,3.09-3,3.17s-3.87-.92-4.57-2.72.17-2.48.82-2.66A13.38,13.38,0,0,1,125.71,71.47Z"/><path class="cls-14" d="M138,81.66s-2.78,7.92,5.4,10.28c0,0-10-3.79-12.56,1.78,0,0,.76-9.87-.85-10.63C130,83.09,136.62,83.26,138,81.66Z"/><path class="cls-14" d="M46.71,100.87s-4.51,4.29-4.65,6.19c0,0-8.69-7.11-11.17-7.55,0,0,7.64-1.85,8.37-4.34C39.26,95.17,40.13,99.41,46.71,100.87Z"/></g></g></svg>