<svg xmlns="http://www.w3.org/2000/svg" viewBox="0 0 398.34 354.08"><defs><style>.cls-1,.cls-4,.cls-7{fill:#c0a5b4;}.cls-1,.cls-2,.cls-3,.cls-4,.cls-5,.cls-6,.cls-7,.cls-8,.cls-9{stroke:#000;stroke-miterlimit:10;}.cls-1,.cls-8{stroke-linecap:round;}.cls-1,.cls-2,.cls-3,.cls-4,.cls-5,.cls-8,.cls-9{stroke-width:0.5px;}.cls-2{fill:#f7e8ed;}.cls-3{fill:#ffe3c3;}.cls-5{fill:#674a5c;}.cls-6{fill:#fff;}.cls-7{stroke-width:0.75px;}.cls-8{fill:none;}.cls-9{fill:#615a52;}</style></defs><title>Mistake feedback_alce</title><g id="Layer_2" data-name="Layer 2"><g id="Layer_1-2" data-name="Layer 1"><path class="cls-1" d="M228.47,352.76h122c-1.72-5.08-3.6-9.95-5.62-14.49-16.34-36.75-41.26-63.56-65.68-62.66-37.52,1.38-52.51,31.08-49.82,54.61A90.2,90.2,0,0,1,228.47,352.76Z"/><path class="cls-2" d="M244.12,327.24c2.14,3.91,12,3.13,13.45,4.9.74.88,2.34,10.73,4.46,20.62h87.66c-2.13-6.18-4.19-11.61-5.33-14-4-8.36-14.11-35-39.67-54.34-14.43-10.89-39.5-12.65-58.86,3.92-.86.72,12.71,2.87,12.42,9.16S242,323.34,244.12,327.24Z"/><path class="cls-1" d="M241.68,292.88c-7.57-.24-64.37,24.66-74.31,50.91-1,3-.6,6.44.69,10H197c-.76-2-1-3.81-.5-5.2,2.8-7.66,35.45-18,45.49-17.3"/><path class="cls-3" d="M261.81,76.4c13.66-3.07,29.29-2.75,39.57-19.83s12.89-23.21,13.41-34,1.52-14.2,8-15.1S328.62,20.06,336.17,21,341.4.53,352.27.25s11.15,13.64,14.29,23.07,12.87-4.05,13.88-10.48,17.7-10.39,17.65,19.91S357.37,80.88,335.9,86.24s-55.81,5.68-67.26,2.38S254.13,78.13,261.81,76.4Z"/><path class="cls-1" d="M291.66,101.44c13.94,5.51,29.44,7.81,45.61,8.13,23.23.46,47.7-18.67,51.87-16.1s6.19,16.58-5.51,32.66S348.34,160.8,328,162.67"/><path class="cls-4" d="M265.68,63.15c42.07,7,81.39,24.6,95.54,64.22,12.51,35,14.51,78.07,10,96.08-4.45,17.79.24,45.76,3,51.55s1,17-13,30.52c-23.61,22.77-90.58,38.54-148.19-.42-55.46-37.52-69.5-76.14-73.5-127.19C135.41,125.43,173,47.77,265.68,63.15Z"/><path class="cls-1" d="M141.15,152.58c-3.75,14.51-11,28.4-20.26,41.66-13.31,19-43.17,27.58-43.54,32.46s9.76,14.77,29.65,14.77,48.79-8.14,62.3-23.52"/><path class="cls-5" d="M197.83,88.46s-7-12.39-3.19-26.84,14.07-34.15,46.35-28c0,0-22.33.38-28.71,19.14,0,0,17.45-10.88,35.84-1.87s34.53,30.21,34.53,30.21-18-8.82-32.46-11.26-26.28,12-26.28,12"/><path class="cls-3" d="M185.85,116.44c-17.49,2.88-37.86,8.75-58-6.41s-24-19.17-29.7-31.59S89.57,62.51,81.54,64.53s-.86,17.54-9.27,22.26S56.4,65.22,43.51,70.07s-6.6,21.3-5.8,33.86-17,1.37-21.27-5.7S-9.27,94.45,5.19,130s70.66,37.12,98.4,33.21,68.18-19.86,80-29.17S195.68,114.82,185.85,116.44Z"/><path class="cls-6" d="M262,223.77c.71-14.35-10.05-39.46-22.25-39.46-14.42,0-28,15.78-28.7,37.31s22.25,31.57,38.75,23.67C258.39,238.84,261.4,235.32,262,223.77Z"/><ellipse cx="247.81" cy="217.35" rx="12.46" ry="17.13" transform="translate(-26.16 34.06) rotate(-7.47)"/><path class="cls-6" d="M317.26,206.65c.4-13.72,6.3-30,16.34-31.5,11.37-1.71,24.69,12.29,25.82,33.58,1.08,20.55-19.85,29.2-32.45,21C320.55,223.22,316.94,217.69,317.26,206.65Z"/><ellipse cx="339.94" cy="205.45" rx="11.02" ry="15.46" transform="translate(-8.1 14.04) rotate(-2.34)"/><path class="cls-7" d="M203.46,182c10.88,6.69,21,12.26,36.41,10.19A53,53,0,0,0,264.92,182"/><path class="cls-7" d="M314.56,153.77c3-8.26,7.88-16.71,19.51-16.52,15.53.25,18.39,17.27,18.39,17.27"/><path class="cls-8" d="M289.6,282.88c-2.37-.08-5.3,1.89-6.81,6.15s1.15,8.11,1.15,8.11"/><ellipse cx="293.87" cy="289.21" rx="2.21" ry="2.39"/><path class="cls-1" d="M342.34,352.76H380c-5.47-7.86-11-16.55-10.28-16.95,2.46-1.35,18.43-14.81,18.71-20.28s-14.58-32.34-24.54-33.78-26.61,14.17-30.43,21.91c-1.65,3.33-6.6,11,5.18,40.91A87.57,87.57,0,0,0,342.34,352.76Z"/><path class="cls-9" d="M346.18,329c-6.79-4.6-15.15-16.63-15.15-16.63,1.32-11.39,5.91-17.53,12.53-23.41,6.4-5.68,16.17-8,20.66-7.14s10.46,7.25,17.93,19c7.83,15.48,6.74,16.07,5.14,19.16s-4.52,7.73-7.73,10.46-7.36,5.61-9.85,5.38C369.71,335.81,352.07,333,346.18,329Z"/></g></g></svg>