<svg xmlns="http://www.w3.org/2000/svg" viewBox="0 0 370.41 338.85"><defs><style>.cls-1,.cls-7{fill:#d89955;}.cls-1,.cls-2,.cls-3,.cls-4,.cls-5,.cls-6,.cls-7{stroke:#000;stroke-miterlimit:10;}.cls-1,.cls-2,.cls-3,.cls-6{stroke-width:0.5px;}.cls-2{fill:#cf9c5d;}.cls-3{fill:#ffe8c6;}.cls-4{fill:none;stroke-linecap:round;}.cls-5{fill:#fff;stroke-width:0.75px;}.cls-6{fill:#fea49c;}</style></defs><title>Mistake feedback_Zorro</title><g id="Layer_2" data-name="Layer 2"><g id="Layer_1-2" data-name="Layer 1"><path class="cls-1" d="M350.07,338.6c-2-14.3-6.46-32.91-11.52-45.74-8.74-22.09-27-21.43-33.89-17.13-15.87,9.9.75,48,9.31,62.87Z"/><path class="cls-2" d="M59.57,324.05c-3,4.5-6,9.38-8.72,14.55h88.2c-10.21-43-35.72-89.19-79.68-92.9-14.71-1.56-7.09,7.16-1.7,13.13S78.14,295.91,59.57,324.05Z"/><path class="cls-3" d="M47.22,338.6h94.85c-1.06-16.93-3.84-37.82-25.3-60.5-28.24-29.86-60.14-37.42-66.37-31.91s12.15,10.69,17.27,36.55C72.56,307.41,56.84,322.53,47.22,338.6Z"/><path class="cls-1" d="M324.94,338.6c-17.7-73.7-43.64-82-70.41-81.17-40.31,1.27-44,38.29-49,81.17Z"/><path class="cls-1" d="M219.41,284.24c-7.48,0-68.38,21.31-77.28,47.59a13.16,13.16,0,0,0,0,6.77h28.92a5.66,5.66,0,0,1,0-3c2.49-7.66,34.4-19,44.34-18.68"/><path class="cls-3" d="M229.15,338.6c4.52-4.72,11.14-11.85,14.22-11.2,1.62.34,5.54,5.06,11.3,11.2h59.59a145.39,145.39,0,0,0,.19-22.55s5.28,4.38,6.42,7.15c0,0-9.53-31.46-17-40.28s-24.82-5.52-24.82-5.52c-15.83-2.06-37.76,6.38-49.44,32.93-4,9.49-5.38,22-5.43,28.27Z"/><path class="cls-1" d="M259.32,111.52c-5.13-19.37-4.22-39.78,11-63S313.72-3.73,321,.7s25.94,52.93,31.52,93.62c3.07,22.34-19.45,46.5-28.18,50.45"/><path class="cls-1" d="M205.1,62c41.5-6.75,90.43,4.09,118.64,33.92s28.42,70.68,35.33,95.13c1.26,4.48,5.58,14,8.16,19.67C372.8,223,370,241.51,345,268.61c-13.36,14.47-85.81,39.17-159.82,22.88-66.31-14.6-69.23-46.57-79.83-95.78S127.36,74.62,205.1,62Z"/><path class="cls-4" d="M280.88,147.76c2.26-8.24,10.82-19.38,19.8-21.29,14.62-3.11,21.53,5.57,23.5,9.16"/><path class="cls-1" d="M147.18,89.58C135.65,68.77,117.91,52,85.12,44.28S3.26,34.41.47,44.11s20.9,66.47,49.71,106C66,171.77,106,174.35,117.05,170.69"/><path class="cls-5" d="M187.55,206.56c3-7.26,20.44-22.82,35.58-22.61s27.1,13.36,31.08,25.43,2,16.5-1.91,21.6-17.49,16.64-37.47,11.54c-19.49-5-23.38-14.74-26.41-20.09S185.16,212.33,187.55,206.56Z"/><ellipse cx="241.33" cy="212.01" rx="10.89" ry="14.01"/><path class="cls-5" d="M319.18,168c6-1.08,18.5,6,21.84,17s5.18,25.44-9.18,31.35-26.15-1.24-31.34-9.65C296.56,200.33,301.05,171.24,319.18,168Z"/><ellipse cx="326.56" cy="193.42" rx="8.6" ry="12.95" transform="translate(-3.51 6.05) rotate(-1.06)"/><path class="cls-1" d="M237.62,69.27c5-1.9,5.31-10.78,1.09-19s-19.65-20.66-31.13-18.71,2,18.54,6.9,22.31c0,0-14.1-9.11-26.81-7.63S177.72,59,197.76,63.79"/><path class="cls-6" d="M117.38,171.42s.22-63.57-41.65-97.2S5.56,40.92,1.54,44.07c-6,4.7,14.89,50,33.84,83.21C51.39,155.31,67.59,177.51,117.38,171.42Z"/><path class="cls-3" d="M325.17,254.63s-9.14,2.52-43.67,9.52a207.93,207.93,0,0,1-76.07,1.49c-17.94-3-24.35-2.84-58.64-20.66-28.08-14.6-39.87-38.81-36.37-24.12s9,42.65,34.52,56.84,70.68,20.42,104.28,20c32.66-.37,55.93-4.72,76.26-16,22.82-12.62,25.49-19.48,33.34-29.13,8.33-10.25,12.62-25.36,11-34.14-1.12-6.09-3.09-13.86-7.8-19.8-1-1.21-5.19,19.8-13.36,33.16S325.17,254.63,325.17,254.63Z"/><path d="M322.41,249.91c1.65-.72,5.27-2.44,7.18-2.26s4.62,1,6.76,4.66-2.54,11.31-4.54,12.46-11.82,2.14-15.93-2-2.55-7-1-8.35A41.38,41.38,0,0,1,322.41,249.91Z"/><path class="cls-7" d="M182.13,178.59c12.29,6,23.17,9.49,39.87,9.73,15.35.23,27.46-11.75,27.46-11.75"/><path class="cls-1" d="M338.63,266.3c-17.76-1.56-27,16.31-26.18,24.79,1.76,17.2,16.3,18.59,16,21-.7,5.42-2.39,12.66-2.06,19.69.11,2.34.22,4.6.35,6.78h28.6c0-1,.05-1.87,0-2.72-.07-10.4-3.41-23.75-.69-24.32s11.3-8,13.43-22.47C368.89,283.74,362.54,268.4,338.63,266.3Z"/></g></g></svg>