<svg xmlns="http://www.w3.org/2000/svg" xmlns:xlink="http://www.w3.org/1999/xlink" viewBox="0 0 477.57 352.3"><defs><style>.cls-1,.cls-8{fill:none;}.cls-1,.cls-10,.cls-2,.cls-3,.cls-4,.cls-5,.cls-6,.cls-7,.cls-8{stroke:#000;stroke-miterlimit:10;}.cls-1,.cls-10,.cls-13,.cls-2,.cls-3,.cls-4,.cls-5,.cls-6,.cls-7,.cls-8{stroke-linecap:round;}.cls-1,.cls-2,.cls-3,.cls-4,.cls-5,.cls-6{stroke-width:0.5px;}.cls-2{fill:#c0a5b4;}.cls-3{fill:#615a52;}.cls-4{fill:#f7e8ed;}.cls-5{fill:#ffe3c3;}.cls-6{fill:#674a5c;}.cls-12,.cls-7{fill:#fff;}.cls-7{stroke-width:0.75px;}.cls-9{clip-path:url(#clip-path);}.cls-10{fill:#7e2d3a;}.cls-11{fill:#fea49c;}.cls-13{fill:#a0dbf0;stroke:#4a91cd;stroke-linejoin:round;}</style><clipPath id="clip-path"><path class="cls-1" d="M399.53,206.55c-11.52,4.25-44.75,27.65-84.77,28s-67.84-3.29-81.5-10.55c-15-8-26.93-4.73-30.93,8.36s5.22,38,30,47.79,60.19,16.64,95,5.9,56.25-26.4,64.62-44.59S402,205.64,399.53,206.55Z"/></clipPath></defs><title>Correct feedbacK_Alce</title><g id="Layer_2" data-name="Layer 2"><g id="Layer_1-2" data-name="Layer 1"><path class="cls-2" d="M352.31,306.58c11.71-5.61,57.17-45.16,73.08-63.53s23.06-28.34,24.69-30.52,24.36-20.87,24-26.17-17.54-29.58-27.28-29.89-21.11,23.35-23.39,26.16-23.71,42-33.45,51.7-43.85,44.84-52.29,48.58-9.1,15.89-4.88,21.49S347.11,309.07,352.31,306.58Z"/><path class="cls-3" d="M438.1,193c6.11,3.21,11.76,17.77,11.64,19.58,0,0,7.7-6.76,10.73-9.55s11.23-11,12.83-14c1.38-2.58,2.81-2.16-6.41-16.23-8.45-10.5-15.34-16.21-19.75-16.53s-9.41,4.79-14.32,11.47a194.41,194.41,0,0,0-13.52,22.47S431.06,189.27,438.1,193Z"/><path class="cls-2" d="M251.08,352.05H374.82a183.2,183.2,0,0,0-14.58-27.25c-21.47-32.54-49.56-54.22-72.77-49.48-35.66,7.27-45.28,38.06-39,60.14A79.86,79.86,0,0,1,251.08,352.05Z"/><path class="cls-4" d="M271,299.57c.73,6.07-11.46,27.29-8.79,30.69s11.95,1.09,13.65,2.54c.84.73,4,10,7.62,19.25h30.42a1.49,1.49,0,0,1,.76-.33,1.47,1.47,0,0,1,.71.33h38.49a1.87,1.87,0,0,1,.83-.81c.75-.3,2.07.06,3.72.81h16.87c-4.55-9.91-12.07-23.48-14.8-27.42-5.13-7.36-19.64-30.55-47.15-44.95-15.52-8.12-39.78-5.82-55.67,13.1C256.94,293.61,270.25,293.51,271,299.57Z"/><path class="cls-2" d="M260.54,302.24c-6.71.9-55.32,25.11-67,49.81H224.9c9.12-7.69,28.41-16.8,35.89-17.55"/><path class="cls-5" d="M262.9,74.07c13.24-3,29.72-4.21,39.68-20.77s11.18-21,11.68-31.42S315.73,8.12,322,7.25s5.65,12.2,13,13.14S340.05.52,350.59.25s10.8,13.22,13.85,22.36,12.48-3.92,13.46-10.16S395.06,2.38,395,31.76s-39.48,46.65-60.29,51.85-54.1,5.5-65.2,2.3S255.45,75.75,262.9,74.07Z"/><path class="cls-2" d="M302.75,101.62c13.51,5.34,28.54,7.57,44.21,7.88,22.52.44,46.25-18.1,50.28-15.61s6,16.07-5.34,31.66-34.2,33.61-54,35.42"/><path class="cls-2" d="M215.31,75.45C255,63.77,299.23,62.84,332.71,86.12s44.14,66.95,58.69,74.22,28.63.49,33.48,4.37,17.95,42.69,6.3,72.28-85.38,75.2-159.6,71.8S171.16,281.14,150.3,234.57,128,101.16,215.31,75.45Z"/><path class="cls-2" d="M139.38,163.9c-3.64,14.07-5.94,24.16-14.91,37-12.89,18.47-41.84,26.74-42.21,31.47s9.46,14.31,28.75,14.31,47.3-7.88,60.39-22.8"/><path class="cls-6" d="M188.14,89s-6.73-12-3.09-26S198.69,29.91,230,35.91c0,0-21.65.37-27.83,18.56,0,0,16.92-10.55,34.75-1.82s33.47,29.29,33.47,29.29-17.79-7.69-31.8-10.06-25.14,10.79-25.14,10.79"/><path class="cls-5" d="M180.16,91.78c-16.94,2.79-37.94,10-57.5-4.65S100.66,67,95.1,55s-8.27-15.45-16-13.49-.84,17-9,21.58S54.68,42.13,42.18,46.83s-6.39,20.65-5.62,32.82S20.05,81,15.94,74.12-9,70.46,5,104.91s68.49,36,95.39,32.19,66.09-19.25,77.59-28.28S189.7,90.21,180.16,91.78Z"/><path class="cls-7" d="M283.07,187.09c.69-13.91-9.74-38.25-21.56-38.25-14,0-27.13,15.3-27.82,36.17s23.38,30,36.26,24.57C276.51,206.85,282.51,198.29,283.07,187.09Z"/><ellipse cx="272.2" cy="183.34" rx="10.68" ry="13.73" transform="translate(-21.53 36.95) rotate(-7.47)"/><path class="cls-7" d="M335,160.53c-3.53-12.83-3.08-28.93,4.61-32.77,10-5,27.95,3.3,35.05,22.7,6.85,18.74-14.28,32.87-24.1,28.7S337.79,170.85,335,160.53Z"/><ellipse cx="355.12" cy="159.23" rx="10.23" ry="13.73" transform="translate(-12.78 32.3) rotate(-5.12)"/><path class="cls-8" d="M219.79,138.33c2-9.64,4.92-34,19.83-36S264,113.77,264,113.77"/><path class="cls-8" d="M316.82,106.13c.36-8.37,1.31-22.57,10.31-22.37,4.8.1,17.06,12.07,19.73,15.07"/><path class="cls-1" d="M395.07,183.09c-2.29-.08-5.14,1.82-6.59,5.95a9.49,9.49,0,0,0,1.11,7.87"/><ellipse cx="399.21" cy="189.22" rx="2.14" ry="2.32"/><g class="cls-9"><path class="cls-10" d="M399.53,206.55c-11.52,4.25-44.75,27.65-84.77,28s-68-2.91-81.5-10.55-26.93-4.73-30.93,8.36,5.22,38,30,47.79,60.19,16.64,95,5.9,56.25-26.4,64.62-44.59S402,205.64,399.53,206.55Z"/><path class="cls-11" d="M366.91,212.49c12.51,4.47,32.5,20.14,33.47,33.72s-73,81.5-130.74,62.09-95.32-36.14-89.26-67.43,9-45.6,48-38.81S360.11,210.07,366.91,212.49Z"/><path class="cls-12" d="M194.45,224.38c4.73,12.16,45.84,32.26,88.05,29.11s79.8-7.52,100.9-22.8,29.59-22.8,31.77-33-21.34-27.65-21.34-27.65-74.71,42.2-100.9,39-85.38-17.95-96.54-23.53S189.35,211.28,194.45,224.38Z"/></g><path class="cls-1" d="M399.53,206.55c-11.52,4.25-44.75,27.65-84.77,28s-67.84-3.29-81.5-10.55c-15-8-26.93-4.73-30.93,8.36s5.22,38,30,47.79,60.19,16.64,95,5.9,56.25-26.4,64.62-44.59S402,205.64,399.53,206.55Z"/><path class="cls-13" d="M460.72,233.2s-8.43,24,16.35,31.16c0,0-30.15-11.49-38.07,5.37,0,0,2.3-29.89-2.55-32.19C436.45,237.54,456.63,238.05,460.72,233.2Z"/><path class="cls-13" d="M184.31,291.4s-19,14.61-19.48,20.37c0,0-17.27-25.24-24.79-26.56,0,0,19.48-3.55,21.69-11.07C161.73,274.14,164.39,287,184.31,291.4Z"/></g></g></svg>