<svg xmlns="http://www.w3.org/2000/svg" viewBox="0 0 125.52 14.2"><defs><style>.cls-1{fill:#f8bb18;}.cls-2{fill:#f78910;}.cls-3{fill:#c51611;}</style></defs><title>Decena horizontal</title><g id="Capa_2" data-name="Capa 2"><g id="Layer_1" data-name="Layer 1"><g id="Bloque1"><rect class="cls-1" x="113.72" y="2.39" width="11.8" height="11.8" transform="translate(127.91 -111.32) rotate(90)"/><polygon class="cls-2" points="125.52 2.39 124.32 0 112.52 0 113.72 2.39 125.52 2.39"/><polygon class="cls-3" points="113.72 14.2 113.72 2.39 112.52 0 112.52 11.8 113.72 14.2"/></g><g id="Bloque1-2" data-name="Bloque1"><rect class="cls-1" x="101.21" y="2.39" width="11.8" height="11.8" transform="translate(115.41 -98.82) rotate(90)"/><polygon class="cls-2" points="113.02 2.39 111.82 0 100.02 0 101.21 2.39 113.02 2.39"/><polygon class="cls-3" points="101.21 14.2 101.21 2.39 100.02 0 100.02 11.8 101.21 14.2"/></g><g id="Bloque1-3" data-name="Bloque1"><rect class="cls-1" x="88.71" y="2.39" width="11.8" height="11.8" transform="translate(102.91 -86.32) rotate(90)"/><polygon class="cls-2" points="100.52 2.39 99.32 0 87.52 0 88.71 2.39 100.52 2.39"/><polygon class="cls-3" points="88.71 14.2 88.71 2.39 87.52 0 87.52 11.8 88.71 14.2"/></g><g id="Bloque1-4" data-name="Bloque1"><rect class="cls-1" x="76.21" y="2.39" width="11.8" height="11.8" transform="translate(90.4 -73.82) rotate(90)"/><polygon class="cls-2" points="88.01 2.39 86.82 0 75.01 0 76.21 2.39 88.01 2.39"/><polygon class="cls-3" points="76.21 14.2 76.21 2.39 75.01 0 75.01 11.8 76.21 14.2"/></g><g id="Bloque1-5" data-name="Bloque1"><rect class="cls-1" x="63.71" y="2.39" width="11.8" height="11.8" transform="translate(77.9 -61.32) rotate(90)"/><polygon class="cls-2" points="75.51 2.39 74.31 0 62.51 0 63.71 2.39 75.51 2.39"/><polygon class="cls-3" points="63.71 14.2 63.71 2.39 62.51 0 62.51 11.8 63.71 14.2"/></g><g id="Bloque1-6" data-name="Bloque1"><rect class="cls-1" x="51.2" y="2.39" width="11.8" height="11.8" transform="translate(65.4 -48.81) rotate(90)"/><polygon class="cls-2" points="63.01 2.39 61.81 0 50.01 0 51.2 2.39 63.01 2.39"/><polygon class="cls-3" points="51.2 14.2 51.2 2.39 50.01 0 50.01 11.8 51.2 14.2"/></g><g id="Bloque1-7" data-name="Bloque1"><rect class="cls-1" x="38.7" y="2.39" width="11.8" height="11.8" transform="translate(52.9 -36.31) rotate(90)"/><polygon class="cls-2" points="50.51 2.39 49.31 0 37.51 0 38.7 2.39 50.51 2.39"/><polygon class="cls-3" points="38.7 14.2 38.7 2.39 37.51 0 37.51 11.8 38.7 14.2"/></g><g id="Bloque1-8" data-name="Bloque1"><rect class="cls-1" x="26.2" y="2.39" width="11.8" height="11.8" transform="translate(40.4 -23.81) rotate(90)"/><polygon class="cls-2" points="38 2.39 36.81 0 25 0 26.2 2.39 38 2.39"/><polygon class="cls-3" points="26.2 14.2 26.2 2.39 25 0 25 11.8 26.2 14.2"/></g><g id="Bloque1-9" data-name="Bloque1"><rect class="cls-1" x="13.7" y="2.39" width="11.8" height="11.8" transform="translate(27.89 -11.31) rotate(90)"/><polygon class="cls-2" points="25.5 2.39 24.31 0 12.5 0 13.7 2.39 25.5 2.39"/><polygon class="cls-3" points="13.7 14.2 13.7 2.39 12.5 0 12.5 11.8 13.7 14.2"/></g><g id="Bloque1-10" data-name="Bloque1"><rect class="cls-1" x="1.2" y="2.39" width="11.8" height="11.8" transform="translate(15.39 1.2) rotate(90)"/><polygon class="cls-2" points="13 2.39 11.8 0 0 0 1.2 2.39 13 2.39"/><polygon class="cls-3" points="1.2 14.2 1.2 2.39 0 0 0 11.8 1.2 14.2"/></g></g></g></svg>