<svg xmlns="http://www.w3.org/2000/svg" viewBox="0 0 14.2 125.52"><defs><style>.cls-1{fill:#f8bb18;}.cls-2{fill:#c51611;}.cls-3{fill:#f78910;}</style></defs><title>Decena vertical</title><g id="Capa_2" data-name="Capa 2"><g id="Layer_1" data-name="Layer 1"><g id="Bloque1"><rect class="cls-1" x="2.39" y="113.72" width="11.8" height="11.8"/><polygon class="cls-2" points="2.39 125.52 0 124.32 0 112.52 2.39 113.72 2.39 125.52"/><polygon class="cls-3" points="14.2 113.72 2.39 113.72 0 112.52 11.8 112.52 14.2 113.72"/></g><g id="Bloque1-2" data-name="Bloque1"><rect class="cls-1" x="2.39" y="101.21" width="11.8" height="11.8"/><polygon class="cls-2" points="2.39 113.02 0 111.82 0 100.02 2.39 101.21 2.39 113.02"/><polygon class="cls-3" points="14.2 101.21 2.39 101.21 0 100.02 11.8 100.02 14.2 101.21"/></g><g id="Bloque1-3" data-name="Bloque1"><rect class="cls-1" x="2.39" y="88.71" width="11.8" height="11.8"/><polygon class="cls-2" points="2.39 100.52 0 99.32 0 87.52 2.39 88.71 2.39 100.52"/><polygon class="cls-3" points="14.2 88.71 2.39 88.71 0 87.52 11.8 87.52 14.2 88.71"/></g><g id="Bloque1-4" data-name="Bloque1"><rect class="cls-1" x="2.39" y="76.21" width="11.8" height="11.8"/><polygon class="cls-2" points="2.39 88.01 0 86.82 0 75.01 2.39 76.21 2.39 88.01"/><polygon class="cls-3" points="14.2 76.21 2.39 76.21 0 75.01 11.8 75.01 14.2 76.21"/></g><g id="Bloque1-5" data-name="Bloque1"><rect class="cls-1" x="2.39" y="63.71" width="11.8" height="11.8"/><polygon class="cls-2" points="2.39 75.51 0 74.31 0 62.51 2.39 63.71 2.39 75.51"/><polygon class="cls-3" points="14.2 63.71 2.39 63.71 0 62.51 11.8 62.51 14.2 63.71"/></g><g id="Bloque1-6" data-name="Bloque1"><rect class="cls-1" x="2.39" y="51.2" width="11.8" height="11.8"/><polygon class="cls-2" points="2.39 63.01 0 61.81 0 50.01 2.39 51.2 2.39 63.01"/><polygon class="cls-3" points="14.2 51.2 2.39 51.2 0 50.01 11.8 50.01 14.2 51.2"/></g><g id="Bloque1-7" data-name="Bloque1"><rect class="cls-1" x="2.39" y="38.7" width="11.8" height="11.8"/><polygon class="cls-2" points="2.39 50.51 0 49.31 0 37.51 2.39 38.7 2.39 50.51"/><polygon class="cls-3" points="14.2 38.7 2.39 38.7 0 37.51 11.8 37.51 14.2 38.7"/></g><g id="Bloque1-8" data-name="Bloque1"><rect class="cls-1" x="2.39" y="26.2" width="11.8" height="11.8"/><polygon class="cls-2" points="2.39 38 0 36.81 0 25 2.39 26.2 2.39 38"/><polygon class="cls-3" points="14.2 26.2 2.39 26.2 0 25 11.8 25 14.2 26.2"/></g><g id="Bloque1-9" data-name="Bloque1"><rect class="cls-1" x="2.39" y="13.7" width="11.8" height="11.8"/><polygon class="cls-2" points="2.39 25.5 0 24.31 0 12.5 2.39 13.7 2.39 25.5"/><polygon class="cls-3" points="14.2 13.7 2.39 13.7 0 12.5 11.8 12.5 14.2 13.7"/></g><g id="Bloque1-10" data-name="Bloque1"><rect class="cls-1" x="2.39" y="1.2" width="11.8" height="11.8"/><polygon class="cls-2" points="2.39 13 0 11.8 0 0 2.39 1.2 2.39 13"/><polygon class="cls-3" points="14.2 1.2 2.39 1.2 0 0 11.8 0 14.2 1.2"/></g></g></g></svg>