<svg xmlns="http://www.w3.org/2000/svg" viewBox="0 0 132.11 125.52"><defs><style>.cls-1{fill:#f8bb18;}.cls-2{fill:#c51611;}.cls-3{fill:#f78910;}</style></defs><title>Centena</title><g id="Capa_2" data-name="Capa 2"><g id="Layer_1" data-name="Layer 1"><g id="Bloque1"><rect class="cls-1" x="120.31" y="113.72" width="11.8" height="11.8"/><polygon class="cls-2" points="120.31 125.52 117.92 124.32 117.92 112.52 120.31 113.72 120.31 125.52"/><polygon class="cls-3" points="132.11 113.72 120.31 113.72 117.92 112.52 129.72 112.52 132.11 113.72"/></g><g id="Bloque1-2" data-name="Bloque1"><rect class="cls-1" x="120.31" y="101.21" width="11.8" height="11.8"/><polygon class="cls-2" points="120.31 113.02 117.92 111.82 117.92 100.02 120.31 101.21 120.31 113.02"/><polygon class="cls-3" points="132.11 101.21 120.31 101.21 117.92 100.02 129.72 100.02 132.11 101.21"/></g><g id="Bloque1-3" data-name="Bloque1"><rect class="cls-1" x="120.31" y="88.71" width="11.8" height="11.8"/><polygon class="cls-2" points="120.31 100.52 117.92 99.32 117.92 87.52 120.31 88.71 120.31 100.52"/><polygon class="cls-3" points="132.11 88.71 120.31 88.71 117.92 87.52 129.72 87.52 132.11 88.71"/></g><g id="Bloque1-4" data-name="Bloque1"><rect class="cls-1" x="120.31" y="76.21" width="11.8" height="11.8"/><polygon class="cls-2" points="120.31 88.01 117.92 86.82 117.92 75.01 120.31 76.21 120.31 88.01"/><polygon class="cls-3" points="132.11 76.21 120.31 76.21 117.92 75.01 129.72 75.01 132.11 76.21"/></g><g id="Bloque1-5" data-name="Bloque1"><rect class="cls-1" x="120.31" y="63.71" width="11.8" height="11.8"/><polygon class="cls-2" points="120.31 75.51 117.92 74.31 117.92 62.51 120.31 63.71 120.31 75.51"/><polygon class="cls-3" points="132.11 63.71 120.31 63.71 117.92 62.51 129.72 62.51 132.11 63.71"/></g><g id="Bloque1-6" data-name="Bloque1"><rect class="cls-1" x="120.31" y="51.2" width="11.8" height="11.8"/><polygon class="cls-2" points="120.31 63.01 117.92 61.81 117.92 50.01 120.31 51.2 120.31 63.01"/><polygon class="cls-3" points="132.11 51.2 120.31 51.2 117.92 50.01 129.72 50.01 132.11 51.2"/></g><g id="Bloque1-7" data-name="Bloque1"><rect class="cls-1" x="120.31" y="38.7" width="11.8" height="11.8"/><polygon class="cls-2" points="120.31 50.51 117.92 49.31 117.92 37.51 120.31 38.7 120.31 50.51"/><polygon class="cls-3" points="132.11 38.7 120.31 38.7 117.92 37.51 129.72 37.51 132.11 38.7"/></g><g id="Bloque1-8" data-name="Bloque1"><rect class="cls-1" x="120.31" y="26.2" width="11.8" height="11.8"/><polygon class="cls-2" points="120.31 38 117.92 36.81 117.92 25 120.31 26.2 120.31 38"/><polygon class="cls-3" points="132.11 26.2 120.31 26.2 117.92 25 129.72 25 132.11 26.2"/></g><g id="Bloque1-9" data-name="Bloque1"><rect class="cls-1" x="120.31" y="13.7" width="11.8" height="11.8"/><polygon class="cls-2" points="120.31 25.5 117.92 24.31 117.92 12.5 120.31 13.7 120.31 25.5"/><polygon class="cls-3" points="132.11 13.7 120.31 13.7 117.92 12.5 129.72 12.5 132.11 13.7"/></g><g id="Bloque1-10" data-name="Bloque1"><rect class="cls-1" x="120.31" y="1.2" width="11.8" height="11.8"/><polygon class="cls-2" points="120.31 13 117.92 11.8 117.92 0 120.31 1.2 120.31 13"/><polygon class="cls-3" points="132.11 1.2 120.31 1.2 117.92 0 129.72 0 132.11 1.2"/></g><g id="Bloque1-11" data-name="Bloque1"><rect class="cls-1" x="107.21" y="113.72" width="11.8" height="11.8"/><polygon class="cls-2" points="107.21 125.52 104.82 124.32 104.82 112.52 107.21 113.72 107.21 125.52"/><polygon class="cls-3" points="119.01 113.72 107.21 113.72 104.82 112.52 116.62 112.52 119.01 113.72"/></g><g id="Bloque1-12" data-name="Bloque1"><rect class="cls-1" x="107.21" y="101.21" width="11.8" height="11.8"/><polygon class="cls-2" points="107.21 113.02 104.82 111.82 104.82 100.02 107.21 101.21 107.21 113.02"/><polygon class="cls-3" points="119.01 101.21 107.21 101.21 104.82 100.02 116.62 100.02 119.01 101.21"/></g><g id="Bloque1-13" data-name="Bloque1"><rect class="cls-1" x="107.21" y="88.71" width="11.8" height="11.8"/><polygon class="cls-2" points="107.21 100.52 104.82 99.32 104.82 87.52 107.21 88.71 107.21 100.52"/><polygon class="cls-3" points="119.01 88.71 107.21 88.71 104.82 87.52 116.62 87.52 119.01 88.71"/></g><g id="Bloque1-14" data-name="Bloque1"><rect class="cls-1" x="107.21" y="76.21" width="11.8" height="11.8"/><polygon class="cls-2" points="107.21 88.01 104.82 86.82 104.82 75.01 107.21 76.21 107.21 88.01"/><polygon class="cls-3" points="119.01 76.21 107.21 76.21 104.82 75.01 116.62 75.01 119.01 76.21"/></g><g id="Bloque1-15" data-name="Bloque1"><rect class="cls-1" x="107.21" y="63.71" width="11.8" height="11.8"/><polygon class="cls-2" points="107.21 75.51 104.82 74.31 104.82 62.51 107.21 63.71 107.21 75.51"/><polygon class="cls-3" points="119.01 63.71 107.21 63.71 104.82 62.51 116.62 62.51 119.01 63.71"/></g><g id="Bloque1-16" data-name="Bloque1"><rect class="cls-1" x="107.21" y="51.2" width="11.8" height="11.8"/><polygon class="cls-2" points="107.21 63.01 104.82 61.81 104.82 50.01 107.21 51.2 107.21 63.01"/><polygon class="cls-3" points="119.01 51.2 107.21 51.2 104.82 50.01 116.62 50.01 119.01 51.2"/></g><g id="Bloque1-17" data-name="Bloque1"><rect class="cls-1" x="107.21" y="38.7" width="11.8" height="11.8"/><polygon class="cls-2" points="107.21 50.51 104.82 49.31 104.82 37.51 107.21 38.7 107.21 50.51"/><polygon class="cls-3" points="119.01 38.7 107.21 38.7 104.82 37.51 116.62 37.51 119.01 38.7"/></g><g id="Bloque1-18" data-name="Bloque1"><rect class="cls-1" x="107.21" y="26.2" width="11.8" height="11.8"/><polygon class="cls-2" points="107.21 38 104.82 36.81 104.82 25 107.21 26.2 107.21 38"/><polygon class="cls-3" points="119.01 26.2 107.21 26.2 104.82 25 116.62 25 119.01 26.2"/></g><g id="Bloque1-19" data-name="Bloque1"><rect class="cls-1" x="107.21" y="13.7" width="11.8" height="11.8"/><polygon class="cls-2" points="107.21 25.5 104.82 24.31 104.82 12.5 107.21 13.7 107.21 25.5"/><polygon class="cls-3" points="119.01 13.7 107.21 13.7 104.82 12.5 116.62 12.5 119.01 13.7"/></g><g id="Bloque1-20" data-name="Bloque1"><rect class="cls-1" x="107.21" y="1.2" width="11.8" height="11.8"/><polygon class="cls-2" points="107.21 13 104.82 11.8 104.82 0 107.21 1.2 107.21 13"/><polygon class="cls-3" points="119.01 1.2 107.21 1.2 104.82 0 116.62 0 119.01 1.2"/></g><g id="Bloque1-21" data-name="Bloque1"><rect class="cls-1" x="94.11" y="113.72" width="11.8" height="11.8"/><polygon class="cls-2" points="94.11 125.52 91.72 124.32 91.72 112.52 94.11 113.72 94.11 125.52"/><polygon class="cls-3" points="105.91 113.72 94.11 113.72 91.72 112.52 103.52 112.52 105.91 113.72"/></g><g id="Bloque1-22" data-name="Bloque1"><rect class="cls-1" x="94.11" y="101.21" width="11.8" height="11.8"/><polygon class="cls-2" points="94.11 113.02 91.72 111.82 91.72 100.02 94.11 101.21 94.11 113.02"/><polygon class="cls-3" points="105.91 101.21 94.11 101.21 91.72 100.02 103.52 100.02 105.91 101.21"/></g><g id="Bloque1-23" data-name="Bloque1"><rect class="cls-1" x="94.11" y="88.71" width="11.8" height="11.8"/><polygon class="cls-2" points="94.11 100.52 91.72 99.32 91.72 87.52 94.11 88.71 94.11 100.52"/><polygon class="cls-3" points="105.91 88.71 94.11 88.71 91.72 87.52 103.52 87.52 105.91 88.71"/></g><g id="Bloque1-24" data-name="Bloque1"><rect class="cls-1" x="94.11" y="76.21" width="11.8" height="11.8"/><polygon class="cls-2" points="94.11 88.01 91.72 86.82 91.72 75.01 94.11 76.21 94.11 88.01"/><polygon class="cls-3" points="105.91 76.21 94.11 76.21 91.72 75.01 103.52 75.01 105.91 76.21"/></g><g id="Bloque1-25" data-name="Bloque1"><rect class="cls-1" x="94.11" y="63.71" width="11.8" height="11.8"/><polygon class="cls-2" points="94.11 75.51 91.72 74.31 91.72 62.51 94.11 63.71 94.11 75.51"/><polygon class="cls-3" points="105.91 63.71 94.11 63.71 91.72 62.51 103.52 62.51 105.91 63.71"/></g><g id="Bloque1-26" data-name="Bloque1"><rect class="cls-1" x="94.11" y="51.2" width="11.8" height="11.8"/><polygon class="cls-2" points="94.11 63.01 91.72 61.81 91.72 50.01 94.11 51.2 94.11 63.01"/><polygon class="cls-3" points="105.91 51.2 94.11 51.2 91.72 50.01 103.52 50.01 105.91 51.2"/></g><g id="Bloque1-27" data-name="Bloque1"><rect class="cls-1" x="94.11" y="38.7" width="11.8" height="11.8"/><polygon class="cls-2" points="94.11 50.51 91.72 49.31 91.72 37.51 94.11 38.7 94.11 50.51"/><polygon class="cls-3" points="105.91 38.7 94.11 38.7 91.72 37.51 103.52 37.51 105.91 38.7"/></g><g id="Bloque1-28" data-name="Bloque1"><rect class="cls-1" x="94.11" y="26.2" width="11.8" height="11.8"/><polygon class="cls-2" points="94.11 38 91.72 36.81 91.72 25 94.11 26.2 94.11 38"/><polygon class="cls-3" points="105.91 26.2 94.11 26.2 91.72 25 103.52 25 105.91 26.2"/></g><g id="Bloque1-29" data-name="Bloque1"><rect class="cls-1" x="94.11" y="13.7" width="11.8" height="11.8"/><polygon class="cls-2" points="94.11 25.5 91.72 24.31 91.72 12.5 94.11 13.7 94.11 25.5"/><polygon class="cls-3" points="105.91 13.7 94.11 13.7 91.72 12.5 103.52 12.5 105.91 13.7"/></g><g id="Bloque1-30" data-name="Bloque1"><rect class="cls-1" x="94.11" y="1.2" width="11.8" height="11.8"/><polygon class="cls-2" points="94.11 13 91.72 11.8 91.72 0 94.11 1.2 94.11 13"/><polygon class="cls-3" points="105.91 1.2 94.11 1.2 91.72 0 103.52 0 105.91 1.2"/></g><g id="Bloque1-31" data-name="Bloque1"><rect class="cls-1" x="81" y="113.72" width="11.8" height="11.8"/><polygon class="cls-2" points="81 125.52 78.61 124.32 78.61 112.52 81 113.72 81 125.52"/><polygon class="cls-3" points="92.81 113.72 81 113.72 78.61 112.52 90.42 112.52 92.81 113.72"/></g><g id="Bloque1-32" data-name="Bloque1"><rect class="cls-1" x="81" y="101.21" width="11.8" height="11.8"/><polygon class="cls-2" points="81 113.02 78.61 111.82 78.61 100.02 81 101.21 81 113.02"/><polygon class="cls-3" points="92.81 101.21 81 101.21 78.61 100.02 90.42 100.02 92.81 101.21"/></g><g id="Bloque1-33" data-name="Bloque1"><rect class="cls-1" x="81" y="88.71" width="11.8" height="11.8"/><polygon class="cls-2" points="81 100.52 78.61 99.32 78.61 87.52 81 88.71 81 100.52"/><polygon class="cls-3" points="92.81 88.71 81 88.71 78.61 87.52 90.42 87.52 92.81 88.71"/></g><g id="Bloque1-34" data-name="Bloque1"><rect class="cls-1" x="81" y="76.21" width="11.8" height="11.8"/><polygon class="cls-2" points="81 88.01 78.61 86.82 78.61 75.01 81 76.21 81 88.01"/><polygon class="cls-3" points="92.81 76.21 81 76.21 78.61 75.01 90.42 75.01 92.81 76.21"/></g><g id="Bloque1-35" data-name="Bloque1"><rect class="cls-1" x="81" y="63.71" width="11.8" height="11.8"/><polygon class="cls-2" points="81 75.51 78.61 74.31 78.61 62.51 81 63.71 81 75.51"/><polygon class="cls-3" points="92.81 63.71 81 63.71 78.61 62.51 90.42 62.51 92.81 63.71"/></g><g id="Bloque1-36" data-name="Bloque1"><rect class="cls-1" x="81" y="51.2" width="11.8" height="11.8"/><polygon class="cls-2" points="81 63.01 78.61 61.81 78.61 50.01 81 51.2 81 63.01"/><polygon class="cls-3" points="92.81 51.2 81 51.2 78.61 50.01 90.42 50.01 92.81 51.2"/></g><g id="Bloque1-37" data-name="Bloque1"><rect class="cls-1" x="81" y="38.7" width="11.8" height="11.8"/><polygon class="cls-2" points="81 50.51 78.61 49.31 78.61 37.51 81 38.7 81 50.51"/><polygon class="cls-3" points="92.81 38.7 81 38.7 78.61 37.51 90.42 37.51 92.81 38.7"/></g><g id="Bloque1-38" data-name="Bloque1"><rect class="cls-1" x="81" y="26.2" width="11.8" height="11.8"/><polygon class="cls-2" points="81 38 78.61 36.81 78.61 25 81 26.2 81 38"/><polygon class="cls-3" points="92.81 26.2 81 26.2 78.61 25 90.42 25 92.81 26.2"/></g><g id="Bloque1-39" data-name="Bloque1"><rect class="cls-1" x="81" y="13.7" width="11.8" height="11.8"/><polygon class="cls-2" points="81 25.5 78.61 24.31 78.61 12.5 81 13.7 81 25.5"/><polygon class="cls-3" points="92.81 13.7 81 13.7 78.61 12.5 90.42 12.5 92.81 13.7"/></g><g id="Bloque1-40" data-name="Bloque1"><rect class="cls-1" x="81" y="1.2" width="11.8" height="11.8"/><polygon class="cls-2" points="81 13 78.61 11.8 78.61 0 81 1.2 81 13"/><polygon class="cls-3" points="92.81 1.2 81 1.2 78.61 0 90.42 0 92.81 1.2"/></g><g id="Bloque1-41" data-name="Bloque1"><rect class="cls-1" x="67.9" y="113.72" width="11.8" height="11.8"/><polygon class="cls-2" points="67.9 125.52 65.51 124.32 65.51 112.52 67.9 113.72 67.9 125.52"/><polygon class="cls-3" points="79.71 113.72 67.9 113.72 65.51 112.52 77.31 112.52 79.71 113.72"/></g><g id="Bloque1-42" data-name="Bloque1"><rect class="cls-1" x="67.9" y="101.21" width="11.8" height="11.8"/><polygon class="cls-2" points="67.9 113.02 65.51 111.82 65.51 100.02 67.9 101.21 67.9 113.02"/><polygon class="cls-3" points="79.71 101.21 67.9 101.21 65.51 100.02 77.31 100.02 79.71 101.21"/></g><g id="Bloque1-43" data-name="Bloque1"><rect class="cls-1" x="67.9" y="88.71" width="11.8" height="11.8"/><polygon class="cls-2" points="67.9 100.52 65.51 99.32 65.51 87.52 67.9 88.71 67.9 100.52"/><polygon class="cls-3" points="79.71 88.71 67.9 88.71 65.51 87.52 77.31 87.52 79.71 88.71"/></g><g id="Bloque1-44" data-name="Bloque1"><rect class="cls-1" x="67.9" y="76.21" width="11.8" height="11.8"/><polygon class="cls-2" points="67.9 88.01 65.51 86.82 65.51 75.01 67.9 76.21 67.9 88.01"/><polygon class="cls-3" points="79.71 76.21 67.9 76.21 65.51 75.01 77.31 75.01 79.71 76.21"/></g><g id="Bloque1-45" data-name="Bloque1"><rect class="cls-1" x="67.9" y="63.71" width="11.8" height="11.8"/><polygon class="cls-2" points="67.9 75.51 65.51 74.31 65.51 62.51 67.9 63.71 67.9 75.51"/><polygon class="cls-3" points="79.71 63.71 67.9 63.71 65.51 62.51 77.31 62.51 79.71 63.71"/></g><g id="Bloque1-46" data-name="Bloque1"><rect class="cls-1" x="67.9" y="51.2" width="11.8" height="11.8"/><polygon class="cls-2" points="67.9 63.01 65.51 61.81 65.51 50.01 67.9 51.2 67.9 63.01"/><polygon class="cls-3" points="79.71 51.2 67.9 51.2 65.51 50.01 77.31 50.01 79.71 51.2"/></g><g id="Bloque1-47" data-name="Bloque1"><rect class="cls-1" x="67.9" y="38.7" width="11.8" height="11.8"/><polygon class="cls-2" points="67.9 50.51 65.51 49.31 65.51 37.51 67.9 38.7 67.9 50.51"/><polygon class="cls-3" points="79.71 38.7 67.9 38.7 65.51 37.51 77.31 37.51 79.71 38.7"/></g><g id="Bloque1-48" data-name="Bloque1"><rect class="cls-1" x="67.9" y="26.2" width="11.8" height="11.8"/><polygon class="cls-2" points="67.9 38 65.51 36.81 65.51 25 67.9 26.2 67.9 38"/><polygon class="cls-3" points="79.71 26.2 67.9 26.2 65.51 25 77.31 25 79.71 26.2"/></g><g id="Bloque1-49" data-name="Bloque1"><rect class="cls-1" x="67.9" y="13.7" width="11.8" height="11.8"/><polygon class="cls-2" points="67.9 25.5 65.51 24.31 65.51 12.5 67.9 13.7 67.9 25.5"/><polygon class="cls-3" points="79.71 13.7 67.9 13.7 65.51 12.5 77.31 12.5 79.71 13.7"/></g><g id="Bloque1-50" data-name="Bloque1"><rect class="cls-1" x="67.9" y="1.2" width="11.8" height="11.8"/><polygon class="cls-2" points="67.9 13 65.51 11.8 65.51 0 67.9 1.2 67.9 13"/><polygon class="cls-3" points="79.71 1.2 67.9 1.2 65.51 0 77.31 0 79.71 1.2"/></g><g id="Bloque1-51" data-name="Bloque1"><rect class="cls-1" x="54.8" y="113.72" width="11.8" height="11.8"/><polygon class="cls-2" points="54.8 125.52 52.41 124.32 52.41 112.52 54.8 113.72 54.8 125.52"/><polygon class="cls-3" points="66.6 113.72 54.8 113.72 52.41 112.52 64.21 112.52 66.6 113.72"/></g><g id="Bloque1-52" data-name="Bloque1"><rect class="cls-1" x="54.8" y="101.21" width="11.8" height="11.8"/><polygon class="cls-2" points="54.8 113.02 52.41 111.82 52.41 100.02 54.8 101.21 54.8 113.02"/><polygon class="cls-3" points="66.6 101.21 54.8 101.21 52.41 100.02 64.21 100.02 66.6 101.21"/></g><g id="Bloque1-53" data-name="Bloque1"><rect class="cls-1" x="54.8" y="88.71" width="11.8" height="11.8"/><polygon class="cls-2" points="54.8 100.52 52.41 99.32 52.41 87.52 54.8 88.71 54.8 100.52"/><polygon class="cls-3" points="66.6 88.71 54.8 88.71 52.41 87.52 64.21 87.52 66.6 88.71"/></g><g id="Bloque1-54" data-name="Bloque1"><rect class="cls-1" x="54.8" y="76.21" width="11.8" height="11.8"/><polygon class="cls-2" points="54.8 88.01 52.41 86.82 52.41 75.01 54.8 76.21 54.8 88.01"/><polygon class="cls-3" points="66.6 76.21 54.8 76.21 52.41 75.01 64.21 75.01 66.6 76.21"/></g><g id="Bloque1-55" data-name="Bloque1"><rect class="cls-1" x="54.8" y="63.71" width="11.8" height="11.8"/><polygon class="cls-2" points="54.8 75.51 52.41 74.31 52.41 62.51 54.8 63.71 54.8 75.51"/><polygon class="cls-3" points="66.6 63.71 54.8 63.71 52.41 62.51 64.21 62.51 66.6 63.71"/></g><g id="Bloque1-56" data-name="Bloque1"><rect class="cls-1" x="54.8" y="51.2" width="11.8" height="11.8"/><polygon class="cls-2" points="54.8 63.01 52.41 61.81 52.41 50.01 54.8 51.2 54.8 63.01"/><polygon class="cls-3" points="66.6 51.2 54.8 51.2 52.41 50.01 64.21 50.01 66.6 51.2"/></g><g id="Bloque1-57" data-name="Bloque1"><rect class="cls-1" x="54.8" y="38.7" width="11.8" height="11.8"/><polygon class="cls-2" points="54.8 50.51 52.41 49.31 52.41 37.51 54.8 38.7 54.8 50.51"/><polygon class="cls-3" points="66.6 38.7 54.8 38.7 52.41 37.51 64.21 37.51 66.6 38.7"/></g><g id="Bloque1-58" data-name="Bloque1"><rect class="cls-1" x="54.8" y="26.2" width="11.8" height="11.8"/><polygon class="cls-2" points="54.8 38 52.41 36.81 52.41 25 54.8 26.2 54.8 38"/><polygon class="cls-3" points="66.6 26.2 54.8 26.2 52.41 25 64.21 25 66.6 26.2"/></g><g id="Bloque1-59" data-name="Bloque1"><rect class="cls-1" x="54.8" y="13.7" width="11.8" height="11.8"/><polygon class="cls-2" points="54.8 25.5 52.41 24.31 52.41 12.5 54.8 13.7 54.8 25.5"/><polygon class="cls-3" points="66.6 13.7 54.8 13.7 52.41 12.5 64.21 12.5 66.6 13.7"/></g><g id="Bloque1-60" data-name="Bloque1"><rect class="cls-1" x="54.8" y="1.2" width="11.8" height="11.8"/><polygon class="cls-2" points="54.8 13 52.41 11.8 52.41 0 54.8 1.2 54.8 13"/><polygon class="cls-3" points="66.6 1.2 54.8 1.2 52.41 0 64.21 0 66.6 1.2"/></g><g id="Bloque1-61" data-name="Bloque1"><rect class="cls-1" x="41.7" y="113.72" width="11.8" height="11.8"/><polygon class="cls-2" points="41.7 125.52 39.31 124.32 39.31 112.52 41.7 113.72 41.7 125.52"/><polygon class="cls-3" points="53.5 113.72 41.7 113.72 39.31 112.52 51.11 112.52 53.5 113.72"/></g><g id="Bloque1-62" data-name="Bloque1"><rect class="cls-1" x="41.7" y="101.21" width="11.8" height="11.8"/><polygon class="cls-2" points="41.7 113.02 39.31 111.82 39.31 100.02 41.7 101.21 41.7 113.02"/><polygon class="cls-3" points="53.5 101.21 41.7 101.21 39.31 100.02 51.11 100.02 53.5 101.21"/></g><g id="Bloque1-63" data-name="Bloque1"><rect class="cls-1" x="41.7" y="88.71" width="11.8" height="11.8"/><polygon class="cls-2" points="41.7 100.52 39.31 99.32 39.31 87.52 41.7 88.71 41.7 100.52"/><polygon class="cls-3" points="53.5 88.71 41.7 88.71 39.31 87.52 51.11 87.52 53.5 88.71"/></g><g id="Bloque1-64" data-name="Bloque1"><rect class="cls-1" x="41.7" y="76.21" width="11.8" height="11.8"/><polygon class="cls-2" points="41.7 88.01 39.31 86.82 39.31 75.01 41.7 76.21 41.7 88.01"/><polygon class="cls-3" points="53.5 76.21 41.7 76.21 39.31 75.01 51.11 75.01 53.5 76.21"/></g><g id="Bloque1-65" data-name="Bloque1"><rect class="cls-1" x="41.7" y="63.71" width="11.8" height="11.8"/><polygon class="cls-2" points="41.7 75.51 39.31 74.31 39.31 62.51 41.7 63.71 41.7 75.51"/><polygon class="cls-3" points="53.5 63.71 41.7 63.71 39.31 62.51 51.11 62.51 53.5 63.71"/></g><g id="Bloque1-66" data-name="Bloque1"><rect class="cls-1" x="41.7" y="51.2" width="11.8" height="11.8"/><polygon class="cls-2" points="41.7 63.01 39.31 61.81 39.31 50.01 41.7 51.2 41.7 63.01"/><polygon class="cls-3" points="53.5 51.2 41.7 51.2 39.31 50.01 51.11 50.01 53.5 51.2"/></g><g id="Bloque1-67" data-name="Bloque1"><rect class="cls-1" x="41.7" y="38.7" width="11.8" height="11.8"/><polygon class="cls-2" points="41.7 50.51 39.31 49.31 39.31 37.51 41.7 38.7 41.7 50.51"/><polygon class="cls-3" points="53.5 38.7 41.7 38.7 39.31 37.51 51.11 37.51 53.5 38.7"/></g><g id="Bloque1-68" data-name="Bloque1"><rect class="cls-1" x="41.7" y="26.2" width="11.8" height="11.8"/><polygon class="cls-2" points="41.7 38 39.31 36.81 39.31 25 41.7 26.2 41.7 38"/><polygon class="cls-3" points="53.5 26.2 41.7 26.2 39.31 25 51.11 25 53.5 26.2"/></g><g id="Bloque1-69" data-name="Bloque1"><rect class="cls-1" x="41.7" y="13.7" width="11.8" height="11.8"/><polygon class="cls-2" points="41.7 25.5 39.31 24.31 39.31 12.5 41.7 13.7 41.7 25.5"/><polygon class="cls-3" points="53.5 13.7 41.7 13.7 39.31 12.5 51.11 12.5 53.5 13.7"/></g><g id="Bloque1-70" data-name="Bloque1"><rect class="cls-1" x="41.7" y="1.2" width="11.8" height="11.8"/><polygon class="cls-2" points="41.7 13 39.31 11.8 39.31 0 41.7 1.2 41.7 13"/><polygon class="cls-3" points="53.5 1.2 41.7 1.2 39.31 0 51.11 0 53.5 1.2"/></g><g id="Bloque1-71" data-name="Bloque1"><rect class="cls-1" x="28.6" y="113.72" width="11.8" height="11.8"/><polygon class="cls-2" points="28.6 125.52 26.2 124.32 26.2 112.52 28.6 113.72 28.6 125.52"/><polygon class="cls-3" points="40.4 113.72 28.6 113.72 26.2 112.52 38.01 112.52 40.4 113.72"/></g><g id="Bloque1-72" data-name="Bloque1"><rect class="cls-1" x="28.6" y="101.21" width="11.8" height="11.8"/><polygon class="cls-2" points="28.6 113.02 26.2 111.82 26.2 100.02 28.6 101.21 28.6 113.02"/><polygon class="cls-3" points="40.4 101.21 28.6 101.21 26.2 100.02 38.01 100.02 40.4 101.21"/></g><g id="Bloque1-73" data-name="Bloque1"><rect class="cls-1" x="28.6" y="88.71" width="11.8" height="11.8"/><polygon class="cls-2" points="28.6 100.52 26.2 99.32 26.2 87.52 28.6 88.71 28.6 100.52"/><polygon class="cls-3" points="40.4 88.71 28.6 88.71 26.2 87.52 38.01 87.52 40.4 88.71"/></g><g id="Bloque1-74" data-name="Bloque1"><rect class="cls-1" x="28.6" y="76.21" width="11.8" height="11.8"/><polygon class="cls-2" points="28.6 88.01 26.2 86.82 26.2 75.01 28.6 76.21 28.6 88.01"/><polygon class="cls-3" points="40.4 76.21 28.6 76.21 26.2 75.01 38.01 75.01 40.4 76.21"/></g><g id="Bloque1-75" data-name="Bloque1"><rect class="cls-1" x="28.6" y="63.71" width="11.8" height="11.8"/><polygon class="cls-2" points="28.6 75.51 26.2 74.31 26.2 62.51 28.6 63.71 28.6 75.51"/><polygon class="cls-3" points="40.4 63.71 28.6 63.71 26.2 62.51 38.01 62.51 40.4 63.71"/></g><g id="Bloque1-76" data-name="Bloque1"><rect class="cls-1" x="28.6" y="51.2" width="11.8" height="11.8"/><polygon class="cls-2" points="28.6 63.01 26.2 61.81 26.2 50.01 28.6 51.2 28.6 63.01"/><polygon class="cls-3" points="40.4 51.2 28.6 51.2 26.2 50.01 38.01 50.01 40.4 51.2"/></g><g id="Bloque1-77" data-name="Bloque1"><rect class="cls-1" x="28.6" y="38.7" width="11.8" height="11.8"/><polygon class="cls-2" points="28.6 50.51 26.2 49.31 26.2 37.51 28.6 38.7 28.6 50.51"/><polygon class="cls-3" points="40.4 38.7 28.6 38.7 26.2 37.51 38.01 37.51 40.4 38.7"/></g><g id="Bloque1-78" data-name="Bloque1"><rect class="cls-1" x="28.6" y="26.2" width="11.8" height="11.8"/><polygon class="cls-2" points="28.6 38 26.2 36.81 26.2 25 28.6 26.2 28.6 38"/><polygon class="cls-3" points="40.4 26.2 28.6 26.2 26.2 25 38.01 25 40.4 26.2"/></g><g id="Bloque1-79" data-name="Bloque1"><rect class="cls-1" x="28.6" y="13.7" width="11.8" height="11.8"/><polygon class="cls-2" points="28.6 25.5 26.2 24.31 26.2 12.5 28.6 13.7 28.6 25.5"/><polygon class="cls-3" points="40.4 13.7 28.6 13.7 26.2 12.5 38.01 12.5 40.4 13.7"/></g><g id="Bloque1-80" data-name="Bloque1"><rect class="cls-1" x="28.6" y="1.2" width="11.8" height="11.8"/><polygon class="cls-2" points="28.6 13 26.2 11.8 26.2 0 28.6 1.2 28.6 13"/><polygon class="cls-3" points="40.4 1.2 28.6 1.2 26.2 0 38.01 0 40.4 1.2"/></g><g id="Bloque1-81" data-name="Bloque1"><rect class="cls-1" x="15.49" y="113.72" width="11.8" height="11.8"/><polygon class="cls-2" points="15.49 125.52 13.1 124.32 13.1 112.52 15.49 113.72 15.49 125.52"/><polygon class="cls-3" points="27.3 113.72 15.49 113.72 13.1 112.52 24.91 112.52 27.3 113.72"/></g><g id="Bloque1-82" data-name="Bloque1"><rect class="cls-1" x="15.49" y="101.21" width="11.8" height="11.8"/><polygon class="cls-2" points="15.49 113.02 13.1 111.82 13.1 100.02 15.49 101.21 15.49 113.02"/><polygon class="cls-3" points="27.3 101.21 15.49 101.21 13.1 100.02 24.91 100.02 27.3 101.21"/></g><g id="Bloque1-83" data-name="Bloque1"><rect class="cls-1" x="15.49" y="88.71" width="11.8" height="11.8"/><polygon class="cls-2" points="15.49 100.52 13.1 99.32 13.1 87.52 15.49 88.71 15.49 100.52"/><polygon class="cls-3" points="27.3 88.71 15.49 88.71 13.1 87.52 24.91 87.52 27.3 88.71"/></g><g id="Bloque1-84" data-name="Bloque1"><rect class="cls-1" x="15.49" y="76.21" width="11.8" height="11.8"/><polygon class="cls-2" points="15.49 88.01 13.1 86.82 13.1 75.01 15.49 76.21 15.49 88.01"/><polygon class="cls-3" points="27.3 76.21 15.49 76.21 13.1 75.01 24.91 75.01 27.3 76.21"/></g><g id="Bloque1-85" data-name="Bloque1"><rect class="cls-1" x="15.49" y="63.71" width="11.8" height="11.8"/><polygon class="cls-2" points="15.49 75.51 13.1 74.31 13.1 62.51 15.49 63.71 15.49 75.51"/><polygon class="cls-3" points="27.3 63.71 15.49 63.71 13.1 62.51 24.91 62.51 27.3 63.71"/></g><g id="Bloque1-86" data-name="Bloque1"><rect class="cls-1" x="15.49" y="51.2" width="11.8" height="11.8"/><polygon class="cls-2" points="15.49 63.01 13.1 61.81 13.1 50.01 15.49 51.2 15.49 63.01"/><polygon class="cls-3" points="27.3 51.2 15.49 51.2 13.1 50.01 24.91 50.01 27.3 51.2"/></g><g id="Bloque1-87" data-name="Bloque1"><rect class="cls-1" x="15.49" y="38.7" width="11.8" height="11.8"/><polygon class="cls-2" points="15.49 50.51 13.1 49.31 13.1 37.51 15.49 38.7 15.49 50.51"/><polygon class="cls-3" points="27.3 38.7 15.49 38.7 13.1 37.51 24.91 37.51 27.3 38.7"/></g><g id="Bloque1-88" data-name="Bloque1"><rect class="cls-1" x="15.49" y="26.2" width="11.8" height="11.8"/><polygon class="cls-2" points="15.49 38 13.1 36.81 13.1 25 15.49 26.2 15.49 38"/><polygon class="cls-3" points="27.3 26.2 15.49 26.2 13.1 25 24.91 25 27.3 26.2"/></g><g id="Bloque1-89" data-name="Bloque1"><rect class="cls-1" x="15.49" y="13.7" width="11.8" height="11.8"/><polygon class="cls-2" points="15.49 25.5 13.1 24.31 13.1 12.5 15.49 13.7 15.49 25.5"/><polygon class="cls-3" points="27.3 13.7 15.49 13.7 13.1 12.5 24.91 12.5 27.3 13.7"/></g><g id="Bloque1-90" data-name="Bloque1"><rect class="cls-1" x="15.49" y="1.2" width="11.8" height="11.8"/><polygon class="cls-2" points="15.49 13 13.1 11.8 13.1 0 15.49 1.2 15.49 13"/><polygon class="cls-3" points="27.3 1.2 15.49 1.2 13.1 0 24.91 0 27.3 1.2"/></g><g id="Bloque1-91" data-name="Bloque1"><rect class="cls-1" x="2.39" y="113.72" width="11.8" height="11.8"/><polygon class="cls-2" points="2.39 125.52 0 124.32 0 112.52 2.39 113.72 2.39 125.52"/><polygon class="cls-3" points="14.2 113.72 2.39 113.72 0 112.52 11.8 112.52 14.2 113.72"/></g><g id="Bloque1-92" data-name="Bloque1"><rect class="cls-1" x="2.39" y="101.21" width="11.8" height="11.8"/><polygon class="cls-2" points="2.39 113.02 0 111.82 0 100.02 2.39 101.21 2.39 113.02"/><polygon class="cls-3" points="14.2 101.21 2.39 101.21 0 100.02 11.8 100.02 14.2 101.21"/></g><g id="Bloque1-93" data-name="Bloque1"><rect class="cls-1" x="2.39" y="88.71" width="11.8" height="11.8"/><polygon class="cls-2" points="2.39 100.52 0 99.32 0 87.52 2.39 88.71 2.39 100.52"/><polygon class="cls-3" points="14.2 88.71 2.39 88.71 0 87.52 11.8 87.52 14.2 88.71"/></g><g id="Bloque1-94" data-name="Bloque1"><rect class="cls-1" x="2.39" y="76.21" width="11.8" height="11.8"/><polygon class="cls-2" points="2.39 88.01 0 86.82 0 75.01 2.39 76.21 2.39 88.01"/><polygon class="cls-3" points="14.2 76.21 2.39 76.21 0 75.01 11.8 75.01 14.2 76.21"/></g><g id="Bloque1-95" data-name="Bloque1"><rect class="cls-1" x="2.39" y="63.71" width="11.8" height="11.8"/><polygon class="cls-2" points="2.39 75.51 0 74.31 0 62.51 2.39 63.71 2.39 75.51"/><polygon class="cls-3" points="14.2 63.71 2.39 63.71 0 62.51 11.8 62.51 14.2 63.71"/></g><g id="Bloque1-96" data-name="Bloque1"><rect class="cls-1" x="2.39" y="51.2" width="11.8" height="11.8"/><polygon class="cls-2" points="2.39 63.01 0 61.81 0 50.01 2.39 51.2 2.39 63.01"/><polygon class="cls-3" points="14.2 51.2 2.39 51.2 0 50.01 11.8 50.01 14.2 51.2"/></g><g id="Bloque1-97" data-name="Bloque1"><rect class="cls-1" x="2.39" y="38.7" width="11.8" height="11.8"/><polygon class="cls-2" points="2.39 50.51 0 49.31 0 37.51 2.39 38.7 2.39 50.51"/><polygon class="cls-3" points="14.2 38.7 2.39 38.7 0 37.51 11.8 37.51 14.2 38.7"/></g><g id="Bloque1-98" data-name="Bloque1"><rect class="cls-1" x="2.39" y="26.2" width="11.8" height="11.8"/><polygon class="cls-2" points="2.39 38 0 36.81 0 25 2.39 26.2 2.39 38"/><polygon class="cls-3" points="14.2 26.2 2.39 26.2 0 25 11.8 25 14.2 26.2"/></g><g id="Bloque1-99" data-name="Bloque1"><rect class="cls-1" x="2.39" y="13.7" width="11.8" height="11.8"/><polygon class="cls-2" points="2.39 25.5 0 24.31 0 12.5 2.39 13.7 2.39 25.5"/><polygon class="cls-3" points="14.2 13.7 2.39 13.7 0 12.5 11.8 12.5 14.2 13.7"/></g><g id="Bloque1-100" data-name="Bloque1"><rect class="cls-1" x="2.39" y="1.2" width="11.8" height="11.8"/><polygon class="cls-2" points="2.39 13 0 11.8 0 0 2.39 1.2 2.39 13"/><polygon class="cls-3" points="14.2 1.2 2.39 1.2 0 0 11.8 0 14.2 1.2"/></g></g></g></svg>