<svg xmlns="http://www.w3.org/2000/svg" viewBox="0 0 257.51 139.6"><defs><style>.cls-1{fill:#f8bb18;}.cls-2{fill:#c51611;}.cls-3{fill:#f78910;}.cls-4{fill:#363026;}.cls-5{fill:#1f8ebe;}</style></defs><title>Recurso 4</title><g id="Capa_2" data-name="Capa 2"><g id="Capa_1-2" data-name="Capa 1"><g id="Bloque1"><rect class="cls-1" x="125.09" y="117.12" width="10.96" height="10.96"/><polygon class="cls-2" points="125.09 128.08 122.87 126.97 122.87 116.01 125.09 117.12 125.09 128.08"/><polygon class="cls-3" points="136.06 117.12 125.09 117.12 122.87 116.01 133.83 116.01 136.06 117.12"/></g><g id="Bloque1-2" data-name="Bloque1"><rect class="cls-1" x="125.09" y="105.51" width="10.96" height="10.96"/><polygon class="cls-2" points="125.09 116.47 122.87 115.36 122.87 104.4 125.09 105.51 125.09 116.47"/><polygon class="cls-3" points="136.06 105.51 125.09 105.51 122.87 104.4 133.83 104.4 136.06 105.51"/></g><g id="Bloque1-3" data-name="Bloque1"><rect class="cls-1" x="125.09" y="93.9" width="10.96" height="10.96"/><polygon class="cls-2" points="125.09 104.86 122.87 103.75 122.87 92.79 125.09 93.9 125.09 104.86"/><polygon class="cls-3" points="136.06 93.9 125.09 93.9 122.87 92.79 133.83 92.79 136.06 93.9"/></g><g id="Bloque1-4" data-name="Bloque1"><rect class="cls-1" x="125.09" y="82.29" width="10.96" height="10.96"/><polygon class="cls-2" points="125.09 93.25 122.87 92.14 122.87 81.18 125.09 82.29 125.09 93.25"/><polygon class="cls-3" points="136.06 82.29 125.09 82.29 122.87 81.18 133.83 81.18 136.06 82.29"/></g><g id="Bloque1-5" data-name="Bloque1"><rect class="cls-1" x="125.09" y="70.68" width="10.96" height="10.96"/><polygon class="cls-2" points="125.09 81.64 122.87 80.53 122.87 69.57 125.09 70.68 125.09 81.64"/><polygon class="cls-3" points="136.06 70.68 125.09 70.68 122.87 69.57 133.83 69.57 136.06 70.68"/></g><g id="Bloque1-6" data-name="Bloque1"><rect class="cls-1" x="125.09" y="59.07" width="10.96" height="10.96"/><polygon class="cls-2" points="125.09 70.03 122.87 68.92 122.87 57.96 125.09 59.07 125.09 70.03"/><polygon class="cls-3" points="136.06 59.07 125.09 59.07 122.87 57.96 133.83 57.96 136.06 59.07"/></g><g id="Bloque1-7" data-name="Bloque1"><rect class="cls-1" x="125.09" y="47.46" width="10.96" height="10.96"/><polygon class="cls-2" points="125.09 58.42 122.87 57.31 122.87 46.35 125.09 47.46 125.09 58.42"/><polygon class="cls-3" points="136.06 47.46 125.09 47.46 122.87 46.35 133.83 46.35 136.06 47.46"/></g><g id="Bloque1-8" data-name="Bloque1"><rect class="cls-1" x="125.09" y="35.85" width="10.96" height="10.96"/><polygon class="cls-2" points="125.09 46.81 122.87 45.7 122.87 34.74 125.09 35.85 125.09 46.81"/><polygon class="cls-3" points="136.06 35.85 125.09 35.85 122.87 34.74 133.83 34.74 136.06 35.85"/></g><g id="Bloque1-9" data-name="Bloque1"><rect class="cls-1" x="125.09" y="24.24" width="10.96" height="10.96"/><polygon class="cls-2" points="125.09 35.2 122.87 34.09 122.87 23.13 125.09 24.24 125.09 35.2"/><polygon class="cls-3" points="136.06 24.24 125.09 24.24 122.87 23.13 133.83 23.13 136.06 24.24"/></g><g id="Bloque1-10" data-name="Bloque1"><rect class="cls-1" x="125.09" y="12.63" width="10.96" height="10.96"/><polygon class="cls-2" points="125.09 23.59 122.87 22.48 122.87 11.52 125.09 12.63 125.09 23.59"/><polygon class="cls-3" points="136.06 12.63 125.09 12.63 122.87 11.52 133.83 11.52 136.06 12.63"/></g><g id="Bloque1-11" data-name="Bloque1"><rect class="cls-1" x="112.93" y="117.12" width="10.96" height="10.96"/><polygon class="cls-2" points="112.93 128.08 110.71 126.97 110.71 116.01 112.93 117.12 112.93 128.08"/><polygon class="cls-3" points="123.89 117.12 112.93 117.12 110.71 116.01 121.67 116.01 123.89 117.12"/></g><g id="Bloque1-12" data-name="Bloque1"><rect class="cls-1" x="112.93" y="105.51" width="10.96" height="10.96"/><polygon class="cls-2" points="112.93 116.47 110.71 115.36 110.71 104.4 112.93 105.51 112.93 116.47"/><polygon class="cls-3" points="123.89 105.51 112.93 105.51 110.71 104.4 121.67 104.4 123.89 105.51"/></g><g id="Bloque1-13" data-name="Bloque1"><rect class="cls-1" x="112.93" y="93.9" width="10.96" height="10.96"/><polygon class="cls-2" points="112.93 104.86 110.71 103.75 110.71 92.79 112.93 93.9 112.93 104.86"/><polygon class="cls-3" points="123.89 93.9 112.93 93.9 110.71 92.79 121.67 92.79 123.89 93.9"/></g><g id="Bloque1-14" data-name="Bloque1"><rect class="cls-1" x="112.93" y="82.29" width="10.96" height="10.96"/><polygon class="cls-2" points="112.93 93.25 110.71 92.14 110.71 81.18 112.93 82.29 112.93 93.25"/><polygon class="cls-3" points="123.89 82.29 112.93 82.29 110.71 81.18 121.67 81.18 123.89 82.29"/></g><g id="Bloque1-15" data-name="Bloque1"><rect class="cls-1" x="112.93" y="70.68" width="10.96" height="10.96"/><polygon class="cls-2" points="112.93 81.64 110.71 80.53 110.71 69.57 112.93 70.68 112.93 81.64"/><polygon class="cls-3" points="123.89 70.68 112.93 70.68 110.71 69.57 121.67 69.57 123.89 70.68"/></g><g id="Bloque1-16" data-name="Bloque1"><rect class="cls-1" x="112.93" y="59.07" width="10.96" height="10.96"/><polygon class="cls-2" points="112.93 70.03 110.71 68.92 110.71 57.96 112.93 59.07 112.93 70.03"/><polygon class="cls-3" points="123.89 59.07 112.93 59.07 110.71 57.96 121.67 57.96 123.89 59.07"/></g><g id="Bloque1-17" data-name="Bloque1"><rect class="cls-1" x="112.93" y="47.46" width="10.96" height="10.96"/><polygon class="cls-2" points="112.93 58.42 110.71 57.31 110.71 46.35 112.93 47.46 112.93 58.42"/><polygon class="cls-3" points="123.89 47.46 112.93 47.46 110.71 46.35 121.67 46.35 123.89 47.46"/></g><g id="Bloque1-18" data-name="Bloque1"><rect class="cls-1" x="112.93" y="35.85" width="10.96" height="10.96"/><polygon class="cls-2" points="112.93 46.81 110.71 45.7 110.71 34.74 112.93 35.85 112.93 46.81"/><polygon class="cls-3" points="123.89 35.85 112.93 35.85 110.71 34.74 121.67 34.74 123.89 35.85"/></g><g id="Bloque1-19" data-name="Bloque1"><rect class="cls-1" x="112.93" y="24.24" width="10.96" height="10.96"/><polygon class="cls-2" points="112.93 35.2 110.71 34.09 110.71 23.13 112.93 24.24 112.93 35.2"/><polygon class="cls-3" points="123.89 24.24 112.93 24.24 110.71 23.13 121.67 23.13 123.89 24.24"/></g><g id="Bloque1-20" data-name="Bloque1"><rect class="cls-1" x="112.93" y="12.63" width="10.96" height="10.96"/><polygon class="cls-2" points="112.93 23.59 110.71 22.48 110.71 11.52 112.93 12.63 112.93 23.59"/><polygon class="cls-3" points="123.89 12.63 112.93 12.63 110.71 11.52 121.67 11.52 123.89 12.63"/></g><g id="Bloque1-21" data-name="Bloque1"><rect class="cls-1" x="100.76" y="117.12" width="10.96" height="10.96"/><polygon class="cls-2" points="100.76 128.08 98.54 126.97 98.54 116.01 100.76 117.12 100.76 128.08"/><polygon class="cls-3" points="111.72 117.12 100.76 117.12 98.54 116.01 109.5 116.01 111.72 117.12"/></g><g id="Bloque1-22" data-name="Bloque1"><rect class="cls-1" x="100.76" y="105.51" width="10.96" height="10.96"/><polygon class="cls-2" points="100.76 116.47 98.54 115.36 98.54 104.4 100.76 105.51 100.76 116.47"/><polygon class="cls-3" points="111.72 105.51 100.76 105.51 98.54 104.4 109.5 104.4 111.72 105.51"/></g><g id="Bloque1-23" data-name="Bloque1"><rect class="cls-1" x="100.76" y="93.9" width="10.96" height="10.96"/><polygon class="cls-2" points="100.76 104.86 98.54 103.75 98.54 92.79 100.76 93.9 100.76 104.86"/><polygon class="cls-3" points="111.72 93.9 100.76 93.9 98.54 92.79 109.5 92.79 111.72 93.9"/></g><g id="Bloque1-24" data-name="Bloque1"><rect class="cls-1" x="100.76" y="82.29" width="10.96" height="10.96"/><polygon class="cls-2" points="100.76 93.25 98.54 92.14 98.54 81.18 100.76 82.29 100.76 93.25"/><polygon class="cls-3" points="111.72 82.29 100.76 82.29 98.54 81.18 109.5 81.18 111.72 82.29"/></g><g id="Bloque1-25" data-name="Bloque1"><rect class="cls-1" x="100.76" y="70.68" width="10.96" height="10.96"/><polygon class="cls-2" points="100.76 81.64 98.54 80.53 98.54 69.57 100.76 70.68 100.76 81.64"/><polygon class="cls-3" points="111.72 70.68 100.76 70.68 98.54 69.57 109.5 69.57 111.72 70.68"/></g><g id="Bloque1-26" data-name="Bloque1"><rect class="cls-1" x="100.76" y="59.07" width="10.96" height="10.96"/><polygon class="cls-2" points="100.76 70.03 98.54 68.92 98.54 57.96 100.76 59.07 100.76 70.03"/><polygon class="cls-3" points="111.72 59.07 100.76 59.07 98.54 57.96 109.5 57.96 111.72 59.07"/></g><g id="Bloque1-27" data-name="Bloque1"><rect class="cls-1" x="100.76" y="47.46" width="10.96" height="10.96"/><polygon class="cls-2" points="100.76 58.42 98.54 57.31 98.54 46.35 100.76 47.46 100.76 58.42"/><polygon class="cls-3" points="111.72 47.46 100.76 47.46 98.54 46.35 109.5 46.35 111.72 47.46"/></g><g id="Bloque1-28" data-name="Bloque1"><rect class="cls-1" x="100.76" y="35.85" width="10.96" height="10.96"/><polygon class="cls-2" points="100.76 46.81 98.54 45.7 98.54 34.74 100.76 35.85 100.76 46.81"/><polygon class="cls-3" points="111.72 35.85 100.76 35.85 98.54 34.74 109.5 34.74 111.72 35.85"/></g><g id="Bloque1-29" data-name="Bloque1"><rect class="cls-1" x="100.76" y="24.24" width="10.96" height="10.96"/><polygon class="cls-2" points="100.76 35.2 98.54 34.09 98.54 23.13 100.76 24.24 100.76 35.2"/><polygon class="cls-3" points="111.72 24.24 100.76 24.24 98.54 23.13 109.5 23.13 111.72 24.24"/></g><g id="Bloque1-30" data-name="Bloque1"><rect class="cls-1" x="100.76" y="12.63" width="10.96" height="10.96"/><polygon class="cls-2" points="100.76 23.59 98.54 22.48 98.54 11.52 100.76 12.63 100.76 23.59"/><polygon class="cls-3" points="111.72 12.63 100.76 12.63 98.54 11.52 109.5 11.52 111.72 12.63"/></g><g id="Bloque1-31" data-name="Bloque1"><rect class="cls-1" x="88.59" y="117.12" width="10.96" height="10.96"/><polygon class="cls-2" points="88.59 128.08 86.37 126.97 86.37 116.01 88.59 117.12 88.59 128.08"/><polygon class="cls-3" points="99.56 117.12 88.59 117.12 86.37 116.01 97.33 116.01 99.56 117.12"/></g><g id="Bloque1-32" data-name="Bloque1"><rect class="cls-1" x="88.59" y="105.51" width="10.96" height="10.96"/><polygon class="cls-2" points="88.59 116.47 86.37 115.36 86.37 104.4 88.59 105.51 88.59 116.47"/><polygon class="cls-3" points="99.56 105.51 88.59 105.51 86.37 104.4 97.33 104.4 99.56 105.51"/></g><g id="Bloque1-33" data-name="Bloque1"><rect class="cls-1" x="88.59" y="93.9" width="10.96" height="10.96"/><polygon class="cls-2" points="88.59 104.86 86.37 103.75 86.37 92.79 88.59 93.9 88.59 104.86"/><polygon class="cls-3" points="99.56 93.9 88.59 93.9 86.37 92.79 97.33 92.79 99.56 93.9"/></g><g id="Bloque1-34" data-name="Bloque1"><rect class="cls-1" x="88.59" y="82.29" width="10.96" height="10.96"/><polygon class="cls-2" points="88.59 93.25 86.37 92.14 86.37 81.18 88.59 82.29 88.59 93.25"/><polygon class="cls-3" points="99.56 82.29 88.59 82.29 86.37 81.18 97.33 81.18 99.56 82.29"/></g><g id="Bloque1-35" data-name="Bloque1"><rect class="cls-1" x="88.59" y="70.68" width="10.96" height="10.96"/><polygon class="cls-2" points="88.59 81.64 86.37 80.53 86.37 69.57 88.59 70.68 88.59 81.64"/><polygon class="cls-3" points="99.56 70.68 88.59 70.68 86.37 69.57 97.33 69.57 99.56 70.68"/></g><g id="Bloque1-36" data-name="Bloque1"><rect class="cls-1" x="88.59" y="59.07" width="10.96" height="10.96"/><polygon class="cls-2" points="88.59 70.03 86.37 68.92 86.37 57.96 88.59 59.07 88.59 70.03"/><polygon class="cls-3" points="99.56 59.07 88.59 59.07 86.37 57.96 97.33 57.96 99.56 59.07"/></g><g id="Bloque1-37" data-name="Bloque1"><rect class="cls-1" x="88.59" y="47.46" width="10.96" height="10.96"/><polygon class="cls-2" points="88.59 58.42 86.37 57.31 86.37 46.35 88.59 47.46 88.59 58.42"/><polygon class="cls-3" points="99.56 47.46 88.59 47.46 86.37 46.35 97.33 46.35 99.56 47.46"/></g><g id="Bloque1-38" data-name="Bloque1"><rect class="cls-1" x="88.59" y="35.85" width="10.96" height="10.96"/><polygon class="cls-2" points="88.59 46.81 86.37 45.7 86.37 34.74 88.59 35.85 88.59 46.81"/><polygon class="cls-3" points="99.56 35.85 88.59 35.85 86.37 34.74 97.33 34.74 99.56 35.85"/></g><g id="Bloque1-39" data-name="Bloque1"><rect class="cls-1" x="88.59" y="24.24" width="10.96" height="10.96"/><polygon class="cls-2" points="88.59 35.2 86.37 34.09 86.37 23.13 88.59 24.24 88.59 35.2"/><polygon class="cls-3" points="99.56 24.24 88.59 24.24 86.37 23.13 97.33 23.13 99.56 24.24"/></g><g id="Bloque1-40" data-name="Bloque1"><rect class="cls-1" x="88.59" y="12.63" width="10.96" height="10.96"/><polygon class="cls-2" points="88.59 23.59 86.37 22.48 86.37 11.52 88.59 12.63 88.59 23.59"/><polygon class="cls-3" points="99.56 12.63 88.59 12.63 86.37 11.52 97.33 11.52 99.56 12.63"/></g><g id="Bloque1-41" data-name="Bloque1"><rect class="cls-1" x="76.43" y="117.12" width="10.96" height="10.96"/><polygon class="cls-2" points="76.43 128.08 74.2 126.97 74.2 116.01 76.43 117.12 76.43 128.08"/><polygon class="cls-3" points="87.39 117.12 76.43 117.12 74.2 116.01 85.17 116.01 87.39 117.12"/></g><g id="Bloque1-42" data-name="Bloque1"><rect class="cls-1" x="76.43" y="105.51" width="10.96" height="10.96"/><polygon class="cls-2" points="76.43 116.47 74.2 115.36 74.2 104.4 76.43 105.51 76.43 116.47"/><polygon class="cls-3" points="87.39 105.51 76.43 105.51 74.2 104.4 85.17 104.4 87.39 105.51"/></g><g id="Bloque1-43" data-name="Bloque1"><rect class="cls-1" x="76.43" y="93.9" width="10.96" height="10.96"/><polygon class="cls-2" points="76.43 104.86 74.2 103.75 74.2 92.79 76.43 93.9 76.43 104.86"/><polygon class="cls-3" points="87.39 93.9 76.43 93.9 74.2 92.79 85.17 92.79 87.39 93.9"/></g><g id="Bloque1-44" data-name="Bloque1"><rect class="cls-1" x="76.43" y="82.29" width="10.96" height="10.96"/><polygon class="cls-2" points="76.43 93.25 74.2 92.14 74.2 81.18 76.43 82.29 76.43 93.25"/><polygon class="cls-3" points="87.39 82.29 76.43 82.29 74.2 81.18 85.17 81.18 87.39 82.29"/></g><g id="Bloque1-45" data-name="Bloque1"><rect class="cls-1" x="76.43" y="70.68" width="10.96" height="10.96"/><polygon class="cls-2" points="76.43 81.64 74.2 80.53 74.2 69.57 76.43 70.68 76.43 81.64"/><polygon class="cls-3" points="87.39 70.68 76.43 70.68 74.2 69.57 85.17 69.57 87.39 70.68"/></g><g id="Bloque1-46" data-name="Bloque1"><rect class="cls-1" x="76.43" y="59.07" width="10.96" height="10.96"/><polygon class="cls-2" points="76.43 70.03 74.2 68.92 74.2 57.96 76.43 59.07 76.43 70.03"/><polygon class="cls-3" points="87.39 59.07 76.43 59.07 74.2 57.96 85.17 57.96 87.39 59.07"/></g><g id="Bloque1-47" data-name="Bloque1"><rect class="cls-1" x="76.43" y="47.46" width="10.96" height="10.96"/><polygon class="cls-2" points="76.43 58.42 74.2 57.31 74.2 46.35 76.43 47.46 76.43 58.42"/><polygon class="cls-3" points="87.39 47.46 76.43 47.46 74.2 46.35 85.17 46.35 87.39 47.46"/></g><g id="Bloque1-48" data-name="Bloque1"><rect class="cls-1" x="76.43" y="35.85" width="10.96" height="10.96"/><polygon class="cls-2" points="76.43 46.81 74.2 45.7 74.2 34.74 76.43 35.85 76.43 46.81"/><polygon class="cls-3" points="87.39 35.85 76.43 35.85 74.2 34.74 85.17 34.74 87.39 35.85"/></g><g id="Bloque1-49" data-name="Bloque1"><rect class="cls-1" x="76.43" y="24.24" width="10.96" height="10.96"/><polygon class="cls-2" points="76.43 35.2 74.2 34.09 74.2 23.13 76.43 24.24 76.43 35.2"/><polygon class="cls-3" points="87.39 24.24 76.43 24.24 74.2 23.13 85.17 23.13 87.39 24.24"/></g><g id="Bloque1-50" data-name="Bloque1"><rect class="cls-1" x="76.43" y="12.63" width="10.96" height="10.96"/><polygon class="cls-2" points="76.43 23.59 74.2 22.48 74.2 11.52 76.43 12.63 76.43 23.59"/><polygon class="cls-3" points="87.39 12.63 76.43 12.63 74.2 11.52 85.17 11.52 87.39 12.63"/></g><g id="Bloque1-51" data-name="Bloque1"><rect class="cls-1" x="64.26" y="117.12" width="10.96" height="10.96"/><polygon class="cls-2" points="64.26 128.08 62.04 126.97 62.04 116.01 64.26 117.12 64.26 128.08"/><polygon class="cls-3" points="75.22 117.12 64.26 117.12 62.04 116.01 73 116.01 75.22 117.12"/></g><g id="Bloque1-52" data-name="Bloque1"><rect class="cls-1" x="64.26" y="105.51" width="10.96" height="10.96"/><polygon class="cls-2" points="64.26 116.47 62.04 115.36 62.04 104.4 64.26 105.51 64.26 116.47"/><polygon class="cls-3" points="75.22 105.51 64.26 105.51 62.04 104.4 73 104.4 75.22 105.51"/></g><g id="Bloque1-53" data-name="Bloque1"><rect class="cls-1" x="64.26" y="93.9" width="10.96" height="10.96"/><polygon class="cls-2" points="64.26 104.86 62.04 103.75 62.04 92.79 64.26 93.9 64.26 104.86"/><polygon class="cls-3" points="75.22 93.9 64.26 93.9 62.04 92.79 73 92.79 75.22 93.9"/></g><g id="Bloque1-54" data-name="Bloque1"><rect class="cls-1" x="64.26" y="82.29" width="10.96" height="10.96"/><polygon class="cls-2" points="64.26 93.25 62.04 92.14 62.04 81.18 64.26 82.29 64.26 93.25"/><polygon class="cls-3" points="75.22 82.29 64.26 82.29 62.04 81.18 73 81.18 75.22 82.29"/></g><g id="Bloque1-55" data-name="Bloque1"><rect class="cls-1" x="64.26" y="70.68" width="10.96" height="10.96"/><polygon class="cls-2" points="64.26 81.64 62.04 80.53 62.04 69.57 64.26 70.68 64.26 81.64"/><polygon class="cls-3" points="75.22 70.68 64.26 70.68 62.04 69.57 73 69.57 75.22 70.68"/></g><g id="Bloque1-56" data-name="Bloque1"><rect class="cls-1" x="64.26" y="59.07" width="10.96" height="10.96"/><polygon class="cls-2" points="64.26 70.03 62.04 68.92 62.04 57.96 64.26 59.07 64.26 70.03"/><polygon class="cls-3" points="75.22 59.07 64.26 59.07 62.04 57.96 73 57.96 75.22 59.07"/></g><g id="Bloque1-57" data-name="Bloque1"><rect class="cls-1" x="64.26" y="47.46" width="10.96" height="10.96"/><polygon class="cls-2" points="64.26 58.42 62.04 57.31 62.04 46.35 64.26 47.46 64.26 58.42"/><polygon class="cls-3" points="75.22 47.46 64.26 47.46 62.04 46.35 73 46.35 75.22 47.46"/></g><g id="Bloque1-58" data-name="Bloque1"><rect class="cls-1" x="64.26" y="35.85" width="10.96" height="10.96"/><polygon class="cls-2" points="64.26 46.81 62.04 45.7 62.04 34.74 64.26 35.85 64.26 46.81"/><polygon class="cls-3" points="75.22 35.85 64.26 35.85 62.04 34.74 73 34.74 75.22 35.85"/></g><g id="Bloque1-59" data-name="Bloque1"><rect class="cls-1" x="64.26" y="24.24" width="10.96" height="10.96"/><polygon class="cls-2" points="64.26 35.2 62.04 34.09 62.04 23.13 64.26 24.24 64.26 35.2"/><polygon class="cls-3" points="75.22 24.24 64.26 24.24 62.04 23.13 73 23.13 75.22 24.24"/></g><g id="Bloque1-60" data-name="Bloque1"><rect class="cls-1" x="64.26" y="12.63" width="10.96" height="10.96"/><polygon class="cls-2" points="64.26 23.59 62.04 22.48 62.04 11.52 64.26 12.63 64.26 23.59"/><polygon class="cls-3" points="75.22 12.63 64.26 12.63 62.04 11.52 73 11.52 75.22 12.63"/></g><g id="Bloque1-61" data-name="Bloque1"><rect class="cls-1" x="52.09" y="117.12" width="10.96" height="10.96"/><polygon class="cls-2" points="52.09 128.08 49.87 126.97 49.87 116.01 52.09 117.12 52.09 128.08"/><polygon class="cls-3" points="63.05 117.12 52.09 117.12 49.87 116.01 60.83 116.01 63.05 117.12"/></g><g id="Bloque1-62" data-name="Bloque1"><rect class="cls-1" x="52.09" y="105.51" width="10.96" height="10.96"/><polygon class="cls-2" points="52.09 116.47 49.87 115.36 49.87 104.4 52.09 105.51 52.09 116.47"/><polygon class="cls-3" points="63.05 105.51 52.09 105.51 49.87 104.4 60.83 104.4 63.05 105.51"/></g><g id="Bloque1-63" data-name="Bloque1"><rect class="cls-1" x="52.09" y="93.9" width="10.96" height="10.96"/><polygon class="cls-2" points="52.09 104.86 49.87 103.75 49.87 92.79 52.09 93.9 52.09 104.86"/><polygon class="cls-3" points="63.05 93.9 52.09 93.9 49.87 92.79 60.83 92.79 63.05 93.9"/></g><g id="Bloque1-64" data-name="Bloque1"><rect class="cls-1" x="52.09" y="82.29" width="10.96" height="10.96"/><polygon class="cls-2" points="52.09 93.25 49.87 92.14 49.87 81.18 52.09 82.29 52.09 93.25"/><polygon class="cls-3" points="63.05 82.29 52.09 82.29 49.87 81.18 60.83 81.18 63.05 82.29"/></g><g id="Bloque1-65" data-name="Bloque1"><rect class="cls-1" x="52.09" y="70.68" width="10.96" height="10.96"/><polygon class="cls-2" points="52.09 81.64 49.87 80.53 49.87 69.57 52.09 70.68 52.09 81.64"/><polygon class="cls-3" points="63.05 70.68 52.09 70.68 49.87 69.57 60.83 69.57 63.05 70.68"/></g><g id="Bloque1-66" data-name="Bloque1"><rect class="cls-1" x="52.09" y="59.07" width="10.96" height="10.96"/><polygon class="cls-2" points="52.09 70.03 49.87 68.92 49.87 57.96 52.09 59.07 52.09 70.03"/><polygon class="cls-3" points="63.05 59.07 52.09 59.07 49.87 57.96 60.83 57.96 63.05 59.07"/></g><g id="Bloque1-67" data-name="Bloque1"><rect class="cls-1" x="52.09" y="47.46" width="10.96" height="10.96"/><polygon class="cls-2" points="52.09 58.42 49.87 57.31 49.87 46.35 52.09 47.46 52.09 58.42"/><polygon class="cls-3" points="63.05 47.46 52.09 47.46 49.87 46.35 60.83 46.35 63.05 47.46"/></g><g id="Bloque1-68" data-name="Bloque1"><rect class="cls-1" x="52.09" y="35.85" width="10.96" height="10.96"/><polygon class="cls-2" points="52.09 46.81 49.87 45.7 49.87 34.74 52.09 35.85 52.09 46.81"/><polygon class="cls-3" points="63.05 35.85 52.09 35.85 49.87 34.74 60.83 34.74 63.05 35.85"/></g><g id="Bloque1-69" data-name="Bloque1"><rect class="cls-1" x="52.09" y="24.24" width="10.96" height="10.96"/><polygon class="cls-2" points="52.09 35.2 49.87 34.09 49.87 23.13 52.09 24.24 52.09 35.2"/><polygon class="cls-3" points="63.05 24.24 52.09 24.24 49.87 23.13 60.83 23.13 63.05 24.24"/></g><g id="Bloque1-70" data-name="Bloque1"><rect class="cls-1" x="52.09" y="12.63" width="10.96" height="10.96"/><polygon class="cls-2" points="52.09 23.59 49.87 22.48 49.87 11.52 52.09 12.63 52.09 23.59"/><polygon class="cls-3" points="63.05 12.63 52.09 12.63 49.87 11.52 60.83 11.52 63.05 12.63"/></g><g id="Bloque1-71" data-name="Bloque1"><rect class="cls-1" x="39.93" y="117.12" width="10.96" height="10.96"/><polygon class="cls-2" points="39.92 128.08 37.7 126.97 37.7 116.01 39.92 117.12 39.92 128.08"/><polygon class="cls-3" points="50.89 117.12 39.92 117.12 37.7 116.01 48.67 116.01 50.89 117.12"/></g><g id="Bloque1-72" data-name="Bloque1"><rect class="cls-1" x="39.93" y="105.51" width="10.96" height="10.96"/><polygon class="cls-2" points="39.92 116.47 37.7 115.36 37.7 104.4 39.92 105.51 39.92 116.47"/><polygon class="cls-3" points="50.89 105.51 39.92 105.51 37.7 104.4 48.67 104.4 50.89 105.51"/></g><g id="Bloque1-73" data-name="Bloque1"><rect class="cls-1" x="39.93" y="93.9" width="10.96" height="10.96"/><polygon class="cls-2" points="39.92 104.86 37.7 103.75 37.7 92.79 39.92 93.9 39.92 104.86"/><polygon class="cls-3" points="50.89 93.9 39.92 93.9 37.7 92.79 48.67 92.79 50.89 93.9"/></g><g id="Bloque1-74" data-name="Bloque1"><rect class="cls-1" x="39.93" y="82.29" width="10.96" height="10.96"/><polygon class="cls-2" points="39.92 93.25 37.7 92.14 37.7 81.18 39.92 82.29 39.92 93.25"/><polygon class="cls-3" points="50.89 82.29 39.92 82.29 37.7 81.18 48.67 81.18 50.89 82.29"/></g><g id="Bloque1-75" data-name="Bloque1"><rect class="cls-1" x="39.93" y="70.68" width="10.96" height="10.96"/><polygon class="cls-2" points="39.92 81.64 37.7 80.53 37.7 69.57 39.92 70.68 39.92 81.64"/><polygon class="cls-3" points="50.89 70.68 39.92 70.68 37.7 69.57 48.67 69.57 50.89 70.68"/></g><g id="Bloque1-76" data-name="Bloque1"><rect class="cls-1" x="39.93" y="59.07" width="10.96" height="10.96"/><polygon class="cls-2" points="39.92 70.03 37.7 68.92 37.7 57.96 39.92 59.07 39.92 70.03"/><polygon class="cls-3" points="50.89 59.07 39.92 59.07 37.7 57.96 48.67 57.96 50.89 59.07"/></g><g id="Bloque1-77" data-name="Bloque1"><rect class="cls-1" x="39.93" y="47.46" width="10.96" height="10.96"/><polygon class="cls-2" points="39.92 58.42 37.7 57.31 37.7 46.35 39.92 47.46 39.92 58.42"/><polygon class="cls-3" points="50.89 47.46 39.92 47.46 37.7 46.35 48.67 46.35 50.89 47.46"/></g><g id="Bloque1-78" data-name="Bloque1"><rect class="cls-1" x="39.93" y="35.85" width="10.96" height="10.96"/><polygon class="cls-2" points="39.92 46.81 37.7 45.7 37.7 34.74 39.92 35.85 39.92 46.81"/><polygon class="cls-3" points="50.89 35.85 39.92 35.85 37.7 34.74 48.67 34.74 50.89 35.85"/></g><g id="Bloque1-79" data-name="Bloque1"><rect class="cls-1" x="39.93" y="24.24" width="10.96" height="10.96"/><polygon class="cls-2" points="39.92 35.2 37.7 34.09 37.7 23.13 39.92 24.24 39.92 35.2"/><polygon class="cls-3" points="50.89 24.24 39.92 24.24 37.7 23.13 48.67 23.13 50.89 24.24"/></g><g id="Bloque1-80" data-name="Bloque1"><rect class="cls-1" x="39.93" y="12.63" width="10.96" height="10.96"/><polygon class="cls-2" points="39.92 23.59 37.7 22.48 37.7 11.52 39.92 12.63 39.92 23.59"/><polygon class="cls-3" points="50.89 12.63 39.92 12.63 37.7 11.52 48.67 11.52 50.89 12.63"/></g><g id="Bloque1-81" data-name="Bloque1"><rect class="cls-1" x="27.76" y="117.12" width="10.96" height="10.96"/><polygon class="cls-2" points="27.76 128.08 25.54 126.97 25.54 116.01 27.76 117.12 27.76 128.08"/><polygon class="cls-3" points="38.72 117.12 27.76 117.12 25.54 116.01 36.5 116.01 38.72 117.12"/></g><g id="Bloque1-82" data-name="Bloque1"><rect class="cls-1" x="27.76" y="105.51" width="10.96" height="10.96"/><polygon class="cls-2" points="27.76 116.47 25.54 115.36 25.54 104.4 27.76 105.51 27.76 116.47"/><polygon class="cls-3" points="38.72 105.51 27.76 105.51 25.54 104.4 36.5 104.4 38.72 105.51"/></g><g id="Bloque1-83" data-name="Bloque1"><rect class="cls-1" x="27.76" y="93.9" width="10.96" height="10.96"/><polygon class="cls-2" points="27.76 104.86 25.54 103.75 25.54 92.79 27.76 93.9 27.76 104.86"/><polygon class="cls-3" points="38.72 93.9 27.76 93.9 25.54 92.79 36.5 92.79 38.72 93.9"/></g><g id="Bloque1-84" data-name="Bloque1"><rect class="cls-1" x="27.76" y="82.29" width="10.96" height="10.96"/><polygon class="cls-2" points="27.76 93.25 25.54 92.14 25.54 81.18 27.76 82.29 27.76 93.25"/><polygon class="cls-3" points="38.72 82.29 27.76 82.29 25.54 81.18 36.5 81.18 38.72 82.29"/></g><g id="Bloque1-85" data-name="Bloque1"><rect class="cls-1" x="27.76" y="70.68" width="10.96" height="10.96"/><polygon class="cls-2" points="27.76 81.64 25.54 80.53 25.54 69.57 27.76 70.68 27.76 81.64"/><polygon class="cls-3" points="38.72 70.68 27.76 70.68 25.54 69.57 36.5 69.57 38.72 70.68"/></g><g id="Bloque1-86" data-name="Bloque1"><rect class="cls-1" x="27.76" y="59.07" width="10.96" height="10.96"/><polygon class="cls-2" points="27.76 70.03 25.54 68.92 25.54 57.96 27.76 59.07 27.76 70.03"/><polygon class="cls-3" points="38.72 59.07 27.76 59.07 25.54 57.96 36.5 57.96 38.72 59.07"/></g><g id="Bloque1-87" data-name="Bloque1"><rect class="cls-1" x="27.76" y="47.46" width="10.96" height="10.96"/><polygon class="cls-2" points="27.76 58.42 25.54 57.31 25.54 46.35 27.76 47.46 27.76 58.42"/><polygon class="cls-3" points="38.72 47.46 27.76 47.46 25.54 46.35 36.5 46.35 38.72 47.46"/></g><g id="Bloque1-88" data-name="Bloque1"><rect class="cls-1" x="27.76" y="35.85" width="10.96" height="10.96"/><polygon class="cls-2" points="27.76 46.81 25.54 45.7 25.54 34.74 27.76 35.85 27.76 46.81"/><polygon class="cls-3" points="38.72 35.85 27.76 35.85 25.54 34.74 36.5 34.74 38.72 35.85"/></g><g id="Bloque1-89" data-name="Bloque1"><rect class="cls-1" x="27.76" y="24.24" width="10.96" height="10.96"/><polygon class="cls-2" points="27.76 35.2 25.54 34.09 25.54 23.13 27.76 24.24 27.76 35.2"/><polygon class="cls-3" points="38.72 24.24 27.76 24.24 25.54 23.13 36.5 23.13 38.72 24.24"/></g><g id="Bloque1-90" data-name="Bloque1"><rect class="cls-1" x="27.76" y="12.63" width="10.96" height="10.96"/><polygon class="cls-2" points="27.76 23.59 25.54 22.48 25.54 11.52 27.76 12.63 27.76 23.59"/><polygon class="cls-3" points="38.72 12.63 27.76 12.63 25.54 11.52 36.5 11.52 38.72 12.63"/></g><g id="Bloque1-91" data-name="Bloque1"><rect class="cls-1" x="15.59" y="117.12" width="10.96" height="10.96"/><polygon class="cls-2" points="15.59 128.08 13.37 126.97 13.37 116.01 15.59 117.12 15.59 128.08"/><polygon class="cls-3" points="26.55 117.12 15.59 117.12 13.37 116.01 24.33 116.01 26.55 117.12"/></g><g id="Bloque1-92" data-name="Bloque1"><rect class="cls-1" x="15.59" y="105.51" width="10.96" height="10.96"/><polygon class="cls-2" points="15.59 116.47 13.37 115.36 13.37 104.4 15.59 105.51 15.59 116.47"/><polygon class="cls-3" points="26.55 105.51 15.59 105.51 13.37 104.4 24.33 104.4 26.55 105.51"/></g><g id="Bloque1-93" data-name="Bloque1"><rect class="cls-1" x="15.59" y="93.9" width="10.96" height="10.96"/><polygon class="cls-2" points="15.59 104.86 13.37 103.75 13.37 92.79 15.59 93.9 15.59 104.86"/><polygon class="cls-3" points="26.55 93.9 15.59 93.9 13.37 92.79 24.33 92.79 26.55 93.9"/></g><g id="Bloque1-94" data-name="Bloque1"><rect class="cls-1" x="15.59" y="82.29" width="10.96" height="10.96"/><polygon class="cls-2" points="15.59 93.25 13.37 92.14 13.37 81.18 15.59 82.29 15.59 93.25"/><polygon class="cls-3" points="26.55 82.29 15.59 82.29 13.37 81.18 24.33 81.18 26.55 82.29"/></g><g id="Bloque1-95" data-name="Bloque1"><rect class="cls-1" x="15.59" y="70.68" width="10.96" height="10.96"/><polygon class="cls-2" points="15.59 81.64 13.37 80.53 13.37 69.57 15.59 70.68 15.59 81.64"/><polygon class="cls-3" points="26.55 70.68 15.59 70.68 13.37 69.57 24.33 69.57 26.55 70.68"/></g><g id="Bloque1-96" data-name="Bloque1"><rect class="cls-1" x="15.59" y="59.07" width="10.96" height="10.96"/><polygon class="cls-2" points="15.59 70.03 13.37 68.92 13.37 57.96 15.59 59.07 15.59 70.03"/><polygon class="cls-3" points="26.55 59.07 15.59 59.07 13.37 57.96 24.33 57.96 26.55 59.07"/></g><g id="Bloque1-97" data-name="Bloque1"><rect class="cls-1" x="15.59" y="47.46" width="10.96" height="10.96"/><polygon class="cls-2" points="15.59 58.42 13.37 57.31 13.37 46.35 15.59 47.46 15.59 58.42"/><polygon class="cls-3" points="26.55 47.46 15.59 47.46 13.37 46.35 24.33 46.35 26.55 47.46"/></g><g id="Bloque1-98" data-name="Bloque1"><rect class="cls-1" x="15.59" y="35.85" width="10.96" height="10.96"/><polygon class="cls-2" points="15.59 46.81 13.37 45.7 13.37 34.74 15.59 35.85 15.59 46.81"/><polygon class="cls-3" points="26.55 35.85 15.59 35.85 13.37 34.74 24.33 34.74 26.55 35.85"/></g><g id="Bloque1-99" data-name="Bloque1"><rect class="cls-1" x="15.59" y="24.24" width="10.96" height="10.96"/><polygon class="cls-2" points="15.59 35.2 13.37 34.09 13.37 23.13 15.59 24.24 15.59 35.2"/><polygon class="cls-3" points="26.55 24.24 15.59 24.24 13.37 23.13 24.33 23.13 26.55 24.24"/></g><g id="Bloque1-100" data-name="Bloque1"><rect class="cls-1" x="15.59" y="12.63" width="10.96" height="10.96"/><polygon class="cls-2" points="15.59 23.59 13.37 22.48 13.37 11.52 15.59 12.63 15.59 23.59"/><polygon class="cls-3" points="26.55 12.63 15.59 12.63 13.37 11.52 24.33 11.52 26.55 12.63"/></g><path class="cls-4" d="M207.12,79a1.22,1.22,0,0,1-.9-.35,1.14,1.14,0,0,1-.34-.84V61.4l.34.41-3.35,2a1.13,1.13,0,0,1-.58.14,1.08,1.08,0,0,1-.84-.39,1.18,1.18,0,0,1-.34-.79,1.15,1.15,0,0,1,.6-1L206.43,59a1.55,1.55,0,0,1,.86-.17,1,1,0,0,1,.78.33,1.19,1.19,0,0,1,.29.83V77.85a1.14,1.14,0,0,1-.34.84A1.24,1.24,0,0,1,207.12,79Z"/><path class="cls-4" d="M219.61,79.33a6,6,0,0,1-4-1.36,8.28,8.28,0,0,1-2.42-3.73,17.56,17.56,0,0,1,0-10.67,8.29,8.29,0,0,1,2.42-3.7,6.58,6.58,0,0,1,8,0,8.29,8.29,0,0,1,2.42,3.7,18.19,18.19,0,0,1,0,10.67A8.28,8.28,0,0,1,223.61,78,6,6,0,0,1,219.61,79.33Zm0-2.35a3.65,3.65,0,0,0,2.59-1,6.18,6.18,0,0,0,1.6-2.79,17.12,17.12,0,0,0,0-8.61,6.14,6.14,0,0,0-1.6-2.78,3.94,3.94,0,0,0-5.18,0,6.25,6.25,0,0,0-1.62,2.78,16.83,16.83,0,0,0,0,8.61A6.29,6.29,0,0,0,217,76,3.63,3.63,0,0,0,219.61,77Z"/><path class="cls-4" d="M237,79.33A6,6,0,0,1,233,78a8.38,8.38,0,0,1-2.43-3.73,17.76,17.76,0,0,1,0-10.67,8.39,8.39,0,0,1,2.43-3.7,6.58,6.58,0,0,1,8,0,8.27,8.27,0,0,1,2.41,3.7,18,18,0,0,1,0,10.67A8.26,8.26,0,0,1,241,78,6,6,0,0,1,237,79.33ZM237,77a3.63,3.63,0,0,0,2.59-1,6.09,6.09,0,0,0,1.6-2.79,17.12,17.12,0,0,0,0-8.61,6.05,6.05,0,0,0-1.6-2.78,3.94,3.94,0,0,0-5.18,0,6.15,6.15,0,0,0-1.61,2.78,16.54,16.54,0,0,0,0,8.61A6.19,6.19,0,0,0,234.39,76,3.65,3.65,0,0,0,237,77Z"/><path class="cls-5" d="M161.2,67.37a1.71,1.71,0,0,1-1.25-.51,1.66,1.66,0,0,1-.5-1.2,1.47,1.47,0,0,1,.5-1.12,1.79,1.79,0,0,1,1.25-.46h15.27a1.79,1.79,0,0,1,1.25.46,1.51,1.51,0,0,1,.5,1.16,1.6,1.6,0,0,1-.5,1.16,1.71,1.71,0,0,1-1.25.51Zm0,8.15A1.76,1.76,0,0,1,160,75a1.58,1.58,0,0,1-.5-1.18,1.54,1.54,0,0,1,.5-1.17,1.84,1.84,0,0,1,1.25-.46h15.27a1.73,1.73,0,0,1,1.25.49,1.58,1.58,0,0,1,.5,1.18,1.54,1.54,0,0,1-.5,1.14,1.76,1.76,0,0,1-1.25.48Z"/><path class="cls-5" d="M243,139.6H14.48A14.5,14.5,0,0,1,0,125.12V14.48A14.5,14.5,0,0,1,14.48,0H243a14.5,14.5,0,0,1,14.48,14.48V125.12A14.5,14.5,0,0,1,243,139.6ZM14.48,3.13A11.36,11.36,0,0,0,3.13,14.48V125.12a11.36,11.36,0,0,0,11.35,11.35H243a11.37,11.37,0,0,0,11.36-11.35V14.48A11.37,11.37,0,0,0,243,3.13Z"/></g></g></svg>