<svg xmlns="http://www.w3.org/2000/svg" viewBox="0 0 533.4 130.12"><defs><style>.cls-1{fill:#1f8ebe;}.cls-2{fill:#f8bb18;}.cls-3{fill:#c51611;}.cls-4{fill:#f78910;}.cls-5{fill:#363026;}.cls-6{fill:none;}</style></defs><title>decenacubo</title><g id="Capa_2" data-name="Capa 2"><g id="Capa_1-2" data-name="Capa 1"><path class="cls-1" d="M354.14,64.88a1.68,1.68,0,0,1-1.25-.5,1.62,1.62,0,0,1-.5-1.16,1.54,1.54,0,0,1,.5-1.17,1.82,1.82,0,0,1,1.25-.46H369.4a1.8,1.8,0,0,1,1.25.46,1.46,1.46,0,0,1,.51,1.12,1.65,1.65,0,0,1-.51,1.21,1.67,1.67,0,0,1-1.25.5Zm0,8.16a1.74,1.74,0,0,1-1.25-.48,1.54,1.54,0,0,1-.5-1.14,1.62,1.62,0,0,1,.5-1.19,1.74,1.74,0,0,1,1.25-.48H369.4a1.8,1.8,0,0,1,1.25.46,1.52,1.52,0,0,1,.51,1.17,1.57,1.57,0,0,1-.51,1.18,1.73,1.73,0,0,1-1.25.48Z"/><g id="Bloque1"><rect class="cls-2" x="394.48" y="62.09" width="10.96" height="10.96" transform="translate(467.52 -332.39) rotate(90)"/><polygon class="cls-3" points="394.48 62.09 395.59 59.87 406.54 59.87 405.43 62.09 394.48 62.09"/><polygon class="cls-4" points="405.43 73.04 405.43 62.09 406.54 59.87 406.54 70.82 405.43 73.04"/></g><g id="Bloque1-2" data-name="Bloque1"><rect class="cls-2" x="406.08" y="62.09" width="10.96" height="10.96" transform="translate(479.12 -344) rotate(90)"/><polygon class="cls-3" points="406.08 62.09 407.19 59.87 418.15 59.87 417.04 62.09 406.08 62.09"/><polygon class="cls-4" points="417.04 73.04 417.04 62.09 418.15 59.87 418.15 70.82 417.04 73.04"/></g><g id="Bloque1-3" data-name="Bloque1"><rect class="cls-2" x="417.68" y="62.09" width="10.96" height="10.96" transform="translate(490.73 -355.6) rotate(90)"/><polygon class="cls-3" points="417.69 62.09 418.8 59.87 429.75 59.87 428.64 62.09 417.69 62.09"/><polygon class="cls-4" points="428.64 73.04 428.64 62.09 429.75 59.87 429.75 70.82 428.64 73.04"/></g><g id="Bloque1-4" data-name="Bloque1"><rect class="cls-2" x="429.29" y="62.09" width="10.96" height="10.96" transform="translate(502.33 -367.2) rotate(90)"/><polygon class="cls-3" points="429.29 62.09 430.4 59.87 441.35 59.87 440.24 62.09 429.29 62.09"/><polygon class="cls-4" points="440.24 73.04 440.24 62.09 441.35 59.87 441.35 70.82 440.24 73.04"/></g><g id="Bloque1-5" data-name="Bloque1"><rect class="cls-2" x="440.89" y="62.09" width="10.96" height="10.96" transform="translate(513.93 -378.8) rotate(90)"/><polygon class="cls-3" points="440.89 62.09 442 59.87 452.95 59.87 451.85 62.09 440.89 62.09"/><polygon class="cls-4" points="451.85 73.04 451.85 62.09 452.95 59.87 452.95 70.82 451.85 73.04"/></g><g id="Bloque1-6" data-name="Bloque1"><rect class="cls-2" x="452.49" y="62.09" width="10.96" height="10.96" transform="translate(525.54 -390.41) rotate(90)"/><polygon class="cls-3" points="452.49 62.09 453.6 59.87 464.56 59.87 463.45 62.09 452.49 62.09"/><polygon class="cls-4" points="463.45 73.04 463.45 62.09 464.56 59.87 464.56 70.82 463.45 73.04"/></g><g id="Bloque1-7" data-name="Bloque1"><rect class="cls-2" x="464.1" y="62.09" width="10.96" height="10.96" transform="translate(537.14 -402.01) rotate(90)"/><polygon class="cls-3" points="464.1 62.09 465.21 59.87 476.16 59.87 475.05 62.09 464.1 62.09"/><polygon class="cls-4" points="475.05 73.04 475.05 62.09 476.16 59.87 476.16 70.82 475.05 73.04"/></g><g id="Bloque1-8" data-name="Bloque1"><rect class="cls-2" x="475.7" y="62.09" width="10.96" height="10.96" transform="translate(548.74 -413.61) rotate(90)"/><polygon class="cls-3" points="475.7 62.09 476.81 59.87 487.76 59.87 486.65 62.09 475.7 62.09"/><polygon class="cls-4" points="486.65 73.04 486.65 62.09 487.76 59.87 487.76 70.82 486.65 73.04"/></g><g id="Bloque1-9" data-name="Bloque1"><rect class="cls-2" x="487.3" y="62.09" width="10.96" height="10.96" transform="translate(560.34 -425.22) rotate(90)"/><polygon class="cls-3" points="487.3 62.09 488.41 59.87 499.37 59.87 498.26 62.09 487.3 62.09"/><polygon class="cls-4" points="498.26 73.04 498.26 62.09 499.37 59.87 499.37 70.82 498.26 73.04"/></g><g id="Bloque1-10" data-name="Bloque1"><rect class="cls-2" x="498.9" y="62.09" width="10.96" height="10.96" transform="translate(571.95 -436.82) rotate(90)"/><polygon class="cls-3" points="498.9 62.09 500.01 59.87 510.97 59.87 509.86 62.09 498.9 62.09"/><polygon class="cls-4" points="509.86 73.04 509.86 62.09 510.97 59.87 510.97 70.82 509.86 73.04"/></g><path class="cls-5" d="M28.53,74.21a1.2,1.2,0,0,1-.89-.35,1.11,1.11,0,0,1-.35-.83V56.74l.35.4-3.32,2a1.27,1.27,0,0,1-.58.14,1.08,1.08,0,0,1-.83-.39,1.18,1.18,0,0,1-.34-.79,1.13,1.13,0,0,1,.6-1l4.67-2.78a1.53,1.53,0,0,1,.86-.17,1,1,0,0,1,.77.33,1.21,1.21,0,0,1,.29.82V73a1.11,1.11,0,0,1-.35.83A1.19,1.19,0,0,1,28.53,74.21Z"/><path class="cls-5" d="M40.9,74.49a5.91,5.91,0,0,1-4-1.34,8.33,8.33,0,0,1-2.41-3.7,17.61,17.61,0,0,1,0-10.56,8.34,8.34,0,0,1,2.41-3.67,5.91,5.91,0,0,1,4-1.34,5.9,5.9,0,0,1,4,1.34,8.14,8.14,0,0,1,2.39,3.67,17.61,17.61,0,0,1,0,10.56,8.13,8.13,0,0,1-2.39,3.7A5.9,5.9,0,0,1,40.9,74.49Zm0-2.31a3.62,3.62,0,0,0,2.56-1,6.07,6.07,0,0,0,1.59-2.76,14.79,14.79,0,0,0,.54-4.25,15,15,0,0,0-.54-4.29,6,6,0,0,0-1.59-2.75,3.94,3.94,0,0,0-5.13,0,6.23,6.23,0,0,0-1.6,2.75,14.59,14.59,0,0,0-.56,4.29,14.4,14.4,0,0,0,.56,4.25,6.27,6.27,0,0,0,1.6,2.76A3.63,3.63,0,0,0,40.9,72.18Z"/><path class="cls-5" d="M70.56,59.4a1.08,1.08,0,0,1,.83.33,1.14,1.14,0,0,1,.32.82v7.82a6,6,0,0,1-1.62,4.48,6.16,6.16,0,0,1-4.51,1.59,6.12,6.12,0,0,1-4.48-1.59,6,6,0,0,1-1.62-4.48V60.55a1.17,1.17,0,0,1,2-.82,1.13,1.13,0,0,1,.31.82v7.82a4,4,0,0,0,1,2.95,4.5,4.5,0,0,0,5.66,0,4,4,0,0,0,1-2.95V60.55a1.13,1.13,0,0,1,1.14-1.15Z"/><path class="cls-5" d="M83.31,59a5.17,5.17,0,0,1,3.06.8A4.3,4.3,0,0,1,88,62a8.93,8.93,0,0,1,.47,3v8a1.13,1.13,0,0,1-.33.83,1.12,1.12,0,0,1-1.63,0,1.13,1.13,0,0,1-.33-.83V65a5.56,5.56,0,0,0-.33-2,2.9,2.9,0,0,0-1.09-1.4,3.56,3.56,0,0,0-2.07-.53,4.71,4.71,0,0,0-2.21.53,4.44,4.44,0,0,0-1.6,1.4,3.41,3.41,0,0,0-.6,2v8a1.13,1.13,0,0,1-.33.83,1.12,1.12,0,0,1-1.63,0A1.13,1.13,0,0,1,76,73V60.55a1.13,1.13,0,0,1,1.14-1.15,1.08,1.08,0,0,1,.83.33,1.14,1.14,0,0,1,.32.82v2l-.57.63a4,4,0,0,1,.65-1.5,6.14,6.14,0,0,1,1.29-1.36,6.73,6.73,0,0,1,1.72-1A5.51,5.51,0,0,1,83.31,59Z"/><path class="cls-5" d="M93.73,57.26A1.64,1.64,0,0,1,92.67,57a1.09,1.09,0,0,1-.34-.89v-.4a1,1,0,0,1,.37-.89,1.71,1.71,0,0,1,1.06-.28,1.58,1.58,0,0,1,1,.28,1.09,1.09,0,0,1,.34.89v.4a1.1,1.1,0,0,1-.35.89A1.66,1.66,0,0,1,93.73,57.26ZM94.88,73a1.13,1.13,0,0,1-.33.83,1.1,1.1,0,0,1-.82.35,1.08,1.08,0,0,1-.83-.35,1.16,1.16,0,0,1-.31-.83V60.32a1.16,1.16,0,0,1,.32-.82,1.15,1.15,0,0,1,2,.82Z"/><path class="cls-5" d="M111.06,53a1.1,1.1,0,0,1,.83.33,1.12,1.12,0,0,1,.31.81V73a1.13,1.13,0,0,1-.33.83,1.12,1.12,0,0,1-1.63,0,1.13,1.13,0,0,1-.33-.83V70.31l.54-.2a3,3,0,0,1-.41,1.45A5.3,5.3,0,0,1,108.87,73a6.56,6.56,0,0,1-1.77,1.08,5.36,5.36,0,0,1-2.17.43,6.28,6.28,0,0,1-3.5-1A7,7,0,0,1,99,70.74a8.43,8.43,0,0,1-.91-4,8.55,8.55,0,0,1,.91-4A7,7,0,0,1,101.42,60a6.51,6.51,0,0,1,5.7-.59A6.32,6.32,0,0,1,109,60.52,5.35,5.35,0,0,1,110.21,62a3.46,3.46,0,0,1,.45,1.66l-.75-.17V54.16A1.13,1.13,0,0,1,111.06,53Zm-5.9,19.36a4.54,4.54,0,0,0,2.55-.73,5.11,5.11,0,0,0,1.71-2,6.92,6.92,0,0,0,0-5.77,5,5,0,0,0-1.73-2,4.71,4.71,0,0,0-5,0,5.08,5.08,0,0,0-1.73,2,6.85,6.85,0,0,0,0,5.74,5.11,5.11,0,0,0,1.73,2A4.36,4.36,0,0,0,105.16,72.38Z"/><path class="cls-5" d="M128.5,59.26a1.1,1.1,0,0,1,.83.33,1.13,1.13,0,0,1,.31.82V73a1.13,1.13,0,0,1-.33.83,1.12,1.12,0,0,1-1.63,0,1.13,1.13,0,0,1-.33-.83V70.31l.54,0a2.8,2.8,0,0,1-.42,1.37A5.43,5.43,0,0,1,126.29,73a6.49,6.49,0,0,1-1.75,1.06,5.52,5.52,0,0,1-2.17.41,6.27,6.27,0,0,1-3.51-1,7,7,0,0,1-2.45-2.77,8.67,8.67,0,0,1-.89-4,8.44,8.44,0,0,1,.91-4A7,7,0,0,1,118.86,60a6.21,6.21,0,0,1,3.45-1,6.37,6.37,0,0,1,2.29.4,6.07,6.07,0,0,1,1.85,1.09A5.28,5.28,0,0,1,127.67,62a3.65,3.65,0,0,1,.42,1.66l-.74-.17V60.41a1.13,1.13,0,0,1,1.15-1.15Zm-5.9,13.12a4.38,4.38,0,0,0,2.53-.75,5,5,0,0,0,1.73-2,6.41,6.41,0,0,0,.63-2.88,6.27,6.27,0,0,0-.63-2.84,5,5,0,0,0-1.73-2,4.44,4.44,0,0,0-2.53-.73,4.5,4.5,0,0,0-2.51.72,4.89,4.89,0,0,0-1.73,2,6.92,6.92,0,0,0,0,5.77,5.11,5.11,0,0,0,1.73,2A4.36,4.36,0,0,0,122.6,72.38Z"/><path class="cls-5" d="M145.94,53a1.1,1.1,0,0,1,.83.33,1.12,1.12,0,0,1,.31.81V73a1.13,1.13,0,0,1-.33.83,1.12,1.12,0,0,1-1.63,0,1.13,1.13,0,0,1-.33-.83V70.31l.54-.2a3,3,0,0,1-.41,1.45A5.16,5.16,0,0,1,143.74,73,6.35,6.35,0,0,1,142,74.06a5.39,5.39,0,0,1-2.17.43,6.28,6.28,0,0,1-3.5-1,7,7,0,0,1-2.44-2.75,8.43,8.43,0,0,1-.91-4,8.55,8.55,0,0,1,.91-4A7,7,0,0,1,136.3,60a6.34,6.34,0,0,1,7.54.5A5.23,5.23,0,0,1,145.09,62a3.44,3.44,0,0,1,.44,1.66l-.74-.17V54.16A1.13,1.13,0,0,1,145.94,53ZM140,72.38a4.49,4.49,0,0,0,2.54-.73,5.05,5.05,0,0,0,1.72-2,6.92,6.92,0,0,0,0-5.77,5.08,5.08,0,0,0-1.73-2,4.71,4.71,0,0,0-5,0,5.08,5.08,0,0,0-1.73,2,6.85,6.85,0,0,0,0,5.74,5.11,5.11,0,0,0,1.73,2A4.34,4.34,0,0,0,140,72.38Z"/><path class="cls-5" d="M158,74.49a8,8,0,0,1-4-1,6.85,6.85,0,0,1-2.66-2.68,7.94,7.94,0,0,1-.95-3.93,8.6,8.6,0,0,1,1-4.26A7.07,7.07,0,0,1,154,60,6.49,6.49,0,0,1,157.3,59a6.79,6.79,0,0,1,2.57.49A6.43,6.43,0,0,1,162,60.94a6.92,6.92,0,0,1,1.53,2.23,7.38,7.38,0,0,1,.61,2.91,1.12,1.12,0,0,1-.38.77,1.13,1.13,0,0,1-.8.31H151.69l-.51-2h11l-.46.4V65a3.52,3.52,0,0,0-.76-2,4.51,4.51,0,0,0-1.64-1.3,4.68,4.68,0,0,0-2-.46,5,5,0,0,0-1.7.3,4.06,4.06,0,0,0-1.52,1A4.85,4.85,0,0,0,153,64.19a7.09,7.09,0,0,0-.4,2.54,6.08,6.08,0,0,0,.67,2.92,5,5,0,0,0,1.88,2,5.28,5.28,0,0,0,2.77.73,5.52,5.52,0,0,0,1.78-.26,4.59,4.59,0,0,0,1.27-.65,6,6,0,0,0,.91-.78,1.21,1.21,0,0,1,.74-.26.94.94,0,0,1,.69.28,1,1,0,0,1,.28.69,1.09,1.09,0,0,1-.45.86,7.69,7.69,0,0,1-2.2,1.56A6.47,6.47,0,0,1,158,74.49Z"/><path class="cls-5" d="M166.64,71.86a1.22,1.22,0,0,1-.23-.79,1,1,0,0,1,.49-.73,1,1,0,0,1,.67-.17,1,1,0,0,1,.7.37,6.71,6.71,0,0,0,1.83,1.51,5.27,5.27,0,0,0,2.52.56,6,6,0,0,0,1.38-.23,2.58,2.58,0,0,0,1.16-.71,1.86,1.86,0,0,0,.47-1.33,1.67,1.67,0,0,0-.49-1.27,3.55,3.55,0,0,0-1.26-.77,11.85,11.85,0,0,0-1.68-.53c-.63-.18-1.26-.37-1.87-.59a7.2,7.2,0,0,1-1.64-.83,4.05,4.05,0,0,1-1.18-1.26,3.67,3.67,0,0,1-.44-1.85,3.61,3.61,0,0,1,.7-2.23,4.55,4.55,0,0,1,1.89-1.46,6.34,6.34,0,0,1,2.59-.52,7.73,7.73,0,0,1,1.68.19,6.15,6.15,0,0,1,1.7.63,4.8,4.8,0,0,1,1.46,1.21,1.19,1.19,0,0,1,.29.72.92.92,0,0,1-.37.77,1,1,0,0,1-.71.2,1,1,0,0,1-.64-.28,4,4,0,0,0-1.5-1.11,5.15,5.15,0,0,0-2-.38,4.74,4.74,0,0,0-1.35.2,2.43,2.43,0,0,0-1.1.67,1.82,1.82,0,0,0-.45,1.3,1.77,1.77,0,0,0,.52,1.26,3.39,3.39,0,0,0,1.32.79c.55.2,1.16.4,1.83.59a18.09,18.09,0,0,1,1.76.53,6.15,6.15,0,0,1,1.53.79,3.52,3.52,0,0,1,1.09,1.24,4,4,0,0,1,.4,1.91,3.62,3.62,0,0,1-.74,2.27A4.67,4.67,0,0,1,175,74a6.75,6.75,0,0,1-2.62.5,8.47,8.47,0,0,1-3.11-.6A6.23,6.23,0,0,1,166.64,71.86Z"/><path class="cls-5" d="M202.84,66.76a8,8,0,0,1-1,4,7.47,7.47,0,0,1-10.21,2.75A7.4,7.4,0,0,1,189,70.74a8.5,8.5,0,0,1,0-8A7.47,7.47,0,0,1,191.65,60a7.64,7.64,0,0,1,7.56,0,7.29,7.29,0,0,1,2.65,2.75A8,8,0,0,1,202.84,66.76Zm-2.29,0a6.11,6.11,0,0,0-.68-2.92,5,5,0,0,0-1.83-2,5.11,5.11,0,0,0-5.23,0,4.93,4.93,0,0,0-1.84,2,6.11,6.11,0,0,0-.68,2.92,6,6,0,0,0,.68,2.89,5.08,5.08,0,0,0,1.84,2,5,5,0,0,0,5.23,0,5.2,5.2,0,0,0,1.83-2A6,6,0,0,0,200.55,66.76Z"/><path class="cls-5" d="M218,74.21a1.17,1.17,0,0,1-.88-.35,1.11,1.11,0,0,1-.35-.83V56.74l.35.4-3.33,2a1.2,1.2,0,0,1-.57.14,1.08,1.08,0,0,1-.83-.39,1.18,1.18,0,0,1-.34-.79,1.13,1.13,0,0,1,.6-1l4.67-2.78a1.53,1.53,0,0,1,.86-.17,1,1,0,0,1,.77.33,1.2,1.2,0,0,1,.28.82V73a1.1,1.1,0,0,1-.34.83A1.2,1.2,0,0,1,218,74.21Z"/><path class="cls-5" d="M243.82,53a1.1,1.1,0,0,1,.83.33,1.12,1.12,0,0,1,.31.81V73a1.13,1.13,0,0,1-.33.83,1.12,1.12,0,0,1-1.63,0,1.13,1.13,0,0,1-.33-.83V70.31l.54-.2a3.11,3.11,0,0,1-.41,1.45A5.16,5.16,0,0,1,241.62,73a6.35,6.35,0,0,1-1.76,1.08,5.39,5.39,0,0,1-2.17.43,6.28,6.28,0,0,1-3.5-1,7.12,7.12,0,0,1-2.45-2.75,8.55,8.55,0,0,1-.9-4,8.67,8.67,0,0,1,.9-4A7.11,7.11,0,0,1,234.18,60a6.34,6.34,0,0,1,7.54.5A5.23,5.23,0,0,1,243,62a3.44,3.44,0,0,1,.44,1.66l-.74-.17V54.16A1.13,1.13,0,0,1,243.82,53Zm-5.9,19.36a4.49,4.49,0,0,0,2.54-.73,5.05,5.05,0,0,0,1.72-2,6.92,6.92,0,0,0,0-5.77,5.08,5.08,0,0,0-1.73-2,4.47,4.47,0,0,0-2.53-.73,4.4,4.4,0,0,0-2.51.73,5,5,0,0,0-1.73,2,6.85,6.85,0,0,0,0,5.74,5,5,0,0,0,1.73,2A4.34,4.34,0,0,0,237.92,72.38Z"/><path class="cls-5" d="M255.9,74.49a8,8,0,0,1-4-1,6.79,6.79,0,0,1-2.66-2.68,7.94,7.94,0,0,1-.95-3.93,8.6,8.6,0,0,1,1-4.26A7.07,7.07,0,0,1,251.83,60a6.49,6.49,0,0,1,3.35-.93,6.79,6.79,0,0,1,2.57.49,6.43,6.43,0,0,1,2.17,1.42,6.92,6.92,0,0,1,1.53,2.23,7.38,7.38,0,0,1,.61,2.91,1.12,1.12,0,0,1-.38.77,1.13,1.13,0,0,1-.8.31H249.57l-.51-2h11l-.46.4V65a3.52,3.52,0,0,0-.76-2,4.51,4.51,0,0,0-1.64-1.3,4.68,4.68,0,0,0-2-.46,5,5,0,0,0-1.7.3,4.06,4.06,0,0,0-1.52,1,4.85,4.85,0,0,0-1.07,1.74,7.09,7.09,0,0,0-.4,2.54,6.08,6.08,0,0,0,.67,2.92,5,5,0,0,0,1.88,2,5.28,5.28,0,0,0,2.77.73,5.52,5.52,0,0,0,1.78-.26,4.73,4.73,0,0,0,1.27-.65,6,6,0,0,0,.91-.78,1.21,1.21,0,0,1,.74-.26.94.94,0,0,1,.69.28,1,1,0,0,1,.28.69,1.09,1.09,0,0,1-.45.86,7.69,7.69,0,0,1-2.2,1.56A6.47,6.47,0,0,1,255.9,74.49Z"/><path class="cls-5" d="M271.79,59a10.21,10.21,0,0,1,2.64.32,5.19,5.19,0,0,1,1.86.85,1.58,1.58,0,0,1,.69,1.24,1.23,1.23,0,0,1-.25.71.8.8,0,0,1-.7.35,1.13,1.13,0,0,1-.61-.15A1.78,1.78,0,0,1,275,62a1.91,1.91,0,0,0-.59-.4,3.26,3.26,0,0,0-1-.32,8.58,8.58,0,0,0-1.35-.11,5.09,5.09,0,0,0-2.75.75,5.14,5.14,0,0,0-1.87,2,6,6,0,0,0-.68,2.86,6.1,6.1,0,0,0,.66,2.87,5.07,5.07,0,0,0,1.84,2,4.94,4.94,0,0,0,2.72.75,5.7,5.7,0,0,0,1.59-.18,4.52,4.52,0,0,0,1-.4,3.33,3.33,0,0,0,.76-.57,1,1,0,0,1,.76-.29.9.9,0,0,1,.74.32,1.14,1.14,0,0,1,.26.77,1.53,1.53,0,0,1-.71,1.09,6.16,6.16,0,0,1-1.94,1,8.61,8.61,0,0,1-2.73.4,7,7,0,0,1-3.81-1,6.93,6.93,0,0,1-2.53-2.78,8.41,8.41,0,0,1-.91-3.94,8.19,8.19,0,0,1,.93-3.92,7.24,7.24,0,0,1,2.6-2.78A7.06,7.06,0,0,1,271.79,59Z"/><path class="cls-5" d="M286.77,74.49a8,8,0,0,1-4-1,6.85,6.85,0,0,1-2.66-2.68,7.94,7.94,0,0,1-1-3.93,8.6,8.6,0,0,1,1-4.26A7.07,7.07,0,0,1,282.7,60a6.49,6.49,0,0,1,3.35-.93,6.75,6.75,0,0,1,2.57.49,6.43,6.43,0,0,1,2.17,1.42,6.92,6.92,0,0,1,1.53,2.23,7.38,7.38,0,0,1,.61,2.91,1.12,1.12,0,0,1-.38.77,1.13,1.13,0,0,1-.8.31H280.44l-.51-2h11l-.46.4V65a3.52,3.52,0,0,0-.76-2,4.51,4.51,0,0,0-1.64-1.3,4.68,4.68,0,0,0-2-.46,5,5,0,0,0-1.7.3,4.06,4.06,0,0,0-1.52,1,4.85,4.85,0,0,0-1.07,1.74,7.09,7.09,0,0,0-.4,2.54,6.08,6.08,0,0,0,.67,2.92,5,5,0,0,0,1.88,2,5.28,5.28,0,0,0,2.77.73,5.52,5.52,0,0,0,1.78-.26,4.59,4.59,0,0,0,1.27-.65,6,6,0,0,0,.91-.78,1.21,1.21,0,0,1,.74-.26.94.94,0,0,1,.69.28,1,1,0,0,1,.28.69,1.09,1.09,0,0,1-.45.86,7.69,7.69,0,0,1-2.2,1.56A6.47,6.47,0,0,1,286.77,74.49Z"/><path class="cls-5" d="M303.58,59a5.17,5.17,0,0,1,3.06.8A4.3,4.3,0,0,1,308.23,62a8.92,8.92,0,0,1,.48,3v8a1.13,1.13,0,0,1-.33.83,1.14,1.14,0,0,1-1.64,0,1.13,1.13,0,0,1-.33-.83V65a5.56,5.56,0,0,0-.33-2,2.89,2.89,0,0,0-1.08-1.4,3.62,3.62,0,0,0-2.08-.53,4.64,4.64,0,0,0-2.2.53,4.39,4.39,0,0,0-1.61,1.4,3.41,3.41,0,0,0-.6,2v8a1.13,1.13,0,0,1-.33.83,1.12,1.12,0,0,1-1.63,0,1.13,1.13,0,0,1-.33-.83V60.55a1.17,1.17,0,0,1,2-.82,1.13,1.13,0,0,1,.31.82v2l-.57.63a3.86,3.86,0,0,1,.66-1.5,5.71,5.71,0,0,1,1.29-1.36,6.5,6.5,0,0,1,1.71-1A5.51,5.51,0,0,1,303.58,59Z"/><path class="cls-5" d="M325,59.26a1.1,1.1,0,0,1,.83.33,1.14,1.14,0,0,1,.32.82V73a1.17,1.17,0,0,1-.33.83,1.14,1.14,0,0,1-1.64,0,1.13,1.13,0,0,1-.33-.83V70.31l.55,0a2.72,2.72,0,0,1-.43,1.37A5.43,5.43,0,0,1,322.79,73a6.28,6.28,0,0,1-1.74,1.06,5.6,5.6,0,0,1-2.18.41,6.27,6.27,0,0,1-3.51-1,7.09,7.09,0,0,1-2.45-2.77,8.67,8.67,0,0,1-.88-4,8.56,8.56,0,0,1,.9-4A7,7,0,0,1,315.36,60a6.21,6.21,0,0,1,3.45-1,6.39,6.39,0,0,1,2.3.4A6,6,0,0,1,323,60.52,5.11,5.11,0,0,1,324.17,62a3.54,3.54,0,0,1,.43,1.66l-.75-.17V60.41a1.11,1.11,0,0,1,.33-.82A1.12,1.12,0,0,1,325,59.26Zm-5.9,13.12a4.42,4.42,0,0,0,2.54-.75,5.11,5.11,0,0,0,1.73-2,6.41,6.41,0,0,0,.63-2.88,6.27,6.27,0,0,0-.63-2.84,5.08,5.08,0,0,0-1.73-2,4.74,4.74,0,0,0-5,0,4.84,4.84,0,0,0-1.74,2,6.92,6.92,0,0,0,0,5.77,5.05,5.05,0,0,0,1.74,2A4.31,4.31,0,0,0,319.1,72.38Z"/><rect class="cls-6" width="533.4" height="130.12"/></g></g></svg>