<svg xmlns="http://www.w3.org/2000/svg" viewBox="0 0 377.68 83.71"><defs><style>.cls-1{fill:#f8bb18;}.cls-2{fill:#c51611;}.cls-3{fill:#f78910;}.cls-4{fill:#363026;}.cls-5{fill:none;}</style></defs><title>Recurso 1</title><g id="Capa_2" data-name="Capa 2"><g id="Capa_1-2" data-name="Capa 1"><g id="Bloque1"><rect class="cls-1" x="113.73" y="62.6" width="4.81" height="4.81"/><polygon class="cls-2" points="113.73 67.4 112.75 66.92 112.75 62.11 113.73 62.6 113.73 67.4"/><polygon class="cls-3" points="118.53 62.6 113.73 62.6 112.75 62.11 117.56 62.11 118.53 62.6"/></g><g id="Bloque1-2" data-name="Bloque1"><rect class="cls-1" x="113.73" y="57.51" width="4.81" height="4.81"/><polygon class="cls-2" points="113.73 62.31 112.75 61.83 112.75 57.02 113.73 57.51 113.73 62.31"/><polygon class="cls-3" points="118.53 57.51 113.73 57.51 112.75 57.02 117.56 57.02 118.53 57.51"/></g><g id="Bloque1-3" data-name="Bloque1"><rect class="cls-1" x="113.73" y="52.42" width="4.81" height="4.81"/><polygon class="cls-2" points="113.73 57.22 112.75 56.74 112.75 51.93 113.73 52.42 113.73 57.22"/><polygon class="cls-3" points="118.53 52.42 113.73 52.42 112.75 51.93 117.56 51.93 118.53 52.42"/></g><g id="Bloque1-4" data-name="Bloque1"><rect class="cls-1" x="113.73" y="47.33" width="4.81" height="4.81"/><polygon class="cls-2" points="113.73 52.13 112.75 51.65 112.75 46.84 113.73 47.33 113.73 52.13"/><polygon class="cls-3" points="118.53 47.33 113.73 47.33 112.75 46.84 117.56 46.84 118.53 47.33"/></g><g id="Bloque1-5" data-name="Bloque1"><rect class="cls-1" x="113.73" y="42.24" width="4.81" height="4.81"/><polygon class="cls-2" points="113.73 47.05 112.75 46.56 112.75 41.75 113.73 42.24 113.73 47.05"/><polygon class="cls-3" points="118.53 42.24 113.73 42.24 112.75 41.75 117.56 41.75 118.53 42.24"/></g><g id="Bloque1-6" data-name="Bloque1"><rect class="cls-1" x="113.73" y="37.15" width="4.81" height="4.81"/><polygon class="cls-2" points="113.73 41.95 112.75 41.47 112.75 36.66 113.73 37.15 113.73 41.95"/><polygon class="cls-3" points="118.53 37.15 113.73 37.15 112.75 36.66 117.56 36.66 118.53 37.15"/></g><g id="Bloque1-7" data-name="Bloque1"><rect class="cls-1" x="113.73" y="32.06" width="4.81" height="4.81"/><polygon class="cls-2" points="113.73 36.87 112.75 36.38 112.75 31.57 113.73 32.06 113.73 36.87"/><polygon class="cls-3" points="118.53 32.06 113.73 32.06 112.75 31.57 117.56 31.57 118.53 32.06"/></g><g id="Bloque1-8" data-name="Bloque1"><rect class="cls-1" x="113.73" y="26.97" width="4.81" height="4.81"/><polygon class="cls-2" points="113.73 31.78 112.75 31.29 112.75 26.48 113.73 26.97 113.73 31.78"/><polygon class="cls-3" points="118.53 26.97 113.73 26.97 112.75 26.48 117.56 26.48 118.53 26.97"/></g><g id="Bloque1-9" data-name="Bloque1"><rect class="cls-1" x="113.73" y="21.88" width="4.81" height="4.81"/><polygon class="cls-2" points="113.73 26.69 112.75 26.2 112.75 21.39 113.73 21.88 113.73 26.69"/><polygon class="cls-3" points="118.53 21.88 113.73 21.88 112.75 21.39 117.56 21.39 118.53 21.88"/></g><g id="Bloque1-10" data-name="Bloque1"><rect class="cls-1" x="113.73" y="16.79" width="4.81" height="4.81"/><polygon class="cls-2" points="113.73 21.6 112.75 21.11 112.75 16.3 113.73 16.79 113.73 21.6"/><polygon class="cls-3" points="118.53 16.79 113.73 16.79 112.75 16.3 117.56 16.3 118.53 16.79"/></g><g id="Bloque1-11" data-name="Bloque1"><rect class="cls-1" x="108.39" y="62.6" width="4.81" height="4.81"/><polygon class="cls-2" points="108.39 67.4 107.42 66.92 107.42 62.11 108.39 62.6 108.39 67.4"/><polygon class="cls-3" points="113.2 62.6 108.39 62.6 107.42 62.11 112.22 62.11 113.2 62.6"/></g><g id="Bloque1-12" data-name="Bloque1"><rect class="cls-1" x="108.39" y="57.51" width="4.81" height="4.81"/><polygon class="cls-2" points="108.39 62.31 107.42 61.83 107.42 57.02 108.39 57.51 108.39 62.31"/><polygon class="cls-3" points="113.2 57.51 108.39 57.51 107.42 57.02 112.22 57.02 113.2 57.51"/></g><g id="Bloque1-13" data-name="Bloque1"><rect class="cls-1" x="108.39" y="52.42" width="4.81" height="4.81"/><polygon class="cls-2" points="108.39 57.22 107.42 56.74 107.42 51.93 108.39 52.42 108.39 57.22"/><polygon class="cls-3" points="113.2 52.42 108.39 52.42 107.42 51.93 112.22 51.93 113.2 52.42"/></g><g id="Bloque1-14" data-name="Bloque1"><rect class="cls-1" x="108.39" y="47.33" width="4.81" height="4.81"/><polygon class="cls-2" points="108.39 52.13 107.42 51.65 107.42 46.84 108.39 47.33 108.39 52.13"/><polygon class="cls-3" points="113.2 47.33 108.39 47.33 107.42 46.84 112.22 46.84 113.2 47.33"/></g><g id="Bloque1-15" data-name="Bloque1"><rect class="cls-1" x="108.39" y="42.24" width="4.81" height="4.81"/><polygon class="cls-2" points="108.39 47.05 107.42 46.56 107.42 41.75 108.39 42.24 108.39 47.05"/><polygon class="cls-3" points="113.2 42.24 108.39 42.24 107.42 41.75 112.22 41.75 113.2 42.24"/></g><g id="Bloque1-16" data-name="Bloque1"><rect class="cls-1" x="108.39" y="37.15" width="4.81" height="4.81"/><polygon class="cls-2" points="108.39 41.95 107.42 41.47 107.42 36.66 108.39 37.15 108.39 41.95"/><polygon class="cls-3" points="113.2 37.15 108.39 37.15 107.42 36.66 112.22 36.66 113.2 37.15"/></g><g id="Bloque1-17" data-name="Bloque1"><rect class="cls-1" x="108.39" y="32.06" width="4.81" height="4.81"/><polygon class="cls-2" points="108.39 36.87 107.42 36.38 107.42 31.57 108.39 32.06 108.39 36.87"/><polygon class="cls-3" points="113.2 32.06 108.39 32.06 107.42 31.57 112.22 31.57 113.2 32.06"/></g><g id="Bloque1-18" data-name="Bloque1"><rect class="cls-1" x="108.39" y="26.97" width="4.81" height="4.81"/><polygon class="cls-2" points="108.39 31.78 107.42 31.29 107.42 26.48 108.39 26.97 108.39 31.78"/><polygon class="cls-3" points="113.2 26.97 108.39 26.97 107.42 26.48 112.22 26.48 113.2 26.97"/></g><g id="Bloque1-19" data-name="Bloque1"><rect class="cls-1" x="108.39" y="21.88" width="4.81" height="4.81"/><polygon class="cls-2" points="108.39 26.69 107.42 26.2 107.42 21.39 108.39 21.88 108.39 26.69"/><polygon class="cls-3" points="113.2 21.88 108.39 21.88 107.42 21.39 112.22 21.39 113.2 21.88"/></g><g id="Bloque1-20" data-name="Bloque1"><rect class="cls-1" x="108.39" y="16.79" width="4.81" height="4.81"/><polygon class="cls-2" points="108.39 21.6 107.42 21.11 107.42 16.3 108.39 16.79 108.39 21.6"/><polygon class="cls-3" points="113.2 16.79 108.39 16.79 107.42 16.3 112.22 16.3 113.2 16.79"/></g><g id="Bloque1-21" data-name="Bloque1"><rect class="cls-1" x="103.06" y="62.6" width="4.81" height="4.81"/><polygon class="cls-2" points="103.06 67.4 102.09 66.92 102.09 62.11 103.06 62.6 103.06 67.4"/><polygon class="cls-3" points="107.86 62.6 103.06 62.6 102.09 62.11 106.89 62.11 107.86 62.6"/></g><g id="Bloque1-22" data-name="Bloque1"><rect class="cls-1" x="103.06" y="57.51" width="4.81" height="4.81"/><polygon class="cls-2" points="103.06 62.31 102.09 61.83 102.09 57.02 103.06 57.51 103.06 62.31"/><polygon class="cls-3" points="107.86 57.51 103.06 57.51 102.09 57.02 106.89 57.02 107.86 57.51"/></g><g id="Bloque1-23" data-name="Bloque1"><rect class="cls-1" x="103.06" y="52.42" width="4.81" height="4.81"/><polygon class="cls-2" points="103.06 57.22 102.09 56.74 102.09 51.93 103.06 52.42 103.06 57.22"/><polygon class="cls-3" points="107.86 52.42 103.06 52.42 102.09 51.93 106.89 51.93 107.86 52.42"/></g><g id="Bloque1-24" data-name="Bloque1"><rect class="cls-1" x="103.06" y="47.33" width="4.81" height="4.81"/><polygon class="cls-2" points="103.06 52.13 102.09 51.65 102.09 46.84 103.06 47.33 103.06 52.13"/><polygon class="cls-3" points="107.86 47.33 103.06 47.33 102.09 46.84 106.89 46.84 107.86 47.33"/></g><g id="Bloque1-25" data-name="Bloque1"><rect class="cls-1" x="103.06" y="42.24" width="4.81" height="4.81"/><polygon class="cls-2" points="103.06 47.05 102.09 46.56 102.09 41.75 103.06 42.24 103.06 47.05"/><polygon class="cls-3" points="107.86 42.24 103.06 42.24 102.09 41.75 106.89 41.75 107.86 42.24"/></g><g id="Bloque1-26" data-name="Bloque1"><rect class="cls-1" x="103.06" y="37.15" width="4.81" height="4.81"/><polygon class="cls-2" points="103.06 41.95 102.09 41.47 102.09 36.66 103.06 37.15 103.06 41.95"/><polygon class="cls-3" points="107.86 37.15 103.06 37.15 102.09 36.66 106.89 36.66 107.86 37.15"/></g><g id="Bloque1-27" data-name="Bloque1"><rect class="cls-1" x="103.06" y="32.06" width="4.81" height="4.81"/><polygon class="cls-2" points="103.06 36.87 102.09 36.38 102.09 31.57 103.06 32.06 103.06 36.87"/><polygon class="cls-3" points="107.86 32.06 103.06 32.06 102.09 31.57 106.89 31.57 107.86 32.06"/></g><g id="Bloque1-28" data-name="Bloque1"><rect class="cls-1" x="103.06" y="26.97" width="4.81" height="4.81"/><polygon class="cls-2" points="103.06 31.78 102.09 31.29 102.09 26.48 103.06 26.97 103.06 31.78"/><polygon class="cls-3" points="107.86 26.97 103.06 26.97 102.09 26.48 106.89 26.48 107.86 26.97"/></g><g id="Bloque1-29" data-name="Bloque1"><rect class="cls-1" x="103.06" y="21.88" width="4.81" height="4.81"/><polygon class="cls-2" points="103.06 26.69 102.09 26.2 102.09 21.39 103.06 21.88 103.06 26.69"/><polygon class="cls-3" points="107.86 21.88 103.06 21.88 102.09 21.39 106.89 21.39 107.86 21.88"/></g><g id="Bloque1-30" data-name="Bloque1"><rect class="cls-1" x="103.06" y="16.79" width="4.81" height="4.81"/><polygon class="cls-2" points="103.06 21.6 102.09 21.11 102.09 16.3 103.06 16.79 103.06 21.6"/><polygon class="cls-3" points="107.86 16.79 103.06 16.79 102.09 16.3 106.89 16.3 107.86 16.79"/></g><g id="Bloque1-31" data-name="Bloque1"><rect class="cls-1" x="97.73" y="62.6" width="4.81" height="4.81"/><polygon class="cls-2" points="97.72 67.4 96.75 66.92 96.75 62.11 97.72 62.6 97.72 67.4"/><polygon class="cls-3" points="102.53 62.6 97.72 62.6 96.75 62.11 101.56 62.11 102.53 62.6"/></g><g id="Bloque1-32" data-name="Bloque1"><rect class="cls-1" x="97.73" y="57.51" width="4.81" height="4.81"/><polygon class="cls-2" points="97.72 62.31 96.75 61.83 96.75 57.02 97.72 57.51 97.72 62.31"/><polygon class="cls-3" points="102.53 57.51 97.72 57.51 96.75 57.02 101.56 57.02 102.53 57.51"/></g><g id="Bloque1-33" data-name="Bloque1"><rect class="cls-1" x="97.73" y="52.42" width="4.81" height="4.81"/><polygon class="cls-2" points="97.72 57.22 96.75 56.74 96.75 51.93 97.72 52.42 97.72 57.22"/><polygon class="cls-3" points="102.53 52.42 97.72 52.42 96.75 51.93 101.56 51.93 102.53 52.42"/></g><g id="Bloque1-34" data-name="Bloque1"><rect class="cls-1" x="97.73" y="47.33" width="4.81" height="4.81"/><polygon class="cls-2" points="97.72 52.13 96.75 51.65 96.75 46.84 97.72 47.33 97.72 52.13"/><polygon class="cls-3" points="102.53 47.33 97.72 47.33 96.75 46.84 101.56 46.84 102.53 47.33"/></g><g id="Bloque1-35" data-name="Bloque1"><rect class="cls-1" x="97.73" y="42.24" width="4.81" height="4.81"/><polygon class="cls-2" points="97.72 47.05 96.75 46.56 96.75 41.75 97.72 42.24 97.72 47.05"/><polygon class="cls-3" points="102.53 42.24 97.72 42.24 96.75 41.75 101.56 41.75 102.53 42.24"/></g><g id="Bloque1-36" data-name="Bloque1"><rect class="cls-1" x="97.73" y="37.15" width="4.81" height="4.81"/><polygon class="cls-2" points="97.72 41.95 96.75 41.47 96.75 36.66 97.72 37.15 97.72 41.95"/><polygon class="cls-3" points="102.53 37.15 97.72 37.15 96.75 36.66 101.56 36.66 102.53 37.15"/></g><g id="Bloque1-37" data-name="Bloque1"><rect class="cls-1" x="97.73" y="32.06" width="4.81" height="4.81"/><polygon class="cls-2" points="97.72 36.87 96.75 36.38 96.75 31.57 97.72 32.06 97.72 36.87"/><polygon class="cls-3" points="102.53 32.06 97.72 32.06 96.75 31.57 101.56 31.57 102.53 32.06"/></g><g id="Bloque1-38" data-name="Bloque1"><rect class="cls-1" x="97.73" y="26.97" width="4.81" height="4.81"/><polygon class="cls-2" points="97.72 31.78 96.75 31.29 96.75 26.48 97.72 26.97 97.72 31.78"/><polygon class="cls-3" points="102.53 26.97 97.72 26.97 96.75 26.48 101.56 26.48 102.53 26.97"/></g><g id="Bloque1-39" data-name="Bloque1"><rect class="cls-1" x="97.73" y="21.88" width="4.81" height="4.81"/><polygon class="cls-2" points="97.72 26.69 96.75 26.2 96.75 21.39 97.72 21.88 97.72 26.69"/><polygon class="cls-3" points="102.53 21.88 97.72 21.88 96.75 21.39 101.56 21.39 102.53 21.88"/></g><g id="Bloque1-40" data-name="Bloque1"><rect class="cls-1" x="97.73" y="16.79" width="4.81" height="4.81"/><polygon class="cls-2" points="97.72 21.6 96.75 21.11 96.75 16.3 97.72 16.79 97.72 21.6"/><polygon class="cls-3" points="102.53 16.79 97.72 16.79 96.75 16.3 101.56 16.3 102.53 16.79"/></g><g id="Bloque1-41" data-name="Bloque1"><rect class="cls-1" x="92.39" y="62.6" width="4.81" height="4.81"/><polygon class="cls-2" points="92.39 67.4 91.42 66.92 91.42 62.11 92.39 62.6 92.39 67.4"/><polygon class="cls-3" points="97.2 62.6 92.39 62.6 91.42 62.11 96.22 62.11 97.2 62.6"/></g><g id="Bloque1-42" data-name="Bloque1"><rect class="cls-1" x="92.39" y="57.51" width="4.81" height="4.81"/><polygon class="cls-2" points="92.39 62.31 91.42 61.83 91.42 57.02 92.39 57.51 92.39 62.31"/><polygon class="cls-3" points="97.2 57.51 92.39 57.51 91.42 57.02 96.22 57.02 97.2 57.51"/></g><g id="Bloque1-43" data-name="Bloque1"><rect class="cls-1" x="92.39" y="52.42" width="4.81" height="4.81"/><polygon class="cls-2" points="92.39 57.22 91.42 56.74 91.42 51.93 92.39 52.42 92.39 57.22"/><polygon class="cls-3" points="97.2 52.42 92.39 52.42 91.42 51.93 96.22 51.93 97.2 52.42"/></g><g id="Bloque1-44" data-name="Bloque1"><rect class="cls-1" x="92.39" y="47.33" width="4.81" height="4.81"/><polygon class="cls-2" points="92.39 52.13 91.42 51.65 91.42 46.84 92.39 47.33 92.39 52.13"/><polygon class="cls-3" points="97.2 47.33 92.39 47.33 91.42 46.84 96.22 46.84 97.2 47.33"/></g><g id="Bloque1-45" data-name="Bloque1"><rect class="cls-1" x="92.39" y="42.24" width="4.81" height="4.81"/><polygon class="cls-2" points="92.39 47.05 91.42 46.56 91.42 41.75 92.39 42.24 92.39 47.05"/><polygon class="cls-3" points="97.2 42.24 92.39 42.24 91.42 41.75 96.22 41.75 97.2 42.24"/></g><g id="Bloque1-46" data-name="Bloque1"><rect class="cls-1" x="92.39" y="37.15" width="4.81" height="4.81"/><polygon class="cls-2" points="92.39 41.95 91.42 41.47 91.42 36.66 92.39 37.15 92.39 41.95"/><polygon class="cls-3" points="97.2 37.15 92.39 37.15 91.42 36.66 96.22 36.66 97.2 37.15"/></g><g id="Bloque1-47" data-name="Bloque1"><rect class="cls-1" x="92.39" y="32.06" width="4.81" height="4.81"/><polygon class="cls-2" points="92.39 36.87 91.42 36.38 91.42 31.57 92.39 32.06 92.39 36.87"/><polygon class="cls-3" points="97.2 32.06 92.39 32.06 91.42 31.57 96.22 31.57 97.2 32.06"/></g><g id="Bloque1-48" data-name="Bloque1"><rect class="cls-1" x="92.39" y="26.97" width="4.81" height="4.81"/><polygon class="cls-2" points="92.39 31.78 91.42 31.29 91.42 26.48 92.39 26.97 92.39 31.78"/><polygon class="cls-3" points="97.2 26.97 92.39 26.97 91.42 26.48 96.22 26.48 97.2 26.97"/></g><g id="Bloque1-49" data-name="Bloque1"><rect class="cls-1" x="92.39" y="21.88" width="4.81" height="4.81"/><polygon class="cls-2" points="92.39 26.69 91.42 26.2 91.42 21.39 92.39 21.88 92.39 26.69"/><polygon class="cls-3" points="97.2 21.88 92.39 21.88 91.42 21.39 96.22 21.39 97.2 21.88"/></g><g id="Bloque1-50" data-name="Bloque1"><rect class="cls-1" x="92.39" y="16.79" width="4.81" height="4.81"/><polygon class="cls-2" points="92.39 21.6 91.42 21.11 91.42 16.3 92.39 16.79 92.39 21.6"/><polygon class="cls-3" points="97.2 16.79 92.39 16.79 91.42 16.3 96.22 16.3 97.2 16.79"/></g><g id="Bloque1-51" data-name="Bloque1"><rect class="cls-1" x="87.06" y="62.6" width="4.81" height="4.81"/><polygon class="cls-2" points="87.06 67.4 86.08 66.92 86.08 62.11 87.06 62.6 87.06 67.4"/><polygon class="cls-3" points="91.86 62.6 87.06 62.6 86.08 62.11 90.89 62.11 91.86 62.6"/></g><g id="Bloque1-52" data-name="Bloque1"><rect class="cls-1" x="87.06" y="57.51" width="4.81" height="4.81"/><polygon class="cls-2" points="87.06 62.31 86.08 61.83 86.08 57.02 87.06 57.51 87.06 62.31"/><polygon class="cls-3" points="91.86 57.51 87.06 57.51 86.08 57.02 90.89 57.02 91.86 57.51"/></g><g id="Bloque1-53" data-name="Bloque1"><rect class="cls-1" x="87.06" y="52.42" width="4.81" height="4.81"/><polygon class="cls-2" points="87.06 57.22 86.08 56.74 86.08 51.93 87.06 52.42 87.06 57.22"/><polygon class="cls-3" points="91.86 52.42 87.06 52.42 86.08 51.93 90.89 51.93 91.86 52.42"/></g><g id="Bloque1-54" data-name="Bloque1"><rect class="cls-1" x="87.06" y="47.33" width="4.81" height="4.81"/><polygon class="cls-2" points="87.06 52.13 86.08 51.65 86.08 46.84 87.06 47.33 87.06 52.13"/><polygon class="cls-3" points="91.86 47.33 87.06 47.33 86.08 46.84 90.89 46.84 91.86 47.33"/></g><g id="Bloque1-55" data-name="Bloque1"><rect class="cls-1" x="87.06" y="42.24" width="4.81" height="4.81"/><polygon class="cls-2" points="87.06 47.05 86.08 46.56 86.08 41.75 87.06 42.24 87.06 47.05"/><polygon class="cls-3" points="91.86 42.24 87.06 42.24 86.08 41.75 90.89 41.75 91.86 42.24"/></g><g id="Bloque1-56" data-name="Bloque1"><rect class="cls-1" x="87.06" y="37.15" width="4.81" height="4.81"/><polygon class="cls-2" points="87.06 41.95 86.08 41.47 86.08 36.66 87.06 37.15 87.06 41.95"/><polygon class="cls-3" points="91.86 37.15 87.06 37.15 86.08 36.66 90.89 36.66 91.86 37.15"/></g><g id="Bloque1-57" data-name="Bloque1"><rect class="cls-1" x="87.06" y="32.06" width="4.81" height="4.81"/><polygon class="cls-2" points="87.06 36.87 86.08 36.38 86.08 31.57 87.06 32.06 87.06 36.87"/><polygon class="cls-3" points="91.86 32.06 87.06 32.06 86.08 31.57 90.89 31.57 91.86 32.06"/></g><g id="Bloque1-58" data-name="Bloque1"><rect class="cls-1" x="87.06" y="26.97" width="4.81" height="4.81"/><polygon class="cls-2" points="87.06 31.78 86.08 31.29 86.08 26.48 87.06 26.97 87.06 31.78"/><polygon class="cls-3" points="91.86 26.97 87.06 26.97 86.08 26.48 90.89 26.48 91.86 26.97"/></g><g id="Bloque1-59" data-name="Bloque1"><rect class="cls-1" x="87.06" y="21.88" width="4.81" height="4.81"/><polygon class="cls-2" points="87.06 26.69 86.08 26.2 86.08 21.39 87.06 21.88 87.06 26.69"/><polygon class="cls-3" points="91.86 21.88 87.06 21.88 86.08 21.39 90.89 21.39 91.86 21.88"/></g><g id="Bloque1-60" data-name="Bloque1"><rect class="cls-1" x="87.06" y="16.79" width="4.81" height="4.81"/><polygon class="cls-2" points="87.06 21.6 86.08 21.11 86.08 16.3 87.06 16.79 87.06 21.6"/><polygon class="cls-3" points="91.86 16.79 87.06 16.79 86.08 16.3 90.89 16.3 91.86 16.79"/></g><g id="Bloque1-61" data-name="Bloque1"><rect class="cls-1" x="81.72" y="62.6" width="4.81" height="4.81"/><polygon class="cls-2" points="81.72 67.4 80.75 66.92 80.75 62.11 81.72 62.6 81.72 67.4"/><polygon class="cls-3" points="86.53 62.6 81.72 62.6 80.75 62.11 85.56 62.11 86.53 62.6"/></g><g id="Bloque1-62" data-name="Bloque1"><rect class="cls-1" x="81.72" y="57.51" width="4.81" height="4.81"/><polygon class="cls-2" points="81.72 62.31 80.75 61.83 80.75 57.02 81.72 57.51 81.72 62.31"/><polygon class="cls-3" points="86.53 57.51 81.72 57.51 80.75 57.02 85.56 57.02 86.53 57.51"/></g><g id="Bloque1-63" data-name="Bloque1"><rect class="cls-1" x="81.72" y="52.42" width="4.81" height="4.81"/><polygon class="cls-2" points="81.72 57.22 80.75 56.74 80.75 51.93 81.72 52.42 81.72 57.22"/><polygon class="cls-3" points="86.53 52.42 81.72 52.42 80.75 51.93 85.56 51.93 86.53 52.42"/></g><g id="Bloque1-64" data-name="Bloque1"><rect class="cls-1" x="81.72" y="47.33" width="4.81" height="4.81"/><polygon class="cls-2" points="81.72 52.13 80.75 51.65 80.75 46.84 81.72 47.33 81.72 52.13"/><polygon class="cls-3" points="86.53 47.33 81.72 47.33 80.75 46.84 85.56 46.84 86.53 47.33"/></g><g id="Bloque1-65" data-name="Bloque1"><rect class="cls-1" x="81.72" y="42.24" width="4.81" height="4.81"/><polygon class="cls-2" points="81.72 47.05 80.75 46.56 80.75 41.75 81.72 42.24 81.72 47.05"/><polygon class="cls-3" points="86.53 42.24 81.72 42.24 80.75 41.75 85.56 41.75 86.53 42.24"/></g><g id="Bloque1-66" data-name="Bloque1"><rect class="cls-1" x="81.72" y="37.15" width="4.81" height="4.81"/><polygon class="cls-2" points="81.72 41.95 80.75 41.47 80.75 36.66 81.72 37.15 81.72 41.95"/><polygon class="cls-3" points="86.53 37.15 81.72 37.15 80.75 36.66 85.56 36.66 86.53 37.15"/></g><g id="Bloque1-67" data-name="Bloque1"><rect class="cls-1" x="81.72" y="32.06" width="4.81" height="4.81"/><polygon class="cls-2" points="81.72 36.87 80.75 36.38 80.75 31.57 81.72 32.06 81.72 36.87"/><polygon class="cls-3" points="86.53 32.06 81.72 32.06 80.75 31.57 85.56 31.57 86.53 32.06"/></g><g id="Bloque1-68" data-name="Bloque1"><rect class="cls-1" x="81.72" y="26.97" width="4.81" height="4.81"/><polygon class="cls-2" points="81.72 31.78 80.75 31.29 80.75 26.48 81.72 26.97 81.72 31.78"/><polygon class="cls-3" points="86.53 26.97 81.72 26.97 80.75 26.48 85.56 26.48 86.53 26.97"/></g><g id="Bloque1-69" data-name="Bloque1"><rect class="cls-1" x="81.72" y="21.88" width="4.81" height="4.81"/><polygon class="cls-2" points="81.72 26.69 80.75 26.2 80.75 21.39 81.72 21.88 81.72 26.69"/><polygon class="cls-3" points="86.53 21.88 81.72 21.88 80.75 21.39 85.56 21.39 86.53 21.88"/></g><g id="Bloque1-70" data-name="Bloque1"><rect class="cls-1" x="81.72" y="16.79" width="4.81" height="4.81"/><polygon class="cls-2" points="81.72 21.6 80.75 21.11 80.75 16.3 81.72 16.79 81.72 21.6"/><polygon class="cls-3" points="86.53 16.79 81.72 16.79 80.75 16.3 85.56 16.3 86.53 16.79"/></g><g id="Bloque1-71" data-name="Bloque1"><rect class="cls-1" x="76.39" y="62.6" width="4.81" height="4.81"/><polygon class="cls-2" points="76.39 67.4 75.42 66.92 75.42 62.11 76.39 62.6 76.39 67.4"/><polygon class="cls-3" points="81.19 62.6 76.39 62.6 75.42 62.11 80.22 62.11 81.19 62.6"/></g><g id="Bloque1-72" data-name="Bloque1"><rect class="cls-1" x="76.39" y="57.51" width="4.81" height="4.81"/><polygon class="cls-2" points="76.39 62.31 75.42 61.83 75.42 57.02 76.39 57.51 76.39 62.31"/><polygon class="cls-3" points="81.19 57.51 76.39 57.51 75.42 57.02 80.22 57.02 81.19 57.51"/></g><g id="Bloque1-73" data-name="Bloque1"><rect class="cls-1" x="76.39" y="52.42" width="4.81" height="4.81"/><polygon class="cls-2" points="76.39 57.22 75.42 56.74 75.42 51.93 76.39 52.42 76.39 57.22"/><polygon class="cls-3" points="81.19 52.42 76.39 52.42 75.42 51.93 80.22 51.93 81.19 52.42"/></g><g id="Bloque1-74" data-name="Bloque1"><rect class="cls-1" x="76.39" y="47.33" width="4.81" height="4.81"/><polygon class="cls-2" points="76.39 52.13 75.42 51.65 75.42 46.84 76.39 47.33 76.39 52.13"/><polygon class="cls-3" points="81.19 47.33 76.39 47.33 75.42 46.84 80.22 46.84 81.19 47.33"/></g><g id="Bloque1-75" data-name="Bloque1"><rect class="cls-1" x="76.39" y="42.24" width="4.81" height="4.81"/><polygon class="cls-2" points="76.39 47.05 75.42 46.56 75.42 41.75 76.39 42.24 76.39 47.05"/><polygon class="cls-3" points="81.19 42.24 76.39 42.24 75.42 41.75 80.22 41.75 81.19 42.24"/></g><g id="Bloque1-76" data-name="Bloque1"><rect class="cls-1" x="76.39" y="37.15" width="4.81" height="4.81"/><polygon class="cls-2" points="76.39 41.95 75.42 41.47 75.42 36.66 76.39 37.15 76.39 41.95"/><polygon class="cls-3" points="81.19 37.15 76.39 37.15 75.42 36.66 80.22 36.66 81.19 37.15"/></g><g id="Bloque1-77" data-name="Bloque1"><rect class="cls-1" x="76.39" y="32.06" width="4.81" height="4.81"/><polygon class="cls-2" points="76.39 36.87 75.42 36.38 75.42 31.57 76.39 32.06 76.39 36.87"/><polygon class="cls-3" points="81.19 32.06 76.39 32.06 75.42 31.57 80.22 31.57 81.19 32.06"/></g><g id="Bloque1-78" data-name="Bloque1"><rect class="cls-1" x="76.39" y="26.97" width="4.81" height="4.81"/><polygon class="cls-2" points="76.39 31.78 75.42 31.29 75.42 26.48 76.39 26.97 76.39 31.78"/><polygon class="cls-3" points="81.19 26.97 76.39 26.97 75.42 26.48 80.22 26.48 81.19 26.97"/></g><g id="Bloque1-79" data-name="Bloque1"><rect class="cls-1" x="76.39" y="21.88" width="4.81" height="4.81"/><polygon class="cls-2" points="76.39 26.69 75.42 26.2 75.42 21.39 76.39 21.88 76.39 26.69"/><polygon class="cls-3" points="81.19 21.88 76.39 21.88 75.42 21.39 80.22 21.39 81.19 21.88"/></g><g id="Bloque1-80" data-name="Bloque1"><rect class="cls-1" x="76.39" y="16.79" width="4.81" height="4.81"/><polygon class="cls-2" points="76.39 21.6 75.42 21.11 75.42 16.3 76.39 16.79 76.39 21.6"/><polygon class="cls-3" points="81.19 16.79 76.39 16.79 75.42 16.3 80.22 16.3 81.19 16.79"/></g><g id="Bloque1-81" data-name="Bloque1"><rect class="cls-1" x="71.06" y="62.6" width="4.81" height="4.81"/><polygon class="cls-2" points="71.06 67.4 70.08 66.92 70.08 62.11 71.06 62.6 71.06 67.4"/><polygon class="cls-3" points="75.86 62.6 71.06 62.6 70.08 62.11 74.89 62.11 75.86 62.6"/></g><g id="Bloque1-82" data-name="Bloque1"><rect class="cls-1" x="71.06" y="57.51" width="4.81" height="4.81"/><polygon class="cls-2" points="71.06 62.31 70.08 61.83 70.08 57.02 71.06 57.51 71.06 62.31"/><polygon class="cls-3" points="75.86 57.51 71.06 57.51 70.08 57.02 74.89 57.02 75.86 57.51"/></g><g id="Bloque1-83" data-name="Bloque1"><rect class="cls-1" x="71.06" y="52.42" width="4.81" height="4.81"/><polygon class="cls-2" points="71.06 57.22 70.08 56.74 70.08 51.93 71.06 52.42 71.06 57.22"/><polygon class="cls-3" points="75.86 52.42 71.06 52.42 70.08 51.93 74.89 51.93 75.86 52.42"/></g><g id="Bloque1-84" data-name="Bloque1"><rect class="cls-1" x="71.06" y="47.33" width="4.81" height="4.81"/><polygon class="cls-2" points="71.06 52.13 70.08 51.65 70.08 46.84 71.06 47.33 71.06 52.13"/><polygon class="cls-3" points="75.86 47.33 71.06 47.33 70.08 46.84 74.89 46.84 75.86 47.33"/></g><g id="Bloque1-85" data-name="Bloque1"><rect class="cls-1" x="71.06" y="42.24" width="4.81" height="4.81"/><polygon class="cls-2" points="71.06 47.05 70.08 46.56 70.08 41.75 71.06 42.24 71.06 47.05"/><polygon class="cls-3" points="75.86 42.24 71.06 42.24 70.08 41.75 74.89 41.75 75.86 42.24"/></g><g id="Bloque1-86" data-name="Bloque1"><rect class="cls-1" x="71.06" y="37.15" width="4.81" height="4.81"/><polygon class="cls-2" points="71.06 41.95 70.08 41.47 70.08 36.66 71.06 37.15 71.06 41.95"/><polygon class="cls-3" points="75.86 37.15 71.06 37.15 70.08 36.66 74.89 36.66 75.86 37.15"/></g><g id="Bloque1-87" data-name="Bloque1"><rect class="cls-1" x="71.06" y="32.06" width="4.81" height="4.81"/><polygon class="cls-2" points="71.06 36.87 70.08 36.38 70.08 31.57 71.06 32.06 71.06 36.87"/><polygon class="cls-3" points="75.86 32.06 71.06 32.06 70.08 31.57 74.89 31.57 75.86 32.06"/></g><g id="Bloque1-88" data-name="Bloque1"><rect class="cls-1" x="71.06" y="26.97" width="4.81" height="4.81"/><polygon class="cls-2" points="71.06 31.78 70.08 31.29 70.08 26.48 71.06 26.97 71.06 31.78"/><polygon class="cls-3" points="75.86 26.97 71.06 26.97 70.08 26.48 74.89 26.48 75.86 26.97"/></g><g id="Bloque1-89" data-name="Bloque1"><rect class="cls-1" x="71.06" y="21.88" width="4.81" height="4.81"/><polygon class="cls-2" points="71.06 26.69 70.08 26.2 70.08 21.39 71.06 21.88 71.06 26.69"/><polygon class="cls-3" points="75.86 21.88 71.06 21.88 70.08 21.39 74.89 21.39 75.86 21.88"/></g><g id="Bloque1-90" data-name="Bloque1"><rect class="cls-1" x="71.06" y="16.79" width="4.81" height="4.81"/><polygon class="cls-2" points="71.06 21.6 70.08 21.11 70.08 16.3 71.06 16.79 71.06 21.6"/><polygon class="cls-3" points="75.86 16.79 71.06 16.79 70.08 16.3 74.89 16.3 75.86 16.79"/></g><g id="Bloque1-91" data-name="Bloque1"><rect class="cls-1" x="65.72" y="62.6" width="4.81" height="4.81"/><polygon class="cls-2" points="65.72 67.4 64.75 66.92 64.75 62.11 65.72 62.6 65.72 67.4"/><polygon class="cls-3" points="70.53 62.6 65.72 62.6 64.75 62.11 69.55 62.11 70.53 62.6"/></g><g id="Bloque1-92" data-name="Bloque1"><rect class="cls-1" x="65.72" y="57.51" width="4.81" height="4.81"/><polygon class="cls-2" points="65.72 62.31 64.75 61.83 64.75 57.02 65.72 57.51 65.72 62.31"/><polygon class="cls-3" points="70.53 57.51 65.72 57.51 64.75 57.02 69.55 57.02 70.53 57.51"/></g><g id="Bloque1-93" data-name="Bloque1"><rect class="cls-1" x="65.72" y="52.42" width="4.81" height="4.81"/><polygon class="cls-2" points="65.72 57.22 64.75 56.74 64.75 51.93 65.72 52.42 65.72 57.22"/><polygon class="cls-3" points="70.53 52.42 65.72 52.42 64.75 51.93 69.55 51.93 70.53 52.42"/></g><g id="Bloque1-94" data-name="Bloque1"><rect class="cls-1" x="65.72" y="47.33" width="4.81" height="4.81"/><polygon class="cls-2" points="65.72 52.13 64.75 51.65 64.75 46.84 65.72 47.33 65.72 52.13"/><polygon class="cls-3" points="70.53 47.33 65.72 47.33 64.75 46.84 69.55 46.84 70.53 47.33"/></g><g id="Bloque1-95" data-name="Bloque1"><rect class="cls-1" x="65.72" y="42.24" width="4.81" height="4.81"/><polygon class="cls-2" points="65.72 47.05 64.75 46.56 64.75 41.75 65.72 42.24 65.72 47.05"/><polygon class="cls-3" points="70.53 42.24 65.72 42.24 64.75 41.75 69.55 41.75 70.53 42.24"/></g><g id="Bloque1-96" data-name="Bloque1"><rect class="cls-1" x="65.72" y="37.15" width="4.81" height="4.81"/><polygon class="cls-2" points="65.72 41.95 64.75 41.47 64.75 36.66 65.72 37.15 65.72 41.95"/><polygon class="cls-3" points="70.53 37.15 65.72 37.15 64.75 36.66 69.55 36.66 70.53 37.15"/></g><g id="Bloque1-97" data-name="Bloque1"><rect class="cls-1" x="65.72" y="32.06" width="4.81" height="4.81"/><polygon class="cls-2" points="65.72 36.87 64.75 36.38 64.75 31.57 65.72 32.06 65.72 36.87"/><polygon class="cls-3" points="70.53 32.06 65.72 32.06 64.75 31.57 69.55 31.57 70.53 32.06"/></g><g id="Bloque1-98" data-name="Bloque1"><rect class="cls-1" x="65.72" y="26.97" width="4.81" height="4.81"/><polygon class="cls-2" points="65.72 31.78 64.75 31.29 64.75 26.48 65.72 26.97 65.72 31.78"/><polygon class="cls-3" points="70.53 26.97 65.72 26.97 64.75 26.48 69.55 26.48 70.53 26.97"/></g><g id="Bloque1-99" data-name="Bloque1"><rect class="cls-1" x="65.72" y="21.88" width="4.81" height="4.81"/><polygon class="cls-2" points="65.72 26.69 64.75 26.2 64.75 21.39 65.72 21.88 65.72 26.69"/><polygon class="cls-3" points="70.53 21.88 65.72 21.88 64.75 21.39 69.55 21.39 70.53 21.88"/></g><g id="Bloque1-100" data-name="Bloque1"><rect class="cls-1" x="65.72" y="16.79" width="4.81" height="4.81"/><polygon class="cls-2" points="65.72 21.6 64.75 21.11 64.75 16.3 65.72 16.79 65.72 21.6"/><polygon class="cls-3" points="70.53 16.79 65.72 16.79 64.75 16.3 69.55 16.3 70.53 16.79"/></g><path class="cls-4" d="M22.65,46.6a.81.81,0,0,1,.58.22.79.79,0,0,1,.23.57.75.75,0,0,1-.23.55.85.85,0,0,1-.58.22H15.83a.74.74,0,0,1-.56-.24.81.81,0,0,1-.23-.57V35.14a.76.76,0,0,1,.24-.57.87.87,0,0,1,1.16,0,.76.76,0,0,1,.24.57V47l-.4-.35Z"/><path class="cls-4" d="M33.76,37.86a.71.71,0,0,1,.57.23.75.75,0,0,1,.22.56v8.7a.81.81,0,0,1-.23.57.77.77,0,0,1-1.12,0,.81.81,0,0,1-.23-.57V45.47l.38,0a1.9,1.9,0,0,1-.3,1,4,4,0,0,1-.81,1,4.47,4.47,0,0,1-1.2.73,3.89,3.89,0,0,1-1.5.28,4.31,4.31,0,0,1-2.42-.7,4.77,4.77,0,0,1-1.68-1.9A5.94,5.94,0,0,1,24.82,43a5.78,5.78,0,0,1,.63-2.75,4.84,4.84,0,0,1,1.67-1.88,4.54,4.54,0,0,1,4-.4,4,4,0,0,1,1.27.75,3.57,3.57,0,0,1,.84,1,2.55,2.55,0,0,1,.29,1.15L33,40.8V38.65a.75.75,0,0,1,.23-.56A.73.73,0,0,1,33.76,37.86Zm-4.06,9a3,3,0,0,0,1.74-.51A3.47,3.47,0,0,0,32.64,45a4.75,4.75,0,0,0,0-4,3.51,3.51,0,0,0-1.2-1.38,3.11,3.11,0,0,0-1.74-.5,3.18,3.18,0,0,0-1.73.49A3.42,3.42,0,0,0,26.78,41a4.72,4.72,0,0,0,0,4A3.45,3.45,0,0,0,28,46.38,3,3,0,0,0,29.7,46.89Z"/><path class="cls-4" d="M142,48.16a.74.74,0,0,1-.56-.24.81.81,0,0,1-.23-.57v-8.6a.79.79,0,0,1,.23-.57A.76.76,0,0,1,142,38a.74.74,0,0,1,.57.22.78.78,0,0,1,.22.57v2.6l-.24-.41a4.22,4.22,0,0,1,.43-1.2,3.94,3.94,0,0,1,.78-1,3.4,3.4,0,0,1,2.42-1,1.57,1.57,0,0,1,.8.21.63.63,0,0,1,.37.58.79.79,0,0,1-.22.61.71.71,0,0,1-.49.2,1.25,1.25,0,0,1-.5-.11,1.41,1.41,0,0,0-.59-.11,2,2,0,0,0-1,.27,3,3,0,0,0-.89.76,4.1,4.1,0,0,0-.65,1.11,3.5,3.5,0,0,0-.25,1.33v4.8a.81.81,0,0,1-.23.57A.74.74,0,0,1,142,48.16Z"/><path class="cls-4" d="M153.28,48.35a5.48,5.48,0,0,1-2.76-.67,4.63,4.63,0,0,1-1.83-1.84,5.43,5.43,0,0,1-.65-2.71,5.83,5.83,0,0,1,.68-2.93,4.86,4.86,0,0,1,1.76-1.86,4.48,4.48,0,0,1,2.31-.64,4.61,4.61,0,0,1,1.77.34,4.61,4.61,0,0,1,2.55,2.51,5.37,5.37,0,0,1,.42,2,.82.82,0,0,1-.26.54.81.81,0,0,1-.55.21h-7.8l-.35-1.36h7.59l-.31.28v-.44a2.56,2.56,0,0,0-.52-1.39,3.21,3.21,0,0,0-1.14-.89,3.26,3.26,0,0,0-1.4-.32,3.4,3.4,0,0,0-1.17.21,2.81,2.81,0,0,0-1.05.67,3.44,3.44,0,0,0-.74,1.19,5.09,5.09,0,0,0-.27,1.76,4.2,4.2,0,0,0,.46,2,3.49,3.49,0,0,0,3.2,1.87,4,4,0,0,0,1.23-.17,3.46,3.46,0,0,0,.88-.45,4.9,4.9,0,0,0,.62-.54.88.88,0,0,1,.51-.18.68.68,0,0,1,.67.67.73.73,0,0,1-.31.59,5.37,5.37,0,0,1-1.51,1.08A4.51,4.51,0,0,1,153.28,48.35Z"/><path class="cls-4" d="M164.82,37.8a4.39,4.39,0,0,1,2.41.67,4.87,4.87,0,0,1,1.69,1.85,6.28,6.28,0,0,1,0,5.44,4.92,4.92,0,0,1-1.68,1.87,4.24,4.24,0,0,1-2.38.68,4.14,4.14,0,0,1-1.37-.22,5.06,5.06,0,0,1-1.16-.59,4.11,4.11,0,0,1-.88-.83,3.15,3.15,0,0,1-.51-.92l.43-.28v5.82a.8.8,0,0,1-.21.57.75.75,0,0,1-.58.24.73.73,0,0,1-.56-.23.78.78,0,0,1-.23-.58V38.69a.75.75,0,0,1,.23-.56.73.73,0,0,1,.56-.23.75.75,0,0,1,.58.23.78.78,0,0,1,.21.56v1.75l-.29-.16a2.8,2.8,0,0,1,.48-.94,3.62,3.62,0,0,1,.85-.8,4.15,4.15,0,0,1,1.12-.54A4.34,4.34,0,0,1,164.82,37.8Zm-.17,1.46a3.14,3.14,0,0,0-1.75.49,3.33,3.33,0,0,0-1.18,1.34,4.25,4.25,0,0,0-.43,2,4.3,4.3,0,0,0,.43,2,3.26,3.26,0,0,0,1.18,1.36,3.14,3.14,0,0,0,1.75.49,3.07,3.07,0,0,0,1.73-.49A3.43,3.43,0,0,0,167.57,45a4.3,4.3,0,0,0,.43-2,4.25,4.25,0,0,0-.43-2,3.51,3.51,0,0,0-1.19-1.34A3.07,3.07,0,0,0,164.65,39.26Z"/><path class="cls-4" d="M172.6,48.16a.75.75,0,0,1-.57-.24.8.8,0,0,1-.22-.57v-8.6a.78.78,0,0,1,.22-.57.85.85,0,0,1,1.14,0,.83.83,0,0,1,.22.57v2.6l-.24-.41a4.52,4.52,0,0,1,.42-1.2,4.43,4.43,0,0,1,.78-1,3.48,3.48,0,0,1,1.09-.73,3.24,3.24,0,0,1,1.34-.27,1.59,1.59,0,0,1,.8.21.64.64,0,0,1,.36.58.79.79,0,0,1-.21.61.74.74,0,0,1-.5.2,1.21,1.21,0,0,1-.49-.11,1.48,1.48,0,0,0-.59-.11,2,2,0,0,0-1,.27,3.14,3.14,0,0,0-.89.76,4.38,4.38,0,0,0-.65,1.11,3.69,3.69,0,0,0-.24,1.33v4.8a.81.81,0,0,1-.23.57A.74.74,0,0,1,172.6,48.16Z"/><path class="cls-4" d="M183.9,48.35a5.48,5.48,0,0,1-2.76-.67,4.72,4.72,0,0,1-1.84-1.84,5.54,5.54,0,0,1-.65-2.71,5.93,5.93,0,0,1,.68-2.93,4.89,4.89,0,0,1,1.77-1.86,4.42,4.42,0,0,1,2.31-.64A4.7,4.7,0,0,1,186.67,39a5,5,0,0,1,1.06,1.54,5.17,5.17,0,0,1,.41,2,.77.77,0,0,1-.26.54.79.79,0,0,1-.55.21h-7.79l-.36-1.36h7.6l-.32.28v-.44a2.49,2.49,0,0,0-.52-1.39,3.28,3.28,0,0,0-2.53-1.21,3.46,3.46,0,0,0-1.18.21,2.77,2.77,0,0,0-1,.67,3.3,3.3,0,0,0-.74,1.19,4.85,4.85,0,0,0-.28,1.76,4.32,4.32,0,0,0,.46,2,3.5,3.5,0,0,0,1.3,1.37,3.56,3.56,0,0,0,1.91.5,4,4,0,0,0,1.22-.17,3.16,3.16,0,0,0,.88-.45,4.9,4.9,0,0,0,.62-.54.89.89,0,0,1,.52-.18.68.68,0,0,1,.67.67.74.74,0,0,1-.32.59,5.09,5.09,0,0,1-1.51,1.08A4.47,4.47,0,0,1,183.9,48.35Z"/><path class="cls-4" d="M189.84,46.54a.84.84,0,0,1-.16-.54.68.68,0,0,1,.33-.51.75.75,0,0,1,.47-.12.72.72,0,0,1,.48.26,4.43,4.43,0,0,0,1.26,1,3.73,3.73,0,0,0,1.74.38,3.5,3.5,0,0,0,.95-.16,1.78,1.78,0,0,0,.8-.48,1.32,1.32,0,0,0,.32-.92,1.18,1.18,0,0,0-.33-.88,2.85,2.85,0,0,0-.87-.53,8.94,8.94,0,0,0-1.17-.36c-.43-.12-.86-.26-1.28-.41a4.79,4.79,0,0,1-1.13-.57,2.59,2.59,0,0,1-.81-.87,2.42,2.42,0,0,1-.31-1.27,2.49,2.49,0,0,1,.49-1.54,3.06,3.06,0,0,1,1.3-1,4.36,4.36,0,0,1,1.78-.36,5.29,5.29,0,0,1,1.16.13,4.35,4.35,0,0,1,1.17.43,3.51,3.51,0,0,1,1,.84.76.76,0,0,1,.19.49.63.63,0,0,1-.25.54.78.78,0,0,1-.49.14.72.72,0,0,1-.44-.2,2.8,2.8,0,0,0-1-.76,3.47,3.47,0,0,0-1.38-.27,3.21,3.21,0,0,0-.92.14,1.68,1.68,0,0,0-.76.46,1.25,1.25,0,0,0-.31.9,1.2,1.2,0,0,0,.36.87,2.45,2.45,0,0,0,.9.54c.39.14.81.28,1.27.41a11.34,11.34,0,0,1,1.21.36,4.6,4.6,0,0,1,1.06.54,2.6,2.6,0,0,1,.75.86,2.86,2.86,0,0,1,.27,1.31A2.49,2.49,0,0,1,197,47a3.21,3.21,0,0,1-1.35,1,4.7,4.7,0,0,1-1.81.34,5.73,5.73,0,0,1-2.14-.41A4.29,4.29,0,0,1,189.84,46.54Z"/><path class="cls-4" d="M204.38,48.35a5.49,5.49,0,0,1-2.77-.67,4.63,4.63,0,0,1-1.83-1.84,5.43,5.43,0,0,1-.65-2.71,5.83,5.83,0,0,1,.68-2.93,4.86,4.86,0,0,1,1.76-1.86,4.48,4.48,0,0,1,2.31-.64A4.7,4.7,0,0,1,207.15,39a4.78,4.78,0,0,1,1,1.54,5.18,5.18,0,0,1,.42,2,.82.82,0,0,1-.26.54.81.81,0,0,1-.55.21H200l-.36-1.36h7.6l-.32.28v-.44a2.49,2.49,0,0,0-.52-1.39,3.32,3.32,0,0,0-2.54-1.21,3.44,3.44,0,0,0-1.17.21,2.81,2.81,0,0,0-1.05.67,3.44,3.44,0,0,0-.74,1.19,5.09,5.09,0,0,0-.27,1.76,4.2,4.2,0,0,0,.46,2,3.49,3.49,0,0,0,3.21,1.87,4,4,0,0,0,1.22-.17,3.46,3.46,0,0,0,.88-.45,4.9,4.9,0,0,0,.62-.54.88.88,0,0,1,.51-.18.63.63,0,0,1,.47.2.61.61,0,0,1,.2.47.73.73,0,0,1-.31.59,5.37,5.37,0,0,1-1.51,1.08A4.5,4.5,0,0,1,204.38,48.35Z"/><path class="cls-4" d="M216,37.7a3.65,3.65,0,0,1,2.12.55,3,3,0,0,1,1.09,1.48,6.16,6.16,0,0,1,.33,2.07v5.55a.81.81,0,0,1-.23.57.74.74,0,0,1-.56.24.76.76,0,0,1-.57-.24.8.8,0,0,1-.22-.57V41.84a3.82,3.82,0,0,0-.23-1.35,2,2,0,0,0-.75-1,2.4,2.4,0,0,0-1.43-.37,3.14,3.14,0,0,0-1.52.37,2.94,2.94,0,0,0-1.1,1,2.3,2.3,0,0,0-.42,1.35v5.51a.8.8,0,0,1-.22.57.76.76,0,0,1-.57.24.74.74,0,0,1-.56-.24.81.81,0,0,1-.23-.57v-8.6a.79.79,0,0,1,.23-.57.76.76,0,0,1,.56-.22.78.78,0,0,1,.58.22.82.82,0,0,1,.21.57v1.4l-.39.43a2.73,2.73,0,0,1,.45-1,4,4,0,0,1,.89-.94,4.26,4.26,0,0,1,1.18-.66A3.72,3.72,0,0,1,216,37.7Z"/><path class="cls-4" d="M222,38h4.64a.7.7,0,0,1,.52.21.73.73,0,0,1,.21.52.72.72,0,0,1-.73.73H222a.75.75,0,0,1-.73-.75.67.67,0,0,1,.22-.51A.73.73,0,0,1,222,38Zm2.07-2.69a.72.72,0,0,1,.55.23.76.76,0,0,1,.22.56v9.53a1.46,1.46,0,0,0,.14.71.72.72,0,0,0,.36.33,1.24,1.24,0,0,0,.45.09.89.89,0,0,0,.34-.07.78.78,0,0,1,.35-.07.48.48,0,0,1,.36.18.68.68,0,0,1,.17.49.71.71,0,0,1-.41.6,1.85,1.85,0,0,1-.93.25c-.18,0-.41,0-.68,0a2,2,0,0,1-.8-.26,1.67,1.67,0,0,1-.66-.72,3,3,0,0,1-.27-1.41V36.12a.74.74,0,0,1,.24-.56A.81.81,0,0,1,224.08,35.33Z"/><path class="cls-4" d="M237.87,37.86a.71.71,0,0,1,.57.23.75.75,0,0,1,.22.56v8.7a.81.81,0,0,1-.23.57.77.77,0,0,1-1.12,0,.81.81,0,0,1-.23-.57V45.47l.38,0a1.9,1.9,0,0,1-.3,1,4,4,0,0,1-.81,1,4.47,4.47,0,0,1-1.2.73,3.89,3.89,0,0,1-1.5.28,4.31,4.31,0,0,1-2.42-.7,4.77,4.77,0,0,1-1.68-1.9,5.94,5.94,0,0,1-.62-2.74,5.78,5.78,0,0,1,.63-2.75,4.84,4.84,0,0,1,1.67-1.88,4.35,4.35,0,0,1,2.38-.68,4.3,4.3,0,0,1,1.58.28,4,4,0,0,1,1.27.75,3.57,3.57,0,0,1,.84,1,2.42,2.42,0,0,1,.29,1.15l-.51-.12V38.65a.75.75,0,0,1,.23-.56A.73.73,0,0,1,237.87,37.86Zm-4.06,9a3,3,0,0,0,1.74-.51,3.47,3.47,0,0,0,1.2-1.39,4.75,4.75,0,0,0,0-4,3.51,3.51,0,0,0-1.2-1.38,3.11,3.11,0,0,0-1.74-.5,3.18,3.18,0,0,0-1.73.49A3.42,3.42,0,0,0,230.89,41a4.72,4.72,0,0,0,0,4,3.45,3.45,0,0,0,1.19,1.39A3,3,0,0,0,233.81,46.89Z"/><path class="cls-4" d="M254.64,38a.75.75,0,0,1,.57.22.83.83,0,0,1,.22.57v5.38a4.11,4.11,0,0,1-1.12,3.09,4.94,4.94,0,0,1-6.19,0A4.15,4.15,0,0,1,247,44.13V38.75a.79.79,0,0,1,.23-.57.76.76,0,0,1,.56-.22.74.74,0,0,1,.57.22.78.78,0,0,1,.22.57v5.38a2.74,2.74,0,0,0,.69,2,3.1,3.1,0,0,0,3.9,0,2.78,2.78,0,0,0,.68-2V38.75a.75.75,0,0,1,.23-.57A.75.75,0,0,1,254.64,38Z"/><path class="cls-4" d="M263.42,37.7a3.64,3.64,0,0,1,2.11.55,3,3,0,0,1,1.09,1.48A6.16,6.16,0,0,1,267,41.8v5.55a.81.81,0,0,1-.23.57.74.74,0,0,1-.56.24.73.73,0,0,1-.56-.24.77.77,0,0,1-.23-.57V41.84a3.82,3.82,0,0,0-.23-1.35,2,2,0,0,0-.75-1,2.4,2.4,0,0,0-1.43-.37,3.14,3.14,0,0,0-1.52.37,2.94,2.94,0,0,0-1.1,1,2.3,2.3,0,0,0-.42,1.35v5.51a.8.8,0,0,1-.22.57.79.79,0,0,1-1.13,0,.8.8,0,0,1-.22-.57v-8.6a.78.78,0,0,1,.22-.57.85.85,0,0,1,1.14,0,.82.82,0,0,1,.21.57v1.4l-.39.43a2.89,2.89,0,0,1,.45-1,4.17,4.17,0,0,1,.89-.94,4.41,4.41,0,0,1,1.18-.66A3.74,3.74,0,0,1,263.42,37.7Z"/><path class="cls-4" d="M278.17,37.86a.71.71,0,0,1,.57.23.75.75,0,0,1,.22.56v8.7a.81.81,0,0,1-.23.57.73.73,0,0,1-.56.24.74.74,0,0,1-.56-.24.81.81,0,0,1-.23-.57V45.47l.38,0a1.9,1.9,0,0,1-.3,1,4,4,0,0,1-.81,1,4.47,4.47,0,0,1-1.2.73,3.89,3.89,0,0,1-1.5.28,4.33,4.33,0,0,1-2.42-.7,4.77,4.77,0,0,1-1.68-1.9,5.94,5.94,0,0,1-.61-2.74,5.78,5.78,0,0,1,.62-2.75,4.84,4.84,0,0,1,1.67-1.88,4.35,4.35,0,0,1,2.38-.68,4.3,4.3,0,0,1,1.58.28,3.92,3.92,0,0,1,1.27.75,3.57,3.57,0,0,1,.84,1,2.44,2.44,0,0,1,.3,1.15l-.52-.12V38.65a.75.75,0,0,1,.23-.56A.73.73,0,0,1,278.17,37.86Zm-4.06,9a3,3,0,0,0,1.74-.51,3.47,3.47,0,0,0,1.2-1.39,4.75,4.75,0,0,0,0-4,3.51,3.51,0,0,0-1.2-1.38,3.09,3.09,0,0,0-1.74-.5,3.18,3.18,0,0,0-1.73.49A3.5,3.5,0,0,0,271.19,41a4.72,4.72,0,0,0,0,4,3.52,3.52,0,0,0,1.19,1.39A3,3,0,0,0,274.11,46.89Z"/><path class="cls-4" d="M291.74,37.7a6.83,6.83,0,0,1,1.82.22,3.46,3.46,0,0,1,1.28.59,1.06,1.06,0,0,1,.47.85.84.84,0,0,1-.16.49.58.58,0,0,1-.49.24.77.77,0,0,1-.42-.1,1.52,1.52,0,0,1-.32-.26,1.4,1.4,0,0,0-.4-.27,1.93,1.93,0,0,0-.69-.22,5.64,5.64,0,0,0-.93-.08,3.52,3.52,0,0,0-1.89.51,3.56,3.56,0,0,0-1.29,1.38,4.43,4.43,0,0,0,0,4A3.5,3.5,0,0,0,290,46.38a3.43,3.43,0,0,0,1.87.51,4.55,4.55,0,0,0,1.1-.11,4.25,4.25,0,0,0,.7-.28,2.28,2.28,0,0,0,.52-.4.68.68,0,0,1,.52-.19.64.64,0,0,1,.52.21.89.89,0,0,1,.17.54,1.07,1.07,0,0,1-.49.75,4.45,4.45,0,0,1-1.33.67,6.16,6.16,0,0,1-1.89.27,4.82,4.82,0,0,1-2.62-.7,4.75,4.75,0,0,1-1.75-1.91,5.91,5.91,0,0,1-.62-2.71,5.79,5.79,0,0,1,.64-2.71,5,5,0,0,1,1.79-1.91A4.92,4.92,0,0,1,291.74,37.7Z"/><path class="cls-4" d="M302.06,48.35a5.48,5.48,0,0,1-2.76-.67,4.72,4.72,0,0,1-1.84-1.84,5.54,5.54,0,0,1-.65-2.71,5.93,5.93,0,0,1,.68-2.93,5,5,0,0,1,1.77-1.86,4.42,4.42,0,0,1,2.31-.64A4.7,4.7,0,0,1,304.83,39a5,5,0,0,1,1.06,1.54,5.17,5.17,0,0,1,.41,2,.77.77,0,0,1-.26.54.79.79,0,0,1-.55.21H297.7l-.35-1.36h7.59l-.32.28v-.44a2.49,2.49,0,0,0-.52-1.39,3.28,3.28,0,0,0-2.53-1.21,3.46,3.46,0,0,0-1.18.21,2.85,2.85,0,0,0-1,.67,3.3,3.3,0,0,0-.74,1.19,4.85,4.85,0,0,0-.28,1.76,4.2,4.2,0,0,0,.47,2,3.4,3.4,0,0,0,1.29,1.37,3.56,3.56,0,0,0,1.91.5,4,4,0,0,0,1.22-.17,3.16,3.16,0,0,0,.88-.45,4.9,4.9,0,0,0,.62-.54.89.89,0,0,1,.52-.18.68.68,0,0,1,.67.67.74.74,0,0,1-.32.59,5.09,5.09,0,0,1-1.51,1.08A4.47,4.47,0,0,1,302.06,48.35Z"/><path class="cls-4" d="M313.64,37.7a3.62,3.62,0,0,1,2.11.55,3,3,0,0,1,1.09,1.48,6.16,6.16,0,0,1,.33,2.07v5.55a.81.81,0,0,1-.23.57.77.77,0,0,1-1.12,0,.81.81,0,0,1-.23-.57V41.84a3.61,3.61,0,0,0-.23-1.35,2,2,0,0,0-.74-1,2.43,2.43,0,0,0-1.43-.37,3.11,3.11,0,0,0-1.52.37,3.05,3.05,0,0,0-1.11,1,2.36,2.36,0,0,0-.41,1.35v5.51a.81.81,0,0,1-.23.57.74.74,0,0,1-.56.24.73.73,0,0,1-.56-.24.77.77,0,0,1-.23-.57v-8.6a.75.75,0,0,1,.23-.57.75.75,0,0,1,.56-.22.75.75,0,0,1,.57.22.83.83,0,0,1,.22.57v1.4l-.4.43a2.76,2.76,0,0,1,.46-1,3.91,3.91,0,0,1,.88-.94,4.32,4.32,0,0,1,1.19-.66A3.69,3.69,0,0,1,313.64,37.7Z"/><path class="cls-4" d="M319.7,38h4.63a.69.69,0,0,1,.52.21.73.73,0,0,1,.21.52.7.7,0,0,1-.21.52.69.69,0,0,1-.52.21H319.7a.73.73,0,0,1-.73-.75.69.69,0,0,1,.21-.51A.77.77,0,0,1,319.7,38Zm2.07-2.69a.75.75,0,0,1,.55.23.8.8,0,0,1,.22.56v9.53a1.47,1.47,0,0,0,.13.71.78.78,0,0,0,.37.33,1.19,1.19,0,0,0,.44.09,1,1,0,0,0,.35-.07.74.74,0,0,1,.34-.07.5.5,0,0,1,.37.18.73.73,0,0,1,.17.49.71.71,0,0,1-.42.6,1.8,1.8,0,0,1-.93.25c-.18,0-.41,0-.68,0a2.09,2.09,0,0,1-.8-.26,1.67,1.67,0,0,1-.66-.72,3.19,3.19,0,0,1-.26-1.41V36.12a.77.77,0,0,1,.23-.56A.82.82,0,0,1,321.77,35.33Z"/><path class="cls-4" d="M331.77,48.35a5.48,5.48,0,0,1-2.76-.67,4.72,4.72,0,0,1-1.84-1.84,5.54,5.54,0,0,1-.65-2.71,5.93,5.93,0,0,1,.68-2.93A4.89,4.89,0,0,1,329,38.34a4.42,4.42,0,0,1,2.3-.64A4.7,4.7,0,0,1,334.54,39a4.78,4.78,0,0,1,1,1.54,5,5,0,0,1,.42,2,.77.77,0,0,1-.26.54.81.81,0,0,1-.55.21h-7.79l-.36-1.36h7.6l-.32.28v-.44a2.49,2.49,0,0,0-.52-1.39,3.26,3.26,0,0,0-1.13-.89,3.3,3.3,0,0,0-1.41-.32,3.44,3.44,0,0,0-1.17.21,2.7,2.7,0,0,0-1,.67,3.3,3.3,0,0,0-.74,1.19A4.85,4.85,0,0,0,328,43a4.2,4.2,0,0,0,.46,2,3.5,3.5,0,0,0,1.3,1.37,3.56,3.56,0,0,0,1.91.5,4,4,0,0,0,1.22-.17,3.3,3.3,0,0,0,.88-.45,4.9,4.9,0,0,0,.62-.54.88.88,0,0,1,.51-.18.66.66,0,0,1,.48.2.64.64,0,0,1,.19.47.73.73,0,0,1-.31.59,5.23,5.23,0,0,1-1.51,1.08A4.47,4.47,0,0,1,331.77,48.35Z"/><path class="cls-4" d="M343.35,37.7a3.62,3.62,0,0,1,2.11.55,3,3,0,0,1,1.09,1.48,6.16,6.16,0,0,1,.33,2.07v5.55a.81.81,0,0,1-.23.57.77.77,0,0,1-1.12,0,.81.81,0,0,1-.23-.57V41.84a3.82,3.82,0,0,0-.23-1.35,2,2,0,0,0-.75-1,2.4,2.4,0,0,0-1.43-.37,3.14,3.14,0,0,0-1.52.37,3,3,0,0,0-1.1,1,2.29,2.29,0,0,0-.41,1.35v5.51a.81.81,0,0,1-.23.57.74.74,0,0,1-.56.24.76.76,0,0,1-.57-.24.8.8,0,0,1-.22-.57v-8.6a.75.75,0,0,1,.79-.79.77.77,0,0,1,.57.22.83.83,0,0,1,.22.57v1.4l-.4.43a2.89,2.89,0,0,1,.45-1,4.17,4.17,0,0,1,.89-.94A4.32,4.32,0,0,1,342,38,3.65,3.65,0,0,1,343.35,37.7Z"/><path class="cls-4" d="M358.1,37.86a.71.71,0,0,1,.57.23.75.75,0,0,1,.22.56v8.7a.77.77,0,0,1-.23.57.73.73,0,0,1-.56.24.74.74,0,0,1-.56-.24.81.81,0,0,1-.23-.57V45.47l.38,0a1.9,1.9,0,0,1-.3,1,3.57,3.57,0,0,1-.81,1,4.47,4.47,0,0,1-1.2.73,3.89,3.89,0,0,1-1.5.28,4.33,4.33,0,0,1-2.42-.7,4.85,4.85,0,0,1-1.68-1.9,5.94,5.94,0,0,1-.61-2.74,5.78,5.78,0,0,1,.62-2.75,4.84,4.84,0,0,1,1.67-1.88,4.35,4.35,0,0,1,2.38-.68,4.3,4.3,0,0,1,1.58.28,3.92,3.92,0,0,1,1.27.75,3.57,3.57,0,0,1,.84,1,2.44,2.44,0,0,1,.3,1.15l-.52-.12V38.65a.75.75,0,0,1,.23-.56A.73.73,0,0,1,358.1,37.86Zm-4.06,9a3,3,0,0,0,1.74-.51A3.47,3.47,0,0,0,357,45a4.75,4.75,0,0,0,0-4,3.51,3.51,0,0,0-1.2-1.38,3.09,3.09,0,0,0-1.74-.5,3.18,3.18,0,0,0-1.73.49A3.5,3.5,0,0,0,351.12,41a4.82,4.82,0,0,0,0,4,3.52,3.52,0,0,0,1.19,1.39A3,3,0,0,0,354,46.89Z"/><path class="cls-4" d="M362.28,48.14a.84.84,0,0,1-.64-.24.92.92,0,0,1-.22-.65v-.4a1,1,0,0,1,.22-.67.88.88,0,0,1,.64-.23h.16a.86.86,0,0,1,.65.23,1,1,0,0,1,.22.67v.4a.92.92,0,0,1-.22.65.82.82,0,0,1-.65.24Z"/><rect class="cls-5" width="377.68" height="83.71"/></g></g></svg>