<svg xmlns="http://www.w3.org/2000/svg" viewBox="0 0 257.51 139.6"><defs><style>.cls-1{fill:#1f8ebe;}.cls-2{fill:#363026;}.cls-3{fill:#f8bb18;}.cls-4{fill:#c51611;}.cls-5{fill:#f78910;}</style></defs><title>Recurso 6</title><g id="Capa_2" data-name="Capa 2"><g id="Capa_1-2" data-name="Capa 1"><path class="cls-1" d="M243,139.6H14.48A14.5,14.5,0,0,1,0,125.12V14.48A14.5,14.5,0,0,1,14.48,0H243a14.5,14.5,0,0,1,14.48,14.48V125.12A14.5,14.5,0,0,1,243,139.6ZM14.48,3.13A11.36,11.36,0,0,0,3.13,14.48V125.12a11.36,11.36,0,0,0,11.35,11.35H243a11.37,11.37,0,0,0,11.36-11.35V14.48A11.37,11.37,0,0,0,243,3.13Z"/><path class="cls-2" d="M199,79a1.21,1.21,0,0,1-.89-.35,1.15,1.15,0,0,1-.35-.84V61.4l.35.41-3.36,2a1.1,1.1,0,0,1-.57.14,1.08,1.08,0,0,1-.84-.39,1.2,1.2,0,0,1-.35-.79,1.14,1.14,0,0,1,.61-1L198.3,59a1.56,1.56,0,0,1,.87-.17,1,1,0,0,1,.78.33,1.23,1.23,0,0,1,.29.83V77.85a1.15,1.15,0,0,1-.35.84A1.22,1.22,0,0,1,199,79Z"/><path class="cls-1" d="M131.84,67.37a1.67,1.67,0,0,1-1.24-.51,1.63,1.63,0,0,1-.51-1.2,1.44,1.44,0,0,1,.51-1.12,1.75,1.75,0,0,1,1.24-.46h15.27a1.79,1.79,0,0,1,1.25.46,1.51,1.51,0,0,1,.5,1.16,1.6,1.6,0,0,1-.5,1.16,1.71,1.71,0,0,1-1.25.51Zm0,8.15A1.72,1.72,0,0,1,130.6,75a1.55,1.55,0,0,1-.51-1.18,1.52,1.52,0,0,1,.51-1.17,1.79,1.79,0,0,1,1.24-.46h15.27a1.73,1.73,0,0,1,1.25.49,1.58,1.58,0,0,1,.5,1.18,1.54,1.54,0,0,1-.5,1.14,1.76,1.76,0,0,1-1.25.48Z"/><g id="Bloque1"><rect class="cls-3" x="56.95" y="64.88" width="10.94" height="10.94"/><polygon class="cls-4" points="56.95 75.83 54.73 74.72 54.73 63.77 56.95 64.88 56.95 75.83"/><polygon class="cls-5" points="67.89 64.88 56.95 64.88 54.73 63.77 65.68 63.77 67.89 64.88"/></g></g></g></svg>