<?xml version="1.0" encoding="utf-8"?>
<!-- Generator: Adobe Illustrator 23.0.1, SVG Export Plug-In . SVG Version: 6.00 Build 0)  -->
<svg version="1.1" xmlns="http://www.w3.org/2000/svg" xmlns:xlink="http://www.w3.org/1999/xlink" x="0px" y="0px"
	 viewBox="0 0 377.7 83.7" style="enable-background:new 0 0 377.7 83.7;" xml:space="preserve">
<style type="text/css">
	.st0{fill:#F8BB18;}
	.st1{fill:#C51611;}
	.st2{fill:#F78910;}
	.st3{fill:#363026;}
	.st4{fill:none;}
</style>
<g id="Capa_1">
	<title>Recurso 3</title>
	<g>
		<g id="Capa_1-2">
			<g id="Bloque1">
				<rect x="81.2" y="35.9" class="st0" width="11.9" height="12"/>
				<polygon class="st1" points="81.2,47.8 78.7,46.6 78.7,34.7 81.2,35.9 				"/>
				<polygon class="st2" points="93.1,35.9 81.2,35.9 78.7,34.7 90.7,34.7 				"/>
			</g>
			<path class="st3" d="M142,48.2c-0.2,0-0.4-0.1-0.6-0.2c-0.1-0.2-0.2-0.4-0.2-0.6v-8.6c0-0.2,0.1-0.4,0.2-0.6
				c0.2-0.1,0.4-0.2,0.6-0.2c0.2,0,0.4,0.1,0.6,0.2c0.1,0.2,0.2,0.4,0.2,0.6v2.6l-0.2-0.4c0.1-0.4,0.2-0.8,0.4-1.2
				c0.2-0.4,0.5-0.7,0.8-1c0.6-0.6,1.5-1,2.4-1c0.3,0,0.6,0.1,0.8,0.2c0.2,0.1,0.4,0.3,0.4,0.6c0,0.2-0.1,0.4-0.2,0.6
				c-0.1,0.1-0.3,0.2-0.5,0.2c-0.2,0-0.3,0-0.5-0.1c-0.2-0.1-0.4-0.1-0.6-0.1c-0.4,0-0.7,0.1-1,0.3c-0.3,0.2-0.6,0.5-0.9,0.8
				c-0.3,0.3-0.5,0.7-0.6,1.1c-0.2,0.4-0.3,0.9-0.3,1.3v4.8c0,0.2-0.1,0.4-0.2,0.6C142.4,48.1,142.2,48.2,142,48.2z"/>
			<path class="st3" d="M153.3,48.3c-1,0-1.9-0.2-2.8-0.7c-0.8-0.4-1.4-1.1-1.8-1.8c-0.4-0.8-0.7-1.8-0.6-2.7c0-1,0.2-2,0.7-2.9
				c0.4-0.8,1-1.4,1.8-1.9c0.7-0.4,1.5-0.6,2.3-0.6c0.6,0,1.2,0.1,1.8,0.3c1.2,0.5,2.1,1.4,2.6,2.5c0.3,0.6,0.4,1.3,0.4,2
				c0,0.2-0.1,0.4-0.3,0.5c-0.2,0.1-0.3,0.2-0.6,0.2h-7.8l-0.4-1.4h7.6l-0.3,0.3v-0.4c0-0.5-0.2-1-0.5-1.4c-0.3-0.4-0.7-0.7-1.1-0.9
				c-0.4-0.2-0.9-0.3-1.4-0.3c-0.4,0-0.8,0.1-1.2,0.2c-0.4,0.1-0.8,0.4-1.1,0.7c-0.3,0.3-0.6,0.7-0.7,1.2c-0.2,0.6-0.3,1.2-0.3,1.8
				c0,0.7,0.1,1.4,0.5,2c0.3,0.6,0.7,1,1.3,1.4c0.6,0.3,1.2,0.5,1.9,0.5c0.4,0,0.8,0,1.2-0.2c0.3-0.1,0.6-0.3,0.9-0.5
				c0.2-0.2,0.4-0.3,0.6-0.5c0.1-0.1,0.3-0.2,0.5-0.2c0.4,0,0.7,0.3,0.7,0.7c0,0.2-0.1,0.5-0.3,0.6c-0.4,0.4-0.9,0.8-1.5,1.1
				C154.7,48.2,154,48.4,153.3,48.3z"/>
			<path class="st3" d="M164.8,37.8c0.9,0,1.7,0.2,2.4,0.7c0.7,0.5,1.3,1.1,1.7,1.8c0.8,1.7,0.8,3.7,0,5.4c-0.4,0.8-1,1.4-1.7,1.9
				c-0.7,0.5-1.5,0.7-2.4,0.7c-0.5,0-0.9-0.1-1.4-0.2c-0.4-0.1-0.8-0.3-1.2-0.6c-0.3-0.2-0.6-0.5-0.9-0.8c-0.2-0.3-0.4-0.6-0.5-0.9
				l0.4-0.3v5.8c0,0.2-0.1,0.4-0.2,0.6c-0.1,0.2-0.4,0.2-0.6,0.2c-0.2,0-0.4-0.1-0.6-0.2c-0.2-0.2-0.2-0.4-0.2-0.6V38.7
				c0-0.2,0.1-0.4,0.2-0.6c0.1-0.2,0.3-0.2,0.6-0.2c0.2,0,0.4,0.1,0.6,0.2c0.1,0.2,0.2,0.4,0.2,0.6v1.8l-0.3-0.2
				c0.1-0.3,0.3-0.7,0.5-1c0.2-0.3,0.5-0.6,0.9-0.8c0.3-0.2,0.7-0.4,1.1-0.5C163.9,37.9,164.4,37.8,164.8,37.8z M164.7,39.3
				c-0.6,0-1.2,0.2-1.8,0.5c-0.5,0.3-0.9,0.8-1.2,1.3c-0.3,0.6-0.5,1.3-0.4,2c0,0.7,0.1,1.4,0.4,2c0.3,0.6,0.7,1,1.2,1.4
				c0.5,0.3,1.1,0.5,1.8,0.5c0.6,0,1.2-0.2,1.7-0.5c0.5-0.4,0.9-0.9,1.2-1.5c0.3-0.6,0.4-1.3,0.4-2c0-0.7-0.1-1.4-0.4-2
				c-0.3-0.5-0.7-1-1.2-1.3C165.9,39.4,165.3,39.2,164.7,39.3L164.7,39.3z"/>
			<path class="st3" d="M172.6,48.2c-0.2,0-0.4-0.1-0.6-0.2c-0.1-0.2-0.2-0.4-0.2-0.6v-8.6c0-0.2,0.1-0.4,0.2-0.6
				c0.3-0.3,0.8-0.3,1.1,0c0.1,0.2,0.2,0.4,0.2,0.6v2.6l-0.2-0.4c0.1-0.4,0.2-0.8,0.4-1.2c0.2-0.4,0.5-0.7,0.8-1
				c0.3-0.3,0.7-0.6,1.1-0.7c0.4-0.2,0.9-0.3,1.3-0.3c0.3,0,0.6,0.1,0.8,0.2c0.2,0.1,0.4,0.3,0.4,0.6c0,0.2-0.1,0.4-0.2,0.6
				c-0.1,0.1-0.3,0.2-0.5,0.2c-0.2,0-0.3,0-0.5-0.1c-0.2-0.1-0.4-0.1-0.6-0.1c-0.4,0-0.7,0.1-1,0.3c-0.3,0.2-0.6,0.5-0.9,0.8
				c-0.3,0.3-0.5,0.7-0.6,1.1c-0.2,0.4-0.2,0.9-0.2,1.3v4.8c0,0.2-0.1,0.4-0.2,0.6C173,48.1,172.8,48.2,172.6,48.2z"/>
			<path class="st3" d="M183.9,48.3c-1,0-1.9-0.2-2.8-0.7c-0.8-0.4-1.4-1.1-1.8-1.8c-0.4-0.8-0.7-1.8-0.6-2.7c0-1,0.2-2,0.7-2.9
				c0.4-0.8,1-1.4,1.8-1.9c0.7-0.4,1.5-0.6,2.3-0.6c1.2,0,2.4,0.5,3.3,1.3c0.4,0.4,0.8,1,1.1,1.5c0.3,0.6,0.4,1.3,0.4,2
				c0,0.2-0.1,0.4-0.3,0.5c-0.1,0.1-0.3,0.2-0.6,0.2h-7.8l-0.4-1.4h7.6l-0.3,0.3v-0.4c0-0.5-0.2-1-0.5-1.4c-0.6-0.8-1.5-1.2-2.5-1.2
				c-0.4,0-0.8,0.1-1.2,0.2c-0.4,0.1-0.7,0.4-1,0.7c-0.3,0.3-0.6,0.7-0.7,1.2c-0.2,0.6-0.3,1.2-0.3,1.8c0,0.7,0.1,1.4,0.5,2
				c0.3,0.6,0.7,1,1.3,1.4c0.6,0.3,1.2,0.5,1.9,0.5c0.4,0,0.8-0.1,1.2-0.2c0.3-0.1,0.6-0.3,0.9-0.5c0.2-0.2,0.4-0.3,0.6-0.5
				c0.1-0.1,0.3-0.2,0.5-0.2c0.4,0,0.7,0.3,0.7,0.7c0,0.2-0.1,0.5-0.3,0.6c-0.4,0.4-0.9,0.8-1.5,1.1
				C185.3,48.2,184.6,48.4,183.9,48.3z"/>
			<path class="st3" d="M189.8,46.5c-0.1-0.2-0.2-0.3-0.2-0.5c0-0.2,0.1-0.4,0.3-0.5c0.1-0.1,0.3-0.1,0.5-0.1c0.2,0,0.4,0.1,0.5,0.3
				c0.4,0.4,0.8,0.7,1.3,1c0.5,0.3,1.1,0.4,1.7,0.4c0.3,0,0.6-0.1,0.9-0.2c0.3-0.1,0.6-0.3,0.8-0.5c0.2-0.3,0.3-0.6,0.3-0.9
				c0-0.3-0.1-0.6-0.3-0.9c-0.3-0.2-0.5-0.4-0.9-0.5c-0.4-0.1-0.8-0.3-1.2-0.4c-0.4-0.1-0.9-0.3-1.3-0.4c-0.4-0.1-0.8-0.3-1.1-0.6
				c-0.3-0.2-0.6-0.5-0.8-0.9c-0.2-0.4-0.3-0.8-0.3-1.3c0-0.6,0.2-1.1,0.5-1.5c0.3-0.4,0.8-0.8,1.3-1c0.6-0.2,1.2-0.4,1.8-0.4
				c0.4,0,0.8,0,1.2,0.1c0.4,0.1,0.8,0.2,1.2,0.4c0.4,0.2,0.7,0.5,1,0.8c0.1,0.1,0.2,0.3,0.2,0.5c0,0.2-0.1,0.4-0.3,0.5
				c-0.1,0.1-0.3,0.1-0.5,0.1c-0.2,0-0.3-0.1-0.4-0.2c-0.3-0.3-0.6-0.6-1-0.8c-0.4-0.2-0.9-0.3-1.4-0.3c-0.3,0-0.6,0-0.9,0.1
				c-0.3,0.1-0.6,0.2-0.8,0.5c-0.2,0.2-0.3,0.6-0.3,0.9c0,0.3,0.1,0.6,0.4,0.9c0.3,0.2,0.6,0.4,0.9,0.5c0.4,0.1,0.8,0.3,1.3,0.4
				c0.4,0.1,0.8,0.2,1.2,0.4c0.4,0.1,0.7,0.3,1.1,0.5c0.3,0.2,0.6,0.5,0.8,0.9c0.2,0.4,0.3,0.9,0.3,1.3c0,0.6-0.1,1.1-0.5,1.6
				c-0.4,0.4-0.8,0.8-1.4,1c-0.6,0.2-1.2,0.3-1.8,0.3c-0.7,0-1.5-0.1-2.1-0.4C191,47.6,190.3,47.2,189.8,46.5z"/>
			<path class="st3" d="M204.4,48.3c-1,0-1.9-0.2-2.8-0.7c-0.8-0.4-1.4-1.1-1.8-1.8c-0.4-0.8-0.7-1.8-0.6-2.7c0-1,0.2-2,0.7-2.9
				c0.4-0.8,1-1.4,1.8-1.9c0.7-0.4,1.5-0.6,2.3-0.6c1.2,0,2.4,0.5,3.3,1.3c0.4,0.4,0.8,1,1,1.5c0.3,0.6,0.4,1.3,0.4,2
				c0,0.2-0.1,0.4-0.3,0.5c-0.2,0.1-0.3,0.2-0.6,0.2H200l-0.4-1.4h7.6l-0.3,0.3v-0.4c0-0.5-0.2-1-0.5-1.4c-0.6-0.8-1.6-1.2-2.5-1.2
				c-0.4,0-0.8,0.1-1.2,0.2c-0.4,0.1-0.8,0.4-1.1,0.7c-0.3,0.3-0.6,0.7-0.7,1.2c-0.2,0.6-0.3,1.2-0.3,1.8c0,0.7,0.1,1.4,0.5,2
				c0.3,0.6,0.7,1,1.3,1.4c0.6,0.3,1.2,0.5,1.9,0.5c0.4,0,0.8-0.1,1.2-0.2c0.3-0.1,0.6-0.3,0.9-0.5c0.2-0.2,0.4-0.3,0.6-0.5
				c0.1-0.1,0.3-0.2,0.5-0.2c0.2,0,0.3,0.1,0.5,0.2c0.1,0.1,0.2,0.3,0.2,0.5c0,0.2-0.1,0.5-0.3,0.6c-0.4,0.4-0.9,0.8-1.5,1.1
				C205.8,48.2,205.1,48.3,204.4,48.3z"/>
			<path class="st3" d="M216,37.7c0.7,0,1.5,0.2,2.1,0.5c0.5,0.4,0.9,0.9,1.1,1.5c0.2,0.7,0.3,1.4,0.3,2.1v5.5
				c0,0.2-0.1,0.4-0.2,0.6c-0.1,0.2-0.3,0.2-0.6,0.2c-0.2,0-0.4-0.1-0.6-0.2c-0.1-0.2-0.2-0.4-0.2-0.6v-5.5c0-0.5-0.1-0.9-0.2-1.3
				c-0.1-0.4-0.4-0.8-0.8-1c-0.4-0.3-0.9-0.4-1.4-0.4c-0.5,0-1.1,0.1-1.5,0.4c-0.4,0.2-0.8,0.6-1.1,1c-0.3,0.4-0.4,0.9-0.4,1.3v5.5
				c0,0.2-0.1,0.4-0.2,0.6c-0.1,0.2-0.4,0.2-0.6,0.2c-0.2,0-0.4-0.1-0.6-0.2c-0.1-0.2-0.2-0.4-0.2-0.6v-8.6c0-0.2,0.1-0.4,0.2-0.6
				c0.1-0.1,0.4-0.2,0.6-0.2c0.2,0,0.4,0.1,0.6,0.2c0.1,0.2,0.2,0.4,0.2,0.6v1.4l-0.4,0.4c0.1-0.4,0.2-0.7,0.4-1
				c0.2-0.4,0.5-0.7,0.9-0.9c0.4-0.3,0.8-0.5,1.2-0.7C215.1,37.8,215.5,37.7,216,37.7z"/>
			<path class="st3" d="M222,38h4.6c0.2,0,0.4,0.1,0.5,0.2c0.1,0.1,0.2,0.3,0.2,0.5c0,0.4-0.3,0.7-0.7,0.7c0,0,0,0,0,0H222
				c-0.2,0-0.4-0.1-0.5-0.2c-0.1-0.1-0.2-0.3-0.2-0.5c0-0.2,0.1-0.4,0.2-0.5C221.6,38.1,221.8,38,222,38z M224.1,35.3
				c0.2,0,0.4,0.1,0.6,0.2c0.1,0.1,0.2,0.4,0.2,0.6v9.5c0,0.2,0,0.5,0.1,0.7c0.1,0.1,0.2,0.3,0.4,0.3c0.1,0.1,0.3,0.1,0.4,0.1
				c0.1,0,0.2,0,0.3-0.1c0.1-0.1,0.2-0.1,0.4-0.1c0.1,0,0.3,0.1,0.4,0.2c0.1,0.1,0.2,0.3,0.2,0.5c0,0.3-0.2,0.5-0.4,0.6
				c-0.3,0.2-0.6,0.3-0.9,0.3c-0.2,0-0.4,0-0.7,0c-0.3,0-0.6-0.1-0.8-0.3c-0.3-0.2-0.5-0.4-0.7-0.7c-0.2-0.4-0.3-0.9-0.3-1.4v-9.6
				c0-0.2,0.1-0.4,0.2-0.6C223.7,35.4,223.9,35.3,224.1,35.3L224.1,35.3z"/>
			<path class="st3" d="M237.9,37.9c0.4,0,0.8,0.3,0.8,0.7c0,0,0,0,0,0v8.7c0,0.2-0.1,0.4-0.2,0.6c-0.3,0.3-0.8,0.3-1.1,0
				c0,0,0,0,0,0c-0.1-0.2-0.2-0.4-0.2-0.6v-1.9h0.4c0,0.4-0.1,0.7-0.3,1c-0.2,0.4-0.5,0.7-0.8,1c-0.4,0.3-0.8,0.6-1.2,0.7
				c-0.5,0.2-1,0.3-1.5,0.3c-0.9,0-1.7-0.2-2.4-0.7c-0.7-0.5-1.3-1.1-1.7-1.9c-0.4-0.9-0.6-1.8-0.6-2.7c0-1,0.2-1.9,0.6-2.8
				c0.4-0.8,1-1.4,1.7-1.9c0.7-0.5,1.5-0.7,2.4-0.7c0.5,0,1.1,0.1,1.6,0.3c0.5,0.2,0.9,0.4,1.3,0.8c0.3,0.3,0.6,0.6,0.8,1
				c0.2,0.4,0.3,0.7,0.3,1.2l-0.5-0.1v-2.2c0-0.2,0.1-0.4,0.2-0.6C237.5,37.9,237.7,37.9,237.9,37.9z M233.8,46.9
				c0.6,0,1.2-0.2,1.7-0.5c0.5-0.3,0.9-0.8,1.2-1.4c0.6-1.3,0.6-2.7,0-4c-0.3-0.6-0.7-1-1.2-1.4c-0.5-0.3-1.1-0.5-1.7-0.5
				c-0.6,0-1.2,0.2-1.7,0.5c-0.5,0.4-0.9,0.9-1.2,1.4c-0.3,0.6-0.5,1.3-0.4,2c0,0.7,0.1,1.4,0.4,2c0.3,0.6,0.7,1,1.2,1.4
				C232.6,46.7,233.2,46.9,233.8,46.9L233.8,46.9z"/>
			<path class="st3" d="M254.6,38c0.2,0,0.4,0.1,0.6,0.2c0.1,0.2,0.2,0.4,0.2,0.6v5.4c0.1,1.1-0.3,2.3-1.1,3.1
				c-1.8,1.5-4.4,1.5-6.2,0c-0.8-0.8-1.2-2-1.1-3.1v-5.4c0-0.2,0.1-0.4,0.2-0.6c0.1-0.1,0.4-0.2,0.6-0.2c0.2,0,0.4,0.1,0.6,0.2
				c0.1,0.2,0.2,0.4,0.2,0.6v5.4c0,0.7,0.2,1.5,0.7,2c1.1,0.9,2.8,0.9,3.9,0c0.5-0.6,0.7-1.3,0.7-2v-5.4c0-0.2,0.1-0.4,0.2-0.6
				C254.2,38,254.4,38,254.6,38z"/>
			<path class="st3" d="M263.4,37.7c0.7,0,1.5,0.2,2.1,0.5c0.5,0.4,0.9,0.9,1.1,1.5c0.2,0.7,0.4,1.4,0.4,2.1v5.5
				c0,0.2-0.1,0.4-0.2,0.6c-0.1,0.2-0.3,0.2-0.6,0.2c-0.2,0-0.4-0.1-0.6-0.2c-0.2-0.1-0.2-0.4-0.2-0.6v-5.5c0-0.5-0.1-0.9-0.2-1.3
				c-0.1-0.4-0.4-0.8-0.8-1c-0.4-0.3-0.9-0.4-1.4-0.4c-0.5,0-1.1,0.1-1.5,0.4c-0.4,0.2-0.8,0.6-1.1,1c-0.3,0.4-0.4,0.9-0.4,1.3v5.5
				c0,0.2-0.1,0.4-0.2,0.6c-0.3,0.3-0.8,0.3-1.1,0c0,0,0,0,0,0c-0.1-0.2-0.2-0.4-0.2-0.6v-8.6c0-0.2,0.1-0.4,0.2-0.6
				c0.3-0.3,0.8-0.3,1.1,0c0.1,0.2,0.2,0.4,0.2,0.6v1.4l-0.4,0.4c0.1-0.4,0.2-0.7,0.5-1c0.2-0.4,0.5-0.7,0.9-0.9
				c0.4-0.3,0.8-0.5,1.2-0.7C262.5,37.8,263,37.7,263.4,37.7z"/>
			<path class="st3" d="M278.2,37.9c0.4,0,0.8,0.3,0.8,0.7c0,0,0,0,0,0v8.7c0,0.2-0.1,0.4-0.2,0.6c-0.1,0.2-0.3,0.2-0.6,0.2
				c-0.2,0-0.4-0.1-0.6-0.2c-0.1-0.2-0.2-0.4-0.2-0.6v-1.9h0.4c0,0.4-0.1,0.7-0.3,1c-0.2,0.4-0.5,0.7-0.8,1
				c-0.4,0.3-0.8,0.6-1.2,0.7c-0.5,0.2-1,0.3-1.5,0.3c-0.9,0-1.7-0.2-2.4-0.7c-0.7-0.5-1.3-1.1-1.7-1.9c-0.4-0.9-0.6-1.8-0.6-2.7
				c0-1,0.2-1.9,0.6-2.8c0.4-0.8,1-1.4,1.7-1.9c0.7-0.5,1.5-0.7,2.4-0.7c0.5,0,1.1,0.1,1.6,0.3c0.5,0.2,0.9,0.4,1.3,0.8
				c0.3,0.3,0.6,0.6,0.8,1c0.2,0.4,0.3,0.7,0.3,1.2l-0.5-0.1v-2.2c0-0.2,0.1-0.4,0.2-0.6C277.8,37.9,278,37.9,278.2,37.9z
				 M274.1,46.9c0.6,0,1.2-0.2,1.7-0.5c0.5-0.3,0.9-0.8,1.2-1.4c0.6-1.3,0.6-2.7,0-4c-0.3-0.6-0.7-1-1.2-1.4
				c-0.5-0.3-1.1-0.5-1.7-0.5c-0.6,0-1.2,0.2-1.7,0.5c-0.5,0.4-0.9,0.9-1.2,1.4c-0.3,0.6-0.5,1.3-0.4,2c0,0.7,0.1,1.4,0.4,2
				c0.3,0.6,0.7,1,1.2,1.4C272.9,46.7,273.5,46.9,274.1,46.9L274.1,46.9z"/>
			<path class="st3" d="M294.9,38c0.2,0,0.4,0.1,0.6,0.2c0.1,0.2,0.2,0.4,0.2,0.6v5.4c0.1,1.1-0.3,2.3-1.1,3.1
				c-1.8,1.5-4.4,1.5-6.2,0c-0.8-0.8-1.2-1.9-1.1-3.1v-5.4c0-0.2,0.1-0.4,0.2-0.6c0.1-0.1,0.4-0.2,0.6-0.2c0.2,0,0.4,0.1,0.6,0.2
				c0.1,0.2,0.2,0.4,0.2,0.6v5.4c0,0.7,0.2,1.5,0.7,2c1.1,0.9,2.8,0.9,3.9,0c0.5-0.6,0.7-1.3,0.7-2v-5.4c0-0.2,0.1-0.4,0.2-0.6
				C294.5,38,294.7,38,294.9,38z"/>
			<path class="st3" d="M303.7,37.7c0.7,0,1.5,0.2,2.1,0.5c0.5,0.4,0.9,0.9,1.1,1.5c0.2,0.7,0.3,1.4,0.3,2.1v5.5
				c0,0.2-0.1,0.4-0.2,0.6c-0.3,0.3-0.8,0.3-1.1,0c0,0,0,0,0,0c-0.1-0.2-0.2-0.4-0.2-0.6v-5.5c0-0.5-0.1-0.9-0.2-1.3
				c-0.1-0.4-0.4-0.8-0.8-1c-0.4-0.3-0.9-0.4-1.4-0.4c-0.5,0-1.1,0.1-1.5,0.4c-0.4,0.2-0.8,0.6-1.1,1c-0.3,0.4-0.4,0.9-0.4,1.3v5.5
				c0,0.2-0.1,0.4-0.2,0.6c-0.3,0.3-0.8,0.3-1.1,0c0,0,0,0,0,0c-0.1-0.2-0.2-0.4-0.2-0.6v-8.6c0-0.2,0.1-0.4,0.2-0.6
				c0.3-0.3,0.8-0.3,1.1,0c0.1,0.2,0.2,0.4,0.2,0.6v1.4l-0.4,0.4c0.1-0.4,0.2-0.7,0.5-1c0.2-0.4,0.5-0.7,0.9-0.9
				c0.4-0.3,0.8-0.5,1.2-0.7C302.8,37.8,303.3,37.7,303.7,37.7z"/>
			<path class="st3" d="M310.9,36.5c-0.3,0-0.5-0.1-0.7-0.2c-0.2-0.2-0.3-0.4-0.2-0.6v-0.3c0-0.2,0.1-0.5,0.3-0.6
				c0.2-0.1,0.5-0.2,0.7-0.2c0.3,0,0.5,0.1,0.7,0.2c0.2,0.2,0.2,0.4,0.2,0.6v0.3c0,0.2-0.1,0.5-0.2,0.6
				C311.4,36.4,311.2,36.5,310.9,36.5z M311.7,47.3c0,0.2-0.1,0.4-0.2,0.6c-0.1,0.2-0.3,0.2-0.6,0.2c-0.2,0-0.4-0.1-0.6-0.2
				c-0.1-0.2-0.2-0.4-0.2-0.6v-8.8c0-0.2,0.1-0.4,0.2-0.6c0.1-0.2,0.3-0.2,0.6-0.2c0.4,0,0.8,0.4,0.8,0.8c0,0,0,0,0,0V47.3z"/>
			<path class="st3" d="M322.8,33.6c0.2,0,0.4,0.1,0.6,0.2c0.1,0.1,0.2,0.4,0.2,0.6v13c0,0.2-0.1,0.4-0.2,0.6
				c-0.1,0.2-0.3,0.2-0.6,0.2c-0.2,0-0.4-0.1-0.6-0.2c-0.1-0.2-0.2-0.4-0.2-0.6v-1.9l0.4-0.1c0,0.4-0.1,0.7-0.3,1
				c-0.2,0.4-0.5,0.7-0.8,1c-0.4,0.3-0.8,0.6-1.2,0.8c-0.5,0.2-1,0.3-1.5,0.3c-0.9,0-1.7-0.2-2.4-0.7c-0.7-0.5-1.3-1.1-1.7-1.9
				c-0.8-1.7-0.8-3.8,0-5.5c0.4-0.8,1-1.4,1.7-1.9c0.7-0.5,1.5-0.7,2.4-0.7c0.5,0,1.1,0.1,1.5,0.3c0.5,0.2,0.9,0.4,1.3,0.8
				c0.3,0.3,0.6,0.6,0.9,1c0.2,0.4,0.3,0.7,0.3,1.2l-0.6-0.1v-6.5c0-0.2,0.1-0.4,0.2-0.6C322.4,33.6,322.6,33.5,322.8,33.6z
				 M318.8,46.9c0.6,0,1.2-0.2,1.8-0.5c0.5-0.3,0.9-0.8,1.2-1.4c0.3-0.6,0.4-1.3,0.4-2c0-0.7-0.1-1.4-0.4-2c-0.3-0.6-0.7-1-1.2-1.4
				c-1.1-0.7-2.4-0.7-3.5,0c-0.5,0.3-0.9,0.8-1.2,1.4c-0.6,1.3-0.6,2.7,0,4c0.3,0.6,0.7,1,1.1,1.4C317.5,46.7,318.1,46.9,318.8,46.9
				z"/>
			<path class="st3" d="M334.8,37.9c0.4,0,0.8,0.3,0.8,0.7c0,0,0,0.1,0,0.1v8.7c0,0.2-0.1,0.4-0.2,0.6c-0.3,0.3-0.8,0.3-1.1,0
				c0,0,0,0,0,0c-0.1-0.2-0.2-0.4-0.2-0.6v-1.9h0.4c0,0.4-0.1,0.7-0.3,1c-0.2,0.4-0.5,0.7-0.8,1c-0.4,0.3-0.8,0.5-1.2,0.7
				c-0.5,0.2-1,0.3-1.5,0.3c-0.9,0-1.7-0.2-2.4-0.7c-0.7-0.5-1.3-1.1-1.7-1.9c-0.8-1.7-0.8-3.8,0-5.5c0.4-0.8,1-1.4,1.7-1.9
				c1.2-0.8,2.7-0.9,4-0.4c0.5,0.2,0.9,0.4,1.3,0.8c0.3,0.3,0.6,0.6,0.8,1c0.2,0.4,0.3,0.7,0.3,1.2l-0.5-0.1v-2.2
				c0-0.2,0.1-0.4,0.2-0.6C334.5,37.9,334.6,37.9,334.8,37.9z M330.8,46.9c0.6,0,1.2-0.2,1.8-0.5c0.5-0.3,0.9-0.8,1.2-1.4
				c0.6-1.3,0.6-2.7,0-4c-0.3-0.6-0.7-1-1.2-1.4c-1.1-0.7-2.4-0.7-3.5,0c-0.5,0.3-0.9,0.8-1.2,1.4c-0.3,0.6-0.4,1.3-0.4,2
				c0,0.7,0.1,1.4,0.4,2c0.3,0.6,0.7,1,1.2,1.4C329.6,46.7,330.2,46.9,330.8,46.9L330.8,46.9z"/>
			<path class="st3" d="M346.9,33.6c0.2,0,0.4,0.1,0.6,0.2c0.1,0.2,0.2,0.4,0.2,0.6v13c0,0.2-0.1,0.4-0.2,0.6
				c-0.1,0.2-0.3,0.2-0.6,0.2c-0.2,0-0.4-0.1-0.6-0.2c-0.2-0.1-0.2-0.4-0.2-0.6v-1.9l0.4-0.1c0,0.4-0.1,0.7-0.3,1
				c-0.2,0.4-0.5,0.7-0.8,1c-0.4,0.3-0.8,0.6-1.2,0.8c-0.5,0.2-1,0.3-1.5,0.3c-0.9,0-1.7-0.2-2.4-0.7c-0.7-0.5-1.3-1.1-1.7-1.9
				c-0.8-1.7-0.8-3.8,0-5.5c0.4-0.8,1-1.4,1.7-1.9c0.7-0.5,1.5-0.7,2.4-0.7c0.5,0,1.1,0.1,1.5,0.3c0.5,0.2,0.9,0.4,1.3,0.8
				c0.3,0.3,0.6,0.6,0.9,1c0.2,0.4,0.3,0.7,0.3,1.2l-0.5-0.1v-6.4C346.1,33.9,346.4,33.6,346.9,33.6L346.9,33.6L346.9,33.6z
				 M342.8,46.9c0.6,0,1.2-0.2,1.8-0.5c0.5-0.3,0.9-0.8,1.2-1.4c0.3-0.6,0.5-1.3,0.4-2c0-0.7-0.1-1.4-0.4-2c-0.3-0.6-0.7-1-1.2-1.4
				c-0.5-0.3-1.1-0.5-1.8-0.5c-0.6,0-1.2,0.2-1.7,0.5c-0.5,0.3-0.9,0.8-1.2,1.4c-0.6,1.3-0.6,2.7,0,4c0.3,0.6,0.7,1,1.2,1.4
				C341.6,46.7,342.2,46.9,342.8,46.9L342.8,46.9z"/>
			<path class="st3" d="M351,48.1c-0.2,0-0.5-0.1-0.6-0.2c-0.2-0.2-0.2-0.4-0.2-0.7v-0.4c0-0.2,0.1-0.5,0.2-0.7
				c0.2-0.1,0.4-0.2,0.6-0.2h0.2c0.2,0,0.5,0.1,0.6,0.2c0.2,0.2,0.2,0.4,0.2,0.7v0.4c0,0.2-0.1,0.5-0.2,0.7
				c-0.2,0.2-0.4,0.3-0.6,0.2L351,48.1z"/>
			<rect class="st4" width="377.7" height="83.7"/>
		</g>
	</g>
	<path d="M15.9,34.3"/>
</g>
<g id="Capa_2">
	<g>
		<g>
			<path class="st3" d="M15.8,34.4h7c0.2,0,0.4,0.1,0.6,0.2c0.2,0.2,0.2,0.3,0.2,0.6c0,0.2-0.1,0.4-0.2,0.5
				c-0.2,0.1-0.3,0.2-0.6,0.2h-6.3l0.2-0.3v5l-0.2-0.2H22c0.2,0,0.4,0.1,0.6,0.2c0.2,0.1,0.2,0.3,0.2,0.6c0,0.2-0.1,0.4-0.2,0.5
				c-0.2,0.1-0.3,0.2-0.6,0.2h-5.4l0.1-0.2v5.1l-0.1-0.1h6.3c0.2,0,0.4,0.1,0.6,0.2c0.2,0.2,0.2,0.3,0.2,0.5c0,0.2-0.1,0.4-0.2,0.6
				c-0.2,0.1-0.3,0.2-0.6,0.2h-7c-0.2,0-0.4-0.1-0.6-0.2S15,47.6,15,47.4V35.2c0-0.2,0.1-0.4,0.2-0.6S15.6,34.4,15.8,34.4z"/>
			<path class="st3" d="M27.7,47.4c0,0.2-0.1,0.4-0.2,0.6s-0.3,0.2-0.6,0.2c-0.2,0-0.4-0.1-0.6-0.2c-0.2-0.2-0.2-0.3-0.2-0.6v-13
				c0-0.2,0.1-0.4,0.2-0.6c0.2-0.2,0.3-0.2,0.6-0.2c0.2,0,0.4,0.1,0.6,0.2c0.1,0.2,0.2,0.3,0.2,0.6V47.4z"/>
		</g>
	</g>
</g>
</svg>
