<svg xmlns="http://www.w3.org/2000/svg" viewBox="0 0 257.51 139.6"><defs><style>.cls-1{fill:#363026;}.cls-2{fill:#1f8ebe;}.cls-3{fill:#f8bb18;}.cls-4{fill:#c51611;}.cls-5{fill:#f78910;}</style></defs><title>Recurso 5</title><g id="Capa_2" data-name="Capa 2"><g id="Capa_1-2" data-name="Capa 1"><path class="cls-1" d="M215.15,79a1.22,1.22,0,0,1-.9-.35,1.15,1.15,0,0,1-.35-.84V61.4l.35.41-3.35,2a1.16,1.16,0,0,1-.58.14,1.08,1.08,0,0,1-.84-.39,1.2,1.2,0,0,1-.35-.79,1.16,1.16,0,0,1,.61-1L214.45,59a1.56,1.56,0,0,1,.87-.17,1,1,0,0,1,.78.33,1.23,1.23,0,0,1,.29.83V77.85a1.15,1.15,0,0,1-.35.84A1.21,1.21,0,0,1,215.15,79Z"/><path class="cls-1" d="M227.64,79.33a6,6,0,0,1-4-1.36,8.38,8.38,0,0,1-2.43-3.73,17.76,17.76,0,0,1,0-10.67,8.39,8.39,0,0,1,2.43-3.7,6.58,6.58,0,0,1,8,0,8.27,8.27,0,0,1,2.41,3.7,18,18,0,0,1,0,10.67A8.26,8.26,0,0,1,231.64,78,6,6,0,0,1,227.64,79.33Zm0-2.35a3.61,3.61,0,0,0,2.58-1,6.1,6.1,0,0,0,1.61-2.79,17.12,17.12,0,0,0,0-8.61,6.06,6.06,0,0,0-1.61-2.78,3.93,3.93,0,0,0-5.17,0,6.07,6.07,0,0,0-1.62,2.78,16.83,16.83,0,0,0,0,8.61A6.11,6.11,0,0,0,225.05,76,3.62,3.62,0,0,0,227.64,77Z"/><path class="cls-2" d="M161.2,67.37a1.71,1.71,0,0,1-1.25-.51,1.66,1.66,0,0,1-.5-1.2,1.47,1.47,0,0,1,.5-1.12,1.79,1.79,0,0,1,1.25-.46h15.27a1.75,1.75,0,0,1,1.24.46,1.48,1.48,0,0,1,.51,1.16,1.57,1.57,0,0,1-.51,1.16,1.67,1.67,0,0,1-1.24.51Zm0,8.15A1.76,1.76,0,0,1,160,75a1.58,1.58,0,0,1-.5-1.18,1.54,1.54,0,0,1,.5-1.17,1.84,1.84,0,0,1,1.25-.46h15.27a1.69,1.69,0,0,1,1.24.49,1.55,1.55,0,0,1,.51,1.18,1.51,1.51,0,0,1-.51,1.14,1.72,1.72,0,0,1-1.24.48Z"/><path class="cls-2" d="M243,139.6H14.48A14.5,14.5,0,0,1,0,125.12V14.48A14.5,14.5,0,0,1,14.48,0H243a14.5,14.5,0,0,1,14.48,14.48V125.12A14.5,14.5,0,0,1,243,139.6ZM14.48,3.13A11.36,11.36,0,0,0,3.13,14.48V125.12a11.36,11.36,0,0,0,11.35,11.35H243a11.36,11.36,0,0,0,11.35-11.35V14.48A11.36,11.36,0,0,0,243,3.13Z"/><g id="Bloque1"><rect class="cls-3" x="122.61" y="65.76" width="10.96" height="10.96" transform="translate(199.32 -56.85) rotate(90)"/><polygon class="cls-4" points="133.56 65.76 132.45 63.54 121.5 63.54 122.61 65.76 133.56 65.76"/><polygon class="cls-5" points="122.61 76.71 122.61 65.76 121.5 63.54 121.5 74.49 122.61 76.71"/></g><g id="Bloque1-2" data-name="Bloque1"><rect class="cls-3" x="111" y="65.76" width="10.96" height="10.96" transform="translate(187.71 -45.25) rotate(90)"/><polygon class="cls-4" points="121.96 65.76 120.85 63.54 109.89 63.54 111 65.76 121.96 65.76"/><polygon class="cls-5" points="111 76.71 111 65.76 109.89 63.54 109.89 74.49 111 76.71"/></g><g id="Bloque1-3" data-name="Bloque1"><rect class="cls-3" x="99.4" y="65.76" width="10.96" height="10.96" transform="translate(176.11 -33.64) rotate(90)"/><polygon class="cls-4" points="110.36 65.76 109.25 63.54 98.29 63.54 99.4 65.76 110.36 65.76"/><polygon class="cls-5" points="99.4 76.71 99.4 65.76 98.29 63.54 98.29 74.49 99.4 76.71"/></g><g id="Bloque1-4" data-name="Bloque1"><rect class="cls-3" x="87.8" y="65.76" width="10.96" height="10.96" transform="translate(164.51 -22.04) rotate(90)"/><polygon class="cls-4" points="98.75 65.76 97.64 63.54 86.69 63.54 87.8 65.76 98.75 65.76"/><polygon class="cls-5" points="87.8 76.71 87.8 65.76 86.69 63.54 86.69 74.49 87.8 76.71"/></g><g id="Bloque1-5" data-name="Bloque1"><rect class="cls-3" x="76.19" y="65.76" width="10.96" height="10.96" transform="translate(152.91 -10.44) rotate(90)"/><polygon class="cls-4" points="87.15 65.76 86.04 63.54 75.08 63.54 76.19 65.76 87.15 65.76"/><polygon class="cls-5" points="76.19 76.71 76.19 65.76 75.08 63.54 75.08 74.49 76.19 76.71"/></g><g id="Bloque1-6" data-name="Bloque1"><rect class="cls-3" x="64.59" y="65.76" width="10.96" height="10.96" transform="translate(141.3 1.17) rotate(90)"/><polygon class="cls-4" points="75.55 65.76 74.44 63.54 63.48 63.54 64.59 65.76 75.55 65.76"/><polygon class="cls-5" points="64.59 76.71 64.59 65.76 63.48 63.54 63.48 74.49 64.59 76.71"/></g><g id="Bloque1-7" data-name="Bloque1"><rect class="cls-3" x="52.99" y="65.76" width="10.96" height="10.96" transform="translate(129.7 12.77) rotate(90)"/><polygon class="cls-4" points="63.94 65.76 62.83 63.54 51.88 63.54 52.99 65.76 63.94 65.76"/><polygon class="cls-5" points="52.99 76.71 52.99 65.76 51.88 63.54 51.88 74.49 52.99 76.71"/></g><g id="Bloque1-8" data-name="Bloque1"><rect class="cls-3" x="41.39" y="65.76" width="10.96" height="10.96" transform="translate(118.1 24.37) rotate(90)"/><polygon class="cls-4" points="52.34 65.76 51.23 63.54 40.28 63.54 41.38 65.76 52.34 65.76"/><polygon class="cls-5" points="41.38 76.71 41.38 65.76 40.28 63.54 40.28 74.49 41.38 76.71"/></g><g id="Bloque1-9" data-name="Bloque1"><rect class="cls-3" x="29.78" y="65.76" width="10.96" height="10.96" transform="translate(106.49 35.97) rotate(90)"/><polygon class="cls-4" points="40.74 65.76 39.63 63.54 28.67 63.54 29.78 65.76 40.74 65.76"/><polygon class="cls-5" points="29.78 76.71 29.78 65.76 28.67 63.54 28.67 74.49 29.78 76.71"/></g><g id="Bloque1-10" data-name="Bloque1"><rect class="cls-3" x="18.18" y="65.76" width="10.96" height="10.96" transform="translate(94.89 47.58) rotate(90)"/><polygon class="cls-4" points="29.14 65.76 28.02 63.54 17.07 63.54 18.18 65.76 29.14 65.76"/><polygon class="cls-5" points="18.18 76.71 18.18 65.76 17.07 63.54 17.07 74.49 18.18 76.71"/></g></g></g></svg>