<svg xmlns="http://www.w3.org/2000/svg" viewBox="0 0 533.4 130.12"><defs><style>.cls-1{fill:#f8bb18;}.cls-2{fill:#c51611;}.cls-3{fill:#f78910;}.cls-4{fill:#1f8ebe;}.cls-5{fill:#363026;}.cls-6{fill:none;}</style></defs><title>centenacubo</title><g id="Capa_2" data-name="Capa 2"><g id="Capa_1-2" data-name="Capa 1"><g id="Bloque1"><rect class="cls-1" x="404.79" y="112.38" width="10.96" height="10.96" transform="translate(820.55 235.72) rotate(-180)"/><polygon class="cls-2" points="415.76 123.34 417.98 122.23 417.98 111.27 415.76 112.38 415.76 123.34"/><polygon class="cls-3" points="404.79 112.38 415.76 112.38 417.98 111.27 407.01 111.27 404.79 112.38"/></g><g id="Bloque1-2" data-name="Bloque1"><rect class="cls-1" x="404.79" y="100.77" width="10.96" height="10.96" transform="translate(820.55 212.5) rotate(-180)"/><polygon class="cls-2" points="415.76 111.73 417.98 110.62 417.98 99.66 415.76 100.77 415.76 111.73"/><polygon class="cls-3" points="404.79 100.77 415.76 100.77 417.98 99.66 407.01 99.66 404.79 100.77"/></g><g id="Bloque1-3" data-name="Bloque1"><rect class="cls-1" x="404.79" y="89.16" width="10.96" height="10.96" transform="translate(820.55 189.28) rotate(-180)"/><polygon class="cls-2" points="415.76 100.12 417.98 99.01 417.98 88.05 415.76 89.16 415.76 100.12"/><polygon class="cls-3" points="404.79 89.16 415.76 89.16 417.98 88.05 407.01 88.05 404.79 89.16"/></g><g id="Bloque1-4" data-name="Bloque1"><rect class="cls-1" x="404.79" y="77.55" width="10.96" height="10.96" transform="translate(820.55 166.06) rotate(-180)"/><polygon class="cls-2" points="415.76 88.51 417.98 87.4 417.98 76.44 415.76 77.55 415.76 88.51"/><polygon class="cls-3" points="404.79 77.55 415.76 77.55 417.98 76.44 407.01 76.44 404.79 77.55"/></g><g id="Bloque1-5" data-name="Bloque1"><rect class="cls-1" x="404.79" y="65.94" width="10.96" height="10.96" transform="translate(820.55 142.84) rotate(-180)"/><polygon class="cls-2" points="415.76 76.9 417.98 75.79 417.98 64.83 415.76 65.94 415.76 76.9"/><polygon class="cls-3" points="404.79 65.94 415.76 65.94 417.98 64.83 407.01 64.83 404.79 65.94"/></g><g id="Bloque1-6" data-name="Bloque1"><rect class="cls-1" x="404.79" y="54.33" width="10.96" height="10.96" transform="translate(820.55 119.62) rotate(-180)"/><polygon class="cls-2" points="415.76 65.29 417.98 64.18 417.98 53.22 415.76 54.33 415.76 65.29"/><polygon class="cls-3" points="404.79 54.33 415.76 54.33 417.98 53.22 407.01 53.22 404.79 54.33"/></g><g id="Bloque1-7" data-name="Bloque1"><rect class="cls-1" x="404.79" y="42.72" width="10.96" height="10.96" transform="translate(820.55 96.4) rotate(-180)"/><polygon class="cls-2" points="415.76 53.68 417.98 52.57 417.98 41.61 415.76 42.72 415.76 53.68"/><polygon class="cls-3" points="404.79 42.72 415.76 42.72 417.98 41.61 407.01 41.61 404.79 42.72"/></g><g id="Bloque1-8" data-name="Bloque1"><rect class="cls-1" x="404.79" y="31.11" width="10.96" height="10.96" transform="translate(820.55 73.18) rotate(-180)"/><polygon class="cls-2" points="415.76 42.07 417.98 40.96 417.98 30 415.76 31.11 415.76 42.07"/><polygon class="cls-3" points="404.79 31.11 415.76 31.11 417.98 30 407.01 30 404.79 31.11"/></g><g id="Bloque1-9" data-name="Bloque1"><rect class="cls-1" x="404.79" y="19.5" width="10.96" height="10.96" transform="translate(820.55 49.96) rotate(-180)"/><polygon class="cls-2" points="415.76 30.46 417.98 29.35 417.98 18.39 415.76 19.5 415.76 30.46"/><polygon class="cls-3" points="404.79 19.5 415.76 19.5 417.98 18.39 407.01 18.39 404.79 19.5"/></g><g id="Bloque1-10" data-name="Bloque1"><rect class="cls-1" x="404.79" y="7.89" width="10.96" height="10.96" transform="translate(820.55 26.74) rotate(-180)"/><polygon class="cls-2" points="415.76 18.85 417.98 17.74 417.98 6.78 415.76 7.89 415.76 18.85"/><polygon class="cls-3" points="404.79 7.89 415.76 7.89 417.98 6.78 407.01 6.78 404.79 7.89"/></g><g id="Bloque1-11" data-name="Bloque1"><rect class="cls-1" x="416.96" y="112.38" width="10.96" height="10.96" transform="translate(844.88 235.72) rotate(-180)"/><polygon class="cls-2" points="427.92 123.34 430.14 122.23 430.14 111.27 427.92 112.38 427.92 123.34"/><polygon class="cls-3" points="416.96 112.38 427.92 112.38 430.14 111.27 419.18 111.27 416.96 112.38"/></g><g id="Bloque1-12" data-name="Bloque1"><rect class="cls-1" x="416.96" y="100.77" width="10.96" height="10.96" transform="translate(844.88 212.5) rotate(-180)"/><polygon class="cls-2" points="427.92 111.73 430.14 110.62 430.14 99.66 427.92 100.77 427.92 111.73"/><polygon class="cls-3" points="416.96 100.77 427.92 100.77 430.14 99.66 419.18 99.66 416.96 100.77"/></g><g id="Bloque1-13" data-name="Bloque1"><rect class="cls-1" x="416.96" y="89.16" width="10.96" height="10.96" transform="translate(844.88 189.28) rotate(-180)"/><polygon class="cls-2" points="427.92 100.12 430.14 99.01 430.14 88.05 427.92 89.16 427.92 100.12"/><polygon class="cls-3" points="416.96 89.16 427.92 89.16 430.14 88.05 419.18 88.05 416.96 89.16"/></g><g id="Bloque1-14" data-name="Bloque1"><rect class="cls-1" x="416.96" y="77.55" width="10.96" height="10.96" transform="translate(844.88 166.06) rotate(-180)"/><polygon class="cls-2" points="427.92 88.51 430.14 87.4 430.14 76.44 427.92 77.55 427.92 88.51"/><polygon class="cls-3" points="416.96 77.55 427.92 77.55 430.14 76.44 419.18 76.44 416.96 77.55"/></g><g id="Bloque1-15" data-name="Bloque1"><rect class="cls-1" x="416.96" y="65.94" width="10.96" height="10.96" transform="translate(844.88 142.84) rotate(-180)"/><polygon class="cls-2" points="427.92 76.9 430.14 75.79 430.14 64.83 427.92 65.94 427.92 76.9"/><polygon class="cls-3" points="416.96 65.94 427.92 65.94 430.14 64.83 419.18 64.83 416.96 65.94"/></g><g id="Bloque1-16" data-name="Bloque1"><rect class="cls-1" x="416.96" y="54.33" width="10.96" height="10.96" transform="translate(844.88 119.62) rotate(-180)"/><polygon class="cls-2" points="427.92 65.29 430.14 64.18 430.14 53.22 427.92 54.33 427.92 65.29"/><polygon class="cls-3" points="416.96 54.33 427.92 54.33 430.14 53.22 419.18 53.22 416.96 54.33"/></g><g id="Bloque1-17" data-name="Bloque1"><rect class="cls-1" x="416.96" y="42.72" width="10.96" height="10.96" transform="translate(844.88 96.4) rotate(-180)"/><polygon class="cls-2" points="427.92 53.68 430.14 52.57 430.14 41.61 427.92 42.72 427.92 53.68"/><polygon class="cls-3" points="416.96 42.72 427.92 42.72 430.14 41.61 419.18 41.61 416.96 42.72"/></g><g id="Bloque1-18" data-name="Bloque1"><rect class="cls-1" x="416.96" y="31.11" width="10.96" height="10.96" transform="translate(844.88 73.18) rotate(-180)"/><polygon class="cls-2" points="427.92 42.07 430.14 40.96 430.14 30 427.92 31.11 427.92 42.07"/><polygon class="cls-3" points="416.96 31.11 427.92 31.11 430.14 30 419.18 30 416.96 31.11"/></g><g id="Bloque1-19" data-name="Bloque1"><rect class="cls-1" x="416.96" y="19.5" width="10.96" height="10.96" transform="translate(844.88 49.96) rotate(-180)"/><polygon class="cls-2" points="427.92 30.46 430.14 29.35 430.14 18.39 427.92 19.5 427.92 30.46"/><polygon class="cls-3" points="416.96 19.5 427.92 19.5 430.14 18.39 419.18 18.39 416.96 19.5"/></g><g id="Bloque1-20" data-name="Bloque1"><rect class="cls-1" x="416.96" y="7.89" width="10.96" height="10.96" transform="translate(844.88 26.74) rotate(-180)"/><polygon class="cls-2" points="427.92 18.85 430.14 17.74 430.14 6.78 427.92 7.89 427.92 18.85"/><polygon class="cls-3" points="416.96 7.89 427.92 7.89 430.14 6.78 419.18 6.78 416.96 7.89"/></g><g id="Bloque1-21" data-name="Bloque1"><rect class="cls-1" x="429.13" y="112.38" width="10.96" height="10.96" transform="translate(869.22 235.72) rotate(-180)"/><polygon class="cls-2" points="440.09 123.34 442.31 122.23 442.31 111.27 440.09 112.38 440.09 123.34"/><polygon class="cls-3" points="429.13 112.38 440.09 112.38 442.31 111.27 431.35 111.27 429.13 112.38"/></g><g id="Bloque1-22" data-name="Bloque1"><rect class="cls-1" x="429.13" y="100.77" width="10.96" height="10.96" transform="translate(869.22 212.5) rotate(-180)"/><polygon class="cls-2" points="440.09 111.73 442.31 110.62 442.31 99.66 440.09 100.77 440.09 111.73"/><polygon class="cls-3" points="429.13 100.77 440.09 100.77 442.31 99.66 431.35 99.66 429.13 100.77"/></g><g id="Bloque1-23" data-name="Bloque1"><rect class="cls-1" x="429.13" y="89.16" width="10.96" height="10.96" transform="translate(869.22 189.28) rotate(-180)"/><polygon class="cls-2" points="440.09 100.12 442.31 99.01 442.31 88.05 440.09 89.16 440.09 100.12"/><polygon class="cls-3" points="429.13 89.16 440.09 89.16 442.31 88.05 431.35 88.05 429.13 89.16"/></g><g id="Bloque1-24" data-name="Bloque1"><rect class="cls-1" x="429.13" y="77.55" width="10.96" height="10.96" transform="translate(869.22 166.06) rotate(-180)"/><polygon class="cls-2" points="440.09 88.51 442.31 87.4 442.31 76.44 440.09 77.55 440.09 88.51"/><polygon class="cls-3" points="429.13 77.55 440.09 77.55 442.31 76.44 431.35 76.44 429.13 77.55"/></g><g id="Bloque1-25" data-name="Bloque1"><rect class="cls-1" x="429.13" y="65.94" width="10.96" height="10.96" transform="translate(869.22 142.84) rotate(-180)"/><polygon class="cls-2" points="440.09 76.9 442.31 75.79 442.31 64.83 440.09 65.94 440.09 76.9"/><polygon class="cls-3" points="429.13 65.94 440.09 65.94 442.31 64.83 431.35 64.83 429.13 65.94"/></g><g id="Bloque1-26" data-name="Bloque1"><rect class="cls-1" x="429.13" y="54.33" width="10.96" height="10.96" transform="translate(869.22 119.62) rotate(-180)"/><polygon class="cls-2" points="440.09 65.29 442.31 64.18 442.31 53.22 440.09 54.33 440.09 65.29"/><polygon class="cls-3" points="429.13 54.33 440.09 54.33 442.31 53.22 431.35 53.22 429.13 54.33"/></g><g id="Bloque1-27" data-name="Bloque1"><rect class="cls-1" x="429.13" y="42.72" width="10.96" height="10.96" transform="translate(869.22 96.4) rotate(-180)"/><polygon class="cls-2" points="440.09 53.68 442.31 52.57 442.31 41.61 440.09 42.72 440.09 53.68"/><polygon class="cls-3" points="429.13 42.72 440.09 42.72 442.31 41.61 431.35 41.61 429.13 42.72"/></g><g id="Bloque1-28" data-name="Bloque1"><rect class="cls-1" x="429.13" y="31.11" width="10.96" height="10.96" transform="translate(869.22 73.18) rotate(-180)"/><polygon class="cls-2" points="440.09 42.07 442.31 40.96 442.31 30 440.09 31.11 440.09 42.07"/><polygon class="cls-3" points="429.13 31.11 440.09 31.11 442.31 30 431.35 30 429.13 31.11"/></g><g id="Bloque1-29" data-name="Bloque1"><rect class="cls-1" x="429.13" y="19.5" width="10.96" height="10.96" transform="translate(869.22 49.96) rotate(-180)"/><polygon class="cls-2" points="440.09 30.46 442.31 29.35 442.31 18.39 440.09 19.5 440.09 30.46"/><polygon class="cls-3" points="429.13 19.5 440.09 19.5 442.31 18.39 431.35 18.39 429.13 19.5"/></g><g id="Bloque1-30" data-name="Bloque1"><rect class="cls-1" x="429.13" y="7.89" width="10.96" height="10.96" transform="translate(869.22 26.74) rotate(-180)"/><polygon class="cls-2" points="440.09 18.85 442.31 17.74 442.31 6.78 440.09 7.89 440.09 18.85"/><polygon class="cls-3" points="429.13 7.89 440.09 7.89 442.31 6.78 431.35 6.78 429.13 7.89"/></g><g id="Bloque1-31" data-name="Bloque1"><rect class="cls-1" x="441.3" y="112.38" width="10.96" height="10.96" transform="translate(893.55 235.72) rotate(-180)"/><polygon class="cls-2" points="452.26 123.34 454.48 122.23 454.48 111.27 452.26 112.38 452.26 123.34"/><polygon class="cls-3" points="441.3 112.38 452.26 112.38 454.48 111.27 443.52 111.27 441.3 112.38"/></g><g id="Bloque1-32" data-name="Bloque1"><rect class="cls-1" x="441.3" y="100.77" width="10.96" height="10.96" transform="translate(893.55 212.5) rotate(-180)"/><polygon class="cls-2" points="452.26 111.73 454.48 110.62 454.48 99.66 452.26 100.77 452.26 111.73"/><polygon class="cls-3" points="441.3 100.77 452.26 100.77 454.48 99.66 443.52 99.66 441.3 100.77"/></g><g id="Bloque1-33" data-name="Bloque1"><rect class="cls-1" x="441.3" y="89.16" width="10.96" height="10.96" transform="translate(893.55 189.28) rotate(-180)"/><polygon class="cls-2" points="452.26 100.12 454.48 99.01 454.48 88.05 452.26 89.16 452.26 100.12"/><polygon class="cls-3" points="441.3 89.16 452.26 89.16 454.48 88.05 443.52 88.05 441.3 89.16"/></g><g id="Bloque1-34" data-name="Bloque1"><rect class="cls-1" x="441.3" y="77.55" width="10.96" height="10.96" transform="translate(893.55 166.06) rotate(-180)"/><polygon class="cls-2" points="452.26 88.51 454.48 87.4 454.48 76.44 452.26 77.55 452.26 88.51"/><polygon class="cls-3" points="441.3 77.55 452.26 77.55 454.48 76.44 443.52 76.44 441.3 77.55"/></g><g id="Bloque1-35" data-name="Bloque1"><rect class="cls-1" x="441.3" y="65.94" width="10.96" height="10.96" transform="translate(893.55 142.84) rotate(-180)"/><polygon class="cls-2" points="452.26 76.9 454.48 75.79 454.48 64.83 452.26 65.94 452.26 76.9"/><polygon class="cls-3" points="441.3 65.94 452.26 65.94 454.48 64.83 443.52 64.83 441.3 65.94"/></g><g id="Bloque1-36" data-name="Bloque1"><rect class="cls-1" x="441.3" y="54.33" width="10.96" height="10.96" transform="translate(893.55 119.62) rotate(-180)"/><polygon class="cls-2" points="452.26 65.29 454.48 64.18 454.48 53.22 452.26 54.33 452.26 65.29"/><polygon class="cls-3" points="441.3 54.33 452.26 54.33 454.48 53.22 443.52 53.22 441.3 54.33"/></g><g id="Bloque1-37" data-name="Bloque1"><rect class="cls-1" x="441.3" y="42.72" width="10.96" height="10.96" transform="translate(893.55 96.4) rotate(-180)"/><polygon class="cls-2" points="452.26 53.68 454.48 52.57 454.48 41.61 452.26 42.72 452.26 53.68"/><polygon class="cls-3" points="441.3 42.72 452.26 42.72 454.48 41.61 443.52 41.61 441.3 42.72"/></g><g id="Bloque1-38" data-name="Bloque1"><rect class="cls-1" x="441.3" y="31.11" width="10.96" height="10.96" transform="translate(893.55 73.18) rotate(-180)"/><polygon class="cls-2" points="452.26 42.07 454.48 40.96 454.48 30 452.26 31.11 452.26 42.07"/><polygon class="cls-3" points="441.3 31.11 452.26 31.11 454.48 30 443.52 30 441.3 31.11"/></g><g id="Bloque1-39" data-name="Bloque1"><rect class="cls-1" x="441.3" y="19.5" width="10.96" height="10.96" transform="translate(893.55 49.96) rotate(-180)"/><polygon class="cls-2" points="452.26 30.46 454.48 29.35 454.48 18.39 452.26 19.5 452.26 30.46"/><polygon class="cls-3" points="441.3 19.5 452.26 19.5 454.48 18.39 443.52 18.39 441.3 19.5"/></g><g id="Bloque1-40" data-name="Bloque1"><rect class="cls-1" x="441.3" y="7.89" width="10.96" height="10.96" transform="translate(893.55 26.74) rotate(-180)"/><polygon class="cls-2" points="452.26 18.85 454.48 17.74 454.48 6.78 452.26 7.89 452.26 18.85"/><polygon class="cls-3" points="441.3 7.89 452.26 7.89 454.48 6.78 443.52 6.78 441.3 7.89"/></g><g id="Bloque1-41" data-name="Bloque1"><rect class="cls-1" x="453.46" y="112.38" width="10.96" height="10.96" transform="translate(917.89 235.72) rotate(-180)"/><polygon class="cls-2" points="464.42 123.34 466.64 122.23 466.64 111.27 464.42 112.38 464.42 123.34"/><polygon class="cls-3" points="453.46 112.38 464.42 112.38 466.64 111.27 455.68 111.27 453.46 112.38"/></g><g id="Bloque1-42" data-name="Bloque1"><rect class="cls-1" x="453.46" y="100.77" width="10.96" height="10.96" transform="translate(917.89 212.5) rotate(-180)"/><polygon class="cls-2" points="464.42 111.73 466.64 110.62 466.64 99.66 464.42 100.77 464.42 111.73"/><polygon class="cls-3" points="453.46 100.77 464.42 100.77 466.64 99.66 455.68 99.66 453.46 100.77"/></g><g id="Bloque1-43" data-name="Bloque1"><rect class="cls-1" x="453.46" y="89.16" width="10.96" height="10.96" transform="translate(917.89 189.28) rotate(-180)"/><polygon class="cls-2" points="464.42 100.12 466.64 99.01 466.64 88.05 464.42 89.16 464.42 100.12"/><polygon class="cls-3" points="453.46 89.16 464.42 89.16 466.64 88.05 455.68 88.05 453.46 89.16"/></g><g id="Bloque1-44" data-name="Bloque1"><rect class="cls-1" x="453.46" y="77.55" width="10.96" height="10.96" transform="translate(917.89 166.06) rotate(-180)"/><polygon class="cls-2" points="464.42 88.51 466.64 87.4 466.64 76.44 464.42 77.55 464.42 88.51"/><polygon class="cls-3" points="453.46 77.55 464.42 77.55 466.64 76.44 455.68 76.44 453.46 77.55"/></g><g id="Bloque1-45" data-name="Bloque1"><rect class="cls-1" x="453.46" y="65.94" width="10.96" height="10.96" transform="translate(917.89 142.84) rotate(-180)"/><polygon class="cls-2" points="464.42 76.9 466.64 75.79 466.64 64.83 464.42 65.94 464.42 76.9"/><polygon class="cls-3" points="453.46 65.94 464.42 65.94 466.64 64.83 455.68 64.83 453.46 65.94"/></g><g id="Bloque1-46" data-name="Bloque1"><rect class="cls-1" x="453.46" y="54.33" width="10.96" height="10.96" transform="translate(917.89 119.62) rotate(-180)"/><polygon class="cls-2" points="464.42 65.29 466.64 64.18 466.64 53.22 464.42 54.33 464.42 65.29"/><polygon class="cls-3" points="453.46 54.33 464.42 54.33 466.64 53.22 455.68 53.22 453.46 54.33"/></g><g id="Bloque1-47" data-name="Bloque1"><rect class="cls-1" x="453.46" y="42.72" width="10.96" height="10.96" transform="translate(917.89 96.4) rotate(-180)"/><polygon class="cls-2" points="464.42 53.68 466.64 52.57 466.64 41.61 464.42 42.72 464.42 53.68"/><polygon class="cls-3" points="453.46 42.72 464.42 42.72 466.64 41.61 455.68 41.61 453.46 42.72"/></g><g id="Bloque1-48" data-name="Bloque1"><rect class="cls-1" x="453.46" y="31.11" width="10.96" height="10.96" transform="translate(917.89 73.18) rotate(-180)"/><polygon class="cls-2" points="464.42 42.07 466.64 40.96 466.64 30 464.42 31.11 464.42 42.07"/><polygon class="cls-3" points="453.46 31.11 464.42 31.11 466.64 30 455.68 30 453.46 31.11"/></g><g id="Bloque1-49" data-name="Bloque1"><rect class="cls-1" x="453.46" y="19.5" width="10.96" height="10.96" transform="translate(917.89 49.96) rotate(-180)"/><polygon class="cls-2" points="464.42 30.46 466.64 29.35 466.64 18.39 464.42 19.5 464.42 30.46"/><polygon class="cls-3" points="453.46 19.5 464.42 19.5 466.64 18.39 455.68 18.39 453.46 19.5"/></g><g id="Bloque1-50" data-name="Bloque1"><rect class="cls-1" x="453.46" y="7.89" width="10.96" height="10.96" transform="translate(917.89 26.74) rotate(-180)"/><polygon class="cls-2" points="464.42 18.85 466.64 17.74 466.64 6.78 464.42 7.89 464.42 18.85"/><polygon class="cls-3" points="453.46 7.89 464.42 7.89 466.64 6.78 455.68 6.78 453.46 7.89"/></g><g id="Bloque1-51" data-name="Bloque1"><rect class="cls-1" x="465.63" y="112.38" width="10.96" height="10.96" transform="translate(942.22 235.72) rotate(-180)"/><polygon class="cls-2" points="476.59 123.34 478.81 122.23 478.81 111.27 476.59 112.38 476.59 123.34"/><polygon class="cls-3" points="465.63 112.38 476.59 112.38 478.81 111.27 467.85 111.27 465.63 112.38"/></g><g id="Bloque1-52" data-name="Bloque1"><rect class="cls-1" x="465.63" y="100.77" width="10.96" height="10.96" transform="translate(942.22 212.5) rotate(-180)"/><polygon class="cls-2" points="476.59 111.73 478.81 110.62 478.81 99.66 476.59 100.77 476.59 111.73"/><polygon class="cls-3" points="465.63 100.77 476.59 100.77 478.81 99.66 467.85 99.66 465.63 100.77"/></g><g id="Bloque1-53" data-name="Bloque1"><rect class="cls-1" x="465.63" y="89.16" width="10.96" height="10.96" transform="translate(942.22 189.28) rotate(-180)"/><polygon class="cls-2" points="476.59 100.12 478.81 99.01 478.81 88.05 476.59 89.16 476.59 100.12"/><polygon class="cls-3" points="465.63 89.16 476.59 89.16 478.81 88.05 467.85 88.05 465.63 89.16"/></g><g id="Bloque1-54" data-name="Bloque1"><rect class="cls-1" x="465.63" y="77.55" width="10.96" height="10.96" transform="translate(942.22 166.06) rotate(-180)"/><polygon class="cls-2" points="476.59 88.51 478.81 87.4 478.81 76.44 476.59 77.55 476.59 88.51"/><polygon class="cls-3" points="465.63 77.55 476.59 77.55 478.81 76.44 467.85 76.44 465.63 77.55"/></g><g id="Bloque1-55" data-name="Bloque1"><rect class="cls-1" x="465.63" y="65.94" width="10.96" height="10.96" transform="translate(942.22 142.84) rotate(-180)"/><polygon class="cls-2" points="476.59 76.9 478.81 75.79 478.81 64.83 476.59 65.94 476.59 76.9"/><polygon class="cls-3" points="465.63 65.94 476.59 65.94 478.81 64.83 467.85 64.83 465.63 65.94"/></g><g id="Bloque1-56" data-name="Bloque1"><rect class="cls-1" x="465.63" y="54.33" width="10.96" height="10.96" transform="translate(942.22 119.62) rotate(-180)"/><polygon class="cls-2" points="476.59 65.29 478.81 64.18 478.81 53.22 476.59 54.33 476.59 65.29"/><polygon class="cls-3" points="465.63 54.33 476.59 54.33 478.81 53.22 467.85 53.22 465.63 54.33"/></g><g id="Bloque1-57" data-name="Bloque1"><rect class="cls-1" x="465.63" y="42.72" width="10.96" height="10.96" transform="translate(942.22 96.4) rotate(-180)"/><polygon class="cls-2" points="476.59 53.68 478.81 52.57 478.81 41.61 476.59 42.72 476.59 53.68"/><polygon class="cls-3" points="465.63 42.72 476.59 42.72 478.81 41.61 467.85 41.61 465.63 42.72"/></g><g id="Bloque1-58" data-name="Bloque1"><rect class="cls-1" x="465.63" y="31.11" width="10.96" height="10.96" transform="translate(942.22 73.18) rotate(-180)"/><polygon class="cls-2" points="476.59 42.07 478.81 40.96 478.81 30 476.59 31.11 476.59 42.07"/><polygon class="cls-3" points="465.63 31.11 476.59 31.11 478.81 30 467.85 30 465.63 31.11"/></g><g id="Bloque1-59" data-name="Bloque1"><rect class="cls-1" x="465.63" y="19.5" width="10.96" height="10.96" transform="translate(942.22 49.96) rotate(-180)"/><polygon class="cls-2" points="476.59 30.46 478.81 29.35 478.81 18.39 476.59 19.5 476.59 30.46"/><polygon class="cls-3" points="465.63 19.5 476.59 19.5 478.81 18.39 467.85 18.39 465.63 19.5"/></g><g id="Bloque1-60" data-name="Bloque1"><rect class="cls-1" x="465.63" y="7.89" width="10.96" height="10.96" transform="translate(942.22 26.74) rotate(-180)"/><polygon class="cls-2" points="476.59 18.85 478.81 17.74 478.81 6.78 476.59 7.89 476.59 18.85"/><polygon class="cls-3" points="465.63 7.89 476.59 7.89 478.81 6.78 467.85 6.78 465.63 7.89"/></g><g id="Bloque1-61" data-name="Bloque1"><rect class="cls-1" x="477.8" y="112.38" width="10.96" height="10.96" transform="translate(966.55 235.72) rotate(-180)"/><polygon class="cls-2" points="488.76 123.34 490.98 122.23 490.98 111.27 488.76 112.38 488.76 123.34"/><polygon class="cls-3" points="477.8 112.38 488.76 112.38 490.98 111.27 480.02 111.27 477.8 112.38"/></g><g id="Bloque1-62" data-name="Bloque1"><rect class="cls-1" x="477.8" y="100.77" width="10.96" height="10.96" transform="translate(966.55 212.5) rotate(-180)"/><polygon class="cls-2" points="488.76 111.73 490.98 110.62 490.98 99.66 488.76 100.77 488.76 111.73"/><polygon class="cls-3" points="477.8 100.77 488.76 100.77 490.98 99.66 480.02 99.66 477.8 100.77"/></g><g id="Bloque1-63" data-name="Bloque1"><rect class="cls-1" x="477.8" y="89.16" width="10.96" height="10.96" transform="translate(966.55 189.28) rotate(-180)"/><polygon class="cls-2" points="488.76 100.12 490.98 99.01 490.98 88.05 488.76 89.16 488.76 100.12"/><polygon class="cls-3" points="477.8 89.16 488.76 89.16 490.98 88.05 480.02 88.05 477.8 89.16"/></g><g id="Bloque1-64" data-name="Bloque1"><rect class="cls-1" x="477.8" y="77.55" width="10.96" height="10.96" transform="translate(966.55 166.06) rotate(-180)"/><polygon class="cls-2" points="488.76 88.51 490.98 87.4 490.98 76.44 488.76 77.55 488.76 88.51"/><polygon class="cls-3" points="477.8 77.55 488.76 77.55 490.98 76.44 480.02 76.44 477.8 77.55"/></g><g id="Bloque1-65" data-name="Bloque1"><rect class="cls-1" x="477.8" y="65.94" width="10.96" height="10.96" transform="translate(966.55 142.84) rotate(-180)"/><polygon class="cls-2" points="488.76 76.9 490.98 75.79 490.98 64.83 488.76 65.94 488.76 76.9"/><polygon class="cls-3" points="477.8 65.94 488.76 65.94 490.98 64.83 480.02 64.83 477.8 65.94"/></g><g id="Bloque1-66" data-name="Bloque1"><rect class="cls-1" x="477.8" y="54.33" width="10.96" height="10.96" transform="translate(966.55 119.62) rotate(-180)"/><polygon class="cls-2" points="488.76 65.29 490.98 64.18 490.98 53.22 488.76 54.33 488.76 65.29"/><polygon class="cls-3" points="477.8 54.33 488.76 54.33 490.98 53.22 480.02 53.22 477.8 54.33"/></g><g id="Bloque1-67" data-name="Bloque1"><rect class="cls-1" x="477.8" y="42.72" width="10.96" height="10.96" transform="translate(966.55 96.4) rotate(-180)"/><polygon class="cls-2" points="488.76 53.68 490.98 52.57 490.98 41.61 488.76 42.72 488.76 53.68"/><polygon class="cls-3" points="477.8 42.72 488.76 42.72 490.98 41.61 480.02 41.61 477.8 42.72"/></g><g id="Bloque1-68" data-name="Bloque1"><rect class="cls-1" x="477.8" y="31.11" width="10.96" height="10.96" transform="translate(966.55 73.18) rotate(-180)"/><polygon class="cls-2" points="488.76 42.07 490.98 40.96 490.98 30 488.76 31.11 488.76 42.07"/><polygon class="cls-3" points="477.8 31.11 488.76 31.11 490.98 30 480.02 30 477.8 31.11"/></g><g id="Bloque1-69" data-name="Bloque1"><rect class="cls-1" x="477.8" y="19.5" width="10.96" height="10.96" transform="translate(966.55 49.96) rotate(-180)"/><polygon class="cls-2" points="488.76 30.46 490.98 29.35 490.98 18.39 488.76 19.5 488.76 30.46"/><polygon class="cls-3" points="477.8 19.5 488.76 19.5 490.98 18.39 480.02 18.39 477.8 19.5"/></g><g id="Bloque1-70" data-name="Bloque1"><rect class="cls-1" x="477.8" y="7.89" width="10.96" height="10.96" transform="translate(966.55 26.74) rotate(-180)"/><polygon class="cls-2" points="488.76 18.85 490.98 17.74 490.98 6.78 488.76 7.89 488.76 18.85"/><polygon class="cls-3" points="477.8 7.89 488.76 7.89 490.98 6.78 480.02 6.78 477.8 7.89"/></g><g id="Bloque1-71" data-name="Bloque1"><rect class="cls-1" x="489.96" y="112.38" width="10.96" height="10.96" transform="translate(990.89 235.72) rotate(-180)"/><polygon class="cls-2" points="500.93 123.34 503.15 122.23 503.15 111.27 500.93 112.38 500.93 123.34"/><polygon class="cls-3" points="489.96 112.38 500.93 112.38 503.15 111.27 492.18 111.27 489.96 112.38"/></g><g id="Bloque1-72" data-name="Bloque1"><rect class="cls-1" x="489.96" y="100.77" width="10.96" height="10.96" transform="translate(990.89 212.5) rotate(-180)"/><polygon class="cls-2" points="500.93 111.73 503.15 110.62 503.15 99.66 500.93 100.77 500.93 111.73"/><polygon class="cls-3" points="489.96 100.77 500.93 100.77 503.15 99.66 492.18 99.66 489.96 100.77"/></g><g id="Bloque1-73" data-name="Bloque1"><rect class="cls-1" x="489.96" y="89.16" width="10.96" height="10.96" transform="translate(990.89 189.28) rotate(-180)"/><polygon class="cls-2" points="500.93 100.12 503.15 99.01 503.15 88.05 500.93 89.16 500.93 100.12"/><polygon class="cls-3" points="489.96 89.16 500.93 89.16 503.15 88.05 492.18 88.05 489.96 89.16"/></g><g id="Bloque1-74" data-name="Bloque1"><rect class="cls-1" x="489.96" y="77.55" width="10.96" height="10.96" transform="translate(990.89 166.06) rotate(-180)"/><polygon class="cls-2" points="500.93 88.51 503.15 87.4 503.15 76.44 500.93 77.55 500.93 88.51"/><polygon class="cls-3" points="489.96 77.55 500.93 77.55 503.15 76.44 492.18 76.44 489.96 77.55"/></g><g id="Bloque1-75" data-name="Bloque1"><rect class="cls-1" x="489.96" y="65.94" width="10.96" height="10.96" transform="translate(990.89 142.84) rotate(-180)"/><polygon class="cls-2" points="500.93 76.9 503.15 75.79 503.15 64.83 500.93 65.94 500.93 76.9"/><polygon class="cls-3" points="489.96 65.94 500.93 65.94 503.15 64.83 492.18 64.83 489.96 65.94"/></g><g id="Bloque1-76" data-name="Bloque1"><rect class="cls-1" x="489.96" y="54.33" width="10.96" height="10.96" transform="translate(990.89 119.62) rotate(-180)"/><polygon class="cls-2" points="500.93 65.29 503.15 64.18 503.15 53.22 500.93 54.33 500.93 65.29"/><polygon class="cls-3" points="489.96 54.33 500.93 54.33 503.15 53.22 492.18 53.22 489.96 54.33"/></g><g id="Bloque1-77" data-name="Bloque1"><rect class="cls-1" x="489.96" y="42.72" width="10.96" height="10.96" transform="translate(990.89 96.4) rotate(-180)"/><polygon class="cls-2" points="500.93 53.68 503.15 52.57 503.15 41.61 500.93 42.72 500.93 53.68"/><polygon class="cls-3" points="489.96 42.72 500.93 42.72 503.15 41.61 492.18 41.61 489.96 42.72"/></g><g id="Bloque1-78" data-name="Bloque1"><rect class="cls-1" x="489.96" y="31.11" width="10.96" height="10.96" transform="translate(990.89 73.18) rotate(-180)"/><polygon class="cls-2" points="500.93 42.07 503.15 40.96 503.15 30 500.93 31.11 500.93 42.07"/><polygon class="cls-3" points="489.96 31.11 500.93 31.11 503.15 30 492.18 30 489.96 31.11"/></g><g id="Bloque1-79" data-name="Bloque1"><rect class="cls-1" x="489.96" y="19.5" width="10.96" height="10.96" transform="translate(990.89 49.96) rotate(-180)"/><polygon class="cls-2" points="500.93 30.46 503.15 29.35 503.15 18.39 500.93 19.5 500.93 30.46"/><polygon class="cls-3" points="489.96 19.5 500.93 19.5 503.15 18.39 492.18 18.39 489.96 19.5"/></g><g id="Bloque1-80" data-name="Bloque1"><rect class="cls-1" x="489.96" y="7.89" width="10.96" height="10.96" transform="translate(990.89 26.74) rotate(-180)"/><polygon class="cls-2" points="500.93 18.85 503.15 17.74 503.15 6.78 500.93 7.89 500.93 18.85"/><polygon class="cls-3" points="489.96 7.89 500.93 7.89 503.15 6.78 492.18 6.78 489.96 7.89"/></g><g id="Bloque1-81" data-name="Bloque1"><rect class="cls-1" x="502.13" y="112.38" width="10.96" height="10.96" transform="translate(1015.22 235.72) rotate(-180)"/><polygon class="cls-2" points="513.09 123.34 515.31 122.23 515.31 111.27 513.09 112.38 513.09 123.34"/><polygon class="cls-3" points="502.13 112.38 513.09 112.38 515.31 111.27 504.35 111.27 502.13 112.38"/></g><g id="Bloque1-82" data-name="Bloque1"><rect class="cls-1" x="502.13" y="100.77" width="10.96" height="10.96" transform="translate(1015.22 212.5) rotate(-180)"/><polygon class="cls-2" points="513.09 111.73 515.31 110.62 515.31 99.66 513.09 100.77 513.09 111.73"/><polygon class="cls-3" points="502.13 100.77 513.09 100.77 515.31 99.66 504.35 99.66 502.13 100.77"/></g><g id="Bloque1-83" data-name="Bloque1"><rect class="cls-1" x="502.13" y="89.16" width="10.96" height="10.96" transform="translate(1015.22 189.28) rotate(-180)"/><polygon class="cls-2" points="513.09 100.12 515.31 99.01 515.31 88.05 513.09 89.16 513.09 100.12"/><polygon class="cls-3" points="502.13 89.16 513.09 89.16 515.31 88.05 504.35 88.05 502.13 89.16"/></g><g id="Bloque1-84" data-name="Bloque1"><rect class="cls-1" x="502.13" y="77.55" width="10.96" height="10.96" transform="translate(1015.22 166.06) rotate(-180)"/><polygon class="cls-2" points="513.09 88.51 515.31 87.4 515.31 76.44 513.09 77.55 513.09 88.51"/><polygon class="cls-3" points="502.13 77.55 513.09 77.55 515.31 76.44 504.35 76.44 502.13 77.55"/></g><g id="Bloque1-85" data-name="Bloque1"><rect class="cls-1" x="502.13" y="65.94" width="10.96" height="10.96" transform="translate(1015.22 142.84) rotate(-180)"/><polygon class="cls-2" points="513.09 76.9 515.31 75.79 515.31 64.83 513.09 65.94 513.09 76.9"/><polygon class="cls-3" points="502.13 65.94 513.09 65.94 515.31 64.83 504.35 64.83 502.13 65.94"/></g><g id="Bloque1-86" data-name="Bloque1"><rect class="cls-1" x="502.13" y="54.33" width="10.96" height="10.96" transform="translate(1015.22 119.62) rotate(-180)"/><polygon class="cls-2" points="513.09 65.29 515.31 64.18 515.31 53.22 513.09 54.33 513.09 65.29"/><polygon class="cls-3" points="502.13 54.33 513.09 54.33 515.31 53.22 504.35 53.22 502.13 54.33"/></g><g id="Bloque1-87" data-name="Bloque1"><rect class="cls-1" x="502.13" y="42.72" width="10.96" height="10.96" transform="translate(1015.22 96.4) rotate(-180)"/><polygon class="cls-2" points="513.09 53.68 515.31 52.57 515.31 41.61 513.09 42.72 513.09 53.68"/><polygon class="cls-3" points="502.13 42.72 513.09 42.72 515.31 41.61 504.35 41.61 502.13 42.72"/></g><g id="Bloque1-88" data-name="Bloque1"><rect class="cls-1" x="502.13" y="31.11" width="10.96" height="10.96" transform="translate(1015.22 73.18) rotate(-180)"/><polygon class="cls-2" points="513.09 42.07 515.31 40.96 515.31 30 513.09 31.11 513.09 42.07"/><polygon class="cls-3" points="502.13 31.11 513.09 31.11 515.31 30 504.35 30 502.13 31.11"/></g><g id="Bloque1-89" data-name="Bloque1"><rect class="cls-1" x="502.13" y="19.5" width="10.96" height="10.96" transform="translate(1015.22 49.96) rotate(-180)"/><polygon class="cls-2" points="513.09 30.46 515.31 29.35 515.31 18.39 513.09 19.5 513.09 30.46"/><polygon class="cls-3" points="502.13 19.5 513.09 19.5 515.31 18.39 504.35 18.39 502.13 19.5"/></g><g id="Bloque1-90" data-name="Bloque1"><rect class="cls-1" x="502.13" y="7.89" width="10.96" height="10.96" transform="translate(1015.22 26.74) rotate(-180)"/><polygon class="cls-2" points="513.09 18.85 515.31 17.74 515.31 6.78 513.09 7.89 513.09 18.85"/><polygon class="cls-3" points="502.13 7.89 513.09 7.89 515.31 6.78 504.35 6.78 502.13 7.89"/></g><g id="Bloque1-91" data-name="Bloque1"><rect class="cls-1" x="514.3" y="112.38" width="10.96" height="10.96" transform="translate(1039.56 235.72) rotate(-180)"/><polygon class="cls-2" points="525.26 123.34 527.48 122.23 527.48 111.27 525.26 112.38 525.26 123.34"/><polygon class="cls-3" points="514.3 112.38 525.26 112.38 527.48 111.27 516.52 111.27 514.3 112.38"/></g><g id="Bloque1-92" data-name="Bloque1"><rect class="cls-1" x="514.3" y="100.77" width="10.96" height="10.96" transform="translate(1039.56 212.5) rotate(-180)"/><polygon class="cls-2" points="525.26 111.73 527.48 110.62 527.48 99.66 525.26 100.77 525.26 111.73"/><polygon class="cls-3" points="514.3 100.77 525.26 100.77 527.48 99.66 516.52 99.66 514.3 100.77"/></g><g id="Bloque1-93" data-name="Bloque1"><rect class="cls-1" x="514.3" y="89.16" width="10.96" height="10.96" transform="translate(1039.56 189.28) rotate(-180)"/><polygon class="cls-2" points="525.26 100.12 527.48 99.01 527.48 88.05 525.26 89.16 525.26 100.12"/><polygon class="cls-3" points="514.3 89.16 525.26 89.16 527.48 88.05 516.52 88.05 514.3 89.16"/></g><g id="Bloque1-94" data-name="Bloque1"><rect class="cls-1" x="514.3" y="77.55" width="10.96" height="10.96" transform="translate(1039.56 166.06) rotate(-180)"/><polygon class="cls-2" points="525.26 88.51 527.48 87.4 527.48 76.44 525.26 77.55 525.26 88.51"/><polygon class="cls-3" points="514.3 77.55 525.26 77.55 527.48 76.44 516.52 76.44 514.3 77.55"/></g><g id="Bloque1-95" data-name="Bloque1"><rect class="cls-1" x="514.3" y="65.94" width="10.96" height="10.96" transform="translate(1039.56 142.84) rotate(-180)"/><polygon class="cls-2" points="525.26 76.9 527.48 75.79 527.48 64.83 525.26 65.94 525.26 76.9"/><polygon class="cls-3" points="514.3 65.94 525.26 65.94 527.48 64.83 516.52 64.83 514.3 65.94"/></g><g id="Bloque1-96" data-name="Bloque1"><rect class="cls-1" x="514.3" y="54.33" width="10.96" height="10.96" transform="translate(1039.56 119.62) rotate(-180)"/><polygon class="cls-2" points="525.26 65.29 527.48 64.18 527.48 53.22 525.26 54.33 525.26 65.29"/><polygon class="cls-3" points="514.3 54.33 525.26 54.33 527.48 53.22 516.52 53.22 514.3 54.33"/></g><g id="Bloque1-97" data-name="Bloque1"><rect class="cls-1" x="514.3" y="42.72" width="10.96" height="10.96" transform="translate(1039.56 96.4) rotate(-180)"/><polygon class="cls-2" points="525.26 53.68 527.48 52.57 527.48 41.61 525.26 42.72 525.26 53.68"/><polygon class="cls-3" points="514.3 42.72 525.26 42.72 527.48 41.61 516.52 41.61 514.3 42.72"/></g><g id="Bloque1-98" data-name="Bloque1"><rect class="cls-1" x="514.3" y="31.11" width="10.96" height="10.96" transform="translate(1039.56 73.18) rotate(-180)"/><polygon class="cls-2" points="525.26 42.07 527.48 40.96 527.48 30 525.26 31.11 525.26 42.07"/><polygon class="cls-3" points="514.3 31.11 525.26 31.11 527.48 30 516.52 30 514.3 31.11"/></g><g id="Bloque1-99" data-name="Bloque1"><rect class="cls-1" x="514.3" y="19.5" width="10.96" height="10.96" transform="translate(1039.56 49.96) rotate(-180)"/><polygon class="cls-2" points="525.26 30.46 527.48 29.35 527.48 18.39 525.26 19.5 525.26 30.46"/><polygon class="cls-3" points="514.3 19.5 525.26 19.5 527.48 18.39 516.52 18.39 514.3 19.5"/></g><g id="Bloque1-100" data-name="Bloque1"><rect class="cls-1" x="514.3" y="7.89" width="10.96" height="10.96" transform="translate(1039.56 26.74) rotate(-180)"/><polygon class="cls-2" points="525.26 18.85 527.48 17.74 527.48 6.78 525.26 7.89 525.26 18.85"/><polygon class="cls-3" points="514.3 7.89 525.26 7.89 527.48 6.78 516.52 6.78 514.3 7.89"/></g><path class="cls-4" d="M364.38,62.63a1.71,1.71,0,0,1-1.25-.51,1.6,1.6,0,0,1-.5-1.16,1.51,1.51,0,0,1,.5-1.16,1.79,1.79,0,0,1,1.25-.46h15.27a1.79,1.79,0,0,1,1.25.46,1.46,1.46,0,0,1,.5,1.11,1.66,1.66,0,0,1-.5,1.21,1.71,1.71,0,0,1-1.25.51Zm0,8.15a1.76,1.76,0,0,1-1.25-.48,1.54,1.54,0,0,1-.5-1.14,1.58,1.58,0,0,1,.5-1.18,1.73,1.73,0,0,1,1.25-.49h15.27a1.84,1.84,0,0,1,1.25.46,1.54,1.54,0,0,1,.5,1.17,1.59,1.59,0,0,1-.5,1.18,1.76,1.76,0,0,1-1.25.48Z"/><path class="cls-5" d="M12,72.88a1.2,1.2,0,0,1-.89-.35,1.11,1.11,0,0,1-.35-.83V55.41l.35.4-3.32,2a1.17,1.17,0,0,1-.58.15,1.08,1.08,0,0,1-.83-.39,1.18,1.18,0,0,1-.34-.79,1.13,1.13,0,0,1,.6-1L11.33,53a1.53,1.53,0,0,1,.86-.17,1,1,0,0,1,.77.33,1.21,1.21,0,0,1,.29.82V71.7a1.11,1.11,0,0,1-.35.83A1.19,1.19,0,0,1,12,72.88Z"/><path class="cls-5" d="M24.39,73.16a5.91,5.91,0,0,1-4-1.34A8.33,8.33,0,0,1,18,68.12a17.61,17.61,0,0,1,0-10.56,8.34,8.34,0,0,1,2.41-3.67,5.91,5.91,0,0,1,4-1.34,5.9,5.9,0,0,1,4,1.34,8.14,8.14,0,0,1,2.39,3.67,17.61,17.61,0,0,1,0,10.56,8.13,8.13,0,0,1-2.39,3.7A5.9,5.9,0,0,1,24.39,73.16Zm0-2.32a3.61,3.61,0,0,0,2.56-1,6.07,6.07,0,0,0,1.59-2.76,14.79,14.79,0,0,0,.54-4.25,15,15,0,0,0-.54-4.29A6,6,0,0,0,27,55.82a3.94,3.94,0,0,0-5.13,0,6.17,6.17,0,0,0-1.6,2.75,14.59,14.59,0,0,0-.56,4.29,14.4,14.4,0,0,0,.56,4.25,6.27,6.27,0,0,0,1.6,2.76A3.62,3.62,0,0,0,24.39,70.84Z"/><path class="cls-5" d="M41.6,73.16a5.91,5.91,0,0,1-4-1.34,8.23,8.23,0,0,1-2.4-3.7,17.41,17.41,0,0,1,0-10.56,8.24,8.24,0,0,1,2.4-3.67,5.91,5.91,0,0,1,4-1.34,5.9,5.9,0,0,1,4,1.34A8.14,8.14,0,0,1,48,57.56a17.61,17.61,0,0,1,0,10.56,8.13,8.13,0,0,1-2.39,3.7A5.9,5.9,0,0,1,41.6,73.16Zm0-2.32a3.61,3.61,0,0,0,2.56-1,6.07,6.07,0,0,0,1.59-2.76,14.79,14.79,0,0,0,.54-4.25,15,15,0,0,0-.54-4.29,6,6,0,0,0-1.59-2.75,3.94,3.94,0,0,0-5.13,0,6.17,6.17,0,0,0-1.6,2.75,14.59,14.59,0,0,0-.56,4.29,14.4,14.4,0,0,0,.56,4.25A6.27,6.27,0,0,0,39,69.87,3.62,3.62,0,0,0,41.6,70.84Z"/><path class="cls-5" d="M71.26,58.07a1.11,1.11,0,0,1,.84.33,1.18,1.18,0,0,1,.31.82V67a6,6,0,0,1-1.62,4.48,6.16,6.16,0,0,1-4.51,1.59,6.12,6.12,0,0,1-4.48-1.59A6,6,0,0,1,60.18,67V59.22a1.17,1.17,0,0,1,2-.82,1.13,1.13,0,0,1,.31.82V67a4,4,0,0,0,1,2.95,3.8,3.8,0,0,0,2.8,1,3.86,3.86,0,0,0,2.85-1,4,4,0,0,0,1-2.95V59.22a1.13,1.13,0,0,1,1.14-1.15Z"/><path class="cls-5" d="M84,57.7a5.17,5.17,0,0,1,3.06.8,4.3,4.3,0,0,1,1.59,2.15,8.93,8.93,0,0,1,.47,3v8a1.13,1.13,0,0,1-.33.83,1.12,1.12,0,0,1-1.63,0,1.13,1.13,0,0,1-.33-.83v-8a5.56,5.56,0,0,0-.33-2,3,3,0,0,0-1.08-1.4,3.62,3.62,0,0,0-2.08-.53,4.71,4.71,0,0,0-2.21.53,4.44,4.44,0,0,0-1.6,1.4,3.41,3.41,0,0,0-.6,2v8a1.13,1.13,0,0,1-.33.83,1.12,1.12,0,0,1-1.63,0,1.13,1.13,0,0,1-.33-.83V59.22a1.13,1.13,0,0,1,1.14-1.15,1.08,1.08,0,0,1,.83.33,1.14,1.14,0,0,1,.32.82v2l-.57.63a3.8,3.8,0,0,1,.66-1.5A5.87,5.87,0,0,1,80.31,59a6.73,6.73,0,0,1,1.72-1A5.51,5.51,0,0,1,84,57.7Z"/><path class="cls-5" d="M94.43,55.92a1.64,1.64,0,0,1-1.06-.28,1.09,1.09,0,0,1-.34-.89v-.4a1,1,0,0,1,.37-.89,1.71,1.71,0,0,1,1.06-.28,1.58,1.58,0,0,1,1,.28,1.1,1.1,0,0,1,.35.89v.4a1.07,1.07,0,0,1-.36.89A1.66,1.66,0,0,1,94.43,55.92ZM95.58,71.7a1.13,1.13,0,0,1-.33.83,1.15,1.15,0,0,1-1.65,0,1.16,1.16,0,0,1-.31-.83V59a1.12,1.12,0,0,1,.33-.82,1.17,1.17,0,0,1,1.63,0,1.12,1.12,0,0,1,.33.82Z"/><path class="cls-5" d="M111.76,51.69a1.1,1.1,0,0,1,.83.33,1.12,1.12,0,0,1,.31.81V71.7a1.13,1.13,0,0,1-.33.83,1.12,1.12,0,0,1-1.63,0,1.13,1.13,0,0,1-.33-.83V69l.55-.2a3,3,0,0,1-.42,1.45,5.3,5.3,0,0,1-1.17,1.42,6.56,6.56,0,0,1-1.77,1.08,5.36,5.36,0,0,1-2.17.43,6.25,6.25,0,0,1-3.49-1,7,7,0,0,1-2.45-2.75,8.55,8.55,0,0,1-.91-4,8.65,8.65,0,0,1,.91-4,7,7,0,0,1,2.43-2.73,6.51,6.51,0,0,1,5.7-.59,6.32,6.32,0,0,1,1.85,1.09,5.19,5.19,0,0,1,1.24,1.52,3.43,3.43,0,0,1,.45,1.66l-.75-.17V52.83a1.13,1.13,0,0,1,1.15-1.14Zm-5.9,19.36a4.47,4.47,0,0,0,2.55-.74,5,5,0,0,0,1.71-2,6.92,6.92,0,0,0,0-5.77,5,5,0,0,0-1.73-2,4.71,4.71,0,0,0-5,0,5.08,5.08,0,0,0-1.73,2,6.85,6.85,0,0,0,0,5.74,5.18,5.18,0,0,0,1.73,2A4.36,4.36,0,0,0,105.86,71.05Z"/><path class="cls-5" d="M129.2,57.93a1.1,1.1,0,0,1,.83.33,1.13,1.13,0,0,1,.31.82V71.7a1.13,1.13,0,0,1-.33.83,1.12,1.12,0,0,1-1.63,0,1.13,1.13,0,0,1-.33-.83V69l.54,0a2.83,2.83,0,0,1-.42,1.37A5.43,5.43,0,0,1,127,71.69a6.49,6.49,0,0,1-1.75,1.06,5.52,5.52,0,0,1-2.17.41,6.27,6.27,0,0,1-3.51-1,7,7,0,0,1-2.45-2.77,8.67,8.67,0,0,1-.89-4,8.42,8.42,0,0,1,.91-4,7,7,0,0,1,2.43-2.72,6.21,6.21,0,0,1,3.45-1,6.34,6.34,0,0,1,2.29.4,6.07,6.07,0,0,1,1.85,1.09,5.28,5.28,0,0,1,1.22,1.52,3.63,3.63,0,0,1,.43,1.66l-.75-.17V59.08a1.13,1.13,0,0,1,1.15-1.15Zm-5.9,13.12a4.38,4.38,0,0,0,2.53-.75,5.1,5.1,0,0,0,1.73-2,6.41,6.41,0,0,0,.63-2.88,6.35,6.35,0,0,0-.63-2.85,5,5,0,0,0-1.73-2,4.44,4.44,0,0,0-2.53-.73,4.5,4.5,0,0,0-2.51.72,4.89,4.89,0,0,0-1.73,2,6.92,6.92,0,0,0,0,5.77,5.18,5.18,0,0,0,1.73,2A4.36,4.36,0,0,0,123.3,71.05Z"/><path class="cls-5" d="M146.64,51.69a1.1,1.1,0,0,1,.83.33,1.12,1.12,0,0,1,.31.81V71.7a1.13,1.13,0,0,1-.33.83,1.12,1.12,0,0,1-1.63,0,1.13,1.13,0,0,1-.33-.83V69l.54-.2a3,3,0,0,1-.41,1.45,5.3,5.3,0,0,1-1.17,1.42,6.56,6.56,0,0,1-1.77,1.08,5.36,5.36,0,0,1-2.17.43,6.28,6.28,0,0,1-3.5-1,7,7,0,0,1-2.44-2.75,8.43,8.43,0,0,1-.91-4,8.53,8.53,0,0,1,.91-4A7,7,0,0,1,137,58.69a6.51,6.51,0,0,1,5.7-.59,6.32,6.32,0,0,1,1.85,1.09,5.35,5.35,0,0,1,1.24,1.52,3.43,3.43,0,0,1,.45,1.66l-.75-.17V52.83a1.13,1.13,0,0,1,1.15-1.14Zm-5.9,19.36a4.47,4.47,0,0,0,2.55-.74,5,5,0,0,0,1.71-2,6.92,6.92,0,0,0,0-5.77,5,5,0,0,0-1.73-2,4.71,4.71,0,0,0-5,0,5.08,5.08,0,0,0-1.73,2,6.85,6.85,0,0,0,0,5.74,5.18,5.18,0,0,0,1.73,2A4.36,4.36,0,0,0,140.74,71.05Z"/><path class="cls-5" d="M158.72,73.16a8,8,0,0,1-4-1,6.85,6.85,0,0,1-2.66-2.68,8,8,0,0,1-1-3.93,8.6,8.6,0,0,1,1-4.26,7.07,7.07,0,0,1,2.56-2.69A6.49,6.49,0,0,1,158,57.7a6.75,6.75,0,0,1,2.57.49,6.55,6.55,0,0,1,2.17,1.41,7.26,7.26,0,0,1,1.54,2.24,7.55,7.55,0,0,1,.6,2.91,1.16,1.16,0,0,1-1.18,1.08H152.39l-.51-2h11l-.46.4v-.63a3.52,3.52,0,0,0-.76-2,4.43,4.43,0,0,0-1.64-1.3,4.68,4.68,0,0,0-2-.46,5,5,0,0,0-1.7.3,4.06,4.06,0,0,0-1.52,1,4.85,4.85,0,0,0-1.07,1.74,7.09,7.09,0,0,0-.4,2.54,6.08,6.08,0,0,0,.67,2.92,5,5,0,0,0,1.88,2,5.2,5.2,0,0,0,2.78.74,5.5,5.5,0,0,0,1.77-.26,4.59,4.59,0,0,0,1.27-.65,6,6,0,0,0,.91-.78,1.21,1.21,0,0,1,.74-.26.94.94,0,0,1,.69.28,1,1,0,0,1,.28.69,1.09,1.09,0,0,1-.45.86,7.78,7.78,0,0,1-2.19,1.56A6.54,6.54,0,0,1,158.72,73.16Z"/><path class="cls-5" d="M167.34,70.53a1.22,1.22,0,0,1-.23-.79,1,1,0,0,1,.49-.73,1,1,0,0,1,.67-.17,1,1,0,0,1,.7.37,6.6,6.6,0,0,0,1.84,1.51,5.22,5.22,0,0,0,2.52.55,5.51,5.51,0,0,0,1.37-.22,2.58,2.58,0,0,0,1.16-.71,1.86,1.86,0,0,0,.47-1.33,1.7,1.7,0,0,0-.48-1.27,3.91,3.91,0,0,0-1.26-.78,16.06,16.06,0,0,0-1.69-.53c-.63-.17-1.25-.36-1.87-.58a7.2,7.2,0,0,1-1.64-.83,4.05,4.05,0,0,1-1.18-1.26,3.67,3.67,0,0,1-.44-1.85,3.61,3.61,0,0,1,.7-2.23,4.55,4.55,0,0,1,1.89-1.46A6.34,6.34,0,0,1,173,57.7a7.66,7.66,0,0,1,1.68.19,6.15,6.15,0,0,1,1.7.63,4.68,4.68,0,0,1,1.46,1.21,1.17,1.17,0,0,1,.29.72.92.92,0,0,1-.37.77,1.07,1.07,0,0,1-1.35-.08,4,4,0,0,0-1.5-1.11,5.15,5.15,0,0,0-2-.38,4.42,4.42,0,0,0-1.35.2,2.43,2.43,0,0,0-1.1.67,1.93,1.93,0,0,0,.07,2.56,3.39,3.39,0,0,0,1.32.79c.55.2,1.16.4,1.83.59a18.09,18.09,0,0,1,1.76.53,6,6,0,0,1,1.53.79A3.52,3.52,0,0,1,178,67a4,4,0,0,1,.4,1.91,3.64,3.64,0,0,1-.74,2.27,4.67,4.67,0,0,1-2,1.46,6.75,6.75,0,0,1-2.62.5,8.47,8.47,0,0,1-3.11-.6A6.23,6.23,0,0,1,167.34,70.53Z"/><path class="cls-5" d="M203.54,65.43a8,8,0,0,1-1,4,7.47,7.47,0,0,1-10.21,2.75,7.4,7.4,0,0,1-2.66-2.75,8.5,8.5,0,0,1,0-8,7.47,7.47,0,0,1,2.66-2.75,7.64,7.64,0,0,1,7.56,0,7.29,7.29,0,0,1,2.65,2.75A8,8,0,0,1,203.54,65.43Zm-2.29,0a6.11,6.11,0,0,0-.68-2.92,5,5,0,0,0-1.83-2,4.87,4.87,0,0,0-2.62-.72,4.93,4.93,0,0,0-2.61.72,5,5,0,0,0-1.84,2,6.11,6.11,0,0,0-.68,2.92,6,6,0,0,0,.68,2.89,5.05,5.05,0,0,0,1.84,2,4.86,4.86,0,0,0,2.61.74,4.8,4.8,0,0,0,2.62-.74,5.1,5.1,0,0,0,1.83-2A6,6,0,0,0,201.25,65.43Z"/><path class="cls-5" d="M218.71,72.88a1.19,1.19,0,0,1-.88-.35,1.11,1.11,0,0,1-.35-.83V55.41l.35.4-3.33,2a1.1,1.1,0,0,1-.57.15,1.08,1.08,0,0,1-.83-.39,1.18,1.18,0,0,1-.34-.79,1.13,1.13,0,0,1,.6-1L218,53a1.53,1.53,0,0,1,.86-.17,1,1,0,0,1,.77.33A1.21,1.21,0,0,1,220,54V71.7a1.11,1.11,0,0,1-.35.83A1.2,1.2,0,0,1,218.71,72.88Z"/><path class="cls-5" d="M238.9,57.7a10.21,10.21,0,0,1,2.64.32,5.19,5.19,0,0,1,1.86.85,1.58,1.58,0,0,1,.69,1.24,1.25,1.25,0,0,1-.25.71.8.8,0,0,1-.7.35,1.13,1.13,0,0,1-.61-.15,1.78,1.78,0,0,1-.46-.37,1.91,1.91,0,0,0-.59-.4,3.26,3.26,0,0,0-1-.32,8.58,8.58,0,0,0-1.35-.11,5.07,5.07,0,0,0-4.62,2.75,6,6,0,0,0-.68,2.86,6.1,6.1,0,0,0,.66,2.87,5.14,5.14,0,0,0,1.84,2,4.94,4.94,0,0,0,2.72.75,5.7,5.7,0,0,0,1.59-.18,4.52,4.52,0,0,0,1-.4,3.33,3.33,0,0,0,.76-.57,1,1,0,0,1,.76-.29.9.9,0,0,1,.74.32,1.14,1.14,0,0,1,.26.77,1.53,1.53,0,0,1-.71,1.09,6.16,6.16,0,0,1-1.94,1,8.61,8.61,0,0,1-2.73.4,7,7,0,0,1-3.81-1,6.93,6.93,0,0,1-2.53-2.78,8.41,8.41,0,0,1-.91-3.94,8.19,8.19,0,0,1,.93-3.92,7.17,7.17,0,0,1,2.6-2.78A7.06,7.06,0,0,1,238.9,57.7Z"/><path class="cls-5" d="M253.88,73.16a8,8,0,0,1-4-1,6.85,6.85,0,0,1-2.66-2.68,8,8,0,0,1-1-3.93,8.6,8.6,0,0,1,1-4.26,7.07,7.07,0,0,1,2.56-2.69,6.49,6.49,0,0,1,3.35-.93,6.79,6.79,0,0,1,2.57.49,6.55,6.55,0,0,1,2.17,1.41,7.26,7.26,0,0,1,1.54,2.24,7.55,7.55,0,0,1,.6,2.91,1.18,1.18,0,0,1-1.18,1.08H247.55l-.51-2h11l-.46.4v-.63a3.52,3.52,0,0,0-.76-2,4.43,4.43,0,0,0-1.64-1.3,4.68,4.68,0,0,0-2-.46,5,5,0,0,0-1.7.3,4.06,4.06,0,0,0-1.52,1,4.85,4.85,0,0,0-1.07,1.74,7.09,7.09,0,0,0-.4,2.54,6.08,6.08,0,0,0,.67,2.92,4.94,4.94,0,0,0,1.88,2,5.19,5.19,0,0,0,2.77.74,5.52,5.52,0,0,0,1.78-.26,4.59,4.59,0,0,0,1.27-.65,6,6,0,0,0,.91-.78,1.21,1.21,0,0,1,.74-.26.94.94,0,0,1,.69.28,1,1,0,0,1,.28.69,1.09,1.09,0,0,1-.45.86,7.78,7.78,0,0,1-2.19,1.56A6.54,6.54,0,0,1,253.88,73.16Z"/><path class="cls-5" d="M270.69,57.7a5.17,5.17,0,0,1,3.06.8,4.3,4.3,0,0,1,1.59,2.15,8.92,8.92,0,0,1,.48,3v8a1.13,1.13,0,0,1-.33.83,1.14,1.14,0,0,1-1.64,0,1.12,1.12,0,0,1-.32-.83v-8a5.79,5.79,0,0,0-.33-2,3,3,0,0,0-1.09-1.4,3.62,3.62,0,0,0-2.08-.53,4.64,4.64,0,0,0-2.2.53,4.39,4.39,0,0,0-1.61,1.4,3.41,3.41,0,0,0-.6,2v8a1.13,1.13,0,0,1-.33.83,1.12,1.12,0,0,1-1.63,0,1.13,1.13,0,0,1-.33-.83V59.22a1.17,1.17,0,0,1,2-.82,1.13,1.13,0,0,1,.31.82v2l-.57.63a3.8,3.8,0,0,1,.66-1.5A5.71,5.71,0,0,1,267,59a6.5,6.5,0,0,1,1.71-1A5.51,5.51,0,0,1,270.69,57.7Z"/><path class="cls-5" d="M279.48,58.16h6.73a1,1,0,0,1,.76.31A1.1,1.1,0,0,1,287,60a1,1,0,0,1-.76.3h-6.73a1,1,0,0,1-.74-.32,1,1,0,0,1-.32-.77,1,1,0,0,1,.32-.73A1,1,0,0,1,279.48,58.16Zm3-3.9a1.06,1.06,0,0,1,.8.33,1.15,1.15,0,0,1,.31.82V69.24a2,2,0,0,0,.21,1,1,1,0,0,0,.52.47,1.71,1.71,0,0,0,.65.13,1.12,1.12,0,0,0,.5-.1,1.27,1.27,0,0,1,.5-.1.69.69,0,0,1,.53.28,1,1,0,0,1,.24.7,1,1,0,0,1-.6.87,2.56,2.56,0,0,1-1.34.36q-.4,0-1-.06a3,3,0,0,1-1.16-.37,2.47,2.47,0,0,1-1-1,4.38,4.38,0,0,1-.39-2v-14a1.1,1.1,0,0,1,.35-.82A1.15,1.15,0,0,1,282.49,54.26Z"/><path class="cls-5" d="M297,73.16a8,8,0,0,1-4-1,6.81,6.81,0,0,1-2.67-2.68,8,8,0,0,1-.94-3.93,8.6,8.6,0,0,1,1-4.26,7.07,7.07,0,0,1,2.56-2.69,6.49,6.49,0,0,1,3.35-.93,6.7,6.7,0,0,1,2.56.49A6.59,6.59,0,0,1,301,59.6a7.07,7.07,0,0,1,1.53,2.24,7.55,7.55,0,0,1,.6,2.91,1.11,1.11,0,0,1-.37.77,1.15,1.15,0,0,1-.8.31H290.68l-.52-2h11l-.46.4v-.63a3.59,3.59,0,0,0-.76-2,4.55,4.55,0,0,0-1.65-1.3,4.64,4.64,0,0,0-2-.46,5,5,0,0,0-1.7.3,4,4,0,0,0-1.52,1A4.86,4.86,0,0,0,292,62.86a7.32,7.32,0,0,0-.4,2.54,6.08,6.08,0,0,0,.68,2.92,5,5,0,0,0,1.87,2,5.25,5.25,0,0,0,2.78.74,5.52,5.52,0,0,0,1.78-.26,4.73,4.73,0,0,0,1.27-.65,6.47,6.47,0,0,0,.9-.78,1.26,1.26,0,0,1,.75-.26.93.93,0,0,1,.68.28,1,1,0,0,1,.29.69,1.07,1.07,0,0,1-.46.86,7.5,7.5,0,0,1-2.19,1.56A6.5,6.5,0,0,1,297,73.16Z"/><path class="cls-5" d="M313.82,57.7a5.17,5.17,0,0,1,3.06.8,4.3,4.3,0,0,1,1.59,2.15,9.18,9.18,0,0,1,.47,3v8a1.13,1.13,0,0,1-.33.83,1.12,1.12,0,0,1-1.63,0,1.13,1.13,0,0,1-.33-.83v-8a5.56,5.56,0,0,0-.33-2,2.9,2.9,0,0,0-1.09-1.4,3.56,3.56,0,0,0-2.07-.53,4.71,4.71,0,0,0-2.21.53,4.36,4.36,0,0,0-1.6,1.4,3.41,3.41,0,0,0-.6,2v8a1.13,1.13,0,0,1-.33.83,1.12,1.12,0,0,1-1.63,0,1.13,1.13,0,0,1-.33-.83V59.22a1.13,1.13,0,0,1,1.14-1.15,1.08,1.08,0,0,1,.83.33,1.14,1.14,0,0,1,.32.82v2l-.57.63a3.92,3.92,0,0,1,.65-1.5A6.14,6.14,0,0,1,310.12,59a6.73,6.73,0,0,1,1.72-1A5.51,5.51,0,0,1,313.82,57.7Z"/><path class="cls-5" d="M335.24,57.93a1.1,1.1,0,0,1,.83.33,1.13,1.13,0,0,1,.31.82V71.7a1.13,1.13,0,0,1-.33.83,1.12,1.12,0,0,1-1.63,0,1.13,1.13,0,0,1-.33-.83V69l.55,0a2.85,2.85,0,0,1-.43,1.37A5.43,5.43,0,0,1,333,71.69a6.49,6.49,0,0,1-1.75,1.06,5.52,5.52,0,0,1-2.17.41,6.27,6.27,0,0,1-3.51-1,7,7,0,0,1-2.45-2.77,8.67,8.67,0,0,1-.89-4,8.54,8.54,0,0,1,.91-4,7,7,0,0,1,2.43-2.72,6.21,6.21,0,0,1,3.45-1,6.34,6.34,0,0,1,2.29.4,6.07,6.07,0,0,1,1.85,1.09,5.28,5.28,0,0,1,1.22,1.52,3.63,3.63,0,0,1,.43,1.66l-.75-.17V59.08a1.13,1.13,0,0,1,1.15-1.15Zm-5.9,13.12a4.38,4.38,0,0,0,2.53-.75,5.1,5.1,0,0,0,1.73-2,6.41,6.41,0,0,0,.63-2.88,6.35,6.35,0,0,0-.63-2.85,5,5,0,0,0-1.73-2,4.44,4.44,0,0,0-2.53-.73,4.5,4.5,0,0,0-2.51.72,4.89,4.89,0,0,0-1.73,2,6.92,6.92,0,0,0,0,5.77,5.18,5.18,0,0,0,1.73,2A4.36,4.36,0,0,0,329.34,71.05Z"/><rect class="cls-6" width="533.4" height="130.12"/></g></g></svg>