<svg xmlns="http://www.w3.org/2000/svg" viewBox="0 0 162.38 162.37"><defs><style>.cls-1{fill:#1f8ebe;}</style></defs><title>sol lineas</title><g id="Capa_2" data-name="Capa 2"><g id="Capa_1-2" data-name="Capa 1"><path class="cls-1" d="M154.21,73H129.32a8.15,8.15,0,0,0-6.74,3.56,41.39,41.39,0,0,0-9.09-21.65,8.26,8.26,0,0,0,1.73.19,8.12,8.12,0,0,0,5.78-2.4l17.59-17.6A8.17,8.17,0,0,0,127,23.57l-17.6,17.6a8.15,8.15,0,0,0-2.19,7.56A41.5,41.5,0,0,0,85.8,39.79a8.17,8.17,0,0,0,3.56-6.73V8.17A8.17,8.17,0,0,0,73,8.17V33.06a8.14,8.14,0,0,0,3.56,6.73,41.53,41.53,0,0,0-21.46,8.94,8.15,8.15,0,0,0-2.19-7.56l-17.6-17.6a8.11,8.11,0,0,0-5.77-2.39h0a8.17,8.17,0,0,0-5.77,13.94l17.6,17.6a8.08,8.08,0,0,0,5.77,2.4,8.26,8.26,0,0,0,1.73-.19,41.55,41.55,0,0,0-9.09,21.65A8.14,8.14,0,0,0,33.06,73H8.17a8.17,8.17,0,0,0,0,16.34H33.06a8.17,8.17,0,0,0,6.73-3.56A41.43,41.43,0,0,0,48.5,107a8.58,8.58,0,0,0-1.35-.12,8.08,8.08,0,0,0-5.77,2.4l-17.6,17.6a8.17,8.17,0,0,0,11.55,11.55l17.6-17.6A8.11,8.11,0,0,0,55.32,115a7.83,7.83,0,0,0-.11-1.29,41.54,41.54,0,0,0,21.37,8.86A8.15,8.15,0,0,0,73,129.32v24.89a8.17,8.17,0,0,0,16.34,0V129.32a8.17,8.17,0,0,0-3.56-6.74,41.4,41.4,0,0,0,21.36-8.87,9.37,9.37,0,0,0-.11,1.3,8.11,8.11,0,0,0,2.39,5.78l17.6,17.6a8.17,8.17,0,1,0,11.55-11.55L121,109.24a8.12,8.12,0,0,0-5.78-2.4,8.58,8.58,0,0,0-1.35.12,41.43,41.43,0,0,0,8.71-21.16,8.17,8.17,0,0,0,6.74,3.56h24.89a8.17,8.17,0,0,0,0-16.34ZM33.06,83.36H8.17a2.17,2.17,0,0,1,0-4.34H33.06a2.17,2.17,0,0,1,0,4.34Zm80.63-37.94,17.6-17.61a2.18,2.18,0,0,1,1.53-.63,2.16,2.16,0,0,1,1.53,3.7l-17.6,17.6a2.21,2.21,0,0,1-3.06,0,2.15,2.15,0,0,1,0-3.06ZM79,8.17a2.17,2.17,0,0,1,4.34,0V33.06a2.17,2.17,0,0,1-4.34,0ZM45.62,48.48,28,30.88a2.14,2.14,0,0,1-.63-1.53,2.15,2.15,0,0,1,2.16-2.17h0a2.17,2.17,0,0,1,1.53.64l17.6,17.6a2.17,2.17,0,0,1,0,3.06A2.22,2.22,0,0,1,45.62,48.48Zm3.07,68.07-17.6,17.6a2.22,2.22,0,0,1-3.07,0,2.17,2.17,0,0,1,0-3.06l17.6-17.6a2.16,2.16,0,0,1,3.07,0,2.14,2.14,0,0,1,.63,1.53A2.16,2.16,0,0,1,48.69,116.55Zm34.67,37.66a2.17,2.17,0,0,1-4.34,0V129.32a2.17,2.17,0,0,1,4.34,0Zm33.39-40.73,17.6,17.6a2.15,2.15,0,0,1,.64,1.53,2.17,2.17,0,0,1-.64,1.54,2.22,2.22,0,0,1-3.06,0l-17.6-17.61a2.16,2.16,0,1,1,3.06-3.06Zm-35.56,3.36a35.66,35.66,0,1,1,35.65-35.65A35.7,35.7,0,0,1,81.19,116.84Zm73-33.48H129.32a2.17,2.17,0,1,1,0-4.34h24.89a2.17,2.17,0,0,1,0,4.34Z"/></g></g></svg>