<svg xmlns="http://www.w3.org/2000/svg" viewBox="0 0 129.45 120"><defs><style>.cls-1,.cls-6{fill:none;}.cls-10,.cls-2,.cls-5,.cls-8{fill:#d89955;}.cls-3,.cls-4{fill:#ffe8c6;}.cls-10,.cls-4,.cls-5,.cls-6,.cls-7,.cls-8,.cls-9{stroke:#000;stroke-miterlimit:10;}.cls-4,.cls-5,.cls-8,.cls-9{stroke-width:0.25px;}.cls-10,.cls-6,.cls-8{stroke-linecap:round;}.cls-10,.cls-6{stroke-width:0.75px;}.cls-7{fill:#fff;stroke-width:0.5px;}.cls-9{fill:#fea49c;}</style></defs><title>Mistake feedback_zorro_5to0</title><g id="Layer_2" data-name="Layer 2"><g id="Layer_1-2" data-name="Layer 1"><rect class="cls-1" width="129.45" height="120"/><path class="cls-2" d="M112.35,108.1a100.7,100.7,0,0,0-7.52-18c-4.69-8.54-11.58-7.21-13.93-5-5.29,4.87,3.43,19.32,7.7,25.14Z"/><path d="M98.51,109.83c-4-5.37-12.61-19.76-7.42-24.53a6.28,6.28,0,0,1,3.3-1.46,7.71,7.71,0,0,1,2.66,0c2.06.4,5,1.82,7.54,6.36a97.4,97.4,0,0,1,7.08,17.57l.56-.08A97.68,97.68,0,0,0,105.07,90c-2.61-4.75-5.75-6.24-7.93-6.66a7.69,7.69,0,0,0-6.42,1.53c-5.26,4.85,2.19,18.3,7.16,25.1Z"/><path class="cls-3" d="M8.41,120h32c-.41-5.66-1.58-13.24-8.62-20.68C22.14,89.11,11.23,86.52,9.1,88.41s4.15,3.65,5.9,12.49C16.61,109,11.71,114.74,8.41,120Z"/><path d="M14.88,100.93c1.33,6.71-1.82,11.33-4.86,15.8-.62.92-1.2,2.39-1.76,3.27h.3c.53-.83,1.08-2.26,1.67-3.13,3.07-4.51,6.25-9.17,4.9-16a19.12,19.12,0,0,0-4.94-9.49c-1.32-1.52-1.83-2.17-1-2.89,2-1.75,12.81.63,22.52,10.9,7,7.35,8.16,14.74,8.58,20.6h.25c-.42-5.9-1.63-13.36-8.65-20.77C21.9,88.68,11.1,86.47,9,88.31c-1,.92-.23,1.84,1,3.24A18.87,18.87,0,0,1,14.88,100.93Z"/><path class="cls-2" d="M61.91,120H112c-6.13-24.79-19.74-44.95-33.71-42.47C54.69,81.7,63.32,105.37,61.91,120Z"/><path d="M61.79,120H62a86,86,0,0,0-.12-12c-.38-6.56-.77-13.35,1.18-18.92,2.2-6.3,7.16-10.06,15.17-11.48a14.21,14.21,0,0,1,2.42-.21c13.67,0,25.8,21,31.14,42.56h.25c-3-12.36-7.94-24-13.8-31.65C91.91,80,85,76.21,78.23,77.41c-8.11,1.43-13.13,5.24-15.37,11.64-2,5.62-1.57,12.43-1.19,19A85.83,85.83,0,0,1,61.79,120Z"/><path class="cls-2" d="M52,120a5.22,5.22,0,0,1,0-1.2c.85-4.59,10.88-18.69,14.28-18.52l.59-13c-2.56,0-21.73,12.88-24.77,28.63a18.07,18.07,0,0,0-.06,4Z"/><path d="M52.16,118.82c.86-4.66,10.75-18.41,14.08-18.41h.06l0-.25h-.08c-2.35,0-6.81,5.52-8.12,7.22-2.76,3.56-5.74,8.88-6.21,11.4a5.29,5.29,0,0,0,0,1.22h.25A5,5,0,0,1,52.16,118.82Z"/><path d="M42.2,120a17.82,17.82,0,0,1,0-4c1.63-8.41,7.71-15.59,12.53-20.14,5.33-5,10.82-8.38,12.12-8.38v-.25c-1.37,0-6.84,3.3-12.29,8.44-4.84,4.58-11,11.81-12.6,20.28A17.66,17.66,0,0,0,42,120Z"/><path class="cls-4" d="M78.07,105.39c3.69.36,16.87,10.1,16.87,10.1s5.35-8.91,4.76-17.94a10.2,10.2,0,0,1,2.47,2.17s-4.52-10.29-7.41-13-5.16-2.13-9.32-1.89-11.9,4.75-14.78,14.24a29.3,29.3,0,0,0-.68,9.81S77,105.29,78.07,105.39Z"/><path class="cls-5" d="M76.23,36.56C74.74,30.94,75,25,79.42,18.29S92,3.14,94.11,4.42s7.52,15.35,9.14,27.15c.89,6.48-5.64,13.49-8.17,14.63"/><path class="cls-5" d="M60.5,22.2c12-2,26.22,1.18,34.41,9.83s8.24,20.5,10.24,27.59a58.62,58.62,0,0,0,2.37,5.71c1.61,3.55.79,8.93-6.46,16.79-3.87,4.2-24.89,11.36-46.35,6.63C35.48,84.52,34.63,75.25,31.56,61S38,25.86,60.5,22.2Z"/><path class="cls-6" d="M83.68,46.94c.62-2.25,3-5.29,5.41-5.82,4-.84,5.89,1.53,6.43,2.51"/><path class="cls-5" d="M43.7,30.2c-3.34-6-8.48-10.91-18-13.14S2,14.2,1.16,17,7.22,36.29,15.57,47.75c4.59,6.29,16.2,7,19.4,6"/><path class="cls-7" d="M58.17,63c.82-2,5.59-6.23,9.73-6.18s7.4,3.66,8.49,7,.55,4.51-.52,5.9a9.94,9.94,0,0,1-10.24,3.16c-5.33-1.36-6.39-4-7.22-5.5A4.52,4.52,0,0,1,58.17,63Z"/><ellipse cx="72.87" cy="64.51" rx="2.98" ry="3.83"/><path class="cls-7" d="M94.15,52.47c1.64-.29,5.06,1.65,6,4.66s1.42,6.95-2.51,8.56a6.75,6.75,0,0,1-8.56-2.63C88,61.31,89.2,53.36,94.15,52.47Z"/><ellipse cx="96.17" cy="59.43" rx="2.35" ry="3.54" transform="translate(-1.08 1.78) rotate(-1.06)"/><path class="cls-8" d="M69.93,24.31c1.45-.55,1.54-3.13.32-5.5s-5.7-6-9-5.43.59,5.38,2,6.47c0,0-4.09-2.64-7.77-2.21s-2.89,3.7,2.92,5.08"/><path class="cls-9" d="M35.06,53.93S35.13,35.5,23,25.74,2.63,16.09,1.47,17C-.28,18.36,5,31.7,10.5,41.32,15.14,49.45,20.62,55.7,35.06,53.93Z"/><path class="cls-4" d="M95.32,78.06s-2.65.73-12.66,2.77a60.51,60.51,0,0,1-22.07.43c-5.2-.87-7.06-.83-17-6C35.45,71,32,64,33,68.27s2.62,12.37,10,16.48,20.5,5.93,30.24,5.82c9.48-.11,16.22-1.37,22.12-4.63,6.62-3.66,7.39-5.65,9.67-8.45,2.42-3,3.66-7.35,3.19-9.9A12.91,12.91,0,0,0,106,61.85c-.28-.35-1.5,5.74-3.87,9.61A23.22,23.22,0,0,1,95.32,78.06Z"/><path d="M94.52,76.7A6,6,0,0,1,96.6,76a2.45,2.45,0,0,1,2,1.35c.63,1.06-.73,3.28-1.31,3.61s-3.43.62-4.62-.58-.74-2-.28-2.42A11.33,11.33,0,0,1,94.52,76.7Z"/><path class="cls-10" d="M56.69,55.37A23.31,23.31,0,0,0,67.59,58c4.2.06,7.51-3.21,7.51-3.21"/><path class="cls-5" d="M101.37,96.93s1.6,5.17,3.11,11.09,5.23,7.06,6.74,6.52,4.45-1.59,3.56-6.69c-1-5.43-4.66-12.42-4.4-12.51.92-.3,4.38-3.25,3.35-9-.36-2-3.09-7.4-11.45-6.92-6.2.36-8.38,7.48-7.6,10.59C96.26,96.25,100.58,96.85,101.37,96.93Z"/></g></g></svg>