<svg xmlns="http://www.w3.org/2000/svg" viewBox="0 0 184.04 162.39"><defs><style>.cls-1{fill:#1f8ebe;}</style></defs><title>triangulo lineas</title><g id="Capa_2" data-name="Capa 2"><g id="Capa_1-2" data-name="Capa 1"><path class="cls-1" d="M172.7,162.39H11.34a11.31,11.31,0,0,1-9.8-17L82.22,5.66a11.32,11.32,0,0,1,19.61,0l80.68,139.75a11.32,11.32,0,0,1-9.81,17ZM92,6a5.26,5.26,0,0,0-4.61,2.66L6.73,148.41a5.32,5.32,0,0,0,4.61,8H172.7a5.32,5.32,0,0,0,4.61-8L96.63,8.66A5.26,5.26,0,0,0,92,6Z"/></g></g></svg>