<svg id="Capa_1" data-name="Capa 1" xmlns="http://www.w3.org/2000/svg" viewBox="0 0 1000 800"><defs><style>.cls-1{fill:#ead144;}.cls-2{fill:none;stroke:#1d1d1b;stroke-miterlimit:10;stroke-width:3px;}.cls-3{font-size:26.78px;font-family:LarkeNeue-Regular, Larke Neue;}.cls-4{fill:#404042;}.cls-5{fill:#565656;}.cls-6{fill:#f9dc4b;}.cls-7{fill:#f2cb2a;}</style></defs><title>Huincha 100cm BODY</title><rect class="cls-1" x="1.17" y="346.51" width="1000" height="106.98"/><line class="cls-2" x1="63.44" y1="346.87" x2="63.44" y2="408.28"/><line class="cls-2" x1="70.86" y1="346.87" x2="70.86" y2="377.7"/><line class="cls-2" x1="78.29" y1="346.87" x2="78.29" y2="377.7"/><line class="cls-2" x1="85.71" y1="346.87" x2="85.71" y2="377.7"/><line class="cls-2" x1="93.14" y1="346.87" x2="93.14" y2="377.57"/><line class="cls-2" x1="100.56" y1="346.87" x2="100.56" y2="391.42"/><line class="cls-2" x1="107.99" y1="346.87" x2="107.99" y2="377.7"/><line class="cls-2" x1="115.41" y1="346.87" x2="115.41" y2="377.7"/><line class="cls-2" x1="122.84" y1="346.87" x2="122.84" y2="377.7"/><line class="cls-2" x1="130.26" y1="346.87" x2="130.26" y2="377.57"/><line class="cls-2" x1="137.69" y1="346.87" x2="137.69" y2="408.28"/><line class="cls-2" x1="145.11" y1="346.87" x2="145.11" y2="377.7"/><line class="cls-2" x1="152.53" y1="346.87" x2="152.53" y2="377.7"/><line class="cls-2" x1="159.96" y1="346.87" x2="159.96" y2="377.7"/><line class="cls-2" x1="167.38" y1="346.87" x2="167.38" y2="377.57"/><line class="cls-2" x1="174.81" y1="346.87" x2="174.81" y2="391.42"/><line class="cls-2" x1="182.23" y1="346.87" x2="182.23" y2="377.7"/><line class="cls-2" x1="189.66" y1="346.87" x2="189.66" y2="377.7"/><line class="cls-2" x1="197.08" y1="346.87" x2="197.08" y2="377.7"/><line class="cls-2" x1="204.51" y1="346.87" x2="204.51" y2="377.57"/><line class="cls-2" x1="211.93" y1="346.87" x2="211.93" y2="408.28"/><line class="cls-2" x1="219.36" y1="346.87" x2="219.36" y2="377.7"/><line class="cls-2" x1="226.78" y1="346.87" x2="226.78" y2="377.7"/><line class="cls-2" x1="234.21" y1="346.87" x2="234.21" y2="377.7"/><line class="cls-2" x1="241.63" y1="346.87" x2="241.63" y2="377.57"/><line class="cls-2" x1="249.06" y1="346.87" x2="249.06" y2="391.42"/><line class="cls-2" x1="256.48" y1="346.87" x2="256.48" y2="377.7"/><line class="cls-2" x1="263.9" y1="346.87" x2="263.9" y2="377.7"/><line class="cls-2" x1="271.33" y1="346.87" x2="271.33" y2="377.7"/><line class="cls-2" x1="278.75" y1="346.87" x2="278.75" y2="377.57"/><line class="cls-2" x1="286.18" y1="346.87" x2="286.18" y2="408.28"/><line class="cls-2" x1="293.6" y1="346.87" x2="293.6" y2="377.7"/><line class="cls-2" x1="301.03" y1="346.87" x2="301.03" y2="377.7"/><line class="cls-2" x1="308.45" y1="346.87" x2="308.45" y2="377.7"/><line class="cls-2" x1="315.88" y1="346.87" x2="315.88" y2="377.57"/><line class="cls-2" x1="323.3" y1="346.87" x2="323.3" y2="391.42"/><line class="cls-2" x1="330.73" y1="346.87" x2="330.73" y2="377.7"/><line class="cls-2" x1="338.15" y1="346.87" x2="338.15" y2="377.7"/><line class="cls-2" x1="345.58" y1="346.87" x2="345.58" y2="377.7"/><line class="cls-2" x1="353" y1="346.87" x2="353" y2="377.57"/><line class="cls-2" x1="360.43" y1="346.87" x2="360.43" y2="408.28"/><line class="cls-2" x1="367.85" y1="346.87" x2="367.85" y2="377.7"/><line class="cls-2" x1="375.27" y1="346.87" x2="375.27" y2="377.7"/><line class="cls-2" x1="382.7" y1="346.87" x2="382.7" y2="377.7"/><line class="cls-2" x1="390.12" y1="346.87" x2="390.12" y2="377.57"/><line class="cls-2" x1="397.55" y1="346.87" x2="397.55" y2="391.42"/><line class="cls-2" x1="404.97" y1="346.87" x2="404.97" y2="377.7"/><line class="cls-2" x1="412.4" y1="346.87" x2="412.4" y2="377.7"/><line class="cls-2" x1="419.82" y1="346.87" x2="419.82" y2="377.7"/><line class="cls-2" x1="427.25" y1="346.87" x2="427.25" y2="377.57"/><line class="cls-2" x1="434.67" y1="346.87" x2="434.67" y2="408.28"/><line class="cls-2" x1="442.1" y1="346.87" x2="442.1" y2="377.7"/><line class="cls-2" x1="449.52" y1="346.87" x2="449.52" y2="377.7"/><line class="cls-2" x1="456.95" y1="346.87" x2="456.95" y2="377.7"/><line class="cls-2" x1="464.37" y1="346.87" x2="464.37" y2="377.57"/><line class="cls-2" x1="471.79" y1="346.87" x2="471.79" y2="391.42"/><line class="cls-2" x1="479.22" y1="346.87" x2="479.22" y2="377.7"/><line class="cls-2" x1="486.64" y1="346.87" x2="486.64" y2="377.7"/><line class="cls-2" x1="494.07" y1="346.87" x2="494.07" y2="377.7"/><line class="cls-2" x1="501.49" y1="346.87" x2="501.49" y2="377.57"/><line class="cls-2" x1="508.92" y1="346.87" x2="508.92" y2="408.28"/><line class="cls-2" x1="516.34" y1="346.87" x2="516.34" y2="377.7"/><line class="cls-2" x1="523.77" y1="346.87" x2="523.77" y2="377.7"/><line class="cls-2" x1="531.19" y1="346.87" x2="531.19" y2="377.7"/><line class="cls-2" x1="538.62" y1="346.87" x2="538.62" y2="377.57"/><line class="cls-2" x1="546.04" y1="346.87" x2="546.04" y2="391.42"/><line class="cls-2" x1="553.47" y1="346.87" x2="553.47" y2="377.7"/><line class="cls-2" x1="560.89" y1="346.87" x2="560.89" y2="377.7"/><line class="cls-2" x1="568.32" y1="346.87" x2="568.32" y2="377.7"/><line class="cls-2" x1="575.74" y1="346.87" x2="575.74" y2="377.57"/><line class="cls-2" x1="583.16" y1="346.87" x2="583.16" y2="408.28"/><line class="cls-2" x1="590.59" y1="346.87" x2="590.59" y2="377.7"/><line class="cls-2" x1="598.01" y1="346.87" x2="598.01" y2="377.7"/><line class="cls-2" x1="605.44" y1="346.87" x2="605.44" y2="377.7"/><line class="cls-2" x1="612.86" y1="346.87" x2="612.86" y2="377.57"/><line class="cls-2" x1="620.29" y1="346.87" x2="620.29" y2="391.42"/><line class="cls-2" x1="627.71" y1="346.87" x2="627.71" y2="377.7"/><line class="cls-2" x1="635.14" y1="346.87" x2="635.14" y2="377.7"/><line class="cls-2" x1="642.56" y1="346.87" x2="642.56" y2="377.7"/><line class="cls-2" x1="649.99" y1="346.87" x2="649.99" y2="377.57"/><line class="cls-2" x1="657.41" y1="346.87" x2="657.41" y2="408.28"/><line class="cls-2" x1="664.84" y1="346.87" x2="664.84" y2="377.7"/><line class="cls-2" x1="672.26" y1="346.87" x2="672.26" y2="377.7"/><line class="cls-2" x1="679.69" y1="346.87" x2="679.69" y2="377.7"/><line class="cls-2" x1="687.11" y1="346.87" x2="687.11" y2="377.57"/><line class="cls-2" x1="694.53" y1="346.87" x2="694.53" y2="391.42"/><line class="cls-2" x1="701.96" y1="346.87" x2="701.96" y2="377.7"/><line class="cls-2" x1="709.38" y1="346.87" x2="709.38" y2="377.7"/><line class="cls-2" x1="716.81" y1="346.87" x2="716.81" y2="377.7"/><line class="cls-2" x1="724.23" y1="346.87" x2="724.23" y2="377.57"/><line class="cls-2" x1="731.66" y1="346.87" x2="731.66" y2="408.28"/><line class="cls-2" x1="739.08" y1="346.87" x2="739.08" y2="377.7"/><line class="cls-2" x1="746.51" y1="346.87" x2="746.51" y2="377.7"/><line class="cls-2" x1="753.93" y1="346.87" x2="753.93" y2="377.7"/><line class="cls-2" x1="761.36" y1="346.87" x2="761.36" y2="377.57"/><line class="cls-2" x1="768.78" y1="346.87" x2="768.78" y2="391.42"/><line class="cls-2" x1="776.21" y1="346.87" x2="776.21" y2="377.7"/><line class="cls-2" x1="783.63" y1="346.87" x2="783.63" y2="377.7"/><line class="cls-2" x1="791.06" y1="346.87" x2="791.06" y2="377.7"/><line class="cls-2" x1="798.48" y1="346.87" x2="798.48" y2="377.57"/><line class="cls-2" x1="805.9" y1="346.87" x2="805.9" y2="408.28"/><text class="cls-3" transform="translate(55.39 434.41)">0</text><text class="cls-3" transform="translate(124.91 434.41)">10</text><text class="cls-3" transform="translate(195.97 434.41)">20</text><text class="cls-3" transform="translate(270.31 434.41)">30</text><text class="cls-3" transform="translate(343.38 434.41)">40</text><text class="cls-3" transform="translate(418.74 434.41)">50</text><text class="cls-3" transform="translate(492.65 434.41)">60</text><text class="cls-3" transform="translate(566.61 434.41)">70</text><text class="cls-3" transform="translate(640.33 434.41)">80</text><text class="cls-3" transform="translate(714.98 434.41)">90</text><text class="cls-3" transform="translate(783.62 434.41)">100</text><line class="cls-2" x1="813.12" y1="346.87" x2="813.12" y2="377.7"/><line class="cls-2" x1="820.54" y1="346.87" x2="820.54" y2="377.7"/><line class="cls-2" x1="827.97" y1="346.87" x2="827.97" y2="377.7"/><line class="cls-2" x1="835.39" y1="346.87" x2="835.39" y2="377.57"/><line class="cls-2" x1="842.82" y1="346.87" x2="842.82" y2="391.42"/><line class="cls-2" x1="850.24" y1="346.87" x2="850.24" y2="377.7"/><line class="cls-2" x1="857.67" y1="346.87" x2="857.67" y2="377.7"/><line class="cls-2" x1="865.09" y1="346.87" x2="865.09" y2="377.7"/><line class="cls-2" x1="872.52" y1="346.87" x2="872.52" y2="377.57"/><line class="cls-2" x1="879.94" y1="346.87" x2="879.94" y2="408.28"/><rect class="cls-4" x="1.17" y="346.51" width="26.17" height="106.98"/><path class="cls-4" d="M9.31,381.67H43.84a1.83,1.83,0,0,1,1.83,1.83v33a1.83,1.83,0,0,1-1.83,1.83H9.31A.31.31,0,0,1,9,418V382a.31.31,0,0,1,.31-.31Z"/><path class="cls-4" d="M892.57,301.38h108.6a0,0,0,0,1,0,0V498.62a0,0,0,0,1,0,0H892.57a20.05,20.05,0,0,1-20.05-20.05V321.43A20.05,20.05,0,0,1,892.57,301.38Z"/><rect class="cls-5" x="886.25" y="354.14" width="98.62" height="91.72" rx="4.59" ry="4.59"/><rect class="cls-6" x="905.26" y="354.14" width="52.03" height="91.72" rx="2.6" ry="2.6"/><rect class="cls-7" x="913.72" y="361.22" width="9.4" height="72.18" rx="0.47" ry="0.47"/><rect class="cls-7" x="926.57" y="361.22" width="9.4" height="72.18" rx="0.47" ry="0.47"/><rect class="cls-7" x="938.72" y="361.22" width="9.4" height="72.18" rx="0.47" ry="0.47"/><path class="cls-6" d="M929.86,498.62H1000a0,0,0,0,1,0,0v17.71a0,0,0,0,1,0,0H929.86a8.86,8.86,0,0,1-8.86-8.86v0A8.86,8.86,0,0,1,929.86,498.62Z"/></svg>