<svg xmlns="http://www.w3.org/2000/svg" viewBox="0 0 49.91 46.6"><defs><style>.cls-1{fill:none;stroke:#1f8ebe;stroke-miterlimit:10;}.cls-2{fill:#1f8ebe;}</style></defs><title>N_Reales_Pos (6)</title><g id="Capa_2" data-name="Capa 2"><g id="Numeracion"><g id="N_Reales_Pos"><g id="N_Reales_Pos-2" data-name="N_Reales_Pos"><path class="cls-1" d="M.5,1.44A77.85,77.85,0,0,1,13.16.5C20.22.5,24.77,1.64,28,4.19a10.7,10.7,0,0,1,4,8.6c0,6-4.24,9.94-9.63,11.55v.2c3.94,1.21,6.3,4.43,7.51,9.13C31.52,40,32.73,44.35,33.79,46.1H27c-.84-1.28-2-5.17-3.42-10.81C22,29,19.31,26.69,13.32,26.49H7.1V46.1H.5ZM7.1,22.06h6.75c7,0,11.52-3.43,11.52-8.6,0-5.84-4.77-8.39-11.75-8.46a30.3,30.3,0,0,0-6.52.54Z"/><rect class="cls-2" x="42.36" y="10.48" width="1.45" height="12.09"/><rect class="cls-2" x="36.26" y="15.8" width="13.65" height="1.45"/></g></g></g></g></svg>