<svg xmlns="http://www.w3.org/2000/svg" viewBox="0 0 30.82 46.6"><defs><style>.cls-1{fill:none;stroke:#1f8ebe;stroke-miterlimit:10;}</style></defs><title>N_Reales (6)</title><g id="Capa_2" data-name="Capa 2"><g id="Numeracion"><g id="N_Reales"><g id="N_Reales-2" data-name="N_Reales"><path class="cls-1" d="M.5,1.44A61.3,61.3,0,0,1,11.71.5C18,.5,22,1.64,24.81,4.19a11.31,11.31,0,0,1,3.56,8.6c0,6-3.76,9.94-8.53,11.55v.2c3.49,1.21,5.57,4.43,6.65,9.13C28,40,29,44.35,30,46.1h-6c-.74-1.28-1.75-5.17-3-10.81-1.35-6.25-3.77-8.6-9.07-8.8H6.34V46.1H.5ZM6.34,22.06h6c6.24,0,10.21-3.43,10.21-8.6,0-5.84-4.23-8.39-10.41-8.46a24,24,0,0,0-5.78.54Z"/></g></g></g></g></svg>