<svg xmlns="http://www.w3.org/2000/svg" viewBox="0 0 31 29"><defs><style>.cls-1{fill:#1f8ebe;}</style></defs><title>Pi (7)</title><g id="Capa_2" data-name="Capa 2"><g id="Numeracion"><g id="Pi"><path id="Pi-2" data-name="Pi" class="cls-1" d="M24.11,23.51C19.68,20.08,22.81,6,22.81,6h5.41A2.78,2.78,0,0,0,31,3c0-3.22-2.71-3-2.71-3H8.36C5.09,0,2.14,3.71.44,6.35-.46,7.77.05,8.16,1.6,7.5,7,5.15,8.56,6,8.56,6,9,7.8,9.07,16,7.68,19.2c-1.41,3-4,6.88-.19,9.14,3,1.68,6.12-1.76,5.81-7.62C13.16,17.62,12.91,6,12.91,6h5c-.15,1.81-1,11.06-.11,16.53.92,9.15,11,7.37,12.84,2.19a4.68,4.68,0,0,0,0-3.36c-.63-1.54-1.7-1.62-1.58-.9a3.86,3.86,0,0,1,0,1.32c-.22,1.25-2.8,3.21-4.9,1.73Z"/></g></g></g></svg>