<svg xmlns="http://www.w3.org/2000/svg" xmlns:xlink="http://www.w3.org/1999/xlink" viewBox="0 0 144.71 120.03"><defs><style>.cls-1,.cls-2,.cls-6{fill:none;}.cls-1,.cls-11,.cls-5,.cls-6,.cls-7,.cls-8,.cls-9{stroke:#000;stroke-miterlimit:10;}.cls-1,.cls-5,.cls-8,.cls-9{stroke-width:0.25px;}.cls-3,.cls-5{fill:#d89955;}.cls-4,.cls-9{fill:#ffe8c6;}.cls-14,.cls-6{stroke-linecap:round;}.cls-13,.cls-7{fill:#fff;}.cls-7{stroke-width:0.5px;}.cls-12,.cls-8{fill:#fea49c;}.cls-10{clip-path:url(#clip-path);}.cls-11{fill:#7e2d3a;}.cls-14{fill:#a0dbf0;stroke:#4a91cd;stroke-linejoin:round;}</style><clipPath id="clip-path"><path class="cls-1" d="M110.58,77.59c-3.41.66-13.63,5.45-25,4s-18.92-3.72-22.74-5.76c-3.65-2-7.7-1.28-9,1C52,80,54,86.84,60.68,90.3s16.49,6.54,26.71,5.07,16.84-4.7,19.83-9.07S111.31,77.45,110.58,77.59Z"/></clipPath></defs><title>Correct feedbacK_zorro_5to0</title><g id="Layer_2" data-name="Layer 2"><g id="Layer_1-2" data-name="Layer 1"><rect class="cls-2" width="144.71" height="120.03"/><path class="cls-3" d="M103.41,102.09c4.06-2.69,20.2-18.89,25.14-26.5a85.27,85.27,0,0,0,7.53-14.11c.1-.22,9-4.25,6-12.94-2.22-6.4-6.95-7.18-11.32-5.79-11,3.47-5.37,14-5.55,14.2C124.36,58,118,70.22,114.92,74.3S100.62,92.65,98.06,95s-2.13,4-.26,5.82S101.61,103.29,103.41,102.09Z"/><path class="cls-1" d="M103.41,102.09c4.06-2.69,20.2-18.89,25.14-26.5a85.27,85.27,0,0,0,7.53-14.11c.1-.22,9-4.25,6-12.94-2.22-6.4-6.95-7.18-11.32-5.79-11,3.47-5.37,14-5.55,14.2C124.36,58,118,70.22,114.92,74.3S100.62,92.65,98.06,95s-2.13,4-.26,5.82S101.61,103.29,103.41,102.09Z"/><path class="cls-4" d="M22.09,120h25.3c-1-4-3.68-9-9-13.35C27.79,98.08,17,97,15.18,99s4.45,3,7.23,11.27A12.86,12.86,0,0,1,22.09,120Z"/><path d="M22,120h.28a13,13,0,0,0,.3-9.77,18.38,18.38,0,0,0-5.92-8.5c-1.46-1.3-2-1.85-1.33-2.64,1.68-1.92,12.37-1,23,7.65,4.73,3.86,7.91,8.67,9,13.26h.26c-1.1-4.67-4.31-9.54-9.11-13.45C27.51,97.69,16.86,96.92,15.09,99c-.88,1,0,1.8,1.35,3a18.3,18.3,0,0,1,5.86,8.4A12.74,12.74,0,0,1,22,120Z"/><path class="cls-3" d="M110.05,120c-.22-.65-.56-1.67-.76-2.29-9.64-30-19.53-32.6-28.29-31.18-12.18,2-11,20.53-10.87,33.47Z"/><path d="M70,120h.25c0-.89,0-1.93,0-2.86C70,104.37,69.78,88.48,81,86.65a15.43,15.43,0,0,1,13.71,3.76c5.33,4.7,10,13.65,14.44,27.34.12.38.29.85.46,1.32.1.28.2.68.29.93h.26c-.09-.27-.2-.7-.31-1s-.34-.93-.46-1.31C105,103.94,100.26,95,94.9,90.22A15.65,15.65,0,0,0,81,86.41c-11.45,1.86-11.21,17.87-11,30.74C70,118.08,70,119.11,70,120Z"/><path class="cls-3" d="M50.7,120H62.45c2.23-4.12,5.72-8.34,7.77-8.55L71.4,98C69.27,98.23,55.76,112.17,50.7,120Z"/><path d="M71.26,98.11l.42-.19-.15-.11-.15,0c-2.27.31-15.9,14.55-20.83,22.22h.29C55.94,112.16,68.85,99,71.26,98.11Z"/><path d="M70.18,111.35c-2.19.34-5.73,4.66-7.87,8.65h.29c2.1-3.88,5-7.33,7.32-8.35l.24-.05Z"/><path class="cls-4" d="M79.62,120c.92-1.18,1.75-2.58,2.39-2.54.42,0,1.52,1.32,2.95,2.54h21a55.75,55.75,0,0,0-1.07-9.29,9.68,9.68,0,0,1,2.41,2.07s-5.62-13.37-8.45-16-8.39-.75-8.39-.75c-5.28,0-10.69,3-13.4,12.16-.63,2.28-.92,9.44-.88,11.76Z"/><path d="M82,117.34h0c-.58,0-1.24.86-2,1.86-.16.22-.34.58-.51.8h.31c.14-.17.27-.48.4-.65.66-.87,1.34-1.76,1.8-1.76h0a6.12,6.12,0,0,1,1.63,1.28c.35.31.73.78,1.14,1.13h.38c-.49-.41-1-1-1.35-1.32C82.85,117.82,82.34,117.36,82,117.34Z"/><path d="M76.27,120c0-2.2.24-9.39.88-11.72C80.08,98.3,86,96.2,90.43,96.2h0c.06,0,5.53-1.78,8.27.72,2.38,2.18,6.83,12.24,8.09,15.13a14.22,14.22,0,0,0-1.9-1.45l-.25-.16.06.29a57.11,57.11,0,0,1,1.07,9.27h.24a56.57,56.57,0,0,0-1-9,8.45,8.45,0,0,1,2.12,1.86l.12,0c-.23-.55-5.57-13.48-8.39-16.05s-8.07-.92-8.49-.79c-4.52,0-10.53,2.14-13.5,12.26-.65,2.36-.92,9.58-.88,11.79Z"/><path class="cls-5" d="M80.24,41.05c-2.82-5.37-3.93-11.46-1-19.35S88.53,3.36,91,4.18s12,13.09,15.62,25.51c1.91,6.56-2.61,15-4.92,16.8"/><path class="cls-5" d="M60.89,30.08c11.8-4.79,27-4.88,37.32,2S114.75,59.29,118.44,66c.67,1.24,5.8-.59,7.3.57s1.91,3.36-1.68,12.13S100.83,99.31,77.9,98.3s-31-8.2-37.46-22S38.79,39.05,60.89,30.08Z"/><path class="cls-6" d="M65.84,48.34C66,45.21,67.35,37.83,72,37.22s7.53,3.54,7.53,3.54"/><path class="cls-6" d="M94.91,40c.11-2.59.41-7,3.18-6.91,1.49,0,5,3.53,5.9,4.79"/><path class="cls-5" d="M52.72,40.91c-3.22-6.44-8.37-11.76-18.2-14.5s-24.64-4-25.61-1.12S14.39,45.66,22.6,58c4.51,6.77,16.59,8.06,20,7.09"/><path class="cls-7" d="M68.06,57.65c1-2,3.56-5.44,7.7-6s7.92,2.8,9.46,6.16,1.09,5,.22,6.59A9.72,9.72,0,0,1,75.7,69c-5.52-.67-7-2.79-8.07-4.23S67.25,59.32,68.06,57.65Z"/><ellipse cx="81.49" cy="60.02" rx="2.83" ry="3.87" transform="translate(-5.81 8.81) rotate(-5.98)"/><path class="cls-7" d="M102.27,47.93c1.29-.53,4.23.94,5.89,3.8s2.6,6.77-.3,9-6,.69-7.61-1.41C99,57.7,98.37,49.54,102.27,47.93Z"/><ellipse cx="104.91" cy="55.8" rx="2.41" ry="3.63" transform="matrix(0.99, -0.13, 0.13, 0.99, -6.36, 14.11)"/><path class="cls-5" d="M75.61,30.14c1.35-.9.85-3.55-1-5.68S67.47,19.68,64.21,21s1.85,5.34,3.54,6.13c0,0-4.78-1.75-8.43-.45s-2.08,4.44,4.16,4.49"/><path class="cls-8" d="M42.67,65.29s.87-19.23-11.37-29.94-20.81-11-22.06-10.06c-1.88,1.34,3.87,15.33,9.18,25.61C22.9,59.58,27.53,66.5,42.67,65.29Z"/><path class="cls-9" d="M119,66.42s-8.89,7-18.5,8.62-13.71,2.86-25.12-.57-15.56-9.33-24-6-9.48,9.64-7.45,13.75S52.08,93.13,60.57,95.6a73.15,73.15,0,0,0,30.23,2A62.23,62.23,0,0,0,112.47,90c6.07-3.56,9.77-7.48,11.44-10.85,1.77-3.59,3-8.87,2.92-10.19s-.38-2.51-2-2.74a27.81,27.81,0,0,0-4.15.22A6,6,0,0,1,119,66.42Z"/><g class="cls-10"><path class="cls-11" d="M110.58,77.59c-3.41.66-13.63,5.45-25,4s-19.18-3.29-22.74-5.76-7.47-2.23-9,1,.19,10,6.87,13.43,16.49,6.54,26.71,5.07,16.84-4.7,19.83-9.07S111.31,77.45,110.58,77.59Z"/><path class="cls-12" d="M101.13,77.9c3.39,1.62,8.53,6.4,8.34,9.94S86,106.1,70.31,98.94s-25.79-12.87-23-20.71S51.4,66.82,62.23,70,99.29,77,101.13,77.9Z"/><path class="cls-13" d="M51.85,74.51c.93,3.31,11.9,10,24,10.79s22.88,1,29.38-2.1,9.16-4.76,10.12-7.31S110.2,68,110.2,68s-22.6,8.08-29.92,6.29-23.59-7.82-26.56-9.68S50.85,71,51.85,74.51Z"/></g><path class="cls-1" d="M110.58,77.59c-3.41.66-13.63,5.45-25,4s-18.92-3.72-22.74-5.76c-3.65-2-7.7-1.28-9,1C52,80,54,86.84,60.68,90.3s16.49,6.54,26.71,5.07,16.84-4.7,19.83-9.07S111.31,77.45,110.58,77.59Z"/><path d="M123.34,66.23a6.2,6.2,0,0,1,2.27.24,2.59,2.59,0,0,1,1.31,2.12c.15,1.28-2.08,2.83-2.77,2.9S120.61,70.65,120,69s.15-2.26.75-2.43A12.4,12.4,0,0,1,123.34,66.23Z"/><path class="cls-14" d="M138,81.66s-2.78,7.92,5.4,10.28c0,0-10-3.79-12.56,1.78,0,0,.76-9.87-.85-10.63C130,83.09,136.62,83.26,138,81.66Z"/><path class="cls-14" d="M46.71,100.87s-4.51,4.29-4.65,6.19c0,0-8.69-7.11-11.17-7.55,0,0,7.64-1.85,8.37-4.34C39.26,95.17,40.13,99.41,46.71,100.87Z"/></g></g></svg>