<svg xmlns="http://www.w3.org/2000/svg" xmlns:xlink="http://www.w3.org/1999/xlink" viewBox="0 0 421.6 576.11"><defs><style>.cls-1,.cls-19,.cls-3,.cls-5{fill:none;}.cls-2,.cls-8{fill:#c0a5b4;}.cls-10,.cls-11,.cls-12,.cls-14,.cls-15,.cls-16,.cls-17,.cls-2,.cls-20,.cls-21,.cls-4,.cls-8{fill-rule:evenodd;}.cls-10,.cls-11,.cls-12,.cls-14,.cls-15,.cls-17,.cls-19,.cls-21,.cls-3,.cls-4,.cls-5,.cls-8{stroke:#000;stroke-linejoin:round;}.cls-10,.cls-11,.cls-12,.cls-14,.cls-15,.cls-17,.cls-19,.cls-21,.cls-3,.cls-4,.cls-8{stroke-linecap:round;}.cls-4{fill:#615a52;}.cls-6{clip-path:url(#clip-path);}.cls-7{clip-path:url(#clip-path-2);}.cls-9{clip-path:url(#clip-path-3);}.cls-10{fill:#f7e8ed;}.cls-11{fill:#ffe3c3;}.cls-12{fill:#7b2325;}.cls-13{clip-path:url(#clip-path-4);}.cls-14{fill:#f06b6b;}.cls-15,.cls-16{fill:#fff;}.cls-17{fill:#1c1c1c;}.cls-18{clip-path:url(#clip-path-7);}.cls-19{stroke-width:3px;}.cls-21{fill:#674a5c;}.cls-22{fill:#fcb042;stroke:#562f09;stroke-miterlimit:10;}.cls-23{fill:#ed9520;}.cls-24{fill:#fce8c8;}.cls-25{fill:#e44b86;stroke:#b53167;}.cls-25,.cls-26{stroke-miterlimit:10;}.cls-26{fill:#a0a0b1;stroke:#71717f;}</style><clipPath id="clip-path" transform="translate(30.59)"><path class="cls-1" d="M207.07,249.55c1.58-6.1,6.55-7.68,8.58-7.23,3.28.68,60.23,20,61.36,19.89s51.53-24.75,51.3-25.2c-1.13-3.17-1.8-5.09,3.17-21,3.28-10.17,15.48-6.67,21.81-4.63,5.31,1.69,14.35,7.91,13,13.44-4.74,19.21-9.6,20-22.94,26-5.65,2.49-59.66,33.11-67.34,33.68-6.9.45-62-22.49-65.43-25.09A9.68,9.68,0,0,1,207.07,249.55Z"/></clipPath><clipPath id="clip-path-2" transform="translate(30.59)"><path class="cls-1" d="M162.43,253.28c.45-6-4.63-9.15-5-9.38-1.58-1.24-54.24-5.42-55.26-5.76S45,208.76,44.91,208.19c-2.82-10.39-8.25-16.38-17.06-21-9.38-5-11.53-5.65-21.47,9.72C-2.55,210.56-.4,213.73,9.43,219.6c7.8,4.64,14.46,8.71,25.43,7.46.45,0,56,28.93,62.82,30.74,5.54,1.58,55,6.55,57.86,5C155.88,262.32,161.87,259.83,162.43,253.28Z"/></clipPath><clipPath id="clip-path-3" transform="translate(30.59)"><path class="cls-1" d="M188.8,215.91c-13.41,0-31.06,4.6-40.33,14.72-4.92,5.39-9.16,22.75-9.5,23.93-.78,2.89-4.36,44.7-6.81,63.76-1.68,13.54-5.48,31.42-6.48,45.1-.67,9.59-2.24,22.61-.34,31.94,1.57,7.5,5.48,17.49,10.17,22.88,3.57,4.21,10.05,7.49,14.86,9.46,11.39,4.74,27.81,7.63,39.88,7.5,10.39-.13,24.35-3.16,34.3-7,4.47-1.71,10.39-4.6,14.07-7.76,5.37-4.6,12.18-12.35,14.75-19.58,3.35-9.21,2.46-23.41,2-33.4-.67-14.06-5.7-31.94-7.71-45.75-3.12-20.77-5.81-58.5-8.6-69.41-.89-3.68-3.8-16.57-8.15-21.43C221.42,220.38,202.87,215.91,188.8,215.91Z"/></clipPath><clipPath id="clip-path-4" transform="translate(30.59)"><path class="cls-1" d="M139.26,196.47c13.68,1.27,14.76,1.27,19.29,1.54,5.89.36,16.21,1.54,34,3.44,11.59,1.27,21.1,2.9,25.27,3.62,4.43.73,3.62.73,26.35,2.81,11.68,1.09,12.77-.36,13.94,1.9,2.09,3.9-1.45,12-14.58,19.65-7.69,4.53-18.38,5.89-21.91,6.7-12.05,2.72-22.46,2.18-34,.82-14.58-1.72-26.53-3.35-41.39-11.5-8-4.44-9.32-4.26-15.57-13.13-3.9-5.62-6.79-13.5-5.25-15.49C126.58,195.11,127.4,195.38,139.26,196.47Z"/></clipPath><clipPath id="clip-path-7" transform="translate(30.59)"><path class="cls-1" d="M201.84,52.94C227,55.74,249.38,63,264.68,82.37c20.83,26.35,22.37,61.67,16.67,91-2,10.05-7.34,23.54-10.69,31.42a73.33,73.33,0,0,1-36.49,37.49c-12.86,6.07-28.26,6.25-47.27,4.26-15.4-1.63-34.51-5.25-46.19-13.77-13.85-10.05-28.62-29-31.88-47.54-1.44-8.42-3.71-24-3.53-34.77.46-26.45,6.7-55.33,29.43-76.61C152.3,57.46,172.32,49.68,201.84,52.94Z"/></clipPath></defs><title>Alce glosa_5to0</title><g id="Layer_2" data-name="Layer 2"><g id="Frame_6" data-name="Frame 6"><g id="Alce"><g id="pierna_izq" data-name="pierna izq"><path class="cls-2" d="M215.32,552.25s2.59,7.58,12.56,7.16c9-.31,10.69-6.43,10.9-7.26.1-.42,6-63.13,2.25-76.31-3.53-12.67-15.94-72.18-18.54-73.43-.72-.31-7.16-1.76-14.53,2.08-7.79,4.05-10.59,9.86-10.48,11.31.1,2.7,15.52,54.95,21.13,67.1C222.45,491.41,214.49,549.86,215.32,552.25Z" transform="translate(30.59)"/><path class="cls-3" d="M238.78,552.15c.1-.42,6-63.13,2.25-76.31-3.53-12.67-15.94-72.18-18.54-73.43-.72-.31-7.16-1.76-14.53,2.08-7.79,4.05-10.59,9.86-10.48,11.31.1,2.7,15.52,54.95,21.13,67.1,3.84,8.4-4,66.86-3.29,69.35" transform="translate(30.59)"/></g><g id="pierna_der" data-name="pierna der"><path class="cls-2" d="M123.51,555.05c-.11.11-3,2.91-10.8,3.33-8.2.41-11.63-2.29-11.63-2.29s19.14-70.58,24.13-84.39c4.36-12.14,17.75-63.32,20.34-66,1.15-1.25,7.17-5.4,15.16-2a14.88,14.88,0,0,1,9,12.25c0,4-16.19,52.63-21.38,64.15C143.48,490.81,123.61,555,123.51,555.05Z" transform="translate(30.59)"/><path class="cls-3" d="M101.08,556.09c0-.1,19.14-70.58,24.13-84.39,4.36-12.14,17.75-63.32,20.34-66,1.15-1.25,7.17-5.4,15.16-2a14.88,14.88,0,0,1,9,12.25c0,4-16.19,52.63-21.38,64.15-4.88,10.7-24.65,74.94-24.75,74.94" transform="translate(30.59)"/></g><g id="pata_izq" data-name="pata izq"><path class="cls-4" d="M213.45,557.23a51.58,51.58,0,0,0-1.87,6.75c-.52,2.91-1.35,9.45-1,10,.52.72,12.77,1.66,17.75,1.66a168.21,168.21,0,0,0,18.17-1.45c1-.32.94-4.68.83-6.75a30.62,30.62,0,0,0-2-8.31c-.1-.21-3.53-5.6-5.92-7-2.9-1.66-6.12-1.66-11.11-1.87-3.73-.11-9.34.21-12.25,2.49C214.7,553.81,214.07,555.78,213.45,557.23Z" transform="translate(30.59)"/></g><g id="pata_der" data-name="pata der"><path class="cls-4" d="M126.93,557a49.46,49.46,0,0,1,1.87,6.74c.52,2.91,1.35,9.45,1,10-.52.73-12.77,1.66-17.75,1.66A168.45,168.45,0,0,1,93.92,574c-1-.31-.93-4.67-.83-6.75a30.62,30.62,0,0,1,2-8.31c.11-.2,3.53-5.6,5.92-6.95,2.91-1.66,6.12-1.66,11.11-1.87,3.73-.1,9.34.21,12.25,2.49C125.69,553.6,126.31,555.57,126.93,557Z" transform="translate(30.59)"/></g><g id="bra_izq" data-name="bra izq"><g id="brazo_izq" data-name="brazo izq"><path class="cls-2" d="M207.07,249.55c1.58-6.1,6.55-7.68,8.58-7.23,3.28.68,60.23,20,61.36,19.89s51.53-24.75,51.3-25.2c-1.13-3.17-1.8-5.09,3.17-21,3.28-10.17,15.48-6.67,21.81-4.63,5.31,1.69,14.35,7.91,13,13.44-4.74,19.21-9.6,20-22.94,26-5.65,2.49-59.66,33.11-67.34,33.68-6.9.45-62-22.49-65.43-25.09A9.68,9.68,0,0,1,207.07,249.55Z" transform="translate(30.59)"/><path d="M207.07,249.55c1.58-6.1,6.44-8.14,8.7-7.68l-.23.9c-1.81-.45-6.78.68-8.47,6.78Z" transform="translate(30.59)"/><path d="M215.77,242c3.39.68,60.34,19.66,61.13,19.55l.11,1.58c-1.47,0-58.19-19.66-61.47-20.34Z" transform="translate(30.59)"/><path class="cls-5" d="M215.77,242l-.23.9" transform="translate(30.59)"/><path d="M276.9,261.53c.68,0,51.19-24.64,50.62-24.07l1.59-.57c-.23,1.47-50.74,26.11-52,26.33Z" transform="translate(30.59)"/><path class="cls-5" d="M276.9,261.53l.11,1.58" transform="translate(30.59)"/><path d="M327.52,237.35c-1.13-3.17-1.92-5.54,3.17-21.47l1.58.45c-5.09,15.93-4.41,17.29-3.28,20.45Z" transform="translate(30.59)"/><path class="cls-5" d="M327.52,237.35l1.59-.57" transform="translate(30.59)"/><path d="M330.69,215.88c3.73-10.74,16.49-7.12,22.82-5.09l-.45,1.58c-6.33-2-18-5.65-20.79,4.07Z" transform="translate(30.59)"/><path class="cls-5" d="M330.69,215.88l1.58.45" transform="translate(30.59)"/><path d="M353.63,210.68c5.53,1.81,14.8,8.25,13.44,14.46l-1.58-.34c1.47-4.86-7.23-10.85-12.43-12.54Z" transform="translate(30.59)"/><path class="cls-5" d="M353.63,210.68l-.46,1.58" transform="translate(30.59)"/><path d="M367.07,225.14c-4.86,19.32-10.17,20.57-23.39,26.56l-.68-1.47c13.34-6,17.74-6.33,22.49-25.43Z" transform="translate(30.59)"/><path class="cls-5" d="M367.07,225.14l-1.58-.34" transform="translate(30.59)"/><path d="M343.68,251.7c-5.65,2.48-59.66,33.1-67.57,33.78L276,283.9c7.34-.45,61.24-31.07,67-33.56Z" transform="translate(30.59)"/><path class="cls-5" d="M343.68,251.7l-.68-1.47" transform="translate(30.59)"/><path d="M276.11,285.48c-7.23.45-62.26-22.82-65.65-25.53l.56-.68c3.28,2.6,58.53,25.2,65.09,24.63Z" transform="translate(30.59)"/><path class="cls-5" d="M276.11,285.48,276,283.9" transform="translate(30.59)"/><path d="M210.34,259.83c-.45-.34-4.74-4.52-3.27-10.28h0c-1.59,5.76,3.39,9.27,3.84,9.6Z" transform="translate(30.59)"/><path class="cls-5" d="M210.34,259.83l.57-.68" transform="translate(30.59)"/></g><g id="relleno"><g class="cls-6"><path class="cls-4" d="M334.42,244.35c6.21,5,15.93,13.67,23.73,12.09,17.06-3.39,36.38-32,31.64-48.7-3.85-13.33-27.58-18-41-21.7-9.95-2.82-27.24-9.83-34.47-2.37-10.85,11.41,4.18,37.4,11.87,51.19A39.12,39.12,0,0,0,334.42,244.35Z" transform="translate(30.59)"/></g></g></g><g id="brazo_der" data-name="brazo der"><g id="bra_der" data-name="bra der"><path class="cls-2" d="M162.43,253.28c.45-6-4.63-9.15-5-9.38-1.58-1.24-54.24-5.42-55.26-5.76S45,208.76,44.91,208.19c-2.82-10.39-8.25-16.38-17.06-21-9.38-5-11.53-5.65-21.47,9.72C-2.55,210.56-.4,213.73,9.43,219.6c7.8,4.64,14.46,8.71,25.43,7.46.45,0,56,28.93,62.82,30.74,5.54,1.58,55,6.55,57.86,5C155.88,262.32,161.87,259.83,162.43,253.28Z" transform="translate(30.59)"/><path d="M162.43,253.28c.45-6-5-8.82-5.31-9l.57-.68c.22.11,5.19,3.73,4.74,9.72Z" transform="translate(30.59)"/><path d="M157.12,244.24c-1.36-1.13-54-5-55.26-5.31l.57-1.58c.9.33,53.45,4.85,55.26,6.21Z" transform="translate(30.59)"/><path class="cls-5" d="M157.12,244.24l.57-.68" transform="translate(30.59)"/><path d="M101.86,238.81c-1.24-.45-57.29-29.38-57.85-30.51l1.58-.45c-.23.12,55.71,29,56.73,29.38Z" transform="translate(30.59)"/><path class="cls-5" d="M101.86,238.81l.57-1.58" transform="translate(30.59)"/><path d="M44,208.42c-2.71-10.29-7.91-15.94-16.73-20.57l.8-1.47C37,191.13,42.65,197.46,45.59,208Z" transform="translate(30.59)"/><path class="cls-5" d="M44,208.42l1.58-.45" transform="translate(30.59)"/><path d="M27.4,187.85c-9.38-5-10.51-5.76-20.45,9.38l-1.36-.9c10.06-15.37,13.11-14.92,22.49-10Z" transform="translate(30.59)"/><path class="cls-5" d="M27.4,187.85l.79-1.47" transform="translate(30.59)"/><path d="M6.94,197.23c-8.81,13.45-7,15.71,2.72,21.47l-.79,1.36C-1.08,214.18-3.34,210,5.59,196.21Z" transform="translate(30.59)"/><path class="cls-5" d="M6.94,197.23l-1.35-.9" transform="translate(30.59)"/><path d="M9.66,218.7c7.79,4.63,14.12,8.59,24.86,7.35l.22,1.58c-11.18,1.35-18.19-2.94-25.87-7.57Z" transform="translate(30.59)"/><path class="cls-5" d="M9.66,218.7l-.79,1.36" transform="translate(30.59)"/><path d="M34.63,226.05c.9,0,56.5,29,63.05,30.73l-.45,1.58c-6.89-1.92-62.6-30.85-62.49-30.73Z" transform="translate(30.59)"/><path class="cls-5" d="M34.63,226.05l.23,1.58" transform="translate(30.59)"/><path d="M97.68,256.78c5.43,1.47,54.81,6.67,57.41,5.2l.56,1c-3.16,1.58-52.66-3.17-58.31-4.75Z" transform="translate(30.59)"/><path class="cls-5" d="M97.68,256.78l-.45,1.58" transform="translate(30.59)"/><path d="M155.09,262.09c.67-.34,6.78-2.26,7.34-8.81h0c-.45,6.55-6.21,9.6-6.78,9.83Z" transform="translate(30.59)"/><path class="cls-5" d="M155.09,262.09l.56,1" transform="translate(30.59)"/></g><g id="relleno-2" data-name="relleno"><g class="cls-7"><path class="cls-4" d="M39.94,214.41c-4.52,7.45-7.8,20.79-15.82,24.4-14.69,6.67-45,1.93-52.54-12.31-6.56-12.32,7.91-32,15.14-43.85,5.42-8.81,13.11-25,23.5-25.31,17.29-.56,36.84,26.33,37.29,43.73C47.74,205.59,42.31,210.45,39.94,214.41Z" transform="translate(30.59)"/></g></g></g><g id="cuerpo"><g id="cuerpo-2" data-name="cuerpo"><path class="cls-8" d="M188.8,215.91c-13.41,0-31.06,4.6-40.33,14.72-4.92,5.39-9.16,22.75-9.5,23.93-.78,2.89-4.36,44.7-6.81,63.76-1.68,13.54-5.48,31.42-6.48,45.1-.67,9.59-2.24,22.61-.34,31.94,1.57,7.5,5.48,17.49,10.17,22.88,3.57,4.21,10.05,7.49,14.86,9.46,11.39,4.74,27.81,7.63,39.88,7.5,10.39-.13,24.35-3.16,34.3-7,4.47-1.71,10.39-4.6,14.07-7.76,5.37-4.6,12.18-12.35,14.75-19.58,3.35-9.21,2.46-23.41,2-33.4-.67-14.06-5.7-31.94-7.71-45.75-3.12-20.77-5.81-58.5-8.6-69.41-.89-3.68-3.8-16.57-8.15-21.43C221.42,220.38,202.87,215.91,188.8,215.91Z" transform="translate(30.59)"/></g><g id="detalle"><g class="cls-9"><path class="cls-10" d="M160.31,222.84c-12.07,14.57-20.22,40-19.44,40.36a94.92,94.92,0,0,1,9.61,3.59l-5.93,18.83,15.65-1.9s-5.7,18-5.14,18.61,19.66-7.74,19.66-7.74,11.39,16,15.75,16c2.68,0,14.19-15.47,14.19-15.47s17.32,8.4,17.87,8-3-15.81-3-15.81l15-3L227.11,267s7.38-1.12,11.4-1.68c.67-.11-4.69-21.64-21.12-45.3-4.13-5.94-18.43-16.82-28.26-16.48C178.74,203.66,165.22,216.89,160.31,222.84Z" transform="translate(30.59)"/></g></g></g><g id="cabeza"><g id="cabeza-2" data-name="cabeza"><path class="cls-8" d="M201.84,52.94C227,55.74,249.38,63,264.68,82.37c20.83,26.35,18.65,68.88,12.94,98.22-2,10-4.73,21.11-8.08,29-7.42,17.3-19.53,25.2-35.37,32.71-12.86,6.07-28.26,6.25-47.27,4.26-15.4-1.63-34.51-5.25-46.19-13.77-13.85-10.05-27.95-23.88-31.21-42.45-1.45-8.42-2-29-1.87-39.74.46-26.44,4.37-55.45,27.1-76.73C152.3,57.46,172.32,49.68,201.84,52.94Z" transform="translate(30.59)"/></g><g id="OREJA_DER" data-name="OREJA DER"><g id="oreja_Der-2" data-name="oreja Der"><path class="cls-2" d="M116.71,121c-6.43-2.45-24.45,13.4-34,17.47-12.22,5.26-27.8,7.52-28.52,11.05-.82,4.17,19,15.4,29,17.39,7.24,1.45,20.55-1.09,24.36-3.26,5.52-3.08,19.38-13.22,19.74-22.1C127.76,125.29,120.61,122.48,116.71,121Z" transform="translate(30.59)"/><path class="cls-3" d="M116.71,121c-6.43-2.45-24.45,13.4-34,17.47-12.22,5.26-27.8,7.52-28.52,11.05-.82,4.17,19,15.4,29,17.39,7.24,1.45,20.55-1.09,24.36-3.26" transform="translate(30.59)"/></g></g><g id="OREJA_IZQ" data-name="OREJA IZQ"><g id="oreja_Der-3" data-name="oreja Der"><path class="cls-2" d="M276.37,145.12c6.79-1.08,21.28,18,29.79,24.09,11,7.7,25.72,13,25.63,16.67C331.7,190.13,310,197.1,299.91,197c-7.33-.09-19.92-5.25-23.18-8.15-4.8-4.16-16.3-16.93-14.85-25.62C264.59,147,272.2,145.76,276.37,145.12Z" transform="translate(30.59)"/><path class="cls-3" d="M276.37,145.12c6.79-1.08,21.28,18,29.79,24.09,11,7.7,25.72,13,25.63,16.67C331.7,190.13,310,197.1,299.91,197c-7.33-.09-19.92-5.25-23.18-8.15" transform="translate(30.59)"/></g></g><g id="cuerno_der" data-name="cuerno der"><path class="cls-11" d="M144.7,78.56C127,85.36,99.24,77.12,82.39,68.42,65.28,59.64,37.93,42.16,37.11,22.87c-.36-8,6.16-22.64,14-22.37C57.13.68,56.22,16,62,17.17c6.61,1.35,11.77-14.86,18.29-13,6.7,1.9,2.17,20.28,9,21.46,6.43,1,8.25-17.21,14.67-16.12,12,2.17-2.08,30.25,4.9,40.12s18,15.3,35.67,18c2.45.36,6.71,1.9,7.07,4.34C152,74.85,147.32,77.57,144.7,78.56Z" transform="translate(30.59)"/></g><g id="cuerno_der_2" data-name="cuerno der 2"><path class="cls-11" d="M252.55,89.07c15.67,10.68,44.64,8.87,62.94,4.26,18.65-4.71,49.26-15.58,54.42-34.14,2.18-7.61-.81-23.46-8.6-25-5.89-1.18-8.42,14-14.4,13.77-6.7-.19-8.15-17.12-14.85-16.85-7,.27-6.7,19.29-13.68,18.84-6.52-.45-4.16-18.66-10.68-19-12.14-.63-4.8,29.89-13.86,38-9,8-21,10.86-38.85,9.5-2.44-.18-7,.28-7.78,2.63C246.3,83.73,250.19,87.44,252.55,89.07Z" transform="translate(30.59)"/></g><g id="boca"><g id="boca-2" data-name="boca"><path class="cls-12" d="M139.26,196.47c13.68,1.27,14.76,1.27,19.29,1.54,5.89.36,16.21,1.54,34,3.44,11.59,1.27,21.1,2.9,25.27,3.62,4.43.73,3.62.73,26.35,2.81,11.68,1.09,12.77-.36,13.94,1.9,2.09,3.9-1.45,12-14.58,19.65-7.69,4.53-18.38,5.89-21.91,6.7-12.05,2.72-22.46,2.18-34,.82-14.58-1.72-26.53-3.35-41.39-11.5-8-4.44-9.32-4.26-15.57-13.13-3.9-5.62-6.79-13.5-5.25-15.49C126.58,195.11,127.4,195.38,139.26,196.47Z" transform="translate(30.59)"/></g><g id="lengua"><g class="cls-13"><path class="cls-14" d="M141.34,226.63c.64-6.52,12-10,18.21-12.14,8.51-2.9,21-2.72,30-1.81,11.23,1.18,27.35,3.08,36.13,10,4.53,3.62,11.41,10.87,10.06,16.48C233.8,247,219.86,250,212.07,251.44c-15.94,3-38.94-.82-53.25-8.33C152.3,239.85,140.62,233.78,141.34,226.63Z" transform="translate(30.59)"/></g></g><g id="dientes"><g class="cls-13"><path class="cls-15" d="M99.42,137.43c2.26,3.89,61.76,10.41,96.89,14.12S294,158.07,294.12,158s2.08-34-5.71-45.37c-15.76-22.91-57.41-33.23-84.94-37-27.8-3.81-72.54-6.52-92.46,13.13C100.41,99.3,98.24,135.43,99.42,137.43Z" transform="translate(30.59)"/></g><g class="cls-13"><path class="cls-15" d="M286.87,238c-2.53-3.81-64.39.63-100.07-3.35-35-3.9-96.35-18.48-96.44-18.39s-5.34,43,4.26,57.32c15.39,23.1,57.41,33.24,84.94,37,27.8,3.81,72.17,6.16,92.46-13.13C285.33,284.76,288.41,240.3,286.87,238Z" transform="translate(30.59)"/></g></g></g><g id="ojos"><g id="ojos-2" data-name="ojos"><path class="cls-16" d="M144,150.08a33,33,0,0,1,.39-10.67c1.92-8,6.06-20,19.72-18.58,8.22.85,11.36,5.38,13.59,10.21,2.07,4.53,1.46,11.44.77,16.35a33.1,33.1,0,0,1-3.3,10.29c-1.92,3.45-7,6.83-10.9,7.36-5.38.85-13.51-.3-17.2-5.83A23.14,23.14,0,0,1,144,150.08Z" transform="translate(30.59)"/><path d="M144.06,139.25C146,131.2,150,118.68,164.17,120L164,121.6c-13.2-1.53-17.43,9.83-19.34,17.81Z" transform="translate(30.59)"/><path class="cls-5" d="M144.06,139.25l.54.16" transform="translate(30.59)"/><path d="M164.17,120c8.44.92,12,5.76,14.2,10.67l-1.46.69c-2.15-4.76-5-9-12.89-9.75Z" transform="translate(30.59)"/><path class="cls-5" d="M164.17,120,164,121.6" transform="translate(30.59)"/><path d="M178.37,130.66c2.07,4.76.92,11.82.23,16.65l-.38-.07c.69-4.84.69-11.75-1.31-16Z" transform="translate(30.59)"/><path class="cls-5" d="M178.37,130.66l-1.46.69" transform="translate(30.59)"/><path d="M175.3,157.75c-2,3.46-7,7-11,7.6l-.07-.61c3.84-.54,8.82-3.84,10.74-7.22Z" transform="translate(30.59)"/><path class="cls-5" d="M175.3,157.75l-.38-.23" transform="translate(30.59)"/><path d="M164.32,165.35c-5.45.84-13.81-.15-17.65-5.91l.77-.54c3.53,5.45,11.43,6.6,16.73,5.84Z" transform="translate(30.59)"/><path class="cls-5" d="M164.32,165.35l-.07-.61" transform="translate(30.59)"/><path d="M146.67,159.44c-1.92-2.92-2.45-6.52-2.92-9.36l.31-.08a23.63,23.63,0,0,0,3.38,8.9Z" transform="translate(30.59)"/><path class="cls-5" d="M146.67,159.44l.77-.54" transform="translate(30.59)"/><path class="cls-16" d="M249.29,159.53a29.25,29.25,0,0,0,2-10.51c-.3-8.21-1.38-21.1-15.11-22.64-8.52-.92-12.35,2.84-15.5,7-2.91,3.91-4,11-4.29,15.65a36.21,36.21,0,0,0,.84,10.82,17.36,17.36,0,0,0,8.9,9.59c5.06,2,13.2,2.76,18-1.77A21.7,21.7,0,0,0,249.29,159.53Z" transform="translate(30.59)"/><path d="M251.05,149c-.3-8.21-1.61-20.56-15-21.87l.16-1.61c14.27,1.76,15,15.19,15.34,23.4Z" transform="translate(30.59)"/><path class="cls-5" d="M251.05,149h.54" transform="translate(30.59)"/><path d="M236.09,127.15c-8.28-1-11.66,2.61-14.8,6.68l-1.31-1c3.15-4.14,7.44-8.21,16.19-7.29Z" transform="translate(30.59)"/><path class="cls-5" d="M236.09,127.15l.16-1.61" transform="translate(30.59)"/><path d="M221.29,133.83c-2.84,3.68-4.38,10.58-4.76,15.19h-.38c.38-4.68.84-12.05,3.91-16.11Z" transform="translate(30.59)"/><path class="cls-5" d="M221.29,133.83l-1.31-1" transform="translate(30.59)"/><path d="M217.45,159.84c1.07,3.68,5.22,8,8.82,9.36l-.23.53c-3.76-1.46-7.82-6.06-9-9.82Z" transform="translate(30.59)"/><path class="cls-5" d="M217.45,159.84l-.38.15" transform="translate(30.59)"/><path d="M226.27,169.2c5,2,13,2.6,17.65-1.85l.69.69c-5.06,4.68-13.43,3.76-18.49,1.77Z" transform="translate(30.59)"/><path class="cls-5" d="M226.27,169.2l-.23.53" transform="translate(30.59)"/><path d="M243.84,167.35a22.36,22.36,0,0,0,5.3-7.9l.3.16c-1.07,2.68-2.38,6.06-4.91,8.43Z" transform="translate(30.59)"/><path class="cls-5" d="M243.84,167.35l.69.69" transform="translate(30.59)"/></g><g id="pupilas"><path class="cls-17" d="M166.17,138.49c3.45.38,6,4.22,5.45,9s-3.92,7.9-7.37,7.52-6-4.22-5.45-9S162.71,138.1,166.17,138.49Z" transform="translate(30.59)"/><path class="cls-17" d="M229.88,143c3.3.39,5.52,4.38,5,9s-3.61,8-6.91,7.6-5.52-4.38-5-9S226.58,142.65,229.88,143Z" transform="translate(30.59)"/></g></g><g id="cejas"><g class="cls-18"><path class="cls-19" d="M149,93.05s10-4.34,18-3c7.25,1.17,14.67,7.69,14.67,7.69" transform="translate(30.59)"/></g><g class="cls-18"><path class="cls-19" d="M253.82,99.3s-9.42-5.88-16.39-6.16c-6.34-.27-15.22,4.35-15.22,4.35" transform="translate(30.59)"/></g></g><g id="nariz"><g class="cls-18"><path class="cls-20" d="M180.1,179a3.23,3.23,0,0,1,2.27,1.63,3.09,3.09,0,0,1-.18,2.36c-.55,1-1.82,2.26-2.9,2.17-.82,0-1.72-1-2.08-1.72a3.53,3.53,0,0,1,.09-2.9A3.69,3.69,0,0,1,180.1,179Z" transform="translate(30.59)"/></g><g class="cls-18"><path class="cls-20" d="M208.63,182.25a3.21,3.21,0,0,1,2.26,1.63,3.09,3.09,0,0,1-.18,2.36c-.54,1-1.81,2.26-2.9,2.17-.81,0-1.72-1-2.08-1.72a3.61,3.61,0,0,1,.09-2.9A3.69,3.69,0,0,1,208.63,182.25Z" transform="translate(30.59)"/></g></g><g id="Mechon"><path class="cls-21" d="M188.89,65.89c-2.54-10,3.26-26.45,12-32.24,13.4-9,28.44-4.08,28.44-4.08s-11.6,3.26-15.4,6.43c-2.26,1.81-5.7,7.79-5.7,7.79s11.5-4.26,22.09-3.17c4.17.45,13.4,3.71,13.5,3.71s-20.38,5.44-27.17,11.05c-4,3.26-5.71,11.05-9.87,14.13-2.9,2.08-8,4.8-11.32,3.8C192.78,72.5,189.61,68.69,188.89,65.89Z" transform="translate(30.59)"/></g></g></g><rect class="cls-22" x="290.28" y="224.08" width="88.96" height="15.67" transform="translate(64.02 505.88) rotate(-76.99)"/><rect class="cls-23" x="287.36" y="226.5" width="88.96" height="8.51" transform="translate(62.89 502.14) rotate(-76.99)"/><path class="cls-24" d="M332.84,277.64l-10.59,13.71a1.18,1.18,0,0,1-1.56.41,1.22,1.22,0,0,1-.52-.73l-3.63-17.12Z" transform="translate(30.59)"/><path d="M319.45,287.61l.72,3.32a1,1,0,0,0,1.35.83,1.18,1.18,0,0,0,.73-.52l2.08-2.59Z" transform="translate(30.59)"/><path class="cls-25" d="M349.14,178.81l-3-.62c-4.15-.93-7.89,2.29-8.41,4.36h0c-.52,2.08-.52,3.95,1.66,4.47l10.8,2.49c2.07.52,2.8-1.15,3.21-3.33h0C354,184.11,352.36,179.54,349.14,178.81Z" transform="translate(30.59)"/><path class="cls-26" d="M336.58,184.84l17.23,3.94a.79.79,0,0,1,.52.73l-1.45,6.43a.8.8,0,0,1-.73.52l-17.23-3.94a.78.78,0,0,1-.52-.73l1.45-6.44C335.85,184.94,336.16,184.73,336.58,184.84Z" transform="translate(30.59)"/></g></g></svg>