<svg xmlns="http://www.w3.org/2000/svg" xmlns:xlink="http://www.w3.org/1999/xlink" viewBox="0 0 381.63 561.14"><defs><style>.cls-1,.cls-24,.cls-6,.cls-8{fill:none;}.cls-2,.cls-5,.cls-7{fill:#d89955;}.cls-12,.cls-14,.cls-16,.cls-18,.cls-2,.cls-22,.cls-24,.cls-4,.cls-6,.cls-7,.cls-8{stroke:#000;}.cls-12,.cls-14,.cls-16,.cls-18,.cls-2,.cls-22,.cls-24,.cls-4,.cls-6{stroke-linecap:round;}.cls-12,.cls-14,.cls-16,.cls-18,.cls-2,.cls-22,.cls-24,.cls-4,.cls-6,.cls-8{stroke-linejoin:round;}.cls-12,.cls-14,.cls-16,.cls-18,.cls-2,.cls-20,.cls-22,.cls-4,.cls-5,.cls-7{fill-rule:evenodd;}.cls-3{clip-path:url(#clip-path);}.cls-4{fill:#ffe8c6;}.cls-28,.cls-29,.cls-7{stroke-miterlimit:10;}.cls-9{clip-path:url(#clip-path-2);}.cls-10{clip-path:url(#clip-path-3);}.cls-11{clip-path:url(#clip-path-4);}.cls-12{fill:#fea49c;}.cls-13{clip-path:url(#clip-path-5);}.cls-14{fill:#7b2325;}.cls-15{clip-path:url(#clip-path-6);}.cls-16{fill:#f06b6b;}.cls-17{clip-path:url(#clip-path-7);}.cls-18,.cls-20{fill:#fff;}.cls-19{clip-path:url(#clip-path-8);}.cls-21{clip-path:url(#clip-path-9);}.cls-22{fill:#1c1c1c;}.cls-23{clip-path:url(#clip-path-10);}.cls-24{stroke-width:3px;}.cls-25{fill:#fcb042;stroke:#562f09;stroke-miterlimit:10;}.cls-26{fill:#ed9520;}.cls-27{fill:#fce8c8;}.cls-28{fill:#e44b86;stroke:#b53167;}.cls-29{fill:#a0a0b1;stroke:#71717f;}</style><clipPath id="clip-path" transform="translate(0 0.36)"><path class="cls-1" d="M64.31,380.13c-10.22-22.66,4.89-47.75-8.88-80.07-6-14.22-21.55-28.32-21.55-28.32s22.55-8.67,44.09-.34c27.32,10.44,33.32,23.44,40.54,38.54,5.11,10.77-1.44,28.88,4.11,39.32,12.1,23,28.21,22.88,41.54,30.87,4.55,2.67-1.78,10.89-5.11,13.33C136.72,410.34,82,419.56,64.31,380.13Z"/></clipPath><clipPath id="clip-path-2" transform="translate(0 0.36)"><path class="cls-1" d="M194.14,202.45c-12.56-.23-29.07,3.36-37.89,12-4.88,4.87-8.93,20.27-9.34,22-1.35,4.63-6.23,41.23-8.83,58.84-2.8,19.57-12.56,45.86-9.13,65.32,1.24,7.18,5.29,16.79,10.27,21.43,12.15,11.35,35.51,14.47,51.39,14.13,14-.23,33.22-5.45,44.95-14,5.19-3.82,11.63-10.54,13.81-17.37,6.12-19-1.77-46.79-3.33-67.06-1.45-19.34-3.63-52.7-6.12-62.54-.73-3.13-3.11-14.37-7-18.65C224.24,207.08,207.12,202.68,194.14,202.45Z"/></clipPath><clipPath id="clip-path-3" transform="translate(0 0.36)"><path class="cls-1" d="M206.59,40.23C232,42.77,261,47.39,278.34,68.67c21.1,26,15.35,63.46,14.13,91.15-.38,7.91-2.73,21.38-3.58,25.33-1.22,5.93-35.6,22.88-52.45,29.29-13.28,5-35.22,11.2-46.05,10.07-14-1.5-40.11-10.83-55.37-19.68-13.75-7.91-39.17-28.34-40.21-34.18-.75-4.24.1-22.6,1.13-33.05,2.64-24.86,2.73-57.73,26-79.1C143.87,38.63,177.11,37.22,206.59,40.23Z"/></clipPath><clipPath id="clip-path-4" transform="translate(0 0.36)"><path class="cls-1" d="M161.2,56.33c-.66-10.6-13.65-35.12-26.55-43.13C103.76-5.91,57.34.21,51.5,7.93,46.22,14.8,66.28,55.77,80.12,71.49c5.84,6.69,20.44,15.45,25,16.29,6.78,1.23,31-3.39,41.53-11C152.82,72.34,160.92,60.85,161.2,56.33Z"/></clipPath><clipPath id="clip-path-5" transform="translate(0 0.36)"><path class="cls-1" d="M249.15,65.28c2.07-9,18.83-31.36,30.7-40.87C297.65,10.19,322.32-1.2,328,1.06c11.2,4.33,10.45,73.92-8.19,96-5.65,6.59-22,11-26.65,10.92-7-.18-31.93-9.32-39.55-20.05C249.62,82.23,248.21,69.33,249.15,65.28Z"/></clipPath><clipPath id="clip-path-6" transform="translate(0 0.36)"><path class="cls-1" d="M142.18,186.28c7.91,2.45,12.24,4.24,21.37,6.22a218.65,218.65,0,0,0,29.1,4.23c7.35.76,12.53,1.7,24.48,1.23,9.23-.38,15.26-2.45,25.71-3.86,6.41-.85,12.43-.95,12.53-.76s-4.34,11.4-10.17,16.2c-9.42,4.8-15.73,6.59-25.62,9.23-11.39,2.07-18.83,1-29.94-.19-13.09-1.41-21.47-1.79-34.65-7.63-8.57-3.76-13-5.37-19.21-12.8-4.81-5.84-7.07-16.3-7.07-16.3S137.19,184.68,142.18,186.28Z"/></clipPath><clipPath id="clip-path-7" transform="translate(0 0.36)"><path class="cls-1" d="M142.18,186.28c7.91,2.45,12.24,4.24,21.37,6.22a218.65,218.65,0,0,0,29.1,4.23c7.35.76,12.53,1.7,24.48,1.23,9.23-.38,15.26-2.45,25.71-3.86,6.41-.85,12.43-.95,12.53-.76s-4.34,11.4-10.17,16.2c-9.33,5-15.54,6.4-25.62,9.23-11.39,2.07-18.92,1.22-30,0-13.08-1.41-21.37-1.89-34.55-7.72-8.57-3.77-13-5.37-19.21-12.81C131,192.4,128.71,182,128.71,182S137.19,184.68,142.18,186.28Z"/></clipPath><clipPath id="clip-path-8" transform="translate(0 0.36)"><path class="cls-1" d="M142.18,186.28c7.91,2.45,12.24,4.24,21.37,6.22a218.65,218.65,0,0,0,29.1,4.23c7.35.76,12.53,1.7,24.48,1.23,9.23-.38,15.26-2.45,25.71-3.86,6.41-.85,12.43-.95,12.53-.76s-3.39,11.59-10.17,16.2-15.07,6.12-25.62,9.23c-11.39,2.07-18.82,1.57-29.93.34-13.09-1.41-21.48-2.23-34.66-8.06-8.57-3.77-13-5.37-19.21-12.81C131,192.4,128.71,182,128.71,182S137.19,184.68,142.18,186.28Z"/></clipPath><clipPath id="clip-path-9" transform="translate(0 0.36)"><path class="cls-1" d="M267.3,149.87c1.37-2.63,3.14-6.62,2.82-9.68-1-8.84-3.94-20.39-18-22.85-13.6-2.38-20,4.25-25.12,11.3a28.3,28.3,0,0,0-4.5,12.74c-.17,2.29.08,5.69,1.28,7.64,3.79,5.95,13.37,10.19,20.13,11.13,5.63.76,13.85-.94,18.59-4.25C264.41,154.71,266.26,152,267.3,149.87Z"/></clipPath><clipPath id="clip-path-10" transform="translate(0 0.36)"><path class="cls-1" d="M128.9,138c-1-3.12-1.93-7.81-.88-10.93,2.74-8.42,7.58-19.09,21.37-18.74,14,.35,19.35,8.42,23.22,16.48a28.52,28.52,0,0,1,2,14c-.24,2.34-1.12,5.64-2.74,7.38C167,151.4,156.8,153.48,150,153c-5.8-.43-13.71-4-17.82-8.33C130.68,143.07,129.55,140.21,128.9,138Z"/></clipPath></defs><title>Zorro glosa_5to0</title><g id="Layer_2" data-name="Layer 2"><g id="Frame_6" data-name="Frame 6"><g id="ZORRO"><g id="Cola"><g id="cola-2" data-name="cola"><path class="cls-2" d="M64.31,380.13c-10.22-22.66,4.89-47.75-8.88-80.07-6-14.22-21.55-28.32-21.55-28.32s22.55-8.67,44.09-.34c27.32,10.44,33.32,23.44,40.54,38.54,5.11,10.77-1.44,28.88,4.11,39.32,12.1,23,28.21,22.88,41.54,30.87,4.55,2.67-1.78,10.89-5.11,13.33C136.72,410.34,82,419.56,64.31,380.13Z" transform="translate(0 0.36)"/></g><g id="Relleno_cola" data-name="Relleno cola"><g class="cls-3"><path class="cls-4" d="M61.42,334.15c1.78-6.66,6-14.66,6.56-14,2.88,3.44,6.33,17.43,23.54,21.88,1.11.22,5.11-23,11.88-21.22.78.23,3.89,5.67,11.78,9.89.44.22,20.21-35.87,13.77-50.09-13.22-29.43-73.75-49.87-102-34.1-13.1,7.33-21.65,32.21-18,46.87C13.89,312.83,56.2,353.37,61.42,334.15Z" transform="translate(0 0.36)"/></g></g></g><g id="pierna_izq" data-name="pierna izq"><path class="cls-5" d="M220,530.07c.11.16.21,21,12.46,20,11.52-1,10.49-20,10.59-20.34s-2-50.12-2.6-71.08c-.62-20.18-.41-64.47-1.45-68.25-.52-1.74-3.43-24.59-15.67-22.86s-12.46,23.8-12.67,26.8c-.21,4.1,2.91,47.6,4.36,67.93C216.39,482.78,220,529.91,220,530.07Z" transform="translate(0 0.36)"/><path class="cls-6" d="M243,536.41c.1-.47-2-56.78-2.6-77.74-.62-20.18-.42-64.47-1.45-68.25-.52-1.74-3.43-24.59-15.68-22.86s-12.46,23.8-12.66,26.8c-.21,4.1,2.9,47.6,4.36,67.93s5,74.12,5.08,74.28" transform="translate(0 0.36)"/></g><g id="pierna_der" data-name="pierna der"><path class="cls-5" d="M139.38,537.74c-.11.31-.21,14.67-10.18,15.76-11,1.1-12.46-15.14-12.46-15.14,0-.31,6.44-52.15,10.28-74.16,3.32-18.89,11.42-56.83,13-62,1-3.59,6.75-29.2,19.72-21.7,12.25,7,5.61,31.38,5.3,33.72-.73,6.09-10.28,41.22-14.23,59.17C146.64,491.83,139.69,536.8,139.38,537.74Z" transform="translate(0 0.36)"/><path class="cls-6" d="M116.64,538.2c0-.31,6.44-52.14,10.28-74.16,3.32-18.89,11.42-56.83,13-62,1-3.59,6.75-29.19,19.73-21.7,12.25,7,5.6,31.38,5.29,33.72-.72,6.09-10.27,41.22-14.22,59.17-4.05,18.43-11,63.55-11.31,64.33" transform="translate(0 0.36)"/></g><g id="pata_izq" data-name="pata izq"><path class="cls-2" d="M217.84,536c-5.71.31-7.79,7.58-9,11.83-.94,3-.42,10,.41,10.59S224.17,560,229.88,560c7.58.1,26.16-.52,27.1-1.56.52-.52,2.7-10.28.93-14.22-1.14-2.39-5.61-5-6.85-5.71a48,48,0,0,0-7.48-2.18c-1.66-.42-2.9-.52-5.5-.93-3.42-.52-8.2-.21-11.62-.11C223.86,535.36,222.1,535.77,217.84,536Z" transform="translate(0 0.36)"/></g><g id="pata_der" data-name="pata der"><path class="cls-2" d="M139.58,537.33c2.39,2.39,3.84,6.85,4.57,10.17s.31,10.59-.1,11.11c-1.15,1.35-23.78,1.76-32.91,1.66-3.84,0-11.32-.1-13.6-.83-.52-.21-3.32-5.81-3.43-8.51-.1-3.22-.83-7.69,6.65-13,4.25-3,14.43-2.91,15.57-3a57.33,57.33,0,0,1,7.27-.52,52.29,52.29,0,0,1,10.69.83C136,535.67,138.86,536.6,139.58,537.33Z" transform="translate(0 0.36)"/></g><g id="brazo_izq" data-name="brazo izq"><path class="cls-7" d="M210.44,244c-.85-6.64,3.37-10.13,5.55-10.62,3.49-.6,67.41-4.58,68.26-4.82S340,195.38,339.73,194.9a24.31,24.31,0,0,1,2.77-21.83c6.75-10.13,17-7.48,24.24-4.1,6.76,3.14,12.43,16.88,10.62,25.09-2.42,10.85-12.06,17.12-25.81,19.17-3.74.61-57.05,35.7-63,37.51-5.55,1.69-66.57,3-70.68,1.81C217.31,252.19,211.16,250.26,210.44,244Z" transform="translate(0 0.36)"/><path d="M206.64,336.49c-.73-5.71,2.7-9.13,4.78-9.44l.1.83c-1.77.2-5.61,2.9-4.88,8.61Z" transform="translate(0 0.36)"/><path d="M213,344.17c-.52-.2-5.6-2.18-6.33-7.68h0c.62,5.4,6,6.75,6.54,6.85Z" transform="translate(0 0.36)"/><path class="cls-8" d="M213,344.17l.21-.72" transform="translate(0 0.36)"/></g><g id="brazo_der" data-name="brazo der"><path class="cls-7" d="M158.89,239.11c.48-6.4-4.95-9.77-5.31-10-1.69-1.33-56.8-6.4-58.37-7.24S45.52,178.56,45.52,178c-.36-8.32-2.41-14.84-11.34-21.47-11-8.2-23.88-4.94-31.12,6.63-4,6.28-3.13,16,1.21,21.95,5.91,8.21,16.64,10.86,26.17,9.89.48,0,48.85,44,57.53,47.64,7.48,3,60.18,8.08,63.32,6.4C152,248.75,158.41,246.1,158.89,239.11Z" transform="translate(0 0.36)"/><path d="M162.73,332.82c.42-5.5-4.46-8.1-4.77-8.31l.52-.62c.2.21,4.67,3.43,4.25,8.93Z" transform="translate(0 0.36)"/><path class="cls-8" d="M158,324.51l.52-.62" transform="translate(0 0.36)"/><path d="M156,340.92c.63-.31,6.34-2.08,6.75-8.1h0c-.52,6-5.81,8.72-6.23,9Z" transform="translate(0 0.36)"/><path class="cls-8" d="M156,340.92l.52.93" transform="translate(0 0.36)"/></g><g id="cuerpo"><g id="cuerpo-2" data-name="cuerpo"><path class="cls-2" d="M194.14,202.45c-12.56-.26-29.07,3.81-37.89,13.66-4.88,5.52-8.93,23-9.34,25-1.35,5.25-6.23,46.76-8.83,66.73-2.8,22.2-12.56,52-9.13,74.08,1.24,8.15,5.29,19.05,10.27,24.31,12.15,12.87,35.51,16.42,51.39,16,14-.26,33.22-6.17,44.95-15.89,5.19-4.34,11.63-12,13.81-19.71,6.12-21.54-1.77-53.06-3.33-76.05-1.45-21.94-3.63-59.77-6.12-70.94-.73-3.54-3.11-16.28-7-21.14C224.24,207.7,207.12,202.71,194.14,202.45Z" transform="translate(0 0.36)"/></g><g id="detalle"><g class="cls-9"><path class="cls-4" d="M161.13,205.11c-16,22-9.14,67.29-8.31,66.25,7.37-9,19.52-14.13,19.52-14.13s-6.75,20.5-.11,27.68a187.35,187.35,0,0,1,20.56,27.34s14.84-17.38,23.15-26.87c5.71-6.49,2.18-27,2.18-27S233,264,237.32,271.48c.42.81,8.83-33.94-10.27-66.25-4.26-7.3-22.63-13.67-33.33-13.55C183.24,191.79,165.9,198.51,161.13,205.11Z" transform="translate(0 0.36)"/></g></g></g><g id="cabeza"><g id="cabeza-2" data-name="cabeza"><path class="cls-2" d="M206.59,40.23C232,42.77,261,47.39,278.34,68.67c21.1,26,15.35,63.46,14.13,91.15-.38,7.91-2.73,21.38-3.58,25.33-1.22,5.93-35.6,22.88-52.45,29.29-13.28,5-35.22,11.2-46.05,10.07-14-1.5-40.11-10.83-55.37-19.68-13.75-7.91-39.17-28.34-40.21-34.18-.75-4.24.1-22.6,1.13-33.05,2.64-24.86,2.73-57.73,26-79.1C143.87,38.63,177.11,37.22,206.59,40.23Z" transform="translate(0 0.36)"/></g><g id="barbilla"><g class="cls-10"><path class="cls-4" d="M83.61,157.47c28.62-21.29,94.73,20.81,111,21.94,15.72,1,81.55-28.25,104-3.86,6.4,7,8.66,21.28,7.44,30.69-1.32,10-8.1,23.45-16.29,29.38-41.34,29.85-123.64,27.31-170,5.94C99.33,232.14,71,208.88,69,186.56,68.07,176.58,75.79,163.21,83.61,157.47Z" transform="translate(0 0.36)"/></g></g><g id="OREJA_DER" data-name="OREJA DER"><g id="oreja_Der-2" data-name="oreja Der"><path class="cls-5" d="M160.42,56.69c.76-9.13-12.87-35.48-25.77-43.49C103.76-5.91,57.34.21,51.5,7.93,46.22,14.8,66.28,55.77,80.12,71.49,86,78.18,99.71,88,104.32,88.82c6.78,1.22,31.83-4.43,42.38-12.15C152.82,72.34,160.14,61.21,160.42,56.69Z" transform="translate(0 0.36)"/><path class="cls-6" d="M161.2,56.33c-2.34-9.82-13.65-35.12-26.55-43.13C103.76-5.91,57.34.21,51.5,7.93,46.22,14.8,66.28,55.77,80.12,71.49,86,78.18,100.09,87.12,104.7,88" transform="translate(0 0.36)"/></g><g id="relleno_oreja_der" data-name="relleno oreja der"><g class="cls-11"><path class="cls-12" d="M48.15,10.65c5.32-7,35.35,7.28,52.5,28.73s7.09,45.1,3.89,48.86c-3.67,4.33-28.37-11.19-38.35-20.7C55.17,57.18,42.83,17.67,48.15,10.65Z" transform="translate(0 0.36)"/></g></g></g><g id="OREJA_IZQ" data-name="OREJA IZQ"><g id="oreja_Der-3" data-name="oreja Der"><path class="cls-5" d="M249.15,65.28c2.07-9,18.27-30.8,30.13-40.31C297.08,10.75,322.22-1.11,328,1.06c11.2,4.33,10.45,73.92-8.19,96-5.65,6.59-22.23,10.92-26.84,10.83-7-.19-31.74-9.13-39.36-20C249.62,82.23,248.21,69.33,249.15,65.28Z" transform="translate(0 0.36)"/><path class="cls-6" d="M249.15,65.28c2.07-9,19.4-31.93,31.26-41.44C298.21,9.62,322.32-1.2,328,1.06c11.2,4.33,10.45,73.92-8.19,96-5.65,6.59-21.47,10.83-26,10.74" transform="translate(0 0.36)"/></g><g id="relleno_oreja_izq" data-name="relleno oreja izq"><g class="cls-13"><path class="cls-12" d="M332.83.19c-8.07-1.41-28.42,27.3-37.25,55.61s-3.74,49.7-1.57,54c2.54,5.09,35.28-.2,44.88-10C358.85,79.31,340.2,1.91,332.83.19Z" transform="translate(0 0.36)"/></g></g></g><g id="boca"><g id="boca-2" data-name="boca"><path class="cls-14" d="M142.18,186.28c7.91,2.45,12.24,4.24,21.37,6.22,12.06,2.63,22.51,4.23,29.1,5a136.94,136.94,0,0,0,24.48.47c8.86-.66,15.35-1.23,25.81-2.64,6.4-.85,12.33-2.07,12.43-2s-4.83,10.84-11,15.17a62.88,62.88,0,0,1-24.84,10.26c-11.39,2.07-18.76,2-29.87.74-13.09-1.42-21.54-2.72-34.72-8.56-8.57-3.76-13-5.37-19.21-12.8-4.81-5.84-7.07-16.3-7.07-16.3S137.19,184.68,142.18,186.28Z" transform="translate(0 0.36)"/></g><g id="lengua"><g class="cls-15"><path class="cls-16" d="M153.1,213.59c.28-5,8.76-7.91,13.37-9.7,6.41-2.45,15.82-2.64,22.6-2.26,8.48.56,20.81,1.51,27.69,6.5,3.58,2.63,8.94,7.91,8.1,12.14-1.23,5.94-11.68,8.67-17.52,10-12,2.73-29.47.56-40.58-4.71C161.86,223.29,152.82,219.05,153.1,213.59Z" transform="translate(0 0.36)"/></g></g><g id="dientes"><g class="cls-17"><path class="cls-18" d="M92,169.8c2.35,4,61.49,11,100.85,14.5s101.89,3.68,101.89,3.58S296,153.6,288,142.3c-16.86-23.44-60.17-33.61-88.9-37.1-28.9-3.48-75.52-5.65-96,15.16C92.55,131.19,90.86,167.73,92,169.8Z" transform="translate(0 0.36)"/></g><g class="cls-19"><path class="cls-18" d="M295.1,213.31c-2.82-4-65,5.74-105.27,1.79-39.27-3.87-100.1-21.76-100.1-21.66s-5.84,47.83,5,63.65c16.38,23.83,60.17,33.62,88.89,37.1,28.91,3.49,75.05,5.09,95.86-15.16C294,264.91,296.89,215.85,295.1,213.31Z" transform="translate(0 0.36)"/></g></g></g><g id="ojos"><g id="ojos-2" data-name="ojos"><path class="cls-20" d="M128.9,138c-1-3.12-1.93-7.81-.88-10.93,2.74-8.42,7.58-19.09,21.37-18.74,14,.35,19.35,8.42,23.22,16.48a28.52,28.52,0,0,1,2,14c-.24,2.34-1.12,5.64-2.74,7.38C167,151.4,156.8,153.48,150,153c-5.8-.43-13.71-4-17.82-8.33C130.68,143.07,129.55,140.21,128.9,138Z" transform="translate(0 0.36)"/><path d="M127.7,127c2.74-8.5,7.49-19.78,21.69-19.52l-.08,1.82c-13.39-.43-18.39,9.46-21.13,18Z" transform="translate(0 0.36)"/><path class="cls-8" d="M127.7,127l.56.18" transform="translate(0 0.36)"/><path d="M149.39,107.5c14.35.44,20.07,8.85,23.94,17l-1.45.78c-3.79-8.07-8.71-15.71-22.49-16.05Z" transform="translate(0 0.36)"/><path class="cls-8" d="M149.39,107.5l-.08,1.82" transform="translate(0 0.36)"/><path d="M173.33,124.51c1.86,4,2,10.15,1.54,14.4l-.41-.09c.49-4.16-.88-9.89-2.58-13.53Z" transform="translate(0 0.36)"/><path class="cls-8" d="M173.33,124.51l-1.45.78" transform="translate(0 0.36)"/><path d="M172,146.37c-4.91,5.2-15.16,7.46-22,6.94l.08-.69c6.77.52,16.93-1.39,21.69-6.6Z" transform="translate(0 0.36)"/><path class="cls-8" d="M172,146.37l-.32-.35" transform="translate(0 0.36)"/><path d="M150,153.31c-5.89-.43-13.95-3.9-18.14-8.33l.72-.78c4.12,4.34,11.78,8,17.5,8.42Z" transform="translate(0 0.36)"/><path class="cls-8" d="M150,153.31l.08-.69" transform="translate(0 0.36)"/><path d="M131.89,145c-1.53-1.65-2.42-4.68-3.15-6.85l.33-.09a17.66,17.66,0,0,0,3.46,6.25Z" transform="translate(0 0.36)"/><path class="cls-8" d="M131.89,145l.72-.78" transform="translate(0 0.36)"/><path class="cls-20" d="M267.3,149.87c1.37-2.63,3.14-6.62,2.82-9.68-1-8.84-3.94-20.39-18-22.85-13.6-2.38-20,4.25-25.12,11.3a28.3,28.3,0,0,0-4.5,12.74c-.17,2.29.08,5.69,1.28,7.64,3.79,5.95,13.37,10.19,20.13,11.13,5.63.76,13.85-.94,18.59-4.25C264.41,154.71,266.26,152,267.3,149.87Z" transform="translate(0 0.36)"/><path d="M269.8,140.27c-1.05-8.83-4.19-19.7-17.79-22l.24-1.78c14.41,2.63,17.07,14.78,18.11,23.7Z" transform="translate(0 0.36)"/><path class="cls-8" d="M269.8,140.27l.56-.08" transform="translate(0 0.36)"/><path d="M252,118.27c-13.28-2.38-19.24,4-24.31,11l-1.37-1.1c5.15-7,12.07-14,26-11.64Z" transform="translate(0 0.36)"/><path class="cls-8" d="M252,118.27l.24-1.78" transform="translate(0 0.36)"/><path d="M227.7,129.23c-2.26,3.06-4.67,8.24-5,12.23h-.41c.33-4.08,1.61-9.94,4-13.33Z" transform="translate(0 0.36)"/><path class="cls-8" d="M227.7,129.23l-1.29-1.1" transform="translate(0 0.36)"/><path d="M224,148.94c3.71,5.94,13.29,10,20,10.87l-.08.68c-6.76-.94-16.42-5.27-20.21-11.3Z" transform="translate(0 0.36)"/><path class="cls-8" d="M224,148.94l-.4.25" transform="translate(0 0.36)"/><path d="M244,159.89a29.34,29.34,0,0,0,18.27-4.33l.57.85c-4.91,3.31-13.21,4.93-18.92,4.08Z" transform="translate(0 0.36)"/><path class="cls-8" d="M244,159.89l-.08.68" transform="translate(0 0.36)"/><path d="M262.31,155.56a16.52,16.52,0,0,0,4.83-5.77l.33.17c-1.05,2.12-2.66,5.09-4.59,6.45Z" transform="translate(0 0.36)"/><path class="cls-8" d="M262.31,155.56l.57.85" transform="translate(0 0.36)"/></g><g class="cls-21"><path class="cls-22" d="M237.76,130.59c3.46.34,5.88,4.76,5.39,9.77s-3.62,8.83-7.16,8.49-5.88-4.76-5.39-9.77S234.22,130.25,237.76,130.59Z" transform="translate(0 0.36)"/></g><g class="cls-23"><path class="cls-22" d="M162.21,125.11c3.46.35,5.88,4.86,5.4,10s-3.63,9-7.18,8.68-5.88-4.86-5.4-10S158.66,124.68,162.21,125.11Z" transform="translate(0 0.36)"/></g></g><g id="cejas"><g class="cls-10"><path class="cls-24" d="M120.52,90.7s16.1-6.4,26.84-5.27c13.09,1.51,30.32,13.84,30.32,13.84" transform="translate(0 0.36)"/></g><g class="cls-10"><path class="cls-24" d="M274.76,104.17s-14.87-8.1-24.29-8.67c-12-.75-32,7.54-32,7.54" transform="translate(0 0.36)"/></g></g><g id="nariz"><g class="cls-10"><path class="cls-22" d="M194.63,174.42c3,.18,7.81.47,9.42,3a4,4,0,0,1,0,3.58c-1.7,2.92-7.07,4.14-10.46,4.05-2.92-.19-7.15-1.89-8.75-4.24-.76-1.13-1.42-3.39-.66-4.52C185.68,173.76,191.52,174.23,194.63,174.42Z" transform="translate(0 0.36)"/></g></g></g><g id="Mechon"><path class="cls-2" d="M224.49,49.75c-2.12-8.46-8.68-20.62-14.49-26.54-11.53-11.62-26.37-11.94-28.76-4.15-.93,3.11,6.64,3.63,9.65,5.29,2.81,1.56,8.41,5.3,8.41,5.3s-13.28-7.06-23.87-2.8c-2.81,1.14-7.58,3.94-7.37,6.95.31,6.13,10.38,4.57,15.88,6.33s9.47,8.23,14.56,10.55" transform="translate(0 0.36)"/></g></g><rect class="cls-25" x="308.71" y="185.83" width="88.96" height="15.67" transform="translate(84.99 494.55) rotate(-76.99)"/><rect class="cls-26" x="305.79" y="188.25" width="88.96" height="8.51" transform="translate(83.86 490.82) rotate(-76.99)"/><path class="cls-27" d="M351.29,239.39,340.7,253.1a1.17,1.17,0,0,1-1.56.41,1.23,1.23,0,0,1-.52-.72L335,235.66Z" transform="translate(0 0.36)"/><path d="M337.9,249.36l.72,3.32a1,1,0,0,0,1.35.83,1.21,1.21,0,0,0,.73-.52l2.07-2.59Z" transform="translate(0 0.36)"/><path class="cls-28" d="M367.59,140.57l-3-.63c-4.15-.93-7.88,2.29-8.4,4.36h0c-.52,2.08-.52,3.95,1.66,4.47l10.79,2.49c2.08.52,2.81-1.14,3.22-3.32h0C372.46,145.86,370.8,141.29,367.59,140.57Z" transform="translate(0 0.36)"/><path class="cls-29" d="M355,146.59l17.24,3.94a.8.8,0,0,1,.52.73l-1.46,6.43a.76.76,0,0,1-.72.52l-17.24-3.94a.8.8,0,0,1-.52-.73l1.46-6.43A.52.52,0,0,1,355,146.59Z" transform="translate(0 0.36)"/><path class="cls-7" d="M371.77,165.6c-6.23-2.91-15.36-3.43-20.86,3.53s-5.61,12.25-4.36,19.41,8.92,13.91,18.48,13.81,13.8-5.81,15.77-15.16C382.47,180.13,377.59,168.3,371.77,165.6Z" transform="translate(0 0.36)"/></g></g></svg>