<svg xmlns="http://www.w3.org/2000/svg" xmlns:xlink="http://www.w3.org/1999/xlink" viewBox="0 0 159.45 120.03"><defs><style>.cls-1,.cls-10,.cls-2{fill:none;}.cls-1,.cls-10,.cls-12,.cls-3,.cls-4,.cls-6,.cls-7,.cls-8,.cls-9{stroke:#000;stroke-miterlimit:10;}.cls-1,.cls-10,.cls-12,.cls-15,.cls-3,.cls-4,.cls-7,.cls-8,.cls-9{stroke-linecap:round;}.cls-1,.cls-3,.cls-4,.cls-6,.cls-7,.cls-8{stroke-width:0.25px;}.cls-3,.cls-5{fill:#c0a5b4;}.cls-4{fill:#615a52;}.cls-6{fill:#f7e8ed;}.cls-7{fill:#ffe3c3;}.cls-8{fill:#674a5c;}.cls-14,.cls-9{fill:#fff;}.cls-9{stroke-width:0.5px;}.cls-10{stroke-width:0.75px;}.cls-11{clip-path:url(#clip-path);}.cls-12{fill:#7e2d3a;}.cls-13{fill:#fea49c;}.cls-15{fill:#a0dbf0;stroke:#4a91cd;stroke-linejoin:round;}</style><clipPath id="clip-path"><path class="cls-1" d="M116.11,63.69c-3.32,1.23-12.9,8-24.43,8.08s-19.55-1-23.49-3c-4.31-2.29-7.76-1.37-8.92,2.41s1.51,10.94,8.64,13.77,17.35,4.8,27.37,1.7S111.5,79,113.91,73.76,116.82,63.43,116.11,63.69Z"/></clipPath></defs><title>Correct feedbacK_alce_5to0</title><g id="Layer_2" data-name="Layer 2"><g id="Layer_1-2" data-name="Layer 1"><rect class="cls-2" width="159.45" height="120.03"/><path class="cls-3" d="M106.56,93.47c4.45-2.12,21.74-17,27.79-24s8.78-10.71,9.39-11.53,9.27-7.88,9.15-9.88-6.68-11.17-10.38-11.29-8,8.82-8.9,9.88-9,15.88-12.72,19.52S104.21,83.12,101,84.53s-3.46,6-1.86,8.12S104.58,94.41,106.56,93.47Z"/><path class="cls-4" d="M139.19,50.56c2.32,1.22,4.47,6.71,4.42,7.4,0,0,2.93-2.55,4.09-3.61a38.32,38.32,0,0,0,4.88-5.29c.52-1,1.07-.81-2.44-6.12-3.22-4-5.84-6.13-7.51-6.25s-3.58,1.81-5.45,4.34A71.52,71.52,0,0,0,132,49.51S136.51,49.17,139.19,50.56Z"/><path class="cls-5" d="M79,120h45.35a65.5,65.5,0,0,0-5.46-9.06C111,100.26,96,79,87.48,80.59,74.35,83,72.12,91.45,74.44,98.71,74.9,100.15,78.57,117.06,79,120Z"/><path d="M78.83,120h.25c-.37-2.94-4.08-20-4.52-21.36-1.29-4-1-7.93.82-11,2.14-3.56,6.22-5.91,12.12-7a5.5,5.5,0,0,1,.91-.08c8,0,20.91,17.56,28.72,28.21l1.62,2.2a64.43,64.43,0,0,1,5.42,9h.28a64.51,64.51,0,0,0-5.5-9.14l-1.61-2.19C109.49,98,96.55,80.38,88.39,80.38a4.73,4.73,0,0,0-.93.09c-6,1.09-10.12,3.48-12.29,7.11-1.86,3.09-2.16,7.06-.85,11.17C74.76,100.11,78.44,117,78.83,120Z"/><path class="cls-6" d="M83.93,98.05c.27,2-4.07,6.61-3.09,7.73s4.84.83,5.47,1.3c.3.24-.46,3.59.83,6.54l6.3-1,5,5.82,7.48-3.8,6.89,4.51s4.62-4.51,4.64-4.51,3.18,4.22,3.44,4.28l1-3.33c-1.69-3.23-5.14-11-7.14-14.17-1.63-2.6-6.46-10.48-15-16.07C94.39,82,85.22,87,79.37,93.18,79.11,93.46,83.66,96.06,83.93,98.05Z"/><path class="cls-5" d="M69.4,120c-1.16-9.93,3.75-16.78,6.39-17L75.5,92c-2.43.29-20,15.23-17.87,28Z"/><path d="M75.61,92.89l.39,0-.17-.68-.39-.45c-1.45.17-8,5.5-12.91,12.19-2.86,3.9-6,10-5,16h.25c-1-5.92,2.15-12,5-15.88,4.72-6.44,10.92-11.64,12.59-12.06Z"/><path d="M75.52,102.92A5,5,0,0,0,72.69,105c-2.18,2.72-4.2,8.26-3.42,15h.25c-.78-6.65,1.21-12.13,3.37-14.81,1-1.25,1.84-1.92,2.69-2Z"/><path class="cls-7" d="M75,27.26c4-.89,9-1.22,12-6.36s3.34-6.5,3.46-9.76.41-4.28,2.32-4.54,1.76,3.82,4,4.14,1.48-6.18,4.69-6.23,3.34,4.15,4.29,7,3.79-1.19,4.07-3.13,5.2-3.08,5.28,6.07-11.9,14.43-18.23,16S80.48,32,77.09,31,72.77,27.76,75,27.26Z"/><path class="cls-3" d="M88.22,33.45A36.57,36.57,0,0,0,101,35.72c6.49.13,13.33-5.21,14.49-4.5s1.73,4.64-1.54,9.13S104.05,50,98.36,50.56"/><path class="cls-3" d="M63,25.91C74.45,22.54,87.2,22.27,96.85,29s12.72,19.29,16.92,21.39,8.25.14,9.64,1.26,5.18,12.3,1.82,20.83-24.61,21.67-46,20.69-28.94-8-34.95-21.39S37.85,33.32,63,25.91Z"/><path class="cls-3" d="M41.14,51.71c-.89,3.91-1.45,6.71-3.64,10.28-3.14,5.13-10.21,7.42-10.3,8.74s2.31,4,7,4S45.76,72.51,49,68.37"/><path class="cls-8" d="M55.18,29.82a11,11,0,0,1-.89-7.49c1.05-4,3.94-9.55,12.95-7.82,0,0-6.24.11-8,5.35,0,0,4.88-3,10-.52s9.64,8.44,9.64,8.44a48.61,48.61,0,0,0-9.16-2.9c-4-.68-7.25,3.11-7.25,3.11"/><path class="cls-7" d="M52.67,31.44c-4.94.43-11.17,2.19-16.37-3s-5.75-7-7-11-1.93-5.16-4.22-4.74-.72,5.41-3.19,6.65-3.82-7.09-7.54-5.93-2.42,6.43-2.54,10.34S7,23.67,6,21.36s-7-1.84-4,9.55S20.69,44.25,28.51,43.77s19.51-4.37,23.06-7S55.45,31.19,52.67,31.44Z"/><path class="cls-9" d="M80.83,52.22c.16-3.52-2.2-9.68-4.87-9.68-3.16,0-6.13,3.87-6.29,9.15s5.29,7.58,8.2,6.22C79.35,57.22,80.7,55.05,80.83,52.22Z"/><ellipse cx="78.37" cy="51.27" rx="2.41" ry="3.47" transform="translate(-4.25 7.17) rotate(-5.1)"/><path class="cls-9" d="M96.19,45.7c-.74-3-.65-6.77,1-7.67,2.09-1.17,5.86.77,7.34,5.31,1.44,4.39-3,7.7-5,6.72S96.79,48.12,96.19,45.7Z"/><ellipse cx="100.42" cy="45.4" rx="2.15" ry="3.21" transform="translate(-2.7 6.53) rotate(-3.67)"/><path class="cls-10" d="M64.31,44c.57-2.78,1.41-9.8,5.71-10.38s7,3.3,7,3.3"/><path class="cls-10" d="M92.27,34.75c.11-2.41.38-6.5,3-6.45,1.39,0,4.92,3.48,5.69,4.35"/><path class="cls-1" d="M114.82,56.93c-.66,0-1.48.53-1.9,1.72a2.75,2.75,0,0,0,.32,2.27"/><ellipse cx="116.02" cy="58.7" rx="0.62" ry="0.67"/><g class="cls-11"><path class="cls-12" d="M116.11,63.69c-3.32,1.23-12.9,8-24.43,8.08s-19.61-.84-23.49-3-7.76-1.37-8.92,2.41,1.51,10.94,8.64,13.77,17.35,4.8,27.37,1.7S111.5,79,113.91,73.76,116.82,63.43,116.11,63.69Z"/><path class="cls-13" d="M106.71,65.41c3.6,1.29,9.36,5.8,9.64,9.71S95.31,98.61,78.67,93,51.2,82.6,53,73.59,55.53,60.44,66.79,62.4,104.75,64.71,106.71,65.41Z"/><path class="cls-14" d="M57,68.83c1.37,3.51,13.21,9.3,25.38,8.39s23-2.17,29.08-6.57,8.53-6.57,9.16-9.51-6.15-8-6.15-8S92.93,65.34,85.38,64.43s-24.6-5.17-27.82-6.78S55.53,65.06,57,68.83Z"/></g><path class="cls-1" d="M116.11,63.69c-3.32,1.23-12.9,8-24.43,8.08s-19.55-1-23.49-3c-4.31-2.29-7.76-1.37-8.92,2.41s1.51,10.94,8.64,13.77,17.35,4.8,27.37,1.7S111.5,79,113.91,73.76,116.82,63.43,116.11,63.69Z"/><path class="cls-15" d="M152.49,80.83s-2.77,7.9,5.38,10.25c0,0-9.92-3.78-12.52,1.77,0,0,.76-9.83-.84-10.59C144.51,82.26,151.15,82.43,152.49,80.83Z"/><path class="cls-15" d="M61.56,100s-6.26,4.81-6.41,6.7c0,0-5.68-8.3-8.15-8.74,0,0,6.4-1.16,7.13-3.64C54.13,94.3,55,98.52,61.56,100Z"/></g></g></svg>