<svg xmlns="http://www.w3.org/2000/svg" viewBox="0 0 133.94 120.02"><defs><style>.cls-1,.cls-10{fill:none;}.cls-2,.cls-5,.cls-6,.cls-9{fill:#c0a5b4;}.cls-3{fill:#f7e8ed;}.cls-10,.cls-11,.cls-3,.cls-4,.cls-5,.cls-6,.cls-7,.cls-8,.cls-9{stroke:#000;stroke-miterlimit:10;}.cls-10,.cls-11,.cls-3,.cls-4,.cls-5,.cls-6,.cls-7{stroke-width:0.25px;}.cls-4{fill:#ffe3c3;}.cls-10,.cls-5{stroke-linecap:round;}.cls-7{fill:#674a5c;}.cls-8{fill:#fff;}.cls-8,.cls-9{stroke-width:0.5px;}.cls-11{fill:#615a52;}</style></defs><title>Mistake feedback_alce_5to0</title><g id="Layer_2" data-name="Layer 2"><g id="Layer_1-2" data-name="Layer 1"><rect class="cls-1" x="0.46" width="133.49" height="120"/><path class="cls-2" d="M68.47,120h46.58c-.51-1.51-1-3.15-1.64-4.49-5.36-12-15.91-39.21-32.14-36.26-17.65,3.21-13.43,25.91-12.54,33.63A30.8,30.8,0,0,1,68.47,120Z"/><path d="M68.6,112.91a30.59,30.59,0,0,1-.25,7.11h.25a30.84,30.84,0,0,0,.25-7.14c-.06-.53-.14-1.13-.22-1.79-.56-4.37-1.48-11.67-.21-18.12C70,85.23,74.28,80.66,81.29,79.39c15-2.73,25.28,20.82,30.81,33.47l1.19,2.73c.54,1.19,1,2.63,1.49,4l.14.41h.27l-.17-.49c-.47-1.39-1-2.84-1.5-4l-1.2-2.72c-5.55-12.71-15.88-36.39-31.07-33.62-7.12,1.3-11.52,5.93-13.07,13.78-1.29,6.49-.36,13.82.2,18.2C68.47,111.78,68.54,112.38,68.6,112.91Z"/><path class="cls-2" d="M57.2,120a48.11,48.11,0,0,1-.79-6c.91-2.71,10.29-7.14,13.59-6.91l1-12.57c-2.49-.09-23.59,9.59-24.37,18A25.41,25.41,0,0,0,47.78,120Z"/><path d="M47.91,120a25.42,25.42,0,0,1-1.12-7.42c.76-8.19,21.39-17.94,24.2-17.94h0v-.25h0c-1.34,0-7.25,2.42-12.86,5.84C54,102.78,47,107.74,46.54,112.58A25.51,25.51,0,0,0,47.65,120Z"/><path d="M56.52,114.06c.89-2.62,9.74-6.83,13.21-6.83H70V107h-.26c-3.52,0-12.55,4.32-13.45,7a46.25,46.25,0,0,0,.78,6h.25A54.14,54.14,0,0,1,56.52,114.06Z"/><path class="cls-3" d="M74.28,99.05c.26,2-4.08,6.61-3.09,7.73s4.84.83,5.46,1.3c.31.24-.46,3.59.83,6.54l6.3-1,5,5.82,7.49-3.8,7,3.89,4.55-3.89c.15,0,3.18,3.85,3.43,3.91l1-3c-1.69-3.23-5.14-11-7.15-14.17C103.41,99.87,98.57,92,90,86.4,84.73,83,75.56,88,69.71,94.18,69.45,94.46,74,97.06,74.28,99.05Z"/><path class="cls-4" d="M74.85,26.15c3.9-.88,8.37-.78,11.31-5.66s3.68-6.63,3.83-9.72.43-4,2.28-4.31,1.67,3.6,3.83,3.87,1.49-5.85,4.6-5.93,3.18,3.89,4.08,6.59,3.67-1.16,4-3,5.06-3,5.05,5.69S102.15,27.43,96,29s-16,1.63-19.22.68S72.66,26.65,74.85,26.15Z"/><path class="cls-5" d="M83.38,33.31a37.48,37.48,0,0,0,13,2.32c6.64.13,13.63-5.33,14.82-4.6s1.77,4.73-1.58,9.33-10.08,9.9-15.9,10.44"/><path class="cls-6" d="M76,22.37c12,2,23.25,7,27.29,18.34,3.58,10,3.41,24.79,2.37,30-.24,1.19,3.4,8,4.19,9.69s.28,4.86-3.72,8.72c-6.75,6.51-28.72,13.51-45.17,2.38-15.85-10.72-19.86-21.75-21-36.34C38.74,40.16,49.49,18,76,22.37Z"/><path class="cls-5" d="M40.38,47.92a37.58,37.58,0,0,1-5.79,11.9c-3.8,5.44-12.33,7.88-12.44,9.27s2.79,4.22,8.47,4.22S44.56,71,48.42,66.59"/><path class="cls-7" d="M56.57,29.6a11.31,11.31,0,0,1-.91-7.67c1.07-4.13,4-9.76,13.24-8,0,0-6.38.11-8.2,5.47,0,0,5-3.11,10.24-.54s9.87,8.64,9.87,8.64a42,42,0,0,0-9.28-3.22C67.4,23.59,64,27.72,64,27.72"/><path class="cls-4" d="M53.15,35.69c-5,.82-10.82,2.5-16.58-1.83s-6.85-5.48-8.49-9-2.44-4.55-4.73-4-.25,5-2.65,6.36-4.53-6.16-8.22-4.78-1.88,6.09-1.65,9.67-4.87.4-6.08-1.62-7.35-1.08-3.21,9.07,20.18,10.6,28.11,9.49,19.48-5.68,22.87-8.34S56,35.23,53.15,35.69Z"/><path class="cls-8" d="M74.59,65.29c.16-3.09-2.16-8.49-4.78-8.49-3.1,0-6,3.4-6.17,8s4.78,6.79,8.33,5.09C73.82,68.53,74.47,67.77,74.59,65.29Z"/><ellipse cx="71.55" cy="63.91" rx="2.68" ry="3.68" transform="translate(-7.7 9.84) rotate(-7.47)"/><path class="cls-8" d="M91.31,62.49c.09-3.08,1.42-6.73,3.67-7.07,2.55-.38,5.54,2.76,5.79,7.53a4.86,4.86,0,0,1-7.28,4.71A6.21,6.21,0,0,1,91.31,62.49Z"/><ellipse cx="96.4" cy="62.22" rx="2.47" ry="3.47" transform="translate(-2.46 3.99) rotate(-2.34)"/><path class="cls-9" d="M58.18,56.31c3.11,1.92,6,3.51,10.4,2.92a15.11,15.11,0,0,0,7.16-2.91"/><path class="cls-9" d="M89.92,48.25c.86-2.35,2.25-4.77,5.58-4.71,4.43.07,5.25,4.93,5.25,4.93"/><path class="cls-10" d="M82.79,85.14c-.68,0-1.52.54-2,1.76a2.84,2.84,0,0,0,.33,2.32"/><ellipse cx="84.01" cy="86.95" rx="0.63" ry="0.68"/><path class="cls-6" d="M105.08,115.61c1.31,2.14,3,3.8,8,3.74s3.77-5.24,3.15-6.71S109.79,102.16,110,102c.81-.44,6-4.86,6.14-6.65s-4.78-10.6-8-11.07-8.72,4.64-10,7.18c-.54,1.09-2.16,3.62,1.7,13.41C100.21,105.83,103.77,113.47,105.08,115.61Z"/><path class="cls-11" d="M102.32,99.8c-2.23-1.51-5-5.45-5-5.45a11,11,0,0,1,4.11-7.68,9.64,9.64,0,0,1,6.77-2.34c1.47.27,3.43,2.38,5.88,6.23,2.57,5.07,2.21,5.26,1.69,6.28a12.43,12.43,0,0,1-2.54,3.43c-1.06.9-2.41,1.84-3.23,1.76C110,102,104.25,101.11,102.32,99.8Z"/></g></g></svg>