<svg xmlns="http://www.w3.org/2000/svg" viewBox="0 0 227.37 300"><defs><style>.cls-1{fill:#fbf47b;}.cls-2{fill:#beb656;}.cls-3{fill:#e5fdff;}.cls-4{fill:#a1a1a1;}.cls-5{fill:#cdc26f;}</style></defs><title>edificio</title><g id="Capa_2" data-name="Capa 2"><g id="Capa_1-2" data-name="Capa 1"><rect class="cls-1" y="264.1" width="194.6" height="35.9"/><polygon class="cls-2" points="194.6 264.1 0 264.1 32.77 250.59 227.37 250.59 194.6 264.1"/><polygon class="cls-2" points="194.6 300 194.6 264.1 227.37 250.59 227.37 286.49 194.6 300"/><rect class="cls-3" x="10.72" y="270.89" width="74.04" height="21.38"/><path class="cls-4" d="M83.75,271.9v19.36h-72V271.9h72m2-2H9.71v23.4H85.77v-23.4Z"/><rect class="cls-3" x="108.09" y="270.89" width="74.04" height="21.38"/><path class="cls-4" d="M181.12,271.9v19.36h-72V271.9h72m2-2H107.08v23.4h76.06v-23.4Z"/><rect class="cls-4" x="46.73" y="269.88" width="2.02" height="23.39"/><rect class="cls-4" x="144.1" y="269.88" width="2.02" height="23.39"/><rect class="cls-1" y="228.2" width="194.6" height="35.9"/><polygon class="cls-2" points="194.6 228.2 0 228.2 32.77 214.69 227.37 214.69 194.6 228.2"/><polygon class="cls-2" points="194.6 264.1 194.6 228.2 227.37 214.69 227.37 250.59 194.6 264.1"/><rect class="cls-3" x="10.72" y="234.99" width="74.04" height="21.38"/><path class="cls-4" d="M83.75,236v19.36h-72V236h72m2-2H9.71v23.4H85.77V234Z"/><rect class="cls-3" x="108.09" y="234.99" width="74.04" height="21.38"/><path class="cls-4" d="M181.12,236v19.36h-72V236h72m2-2H107.08v23.4h76.06V234Z"/><rect class="cls-4" x="46.73" y="233.98" width="2.02" height="23.39"/><rect class="cls-4" x="144.1" y="233.98" width="2.02" height="23.39"/><rect class="cls-1" y="192.3" width="194.6" height="35.9"/><polygon class="cls-2" points="194.6 192.3 0 192.3 32.77 178.79 227.37 178.79 194.6 192.3"/><polygon class="cls-2" points="194.6 228.2 194.6 192.3 227.37 178.79 227.37 214.69 194.6 228.2"/><rect class="cls-3" x="10.72" y="199.09" width="74.04" height="21.38"/><path class="cls-4" d="M83.75,200.1v19.36h-72V200.1h72m2-2H9.71v23.39H85.77V198.09Z"/><rect class="cls-3" x="108.09" y="199.09" width="74.04" height="21.38"/><path class="cls-4" d="M181.12,200.1v19.36h-72V200.1h72m2-2H107.08v23.39h76.06V198.09Z"/><rect class="cls-4" x="46.73" y="198.09" width="2.02" height="23.39"/><rect class="cls-4" x="144.1" y="198.09" width="2.02" height="23.39"/><rect class="cls-1" y="156.41" width="194.6" height="35.9"/><polygon class="cls-2" points="194.6 156.41 0 156.41 32.77 142.89 227.37 142.89 194.6 156.41"/><polygon class="cls-2" points="194.6 192.3 194.6 156.41 227.37 142.89 227.37 178.79 194.6 192.3"/><rect class="cls-3" x="10.72" y="163.2" width="74.04" height="21.38"/><path class="cls-4" d="M83.75,164.2v19.36h-72V164.2h72m2-2H9.71v23.39H85.77V162.19Z"/><rect class="cls-3" x="108.09" y="163.2" width="74.04" height="21.38"/><path class="cls-4" d="M181.12,164.2v19.36h-72V164.2h72m2-2H107.08v23.39h76.06V162.19Z"/><rect class="cls-4" x="46.73" y="162.19" width="2.02" height="23.39"/><rect class="cls-4" x="144.1" y="162.19" width="2.02" height="23.39"/><rect class="cls-1" y="120.51" width="194.6" height="35.9"/><polygon class="cls-5" points="194.6 120.51 0 120.51 32.77 106.99 227.37 106.99 194.6 120.51"/><polygon class="cls-2" points="194.6 156.41 194.6 120.51 227.37 106.99 227.37 142.89 194.6 156.41"/><rect class="cls-3" x="10.72" y="127.3" width="74.04" height="21.38"/><path class="cls-4" d="M83.75,128.3v19.37h-72V128.3h72m2-2H9.71v23.39H85.77V126.29Z"/><rect class="cls-3" x="108.09" y="127.3" width="74.04" height="21.38"/><path class="cls-4" d="M181.12,128.3v19.37h-72V128.3h72m2-2H107.08v23.39h76.06V126.29Z"/><rect class="cls-4" x="46.73" y="126.29" width="2.02" height="23.39"/><rect class="cls-4" x="144.1" y="126.29" width="2.02" height="23.39"/><rect class="cls-1" y="84.61" width="194.6" height="35.9"/><polygon class="cls-2" points="194.6 84.61 0 84.61 32.77 71.1 227.37 71.1 194.6 84.61"/><polygon class="cls-2" points="194.6 120.51 194.6 84.61 227.37 71.1 227.37 106.99 194.6 120.51"/><rect class="cls-3" x="10.72" y="91.4" width="74.04" height="21.38"/><path class="cls-4" d="M83.75,92.41v19.36h-72V92.41h72m2-2H9.71v23.39H85.77V90.39Z"/><rect class="cls-3" x="108.09" y="91.4" width="74.04" height="21.38"/><path class="cls-4" d="M181.12,92.41v19.36h-72V92.41h72m2-2H107.08v23.39h76.06V90.39Z"/><rect class="cls-4" x="46.73" y="90.39" width="2.02" height="23.39"/><rect class="cls-4" x="144.1" y="90.39" width="2.02" height="23.39"/><rect class="cls-1" y="49.32" width="194.6" height="35.9"/><polygon class="cls-2" points="194.6 49.32 0 49.32 32.77 35.81 227.37 35.81 194.6 49.32"/><polygon class="cls-2" points="194.6 85.22 194.6 49.32 227.37 35.81 227.37 71.71 194.6 85.22"/><rect class="cls-3" x="10.72" y="56.11" width="74.04" height="21.38"/><path class="cls-4" d="M83.75,57.12V76.48h-72V57.12h72m2-2H9.71V78.5H85.77V55.1Z"/><rect class="cls-3" x="108.09" y="56.11" width="74.04" height="21.38"/><path class="cls-4" d="M181.12,57.12V76.48h-72V57.12h72m2-2H107.08V78.5h76.06V55.1Z"/><rect class="cls-4" x="46.73" y="55.1" width="2.02" height="23.39"/><rect class="cls-4" x="144.1" y="55.1" width="2.02" height="23.39"/><rect class="cls-1" y="13.51" width="194.6" height="35.9"/><polygon class="cls-2" points="194.6 13.51 0 13.51 32.77 0 227.37 0 194.6 13.51"/><polygon class="cls-2" points="194.6 49.41 194.6 13.51 227.37 0 227.37 35.9 194.6 49.41"/><rect class="cls-3" x="10.72" y="20.3" width="74.04" height="21.38"/><path class="cls-4" d="M83.75,21.31V40.67h-72V21.31h72m2-2H9.71v23.4H85.77V19.29Z"/><rect class="cls-3" x="108.09" y="20.3" width="74.04" height="21.38"/><path class="cls-4" d="M181.12,21.31V40.67h-72V21.31h72m2-2H107.08v23.4h76.06V19.29Z"/><rect class="cls-4" x="46.73" y="19.29" width="2.02" height="23.39"/><rect class="cls-4" x="144.1" y="19.29" width="2.02" height="23.39"/></g></g></svg>