<svg xmlns="http://www.w3.org/2000/svg" viewBox="0 0 275.56 243.94"><defs><style>.cls-1{fill:#1f8ebe;}</style></defs><title>flecha curva izq</title><g id="Capa_2" data-name="Capa 2"><g id="Capa_1-2" data-name="Capa 1"><path class="cls-1" d="M82.58,243.58,1.36,196.68a2.71,2.71,0,0,1,0-4.7l81.22-46.89a2.71,2.71,0,0,1,4.07,2.35v18.72A2.69,2.69,0,0,0,89,168.83h98.47a37.07,37.07,0,0,0,37.07-37.06V2.71A2.71,2.71,0,0,1,227.27,0h45.58a2.71,2.71,0,0,1,2.71,2.71V131.77a88.07,88.07,0,0,1-88.07,88.06H89a2.71,2.71,0,0,0-2.36,2.68v18.72A2.71,2.71,0,0,1,82.58,243.58Z"/></g></g></svg>