<svg xmlns="http://www.w3.org/2000/svg" viewBox="0 0 99.23 330.31"><defs><style>.cls-1{fill:#1f8ebe;}</style></defs><title>flecha ambos2</title><g id="Capa_2" data-name="Capa 2"><g id="Capa_1-2" data-name="Capa 1"><path class="cls-1" d="M21.44,243.66H2.71a2.7,2.7,0,0,0-2.34,4.06L47.27,329A2.7,2.7,0,0,0,52,329l46.9-81.23a2.71,2.71,0,0,0-2.35-4.06H77.79A2.71,2.71,0,0,1,75.08,241V89.36a2.71,2.71,0,0,1,2.71-2.71H96.51a2.71,2.71,0,0,0,2.35-4.06L52,1.35a2.71,2.71,0,0,0-4.69,0L.37,82.59a2.7,2.7,0,0,0,2.34,4.06H21.44a2.71,2.71,0,0,1,2.71,2.71V241A2.72,2.72,0,0,1,21.44,243.66Z"/></g></g></svg>