<svg xmlns="http://www.w3.org/2000/svg" viewBox="0 0 243.94 275.56"><defs><style>.cls-1{fill:#1f8ebe;}</style></defs><title>flecha curva abaj</title><g id="Capa_2" data-name="Capa 2"><g id="Capa_1-2" data-name="Capa 1"><path class="cls-1" d="M.37,193,47.26,274.2a2.71,2.71,0,0,0,4.7,0L98.86,193a2.71,2.71,0,0,0-2.35-4.06H77.79a2.71,2.71,0,0,1-2.68-2.37V88.07A37.07,37.07,0,0,1,112.18,51h129a2.71,2.71,0,0,0,2.71-2.71V2.71A2.71,2.71,0,0,0,241.23,0h-129A88.07,88.07,0,0,0,24.11,88.07v98.48a2.7,2.7,0,0,1-2.67,2.36H2.72A2.71,2.71,0,0,0,.37,193Z"/></g></g></svg>