<svg xmlns="http://www.w3.org/2000/svg" viewBox="0 0 166.73 410.25"><defs><style>.cls-1{fill:#1f8ebe;}</style></defs><title>llave der</title><g id="Capa_2" data-name="Capa 2"><g id="Capa_1-2" data-name="Capa 1"><path class="cls-1" d="M13.15,0a12.15,12.15,0,0,1,2.5.23,12.75,12.75,0,0,0,2.49.22Q52.57,8.16,70.91,20.16T96.06,49.61q6.8,17.45,6.79,39.18L102.4,130q0,17.21,5,30.8a46.19,46.19,0,0,0,15.4,21.52q10.42,7.93,26.73,7.93h2.26a14.71,14.71,0,0,1,14.95,14.95,13.72,13.72,0,0,1-4.3,10.42,14.87,14.87,0,0,1-10.65,4.08h-2.71q-16.75.45-27,8.38t-15,21.52a92.91,92.91,0,0,0-4.76,30.8l.45,40.78q0,19.92-5.43,34.43a64.65,64.65,0,0,1-15.86,24.46,95.47,95.47,0,0,1-26.05,17.22,192.8,192.8,0,0,1-36.92,12.23Q8.18,411.81,4.1,406.82A16.23,16.23,0,0,1,0,396.4,12.59,12.59,0,0,1,3,388.25a15.1,15.1,0,0,1,8.38-5q24-7.72,36.24-16.32t16.54-20.61q4.3-12,4.3-30.12L68,275.44q0-27.63,11.78-46.21a55.32,55.32,0,0,1,33.07-24.46l.45.9Q91.09,199.33,79.52,181T68,134.55l.45-40.32q0-18.12-4.08-30.13T47.81,43.49Q35.36,34.88,11.34,27.18-.43,23.1,0,12.23A14.17,14.17,0,0,1,4.1,3.85,11.91,11.91,0,0,1,13.15,0Z"/></g></g></svg>