<svg xmlns="http://www.w3.org/2000/svg" viewBox="0 0 163.72 156.37"><defs><style>.cls-1{fill:#1f8ebe;}</style></defs><title>estrella</title><g id="Capa_2" data-name="Capa 2"><g id="Capa_1-2" data-name="Capa 1"><path class="cls-1" d="M88,3.78l20,40.6a6.78,6.78,0,0,0,5.11,3.72l44.8,6.51a6.79,6.79,0,0,1,3.76,11.58l-32.42,31.6a6.79,6.79,0,0,0-2,6L135,148.42a6.79,6.79,0,0,1-9.86,7.16L85,134.51a6.79,6.79,0,0,0-6.32,0L38.63,155.58a6.79,6.79,0,0,1-9.85-7.16l7.65-44.62a6.79,6.79,0,0,0-2-6L2.06,66.19A6.79,6.79,0,0,1,5.82,54.61l44.8-6.51a6.78,6.78,0,0,0,5.12-3.72l20-40.6A6.8,6.8,0,0,1,88,3.78Z"/></g></g></svg>