<svg xmlns="http://www.w3.org/2000/svg" viewBox="0 0 35.05 37.4"><defs><style>.cls-1{fill:#1f8ebe;}</style></defs><title>Tanto_por_ciento (6)</title><g id="Capa_2" data-name="Capa 2"><g id="Numeracion"><g id="Tanto_por_ciento"><g id="Tanto_por_ciento-2" data-name="Tanto_por_ciento"><rect class="cls-1" x="-6.5" y="17.99" width="48.04" height="1.49" transform="translate(-8.11 17.85) rotate(-44.95)"/><path class="cls-1" d="M9.86,0A8.19,8.19,0,0,1,16,2.9,10,10,0,0,1,16,16a8.16,8.16,0,0,1-6.1,2.9A8.16,8.16,0,0,1,3.75,16a10,10,0,0,1,0-13.06A8.2,8.2,0,0,1,9.86,0Zm0,.4a6.12,6.12,0,0,0-3.1.85,7.62,7.62,0,0,0-2.32,2.2,10.64,10.64,0,0,0-1.76,6,10.67,10.67,0,0,0,1.76,6,7.59,7.59,0,0,0,2.32,2.19,6.23,6.23,0,0,0,3.1.86A6.22,6.22,0,0,0,13,17.61a7.59,7.59,0,0,0,2.32-2.19,10.67,10.67,0,0,0,1.76-6,10.64,10.64,0,0,0-1.76-6A7.62,7.62,0,0,0,13,1.25,6.11,6.11,0,0,0,9.86.4Z"/><path class="cls-1" d="M25.56,18.53a8.19,8.19,0,0,1,6.11,2.91,10,10,0,0,1,0,13.05,8.22,8.22,0,0,1-6.11,2.91,8.22,8.22,0,0,1-6.11-2.91,10,10,0,0,1,0-13A8.19,8.19,0,0,1,25.56,18.53Zm0,.4a6.33,6.33,0,0,0-3.1.85A7.74,7.74,0,0,0,20.14,22a11.11,11.11,0,0,0,0,12,7.59,7.59,0,0,0,2.32,2.19,6,6,0,0,0,6.2,0A7.59,7.59,0,0,0,31,34a11.11,11.11,0,0,0,0-12,7.74,7.74,0,0,0-2.32-2.2A6.33,6.33,0,0,0,25.56,18.93Z"/></g></g></g></g></svg>