<svg xmlns="http://www.w3.org/2000/svg" viewBox="0 0 533.4 130.12"><defs><style>.cls-1{fill:#363026;}.cls-2{fill:#1f8ebe;}.cls-3{fill:#f8bb18;}.cls-4{fill:#c51611;}.cls-5{fill:#f78910;}.cls-6{fill:none;}</style></defs><title>unidadcubo</title><g id="Capa_2" data-name="Capa 2"><g id="Capa_1-2" data-name="Capa 1"><path class="cls-1" d="M223.86,75.61a1.18,1.18,0,0,1-.89-.35,1.1,1.1,0,0,1-.35-.83V58l.35.4-3.36,2a1.21,1.21,0,0,1-.58.14,1.08,1.08,0,0,1-.83-.39,1.17,1.17,0,0,1-.35-.8,1.14,1.14,0,0,1,.61-1l4.71-2.8a1.56,1.56,0,0,1,.87-.18,1,1,0,0,1,.78.34,1.21,1.21,0,0,1,.29.82v17.9a1.14,1.14,0,0,1-.35.83A1.18,1.18,0,0,1,223.86,75.61Z"/><path class="cls-1" d="M248.93,60.66a1.13,1.13,0,0,1,1.15,1.16v7.89a6.06,6.06,0,0,1-1.63,4.53,7.24,7.24,0,0,1-9.08,0,6.06,6.06,0,0,1-1.63-4.53V61.82a1.11,1.11,0,0,1,.33-.82,1.13,1.13,0,0,1,.82-.34,1.11,1.11,0,0,1,.84.34,1.14,1.14,0,0,1,.32.82v7.89a4.05,4.05,0,0,0,1,3,4.54,4.54,0,0,0,5.71,0,4.05,4.05,0,0,0,1-3V61.82a1.11,1.11,0,0,1,.33-.82A1.14,1.14,0,0,1,248.93,60.66Z"/><path class="cls-1" d="M261.79,60.29a5.2,5.2,0,0,1,3.09.81,4.41,4.41,0,0,1,1.61,2.17,9,9,0,0,1,.47,3v8.13a1.16,1.16,0,0,1-.33.83,1.05,1.05,0,0,1-.82.35,1.09,1.09,0,0,1-.83-.35,1.16,1.16,0,0,1-.33-.83V66.36a5.63,5.63,0,0,0-.33-2,3,3,0,0,0-1.1-1.42,3.66,3.66,0,0,0-2.1-.53,4.75,4.75,0,0,0-2.22.53,4.39,4.39,0,0,0-1.62,1.42,3.46,3.46,0,0,0-.61,2v8.07a1.16,1.16,0,0,1-.33.83,1.15,1.15,0,0,1-1.65,0,1.16,1.16,0,0,1-.33-.83V61.82a1.11,1.11,0,0,1,.33-.82,1.14,1.14,0,0,1,.83-.34,1.13,1.13,0,0,1,1.15,1.16v2l-.58.64a4.13,4.13,0,0,1,.67-1.52,6,6,0,0,1,1.3-1.37,6.43,6.43,0,0,1,1.74-1A5.57,5.57,0,0,1,261.79,60.29Z"/><path class="cls-1" d="M272.31,58.5a1.67,1.67,0,0,1-1.07-.29,1.1,1.1,0,0,1-.34-.9v-.4a1.06,1.06,0,0,1,.37-.9,1.75,1.75,0,0,1,1.07-.29,1.61,1.61,0,0,1,1,.29,1.1,1.1,0,0,1,.35.9v.4a1.08,1.08,0,0,1-.36.9A1.67,1.67,0,0,1,272.31,58.5Zm1.16,15.93a1.16,1.16,0,0,1-.33.83,1.17,1.17,0,0,1-1.67,0,1.19,1.19,0,0,1-.31-.83V61.59a1.11,1.11,0,0,1,.33-.82,1.08,1.08,0,0,1,.82-.34,1.14,1.14,0,0,1,1.16,1.16Z"/><path class="cls-1" d="M289.8,54.22a1.11,1.11,0,0,1,.84.33,1.16,1.16,0,0,1,.32.82V74.43a1.16,1.16,0,0,1-.33.83,1.09,1.09,0,0,1-.83.35,1.05,1.05,0,0,1-.82-.35,1.16,1.16,0,0,1-.33-.83V71.68l.54-.2a3.15,3.15,0,0,1-.41,1.46,5.39,5.39,0,0,1-1.19,1.43,6.76,6.76,0,0,1-1.78,1.1,5.45,5.45,0,0,1-2.19.43,6.36,6.36,0,0,1-3.53-1,7.1,7.1,0,0,1-2.47-2.78,9.38,9.38,0,0,1,0-8.06,6.93,6.93,0,0,1,2.45-2.76,6.61,6.61,0,0,1,5.76-.6,6.4,6.4,0,0,1,1.86,1.1A5.58,5.58,0,0,1,289,63.32,3.53,3.53,0,0,1,289.4,65l-.75-.17V55.37a1.12,1.12,0,0,1,.33-.82A1.11,1.11,0,0,1,289.8,54.22Zm-5.95,19.54a4.44,4.44,0,0,0,2.57-.74,5,5,0,0,0,1.73-2,7,7,0,0,0,0-5.83,5.06,5.06,0,0,0-1.74-2,4.49,4.49,0,0,0-2.56-.74,4.4,4.4,0,0,0-2.53.74,5.08,5.08,0,0,0-1.75,2,6.4,6.4,0,0,0-.64,2.92,6.32,6.32,0,0,0,.64,2.88,5.13,5.13,0,0,0,1.75,2A4.41,4.41,0,0,0,283.85,73.76Z"/><path class="cls-1" d="M307.41,60.52a1.14,1.14,0,0,1,.84.33,1.16,1.16,0,0,1,.31.83V74.43a1.16,1.16,0,0,1-.33.83,1.15,1.15,0,0,1-1.65,0,1.16,1.16,0,0,1-.33-.83V71.68l.55-.06a2.78,2.78,0,0,1-.43,1.39,5.51,5.51,0,0,1-1.19,1.4,6.32,6.32,0,0,1-1.76,1.07,5.71,5.71,0,0,1-2.2.42,6.3,6.3,0,0,1-3.54-1,7,7,0,0,1-2.47-2.79,9.4,9.4,0,0,1,0-8,7.11,7.11,0,0,1,2.46-2.74,6.24,6.24,0,0,1,3.48-1,6.54,6.54,0,0,1,2.32.4,6.15,6.15,0,0,1,1.86,1.1,5.45,5.45,0,0,1,1.23,1.53A3.62,3.62,0,0,1,307,65l-.75-.17V61.68a1.13,1.13,0,0,1,1.16-1.16Zm-6,13.24A4.46,4.46,0,0,0,304,73a5.13,5.13,0,0,0,1.75-2,6.85,6.85,0,0,0,0-5.78,5,5,0,0,0-1.75-2,4.45,4.45,0,0,0-2.56-.74,4.56,4.56,0,0,0-2.53.72,5,5,0,0,0-1.75,2,7,7,0,0,0,0,5.82,5.21,5.21,0,0,0,1.75,2A4.43,4.43,0,0,0,301.45,73.76Z"/><path class="cls-1" d="M325,54.22a1.11,1.11,0,0,1,.84.33,1.16,1.16,0,0,1,.32.82V74.43a1.16,1.16,0,0,1-.33.83,1.09,1.09,0,0,1-.83.35,1.05,1.05,0,0,1-.82-.35,1.16,1.16,0,0,1-.33-.83V71.68l.55-.2a3.05,3.05,0,0,1-.42,1.46,5.39,5.39,0,0,1-1.19,1.43,6.76,6.76,0,0,1-1.78,1.1,5.45,5.45,0,0,1-2.19.43,6.39,6.39,0,0,1-3.53-1,7.1,7.1,0,0,1-2.47-2.78,9.38,9.38,0,0,1,0-8.06,6.93,6.93,0,0,1,2.45-2.76,6.61,6.61,0,0,1,5.76-.6,6.4,6.4,0,0,1,1.86,1.1,5.58,5.58,0,0,1,1.26,1.53,3.53,3.53,0,0,1,.45,1.68l-.75-.17V55.37a1.12,1.12,0,0,1,.33-.82A1.11,1.11,0,0,1,325,54.22Zm-5.95,19.54a4.44,4.44,0,0,0,2.57-.74,5,5,0,0,0,1.73-2,7,7,0,0,0,0-5.83,5.06,5.06,0,0,0-1.74-2,4.49,4.49,0,0,0-2.56-.74,4.4,4.4,0,0,0-2.53.74,5.08,5.08,0,0,0-1.75,2,6.4,6.4,0,0,0-.64,2.92,6.32,6.32,0,0,0,.64,2.88,5.13,5.13,0,0,0,1.75,2A4.41,4.41,0,0,0,319.06,73.76Z"/><path class="cls-2" d="M354.11,65.76a1.69,1.69,0,0,1-1.25-.51,1.57,1.57,0,0,1-.51-1.16,1.5,1.5,0,0,1,.51-1.16,1.77,1.77,0,0,1,1.25-.46h15.26a1.76,1.76,0,0,1,1.25.46,1.46,1.46,0,0,1,.51,1.12,1.61,1.61,0,0,1-.51,1.2,1.67,1.67,0,0,1-1.25.51Zm0,8.16a1.75,1.75,0,0,1-1.25-.49,1.51,1.51,0,0,1-.51-1.14,1.57,1.57,0,0,1,.51-1.18,1.74,1.74,0,0,1,1.25-.48h15.26a1.76,1.76,0,0,1,1.25.46,1.48,1.48,0,0,1,.51,1.16,1.55,1.55,0,0,1-.51,1.18,1.74,1.74,0,0,1-1.25.49Z"/><g id="Bloque1"><rect class="cls-3" x="440.31" y="63.28" width="10.94" height="10.94" transform="translate(891.56 137.49) rotate(-180)"/><polygon class="cls-4" points="451.25 74.22 453.47 73.11 453.47 62.17 451.25 63.27 451.25 74.22"/><polygon class="cls-5" points="440.31 63.27 451.25 63.27 453.47 62.17 442.53 62.17 440.31 63.27"/></g><rect class="cls-6" width="533.4" height="130.12"/></g></g></svg>