<svg xmlns="http://www.w3.org/2000/svg" xmlns:xlink="http://www.w3.org/1999/xlink" viewBox="0 0 147.68 120.03"><defs><style>.cls-1,.cls-2{fill:none;}.cls-1,.cls-10,.cls-12,.cls-3,.cls-4,.cls-7,.cls-8,.cls-9{stroke:#000;stroke-miterlimit:10;}.cls-1,.cls-10,.cls-3,.cls-4,.cls-7,.cls-9{stroke-width:0.25px;}.cls-3,.cls-5{fill:#ed4f36;}.cls-4,.cls-6{fill:#694342;}.cls-7,.cls-9{fill:#ffe8c6;}.cls-14,.cls-8{fill:#fff;}.cls-8{stroke-width:0.5px;}.cls-15,.cls-9{stroke-linecap:round;}.cls-10{fill:#feaf9e;}.cls-11{clip-path:url(#clip-path);}.cls-12{fill:#7e2d3a;}.cls-13{fill:#fea49c;}.cls-15{fill:#a0dbf0;stroke:#4a91cd;stroke-linejoin:round;}</style><clipPath id="clip-path"><path class="cls-1" d="M110.62,73c-3.89-.2-11.27-5.52-12.85-4.12-12.88,11.36-32.85,9.53-37.72,9.45-5.3-.09-11-.7-11.64,1.26C47,83.75,54.88,88.86,63.22,90.2s14.53,2.15,23.1,0c12-3,14.62-6,18.16-9.4C109.41,76.13,111.81,73.06,110.62,73Z"/></clipPath></defs><title>Correct feedbacK_panda rojo</title><g id="Layer_2" data-name="Layer 2"><g id="Layer_1-2" data-name="Layer 1"><rect class="cls-2" width="147.68" height="120.03"/><path class="cls-3" d="M97,96.86c2,0,28.5-2.65,35.34-8.52a39.45,39.45,0,0,0,12.43-21c1.4-6.71-9.08-11.88-14.25-5.87-3.21,6.71-1.39,11.31-6,17s-26.82,13-26.82,13"/><path class="cls-4" d="M133.23,74.09c3.08.15,6.91,2.8,7,4.33,0,0,3.64-5,4.89-9.15a9.07,9.07,0,0,0-6.49-11c-5.17-1.19-9.5,1-10.55,4.68s-1.35,9.47.12,10.73S130.23,74,133.23,74.09Z"/><path class="cls-5" d="M109.8,120c-6.71-23-21-33.58-26-33.26-11.23.7-13.89,11.79-14.92,18.41-.38,2.45-1.49,8.38-2.61,14.85Z"/><path d="M66.38,120c.63-3.66,1.13-7.37,1.68-10.07.43-2.06.76-3.69.92-4.76.68-4.34,2.73-17.55,14.81-18.31H84c4.74,0,18.85,9.79,25.67,33.15h.26C103.08,96.49,88.79,86.64,84,86.64h-.21c-12.29.78-14.36,14.13-15,18.52-.17,1.06-.5,2.69-.92,4.75-.56,2.71-1.06,6.44-1.7,10.12Z"/><path class="cls-6" d="M109.92,120a100.13,100.13,0,0,0-5.18-13.42c-7.17-15.16-15.48-15.36-19.5-15.28-12,.23-11.58,10.73-13.35,19.37-.41,2-.78,5.61-1.36,9.33Z"/><path d="M70.66,120c.58-3.71.94-7.26,1.35-9.31.27-1.3.49-2.67.7-4,1.19-7.41,2.43-15.07,12.54-15.27,3.6-.06,12.07-.23,19.37,15.21A99,99,0,0,1,109.79,120h.26a100.57,100.57,0,0,0-5.2-13.48C97.48,91,88.89,91.14,85.24,91.2c-10.32.2-11.57,8-12.77,15.48-.21,1.33-.43,2.69-.7,4-.42,2.07-.78,5.63-1.36,9.36Z"/><path class="cls-5" d="M56.8,120H69.53l-.08-.06c-5-3.51-10.64-7.09-9.92-9.9s9.06-9.34,12.06-9.25l2.34-4.63c-1.79,0-18.61,3.33-22.58,10.07C48.68,110.8,52.44,116.3,56.8,120Z"/><path d="M67.28,118.07c-4.23-2.89-8.23-5.63-7.63-8,.71-2.8,9-9.15,11.88-9.15h.06a.12.12,0,0,0,.12-.12.12.12,0,0,0-.12-.13h-.06c-3,0-11.37,6.39-12.13,9.34-.64,2.51,3.43,5.29,7.74,8.24.66.45,1.51,1.29,2.18,1.75h.42l-.22-.16C68.84,119.39,68,118.54,67.28,118.07Z"/><path d="M56.6,120H57c-2.8-2.38-8.62-8.47-5.53-13.71,3.91-6.64,20.62-10,22.47-10a.13.13,0,0,0,.13-.13.12.12,0,0,0-.13-.12c-1.86,0-18.72,3.4-22.68,10.12C48.14,111.46,53.69,117.5,56.6,120Z"/><path class="cls-7" d="M101.45,41.68c-3.63-.42-9.92-10.89-12.15-19.27s1.25-18.16,4.33-18.3,19.55,17.6,19.55,35.2c0,0,10.06-1,13.55,3.35.28.63-7.32-2.6-9.22-.7-.1.11,6.51,1.4,8.11,7.27.1.38-10.76-3.63-13.55-2.94S101.45,41.68,101.45,41.68Z"/><path class="cls-3" d="M60.52,23.38c5.11-2.51,27.66-3.63,47.49,14.67s19.91,32.27,19.91,32.27A11.34,11.34,0,0,1,134,74s-3.37-.67-5.47,1A6.5,6.5,0,0,1,131,79.83s-1.25-2.07-3-.77c-2.2,1.61-23.74,15.85-36.17,18.08s-43-.42-47.22.28-15.08,3.21-16.06,5S31.88,97.14,34,95.6s-7.41.42-9.5,1.68,3.35-7.68,11.59-10.2C36.07,87.08,27,39.87,60.52,23.38Z"/><path class="cls-8" d="M61.92,65.71c-3.7-3.36-4.1-16.39,5-19.93s17,8.57,17.51,12.48-4.28,8-8.38,9.13S64,67.57,61.92,65.71Z"/><path class="cls-8" d="M100,39.26c2.29-1,11.64,2.61,13,13,.19,2.7-.09,5.4-3.82,7s-8.28-1.11-9.31-3.35S95.16,41.4,100,39.26Z"/><path class="cls-9" d="M45.53,40.19C44.69,38.66,35,26.74,23.92,23.66S4.36,25.48,2.69,29.25,15.12,63.48,29,68c0,0-10.2,2.93-11.6,7.54-.28,2.23,4.61-1.68,8.53-2,0,0-3.64,4.47-3.22,7,1.4.28,9.41-6.29,13.46-7"/><path class="cls-7" d="M94.39,57.82c.86-.19,4.68,6.49,11.3,7.89s18.16,6.05,19.74,15c0,0-14.9,11.37-29.24,15.65s-43.68,1.49-48.06.93S37.24,81.36,43.76,75.21s27.56-2.7,37.06-5.49S92.6,58.21,94.39,57.82Z"/><path class="cls-7" d="M61,36.59c3.67-1.84,8.94-.14,11.17,1.11.84.42,1-.91-1.32-2.65a15.09,15.09,0,0,0-12.58-2.73c-5.65,1.4-6.56,5-6,7.41S54.12,40,61,36.59Z"/><path class="cls-7" d="M89.44,33.3c.76,1,2.51-2.23,4-2.65s3.63-.35,4.26-.56-4.61-4.33-6.78-4S88.11,31.63,89.44,33.3Z"/><path class="cls-10" d="M35.19,64.47c1.35.83-5.4-20.74-10.9-27.91S10.14,29.67,8.65,32.84,15.17,52.18,35.19,64.47Z"/><ellipse cx="77.98" cy="58.24" rx="4.1" ry="5.54" transform="translate(-13.58 25.22) rotate(-16.92)"/><ellipse cx="95.69" cy="63.11" rx="0.75" ry="1.19" transform="translate(-14.23 30.59) rotate(-16.92)"/><ellipse cx="106.28" cy="52.43" rx="3.23" ry="4.99" transform="translate(-10.66 33.21) rotate(-16.92)"/><g class="cls-11"><path class="cls-12" d="M110.34,60.66c-3.25,2.15-11.81,11.88-24.12,14.83s-21.2,3.9-25.9,2.45-8.65.42-8.94,4.82,4.36,11.58,12.7,12.92,19.76,1,29.72-4.87,18-12,19.26-18.29S111,60.2,110.34,60.66Z"/><path class="cls-13" d="M96.79,67.5c4.19.52,11.48,4,12.76,8.24S92.86,97.25,73.65,95.23,43.22,94,42.82,83.68s-2-9,10.5-9.66S94.52,67.21,96.79,67.5Z"/><path class="cls-14" d="M46.42,78.69c2.12,3.63,15.5,6.39,29,4.66,13.29-1.69,24.5-6.57,30.27-12.54s8-8.82,8.16-12.18-8.14-7.69-8.14-7.69S84.68,68.3,76.33,68.67,48.73,67.42,45,66.23,44.13,74.79,46.42,78.69Z"/></g><path class="cls-1" d="M110.62,73c-3.89-.2-11.27-5.52-12.85-4.12-12.88,11.36-32.85,9.53-37.72,9.45-5.3-.09-11-.7-11.64,1.26C47,83.75,54.88,88.86,63.22,90.2s14.53,2.15,23.1,0c12-3,14.62-6,18.16-9.4C109.41,76.13,111.81,73.06,110.62,73Z"/><path class="cls-15" d="M136,92.4s-2.78,7.91,5.38,10.26c0,0-9.93-3.78-12.54,1.77,0,0,.76-9.85-.84-10.6C128,93.83,134.65,94,136,92.4Z"/><path class="cls-15" d="M49.17,105.47s-6.27,4.81-6.42,6.71c0,0-5.69-8.32-8.17-8.76,0,0,6.42-1.16,7.15-3.64C41.73,99.78,42.6,104,49.17,105.47Z"/></g></g></svg>