<svg xmlns="http://www.w3.org/2000/svg" viewBox="0 0 127.6 120"><defs><style>.cls-1,.cls-8{fill:none;}.cls-2,.cls-3{fill:#2f3c4c;}.cls-2,.cls-5,.cls-6,.cls-7,.cls-8{stroke:#000;stroke-linecap:round;stroke-miterlimit:10;}.cls-2,.cls-5,.cls-6{stroke-width:0.25px;}.cls-4,.cls-5{fill:#faf8eb;}.cls-6{fill:#fea49c;}.cls-7{fill:#fff;}.cls-7,.cls-8{stroke-width:0.5px;}</style></defs><title>Mistake feedback_oso polar</title><g id="Layer_2" data-name="Layer 2"><g id="Layer_1-2" data-name="Layer 1"><rect class="cls-1" width="127.6" height="120"/><path class="cls-2" d="M90.18,81c.74-1.61,14.76-3.37,22,7s11.35,16.44,8.31,19.66-15.71-.26-19.58-2.51S84.88,92.61,90.18,81Z"/><path class="cls-3" d="M111.09,120c-2.38-6.83-5.4-14.06-8-20.7C94.64,77.61,76.94,78,69.38,79.24c-13.2,2.15-25,25.54-29.92,40.76Z"/><path d="M39.59,120A112.23,112.23,0,0,1,51.28,94.8c6-9.14,12.26-14.48,18.12-15.44,7.29-1.18,25.16-1.62,33.58,20,.77,2,1.59,4,2.37,6,1.89,4.73,3.94,9.89,5.61,14.68h.26c-1.67-4.82-3.73-10-5.63-14.77-.79-2-1.61-4-2.38-6C99.54,89.82,93.73,83.53,86,80.56a32.37,32.37,0,0,0-16.59-1.44c-5.93,1-12.25,6.34-18.28,15.54A112.58,112.58,0,0,0,39.33,120Z"/><path class="cls-4" d="M111.26,120s0-.09-.05-.13C104,100.24,87.64,98,77.68,98.14c-18.08.31-29.13,6.61-34.43,15.12A33.74,33.74,0,0,0,40.38,120Z"/><path d="M40.51,120a33.31,33.31,0,0,1,2.85-6.68c5.88-9.43,18.06-14.77,34.32-15.06,16.79-.3,28.1,7.18,33.41,21.65l0,.09h.27l-.06-.18c-3.18-8.66-8.58-15.07-15.85-18.5C90.5,99,84.67,97.89,77.67,98c-16.34.29-28.6,5.68-34.53,15.18A34.61,34.61,0,0,0,40.25,120Z"/><path class="cls-3" d="M50.11,120c-2.32-5.38-8.39-9.84-8.39-9.84A57.58,57.58,0,0,0,56.77,98.85L58,87.74c-11.17-1-36.89,2.65-40.54,17.46-.64,5.91,3.67,11.2,8.19,14.8Z"/><path d="M42,110.18A58.4,58.4,0,0,0,56.87,98.93a.12.12,0,0,0,0-.17.13.13,0,0,0-.18,0,57.93,57.93,0,0,1-15,11.29l-.18.1.17.12c.06,0,6,4.46,8.33,9.73h.27C48.17,115.13,43,110.91,42,110.18Z"/><path d="M25.82,120c-5.95-4.7-8.8-9.86-8.27-14.77C21.1,90.82,46,86.75,58,87.87c.07,0,.13-.05.14-.11a.12.12,0,0,0-.11-.14c-12-1.12-37.09,3-40.68,17.57-.53,4.94,2.27,10.11,8.12,14.81Z"/><path class="cls-2" d="M78.05,21.11C79.24,28.45,88.83,33,96.62,31.74s13.15-8.25,12-15.59-8.48-12.27-16.27-11S76.85,13.77,78.05,21.11Z"/><path class="cls-5" d="M59.63,5.8C74,4.8,99.38,16.12,109.57,38.09s7.69,37.73-9.49,47.22-41.82,9.85-60,2.87S16.55,66.52,18.87,48.4,34.45,7.56,59.63,5.8Z"/><path class="cls-2" d="M30.54,33.7C26.6,40,16,40.51,9.3,36.33s-8.94-12.69-5-19,12.56-8,19.27-3.86S34.48,27.39,30.54,33.7Z"/><path class="cls-6" d="M29.28,34.92c-3,4.78-11,5.15-16.07,2s-6.76-9.6-3.78-14.38,9.5-6.08,14.57-2.91S32.26,30.15,29.28,34.92Z"/><path class="cls-2" d="M56,42.87c5.17,1.32,15.79,4.52,14.73,9.32-1.71,7.75-7.94,8.68-15.15,8.85-15.44.35-19.41-3.95-22.33-8.66S35.86,37.73,56,42.87Z"/><path class="cls-2" d="M87.76,23.78c3.3-1,11.68,3,15.88,12.93s.24,16.42-5.17,19.1-14.38-1.13-17.8-10.55S79.85,26.16,87.76,23.78Z"/><path class="cls-7" d="M52.5,46.63c7-.11,12.3,2.84,12.6,6s-3.13,5-7.17,5-12.5-2-11.84-5.85S49.87,46.67,52.5,46.63Z"/><path class="cls-7" d="M90,37.59c2.25-.7,6.44,2.23,7.39,7s-.86,8.15-3.51,8.74-6.68-1.63-7.16-7.61S88.33,38.12,90,37.59Z"/><ellipse cx="59.73" cy="52.2" rx="2.65" ry="3.34" transform="translate(-7.33 9.82) rotate(-8.86)"/><ellipse cx="94.14" cy="46.73" rx="2.12" ry="3.34" transform="translate(-4.89 11.52) rotate(-6.83)"/><path d="M83.33,62.07c.82,0,1.27-3.19,4.53-3.22s5,9.14-2.16,11.41S73.19,65.18,76.33,62,81.87,62.08,83.33,62.07Z"/><path class="cls-8" d="M83.34,76.18s.7-4.3.87-6"/><path class="cls-2" d="M98.92,70c4.15-1.92,9.75-1.81,12.83-.22S126.11,91.7,126,97.59s-3.74,9.84-7.28,11-17.36-10-21.1-14.05a23.87,23.87,0,0,1-5.75-13.21C91.42,77.37,94.85,71.9,98.92,70Z"/><path class="cls-8" d="M77.54,80.32c.8-2,3.57-3.83,5.8-4.14,1.62-.22,3.93,3.11,3.87,3.91"/></g></g></svg>