<svg xmlns="http://www.w3.org/2000/svg" xmlns:xlink="http://www.w3.org/1999/xlink" viewBox="0 0 153.75 120.03"><defs><style>.cls-1,.cls-2{fill:none;}.cls-1,.cls-3,.cls-5,.cls-6,.cls-7,.cls-9{stroke:#000;stroke-miterlimit:10;}.cls-1,.cls-13,.cls-3,.cls-5,.cls-6,.cls-7,.cls-9{stroke-linecap:round;}.cls-1,.cls-3,.cls-5,.cls-6{stroke-width:0.25px;}.cls-3,.cls-4{fill:#2f3c4c;}.cls-12,.cls-5{fill:#faf8eb;}.cls-10,.cls-6{fill:#fea49c;}.cls-11,.cls-7{fill:#fff;}.cls-7{stroke-width:0.5px;}.cls-8{clip-path:url(#clip-path);}.cls-9{fill:#7e2d3a;}.cls-13{fill:#a0dbf0;stroke:#4a91cd;stroke-linejoin:round;}</style><clipPath id="clip-path"><path class="cls-1" d="M100.65,60.7c-3.75,1.78-12.78,4.21-26.18,5.39s-22.67.16-27.58-1.5C42.2,63,37.72,65,36.76,68.31c-1.31,4.54,2.75,13,11.3,15.79s21.44,5.13,32.81.48,15.21-7.88,18-13.36C102,65.05,101.45,60.32,100.65,60.7Z"/></clipPath></defs><title>Correct feedbacK_Oso Panda</title><g id="Layer_2" data-name="Layer 2"><g id="Layer_1-2" data-name="Layer 1"><rect class="cls-2" width="153.75" height="120.03"/><path class="cls-3" d="M92.06,89.73c.22,3.91,22.64.68,35.19-7.93s25.68-28.22,23.69-36.37-11.87-10.68-16.55-7.51-13.54,27.35-20.31,32.21S91.81,85.21,92.06,89.73Z"/><path class="cls-4" d="M114.66,120c-2.57-6.81-5.94-14.22-8.74-20.83-9.06-21.4-26.64-20.06-34.22-19C52.62,82.69,45.93,104.76,42.91,120Z"/><path d="M43,120c2-10.07,4.51-18.5,8.14-24.71,5.16-8.86,12.07-13.92,20.54-15,6.1-.81,24.66-3.28,34.09,19,.82,1.94,1.69,4,2.53,5.89,2,4.72,4.37,10.09,6.19,14.89h.26c-1.82-4.83-4.16-10.24-6.22-15-.84-1.94-1.71-4-2.53-5.89-3.92-9.26-9.89-15.31-17.75-18C82,79,75.8,79.48,71.69,80,63.14,81.16,56.16,86.27,51,95.19c-3.64,6.25-6.17,14.72-8.17,24.84Z"/><path class="cls-3" d="M76.43,23.39c2.61,7,12.9,9.52,20.28,6.75S108,19.48,105.34,12.53,94.63,2.19,87.25,5,73.82,16.44,76.43,23.39Z"/><path class="cls-5" d="M53.74,7.07C66.25,4.79,94.67,9.34,109,28.84s15,35.41,0,48.08S70,94.79,50.81,91.54,23.52,75,22.22,56.78,31,11.2,53.74,7.07Z"/><path class="cls-3" d="M31.06,39.91c-2.62,7-12.9,9.52-20.28,6.75S-.47,36,2.14,29.05s10.72-10.34,18.1-7.56S33.67,33,31.06,39.91Z"/><path class="cls-6" d="M30.07,41.35c-2,5.26-9.76,7.21-15.34,5.11S6.22,38.4,8.19,33.14s8.11-7.83,13.69-5.73S32,36.09,30.07,41.35Z"/><path class="cls-3" d="M56,24.83c5.31-.76,17.55,4.44,17.33,17.65s-5.52,17-12.67,19-16,1.19-19.82-7.69S43.94,26.55,56,24.83Z"/><path class="cls-3" d="M87.53,22.77c3-1.62,12,.65,18.08,9.53s3.47,16-1.3,19.71S90,53.75,84.82,45.19,80.26,26.67,87.53,22.77Z"/><path class="cls-7" d="M61.78,35.58c3-.43,7.8,3.65,8.12,9.34s-2.6,9.26-6.09,9.5-8.21-3-7.72-10S59.5,35.9,61.78,35.58Z"/><path class="cls-7" d="M97.1,32.78c2.24-.72,6.45,2.17,7.44,6.93s-.77,8.14-3.42,8.76-6.67-1.56-7.22-7.53S95.4,33.33,97.1,32.78Z"/><ellipse cx="66.31" cy="45.66" rx="2.12" ry="3.34" transform="translate(-3.55 5.65) rotate(-4.75)"/><ellipse cx="100.1" cy="41.37" rx="2.12" ry="3.34" transform="translate(-3.08 8.43) rotate(-4.75)"/><path d="M81,53c.81,0,1.3-3.17,4.55-3.17s5,9.18-2.28,11.38S70.79,56.05,74,52.88,79.49,53,81,53Z"/><path class="cls-1" d="M82.73,65.84s-.16-4.35-.32-6"/><g class="cls-8"><path class="cls-9" d="M102.12,54.13c-3.75,1.78-14.25,10.78-27.65,12s-22.87.79-27.58-1.5-9.14-.93-10.13,3.72,2.75,13,11.3,15.79,20.6,4.18,32-.47S98.17,73,100.49,66.45,102.92,53.75,102.12,54.13Z"/><path class="cls-10" d="M89.73,58.25c4.31,1.22,11.42,6.12,12.1,10.81S79.54,96.22,59.69,91,29.8,82,28,73C25.84,62.16,29.8,57,43.06,58.29S87.39,57.59,89.73,58.25Z"/><path class="cls-11" d="M33.55,63.57c1.66,4.2,15.55,10.29,29.75,9.58C78,72.42,90.06,70,97.05,64.59s9.8-8.11,10.47-11.67-7.34-9.49-7.34-9.49S75.35,58.58,66.53,57.64,37.74,51.92,34,50.05,31.75,59,33.55,63.57Z"/></g><path class="cls-1" d="M100.65,60.7c-3.75,1.78-12.78,4.21-26.18,5.39s-22.67.16-27.58-1.5C42.2,63,37.72,65,36.76,68.31c-1.31,4.54,2.75,13,11.3,15.79s21.44,5.13,32.81.48,15.21-7.88,18-13.36C102,65.05,101.45,60.32,100.65,60.7Z"/><path class="cls-12" d="M115.1,120l-.11-.29c-7.12-19.32-22.23-22.81-31.52-22.29-16.85.94-31.6,10.19-36.38,18.86A29.54,29.54,0,0,0,45.9,120Z"/><path d="M46,120a31.54,31.54,0,0,1,1.18-3.66c2.41-4.37,7.37-8.85,13.61-12.28a53.76,53.76,0,0,1,22.67-6.52c6.83-.38,23.74,1.46,31.39,22.21,0,.09.06.17.09.25h.27l-.12-.34c-3.18-8.6-8.4-15.29-15.11-18.89a31.39,31.39,0,0,0-16.53-3.48,53.9,53.9,0,0,0-22.78,6.55c-6.28,3.45-11.28,8-13.71,12.38A31.09,31.09,0,0,0,45.75,120Z"/><path class="cls-4" d="M48.65,120a46.2,46.2,0,0,0-5.92-5.54s9.53-3,16.63-9.67L53.77,92c-11.17-.72-32.21,3.33-35.43,18.22-.27,3.48,1.35,7.1,3.49,9.79Z"/><path d="M42.44,114.45l.22.14A48.59,48.59,0,0,1,48.48,120h.33a42.12,42.12,0,0,0-5.8-5.5c1.53-.53,10-3.62,16.43-9.61a.13.13,0,0,0-.17-.19c-7,6.54-16.48,9.61-16.58,9.64Z"/><path d="M22,120c-2.43-3-3.77-6.65-3.52-9.77,1.77-8.21,9-12.62,14.65-14.87a51,51,0,0,1,20.65-3.24.13.13,0,0,0,0-.25A51.34,51.34,0,0,0,33,95.16c-5.76,2.27-13,6.73-14.81,15.07-.25,3.14,1.07,6.76,3.46,9.8Z"/><path class="cls-13" d="M127,86.43s-3,8.44,5.74,10.95c0,0-10.59-4-13.37,1.88,0,0,.81-10.49-.9-11.3C118.5,88,125.59,88.14,127,86.43Z"/><path class="cls-13" d="M34.22,88.35s-6.68,5.13-6.84,7.15c0,0-6.06-8.86-8.7-9.33,0,0,6.84-1.24,7.62-3.88C26.3,82.29,27.23,86.79,34.22,88.35Z"/></g></g></svg>