<svg xmlns="http://www.w3.org/2000/svg" viewBox="0 0 300 111.55"><defs><style>.cls-1{fill:#3c2faf;}.cls-2{fill:#fff;}.cls-3{fill:#191919;}.cls-4{fill:#e1ffff;}.cls-5{fill:#020202;}.cls-6{fill:#c10505;}.cls-7{fill:#bcbcbc;}.cls-8{fill:#6d6d6d;}.cls-9{fill:#e5bb0a;}.cls-10{fill:#565656;}.cls-11{fill:#636363;}.cls-12{fill:#3a3a3a;}.cls-13{fill:#969696;}.cls-14{fill:#0a0a0a;}.cls-15{fill:#515151;}.cls-16{fill:#c4c4c4;}</style></defs><title>auto 1</title><g id="Capa_2" data-name="Capa 2"><g id="Capa_2-2" data-name="Capa 2"><path class="cls-1" d="M157.28,1.4c22.13-1.11,61.84-2.44,84,.91a.59.59,0,0,0,.39-.08c.78-.53,4.1-2.6,6.82-2.17A.57.57,0,0,1,249,.7l-.31,2.54c-.07.58.18.88.52.9,2.84.18,14.63,1,19.32,2a.59.59,0,0,1,.32,1L267,9.27a.59.59,0,0,0,.12.87c2.32,1.58,11.66,8.08,18.18,15.35a.55.55,0,0,0,.53.18c.85-.15,3.23-.42,3.78,1.1a.73.73,0,0,1,0,.25,1.5,1.5,0,0,1-.58,1.09.58.58,0,0,0,.07.94A9.16,9.16,0,0,1,293,33.52a15.22,15.22,0,0,1,.05,10,.53.53,0,0,0,0,.25c.11,1,.87,7.72,2.59,10.19a2.46,2.46,0,0,1,.48,1.43V61.6a.59.59,0,0,0,.4.56A4.83,4.83,0,0,1,299,64.67c.56,1,.39,2.77.2,3.89a2.74,2.74,0,0,0,.27,1.64A8,8,0,0,1,300,74c-.19,3.71,1.22,14.66-13.65,15.45a.59.59,0,0,0-.55.49c-.19,1.06-.78,3.57-2.14,3.57-1.57,0-19.5-.94-23-1.12a.59.59,0,0,1-.56-.6c.08-4-2.08-27.21-25.12-27.21-23.71,0-26.46,23.46-24.87,28.26a.52.52,0,0,1-.5.68l-117,.67h-.07a3.89,3.89,0,0,0-3.06,1,.63.63,0,0,1-.45.2H81a.6.6,0,0,1-.59-.69c.66-3.64,2.81-20.59-12.3-28a26.71,26.71,0,0,0-22.49-.29c-8.41,3.69-17.95,12-13,30.2a.6.6,0,0,1-.4.73l-3.39,1a.58.58,0,0,1-.76-.56v-.76a.6.6,0,0,0-.56-.59L11,95.39S10,95.5,10,94a.6.6,0,0,0-.6-.61H7.1a3.77,3.77,0,0,1-3.51-2s-2.41-3.59-1.88-4.69a2.87,2.87,0,0,0,.17-1.59c-.26-1.8-.77-4.83-1.24-5A1.19,1.19,0,0,1,0,79s-.13-9.23,2.05-9.58c0,0,1.26-.48,1-3.14A1.46,1.46,0,0,1,3.54,65,2.56,2.56,0,0,0,5,62.63a.61.61,0,0,0-.6-.59H4a.6.6,0,0,1-.65-.61c.06-1.76.58-6.71,4.39-7.11a.59.59,0,0,0,.53-.56h0a.59.59,0,0,0-.59-.62h0A.59.59,0,0,1,7,52.65c-.14-.78,0-2.43,2.35-4.22,3.33-2.5,29.48-12,63.8-14.23A16.42,16.42,0,0,0,80.69,32c2.21-1.43,21-12.55,38.44-20.91A99.91,99.91,0,0,1,157.28,1.4Z"/><circle class="cls-2" cx="234.77" cy="86.82" r="19.93"/><path class="cls-3" d="M234.77,111.55a24.74,24.74,0,1,1,24.74-24.73A24.76,24.76,0,0,1,234.77,111.55Zm0-39.86a15.13,15.13,0,1,0,15.12,15.13A15.15,15.15,0,0,0,234.77,71.69Z"/><circle class="cls-2" cx="56.02" cy="86.82" r="19.93"/><path class="cls-3" d="M56,111.55A24.74,24.74,0,1,1,80.76,86.82,24.76,24.76,0,0,1,56,111.55Zm0-39.86A15.13,15.13,0,1,0,71.14,86.82,15.15,15.15,0,0,0,56,71.69Z"/><path class="cls-4" d="M160.77,8.34,155.1,33.43s-37.11,3-65.28,1.63C89.82,35.06,116.65,8.34,160.77,8.34Z"/><path class="cls-5" d="M105.9,36c-5.49,0-11-.11-16.1-.35l-1.31-.06.93-.93a92.54,92.54,0,0,1,19-13.46,109.65,109.65,0,0,1,52.3-13.43h.72L155.57,34l-.42,0C154.84,34,130.13,36,105.9,36ZM91.22,34.55c26,1.1,59.29-1.35,63.41-1.66l5.42-24a108.48,108.48,0,0,0-51,13.26A96.61,96.61,0,0,0,91.22,34.55Z"/><path class="cls-4" d="M167.31,8.34,161.93,33s33.84-1.15,41.53-4c0,0,37.59-7.69,41-14.52.77-2.5,2.4-3.27-3.08-3.75S167.31,8.34,167.31,8.34Z"/><path class="cls-5" d="M161.21,33.65l5.64-25.9h.48c2.8.08,68.72,1.93,74.15,2.41,2.77.24,3.85.56,4.27,1.26s.09,1.29-.24,2.06a9.58,9.58,0,0,0-.45,1.17l0,.09c-3.52,6.94-39.32,14.38-41.4,14.81-7.77,2.87-40.29,4-41.67,4.06Zm6.56-24.72-5.12,23.51c5-.19,33.72-1.39,40.61-4l.08,0c10.36-2.12,37.78-8.78,40.63-14.17a12,12,0,0,1,.48-1.24c.16-.37.38-.89.31-1s-.67-.47-3.38-.71C236.22,10.86,173.89,9.1,167.77,8.93Z"/><polygon points="160.77 7.79 167.31 7.79 161.93 33.6 155.1 34.01 160.77 7.79"/><path d="M161,93.73a294.51,294.51,0,0,1,1.16-60.79l.38.05a294.26,294.26,0,0,0-1.15,60.71Z"/><path d="M94,94.22c-5-24.5-4.92-39.2-4-47.21,1-8.73,3.17-11.6,3.26-11.72l.31.24c-.09.11-8.67,11.93.8,58.61Z"/><path d="M90.3,35.75c-1-.13-1.29-1.1-.54-1.59,6.16-4.1,25.47-16.18,25.95-7,.58,10.87-.09,12.79-6.24,11.56C104.82,37.75,94.88,36.37,90.3,35.75Z"/><path class="cls-6" d="M262.09,35.57h0a11.94,11.94,0,0,0,5.2,4.31l15.91,6.85a1.12,1.12,0,0,0,.44.09h0a3.48,3.48,0,0,0,2.74-1.33l5.26-6.7a1.09,1.09,0,0,0,.23-.68h0a3.43,3.43,0,0,0-2.14-3.18h0a17.76,17.76,0,0,0-7-1.32L263,33.87a1.15,1.15,0,0,0-.51.14h0A1.09,1.09,0,0,0,262.09,35.57Z"/><path d="M283.64,47.4a1.66,1.66,0,0,1-.66-.14l-15.92-6.85a12.44,12.44,0,0,1-5.45-4.52h0a1.68,1.68,0,0,1,.58-2.39,1.65,1.65,0,0,1,.78-.2L282.72,33a18.42,18.42,0,0,1,7.22,1.36,4,4,0,0,1,2.51,3.73,1.65,1.65,0,0,1-.36,1l-5.25,6.7A4.06,4.06,0,0,1,283.64,47.4ZM262.57,35.25a11.25,11.25,0,0,0,4.95,4.1l15.91,6.85a.54.54,0,0,0,.21,0,2.9,2.9,0,0,0,2.29-1.12l5.25-6.7a.45.45,0,0,0,.11-.31,2.85,2.85,0,0,0-1.78-2.66,17.28,17.28,0,0,0-6.78-1.28L263,34.45a.5.5,0,0,0-.24.06.49.49,0,0,0-.25.33.5.5,0,0,0,.07.41Z"/><path class="cls-7" d="M9.87,51.12l1,5,9.55.83,23.8-12.27a.32.32,0,0,0-.12-.61C39.7,43.59,22.21,42.39,9.87,51.12Z"/><path d="M20.56,57.54l-10.14-.89L9.23,50.86l.31-.21C21.91,41.9,39.19,43,44.2,43.49a.9.9,0,0,1,.78.73.88.88,0,0,1-.47,1Zm-9.18-2,8.95.78,22.89-11.8c-5.72-.52-21.31-1-32.71,6.81Z"/><path class="cls-8" d="M11.27,51.89l1.22,1a.4.4,0,0,0,.2.09l1.88.28a.41.41,0,0,1,.33.31l.25,1.14a.41.41,0,0,0,.4.32H17.2a.4.4,0,0,0,.4-.37l.28-3.91a.41.41,0,0,1,.47-.37l3.08.49a.4.4,0,0,0,.46-.36l.18-2.15A.41.41,0,0,1,22.4,48l1.48-.28a.4.4,0,0,1,.48.39v4a.4.4,0,0,0,.68.28l4.13-4.16a.4.4,0,0,0-.26-.68l-3.86-.26a.4.4,0,0,1-.37-.32h0a.4.4,0,0,0-.5-.31,81.66,81.66,0,0,0-12.84,4.52A.39.39,0,0,0,11.27,51.89Z"/><path class="cls-9" d="M33.8,45.22l-6.26,6.67a.17.17,0,0,0,.21.26l13.32-7a.19.19,0,0,0-.08-.36C39.31,44.67,35,44.5,33.8,45.22Z"/><path class="cls-10" d="M27.67,52.37a.35.35,0,0,1-.29-.15.36.36,0,0,1,0-.47l6.3-6.69c1.16-.72,5.07-.61,7.3-.48a.38.38,0,0,1,.16.72l-13.32,7A.41.41,0,0,1,27.67,52.37Zm6.26-7-6.15,6.55L41,45C37.35,44.75,34.72,44.9,33.93,45.37Z"/><path class="cls-11" d="M3.06,72.22l10.82-1.78s5.48,7.93,3,9.47-2.31,1.78-5.15,2-6.82.87-7.4-.67S.29,72.68,3.06,72.22Z"/><path d="M7.18,82.77c-1.66,0-3-.29-3.41-1.36-.08-.21-.21-.52-.37-.9-1.28-3-2.58-6.37-1.69-8A1.68,1.68,0,0,1,3,71.65H3l11.17-1.84.21.3c.44.64,4.25,6.26,3.68,9a1.91,1.91,0,0,1-.87,1.28L16,81.11a6.67,6.67,0,0,1-4.29,1.35l-1.46.12C9.22,82.67,8.15,82.77,7.18,82.77Zm-4-10a.54.54,0,0,0-.44.28c-.69,1.27,1.08,5.43,1.74,7,.17.4.31.73.39,1,.33.87,3.34.6,5.33.42l1.49-.12a5.54,5.54,0,0,0,3.74-1.17l1.14-.72a.73.73,0,0,0,.35-.54c.38-1.81-2.08-6-3.29-7.81L3.16,72.79Z"/><path class="cls-12" d="M3.46,73.09,12,71.69s4.31,6.25,2.34,7.46-1.81,1.4-4.05,1.55-5.37.68-5.83-.53S1.27,73.45,3.46,73.09Z"/><path class="cls-13" d="M5.32,73.59l1.6,2.82a.29.29,0,0,0,.24.14H11a.28.28,0,0,0,.13,0l1.89-1a.28.28,0,0,0,.13-.36l-.82-1.81a.25.25,0,0,0-.2-.16l-3.32-.56a1.29,1.29,0,0,0-.48,0l-2.84.51A.28.28,0,0,0,5.32,73.59Z"/><path class="cls-14" d="M141.25,44.21a.7.7,0,0,0-.22,1c.78,1.16,3.08,3.52,8.74,3.08s7.47-3.53,8.06-5a.68.68,0,0,0-.56-.93C154.64,42,146.24,41.24,141.25,44.21Z"/><path class="cls-15" d="M142.15,44.2s9.42-.51,9.73-1,3.44-.94,3.44-.62-.24,1.58-3.46,1.9-10,1.06-10.43.91S140.88,44.27,142.15,44.2Z"/><path class="cls-14" d="M208.79,39.27a.7.7,0,0,0-.23,1c.79,1.17,3.09,3.52,8.74,3.09s7.48-3.53,8.07-5a.7.7,0,0,0-.56-.94C222.17,37,213.77,36.3,208.79,39.27Z"/><path class="cls-15" d="M209.69,39.25s9.42-.5,9.73-1,3.44-.94,3.44-.63-.24,1.59-3.46,1.9-10,1.06-10.44.91S208.42,39.32,209.69,39.25Z"/><path class="cls-14" d="M224.72,65.89l-.36-.13c.06-.17,6.24-17.08,8.24-22.44a9.85,9.85,0,0,0-.84-9l-7.38-10.42.32-.23,7.37,10.43a10.2,10.2,0,0,1,.89,9.37C231,48.81,224.78,65.72,224.72,65.89Z"/><rect class="cls-16" x="219.2" y="8.67" width="0.38" height="16.85" transform="translate(35.21 137.52) rotate(-37.63)"/><path class="cls-6" d="M296.11,68.62l-4.82.41a.42.42,0,0,0-.32.19l-3,4.58a.44.44,0,0,0,.42.67l6.17-.73a.43.43,0,0,0,.35-.27l1.67-4.26A.43.43,0,0,0,296.11,68.62Z"/><path d="M288.3,75.05a1,1,0,0,1-.85-.48,1,1,0,0,1,0-1.09l3-4.58a1,1,0,0,1,.76-.45l4.82-.4a1,1,0,0,1,1,1.37l-1.67,4.26a1,1,0,0,1-.82.63l-6.18.73Zm3.11-5.45-2.81,4.26,5.78-.68,1.55-4Z"/></g></g></svg>