<svg xmlns="http://www.w3.org/2000/svg" viewBox="0 0 120 124.26"><defs><style>.a0f1154c-ad1d-4040-a331-dba541aca876,.aa1a557c-f96b-4836-8ed9-6dd874a56967,.ab90402f-4584-4b83-bb23-8f15a4b0326c,.ba055e88-5a57-4011-b33a-a9cc7e2743df{fill:none;}.a2da8992-f391-4b1c-b812-e86992947d3d,.a49228f3-4512-478a-a1f7-d2b939b85ec4{fill:#f0eb6b;}.a2da8992-f391-4b1c-b812-e86992947d3d,.a5040520-f5b7-46d0-9e0b-1830e7bb41ec,.aa1a557c-f96b-4836-8ed9-6dd874a56967,.ab90402f-4584-4b83-bb23-8f15a4b0326c,.ad11c08a-f007-4269-b4cf-51c2a8b33fae,.ba055e88-5a57-4011-b33a-a9cc7e2743df,.f5d4b252-a4ac-4aac-8503-4f9aae9a6d14,.fb8a904a-73e6-4bbd-a776-444eb3fe9805{stroke:#000;stroke-linejoin:round;}.a2da8992-f391-4b1c-b812-e86992947d3d,.a5040520-f5b7-46d0-9e0b-1830e7bb41ec,.ab90402f-4584-4b83-bb23-8f15a4b0326c,.ad11c08a-f007-4269-b4cf-51c2a8b33fae,.ba055e88-5a57-4011-b33a-a9cc7e2743df,.f5d4b252-a4ac-4aac-8503-4f9aae9a6d14,.fb8a904a-73e6-4bbd-a776-444eb3fe9805{stroke-linecap:round;}.a2da8992-f391-4b1c-b812-e86992947d3d,.ad11c08a-f007-4269-b4cf-51c2a8b33fae,.f5d4b252-a4ac-4aac-8503-4f9aae9a6d14{stroke-width:0.15px;}.ab90402f-4584-4b83-bb23-8f15a4b0326c{stroke-width:0.93px;}.ba055e88-5a57-4011-b33a-a9cc7e2743df{stroke-width:0.62px;}.ad11c08a-f007-4269-b4cf-51c2a8b33fae{fill:#f6e003;}.a5040520-f5b7-46d0-9e0b-1830e7bb41ec,.aa1a557c-f96b-4836-8ed9-6dd874a56967,.fb8a904a-73e6-4bbd-a776-444eb3fe9805{stroke-width:0.31px;}.a5040520-f5b7-46d0-9e0b-1830e7bb41ec{fill:#114283;}.aa65539c-f021-4f23-be8c-e3d603a0368a{fill:#fff;}.fb8a904a-73e6-4bbd-a776-444eb3fe9805{fill:#74baed;}.f5d4b252-a4ac-4aac-8503-4f9aae9a6d14{fill:#abf680;}.ae6a6b14-5eea-49c8-97a3-8d6e68e1ea9d{fill:#f5ece3;}</style></defs><title>Mistake feedback_SUKI</title><g id="bab06f6d-f7c9-4925-bbcc-891d28aa26bf" data-name="Capa 2"><g id="a2c4815f-d7fd-4e9f-a8b3-ef7628364b33" data-name="Capa 1"><rect class="a0f1154c-ad1d-4040-a331-dba541aca876" width="120" height="124.26"/><g id="aa1d2464-083f-4016-93e9-dc0896b27475" data-name="Layer 2"><g id="a8f0c6b6-9b8c-4148-b2db-b56d320d1c32" data-name="Layer 4"><g id="edcc189b-c2a1-4dc1-8fb0-0db9aa03dd0e" data-name="brazo izq"><path class="a2da8992-f391-4b1c-b812-e86992947d3d" d="M76.37,88.47c1.3-1.93,3.87-1.07,4-1,.68.08,15.08,11.18,15.24,11.29s7.38,1,5.62,5-8.44,1.09-9.5.34S77.5,93.81,77,92.9C76.89,92.73,75,90.57,76.37,88.47Z"/></g><g id="b2e31607-8bfe-408d-bbe3-0a799cf2939b" data-name="cuerpo"><g id="fed787e0-2883-4126-acf7-78ac52f9c36a" data-name="cuerpo-2"><path class="a49228f3-4512-478a-a1f7-d2b939b85ec4" d="M52.27,124.26c-1.12-6.82-2.87-15.28-3-16,0-.33-1.2-9.25-.16-11.5,1.41-3.15,5.9-2.28,9.05-3.7,4.75-2.16,12.19-5,17.08-3.3,3.15,1.13,6.35,6.92,7.48,8.33,2.12,2.73,9.41,11.62,11.76,17.93.93,2.49,1.85,5.29,2.63,8.2Z"/><path d="M97.07,124.26h.17c-.69-2.63-1.59-5.41-2.64-8.23-2.11-5.68-8.33-13.57-11-16.94l-.79-1c-.24-.3-.58-.8-1-1.44-1.51-2.25-4-6-6.51-6.91C71.59,88.4,66,89.48,58.18,93a15.11,15.11,0,0,1-3.66.92c-2.32.39-4.51.75-5.43,2.82s-.15,8.69.09,10.91c0,.34.06.58.07.63,0,.24.25,1.41.59,3.18.65,3.31,1.62,8.31,2.35,12.72,0,0,.15,0,.15,0-.73-4.42-1.7-9.42-2.35-12.73-.33-1.7-.57-2.93-.59-3.16,0,0,0-.23-.07-.64-.65-5.92-.68-9.56-.1-10.83.89-2,3-2.35,5.31-2.73a15.17,15.17,0,0,0,3.71-.93c5.63-2.57,10.11-3.84,13.56-3.84a10.26,10.26,0,0,1,3.46.54c2.44.88,4.94,4.62,6.43,6.85.43.64.76,1.15,1,1.46l.79,1c2.65,3.36,8.85,11.24,11,16.89C95.49,118.87,96.39,121.67,97.07,124.26Z"/></g></g><g id="ac74ec3e-63c0-4258-9e2b-5117fb1382ab" data-name="cabeza"><path class="a2da8992-f391-4b1c-b812-e86992947d3d" d="M43.91,26.63c15.43-4.56,29.26-1.46,40.18,8.71C96.18,46.63,99,72.69,96.32,79.28c-2,4.93-5.6,13.26-28.65,18.3-27.47,6-36.77-3.21-40.58-7-9.38-12.18-12.21-23-5.67-42.57C25.47,36.94,32.24,30.07,43.91,26.63Z"/></g><g id="a7a28ce7-2236-412e-ab01-6c8886ea0efc" data-name="brazo der"><path class="a49228f3-4512-478a-a1f7-d2b939b85ec4" d="M56.24,105.9c-.42.62-11.81,5.32-11.9,5.89S53.46,121,56.1,123.64c.17.18.41.39.68.62h-11c-4.24-3.64-8.88-8.33-8.63-11.26.37-4.47,15.24-12.61,16-12.7"/><path d="M56,123.62l.65.64h.25s-.55-.51-.71-.68l-2.91-2.79c-3.33-3.17-8.91-8.48-8.83-9,.12-.29,3.51-1.83,6.23-3.07,3.39-1.54,5.46-2.49,5.66-2.78a.07.07,0,0,0,0-.11.08.08,0,0,0-.11,0,48.42,48.42,0,0,1-5.6,2.73c-4.25,1.94-6.26,2.88-6.31,3.18-.11.53,3.78,4.28,8.88,9.13C54.31,122,55.31,123,56,123.62Z"/></g><g id="fad94b0d-02b7-4e48-9c05-22a675b218e6" data-name="cejas"><path class="ab90402f-4584-4b83-bb23-8f15a4b0326c" d="M41,62.05A116.63,116.63,0,0,0,52.84,64c8.75,1.08,11.24.06,11.24.06"/></g><g id="ba1863a3-a12d-4d92-8c57-ebe7abcb0f81" data-name="cejas-2"><path class="ab90402f-4584-4b83-bb23-8f15a4b0326c" d="M71.63,56.73s3.3-5.94,7.81-6.37c6.07-.6,8.47,1.81,8.47,1.81"/></g><g id="be0cf1d2-f5ce-4052-9171-993fe8cff8e0" data-name="cejas-3"><path class="ba055e88-5a57-4011-b33a-a9cc7e2743df" d="M42.6,78.78A42,42,0,0,0,57.72,81c10.11-.49,10.66-2.36,10.66-2.36"/></g><g id="f17f57ef-8231-4204-b9e6-b410f4e59d7f" data-name="El pico"><path class="ad11c08a-f007-4269-b4cf-51c2a8b33fae" d="M73.71,70.93c-2.82.47-4.56,4.56-7,5.93-2.83,1.69-10.26,3.81-10.3,3.85s2.49,3.4,4.7,7c2,3.3,2.82,5.7,3.62,6.68s3.15,4,5.41,4.66c6.73,1.84,16.51-4.66,20.47-6.21,3.52-1.41,19.14-2.49,17.12-8.33-.52-1.6-4.23-1.5-4.89-1.69a16.82,16.82,0,0,1-5.36-1.54,24.88,24.88,0,0,1-7.63-7.06,43.86,43.86,0,0,1-7.71,0C79.54,73.75,76.53,70.46,73.71,70.93Z"/><path d="M74.42,72.81a4,4,0,0,1,.92,1.85h-.83A6.17,6.17,0,0,0,74,73Z"/><path d="M75.36,74.65a4.7,4.7,0,0,1-1,1.88L74,76.39a7.36,7.36,0,0,0,.47-1.74Z"/><path class="aa1a557c-f96b-4836-8ed9-6dd874a56967" d="M75.36,74.65h-.85"/><path d="M76.2,72.43a11.53,11.53,0,0,0,1.24,1.37l-.34.43A7.24,7.24,0,0,1,76,72.69Z"/><path class="aa1a557c-f96b-4836-8ed9-6dd874a56967" d="M76.2,72.43l-.28.24"/><path d="M77.38,73.8c.47.37,1.74,1.18,1.74,1.18l-.09.18a9.23,9.23,0,0,1-2-.94Z"/><path class="aa1a557c-f96b-4836-8ed9-6dd874a56967" d="M77.38,73.8l-.33.43"/></g><path class="a5040520-f5b7-46d0-9e0b-1830e7bb41ec" d="M80.81,60.09a4.51,4.51,0,1,1-4.32,4.69h0A4.52,4.52,0,0,1,80.81,60.09Z"/><g id="a4a160d5-e35d-446f-9c94-5d4df2a960ee" data-name="brazo izq-2"><path class="a2da8992-f391-4b1c-b812-e86992947d3d" d="M92.38,101.27c-.9-.93-6.61-6-9.24-9.9a22.6,22.6,0,0,0-4-2.56c-1.4-.81-2.71-2.47-2.19-3.27.31-.42,2.71-.82,6.65-.65,3.5.14,4.5,1.81,4.93,2.23,2.11,2.26,8.33,9.3,8.42,9.45s3.94,3.28,4.13,3.94c0,.14,1.18,2.51-.51,4.12"/></g><g id="b79740c4-e52b-4db3-a22f-5865c390caef" data-name="ojos"><g id="ac1fbdd8-76d6-4ab7-a119-1a4beb965416" data-name="ojos-2"><path class="aa65539c-f021-4f23-be8c-e3d603a0368a" d="M40.94,70.2a3,3,0,0,1,0-2c1.66-2.87,7.1-3.33,10.42-3.62,2.93-.27,7.63-.53,9.75,1.54a2.94,2.94,0,0,1,.7,2,4,4,0,0,1-1,2.32c-2.16,2.21-6.58,3.15-9.63,3.4-2.67.21-6.63-.07-8.84-1.66A4.52,4.52,0,0,1,40.94,70.2Z"/><path d="M40.49,70.35A3.22,3.22,0,0,1,40.57,68l.87.52a2.06,2.06,0,0,0,0,1.57Z"/><path d="M40.57,68c1.91-3,7.51-3.47,10.79-3.76l0,.76c-3.27.29-8.52.86-10,3.48Z"/><path class="aa1a557c-f96b-4836-8ed9-6dd874a56967" d="M40.57,68l.87.52"/><path d="M51.36,64.29c3-.27,7.71-.35,9.92,1.77l-.29.32c-2-2-6.61-1.56-9.58-1.29Z"/><path class="aa1a557c-f96b-4836-8ed9-6dd874a56967" d="M51.36,64.29l0,.76"/><path d="M51.22,74c-2.71.22-6.74.06-9-1.52l.35-.49c2.13,1.51,6,1.92,8.66,1.74Z"/><path class="aa1a557c-f96b-4836-8ed9-6dd874a56967" d="M51.22,74l0-.31"/><path d="M42.21,72.46a4.78,4.78,0,0,1-1.71-2.11l.93-.29A3.67,3.67,0,0,0,42.55,72Z"/><path class="aa1a557c-f96b-4836-8ed9-6dd874a56967" d="M42.21,72.46l.35-.48"/><path class="aa65539c-f021-4f23-be8c-e3d603a0368a" d="M92.28,62.44a5.72,5.72,0,0,0-.93-2.33c-2.5-2.66-7-2.07-9.63-1.5-2.37.49-6,1.65-6.69,4.51a5,5,0,0,0,.4,2.55,7.14,7.14,0,0,0,1.85,2.47c2.57,1.88,6.48,2,8.93,1.43,2.14-.5,5-2,5.93-4.34A5.49,5.49,0,0,0,92.28,62.44Z"/><path d="M91.82,62.42a4.49,4.49,0,0,0-.74-1.88l.52-.86a6.45,6.45,0,0,1,1.16,2.77Z"/><path d="M91.08,60.54c-2.24-2.5-6.56-2-9.23-1.45l-.31-.93c2.67-.57,7.24-1.32,10,1.54Z"/><path class="aa1a557c-f96b-4836-8ed9-6dd874a56967" d="M91.08,60.54l.52-.86"/><path d="M81.86,59.08c-2.36.5-6,1.48-6.64,4.22L75,63.17c.75-3,4.17-4.53,6.54-5Z"/><path d="M86.14,69.43c2.14-.5,4.87-2.16,5.76-4.42l.6.13c-1,2.42-4.06,4.15-6.2,4.65Z"/><path class="aa1a557c-f96b-4836-8ed9-6dd874a56967" d="M86.14,69.43l.13.38"/><path d="M91.9,65a5.47,5.47,0,0,0-.08-2.59l.93,0a5.21,5.21,0,0,1-.25,2.71Z"/><path d="M40.93,70.7a8.67,8.67,0,0,1-2.09-.32l.16-.51a4,4,0,0,0,2-.13Z"/><path d="M38.84,70.38A4.77,4.77,0,0,1,37,69.11l.17-.24a6.18,6.18,0,0,0,1.79,1Z"/><path class="aa1a557c-f96b-4836-8ed9-6dd874a56967" d="M38.84,70.38l.16-.51"/><path d="M40.88,68.75a8.41,8.41,0,0,1-2.16-.81l.24-.48a2.91,2.91,0,0,0,2.16.28Z"/><path class="aa1a557c-f96b-4836-8ed9-6dd874a56967" d="M40.88,68.75l.24-1"/><path d="M38.69,68a5.32,5.32,0,0,1-2.29-2.19l.18-.21a6.9,6.9,0,0,0,2.34,1.92Z"/><path class="aa1a557c-f96b-4836-8ed9-6dd874a56967" d="M38.69,68l.23-.48"/><path d="M40.49,70.35A3.22,3.22,0,0,1,40.57,68l.87.52a2.06,2.06,0,0,0,0,1.57Z"/><path class="aa1a557c-f96b-4836-8ed9-6dd874a56967" d="M40.49,70.35l.92-.29"/><path d="M92,61.92A2.87,2.87,0,0,0,93.66,61l.41.51A14.26,14.26,0,0,1,92.6,63Z"/><path d="M93.65,61.06a9.09,9.09,0,0,0,.92-1.6l.18.14a4.58,4.58,0,0,1-.69,1.95Z"/><path d="M91,59.55c.09,0,1.42,0,1.85-.76l.45.25a7.42,7.42,0,0,1-1.69,1.64Z"/><path class="aa1a557c-f96b-4836-8ed9-6dd874a56967" d="M91,59.55l.63,1.12"/><path d="M92.86,58.81a11.64,11.64,0,0,0,.71-3.58l.21.13a9.06,9.06,0,0,1-.47,3.7Z"/><path d="M91.82,62.42a4.49,4.49,0,0,0-.74-1.88l.52-.86a6.45,6.45,0,0,1,1.16,2.77Z"/><path class="aa1a557c-f96b-4836-8ed9-6dd874a56967" d="M91.82,62.42l.93,0"/></g><g id="b44f63d7-7ffa-45e7-99a5-f2888aa64a29" data-name="pupilas 2"><path class="fb8a904a-73e6-4bbd-a776-444eb3fe9805" d="M57.54,65a4.65,4.65,0,1,1-4.6,4.7h0A4.66,4.66,0,0,1,57.54,65Z"/></g></g><g id="e8a12f9a-632b-45d8-a98b-716df933aaad" data-name="mechon"><path class="a2da8992-f391-4b1c-b812-e86992947d3d" d="M41.66,31.35c-2.56,1.17-6.75,0-9.31-.77-1.82-.56-4.87-2.91-5.67-3.25s-3.32-1.87-5.54-1.49c-2.38.41-5.07,3.5-5.07,3.5a18.91,18.91,0,0,1,2.38-9.95,13.06,13.06,0,0,1,4.18-4.19,10.19,10.19,0,0,0-3.14-4A15.86,15.86,0,0,0,12.05,8.7s5.58-3.27,10.21-4.06A21.33,21.33,0,0,1,31.75,5c3.59,1,9.87,4,12.66,7.86,2,2.89,3.32,7.44,2.72,10.68C46.63,26.34,44.28,30.16,41.66,31.35Z"/></g><g id="b5c61b7a-609f-4bdc-8a45-bee7579afc40" data-name="cole"><path class="f5d4b252-a4ac-4aac-8503-4f9aae9a6d14" d="M42.21,31.42c-1.11.59-8,3.72-9.2,3.32a8.6,8.6,0,0,1-2-2.27,10,10,0,0,1-1.41-2.88c.25-1.44,8.36-5.1,9.65-5.74s8.11-4,9.26-3.45a7.47,7.47,0,0,1,1.4,2.12,9,9,0,0,1,.66,3.39C50.16,27.12,43.34,30.83,42.21,31.42Z"/></g><path class="fb8a904a-73e6-4bbd-a776-444eb3fe9805" d="M87.08,59.82a4.66,4.66,0,1,1-4.6,4.71h0A4.68,4.68,0,0,1,87.08,59.82Z"/></g></g><path d="M53.11,100.22c-.84.11-15.68,8.28-16.06,12.77-.25,3,4.52,7.76,8.6,11.27h.22l-.08-.08C41.73,120.7,37,115.94,37.2,113c.2-2.33,4.36-5.6,7.83-7.94a56.16,56.16,0,0,1,8.1-4.69.08.08,0,1,0,0-.16Z"/><path class="ae6a6b14-5eea-49c8-97a3-8d6e68e1ea9d" d="M97.07,124.26c-.56-1.91-2.34-9.24-5.72-14.1C88.59,105.47,84,99.93,81.94,97.1c-4,1.73-7,2.52-10.21,2.31a6.39,6.39,0,0,1-4.06-1.76A84.35,84.35,0,0,1,56.19,99.4c1.18,2.21,8.19,22.07,6.15,24.86Z"/><path d="M62.47,124.26H62.2c2-3.33-6.06-24.66-6.14-24.87l.24,0C56.63,100.24,64.55,120.84,62.47,124.26Z"/></g></g></svg>