<svg xmlns="http://www.w3.org/2000/svg" xmlns:xlink="http://www.w3.org/1999/xlink" viewBox="0 0 334.91 467.76"><defs><style>.cls-1,.cls-16,.cls-17,.cls-5,.cls-6{fill:none;}.cls-2,.cls-7{fill:#6599ff;}.cls-10,.cls-11,.cls-13,.cls-14,.cls-16,.cls-17,.cls-2,.cls-24,.cls-3,.cls-5,.cls-6,.cls-7,.cls-8{stroke:#000;}.cls-18,.cls-2,.cls-21,.cls-22{stroke-miterlimit:10;}.cls-10,.cls-2,.cls-3,.cls-7{stroke-width:0.5px;}.cls-3,.cls-4{fill:#ff9531;}.cls-10,.cls-11,.cls-13,.cls-14,.cls-17,.cls-24,.cls-3,.cls-5,.cls-6,.cls-7,.cls-8{stroke-linecap:round;}.cls-10,.cls-11,.cls-13,.cls-14,.cls-16,.cls-17,.cls-24,.cls-3,.cls-5,.cls-6,.cls-7,.cls-8{stroke-linejoin:round;}.cls-11,.cls-6{stroke-width:0.75px;}.cls-8{fill:#f0eb6b;}.cls-9{clip-path:url(#clip-path);}.cls-10{fill:#f5ece3;}.cls-11{fill:#902e31;}.cls-12{clip-path:url(#clip-path-2);}.cls-13{fill:#f06b6b;}.cls-14,.cls-23{fill:#fff;}.cls-15{clip-path:url(#clip-path-4);}.cls-17{stroke-width:3px;}.cls-18{fill:#fcb042;stroke:#562f09;}.cls-19{fill:#ed9520;}.cls-20{fill:#fce8c8;}.cls-21{fill:#e44b86;stroke:#b53167;}.cls-22{fill:#a0a0b1;stroke:#71717f;}.cls-24{fill:#114283;}</style><clipPath id="clip-path" transform="translate(0 10.85)"><path class="cls-1" d="M160.49,198.65c-22.22-.15-34.39,10.31-47,24.57-6.57,7.43-9,16.17-10.88,25.4-1.23,6.15-9,47.49-11.88,68-3.34,24-14.06,56.86-8.23,80.4,2.22,9,7.74,21.58,15.51,26.54,15.26,9.74,42.22,1.3,60.32,1.29,17.14,0,42,6.76,57.1-1.29,8.3-4.41,16.37-15.66,19.45-24.53,8.2-23.53-2.92-58.1-5.86-82.84-2.41-20.31-8.46-56.56-11.12-67.27-2.57-10.3-5.1-18.54-10.21-24.73C197,211.29,183,198.8,160.49,198.65Z"/></clipPath><clipPath id="clip-path-2" transform="translate(0 10.85)"><path class="cls-1" d="M91,152.08c9,3.07,28,7.79,32.61,8.64,6,1.08,42.79,4.15,43.39,4.19s42.23,2.25,45.38,2.14c2.53-.09,28.55-4.62,36.61-6.23,2.77-.56,17.07-5.61,18.35-4.46,2.81,2.53-15.62,23.83-20,27.22-6.51,5-35.68,8.61-40,9.15-4.45.57-38.39,1.54-42.49,1.16-4.85-.44-42.36-8.16-49-10.63-4.49-1.67-24.93-10.69-30-15.95-3.67-3.82-13.73-19.63-11.14-22C76.65,143.69,86.36,150.49,91,152.08Z"/></clipPath><clipPath id="clip-path-4" transform="translate(0 10.85)"><path class="cls-1" d="M91,152.08c9,3.07,28,7.79,32.61,8.64,6,1.08,42.79,4.15,43.39,4.19s42.23,2.25,45.38,2.14c2.53-.09,28.19-4.44,36.25-6.06,2.77-.55,17.43-5.78,18.71-4.63,2.81,2.53-15.62,23.83-20,27.22-6.51,5-35.68,8.61-40,9.15-4.45.57-38.39,1.54-42.49,1.16-4.85-.44-42.36-8.16-49-10.63-4.49-1.67-24.93-10.69-30-15.95-3.67-3.82-13.73-19.63-11.14-22C76.65,143.69,86.36,150.49,91,152.08Z"/></clipPath></defs><title>Kuno glosa</title><g id="Layer_2" data-name="Layer 2"><g id="Layer_4" data-name="Layer 4"><g id="pelo_extIzq" data-name="pelo extIzq"><path class="cls-2" d="M280.63,118.63c6,.77,18,21.53,22.08,32.57,4.72,13.19,4,46.37,4,46.37s-22.46-11.24-31.63-17c-6.55-4.21-19.65-12.27-21-15.21-1.39-3.48.21-22.74,5-30.67C263.31,128,276.55,118.08,280.63,118.63Z" transform="translate(0 10.85)"/></g><g id="pelo_extIzq-2" data-name="pelo extIzq"><path class="cls-2" d="M76.75,136.87c2.88,8.83,0,27.94-2.15,31-1.95,2.56-16.55,7.39-23.9,10C40.45,181.34,16,187.11,16,187.11s7-32.45,14.58-44.2c6.49-9.81,23-27.23,29-26.61C63.67,116.7,74.28,129.35,76.75,136.87Z" transform="translate(0 10.85)"/></g><g id="pata_der" data-name="pata der"><path class="cls-3" d="M94.63,441.39c-1.17,1-4.28,4.28-6,6-2.33,2.14-7.59,6.81-7.59,7.39.2,1.95,26.09-.19,36,0,10.12.2,36.21,3.12,36.4,1.17,0-.58-5.64-5.64-8-8s-8-7.59-8.18-7.79-3.5-3.89-5.64-4.67c-4.09-1.95-10.52-1.75-15.19-1.56-4.28,0-10.32.59-14.4,2.14A60,60,0,0,0,94.63,441.39Z" transform="translate(0 10.85)"/></g><g id="pata_der-2" data-name="pata der"><path class="cls-3" d="M176.13,441.39c-1.16,1-4.28,4.28-6,6-2.34,2.14-7.59,6.81-7.59,7.39.19,1.95,26.08-.19,36,0,10.12.2,36.21,3.12,36.41,1.17,0-.58-5.65-5.64-8-8s-8-7.59-8.17-7.79-3.51-3.89-5.65-4.67c-4.09-1.95-10.51-1.75-15.18-1.56-4.29,0-10.32.59-14.41,2.14A61.51,61.51,0,0,0,176.13,441.39Z" transform="translate(0 10.85)"/></g><g id="pierna_izq" data-name="pierna izq"><path class="cls-4" d="M180.58,438.31s5.13,4.66,17.6,4.51c11.76-.14,16.5-4.59,16.51-4.6s1.29-14.37,1.81-20.53c.48-5.67,2.54-17.53,1.55-18.91-1.6-2.22-8-6-19.67-6.13-11.93-.16-19.46,3.1-20.22,5.75-.69,2.38-.26,13.7.08,19.56C178.61,424.09,180.57,438.29,180.58,438.31Z" transform="translate(0 10.85)"/><path class="cls-5" d="M214.69,438.22s1.29-14.37,1.81-20.53c.48-5.67,2.54-17.53,1.55-18.91-1.6-2.22-8-6-19.67-6.13-11.93-.16-19.46,3.1-20.22,5.75-.69,2.38-.26,13.7.08,19.56.37,6.13,2.33,20.33,2.34,20.35" transform="translate(0 10.85)"/></g><g id="pierna_der" data-name="pierna der"><path class="cls-4" d="M134.92,437.24S130,442,117.78,442c-12.37,0-17.37-4.74-17.38-4.76s-1.59-14.43-1.83-20.57-.86-16.74.23-20.27c.75-2.44,6.93-5.09,17.86-5.43,11.94-.38,17.7,2.95,19.82,4.79,1.57,1.38.5,14.25.26,20.42C136.5,422.55,134.94,437.22,134.92,437.24Z" transform="translate(0 10.85)"/><path class="cls-6" d="M100.4,437.24s-1.59-14.43-1.83-20.57-.86-16.74.23-20.27c.75-2.44,6.93-5.09,17.86-5.43,11.94-.38,17.7,2.95,19.82,4.79,1.57,1.38.5,14.25.26,20.42-.24,6.37-1.8,21-1.82,21.06" transform="translate(0 10.85)"/></g><g id="brazo_izq" data-name="brazo izq"><path class="cls-7" d="M202.8,245.64c-3.07-6.64-.1-10.53,1.93-11.76,2.68-1.62,48.72-19.43,55.15-23.38,3.83-2.36,35.84-36,43.06-42.17a71.07,71.07,0,0,1,12.64-9.68c7.7-4.37,17.26-7.82,18.07-7.1s-2.67,13.67-5.84,19.89c-2.43,4.78-7.06,9.85-9.59,12.72-9.7,11-38.38,37.5-44.71,41.63-6,3.89-57.26,24.77-60.8,25.87C210.28,252.41,205.78,252.1,202.8,245.64Z" transform="translate(0 10.85)"/></g><g id="brazo_der" data-name="brazo der"><path class="cls-7" d="M116.67,251.36c-3.25,5.08-6.39,5.72-9.19,5.53C104.3,256.66,68.56,234,62.62,229,57,224.24,22,184.65,15.26,175.73a72,72,0,0,1-8.94-13.46c-3.84-8-6.94-17.46-5.85-18.53s13.47,3.62,19.45,7.21c4.66,2.8,9.5,8,12.17,10.63,11,10.81,39.42,46.12,43.92,50s40.44,25.87,41.84,28.33C119.07,242.08,120.15,245.92,116.67,251.36Z" transform="translate(0 10.85)"/></g><g id="cola"><path class="cls-8" d="M118.64,369c.56-9,4.15-16.07,8.32-28.14,4.76-13.75,12.36-31.05,12.39-31.05s5.78,12.37,11.31,26.27c5.61,14.11,9.83,26.56,10,27.26.09.54,2.86,16,0,22-3.15,6.55-10.19,13.68-19.09,14.91a22.36,22.36,0,0,1-19.18-7.42C117.87,387.29,118.17,376.36,118.64,369Z" transform="translate(0 10.85)"/></g><g id="cuerpo"><g id="cuerpo-2" data-name="cuerpo"><path class="cls-7" d="M160.49,198.65c-22.22-.15-34.39,10.31-47,24.57-6.57,7.43-9,16.17-10.88,25.4-1.23,6.15-9,47.49-11.88,68-3.34,24-14.06,56.86-8.23,80.4,2.22,9,7.74,21.58,15.51,26.54,15.26,9.74,42.22,1.3,60.32,1.29,17.14,0,42,6.76,57.1-1.29,8.3-4.41,16.37-15.66,19.45-24.53,8.2-23.53-2.92-58.1-5.86-82.84-2.41-20.31-8.46-56.56-11.12-67.27-2.57-10.3-5.1-18.54-10.21-24.73C197,211.29,183,198.8,160.49,198.65Z" transform="translate(0 10.85)"/></g><g id="detalle"><g class="cls-9"><path class="cls-10" d="M119.76,211c-13.69,15.28-11.19,64.18-14.89,91.85-2.77,20.61-7.24,62.9-7.43,68.93-.1,3.19-5.09,29.49,1.32,36.62,10.62,11.83,42.43,2.86,60.65,3.21,17.63.34,47.68,9.81,58.76-.86,6.76-6.51,4.78-32.43,4.82-35.55.09-6.32-5.8-50.5-9.09-72-4.27-27.89-2.68-77.33-16.79-92.53-6.25-6.74-26.74-14.16-39.24-14C145.65,196.69,125.75,204.27,119.76,211Z" transform="translate(0 10.85)"/></g></g></g><g id="cabeza"><path class="cls-7" d="M174.94.66A120,120,0,1,1,45.53,110.5,119.84,119.84,0,0,1,174.94.66Z" transform="translate(0 10.85)"/></g><g id="boca"><g id="boca-2" data-name="boca"><path class="cls-11" d="M95.47,151.64c11.59,2.67,26,3.12,30.66,4,6,1.09,40.29,9.27,40.89,9.31s42.13-.24,45.27-.35c2.54-.09,19.73-.66,30.54-3.92s21.76-7.22,23-6.06c2.81,2.52-14.14,25.61-18.5,29-6.51,5-35.68,8.61-40,9.15-4.45.57-38.39,1.54-42.49,1.16-4.85-.44-42.36-8.16-49-10.63-4.49-1.67-24.93-10.69-30-15.95-3.67-3.82-13.73-19.63-11.14-22C76.65,143.69,83.89,149,95.47,151.64Z" transform="translate(0 10.85)"/></g><g id="lengua"><g class="cls-12"><path class="cls-13" d="M130.43,196.07c.2-4.77,8.3-7.76,12.72-9.57,6.08-2.49,15.2-2.83,21.77-2.53,8.19.37,20,1.09,26.72,5.83,3.45,2.44,8.77,7.44,8,11.6-1,5.74-11.06,8.52-16.73,9.91-11.46,2.81-28.4,1-39.15-3.87C139,205.27,130.2,201.32,130.43,196.07Z" transform="translate(0 10.85)"/></g></g><g id="dientes"><g class="cls-12"><path class="cls-14" d="M40.52,77.63c3.15,5.19,79.45,13.11,131,16.83s132.07,2.24,132.15,2.13.84-44.31-9.8-58.63C271.49,7.9,215.08-4.33,177.83-8.17,140.28-12,79.87-13.81,53.9,13.59,40.4,27.83,39,75.05,40.52,77.63Z" transform="translate(0 10.85)"/></g><g class="cls-15"><path class="cls-14" d="M295.91,237.94c-3.76-5.05-83.76,9.49-136.6,5.15C108,238.88,29.24,216.51,29.15,216.6s-6.7,62.61,7.8,83c21.72,30.51,78.74,42.3,116,46.13,37.55,3.87,97.28,5,123.92-21.75C295.53,305.24,298.33,241.2,295.91,237.94Z" transform="translate(0 10.85)"/></g></g></g><g id="El_pico" data-name="El pico"><path class="cls-3" d="M168.5,136.24c-11.69-.48-17.87,10.32-26.28,12.79C132,152,107.06,153,107,153S100.34,164.91,94,174c-4.52,6.41-10.79,13.68-10.8,13.7s-10.82,13.47-8.34,20.08c10.1,27,72.47,12.78,87.48,13.66s76.74,22.82,89.28-3.36c2.55-5.33-5.33-17.35-5.34-17.37s-4.64-9.12-9-18.63-8.16-18.95-8.21-19-23.43-5.71-32.81-9.92C187.33,149.16,181.47,136.78,168.5,136.24Z" transform="translate(0 10.85)"/><path d="M166.52,143.51c0-.1.06,3.53-.84,5.09l-2.27-1.4a26,26,0,0,0,1.69-4.12Z" transform="translate(0 10.85)"/><path d="M165.68,148.6c-1.31,2-5.83,4.08-5.76,4l-.77-.87a33,33,0,0,0,4.26-4.56Z" transform="translate(0 10.85)"/><path class="cls-16" d="M165.68,148.6l-2.27-1.4" transform="translate(0 10.85)"/><path d="M175,144.3a31.05,31.05,0,0,0,1.72,4.44l-2,1.18c-.87-1.58-1-5.32-1-5.27Z" transform="translate(0 10.85)"/><path class="cls-16" d="M175,144.3l-1.36.35" transform="translate(0 10.85)"/><path d="M176.68,148.74a38.77,38.77,0,0,0,3.88,4.68l-.84.8c.06.05-3.94-2.42-5.08-4.3Z" transform="translate(0 10.85)"/><path class="cls-16" d="M176.68,148.74l-2,1.18" transform="translate(0 10.85)"/></g><g id="cejas"><path class="cls-17" d="M81.78,81s22.72-9.75,38.2-8.84c16,.95,36,13.4,36,13.4" transform="translate(0 10.85)"/><path class="cls-17" d="M269,87.63s-7.13-13.55-29.47-17.11-41.74,6.22-41.74,6.22" transform="translate(0 10.85)"/></g><rect class="cls-18" x="308.08" y="129.32" width="15.1" height="85.71" transform="translate(46.85 -55.77) rotate(13.01)"/><rect class="cls-19" x="308.73" y="128.19" width="8.22" height="85.71" transform="translate(46.53 -55.17) rotate(13.01)"/><path class="cls-20" d="M313.73,216.27l-10.19,13.24a1.09,1.09,0,0,1-2-.38L298,212.65Z" transform="translate(0 10.85)"/><path d="M300.84,225.89l.72,3.23a1.11,1.11,0,0,0,2,.39l2-2.53Z" transform="translate(0 10.85)"/><path class="cls-21" d="M329.49,121.08l-2.88-.6c-3.95-.92-7.63,2.2-8.1,4.24h0c-.47,2-.45,3.79,1.59,4.26l10.41,2.4c2,.47,2.67-1.12,3.14-3.16h0C334.12,126.18,332.52,121.78,329.49,121.08Z" transform="translate(0 10.85)"/><rect class="cls-22" x="315.65" y="128.64" width="18.26" height="7.58" rx="0.61" transform="translate(38.14 -58.85) rotate(13.01)"/><g id="ojos"><g id="ojos-2" data-name="ojos"><path class="cls-23" d="M82.3,128.32c-.5-2-1.15-4,.07-6.48,6.94-13.85,19-16.46,33.68-17.44,13-.86,22-.17,31.62,8.69,2,1.85,2.38,5.25,2.44,7.59a11.51,11.51,0,0,1-2.81,8.22c-8,8.08-20.72,11.91-32.33,12.29-10.16.34-20.23-1-28.62-6.76A10,10,0,0,1,82.3,128.32Z" transform="translate(0 10.85)"/></g><path d="M149.66,120.82s-.59-4.53-2.54-6.77A27.91,27.91,0,0,0,130.67,106a86.1,86.1,0,0,0-29.3,1.86c-8.73,2.29-15,7.88-18.13,15s5.44,11.91,4.23,12.37-3.19-1-5.21-3.52-2.45-6.51-.54-11A27.35,27.35,0,0,1,102,105.28c12.27-2.26,21-2.76,30-1.85s17,7.87,18.26,10.5,1.45,6.07.94,7S149.66,120.82,149.66,120.82Z" transform="translate(0 10.85)"/><g id="pupilas"><path class="cls-24" d="M121.12,110.61a12.35,12.35,0,1,1-11.88,12.81A12.37,12.37,0,0,1,121.12,110.61Z" transform="translate(0 10.85)"/></g></g><g id="ojos-3" data-name="ojos"><g id="ojos-4" data-name="ojos"><path class="cls-23" d="M255.69,140.84c-8.77,5.19-18.92,5.81-29,4.77-11.56-1.19-24-5.89-31.39-14.51a11.47,11.47,0,0,1-2.24-8.39c.22-2.33.82-5.7,3-7.4,10.23-8.17,19.29-8.24,32.15-6.48,14.52,2,26.42,5.44,32.38,19.73,1.06,2.53.26,4.55-.38,6.48A10,10,0,0,1,255.69,140.84Z" transform="translate(0 10.85)"/></g><path d="M193.47,122.88s.91-4.47,3-6.57a27.8,27.8,0,0,1,17-6.91,86,86,0,0,1,29.1,3.88c8.56,2.89,14.44,8.9,17.06,16.19s-6.26,11.5-5.09,12.05,3.26-.79,5.45-3.15,2.89-6.33,1.3-11a27.38,27.38,0,0,0-19.2-16.71c-12.08-3.1-20.8-4.21-29.76-3.92s-17.51,6.67-18.94,9.21-1.87,6-1.43,6.93S193.47,122.88,193.47,122.88Z" transform="translate(0 10.85)"/><g id="pupilas-2" data-name="pupilas"><path class="cls-24" d="M230.19,127.39a12.35,12.35,0,1,1-11-13.61A12.35,12.35,0,0,1,230.19,127.39Z" transform="translate(0 10.85)"/></g></g></g></g></svg>