<svg xmlns="http://www.w3.org/2000/svg" xmlns:xlink="http://www.w3.org/1999/xlink" viewBox="0 0 345.24 323.68"><defs><style>.cls-1{fill:none;}.cls-2{fill:#fee367;}.cls-3{fill:#dba333;}.cls-4{fill:#f7bb4f;}.cls-5{fill:#c68325;}.cls-6{fill:#ce7f38;}.cls-7{fill:#e7cdba;}.cls-8{fill:#ed84e5;}.cls-9{fill:#d667d3;}.cls-10{fill:#fff;}.cls-11{fill:#e89f51;}.cls-12{fill:#ffe7ce;}.cls-13{fill:#eaa66e;}.cls-14{clip-path:url(#clip-path);}.cls-15{fill:#f0efef;}.cls-16{fill:#30b271;}.cls-17{fill:#c0cbdd;}.cls-18{fill:#269769;}.cls-19{fill:#212120;}.cls-20{clip-path:url(#clip-path-2);}.cls-21{fill:#1c1916;}.cls-22{fill:#b55f24;}.cls-23{fill:#212121;}</style><clipPath id="clip-path"><path class="cls-1" d="M162.45,157.25s3.66,6.56,39.54,4.57c32.25-1.78,35.41-18.1,33.16-22.45C228.48,126.44,216.39,127,197.69,128s-23.83.95-28.82,6.89c-5.87,7-6.42,22.33-6.42,22.33"/></clipPath><clipPath id="clip-path-2"><path class="cls-1" d="M325,148s-2.15,17.3-30.43,18.86c-25.42,1.41-29.57-24.91-28.24-29.46,3.95-13.52,12-26.29,26.78-27.11s20.18,10.73,24.67,16.15C323,132.78,325,148,325,148"/></clipPath></defs><title>Mistake feedback_PUMA niña</title><g id="Layer_2" data-name="Layer 2"><g id="Layer_4" data-name="Layer 4"><path class="cls-2" d="M261.6,70.86s8.84-35.55,33.13-43.28,41.51,6.62,48.14,24.29S336,93.16,311.29,96s-46.37-6.62-49.69-25.17"/><path class="cls-3" d="M261.6,70.86l.68.17s0-.13.1-.39a92.41,92.41,0,0,1,8.3-20c5.23-9.25,13.13-18.83,24.26-22.36a42.42,42.42,0,0,1,12.87-2.11,33.64,33.64,0,0,1,21.6,7.7,43.11,43.11,0,0,1,12.81,18.28,26.32,26.32,0,0,1,1.63,9.23c0,15.31-12.49,31.67-32.64,34a73,73,0,0,1-8.52.51c-10.39,0-19.81-2.32-27-6.61s-12-10.54-13.44-18.5l-.69.12.68.17-.68-.17-.68.12c1.49,8.4,6.68,15,14.1,19.45s17.08,6.8,27.67,6.8a75.57,75.57,0,0,0,8.68-.5c20.85-2.43,33.87-19.34,33.87-35.39a27.77,27.77,0,0,0-1.72-9.72,44.43,44.43,0,0,0-13.23-18.87,35.06,35.06,0,0,0-22.48-8,43.49,43.49,0,0,0-13.29,2.18c-12.43,4-20.79,14.94-26.08,24.87a92.84,92.84,0,0,0-7.51,18.9l0,.15,0,.14.68-.12"/><path class="cls-4" d="M316.24,52.18c-9.95,0-20.63,4.92-27,8.41A102.92,102.92,0,0,1,296.09,74a37,37,0,0,1,9.74-10.16,41,41,0,0,1,11.45-5.83l.19,0a.69.69,0,0,1,.19,1.36l-.22.07-.67.22a36.54,36.54,0,0,0-4.24,1.8L298.24,79.58a123.33,123.33,0,0,1,4.58,16.26,70.8,70.8,0,0,0,8.39-.5c18-2.08,29.93-15.39,32.23-29.14A35.4,35.4,0,0,0,321,52.59a26.27,26.27,0,0,0-4.71-.41"/><path class="cls-5" d="M343.44,66.2c-2.3,13.75-14.21,27.06-32.23,29.14a70.8,70.8,0,0,1-8.39.5l.27,1.35h2.33q2.94-.11,5.95-.45a44.64,44.64,0,0,0,6.51-1.29c10.66-2.91,17-8.18,21.39-15.32,4.8-7.79,5.31-12.49,5.31-12.49s-.67-.78-1.14-1.43"/><path class="cls-6" d="M317.28,58.05a41,41,0,0,0-11.45,5.83,34.44,34.44,0,0,0-14.38,22.21.68.68,0,0,0,.56.8.69.69,0,0,0,.81-.56A33,33,0,0,1,306.64,65a42.89,42.89,0,0,1,7.69-4.37c1-.44,1.86-.76,2.44-1l.67-.22.22-.07a.69.69,0,1,0-.38-1.33"/><path class="cls-7" d="M317.88,95.44a41.91,41.91,0,0,1-6.51,1.29q-3,.34-5.95.45c1.78,0,3.67-.08,5.59-.21a25.62,25.62,0,0,0,6.87-1.53"/><path class="cls-2" d="M262.79,55.84s4.64-21.09,10.6-31.69,20-20.09,36.33-12.69c0,0-15-3.87-20,10,0,0,25.18-10.82,40,4.09,0,0-17.56-2.54-26.72,4.2"/><path class="cls-3" d="M263.47,56s.07-.32.21-.92c.48-2.08,1.77-7.44,3.59-13.42S271.43,29,274,24.49a31,31,0,0,1,9.62-10.41,25.83,25.83,0,0,1,14.47-4.56,27.4,27.4,0,0,1,11.34,2.57l.29-.63.17-.68a21.08,21.08,0,0,0-4.78-.51,18.37,18.37,0,0,0-8.63,2,15.65,15.65,0,0,0-7.4,9l-.54,1.5,1.46-.63.39-.15a53.71,53.71,0,0,1,18.44-3.59c7,0,14.51,1.77,20.38,7.68l.49-.49.1-.69a60,60,0,0,0-7.77-.48c-5.94,0-14,.81-19.46,4.81l.82,1.12c5-3.69,12.83-4.55,18.64-4.54,2.19,0,4.09.12,5.44.24.67.05,1.21.11,1.57.16l.56.07,2.06.29-1.47-1.47C324,18.85,316,17,308.83,17a54.64,54.64,0,0,0-19.37,3.86l.27.63.65.24a14.32,14.32,0,0,1,6.75-8.25,17.07,17.07,0,0,1,8-1.83,21.64,21.64,0,0,1,3.21.24l.91.16.24,0,.07,0,.46-1.31a28.71,28.71,0,0,0-11.91-2.69,27.21,27.21,0,0,0-15.24,4.79,32.61,32.61,0,0,0-10.07,10.89c-3,5.4-5.68,13.35-7.59,20s-3.08,11.9-3.08,11.91l1.36.3Z"/><path class="cls-8" d="M255.72,46.18A15.08,15.08,0,1,0,270.8,31.11,15.07,15.07,0,0,0,255.72,46.18Z"/><path class="cls-9" d="M255.72,46.18H255A15.77,15.77,0,1,0,270.8,30.42,15.77,15.77,0,0,0,255,46.18h1.39a14.37,14.37,0,1,1,4.21,10.17,14.32,14.32,0,0,1-4.21-10.17Z"/><path class="cls-8" d="M268.31,57.33a15.07,15.07,0,1,0,15.07-15.07A15.08,15.08,0,0,0,268.31,57.33Z"/><path class="cls-9" d="M268.31,57.33h-.7a15.77,15.77,0,1,0,15.77-15.76,15.78,15.78,0,0,0-15.77,15.76H269a14.39,14.39,0,1,1,4.22,10.17A14.33,14.33,0,0,1,269,57.33Z"/><path class="cls-10" d="M282.55,49.71a4,4,0,1,0,4-4A4,4,0,0,0,282.55,49.71Z"/><path class="cls-10" d="M268,36.05a2.9,2.9,0,1,0,2.9-2.9A2.9,2.9,0,0,0,268,36.05Z"/><path class="cls-11" d="M306.73,61s-24.26,6.9-28.56,31l28.56-31"/><path class="cls-6" d="M306.55,60.37a46.42,46.42,0,0,0-12.88,6.57,38.73,38.73,0,0,0-16.16,25,.67.67,0,0,0,.54.77.66.66,0,0,0,.78-.54c2.11-11.82,9.11-19.42,15.62-24.1a47.89,47.89,0,0,1,8.69-4.93c1.16-.51,2.11-.87,2.76-1.1l.76-.25.26-.08a.67.67,0,1,0-.37-1.29"/><path class="cls-2" d="M233.06,228c3.13-5.93,12.12-7.73,23,2.28s34.76,31.25,34.24,37.57-3.16,13-9.84,13.7S243.42,250,238,244,229.73,234.33,233.06,228Z"/><path class="cls-3" d="M233.06,228l.59.31a8.47,8.47,0,0,1,7.82-4.48c3.8,0,8.69,1.94,14.14,6.94s13.94,12.65,21.13,19.91a122,122,0,0,1,9.2,10.15,31.34,31.34,0,0,1,2.75,4,6.5,6.5,0,0,1,.94,2.77v.16a20.24,20.24,0,0,1-2.52,8.66,8.7,8.7,0,0,1-6.72,4.42h-.15a7.81,7.81,0,0,1-3.3-1.29,71,71,0,0,1-9.71-7.44c-11.2-9.8-25.24-24.78-28.76-28.64a43.63,43.63,0,0,1-4.54-5.57,9.07,9.07,0,0,1-1.64-4.9,10.18,10.18,0,0,1,1.36-4.74l-.59-.31-.59-.32a11.46,11.46,0,0,0-1.52,5.37,10.37,10.37,0,0,0,1.85,5.62,44.79,44.79,0,0,0,4.68,5.76c2.7,3,11.5,12.36,20.52,21,4.51,4.34,9.08,8.49,13,11.58a48.19,48.19,0,0,0,5.29,3.72,8.79,8.79,0,0,0,4,1.47l.29,0a10.06,10.06,0,0,0,7.73-5.05,21.48,21.48,0,0,0,2.7-9.25v-.27a7.49,7.49,0,0,0-1.11-3.41c-2.41-4.41-8.37-10.8-14.93-17.24s-13.71-12.88-18.42-17.2c-5.6-5.16-10.78-7.29-15-7.3a9.81,9.81,0,0,0-9,5.19Z"/><path class="cls-2" d="M258.14,323.68c-.49-13-2.46-20.75-6.53-36.29-5.18-19.74-3.52-21.45-7.15-36-3.52-14-5.15-35-23.47-45.59s-31.21-1-39.45,7.75c-4.29,4.56-9.31,17-13.59,39.81-1.9,10.14-4.41,28.92-6.28,36.63-1.32,11.63-2.51,23.09-2.56,33.66Z"/><path class="cls-3" d="M159.78,323.68c.05-10.51,1.23-21.93,2.55-33.55.94-3.9,2-10.5,3.13-17.41s2.2-14.15,3.15-19.2a179.62,179.62,0,0,1,6.76-26.65c2.31-6.49,4.63-10.68,6.66-12.83a46.86,46.86,0,0,1,10-8.35,25.62,25.62,0,0,1,13.28-3.86c4.58,0,9.67,1.3,15.34,4.58,9,5.22,13.88,12.94,17,21.17s4.39,16.93,6.15,24a135.64,135.64,0,0,1,3,16,161.92,161.92,0,0,0,4.17,20h0c4.07,15.54,6,23.22,6.51,36.12h1.34c-.49-13.05-2.48-20.92-6.56-36.46a165,165,0,0,1-4.14-19.87,136.26,136.26,0,0,0-3-16.1c-1.75-7-3-15.75-6.21-24.15s-8.25-16.44-17.57-21.85c-5.83-3.38-11.17-4.76-16-4.76a27.06,27.06,0,0,0-14,4,48.53,48.53,0,0,0-10.3,8.58c-2.25,2.41-4.59,6.72-6.94,13.3a182.6,182.6,0,0,0-6.82,26.85c-.95,5.09-2,12.32-3.15,19.24s-2.2,13.54-3.12,17.35v.08c-1.32,11.64-2.51,23.12-2.56,33.74Z"/><path class="cls-12" d="M190.3,308.69c-1.22,3.73-3.44,9.1-5.11,15h73c-1.41-12.63-5.88-27.21-9.19-37.15-4.36-13.06-8.55-56.08-18.16-63.14-10.31-7.59-33.16-3.59-35.87-.87C176.58,241,196,291.19,190.3,308.69Z"/><path class="cls-13" d="M189.67,308.48c-1.22,3.74-3.48,9.19-5.18,15.2h1.39c1.66-5.77,3.83-11.06,5.06-14.78a30,30,0,0,0,1.13-9.11c0-13.38-4.55-33.17-4.55-50.15,0-10.94,1.9-20.63,7.92-26.65a6.09,6.09,0,0,1,2-1,51,51,0,0,1,15.68-2.27c6.4,0,13.05,1.13,17.28,4.25a12.44,12.44,0,0,1,3.17,4c3.56,6.41,6.33,18.27,8.63,29.91s4.18,23.09,6.11,28.91c3.31,9.9,7.75,24.42,9.16,36.94h1.35c-1.41-12.75-5.91-27.38-9.24-37.36a134.1,134.1,0,0,1-3.3-14.3c-1.73-9-3.64-19.84-6-29.16a87.74,87.74,0,0,0-4-12.4c-1.49-3.47-3.11-6.15-5.09-7.61-4.65-3.4-11.52-4.51-18.07-4.51a59.45,59.45,0,0,0-11.87,1.19,32,32,0,0,0-4.27,1.15,7.42,7.42,0,0,0-2.53,1.36c-6.43,6.47-8.3,16.53-8.31,27.6,0,17.19,4.56,37,4.55,50.15A28.93,28.93,0,0,1,189.67,308.48Z"/><path class="cls-2" d="M170.05,321.8s.44.73,1.24,1.88h28.18c2.72-17.52-23.84-17.52-23.84-17.52s-10.58-9.24-24.93-23a2,2,0,0,1-.17-2.71C166.37,260.55,178,251.89,178,251.89L172.13,229l-43.92,49.88a5.88,5.88,0,0,0,.32,8.11Z"/><path class="cls-3" d="M128.09,287.52l41.45,34.73c.12.19.44.7.93,1.43h1.63l-.55-.79c-.3-.45-.53-.81-.69-1.06l-.24-.38-.06-.09L129,286.53a5.21,5.21,0,0,1-.28-7.18l43.09-48.92,5.45,21.2C175.18,253.24,164.3,262.07,150,280a2.71,2.71,0,0,0-.59,1.68,2.67,2.67,0,0,0,.82,1.92c14.37,13.81,25,23.05,25,23.06l.19.16h.51a44.33,44.33,0,0,1,12.66,2.22,19.11,19.11,0,0,1,7.3,4.35,10.83,10.83,0,0,1,3.15,7.84,15.18,15.18,0,0,1-.21,2.44h1.35a16.15,16.15,0,0,0,.2-2.44,12.23,12.23,0,0,0-4-9.21c-3.55-3.32-8.72-4.92-13-5.73a48.41,48.41,0,0,0-7.47-.81c-.27-.23-.84-.73-1.69-1.49-3.64-3.24-12.28-11-23-21.36a1.29,1.29,0,0,1-.4-.95,1.35,1.35,0,0,1,.29-.85,214,214,0,0,1,19.62-21.65c2.44-2.31,4.37-4,5.7-5.12.67-.56,1.18-1,1.52-1.24l.39-.3.13-.1.36-.27-6.31-24.52-44.75,50.83a6.53,6.53,0,0,0,.36,9Z"/><path class="cls-4" d="M228.18,287.87c-6.64,0-14.86,2.53-24.27,10.57a82.13,82.13,0,0,1,27.39-4.61,74.07,74.07,0,0,1,15,1.49,25.85,25.85,0,0,0-18.12-7.45"/><path class="cls-2" d="M174.66,223.32c-4.4.1-5.86,10.43-5.86,10.43s-1.12,26.13-1.43,34.05c-.14,3.54,6.08-12.17,11.72-15.63,4.52-2.77-.61-28.94-4.43-28.85"/><path class="cls-2" d="M197.46,234.42c71.59-7.47,117.31-31.58,124-69.08,5.7-32.1,6.1-97-23.12-121.64s-70.69-42-112.39-37.43c-27.64,3-76.7,5.3-112.4,51C52,84.82,53,139.78,58.82,166.76c5.94,27.32,71.85,74.64,138.64,67.66"/><path class="cls-3" d="M197.46,234.42l.07.67c35.85-3.75,65.26-11.65,86.58-23.36s34.61-27.27,38-46.28a223.07,223.07,0,0,0,3.06-37.66c0-15.67-1.53-32.52-5.58-47.6s-10.63-28.42-20.82-37c-26.18-22-62.14-38.32-99.38-38.32a125.4,125.4,0,0,0-13.52.73c-13.8,1.51-33,2.84-53.32,9.53A122.19,122.19,0,0,0,73,56.83C59.1,74.63,54.54,103.41,54.53,129a186.11,186.11,0,0,0,3.64,37.95c1.43,6.56,6.14,14.08,13.35,21.74C93.14,211.6,137.31,235.77,184,235.78a130.85,130.85,0,0,0,13.53-.69l-.07-.67-.07-.66a130.8,130.8,0,0,1-13.39.68c-30.81,0-60.62-10.67-83.39-24.52a136,136,0,0,1-28.12-22.19c-7.11-7.54-11.68-14.93-13-21.11A185.1,185.1,0,0,1,55.87,129c0-25.4,4.6-54,18.18-71.31A120.86,120.86,0,0,1,133,16.4c20.09-6.63,39.2-8,53.05-9.47a122.49,122.49,0,0,1,13.37-.72c36.84,0,72.55,16.14,98.51,38,9.88,8.32,16.39,21.4,20.39,36.33s5.54,31.67,5.54,47.25a221.3,221.3,0,0,1-3,37.43c-3.29,18.5-16.2,33.74-37.3,45.33S233.12,230,197.39,233.76l.07.66"/><g class="cls-14"><path class="cls-15" d="M162.45,157.25s4.88,16.9,40.76,14.92c32.25-1.79,34.19-28.45,31.94-32.8-6.67-12.93-18.47-24.6-37.18-23.57s-24.11,13.18-29.1,19.12c-5.87,7-6.42,22.33-6.42,22.33"/><path class="cls-16" d="M200,149.88A19,19,0,1,1,180,132a19,19,0,0,1,20,17.89"/><path class="cls-17" d="M162.59,155.21c-.07.77-.1,1.35-.12,1.69a1.94,1.94,0,0,0,.07.46,3,3,0,0,0,.41.42.92.92,0,0,0,.34-.22,18.22,18.22,0,0,1-.7-2.35m47.78-27.67c-3.84,0-8.06.23-12.68.49-18.71,1-23.83.95-28.82,6.89a18.48,18.48,0,0,0-2.46,4A18.92,18.92,0,0,1,180,132c.35,0,.71,0,1.06,0a19,19,0,0,1,15,7.35c1.3-.16,2.64-.28,4-.35,1-.06,2-.09,3-.09,16.33,0,26,7.49,29.72,11.1a13,13,0,0,0,2.86-8.36,5.29,5.29,0,0,0-.27-.94s-.62-1.6-1.81-3.91c-5.08-7.5-12.71-9.22-23.25-9.22"/><path class="cls-18" d="M181.08,132c-.35,0-.71,0-1.06,0a18.92,18.92,0,0,0-13.61,6.9,39,39,0,0,0-2.68,8.45c-.17,2.16-.77,5-1.08,7.18,0,.24,0,.48-.06.69a18.22,18.22,0,0,0,.7,2.35c2.19-1.95,10.33-15.58,32.76-18.25a19,19,0,0,0-15-7.35"/><path class="cls-10" d="M190.75,141.15a3.47,3.47,0,1,1-3.66-3.27A3.47,3.47,0,0,1,190.75,141.15Z"/></g><path class="cls-19" d="M235.7,141.58c-10.43-13.73-30.34-13-40.08-12.41-31.93,1.14-32,29.28-32,29.28-1.54-.49-5.78-5.47-4.52-11.55,2.21-10.66,8.76-19.28,27.74-22.35,2.92-.47,20,2.1,23.44,2.68,13.51,2.29,12.56,1.41,14.66,1.68,4.7.6,7.85,4.79,9.2,7.4a10.76,10.76,0,0,1,1.39,4.08Z"/><g class="cls-20"><path class="cls-15" d="M325,148s-2.15,17.3-30.43,18.86c-25.42,1.41-29.57-24.91-28.24-29.46,3.95-13.52,12-26.29,26.78-27.11s20.18,10.73,24.67,16.15C323,132.78,325,148,325,148"/><path class="cls-16" d="M265.94,144.7c.58,10.46,7.73,18.57,16,18.11s14.45-9.3,13.87-19.76-7.73-18.57-16-18.11-14.46,9.3-13.88,19.76"/><path class="cls-17" d="M297.25,112c-7.61.42-15.75,2.63-19.57,4.94-4.42,4.15-7.64,9.84-9.91,16a59.93,59.93,0,0,0-1.57,5.8,8.52,8.52,0,0,0-.13,1.08c0,.2,0,.4,0,.6,1.08-8.46,6.66-15,13.73-15.43l.66,0c5.21,0,9.92,3.41,12.71,8.61l.51,0q1.14-.06,2.22-.06A32.54,32.54,0,0,1,317.29,141c4.55,3.78,6.78,7.56,7.37,7.56l.06,0c.17-.1.22-.42.2-.9s-.19-1.27-.38-2.37c-.46-2.13-1.21-4.89-1.55-7-1.16-4.27-2.86-9-5.25-11.83-2.2-2.65-4.62-6.77-8.25-10.19A22,22,0,0,0,297.25,112"/><path class="cls-18" d="M280.48,124.92l-.66,0c-7.07.39-12.65,7-13.73,15.43h0a31.58,31.58,0,0,0,2,9.11,30.94,30.94,0,0,1,25.1-15.95c-2.79-5.2-7.5-8.61-12.71-8.61"/><path class="cls-10" d="M271.68,135.67c.11,1.91,1.42,3.4,2.92,3.31s2.65-1.7,2.54-3.61-1.41-3.4-2.92-3.31S271.58,133.76,271.68,135.67Z"/></g><path class="cls-19" d="M266.2,138.69c5.21-21.27,19.71-25.61,27.38-26,25.11-2,31.14,35.88,31.14,35.88,3.76-.21,2.64-10.12,2.64-10.12-2.39-13.48-13.07-33.35-34-32.19-17.29,1-24.63,21.08-26.65,28A14.34,14.34,0,0,0,266.2,138.69Z"/><path class="cls-21" d="M307.53,75.94a26.69,26.69,0,0,0-3.25-3,22,22,0,0,0-3.65-2.46,14.47,14.47,0,0,0-8.26-1.86,16,16,0,0,0-7.9,3.19c-.62.4-1.16.9-1.75,1.35l-1.63,1.5-1.58,1.58c-.49.56-1,1.11-1.51,1.66a26.93,26.93,0,0,1,5.84-6.9,17.94,17.94,0,0,1,3.89-2.5,14.63,14.63,0,0,1,4.52-1.22,14.15,14.15,0,0,1,8.89,2.31A20.54,20.54,0,0,1,307.53,75.94Z"/><path class="cls-21" d="M165.47,116.53a73.92,73.92,0,0,0,8.31,2.83c2.81.81,5.64,1.57,8.49,2.21,5.7,1.32,11.43,2.51,17.21,3.41,2.88.54,5.78,1,8.67,1.41s5.8.76,8.7,1.21l17.46,2.15c-2.93-.09-5.86-.27-8.8-.41l-8.78-.72c-5.84-.6-11.67-1.36-17.47-2.32s-11.56-2.19-17.24-3.73A83.63,83.63,0,0,1,165.47,116.53Z"/><path class="cls-4" d="M173.52,258.54c-1.87-1.87-5.94,1.74-6.13,1.93-.51,3.21-1.4,8.91-1.93,12.25-1.1,6.91-2.19,13.51-3.13,17.42-.1.9-.21,1.81-.31,2.71l12,10.87s3.42-4.43,5.17-17.07c1.42-10.19-3.63-23.38-5.64-28.11"/><path class="cls-22" d="M54.58,124.52v.22c.44.1.89.18,1.33.26v-.19l-1.33-.29"/><path class="cls-12" d="M138.76,228.51s12.22-.14,40-15.3c28.16-15.36,36.26-28.33,40.72-35.81,10.9-18.27,68.88-10.56,72.57-3.85s13.57,17.59,18.6,15.75c0,0-14.08,20.44-48.43,31.17s-58.66,13.91-74.07,14.58S156.08,235.33,138.76,228.51Z"/><path class="cls-13" d="M138.76,228.51v.67c.14,0,12.46-.19,40.31-15.38,14.13-7.71,23.25-14.83,29.4-21a71.13,71.13,0,0,0,11.58-15.08c2.37-4,7.25-6.79,13.48-8.54a81.22,81.22,0,0,1,21.29-2.48,124.22,124.22,0,0,1,24.33,2.39,53.45,53.45,0,0,1,8.47,2.37,16,16,0,0,1,2.61,1.27,3.56,3.56,0,0,1,1.22,1.12,49.6,49.6,0,0,0,8.11,10.45,30.21,30.21,0,0,0,5,4.13,9.48,9.48,0,0,0,4.81,1.73,4.23,4.23,0,0,0,1.46-.25l-.23-.63-.55-.38,0,.05c-.8,1.13-14.94,20.53-48,30.86-34.31,10.71-58.55,13.88-73.9,14.55-3.19.14-6.43.23-9.71.23-12.56,0-25.77-1.36-39.4-6.72l-.25.62v0l-.24.63c13.83,5.44,27.23,6.81,39.89,6.81,3.31,0,6.56-.09,9.77-.23,15.48-.67,39.83-3.87,74.24-14.61s48.73-31.35,48.78-31.43a.66.66,0,0,0,0-.79.67.67,0,0,0-.76-.22,3.13,3.13,0,0,1-1,.17,8.43,8.43,0,0,1-4.1-1.52c-4.67-2.93-10.2-9.56-12.68-14.1a4.81,4.81,0,0,0-1.68-1.6,23.93,23.93,0,0,0-5.67-2.36c-7.25-2.2-18.85-3.87-30.46-3.88a82.72,82.72,0,0,0-21.65,2.53c-6.39,1.81-11.6,4.69-14.27,9.15a69.69,69.69,0,0,1-11.38,14.81c-6.05,6-15.06,13.09-29.09,20.75-13.85,7.56-23.81,11.37-30.28,13.28a55.82,55.82,0,0,1-7.16,1.69c-.77.12-1.34.19-1.71.22l-.41,0h-.12a.67.67,0,0,0-.24,1.3Z"/><polygon class="cls-10" points="231.02 185.78 235.63 195.75 238.81 187.12 231.02 185.78"/><polygon class="cls-10" points="283.56 186.03 278.95 196 275.76 187.37 283.56 186.03"/><path class="cls-12" d="M257.58,163.62s29.38-1.52,43,.94,10.17,17.91,1.34,20.83-29.21,7.71-41.67-1C255.72,181.21,257.58,163.62,257.58,163.62Z"/><path class="cls-13" d="M257.58,163.62l0,.67,1.57-.07c3-.13,10-.39,17.74-.39,8.33,0,17.55.3,23.55,1.39a10.87,10.87,0,0,1,6.6,3.4,8.38,8.38,0,0,1,2,5.54,11.66,11.66,0,0,1-2,6.44,10.41,10.41,0,0,1-5.27,4.16A76.57,76.57,0,0,1,279,188.69c-6.6,0-13.21-1.26-18.35-4.86a4.21,4.21,0,0,1-1.31-1.77c-1.13-2.49-1.47-6.86-1.47-10.68,0-2.08.1-4,.19-5.41.05-.7.09-1.27.13-1.67s.06-.61.06-.61l-.67-.07,0,.67,0-.67-.67-.07s-.38,3.59-.38,7.83a43.74,43.74,0,0,0,.61,7.9,15.16,15.16,0,0,0,1,3.33,5.5,5.5,0,0,0,1.76,2.32c5.48,3.83,12.36,5.1,19.12,5.1a77.72,77.72,0,0,0,23.14-4,11.78,11.78,0,0,0,6-4.68,13.06,13.06,0,0,0,2.26-7.19,9.74,9.74,0,0,0-2.28-6.41,12.2,12.2,0,0,0-7.38-3.85c-6.18-1.11-15.42-1.41-23.79-1.42-10.37,0-19.37.47-19.38.47l-.57,0-.06.57Z"/><path class="cls-12" d="M257.82,163.62s-29.38-1.52-43,.94-10.17,17.91-1.34,20.83,29.21,7.71,41.67-1C259.68,181.21,257.82,163.62,257.82,163.62Z"/><path class="cls-13" d="M257.82,163.62l0-.67s-9-.47-19.38-.47c-8.37,0-17.61.31-23.79,1.42a12.2,12.2,0,0,0-7.38,3.85,9.74,9.74,0,0,0-2.28,6.41,13,13,0,0,0,2.27,7.19,11.72,11.72,0,0,0,6,4.68,77.72,77.72,0,0,0,23.14,4c6.76,0,13.65-1.27,19.12-5.1a5.42,5.42,0,0,0,1.76-2.32c1.29-2.9,1.58-7.33,1.59-11.23,0-4.24-.38-7.81-.38-7.83l-.06-.57-.57,0,0,.67-.66.07s0,.22,0,.61c.11,1.19.32,4,.32,7.08A43.08,43.08,0,0,1,257,179a14,14,0,0,1-.89,3,4.13,4.13,0,0,1-1.31,1.77c-5.14,3.6-11.75,4.86-18.35,4.86a76.63,76.63,0,0,1-22.72-3.93,10.41,10.41,0,0,1-5.27-4.16,11.66,11.66,0,0,1-2-6.44,8.38,8.38,0,0,1,2-5.54,10.87,10.87,0,0,1,6.6-3.4c6-1.09,15.22-1.4,23.55-1.39,5.17,0,10,.11,13.53.23,1.77.06,3.21.11,4.22.16l1.56.07,0-.67-.66.07Z"/><path class="cls-23" d="M267.37,162.22c-1.21-.87-4-.41-10.14-.39s-8.94-.48-10.14.39,1,7.6,5.15,7.85c3.48.21,4.34.25,4.89.25h.19c.55,0,1.29,0,4.77-.25C266.26,169.82,268.6,163.1,267.37,162.22Z"/><path class="cls-2" d="M272.94,270.88l-4.77-8.6-20.05-29s-37,16.34-27.3-14.19c9.48-29.82,30.37-6.7,30.8-6.22a416.65,416.65,0,0,1,34.83,43.84c10.82,11.36,4.63,18.71-.54,22.14"/><path class="cls-3" d="M273.53,270.55l-4.79-8.63-20.39-29.47-.5.22-.43.19c-2,.82-10.42,4.13-17.41,4.12a11.82,11.82,0,0,1-7.19-1.9c-1.79-1.36-2.94-3.53-3-7.15a28.86,28.86,0,0,1,1.6-8.63c1.82-5.75,4.07-9.45,6.44-11.69a10.37,10.37,0,0,1,7.35-3.06c3.88,0,7.81,2.09,10.78,4.26a36.3,36.3,0,0,1,5.09,4.51,417.26,417.26,0,0,1,34.77,43.78l0,0,0,0c4.31,4.53,5.79,8.32,5.79,11.38a9.74,9.74,0,0,1-2,5.8,18.43,18.43,0,0,1-4.39,4.23l1,.92a17.82,17.82,0,0,0,4.46-4.36,11,11,0,0,0,2.23-6.59c0-3.52-1.7-7.62-6.16-12.3l-.48.46.55-.38a416.71,416.71,0,0,0-34.89-43.91,35.41,35.41,0,0,0-5.29-4.7c-3.09-2.25-7.21-4.51-11.57-4.52a11.76,11.76,0,0,0-8.27,3.43c-2.6,2.45-4.93,6.36-6.8,12.25a30.42,30.42,0,0,0-1.66,9c0,3.9,1.33,6.6,3.49,8.22a13.23,13.23,0,0,0,8,2.18,44,44,0,0,0,12.33-2.22,61.43,61.43,0,0,0,6-2.21l-.27-.61-.55.38,20,29,5.25,8.33.68-.41Z"/><path class="cls-2" d="M102.4,76.8s-10.81-43.53-40.55-53S11,31.92,2.91,53.55s8.38,50.55,38.66,54.07S98.35,99.51,102.4,76.8"/><path class="cls-3" d="M94,53.45C87.55,41.3,77.32,27.85,62.1,23a53.69,53.69,0,0,0-16.27-2.66,42.89,42.89,0,0,0-27.52,9.81A54.42,54.42,0,0,0,2.11,53.25,33.68,33.68,0,0,0,0,65.14c0,19.65,16,40.35,41.47,43.32a91.86,91.86,0,0,0,10.62.63c11.2,0,21.25-1.94,30-8.22l-.17-1a66.5,66.5,0,0,1-29.85,7.55,90.65,90.65,0,0,1-10.42-.62C17,103.92,1.7,83.89,1.7,65.14a32.15,32.15,0,0,1,2-11.3A52.7,52.7,0,0,1,19.39,31.46,41.16,41.16,0,0,1,45.83,22a51.86,51.86,0,0,1,15.76,2.59c14.53,4.6,24.57,17.65,30.94,29.63a114.32,114.32,0,0,1,6.91,15.88c.62,1.77,1.09,3.26,1.44,4.4h1.77A115.85,115.85,0,0,0,94,53.45Z"/><path class="cls-4" d="M34,61.93s26.36,7.5,31,33.66L34,61.93"/><path class="cls-6" d="M33.77,62.74l.27.09a50.15,50.15,0,0,1,14.55,7.79,40.18,40.18,0,0,1,15.6,25.12.85.85,0,1,0,1.67-.3c-2.38-13.35-10.31-22-17.6-27.18a50.62,50.62,0,0,0-14-7.15.85.85,0,1,0-.46,1.63"/><path class="cls-4" d="M2.2,71.09C5,87.92,19.6,104.22,41.67,106.77a90.65,90.65,0,0,0,10.42.62c.61,0,1.22,0,1.82,0,28-.94,16.89-7.17,12-11.45L35.19,63.22c-.52-.19-.91-.32-1.15-.39l-.27-.09a.84.84,0,0,1-.59-1.05.86.86,0,0,1,.82-.62.62.62,0,0,1,.23,0A83.82,83.82,0,0,1,47.9,68.38C68,81.43,66.65,106.14,66.65,106.14c13.13-1,34.67-20.2,35.88-29.53.38-2.9-4.87-14.42-11-18.47-13.69-9-37.74-10.43-56.31-6.42C8.21,57.54,4.78,67.51,2.2,71.09Z"/><path class="cls-2" d="M101,58.41s-5.68-25.82-13-38.8S63.5-5,43.5,4.07c0,0,18.38-4.73,24.46,12.3,0,0-30.82-13.25-48.93,5,0,0,21.49-3.11,32.71,5.14"/><path class="cls-3" d="M101.78,58.23S100.35,51.75,98,43.64,92.43,25.81,88.71,19.2A39.77,39.77,0,0,0,76.39,5.86,33.34,33.34,0,0,0,57.73,0,35.22,35.22,0,0,0,43.14,3.29l.57,1.6.09,0a24.58,24.58,0,0,1,5.33-.55A20.64,20.64,0,0,1,58.9,6.56c3.31,1.77,6.37,4.8,8.26,10.09l.8-.28.34-.78a67.16,67.16,0,0,0-23.72-4.72c-8.8,0-18.56,2.25-26.16,9.9l-1.79,1.81,2.52-.37.68-.08a75.7,75.7,0,0,1,8.59-.48c6.85,0,16,1,22.15,5.07a.84.84,0,0,0,1.16-.19h0a.86.86,0,0,0-.2-1.21C44.86,20.86,35.43,20,28.42,20a72.21,72.21,0,0,0-9.51.58l.12.84.6.6c7.18-7.23,16.42-9.39,25-9.4a62.94,62.94,0,0,1,16.19,2.3c2.11.57,3.83,1.14,5,1.57l1.37.52.47.19,1.79.77-.65-1.84a19.28,19.28,0,0,0-9.06-11A22.6,22.6,0,0,0,49.13,2.61a25.87,25.87,0,0,0-5.85.63l.22.83.35.77A33.52,33.52,0,0,1,57.73,1.7,31.6,31.6,0,0,1,75.44,7.28,38,38,0,0,1,87.23,20c3.59,6.37,6.83,16,9.15,24.08,1.16,4,2.1,7.65,2.74,10.27.32,1.3.57,2.36.74,3.09l.26,1.12,1.66-.36Z"/><path class="cls-8" d="M109.6,46.58A18.45,18.45,0,1,1,91.15,28.13,18.45,18.45,0,0,1,109.6,46.58Z"/><path class="cls-9" d="M109.6,46.58h-.85a17.62,17.62,0,1,1-5.16-12.44,17.53,17.53,0,0,1,5.16,12.44h1.7a19.3,19.3,0,1,0-19.3,19.31,19.3,19.3,0,0,0,19.3-19.31Z"/><path class="cls-8" d="M94.19,60.24A18.46,18.46,0,1,1,75.74,41.78,18.45,18.45,0,0,1,94.19,60.24Z"/><path class="cls-9" d="M94.19,60.24h-.85a17.62,17.62,0,1,1-5.16-12.45,17.53,17.53,0,0,1,5.16,12.45H95a19.31,19.31,0,1,0-19.3,19.3A19.31,19.31,0,0,0,95,60.24Z"/><path class="cls-10" d="M76.75,50.91A4.94,4.94,0,1,1,71.82,46,4.93,4.93,0,0,1,76.75,50.91Z"/><path class="cls-10" d="M94.6,34.18a3.55,3.55,0,1,1-3.55-3.55A3.55,3.55,0,0,1,94.6,34.18Z"/></g></g></svg>