<svg xmlns="http://www.w3.org/2000/svg" viewBox="0 0 61.11 91.54"><defs><style>.a97d0f94-54e6-4848-a8cb-a419e06cd0e0{fill:none;}.b62ad68c-ef7a-4279-9319-ccceb30ee106{fill:#adadad;}.ef85c004-5758-45ab-8485-946c69b11c3b{fill:#f6413a;}.a20bf7fd-f89c-4a58-8a48-82e5fe2612ab{fill:#c51611;}.a7150949-faf6-478b-afc5-a0deef3fd182{fill:#ffb3b3;}</style></defs><title>C_8</title><g id="bb7ee6d5-ca80-4646-817c-2301cc2773dc" data-name="Capa 2"><g id="f8b4738e-f5bd-48d2-acb2-afb3f2beb2e0" data-name="Objects"><rect class="a97d0f94-54e6-4848-a8cb-a419e06cd0e0" x="0.13" y="0.12" width="60.86" height="91.29" rx="2.4"/><path class="b62ad68c-ef7a-4279-9319-ccceb30ee106" d="M58.59,91.54H2.52A2.53,2.53,0,0,1,0,89V2.52A2.52,2.52,0,0,1,2.52,0H58.59a2.52,2.52,0,0,1,2.52,2.52V89A2.53,2.53,0,0,1,58.59,91.54ZM2.52.25A2.27,2.27,0,0,0,.25,2.52V89a2.28,2.28,0,0,0,2.27,2.28H58.59A2.28,2.28,0,0,0,60.86,89V2.52A2.27,2.27,0,0,0,58.59.25Z"/><path class="ef85c004-5758-45ab-8485-946c69b11c3b" d="M4.36,5.22l0-.08a1.85,1.85,0,0,1,.6.36,2,2,0,0,1,.42.57,1.74,1.74,0,0,1-.12,1.64,1.91,1.91,0,0,1-.72.66,2.11,2.11,0,0,1-1,.25,2,2,0,0,1-1-.25,1.87,1.87,0,0,1-.73-.66,1.68,1.68,0,0,1-.27-.93A1.64,1.64,0,0,1,1.61,6a1.7,1.7,0,0,1,.44-.55,2.26,2.26,0,0,1,.56-.35l0,.09A2,2,0,0,1,2.1,4.9a2,2,0,0,1-.36-.51,1.59,1.59,0,0,1-.14-.66,1.69,1.69,0,0,1,.25-.92,1.82,1.82,0,0,1,.68-.64,1.85,1.85,0,0,1,.94-.24,1.92,1.92,0,0,1,.95.24,1.87,1.87,0,0,1,.67.64,1.78,1.78,0,0,1,.24.92,1.42,1.42,0,0,1-.14.66,1.68,1.68,0,0,1-.36.51A1.71,1.71,0,0,1,4.36,5.22ZM3.47,8.08a1.48,1.48,0,0,0,1-.37A1.26,1.26,0,0,0,4.73,6.1a1.34,1.34,0,0,0-.53-.47,1.63,1.63,0,0,0-1.45,0,1.41,1.41,0,0,0-.53.47,1.26,1.26,0,0,0,.21,1.61A1.44,1.44,0,0,0,3.47,8.08ZM2.18,3.73a1.21,1.21,0,0,0,.18.66,1.11,1.11,0,0,0,.47.44A1.3,1.3,0,0,0,3.47,5a1.24,1.24,0,0,0,.63-.17,1.2,1.2,0,0,0,.48-.44,1.21,1.21,0,0,0,.18-.66,1.21,1.21,0,0,0-.36-.91,1.29,1.29,0,0,0-.93-.35,1.28,1.28,0,0,0-.93.35A1.18,1.18,0,0,0,2.18,3.73Z"/><path class="ef85c004-5758-45ab-8485-946c69b11c3b" d="M56.75,86.31l0,.09a2.07,2.07,0,0,1-.6-.37,1.76,1.76,0,0,1-.42-.56,1.73,1.73,0,0,1-.16-.72,1.68,1.68,0,0,1,.27-.93,2,2,0,0,1,.73-.66,2.21,2.21,0,0,1,1-.24,2.16,2.16,0,0,1,1,.24,2,2,0,0,1,.73.66,1.68,1.68,0,0,1,.27.93,1.58,1.58,0,0,1-.17.74,1.71,1.71,0,0,1-.43.56,2.6,2.6,0,0,1-.56.35l0-.1a1.87,1.87,0,0,1,.47.34,1.76,1.76,0,0,1,.37.51,1.59,1.59,0,0,1,.14.66,1.75,1.75,0,0,1-.25.91,1.85,1.85,0,0,1-.68.65,2.06,2.06,0,0,1-1.89,0,1.82,1.82,0,0,1-.67-.65,1.75,1.75,0,0,1-.25-.91,1.47,1.47,0,0,1,.15-.67,1.64,1.64,0,0,1,.36-.5A1.82,1.82,0,0,1,56.75,86.31Zm.89-2.85a1.52,1.52,0,0,0-1,.36,1.26,1.26,0,0,0-.21,1.61,1.45,1.45,0,0,0,.53.48,1.6,1.6,0,0,0,.73.17,1.58,1.58,0,0,0,.71-.17,1.37,1.37,0,0,0,.53-.48,1.16,1.16,0,0,0,.2-.68,1.21,1.21,0,0,0-.4-.93A1.5,1.5,0,0,0,57.64,83.46Zm1.29,4.35a1.22,1.22,0,0,0-.18-.67,1.27,1.27,0,0,0-.48-.44,1.26,1.26,0,0,0-.63-.16,1.29,1.29,0,0,0-.64.16,1.32,1.32,0,0,0-.47.44,1.22,1.22,0,0,0-.18.67,1.19,1.19,0,0,0,.36.9,1.41,1.41,0,0,0,1.86,0A1.19,1.19,0,0,0,58.93,87.81Z"/><path class="ef85c004-5758-45ab-8485-946c69b11c3b" d="M4.2,9a.88.88,0,0,0-.81.52A.9.9,0,0,0,2.57,9,1.08,1.08,0,0,0,1.67,10c0,1.08,1.72,2,1.72,2s1.71-.93,1.71-2A1.07,1.07,0,0,0,4.2,9Z"/><path class="a20bf7fd-f89c-4a58-8a48-82e5fe2612ab" d="M3.39,12.05h0s-1.72-.94-1.72-2c0-.5.41-1.1.91-1.1a.91.91,0,0,1,.82.5.9.9,0,0,1,.81-.5A1.1,1.1,0,0,1,5.12,10c0,1.08-1.71,2-1.72,2ZM2.57,9c-.48,0-.88.58-.88,1.06,0,1,1.57,1.91,1.7,2s1.69-1,1.69-2C5.08,9.55,4.69,9,4.2,9a.89.89,0,0,0-.8.51h0A.88.88,0,0,0,2.57,9Z"/><path class="a7150949-faf6-478b-afc5-a0deef3fd182" d="M4.83,10.28h0a.07.07,0,0,1-.07-.09.78.78,0,0,0-.44-.92.09.09,0,0,1-.06-.11.09.09,0,0,1,.11-.05.93.93,0,0,1,.56,1.1A.11.11,0,0,1,4.83,10.28Z"/><path class="a7150949-faf6-478b-afc5-a0deef3fd182" d="M4.76,10.58h0a.07.07,0,0,1-.06-.1l0-.12a.09.09,0,0,1,.11-.06.09.09,0,0,1,.06.1l0,.12A.08.08,0,0,1,4.76,10.58Z"/><path class="ef85c004-5758-45ab-8485-946c69b11c3b" d="M56.89,82.72a.93.93,0,0,0,.82-.52.9.9,0,0,0,.81.52c.5,0,.9-.59.9-1.08,0-1.09-1.71-2-1.71-2s-1.72.92-1.72,2C56,82.13,56.4,82.72,56.89,82.72Z"/><path class="a20bf7fd-f89c-4a58-8a48-82e5fe2612ab" d="M57.71,79.61h0s1.72,1,1.72,2c0,.49-.41,1.1-.92,1.1a.92.92,0,0,1-.81-.5.94.94,0,0,1-.82.5c-.51,0-.92-.61-.92-1.1,0-1.08,1.71-2,1.73-2Zm.81,3.09c.49,0,.88-.58.88-1.06,0-1-1.56-1.92-1.69-2s-1.7,1-1.7,2c0,.48.39,1.06.88,1.06a.89.89,0,0,0,.8-.51h0A.89.89,0,0,0,58.52,82.7Z"/><path class="a7150949-faf6-478b-afc5-a0deef3fd182" d="M56.26,81.39h0a.1.1,0,0,1,.08.1.75.75,0,0,0,.44.91.09.09,0,0,1,0,.17,1,1,0,0,1-.56-1.11A.08.08,0,0,1,56.26,81.39Z"/><path class="a7150949-faf6-478b-afc5-a0deef3fd182" d="M56.34,81.08h0a.09.09,0,0,1,.06.11l0,.11a.07.07,0,0,1-.1.06.07.07,0,0,1-.06-.1l0-.11A.1.1,0,0,1,56.34,81.08Z"/><path class="ef85c004-5758-45ab-8485-946c69b11c3b" d="M19.77,9.4a3.5,3.5,0,0,0-3.17,2,3.49,3.49,0,0,0-3.17-2c-1.94,0-3.51,2.28-3.51,4.21,0,4.22,6.68,7.82,6.68,7.82s6.68-3.6,6.68-7.82C23.28,11.68,21.71,9.4,19.77,9.4Z"/><path class="a20bf7fd-f89c-4a58-8a48-82e5fe2612ab" d="M16.6,21.51h0c-.07,0-6.72-3.68-6.72-7.89,0-1.94,1.6-4.28,3.58-4.28a3.57,3.57,0,0,1,3.17,1.94,3.58,3.58,0,0,1,3.17-1.94c2,0,3.58,2.34,3.58,4.28,0,4.21-6.65,7.85-6.71,7.89Zm-3.17-12c-1.9,0-3.44,2.27-3.44,4.14,0,4,6.1,7.46,6.61,7.74.52-.28,6.61-3.77,6.61-7.74,0-1.87-1.53-4.14-3.44-4.14a3.43,3.43,0,0,0-3.1,2,.1.1,0,0,1-.07,0h0a.07.07,0,0,1-.06,0A3.46,3.46,0,0,0,13.43,9.47Z"/><path class="a7150949-faf6-478b-afc5-a0deef3fd182" d="M22.23,14.58h-.05a.33.33,0,0,1-.28-.37c.39-2.87-1.63-3.55-1.72-3.58a.33.33,0,0,1,.2-.63s2.64.86,2.18,4.3A.34.34,0,0,1,22.23,14.58Z"/><path class="a7150949-faf6-478b-afc5-a0deef3fd182" d="M22,15.78h-.08a.34.34,0,0,1-.25-.4l.11-.45a.33.33,0,0,1,.4-.25.32.32,0,0,1,.24.4l-.1.45A.34.34,0,0,1,22,15.78Z"/><path class="ef85c004-5758-45ab-8485-946c69b11c3b" d="M47.68,9.4a3.48,3.48,0,0,0-3.17,2,3.5,3.5,0,0,0-3.18-2c-1.93,0-3.5,2.28-3.5,4.21,0,4.22,6.68,7.82,6.68,7.82s6.68-3.6,6.68-7.82C51.19,11.68,49.61,9.4,47.68,9.4Z"/><path class="a20bf7fd-f89c-4a58-8a48-82e5fe2612ab" d="M44.51,21.51h0c-.07,0-6.72-3.68-6.72-7.89,0-1.94,1.6-4.28,3.58-4.28a3.6,3.6,0,0,1,3.18,1.94,3.57,3.57,0,0,1,3.17-1.94c2,0,3.58,2.34,3.58,4.28,0,4.21-6.65,7.85-6.72,7.89Zm-3.18-12c-1.9,0-3.43,2.27-3.43,4.14,0,4,6.09,7.46,6.61,7.74.51-.28,6.6-3.77,6.6-7.74,0-1.87-1.53-4.14-3.43-4.14a3.45,3.45,0,0,0-3.11,2,.08.08,0,0,1-.06,0h0a.08.08,0,0,1-.07,0A3.44,3.44,0,0,0,41.33,9.47Z"/><path class="a7150949-faf6-478b-afc5-a0deef3fd182" d="M50.13,14.58h0a.34.34,0,0,1-.29-.37c.39-2.87-1.63-3.55-1.71-3.58a.33.33,0,1,1,.2-.63s2.64.86,2.17,4.3A.33.33,0,0,1,50.13,14.58Z"/><path class="a7150949-faf6-478b-afc5-a0deef3fd182" d="M49.85,15.78h-.08a.32.32,0,0,1-.24-.4l.1-.45a.33.33,0,1,1,.65.15l-.11.45A.33.33,0,0,1,49.85,15.78Z"/><path class="ef85c004-5758-45ab-8485-946c69b11c3b" d="M19.77,37.67a3.52,3.52,0,0,0-3.17,2,3.51,3.51,0,0,0-3.17-2c-1.94,0-3.51,2.28-3.51,4.21,0,4.22,6.68,7.83,6.68,7.83s6.68-3.61,6.68-7.83C23.28,40,21.71,37.67,19.77,37.67Z"/><path class="a20bf7fd-f89c-4a58-8a48-82e5fe2612ab" d="M16.6,49.78h0c-.07,0-6.72-3.68-6.72-7.89,0-1.94,1.6-4.28,3.58-4.28a3.59,3.59,0,0,1,3.17,1.94,3.6,3.6,0,0,1,3.17-1.94c2,0,3.58,2.34,3.58,4.28,0,4.21-6.65,7.85-6.71,7.89Zm-3.17-12C11.53,37.74,10,40,10,41.88c0,4,6.1,7.46,6.61,7.75.52-.29,6.61-3.78,6.61-7.75,0-1.87-1.53-4.14-3.44-4.14a3.43,3.43,0,0,0-3.1,2,.08.08,0,0,1-.07,0h0a.05.05,0,0,1-.06,0A3.46,3.46,0,0,0,13.43,37.74Z"/><path class="a7150949-faf6-478b-afc5-a0deef3fd182" d="M22.23,42.85h-.05a.34.34,0,0,1-.28-.38c.39-2.86-1.63-3.55-1.72-3.58a.32.32,0,0,1-.21-.41.33.33,0,0,1,.41-.22s2.64.87,2.18,4.3A.34.34,0,0,1,22.23,42.85Z"/><path class="a7150949-faf6-478b-afc5-a0deef3fd182" d="M22,44.05h-.08a.33.33,0,0,1-.25-.4l.11-.45a.32.32,0,0,1,.4-.24.31.31,0,0,1,.24.39l-.1.45A.33.33,0,0,1,22,44.05Z"/><path class="ef85c004-5758-45ab-8485-946c69b11c3b" d="M34.14,22.93A3.48,3.48,0,0,0,31,25a3.5,3.5,0,0,0-3.18-2c-1.93,0-3.5,2.27-3.5,4.21C24.29,31.35,31,35,31,35s6.68-3.61,6.68-7.82C37.65,25.2,36.07,22.93,34.14,22.93Z"/><path class="a20bf7fd-f89c-4a58-8a48-82e5fe2612ab" d="M31,35h0c-.07,0-6.72-3.68-6.72-7.89,0-1.94,1.6-4.28,3.58-4.28A3.61,3.61,0,0,1,31,24.79a3.58,3.58,0,0,1,3.17-1.93c2,0,3.58,2.34,3.58,4.28C37.72,31.35,31.07,35,31,35ZM27.79,23c-1.9,0-3.43,2.27-3.43,4.14,0,4,6.09,7.45,6.61,7.74.51-.29,6.6-3.77,6.6-7.74C37.57,25.27,36,23,34.14,23A3.45,3.45,0,0,0,31,25,.08.08,0,0,1,31,25h0a.08.08,0,0,1-.07,0A3.44,3.44,0,0,0,27.79,23Z"/><path class="a7150949-faf6-478b-afc5-a0deef3fd182" d="M36.59,28.1h0a.34.34,0,0,1-.29-.37c.39-2.87-1.63-3.55-1.71-3.58a.34.34,0,0,1-.22-.42.33.33,0,0,1,.42-.21s2.64.86,2.17,4.3A.33.33,0,0,1,36.59,28.1Z"/><path class="a7150949-faf6-478b-afc5-a0deef3fd182" d="M36.31,29.3h-.08a.33.33,0,0,1-.24-.4l.1-.45a.34.34,0,0,1,.4-.25.33.33,0,0,1,.25.4l-.11.45A.33.33,0,0,1,36.31,29.3Z"/><path class="ef85c004-5758-45ab-8485-946c69b11c3b" d="M34.14,54.57a3.48,3.48,0,0,0-3.17,2,3.5,3.5,0,0,0-3.18-2c-1.93,0-3.5,2.27-3.5,4.21C24.29,63,31,66.6,31,66.6s6.68-3.6,6.68-7.82C37.65,56.84,36.07,54.57,34.14,54.57Z"/><path class="a20bf7fd-f89c-4a58-8a48-82e5fe2612ab" d="M31,66.68h0c-.07,0-6.72-3.68-6.72-7.89,0-1.94,1.6-4.28,3.58-4.28A3.6,3.6,0,0,1,31,56.44a3.57,3.57,0,0,1,3.17-1.94c2,0,3.58,2.34,3.58,4.28,0,4.21-6.65,7.85-6.72,7.89Zm-3.18-12c-1.9,0-3.43,2.27-3.43,4.14,0,4,6.09,7.45,6.61,7.74.51-.29,6.6-3.77,6.6-7.74,0-1.87-1.53-4.14-3.43-4.14a3.45,3.45,0,0,0-3.11,2,.08.08,0,0,1-.06,0h0a.08.08,0,0,1-.07,0A3.44,3.44,0,0,0,27.79,54.64Z"/><path class="a7150949-faf6-478b-afc5-a0deef3fd182" d="M36.59,59.74h0a.34.34,0,0,1-.29-.37c.39-2.87-1.63-3.55-1.71-3.58a.34.34,0,0,1-.22-.42.33.33,0,0,1,.42-.21s2.64.86,2.17,4.3A.33.33,0,0,1,36.59,59.74Z"/><path class="a7150949-faf6-478b-afc5-a0deef3fd182" d="M36.31,61h-.08a.32.32,0,0,1-.24-.4l.1-.45a.34.34,0,0,1,.4-.25.33.33,0,0,1,.25.4l-.11.45A.34.34,0,0,1,36.31,61Z"/><path class="ef85c004-5758-45ab-8485-946c69b11c3b" d="M47.68,37.67a3.5,3.5,0,0,0-3.17,2,3.52,3.52,0,0,0-3.18-2c-1.93,0-3.5,2.28-3.5,4.21,0,4.22,6.68,7.83,6.68,7.83s6.68-3.61,6.68-7.83C51.19,40,49.61,37.67,47.68,37.67Z"/><path class="a20bf7fd-f89c-4a58-8a48-82e5fe2612ab" d="M44.51,49.78h0c-.07,0-6.72-3.68-6.72-7.89,0-1.94,1.6-4.28,3.58-4.28a3.62,3.62,0,0,1,3.18,1.94,3.59,3.59,0,0,1,3.17-1.94c2,0,3.58,2.34,3.58,4.28,0,4.21-6.65,7.85-6.72,7.89Zm-3.18-12c-1.9,0-3.43,2.27-3.43,4.14,0,4,6.09,7.46,6.61,7.75.51-.29,6.6-3.78,6.6-7.75,0-1.87-1.53-4.14-3.43-4.14a3.45,3.45,0,0,0-3.11,2,.06.06,0,0,1-.06,0h0a.07.07,0,0,1-.07,0A3.44,3.44,0,0,0,41.33,37.74Z"/><path class="a7150949-faf6-478b-afc5-a0deef3fd182" d="M50.13,42.85h0a.35.35,0,0,1-.29-.38c.39-2.86-1.63-3.55-1.71-3.58a.33.33,0,0,1-.22-.41.34.34,0,0,1,.42-.22s2.64.87,2.17,4.3A.33.33,0,0,1,50.13,42.85Z"/><path class="a7150949-faf6-478b-afc5-a0deef3fd182" d="M49.85,44.05h-.08a.32.32,0,0,1-.24-.4l.1-.45A.32.32,0,0,1,50,43a.33.33,0,0,1,.25.39l-.11.45A.32.32,0,0,1,49.85,44.05Z"/><path class="ef85c004-5758-45ab-8485-946c69b11c3b" d="M19.77,70.1a3.5,3.5,0,0,0-3.17,2,3.49,3.49,0,0,0-3.17-2c-1.94,0-3.51,2.28-3.51,4.21,0,4.22,6.68,7.83,6.68,7.83s6.68-3.61,6.68-7.83C23.28,72.38,21.71,70.1,19.77,70.1Z"/><path class="a20bf7fd-f89c-4a58-8a48-82e5fe2612ab" d="M16.6,82.21h0c-.07,0-6.72-3.68-6.72-7.89,0-1.94,1.6-4.28,3.58-4.28A3.57,3.57,0,0,1,16.6,72,3.58,3.58,0,0,1,19.77,70c2,0,3.58,2.34,3.58,4.28,0,4.21-6.65,7.85-6.71,7.89Zm-3.17-12c-1.9,0-3.44,2.27-3.44,4.14,0,4,6.1,7.46,6.61,7.74.52-.28,6.61-3.77,6.61-7.74,0-1.87-1.53-4.14-3.44-4.14a3.43,3.43,0,0,0-3.1,2,.1.1,0,0,1-.07,0h0a.07.07,0,0,1-.06,0A3.46,3.46,0,0,0,13.43,70.17Z"/><path class="a7150949-faf6-478b-afc5-a0deef3fd182" d="M22.23,75.28h-.05a.33.33,0,0,1-.28-.37c.39-2.86-1.63-3.55-1.72-3.58a.32.32,0,0,1-.21-.41.33.33,0,0,1,.41-.22s2.64.87,2.18,4.3A.34.34,0,0,1,22.23,75.28Z"/><path class="a7150949-faf6-478b-afc5-a0deef3fd182" d="M22,76.48h-.08a.33.33,0,0,1-.25-.4l.11-.45a.33.33,0,0,1,.4-.25.32.32,0,0,1,.24.4l-.1.45A.34.34,0,0,1,22,76.48Z"/><path class="ef85c004-5758-45ab-8485-946c69b11c3b" d="M47.68,70.1a3.48,3.48,0,0,0-3.17,2,3.5,3.5,0,0,0-3.18-2c-1.93,0-3.5,2.28-3.5,4.21,0,4.22,6.68,7.83,6.68,7.83s6.68-3.61,6.68-7.83C51.19,72.38,49.61,70.1,47.68,70.1Z"/><path class="a20bf7fd-f89c-4a58-8a48-82e5fe2612ab" d="M44.51,82.21h0c-.07,0-6.72-3.68-6.72-7.89,0-1.94,1.6-4.28,3.58-4.28A3.6,3.6,0,0,1,44.51,72,3.57,3.57,0,0,1,47.68,70c2,0,3.58,2.34,3.58,4.28,0,4.21-6.65,7.85-6.72,7.89Zm-3.18-12c-1.9,0-3.43,2.27-3.43,4.14,0,4,6.09,7.46,6.61,7.74.51-.28,6.6-3.77,6.6-7.74,0-1.87-1.53-4.14-3.43-4.14a3.45,3.45,0,0,0-3.11,2,.08.08,0,0,1-.06,0h0a.08.08,0,0,1-.07,0A3.44,3.44,0,0,0,41.33,70.17Z"/><path class="a7150949-faf6-478b-afc5-a0deef3fd182" d="M50.13,75.28h0a.34.34,0,0,1-.29-.37c.39-2.86-1.63-3.55-1.71-3.58a.33.33,0,0,1-.22-.41.34.34,0,0,1,.42-.22s2.64.87,2.17,4.3A.33.33,0,0,1,50.13,75.28Z"/><path class="a7150949-faf6-478b-afc5-a0deef3fd182" d="M49.85,76.48h-.08a.32.32,0,0,1-.24-.4l.1-.45a.33.33,0,1,1,.65.15l-.11.45A.33.33,0,0,1,49.85,76.48Z"/></g></g></svg>