<svg xmlns="http://www.w3.org/2000/svg" viewBox="0 0 61.11 91.54"><defs><style>.be05b82d-5ec2-4e19-baf3-28a349416bf1{fill:none;}.bdcf8b8d-b735-416f-9b48-4620a5fe3bca{fill:#adadad;}.afa658bf-e55c-40d4-b891-bac141a76dfe{fill:#f6413a;}.ffb943df-c465-4637-aded-fd5c866ba93a{fill:#c51611;}.bb04313a-b138-4064-be90-fb8be9f5764b{fill:#ffb3b3;}</style></defs><title>C_5</title><g id="e9b7088b-6a17-49b3-9c08-ae0e614db7ff" data-name="Capa 2"><g id="a4249bc9-37f7-4349-8f98-8b148056fce7" data-name="Objects"><rect class="be05b82d-5ec2-4e19-baf3-28a349416bf1" x="0.13" y="0.12" width="60.86" height="91.29" rx="2.4"/><path class="bdcf8b8d-b735-416f-9b48-4620a5fe3bca" d="M58.59,91.54H2.52A2.53,2.53,0,0,1,0,89V2.52A2.52,2.52,0,0,1,2.52,0H58.59a2.52,2.52,0,0,1,2.52,2.52V89A2.53,2.53,0,0,1,58.59,91.54ZM2.52.25A2.27,2.27,0,0,0,.25,2.52V89a2.28,2.28,0,0,0,2.27,2.28H58.59A2.28,2.28,0,0,0,60.86,89V2.52A2.27,2.27,0,0,0,58.59.25Z"/><path class="afa658bf-e55c-40d4-b891-bac141a76dfe" d="M3.56,8.56a2.36,2.36,0,0,1-.78-.13,1.94,1.94,0,0,1-.69-.38A.31.31,0,0,1,2,7.94a.38.38,0,0,1,0-.13A.29.29,0,0,1,2,7.62a.25.25,0,0,1,.2-.09.32.32,0,0,1,.21.09A2.1,2.1,0,0,0,3,7.91a1.69,1.69,0,0,0,.58.1,2.13,2.13,0,0,0,1-.21,1.63,1.63,0,0,0,.64-.61,1.72,1.72,0,0,0,.24-.91,1.57,1.57,0,0,0-.21-.83,1.45,1.45,0,0,0-.59-.56,1.88,1.88,0,0,0-.91-.2,1.89,1.89,0,0,0-.63.1A3.79,3.79,0,0,0,2.59,5a.62.62,0,0,1-.29.11.31.31,0,0,1-.19-.06A.26.26,0,0,1,2,4.91a.35.35,0,0,1,0-.18L2.4,2.16A.24.24,0,0,1,2.49,2a.28.28,0,0,1,.2-.08H5.54A.27.27,0,0,1,5.73,2a.28.28,0,0,1,.08.21.27.27,0,0,1-.27.27H2.82l.09-.08L2.52,4.7l-.17-.13a1.91,1.91,0,0,1,.36-.19,2.91,2.91,0,0,1,.52-.16,2.37,2.37,0,0,1,.61-.07,2.18,2.18,0,0,1,1.09.27,1.93,1.93,0,0,1,.76.74A2.12,2.12,0,0,1,6,6.26a2.52,2.52,0,0,1-.17.93,2.07,2.07,0,0,1-.5.73,2.27,2.27,0,0,1-.76.47A2.55,2.55,0,0,1,3.56,8.56Z"/><path class="afa658bf-e55c-40d4-b891-bac141a76dfe" d="M57.68,83a2.66,2.66,0,0,1,.78.13,2.06,2.06,0,0,1,.7.38.27.27,0,0,1,.09.12.31.31,0,0,1,0,.13.27.27,0,0,1-.07.18A.27.27,0,0,1,59,84a.31.31,0,0,1-.21-.08,1.62,1.62,0,0,0-.53-.29,1.76,1.76,0,0,0-.59-.11,2,2,0,0,0-1,.22,1.59,1.59,0,0,0-.65.61,1.77,1.77,0,0,0-.23.9,1.64,1.64,0,0,0,.21.84,1.45,1.45,0,0,0,.59.56,1.93,1.93,0,0,0,.9.2,1.81,1.81,0,0,0,.63-.1,3.24,3.24,0,0,0,.49-.22.73.73,0,0,1,.28-.11.32.32,0,0,1,.3.2.28.28,0,0,1,0,.18l-.4,2.57a.29.29,0,0,1-.09.16.26.26,0,0,1-.21.08H55.71a.3.3,0,0,1-.2-.08.28.28,0,0,1-.08-.2.27.27,0,0,1,.28-.28h2.71l-.08.09.38-2.3.17.12a1.25,1.25,0,0,1-.35.19,3.52,3.52,0,0,1-.52.17,2.43,2.43,0,0,1-.61.07,2.21,2.21,0,0,1-1.1-.27,2,2,0,0,1-.76-.75,2.09,2.09,0,0,1-.28-1.1,2.41,2.41,0,0,1,.18-.93,2,2,0,0,1,.49-.72,2.39,2.39,0,0,1,.76-.48A2.8,2.8,0,0,1,57.68,83Z"/><path class="afa658bf-e55c-40d4-b891-bac141a76dfe" d="M4.64,8.88a.93.93,0,0,0-.82.52A.9.9,0,0,0,3,8.88c-.5,0-.9.59-.9,1.08,0,1.09,1.71,2,1.71,2s1.72-.92,1.72-2C5.54,9.47,5.14,8.88,4.64,8.88Z"/><path class="ffb943df-c465-4637-aded-fd5c866ba93a" d="M3.82,12h0s-1.73-1-1.73-2c0-.49.41-1.1.92-1.1a.92.92,0,0,1,.81.5.94.94,0,0,1,.82-.5c.51,0,.92.61.92,1.1,0,1.08-1.71,2-1.73,2ZM3,8.9c-.49,0-.88.58-.88,1.06,0,1,1.56,1.92,1.69,2s1.7-1,1.7-2c0-.48-.39-1.06-.88-1.06a.89.89,0,0,0-.8.51h0A.89.89,0,0,0,3,8.9Z"/><path class="bb04313a-b138-4064-be90-fb8be9f5764b" d="M5.27,10.21h0a.1.1,0,0,1-.08-.1.75.75,0,0,0-.44-.91.09.09,0,0,1,0-.11A.08.08,0,0,1,4.79,9a1,1,0,0,1,.56,1.11A.08.08,0,0,1,5.27,10.21Z"/><path class="bb04313a-b138-4064-be90-fb8be9f5764b" d="M5.19,10.52h0a.09.09,0,0,1-.07-.11l0-.11a.07.07,0,0,1,.1-.06.08.08,0,0,1,.07.1l0,.11A.1.1,0,0,1,5.19,10.52Z"/><path class="afa658bf-e55c-40d4-b891-bac141a76dfe" d="M56.47,82.65a.88.88,0,0,0,.81-.52.91.91,0,0,0,.82.52,1.08,1.08,0,0,0,.9-1.08c0-1.08-1.72-2-1.72-2s-1.71.93-1.71,2A1.07,1.07,0,0,0,56.47,82.65Z"/><path class="ffb943df-c465-4637-aded-fd5c866ba93a" d="M57.28,79.55h0s1.73.94,1.73,2a1.1,1.1,0,0,1-.92,1.1.93.93,0,0,1-.82-.5.9.9,0,0,1-.81.5,1.1,1.1,0,0,1-.92-1.1c0-1.08,1.71-2,1.72-2Zm.82,3.08c.49,0,.88-.58.88-1.06,0-1-1.56-1.91-1.7-2s-1.69,1-1.69,2c0,.48.39,1.06.88,1.06a.89.89,0,0,0,.8-.51h0A.88.88,0,0,0,58.1,82.63Z"/><path class="bb04313a-b138-4064-be90-fb8be9f5764b" d="M55.84,81.32h0a.07.07,0,0,1,.07.09.78.78,0,0,0,.44.92.09.09,0,0,1,.06.11.09.09,0,0,1-.11,0,.94.94,0,0,1-.55-1.1A.08.08,0,0,1,55.84,81.32Z"/><path class="bb04313a-b138-4064-be90-fb8be9f5764b" d="M55.91,81h0a.09.09,0,0,1,.07.1l0,.12a.09.09,0,0,1-.1.06.09.09,0,0,1-.07-.1l0-.12A.08.08,0,0,1,55.91,81Z"/><path class="afa658bf-e55c-40d4-b891-bac141a76dfe" d="M19.77,9.4a3.5,3.5,0,0,0-3.17,2,3.49,3.49,0,0,0-3.17-2c-1.94,0-3.51,2.28-3.51,4.21,0,4.22,6.68,7.82,6.68,7.82s6.68-3.6,6.68-7.82C23.28,11.68,21.71,9.4,19.77,9.4Z"/><path class="ffb943df-c465-4637-aded-fd5c866ba93a" d="M16.6,21.51h0c-.07,0-6.72-3.68-6.72-7.89,0-1.94,1.6-4.28,3.58-4.28a3.57,3.57,0,0,1,3.17,1.94,3.58,3.58,0,0,1,3.17-1.94c2,0,3.58,2.34,3.58,4.28,0,4.21-6.65,7.85-6.71,7.89Zm-3.17-12c-1.9,0-3.44,2.27-3.44,4.14,0,4,6.1,7.46,6.61,7.74.52-.28,6.61-3.77,6.61-7.74,0-1.87-1.53-4.14-3.44-4.14a3.43,3.43,0,0,0-3.1,2,.1.1,0,0,1-.07,0h0a.07.07,0,0,1-.06,0A3.46,3.46,0,0,0,13.43,9.47Z"/><path class="bb04313a-b138-4064-be90-fb8be9f5764b" d="M22.23,14.58h-.05a.33.33,0,0,1-.28-.37c.39-2.87-1.63-3.55-1.72-3.58a.33.33,0,0,1,.2-.63s2.64.86,2.18,4.3A.34.34,0,0,1,22.23,14.58Z"/><path class="bb04313a-b138-4064-be90-fb8be9f5764b" d="M22,15.78h-.08a.34.34,0,0,1-.25-.4l.11-.45a.33.33,0,0,1,.4-.25.32.32,0,0,1,.24.4l-.1.45A.34.34,0,0,1,22,15.78Z"/><path class="afa658bf-e55c-40d4-b891-bac141a76dfe" d="M47.68,9.4a3.48,3.48,0,0,0-3.17,2,3.5,3.5,0,0,0-3.18-2c-1.93,0-3.5,2.28-3.5,4.21,0,4.22,6.68,7.82,6.68,7.82s6.68-3.6,6.68-7.82C51.19,11.68,49.61,9.4,47.68,9.4Z"/><path class="ffb943df-c465-4637-aded-fd5c866ba93a" d="M44.51,21.51h0c-.07,0-6.72-3.68-6.72-7.89,0-1.94,1.6-4.28,3.58-4.28a3.6,3.6,0,0,1,3.18,1.94,3.57,3.57,0,0,1,3.17-1.94c2,0,3.58,2.34,3.58,4.28,0,4.21-6.65,7.85-6.72,7.89Zm-3.18-12c-1.9,0-3.43,2.27-3.43,4.14,0,4,6.09,7.46,6.61,7.74.51-.28,6.6-3.77,6.6-7.74,0-1.87-1.53-4.14-3.43-4.14a3.45,3.45,0,0,0-3.11,2,.08.08,0,0,1-.06,0h0a.08.08,0,0,1-.07,0A3.44,3.44,0,0,0,41.33,9.47Z"/><path class="bb04313a-b138-4064-be90-fb8be9f5764b" d="M50.13,14.58h0a.34.34,0,0,1-.29-.37c.39-2.87-1.63-3.55-1.71-3.58a.33.33,0,1,1,.2-.63s2.64.86,2.17,4.3A.33.33,0,0,1,50.13,14.58Z"/><path class="bb04313a-b138-4064-be90-fb8be9f5764b" d="M49.85,15.78h-.08a.32.32,0,0,1-.24-.4l.1-.45a.33.33,0,1,1,.65.15l-.11.45A.33.33,0,0,1,49.85,15.78Z"/><path class="afa658bf-e55c-40d4-b891-bac141a76dfe" d="M33.73,37.67a3.52,3.52,0,0,0-3.18,2,3.51,3.51,0,0,0-3.17-2c-1.93,0-3.51,2.28-3.51,4.21,0,4.22,6.68,7.83,6.68,7.83s6.68-3.61,6.68-7.83C37.23,40,35.66,37.67,33.73,37.67Z"/><path class="ffb943df-c465-4637-aded-fd5c866ba93a" d="M30.55,49.78h0c-.07,0-6.72-3.68-6.72-7.89,0-1.94,1.6-4.28,3.58-4.28a3.59,3.59,0,0,1,3.17,1.94,3.61,3.61,0,0,1,3.17-1.94c2,0,3.59,2.34,3.59,4.28,0,4.21-6.66,7.85-6.72,7.89Zm-3.17-12C25.48,37.74,24,40,24,41.88c0,4,6.09,7.46,6.6,7.75.52-.29,6.61-3.78,6.61-7.75,0-1.87-1.53-4.14-3.44-4.14a3.43,3.43,0,0,0-3.1,2,.07.07,0,0,1-.07,0h0a.06.06,0,0,1-.06,0A3.45,3.45,0,0,0,27.38,37.74Z"/><path class="bb04313a-b138-4064-be90-fb8be9f5764b" d="M36.18,42.85h0a.34.34,0,0,1-.29-.38c.39-2.86-1.63-3.55-1.71-3.58a.33.33,0,0,1-.22-.41.33.33,0,0,1,.41-.22s2.64.87,2.18,4.3A.33.33,0,0,1,36.18,42.85Z"/><path class="bb04313a-b138-4064-be90-fb8be9f5764b" d="M35.9,44.05h-.08a.33.33,0,0,1-.25-.4l.11-.45a.32.32,0,0,1,.4-.24.33.33,0,0,1,.25.39l-.11.45A.33.33,0,0,1,35.9,44.05Z"/><path class="afa658bf-e55c-40d4-b891-bac141a76dfe" d="M19.77,70.1a3.5,3.5,0,0,0-3.17,2,3.49,3.49,0,0,0-3.17-2c-1.94,0-3.51,2.28-3.51,4.21,0,4.22,6.68,7.83,6.68,7.83s6.68-3.61,6.68-7.83C23.28,72.38,21.71,70.1,19.77,70.1Z"/><path class="ffb943df-c465-4637-aded-fd5c866ba93a" d="M16.6,82.21h0c-.07,0-6.72-3.68-6.72-7.89,0-1.94,1.6-4.28,3.58-4.28A3.57,3.57,0,0,1,16.6,72,3.58,3.58,0,0,1,19.77,70c2,0,3.58,2.34,3.58,4.28,0,4.21-6.65,7.85-6.71,7.89Zm-3.17-12c-1.9,0-3.44,2.27-3.44,4.14,0,4,6.1,7.46,6.61,7.74.52-.28,6.61-3.77,6.61-7.74,0-1.87-1.53-4.14-3.44-4.14a3.43,3.43,0,0,0-3.1,2,.1.1,0,0,1-.07,0h0a.07.07,0,0,1-.06,0A3.46,3.46,0,0,0,13.43,70.17Z"/><path class="bb04313a-b138-4064-be90-fb8be9f5764b" d="M22.23,75.28h-.05a.33.33,0,0,1-.28-.37c.39-2.86-1.63-3.55-1.72-3.58a.32.32,0,0,1-.21-.41.33.33,0,0,1,.41-.22s2.64.87,2.18,4.3A.34.34,0,0,1,22.23,75.28Z"/><path class="bb04313a-b138-4064-be90-fb8be9f5764b" d="M22,76.48h-.08a.33.33,0,0,1-.25-.4l.11-.45a.33.33,0,0,1,.4-.25.32.32,0,0,1,.24.4l-.1.45A.34.34,0,0,1,22,76.48Z"/><path class="afa658bf-e55c-40d4-b891-bac141a76dfe" d="M47.68,70.1a3.48,3.48,0,0,0-3.17,2,3.5,3.5,0,0,0-3.18-2c-1.93,0-3.5,2.28-3.5,4.21,0,4.22,6.68,7.83,6.68,7.83s6.68-3.61,6.68-7.83C51.19,72.38,49.61,70.1,47.68,70.1Z"/><path class="ffb943df-c465-4637-aded-fd5c866ba93a" d="M44.51,82.21h0c-.07,0-6.72-3.68-6.72-7.89,0-1.94,1.6-4.28,3.58-4.28A3.6,3.6,0,0,1,44.51,72,3.57,3.57,0,0,1,47.68,70c2,0,3.58,2.34,3.58,4.28,0,4.21-6.65,7.85-6.72,7.89Zm-3.18-12c-1.9,0-3.43,2.27-3.43,4.14,0,4,6.09,7.46,6.61,7.74.51-.28,6.6-3.77,6.6-7.74,0-1.87-1.53-4.14-3.43-4.14a3.45,3.45,0,0,0-3.11,2,.08.08,0,0,1-.06,0h0a.08.08,0,0,1-.07,0A3.44,3.44,0,0,0,41.33,70.17Z"/><path class="bb04313a-b138-4064-be90-fb8be9f5764b" d="M50.13,75.28h0a.34.34,0,0,1-.29-.37c.39-2.86-1.63-3.55-1.71-3.58a.33.33,0,0,1-.22-.41.34.34,0,0,1,.42-.22s2.64.87,2.17,4.3A.33.33,0,0,1,50.13,75.28Z"/><path class="bb04313a-b138-4064-be90-fb8be9f5764b" d="M49.85,76.48h-.08a.32.32,0,0,1-.24-.4l.1-.45a.33.33,0,1,1,.65.15l-.11.45A.33.33,0,0,1,49.85,76.48Z"/></g></g></svg>