<svg xmlns="http://www.w3.org/2000/svg" viewBox="0 0 61.11 91.54"><defs><style>.bdff5d9a-0de6-42f9-83ab-33f2d76c632c{fill:none;}.b8c9e217-27f6-486c-9858-85952786a256{fill:#adadad;}.f38bf556-04fd-438e-991f-856d9b9c1509{fill:#f6413a;}.bffb4fe6-90bb-4f5b-af7c-dd641ce7f2a0{fill:#c51611;}.ad9f904e-2fbd-4a64-ab64-9cdf1a210119{fill:#ffb3b3;}</style></defs><title>C_1</title><g id="f9895780-f0e3-44ac-b143-500aac69f7ea" data-name="Capa 2"><g id="ace20ad9-d65b-4576-bb0c-47565a267377" data-name="Objects"><rect class="bdff5d9a-0de6-42f9-83ab-33f2d76c632c" x="0.13" y="0.12" width="60.86" height="91.29" rx="2.4"/><path class="b8c9e217-27f6-486c-9858-85952786a256" d="M58.59,91.54H2.52A2.53,2.53,0,0,1,0,89V2.52A2.52,2.52,0,0,1,2.52,0H58.59a2.52,2.52,0,0,1,2.52,2.52V89A2.53,2.53,0,0,1,58.59,91.54ZM2.52.25A2.27,2.27,0,0,0,.25,2.52V89a2.28,2.28,0,0,0,2.27,2.28H58.59A2.28,2.28,0,0,0,60.86,89V2.52A2.27,2.27,0,0,0,58.59.25Z"/><path class="f38bf556-04fd-438e-991f-856d9b9c1509" d="M3.91,2.68,1.61,8.39a.35.35,0,0,1-.11.15.24.24,0,0,1-.15,0,.26.26,0,0,1-.2-.07.32.32,0,0,1-.06-.29l2.49-6.1A.49.49,0,0,1,3.7,2a.31.31,0,0,1,.17,0A.22.22,0,0,1,4,2a.26.26,0,0,1,.11.14L6.63,8.19a.5.5,0,0,1,0,.12.24.24,0,0,1-.09.2.27.27,0,0,1-.2.07.24.24,0,0,1-.16-.05.31.31,0,0,1-.11-.14L3.74,2.64Zm-1.75,4,.23-.55H5.32l.12.55Z"/><path class="f38bf556-04fd-438e-991f-856d9b9c1509" d="M57.2,88.85l2.3-5.71a.27.27,0,0,1,.25-.19A.28.28,0,0,1,60,83a.3.3,0,0,1,.08.18.22.22,0,0,1,0,.11l-2.5,6.11a.31.31,0,0,1-.12.15.38.38,0,0,1-.16,0,.34.34,0,0,1-.17,0,.53.53,0,0,1-.11-.14l-2.48-6.08a.52.52,0,0,1,0-.11.29.29,0,0,1,.08-.21.37.37,0,0,1,.2-.07.31.31,0,0,1,.17,0,.38.38,0,0,1,.11.14l2.35,5.75Zm1.75-4-.24.56H55.78l-.11-.56Z"/><path class="f38bf556-04fd-438e-991f-856d9b9c1509" d="M4.64,8.76a.91.91,0,0,0-.82.52A.88.88,0,0,0,3,8.76a1.07,1.07,0,0,0-.9,1.08c0,1.08,1.71,2,1.71,2s1.72-.92,1.72-2A1.07,1.07,0,0,0,4.64,8.76Z"/><path class="bffb4fe6-90bb-4f5b-af7c-dd641ce7f2a0" d="M3.82,11.86h0s-1.73-.94-1.73-2A1.1,1.1,0,0,1,3,8.74a.91.91,0,0,1,.81.49.94.94,0,0,1,.82-.49,1.1,1.1,0,0,1,.92,1.1c0,1.08-1.71,2-1.73,2ZM3,8.77c-.49,0-.88.58-.88,1.07,0,1,1.56,1.91,1.69,2s1.7-1,1.7-2c0-.49-.39-1.07-.88-1.07a.89.89,0,0,0-.8.51h0A.89.89,0,0,0,3,8.77Z"/><path class="ad9f904e-2fbd-4a64-ab64-9cdf1a210119" d="M5.27,10.08h0A.09.09,0,0,1,5.18,10a.77.77,0,0,0-.44-.92.08.08,0,0,1,0-.11.07.07,0,0,1,.1-.05A.93.93,0,0,1,5.35,10,.08.08,0,0,1,5.27,10.08Z"/><path class="ad9f904e-2fbd-4a64-ab64-9cdf1a210119" d="M5.2,10.39h0a.09.09,0,0,1-.07-.1l0-.12a.09.09,0,0,1,.1-.06.09.09,0,0,1,.07.1l0,.12A.08.08,0,0,1,5.2,10.39Z"/><path class="f38bf556-04fd-438e-991f-856d9b9c1509" d="M56.47,82.52a.88.88,0,0,0,.81-.52.91.91,0,0,0,.82.52,1.08,1.08,0,0,0,.9-1.08c0-1.08-1.72-2-1.72-2s-1.71.92-1.71,2A1.07,1.07,0,0,0,56.47,82.52Z"/><path class="bffb4fe6-90bb-4f5b-af7c-dd641ce7f2a0" d="M57.28,79.42h0s1.73.94,1.73,2a1.1,1.1,0,0,1-.92,1.1.94.94,0,0,1-.82-.49.91.91,0,0,1-.81.49,1.1,1.1,0,0,1-.92-1.1c0-1.08,1.71-2,1.72-2Zm.82,3.09c.49,0,.88-.58.88-1.07,0-1-1.56-1.91-1.7-2s-1.69,1-1.69,2c0,.49.39,1.07.88,1.07a.89.89,0,0,0,.8-.51,0,0,0,0,1,0,0h0s0,0,0,0A.88.88,0,0,0,58.1,82.51Z"/><path class="ad9f904e-2fbd-4a64-ab64-9cdf1a210119" d="M55.84,81.2h0a.07.07,0,0,1,.07.09.78.78,0,0,0,.44.92.09.09,0,0,1,.06.11.09.09,0,0,1-.11.05.94.94,0,0,1-.55-1.1A.08.08,0,0,1,55.84,81.2Z"/><path class="ad9f904e-2fbd-4a64-ab64-9cdf1a210119" d="M55.91,80.89h0A.09.09,0,0,1,56,81l0,.12a.09.09,0,0,1-.1.06.09.09,0,0,1-.07-.1l0-.12A.08.08,0,0,1,55.91,80.89Z"/><path class="f38bf556-04fd-438e-991f-856d9b9c1509" d="M35.91,35.61A5.91,5.91,0,0,0,30.55,39a5.89,5.89,0,0,0-5.35-3.42c-3.27,0-5.93,3.84-5.93,7.11,0,7.12,11.28,13.21,11.28,13.21s11.28-6.09,11.28-13.21C41.83,39.45,39.18,35.61,35.91,35.61Z"/><path class="bffb4fe6-90bb-4f5b-af7c-dd641ce7f2a0" d="M30.55,56.05l-.05,0c-.12-.06-11.35-6.2-11.35-13.31,0-3.28,2.7-7.23,6.05-7.23a6,6,0,0,1,5.35,3.27,6.07,6.07,0,0,1,5.36-3.27c3.35,0,6,3.95,6,7.23C42,49.83,30.72,56,30.61,56ZM25.2,35.73c-3.22,0-5.81,3.82-5.81,7,0,6.7,10.29,12.59,11.16,13.07.87-.48,11.16-6.37,11.16-13.07,0-3.17-2.59-7-5.8-7a5.83,5.83,0,0,0-5.25,3.35.11.11,0,0,1-.11.07h0a.12.12,0,0,1-.11-.07A5.81,5.81,0,0,0,25.2,35.73Z"/><path class="ad9f904e-2fbd-4a64-ab64-9cdf1a210119" d="M40.06,44.35H40a.56.56,0,0,1-.48-.63c.66-4.84-2.75-6-2.9-6a.57.57,0,0,1-.36-.7.56.56,0,0,1,.7-.37s4.46,1.46,3.67,7.26A.57.57,0,0,1,40.06,44.35Z"/><path class="ad9f904e-2fbd-4a64-ab64-9cdf1a210119" d="M39.58,46.37h-.13a.57.57,0,0,1-.42-.68l.18-.75a.57.57,0,0,1,.68-.42.55.55,0,0,1,.41.67l-.18.76A.55.55,0,0,1,39.58,46.37Z"/></g></g></svg>