<svg xmlns="http://www.w3.org/2000/svg" viewBox="0 0 61.11 91.54"><defs><style>.b73c0176-ed6d-4e8e-a3b9-218ebcf693b1{fill:none;}.abb31e6a-2e70-48a0-8420-98fe94f1a8df{fill:#adadad;}.a94ffdde-5440-4e92-ae94-8e385203d421{fill:#f6413a;}.e7e77143-b856-4be9-ab63-ba449402abc1{fill:#c51611;}.f9f22bc5-ffc3-4ea8-aca8-8116dca07301{fill:#ffb3b3;}</style></defs><title>D_4</title><g id="bb26b863-898d-458e-abeb-69876291e80b" data-name="Capa 2"><g id="fba00656-0518-4789-a375-17783c039d06" data-name="Objects"><rect class="b73c0176-ed6d-4e8e-a3b9-218ebcf693b1" x="0.13" y="0.12" width="60.86" height="91.29" rx="2.4"/><path class="abb31e6a-2e70-48a0-8420-98fe94f1a8df" d="M58.59,91.54H2.52A2.53,2.53,0,0,1,0,89V2.52A2.52,2.52,0,0,1,2.52,0H58.59a2.52,2.52,0,0,1,2.52,2.52V89A2.53,2.53,0,0,1,58.59,91.54ZM2.52.25A2.27,2.27,0,0,0,.25,2.52V89a2.28,2.28,0,0,0,2.27,2.28H58.59A2.28,2.28,0,0,0,60.86,89V2.52A2.27,2.27,0,0,0,58.59.25Z"/><path class="a94ffdde-5440-4e92-ae94-8e385203d421" d="M4.46,8.54a.24.24,0,0,1-.2-.08.29.29,0,0,1-.07-.2V2.71l.12.08L1.83,6.08,1.8,6H5.39a.26.26,0,0,1,.19.08.22.22,0,0,1,.08.19.24.24,0,0,1-.08.19.25.25,0,0,1-.19.07h-4a.27.27,0,0,1-.2-.09.27.27,0,0,1-.08-.2A.33.33,0,0,1,1.19,6L4.24,2A.19.19,0,0,1,4.35,2a.3.3,0,0,1,.12,0A.28.28,0,0,1,4.68,2a.3.3,0,0,1,.08.2V8.26a.29.29,0,0,1-.3.28Z"/><path class="a94ffdde-5440-4e92-ae94-8e385203d421" d="M3.73,12.1a.09.09,0,0,0,.07,0,.08.08,0,0,0,.07,0l1.44-1.62a.11.11,0,0,0,0-.13L3.87,8.75a.08.08,0,0,0-.07,0,.09.09,0,0,0-.07,0l-1.44,1.6a.11.11,0,0,0,0,.13Z"/><path class="e7e77143-b856-4be9-ab63-ba449402abc1" d="M3.8,12.15a.09.09,0,0,1-.08,0L2.28,10.49a.11.11,0,0,1,0-.15l1.44-1.6a.11.11,0,0,1,.17,0l1.43,1.6a.11.11,0,0,1,0,.15L3.89,12.11A.1.1,0,0,1,3.8,12.15Zm0-3.41-.06,0L2.31,10.37a.07.07,0,0,0,0,.1l1.43,1.62a.09.09,0,0,0,.12,0L5.3,10.47a.09.09,0,0,0,0-.1L3.86,8.76Z"/><path class="f9f22bc5-ffc3-4ea8-aca8-8116dca07301" d="M4.61,10.11a.07.07,0,0,1-.06,0l-.82-.94A.09.09,0,0,1,3.86,9l.82.94a.1.1,0,0,1,0,.13Z"/><path class="f9f22bc5-ffc3-4ea8-aca8-8116dca07301" d="M4.87,10.41a.07.07,0,0,1-.06,0l-.12-.14a.09.09,0,1,1,.13-.11l.12.14a.08.08,0,0,1,0,.12A.07.07,0,0,1,4.87,10.41Z"/><path class="a94ffdde-5440-4e92-ae94-8e385203d421" d="M56.64,83a.24.24,0,0,1,.2.09.28.28,0,0,1,.08.2v5.55l-.12-.08,2.48-3.29,0,.1H55.72a.29.29,0,0,1-.2-.07.27.27,0,0,1-.08-.19.26.26,0,0,1,.08-.19.3.3,0,0,1,.2-.08h4a.28.28,0,0,1,.2.09.32.32,0,0,1,.08.21.33.33,0,0,1-.06.19l-3.05,4a.27.27,0,0,1-.12.09l-.11,0a.3.3,0,0,1-.21-.08.32.32,0,0,1-.08-.2v-6a.31.31,0,0,1,.29-.29Z"/><path class="a94ffdde-5440-4e92-ae94-8e385203d421" d="M57.38,79.43a.11.11,0,0,0-.07,0,.11.11,0,0,0-.08,0L55.8,81.05a.09.09,0,0,0,0,.13l1.43,1.6a.09.09,0,0,0,.08,0,.09.09,0,0,0,.07,0l1.43-1.6a.09.09,0,0,0,0-.13Z"/><path class="e7e77143-b856-4be9-ab63-ba449402abc1" d="M57.31,79.38a.12.12,0,0,1,.08,0L58.83,81a.11.11,0,0,1,0,.15L57.39,82.8a.12.12,0,0,1-.17,0l-1.44-1.61a.11.11,0,0,1,0-.15l1.44-1.62A.13.13,0,0,1,57.31,79.38Zm0,3.42a.05.05,0,0,0,0,0l1.44-1.6a.07.07,0,0,0,0-.1l-1.44-1.63a.08.08,0,0,0-.11,0l-1.44,1.63a.07.07,0,0,0,0,.1l1.44,1.6A.06.06,0,0,0,57.31,82.8Z"/><path class="f9f22bc5-ffc3-4ea8-aca8-8116dca07301" d="M56.5,81.43a.09.09,0,0,1,.06,0l.82.94a.09.09,0,1,1-.13.11l-.82-.94a.08.08,0,0,1,0-.12S56.48,81.43,56.5,81.43Z"/><path class="f9f22bc5-ffc3-4ea8-aca8-8116dca07301" d="M56.23,81.12a.09.09,0,0,1,.07,0l.12.14a.09.09,0,0,1,0,.12.09.09,0,0,1-.13,0l-.11-.13a.09.09,0,0,1,0-.13Z"/><path class="a94ffdde-5440-4e92-ae94-8e385203d421" d="M16.29,23a.41.41,0,0,0,.62,0l6.2-7a.43.43,0,0,0,0-.56l-6.2-6.91a.41.41,0,0,0-.62,0l-6.2,6.91a.43.43,0,0,0,0,.56Z"/><path class="e7e77143-b856-4be9-ab63-ba449402abc1" d="M16.6,23.19a.51.51,0,0,1-.37-.16L10,16a.49.49,0,0,1,0-.66l6.2-6.92a.51.51,0,0,1,.74,0l6.2,6.92a.49.49,0,0,1,0,.66L17,23A.51.51,0,0,1,16.6,23.19Zm0-14.74a.36.36,0,0,0-.25.11l-6.2,6.92a.33.33,0,0,0,0,.44l6.2,7a.35.35,0,0,0,.5,0l6.2-7a.31.31,0,0,0,0-.44l-6.2-6.92A.33.33,0,0,0,16.6,8.45Z"/><path class="f9f22bc5-ffc3-4ea8-aca8-8116dca07301" d="M20.1,14.37a.41.41,0,0,1-.29-.13l-3.53-4.06a.38.38,0,0,1,0-.53.37.37,0,0,1,.53,0l3.53,4.06a.36.36,0,0,1,0,.52A.34.34,0,0,1,20.1,14.37Z"/><path class="f9f22bc5-ffc3-4ea8-aca8-8116dca07301" d="M21.23,15.68a.39.39,0,0,1-.29-.13l-.51-.6a.38.38,0,0,1,.05-.53.39.39,0,0,1,.53,0l.5.6a.37.37,0,0,1,0,.53A.38.38,0,0,1,21.23,15.68Z"/><path class="a94ffdde-5440-4e92-ae94-8e385203d421" d="M44.2,23a.4.4,0,0,0,.31.14.43.43,0,0,0,.31-.14L51,16a.43.43,0,0,0,0-.56l-6.2-6.91a.43.43,0,0,0-.31-.14.41.41,0,0,0-.31.14L38,15.42A.41.41,0,0,0,38,16Z"/><path class="e7e77143-b856-4be9-ab63-ba449402abc1" d="M44.51,23.19a.53.53,0,0,1-.38-.16l-6.2-7a.5.5,0,0,1,0-.66l6.2-6.92a.51.51,0,0,1,.74,0l6.2,6.92a.49.49,0,0,1,0,.66l-6.2,7A.52.52,0,0,1,44.51,23.19Zm-.25-.27a.35.35,0,0,0,.5,0l6.2-7a.33.33,0,0,0,0-.44l-6.2-6.92a.35.35,0,0,0-.5,0l-6.2,6.92a.32.32,0,0,0,0,.44Z"/><path class="f9f22bc5-ffc3-4ea8-aca8-8116dca07301" d="M48,14.37a.39.39,0,0,1-.28-.13l-3.53-4.06a.38.38,0,0,1,0-.53.37.37,0,0,1,.53,0l3.53,4.06a.37.37,0,0,1,0,.52A.35.35,0,0,1,48,14.37Z"/><path class="f9f22bc5-ffc3-4ea8-aca8-8116dca07301" d="M49.13,15.68a.41.41,0,0,1-.29-.13l-.5-.6a.37.37,0,0,1,0-.53.39.39,0,0,1,.53,0l.51.6a.38.38,0,0,1-.05.53A.36.36,0,0,1,49.13,15.68Z"/><path class="a94ffdde-5440-4e92-ae94-8e385203d421" d="M16.29,83a.41.41,0,0,0,.62,0l6.2-7a.41.41,0,0,0,0-.55l-6.2-6.92a.41.41,0,0,0-.62,0l-6.2,6.92a.41.41,0,0,0,0,.55Z"/><path class="e7e77143-b856-4be9-ab63-ba449402abc1" d="M16.6,68.34a.48.48,0,0,1,.37.17l6.2,6.91a.49.49,0,0,1,0,.66l-6.2,7a.51.51,0,0,1-.74,0l-6.2-7a.49.49,0,0,1,0-.66l6.2-6.91A.48.48,0,0,1,16.6,68.34Zm0,14.75a.33.33,0,0,0,.25-.12l6.2-7a.34.34,0,0,0,0-.45l-6.2-6.91a.34.34,0,0,0-.5,0l-6.2,6.91a.35.35,0,0,0,0,.45l6.2,7A.35.35,0,0,0,16.6,83.09Z"/><path class="f9f22bc5-ffc3-4ea8-aca8-8116dca07301" d="M16.56,69.61a.41.41,0,0,1,.29.13l3.53,4.06a.38.38,0,0,1-.57.49l-3.53-4.06a.37.37,0,0,1,.28-.62Z"/><path class="f9f22bc5-ffc3-4ea8-aca8-8116dca07301" d="M20.72,74.39a.37.37,0,0,1,.29.13l.5.6a.39.39,0,0,1,0,.53.38.38,0,0,1-.53-.05l-.51-.6a.38.38,0,0,1,.05-.53A.41.41,0,0,1,20.72,74.39Z"/><path class="a94ffdde-5440-4e92-ae94-8e385203d421" d="M44.19,83a.43.43,0,0,0,.32.14.43.43,0,0,0,.31-.14L51,76a.41.41,0,0,0,0-.55l-6.21-6.92a.39.39,0,0,0-.3-.14.4.4,0,0,0-.31.14L38,75.48A.41.41,0,0,0,38,76Z"/><path class="e7e77143-b856-4be9-ab63-ba449402abc1" d="M44.5,68.34a.47.47,0,0,1,.37.17l6.21,6.91a.5.5,0,0,1,0,.66l-6.2,7a.53.53,0,0,1-.75,0l-6.2-7a.5.5,0,0,1,0-.66l6.21-6.91A.46.46,0,0,1,44.5,68.34Zm0,14.75a.37.37,0,0,0,.26-.12L51,76a.34.34,0,0,0,0-.45l-6.2-6.91a.32.32,0,0,0-.49,0l-6.21,6.91a.35.35,0,0,0,0,.45l6.2,7A.37.37,0,0,0,44.5,83.09Z"/><path class="f9f22bc5-ffc3-4ea8-aca8-8116dca07301" d="M44.47,69.61a.39.39,0,0,1,.28.13l3.53,4.06a.37.37,0,1,1-.56.49l-3.53-4.06a.38.38,0,0,1,0-.53A.38.38,0,0,1,44.47,69.61Z"/><path class="f9f22bc5-ffc3-4ea8-aca8-8116dca07301" d="M48.62,74.39a.36.36,0,0,1,.29.13l.5.6a.37.37,0,0,1,0,.53.38.38,0,0,1-.53-.05l-.5-.6a.37.37,0,0,1,0-.53A.43.43,0,0,1,48.62,74.39Z"/></g></g></svg>