<svg xmlns="http://www.w3.org/2000/svg" viewBox="0 0 61.11 91.54"><defs><style>.afd20b43-15e3-4848-8908-9389dac072e2{fill:none;}.b27d7d7d-51b3-49e9-b9d8-7d5eea0685c3{fill:#adadad;}.ef9167d4-1a03-4db8-b76e-d59ce63e8caf{fill:#f6413a;}.a2408446-72be-47d6-85af-c353adc829a7{fill:#c51611;}.ecfb37fd-8b79-4856-a6f4-f1e07ef4af3a{fill:#ffb3b3;}</style></defs><title>D_7</title><g id="a092f85b-1552-4d6f-832c-a79dffe37eb7" data-name="Capa 2"><g id="bec10a3b-8167-4e22-8509-a7223e9b9f04" data-name="Objects"><rect class="afd20b43-15e3-4848-8908-9389dac072e2" x="0.13" y="0.12" width="60.86" height="91.29" rx="2.4"/><path class="b27d7d7d-51b3-49e9-b9d8-7d5eea0685c3" d="M58.59,91.54H2.52A2.53,2.53,0,0,1,0,89V2.52A2.52,2.52,0,0,1,2.52,0H58.59a2.52,2.52,0,0,1,2.52,2.52V89A2.53,2.53,0,0,1,58.59,91.54ZM2.52.25A2.27,2.27,0,0,0,.25,2.52V89a2.28,2.28,0,0,0,2.27,2.28H58.59A2.28,2.28,0,0,0,60.86,89V2.52A2.27,2.27,0,0,0,58.59.25Z"/><path class="ef9167d4-1a03-4db8-b76e-d59ce63e8caf" d="M3.14,8.57a.31.31,0,0,1-.21-.07.25.25,0,0,1-.09-.19.35.35,0,0,1,0-.14L5.38,2.34l.11.12H2.29a.27.27,0,0,1-.2-.07A.28.28,0,0,1,2,2.19.26.26,0,0,1,2.09,2a.27.27,0,0,1,.2-.07H5.76A.28.28,0,0,1,6,2,.29.29,0,0,1,6,2.19a.28.28,0,0,1,0,.13L3.41,8.38a.31.31,0,0,1-.11.14A.33.33,0,0,1,3.14,8.57Z"/><path class="ef9167d4-1a03-4db8-b76e-d59ce63e8caf" d="M3.73,12.1a.09.09,0,0,0,.07,0,.08.08,0,0,0,.07,0l1.44-1.62a.11.11,0,0,0,0-.13L3.87,8.75a.08.08,0,0,0-.07,0,.09.09,0,0,0-.07,0l-1.44,1.6a.11.11,0,0,0,0,.13Z"/><path class="a2408446-72be-47d6-85af-c353adc829a7" d="M3.8,12.15a.09.09,0,0,1-.08,0L2.28,10.49a.11.11,0,0,1,0-.15l1.44-1.6a.11.11,0,0,1,.17,0l1.43,1.6a.11.11,0,0,1,0,.15L3.89,12.11A.1.1,0,0,1,3.8,12.15Zm0-3.41-.06,0L2.31,10.37a.07.07,0,0,0,0,.1l1.43,1.62a.09.09,0,0,0,.12,0L5.3,10.47a.09.09,0,0,0,0-.1L3.86,8.76Z"/><path class="ecfb37fd-8b79-4856-a6f4-f1e07ef4af3a" d="M4.61,10.11a.07.07,0,0,1-.06,0l-.82-.94A.09.09,0,0,1,3.86,9l.82.94a.1.1,0,0,1,0,.13Z"/><path class="ecfb37fd-8b79-4856-a6f4-f1e07ef4af3a" d="M4.87,10.41a.07.07,0,0,1-.06,0l-.12-.14a.09.09,0,1,1,.13-.11l.12.14a.08.08,0,0,1,0,.12A.07.07,0,0,1,4.87,10.41Z"/><path class="ef9167d4-1a03-4db8-b76e-d59ce63e8caf" d="M58.11,83a.32.32,0,0,1,.2.08.23.23,0,0,1,.09.19.39.39,0,0,1,0,.14l-2.5,5.82-.12-.12H59a.26.26,0,0,1,.19.08.23.23,0,0,1,.08.2.22.22,0,0,1-.08.18.22.22,0,0,1-.19.08H55.48a.22.22,0,0,1-.2-.08.24.24,0,0,1-.07-.18.59.59,0,0,1,0-.14l2.61-6.06A.28.28,0,0,1,58,83,.25.25,0,0,1,58.11,83Z"/><path class="ef9167d4-1a03-4db8-b76e-d59ce63e8caf" d="M57.38,79.43a.11.11,0,0,0-.07,0,.11.11,0,0,0-.08,0L55.8,81.05a.09.09,0,0,0,0,.13l1.43,1.6a.09.09,0,0,0,.08,0,.09.09,0,0,0,.07,0l1.43-1.6a.09.09,0,0,0,0-.13Z"/><path class="a2408446-72be-47d6-85af-c353adc829a7" d="M57.31,79.38a.12.12,0,0,1,.08,0L58.83,81a.11.11,0,0,1,0,.15L57.39,82.8a.12.12,0,0,1-.17,0l-1.44-1.61a.11.11,0,0,1,0-.15l1.44-1.62A.13.13,0,0,1,57.31,79.38Zm0,3.42a.05.05,0,0,0,0,0l1.44-1.6a.07.07,0,0,0,0-.1l-1.44-1.63a.08.08,0,0,0-.11,0l-1.44,1.63a.07.07,0,0,0,0,.1l1.44,1.6A.06.06,0,0,0,57.31,82.8Z"/><path class="ecfb37fd-8b79-4856-a6f4-f1e07ef4af3a" d="M56.5,81.43a.09.09,0,0,1,.06,0l.82.94a.09.09,0,1,1-.13.11l-.82-.94a.08.08,0,0,1,0-.12S56.48,81.43,56.5,81.43Z"/><path class="ecfb37fd-8b79-4856-a6f4-f1e07ef4af3a" d="M56.23,81.12a.09.09,0,0,1,.07,0l.12.14a.09.09,0,0,1,0,.12.09.09,0,0,1-.13,0l-.11-.13a.09.09,0,0,1,0-.13Z"/><path class="ef9167d4-1a03-4db8-b76e-d59ce63e8caf" d="M16.29,23a.41.41,0,0,0,.62,0l6.2-7a.43.43,0,0,0,0-.56l-6.2-6.91a.41.41,0,0,0-.62,0l-6.2,6.91a.43.43,0,0,0,0,.56Z"/><path class="a2408446-72be-47d6-85af-c353adc829a7" d="M16.6,23.19a.52.52,0,0,1-.37-.16L10,16a.49.49,0,0,1,0-.66l6.2-6.92a.51.51,0,0,1,.74,0l6.2,6.92a.49.49,0,0,1,0,.66L17,23A.51.51,0,0,1,16.6,23.19Zm0-14.74a.36.36,0,0,0-.25.11l-6.2,6.92a.33.33,0,0,0,0,.44l6.2,7a.35.35,0,0,0,.5,0l6.2-7a.31.31,0,0,0,0-.44l-6.2-6.92A.33.33,0,0,0,16.6,8.45Z"/><path class="ecfb37fd-8b79-4856-a6f4-f1e07ef4af3a" d="M20.1,14.37a.41.41,0,0,1-.29-.13l-3.53-4.06a.38.38,0,0,1,0-.53.37.37,0,0,1,.53,0l3.53,4.06a.36.36,0,0,1,0,.52A.34.34,0,0,1,20.1,14.37Z"/><path class="ecfb37fd-8b79-4856-a6f4-f1e07ef4af3a" d="M21.23,15.68a.39.39,0,0,1-.29-.13l-.51-.6a.38.38,0,0,1,.05-.53.39.39,0,0,1,.53,0l.5.6a.37.37,0,0,1,0,.53A.38.38,0,0,1,21.23,15.68Z"/><path class="ef9167d4-1a03-4db8-b76e-d59ce63e8caf" d="M16.29,52.89a.41.41,0,0,0,.62,0l6.2-7a.43.43,0,0,0,0-.56l-6.2-6.91a.41.41,0,0,0-.62,0l-6.2,6.91a.43.43,0,0,0,0,.56Z"/><path class="a2408446-72be-47d6-85af-c353adc829a7" d="M16.6,53.11a.51.51,0,0,1-.37-.16L10,46a.49.49,0,0,1,0-.66l6.2-6.92a.52.52,0,0,1,.74,0l6.2,6.92a.49.49,0,0,1,0,.66L17,53A.51.51,0,0,1,16.6,53.11Zm0-14.74a.36.36,0,0,0-.25.11l-6.2,6.92a.33.33,0,0,0,0,.44l6.2,7a.35.35,0,0,0,.5,0l6.2-7a.31.31,0,0,0,0-.44l-6.2-6.92A.33.33,0,0,0,16.6,38.37Z"/><path class="ecfb37fd-8b79-4856-a6f4-f1e07ef4af3a" d="M20.1,44.29a.41.41,0,0,1-.29-.13L16.28,40.1a.38.38,0,1,1,.57-.49l3.53,4.06a.37.37,0,0,1-.28.62Z"/><path class="ecfb37fd-8b79-4856-a6f4-f1e07ef4af3a" d="M21.22,45.6a.35.35,0,0,1-.28-.13l-.51-.6a.38.38,0,0,1,.58-.48l.5.59a.38.38,0,0,1,0,.53A.38.38,0,0,1,21.22,45.6Z"/><path class="ef9167d4-1a03-4db8-b76e-d59ce63e8caf" d="M30.24,37a.42.42,0,0,0,.63,0l6.2-7a.4.4,0,0,0,0-.55l-6.2-6.92a.4.4,0,0,0-.31-.14.39.39,0,0,0-.3.14L24,29.48A.41.41,0,0,0,24,30Z"/><path class="a2408446-72be-47d6-85af-c353adc829a7" d="M30.55,37.25a.5.5,0,0,1-.37-.17l-6.2-7a.49.49,0,0,1,0-.66l6.2-6.91a.51.51,0,0,1,.74,0l6.21,6.91a.51.51,0,0,1,0,.66l-6.2,7A.5.5,0,0,1,30.55,37.25Zm0-14.75a.32.32,0,0,0-.24.11L24.1,29.53a.35.35,0,0,0,0,.45l6.2,7a.36.36,0,0,0,.51,0L37,30a.34.34,0,0,0,0-.45l-6.2-6.92A.33.33,0,0,0,30.55,22.5Z"/><path class="ecfb37fd-8b79-4856-a6f4-f1e07ef4af3a" d="M34.05,28.42a.34.34,0,0,1-.28-.13l-3.53-4.06a.37.37,0,1,1,.56-.49l3.53,4.06a.37.37,0,0,1,0,.53A.36.36,0,0,1,34.05,28.42Z"/><path class="ecfb37fd-8b79-4856-a6f4-f1e07ef4af3a" d="M35.18,29.73a.36.36,0,0,1-.29-.13l-.5-.6a.37.37,0,0,1,0-.53.38.38,0,0,1,.53.05l.5.6a.36.36,0,0,1,0,.52A.38.38,0,0,1,35.18,29.73Z"/><path class="ef9167d4-1a03-4db8-b76e-d59ce63e8caf" d="M44.19,52.89a.43.43,0,0,0,.32.14.43.43,0,0,0,.31-.14l6.2-7a.43.43,0,0,0,0-.56l-6.2-6.91a.43.43,0,0,0-.31-.14.4.4,0,0,0-.31.14L38,45.34a.43.43,0,0,0,0,.56Z"/><path class="a2408446-72be-47d6-85af-c353adc829a7" d="M44.51,53.11a.53.53,0,0,1-.38-.16l-6.2-7a.5.5,0,0,1,0-.66l6.21-6.92a.52.52,0,0,1,.74,0l6.2,6.92a.5.5,0,0,1,0,.66l-6.2,7A.52.52,0,0,1,44.51,53.11Zm0-14.74a.33.33,0,0,0-.25.11l-6.2,6.92a.32.32,0,0,0,0,.44l6.21,7a.35.35,0,0,0,.5,0l6.2-7a.33.33,0,0,0,0-.44l-6.21-6.92A.32.32,0,0,0,44.51,38.37Z"/><path class="ecfb37fd-8b79-4856-a6f4-f1e07ef4af3a" d="M48,44.29a.39.39,0,0,1-.28-.13L44.19,40.1a.37.37,0,1,1,.56-.49l3.53,4.06a.38.38,0,0,1,0,.53A.4.4,0,0,1,48,44.29Z"/><path class="ecfb37fd-8b79-4856-a6f4-f1e07ef4af3a" d="M49.13,45.6a.37.37,0,0,1-.29-.13l-.5-.6a.37.37,0,0,1,0-.53.38.38,0,0,1,.53,0l.51.59a.38.38,0,0,1-.29.62Z"/><path class="ef9167d4-1a03-4db8-b76e-d59ce63e8caf" d="M44.2,23a.4.4,0,0,0,.31.14.41.41,0,0,0,.31-.14L51,16a.43.43,0,0,0,0-.56l-6.2-6.91a.43.43,0,0,0-.31-.14.41.41,0,0,0-.31.14L38,15.42A.41.41,0,0,0,38,16Z"/><path class="a2408446-72be-47d6-85af-c353adc829a7" d="M44.51,23.19a.55.55,0,0,1-.38-.16l-6.2-7a.5.5,0,0,1,0-.66l6.2-6.92a.51.51,0,0,1,.74,0l6.2,6.92a.49.49,0,0,1,0,.66l-6.2,7A.52.52,0,0,1,44.51,23.19Zm-.25-.27a.35.35,0,0,0,.5,0l6.2-7a.33.33,0,0,0,0-.44l-6.2-6.92a.35.35,0,0,0-.5,0l-6.2,6.92a.32.32,0,0,0,0,.44Z"/><path class="ecfb37fd-8b79-4856-a6f4-f1e07ef4af3a" d="M48,14.37a.39.39,0,0,1-.28-.13l-3.53-4.06a.38.38,0,0,1,0-.53.37.37,0,0,1,.53,0l3.53,4.06a.37.37,0,0,1,0,.52A.35.35,0,0,1,48,14.37Z"/><path class="ecfb37fd-8b79-4856-a6f4-f1e07ef4af3a" d="M49.13,15.68a.41.41,0,0,1-.29-.13l-.5-.6a.37.37,0,0,1,0-.53.39.39,0,0,1,.53,0l.51.6a.38.38,0,0,1-.05.53A.36.36,0,0,1,49.13,15.68Z"/><path class="ef9167d4-1a03-4db8-b76e-d59ce63e8caf" d="M16.29,83a.41.41,0,0,0,.62,0l6.2-7a.41.41,0,0,0,0-.55l-6.2-6.92a.41.41,0,0,0-.62,0l-6.2,6.92a.41.41,0,0,0,0,.55Z"/><path class="a2408446-72be-47d6-85af-c353adc829a7" d="M16.6,68.34a.48.48,0,0,1,.37.17l6.2,6.91a.49.49,0,0,1,0,.66l-6.2,7a.51.51,0,0,1-.74,0l-6.2-7a.49.49,0,0,1,0-.66l6.2-6.91A.48.48,0,0,1,16.6,68.34Zm0,14.75a.33.33,0,0,0,.25-.12l6.2-7a.33.33,0,0,0,0-.45l-6.2-6.91a.34.34,0,0,0-.5,0l-6.2,6.91a.35.35,0,0,0,0,.45l6.2,7A.35.35,0,0,0,16.6,83.09Z"/><path class="ecfb37fd-8b79-4856-a6f4-f1e07ef4af3a" d="M16.56,69.61a.41.41,0,0,1,.29.13l3.53,4.06a.38.38,0,0,1-.57.49l-3.53-4.06a.37.37,0,0,1,.28-.62Z"/><path class="ecfb37fd-8b79-4856-a6f4-f1e07ef4af3a" d="M20.72,74.39a.37.37,0,0,1,.29.13l.5.6a.37.37,0,1,1-.57.48l-.51-.6a.38.38,0,0,1,.05-.53A.41.41,0,0,1,20.72,74.39Z"/><path class="ef9167d4-1a03-4db8-b76e-d59ce63e8caf" d="M44.19,83a.43.43,0,0,0,.32.14.43.43,0,0,0,.31-.14L51,76a.41.41,0,0,0,0-.55l-6.21-6.92a.39.39,0,0,0-.3-.14.4.4,0,0,0-.31.14L38,75.48A.41.41,0,0,0,38,76Z"/><path class="a2408446-72be-47d6-85af-c353adc829a7" d="M44.51,68.34a.5.5,0,0,1,.37.17l6.2,6.91a.49.49,0,0,1,0,.66l-6.2,7a.53.53,0,0,1-.75,0l-6.2-7a.5.5,0,0,1,0-.66l6.21-6.91A.47.47,0,0,1,44.51,68.34Zm0,14.75a.37.37,0,0,0,.25-.12L51,76a.35.35,0,0,0,0-.45l-6.21-6.91a.32.32,0,0,0-.49,0l-6.21,6.91a.35.35,0,0,0,0,.45l6.21,7A.33.33,0,0,0,44.51,83.09Z"/><path class="ecfb37fd-8b79-4856-a6f4-f1e07ef4af3a" d="M44.47,69.61a.39.39,0,0,1,.28.13l3.53,4.06a.37.37,0,1,1-.56.49l-3.53-4.06a.38.38,0,0,1,0-.53A.38.38,0,0,1,44.47,69.61Z"/><path class="ecfb37fd-8b79-4856-a6f4-f1e07ef4af3a" d="M48.62,74.39a.36.36,0,0,1,.29.13l.51.6a.38.38,0,0,1-.58.48l-.5-.6a.37.37,0,0,1,0-.53A.43.43,0,0,1,48.62,74.39Z"/></g></g></svg>