<svg xmlns="http://www.w3.org/2000/svg" viewBox="0 0 61.11 91.54"><defs><style>.ef519e55-2d91-4506-b966-c0d69d5453b8{fill:none;}.aed6a39c-02ad-46a3-8ef5-7d775428bcb0{fill:#adadad;}.b9168da2-040b-45d2-b5fa-e7007cb59824{fill:#f6413a;}.e7dc4514-5b7a-49ca-9e6c-788834aa13be{fill:#c51611;}.bff863bc-2bfc-4035-9fa5-3a037e0dbc5e{fill:#ffb3b3;}</style></defs><title>D_3</title><g id="eed9b10c-0eec-4945-81a3-94b8b661a771" data-name="Capa 2"><g id="ba711764-e481-47ad-985a-c3c0ea1a45d6" data-name="Objects"><rect class="ef519e55-2d91-4506-b966-c0d69d5453b8" x="0.13" y="0.12" width="60.86" height="91.29" rx="2.4"/><path class="aed6a39c-02ad-46a3-8ef5-7d775428bcb0" d="M58.59,91.54H2.52A2.53,2.53,0,0,1,0,89V2.52A2.52,2.52,0,0,1,2.52,0H58.59a2.52,2.52,0,0,1,2.52,2.52V89A2.53,2.53,0,0,1,58.59,91.54ZM2.52.25A2.27,2.27,0,0,0,.25,2.52V89a2.28,2.28,0,0,0,2.27,2.28H58.59A2.28,2.28,0,0,0,60.86,89V2.52A2.27,2.27,0,0,0,58.59.25Z"/><path class="b9168da2-040b-45d2-b5fa-e7007cb59824" d="M2,7.57l.1,0a.38.38,0,0,1,.13.08A1.19,1.19,0,0,0,2.7,8a1.73,1.73,0,0,0,.63.11,1.69,1.69,0,0,0,.84-.21A1.6,1.6,0,0,0,5,6.45a1.48,1.48,0,0,0-.24-.88,1.55,1.55,0,0,0-.61-.5,1.92,1.92,0,0,0-.78-.17l-.19,0L3,5,2.86,5a.25.25,0,0,1-.18-.08.27.27,0,0,1-.07-.2.37.37,0,0,1,0-.12l.07-.1L4.64,2.31l.11.15H1.88a.24.24,0,0,1-.19-.08.22.22,0,0,1-.08-.19A.22.22,0,0,1,1.69,2a.27.27,0,0,1,.19-.08H5.06a.27.27,0,0,1,.23.1.39.39,0,0,1,.06.2.43.43,0,0,1,0,.11l-.07.1L3.34,4.57l-.21-.12a.44.44,0,0,1,.19-.06,1.66,1.66,0,0,1,.26,0,2.13,2.13,0,0,1,1,.25,1.81,1.81,0,0,1,.74.71,2.07,2.07,0,0,1,.29,1.12,2.18,2.18,0,0,1-.31,1.16,2.15,2.15,0,0,1-.84.77,2.41,2.41,0,0,1-1.17.28,2.54,2.54,0,0,1-.77-.13,1.86,1.86,0,0,1-.66-.4A.47.47,0,0,1,1.74,8a.27.27,0,0,1,0-.12.34.34,0,0,1,.08-.21A.24.24,0,0,1,2,7.57Z"/><path class="b9168da2-040b-45d2-b5fa-e7007cb59824" d="M3.73,12.1a.09.09,0,0,0,.07,0,.08.08,0,0,0,.07,0l1.44-1.62a.11.11,0,0,0,0-.13L3.87,8.75a.08.08,0,0,0-.07,0,.09.09,0,0,0-.07,0l-1.44,1.6a.11.11,0,0,0,0,.13Z"/><path class="e7dc4514-5b7a-49ca-9e6c-788834aa13be" d="M3.8,12.15a.09.09,0,0,1-.08,0L2.28,10.49a.11.11,0,0,1,0-.15l1.44-1.6a.11.11,0,0,1,.17,0l1.43,1.6a.11.11,0,0,1,0,.15L3.89,12.11A.1.1,0,0,1,3.8,12.15Zm0-3.41-.06,0L2.31,10.37a.07.07,0,0,0,0,.1l1.43,1.62a.09.09,0,0,0,.12,0L5.3,10.47a.09.09,0,0,0,0-.1L3.86,8.76Z"/><path class="bff863bc-2bfc-4035-9fa5-3a037e0dbc5e" d="M4.61,10.11a.07.07,0,0,1-.06,0l-.82-.94A.09.09,0,0,1,3.86,9l.82.94a.1.1,0,0,1,0,.13Z"/><path class="bff863bc-2bfc-4035-9fa5-3a037e0dbc5e" d="M4.87,10.41a.07.07,0,0,1-.06,0l-.12-.14a.09.09,0,1,1,.13-.11l.12.14a.08.08,0,0,1,0,.12A.07.07,0,0,1,4.87,10.41Z"/><path class="b9168da2-040b-45d2-b5fa-e7007cb59824" d="M59.11,84,59,84a.61.61,0,0,1-.12-.09,1.4,1.4,0,0,0-.47-.32,1.93,1.93,0,0,0-1.47.1,1.57,1.57,0,0,0-.61.59,1.73,1.73,0,0,0,0,1.74,1.49,1.49,0,0,0,.61.5,1.9,1.9,0,0,0,.77.16h.2l.18,0h.14a.22.22,0,0,1,.19.08.32.32,0,0,1,.07.2.2.2,0,0,1,0,.11.49.49,0,0,1-.07.11l-1.94,2.15-.1-.15h2.87a.27.27,0,0,1,.19.08.3.3,0,0,1,.08.2.25.25,0,0,1-.08.18.27.27,0,0,1-.19.08H56.05c-.12,0-.19,0-.23-.1a.4.4,0,0,1-.07-.19.2.2,0,0,1,0-.11.23.23,0,0,1,.07-.1L57.77,87l.21.13-.19.06-.27,0a2,2,0,0,1-1-.25,1.87,1.87,0,0,1-.75-.7,2.37,2.37,0,0,1,0-2.29,2.15,2.15,0,0,1,.84-.77,2.52,2.52,0,0,1,1.17-.27,2.27,2.27,0,0,1,.77.13,1.91,1.91,0,0,1,.65.4.29.29,0,0,1,.11.11.26.26,0,0,1,0,.11.33.33,0,0,1-.09.22A.26.26,0,0,1,59.11,84Z"/><path class="b9168da2-040b-45d2-b5fa-e7007cb59824" d="M57.38,79.43a.11.11,0,0,0-.07,0,.11.11,0,0,0-.08,0L55.8,81.05a.09.09,0,0,0,0,.13l1.43,1.6a.09.09,0,0,0,.08,0,.09.09,0,0,0,.07,0l1.43-1.6a.09.09,0,0,0,0-.13Z"/><path class="e7dc4514-5b7a-49ca-9e6c-788834aa13be" d="M57.31,79.38a.12.12,0,0,1,.08,0L58.83,81a.11.11,0,0,1,0,.15L57.39,82.8a.12.12,0,0,1-.17,0l-1.44-1.61a.11.11,0,0,1,0-.15l1.44-1.62A.13.13,0,0,1,57.31,79.38Zm0,3.42a.05.05,0,0,0,0,0l1.44-1.6a.07.07,0,0,0,0-.1l-1.44-1.63a.08.08,0,0,0-.11,0l-1.44,1.63a.07.07,0,0,0,0,.1l1.44,1.6A.06.06,0,0,0,57.31,82.8Z"/><path class="bff863bc-2bfc-4035-9fa5-3a037e0dbc5e" d="M56.5,81.43a.09.09,0,0,1,.06,0l.82.94a.09.09,0,1,1-.13.11l-.82-.94a.08.08,0,0,1,0-.12S56.48,81.43,56.5,81.43Z"/><path class="bff863bc-2bfc-4035-9fa5-3a037e0dbc5e" d="M56.23,81.12a.09.09,0,0,1,.07,0l.12.14a.09.09,0,0,1,0,.12.09.09,0,0,1-.13,0l-.11-.13a.09.09,0,0,1,0-.13Z"/><path class="b9168da2-040b-45d2-b5fa-e7007cb59824" d="M30.24,53a.42.42,0,0,0,.63,0l6.2-7a.4.4,0,0,0,0-.55l-6.2-6.92a.41.41,0,0,0-.31-.14.43.43,0,0,0-.31.14L24,45.45A.41.41,0,0,0,24,46Z"/><path class="e7dc4514-5b7a-49ca-9e6c-788834aa13be" d="M30.55,53.22a.5.5,0,0,1-.37-.17l-6.2-7a.49.49,0,0,1,0-.66l6.2-6.91a.51.51,0,0,1,.74,0l6.21,6.91a.51.51,0,0,1,0,.66l-6.2,7A.5.5,0,0,1,30.55,53.22Zm0-14.75a.36.36,0,0,0-.25.11L24.1,45.5a.35.35,0,0,0,0,.45l6.2,7a.33.33,0,0,0,.5,0L37,46a.34.34,0,0,0,0-.45l-6.2-6.92A.33.33,0,0,0,30.55,38.47Z"/><path class="bff863bc-2bfc-4035-9fa5-3a037e0dbc5e" d="M34.05,44.39a.37.37,0,0,1-.29-.13L30.23,40.2a.39.39,0,0,1,0-.53.38.38,0,0,1,.53,0l3.53,4.06a.37.37,0,0,1,0,.53A.36.36,0,0,1,34.05,44.39Z"/><path class="bff863bc-2bfc-4035-9fa5-3a037e0dbc5e" d="M35.18,45.7a.37.37,0,0,1-.29-.13l-.5-.6a.37.37,0,0,1,0-.53.38.38,0,0,1,.53.05l.5.6a.36.36,0,0,1,0,.52A.38.38,0,0,1,35.18,45.7Z"/><path class="b9168da2-040b-45d2-b5fa-e7007cb59824" d="M30.24,22.27a.43.43,0,0,0,.31.14.4.4,0,0,0,.31-.14l6.21-7a.4.4,0,0,0,0-.55L30.86,7.8a.44.44,0,0,0-.31-.13.46.46,0,0,0-.31.13L24,14.72a.41.41,0,0,0,0,.55Z"/><path class="e7dc4514-5b7a-49ca-9e6c-788834aa13be" d="M30.55,22.49a.5.5,0,0,1-.37-.17l-6.2-7a.49.49,0,0,1,0-.66l6.2-6.92a.51.51,0,0,1,.74,0l6.2,6.92a.5.5,0,0,1,0,.66l-6.2,7A.5.5,0,0,1,30.55,22.49Zm0-14.74a.32.32,0,0,0-.24.11L24.1,14.77a.35.35,0,0,0,0,.45l6.2,7a.35.35,0,0,0,.5,0l6.21-7a.34.34,0,0,0,0-.45L30.8,7.86A.33.33,0,0,0,30.55,7.75Z"/><path class="bff863bc-2bfc-4035-9fa5-3a037e0dbc5e" d="M34.05,13.66a.36.36,0,0,1-.28-.12L30.23,9.48A.38.38,0,0,1,30.8,9L34.33,13a.37.37,0,0,1,0,.53A.36.36,0,0,1,34.05,13.66Z"/><path class="bff863bc-2bfc-4035-9fa5-3a037e0dbc5e" d="M35.18,15a.37.37,0,0,1-.29-.14l-.5-.59a.38.38,0,0,1,.57-.49l.5.6a.37.37,0,0,1,0,.53A.38.38,0,0,1,35.18,15Z"/><path class="b9168da2-040b-45d2-b5fa-e7007cb59824" d="M30.24,83.73a.43.43,0,0,0,.31.14.43.43,0,0,0,.32-.14l6.2-7a.4.4,0,0,0,0-.55l-6.2-6.92a.42.42,0,0,0-.31-.13.42.42,0,0,0-.3.13L24,76.18a.41.41,0,0,0,0,.55Z"/><path class="e7dc4514-5b7a-49ca-9e6c-788834aa13be" d="M30.55,69a.5.5,0,0,1,.37.17l6.21,6.92a.51.51,0,0,1,0,.66l-6.2,7a.51.51,0,0,1-.75,0l-6.2-7a.49.49,0,0,1,0-.66l6.2-6.92A.53.53,0,0,1,30.55,69Zm0,14.75a.36.36,0,0,0,.26-.11l6.2-7a.34.34,0,0,0,0-.45l-6.2-6.91a.34.34,0,0,0-.49,0L24.1,76.23a.35.35,0,0,0,0,.45l6.2,7A.36.36,0,0,0,30.55,83.79Z"/><path class="bff863bc-2bfc-4035-9fa5-3a037e0dbc5e" d="M30.52,70.31a.39.39,0,0,1,.28.13l3.53,4.06a.38.38,0,0,1-.56.5l-3.54-4.06a.39.39,0,0,1,0-.53A.39.39,0,0,1,30.52,70.31Z"/><path class="bff863bc-2bfc-4035-9fa5-3a037e0dbc5e" d="M34.67,75.09a.37.37,0,0,1,.29.13l.5.6a.37.37,0,0,1,0,.53.38.38,0,0,1-.53,0l-.5-.59a.37.37,0,0,1,0-.53A.38.38,0,0,1,34.67,75.09Z"/></g></g></svg>