<svg xmlns="http://www.w3.org/2000/svg" xmlns:xlink="http://www.w3.org/1999/xlink" viewBox="0 0 61.11 91.54"><defs><style>.b13c8628-989f-448f-ad27-fbbcd5410e59{fill:none;}.ac02835f-a2b6-4811-8d34-00e7a752bf67{fill:#adadad;}.b0240125-66a9-4931-abe5-14875bcd2270{fill:#f6413a;}.b59d41d3-c36d-42ce-bc1e-fa80437b9810{fill:#333;}.ef8081d8-9422-467b-8b07-2af3b87b38dd{fill:#0b050f;}.a58bb87e-216d-4596-b414-086751392a80{fill:#aa292e;}.b1dc5990-3d5f-4e10-a4ae-cb448ab6439f{fill:#f2f2f2;}.b2ac7189-8af2-4d91-95a1-9f46d63e534c{fill:#3856c8;}.b7a408d0-3278-4234-ae0a-cf37e499261e{fill:#bf9b4d;}.b80ab771-7b88-4f76-910a-363784ffed5a{fill:#e8efff;}.a5500df1-bbb9-467b-aa8c-c6a305f1179d{fill:#c9d8f7;}.ab3799e0-bb55-47ba-8bd8-7da15c0f4cf1{fill:#715c57;}.a9f2dc90-b0b3-49f2-ab9d-ea60bdd43f51{fill:#aa7941;}.f12676db-12d5-4135-a99d-5ac37e1ee286{fill:#6580be;}.f0428480-6d42-42ce-a47d-2ec9eeffb95e{fill:#3a60a7;}.e726d1e4-d352-45e2-a7d4-27ce82da9087{fill:#dda034;}.af1fc87a-a19c-415d-946e-27909750aa3a{fill:#ad7c34;}.ac7b0fc8-8004-48e0-b859-05cf92c9c31a{clip-path:url(#afe1cfa3-dd16-4053-b0db-5c49fdc8513f);}.e434608c-808c-4fe3-ad18-db35ec8cf9ba{fill:#f0f0f0;}.f86c7516-711d-4f60-bf73-a3de1838172a{fill:#2e4278;}.a678c8e3-5347-4352-99f9-3ed4c109567c{opacity:0.3;isolation:isolate;}.b85654e5-e0d1-4566-9ddf-98f80578753a{fill:#fff;}.b3e16262-1945-4746-b4e8-d8f815b0d37c{fill:#252525;}.b7364a56-4694-4a84-867d-df1d5bff0c05{clip-path:url(#e65a9a77-2c9d-4157-ac35-69cd6cf84250);}.a439e966-c502-4ec4-9691-92cac06ff314{fill:#201e1c;}.b8de6c4d-980c-445b-992a-aaeff4aa9a02{fill:#eab440;}.a4d021aa-1be8-42d4-845a-b7be713465eb{clip-path:url(#b8df1bf3-7cc9-4d0d-9fe9-d265f3c2bdaf);}.fe58ec04-de5c-4dc1-a8b6-482c97a064f6{clip-path:url(#f85be3fc-11b1-4801-88ff-2741892779d5);}.ad38f4cf-f471-445f-99d0-5ccc9fa98f69{fill:#c51611;}.b7c08ccb-8dec-4051-a072-d085260c30c5{fill:#ffb3b3;}</style><clipPath id="afe1cfa3-dd16-4053-b0db-5c49fdc8513f"><path class="b13c8628-989f-448f-ad27-fbbcd5410e59" d="M28.81,19.56c-.4-.47-.8-.47-2.28-.55s-2.43-.12-3,.9c-.17.34.08,1.63,2.62,1.77,2.83.16,3.12-.36,3.12-.36A3.61,3.61,0,0,0,28.81,19.56Z"/></clipPath><clipPath id="e65a9a77-2c9d-4157-ac35-69cd6cf84250"><path class="b13c8628-989f-448f-ad27-fbbcd5410e59" d="M17.06,18.88c.35-.42.78-1.34,1.94-1.27s1.8,1.07,2.12,2.14a2.13,2.13,0,0,1-2.23,2.32c-2.24-.12-2.41-1.48-2.41-1.48A4.39,4.39,0,0,1,17.06,18.88Z"/></clipPath><clipPath id="b8df1bf3-7cc9-4d0d-9fe9-d265f3c2bdaf"><path class="b13c8628-989f-448f-ad27-fbbcd5410e59" d="M29.44,71.48c.4.47.8.46,2.28.54s2.43.13,3-.89c.18-.35-.07-1.64-2.61-1.78-2.84-.15-3.12.36-3.12.36A3.64,3.64,0,0,0,29.44,71.48Z"/></clipPath><clipPath id="f85be3fc-11b1-4801-88ff-2741892779d5"><path class="b13c8628-989f-448f-ad27-fbbcd5410e59" d="M41.19,72.15c-.35.43-.78,1.34-1.94,1.28s-1.81-1.08-2.12-2.14A2.14,2.14,0,0,1,39.36,69c2.23.12,2.4,1.49,2.4,1.49A4.24,4.24,0,0,1,41.19,72.15Z"/></clipPath></defs><title>D_K</title><g id="e3ab21ae-aa60-4415-aa56-0521984782e3" data-name="Capa 2"><g id="abf92890-b4d7-4162-b8fd-225d6d5166dc" data-name="Objects"><rect class="b13c8628-989f-448f-ad27-fbbcd5410e59" x="0.13" y="0.12" width="60.86" height="91.29" rx="2.4"/><path class="ac02835f-a2b6-4811-8d34-00e7a752bf67" d="M58.59,91.54H2.52A2.53,2.53,0,0,1,0,89V2.52A2.52,2.52,0,0,1,2.52,0H58.59a2.52,2.52,0,0,1,2.52,2.52V89A2.53,2.53,0,0,1,58.59,91.54ZM2.52.25A2.27,2.27,0,0,0,.25,2.52V89a2.28,2.28,0,0,0,2.27,2.28H58.59A2.28,2.28,0,0,0,60.86,89V2.52A2.27,2.27,0,0,0,58.59.25Z"/><path class="b0240125-66a9-4931-abe5-14875bcd2270" d="M2,8.55a.33.33,0,0,1-.22-.08.32.32,0,0,1-.08-.21v-6A.26.26,0,0,1,1.78,2,.28.28,0,0,1,2,1.93.25.25,0,0,1,2.2,2a.26.26,0,0,1,.09.21v6a.35.35,0,0,1-.1.21A.28.28,0,0,1,2,8.55ZM6.32,2A.25.25,0,0,1,6.51,2a.27.27,0,0,1,0,.38l-4.3,4L2.14,5.8l4-3.75A.26.26,0,0,1,6.32,2Zm.1,6.64a.28.28,0,0,1-.21-.11L3.53,5.11,4,4.66,6.68,8.09a.36.36,0,0,1,.06.2.23.23,0,0,1-.11.22A.37.37,0,0,1,6.42,8.59Z"/><path class="b0240125-66a9-4931-abe5-14875bcd2270" d="M54.69,83a.23.23,0,0,1,.2.1l2.69,3.38-.45.44-2.7-3.42a.37.37,0,0,1-.07-.2.27.27,0,0,1,.11-.23A.38.38,0,0,1,54.69,83Zm.1,6.64a.23.23,0,0,1-.19-.09.26.26,0,0,1-.09-.19.28.28,0,0,1,.09-.2l4.29-4,.08.65-4,3.75A.32.32,0,0,1,54.79,89.59ZM59.12,83a.25.25,0,0,1,.21.08.28.28,0,0,1,.08.21v6a.32.32,0,0,1-.08.21.29.29,0,0,1-.22.08.28.28,0,0,1-.21-.08.32.32,0,0,1-.08-.21v-6a.33.33,0,0,1,.09-.21A.28.28,0,0,1,59.12,83Z"/><path class="b59d41d3-c36d-42ce-bc1e-fa80437b9810" d="M7.75,54.69V30.37a13.79,13.79,0,0,1,9.19-4.48S17.06,50.53,7.75,54.69Z"/><rect class="ef8081d8-9422-467b-8b07-2af3b87b38dd" x="25.7" y="27.23" width="3.13" height="5.74"/><polygon class="ef8081d8-9422-467b-8b07-2af3b87b38dd" points="19.43 25.49 23.63 25.99 22.56 30.99 19.43 30.99 19.43 25.49"/><rect class="a58bb87e-216d-4596-b414-086751392a80" x="28.85" y="24.95" width="3.13" height="5.74"/><rect class="a58bb87e-216d-4596-b414-086751392a80" x="22.57" y="26.82" width="3.13" height="5.74"/><polygon class="ef8081d8-9422-467b-8b07-2af3b87b38dd" points="31.88 24.04 35.01 23.21 35.01 28.96 31.88 28.96 31.88 24.04"/><polygon class="a58bb87e-216d-4596-b414-086751392a80" points="35.03 23.1 36.37 22.64 38.16 26.68 35.03 26.68 35.03 23.1"/><path class="ef8081d8-9422-467b-8b07-2af3b87b38dd" d="M16.11,26S17.2,42.07,7.75,54.69c0,1.11,0,1.67,0,1.67s5.56-2.61,8.72-13.64,1.86-17,1.86-17Z"/><path class="b1dc5990-3d5f-4e10-a4ae-cb448ab6439f" d="M17.55,26.34s.29,10.59-2.32,16.93S10.8,53.94,7.75,56.33v4.84s8.59-8.3,11.4-17.65a74.51,74.51,0,0,0,2.92-18.36C19.88,24.85,17.94,25.59,17.55,26.34Z"/><path class="a58bb87e-216d-4596-b414-086751392a80" d="M17.39,26.06c0,.4.81.72,1.8.72s1.8-.32,1.8-.72-.8-.72-1.8-.72S17.39,25.67,17.39,26.06Z"/><path class="a58bb87e-216d-4596-b414-086751392a80" d="M17.53,27.65c0,.38.75.74,1.72.79S21,28.22,21,27.83s-.75-.74-1.72-.8S17.55,27.26,17.53,27.65Z"/><path class="a58bb87e-216d-4596-b414-086751392a80" d="M17.55,29.46c0,.38.7.78,1.65.88s1.75-.13,1.79-.5-.69-.78-1.64-.88S17.59,29.08,17.55,29.46Z"/><path class="a58bb87e-216d-4596-b414-086751392a80" d="M17.47,31.48c-.06.38.64.8,1.57.95s1.73,0,1.79-.39-.64-.8-1.57-.95S17.53,31.11,17.47,31.48Z"/><path class="a58bb87e-216d-4596-b414-086751392a80" d="M17.27,33.67c-.08.36.59.82,1.5,1s1.7.08,1.79-.28-.59-.82-1.5-1S17.35,33.3,17.27,33.67Z"/><path class="a58bb87e-216d-4596-b414-086751392a80" d="M17,36c-.1.36.54.85,1.42,1.11s1.69.17,1.79-.18-.53-.85-1.42-1.1S17.06,35.62,17,36Z"/><path class="a58bb87e-216d-4596-b414-086751392a80" d="M16.51,38.37c-.12.34.48.87,1.34,1.18s1.66.28,1.79-.07-.48-.87-1.34-1.18S16.63,38,16.51,38.37Z"/><path class="a58bb87e-216d-4596-b414-086751392a80" d="M15.94,40.82c-.15.33.42.89,1.26,1.25s1.64.38,1.78,0-.42-.9-1.26-1.25S16.08,40.48,15.94,40.82Z"/><path class="a58bb87e-216d-4596-b414-086751392a80" d="M15.23,43.27c-.17.33.37.93,1.19,1.34s1.61.47,1.78.15-.37-.93-1.19-1.34S15.39,43,15.23,43.27Z"/><path class="a58bb87e-216d-4596-b414-086751392a80" d="M14.38,45.71c-.18.32.31.95,1.11,1.41s1.59.58,1.78.26-.32-1-1.11-1.41S14.56,45.39,14.38,45.71Z"/><path class="a58bb87e-216d-4596-b414-086751392a80" d="M13.38,48.08c-.2.31.26,1,1,1.49s1.57.68,1.77.37-.25-1-1-1.49S13.59,47.77,13.38,48.08Z"/><path class="a58bb87e-216d-4596-b414-086751392a80" d="M12.24,50.35c-.22.31.2,1,1,1.57s1.55.77,1.77.47-.2-1-1-1.56S12.47,50.05,12.24,50.35Z"/><path class="a58bb87e-216d-4596-b414-086751392a80" d="M10.94,52.49c-.24.29.15,1,.88,1.64s1.53.88,1.77.58-.15-1-.88-1.64S11.19,52.2,10.94,52.49Z"/><path class="a58bb87e-216d-4596-b414-086751392a80" d="M9.48,54.45c-.27.28.1,1,.81,1.72s1.5,1,1.76.69-.09-1-.8-1.72S9.75,54.17,9.48,54.45Z"/><path class="a58bb87e-216d-4596-b414-086751392a80" d="M7.86,56.2c-.29.28,0,1.08.72,1.8s1.48,1.07,1.77.8,0-1.08-.73-1.8S8.14,55.93,7.86,56.2Z"/><rect class="b2ac7189-8af2-4d91-95a1-9f46d63e534c" x="25.91" y="34.56" width="4.97" height="5.5"/><polygon class="b7a408d0-3278-4234-ae0a-cf37e499261e" points="30.67 39.83 25.91 39.83 25.91 44.82 30.67 39.83"/><rect class="b7a408d0-3278-4234-ae0a-cf37e499261e" x="25.83" y="35.32" width="5.01" height="4.08"/><polygon class="b7a408d0-3278-4234-ae0a-cf37e499261e" points="30.84 34.96 25.91 34.96 25.91 33.63 30.84 30.64 30.84 34.96"/><path class="b59d41d3-c36d-42ce-bc1e-fa80437b9810" d="M25,45.3l.19-11.58-4.08-2.31s-.8,9.59-1.77,11.31S25,45.3,25,45.3Z"/><polygon class="b80ab771-7b88-4f76-910a-363784ffed5a" points="24.88 45.33 26.09 44.73 26.09 32.88 24.88 32.88 24.88 45.33"/><polygon class="ef8081d8-9422-467b-8b07-2af3b87b38dd" points="24.49 45.78 25.7 45.18 25.7 33.33 24.49 33.33 24.49 45.78"/><path class="ef8081d8-9422-467b-8b07-2af3b87b38dd" d="M16.56,49.8c.41-1,1.11-2,1.62-3a16.34,16.34,0,0,0,1.71-5.1H20a5.94,5.94,0,0,1,5.52,3.75,4.89,4.89,0,0,1-.59.62c-.42.35-.91.63-1.35,1a23.82,23.82,0,0,1-3,2.56,19.84,19.84,0,0,1-2.78,1.15,9.36,9.36,0,0,1-1.24.39l-.38,0C16.26,50.66,16.4,50.21,16.56,49.8Z"/><path class="b7a408d0-3278-4234-ae0a-cf37e499261e" d="M16.56,49.8c.41-1,1.11-2,1.62-3a16.49,16.49,0,0,0,1.63-4.63H20a5.48,5.48,0,0,1,5.17,3.67l-.24.23c-.42.35-.91.63-1.35,1a23.82,23.82,0,0,1-3,2.56,19.84,19.84,0,0,1-2.78,1.15,9.36,9.36,0,0,1-1.24.39l-.38,0C16.26,50.66,16.4,50.21,16.56,49.8Z"/><path class="b2ac7189-8af2-4d91-95a1-9f46d63e534c" d="M18.18,46.81a18.44,18.44,0,0,0,.89-2,2.93,2.93,0,0,1,.9-.14,3,3,0,0,1,3,2.88,12.66,12.66,0,0,1-2.42,2,13.66,13.66,0,0,1-1.75.77,3,3,0,0,1-1.61-1.77C17.49,48,17.87,47.41,18.18,46.81Z"/><polygon class="b59d41d3-c36d-42ce-bc1e-fa80437b9810" points="36.75 35.95 31.88 38.76 31.63 29.69 36.75 26.87 36.75 35.95"/><rect class="b80ab771-7b88-4f76-910a-363784ffed5a" x="30.67" y="30.1" width="1.21" height="9.17"/><path class="a5500df1-bbb9-467b-aa8c-c6a305f1179d" d="M41.38,24.12a14,14,0,0,0-4.26-1.48l-.26,13.14a19,19,0,0,1,4.81-1.17Z"/><polygon class="ab3799e0-bb55-47ba-8bd8-7da15c0f4cf1" points="41.38 24.12 42.13 24.4 42.13 34.52 41.38 34.52 41.38 24.12"/><path class="ef8081d8-9422-467b-8b07-2af3b87b38dd" d="M42.13,24.4a10.19,10.19,0,0,1,1.61.84v9.14H42.13Z"/><path class="b59d41d3-c36d-42ce-bc1e-fa80437b9810" d="M43.74,25.24a19.16,19.16,0,0,1,6.76,4.81v4.33H43.74Z"/><rect class="ef8081d8-9422-467b-8b07-2af3b87b38dd" x="31.12" y="29.69" width="1.21" height="9.17"/><rect class="ab3799e0-bb55-47ba-8bd8-7da15c0f4cf1" x="36.37" y="22.64" width="0.75" height="12.89"/><path class="a9f2dc90-b0b3-49f2-ab9d-ea60bdd43f51" d="M17.09,51.31a5.07,5.07,0,0,0,1.79-.37c2.47-.94,5.48-3.51,9-7.65,4.19-5,8.31-7,11-7.74a22.34,22.34,0,0,1,6.3-.69l.14-.81a22,22,0,0,0-6.61.69c-2.85.81-7.14,2.86-11.49,8-7.81,9.3-10.79,7.61-10.82,7.59l-.47.68A2.09,2.09,0,0,0,17.09,51.31Z"/><path class="b80ab771-7b88-4f76-910a-363784ffed5a" d="M36.37,26.35s-10.07,6.57-11,6.57-3.81-2-3.81-2v1.16a29.64,29.64,0,0,0,3.89,2.3c.45,0,10.94-6.8,10.94-6.8Z"/><path class="b7a408d0-3278-4234-ae0a-cf37e499261e" d="M36.37,25.55s-10.07,6.69-11,6.69S21.54,30,21.54,30v1.13a29.89,29.89,0,0,0,3.89,2.22c.45,0,10.94-6.59,10.94-6.59Z"/><path class="a9f2dc90-b0b3-49f2-ab9d-ea60bdd43f51" d="M21.82,26.42s0,11-2.47,18S10.61,61.31,8.77,62.2l-1-1s4.41-3.63,10.71-17.25c1.64-6.74,1.71-4,2.5-17.72Z"/><path class="f12676db-12d5-4135-a99d-5ac37e1ee286" d="M17.14,18.75a.16.16,0,0,1,.23,0c.54.56,2.62,2.79,1.53,3a28.44,28.44,0,0,1-4.23.3.15.15,0,0,1-.11,0,.16.16,0,0,1,0-.23l2.59-3.06Z"/><path class="f0428480-6d42-42ce-a47d-2ec9eeffb95e" d="M14.66,22.14a.21.21,0,0,1-.13-.05.22.22,0,0,1,0-.3l2.59-3.06a.19.19,0,0,1,.15-.08.2.2,0,0,1,.16.07c.62.63,2,2.18,1.84,2.84a.42.42,0,0,1-.33.28,29.38,29.38,0,0,1-4.24.3Zm2.59-3.39a.13.13,0,0,0-.09,0l-2.58,3.07a.09.09,0,0,0,0,.07.11.11,0,0,0,.12.11h0a27.67,27.67,0,0,0,4.22-.3.31.31,0,0,0,.26-.21c.14-.5-.84-1.74-1.82-2.75a.11.11,0,0,0-.08,0Z"/><path class="f12676db-12d5-4135-a99d-5ac37e1ee286" d="M37.49,22.07a12.51,12.51,0,0,0-1.93-8.54c-2.82-3.6-5.92-3.89-8.1-4.13a12.16,12.16,0,0,0-8.87,3c-2.31,1.94-2.28,7.07-1.83,9.6.53,3,4.14,4.86,9.79,5.45C31.82,28,37,24.23,37.49,22.07Z"/><path class="f0428480-6d42-42ce-a47d-2ec9eeffb95e" d="M26.54,27.46v0c-5.81-.61-9.31-2.56-9.83-5.49-.48-2.73-.41-7.75,1.85-9.65a12.17,12.17,0,0,1,8.9-3h.1a10.41,10.41,0,0,1,8,4.14,12.56,12.56,0,0,1,1.94,8.58c-.24,1.12-1.73,2.61-3.69,3.72a13,13,0,0,1-6.22,1.72A9.82,9.82,0,0,1,26.54,27.46ZM18.62,12.39c-2.22,1.87-2.29,6.86-1.81,9.56.51,2.89,4,4.81,9.74,5.41a9.24,9.24,0,0,0,1.05.06c4.84,0,9.41-3.37,9.84-5.36a12.44,12.44,0,0,0-1.92-8.5,10.28,10.28,0,0,0-8-4.1h-.1a8.89,8.89,0,0,0-1-.06A12.42,12.42,0,0,0,18.62,12.39Z"/><path class="e726d1e4-d352-45e2-a7d4-27ce82da9087" d="M22.23,22.73c1.12.06,1.83.66,1.49,1.1a2,2,0,0,1-1.6.79,2.33,2.33,0,0,1-1.72-1C20.08,23.18,21.1,22.67,22.23,22.73Z"/><path class="af1fc87a-a19c-415d-946e-27909750aa3a" d="M22.11,24.67a2.42,2.42,0,0,1-1.76-1h0a.33.33,0,0,1,0-.38,2.25,2.25,0,0,1,1.88-.61,1.91,1.91,0,0,1,1.59.72.43.43,0,0,1-.06.46,2.07,2.07,0,0,1-1.56.81ZM22,22.77a2,2,0,0,0-1.62.57.26.26,0,0,0,0,.28h0a2.35,2.35,0,0,0,1.69.95,2,2,0,0,0,1.56-.77.34.34,0,0,0,0-.36,1.79,1.79,0,0,0-1.5-.66Z"/><g class="ac7b0fc8-8004-48e0-b859-05cf92c9c31a"><g id="e5c6898f-0176-43a3-ba71-02e013ec8411" data-name="ojo der-3"><path class="e434608c-808c-4fe3-ad18-db35ec8cf9ba" d="M28.81,19.56a2.85,2.85,0,0,0-2.3-1.51,3.07,3.07,0,0,0-2.94,1.86c-.17.34,0,2.45,2.52,2.59,2.84.15,3.22-1.18,3.22-1.18A3.61,3.61,0,0,0,28.81,19.56Z"/></g><g id="a34c92f1-5e1c-40cf-970b-efd3b00e3234" data-name="pupila der"><circle class="f86c7516-711d-4f60-bf73-a3de1838172a" cx="27.84" cy="20.82" r="1.5"/></g><g id="f6ba2de1-20d0-4f34-8bab-b7a451e9eca7" data-name="ojo der-4" class="a678c8e3-5347-4352-99f9-3ed4c109567c"><path class="f12676db-12d5-4135-a99d-5ac37e1ee286" d="M29.21,20.38c0,.26.18.94.07,1a3.87,3.87,0,0,0-2.94-1.48,3.22,3.22,0,0,0-2.72,1,1.32,1.32,0,0,1-.07-.88,3.23,3.23,0,0,1,1.28-1.56,5.79,5.79,0,0,1,2.08-.23,2.85,2.85,0,0,1,2.3,2.16"/></g><g id="be1a94a8-082a-40a8-a5d0-583fffa89f3d" data-name="brillo ojo der"><circle class="b85654e5-e0d1-4566-9ddf-98f80578753a" cx="27.35" cy="20.06" r="0.27" transform="translate(5.79 46.25) rotate(-86.8)"/></g></g><path class="b3e16262-1945-4746-b4e8-d8f815b0d37c" d="M23.54,20a.76.76,0,0,1,.11-.32,1,1,0,0,1,.73-.59A5,5,0,0,0,25.53,19a15.65,15.65,0,0,1,1.85-.21c1.5.24,2,.92,2.19,1.76a.91.91,0,0,1-.35.92,2.4,2.4,0,0,0-2.53-2.32c-.77,0-2.34-.1-3.16,1Z"/><g class="b7364a56-4694-4a84-867d-df1d5bff0c05"><g id="b84f21a6-9439-4ffe-9549-b47ee26c134e" data-name="ojo der-5"><path class="e434608c-808c-4fe3-ad18-db35ec8cf9ba" d="M17.06,18.88c.35-.42.78-1.34,1.94-1.27s1.8,1.07,2.12,2.14a2.13,2.13,0,0,1-2.23,2.32c-2.24-.12-2.41-1.48-2.41-1.48A4.39,4.39,0,0,1,17.06,18.88Z"/></g><g id="e8fe29c7-1c51-4465-a991-0f3eefeba7ef" data-name="pupila der-2"><ellipse class="f86c7516-711d-4f60-bf73-a3de1838172a" cx="19.96" cy="20.26" rx="1.5" ry="1.18" transform="translate(-1.37 39.08) rotate(-86.83)"/></g><g id="a8ca4861-ae73-46a7-b39b-4a9f582418cb" data-name="ojo der-6" class="a678c8e3-5347-4352-99f9-3ed4c109567c"><path class="f12676db-12d5-4135-a99d-5ac37e1ee286" d="M16.66,19.66c0,.26-.24.92-.16,1A2.91,2.91,0,0,1,19,19.45a2.41,2.41,0,0,1,2,1.28,1.71,1.71,0,0,0,.14-.88,3.3,3.3,0,0,0-.85-1.68,3.64,3.64,0,0,0-1.6-.42c-1.5.05-2,1.91-2,1.91"/></g><g id="a7825133-f466-45fc-b8a4-98d9272e4c0f" data-name="brillo ojo der-2"><ellipse class="b85654e5-e0d1-4566-9ddf-98f80578753a" cx="20.47" cy="19.6" rx="0.27" ry="0.22" transform="translate(-0.23 38.96) rotate(-86.83)"/></g></g><path class="b3e16262-1945-4746-b4e8-d8f815b0d37c" d="M21.12,19.85a1.08,1.08,0,0,0,0-.35c-.16-.54-.74-2.13-2.1-2.21-1.65-.09-2.5,1.48-2.69,2.54,0,0-.08.79.21.8,0,0,.48-3,2.46-2.83a2.37,2.37,0,0,1,2.16,2.05Z"/><path class="a439e966-c502-4ec4-9691-92cac06ff314" d="M18.31,14.3a1.12,1.12,0,0,1,.77-.23,1.32,1.32,0,0,1,.72.35,2.17,2.17,0,0,1,.24.29,2.52,2.52,0,0,1,.15.34,1.94,1.94,0,0,1-.29-.21l-.29-.18a1.62,1.62,0,0,0-.57-.2,1.93,1.93,0,0,0-1.18.44A1.28,1.28,0,0,1,18.31,14.3Z"/><path class="a439e966-c502-4ec4-9691-92cac06ff314" d="M27.79,18.69a10.37,10.37,0,0,1-1.36.33,11.34,11.34,0,0,1-2.79.13c.45-.12.91-.2,1.36-.28l1.36-.24,1.36-.23c.45-.09.9-.17,1.35-.29A4.5,4.5,0,0,1,27.79,18.69Z"/><path class="f12676db-12d5-4135-a99d-5ac37e1ee286" d="M35.63,23a27.53,27.53,0,0,0,4.24.07A.21.21,0,0,0,40,23a.17.17,0,0,0,0-.23l-2.75-2.92h0a.17.17,0,0,0-.23,0"/><path class="f0428480-6d42-42ce-a47d-2ec9eeffb95e" d="M35.62,23.05s0,0,0-.06h0a.07.07,0,0,1,.06,0,27.28,27.28,0,0,0,4.23.07.09.09,0,0,0,.07,0,.11.11,0,0,0,0-.16L37.2,19.91a.13.13,0,0,0-.09,0h0a.2.2,0,0,0-.08,0,.05.05,0,1,1-.08-.06.24.24,0,0,1,.16-.07h0a.23.23,0,0,1,.16.06L40,22.76a.24.24,0,0,1,0,.14.21.21,0,0,1-.2.22c-.46,0-1.26,0-2.07,0A14.83,14.83,0,0,1,35.62,23.05Z"/><g class="a678c8e3-5347-4352-99f9-3ed4c109567c"><path class="f12676db-12d5-4135-a99d-5ac37e1ee286" d="M39.83,23.07c-.41.06-2.84.05-2.84.05l-.52.64C36.31,24,35.05,25,35.05,25a5.45,5.45,0,0,0,.18-3.21C36.12,22.08,40,23,40,23S40,23,39.83,23.07Z"/></g><path class="b8de6c4d-980c-445b-992a-aaeff4aa9a02" d="M20,22.08a2.73,2.73,0,0,1-2.1.19c-.13,0-.18.43-.06.49a14.79,14.79,0,0,0,3.15,1,6,6,0,0,0,3.59-.08,3.66,3.66,0,0,0,1.49-1.39,12.93,12.93,0,0,1-3,0c-.49-.22-.57-.65-.73-.65s-.74.77-1.28.77A1.52,1.52,0,0,1,20,22.08Z"/><path class="af1fc87a-a19c-415d-946e-27909750aa3a" d="M21,23.77a14,14,0,0,1-3.16-1c-.12-.06-.12-.32-.07-.46s.13-.13.16-.13A2.69,2.69,0,0,0,20,22l0,0,0,0a1.49,1.49,0,0,0,1.05.31h0a1.7,1.7,0,0,0,.93-.53c.18-.15.27-.24.35-.24h0c.09,0,.15.09.23.2a1.27,1.27,0,0,0,.52.46,13.33,13.33,0,0,0,2.95,0h.1l-.05.08a3.63,3.63,0,0,1-1.52,1.42,5.28,5.28,0,0,1-1.74.3A8.78,8.78,0,0,1,21,23.77Zm5-1.46a11.75,11.75,0,0,1-2.9,0,1.39,1.39,0,0,1-.56-.49c-.06-.09-.11-.16-.15-.16h0a1.46,1.46,0,0,0-.28.22,1.79,1.79,0,0,1-1,.55h0a1.71,1.71,0,0,1-1.1-.31,2.88,2.88,0,0,1-2.1.17.1.1,0,0,0,0,.07c-.05.12,0,.31,0,.33a15.15,15.15,0,0,0,3.14,1,5.89,5.89,0,0,0,3.57-.08A3.39,3.39,0,0,0,26,22.31Z"/><path class="b8de6c4d-980c-445b-992a-aaeff4aa9a02" d="M22.4,22.11a3.39,3.39,0,0,1,.38.37C22.18,22.26,22.34,22.08,22.4,22.11Z"/><path class="b8de6c4d-980c-445b-992a-aaeff4aa9a02" d="M22.07,22.06a4.1,4.1,0,0,0-.41.34C22.28,22.23,22.14,22,22.07,22.06Z"/><path class="b7a408d0-3278-4234-ae0a-cf37e499261e" d="M39.76,8.89l-3.19-1L35.64,11c-.8-.26-1.65-.49-2.52-.69l.62-3-3.41-.71-.63,3c-1-.15-1.95-.27-2.9-.37l.27-3.16-3.51-.3L23.29,9c-1.07-.07-2-.11-2.83-.14l-.27-3.21L16.36,6l.63,7.7.71-.06,0,.34,18.83,2.34.06-.29,1,.29Z"/><path class="ef8081d8-9422-467b-8b07-2af3b87b38dd" d="M17.1,15a60,60,0,0,1,20.31,2.77l.25-1.7S24.54,11.78,17,13.47Z"/><path class="b59d41d3-c36d-42ce-bc1e-fa80437b9810" d="M50.5,36.35V60.67a13.82,13.82,0,0,1-9.2,4.47S41.19,40.51,50.5,36.35Z"/><rect class="ef8081d8-9422-467b-8b07-2af3b87b38dd" x="29.42" y="58.06" width="3.13" height="5.74"/><polygon class="ef8081d8-9422-467b-8b07-2af3b87b38dd" points="38.82 65.54 34.62 65.04 35.69 60.05 38.82 60.05 38.82 65.54"/><rect class="a58bb87e-216d-4596-b414-086751392a80" x="26.27" y="60.35" width="3.13" height="5.74"/><rect class="a58bb87e-216d-4596-b414-086751392a80" x="32.55" y="58.47" width="3.13" height="5.74"/><polygon class="ef8081d8-9422-467b-8b07-2af3b87b38dd" points="26.37 67 23.24 67.82 23.24 62.07 26.37 62.07 26.37 67"/><polygon class="a58bb87e-216d-4596-b414-086751392a80" points="23.21 67.93 21.88 68.4 20.09 64.36 23.21 64.36 23.21 67.93"/><path class="ef8081d8-9422-467b-8b07-2af3b87b38dd" d="M42.14,65.05S41.05,49,50.5,36.35c0-1.11,0-1.68,0-1.68s-5.56,2.62-8.73,13.64-1.86,17-1.86,17Z"/><path class="b1dc5990-3d5f-4e10-a4ae-cb448ab6439f" d="M40.7,64.69S40.41,54.1,43,47.76,47.45,37.09,50.5,34.7V29.86s-8.59,8.3-11.4,17.65a74.56,74.56,0,0,0-2.92,18.37C38.37,66.18,40.31,65.44,40.7,64.69Z"/><path class="a58bb87e-216d-4596-b414-086751392a80" d="M40.86,65c0-.4-.81-.72-1.8-.72s-1.8.32-1.8.72.8.72,1.8.72S40.86,65.37,40.86,65Z"/><path class="a58bb87e-216d-4596-b414-086751392a80" d="M40.72,63.39c0-.39-.75-.75-1.72-.8s-1.78.23-1.8.61.75.75,1.73.8S40.7,63.78,40.72,63.39Z"/><path class="a58bb87e-216d-4596-b414-086751392a80" d="M40.69,61.57c.05-.38-.69-.77-1.64-.87s-1.76.12-1.8.5.7.77,1.65.87S40.65,62,40.69,61.57Z"/><path class="a58bb87e-216d-4596-b414-086751392a80" d="M40.78,59.55c.06-.37-.64-.8-1.57-.95s-1.73,0-1.79.39.64.8,1.57.95S40.72,59.92,40.78,59.55Z"/><path class="a58bb87e-216d-4596-b414-086751392a80" d="M41,57.37c.08-.37-.59-.82-1.5-1s-1.71-.08-1.79.29.59.82,1.5,1S40.89,57.73,41,57.37Z"/><path class="a58bb87e-216d-4596-b414-086751392a80" d="M41.29,55.06c.11-.35-.53-.85-1.41-1.1s-1.69-.18-1.79.17.53.85,1.42,1.11S41.19,55.41,41.29,55.06Z"/><path class="a58bb87e-216d-4596-b414-086751392a80" d="M41.74,52.66c.12-.34-.48-.87-1.34-1.18s-1.66-.27-1.79.07.48.87,1.34,1.18S41.61,53,41.74,52.66Z"/><path class="a58bb87e-216d-4596-b414-086751392a80" d="M42.31,50.22c.14-.34-.42-.9-1.26-1.26s-1.64-.38-1.78,0,.42.9,1.26,1.26S42.17,50.56,42.31,50.22Z"/><path class="a58bb87e-216d-4596-b414-086751392a80" d="M43,47.76c.16-.33-.37-.92-1.19-1.33s-1.61-.48-1.78-.15.37.92,1.19,1.33S42.86,48.09,43,47.76Z"/><path class="a58bb87e-216d-4596-b414-086751392a80" d="M43.87,45.33c.18-.32-.31-.95-1.11-1.42s-1.6-.57-1.78-.25.31,1,1.11,1.41S43.68,45.64,43.87,45.33Z"/><path class="a58bb87e-216d-4596-b414-086751392a80" d="M44.86,43c.21-.31-.26-1-1-1.48s-1.57-.68-1.78-.37.26,1,1,1.49S44.66,43.26,44.86,43Z"/><path class="a58bb87e-216d-4596-b414-086751392a80" d="M46,40.68c.22-.3-.21-1-1-1.56s-1.55-.78-1.77-.48.2,1,.95,1.57S45.78,41,46,40.68Z"/><path class="a58bb87e-216d-4596-b414-086751392a80" d="M47.31,38.54c.24-.29-.15-1-.88-1.64s-1.53-.87-1.77-.58.14,1,.88,1.64S47.06,38.84,47.31,38.54Z"/><path class="a58bb87e-216d-4596-b414-086751392a80" d="M48.77,36.58c.26-.28-.1-1-.81-1.72s-1.5-1-1.77-.69.1,1.06.81,1.72S48.5,36.87,48.77,36.58Z"/><path class="a58bb87e-216d-4596-b414-086751392a80" d="M50.39,34.83c.29-.27,0-1.08-.73-1.79s-1.48-1.08-1.76-.8,0,1.08.73,1.79S50.11,35.11,50.39,34.83Z"/><rect class="b2ac7189-8af2-4d91-95a1-9f46d63e534c" x="27.36" y="50.97" width="4.97" height="5.5"/><polygon class="b7a408d0-3278-4234-ae0a-cf37e499261e" points="27.58 51.2 32.34 51.2 32.34 46.21 27.58 51.2"/><rect class="b7a408d0-3278-4234-ae0a-cf37e499261e" x="27.41" y="51.63" width="5.01" height="4.08"/><polygon class="b7a408d0-3278-4234-ae0a-cf37e499261e" points="27.41 56.07 32.34 56.07 32.34 57.41 27.41 60.39 27.41 56.07"/><path class="b59d41d3-c36d-42ce-bc1e-fa80437b9810" d="M33.3,45.74l-.19,11.58,4.08,2.3S38,50,39,48.31,33.3,45.74,33.3,45.74Z"/><polygon class="b80ab771-7b88-4f76-910a-363784ffed5a" points="33.37 45.7 32.16 46.3 32.16 58.15 33.37 58.15 33.37 45.7"/><polygon class="ef8081d8-9422-467b-8b07-2af3b87b38dd" points="33.76 45.25 32.55 45.85 32.55 57.7 33.76 57.7 33.76 45.25"/><path class="ef8081d8-9422-467b-8b07-2af3b87b38dd" d="M41.69,41.23c-.41,1-1.11,2-1.62,3a16.34,16.34,0,0,0-1.71,5.1h-.08a6,6,0,0,1-5.53-3.76c.19-.2.37-.42.6-.62.42-.35.91-.62,1.34-1a25.53,25.53,0,0,1,3.05-2.56,20.57,20.57,0,0,1,2.78-1.15,10.5,10.5,0,0,1,1.24-.39l.38.06C42,40.38,41.85,40.82,41.69,41.23Z"/><path class="b7a408d0-3278-4234-ae0a-cf37e499261e" d="M41.69,41.23c-.41,1-1.11,2-1.62,3a16.49,16.49,0,0,0-1.63,4.63h-.16a5.49,5.49,0,0,1-5.17-3.67,2.72,2.72,0,0,1,.24-.24c.42-.35.91-.62,1.34-1a25.53,25.53,0,0,1,3.05-2.56,20.57,20.57,0,0,1,2.78-1.15,10.5,10.5,0,0,1,1.24-.39l.38,0C42,40.38,41.85,40.82,41.69,41.23Z"/><path class="b2ac7189-8af2-4d91-95a1-9f46d63e534c" d="M40.07,44.22a16.8,16.8,0,0,0-.89,2,2.92,2.92,0,0,1-.9.13,3,3,0,0,1-3-2.88,12.72,12.72,0,0,1,2.42-2,15.21,15.21,0,0,1,1.75-.77,3,3,0,0,1,1.61,1.77C40.76,43,40.38,43.62,40.07,44.22Z"/><polygon class="b59d41d3-c36d-42ce-bc1e-fa80437b9810" points="21.5 55.09 26.37 52.28 26.62 61.34 21.5 64.16 21.5 55.09"/><rect class="b80ab771-7b88-4f76-910a-363784ffed5a" x="26.37" y="51.76" width="1.21" height="9.17"/><path class="a5500df1-bbb9-467b-aa8c-c6a305f1179d" d="M16.87,66.92a14.21,14.21,0,0,0,4.25,1.48l.26-13.15a19.27,19.27,0,0,1-4.8,1.18Z"/><polygon class="ab3799e0-bb55-47ba-8bd8-7da15c0f4cf1" points="16.87 66.92 16.11 66.63 16.11 56.52 16.87 56.52 16.87 66.92"/><path class="ef8081d8-9422-467b-8b07-2af3b87b38dd" d="M16.11,66.63a9.4,9.4,0,0,1-1.6-.84V56.65h1.6Z"/><path class="b59d41d3-c36d-42ce-bc1e-fa80437b9810" d="M14.51,65.79A19,19,0,0,1,7.75,61V56.65h6.76Z"/><rect class="ef8081d8-9422-467b-8b07-2af3b87b38dd" x="25.92" y="52.17" width="1.21" height="9.17"/><rect class="ab3799e0-bb55-47ba-8bd8-7da15c0f4cf1" x="21.12" y="55.5" width="0.75" height="12.89"/><path class="a9f2dc90-b0b3-49f2-ab9d-ea60bdd43f51" d="M41.16,39.73a5.16,5.16,0,0,0-1.8.37c-2.46.93-5.48,3.5-8.95,7.64-4.19,5-8.31,7-11,7.75a21.73,21.73,0,0,1-6.3.68l-.15.82a22.81,22.81,0,0,0,6.62-.69c2.84-.81,7.14-2.86,11.49-8,7.81-9.29,10.79-7.6,10.82-7.58l.47-.68A2.09,2.09,0,0,0,41.16,39.73Z"/><path class="b80ab771-7b88-4f76-910a-363784ffed5a" d="M21.88,64.68s10.07-6.57,11-6.57,3.81,2,3.81,2V59a29.64,29.64,0,0,0-3.89-2.3c-.45,0-10.94,6.8-10.94,6.8Z"/><path class="b7a408d0-3278-4234-ae0a-cf37e499261e" d="M21.88,65.48S32,58.8,32.9,58.8s3.81,2.25,3.81,2.25V59.92a29.89,29.89,0,0,0-3.89-2.22c-.45,0-10.94,6.59-10.94,6.59Z"/><path class="a9f2dc90-b0b3-49f2-ab9d-ea60bdd43f51" d="M36.43,64.62s0-11,2.47-18,8.74-16.87,10.58-17.77l1,1s-4.41,3.63-10.71,17.26c-1.64,6.74-1.71,4-2.5,17.72Z"/><path class="f12676db-12d5-4135-a99d-5ac37e1ee286" d="M41.11,72.29a.16.16,0,0,1-.23,0c-.54-.56-2.62-2.78-1.53-3a29.8,29.8,0,0,1,4.23-.31.21.21,0,0,1,.11,0,.16.16,0,0,1,0,.23l-2.59,3.07Z"/><path class="f0428480-6d42-42ce-a47d-2ec9eeffb95e" d="M43.58,68.89a.24.24,0,0,1,.14,0,.22.22,0,0,1,0,.3l-2.59,3.07a.21.21,0,0,1-.15.07.23.23,0,0,1-.16-.06c-.62-.64-2-2.19-1.84-2.85a.39.39,0,0,1,.33-.27,29.41,29.41,0,0,1,4.24-.31ZM41,72.28a.09.09,0,0,0,.08,0l2.59-3.06a.11.11,0,0,0,0-.07.12.12,0,0,0-.12-.12h0a30.48,30.48,0,0,0-4.22.3c-.14,0-.23.1-.26.21-.15.5.84,1.75,1.82,2.75a.12.12,0,0,0,.08,0Z"/><path class="f12676db-12d5-4135-a99d-5ac37e1ee286" d="M20.76,69a12.51,12.51,0,0,0,1.93,8.54c2.82,3.61,5.92,3.89,8.1,4.13a12.15,12.15,0,0,0,8.87-2.95c2.31-1.94,2.28-7.07,1.83-9.6-.53-3-4.14-4.87-9.79-5.46C26.43,63.07,21.22,66.81,20.76,69Z"/><path class="f0428480-6d42-42ce-a47d-2ec9eeffb95e" d="M31.7,63.57v0c5.82.61,9.31,2.56,9.83,5.5.49,2.72.41,7.75-1.84,9.64a12.14,12.14,0,0,1-8.91,3h-.1a10.34,10.34,0,0,1-8-4.14A12.54,12.54,0,0,1,20.71,69c.24-1.12,1.73-2.61,3.69-3.71a13,13,0,0,1,6.22-1.72C31,63.52,31.34,63.54,31.7,63.57Zm7.93,15.07c2.22-1.87,2.29-6.85,1.81-9.56-.52-2.88-4-4.81-9.75-5.41a8.94,8.94,0,0,0-1-.05c-4.84,0-9.42,3.37-9.85,5.35a12.48,12.48,0,0,0,1.93,8.5,10.24,10.24,0,0,0,8,4.1h.1a9.07,9.07,0,0,0,1,.06A12.4,12.4,0,0,0,39.63,78.64Z"/><path class="e726d1e4-d352-45e2-a7d4-27ce82da9087" d="M36,68.3c-1.13-.06-1.83-.65-1.49-1.09a2,2,0,0,1,1.6-.79,2.31,2.31,0,0,1,1.72,1C38.17,67.85,37.15,68.37,36,68.3Z"/><path class="af1fc87a-a19c-415d-946e-27909750aa3a" d="M36.13,66.37a2.4,2.4,0,0,1,1.76,1h0a.33.33,0,0,1,0,.39,2.23,2.23,0,0,1-1.89.6,1.9,1.9,0,0,1-1.58-.72.41.41,0,0,1,.06-.45,2,2,0,0,1,1.55-.81Zm.08,1.89a2.08,2.08,0,0,0,1.62-.56.24.24,0,0,0,0-.28h0a2.28,2.28,0,0,0-1.68-1,1.94,1.94,0,0,0-1.56.76.34.34,0,0,0,0,.36,1.74,1.74,0,0,0,1.5.66Z"/><g class="a4d021aa-1be8-42d4-845a-b7be713465eb"><g id="fdb3474c-894f-4293-877b-b45f248a97b4" data-name="ojo der-3"><path class="e434608c-808c-4fe3-ad18-db35ec8cf9ba" d="M29.44,71.47A2.83,2.83,0,0,0,31.74,73a3,3,0,0,0,2.93-1.85c.18-.35,0-2.45-2.52-2.59-2.83-.16-3.21,1.17-3.21,1.17A3.58,3.58,0,0,0,29.44,71.47Z"/></g><g id="b3d30963-01bc-4713-afde-74fddaeb8474" data-name="pupila der"><circle class="f86c7516-711d-4f60-bf73-a3de1838172a" cx="30.41" cy="70.21" r="1.5"/></g><g id="ac8b748c-ed3f-4011-b36b-f4ac404f068a" data-name="ojo der-4" class="a678c8e3-5347-4352-99f9-3ed4c109567c"><path class="f12676db-12d5-4135-a99d-5ac37e1ee286" d="M29,70.65c0-.25-.18-.94-.07-1a3.83,3.83,0,0,0,2.94,1.49,3.24,3.24,0,0,0,2.72-1,1.32,1.32,0,0,1,.07.88,3.21,3.21,0,0,1-1.29,1.57,5.55,5.55,0,0,1-2.07.22A2.84,2.84,0,0,1,29,70.65"/></g><g id="b74b5310-e237-451f-a67b-f643a38de039" data-name="brillo ojo der"><circle class="b85654e5-e0d1-4566-9ddf-98f80578753a" cx="30.9" cy="70.97" r="0.27" transform="translate(-41.69 97.86) rotate(-86.8)"/></g></g><path class="b3e16262-1945-4746-b4e8-d8f815b0d37c" d="M34.71,71a.92.92,0,0,1-.11.33,1.08,1.08,0,0,1-.73.58,5,5,0,0,0-1.15.13,13.8,13.8,0,0,1-1.85.21c-1.5-.24-2-.92-2.19-1.76a.89.89,0,0,1,.35-.91,2.38,2.38,0,0,0,2.53,2.31c.76,0,2.34.1,3.16-1Z"/><g class="fe58ec04-de5c-4dc1-a8b6-482c97a064f6"><g id="ad1ad3e7-6f63-48de-a842-6a493810cfca" data-name="ojo der-5"><path class="e434608c-808c-4fe3-ad18-db35ec8cf9ba" d="M41.19,72.15c-.35.43-.78,1.34-1.94,1.28s-1.81-1.08-2.12-2.14A2.14,2.14,0,0,1,39.36,69c2.23.12,2.4,1.49,2.4,1.49A4.24,4.24,0,0,1,41.19,72.15Z"/></g><g id="a9287e13-4545-465c-a8be-8a9daba97a41" data-name="pupila der-2"><ellipse class="f86c7516-711d-4f60-bf73-a3de1838172a" cx="38.28" cy="70.77" rx="1.5" ry="1.18" transform="matrix(0.06, -1, 1, 0.06, -34.5, 105.08)"/></g><g id="e218930e-2251-4bcf-ad4b-7ca05a76e6b7" data-name="ojo der-6" class="a678c8e3-5347-4352-99f9-3ed4c109567c"><path class="f12676db-12d5-4135-a99d-5ac37e1ee286" d="M41.59,71.37c0-.26.23-.92.16-1a3,3,0,0,1-2.45,1.19,2.46,2.46,0,0,1-2-1.28,1.59,1.59,0,0,0-.13.87A3.3,3.3,0,0,0,38,72.86a3.63,3.63,0,0,0,1.6.43c1.5-.06,2-1.92,2-1.92"/></g><g id="e73d4242-2037-4d09-b6a5-147ecf5aa86e" data-name="brillo ojo der-2"><ellipse class="b85654e5-e0d1-4566-9ddf-98f80578753a" cx="37.77" cy="71.43" rx="0.27" ry="0.22" transform="translate(-35.64 105.2) rotate(-86.83)"/></g></g><path class="b3e16262-1945-4746-b4e8-d8f815b0d37c" d="M37.13,71.18a1,1,0,0,0,0,.35c.16.55.74,2.14,2.1,2.21,1.65.09,2.5-1.48,2.68-2.54,0,0,.09-.78-.2-.8,0,0-.48,3-2.46,2.83a2.36,2.36,0,0,1-2.16-2Z"/><path class="a439e966-c502-4ec4-9691-92cac06ff314" d="M39.94,76.73a1.13,1.13,0,0,1-.77.23,1.23,1.23,0,0,1-.72-.35,2.17,2.17,0,0,1-.24-.29,2.07,2.07,0,0,1-.15-.34,1.94,1.94,0,0,1,.29.21c.1.06.19.13.29.18a1.4,1.4,0,0,0,.56.2,1.87,1.87,0,0,0,1.19-.44A1.28,1.28,0,0,1,39.94,76.73Z"/><path class="a439e966-c502-4ec4-9691-92cac06ff314" d="M30.46,72.34A9,9,0,0,1,31.82,72a11.34,11.34,0,0,1,2.79-.14c-.46.12-.91.21-1.37.29l-1.35.23c-.46.07-.91.16-1.36.24s-.9.17-1.35.29A4.81,4.81,0,0,1,30.46,72.34Z"/><path class="f12676db-12d5-4135-a99d-5ac37e1ee286" d="M22.62,68A30.32,30.32,0,0,0,18.38,68a.17.17,0,0,0-.11.28L21,71.16h0a.16.16,0,0,0,.23,0"/><path class="f0428480-6d42-42ce-a47d-2ec9eeffb95e" d="M22.63,68a.07.07,0,0,1,0,.06h0s0,0-.05,0A28.58,28.58,0,0,0,18.38,68a.09.09,0,0,0-.07,0,.11.11,0,0,0,0,.16l2.75,2.92a.09.09,0,0,0,.08,0h0a.12.12,0,0,0,.08,0,0,0,0,0,1,.07,0s0,0,0,.06a.19.19,0,0,1-.15.08h0a.23.23,0,0,1-.15-.07l-2.75-2.92a.35.35,0,0,1-.06-.14.23.23,0,0,1,.21-.22c.46,0,1.26,0,2.07,0A16.36,16.36,0,0,1,22.63,68Z"/><g class="a678c8e3-5347-4352-99f9-3ed4c109567c"><path class="f12676db-12d5-4135-a99d-5ac37e1ee286" d="M18.42,68c.41,0,2.83,0,2.83,0s.36-.44.52-.65S23.2,66,23.2,66A5.49,5.49,0,0,0,23,69.23c-.89-.27-4.8-1.14-4.8-1.14S18.22,68,18.42,68Z"/></g><path class="b8de6c4d-980c-445b-992a-aaeff4aa9a02" d="M38.21,69a2.73,2.73,0,0,1,2.1-.19c.13,0,.18-.43.06-.49a14.83,14.83,0,0,0-3.15-1,6.14,6.14,0,0,0-3.6.07,3.66,3.66,0,0,0-1.49,1.4,12.92,12.92,0,0,1,3,0c.49.22.56.65.73.65s.74-.77,1.28-.77A1.58,1.58,0,0,1,38.21,69Z"/><path class="af1fc87a-a19c-415d-946e-27909750aa3a" d="M37.23,67.26a14.49,14.49,0,0,1,3.16,1c.12.06.11.31.06.45s-.12.14-.15.13a2.75,2.75,0,0,0-2.06.18l0,0,0,0a1.49,1.49,0,0,0-1.05-.32h0a1.7,1.7,0,0,0-.93.53c-.18.16-.28.24-.35.24h0c-.09,0-.16-.09-.23-.2a1.25,1.25,0,0,0-.52-.45,12.71,12.71,0,0,0-3,0H32l.05-.09a3.69,3.69,0,0,1,1.52-1.41A5,5,0,0,1,35.35,67,9.47,9.47,0,0,1,37.23,67.26Zm-5,1.46a11.27,11.27,0,0,1,2.9,0,1.28,1.28,0,0,1,.55.48c.07.09.12.16.16.16h0a1,1,0,0,0,.28-.21,1.74,1.74,0,0,1,1-.56h0a1.71,1.71,0,0,1,1.09.32,2.85,2.85,0,0,1,2.11-.18s0,0,0-.06a.42.42,0,0,0,0-.34,15.35,15.35,0,0,0-3.14-1,6,6,0,0,0-3.57.08,3.39,3.39,0,0,0-1.41,1.29Z"/><path class="b8de6c4d-980c-445b-992a-aaeff4aa9a02" d="M35.85,68.93a3.62,3.62,0,0,1-.39-.37C36.06,68.77,35.91,69,35.85,68.93Z"/><path class="b8de6c4d-980c-445b-992a-aaeff4aa9a02" d="M36.17,69a3.21,3.21,0,0,0,.41-.34C36,68.8,36.11,69,36.17,69Z"/><path class="b7a408d0-3278-4234-ae0a-cf37e499261e" d="M18.49,82.15l3.19.95L22.6,80c.81.26,1.66.49,2.53.7l-.62,3,3.4.72.64-3c1,.15,1.95.28,2.89.38l-.26,3.16,3.51.3L35,82c1.06.07,2,.12,2.83.15l.26,3.21,3.84-.32-.63-7.7-.72.06,0-.34L21.74,74.74l-.06.29-1-.29Z"/><path class="ef8081d8-9422-467b-8b07-2af3b87b38dd" d="M41.15,76.06a60.16,60.16,0,0,1-20.31-2.78L20.59,75s13.12,4.26,20.7,2.57Z"/><path class="b0240125-66a9-4931-abe5-14875bcd2270" d="M3.33,12.1a.1.1,0,0,0,.14,0l1.44-1.62a.11.11,0,0,0,0-.13L3.47,8.75a.1.1,0,0,0-.14,0l-1.44,1.6a.11.11,0,0,0,0,.13Z"/><path class="ad38f4cf-f471-445f-99d0-5ccc9fa98f69" d="M3.4,12.15a.12.12,0,0,1-.09,0L1.88,10.49a.11.11,0,0,1,0-.15l1.44-1.6a.11.11,0,0,1,.17,0l1.43,1.6a.11.11,0,0,1,0,.15L3.49,12.11A.11.11,0,0,1,3.4,12.15Zm0-3.41-.06,0L1.91,10.37a.07.07,0,0,0,0,.1l1.43,1.62a.09.09,0,0,0,.12,0L4.9,10.47a.09.09,0,0,0,0-.1L3.46,8.76Z"/><path class="b7c08ccb-8dec-4051-a072-d085260c30c5" d="M4.21,10.11a.07.07,0,0,1-.06,0l-.82-.94a.09.09,0,0,1,0-.13.09.09,0,0,1,.12,0l.82.94a.1.1,0,0,1,0,.13Z"/><path class="b7c08ccb-8dec-4051-a072-d085260c30c5" d="M4.47,10.41a.07.07,0,0,1-.06,0l-.12-.14a.09.09,0,1,1,.13-.11l.12.14a.09.09,0,0,1,0,.12A.07.07,0,0,1,4.47,10.41Z"/><path class="b0240125-66a9-4931-abe5-14875bcd2270" d="M57.78,79.47a.11.11,0,0,0-.07,0,.11.11,0,0,0-.08,0L56.2,81.09a.09.09,0,0,0,0,.13l1.43,1.6a.09.09,0,0,0,.08,0,.09.09,0,0,0,.07,0l1.43-1.6a.09.09,0,0,0,0-.13Z"/><path class="ad38f4cf-f471-445f-99d0-5ccc9fa98f69" d="M57.71,79.42a.12.12,0,0,1,.08,0l1.44,1.62a.11.11,0,0,1,0,.15l-1.44,1.61a.12.12,0,0,1-.17,0l-1.44-1.61a.11.11,0,0,1,0-.15l1.44-1.62A.13.13,0,0,1,57.71,79.42Zm0,3.42a.05.05,0,0,0,0,0l1.44-1.6a.07.07,0,0,0,0-.1l-1.44-1.63a.08.08,0,0,0-.11,0l-1.44,1.63a.07.07,0,0,0,0,.1l1.44,1.6A.06.06,0,0,0,57.71,82.84Z"/><path class="b7c08ccb-8dec-4051-a072-d085260c30c5" d="M56.9,81.47a.09.09,0,0,1,.06,0l.82.94a.09.09,0,1,1-.13.11l-.82-.94a.08.08,0,0,1,0-.12S56.87,81.47,56.9,81.47Z"/><path class="b7c08ccb-8dec-4051-a072-d085260c30c5" d="M56.63,81.16a.09.09,0,0,1,.07,0l.12.14a.09.09,0,0,1,0,.12.09.09,0,0,1-.13,0l-.11-.13a.09.09,0,0,1,0-.13Z"/></g></g></svg>