<svg xmlns="http://www.w3.org/2000/svg" viewBox="0 0 32.9 47.27"><defs><style>.fcc1a843-e95c-487f-9922-7c18f8b30ab5{fill:#b2e675;}.bada71d8-5518-4045-9577-f0e2af203bfe,.fcc1a843-e95c-487f-9922-7c18f8b30ab5{stroke:#529b00;stroke-width:0.53px;}.bada71d8-5518-4045-9577-f0e2af203bfe,.f8d60edc-149b-4888-91b0-45f15fffb29c,.fcc1a843-e95c-487f-9922-7c18f8b30ab5{stroke-miterlimit:10;}.a72f8a6f-fa16-4d95-9606-232f7d11332d{fill:#313d40;}.b0f286d5-0ff5-47e9-90ab-0c1f64022af1{fill:#a75d29;}.bada71d8-5518-4045-9577-f0e2af203bfe,.f8d60edc-149b-4888-91b0-45f15fffb29c{fill:none;stroke-linecap:round;}.f8d60edc-149b-4888-91b0-45f15fffb29c{stroke:#e5fcc8;stroke-width:2.12px;}.af5c7bc2-5ca5-40a7-9abc-ee8a9855e9e8{fill:#9cbf6f;}</style></defs><title>pera</title><g id="b5bad767-0fa5-433d-ada8-e2e06f73a358" data-name="Capa 2"><g id="a7bf5871-67ea-40bb-a75d-e9dd77c798f1" data-name="Objects"><path class="fcc1a843-e95c-487f-9922-7c18f8b30ab5" d="M27.24,17.19A11.22,11.22,0,0,0,17,3,11.2,11.2,0,0,0,5.24,14.15a11.34,11.34,0,0,0,.42,3,2.18,2.18,0,0,1-.6,2.13,16.19,16.19,0,1,0,22.78,0A2.21,2.21,0,0,1,27.24,17.19Z"/><path class="a72f8a6f-fa16-4d95-9606-232f7d11332d" d="M10.94,29.89a.65.65,0,0,0-.65.64v.86a.65.65,0,1,0,1.29,0v-.86A.64.64,0,0,0,10.94,29.89Z"/><path class="a72f8a6f-fa16-4d95-9606-232f7d11332d" d="M22,29.89a.65.65,0,0,0-.65.64v.86A.65.65,0,0,0,22,32a.64.64,0,0,0,.64-.65v-.86A.64.64,0,0,0,22,29.89Z"/><path class="a72f8a6f-fa16-4d95-9606-232f7d11332d" d="M16.71,37.09a5,5,0,0,1-3-1.14.53.53,0,1,1,.63-.84,3.3,3.3,0,0,0,4.57,0,.53.53,0,0,1,.68.82A4.54,4.54,0,0,1,16.71,37.09Z"/><path class="b0f286d5-0ff5-47e9-90ab-0c1f64022af1" d="M16.15,4.87S15.68.86,17.54,0a.61.61,0,0,1,.4,0l.42.14a.6.6,0,0,1,.16,1.06c-.8.6-1.59,1.73-1,3.79C17.47,5,16.15,4.87,16.15,4.87Z"/><path class="bada71d8-5518-4045-9577-f0e2af203bfe" d="M15.5,4.13a1.79,1.79,0,0,0,2.31.55"/><path class="f8d60edc-149b-4888-91b0-45f15fffb29c" d="M20.12,5.83s5.66,2.94,5.18,8.63"/><line class="f8d60edc-149b-4888-91b0-45f15fffb29c" x1="25.09" y1="16.89" x2="25" y2="17.95"/><circle class="af5c7bc2-5ca5-40a7-9abc-ee8a9855e9e8" cx="30.36" cy="34.65" r="0.57"/><circle class="af5c7bc2-5ca5-40a7-9abc-ee8a9855e9e8" cx="28.8" cy="36.21" r="0.46"/><circle class="af5c7bc2-5ca5-40a7-9abc-ee8a9855e9e8" cx="30.08" cy="37.38" r="0.29"/><circle class="af5c7bc2-5ca5-40a7-9abc-ee8a9855e9e8" cx="30.59" cy="36.44" r="0.23"/><circle class="af5c7bc2-5ca5-40a7-9abc-ee8a9855e9e8" cx="30.79" cy="33" r="0.43"/><circle class="af5c7bc2-5ca5-40a7-9abc-ee8a9855e9e8" cx="28.23" cy="38.93" r="0.33"/><circle class="af5c7bc2-5ca5-40a7-9abc-ee8a9855e9e8" cx="3.87" cy="38.46" r="0.8"/><circle class="af5c7bc2-5ca5-40a7-9abc-ee8a9855e9e8" cx="2.82" cy="36.69" r="0.25"/><circle class="af5c7bc2-5ca5-40a7-9abc-ee8a9855e9e8" cx="3.88" cy="37" r="0.23"/><circle class="af5c7bc2-5ca5-40a7-9abc-ee8a9855e9e8" cx="1.97" cy="35.28" r="0.28"/><circle class="af5c7bc2-5ca5-40a7-9abc-ee8a9855e9e8" cx="2.98" cy="35.65" r="0.09"/><circle class="af5c7bc2-5ca5-40a7-9abc-ee8a9855e9e8" cx="2.39" cy="34.29" r="0.42"/><circle class="af5c7bc2-5ca5-40a7-9abc-ee8a9855e9e8" cx="3.3" cy="35.29" r="0.15"/><circle class="af5c7bc2-5ca5-40a7-9abc-ee8a9855e9e8" cx="4.16" cy="36.27" r="0.22"/><circle class="af5c7bc2-5ca5-40a7-9abc-ee8a9855e9e8" cx="6.41" cy="41.54" r="0.24"/><circle class="af5c7bc2-5ca5-40a7-9abc-ee8a9855e9e8" cx="25.26" cy="41.85" r="0.32"/><circle class="af5c7bc2-5ca5-40a7-9abc-ee8a9855e9e8" cx="24.44" cy="43.38" r="0.11"/><circle class="af5c7bc2-5ca5-40a7-9abc-ee8a9855e9e8" cx="7.45" cy="43.15" r="0.12"/><circle class="af5c7bc2-5ca5-40a7-9abc-ee8a9855e9e8" cx="14.45" cy="4.88" r="0.75"/><circle class="af5c7bc2-5ca5-40a7-9abc-ee8a9855e9e8" cx="12.65" cy="4.63" r="0.11"/><circle class="af5c7bc2-5ca5-40a7-9abc-ee8a9855e9e8" cx="12.4" cy="5.88" r="0.25"/><circle class="af5c7bc2-5ca5-40a7-9abc-ee8a9855e9e8" cx="13.23" cy="5.93" r="0.1"/><circle class="af5c7bc2-5ca5-40a7-9abc-ee8a9855e9e8" cx="11.44" cy="5.64" r="0.29"/><circle class="af5c7bc2-5ca5-40a7-9abc-ee8a9855e9e8" cx="10.61" cy="7.21" r="0.11"/><circle class="af5c7bc2-5ca5-40a7-9abc-ee8a9855e9e8" cx="8.86" cy="6.76" r="0.16"/><circle class="af5c7bc2-5ca5-40a7-9abc-ee8a9855e9e8" cx="10.16" cy="6.28" r="0.24"/><circle class="af5c7bc2-5ca5-40a7-9abc-ee8a9855e9e8" cx="13.23" cy="7.39" r="0.47"/><circle class="af5c7bc2-5ca5-40a7-9abc-ee8a9855e9e8" cx="15.06" cy="6.66" r="0.14"/><circle class="af5c7bc2-5ca5-40a7-9abc-ee8a9855e9e8" cx="8.12" cy="8.25" r="0.17"/><circle class="af5c7bc2-5ca5-40a7-9abc-ee8a9855e9e8" cx="9.14" cy="7.75" r="0.11"/><circle class="af5c7bc2-5ca5-40a7-9abc-ee8a9855e9e8" cx="7.65" cy="9.72" r="0.21"/><circle class="af5c7bc2-5ca5-40a7-9abc-ee8a9855e9e8" cx="8.74" cy="10.01" r="0.29"/></g></g></svg>