<svg xmlns="http://www.w3.org/2000/svg" viewBox="0 0 61.11 91.54"><defs><style>.a5767710-3777-45bd-b5b8-2ac78d76d52a{fill:none;}.f2f07f75-bdc1-47d5-b0ec-4f0afcb9a373{fill:#adadad;}.afb644c9-caa6-4ffd-b8d0-5aa57790a36d{fill:#363026;}.e8255db1-b2c3-4f80-a586-9663f939dae1{fill:#716b61;}.fc8c54df-6912-4723-b5b8-9f64a2d6b51c{fill:#453f31;}.bbdd5789-8024-4cdd-a197-dfccb539ba5f{fill:#aaa194;}</style></defs><title>P_8</title><g id="aff2d067-10e7-439b-a5e6-0388ec0b4453" data-name="Capa 2"><g id="eff71026-c3ad-43ab-83b4-5e18fd1bd722" data-name="Objects"><rect class="a5767710-3777-45bd-b5b8-2ac78d76d52a" x="0.13" y="0.12" width="60.86" height="91.29" rx="2.4"/><path class="f2f07f75-bdc1-47d5-b0ec-4f0afcb9a373" d="M58.59,91.54H2.52A2.53,2.53,0,0,1,0,89V2.52A2.52,2.52,0,0,1,2.52,0H58.59a2.52,2.52,0,0,1,2.52,2.52V89A2.53,2.53,0,0,1,58.59,91.54ZM2.52.25A2.27,2.27,0,0,0,.25,2.52V89a2.28,2.28,0,0,0,2.27,2.28H58.59A2.28,2.28,0,0,0,60.86,89V2.52A2.27,2.27,0,0,0,58.59.25Z"/><path class="afb644c9-caa6-4ffd-b8d0-5aa57790a36d" d="M4.36,5.22l0-.08a1.85,1.85,0,0,1,.6.36,2,2,0,0,1,.42.57,1.74,1.74,0,0,1-.12,1.64,1.91,1.91,0,0,1-.72.66,2.11,2.11,0,0,1-1,.25,2,2,0,0,1-1-.25,1.87,1.87,0,0,1-.73-.66,1.68,1.68,0,0,1-.27-.93A1.64,1.64,0,0,1,1.61,6a1.7,1.7,0,0,1,.44-.55,2.26,2.26,0,0,1,.56-.35l0,.09A2,2,0,0,1,2.1,4.9a2,2,0,0,1-.36-.51,1.59,1.59,0,0,1-.14-.66,1.69,1.69,0,0,1,.25-.92,1.82,1.82,0,0,1,.68-.64,1.85,1.85,0,0,1,.94-.24,1.92,1.92,0,0,1,.95.24,1.87,1.87,0,0,1,.67.64,1.78,1.78,0,0,1,.24.92,1.42,1.42,0,0,1-.14.66,1.68,1.68,0,0,1-.36.51A1.71,1.71,0,0,1,4.36,5.22ZM3.47,8.08a1.48,1.48,0,0,0,1-.37A1.26,1.26,0,0,0,4.73,6.1a1.34,1.34,0,0,0-.53-.47,1.63,1.63,0,0,0-1.45,0,1.41,1.41,0,0,0-.53.47,1.26,1.26,0,0,0,.21,1.61A1.44,1.44,0,0,0,3.47,8.08ZM2.18,3.73a1.21,1.21,0,0,0,.18.66,1.11,1.11,0,0,0,.47.44A1.3,1.3,0,0,0,3.47,5a1.24,1.24,0,0,0,.63-.17,1.2,1.2,0,0,0,.48-.44,1.21,1.21,0,0,0,.18-.66,1.21,1.21,0,0,0-.36-.91,1.29,1.29,0,0,0-.93-.35,1.28,1.28,0,0,0-.93.35A1.18,1.18,0,0,0,2.18,3.73Z"/><path class="afb644c9-caa6-4ffd-b8d0-5aa57790a36d" d="M56.75,86.31l0,.09a2.07,2.07,0,0,1-.6-.37,1.76,1.76,0,0,1-.42-.56,1.73,1.73,0,0,1-.16-.72,1.68,1.68,0,0,1,.27-.93,2,2,0,0,1,.73-.66,2.21,2.21,0,0,1,1-.24,2.16,2.16,0,0,1,1,.24,2,2,0,0,1,.73.66,1.68,1.68,0,0,1,.27.93,1.58,1.58,0,0,1-.17.74,1.71,1.71,0,0,1-.43.56,2.6,2.6,0,0,1-.56.35l0-.1a1.87,1.87,0,0,1,.47.34,1.76,1.76,0,0,1,.37.51,1.59,1.59,0,0,1,.14.66,1.75,1.75,0,0,1-.25.91,1.85,1.85,0,0,1-.68.65,2.06,2.06,0,0,1-1.89,0,1.82,1.82,0,0,1-.67-.65,1.75,1.75,0,0,1-.25-.91,1.47,1.47,0,0,1,.15-.67,1.64,1.64,0,0,1,.36-.5A1.82,1.82,0,0,1,56.75,86.31Zm.89-2.85a1.52,1.52,0,0,0-1,.36,1.26,1.26,0,0,0-.21,1.61,1.45,1.45,0,0,0,.53.48,1.6,1.6,0,0,0,.73.17,1.58,1.58,0,0,0,.71-.17,1.37,1.37,0,0,0,.53-.48,1.16,1.16,0,0,0,.2-.68,1.21,1.21,0,0,0-.4-.93A1.5,1.5,0,0,0,57.64,83.46Zm1.29,4.35a1.22,1.22,0,0,0-.18-.67,1.27,1.27,0,0,0-.48-.44,1.26,1.26,0,0,0-.63-.16,1.29,1.29,0,0,0-.64.16,1.32,1.32,0,0,0-.47.44,1.22,1.22,0,0,0-.18.67,1.19,1.19,0,0,0,.36.9,1.41,1.41,0,0,0,1.86,0A1.19,1.19,0,0,0,58.93,87.81Z"/><path class="e8255db1-b2c3-4f80-a586-9663f939dae1" d="M4.74,9.93a7,7,0,0,0-.82-.77l-.38-.33a.19.19,0,0,0-.13-.05.18.18,0,0,0-.12.05l-.38.33a7.19,7.19,0,0,0-.83.77,1.25,1.25,0,0,0-.32.81,1.05,1.05,0,0,0,.26.71.91.91,0,0,0,.66.28.82.82,0,0,0,.52-.18l0,0-.2.56a.09.09,0,0,0,.08.12h.55a.08.08,0,0,0,.08-.11l-.19-.58.05,0a.85.85,0,0,0,.53.18.91.91,0,0,0,.66-.28,1.05,1.05,0,0,0,.26-.71A1.21,1.21,0,0,0,4.74,9.93Z"/><path class="fc8c54df-6912-4723-b5b8-9f64a2d6b51c" d="M3.68,12.22H3.13A.11.11,0,0,1,3,12.17a.09.09,0,0,1,0-.09l.18-.5A.93.93,0,0,1,2,11.46a1.08,1.08,0,0,1-.26-.72,1.22,1.22,0,0,1,.33-.82,6.84,6.84,0,0,1,.81-.76l0,0,.36-.31a.23.23,0,0,1,.29,0l.36.31h0a7.19,7.19,0,0,1,.83.78h0a1.22,1.22,0,0,1,.33.82,1,1,0,0,1-.27.72.91.91,0,0,1-1.21.11h0l.17.51a.09.09,0,0,1,0,.09A.12.12,0,0,1,3.68,12.22Zm-.43-.72h0s0,0,0,0l-.2.57a.13.13,0,0,0,0,.06l.06,0h.55a.05.05,0,0,0,0,0,0,0,0,0,0,0-.06l-.19-.58v0h0l.06,0a.79.79,0,0,0,.51.18.89.89,0,0,0,.65-.29,1,1,0,0,0,.25-.69,1.22,1.22,0,0,0-.32-.8h0a7,7,0,0,0-.82-.77h0l-.37-.31a.17.17,0,0,0-.23,0l-.37.31,0,0a6.67,6.67,0,0,0-.8.76,1.24,1.24,0,0,0-.33.8,1.05,1.05,0,0,0,.26.69.89.89,0,0,0,.65.29.79.79,0,0,0,.51-.18l0,0v0Z"/><path class="bbdd5789-8024-4cdd-a197-dfccb539ba5f" d="M4.09,9.71a.07.07,0,0,1-.06,0L3.4,9.18a.09.09,0,0,1,.11-.13l.63.51a.08.08,0,0,1,0,.12Z"/><path class="bbdd5789-8024-4cdd-a197-dfccb539ba5f" d="M4.49,10.08l-.06,0-.22-.19a.08.08,0,0,1,0-.12.09.09,0,0,1,.12,0l.22.19a.08.08,0,0,1,0,.12Z"/><path class="e8255db1-b2c3-4f80-a586-9663f939dae1" d="M56.27,81.74a8,8,0,0,0,.82.77l.38.32a.19.19,0,0,0,.26,0l.37-.32a7.25,7.25,0,0,0,.83-.77,1.26,1.26,0,0,0,.33-.81,1,1,0,0,0-.27-.71.86.86,0,0,0-.66-.29.82.82,0,0,0-.52.18.08.08,0,0,0,0,0l.2-.57a.09.09,0,0,0-.09-.11h-.55a.08.08,0,0,0-.08.11l.19.58s0,0,0,0a.84.84,0,0,0-.52-.18.88.88,0,0,0-.67.29,1,1,0,0,0-.26.71A1.21,1.21,0,0,0,56.27,81.74Z"/><path class="fc8c54df-6912-4723-b5b8-9f64a2d6b51c" d="M57.33,79.45h.55a.1.1,0,0,1,.09,0,.09.09,0,0,1,0,.1l-.17.5a.82.82,0,0,1,.52-.18.93.93,0,0,1,.68.3,1,1,0,0,1,.27.72,1.27,1.27,0,0,1-.34.82,6.84,6.84,0,0,1-.81.76l0,0-.37.32a.21.21,0,0,1-.28,0l-.37-.32h0a8.13,8.13,0,0,1-.83-.77h0a1.31,1.31,0,0,1-.33-.82,1,1,0,0,1,.27-.72.9.9,0,0,1,.68-.3.82.82,0,0,1,.53.19h0l-.17-.51a.12.12,0,0,1,0-.1A.09.09,0,0,1,57.33,79.45Zm.44.72h0s0,0,0,0l.2-.57a.07.07,0,0,0,0-.06.09.09,0,0,0-.06,0h-.55a.05.05,0,0,0,0,0,.07.07,0,0,0,0,.06l.19.58s0,0,0,0,0,0,0,0l0,0a.81.81,0,0,0-.51-.18.88.88,0,0,0-.65.28,1,1,0,0,0-.26.7,1.2,1.2,0,0,0,.32.79h0a7,7,0,0,0,.82.78h0l.37.32a.17.17,0,0,0,.23,0c.14-.11.26-.22.37-.32l0,0a6,6,0,0,0,.8-.76,1.17,1.17,0,0,0,.33-.79,1,1,0,0,0-.26-.7.88.88,0,0,0-.65-.28.79.79,0,0,0-.51.18l0,0h0Z"/><path class="bbdd5789-8024-4cdd-a197-dfccb539ba5f" d="M56.93,82l0,0,.63.52a.08.08,0,0,1,0,.12.08.08,0,0,1-.11,0l-.64-.52a.09.09,0,0,1,.06-.15Z"/><path class="bbdd5789-8024-4cdd-a197-dfccb539ba5f" d="M56.53,81.59a.06.06,0,0,1,0,0l.22.18a.09.09,0,0,1-.11.13l-.22-.18a.09.09,0,0,1,0-.12A.09.09,0,0,1,56.53,81.59Z"/><path class="e8255db1-b2c3-4f80-a586-9663f939dae1" d="M49.56,13.46a27.09,27.09,0,0,0-3.13-2.94L45,9.29a.71.71,0,0,0-1,0l-1.44,1.23a27.09,27.09,0,0,0-3.13,2.94,4.7,4.7,0,0,0-1.25,3.07,4,4,0,0,0,1,2.69,3.39,3.39,0,0,0,2.52,1.09,3.17,3.17,0,0,0,2-.68l.17-.14-.76,2.16a.32.32,0,0,0,.31.43h2.1a.33.33,0,0,0,.31-.43l-.74-2.2a1.24,1.24,0,0,0,.22.18,3.17,3.17,0,0,0,2,.68,3.39,3.39,0,0,0,2.52-1.09,4,4,0,0,0,1-2.69A4.7,4.7,0,0,0,49.56,13.46Z"/><path class="fc8c54df-6912-4723-b5b8-9f64a2d6b51c" d="M45.52,22.15h-2.1a.42.42,0,0,1-.33-.16.44.44,0,0,1-.05-.37l.68-1.91a3.27,3.27,0,0,1-2,.68,3.47,3.47,0,0,1-2.57-1.12,4.07,4.07,0,0,1-1-2.74,4.78,4.78,0,0,1,1.27-3.12,28,28,0,0,1,3.13-2.94c.39-.33.92-.78,1.44-1.24a.83.83,0,0,1,1.07,0l1.43,1.24a25.71,25.71,0,0,1,3.14,2.94h0a4.72,4.72,0,0,1,1.27,3.12,4,4,0,0,1-1,2.74,3.47,3.47,0,0,1-2.57,1.12,3.27,3.27,0,0,1-2-.7l0,0,.66,2a.39.39,0,0,1-.06.36A.4.4,0,0,1,45.52,22.15Zm-1.65-2.73,0,0a.06.06,0,0,1,0,.08l-.76,2.15a.24.24,0,0,0,0,.23.26.26,0,0,0,.21.11h2.1a.25.25,0,0,0,.2-.1.26.26,0,0,0,0-.24L45,19.48a.08.08,0,0,1,0-.09.08.08,0,0,1,.08,0l.21.18a3.1,3.1,0,0,0,1.94.66,3.3,3.3,0,0,0,2.46-1.07,3.83,3.83,0,0,0,1-2.64,4.64,4.64,0,0,0-1.23-3h0a27.63,27.63,0,0,0-3.11-2.92L44.94,9.34a.69.69,0,0,0-.88,0l-1.43,1.24a27,27,0,0,0-3.12,2.92,4.64,4.64,0,0,0-1.23,3,3.85,3.85,0,0,0,1,2.64,3.31,3.31,0,0,0,2.46,1.07,3.1,3.1,0,0,0,1.94-.66l.16-.14Z"/><path class="bbdd5789-8024-4cdd-a197-dfccb539ba5f" d="M47.06,12.64a.3.3,0,0,1-.2-.08l-2.41-2a.33.33,0,0,1,0-.45.31.31,0,0,1,.45,0l2.4,2a.32.32,0,0,1,.05.45A.33.33,0,0,1,47.06,12.64Z"/><path class="bbdd5789-8024-4cdd-a197-dfccb539ba5f" d="M48.58,14a.33.33,0,0,1-.21-.07l-.84-.71a.32.32,0,0,1,0-.45.31.31,0,0,1,.45,0l.85.71a.32.32,0,0,1-.21.56Z"/><path class="e8255db1-b2c3-4f80-a586-9663f939dae1" d="M21.65,13.46a26.29,26.29,0,0,0-3.13-2.94L17.09,9.29a.73.73,0,0,0-1,0l-1.43,1.23a26.29,26.29,0,0,0-3.13,2.94,4.7,4.7,0,0,0-1.25,3.07,4,4,0,0,0,1,2.69,3.37,3.37,0,0,0,2.52,1.09,3.19,3.19,0,0,0,2-.68l.17-.14-.76,2.16a.32.32,0,0,0,.31.43h2.09a.32.32,0,0,0,.31-.43l-.73-2.2a1.68,1.68,0,0,0,.21.18,3.19,3.19,0,0,0,2,.68,3.36,3.36,0,0,0,2.52-1.09,3.92,3.92,0,0,0,1-2.69A4.65,4.65,0,0,0,21.65,13.46Z"/><path class="fc8c54df-6912-4723-b5b8-9f64a2d6b51c" d="M17.61,22.15H15.52a.42.42,0,0,1-.33-.16.4.4,0,0,1,0-.37l.67-1.91a3.22,3.22,0,0,1-2,.68,3.46,3.46,0,0,1-2.57-1.12,4,4,0,0,1-1-2.74,4.72,4.72,0,0,1,1.27-3.12,27.13,27.13,0,0,1,3.13-2.94l1.44-1.24a.83.83,0,0,1,1.07,0l1.43,1.24a26.47,26.47,0,0,1,3.14,2.94h0A4.76,4.76,0,0,1,23,16.53a4.06,4.06,0,0,1-1,2.74,3.48,3.48,0,0,1-2.58,1.12,3.26,3.26,0,0,1-2-.7l0,0,.65,2a.39.39,0,0,1-.38.52ZM16,19.42l0,0a.07.07,0,0,1,0,.08l-.76,2.15a.27.27,0,0,0,0,.23.25.25,0,0,0,.21.11h2.09a.27.27,0,0,0,.21-.1.29.29,0,0,0,0-.24l-.74-2.19a.08.08,0,0,1,0-.09.1.1,0,0,1,.09,0l.21.18a3.09,3.09,0,0,0,1.93.66,3.34,3.34,0,0,0,2.47-1.07,3.88,3.88,0,0,0,1-2.64,4.64,4.64,0,0,0-1.23-3h0a27,27,0,0,0-3.12-2.92L17,9.34a.69.69,0,0,0-.88,0l-1.43,1.24a25.42,25.42,0,0,0-3.12,2.92,4.61,4.61,0,0,0-1.24,3,3.9,3.9,0,0,0,1,2.64,3.34,3.34,0,0,0,2.47,1.07,3.14,3.14,0,0,0,1.94-.66l.16-.14Z"/><path class="bbdd5789-8024-4cdd-a197-dfccb539ba5f" d="M19.15,12.64a.32.32,0,0,1-.2-.08l-2.4-2a.32.32,0,1,1,.41-.49l2.4,2a.33.33,0,0,1,0,.45A.3.3,0,0,1,19.15,12.64Z"/><path class="bbdd5789-8024-4cdd-a197-dfccb539ba5f" d="M20.68,14a.31.31,0,0,1-.21-.07l-.85-.71a.32.32,0,0,1,0-.45.31.31,0,0,1,.45,0l.84.71a.32.32,0,0,1-.2.56Z"/><path class="e8255db1-b2c3-4f80-a586-9663f939dae1" d="M49.56,43.69a27.1,27.1,0,0,0-3.13-2.93C46,40.39,45.5,40,45,39.52a.74.74,0,0,0-1,0c-.51.45-1,.87-1.44,1.24a27.1,27.1,0,0,0-3.13,2.93,4.72,4.72,0,0,0-1.25,3.07,3.94,3.94,0,0,0,1,2.69,3.4,3.4,0,0,0,2.52,1.1,3.17,3.17,0,0,0,2-.68l.17-.14-.76,2.15a.33.33,0,0,0,.31.44h2.1a.33.33,0,0,0,.31-.43l-.74-2.2.22.18a3.17,3.17,0,0,0,2,.68,3.4,3.4,0,0,0,2.52-1.1,3.94,3.94,0,0,0,1-2.69A4.72,4.72,0,0,0,49.56,43.69Z"/><path class="fc8c54df-6912-4723-b5b8-9f64a2d6b51c" d="M45.52,52.39h-2.1a.4.4,0,0,1-.33-.17.42.42,0,0,1-.05-.36L43.72,50a3.26,3.26,0,0,1-2,.67,3.44,3.44,0,0,1-2.57-1.12,4,4,0,0,1-1-2.74,4.77,4.77,0,0,1,1.27-3.11,27.09,27.09,0,0,1,3.13-2.94c.39-.33.92-.78,1.44-1.24a.83.83,0,0,1,1.07,0l1.43,1.23a26.5,26.5,0,0,1,3.14,2.95h0a4.72,4.72,0,0,1,1.27,3.11,4,4,0,0,1-1,2.74,3.44,3.44,0,0,1-2.57,1.12,3.21,3.21,0,0,1-2-.7h0l.66,2a.41.41,0,0,1-.06.37A.4.4,0,0,1,45.52,52.39Zm-1.65-2.73h0a.07.07,0,0,1,0,.08l-.76,2.16a.24.24,0,0,0,0,.23.26.26,0,0,0,.21.11h2.1a.23.23,0,0,0,.2-.11.24.24,0,0,0,0-.23L45,49.71a.07.07,0,0,1,0-.08.06.06,0,0,1,.08,0l.21.17a3,3,0,0,0,1.94.67,3.3,3.3,0,0,0,2.46-1.07,3.86,3.86,0,0,0,1-2.65,4.64,4.64,0,0,0-1.23-3h0a27.63,27.63,0,0,0-3.11-2.92l-1.45-1.24a.67.67,0,0,0-.88,0c-.52.46-1.05.91-1.43,1.23a27.85,27.85,0,0,0-3.12,2.93,4.62,4.62,0,0,0-1.23,3,3.86,3.86,0,0,0,1,2.65,3.31,3.31,0,0,0,2.46,1.07,3,3,0,0,0,1.94-.67l.16-.13Z"/><path class="bbdd5789-8024-4cdd-a197-dfccb539ba5f" d="M47.06,42.87a.29.29,0,0,1-.2-.07l-2.41-2a.33.33,0,0,1,0-.45.32.32,0,0,1,.45,0l2.4,2a.32.32,0,0,1,.05.45A.33.33,0,0,1,47.06,42.87Z"/><path class="bbdd5789-8024-4cdd-a197-dfccb539ba5f" d="M48.58,44.26a.34.34,0,0,1-.21-.08l-.84-.71a.32.32,0,0,1,0-.45.33.33,0,0,1,.45,0l.85.71a.32.32,0,0,1,0,.45A.3.3,0,0,1,48.58,44.26Z"/><path class="e8255db1-b2c3-4f80-a586-9663f939dae1" d="M21.65,43.69a26.3,26.3,0,0,0-3.13-2.93l-1.43-1.24a.76.76,0,0,0-1,0l-1.43,1.24a26.3,26.3,0,0,0-3.13,2.93,4.72,4.72,0,0,0-1.25,3.07,3.94,3.94,0,0,0,1,2.69,3.38,3.38,0,0,0,2.52,1.1,3.19,3.19,0,0,0,2-.68l.17-.14-.76,2.15a.33.33,0,0,0,.31.44h2.09a.32.32,0,0,0,.31-.43l-.73-2.2.21.18a3.19,3.19,0,0,0,2,.68,3.37,3.37,0,0,0,2.52-1.1,3.89,3.89,0,0,0,1-2.69A4.67,4.67,0,0,0,21.65,43.69Z"/><path class="fc8c54df-6912-4723-b5b8-9f64a2d6b51c" d="M17.61,52.39H15.52a.4.4,0,0,1-.33-.17.38.38,0,0,1,0-.36L15.81,50a3.21,3.21,0,0,1-2,.67,3.42,3.42,0,0,1-2.57-1.12,4,4,0,0,1-1-2.74,4.72,4.72,0,0,1,1.27-3.11,26.29,26.29,0,0,1,3.13-2.94l1.44-1.24a.83.83,0,0,1,1.07,0l1.43,1.23a27.31,27.31,0,0,1,3.14,2.95h0A4.76,4.76,0,0,1,23,46.76a4,4,0,0,1-1,2.74,3.44,3.44,0,0,1-2.58,1.12,3.2,3.2,0,0,1-2-.7h0l.65,2a.44.44,0,0,1,0,.37A.42.42,0,0,1,17.61,52.39ZM16,49.66h0a.08.08,0,0,1,0,.08l-.76,2.16a.27.27,0,0,0,0,.23.25.25,0,0,0,.21.11h2.09a.25.25,0,0,0,.21-.11.27.27,0,0,0,0-.23l-.74-2.2a.07.07,0,0,1,0-.08.08.08,0,0,1,.09,0,1.73,1.73,0,0,0,.21.17,3,3,0,0,0,1.93.67,3.34,3.34,0,0,0,2.47-1.07,3.9,3.9,0,0,0,1-2.65,4.64,4.64,0,0,0-1.23-3h0a27,27,0,0,0-3.12-2.92L17,39.58a.67.67,0,0,0-.88,0l-1.43,1.23a26.2,26.2,0,0,0-3.12,2.93,4.58,4.58,0,0,0-1.24,3,3.9,3.9,0,0,0,1,2.65,3.34,3.34,0,0,0,2.47,1.07,3.09,3.09,0,0,0,1.94-.67l.16-.13Z"/><path class="bbdd5789-8024-4cdd-a197-dfccb539ba5f" d="M19.15,42.87a.31.31,0,0,1-.2-.07l-2.4-2a.32.32,0,0,1-.05-.45.33.33,0,0,1,.46,0l2.4,2a.33.33,0,0,1,0,.45A.3.3,0,0,1,19.15,42.87Z"/><path class="bbdd5789-8024-4cdd-a197-dfccb539ba5f" d="M20.68,44.26a.32.32,0,0,1-.21-.08l-.85-.71a.32.32,0,0,1,0-.45A.33.33,0,0,1,20,43l.84.71a.32.32,0,0,1,0,.45A.3.3,0,0,1,20.68,44.26Z"/><path class="e8255db1-b2c3-4f80-a586-9663f939dae1" d="M49.56,73.8a28,28,0,0,0-3.13-2.94L45,69.63a.74.74,0,0,0-1,0l-1.44,1.23a28,28,0,0,0-3.13,2.94,4.7,4.7,0,0,0-1.25,3.07,4,4,0,0,0,1,2.69,3.4,3.4,0,0,0,2.52,1.1,3.12,3.12,0,0,0,2-.69l.17-.13L43.11,82a.32.32,0,0,0,.31.43h2.1a.33.33,0,0,0,.31-.43l-.74-2.19a1.84,1.84,0,0,0,.22.17,3.12,3.12,0,0,0,2,.69,3.4,3.4,0,0,0,2.52-1.1,4,4,0,0,0,1-2.69A4.7,4.7,0,0,0,49.56,73.8Z"/><path class="fc8c54df-6912-4723-b5b8-9f64a2d6b51c" d="M45.52,82.5h-2.1a.43.43,0,0,1-.33-.17A.44.44,0,0,1,43,82l.68-1.91a3.27,3.27,0,0,1-2,.68,3.47,3.47,0,0,1-2.57-1.12,4,4,0,0,1-1-2.74,4.81,4.81,0,0,1,1.27-3.12,27.1,27.1,0,0,1,3.13-2.93c.39-.34.92-.78,1.44-1.25a.84.84,0,0,1,1.07,0l1.43,1.23a26.51,26.51,0,0,1,3.14,2.94h0a4.76,4.76,0,0,1,1.27,3.12,4,4,0,0,1-1,2.74,3.47,3.47,0,0,1-2.57,1.12,3.27,3.27,0,0,1-2-.7l0,0,.66,2a.39.39,0,0,1-.06.36A.39.39,0,0,1,45.52,82.5Zm-1.65-2.74,0,0a.07.07,0,0,1,0,.08L43.18,82a.26.26,0,0,0,0,.24.28.28,0,0,0,.21.1h2.1a.25.25,0,0,0,.2-.1.26.26,0,0,0,0-.24L45,79.82a.06.06,0,0,1,0-.08.06.06,0,0,1,.08,0l.21.18a3.11,3.11,0,0,0,1.94.67,3.31,3.31,0,0,0,2.46-1.08,3.81,3.81,0,0,0,1-2.64,4.6,4.6,0,0,0-1.23-3h0a26.74,26.74,0,0,0-3.11-2.93l-1.45-1.24a.69.69,0,0,0-.88,0l-1.43,1.24a26.12,26.12,0,0,0-3.12,2.93,4.6,4.6,0,0,0-1.23,3,3.81,3.81,0,0,0,1,2.64,3.32,3.32,0,0,0,2.46,1.08,3.11,3.11,0,0,0,1.94-.67l.16-.14Z"/><path class="bbdd5789-8024-4cdd-a197-dfccb539ba5f" d="M47.06,73a.35.35,0,0,1-.2-.07l-2.41-2a.32.32,0,1,1,.41-.49l2.4,2a.32.32,0,0,1,.05.45A.33.33,0,0,1,47.06,73Z"/><path class="bbdd5789-8024-4cdd-a197-dfccb539ba5f" d="M48.58,74.36a.33.33,0,0,1-.21-.07l-.84-.71a.32.32,0,1,1,.41-.49l.85.71a.32.32,0,0,1,0,.45A.29.29,0,0,1,48.58,74.36Z"/><path class="e8255db1-b2c3-4f80-a586-9663f939dae1" d="M21.65,73.8a27.13,27.13,0,0,0-3.13-2.94l-1.43-1.23a.76.76,0,0,0-1,0l-1.43,1.23a27.13,27.13,0,0,0-3.13,2.94,4.7,4.7,0,0,0-1.25,3.07,4,4,0,0,0,1,2.69,3.38,3.38,0,0,0,2.52,1.1,3.14,3.14,0,0,0,2-.69l.17-.13L15.21,82a.32.32,0,0,0,.31.43h2.09a.32.32,0,0,0,.31-.43l-.73-2.19.21.17a3.14,3.14,0,0,0,2,.69,3.37,3.37,0,0,0,2.52-1.1,3.91,3.91,0,0,0,1-2.69A4.65,4.65,0,0,0,21.65,73.8Z"/><path class="fc8c54df-6912-4723-b5b8-9f64a2d6b51c" d="M17.61,82.5H15.52a.43.43,0,0,1-.33-.17.4.4,0,0,1,0-.37l.67-1.91a3.22,3.22,0,0,1-2,.68,3.46,3.46,0,0,1-2.57-1.12,4,4,0,0,1-1-2.74,4.76,4.76,0,0,1,1.27-3.12,26.3,26.3,0,0,1,3.13-2.93l1.44-1.25a.84.84,0,0,1,1.07,0l1.43,1.23a27.32,27.32,0,0,1,3.14,2.94h0A4.8,4.8,0,0,1,23,76.87a4,4,0,0,1-1,2.74,3.48,3.48,0,0,1-2.58,1.12,3.26,3.26,0,0,1-2-.7l0,0L18,82a.42.42,0,0,1,0,.36A.4.4,0,0,1,17.61,82.5ZM16,79.76l0,0a.08.08,0,0,1,0,.08L15.27,82a.29.29,0,0,0,0,.24.27.27,0,0,0,.21.1h2.09a.27.27,0,0,0,.21-.1.29.29,0,0,0,0-.24l-.74-2.19a.06.06,0,0,1,0-.08.07.07,0,0,1,.09,0l.21.18a3.1,3.1,0,0,0,1.93.67,3.34,3.34,0,0,0,2.47-1.08,3.86,3.86,0,0,0,1-2.64,4.6,4.6,0,0,0-1.23-3h0a26.12,26.12,0,0,0-3.12-2.93L17,69.68a.69.69,0,0,0-.88,0l-1.43,1.24a24.66,24.66,0,0,0-3.12,2.93,4.56,4.56,0,0,0-1.24,3,3.86,3.86,0,0,0,1,2.64,3.34,3.34,0,0,0,2.47,1.08,3.15,3.15,0,0,0,1.94-.67l.16-.14Z"/><path class="bbdd5789-8024-4cdd-a197-dfccb539ba5f" d="M19.15,73a.37.37,0,0,1-.2-.07l-2.4-2a.32.32,0,0,1-.05-.45.34.34,0,0,1,.46,0l2.4,2a.33.33,0,0,1,0,.45A.3.3,0,0,1,19.15,73Z"/><path class="bbdd5789-8024-4cdd-a197-dfccb539ba5f" d="M20.68,74.36a.31.31,0,0,1-.21-.07l-.85-.71a.32.32,0,0,1,.42-.49l.84.71a.32.32,0,0,1,0,.45A.29.29,0,0,1,20.68,74.36Z"/><path class="e8255db1-b2c3-4f80-a586-9663f939dae1" d="M35.6,58.54a26.12,26.12,0,0,0-3.12-2.93c-.44-.37-.93-.79-1.44-1.24a.72.72,0,0,0-.49-.18.7.7,0,0,0-.48.18c-.51.45-1,.87-1.44,1.24a27.1,27.1,0,0,0-3.13,2.93,4.72,4.72,0,0,0-1.25,3.07,4,4,0,0,0,1,2.69,3.38,3.38,0,0,0,2.52,1.1,3.17,3.17,0,0,0,2-.68l.17-.14-.76,2.15a.33.33,0,0,0,.31.44h2.09a.33.33,0,0,0,.32-.43l-.74-2.2.21.18a3.21,3.21,0,0,0,2,.68,3.37,3.37,0,0,0,2.52-1.1,3.91,3.91,0,0,0,1-2.69A4.67,4.67,0,0,0,35.6,58.54Z"/><path class="fc8c54df-6912-4723-b5b8-9f64a2d6b51c" d="M31.56,67.24H29.47a.4.4,0,0,1-.33-.17.42.42,0,0,1-.05-.36l.68-1.91a3.26,3.26,0,0,1-2,.67,3.47,3.47,0,0,1-2.57-1.12,4,4,0,0,1-1-2.74,4.72,4.72,0,0,1,1.27-3.11,25.5,25.5,0,0,1,3.13-2.94L30,54.32a.83.83,0,0,1,1.07,0l1.43,1.23a26.46,26.46,0,0,1,3.14,3h0a4.77,4.77,0,0,1,1.27,3.11,4,4,0,0,1-1,2.74,3.48,3.48,0,0,1-2.58,1.12,3.2,3.2,0,0,1-2-.7h0l.65,1.95a.41.41,0,0,1-.05.36A.4.4,0,0,1,31.56,67.24Zm-1.64-2.73h0s0,0,0,.08l-.75,2.15a.26.26,0,0,0,0,.24.25.25,0,0,0,.21.11h2.09a.25.25,0,0,0,.21-.11.27.27,0,0,0,0-.23l-.74-2.2a.11.11,0,0,1,0-.08.07.07,0,0,1,.09,0l.21.17a3.1,3.1,0,0,0,1.93.67,3.32,3.32,0,0,0,2.47-1.07,3.9,3.9,0,0,0,1-2.65,4.62,4.62,0,0,0-1.23-3h0a25.92,25.92,0,0,0-3.11-2.92L31,54.43a.67.67,0,0,0-.88,0c-.52.46-1.05.9-1.43,1.23a27,27,0,0,0-3.12,2.93,4.63,4.63,0,0,0-1.24,3,3.9,3.9,0,0,0,1,2.65,3.34,3.34,0,0,0,2.47,1.07,3.13,3.13,0,0,0,1.94-.67l.16-.13S29.9,64.51,29.92,64.51Z"/><path class="bbdd5789-8024-4cdd-a197-dfccb539ba5f" d="M33.11,57.72a.31.31,0,0,1-.21-.07l-2.4-2a.32.32,0,0,1,.41-.5l2.4,2a.31.31,0,0,1,0,.45A.3.3,0,0,1,33.11,57.72Z"/><path class="bbdd5789-8024-4cdd-a197-dfccb539ba5f" d="M34.63,59.11a.32.32,0,0,1-.21-.08l-.84-.71a.31.31,0,0,1,0-.45.33.33,0,0,1,.45,0l.84.71a.31.31,0,0,1,0,.45A.3.3,0,0,1,34.63,59.11Z"/><path class="e8255db1-b2c3-4f80-a586-9663f939dae1" d="M35.6,28.65a27,27,0,0,0-3.12-2.94c-.44-.37-.93-.78-1.44-1.23a.72.72,0,0,0-.49-.18.7.7,0,0,0-.48.18l-1.44,1.23a28,28,0,0,0-3.13,2.94,4.7,4.7,0,0,0-1.25,3.07,4,4,0,0,0,1,2.69,3.38,3.38,0,0,0,2.52,1.1,3.12,3.12,0,0,0,2-.69l.17-.13-.76,2.15a.32.32,0,0,0,.31.43h2.09a.33.33,0,0,0,.32-.43l-.74-2.19.21.17a3.16,3.16,0,0,0,2,.69,3.37,3.37,0,0,0,2.52-1.1,3.91,3.91,0,0,0,1-2.69A4.65,4.65,0,0,0,35.6,28.65Z"/><path class="fc8c54df-6912-4723-b5b8-9f64a2d6b51c" d="M31.56,37.35H29.47a.43.43,0,0,1-.33-.17.44.44,0,0,1-.05-.37l.68-1.91a3.27,3.27,0,0,1-2,.68,3.47,3.47,0,0,1-2.57-1.12,4,4,0,0,1-1-2.74,4.76,4.76,0,0,1,1.27-3.12,26.3,26.3,0,0,1,3.13-2.93L30,24.42a.84.84,0,0,1,1.07,0l1.43,1.23a27.32,27.32,0,0,1,3.14,2.94h0a4.81,4.81,0,0,1,1.27,3.12,4,4,0,0,1-1,2.74,3.48,3.48,0,0,1-2.58,1.12,3.26,3.26,0,0,1-2-.7l0,0,.65,2a.42.42,0,0,1-.05.36A.4.4,0,0,1,31.56,37.35Zm-1.64-2.73h0s0,0,0,.08l-.75,2.15a.26.26,0,0,0,0,.24.27.27,0,0,0,.21.1h2.09a.27.27,0,0,0,.21-.1.29.29,0,0,0,0-.24l-.74-2.19a.11.11,0,0,1,0-.08.07.07,0,0,1,.09,0l.21.18a3.1,3.1,0,0,0,1.93.67,3.33,3.33,0,0,0,2.47-1.08,3.86,3.86,0,0,0,1-2.64,4.6,4.6,0,0,0-1.23-3h0a26.74,26.74,0,0,0-3.11-2.93c-.46-.39-.95-.8-1.45-1.24a.69.69,0,0,0-.88,0l-1.43,1.24a25.37,25.37,0,0,0-3.12,2.93,4.62,4.62,0,0,0-1.24,3,3.86,3.86,0,0,0,1,2.64,3.34,3.34,0,0,0,2.47,1.08,3.13,3.13,0,0,0,1.94-.67l.16-.14Z"/><path class="bbdd5789-8024-4cdd-a197-dfccb539ba5f" d="M33.11,27.83a.38.38,0,0,1-.21-.07l-2.4-2a.32.32,0,0,1,0-.45.33.33,0,0,1,.45,0l2.4,2a.31.31,0,0,1,0,.45A.3.3,0,0,1,33.11,27.83Z"/><path class="bbdd5789-8024-4cdd-a197-dfccb539ba5f" d="M34.63,29.21a.31.31,0,0,1-.21-.07l-.84-.71a.31.31,0,0,1,0-.45.32.32,0,0,1,.45,0l.84.71a.31.31,0,0,1,0,.45A.29.29,0,0,1,34.63,29.21Z"/></g></g></svg>