<svg xmlns="http://www.w3.org/2000/svg" viewBox="0 0 61.11 91.54"><defs><style>.f4bb275d-2e45-40fb-ad81-10f4ea651fb5{fill:none;}.a92373f6-bea4-4a05-897a-50cc69514b24{fill:#adadad;}.e89f34ca-a677-4eb9-a00d-b29b45b940d7{fill:#363026;}.ffdb355d-1e04-4a82-81b8-608c702909e5{fill:#716b61;}.a3754de6-c4f6-47a5-baf2-1c649fd5925c{fill:#453f31;}.e6e320bd-75b6-46aa-8bbb-1c8046b391a6{fill:#aaa194;}</style></defs><title>P_3</title><g id="a7ea13b2-4cd4-439b-8fd3-e144d30cf695" data-name="Capa 2"><g id="a8d9686a-9de0-43fb-b44a-361b4987842c" data-name="Objects"><rect class="f4bb275d-2e45-40fb-ad81-10f4ea651fb5" x="0.13" y="0.12" width="60.86" height="91.29" rx="2.4"/><path class="a92373f6-bea4-4a05-897a-50cc69514b24" d="M58.59,91.54H2.52A2.53,2.53,0,0,1,0,89V2.52A2.52,2.52,0,0,1,2.52,0H58.59a2.52,2.52,0,0,1,2.52,2.52V89A2.53,2.53,0,0,1,58.59,91.54ZM2.52.25A2.27,2.27,0,0,0,.25,2.52V89a2.28,2.28,0,0,0,2.27,2.28H58.59A2.28,2.28,0,0,0,60.86,89V2.52A2.27,2.27,0,0,0,58.59.25Z"/><path class="e89f34ca-a677-4eb9-a00d-b29b45b940d7" d="M2,7.57l.1,0a.38.38,0,0,1,.13.08A1.19,1.19,0,0,0,2.7,8a1.77,1.77,0,0,0,.63.11,1.69,1.69,0,0,0,.84-.21A1.6,1.6,0,0,0,5,6.45a1.48,1.48,0,0,0-.24-.88,1.55,1.55,0,0,0-.61-.5,1.91,1.91,0,0,0-.77-.17l-.2,0L3,5,2.86,5a.25.25,0,0,1-.18-.08.27.27,0,0,1-.07-.2.37.37,0,0,1,0-.12l.07-.1L4.64,2.31l.11.15H1.88a.24.24,0,0,1-.19-.08.22.22,0,0,1-.08-.19A.22.22,0,0,1,1.69,2a.27.27,0,0,1,.19-.08H5.06a.27.27,0,0,1,.23.1.41.41,0,0,1,.06.2.43.43,0,0,1,0,.11l-.07.1L3.34,4.57l-.21-.12a.44.44,0,0,1,.19-.06,1.66,1.66,0,0,1,.26,0,2.13,2.13,0,0,1,1,.25,1.81,1.81,0,0,1,.74.71,2.08,2.08,0,0,1,.29,1.13,2.17,2.17,0,0,1-.31,1.15,2.15,2.15,0,0,1-.84.77,2.41,2.41,0,0,1-1.17.28,2.54,2.54,0,0,1-.77-.13,2,2,0,0,1-.66-.4A.35.35,0,0,1,1.74,8a.2.2,0,0,1,0-.11.37.37,0,0,1,.08-.21A.24.24,0,0,1,2,7.57Z"/><path class="e89f34ca-a677-4eb9-a00d-b29b45b940d7" d="M59.11,84,59,84l-.13-.09a1.27,1.27,0,0,0-.46-.32,1.93,1.93,0,0,0-1.47.1,1.57,1.57,0,0,0-.61.59,1.51,1.51,0,0,0-.23.85,1.46,1.46,0,0,0,.24.88,1.43,1.43,0,0,0,.61.51,1.9,1.9,0,0,0,.77.16h.2l.18,0h.14a.22.22,0,0,1,.19.08.32.32,0,0,1,.07.2.2.2,0,0,1,0,.11.49.49,0,0,1-.07.11l-1.94,2.15-.1-.15h2.87a.27.27,0,0,1,.19.08.28.28,0,0,1,.08.2.25.25,0,0,1-.08.18.27.27,0,0,1-.19.08H56.05c-.12,0-.19,0-.23-.1a.37.37,0,0,1-.07-.19.2.2,0,0,1,0-.11.23.23,0,0,1,.07-.1L57.77,87l.21.13a.67.67,0,0,1-.19.06l-.27,0a2,2,0,0,1-1-.25,1.94,1.94,0,0,1-.75-.7,2.37,2.37,0,0,1,0-2.29,2.15,2.15,0,0,1,.84-.77,2.51,2.51,0,0,1,1.16-.27,2.28,2.28,0,0,1,.78.13,1.91,1.91,0,0,1,.65.4.29.29,0,0,1,.11.11.26.26,0,0,1,0,.11.33.33,0,0,1-.09.22A.26.26,0,0,1,59.11,84Z"/><path class="ffdb355d-1e04-4a82-81b8-608c702909e5" d="M5.14,10.07a6.45,6.45,0,0,0-.83-.77L3.94,9a.24.24,0,0,0-.13-.05A.19.19,0,0,0,3.68,9L3.3,9.3a7,7,0,0,0-.82.77,1.21,1.21,0,0,0-.33.81,1.05,1.05,0,0,0,.26.71.91.91,0,0,0,.66.28.85.85,0,0,0,.53-.18l0,0-.2.56a.09.09,0,0,0,.08.12h.55a.08.08,0,0,0,.08-.11L4,11.65l.06,0a.82.82,0,0,0,.52.18.91.91,0,0,0,.66-.28,1.06,1.06,0,0,0,.27-.71A1.26,1.26,0,0,0,5.14,10.07Z"/><path class="a3754de6-c4f6-47a5-baf2-1c649fd5925c" d="M4.07,12.36H3.52a.1.1,0,0,1-.08,0,.08.08,0,0,1,0-.09l.18-.5a.9.9,0,0,1-.53.17.88.88,0,0,1-.67-.29,1,1,0,0,1-.27-.72,1.27,1.27,0,0,1,.33-.82,6.84,6.84,0,0,1,.81-.76l0,0L3.67,9A.21.21,0,0,1,4,9c.13.11.25.22.37.31h0a6.45,6.45,0,0,1,.83.78h0a1.22,1.22,0,0,1,.33.82,1.08,1.08,0,0,1-.26.72.92.92,0,0,1-.68.29A.83.83,0,0,1,4,11.71H4l.17.51a.09.09,0,0,1,0,.09A.11.11,0,0,1,4.07,12.36Zm-.43-.72h0v0l-.2.57a0,0,0,0,0,0,.06.05.05,0,0,0,0,0h.55a.07.07,0,0,0,.06,0,.13.13,0,0,0,0-.06l-.2-.58v0H4l.06,0a.79.79,0,0,0,.51.18.86.86,0,0,0,.65-.29,1,1,0,0,0,.26-.69,1.24,1.24,0,0,0-.33-.8h0a7,7,0,0,0-.82-.77h0L3.92,9a.17.17,0,0,0-.23,0l-.37.31,0,0a6.84,6.84,0,0,0-.81.76,1.22,1.22,0,0,0-.32.8,1,1,0,0,0,.25.69.86.86,0,0,0,.65.29.79.79,0,0,0,.51-.18l0,0,0,0Z"/><path class="e6e320bd-75b6-46aa-8bbb-1c8046b391a6" d="M4.48,9.85s0,0-.05,0l-.64-.51a.09.09,0,0,1,0-.12.08.08,0,0,1,.12,0l.63.51a.08.08,0,0,1,0,.12A.07.07,0,0,1,4.48,9.85Z"/><path class="e6e320bd-75b6-46aa-8bbb-1c8046b391a6" d="M4.88,10.22l0,0L4.6,10a.09.09,0,0,1,0-.12.09.09,0,0,1,.12,0l.22.19a.08.08,0,0,1,0,.12A.07.07,0,0,1,4.88,10.22Z"/><path class="ffdb355d-1e04-4a82-81b8-608c702909e5" d="M56,81.63a8,8,0,0,0,.82.77l.38.32a.19.19,0,0,0,.26,0l.38-.32a8,8,0,0,0,.82-.77,1.26,1.26,0,0,0,.33-.81,1,1,0,0,0-.26-.71.9.9,0,0,0-.67-.29.84.84,0,0,0-.52.18s0,0,0,0l.2-.57a.08.08,0,0,0-.08-.11H57a.08.08,0,0,0-.08.11l.2.58-.06,0a.82.82,0,0,0-.52-.18.86.86,0,0,0-.66.29,1,1,0,0,0-.27.71A1.26,1.26,0,0,0,56,81.63Z"/><path class="a3754de6-c4f6-47a5-baf2-1c649fd5925c" d="M57,79.34h.56a.09.09,0,0,1,.08,0,.12.12,0,0,1,0,.1l-.18.5A.82.82,0,0,1,58,79.8a.93.93,0,0,1,.68.3,1.07,1.07,0,0,1,.27.72,1.27,1.27,0,0,1-.34.82,6.67,6.67,0,0,1-.8.76l0,0-.37.32a.21.21,0,0,1-.28,0l-.37-.32h0a7,7,0,0,1-.82-.77h0a1.27,1.27,0,0,1-.34-.82,1,1,0,0,1,.27-.72.93.93,0,0,1,.68-.3.82.82,0,0,1,.53.19h0l-.18-.51a.12.12,0,0,1,0-.1A.09.09,0,0,1,57,79.34Zm.44.72h0s0,0,0,0l.2-.57a.07.07,0,0,0,0-.06.09.09,0,0,0,0,0H57a.05.05,0,0,0-.05,0,.07.07,0,0,0,0,.06l.19.58a0,0,0,0,1,0,0h0l-.05,0a.79.79,0,0,0-.51-.18.88.88,0,0,0-.65.28,1,1,0,0,0-.26.7,1.17,1.17,0,0,0,.33.79h0a6.29,6.29,0,0,0,.82.78h0l.36.32a.18.18,0,0,0,.24,0l.36-.32,0,0a6.84,6.84,0,0,0,.81-.76,1.2,1.2,0,0,0,.32-.79,1,1,0,0,0-.26-.7.88.88,0,0,0-.65-.28.79.79,0,0,0-.51.18l0,0h0Z"/><path class="e6e320bd-75b6-46aa-8bbb-1c8046b391a6" d="M56.63,81.84l0,0,.63.52a.08.08,0,0,1,0,.12.09.09,0,0,1-.12,0L56.58,82a.08.08,0,0,1,0-.12A.09.09,0,0,1,56.63,81.84Z"/><path class="e6e320bd-75b6-46aa-8bbb-1c8046b391a6" d="M56.23,81.48s0,0,.05,0l.22.18a.08.08,0,0,1,0,.12.08.08,0,0,1-.12,0l-.23-.18a.09.09,0,0,1,0-.12A.09.09,0,0,1,56.23,81.48Z"/><path class="ffdb355d-1e04-4a82-81b8-608c702909e5" d="M35.6,13.77a26.12,26.12,0,0,0-3.12-2.94L31,9.6a.73.73,0,0,0-.49-.19.71.71,0,0,0-.48.19l-1.44,1.23a27.09,27.09,0,0,0-3.13,2.94,4.7,4.7,0,0,0-1.25,3.07,4,4,0,0,0,1,2.69,3.41,3.41,0,0,0,2.52,1.09,3.17,3.17,0,0,0,2-.68l.17-.14L29.16,22a.33.33,0,0,0,.31.44h2.09a.33.33,0,0,0,.32-.43l-.74-2.2.21.18a3.21,3.21,0,0,0,2,.68,3.39,3.39,0,0,0,2.52-1.09,3.92,3.92,0,0,0,1-2.69A4.65,4.65,0,0,0,35.6,13.77Z"/><path class="a3754de6-c4f6-47a5-baf2-1c649fd5925c" d="M31.56,22.46H29.47a.4.4,0,0,1-.33-.17.42.42,0,0,1-.05-.36L29.77,20a3.26,3.26,0,0,1-2,.67,3.44,3.44,0,0,1-2.57-1.12,4,4,0,0,1-1-2.73,4.72,4.72,0,0,1,1.27-3.12,26.29,26.29,0,0,1,3.13-2.94L30,9.54a.83.83,0,0,1,1.07,0l1.43,1.24a26.47,26.47,0,0,1,3.14,2.94h0a4.78,4.78,0,0,1,1.27,3.12,4,4,0,0,1-1,2.73,3.44,3.44,0,0,1-2.58,1.12,3.25,3.25,0,0,1-2-.69l0,0,.65,2a.39.39,0,0,1-.38.52Zm-1.64-2.73h0a.08.08,0,0,1,0,.09L29.23,22a.24.24,0,0,0,0,.23.25.25,0,0,0,.21.11h2.09a.25.25,0,0,0,.21-.11.26.26,0,0,0,0-.23l-.74-2.19a.12.12,0,0,1,0-.09.09.09,0,0,1,.09,0l.21.17a3,3,0,0,0,1.93.67,3.32,3.32,0,0,0,2.47-1.07,3.9,3.9,0,0,0,1-2.64,4.64,4.64,0,0,0-1.23-3h0a27.63,27.63,0,0,0-3.11-2.92c-.46-.39-.95-.8-1.45-1.24a.68.68,0,0,0-.88,0c-.52.46-1.05.91-1.43,1.23a27,27,0,0,0-3.12,2.93,4.66,4.66,0,0,0-1.24,3,3.9,3.9,0,0,0,1,2.64,3.34,3.34,0,0,0,2.47,1.07,3.07,3.07,0,0,0,1.94-.67l.16-.13Z"/><path class="e6e320bd-75b6-46aa-8bbb-1c8046b391a6" d="M33.11,12.94a.31.31,0,0,1-.21-.07l-2.4-2a.32.32,0,0,1,.41-.5l2.4,2a.31.31,0,0,1,0,.45A.32.32,0,0,1,33.11,12.94Z"/><path class="e6e320bd-75b6-46aa-8bbb-1c8046b391a6" d="M34.63,14.33a.31.31,0,0,1-.21-.07l-.84-.71a.32.32,0,0,1,0-.46.32.32,0,0,1,.45,0l.84.71a.31.31,0,0,1,0,.45A.32.32,0,0,1,34.63,14.33Z"/><path class="ffdb355d-1e04-4a82-81b8-608c702909e5" d="M35.6,75.64a27,27,0,0,0-3.12-2.94c-.44-.36-.93-.78-1.44-1.23a.72.72,0,0,0-.49-.18.7.7,0,0,0-.48.18c-.51.45-1,.87-1.44,1.24a27.1,27.1,0,0,0-3.13,2.93,4.72,4.72,0,0,0-1.25,3.07,4,4,0,0,0,1,2.69,3.38,3.38,0,0,0,2.52,1.1,3.17,3.17,0,0,0,2-.68l.17-.14-.76,2.15a.33.33,0,0,0,.31.44h2.09a.33.33,0,0,0,.32-.44l-.74-2.19.21.18a3.21,3.21,0,0,0,2,.68,3.37,3.37,0,0,0,2.52-1.1,3.91,3.91,0,0,0,1-2.69A4.67,4.67,0,0,0,35.6,75.64Z"/><path class="a3754de6-c4f6-47a5-baf2-1c649fd5925c" d="M31.56,84.34H29.47a.4.4,0,0,1-.33-.17.42.42,0,0,1-.05-.36l.68-1.91a3.32,3.32,0,0,1-2,.67,3.47,3.47,0,0,1-2.57-1.12,4,4,0,0,1-1-2.74,4.72,4.72,0,0,1,1.27-3.11,25.5,25.5,0,0,1,3.13-2.94L30,71.42a.83.83,0,0,1,1.07,0l1.43,1.23a26.46,26.46,0,0,1,3.14,2.95h0a4.77,4.77,0,0,1,1.27,3.11,4,4,0,0,1-1,2.74,3.48,3.48,0,0,1-2.58,1.12,3.26,3.26,0,0,1-2-.7h0l.65,2a.41.41,0,0,1-.05.36A.4.4,0,0,1,31.56,84.34Zm-1.64-2.73h0s0,0,0,.08l-.75,2.15a.26.26,0,0,0,0,.24.25.25,0,0,0,.21.11h2.09a.25.25,0,0,0,.21-.11.27.27,0,0,0,0-.23l-.74-2.2a.11.11,0,0,1,0-.08.06.06,0,0,1,.09,0l.21.17a3.1,3.1,0,0,0,1.93.67,3.29,3.29,0,0,0,2.47-1.08,3.86,3.86,0,0,0,1-2.64,4.6,4.6,0,0,0-1.23-3h0a26.74,26.74,0,0,0-3.11-2.93c-.46-.39-.95-.8-1.45-1.24a.69.69,0,0,0-.88,0l-1.43,1.24a25.37,25.37,0,0,0-3.12,2.93,4.62,4.62,0,0,0-1.24,3,3.86,3.86,0,0,0,1,2.64,3.31,3.31,0,0,0,2.47,1.08,3.13,3.13,0,0,0,1.94-.67l.16-.14Z"/><path class="e6e320bd-75b6-46aa-8bbb-1c8046b391a6" d="M33.11,74.82a.31.31,0,0,1-.21-.07l-2.4-2a.32.32,0,0,1,.41-.5l2.4,2a.31.31,0,0,1,0,.45A.3.3,0,0,1,33.11,74.82Z"/><path class="e6e320bd-75b6-46aa-8bbb-1c8046b391a6" d="M34.63,76.21a.32.32,0,0,1-.21-.08l-.84-.71a.31.31,0,0,1,0-.45.32.32,0,0,1,.45,0l.84.71a.31.31,0,0,1,0,.45A.3.3,0,0,1,34.63,76.21Z"/><path class="ffdb355d-1e04-4a82-81b8-608c702909e5" d="M35.6,44.24a26.12,26.12,0,0,0-3.12-2.94c-.44-.37-.93-.79-1.44-1.24a.78.78,0,0,0-.49-.18.75.75,0,0,0-.48.18c-.51.45-1,.87-1.44,1.24a27.09,27.09,0,0,0-3.13,2.94,4.68,4.68,0,0,0-1.25,3.07,4,4,0,0,0,1,2.69,3.41,3.41,0,0,0,2.52,1.09,3.17,3.17,0,0,0,2-.68l.17-.14-.76,2.15a.33.33,0,0,0,.31.44h2.09a.33.33,0,0,0,.32-.43l-.74-2.2.21.18a3.21,3.21,0,0,0,2,.68A3.39,3.39,0,0,0,35.85,50a3.92,3.92,0,0,0,1-2.69A4.63,4.63,0,0,0,35.6,44.24Z"/><path class="a3754de6-c4f6-47a5-baf2-1c649fd5925c" d="M31.56,52.93H29.47a.4.4,0,0,1-.33-.17.42.42,0,0,1-.05-.36l.68-1.91a3.26,3.26,0,0,1-2,.67A3.44,3.44,0,0,1,25.2,50a4,4,0,0,1-1-2.73,4.72,4.72,0,0,1,1.27-3.12,26.29,26.29,0,0,1,3.13-2.94L30,40a.83.83,0,0,1,1.07,0l1.43,1.24a26.47,26.47,0,0,1,3.14,2.94h0a4.78,4.78,0,0,1,1.27,3.12,4,4,0,0,1-1,2.73,3.44,3.44,0,0,1-2.58,1.12,3.25,3.25,0,0,1-2-.69l0,0,.65,2a.39.39,0,0,1-.38.52ZM29.92,50.2h0a.08.08,0,0,1,0,.09l-.75,2.15a.24.24,0,0,0,0,.23.25.25,0,0,0,.21.11h2.09a.25.25,0,0,0,.21-.11.27.27,0,0,0,0-.23l-.74-2.2a.11.11,0,0,1,0-.08.09.09,0,0,1,.09,0l.21.17a3,3,0,0,0,1.93.67A3.32,3.32,0,0,0,35.8,50a3.9,3.9,0,0,0,1-2.64,4.64,4.64,0,0,0-1.23-3h0a27.63,27.63,0,0,0-3.11-2.92c-.46-.39-.95-.8-1.45-1.24a.67.67,0,0,0-.88,0c-.52.46-1.05.91-1.43,1.23a27,27,0,0,0-3.12,2.93,4.66,4.66,0,0,0-1.24,3,3.9,3.9,0,0,0,1,2.64A3.34,3.34,0,0,0,27.77,51a3.07,3.07,0,0,0,1.94-.67l.16-.13Z"/><path class="e6e320bd-75b6-46aa-8bbb-1c8046b391a6" d="M33.11,43.41a.31.31,0,0,1-.21-.07l-2.4-2a.32.32,0,0,1,.41-.5l2.4,2a.31.31,0,0,1,0,.45A.32.32,0,0,1,33.11,43.41Z"/><path class="e6e320bd-75b6-46aa-8bbb-1c8046b391a6" d="M34.63,44.8a.31.31,0,0,1-.21-.07L33.58,44a.31.31,0,0,1,0-.45.33.33,0,0,1,.45,0l.84.71a.32.32,0,0,1-.2.57Z"/></g></g></svg>