<svg xmlns="http://www.w3.org/2000/svg" viewBox="0 0 61.11 91.54"><defs><style>.f78f9c29-8525-4dcd-851e-7df95709a91a{fill:none;}.f7235522-1ae1-423c-8cbc-86ac469664e0{fill:#adadad;}.ba3152ef-c9c3-444e-b224-7c259065c13a{fill:#363026;}.ec46b6d3-2da3-4c86-942e-0ef99a8cc9eb{fill:#716b61;}.eddcd95d-b4ed-46a7-9e01-3b4143db690c{fill:#453f31;}.f30434db-dc3d-4170-a357-9a3aefed7cdd{fill:#aaa194;}</style></defs><title>P_4</title><g id="a652a0d0-4230-4ee8-9110-ee366c5c2671" data-name="Capa 2"><g id="aad90a1d-87c9-45e3-bf9b-688bd173e380" data-name="Objects"><rect class="f78f9c29-8525-4dcd-851e-7df95709a91a" x="0.13" y="0.12" width="60.86" height="91.29" rx="2.4"/><path class="f7235522-1ae1-423c-8cbc-86ac469664e0" d="M58.59,91.54H2.52A2.53,2.53,0,0,1,0,89V2.52A2.52,2.52,0,0,1,2.52,0H58.59a2.52,2.52,0,0,1,2.52,2.52V89A2.53,2.53,0,0,1,58.59,91.54ZM2.52.25A2.27,2.27,0,0,0,.25,2.52V89a2.28,2.28,0,0,0,2.27,2.28H58.59A2.28,2.28,0,0,0,60.86,89V2.52A2.27,2.27,0,0,0,58.59.25Z"/><path class="ba3152ef-c9c3-444e-b224-7c259065c13a" d="M4.46,8.54a.27.27,0,0,1-.27-.28V2.71l.12.08L1.83,6.08,1.8,6H5.39a.26.26,0,0,1,.19.08.22.22,0,0,1,.08.19.24.24,0,0,1-.08.19.25.25,0,0,1-.19.07h-4a.27.27,0,0,1-.2-.09.27.27,0,0,1-.08-.2A.33.33,0,0,1,1.19,6L4.24,2A.18.18,0,0,1,4.36,2a.23.23,0,0,1,.11,0A.26.26,0,0,1,4.68,2a.3.3,0,0,1,.08.2V8.26a.27.27,0,0,1-.09.2A.3.3,0,0,1,4.46,8.54Z"/><path class="ba3152ef-c9c3-444e-b224-7c259065c13a" d="M56.64,83a.24.24,0,0,1,.2.09.28.28,0,0,1,.08.2v5.55l-.12-.08,2.48-3.29,0,.1H55.72a.29.29,0,0,1-.2-.07.27.27,0,0,1-.08-.19.26.26,0,0,1,.08-.19.3.3,0,0,1,.2-.08h4a.28.28,0,0,1,.2.09.32.32,0,0,1,.08.21.33.33,0,0,1-.06.19l-3.05,4a.27.27,0,0,1-.12.09l-.12,0a.3.3,0,0,1-.2-.08.32.32,0,0,1-.08-.2v-6a.31.31,0,0,1,.29-.29Z"/><path class="ec46b6d3-2da3-4c86-942e-0ef99a8cc9eb" d="M5.18,9.86a7.25,7.25,0,0,0-.83-.77L4,8.77a.19.19,0,0,0-.26,0l-.38.32a8,8,0,0,0-.82.77,1.23,1.23,0,0,0-.33.81,1,1,0,0,0,.26.71.88.88,0,0,0,.67.29.84.84,0,0,0,.52-.18s0,0,0,0l-.2.57a.08.08,0,0,0,.08.11h.55A.09.09,0,0,0,4.2,12L4,11.44l.06.05a.82.82,0,0,0,.52.18.86.86,0,0,0,.66-.29,1,1,0,0,0,.27-.71A1.28,1.28,0,0,0,5.18,9.86Z"/><path class="eddcd95d-b4ed-46a7-9e01-3b4143db690c" d="M4.11,12.15H3.56a.09.09,0,0,1-.08,0,.12.12,0,0,1,0-.1l.18-.5a.84.84,0,0,1-.52.18.9.9,0,0,1-.68-.3,1,1,0,0,1-.27-.72,1.31,1.31,0,0,1,.33-.82,7.73,7.73,0,0,1,.81-.76l0,0,.37-.32a.21.21,0,0,1,.28,0l.37.32h0a7,7,0,0,1,.82.77h0a1.27,1.27,0,0,1,.34.82,1,1,0,0,1-.27.72.93.93,0,0,1-.68.3.78.78,0,0,1-.53-.19H4l.17.51a.11.11,0,0,1,0,.1A.1.1,0,0,1,4.11,12.15Zm-.43-.72h0s0,0,0,0L3.5,12a0,0,0,0,0,0,.06.05.05,0,0,0,.05,0h.55a.06.06,0,0,0,.06,0,.07.07,0,0,0,0-.06L4,11.45a0,0,0,0,1,0,0H4a.1.1,0,0,0,.05,0,.79.79,0,0,0,.51.18.88.88,0,0,0,.65-.28,1,1,0,0,0,.26-.7,1.22,1.22,0,0,0-.33-.79h0a6.26,6.26,0,0,0-.82-.77h0L4,8.78a.17.17,0,0,0-.23,0l-.37.32,0,0a6.84,6.84,0,0,0-.81.76,1.2,1.2,0,0,0-.32.79,1,1,0,0,0,.26.7.87.87,0,0,0,.65.28.81.81,0,0,0,.51-.18l0,0h0Z"/><path class="f30434db-dc3d-4170-a357-9a3aefed7cdd" d="M4.52,9.65l0,0-.64-.52a.09.09,0,0,1,0-.12.09.09,0,0,1,.12,0l.63.52a.09.09,0,0,1,0,.12A.11.11,0,0,1,4.52,9.65Z"/><path class="f30434db-dc3d-4170-a357-9a3aefed7cdd" d="M4.92,10s0,0,0,0l-.23-.18a.09.09,0,0,1,0-.12.08.08,0,0,1,.12,0L5,9.86A.09.09,0,0,1,5,10,.11.11,0,0,1,4.92,10Z"/><path class="ec46b6d3-2da3-4c86-942e-0ef99a8cc9eb" d="M56,81.57a6.45,6.45,0,0,0,.83.77l.37.33a.19.19,0,0,0,.26,0l.38-.33a7,7,0,0,0,.82-.77,1.21,1.21,0,0,0,.33-.81,1,1,0,0,0-.26-.7.88.88,0,0,0-.67-.29.84.84,0,0,0-.52.18l0,0,.2-.56a.09.09,0,0,0-.08-.12h-.55a.09.09,0,0,0-.09.11l.2.58-.06,0a.82.82,0,0,0-.52-.18.86.86,0,0,0-.66.29,1,1,0,0,0-.27.7A1.26,1.26,0,0,0,56,81.57Z"/><path class="eddcd95d-b4ed-46a7-9e01-3b4143db690c" d="M57.08,79.28h.55a.1.1,0,0,1,.08,0,.1.1,0,0,1,0,.09l-.18.5a.92.92,0,0,1,1.2.12,1.09,1.09,0,0,1,.27.72,1.27,1.27,0,0,1-.33.82,8.91,8.91,0,0,1-.81.77l0,0-.37.31a.21.21,0,0,1-.28,0l-.37-.31h0a7,7,0,0,1-.82-.78h0a1.23,1.23,0,0,1-.34-.82,1.09,1.09,0,0,1,.27-.72.92.92,0,0,1,.68-.29.85.85,0,0,1,.53.18h0L57,79.42a.09.09,0,0,1,0-.09A.11.11,0,0,1,57.08,79.28Zm.43.72h0v0l.2-.57a0,0,0,0,0,0-.06.05.05,0,0,0,0,0h-.55a.06.06,0,0,0-.06,0,.07.07,0,0,0,0,.06l.19.58s0,0,0,0h0s0,0-.05-.05a.79.79,0,0,0-.51-.17.88.88,0,0,0-.65.28,1,1,0,0,0-.26.69,1.24,1.24,0,0,0,.33.8h0a6.29,6.29,0,0,0,.82.77h0l.37.32a.19.19,0,0,0,.23,0c.13-.12.25-.23.37-.32l0,0a6.84,6.84,0,0,0,.81-.76,1.22,1.22,0,0,0,.32-.8,1,1,0,0,0-.26-.69.87.87,0,0,0-.65-.28.8.8,0,0,0-.51.17l0,0,0,0Z"/><path class="f30434db-dc3d-4170-a357-9a3aefed7cdd" d="M56.67,81.79s0,0,0,0l.64.51a.09.09,0,0,1,0,.12.08.08,0,0,1-.12,0l-.63-.51a.09.09,0,0,1,0-.12A.11.11,0,0,1,56.67,81.79Z"/><path class="f30434db-dc3d-4170-a357-9a3aefed7cdd" d="M56.27,81.42l0,0,.23.19a.09.09,0,0,1,0,.12.09.09,0,0,1-.12,0l-.22-.19a.08.08,0,0,1,0-.12A.11.11,0,0,1,56.27,81.42Z"/><path class="ec46b6d3-2da3-4c86-942e-0ef99a8cc9eb" d="M49.56,13.46a27.09,27.09,0,0,0-3.13-2.94L45,9.29a.71.71,0,0,0-1,0l-1.44,1.23a27.09,27.09,0,0,0-3.13,2.94,4.7,4.7,0,0,0-1.25,3.07,4,4,0,0,0,1,2.69,3.39,3.39,0,0,0,2.52,1.09,3.17,3.17,0,0,0,2-.68l.17-.14-.76,2.16a.32.32,0,0,0,.31.43h2.1a.33.33,0,0,0,.31-.43l-.74-2.2a1.24,1.24,0,0,0,.22.18,3.17,3.17,0,0,0,2,.68,3.39,3.39,0,0,0,2.52-1.09,4,4,0,0,0,1-2.69A4.7,4.7,0,0,0,49.56,13.46Z"/><path class="eddcd95d-b4ed-46a7-9e01-3b4143db690c" d="M45.52,22.15h-2.1a.42.42,0,0,1-.33-.16.44.44,0,0,1-.05-.37l.68-1.91a3.27,3.27,0,0,1-2,.68,3.47,3.47,0,0,1-2.57-1.12,4.07,4.07,0,0,1-1-2.74,4.78,4.78,0,0,1,1.27-3.12,28,28,0,0,1,3.13-2.94c.39-.33.92-.78,1.44-1.24a.83.83,0,0,1,1.07,0l1.43,1.24a25.71,25.71,0,0,1,3.14,2.94h0a4.72,4.72,0,0,1,1.27,3.12,4,4,0,0,1-1,2.74,3.47,3.47,0,0,1-2.57,1.12,3.27,3.27,0,0,1-2-.7l0,0,.66,2a.39.39,0,0,1-.06.36A.4.4,0,0,1,45.52,22.15Zm-1.65-2.73,0,0a.06.06,0,0,1,0,.08l-.76,2.15a.24.24,0,0,0,0,.23.26.26,0,0,0,.21.11h2.1a.25.25,0,0,0,.2-.1.26.26,0,0,0,0-.24L45,19.48a.08.08,0,0,1,0-.09.08.08,0,0,1,.08,0l.21.18a3.1,3.1,0,0,0,1.94.66,3.3,3.3,0,0,0,2.46-1.07,3.83,3.83,0,0,0,1-2.64,4.64,4.64,0,0,0-1.23-3h0a27.63,27.63,0,0,0-3.11-2.92L44.94,9.34a.69.69,0,0,0-.88,0l-1.43,1.24a27,27,0,0,0-3.12,2.92,4.64,4.64,0,0,0-1.23,3,3.85,3.85,0,0,0,1,2.64,3.31,3.31,0,0,0,2.46,1.07,3.1,3.1,0,0,0,1.94-.66l.16-.14Z"/><path class="f30434db-dc3d-4170-a357-9a3aefed7cdd" d="M47.06,12.64a.3.3,0,0,1-.2-.08l-2.41-2a.33.33,0,0,1,0-.45.31.31,0,0,1,.45,0l2.4,2a.32.32,0,0,1,.05.45A.33.33,0,0,1,47.06,12.64Z"/><path class="f30434db-dc3d-4170-a357-9a3aefed7cdd" d="M48.58,14a.33.33,0,0,1-.21-.07l-.84-.71a.32.32,0,0,1,0-.45.31.31,0,0,1,.45,0l.85.71a.32.32,0,0,1-.21.56Z"/><path class="ec46b6d3-2da3-4c86-942e-0ef99a8cc9eb" d="M21.65,13.46a26.29,26.29,0,0,0-3.13-2.94L17.09,9.29a.73.73,0,0,0-1,0l-1.43,1.23a26.29,26.29,0,0,0-3.13,2.94,4.7,4.7,0,0,0-1.25,3.07,4,4,0,0,0,1,2.69,3.37,3.37,0,0,0,2.52,1.09,3.19,3.19,0,0,0,2-.68l.17-.14-.76,2.16a.32.32,0,0,0,.31.43h2.09a.32.32,0,0,0,.31-.43l-.73-2.2a1.68,1.68,0,0,0,.21.18,3.19,3.19,0,0,0,2,.68,3.36,3.36,0,0,0,2.52-1.09,3.92,3.92,0,0,0,1-2.69A4.65,4.65,0,0,0,21.65,13.46Z"/><path class="eddcd95d-b4ed-46a7-9e01-3b4143db690c" d="M17.61,22.15H15.52a.42.42,0,0,1-.33-.16.4.4,0,0,1,0-.37l.67-1.91a3.22,3.22,0,0,1-2,.68,3.46,3.46,0,0,1-2.57-1.12,4,4,0,0,1-1-2.74,4.72,4.72,0,0,1,1.27-3.12,27.13,27.13,0,0,1,3.13-2.94l1.44-1.24a.83.83,0,0,1,1.07,0l1.43,1.24a26.47,26.47,0,0,1,3.14,2.94h0A4.76,4.76,0,0,1,23,16.53a4.06,4.06,0,0,1-1,2.74,3.48,3.48,0,0,1-2.58,1.12,3.26,3.26,0,0,1-2-.7l0,0,.65,2a.39.39,0,0,1-.38.52ZM16,19.42l0,0a.07.07,0,0,1,0,.08l-.76,2.15a.27.27,0,0,0,0,.23.25.25,0,0,0,.21.11h2.09a.27.27,0,0,0,.21-.1.29.29,0,0,0,0-.24l-.74-2.19a.08.08,0,0,1,0-.09.1.1,0,0,1,.09,0l.21.18a3.09,3.09,0,0,0,1.93.66,3.34,3.34,0,0,0,2.47-1.07,3.88,3.88,0,0,0,1-2.64,4.64,4.64,0,0,0-1.23-3h0a27,27,0,0,0-3.12-2.92L17,9.34a.69.69,0,0,0-.88,0l-1.43,1.24a25.42,25.42,0,0,0-3.12,2.92,4.61,4.61,0,0,0-1.24,3,3.9,3.9,0,0,0,1,2.64,3.34,3.34,0,0,0,2.47,1.07,3.14,3.14,0,0,0,1.94-.66l.16-.14Z"/><path class="f30434db-dc3d-4170-a357-9a3aefed7cdd" d="M19.15,12.64a.32.32,0,0,1-.2-.08l-2.4-2a.32.32,0,1,1,.41-.49l2.4,2a.33.33,0,0,1,0,.45A.3.3,0,0,1,19.15,12.64Z"/><path class="f30434db-dc3d-4170-a357-9a3aefed7cdd" d="M20.68,14a.31.31,0,0,1-.21-.07l-.85-.71a.32.32,0,0,1,0-.45.31.31,0,0,1,.45,0l.84.71a.32.32,0,0,1-.2.56Z"/><path class="ec46b6d3-2da3-4c86-942e-0ef99a8cc9eb" d="M49.56,73.8a28,28,0,0,0-3.13-2.94L45,69.63a.74.74,0,0,0-1,0l-1.44,1.23a28,28,0,0,0-3.13,2.94,4.7,4.7,0,0,0-1.25,3.07,4,4,0,0,0,1,2.69,3.4,3.4,0,0,0,2.52,1.1,3.12,3.12,0,0,0,2-.69l.17-.13L43.11,82a.32.32,0,0,0,.31.43h2.1a.33.33,0,0,0,.31-.43l-.74-2.19a1.84,1.84,0,0,0,.22.17,3.12,3.12,0,0,0,2,.69,3.4,3.4,0,0,0,2.52-1.1,4,4,0,0,0,1-2.69A4.7,4.7,0,0,0,49.56,73.8Z"/><path class="eddcd95d-b4ed-46a7-9e01-3b4143db690c" d="M45.52,82.5h-2.1a.43.43,0,0,1-.33-.17A.44.44,0,0,1,43,82l.68-1.91a3.27,3.27,0,0,1-2,.68,3.47,3.47,0,0,1-2.57-1.12,4,4,0,0,1-1-2.74,4.81,4.81,0,0,1,1.27-3.12,27.1,27.1,0,0,1,3.13-2.93c.39-.34.92-.78,1.44-1.25a.84.84,0,0,1,1.07,0l1.43,1.23a26.51,26.51,0,0,1,3.14,2.94h0a4.76,4.76,0,0,1,1.27,3.12,4,4,0,0,1-1,2.74,3.47,3.47,0,0,1-2.57,1.12,3.27,3.27,0,0,1-2-.7l0,0,.66,2a.39.39,0,0,1-.06.36A.39.39,0,0,1,45.52,82.5Zm-1.65-2.74,0,0a.07.07,0,0,1,0,.08L43.18,82a.26.26,0,0,0,0,.24.28.28,0,0,0,.21.1h2.1a.25.25,0,0,0,.2-.1.26.26,0,0,0,0-.24L45,79.82a.06.06,0,0,1,0-.08.06.06,0,0,1,.08,0l.21.18a3.11,3.11,0,0,0,1.94.67,3.31,3.31,0,0,0,2.46-1.08,3.81,3.81,0,0,0,1-2.64,4.6,4.6,0,0,0-1.23-3h0a26.74,26.74,0,0,0-3.11-2.93l-1.45-1.24a.69.69,0,0,0-.88,0l-1.43,1.24a26.12,26.12,0,0,0-3.12,2.93,4.6,4.6,0,0,0-1.23,3,3.81,3.81,0,0,0,1,2.64,3.32,3.32,0,0,0,2.46,1.08,3.11,3.11,0,0,0,1.94-.67l.16-.14Z"/><path class="f30434db-dc3d-4170-a357-9a3aefed7cdd" d="M47.06,73a.35.35,0,0,1-.2-.07l-2.41-2a.32.32,0,1,1,.41-.49l2.4,2a.32.32,0,0,1,.05.45A.33.33,0,0,1,47.06,73Z"/><path class="f30434db-dc3d-4170-a357-9a3aefed7cdd" d="M48.58,74.36a.33.33,0,0,1-.21-.07l-.84-.71a.32.32,0,1,1,.41-.49l.85.71a.32.32,0,0,1,0,.45A.29.29,0,0,1,48.58,74.36Z"/><path class="ec46b6d3-2da3-4c86-942e-0ef99a8cc9eb" d="M21.65,73.8a27.13,27.13,0,0,0-3.13-2.94l-1.43-1.23a.76.76,0,0,0-1,0l-1.43,1.23a27.13,27.13,0,0,0-3.13,2.94,4.7,4.7,0,0,0-1.25,3.07,4,4,0,0,0,1,2.69,3.38,3.38,0,0,0,2.52,1.1,3.14,3.14,0,0,0,2-.69l.17-.13L15.21,82a.32.32,0,0,0,.31.43h2.09a.32.32,0,0,0,.31-.43l-.73-2.19.21.17a3.14,3.14,0,0,0,2,.69,3.37,3.37,0,0,0,2.52-1.1,3.91,3.91,0,0,0,1-2.69A4.65,4.65,0,0,0,21.65,73.8Z"/><path class="eddcd95d-b4ed-46a7-9e01-3b4143db690c" d="M17.61,82.5H15.52a.43.43,0,0,1-.33-.17.4.4,0,0,1,0-.37l.67-1.91a3.22,3.22,0,0,1-2,.68,3.46,3.46,0,0,1-2.57-1.12,4,4,0,0,1-1-2.74,4.76,4.76,0,0,1,1.27-3.12,26.3,26.3,0,0,1,3.13-2.93l1.44-1.25a.84.84,0,0,1,1.07,0l1.43,1.23a27.32,27.32,0,0,1,3.14,2.94h0A4.8,4.8,0,0,1,23,76.87a4,4,0,0,1-1,2.74,3.48,3.48,0,0,1-2.58,1.12,3.26,3.26,0,0,1-2-.7l0,0L18,82a.42.42,0,0,1,0,.36A.4.4,0,0,1,17.61,82.5ZM16,79.76l0,0a.08.08,0,0,1,0,.08L15.27,82a.29.29,0,0,0,0,.24.27.27,0,0,0,.21.1h2.09a.27.27,0,0,0,.21-.1.29.29,0,0,0,0-.24l-.74-2.19a.06.06,0,0,1,0-.08.07.07,0,0,1,.09,0l.21.18a3.1,3.1,0,0,0,1.93.67,3.34,3.34,0,0,0,2.47-1.08,3.86,3.86,0,0,0,1-2.64,4.6,4.6,0,0,0-1.23-3h0a26.12,26.12,0,0,0-3.12-2.93L17,69.68a.69.69,0,0,0-.88,0l-1.43,1.24a24.66,24.66,0,0,0-3.12,2.93,4.56,4.56,0,0,0-1.24,3,3.86,3.86,0,0,0,1,2.64,3.34,3.34,0,0,0,2.47,1.08,3.15,3.15,0,0,0,1.94-.67l.16-.14Z"/><path class="f30434db-dc3d-4170-a357-9a3aefed7cdd" d="M19.15,73a.37.37,0,0,1-.2-.07l-2.4-2a.32.32,0,0,1-.05-.45.34.34,0,0,1,.46,0l2.4,2a.33.33,0,0,1,0,.45A.3.3,0,0,1,19.15,73Z"/><path class="f30434db-dc3d-4170-a357-9a3aefed7cdd" d="M20.68,74.36a.31.31,0,0,1-.21-.07l-.85-.71a.32.32,0,0,1,.42-.49l.84.71a.32.32,0,0,1,0,.45A.29.29,0,0,1,20.68,74.36Z"/></g></g></svg>