<svg xmlns="http://www.w3.org/2000/svg" viewBox="0 0 61.11 91.54"><defs><style>.a8b2a42e-7cbf-4a1d-b4ba-71ed928289aa{fill:none;}.abb479d4-21fb-4626-b5e7-cc4f0a4ad718{fill:#adadad;}.b92f1967-1f90-46a9-8937-29fc82f6cebb{fill:#363026;}.f1ed8158-55b0-47b0-9dc8-a89c57dd1550{fill:#716b61;}.a94f2caa-4862-4d34-bc6e-e3a91107c3ed{fill:#453f31;}.aa74e3e4-66c6-4eb5-b773-b2788b88745e{fill:#aaa194;}</style></defs><title>T_9</title><g id="b70e24b2-bac4-4e16-bed9-83ee9afb666b" data-name="Capa 2"><g id="b90a3c5d-cce5-4bc8-9a31-87ca06a05d12" data-name="Objects"><rect class="a8b2a42e-7cbf-4a1d-b4ba-71ed928289aa" x="0.13" y="0.12" width="60.86" height="91.29" rx="2.4"/><path class="abb479d4-21fb-4626-b5e7-cc4f0a4ad718" d="M58.59,91.54H2.52A2.53,2.53,0,0,1,0,89V2.52A2.52,2.52,0,0,1,2.52,0H58.59a2.52,2.52,0,0,1,2.52,2.52V89A2.53,2.53,0,0,1,58.59,91.54ZM2.52.25A2.27,2.27,0,0,0,.25,2.52V89a2.28,2.28,0,0,0,2.27,2.28H58.59A2.28,2.28,0,0,0,60.86,89V2.52A2.27,2.27,0,0,0,58.59.25Z"/><path class="b92f1967-1f90-46a9-8937-29fc82f6cebb" d="M4,1.82A2.19,2.19,0,0,1,5,2a1.81,1.81,0,0,1,.68.53,2.22,2.22,0,0,1,.4.76,2.91,2.91,0,0,1,.13.87,4.81,4.81,0,0,1-.11,1,6.06,6.06,0,0,1-.35,1,5.51,5.51,0,0,1-.59,1,4.53,4.53,0,0,1-.8.84,3.89,3.89,0,0,1-1,.59l-.12,0A.29.29,0,0,1,3,8.54a.25.25,0,0,1-.09-.2A.28.28,0,0,1,3,8.16a.55.55,0,0,1,.17-.1,3.75,3.75,0,0,0,1-.67,5.11,5.11,0,0,0,.87-1,3.61,3.61,0,0,0,.48-1.22L5.74,5a2.27,2.27,0,0,1-.44.54A1.91,1.91,0,0,1,4.68,6a2.06,2.06,0,0,1-.76.13,1.71,1.71,0,0,1-.78-.17,2,2,0,0,1-.62-.48,2.42,2.42,0,0,1-.41-.69A2.18,2.18,0,0,1,2,3.94a2.11,2.11,0,0,1,.27-1A2.27,2.27,0,0,1,3,2.12,1.94,1.94,0,0,1,4,1.82Zm0,.55a1.52,1.52,0,0,0-.77.19,1.39,1.39,0,0,0-.54.56,1.68,1.68,0,0,0-.19.82,1.85,1.85,0,0,0,.16.78,1.51,1.51,0,0,0,.5.59A1.41,1.41,0,0,0,4,5.54a1.6,1.6,0,0,0,.86-.23,1.45,1.45,0,0,0,.56-.59,1.67,1.67,0,0,0,.19-.81,1.56,1.56,0,0,0-.19-.76,1.38,1.38,0,0,0-.54-.56A1.51,1.51,0,0,0,4.05,2.37Z"/><path class="b92f1967-1f90-46a9-8937-29fc82f6cebb" d="M57.2,89.71a2.22,2.22,0,0,1-1-.19,2,2,0,0,1-.68-.54,2.31,2.31,0,0,1-.4-.76,3.15,3.15,0,0,1-.12-.87,4.31,4.31,0,0,1,.11-1,4.64,4.64,0,0,1,.35-1,5.46,5.46,0,0,1,.58-1,4.89,4.89,0,0,1,.8-.84,3.68,3.68,0,0,1,1-.59.23.23,0,0,1,.11,0,.35.35,0,0,1,.22.08.29.29,0,0,1,.09.21.24.24,0,0,1-.07.17.37.37,0,0,1-.16.1,3.87,3.87,0,0,0-1,.68,4.33,4.33,0,0,0-.87,1,3.18,3.18,0,0,0-.48,1.22l-.21.12A2.09,2.09,0,0,1,56,86a2,2,0,0,1,.61-.38,2.1,2.1,0,0,1,.76-.14,1.73,1.73,0,0,1,.79.18,1.79,1.79,0,0,1,.62.48,2.38,2.38,0,0,1,.55,1.49,2.1,2.1,0,0,1-.27,1,2.13,2.13,0,0,1-.74.78A1.93,1.93,0,0,1,57.2,89.71Zm0-.54A1.56,1.56,0,0,0,58,89a1.4,1.4,0,0,0,.53-.55,1.68,1.68,0,0,0,.19-.82,1.85,1.85,0,0,0-.16-.78,1.37,1.37,0,0,0-.5-.59,1.32,1.32,0,0,0-.8-.23,1.63,1.63,0,0,0-.87.22,1.56,1.56,0,0,0-.55.59,1.74,1.74,0,0,0-.2.82,1.49,1.49,0,0,0,.19.75,1.51,1.51,0,0,0,1.39.79Z"/><path class="f1ed8158-55b0-47b0-9dc8-a89c57dd1550" d="M4.76,9.93a1,1,0,0,0,0-.43,1,1,0,0,0-.85-.78,1,1,0,0,0-1,.95,1.17,1.17,0,0,0,0,.26.94.94,0,0,0-.8,1,1,1,0,0,0,.9.86,1,1,0,0,0,.71-.27l-.07.53a.05.05,0,0,0,.05.06H4a.05.05,0,0,0,0-.06L4,11.55a1,1,0,0,0,.72.27A1,1,0,0,0,5.56,11,.94.94,0,0,0,4.76,9.93Z"/><path class="a94f2caa-4862-4d34-bc6e-e3a91107c3ed" d="M4,12.16H3.72a.05.05,0,0,1-.05,0s0,0,0-.06l.07-.47a.94.94,0,0,1-.64.24H3a1,1,0,0,1-.11-1.93,1,1,0,0,1,0-.24A1,1,0,0,1,3.19,9a.93.93,0,0,1,.65-.25h.1a1,1,0,0,1,.86.8.94.94,0,0,1,0,.41A1,1,0,0,1,5.58,11a1,1,0,0,1-.91.88H4.61A.92.92,0,0,1,4,11.6l.06.47a0,0,0,0,1,0,.06A.05.05,0,0,1,4,12.16Zm-.23-.62h0s0,0,0,0l-.07.52s0,0,0,0H4a0,0,0,0,0,0,0l-.08-.52v0H4a.94.94,0,0,0,.65.26h.06a.94.94,0,0,0,.09-1.86h0a.94.94,0,0,0,0-.41.91.91,0,0,0-.83-.77A.89.89,0,0,0,3.22,9a.93.93,0,0,0-.31.7.73.73,0,0,0,0,.25h0a1,1,0,0,0-.78,1A.93.93,0,0,0,3,11.8h.05a.94.94,0,0,0,.65-.26Z"/><path class="aa74e3e4-66c6-4eb5-b773-b2788b88745e" d="M4.56,9.63h0a.09.09,0,0,1-.08-.09C4.51,9.25,4.23,9,4,9a.08.08,0,0,1-.07-.1A.09.09,0,0,1,4,8.8a.76.76,0,0,1,.67.76A.09.09,0,0,1,4.56,9.63Z"/><path class="aa74e3e4-66c6-4eb5-b773-b2788b88745e" d="M4.57,10a.07.07,0,0,1-.08-.08V9.76a.07.07,0,0,1,.08-.08.08.08,0,0,1,.09.08v.11A.08.08,0,0,1,4.57,10Z"/><path class="f1ed8158-55b0-47b0-9dc8-a89c57dd1550" d="M56.39,81.61a.84.84,0,0,0,0,.42,1,1,0,0,0,1.89-.16.75.75,0,0,0,0-.26,1,1,0,0,0,.8-1,.94.94,0,0,0-.89-.85.92.92,0,0,0-.72.26l.07-.52a.06.06,0,0,0,0-.07h-.25a.06.06,0,0,0,0,.07l.07.52a.92.92,0,0,0-.72-.26,1,1,0,0,0-.09,1.89Z"/><path class="a94f2caa-4862-4d34-bc6e-e3a91107c3ed" d="M57.31,82.84h-.1a1,1,0,0,1-.86-.81,1,1,0,0,1,0-.41,1,1,0,0,1,.11-1.92h.06a.94.94,0,0,1,.63.23l-.06-.47a.07.07,0,0,1,0-.06l0,0h.25l0,0a.07.07,0,0,1,0,.06l-.06.47a1,1,0,0,1,.63-.23h.06a1,1,0,0,1,.11,1.92.73.73,0,0,1,0,.25,1,1,0,0,1-.32.72A1,1,0,0,1,57.31,82.84Zm-.77-3.11h0a.94.94,0,0,0-.88.85.93.93,0,0,0,.78,1h0s0,0,0,0a1.19,1.19,0,0,0,0,.42.94.94,0,0,0,.83.77.93.93,0,0,0,.73-.24,1,1,0,0,0,.3-.69,1.15,1.15,0,0,0,0-.26s0,0,0,0h0a.93.93,0,0,0,.78-1,.94.94,0,0,0-.87-.85,1,1,0,0,0-.71.26s0,0,0,0,0,0,0,0l.08-.52v0l0,0h-.25l0,0v0l.08.52s0,0,0,0,0,0,0,0A.94.94,0,0,0,56.54,79.73Z"/><path class="aa74e3e4-66c6-4eb5-b773-b2788b88745e" d="M56.59,81.9h0a.1.1,0,0,1,.08.1.56.56,0,0,0,.52.56.09.09,0,0,1,0,.17A.75.75,0,0,1,56.5,82,.11.11,0,0,1,56.59,81.9Z"/><path class="aa74e3e4-66c6-4eb5-b773-b2788b88745e" d="M56.58,81.58a.09.09,0,0,1,.09.09v.1a.09.09,0,1,1-.18,0v-.1A.09.09,0,0,1,56.58,81.58Z"/><path class="f1ed8158-55b0-47b0-9dc8-a89c57dd1550" d="M48.11,13.63A3.79,3.79,0,0,0,48.19,12a3.74,3.74,0,0,0-7.43.63,3.81,3.81,0,0,0,.14,1A3.74,3.74,0,1,0,44.09,20l-.28,2.05a.22.22,0,0,0,.22.25H45a.23.23,0,0,0,.23-.25L44.92,20a3.71,3.71,0,0,0,2.81,1,3.74,3.74,0,0,0,.38-7.43Z"/><path class="a94f2caa-4862-4d34-bc6e-e3a91107c3ed" d="M45,22.39H44a.26.26,0,0,1-.22-.1.28.28,0,0,1-.07-.23L44,20.2a3.76,3.76,0,0,1-2.72.93,3.81,3.81,0,0,1-.46-7.56A3.81,3.81,0,1,1,48.26,12a3.79,3.79,0,0,1-.07,1.61,3.81,3.81,0,0,1-.46,7.56A3.76,3.76,0,0,1,45,20.2l.26,1.86a.25.25,0,0,1-.07.23A.26.26,0,0,1,45,22.39ZM44.09,20h0a.08.08,0,0,1,0,.07l-.29,2a.17.17,0,0,0,0,.12.14.14,0,0,0,.12.06H45a.14.14,0,0,0,.12-.06.17.17,0,0,0,0-.12l-.29-2A.07.07,0,0,1,45,20a3.6,3.6,0,0,0,2.75,1,3.67,3.67,0,0,0,.38-7.29l-.05,0a.13.13,0,0,1,0-.06,3.67,3.67,0,1,0-7.21-1,3.77,3.77,0,0,0,.14,1,.13.13,0,0,1,0,.06l-.05,0A3.67,3.67,0,0,0,41.29,21,3.6,3.6,0,0,0,44,20Z"/><path class="aa74e3e4-66c6-4eb5-b773-b2788b88745e" d="M47.31,12.48h0A.35.35,0,0,1,47,12.1a2.26,2.26,0,0,0-2-2.21.35.35,0,0,1-.28-.39A.33.33,0,0,1,45,9.22a2.93,2.93,0,0,1,2.62,3A.34.34,0,0,1,47.31,12.48Z"/><path class="aa74e3e4-66c6-4eb5-b773-b2788b88745e" d="M47.36,13.74A.34.34,0,0,1,47,13.4V13a.34.34,0,0,1,.68,0v.41A.34.34,0,0,1,47.36,13.74Z"/><path class="f1ed8158-55b0-47b0-9dc8-a89c57dd1550" d="M48.11,33.74a3.74,3.74,0,1,0-7.35-1,3.73,3.73,0,0,0,.14,1,3.75,3.75,0,1,0,3.19,6.4l-.28,2a.22.22,0,0,0,.22.26H45a.23.23,0,0,0,.23-.26l-.29-2a3.75,3.75,0,1,0,3.19-6.4Z"/><path class="a94f2caa-4862-4d34-bc6e-e3a91107c3ed" d="M45,42.51H44a.29.29,0,0,1-.22-.1.3.3,0,0,1-.07-.24L44,40.32a3.81,3.81,0,0,1-2.5.93h-.22a3.81,3.81,0,0,1-.46-7.55,4,4,0,0,1-.13-1,3.81,3.81,0,1,1,7.5,1A3.81,3.81,0,1,1,45,40.32l.26,1.85a.27.27,0,0,1-.07.24A.29.29,0,0,1,45,42.51Zm-.89-2.44h0a.07.07,0,0,1,0,.07l-.29,2a.2.2,0,0,0,0,.13.17.17,0,0,0,.12,0H45a.17.17,0,0,0,.12,0,.2.2,0,0,0,0-.13l-.29-2a.07.07,0,0,1,0-.07.06.06,0,0,1,.08,0,3.65,3.65,0,0,0,2.54,1h.21a3.68,3.68,0,0,0,.38-7.3.05.05,0,0,1-.05,0,.13.13,0,0,1,0-.06,3.66,3.66,0,0,0-3.18-4.65A3.63,3.63,0,0,0,42,30,3.66,3.66,0,0,0,41,33.72a.13.13,0,0,1,0,.06.05.05,0,0,1-.05,0A3.68,3.68,0,1,0,44,40.09Z"/><path class="aa74e3e4-66c6-4eb5-b773-b2788b88745e" d="M47.31,32.59h0a.34.34,0,0,1-.31-.37,2.27,2.27,0,0,0-2-2.22.34.34,0,0,1-.28-.39.33.33,0,0,1,.39-.28,2.94,2.94,0,0,1,2.62,3A.34.34,0,0,1,47.31,32.59Z"/><path class="aa74e3e4-66c6-4eb5-b773-b2788b88745e" d="M47.36,33.86a.35.35,0,0,1-.34-.35V33.1a.34.34,0,1,1,.68,0v.41A.35.35,0,0,1,47.36,33.86Z"/><path class="f1ed8158-55b0-47b0-9dc8-a89c57dd1550" d="M20.2,13.63A3.64,3.64,0,0,0,20.29,12a3.74,3.74,0,0,0-7.43.63,3.81,3.81,0,0,0,.14,1A3.74,3.74,0,1,0,16.19,20l-.29,2.05a.22.22,0,0,0,.22.25h1a.22.22,0,0,0,.22-.25L17,20a3.69,3.69,0,0,0,2.8,1,3.74,3.74,0,0,0,.38-7.43Z"/><path class="a94f2caa-4862-4d34-bc6e-e3a91107c3ed" d="M17.08,22.39h-.95a.29.29,0,0,1-.23-.1.32.32,0,0,1-.07-.23l.26-1.86a3.72,3.72,0,0,1-2.71.93,3.81,3.81,0,0,1-.47-7.56A3.83,3.83,0,0,1,14,9.79a3.81,3.81,0,0,1,6.25,3.78,3.81,3.81,0,0,1-.46,7.56,3.73,3.73,0,0,1-2.72-.93l.26,1.86a.28.28,0,0,1-.07.23A.27.27,0,0,1,17.08,22.39ZM16.19,20h0s0,0,0,.07l-.28,2a.14.14,0,0,0,0,.12.14.14,0,0,0,.12.06h.95a.14.14,0,0,0,.12-.06.13.13,0,0,0,0-.12L17,20A.08.08,0,0,1,17,20a.08.08,0,0,1,.08,0,3.6,3.6,0,0,0,2.75,1,3.67,3.67,0,0,0,.37-7.29l0,0a.07.07,0,0,1,0-.06A3.55,3.55,0,0,0,20.22,12a3.67,3.67,0,0,0-6.09-2.1,3.71,3.71,0,0,0-1.2,2.72,3.36,3.36,0,0,0,.14,1,.13.13,0,0,1,0,.06l-.05,0A3.67,3.67,0,0,0,13.38,21a3.62,3.62,0,0,0,2.76-1Z"/><path class="aa74e3e4-66c6-4eb5-b773-b2788b88745e" d="M19.41,12.48h0a.34.34,0,0,1-.3-.38A2.26,2.26,0,0,0,17,9.89a.34.34,0,0,1-.28-.39.33.33,0,0,1,.39-.28,2.94,2.94,0,0,1,2.62,3A.34.34,0,0,1,19.41,12.48Z"/><path class="aa74e3e4-66c6-4eb5-b773-b2788b88745e" d="M19.45,13.74a.34.34,0,0,1-.34-.34V13a.35.35,0,0,1,.69,0v.41A.35.35,0,0,1,19.45,13.74Z"/><path class="f1ed8158-55b0-47b0-9dc8-a89c57dd1550" d="M34.3,24.21a3.74,3.74,0,1,0-7.35-1,3.4,3.4,0,0,0,.15,1,3.74,3.74,0,1,0,3.18,6.4l-.28,2a.22.22,0,0,0,.22.26h1a.23.23,0,0,0,.23-.26l-.29-2a3.75,3.75,0,1,0,3.19-6.4Z"/><path class="a94f2caa-4862-4d34-bc6e-e3a91107c3ed" d="M31.17,33h-1a.27.27,0,0,1-.22-.1.28.28,0,0,1-.07-.23l.26-1.85A3.81,3.81,0,1,1,27,24.16a4,4,0,0,1-.12-1,3.8,3.8,0,0,1,4.18-3.79,3.79,3.79,0,0,1,3.38,3.15,3.65,3.65,0,0,1-.07,1.61,3.81,3.81,0,0,1-.46,7.55,3.77,3.77,0,0,1-2.71-.92l.25,1.85a.27.27,0,0,1-.06.23A.29.29,0,0,1,31.17,33Zm-.89-2.43h0a.07.07,0,0,1,0,.07l-.29,2a.17.17,0,0,0,0,.12.14.14,0,0,0,.12.06h1a.14.14,0,0,0,.12-.06.14.14,0,0,0,0-.12l-.28-2a.07.07,0,0,1,.11-.06,3.67,3.67,0,0,0,6.2-2.29,3.68,3.68,0,0,0-3.07-4,.09.09,0,0,1,0,0,.13.13,0,0,1,0-.06,3.66,3.66,0,0,0-3.18-4.65,3.61,3.61,0,0,0-2.83.94A3.67,3.67,0,0,0,27,23.19a3.72,3.72,0,0,0,.14,1,.07.07,0,0,1,0,.06s0,0,0,0a3.68,3.68,0,1,0,3.12,6.28A.06.06,0,0,1,30.28,30.54Z"/><path class="aa74e3e4-66c6-4eb5-b773-b2788b88745e" d="M33.5,23.06h0a.35.35,0,0,1-.31-.38,2.25,2.25,0,0,0-2-2.21.34.34,0,0,1-.29-.39.33.33,0,0,1,.4-.28,2.94,2.94,0,0,1,2.61,3A.34.34,0,0,1,33.5,23.06Z"/><path class="aa74e3e4-66c6-4eb5-b773-b2788b88745e" d="M33.55,24.32a.34.34,0,0,1-.34-.34v-.41a.34.34,0,0,1,.68,0V24A.34.34,0,0,1,33.55,24.32Z"/><path class="f1ed8158-55b0-47b0-9dc8-a89c57dd1550" d="M20.2,33.74a3.64,3.64,0,0,0,.09-1.65A3.74,3.74,0,1,0,13,33.74a3.75,3.75,0,1,0,3.19,6.4l-.29,2a.23.23,0,0,0,.22.26h1a.22.22,0,0,0,.22-.26l-.28-2a3.74,3.74,0,1,0,3.18-6.4Z"/><path class="a94f2caa-4862-4d34-bc6e-e3a91107c3ed" d="M17.08,42.51h-.95a.33.33,0,0,1-.23-.1.34.34,0,0,1-.07-.24l.26-1.85a3.75,3.75,0,0,1-2.71.92,3.81,3.81,0,0,1-.47-7.55,4,4,0,0,1-.12-1,3.81,3.81,0,1,1,7.5,1,3.81,3.81,0,0,1-.46,7.55,3.76,3.76,0,0,1-2.72-.92l.26,1.85a.3.3,0,0,1-.07.24A.3.3,0,0,1,17.08,42.51Zm-.89-2.44h0a.06.06,0,0,1,0,.07l-.28,2a.16.16,0,0,0,0,.13.17.17,0,0,0,.12,0h.95a.17.17,0,0,0,.12,0,.15.15,0,0,0,0-.13l-.28-2a.07.07,0,0,1,0-.07s.05,0,.08,0a3.64,3.64,0,0,0,2.54,1h.21a3.68,3.68,0,0,0,.37-7.3s0,0,0,0a.07.07,0,0,1,0-.06,3.55,3.55,0,0,0,.08-1.62,3.67,3.67,0,0,0-7.29.63,3.34,3.34,0,0,0,.14,1,.13.13,0,0,1,0,.06.05.05,0,0,1-.05,0,3.68,3.68,0,1,0,3.13,6.28Z"/><path class="aa74e3e4-66c6-4eb5-b773-b2788b88745e" d="M19.41,32.59h0a.34.34,0,0,1-.3-.37A2.27,2.27,0,0,0,17,30a.34.34,0,1,1,.11-.67,3,3,0,0,1,2.62,3A.34.34,0,0,1,19.41,32.59Z"/><path class="aa74e3e4-66c6-4eb5-b773-b2788b88745e" d="M19.45,33.86a.35.35,0,0,1-.34-.35V33.1a.35.35,0,0,1,.69,0v.41A.35.35,0,0,1,19.45,33.86Z"/><path class="f1ed8158-55b0-47b0-9dc8-a89c57dd1550" d="M48.11,53.86a3.84,3.84,0,0,0,.08-1.66,3.74,3.74,0,0,0-7.43.64,3.86,3.86,0,0,0,.14,1,3.74,3.74,0,1,0,3.19,6.39l-.28,2a.22.22,0,0,0,.22.25H45a.23.23,0,0,0,.23-.25l-.29-2a3.74,3.74,0,1,0,3.19-6.39Z"/><path class="a94f2caa-4862-4d34-bc6e-e3a91107c3ed" d="M45,62.62H44a.29.29,0,0,1-.22-.1.28.28,0,0,1-.07-.23L44,60.43a3.76,3.76,0,0,1-2.72.93,3.81,3.81,0,0,1-.46-7.56,3.9,3.9,0,0,1-.13-1,3.81,3.81,0,1,1,7.5,1,3.81,3.81,0,0,1-.46,7.56A3.76,3.76,0,0,1,45,60.43l.26,1.86a.25.25,0,0,1-.07.23A.29.29,0,0,1,45,62.62Zm-.89-2.44h0a.07.07,0,0,1,0,.07l-.29,2.05a.17.17,0,0,0,0,.12.17.17,0,0,0,.12,0H45a.17.17,0,0,0,.12,0,.17.17,0,0,0,0-.12l-.29-2.05a.07.07,0,0,1,0-.07.08.08,0,0,1,.08,0,3.6,3.6,0,0,0,2.75,1,3.68,3.68,0,0,0,.38-7.3.05.05,0,0,1-.05,0,.07.07,0,0,1,0,0,3.74,3.74,0,0,0,.09-1.63A3.68,3.68,0,0,0,42,50.12a3.71,3.71,0,0,0-1.2,2.72,3.77,3.77,0,0,0,.14,1,.07.07,0,0,1,0,0,.05.05,0,0,1-.05,0,3.68,3.68,0,0,0,.38,7.3,3.6,3.6,0,0,0,2.75-1Z"/><path class="aa74e3e4-66c6-4eb5-b773-b2788b88745e" d="M47.31,52.71h0a.35.35,0,0,1-.31-.38,2.26,2.26,0,0,0-2-2.21.35.35,0,0,1-.28-.39.34.34,0,0,1,.39-.29,3,3,0,0,1,2.62,3A.35.35,0,0,1,47.31,52.71Z"/><path class="aa74e3e4-66c6-4eb5-b773-b2788b88745e" d="M47.36,54a.34.34,0,0,1-.34-.34v-.41a.34.34,0,1,1,.68,0v.41A.34.34,0,0,1,47.36,54Z"/><path class="f1ed8158-55b0-47b0-9dc8-a89c57dd1550" d="M48.11,74a3.78,3.78,0,0,0,.08-1.65A3.74,3.74,0,1,0,40.9,74a3.74,3.74,0,0,0,.38,7.43,3.71,3.71,0,0,0,2.81-1l-.28,2a.22.22,0,0,0,.22.26H45a.23.23,0,0,0,.23-.26l-.29-2a3.71,3.71,0,0,0,2.81,1A3.74,3.74,0,0,0,48.11,74Z"/><path class="a94f2caa-4862-4d34-bc6e-e3a91107c3ed" d="M45,82.73H44a.26.26,0,0,1-.22-.1.28.28,0,0,1-.07-.23L44,80.55a3.81,3.81,0,0,1-2.5.93h-.22a3.81,3.81,0,0,1-.46-7.55,4,4,0,0,1-.13-1,3.85,3.85,0,0,1,1.25-2.82,3.81,3.81,0,0,1,6.25,3.79A3.81,3.81,0,1,1,45,80.55l.26,1.85a.25.25,0,0,1-.07.23A.26.26,0,0,1,45,82.73Zm-.89-2.43h0a.07.07,0,0,1,0,.07l-.29,2a.17.17,0,0,0,0,.12.14.14,0,0,0,.12.06H45a.14.14,0,0,0,.12-.06.17.17,0,0,0,0-.12l-.29-2a.07.07,0,0,1,0-.07.06.06,0,0,1,.08,0,3.65,3.65,0,0,0,2.54,1h.21A3.68,3.68,0,0,0,48.1,74a.09.09,0,0,1-.05,0A.13.13,0,0,1,48,74a3.66,3.66,0,0,0-3.18-4.65,3.6,3.6,0,0,0-2.83.94A3.67,3.67,0,0,0,40.83,73,3.72,3.72,0,0,0,41,74,.13.13,0,0,1,41,74a.09.09,0,0,1-.05,0A3.68,3.68,0,1,0,44,80.32.06.06,0,0,1,44.09,80.3Z"/><path class="aa74e3e4-66c6-4eb5-b773-b2788b88745e" d="M47.31,72.82h0a.35.35,0,0,1-.31-.38,2.27,2.27,0,0,0-2-2.21.34.34,0,0,1-.28-.39.33.33,0,0,1,.39-.28,2.94,2.94,0,0,1,2.62,3A.34.34,0,0,1,47.31,72.82Z"/><path class="aa74e3e4-66c6-4eb5-b773-b2788b88745e" d="M47.36,74.09a.35.35,0,0,1-.34-.35v-.41a.34.34,0,1,1,.68,0v.41A.35.35,0,0,1,47.36,74.09Z"/><path class="f1ed8158-55b0-47b0-9dc8-a89c57dd1550" d="M20.2,53.86a3.69,3.69,0,0,0,.09-1.66,3.74,3.74,0,0,0-7.43.64,3.86,3.86,0,0,0,.14,1,3.74,3.74,0,1,0,3.19,6.39l-.29,2a.22.22,0,0,0,.22.25h1a.22.22,0,0,0,.22-.25l-.28-2a3.74,3.74,0,1,0,3.18-6.39Z"/><path class="a94f2caa-4862-4d34-bc6e-e3a91107c3ed" d="M17.08,62.62h-.95a.33.33,0,0,1-.23-.1.32.32,0,0,1-.07-.23l.26-1.86a3.72,3.72,0,0,1-2.71.93,3.81,3.81,0,0,1-.47-7.56,3.89,3.89,0,0,1-.12-1,3.81,3.81,0,1,1,7.5,1,3.81,3.81,0,0,1-.46,7.56,3.73,3.73,0,0,1-2.72-.93l.26,1.86a.28.28,0,0,1-.07.23A.3.3,0,0,1,17.08,62.62Zm-.89-2.44h0a.06.06,0,0,1,0,.07L16,62.31a.14.14,0,0,0,0,.12.17.17,0,0,0,.12,0h.95a.17.17,0,0,0,.12,0,.13.13,0,0,0,0-.12L17,60.26a.07.07,0,0,1,0-.07.08.08,0,0,1,.08,0,3.6,3.6,0,0,0,2.75,1,3.68,3.68,0,0,0,.37-7.3s0,0,0,0a0,0,0,0,1,0,0,3.59,3.59,0,0,0,.08-1.63,3.67,3.67,0,0,0-6.09-2.09,3.71,3.71,0,0,0-1.2,2.72,3.4,3.4,0,0,0,.14,1,.07.07,0,0,1,0,0,.05.05,0,0,1-.05,0,3.68,3.68,0,0,0,.37,7.3,3.62,3.62,0,0,0,2.76-1Z"/><path class="aa74e3e4-66c6-4eb5-b773-b2788b88745e" d="M19.41,52.71h0a.34.34,0,0,1-.3-.38A2.26,2.26,0,0,0,17,50.12a.34.34,0,0,1,.11-.68,3,3,0,0,1,2.62,3A.35.35,0,0,1,19.41,52.71Z"/><path class="aa74e3e4-66c6-4eb5-b773-b2788b88745e" d="M19.45,54a.34.34,0,0,1-.34-.34v-.41a.35.35,0,1,1,.69,0v.41A.35.35,0,0,1,19.45,54Z"/><path class="f1ed8158-55b0-47b0-9dc8-a89c57dd1550" d="M20.2,74a3.64,3.64,0,0,0,.09-1.65A3.74,3.74,0,1,0,13,74a3.74,3.74,0,0,0,.38,7.43,3.71,3.71,0,0,0,2.81-1l-.29,2a.23.23,0,0,0,.22.26h1a.22.22,0,0,0,.22-.26l-.28-2a3.68,3.68,0,0,0,2.8,1A3.74,3.74,0,0,0,20.2,74Z"/><path class="a94f2caa-4862-4d34-bc6e-e3a91107c3ed" d="M17.08,82.73h-.95a.29.29,0,0,1-.23-.1.32.32,0,0,1-.07-.23l.26-1.85a3.75,3.75,0,0,1-2.71.92,3.81,3.81,0,0,1-.47-7.55,4,4,0,0,1-.12-1,3.81,3.81,0,1,1,7.5,1,3.81,3.81,0,0,1-.46,7.55,3.76,3.76,0,0,1-2.72-.92l.26,1.85a.28.28,0,0,1-.07.23A.27.27,0,0,1,17.08,82.73Zm-.89-2.43h0a.06.06,0,0,1,0,.07l-.28,2a.14.14,0,0,0,0,.12.14.14,0,0,0,.12.06h.95a.14.14,0,0,0,.12-.06.13.13,0,0,0,0-.12l-.28-2a.07.07,0,0,1,0-.07s.05,0,.08,0a3.64,3.64,0,0,0,2.54,1h.21a3.68,3.68,0,0,0,.37-7.3s0,0,0,0a.07.07,0,0,1,0-.06,3.55,3.55,0,0,0,.08-1.62,3.65,3.65,0,0,0-3.26-3,3.58,3.58,0,0,0-2.83.94A3.67,3.67,0,0,0,12.93,73a3.36,3.36,0,0,0,.14,1,.13.13,0,0,1,0,.06A.09.09,0,0,1,13,74a3.68,3.68,0,0,0,.37,7.3,3.72,3.72,0,0,0,2.76-1S16.17,80.3,16.19,80.3Z"/><path class="aa74e3e4-66c6-4eb5-b773-b2788b88745e" d="M19.41,72.82h0a.34.34,0,0,1-.3-.38A2.27,2.27,0,0,0,17,70.23a.33.33,0,0,1-.28-.39.33.33,0,0,1,.39-.28,3,3,0,0,1,2.62,3A.34.34,0,0,1,19.41,72.82Z"/><path class="aa74e3e4-66c6-4eb5-b773-b2788b88745e" d="M19.45,74.09a.35.35,0,0,1-.34-.35v-.41a.35.35,0,0,1,.69,0v.41A.35.35,0,0,1,19.45,74.09Z"/></g></g></svg>