<svg xmlns="http://www.w3.org/2000/svg" xmlns:xlink="http://www.w3.org/1999/xlink" viewBox="0 0 61.11 91.54"><defs><style>.af1d6e9a-6348-417f-b42c-c0135b175275{fill:none;}.e027c619-ab50-41dd-b970-e93cf0965a42{fill:#adadad;}.a2f4d0e4-a114-4808-a2be-06dc02f3003d{fill:#1f2d6c;}.a7b0493b-0cb8-49d8-8ede-4d814ed6b477{fill:#aa292e;}.f59ea7f4-507e-40ab-af52-6bf8c4a40f01{fill:#333;}.f6036556-1d67-4eb5-b1c9-d5d981e1a529{fill:#0b050f;}.bd475b96-4a0c-480b-9fe2-9630197c0e74{fill:#aa7941;}.bf5289db-a5a4-466d-ab99-a9fe43faff6d{fill:#dce3f2;}.be8aefb9-46d4-4190-ad84-fa5833e1deee{fill:#e8efff;}.a7fbe2d5-9587-4850-92d3-fe7aff261b70{fill:#bf9b4d;}.b4887d37-1b7f-4a16-9569-332bd6294368{fill:#f1d966;}.b77157da-1ae6-4fc1-a137-0dd99ecf4b03{fill:#bc8e36;}.aa6e140b-4c5e-4b3d-bc93-06d69c80989b{clip-path:url(#b6fc20c6-a2f4-41b7-b7d2-d76177081f42);}.bd57bb05-1e66-4ab9-b8c4-9407b71ade59{fill:#f0f0f0;}.f013e003-8860-4837-89bb-541783a9429e{fill:#5980a7;}.ee7f1db7-cd33-415d-8bb7-81f1deca5d6c{opacity:0.3;}.bd16ce0f-9d66-4d0f-8ff8-0b5e7dd92711,.ee7f1db7-cd33-415d-8bb7-81f1deca5d6c{isolation:isolate;}.a24d2cef-a6af-42ca-a5bf-a4a9d6f8d8b6{fill:#6580be;}.fcc43047-d261-484d-abc0-c2fca2b39c04{fill:#fff;}.beb22b38-e25a-4f2a-840d-27099c42010c{fill:#252525;}.f2af0675-c154-4034-9b58-bc85707d3ebd{clip-path:url(#b864e354-8a96-4daf-b441-1b3b25df5426);}.b93182d5-9c84-4fc0-bd36-ae2f787cd831{fill:#201e1c;}.f358abf9-763f-4e77-9424-c1019c572aed{fill:#dda034;}.a6a0dbbe-08dd-4cae-94a9-5ddf919eb6a4{fill:#ad7c34;}.f4d8f86f-e0f1-44f0-ba64-62043a649fc5{fill:#eab440;}.bd16ce0f-9d66-4d0f-8ff8-0b5e7dd92711{opacity:0.75;}.bd5d6dc2-1c5f-493b-bb73-d3b397adcd13{clip-path:url(#b3b43493-05bb-4763-8a00-1755405b3a99);}.b31a0af6-9dbb-481a-a05a-0e7e0ea5f6e3{clip-path:url(#b82569f0-2864-4d9f-9f92-605a9ebd646a);}.e8f8627b-c8f8-440c-b62d-6db8f2a83714{fill:#363026;}.fbecfa8c-3121-4a1c-8ef8-63456a1bf4d1{fill:#716b61;}.f5c32e58-fa80-4077-bb16-22145e23a54e{fill:#453f31;}.afd07b8f-ba0b-4d31-b1fa-8d3c8a4e2627{fill:#aaa194;}</style><clipPath id="b6fc20c6-a2f4-41b7-b7d2-d76177081f42"><path class="af1d6e9a-6348-417f-b42c-c0135b175275" d="M21,19.79s.4.45,2.77.66c2.12.2,2.25-.89,2.14-1.23a2.65,2.65,0,0,0-2.22-2.08,2.31,2.31,0,0,0-2.07,1.1A3.46,3.46,0,0,0,21,19.79Z"/></clipPath><clipPath id="b864e354-8a96-4daf-b441-1b3b25df5426"><path class="af1d6e9a-6348-417f-b42c-c0135b175275" d="M34.72,20.7s-.34.43-3,.22c-2.35-.19-2.49-1.35-2.32-1.66a2.85,2.85,0,0,1,2.77-1.66,2.65,2.65,0,0,1,2.09,1.46A3.36,3.36,0,0,1,34.72,20.7Z"/></clipPath><clipPath id="b3b43493-05bb-4763-8a00-1755405b3a99"><path class="af1d6e9a-6348-417f-b42c-c0135b175275" d="M39.1,70.54s-.41-.45-2.77-.67c-2.12-.19-2.25.9-2.15,1.24a2.67,2.67,0,0,0,2.22,2.07,2.3,2.3,0,0,0,2.08-1.09A3.64,3.64,0,0,0,39.1,70.54Z"/></clipPath><clipPath id="b82569f0-2864-4d9f-9f92-605a9ebd646a"><path class="af1d6e9a-6348-417f-b42c-c0135b175275" d="M25.36,69.63s.34-.44,3-.22c2.35.19,2.48,1.35,2.31,1.66a2.84,2.84,0,0,1-2.76,1.65,2.63,2.63,0,0,1-2.09-1.45A3.39,3.39,0,0,1,25.36,69.63Z"/></clipPath></defs><title>T_Q</title><g id="b9af58b7-27b3-4911-a226-c2f0fd54e3a4" data-name="Capa 2"><g id="bb24378f-0ba1-4222-8d54-a2501e62355f" data-name="Objects"><rect class="af1d6e9a-6348-417f-b42c-c0135b175275" x="0.13" y="0.13" width="60.86" height="91.29" rx="2.4"/><path class="e027c619-ab50-41dd-b970-e93cf0965a42" d="M58.59,91.54H2.52A2.53,2.53,0,0,1,0,89V2.52A2.52,2.52,0,0,1,2.52,0H58.59a2.52,2.52,0,0,1,2.52,2.52V89A2.53,2.53,0,0,1,58.59,91.54ZM2.52.25A2.27,2.27,0,0,0,.25,2.52V89a2.28,2.28,0,0,0,2.27,2.28H58.59A2.28,2.28,0,0,0,60.86,89V2.52A2.27,2.27,0,0,0,58.59.25Z"/><rect class="a2f4d0e4-a114-4808-a2be-06dc02f3003d" x="21.87" y="38.68" width="3.57" height="1.21"/><rect class="a7b0493b-0cb8-49d8-8ede-4d814ed6b477" x="22.18" y="37.47" width="3.57" height="1.21"/><rect class="a2f4d0e4-a114-4808-a2be-06dc02f3003d" x="22.71" y="36.26" width="3.57" height="1.21"/><rect class="a7b0493b-0cb8-49d8-8ede-4d814ed6b477" x="23.02" y="35.05" width="3.57" height="1.21"/><rect class="a2f4d0e4-a114-4808-a2be-06dc02f3003d" x="23.55" y="33.84" width="3.57" height="1.21"/><rect class="a7b0493b-0cb8-49d8-8ede-4d814ed6b477" x="23.86" y="32.63" width="3.57" height="1.21"/><rect class="a2f4d0e4-a114-4808-a2be-06dc02f3003d" x="24.39" y="31.42" width="3.57" height="1.21"/><polygon class="f59ea7f4-507e-40ab-af52-6bf8c4a40f01" points="25.76 39.94 28.37 33.16 35.15 32.68 31.27 40.45 25.76 39.94"/><polygon class="f59ea7f4-507e-40ab-af52-6bf8c4a40f01" points="17.32 39.5 16.37 32.01 23.28 32.33 23.39 35.08 21.02 40 17.32 39.5"/><path class="f6036556-1d67-4eb5-b1c9-d5d981e1a529" d="M25.19,31.87,22.13,39.8l-2.26-.3s3.16-4.14,2.66-5.72-4.13-.62-4.13-.62l-1.56-2.79Z"/><path class="f6036556-1d67-4eb5-b1c9-d5d981e1a529" d="M24.7,40l3-8,7.65-.57-1,2.29s-4.17-.79-5.38.19-2.36,6-2.36,6Z"/><path class="f6036556-1d67-4eb5-b1c9-d5d981e1a529" d="M32.08,42.85a142.07,142.07,0,0,1-15.24-.55V39.5a142.07,142.07,0,0,0,15.24.55"/><path class="bd475b96-4a0c-480b-9fe2-9630197c0e74" d="M29.3,40.44c-5.8,0-12.42-.59-12.49-.6l.06-.67a142,142,0,0,0,15.2.54l0,.67C31.21,40.42,30.27,40.44,29.3,40.44Z"/><path class="bd475b96-4a0c-480b-9fe2-9630197c0e74" d="M29.3,43.24c-5.8,0-12.42-.59-12.49-.6l.06-.67a142,142,0,0,0,15.2.54l0,.67C31.21,43.22,30.27,43.24,29.3,43.24Z"/><path class="bf5289db-a5a4-466d-ab99-a9fe43faff6d" d="M11.88,33.88l4.31-4s3.39,1.75,3,5.25-2.29,4.71-2.29,4.71Z"/><path class="f6036556-1d67-4eb5-b1c9-d5d981e1a529" d="M11.88,33.88l3.83-3.51s3,1.56,2.66,4.66-2,4.19-2,4.19Z"/><path class="a2f4d0e4-a114-4808-a2be-06dc02f3003d" d="M11.88,33.89,15.08,31s2.52,1.31,2.22,3.9a4.82,4.82,0,0,1-1.71,3.5Z"/><path class="be8aefb9-46d4-4190-ad84-fa5833e1deee" d="M48.19,28.17a12.87,12.87,0,0,0-3.89-.61c-7.59,0-13.75,6.74-13.75,15s6.16,15,13.75,15A12.57,12.57,0,0,0,48.19,57Z"/><path class="bf5289db-a5a4-466d-ab99-a9fe43faff6d" d="M48.19,28.83a12.3,12.3,0,0,0-3.89-.64c-7.28,0-13.18,6.45-13.18,14.41S37,57,44.3,57a12,12,0,0,0,3.89-.64Z"/><path class="bd475b96-4a0c-480b-9fe2-9630197c0e74" d="M48.19,32a9.58,9.58,0,0,0-3.89-.82c-5.79,0-10.48,5.13-10.48,11.46S38.51,54.06,44.3,54.06a9.58,9.58,0,0,0,3.89-.82Z"/><path class="a7fbe2d5-9587-4850-92d3-fe7aff261b70" d="M48.19,33.17a8.7,8.7,0,0,0-3.89-.92c-5.23,0-9.46,4.64-9.46,10.35S39.07,53,44.3,53A8.7,8.7,0,0,0,48.19,52Z"/><path class="be8aefb9-46d4-4190-ad84-fa5833e1deee" d="M48.19,36.68a6.27,6.27,0,0,0-3.89-1.37c-3.68,0-6.67,3.26-6.67,7.29s3,7.3,6.67,7.3a6.22,6.22,0,0,0,3.89-1.38Z"/><path class="f59ea7f4-507e-40ab-af52-6bf8c4a40f01" d="M48.19,37.15a5.94,5.94,0,0,0-3.89-1.47c-3.5,0-6.33,3.1-6.33,6.92s2.83,6.93,6.33,6.93a5.94,5.94,0,0,0,3.89-1.47Z"/><path class="bd475b96-4a0c-480b-9fe2-9630197c0e74" d="M48.19,41.55l-.65-.45h0l-.63-.5h0l-.6-.52h0c-.2-.18-.38-.36-.57-.55v0c0,.2,0,.4-.08.59a.36.36,0,0,0,0,.1l-.09.46v0l0,.17-.09.35,0,.07c0,.06,0,.11,0,.17a3.37,3.37,0,0,0-.1.34l0,.06-.06.17c0,.11-.07.23-.11.34l-.08.21-.12.33c0,.07-.07.14-.1.22s-.08.2-.13.3a1.51,1.51,0,0,1-.11.22c0,.1-.09.2-.14.3a2.26,2.26,0,0,0-.11.22l-.14.25,0,0-.12.2-.13.21a.63.63,0,0,1-.07.12c0,.06-.07.11-.1.16l-.15.23-.11.16-.06.09-.18.25L43,46.1l-.17.22-.08.1-.16.18-.12.15-.13.15-.22.23,0,0-.17.17-.27.27a1.85,1.85,0,0,1-.14.14l-.11.1-.25.23-.06,0-.19.16a3.11,3.11,0,0,1-.28.23,1.84,1.84,0,0,1-.22.17l-.2.16-.26.18-.21.15-.26.17-.22.13-.27.17-.22.12-.29.16-.21.11L38,50.2l-.21.1-.33.14-.2.09-.36.14-.18.07-.47.15-.07,0-.57.16-.08,0-.48.11-.18,0-.4.07-.21,0c-.33,0-.66.09-1,.11a13.39,13.39,0,0,0,11.1,6.17,12.8,12.8,0,0,0,3.88-.6Z"/><path class="a7fbe2d5-9587-4850-92d3-fe7aff261b70" d="M48.19,42.59a1.91,1.91,0,0,0-.6-1c-.49-.53-1.16-.94-1.67-1.47C45.19,46,40.23,51.54,34.34,52c3.3,4.93,13.47,8.72,13.85.74Z"/><polygon class="a2f4d0e4-a114-4808-a2be-06dc02f3003d" points="48.19 42.13 48.19 32.32 43.14 27.64 38 30.58 48.19 42.13"/><path class="f6036556-1d67-4eb5-b1c9-d5d981e1a529" d="M36.89,30.81s11,12.7,11.3,12.85v-2L39,30.58Z"/><path class="f6036556-1d67-4eb5-b1c9-d5d981e1a529" d="M23,15s-4.55,10.07-3.85,13.31,7.19-5.93,7.19-5.93Z"/><path class="f59ea7f4-507e-40ab-af52-6bf8c4a40f01" d="M26.89,5.77S19.65,7.5,16.33,17.52s-1.8,13.86-1.8,13.86l5-3.53s-.46-4.73,3-12.92,6.29-7.21,6.29-7.21Z"/><path class="a7fbe2d5-9587-4850-92d3-fe7aff261b70" d="M24.56,13.66A4.74,4.74,0,0,1,23,13.18a22.88,22.88,0,0,0-2.47,5.22c-3.32,10-1.73,11.82-1.73,11.82l1.46-.32s-1.84-3.26,1.62-11.45A22.64,22.64,0,0,1,24.56,13.66Z"/><path class="bd475b96-4a0c-480b-9fe2-9630197c0e74" d="M19.93,27l-4.5,3.44a43.76,43.76,0,0,0,28.31-1.1l-3.65-4.5Z"/><path class="a7fbe2d5-9587-4850-92d3-fe7aff261b70" d="M20.83,26.3l-4.5,3.43s12.15,4.5,27.41-1.35l-3.65-4.51Z"/><path class="f6036556-1d67-4eb5-b1c9-d5d981e1a529" d="M24,22.4a7.59,7.59,0,0,1-3.19,3.9s11.89,2.14,19.26-1.47c0,0-1.14-7.29-4.68-5.78A99.06,99.06,0,0,1,24,22.4Z"/><polygon class="b4887d37-1b7f-4a16-9569-332bd6294368" points="27.56 26.15 27.56 26.9 31.07 26.86 31.21 25.71 27.56 26.15"/><path class="b77157da-1ae6-4fc1-a137-0dd99ecf4b03" d="M27.51,27v-.84h0l3.72-.44-.15,1.25Zm.1-.75v.65l3.42,0,.13-1.05Z"/><path class="b4887d37-1b7f-4a16-9569-332bd6294368" d="M29.55,26.54c5.33-.29,8.85-2.61,9.58-5.24s.87-7.46-1.74-10.38A11.58,11.58,0,0,0,29.67,7.6c-2.06,0-6.12.79-8.44,3.41s-2.24,7.8-1.67,9.55C20.29,22.77,24.58,26.82,29.55,26.54Z"/><path class="b77157da-1ae6-4fc1-a137-0dd99ecf4b03" d="M29.08,26.62c-4.72,0-8.84-3.84-9.57-6-.63-1.92-.61-7,1.68-9.62s6.6-3.42,8.48-3.42a11.73,11.73,0,0,1,7.76,3.33c2.81,3.14,2.37,8.21,1.75,10.45-.8,2.89-4.67,5-9.63,5.28h0Zm.59-19c-1.87,0-6,.71-8.4,3.39s-2.28,7.6-1.66,9.48c.72,2.18,4.8,6,9.46,6h.48c5.67-.31,8.87-2.84,9.53-5.2s1-7.22-1.73-10.32a11.61,11.61,0,0,0-7.68-3.3Z"/><g class="aa6e140b-4c5e-4b3d-bc93-06d69c80989b"><g id="b488b0b3-a930-46b8-a4b4-9b14209e7a41" data-name="ojo der-3"><path class="bd57bb05-1e66-4ab9-b8c4-9407b71ade59" d="M21,19.79s.28.51,2.64.72c2.13.19,2.38-1,2.27-1.29a2.65,2.65,0,0,0-2.22-2.08,2.31,2.31,0,0,0-2.07,1.1A3.46,3.46,0,0,0,21,19.79Z"/></g><g id="acbd36c9-c89a-476e-b59b-6eaf5f7802ae" data-name="pupila der"><ellipse class="f013e003-8860-4837-89bb-541783a9429e" cx="24.02" cy="19.22" rx="1.15" ry="1.28"/></g><g id="e4a2f924-75fc-4e52-b921-b51e8624d1d3" data-name="ojo der-4" class="ee7f1db7-cd33-415d-8bb7-81f1deca5d6c"><path class="a24d2cef-a6af-42ca-a5bf-a4a9d6f8d8b6" d="M21.17,18.94a2.44,2.44,0,0,1,2.15-1.68,4.38,4.38,0,0,1,1.69.46,3.06,3.06,0,0,1,.89,1.6,1.36,1.36,0,0,1-.16.8,2.68,2.68,0,0,0-2.14-1.28,3.08,3.08,0,0,0-2.6,1c-.08,0,.17-.65.17-.89"/></g><g id="b3e2b617-aaa5-40d3-889c-9faff739e642" data-name="brillo ojo der"><ellipse class="fcc43047-d261-484d-abc0-c2fca2b39c04" cx="24.5" cy="18.67" rx="0.21" ry="0.23"/></g></g><path class="beb22b38-e25a-4f2a-840d-27099c42010c" d="M25.9,19.32a2.52,2.52,0,0,0-2.27-2c-2.1-.24-2.63,2.51-2.63,2.51-.57-.13-.89-.89-.89-.89l.68.14a2.71,2.71,0,0,1,2.86-2.23c1.44.13,2,1.63,2.21,2.14a1.24,1.24,0,0,1,0,.33Z"/><g class="f2af0675-c154-4034-9b58-bc85707d3ebd"><g id="e7cd616e-2579-47c7-8bbd-daaf0a6f7d24" data-name="ojo der-5"><path class="bd57bb05-1e66-4ab9-b8c4-9407b71ade59" d="M34.72,20.7s-.3.84-2.92.63c-2.35-.2-2.53-1.76-2.36-2.07a2.82,2.82,0,0,1,2.77-1.65,2.62,2.62,0,0,1,2.09,1.45A3.36,3.36,0,0,1,34.72,20.7Z"/></g><g id="fbcd5c65-6c85-4c2f-8d1a-3d3a6229db08" data-name="pupila der-2"><circle class="f013e003-8860-4837-89bb-541783a9429e" cx="31.84" cy="19.66" r="1.28"/></g><g id="fe2857ba-21e9-4cf3-aa05-18dabc2e1fe7" data-name="ojo der-6" class="ee7f1db7-cd33-415d-8bb7-81f1deca5d6c"><path class="a24d2cef-a6af-42ca-a5bf-a4a9d6f8d8b6" d="M34.65,19.83a2.64,2.64,0,0,0-2.08-2,5.5,5.5,0,0,0-1.92.15,3,3,0,0,0-1.23,1.42,1.23,1.23,0,0,0,0,.82A3,3,0,0,1,32,19.3a3.57,3.57,0,0,1,2.68,1.44c.1,0-.08-.67,0-.91"/></g><g id="f89d0940-0c7d-4f32-99db-a6c3af1dcf23" data-name="brillo ojo der-2"><circle class="fcc43047-d261-484d-abc0-c2fca2b39c04" cx="31.38" cy="19.08" r="0.23"/></g></g><path class="beb22b38-e25a-4f2a-840d-27099c42010c" d="M29.42,19.35a2.75,2.75,0,0,1,2.81-1.56c2.33.14,2.46,2.95,2.46,2.95A1.67,1.67,0,0,0,35.81,20h-.76a3,3,0,0,0-2.77-2.72A3,3,0,0,0,29.52,19a.81.81,0,0,0-.1.31Z"/><path class="b93182d5-9c84-4fc0-bd36-ae2f787cd831" d="M23,14.57a2.21,2.21,0,0,1,.66-.56,1.48,1.48,0,0,1,.87-.19,1.19,1.19,0,0,1,.8.4,1.82,1.82,0,0,1,.27.35,3.39,3.39,0,0,1,.18.39,3.69,3.69,0,0,0-.56-.62A1.31,1.31,0,0,0,24.5,14a1.74,1.74,0,0,0-.77.13A4.1,4.1,0,0,0,23,14.57Z"/><path class="b93182d5-9c84-4fc0-bd36-ae2f787cd831" d="M33.27,15.48a3.08,3.08,0,0,0-.62-.58,1.32,1.32,0,0,0-.74-.27,1.36,1.36,0,0,0-.76.21,4.72,4.72,0,0,0-.69.51c.08-.12.17-.24.26-.35a2.43,2.43,0,0,1,.34-.3,1.28,1.28,0,0,1,1.7.06A2.15,2.15,0,0,1,33.27,15.48Z"/><path class="f358abf9-763f-4e77-9424-c1019c572aed" d="M28.44,23.26a2.21,2.21,0,0,1-1.66.77,1.86,1.86,0,0,1-1.42-.85c-.28-.43.41-.93,1.46-.9S28.77,22.86,28.44,23.26Z"/><path class="a6a0dbbe-08dd-4cae-94a9-5ddf919eb6a4" d="M26.81,24.08h0a1.89,1.89,0,0,1-1.46-.87.41.41,0,0,1,0-.44,1.7,1.7,0,0,1,1.45-.55h.07a2.12,2.12,0,0,1,1.71.71.32.32,0,0,1-.05.36A2.25,2.25,0,0,1,26.81,24.08Zm-.07-1.75a1.57,1.57,0,0,0-1.35.5.29.29,0,0,0,0,.32,1.78,1.78,0,0,0,1.37.82h0a2.16,2.16,0,0,0,1.59-.75.23.23,0,0,0,0-.25,2,2,0,0,0-1.61-.64Z"/><path class="f4d8f86f-e0f1-44f0-ba64-62043a649fc5" d="M27.78,21.55c-.53-.26-.59-.73-.77-.73s-.27.46-.81.69a14.71,14.71,0,0,1-3.16,0s.3,1.48,1.22,1.61a17.75,17.75,0,0,0,2.7-.34,16.4,16.4,0,0,0,2.67.47c.93-.08,1.3-1.54,1.3-1.54A15.13,15.13,0,0,1,27.78,21.55Z"/><path class="a6a0dbbe-08dd-4cae-94a9-5ddf919eb6a4" d="M29.43,23.36A5.54,5.54,0,0,1,28,23.09a5.11,5.11,0,0,0-1-.22h0a4.79,4.79,0,0,0-1,.17,4.7,4.7,0,0,1-1.66.17C23.3,23.08,23,21.62,23,21.56v-.07h.07a14.34,14.34,0,0,0,3.13,0,1.32,1.32,0,0,0,.56-.49c.09-.12.16-.21.26-.21h0c.1,0,.16.1.25.22a1.35,1.35,0,0,0,.54.52h0a15.34,15.34,0,0,0,3.12.19H31v.07c0,.06-.39,1.5-1.35,1.59Zm-2.49-.6h0A6.18,6.18,0,0,1,28,23a4.51,4.51,0,0,0,1.6.26c.77-.07,1.14-1.15,1.23-1.44a13.1,13.1,0,0,1-3.1-.2h0a1.47,1.47,0,0,1-.58-.55c-.07-.1-.12-.18-.17-.18h0s-.1.07-.17.17a1.42,1.42,0,0,1-.61.52,13.53,13.53,0,0,1-3.11.05c.08.29.4,1.39,1.16,1.49a4.53,4.53,0,0,0,1.62-.17,4.85,4.85,0,0,1,1.05-.17Z"/><g class="bd16ce0f-9d66-4d0f-8ff8-0b5e7dd92711"><path class="b4887d37-1b7f-4a16-9569-332bd6294368" d="M26.33,21.83a3.16,3.16,0,0,1,.45-.38C26.85,21.42,27,21.63,26.33,21.83Z"/></g><g class="bd16ce0f-9d66-4d0f-8ff8-0b5e7dd92711"><path class="b4887d37-1b7f-4a16-9569-332bd6294368" d="M27.56,21.82a4.44,4.44,0,0,0-.43-.4C27.06,21.39,26.9,21.59,27.56,21.82Z"/></g><path class="f6036556-1d67-4eb5-b1c9-d5d981e1a529" d="M26.89,5.77a9.9,9.9,0,0,1,9.32,2.94c4.09,4.35,8.57,14.8,12,15.93V29s-8.3-4.24-10.3-10.8S26.89,5.77,26.89,5.77Z"/><path class="f59ea7f4-507e-40ab-af52-6bf8c4a40f01" d="M26.89,7.49s5.56,1.43,10.18,12.79c7.84,12.67,11.12,12,11.12,12V29A42,42,0,0,1,39,18.08c-3.48-6.29-5.8-12.31-12.13-12.31Z"/><path class="a7fbe2d5-9587-4850-92d3-fe7aff261b70" d="M26.89,5.77S19.65,7.5,16.33,17.52s-1.8,13.86-1.8,13.86l1.33-.8s-1.64-4.82,1.82-13S26.89,7.49,26.89,7.49Z"/><rect class="a2f4d0e4-a114-4808-a2be-06dc02f3003d" x="34.63" y="50.44" width="3.57" height="1.21"/><rect class="a7b0493b-0cb8-49d8-8ede-4d814ed6b477" x="34.32" y="51.65" width="3.57" height="1.21"/><rect class="a2f4d0e4-a114-4808-a2be-06dc02f3003d" x="33.79" y="52.86" width="3.57" height="1.21"/><rect class="a7b0493b-0cb8-49d8-8ede-4d814ed6b477" x="33.48" y="54.07" width="3.57" height="1.21"/><rect class="a2f4d0e4-a114-4808-a2be-06dc02f3003d" x="32.95" y="55.28" width="3.57" height="1.21"/><rect class="a7b0493b-0cb8-49d8-8ede-4d814ed6b477" x="32.64" y="56.49" width="3.57" height="1.21"/><rect class="a2f4d0e4-a114-4808-a2be-06dc02f3003d" x="32.11" y="57.7" width="3.57" height="1.21"/><polygon class="f59ea7f4-507e-40ab-af52-6bf8c4a40f01" points="34.32 50.39 31.7 57.16 24.92 57.64 28.81 49.88 34.32 50.39"/><polygon class="f59ea7f4-507e-40ab-af52-6bf8c4a40f01" points="42.76 50.82 43.7 58.32 36.8 58 36.68 55.24 39.06 50.33 42.76 50.82"/><path class="f6036556-1d67-4eb5-b1c9-d5d981e1a529" d="M34.88,58.46,38,50.52l2.25.3S37.05,55,37.54,56.55s4.14.61,4.14.61L43.24,60Z"/><path class="f6036556-1d67-4eb5-b1c9-d5d981e1a529" d="M35.38,50.32l-3,8L24.73,59l1-2.29s4.16.79,5.37-.2,2.37-6,2.37-6Z"/><path class="f6036556-1d67-4eb5-b1c9-d5d981e1a529" d="M28,47.48A143.34,143.34,0,0,1,43.24,48v2.8A143.34,143.34,0,0,0,28,50.28"/><path class="bd475b96-4a0c-480b-9fe2-9630197c0e74" d="M43.21,51.16A142,142,0,0,0,28,50.62l0-.68a142.39,142.39,0,0,1,15.29.55Z"/><path class="bd475b96-4a0c-480b-9fe2-9630197c0e74" d="M43.21,48.36A142,142,0,0,0,28,47.82l0-.68a142.39,142.39,0,0,1,15.29.55Z"/><path class="bf5289db-a5a4-466d-ab99-a9fe43faff6d" d="M48.19,56.45l-4.3,3.95s-3.4-1.76-3-5.25,2.29-4.71,2.29-4.71Z"/><path class="f6036556-1d67-4eb5-b1c9-d5d981e1a529" d="M48.19,56.44,44.37,60s-3-1.56-2.66-4.67,2-4.19,2-4.19Z"/><path class="a2f4d0e4-a114-4808-a2be-06dc02f3003d" d="M48.19,56.44,45,59.37s-2.52-1.3-2.22-3.89a4.79,4.79,0,0,1,1.7-3.5Z"/><path class="be8aefb9-46d4-4190-ad84-fa5833e1deee" d="M11.88,62.15a12.68,12.68,0,0,0,3.9.61c7.59,0,13.75-6.73,13.75-15s-6.16-15-13.75-15a12.68,12.68,0,0,0-3.9.62Z"/><path class="bf5289db-a5a4-466d-ab99-a9fe43faff6d" d="M11.88,61.5a12.31,12.31,0,0,0,3.9.64C23.05,62.14,29,55.68,29,47.72s-5.9-14.41-13.17-14.41a12.31,12.31,0,0,0-3.9.64Z"/><path class="bd475b96-4a0c-480b-9fe2-9630197c0e74" d="M11.88,58.36a9.67,9.67,0,0,0,3.9.83c5.79,0,10.48-5.14,10.48-11.47S21.57,36.26,15.78,36.26a9.67,9.67,0,0,0-3.9.82Z"/><path class="a7fbe2d5-9587-4850-92d3-fe7aff261b70" d="M11.88,57.15a8.75,8.75,0,0,0,3.9.92c5.22,0,9.46-4.63,9.46-10.35S21,37.37,15.78,37.37a8.75,8.75,0,0,0-3.9.92Z"/><path class="be8aefb9-46d4-4190-ad84-fa5833e1deee" d="M11.88,53.64A6.24,6.24,0,0,0,15.78,55c3.68,0,6.67-3.27,6.67-7.3s-3-7.29-6.67-7.29a6.24,6.24,0,0,0-3.9,1.38Z"/><path class="f59ea7f4-507e-40ab-af52-6bf8c4a40f01" d="M11.88,53.18a6,6,0,0,0,3.9,1.47c3.49,0,6.33-3.1,6.33-6.93s-2.84-6.92-6.33-6.92a6,6,0,0,0-3.9,1.47Z"/><path class="bd475b96-4a0c-480b-9fe2-9630197c0e74" d="M11.88,48.78c.22.14.44.29.65.45h0c.22.16.43.32.63.49h0l.59.53h0c.19.18.38.36.56.55h0l.09-.58s0-.07,0-.1l.09-.47h0c0-.06,0-.11,0-.17l.09-.36v-.07a1,1,0,0,0,.05-.16,3.37,3.37,0,0,1,.1-.34l0-.07c0-.05,0-.11.05-.16L15,48a1.43,1.43,0,0,1,.08-.22l.12-.32.09-.22c0-.1.09-.21.14-.31s.07-.14.1-.22l.15-.3a2.12,2.12,0,0,1,.11-.21c0-.09.09-.17.13-.25l0,0,.12-.21a2.39,2.39,0,0,1,.13-.21.75.75,0,0,1,.07-.12l.1-.16.15-.22a.91.91,0,0,1,.11-.16l.06-.09.18-.25c.05-.08.12-.16.18-.24l.17-.22.08-.1.15-.18c0-.06.09-.11.13-.16l.13-.14.21-.24,0,0,.17-.18.27-.27.15-.14.11-.1.25-.22.06-.06.18-.15.29-.24.21-.17.21-.15.25-.18.21-.15.27-.17.21-.14.28-.16.22-.13.29-.15.21-.12.3-.15.22-.1.32-.14.2-.08.37-.14.17-.07.48-.16.07,0,.56-.16.09,0,.48-.12.18,0,.39-.08.21,0c.34,0,.67-.09,1-.12a13.39,13.39,0,0,0-11.1-6.17,12.87,12.87,0,0,0-3.89.61Z"/><path class="a7fbe2d5-9587-4850-92d3-fe7aff261b70" d="M11.88,47.74a1.9,1.9,0,0,0,.6,1c.5.54,1.17.94,1.68,1.48.72-5.85,5.69-11.43,11.58-11.88-3.3-4.93-13.47-8.73-13.86-.74Z"/><polygon class="a2f4d0e4-a114-4808-a2be-06dc02f3003d" points="11.88 48.19 11.88 58.01 16.94 62.68 22.08 59.75 11.88 48.19"/><path class="f6036556-1d67-4eb5-b1c9-d5d981e1a529" d="M23.19,59.51s-11-12.7-11.31-12.84v2l9.24,11.11Z"/><path class="f6036556-1d67-4eb5-b1c9-d5d981e1a529" d="M37.1,75.34S41.66,65.28,41,62,33.77,68,33.77,68Z"/><path class="f59ea7f4-507e-40ab-af52-6bf8c4a40f01" d="M33.19,84.56s7.24-1.73,10.56-11.75S45.55,59,45.55,59l-5,3.52s.47,4.74-3,12.93-6.29,7.21-6.29,7.21Z"/><path class="a7fbe2d5-9587-4850-92d3-fe7aff261b70" d="M35.52,76.67a4.67,4.67,0,0,1,1.6.47,22.18,22.18,0,0,0,2.48-5.21c3.32-10,1.73-11.83,1.73-11.83l-1.47.33s1.85,3.26-1.61,11.44A22.92,22.92,0,0,1,35.52,76.67Z"/><path class="bd475b96-4a0c-480b-9fe2-9630197c0e74" d="M40.14,63.32l4.51-3.43A43.76,43.76,0,0,0,16.34,61L20,65.49Z"/><path class="a7fbe2d5-9587-4850-92d3-fe7aff261b70" d="M39.24,64l4.51-3.43S31.59,56.1,16.34,62L20,66.45Z"/><path class="f6036556-1d67-4eb5-b1c9-d5d981e1a529" d="M36.05,67.93A7.59,7.59,0,0,1,39.24,64S27.35,61.89,20,65.49c0,0,1.13,7.3,4.68,5.79A98.5,98.5,0,0,1,36.05,67.93Z"/><polygon class="b4887d37-1b7f-4a16-9569-332bd6294368" points="32.52 64.17 32.52 63.42 29 63.46 28.86 64.61 32.52 64.17"/><path class="b77157da-1ae6-4fc1-a137-0dd99ecf4b03" d="M28.8,64.67,29,63.41l3.61,0v.85h0Zm.25-1.16-.13,1,3.55-.42v-.66Z"/><path class="b4887d37-1b7f-4a16-9569-332bd6294368" d="M30.53,63.78C25.2,64.08,21.68,66.4,21,69s-.88,7.47,1.73,10.39a11.61,11.61,0,0,0,7.73,3.32c2.06,0,6.12-.8,8.44-3.41s2.24-7.81,1.66-9.55C39.79,67.56,35.5,63.51,30.53,63.78Z"/><path class="b77157da-1ae6-4fc1-a137-0dd99ecf4b03" d="M31,63.71c4.71,0,8.84,3.83,9.56,6,.63,1.91.61,7-1.67,9.61s-6.6,3.43-8.48,3.43a11.7,11.7,0,0,1-7.76-3.34c-2.81-3.13-2.38-8.2-1.75-10.45.8-2.88,4.67-5,9.62-5.28H31Zm-.59,18.95c1.86,0,6-.71,8.4-3.38s2.27-7.6,1.65-9.49c-.71-2.17-4.79-6-9.46-6l-.47,0h0c-5.68.31-8.88,2.83-9.53,5.19s-1,7.23,1.72,10.32a11.6,11.6,0,0,0,7.69,3.3Z"/><g class="bd5d6dc2-1c5f-493b-bb73-d3b397adcd13"><g id="eb0451d1-dcb1-4f63-a01c-8d07f4fdd5f7" data-name="ojo der-3"><path class="bd57bb05-1e66-4ab9-b8c4-9407b71ade59" d="M39.1,70.54s-.28-.51-2.65-.72c-2.12-.19-2.37,1-2.27,1.29a2.67,2.67,0,0,0,2.22,2.07,2.3,2.3,0,0,0,2.08-1.09A3.64,3.64,0,0,0,39.1,70.54Z"/></g><g id="b3584496-b1da-4ca8-bd36-eb63f9141824" data-name="pupila der"><ellipse class="f013e003-8860-4837-89bb-541783a9429e" cx="36.05" cy="71.11" rx="1.15" ry="1.28"/></g><g id="b689e1fa-c3b0-4928-9727-3f54069bc40f" data-name="ojo der-4" class="ee7f1db7-cd33-415d-8bb7-81f1deca5d6c"><path class="a24d2cef-a6af-42ca-a5bf-a4a9d6f8d8b6" d="M38.91,71.39a2.45,2.45,0,0,1-2.16,1.68,4.44,4.44,0,0,1-1.69-.46,3,3,0,0,1-.88-1.6,1.29,1.29,0,0,1,.15-.8,2.73,2.73,0,0,0,2.14,1.28,3.1,3.1,0,0,0,2.61-1c.08.05-.17.65-.17.9"/></g><g id="f40b9b1e-3c9c-4e2c-bc82-42c910ed0c5a" data-name="brillo ojo der"><ellipse class="fcc43047-d261-484d-abc0-c2fca2b39c04" cx="35.57" cy="71.65" rx="0.21" ry="0.23"/></g></g><path class="beb22b38-e25a-4f2a-840d-27099c42010c" d="M34.18,71a2.54,2.54,0,0,0,2.27,2c2.09.24,2.63-2.52,2.63-2.52.56.13.89.89.89.89l-.68-.14a2.72,2.72,0,0,1-2.86,2.24c-1.45-.13-2-1.63-2.21-2.14a.93.93,0,0,1,0-.33Z"/><g class="b31a0af6-9dbb-481a-a05a-0e7e0ea5f6e3"><g id="af7a9350-fb39-4a24-833f-4c5854bebb29" data-name="ojo der-5"><path class="bd57bb05-1e66-4ab9-b8c4-9407b71ade59" d="M25.36,69.63s.3-.85,2.91-.63c2.36.19,2.54,1.76,2.36,2.07a2.84,2.84,0,0,1-2.76,1.65,2.63,2.63,0,0,1-2.09-1.45A3.39,3.39,0,0,1,25.36,69.63Z"/></g><g id="fabc20aa-6f8a-49fd-a5a0-6641c236ace2" data-name="pupila der-2"><circle class="f013e003-8860-4837-89bb-541783a9429e" cx="28.23" cy="70.66" r="1.28"/></g><g id="ff77c432-a899-4175-b261-3df91050cf45" data-name="ojo der-6" class="ee7f1db7-cd33-415d-8bb7-81f1deca5d6c"><path class="a24d2cef-a6af-42ca-a5bf-a4a9d6f8d8b6" d="M25.43,70.5a2.62,2.62,0,0,0,2.08,2,5.25,5.25,0,0,0,1.92-.16A3,3,0,0,0,30.65,71a1.22,1.22,0,0,0,0-.81,3,3,0,0,1-2.55.87,3.59,3.59,0,0,1-2.69-1.45c-.09,0,.09.68.05.91"/></g><g id="b3d8bf3b-70cd-414b-8aca-02acf6f13ecb" data-name="brillo ojo der-2"><circle class="fcc43047-d261-484d-abc0-c2fca2b39c04" cx="28.7" cy="71.24" r="0.23"/></g></g><path class="beb22b38-e25a-4f2a-840d-27099c42010c" d="M30.65,71a2.74,2.74,0,0,1-2.8,1.57c-2.33-.15-2.47-3-2.47-3a1.73,1.73,0,0,0-1.12.72H25A3,3,0,0,0,27.79,73a3,3,0,0,0,2.77-1.72.9.9,0,0,0,.09-.32Z"/><path class="b93182d5-9c84-4fc0-bd36-ae2f787cd831" d="M37.09,75.76a2,2,0,0,1-.67.55,1.53,1.53,0,0,1-.87.2,1.23,1.23,0,0,1-.8-.4,3,3,0,0,1-.27-.35c-.06-.13-.12-.26-.17-.39a3.28,3.28,0,0,0,.56.61,1.15,1.15,0,0,0,.7.31,1.63,1.63,0,0,0,.78-.13A4.06,4.06,0,0,0,37.09,75.76Z"/><path class="b93182d5-9c84-4fc0-bd36-ae2f787cd831" d="M26.81,74.85a3.34,3.34,0,0,0,.61.58,1.4,1.4,0,0,0,.75.27,1.37,1.37,0,0,0,.76-.22,4.56,4.56,0,0,0,.68-.5c-.08.12-.17.23-.26.35a3.18,3.18,0,0,1-.33.3,1.28,1.28,0,0,1-1.7-.07A2,2,0,0,1,26.81,74.85Z"/><path class="f358abf9-763f-4e77-9424-c1019c572aed" d="M31.64,67.07a2.16,2.16,0,0,1,1.66-.77,1.85,1.85,0,0,1,1.42.85c.28.43-.42.92-1.46.9S31.31,67.47,31.64,67.07Z"/><path class="a6a0dbbe-08dd-4cae-94a9-5ddf919eb6a4" d="M33.26,66.25h0a1.88,1.88,0,0,1,1.46.87.4.4,0,0,1,0,.43,1.71,1.71,0,0,1-1.45.56h-.07a2.1,2.1,0,0,1-1.71-.71A.32.32,0,0,1,31.6,67,2.23,2.23,0,0,1,33.26,66.25ZM33.34,68a1.56,1.56,0,0,0,1.34-.49.29.29,0,0,0,0-.32,1.79,1.79,0,0,0-1.37-.82h0a2.13,2.13,0,0,0-1.58.75.21.21,0,0,0,0,.24,2,2,0,0,0,1.61.65h.08Z"/><path class="f4d8f86f-e0f1-44f0-ba64-62043a649fc5" d="M32.3,68.78c.52.25.59.72.77.73s.27-.46.81-.69a14.73,14.73,0,0,1,3.15,0s-.29-1.47-1.22-1.6a16.3,16.3,0,0,0-2.69.34A17.73,17.73,0,0,0,30.45,67c-.93.09-1.3,1.55-1.3,1.55A14.47,14.47,0,0,1,32.3,68.78Z"/><path class="a6a0dbbe-08dd-4cae-94a9-5ddf919eb6a4" d="M30.65,67a5.16,5.16,0,0,1,1.44.27,5.09,5.09,0,0,0,1,.21h0a5.41,5.41,0,0,0,1-.16,4.92,4.92,0,0,1,1.65-.18c1,.14,1.25,1.59,1.27,1.66v.07H37a15.11,15.11,0,0,0-3.13,0,1.35,1.35,0,0,0-.57.49c-.08.11-.15.21-.25.21h0c-.1,0-.17-.1-.25-.23a1.41,1.41,0,0,0-.54-.51h0a14.81,14.81,0,0,0-3.13-.2h-.07l0-.07c0-.06.39-1.5,1.35-1.58Zm2.49.59h0a4.56,4.56,0,0,1-1.06-.22,4.49,4.49,0,0,0-1.6-.25c-.77.06-1.15,1.15-1.23,1.43a13.16,13.16,0,0,1,3.1.21h0a1.35,1.35,0,0,1,.58.55c.07.1.12.17.16.18h0s.11-.08.17-.17a1.45,1.45,0,0,1,.62-.52,12.91,12.91,0,0,1,3.1,0c-.07-.29-.39-1.39-1.15-1.5a4.54,4.54,0,0,0-1.62.18,5.46,5.46,0,0,1-1.06.16Z"/><g class="bd16ce0f-9d66-4d0f-8ff8-0b5e7dd92711"><path class="b4887d37-1b7f-4a16-9569-332bd6294368" d="M33.74,68.5a4.85,4.85,0,0,1-.44.38C33.23,68.9,33.08,68.7,33.74,68.5Z"/></g><g class="bd16ce0f-9d66-4d0f-8ff8-0b5e7dd92711"><path class="b4887d37-1b7f-4a16-9569-332bd6294368" d="M32.52,68.51a3.3,3.3,0,0,0,.42.39C33,68.93,33.18,68.73,32.52,68.51Z"/></g><path class="f6036556-1d67-4eb5-b1c9-d5d981e1a529" d="M33.19,84.56a9.94,9.94,0,0,1-9.33-3c-4.08-4.35-8.56-14.79-12-15.93V61.37s8.3,4.25,10.31,10.81S33.19,84.56,33.19,84.56Z"/><path class="f59ea7f4-507e-40ab-af52-6bf8c4a40f01" d="M33.19,82.84S27.62,81.41,23,70.05C15.16,57.38,11.88,58,11.88,58v3.36a42,42,0,0,1,9.17,10.87c3.48,6.3,5.8,12.32,12.14,12.32Z"/><path class="a7fbe2d5-9587-4850-92d3-fe7aff261b70" d="M33.19,84.56s7.24-1.73,10.56-11.75S45.55,59,45.55,59l-1.33.8s1.64,4.81-1.82,13-9.21,10.09-9.21,10.09Z"/><path class="e8f8627b-c8f8-440c-b62d-6db8f2a83714" d="M7.14,5.33A4,4,0,0,1,6.91,6.7a3.3,3.3,0,0,1-.66,1.08,2.92,2.92,0,0,1-1,.7A3.18,3.18,0,0,1,4,8.74,3.13,3.13,0,0,1,2.7,8.48a3,3,0,0,1-1-.7A3.28,3.28,0,0,1,1,6.7,3.75,3.75,0,0,1,.81,5.33,3.7,3.7,0,0,1,1,4a3.09,3.09,0,0,1,.65-1.08,3,3,0,0,1,1-.71A3.13,3.13,0,0,1,4,1.93a3.18,3.18,0,0,1,1.28.25,3,3,0,0,1,1,.71A3.11,3.11,0,0,1,6.91,4,3.92,3.92,0,0,1,7.14,5.33Zm-.6,0a3.19,3.19,0,0,0-.33-1.48,2.57,2.57,0,0,0-.9-1A2.48,2.48,0,0,0,4,2.5a2.47,2.47,0,0,0-1.33.35,2.49,2.49,0,0,0-.9,1,3.19,3.19,0,0,0-.33,1.48,3.17,3.17,0,0,0,.33,1.48,2.43,2.43,0,0,0,.9,1A2.48,2.48,0,0,0,4,8.17a2.49,2.49,0,0,0,1.34-.36,2.5,2.5,0,0,0,.9-1A3.17,3.17,0,0,0,6.54,5.33Zm1,3.84a.24.24,0,0,1,.18.07.26.26,0,0,1,.08.19.45.45,0,0,1-.17.31,1.88,1.88,0,0,1-.43.28,3.49,3.49,0,0,1-.57.2,2.9,2.9,0,0,1-1.5-.06,3.36,3.36,0,0,1-.66-.28,4.41,4.41,0,0,0-.58-.28,1.6,1.6,0,0,0-.69-.13.67.67,0,0,0-.3.06l-.24.11a.59.59,0,0,1-.23,0,.26.26,0,0,1-.19-.08.28.28,0,0,1-.08-.21.24.24,0,0,1,.16-.24L4,8.57l.87,0-1.5.51L3.48,9a2.2,2.2,0,0,1,.71.11,5.46,5.46,0,0,1,.6.27,4.22,4.22,0,0,0,.61.28,2.13,2.13,0,0,0,.74.12,1.55,1.55,0,0,0,.61-.11,3.43,3.43,0,0,0,.39-.2.76.76,0,0,0,.24-.18A.29.29,0,0,1,7.59,9.17Z"/><path class="e8f8627b-c8f8-440c-b62d-6db8f2a83714" d="M53.51,82.36a.24.24,0,0,1-.18-.07.23.23,0,0,1-.07-.18.41.41,0,0,1,.16-.31,1.67,1.67,0,0,1,.44-.28,2.88,2.88,0,0,1,.56-.2,2.34,2.34,0,0,1,.57-.07,3.09,3.09,0,0,1,.93.12,3.44,3.44,0,0,1,.66.28,5.23,5.23,0,0,0,.58.29,1.86,1.86,0,0,0,.7.12.73.73,0,0,0,.3-.06l.24-.1a.46.46,0,0,1,.23-.06.25.25,0,0,1,.19.09.28.28,0,0,1,.08.21.23.23,0,0,1-.16.23L57.11,83l-.86,0,1.5-.51-.12.13a1.93,1.93,0,0,1-.71-.11,5.46,5.46,0,0,1-.6-.27,6.65,6.65,0,0,0-.61-.27,2.13,2.13,0,0,0-.74-.12,1.36,1.36,0,0,0-.61.11,3.6,3.6,0,0,0-.39.19,1.8,1.8,0,0,0-.25.18A.26.26,0,0,1,53.51,82.36ZM54,86.2a3.74,3.74,0,0,1,.23-1.36,3.09,3.09,0,0,1,.65-1.08,3,3,0,0,1,1-.71,3.13,3.13,0,0,1,1.27-.25,3.18,3.18,0,0,1,1.28.25,3.1,3.1,0,0,1,1.66,1.79,4.17,4.17,0,0,1,0,2.73,3.14,3.14,0,0,1-.66,1.08,3.09,3.09,0,0,1-1,.71,3.36,3.36,0,0,1-1.28.25,3.31,3.31,0,0,1-1.27-.25,3.13,3.13,0,0,1-1-.71,3.28,3.28,0,0,1-.65-1.08A3.75,3.75,0,0,1,54,86.2Zm.6,0a3.17,3.17,0,0,0,.33,1.48,2.5,2.5,0,0,0,.9,1,2.51,2.51,0,0,0,3.57-1,3.48,3.48,0,0,0,0-3,2.45,2.45,0,0,0-2.24-1.35,2.45,2.45,0,0,0-1.33.36,2.54,2.54,0,0,0-.9,1A3.19,3.19,0,0,0,54.57,86.2Z"/><path class="fbecfa8c-3121-4a1c-8ef8-63456a1bf4d1" d="M5,11.59a1,1,0,0,0,0-.42,1,1,0,0,0-1.89.16,1.09,1.09,0,0,0,0,.26,1,1,0,0,0,.1,1.9A.94.94,0,0,0,4,13.22l-.07.52s0,.07.06.07h.24s.06,0,.06-.07l-.07-.52a.94.94,0,0,0,.71.27,1,1,0,0,0,.1-1.9Z"/><path class="f5c32e58-fa80-4077-bb16-22145e23a54e" d="M4.22,13.83H4l-.06,0a.14.14,0,0,1,0-.06L4,13.27a1,1,0,0,1-.69.24,1,1,0,0,1-.12-1.93,1,1,0,0,1,0-.24,1,1,0,0,1,.32-.72.94.94,0,0,1,.65-.26h.1a1,1,0,0,1,.86.8,1,1,0,0,1,0,.41,1,1,0,0,1-.12,1.93h0a1,1,0,0,1-.64-.24l.07.47a.14.14,0,0,1,0,.06ZM4,13.21H4s0,0,0,0l-.07.52a0,0,0,0,0,0,0h.3a0,0,0,0,0,0,0l-.07-.52s0,0,0,0,0,0,0,0a.91.91,0,0,0,.65.26h0A.94.94,0,0,0,5,11.61H5a.82.82,0,0,0,0-.41.93.93,0,0,0-.83-.78H4.1a.94.94,0,0,0-.63.24,1,1,0,0,0-.31.7,1.09,1.09,0,0,0,0,.25h0a.94.94,0,0,0,.09,1.86h.05A.91.91,0,0,0,4,13.21Z"/><path class="afd07b8f-ba0b-4d31-b1fa-8d3c8a4e2627" d="M4.82,11.3h0a.08.08,0,0,1-.08-.1c0-.28-.25-.51-.52-.56a.1.1,0,0,1-.08-.1.09.09,0,0,1,.1-.07.75.75,0,0,1,.67.75A.08.08,0,0,1,4.82,11.3Z"/><path class="afd07b8f-ba0b-4d31-b1fa-8d3c8a4e2627" d="M4.83,11.62a.09.09,0,0,1-.09-.08v-.11a.09.09,0,0,1,.09-.09.08.08,0,0,1,.08.09v.11A.08.08,0,0,1,4.83,11.62Z"/><path class="fbecfa8c-3121-4a1c-8ef8-63456a1bf4d1" d="M56.09,79.94a.85.85,0,0,0,0,.42A1,1,0,0,0,58,80.2a.78.78,0,0,0,0-.26,1,1,0,0,0-.09-1.89,1,1,0,0,0-.72.26l.07-.52a.05.05,0,0,0,0-.06h-.25a.05.05,0,0,0-.05.06l.07.52a1,1,0,0,0-.71-.26,1,1,0,0,0-.9.86A.94.94,0,0,0,56.09,79.94Z"/><path class="f5c32e58-fa80-4077-bb16-22145e23a54e" d="M57,81.17h-.1a1,1,0,0,1-.86-.8.94.94,0,0,1,0-.41A1,1,0,0,1,56.18,78h.06a.94.94,0,0,1,.64.24l-.07-.47s0,0,0-.06a.05.05,0,0,1,.05,0h.25a.05.05,0,0,1,0,0s0,0,0,.06l-.06.47a.92.92,0,0,1,.63-.24h.06A1,1,0,0,1,58,80a1,1,0,0,1-.29,1A.93.93,0,0,1,57,81.17Zm-.77-3.1h-.05a.93.93,0,0,0-.88.84,1,1,0,0,0,.78,1h0s0,0,0,0a.91.91,0,0,0,.81,1.18.93.93,0,0,0,1-.93,1.07,1.07,0,0,0,0-.25v0h0a.94.94,0,0,0,.78-1,.92.92,0,0,0-.87-.84h-.06a.94.94,0,0,0-.65.26h0v0l.08-.52s0,0,0,0h-.31s0,0,0,0l.07.52v0h0A.94.94,0,0,0,56.24,78.07Z"/><path class="afd07b8f-ba0b-4d31-b1fa-8d3c8a4e2627" d="M56.29,80.24h0a.08.08,0,0,1,.08.09.58.58,0,0,0,.52.57A.08.08,0,0,1,57,81a.09.09,0,0,1-.1.07.77.77,0,0,1-.67-.76A.1.1,0,0,1,56.29,80.24Z"/><path class="afd07b8f-ba0b-4d31-b1fa-8d3c8a4e2627" d="M56.28,79.91a.09.09,0,0,1,.09.09v.11a.09.09,0,0,1-.18,0V80A.09.09,0,0,1,56.28,79.91Z"/></g></g></svg>