<svg xmlns="http://www.w3.org/2000/svg" viewBox="0 0 61.11 91.54"><defs><style>.ac97fec3-da8f-43ef-8f0c-b327e8795341{fill:none;}.a77ac754-9a5d-4e3b-ad79-517901ae5c3d{fill:#adadad;}.b8a8ee6e-bbea-44bc-8eb6-19d2bdc83684{fill:#363026;}.e41a688a-2767-49be-92e9-23220654a313{fill:#716b61;}.a2006ea3-cf16-47b8-8704-594a00ca7baf{fill:#453f31;}.b83ea32a-dbf3-4126-90db-c148599482d4{fill:#aaa194;}</style></defs><title>T_5</title><g id="bdfbdbb0-f0b8-46e1-a357-71c13c4df78c" data-name="Capa 2"><g id="a999c81a-487b-42e0-b51a-df0c0c70a4de" data-name="Objects"><rect class="ac97fec3-da8f-43ef-8f0c-b327e8795341" x="0.13" y="0.12" width="60.86" height="91.29" rx="2.4"/><path class="a77ac754-9a5d-4e3b-ad79-517901ae5c3d" d="M58.59,91.54H2.52A2.53,2.53,0,0,1,0,89V2.52A2.52,2.52,0,0,1,2.52,0H58.59a2.52,2.52,0,0,1,2.52,2.52V89A2.53,2.53,0,0,1,58.59,91.54ZM2.52.25A2.27,2.27,0,0,0,.25,2.52V89a2.28,2.28,0,0,0,2.27,2.28H58.59A2.28,2.28,0,0,0,60.86,89V2.52A2.27,2.27,0,0,0,58.59.25Z"/><path class="b8a8ee6e-bbea-44bc-8eb6-19d2bdc83684" d="M3.56,8.56a2.36,2.36,0,0,1-.78-.13,1.94,1.94,0,0,1-.69-.38A.31.31,0,0,1,2,7.94a.38.38,0,0,1,0-.13A.29.29,0,0,1,2,7.62a.25.25,0,0,1,.2-.09.32.32,0,0,1,.21.09A2.1,2.1,0,0,0,3,7.91a1.69,1.69,0,0,0,.58.1,2.13,2.13,0,0,0,1-.21,1.63,1.63,0,0,0,.64-.61,1.72,1.72,0,0,0,.24-.91,1.57,1.57,0,0,0-.21-.83,1.45,1.45,0,0,0-.59-.56,1.88,1.88,0,0,0-.91-.2,1.89,1.89,0,0,0-.63.1A3.79,3.79,0,0,0,2.59,5a.62.62,0,0,1-.29.11.31.31,0,0,1-.19-.06A.26.26,0,0,1,2,4.91a.35.35,0,0,1,0-.18L2.4,2.16A.24.24,0,0,1,2.49,2a.28.28,0,0,1,.2-.08H5.54A.27.27,0,0,1,5.73,2a.28.28,0,0,1,.08.21.27.27,0,0,1-.27.27H2.82l.09-.08L2.52,4.7l-.17-.13a1.91,1.91,0,0,1,.36-.19,4.06,4.06,0,0,1,.52-.16,2.37,2.37,0,0,1,.61-.07,2.18,2.18,0,0,1,1.09.27,1.93,1.93,0,0,1,.76.74A2.12,2.12,0,0,1,6,6.26a2.52,2.52,0,0,1-.17.93,2.07,2.07,0,0,1-.5.73,2.27,2.27,0,0,1-.76.47A2.55,2.55,0,0,1,3.56,8.56Z"/><path class="b8a8ee6e-bbea-44bc-8eb6-19d2bdc83684" d="M57.68,83a2.66,2.66,0,0,1,.78.13,2.06,2.06,0,0,1,.7.38.34.34,0,0,1,.09.12.31.31,0,0,1,0,.13.27.27,0,0,1-.07.18A.27.27,0,0,1,59,84a.31.31,0,0,1-.21-.08,1.62,1.62,0,0,0-.53-.29,1.76,1.76,0,0,0-.59-.11,2,2,0,0,0-1,.22,1.59,1.59,0,0,0-.65.61,1.77,1.77,0,0,0-.23.9,1.64,1.64,0,0,0,.21.84,1.45,1.45,0,0,0,.59.56,1.93,1.93,0,0,0,.9.2,1.81,1.81,0,0,0,.63-.1,3.24,3.24,0,0,0,.49-.22.73.73,0,0,1,.28-.11.32.32,0,0,1,.3.2.28.28,0,0,1,0,.18l-.4,2.57a.35.35,0,0,1-.09.17.3.3,0,0,1-.21.07H55.71a.3.3,0,0,1-.2-.08.28.28,0,0,1-.08-.2.27.27,0,0,1,.28-.28h2.71l-.08.09.38-2.3.17.12a1.25,1.25,0,0,1-.35.19,3.52,3.52,0,0,1-.52.17,2.43,2.43,0,0,1-.61.07,2.21,2.21,0,0,1-1.1-.27,2,2,0,0,1-.76-.75,2.09,2.09,0,0,1-.28-1.1,2.41,2.41,0,0,1,.18-.93,2,2,0,0,1,.49-.72,2.39,2.39,0,0,1,.76-.48A2.8,2.8,0,0,1,57.68,83Z"/><path class="e41a688a-2767-49be-92e9-23220654a313" d="M4.72,9.93a1,1,0,0,0,0-.43,1,1,0,0,0-1.9.17,1.17,1.17,0,0,0,0,.26,1,1,0,0,0-.8,1,1,1,0,0,0,.9.86,1,1,0,0,0,.71-.27l-.07.53s0,.06.06.06h.24A.06.06,0,0,0,4,12.08l-.08-.53a1,1,0,0,0,.72.27A1,1,0,0,0,5.52,11,.94.94,0,0,0,4.72,9.93Z"/><path class="a2006ea3-cf16-47b8-8704-594a00ca7baf" d="M3.93,12.16H3.69a.06.06,0,0,1-.06,0s0,0,0-.06l.07-.47a1,1,0,1,1-.81-1.69,1,1,0,0,1,0-.24A1,1,0,0,1,3.15,9,1,1,0,0,1,3.9,8.7a1,1,0,0,1,.86.8.94.94,0,0,1,0,.41A1,1,0,0,1,5.54,11a1,1,0,0,1-.91.88H4.57a.92.92,0,0,1-.63-.24l.06.47a0,0,0,0,1,0,.06A.05.05,0,0,1,3.93,12.16Zm-.23-.62h0s0,0,0,0l-.07.52s0,0,0,0H4a0,0,0,0,0,0,0l-.07-.52a0,0,0,0,1,0,0h0a.94.94,0,0,0,.65.26h.06a.94.94,0,0,0,.09-1.86h0a.94.94,0,0,0,0-.41.91.91,0,0,0-.83-.77H3.81A1,1,0,0,0,3.18,9a.93.93,0,0,0-.31.7.73.73,0,0,0,0,.25h0a1,1,0,0,0-.78,1A.93.93,0,0,0,3,11.8H3a.94.94,0,0,0,.65-.26Z"/><path class="b83ea32a-dbf3-4126-90db-c148599482d4" d="M4.52,9.63h0a.07.07,0,0,1-.07-.09c0-.29-.25-.52-.53-.57a.08.08,0,0,1-.07-.1.09.09,0,0,1,.1-.07.75.75,0,0,1,.67.76A.09.09,0,0,1,4.52,9.63Z"/><path class="b83ea32a-dbf3-4126-90db-c148599482d4" d="M4.53,10a.08.08,0,0,1-.08-.08V9.76a.08.08,0,0,1,.08-.08.08.08,0,0,1,.09.08v.11A.08.08,0,0,1,4.53,10Z"/><path class="e41a688a-2767-49be-92e9-23220654a313" d="M56.38,81.61a1.17,1.17,0,0,0,0,.42,1,1,0,0,0,1.89-.16,1.09,1.09,0,0,0,0-.26,1,1,0,0,0,.8-1,1,1,0,0,0-.9-.85.9.9,0,0,0-.71.26l.07-.52a.07.07,0,0,0-.06-.07h-.24a.07.07,0,0,0-.06.07l.07.52a.9.9,0,0,0-.71-.26.94.94,0,0,0-.89.85A1,1,0,0,0,56.38,81.61Z"/><path class="a2006ea3-cf16-47b8-8704-594a00ca7baf" d="M57.3,82.84h-.09a1,1,0,0,1-.87-.81,1.14,1.14,0,0,1,0-.41,1,1,0,0,1-.79-1.05,1,1,0,0,1,1.6-.64l-.07-.47a.14.14,0,0,1,0-.06l.06,0h.24l.06,0a.14.14,0,0,1,0,.06l-.07.47a1,1,0,0,1,1.6.64,1,1,0,0,1-.79,1.05,1.07,1.07,0,0,1,0,.25,1,1,0,0,1-.32.72A1,1,0,0,1,57.3,82.84Zm-.76-3.11h-.06a.94.94,0,0,0-.09,1.86h0a.86.86,0,0,0,0,.42.93.93,0,0,0,.83.77h.09a.9.9,0,0,0,.63-.24,1,1,0,0,0,.31-.69,1.17,1.17,0,0,0,0-.26h0a.94.94,0,0,0,.78-1,1,1,0,0,0-.88-.85h0a.91.91,0,0,0-.65.26h0v0l.07-.52s0,0,0,0l0,0h-.24l0,0s0,0,0,0l.07.52v0h0A.9.9,0,0,0,56.54,79.73Z"/><path class="b83ea32a-dbf3-4126-90db-c148599482d4" d="M56.59,81.9h0a.09.09,0,0,1,.08.1.57.57,0,0,0,.52.56.1.1,0,0,1,.08.1.08.08,0,0,1-.1.07A.74.74,0,0,1,56.5,82,.09.09,0,0,1,56.59,81.9Z"/><path class="b83ea32a-dbf3-4126-90db-c148599482d4" d="M56.57,81.58a.09.09,0,0,1,.09.09v.1a.09.09,0,0,1-.09.09.09.09,0,0,1-.08-.09v-.1A.09.09,0,0,1,56.57,81.58Z"/><path class="e41a688a-2767-49be-92e9-23220654a313" d="M48.11,13.63A3.79,3.79,0,0,0,48.19,12a3.74,3.74,0,0,0-7.43.63,3.81,3.81,0,0,0,.14,1A3.74,3.74,0,1,0,44.09,20l-.28,2.05a.22.22,0,0,0,.22.25H45a.23.23,0,0,0,.23-.25L44.92,20a3.71,3.71,0,0,0,2.81,1,3.74,3.74,0,0,0,.38-7.43Z"/><path class="a2006ea3-cf16-47b8-8704-594a00ca7baf" d="M45,22.39H44a.26.26,0,0,1-.22-.1.28.28,0,0,1-.07-.23L44,20.2a3.76,3.76,0,0,1-2.72.93,3.81,3.81,0,0,1-.46-7.56,3.76,3.76,0,0,1,1.12-3.78,3.81,3.81,0,0,1,6.25,3.78,3.81,3.81,0,0,1-.46,7.56A3.72,3.72,0,0,1,45,20.2l.25,1.86a.25.25,0,0,1-.07.23A.26.26,0,0,1,45,22.39ZM44.09,20h0a.08.08,0,0,1,0,.07l-.29,2a.17.17,0,0,0,0,.12.14.14,0,0,0,.12.06H45a.14.14,0,0,0,.12-.06.17.17,0,0,0,0-.12l-.29-2a.08.08,0,0,1,0-.07A.08.08,0,0,1,45,20a3.62,3.62,0,0,0,2.54,1h.21a3.67,3.67,0,0,0,.38-7.29l-.05,0a.13.13,0,0,1,0-.06,3.67,3.67,0,1,0-7.21-1,3.77,3.77,0,0,0,.14,1,.13.13,0,0,1,0,.06l-.05,0A3.67,3.67,0,0,0,41.29,21,3.6,3.6,0,0,0,44,20Z"/><path class="b83ea32a-dbf3-4126-90db-c148599482d4" d="M47.31,12.48h0A.35.35,0,0,1,47,12.1a2.26,2.26,0,0,0-2-2.21.35.35,0,0,1-.28-.39A.33.33,0,0,1,45,9.22a2.93,2.93,0,0,1,2.62,3A.34.34,0,0,1,47.31,12.48Z"/><path class="b83ea32a-dbf3-4126-90db-c148599482d4" d="M47.36,13.74A.34.34,0,0,1,47,13.4V13a.34.34,0,0,1,.68,0v.41A.34.34,0,0,1,47.36,13.74Z"/><path class="e41a688a-2767-49be-92e9-23220654a313" d="M20.2,13.63A3.64,3.64,0,0,0,20.29,12a3.74,3.74,0,0,0-7.43.63,3.81,3.81,0,0,0,.14,1A3.74,3.74,0,1,0,16.19,20l-.29,2.05a.22.22,0,0,0,.22.25h1a.22.22,0,0,0,.22-.25L17,20a3.69,3.69,0,0,0,2.8,1,3.74,3.74,0,0,0,.38-7.43Z"/><path class="a2006ea3-cf16-47b8-8704-594a00ca7baf" d="M17.08,22.39h-1a.28.28,0,0,1-.22-.1.32.32,0,0,1-.07-.23l.26-1.86a3.73,3.73,0,0,1-2.71.93,3.81,3.81,0,0,1-.47-7.56A3.83,3.83,0,0,1,14,9.79a3.74,3.74,0,0,1,2.93-1,3.8,3.8,0,0,1,3.32,4.75,3.81,3.81,0,0,1-.46,7.56,3.76,3.76,0,0,1-2.72-.93l.26,1.86a.28.28,0,0,1-.07.23A.27.27,0,0,1,17.08,22.39ZM16.19,20h0s0,0,0,.07l-.28,2a.17.17,0,0,0,.15.18h1a.16.16,0,0,0,.12-.06.13.13,0,0,0,0-.12L17,20A.08.08,0,0,1,17,20a.06.06,0,0,1,.07,0,3.64,3.64,0,0,0,2.76,1,3.67,3.67,0,0,0,.37-7.29l0,0a.07.07,0,0,1,0-.06A3.55,3.55,0,0,0,20.22,12a3.67,3.67,0,0,0-6.09-2.1,3.71,3.71,0,0,0-1.2,2.72,3.4,3.4,0,0,0,.14,1,.13.13,0,0,1,0,.06l-.05,0A3.67,3.67,0,1,0,16.14,20Z"/><path class="b83ea32a-dbf3-4126-90db-c148599482d4" d="M19.41,12.48h0a.34.34,0,0,1-.3-.38A2.26,2.26,0,0,0,17,9.89a.34.34,0,0,1-.28-.39.33.33,0,0,1,.39-.28,2.94,2.94,0,0,1,2.62,3A.34.34,0,0,1,19.41,12.48Z"/><path class="b83ea32a-dbf3-4126-90db-c148599482d4" d="M19.45,13.74a.34.34,0,0,1-.34-.34V13a.35.35,0,0,1,.69,0v.41A.35.35,0,0,1,19.45,13.74Z"/><path class="e41a688a-2767-49be-92e9-23220654a313" d="M36.66,43.8a3.64,3.64,0,0,0,.09-1.65,3.74,3.74,0,1,0-7.29,1.65,3.74,3.74,0,1,0,3.19,6.4l-.29,2a.23.23,0,0,0,.22.26h1a.23.23,0,0,0,.22-.26l-.28-2a3.74,3.74,0,1,0,3.18-6.4Z"/><path class="a2006ea3-cf16-47b8-8704-594a00ca7baf" d="M33.54,52.56h-1a.28.28,0,0,1-.22-.1.32.32,0,0,1-.07-.23l.26-1.86a3.81,3.81,0,1,1-3.18-6.62,4,4,0,0,1-.12-1,3.81,3.81,0,1,1,7.5,1,3.81,3.81,0,1,1-3.18,6.62l.26,1.86a.28.28,0,0,1-.07.23A.28.28,0,0,1,33.54,52.56Zm-.89-2.43h0s0,0,0,.07l-.28,2a.17.17,0,0,0,.15.18h1a.16.16,0,0,0,.12-.06.13.13,0,0,0,0-.12l-.28-2s0-.05,0-.07a.05.05,0,0,1,.07,0,3.68,3.68,0,1,0,3.13-6.28l0,0a0,0,0,0,1,0-.06,3.55,3.55,0,0,0,.08-1.62,3.65,3.65,0,0,0-3.26-3,3.61,3.61,0,0,0-2.83.93,3.73,3.73,0,0,0-1.07,3.72.06.06,0,0,1,0,.06l-.05,0a3.67,3.67,0,1,0,3.13,6.28S32.63,50.13,32.65,50.13Z"/><path class="b83ea32a-dbf3-4126-90db-c148599482d4" d="M35.87,42.65h0a.34.34,0,0,1-.3-.38,2.27,2.27,0,0,0-2.05-2.21.34.34,0,0,1-.28-.39.32.32,0,0,1,.39-.28,3,3,0,0,1,2.62,3A.34.34,0,0,1,35.87,42.65Z"/><path class="b83ea32a-dbf3-4126-90db-c148599482d4" d="M35.91,43.91a.34.34,0,0,1-.34-.34v-.41a.34.34,0,0,1,.34-.34.35.35,0,0,1,.35.34v.41A.35.35,0,0,1,35.91,43.91Z"/><path class="e41a688a-2767-49be-92e9-23220654a313" d="M48.11,74a3.78,3.78,0,0,0,.08-1.65A3.74,3.74,0,1,0,40.9,74a3.74,3.74,0,0,0,.38,7.43,3.71,3.71,0,0,0,2.81-1l-.28,2a.22.22,0,0,0,.22.26H45a.23.23,0,0,0,.23-.26l-.29-2a3.71,3.71,0,0,0,2.81,1A3.74,3.74,0,0,0,48.11,74Z"/><path class="a2006ea3-cf16-47b8-8704-594a00ca7baf" d="M45,82.73H44a.26.26,0,0,1-.22-.1.28.28,0,0,1-.07-.23L44,80.55a3.79,3.79,0,0,1-2.72.92,3.81,3.81,0,0,1-.46-7.55,4,4,0,0,1-.13-1,3.85,3.85,0,0,1,1.25-2.82,3.81,3.81,0,0,1,6.25,3.79A3.81,3.81,0,1,1,45,80.55l.25,1.85a.25.25,0,0,1-.07.23A.26.26,0,0,1,45,82.73Zm-.89-2.43h0a.07.07,0,0,1,0,.07l-.29,2a.17.17,0,0,0,0,.12.14.14,0,0,0,.12.06H45a.14.14,0,0,0,.12-.06.17.17,0,0,0,0-.12l-.29-2a.07.07,0,0,1,0-.07.06.06,0,0,1,.08,0A3.67,3.67,0,1,0,48.1,74a.09.09,0,0,1-.05,0A.13.13,0,0,1,48,74a3.66,3.66,0,0,0-3.18-4.65,3.6,3.6,0,0,0-2.83.94A3.67,3.67,0,0,0,40.83,73,3.72,3.72,0,0,0,41,74,.13.13,0,0,1,41,74a.09.09,0,0,1-.05,0A3.68,3.68,0,1,0,44,80.32.06.06,0,0,1,44.09,80.3Z"/><path class="b83ea32a-dbf3-4126-90db-c148599482d4" d="M47.31,72.82h0a.35.35,0,0,1-.31-.38,2.27,2.27,0,0,0-2-2.21.34.34,0,0,1-.28-.39.33.33,0,0,1,.39-.28,2.94,2.94,0,0,1,2.62,3A.34.34,0,0,1,47.31,72.82Z"/><path class="b83ea32a-dbf3-4126-90db-c148599482d4" d="M47.36,74.09a.35.35,0,0,1-.34-.35v-.41a.34.34,0,1,1,.68,0v.41A.35.35,0,0,1,47.36,74.09Z"/><path class="e41a688a-2767-49be-92e9-23220654a313" d="M20.2,74a3.64,3.64,0,0,0,.09-1.65A3.74,3.74,0,1,0,13,74a3.74,3.74,0,0,0,.38,7.43,3.71,3.71,0,0,0,2.81-1l-.29,2a.23.23,0,0,0,.22.26h1a.22.22,0,0,0,.22-.26l-.28-2a3.68,3.68,0,0,0,2.8,1A3.74,3.74,0,0,0,20.2,74Z"/><path class="a2006ea3-cf16-47b8-8704-594a00ca7baf" d="M17.08,82.73h-1a.28.28,0,0,1-.22-.1.32.32,0,0,1-.07-.23l.26-1.85a3.81,3.81,0,1,1-3.18-6.63,4,4,0,0,1-.12-1,3.81,3.81,0,1,1,7.5,1,3.81,3.81,0,1,1-3.18,6.63l.26,1.85a.28.28,0,0,1-.07.23A.27.27,0,0,1,17.08,82.73Zm-.89-2.43h0a.06.06,0,0,1,0,.07l-.28,2a.17.17,0,0,0,.15.18h1a.16.16,0,0,0,.12-.06.13.13,0,0,0,0-.12l-.28-2a.07.07,0,0,1,0-.07,0,0,0,0,1,.07,0A3.68,3.68,0,1,0,20.19,74s0,0,0,0a.07.07,0,0,1,0-.06,3.55,3.55,0,0,0,.08-1.62,3.65,3.65,0,0,0-3.26-3,3.57,3.57,0,0,0-2.83.94A3.67,3.67,0,0,0,12.93,73a3.36,3.36,0,0,0,.14,1,.13.13,0,0,1,0,.06A.09.09,0,0,1,13,74a3.68,3.68,0,0,0,.37,7.3,3.72,3.72,0,0,0,2.76-1S16.17,80.3,16.19,80.3Z"/><path class="b83ea32a-dbf3-4126-90db-c148599482d4" d="M19.41,72.82h0a.34.34,0,0,1-.3-.38A2.27,2.27,0,0,0,17,70.23a.33.33,0,0,1-.28-.39.33.33,0,0,1,.39-.28,3,3,0,0,1,2.62,3A.34.34,0,0,1,19.41,72.82Z"/><path class="b83ea32a-dbf3-4126-90db-c148599482d4" d="M19.45,74.09a.35.35,0,0,1-.34-.35v-.41a.35.35,0,0,1,.69,0v.41A.35.35,0,0,1,19.45,74.09Z"/></g></g></svg>