<svg xmlns="http://www.w3.org/2000/svg" xmlns:xlink="http://www.w3.org/1999/xlink" viewBox="0 0 61.11 91.54"><defs><style>.a5d8b978-7d1f-4964-abea-b683ae47258b,.b0245237-f390-4069-823a-105417713da0,.bd98b2fa-6db9-4fa6-b27a-7f9dbdaffa49,.ed08bcef-ca8c-48d6-8c15-4dd75e70c0b7{fill:none;}.ed08bcef-ca8c-48d6-8c15-4dd75e70c0b7{clip-rule:evenodd;}.a5d8b978-7d1f-4964-abea-b683ae47258b{clip-path:url(#fa546495-dc78-4b16-a01e-ce01e241f5c0);}.bd98b2fa-6db9-4fa6-b27a-7f9dbdaffa49{clip-path:url(#bce7def4-f6d3-4a9d-864b-51f19c76086a);}.a102300c-4d88-4d8a-8c0b-952c46869929{fill:#363026;}.a4bc3e9b-3be1-431f-8fa7-d15743203e8d{fill:#adadad;}.f05a1189-d879-49ac-bcd4-8e63ffbf8da7{fill:#716b61;}.a15c83a1-f1cb-4f87-9093-c5d368423313{fill:#453f31;}.a3003cda-1dee-49bf-8da1-b1d1c89c8139{fill:#aaa194;}.aa69f8c1-3c4e-4ca3-984a-926b4e7e291b,.b1d3c55f-c9a2-4ac1-92e2-5e32d5ced490{fill:#25126c;}.a2e3b7d3-3266-48bf-af52-16bbef568821,.a834033d-4187-40a4-9eba-ca9c89447141,.aa69f8c1-3c4e-4ca3-984a-926b4e7e291b,.aaae8350-63e1-4591-b722-a3f78cdab0fe,.b4c40d6c-27fd-4716-88ef-eef55a586a29,.b60766d7-7965-416d-83d2-ff776bce1006,.be50c070-d843-4515-a23f-2f10cf045f0e,.be50f770-5b46-4652-bfc3-2b239a276414{fill-rule:evenodd;}.aaae8350-63e1-4591-b722-a3f78cdab0fe{fill:#fecbae;}.b60766d7-7965-416d-83d2-ff776bce1006{fill:#fe7edb;}.a9b490b7-8ddb-4bd8-b064-fe6e6e9b55c5{fill:#d61fa4;}.a834033d-4187-40a4-9eba-ca9c89447141{fill:#e4b9ff;}.f1368cf6-4871-463d-b415-507e11acfadc{fill:#7c2bb0;}.be50c070-d843-4515-a23f-2f10cf045f0e{fill:#620002;}.a1a36c66-51fd-4f19-a78b-70ca9aee6f99{fill:#3b1010;}.f6062557-d8fa-4db6-810b-8ffe1888669c{clip-path:url(#bf1495f3-6698-4b7a-ad55-e613379d3f02);}.b4c40d6c-27fd-4716-88ef-eef55a586a29{fill:#fa7073;}.af4acca8-8809-47ed-9bf1-548025b71c79{fill:#a03636;}.be50f770-5b46-4652-bfc3-2b239a276414{fill:#fff;}.e0060e64-b849-4de4-a4de-74802e8cd9ec{clip-path:url(#aec6cb22-8258-418c-87f2-325f1c986c8b);}.b7f6f086-2030-43df-9c80-9fc387faa63c{clip-path:url(#b30c6440-f16a-45f7-a4f1-60ad59e6855a);}.a7b70046-3180-475e-9493-00750c85a353{fill:#0054ff;}.f2566e83-a2ba-486e-bb09-c4e1d4e54800{fill:#0155ff;}.b07c7de2-4097-4bea-a502-505829dee41c{fill:#0256ff;}.fd582ec1-b7ab-43bd-a00e-da499c87acf3{fill:#0356ff;}.b222dc8e-977e-47f1-97b9-8444d05d0977{fill:#0457ff;}.b9b56175-5961-413b-8ba4-983ee17bef4d{fill:#0558ff;}.a4ecf917-624a-478f-b425-559117da9f40{fill:#0659ff;}.b4636279-7838-495c-bd90-9f319dca09c6{fill:#075aff;}.efdb0b56-971a-4b20-bb1c-0f5d649c312a{fill:#085aff;}.b8a4ea17-5979-4205-be83-b6eaadcc89b0{fill:#095bff;}.af180874-4d20-4b9b-925c-69e1aab67aba{fill:#0a5cff;}.e9827bfa-0717-4fe1-909b-b9a6a298cd91{fill:#0b5dff;}.a4864140-2dcf-4978-8519-d9ce71da066d{fill:#0c5dff;}.a5025eef-24ab-417c-be77-f9025fa5b87c{fill:#0d5eff;}.a42bc43c-ec1e-4eab-a5b0-92b7c35f956d{fill:#0e5fff;}.f32eee41-e215-45cd-a51d-bcda500beea8{fill:#0f60ff;}.b38d60ea-518b-4fd7-b388-8db491842ff4{fill:#1061ff;}.f59cc78d-a180-47a0-a0fa-5edbb2649255{fill:#1161ff;}.a04bca53-f873-4627-b939-d79d8eda8f07{fill:#1262ff;}.f333dfc9-a775-4b7e-ba8c-204ad033a58d{fill:#1363ff;}.e8ff21d0-b0f6-4ac0-aa09-ce91f4985e4a{fill:#1464ff;}.a2e7dfa0-44ad-4593-851c-73e3f89e7a60{fill:#1565ff;}.e4e6559a-9b7f-4657-8e2f-d3db97f73924{fill:#1665ff;}.b13d6901-9f28-48d2-8ed1-820654a34b2d{fill:#1766ff;}.b5ffb22a-9abc-400c-8b90-975e40a40567{fill:#1867ff;}.aa094215-1ea0-4fd9-a29d-134e9c5985f6{fill:#1968ff;}.ec1ede8a-7128-4dc9-9ff2-da5362802c14{fill:#1a69ff;}.b16a2bc5-48a8-414f-83df-1516f4b84774{fill:#1b69ff;}.bce93c8e-2950-4e2f-834b-accf513431ad{fill:#1c6aff;}.beab2d58-431c-4bd5-a579-549d33fde76d{fill:#1d6bff;}.f19fdaed-6779-472e-b45c-6e1223559cf8{fill:#1e6cff;}.b7cf4353-d78b-4556-9f42-eec2b108eaae{fill:#1f6cff;}.b5587006-5c3b-426c-acc6-c6103b15e5af{fill:#206dff;}.b1bf9738-982e-4110-a7b2-d70570137a49{fill:#216eff;}.a576c473-8779-41ab-bdce-804a3ded1962{fill:#226fff;}.a9468185-b704-4694-8302-d63b3bebf3e4{fill:#2370ff;}.ac447f20-7cd0-4613-bbe0-9242253d34d4{fill:#2470ff;}.a4712313-133a-4647-a416-de597a74bb83{fill:#2571ff;}.aa63b933-7137-4894-91e2-21a9734f7f40{fill:#2672ff;}.f838712c-660b-4c88-9b8a-ac6507eb9fba{fill:#2773ff;}.e4a7b973-ec37-428a-a569-7a44fd8c26f1{fill:#2874ff;}.b56107af-cf6e-433b-96eb-d1da60426d90{fill:#2974ff;}.fc7966a2-e485-4c70-9186-7c580ca2667f{fill:#2a75ff;}.b869a2eb-4229-4d44-9732-576460eaf38f{fill:#2b76ff;}.a7478169-ade2-4e36-ac7e-df536a752752{fill:#2c77ff;}.fddead59-97e0-4feb-9e22-64e96a87dc0a{fill:#2d78ff;}.b378cc8a-ac36-43da-9feb-54126d8f2e38{fill:#2e78ff;}.b7a503b8-1830-4191-8be7-fbd910c0fb73{fill:#2f79ff;}.a1cc1116-a358-4b4d-a23c-d0640256566c{fill:#307aff;}.a458edcf-2ec6-4942-bb3b-bf60af440b1e{fill:#317bff;}.ea1c588d-77f2-43c9-a4ac-868c58de8e60{fill:#327bff;}.b9285e99-7e24-46e4-ad4d-327f151d0d68{fill:#337cff;}.e6831a7c-2bd4-4fbb-847e-e1b73570f389{fill:#347dff;}.ea6f0a8c-cdd7-46ef-9814-2407026f485b{fill:#357eff;}.ffe15ea3-8487-41a9-a7b0-654f0ee52525{fill:#367fff;}.b070553f-f96a-4c3c-bf5a-64ee6cc07698{fill:#377fff;}.aca3c72e-40c6-40b6-a00d-40a66b21a40e{fill:#3880ff;}.a0770224-3abd-48b1-b83c-2592de4aca8e{fill:#3981ff;}.a2b3887c-5731-4917-9803-16a3ba3add7b{fill:#3a82ff;}.b374f810-3516-4449-90a5-e73595cebcd1{fill:#3b83ff;}.b6996abe-caa6-4d3c-809b-3e2187f2715e{fill:#3c83ff;}.a9fe239f-50a7-48b7-8b38-023009590b47{fill:#3d84ff;}.a916181c-35f7-409f-967c-a7e0e91ef907{fill:#3e85ff;}.bb8a59be-9e01-4686-917a-e6bcfe043cba{fill:#3f86ff;}.b7055871-9cd1-46a2-bea4-9cd1a30375f8{fill:#4087ff;}.acddb677-537d-454f-a338-0bbe491ea768{fill:#4187ff;}.b171560b-315c-4ed9-82ca-aca8bd0eacc0{fill:#4288ff;}.f25674f6-e83c-4065-ab8d-903f9a0b948e{fill:#4389ff;}.ffdd9303-1c8c-4fa9-bf25-1dae4d2dc2dd{fill:#448aff;}.b8762262-f5b4-431b-8cbf-c942c0af8f9c{fill:#458aff;}.b39faa34-e0f5-41f4-943c-499a8d35b77b{fill:#468bff;}.b44ac27e-ae08-4379-a2f4-08e6e0b392b7{fill:#478cff;}.b8226f4b-2588-4e17-bb46-c937b9680af4{fill:#488dff;}.a2753238-ae1e-4d37-bb87-28edccc3950e{fill:#498eff;}.f9921379-7a2f-4a59-8f09-dfe1c55615cc{fill:#4a8eff;}.b3299ca2-7e8b-4e73-bb06-8af2c74fe7c7{fill:#4b8fff;}.f0b30237-7c02-4274-a920-da8543dc3497{fill:#4c90ff;}.a70a4e1d-1791-43d4-b50e-d11d2237219e{fill:#4d91ff;}.b7d5bfba-bb8b-49c7-a6d1-c4f30cd9f110{fill:#4e92ff;}.bde60d46-8ac9-4cf0-8153-a57a84473e53{fill:#5092ff;}.b25ade13-1f85-44b1-b5ba-f5f3e4378259{fill:#5193ff;}.e548337c-9f4a-4650-93b9-6fee9638e2d0{fill:#5294ff;}.b2b53646-dbf4-4f70-83b9-2b247e146337{fill:#5395ff;}.edf3360d-02ca-4862-8d06-e352b996d7a5{fill:#5496ff;}.abe64aea-87ac-4a35-b0c7-15bb639ab27b{fill:#5596ff;}.f1bd8f60-5a18-4924-b68b-c21c3f099672{fill:#5697ff;}.bcefa8d1-8513-4e49-8306-e4ad520adedf{fill:#5798ff;}.a43529be-5dce-454f-87b8-700b0825b2b1{fill:#5899ff;}.ab5c2b64-5d85-4b95-bc0b-3a2942305238{fill:#599aff;}.a3246147-98e2-4109-b87f-e1c2c6e4359b{fill:#5a9aff;}.a87dd6f0-369d-4fa0-b1a9-abbd5753ab4e{fill:#5b9bff;}.a8b17bd5-10da-4345-8eaa-18f9aa5bb78b{fill:#5c9cff;}.ba361e4b-6f2a-4f7b-ae1b-ecd5d876dfdb{fill:#5d9dff;}.bc87dade-3668-4c49-a220-0fcd5918ae3d{fill:#5e9dff;}.ae54170f-a92b-48a9-ae7b-b8b9c230526e{fill:#5f9eff;}.a03e0b2a-cd31-495f-a669-75d02b866b6c{fill:#609fff;}.b7ffeb48-d35e-4726-9a32-2c052bcdda99{fill:#61a0ff;}.fd1167b0-d772-4109-a425-c0d1402b4903{fill:#62a1ff;}.fc8a05f2-a98b-4d3e-bfa7-2f2210a2a453{fill:#63a1ff;}.aff1f6ce-5eff-4ad4-9e31-2ec2cd914be5{fill:#64a2ff;}.ffb05b84-e639-4c51-b4a4-522370192cd9{fill:#65a3ff;}.b94c6f6f-1c63-4e6c-9804-8fca82fd42ed{fill:#66a4ff;}.adefc4c4-2ac5-4d00-af66-b3ac7b7ce85e{fill:#67a5ff;}.e6881097-3383-43ed-9026-73a317d66e24{fill:#68a5ff;}.a8080420-1e0b-44c7-8bfd-2b000bff9c17{fill:#69a6ff;}.f1c20ee9-270f-44cb-bd72-35cd774ff0d8{fill:#6aa7ff;}.aa4543ce-d6fa-456f-ad11-f23b9c487587{fill:#6ba8ff;}.b670005f-0920-43ee-9e13-946fe0be6f03{fill:#6ca9ff;}.e2970be7-f15a-4844-84f3-bbb76e5bbf0a{fill:#6da9ff;}.a3cff491-efe0-4c91-9b39-caf80bb2efd3{fill:#6eaaff;}.bfa21dc7-88cc-4a56-a1b3-da98cadf6a61{fill:#6fabff;}.b9be03e8-5d59-464d-a22b-18fa02c8b9d1{fill:#70acff;}.ae38f113-f6e8-4195-baf7-2835cdd37310{fill:#71acff;}.e6c1f26f-8597-43df-a9f4-ee19781f2764{fill:#72adff;}.acd0c2ba-adf7-4975-967a-8f8ee9720dd0{fill:#73aeff;}.b59fd5bc-971b-4711-8035-e8dce06d34c4{fill:#74afff;}.b22e42a9-2507-4778-9a08-ba0bc097928d{fill:#75b0ff;}.a7510e98-e318-4607-b49d-a34245d851d4{fill:#76b0ff;}.af821b0f-62f1-4b4c-ac1e-674030d80a05{fill:#77b1ff;}.bcc17aa2-03ba-4849-833a-61bbcb6cc873{fill:#78b2ff;}.bcc962ab-c536-4e0e-ae15-a02f1c9cf5c3{fill:#79b3ff;}.b6bba1d2-806d-4cc6-aa88-781c041c78ae{fill:#7ab4ff;}.a7357bb7-304d-49ad-8104-acc412b2c2f5{fill:#7bb4ff;}.bf0e1fc5-d250-4fac-9c99-5da387ca87d4{fill:#7cb5ff;}.f4618265-1fbe-4dd6-8682-f55e493def04{fill:#7db6ff;}.ee2f4f4b-2e46-4e8f-9703-30502fa29ab4{fill:#7eb7ff;}.e334fbb3-22e4-4257-a796-6d49f2007827{fill:#7fb8ff;}.a4f3acee-c7cf-4ade-97c0-db9849affe01{fill:#80b8ff;}.f92af3f6-7887-4b79-b095-99a478ab5be1{fill:#81b9ff;}.ee219931-0668-42c0-af1f-068ba4c706ca{fill:#82baff;}.b14ff5bb-f94d-4ed1-a702-8a609521294c{fill:#83bbff;}.b5d502ca-3dc2-4286-8cd4-eb9c81869c61{fill:#84bbff;}.e1adfe57-0611-4456-a0a7-0cc161e1e655{fill:#85bcff;}.ffc58411-cdc2-40c6-8c8a-3a243417ea60{fill:#86bdff;}.edd4571f-a500-4705-9317-a3ffccadd33a{fill:#87beff;}.bd9aa170-778b-47a3-af57-6751164ef83f{fill:#88bfff;}.b7766aaf-e8f0-42a2-9460-e0f7069999a8{fill:#89bfff;}.afd0b1b8-7ed1-4b38-bf3a-aff79770ea0e{fill:#8ac0ff;}.a7075669-7624-4327-8469-12986b56b204{fill:#8bc1ff;}.aeb81bc6-594d-461a-937a-1fa14d7ffbec{fill:#8cc2ff;}.e865f4d6-46b3-40ea-ac3a-5163474aa13e{fill:#8dc3ff;}.f40b6499-7a25-4be5-8d4a-ef91f18de78e{fill:#8ec3ff;}.a7c0a843-5c61-4b37-a97b-983ce7f54d4b{fill:#8fc4ff;}.ea057f20-8d1f-4645-ae6b-bd6109ec5aec{fill:#90c5ff;}.afff4d48-5768-43e7-8242-ff39c0de2a0d{fill:#91c6ff;}.aa264ae6-e1c2-440d-bebb-889d122e122f{fill:#92c7ff;}.bc414278-33bf-4c34-aa27-5d0d33995d11{fill:#93c7ff;}.b1f47213-c7d3-457f-8c39-dff53652d29b{fill:#94c8ff;}.ff549b28-0204-45ba-a350-8602f8668c8f{fill:#95c9ff;}.a8b5ebc7-ebca-4cb6-904a-e69392add587{fill:#96caff;}.a873b486-1e97-4960-bec7-b23c153a963d{fill:#97caff;}.b03b12d1-fe56-40a7-967f-63966a28be3c{fill:#98cbff;}.b15a95cb-1976-4a61-ae26-ec3c02286b9a{fill:#9cf;}.ea69a7b8-a7af-42c9-93cc-3ba1b475031e{fill:#9acdff;}.bcebc82b-1a5d-4893-8008-7d3a654377a3{fill:#9bceff;}.b65dc295-4d10-4fb8-b0cd-330c34f43b94{fill:#9cceff;}.e417ca50-6e80-438d-918a-85220e0ea06f{fill:#9dcfff;}.a5ca1e13-f15b-4cee-900d-0b736ccb5029{fill:#9ed0ff;}.a13b7d5e-33a1-4856-b717-8d36928a8df4{clip-path:url(#b41ef03d-5b80-4252-b91e-fa04f7435244);}.bb4a6ea9-c865-4d57-a114-563bdeecca94{fill:#aa292e;}.f3ff0479-16fa-4501-a08f-6f431c05e5d1{fill:#1f2d6c;}.b782f2c9-9512-432b-a3c1-ae6b85987d2b{fill:#333;}.a9b4b47b-9101-4816-aaf8-c8a9e64e2279{fill:#aa7941;}.a665ff0e-26bf-4ce0-a537-b694ec512902{fill:#0b050f;}.bb6ba5b1-9c6d-4884-abab-ba8f7383b11c{fill:#3856c8;}.bd375298-c435-4dad-970e-4bb8e1dad175{fill:#bf9b4d;}.b5a17a8e-932e-48cb-8130-8bf9769ba348{fill:#e8efff;}.f05e14b0-f9f9-4c80-80c4-b1dee84769e0{fill:#c9d8f7;}.a999373f-49c5-4ac6-90e1-def24b17255d{fill:#715c57;}.a2e3b7d3-3266-48bf-af52-16bbef568821,.b0094a5a-3918-4121-8516-23a0c78ca4c8{fill:#153f68;}.e9744d8c-a900-45a5-a3da-04dab8e47c0b{clip-path:url(#f190a0b9-aed2-46f3-ba02-96f291561dd9);}.ba092a61-dc94-4c52-b18f-4e7881837810{fill:#7f282a;}.a8536ea6-1469-4ebf-a611-daa7bd0e748d{fill:#3f3f3f;}.b94df982-cc36-412f-89df-56b31ffb6f3c{clip-path:url(#e88816e8-98dc-4006-8521-055c5fc266fe);}</style><clipPath id="fa546495-dc78-4b16-a01e-ce01e241f5c0"><path class="b0245237-f390-4069-823a-105417713da0" d="M35.59,21.42a10.09,10.09,0,0,0,.27-2.21,7,7,0,0,0,0-.94,1.63,1.63,0,0,0-.22-.72A1.3,1.3,0,0,0,34.53,17a1.4,1.4,0,0,0-1.08.42,1.39,1.39,0,0,0-.15.73c0,.29,0,1.32,0,1.32s.11,1.87.15,1.92a2.56,2.56,0,0,0,.24.11,3.51,3.51,0,0,0,.92.19,3,3,0,0,0,.77-.16S35.45,21.54,35.59,21.42Z"/></clipPath><clipPath id="bce7def4-f6d3-4a9d-864b-51f19c76086a"><path class="b0245237-f390-4069-823a-105417713da0" d="M32.84,69.75h-.79l-.76,0a1.3,1.3,0,0,0-.5.12,1.24,1.24,0,0,0-.31.54,3.5,3.5,0,0,0,0,.57,2.31,2.31,0,0,0,.55.43,1.93,1.93,0,0,0,1,.2,2.06,2.06,0,0,0,1-.28,1.34,1.34,0,0,0,.38-.47,1.23,1.23,0,0,0,0-.47,1,1,0,0,0-.25-.53A.56.56,0,0,0,32.84,69.75Z"/></clipPath><clipPath id="bf1495f3-6698-4b7a-ad55-e613379d3f02"><path class="b0245237-f390-4069-823a-105417713da0" d="M26.85,64.84a8.66,8.66,0,0,1,1.08-.38c.18,0,1.33-.23,1.48-.23s1.14.16,1.27.19,1.17.32,1.25.38.86.84.75,1-.75-.07-.83-.08-1.11-.17-1.25-.18l-1.21-.08c-.17,0-1.34.09-1.51.11l-1.1.12c-.07,0-.73.17-.79.09S26.69,65,26.85,64.84Z"/></clipPath><clipPath id="aec6cb22-8258-418c-87f2-325f1c986c8b"><path class="bd98b2fa-6db9-4fa6-b27a-7f9dbdaffa49" d="M25.86,69.63h.93l.8,0a1.19,1.19,0,0,1,.34.15,1.17,1.17,0,0,1,.26.45,4.77,4.77,0,0,1,.06.62,4,4,0,0,1-.6.43,2.72,2.72,0,0,1-1,.21,2.13,2.13,0,0,1-1-.27,1.39,1.39,0,0,1-.51-.59,1.24,1.24,0,0,1,.09-.46.89.89,0,0,1,.25-.42A1.74,1.74,0,0,1,25.86,69.63Z"/></clipPath><clipPath id="b30c6440-f16a-45f7-a4f1-60ad59e6855a"><path class="ed08bcef-ca8c-48d6-8c15-4dd75e70c0b7" d="M31.12,70.6a.6.6,0,0,1,1.19,0,.6.6,0,0,1-1.19,0Z"/></clipPath><clipPath id="b41ef03d-5b80-4252-b91e-fa04f7435244"><path class="ed08bcef-ca8c-48d6-8c15-4dd75e70c0b7" d="M25.9,70.59a.58.58,0,0,1,.61-.55.55.55,0,1,1,0,1.09A.58.58,0,0,1,25.9,70.59Z"/></clipPath><clipPath id="f190a0b9-aed2-46f3-ba02-96f291561dd9"><path class="b0245237-f390-4069-823a-105417713da0" d="M28.22,25s.49.62.68.77a4.44,4.44,0,0,0,1,.35c.11,0,1.08.07,1.19.07s1.1-.05,1.19-.07a9.35,9.35,0,0,0,1.25-.28c.17-.12.51-.72.57-.68a1.93,1.93,0,0,1-.55.76,10.39,10.39,0,0,1-1.27.28c-.12,0-1.07.08-1.18.08s-1.08-.05-1.19-.07a4.86,4.86,0,0,1-1-.34A3.52,3.52,0,0,1,28.22,25Z"/></clipPath><clipPath id="e88816e8-98dc-4006-8521-055c5fc266fe"><path class="a5d8b978-7d1f-4964-abea-b683ae47258b" d="M27.83,21.36c-.24-.21-.24-1.61-.25-2a8,8,0,0,1,0-1.08c0-.22,0-.76.26-1A1.88,1.88,0,0,1,29,17a2.06,2.06,0,0,1,1,.44,1.54,1.54,0,0,1,.24.8c0,.45,0,1.2,0,1.2a17.63,17.63,0,0,1-.17,1.93l-.2.13a3,3,0,0,1-.9.22,3.13,3.13,0,0,1-.86-.17A1.37,1.37,0,0,1,27.83,21.36Z"/></clipPath></defs><title>T_J</title><g id="b18ea386-426a-41a7-95ac-a7cae52babe6" data-name="Capa 2"><g id="b9a4303f-a049-4c05-9632-e95481899f86" data-name="Objects"><path class="a102300c-4d88-4d8a-8c0b-952c46869929" d="M3.39,8.21a1.73,1.73,0,0,1-1-.32,2,2,0,0,1-.68-.82.27.27,0,0,1,0-.14.23.23,0,0,1,.09-.19.32.32,0,0,1,.18-.06.2.2,0,0,1,.14,0l.11.11a1.46,1.46,0,0,0,.49.61,1.21,1.21,0,0,0,.72.23,1.54,1.54,0,0,0,.73-.17A1.19,1.19,0,0,0,4.6,7a1.43,1.43,0,0,0,.18-.72V2.12a.25.25,0,0,1,.08-.18.28.28,0,0,1,.21-.08.24.24,0,0,1,.2.08.24.24,0,0,1,.07.18V6.29a1.92,1.92,0,0,1-.25,1A1.67,1.67,0,0,1,4.4,8,2.07,2.07,0,0,1,3.39,8.21Z"/><rect class="b0245237-f390-4069-823a-105417713da0" x="0.13" y="0.12" width="60.86" height="91.29" rx="2.4"/><path class="a4bc3e9b-3be1-431f-8fa7-d15743203e8d" d="M58.59,91.54H2.52A2.53,2.53,0,0,1,0,89V2.52A2.52,2.52,0,0,1,2.52,0H58.59a2.52,2.52,0,0,1,2.52,2.52V89A2.53,2.53,0,0,1,58.59,91.54ZM2.52.25A2.27,2.27,0,0,0,.25,2.52V89a2.28,2.28,0,0,0,2.27,2.28H58.59A2.28,2.28,0,0,0,60.86,89V2.52A2.27,2.27,0,0,0,58.59.25Z"/><path class="f05a1189-d879-49ac-bcd4-8e63ffbf8da7" d="M4.32,9.93a.89.89,0,0,0,0-.43,1,1,0,0,0-1.89.17,1.15,1.15,0,0,0,0,.26.94.94,0,0,0-.79,1,1,1,0,0,0,.89.86,1,1,0,0,0,.72-.27l-.08.52s0,.07.06.07h.24s.06,0,.06-.07l-.07-.52a.94.94,0,0,0,.71.27,1,1,0,0,0,.9-.86A1,1,0,0,0,4.32,9.93Z"/><path class="a15c83a1-f1cb-4f87-9093-c5d368423313" d="M3.52,12.16H3.28l-.06,0a.06.06,0,0,1,0-.06l.06-.47a1,1,0,0,1-.63.24H2.58a1,1,0,0,1-.12-1.93,1,1,0,0,1,0-.24A1,1,0,0,1,2.75,9a.94.94,0,0,1,.65-.26h.1a1,1,0,0,1,.86.8.94.94,0,0,1,0,.41,1,1,0,0,1-.12,1.93h0a1,1,0,0,1-.64-.24l.07.47a.14.14,0,0,1,0,.06Zm-.22-.62h0s0,0,0,0l-.07.52a0,0,0,0,0,0,0h.3a0,0,0,0,0,0,0l-.07-.52s0,0,0,0h0a.92.92,0,0,0,.7.26.94.94,0,0,0,.1-1.86h0a.81.81,0,0,0,0-.41.93.93,0,0,0-.83-.78H3.4A.94.94,0,0,0,2.77,9a1,1,0,0,0-.3.7,1.07,1.07,0,0,0,0,.25h0a.94.94,0,0,0,.09,1.86h.06a.9.9,0,0,0,.64-.26Z"/><path class="a3003cda-1dee-49bf-8da1-b1d1c89c8139" d="M4.12,9.63h0A.08.08,0,0,1,4,9.54.59.59,0,0,0,3.51,9a.08.08,0,0,1-.07-.1.08.08,0,0,1,.1-.07.75.75,0,0,1,.66.75A.08.08,0,0,1,4.12,9.63Z"/><path class="a3003cda-1dee-49bf-8da1-b1d1c89c8139" d="M4.13,10A.08.08,0,0,1,4,9.87V9.76a.09.09,0,0,1,.09-.09.08.08,0,0,1,.08.09v.11A.07.07,0,0,1,4.13,10Z"/><path class="a102300c-4d88-4d8a-8c0b-952c46869929" d="M57.71,83.33a1.68,1.68,0,0,1,1,.31,2,2,0,0,1,.68.83.3.3,0,0,1,.05.14.2.2,0,0,1-.09.18.27.27,0,0,1-.18.07.25.25,0,0,1-.15,0,.47.47,0,0,1-.1-.1,1.48,1.48,0,0,0-.49-.61,1.2,1.2,0,0,0-.73-.23A1.42,1.42,0,0,0,57,84a1.28,1.28,0,0,0-.49.49,1.49,1.49,0,0,0-.17.71v4.17a.25.25,0,0,1-.09.19.29.29,0,0,1-.4,0,.27.27,0,0,1-.08-.19V85.24a2,2,0,0,1,.25-1,1.8,1.8,0,0,1,.69-.68A2,2,0,0,1,57.71,83.33Z"/><path class="f05a1189-d879-49ac-bcd4-8e63ffbf8da7" d="M56.79,81.61a.84.84,0,0,0,0,.42,1,1,0,0,0,1.89-.16.75.75,0,0,0,0-.26,1,1,0,0,0,.8-1,.94.94,0,0,0-.89-.85,1,1,0,0,0-.72.26l.07-.52a.05.05,0,0,0-.05-.06h-.25a.05.05,0,0,0,0,.06l.07.52a1,1,0,1,0-.81,1.63Z"/><path class="a15c83a1-f1cb-4f87-9093-c5d368423313" d="M57.71,82.84h-.1a1,1,0,0,1-.86-.81.82.82,0,0,1,0-.41,1,1,0,0,1-.8-1.05,1,1,0,0,1,.91-.87h.06a.94.94,0,0,1,.64.24l-.07-.48a.07.07,0,0,1,0-.06l0,0h.25l.05,0a.07.07,0,0,1,0,.06l-.06.48a.92.92,0,0,1,.69-.24,1,1,0,0,1,.91.87,1,1,0,0,1-.8,1.05.73.73,0,0,1,0,.25,1,1,0,0,1-.32.72A1,1,0,0,1,57.71,82.84Zm-.77-3.11h0a.94.94,0,0,0-.88.85.92.92,0,0,0,.78,1h0s0,0,0,0a1.12,1.12,0,0,0,0,.41,1,1,0,0,0,.84.77h.09a.94.94,0,0,0,.93-.94,1,1,0,0,0,0-.25s0,0,0,0h0a.92.92,0,0,0,.78-1,.94.94,0,0,0-.87-.85,1,1,0,0,0-.71.26s0,0,0,0,0,0,0,0l.08-.52v0l0,0h-.25l0,0s0,0,0,0l.07.52s0,0,0,0,0,0,0,0A.94.94,0,0,0,56.94,79.73Z"/><path class="a3003cda-1dee-49bf-8da1-b1d1c89c8139" d="M57,81.9h0a.1.1,0,0,1,.08.1.56.56,0,0,0,.52.56.09.09,0,0,1,.07.1.08.08,0,0,1-.1.07A.75.75,0,0,1,56.9,82,.11.11,0,0,1,57,81.9Z"/><path class="a3003cda-1dee-49bf-8da1-b1d1c89c8139" d="M57,81.58a.09.09,0,0,1,.09.09v.1a.09.09,0,1,1-.18,0v-.1A.09.09,0,0,1,57,81.58Z"/><g id="a837bd5f-6c0b-4380-83f7-8f3b20da85db" data-name="pelo ext"><path class="aa69f8c1-3c4e-4ca3-984a-926b4e7e291b" d="M20.4,75.41c-.79-1.6-.43-2.84-.45-4.07,0-1.66.36-3.85.49-5.51a56.41,56.41,0,0,0,.39-5.94c-.06-1.5-.53-3.46-.7-5-.2-1.69-.45-3.93-.52-5.62,0-.76,0-2.53,0-2.53A10,10,0,0,1,21,46.45c.78-.08,1.82.18,2.59.17,1,0,2.32-.41,3.31-.34.73,0,6.4,6.89,6.3,8.6a52.62,52.62,0,0,0-.37,5.33A53.53,53.53,0,0,0,34,66.7a32.58,32.58,0,0,1,1,5c0,1.39-.08,3.37-.82,4.54A6.14,6.14,0,0,1,31.8,78a8.32,8.32,0,0,1-2.25.6,13.4,13.4,0,0,1-4.93,0,10.63,10.63,0,0,1-2.15-1.21A6.34,6.34,0,0,1,20.4,75.41Z"/><path d="M26.58,79a7.69,7.69,0,0,1-2-.23,10.48,10.48,0,0,1-2.16-1.22,6.5,6.5,0,0,1-2.08-2.07,5.62,5.62,0,0,1-.49-3.18c0-.31,0-.61,0-.91a29.64,29.64,0,0,1,.29-3.59c.08-.68.16-1.33.2-1.92s.09-1.07.15-1.66a33.69,33.69,0,0,0,.24-4.28,25.1,25.1,0,0,0-.4-3c-.12-.7-.23-1.35-.3-2-.19-1.59-.45-3.91-.53-5.62,0-.75,0-2.52,0-2.53a.07.07,0,0,1,0,0A10.4,10.4,0,0,1,21,46.4a7.83,7.83,0,0,1,1.5.08c.38,0,.74.09,1.06.09h0A12.08,12.08,0,0,0,25,46.4a8.63,8.63,0,0,1,1.84-.17c.73.05,6.46,6.84,6.35,8.65,0,.57-.1,1.2-.17,1.87a22.19,22.19,0,0,0-.2,3.46,29.68,29.68,0,0,0,.77,4.57c.15.68.29,1.32.4,1.91s.23,1,.37,1.62a16.1,16.1,0,0,1,.6,3.42,9.45,9.45,0,0,1-.83,4.56,6.17,6.17,0,0,1-2.33,1.8,8.47,8.47,0,0,1-2.26.6A21.9,21.9,0,0,1,26.58,79ZM19.66,46.82c0,.26,0,1.81,0,2.5.07,1.7.33,4,.52,5.61.07.59.18,1.25.3,1.94a25.52,25.52,0,0,1,.4,3,34,34,0,0,1-.24,4.3c-.05.59-.11,1.14-.14,1.66s-.13,1.24-.21,1.92A29.49,29.49,0,0,0,20,71.34c0,.3,0,.6,0,.91a5.54,5.54,0,0,0,.48,3.14h0a6.27,6.27,0,0,0,2.05,2,11.12,11.12,0,0,0,2.13,1.2,13.13,13.13,0,0,0,4.92,0A8.55,8.55,0,0,0,31.77,78a6.08,6.08,0,0,0,2.3-1.76,9.48,9.48,0,0,0,.81-4.51,15.85,15.85,0,0,0-.6-3.39c-.14-.58-.28-1.13-.37-1.63s-.25-1.23-.4-1.91a31.05,31.05,0,0,1-.78-4.59,23.78,23.78,0,0,1,.21-3.47c.07-.67.14-1.3.17-1.87.1-1.68-5.58-8.49-6.26-8.54A8.51,8.51,0,0,0,25,46.5a11.44,11.44,0,0,1-1.47.17h0c-.33,0-.69-.05-1.08-.09A7.49,7.49,0,0,0,21,46.5,10.74,10.74,0,0,0,19.66,46.82Z"/></g><path class="aaae8350-63e1-4591-b722-a3f78cdab0fe" d="M28.08,60.55s.06,2.05.09,2.1,1.24.54,1.29-.25c0-.08-.07-1.84-.07-1.91"/><path d="M28.93,62.88a1.53,1.53,0,0,1-.8-.22s-.13-2-.08-2.13h0v0h0c0,.11.07,1.92.09,2.07a1.53,1.53,0,0,0,1,.14.38.38,0,0,0,.24-.37s0-.84-.05-1.36c0-.31,0-.53,0-.55h.07s0,.26,0,.54c0,.72.06,1.32.06,1.38a.46.46,0,0,1-.42.46Z"/><g id="acf7306b-29ba-4c35-a53c-227a1ae870bd" data-name="pinches"><path class="b60766d7-7965-416d-83d2-ff776bce1006" d="M32,77.47l.09.64-1.46.3-.18-.67S32,77.46,32,77.47Z"/><path class="a9b490b7-8ddb-4bd8-b064-fe6e6e9b55c5" d="M30.65,78.46s0,0,0,0l-.17-.68s0,0,0,0a0,0,0,0,1,0,0l.32-.06c1.25-.22,1.24-.22,1.26-.19s0,0,0,0l.09.63a.05.05,0,0,1,0,.06l-1.46.3Zm-.11-.68.14.57,1.37-.28L32,77.53l-1.17.2Z"/><path class="a834033d-4187-40a4-9eba-ca9c89447141" d="M32,76.42l.14.75-1.5.29-.16-.73S32,76.41,32,76.42Z"/><path class="f1368cf6-4871-463d-b415-507e11acfadc" d="M30.6,77.51s-.05,0-.05,0l-.16-.73s0-.06,0-.06a7.9,7.9,0,0,1,1.56-.3l0,0,.14.75a0,0,0,0,1,0,.06l-1.5.29Zm-.1-.74.14.63,1.4-.27-.12-.65Z"/></g><g id="b1899f88-72a5-4605-847d-20be6e9cd4dc" data-name="cabeza"><g id="a76e8fbf-592e-4e1d-be98-6b921447dc34" data-name="oreja der"><path class="aaae8350-63e1-4591-b722-a3f78cdab0fe" d="M31,68a1.18,1.18,0,0,1,.63-.22,1.11,1.11,0,0,1,.75.24,1.13,1.13,0,0,1-.32,1.4.84.84,0,0,1-.64,0,1.23,1.23,0,0,1-.5-.51A1.39,1.39,0,0,1,31,68Z"/><path d="M31,68.86a1.18,1.18,0,0,0,.5.46l-.05.13a1.3,1.3,0,0,1-.5-.57Z"/><path d="M31.45,69.32a.86.86,0,0,0,.59,0l.06.12a1,1,0,0,1-.7,0Z"/><polygon points="31.45 69.47 31.36 69.42 31.41 69.3 31.5 69.34 31.45 69.47"/><path d="M32,69.35a1,1,0,0,0,.37-.6l.14,0a1.26,1.26,0,0,1-.45.7Z"/><polygon points="32.06 69.5 32 69.39 32.08 69.34 32.15 69.45 32.06 69.5"/><path d="M32.41,68.75a.92.92,0,0,0-.08-.7l.1-.08a1,1,0,0,1,.12.81Z"/><polygon points="32.53 68.83 32.4 68.8 32.42 68.7 32.56 68.73 32.53 68.83"/><path d="M32.33,68.05a1,1,0,0,0-.7-.21v-.13a1.14,1.14,0,0,1,.8.26Z"/><polygon points="32.37 68.09 32.3 68.01 32.4 67.93 32.47 68.01 32.37 68.09"/><path d="M31.63,67.83A1.19,1.19,0,0,0,31,68l0,0a1.28,1.28,0,0,1,.65-.27Z"/><rect x="31.58" y="67.71" width="0.1" height="0.13"/></g><g id="b4c03fad-fce6-4a86-9378-e90814a58823" data-name="cabeza"><path class="aaae8350-63e1-4591-b722-a3f78cdab0fe" d="M33.3,71.49c-.06,1-.07,3.76-1.09,5.06-.83,1.07-1.77,1.68-4.16,1.64-2.65,0-3.78-.72-4.51-2-.87-1.51-.81-4.19-.83-4.61,0-.78.15-1.74.17-2.2a11.9,11.9,0,0,1,.83-4A7.81,7.81,0,0,1,26,63.53a9.27,9.27,0,0,1,3.3-1.17,5.78,5.78,0,0,1,2,1.18,6.39,6.39,0,0,1,1.33,1.8,17.39,17.39,0,0,1,.61,4A13.84,13.84,0,0,1,33.3,71.49Z"/><path d="M33.22,69.29a17.79,17.79,0,0,0-.64-3.93l.12,0a17.69,17.69,0,0,1,.57,4Z"/><path d="M32.58,65.36a6.38,6.38,0,0,0-1.31-1.77l.09-.1a6.56,6.56,0,0,1,1.34,1.82Z"/><polygon points="32.59 65.41 32.56 65.32 32.68 65.27 32.72 65.36 32.59 65.41"/><path d="M31.28,63.58a5.6,5.6,0,0,0-2-1.16v-.14a6.09,6.09,0,0,1,2.06,1.21Z"/><polygon points="31.31 63.62 31.24 63.55 31.33 63.45 31.4 63.52 31.31 63.62"/><path d="M29.28,62.42A9.43,9.43,0,0,0,26,63.59L26,63.48a9.65,9.65,0,0,1,3.34-1.19Z"/><polygon points="29.34 62.43 29.24 62.42 29.25 62.29 29.35 62.3 29.34 62.43"/><path d="M26,63.6a8,8,0,0,0-2.27,1.84l-.08,0A7.66,7.66,0,0,1,26,63.48Z"/><rect x="25.94" y="63.47" width="0.1" height="0.13" transform="translate(-27.2 20.14) rotate(-28.54)"/><path d="M23.75,65.43a11.67,11.67,0,0,0-.85,3.95h0a11.55,11.55,0,0,1,.81-4Z"/><polygon points="23.72 65.47 23.64 65.42 23.7 65.33 23.78 65.38 23.72 65.47"/><path d="M22.91,69.38c0,.46-.21,1.42-.2,2.2h0c0-.78.13-1.74.15-2.2Z"/><rect x="22.86" y="69.33" width="0.04" height="0.1"/><path d="M22.71,71.59c0,.42,0,3.09.87,4.58l-.08,0c-.87-1.52-.77-4.21-.79-4.63Z"/><path d="M23.57,76.18c.72,1.27,1.83,1.93,4.47,2v.09c-2.65,0-3.81-.73-4.54-2Z"/><polygon points="23.52 76.27 23.47 76.18 23.55 76.13 23.6 76.21 23.52 76.27"/><path d="M28,78.14c2.38,0,3.29-.57,4.11-1.62l.09.08c-.83,1.06-1.8,1.68-4.2,1.64Z"/><rect x="27.99" y="78.15" width="0.1" height="0.09"/><path d="M32.15,76.52c1-1.27,1-4,1.08-5h.12c-.06,1-.08,3.77-1.11,5.1Z"/><rect x="32.15" y="76.5" width="0.1" height="0.12" transform="translate(-47.98 54.88) rotate(-52.06)"/><path d="M33.23,71.49a13.17,13.17,0,0,0,0-2.2h.05a11.7,11.7,0,0,1,.08,2.21Z"/><polygon points="33.35 71.55 33.23 71.53 33.24 71.44 33.36 71.44 33.35 71.55"/></g><g id="bf0f25e8-f5ab-449a-ac35-94304ee27ea6" data-name="boca"><g id="a998a12a-cadc-45ad-94a5-73fe3db9691d" data-name="boca"><path class="be50c070-d843-4515-a23f-2f10cf045f0e" d="M26.85,64.84a8.66,8.66,0,0,1,1.08-.38c.18,0,1.33-.23,1.48-.23s1.14.16,1.27.19,1.17.32,1.25.38.86.84.75,1-.75-.07-.83-.08-1.11-.17-1.25-.18l-1.21-.08c-.17,0-1.34.09-1.51.11l-1.1.12c-.07,0-.73.17-.79.09S26.69,65,26.85,64.84Z"/><path class="a1a36c66-51fd-4f19-a78b-70ca9aee6f99" d="M32.54,65.88a2.73,2.73,0,0,1-.59-.09l-.11,0-.54-.08c-.3,0-.63-.1-.71-.1l-1.2-.08c-.17,0-1.33.09-1.5.11l-1,.11h-.07l-.08,0c-.52.11-.7.12-.75,0s.86-1,.87-1h0a7.37,7.37,0,0,1,1.1-.39c.18,0,1.34-.23,1.49-.23s1.15.16,1.28.19,1.17.32,1.27.39.91.84.76,1.07C32.69,65.87,32.63,65.88,32.54,65.88Zm-3.15-.47c.16,0,1.2.08,1.21.08s.4.05.71.1l.54.08.12,0c.5.11.64.11.67.08s-.61-.83-.74-.93-1.08-.34-1.23-.37-1.13-.19-1.26-.19-1.29.18-1.47.23a8.74,8.74,0,0,0-1.06.37,3.77,3.77,0,0,0-.85.87,2.46,2.46,0,0,0,.64-.09l.1,0h.07l1-.11C28.05,65.5,29.22,65.41,29.39,65.41ZM26,65.75h0Z"/></g><g id="aa2aa38f-cb5c-403f-8e6b-766a2e035d22" data-name="lengua"><g class="f6062557-d8fa-4db6-810b-8ffe1888669c"><path class="b4c40d6c-27fd-4716-88ef-eef55a586a29" d="M27.71,62.4a3.39,3.39,0,0,1,2-.3,2.93,2.93,0,0,1,1.5.33,1.66,1.66,0,0,1,.67,1.13,1.7,1.7,0,0,1-.7,1,3.06,3.06,0,0,1-1.72.42,3.11,3.11,0,0,1-1.69-.59,1.68,1.68,0,0,1-.59-1A1.44,1.44,0,0,1,27.71,62.4Z"/><path class="af4acca8-8809-47ed-9bf1-548025b71c79" d="M29.56,65.07h-.14a3.1,3.1,0,0,1-1.73-.61,1.65,1.65,0,0,1-.6-1,1.53,1.53,0,0,1,.59-1.07h0a3.3,3.3,0,0,1,1.94-.31h.05a3.09,3.09,0,0,1,1.53.33,1.25,1.25,0,0,1,0,2.25A3.09,3.09,0,0,1,29.56,65.07Zm-1.82-2.63a1.43,1.43,0,0,0-.55,1,1.59,1.59,0,0,0,.57,1,3.15,3.15,0,0,0,1.67.58h.13a3,3,0,0,0,1.55-.41,1.65,1.65,0,0,0,.68-1,1.6,1.6,0,0,0-.65-1.08,2.94,2.94,0,0,0-1.47-.32h-.05A3.28,3.28,0,0,0,27.74,62.44Z"/></g></g><g id="babd2389-1b00-473d-a4c7-4ac4a5977cc8" data-name="dientes"><g class="f6062557-d8fa-4db6-810b-8ffe1888669c"><path class="be50f770-5b46-4652-bfc3-2b239a276414" d="M25,70.59a2.7,2.7,0,0,0,1.32,1,9.83,9.83,0,0,0,5.93.11,2.81,2.81,0,0,0,1.39-1,4,4,0,0,0,.15-1.53H24.93A3.48,3.48,0,0,0,25,70.59Z"/><path d="M29.44,72.17a9,9,0,0,1-3.17-.52,2.62,2.62,0,0,1-1.34-1h0a3.26,3.26,0,0,1-.05-1.37,0,0,0,0,1,.05,0h4.29c4.55,0,4.55,0,4.57,0l0,0a3.9,3.9,0,0,1-.16,1.55,2.81,2.81,0,0,1-1.41,1A8.85,8.85,0,0,1,29.44,72.17ZM25,69.29A3.08,3.08,0,0,0,25,70.56h0a2.54,2.54,0,0,0,1.29,1,9.73,9.73,0,0,0,5.9.11,2.7,2.7,0,0,0,1.35-.93,3.62,3.62,0,0,0,.15-1.45H25Z"/></g><g class="f6062557-d8fa-4db6-810b-8ffe1888669c"><path class="be50f770-5b46-4652-bfc3-2b239a276414" d="M33.78,61.21a2.72,2.72,0,0,0-1.33-1,9.8,9.8,0,0,0-5.92-.11,2.76,2.76,0,0,0-1.39,1A3.79,3.79,0,0,0,25,62.51s3,0,4.31,0l4.52,0A3.62,3.62,0,0,0,33.78,61.21Z"/><path d="M29.33,62.58H25.51c-.54,0-.54,0-.54-.05A3.71,3.71,0,0,1,25.1,61a2.72,2.72,0,0,1,1.41-1,9.78,9.78,0,0,1,6,.11,2.6,2.6,0,0,1,1.35,1h0a3.54,3.54,0,0,1,.08,1.32.05.05,0,0,1,0,.05Zm-4.26-.12,4.26,0,4.47,0a3.25,3.25,0,0,0-.07-1.22h0a2.59,2.59,0,0,0-1.29-1,9.73,9.73,0,0,0-5.9-.11,2.7,2.7,0,0,0-1.35.93A3.32,3.32,0,0,0,25.07,62.46Z"/></g></g></g><g id="b6e05b97-af19-4de4-a61d-be6d99727bca" data-name="ojos"><g id="a6b9ef63-9516-4184-8fc0-e732cd2b11c2" data-name="ojos"><path class="be50f770-5b46-4652-bfc3-2b239a276414" d="M32.84,69.75h-.79l-.76,0a1.3,1.3,0,0,0-.5.12,1.24,1.24,0,0,0-.31.54,3.5,3.5,0,0,0,0,.57,2.31,2.31,0,0,0,.55.43,1.93,1.93,0,0,0,1,.2,2.06,2.06,0,0,0,1-.28,1.34,1.34,0,0,0,.38-.47,1.23,1.23,0,0,0,0-.47,1,1,0,0,0-.25-.53A.56.56,0,0,0,32.84,69.75Z"/><path d="M33.45,70.86a1.35,1.35,0,0,1-.37.53L33,71.23a1.28,1.28,0,0,0,.38-.4Z"/><polygon points="33.43 70.91 33.34 70.88 33.37 70.78 33.46 70.81 33.43 70.91"/><path d="M33.07,71.39a2.19,2.19,0,0,1-1,.32v-.26a2,2,0,0,0,1-.22Z"/><polygon points="33.03 71.42 32.92 71.26 33 71.2 33.11 71.36 33.03 71.42"/><path d="M32,71.7A2.2,2.2,0,0,1,31,71.47l.09-.18a1.68,1.68,0,0,0,1,.16Z"/><rect x="31.96" y="71.45" width="0.1" height="0.25" transform="translate(-2.74 1.29) rotate(-2.22)"/><path d="M30.94,71.47a1.82,1.82,0,0,1-.55-.51l.08,0a3.91,3.91,0,0,0,.56.36Z"/><rect x="30.88" y="71.33" width="0.2" height="0.1" transform="translate(-46.72 67.17) rotate(-63.43)"/><path d="M31.28,69.69H32v.12c-.29,0-.75,0-.75,0Z"/><polygon points="31.24 69.78 31.23 69.7 31.33 69.69 31.34 69.76 31.24 69.78"/><path d="M32.05,69.7h.8l0,.09-.79,0Z"/><rect x="31.99" y="69.69" width="0.1" height="0.12"/><path class="be50f770-5b46-4652-bfc3-2b239a276414" d="M25.86,69.63h.93l.8,0a1.19,1.19,0,0,1,.34.15,1.17,1.17,0,0,1,.26.45,4.77,4.77,0,0,1,.06.62,4,4,0,0,1-.6.43,2.72,2.72,0,0,1-1,.21,2.13,2.13,0,0,1-1-.27,1.39,1.39,0,0,1-.51-.59,1.24,1.24,0,0,1,.09-.46.89.89,0,0,1,.25-.42A1.74,1.74,0,0,1,25.86,69.63Z"/><path d="M25.19,70.66c0,.13.33.41.51.52l-.12.18a1.51,1.51,0,0,1-.5-.67Z"/><rect x="25.08" y="70.63" width="0.1" height="0.1" transform="matrix(0.98, -0.19, 0.19, 0.98, -13.25, 6.23)"/><path d="M25.7,71.19a2,2,0,0,0,.91.23v.25a2.29,2.29,0,0,1-1-.31Z"/><polygon points="25.62 71.39 25.53 71.34 25.66 71.15 25.74 71.21 25.62 71.39"/><path d="M26.61,71.42a2.65,2.65,0,0,0,1-.17l.08.18a2.73,2.73,0,0,1-1.08.24Z"/><polygon points="26.65 71.67 26.55 71.67 26.56 71.42 26.66 71.43 26.65 71.67"/><path d="M27.61,71.25c.18-.08.6-.38.59-.36l.08,0a2.68,2.68,0,0,1-.6.5Z"/><polygon points="27.63 71.45 27.55 71.27 27.64 71.23 27.72 71.41 27.63 71.45"/><path d="M27.57,69.72h-.79V69.6l.81.05Z"/><polygon points="27.61 69.74 27.52 69.72 27.54 69.63 27.64 69.66 27.61 69.74"/><path d="M26.79,69.72l-.92,0,0-.08s.57,0,.94,0Z"/><rect x="26.74" y="69.61" width="0.1" height="0.11"/><path d="M33.42,70.8a.63.63,0,0,1,.24.14l-.12.12-.18-.18Z"/><path d="M33.66,70.94a1.28,1.28,0,0,1,.25.32l-.19.09a.85.85,0,0,0-.18-.29Z"/><polygon points="33.58 71.09 33.51 71.03 33.62 70.91 33.69 70.97 33.58 71.09"/><path d="M25.15,70.74a.81.81,0,0,0-.27.07l-.08-.13a.68.68,0,0,1,.33-.05Z"/><path d="M24.87,70.81c-.12.07-.15.19-.22.33l-.19-.09a.84.84,0,0,1,.33-.37Z"/><polygon points="24.83 70.83 24.75 70.7 24.83 70.65 24.91 70.78 24.83 70.83"/></g><g id="bf48de49-b427-4579-a921-7244226f7b84" data-name="pupilas"><g class="e0060e64-b849-4de4-a4de-74802e8cd9ec"><g class="b7f6f086-2030-43df-9c80-9fc387faa63c"><rect class="a7b70046-3180-475e-9493-00750c85a353" x="31.12" y="70.03" width="1.19" height="1.12"/><ellipse class="a7b70046-3180-475e-9493-00750c85a353" cx="31.15" cy="70.93" rx="0.71" ry="0.68"/><ellipse class="f2566e83-a2ba-486e-bb09-c4e1d4e54800" cx="31.15" cy="70.93" rx="0.71" ry="0.67"/><ellipse class="b07c7de2-4097-4bea-a502-505829dee41c" cx="31.15" cy="70.93" rx="0.7" ry="0.67"/><ellipse class="fd582ec1-b7ab-43bd-a00e-da499c87acf3" cx="31.15" cy="70.93" rx="0.7" ry="0.66"/><ellipse class="b222dc8e-977e-47f1-97b9-8444d05d0977" cx="31.15" cy="70.93" rx="0.7" ry="0.66"/><ellipse class="b9b56175-5961-413b-8ba4-983ee17bef4d" cx="31.15" cy="70.93" rx="0.69" ry="0.65"/><ellipse class="a4ecf917-624a-478f-b425-559117da9f40" cx="31.15" cy="70.93" rx="0.69" ry="0.65"/><ellipse class="b4636279-7838-495c-bd90-9f319dca09c6" cx="31.15" cy="70.93" rx="0.68" ry="0.65"/><ellipse class="efdb0b56-971a-4b20-bb1c-0f5d649c312a" cx="31.15" cy="70.93" rx="0.68" ry="0.64"/><ellipse class="b8a4ea17-5979-4205-be83-b6eaadcc89b0" cx="31.15" cy="70.93" rx="0.67" ry="0.64"/><ellipse class="af180874-4d20-4b9b-925c-69e1aab67aba" cx="31.15" cy="70.93" rx="0.67" ry="0.63"/><ellipse class="e9827bfa-0717-4fe1-909b-b9a6a298cd91" cx="31.15" cy="70.93" rx="0.66" ry="0.63"/><ellipse class="a4864140-2dcf-4978-8519-d9ce71da066d" cx="31.15" cy="70.93" rx="0.66" ry="0.62"/><ellipse class="a5025eef-24ab-417c-be77-f9025fa5b87c" cx="31.15" cy="70.93" rx="0.65" ry="0.62"/><ellipse class="a42bc43c-ec1e-4eab-a5b0-92b7c35f956d" cx="31.15" cy="70.93" rx="0.65" ry="0.62"/><ellipse class="f32eee41-e215-45cd-a51d-bcda500beea8" cx="31.15" cy="70.93" rx="0.65" ry="0.61"/><ellipse class="b38d60ea-518b-4fd7-b388-8db491842ff4" cx="31.15" cy="70.93" rx="0.64" ry="0.61"/><ellipse class="f59cc78d-a180-47a0-a0fa-5edbb2649255" cx="31.15" cy="70.93" rx="0.64" ry="0.6"/><ellipse class="a04bca53-f873-4627-b939-d79d8eda8f07" cx="31.15" cy="70.93" rx="0.63" ry="0.6"/><ellipse class="f333dfc9-a775-4b7e-ba8c-204ad033a58d" cx="31.15" cy="70.93" rx="0.63" ry="0.59"/><ellipse class="e8ff21d0-b0f6-4ac0-aa09-ce91f4985e4a" cx="31.15" cy="70.93" rx="0.62" ry="0.59"/><ellipse class="a2e7dfa0-44ad-4593-851c-73e3f89e7a60" cx="31.15" cy="70.93" rx="0.62" ry="0.59"/><ellipse class="e4e6559a-9b7f-4657-8e2f-d3db97f73924" cx="31.15" cy="70.93" rx="0.61" ry="0.58"/><ellipse class="b13d6901-9f28-48d2-8ed1-820654a34b2d" cx="31.15" cy="70.93" rx="0.61" ry="0.58"/><ellipse class="b5ffb22a-9abc-400c-8b90-975e40a40567" cx="31.15" cy="70.93" rx="0.6" ry="0.57"/><ellipse class="aa094215-1ea0-4fd9-a29d-134e9c5985f6" cx="31.15" cy="70.93" rx="0.6" ry="0.57"/><ellipse class="ec1ede8a-7128-4dc9-9ff2-da5362802c14" cx="31.15" cy="70.93" rx="0.6" ry="0.56"/><ellipse class="b16a2bc5-48a8-414f-83df-1516f4b84774" cx="31.15" cy="70.93" rx="0.59" ry="0.56"/><ellipse class="bce93c8e-2950-4e2f-834b-accf513431ad" cx="31.15" cy="70.93" rx="0.59" ry="0.56"/><ellipse class="beab2d58-431c-4bd5-a579-549d33fde76d" cx="31.15" cy="70.93" rx="0.58" ry="0.55"/><ellipse class="f19fdaed-6779-472e-b45c-6e1223559cf8" cx="31.15" cy="70.93" rx="0.58" ry="0.55"/><ellipse class="b7cf4353-d78b-4556-9f42-eec2b108eaae" cx="31.15" cy="70.93" rx="0.57" ry="0.54"/><ellipse class="b5587006-5c3b-426c-acc6-c6103b15e5af" cx="31.15" cy="70.93" rx="0.57" ry="0.54"/><ellipse class="b1bf9738-982e-4110-a7b2-d70570137a49" cx="31.15" cy="70.93" rx="0.56" ry="0.53"/><ellipse class="a576c473-8779-41ab-bdce-804a3ded1962" cx="31.15" cy="70.93" rx="0.56" ry="0.53"/><ellipse class="a9468185-b704-4694-8302-d63b3bebf3e4" cx="31.15" cy="70.93" rx="0.56" ry="0.53"/><ellipse class="ac447f20-7cd0-4613-bbe0-9242253d34d4" cx="31.15" cy="70.93" rx="0.55" ry="0.52"/><ellipse class="a4712313-133a-4647-a416-de597a74bb83" cx="31.15" cy="70.93" rx="0.55" ry="0.52"/><ellipse class="aa63b933-7137-4894-91e2-21a9734f7f40" cx="31.15" cy="70.93" rx="0.54" ry="0.51"/><ellipse class="f838712c-660b-4c88-9b8a-ac6507eb9fba" cx="31.15" cy="70.93" rx="0.54" ry="0.51"/><ellipse class="e4a7b973-ec37-428a-a569-7a44fd8c26f1" cx="31.15" cy="70.93" rx="0.53" ry="0.5"/><ellipse class="b56107af-cf6e-433b-96eb-d1da60426d90" cx="31.15" cy="70.93" rx="0.53" ry="0.5"/><ellipse class="fc7966a2-e485-4c70-9186-7c580ca2667f" cx="31.15" cy="70.93" rx="0.52" ry="0.5"/><ellipse class="b869a2eb-4229-4d44-9732-576460eaf38f" cx="31.15" cy="70.93" rx="0.52" ry="0.49"/><ellipse class="a7478169-ade2-4e36-ac7e-df536a752752" cx="31.15" cy="70.93" rx="0.51" ry="0.49"/><ellipse class="fddead59-97e0-4feb-9e22-64e96a87dc0a" cx="31.15" cy="70.93" rx="0.51" ry="0.48"/><ellipse class="b378cc8a-ac36-43da-9feb-54126d8f2e38" cx="31.15" cy="70.93" rx="0.51" ry="0.48"/><ellipse class="b7a503b8-1830-4191-8be7-fbd910c0fb73" cx="31.15" cy="70.93" rx="0.5" ry="0.47"/><ellipse class="a1cc1116-a358-4b4d-a23c-d0640256566c" cx="31.15" cy="70.93" rx="0.5" ry="0.47"/><ellipse class="a458edcf-2ec6-4942-bb3b-bf60af440b1e" cx="31.15" cy="70.93" rx="0.49" ry="0.47"/><ellipse class="ea1c588d-77f2-43c9-a4ac-868c58de8e60" cx="31.15" cy="70.93" rx="0.49" ry="0.46"/><ellipse class="b9285e99-7e24-46e4-ad4d-327f151d0d68" cx="31.15" cy="70.93" rx="0.48" ry="0.46"/><ellipse class="e6831a7c-2bd4-4fbb-847e-e1b73570f389" cx="31.15" cy="70.93" rx="0.48" ry="0.45"/><ellipse class="ea6f0a8c-cdd7-46ef-9814-2407026f485b" cx="31.15" cy="70.93" rx="0.47" ry="0.45"/><ellipse class="ffe15ea3-8487-41a9-a7b0-654f0ee52525" cx="31.15" cy="70.93" rx="0.47" ry="0.44"/><ellipse class="b070553f-f96a-4c3c-bf5a-64ee6cc07698" cx="31.15" cy="70.93" rx="0.46" ry="0.44"/><ellipse class="aca3c72e-40c6-40b6-a00d-40a66b21a40e" cx="31.15" cy="70.93" rx="0.46" ry="0.44"/><ellipse class="a0770224-3abd-48b1-b83c-2592de4aca8e" cx="31.15" cy="70.93" rx="0.46" ry="0.43"/><ellipse class="a2b3887c-5731-4917-9803-16a3ba3add7b" cx="31.15" cy="70.93" rx="0.45" ry="0.43"/><ellipse class="b374f810-3516-4449-90a5-e73595cebcd1" cx="31.15" cy="70.93" rx="0.45" ry="0.42"/><ellipse class="b6996abe-caa6-4d3c-809b-3e2187f2715e" cx="31.15" cy="70.93" rx="0.44" ry="0.42"/><ellipse class="a9fe239f-50a7-48b7-8b38-023009590b47" cx="31.15" cy="70.93" rx="0.44" ry="0.41"/><ellipse class="a916181c-35f7-409f-967c-a7e0e91ef907" cx="31.15" cy="70.93" rx="0.43" ry="0.41"/><ellipse class="bb8a59be-9e01-4686-917a-e6bcfe043cba" cx="31.15" cy="70.93" rx="0.43" ry="0.41"/><ellipse class="b7055871-9cd1-46a2-bea4-9cd1a30375f8" cx="31.15" cy="70.93" rx="0.42" ry="0.4"/><ellipse class="acddb677-537d-454f-a338-0bbe491ea768" cx="31.15" cy="70.93" rx="0.42" ry="0.4"/><ellipse class="b171560b-315c-4ed9-82ca-aca8bd0eacc0" cx="31.15" cy="70.93" rx="0.42" ry="0.39"/><ellipse class="f25674f6-e83c-4065-ab8d-903f9a0b948e" cx="31.15" cy="70.93" rx="0.41" ry="0.39"/><ellipse class="ffdd9303-1c8c-4fa9-bf25-1dae4d2dc2dd" cx="31.15" cy="70.93" rx="0.41" ry="0.38"/><ellipse class="b8762262-f5b4-431b-8cbf-c942c0af8f9c" cx="31.15" cy="70.93" rx="0.4" ry="0.38"/><ellipse class="b39faa34-e0f5-41f4-943c-499a8d35b77b" cx="31.15" cy="70.93" rx="0.4" ry="0.38"/><ellipse class="b44ac27e-ae08-4379-a2f4-08e6e0b392b7" cx="31.15" cy="70.93" rx="0.39" ry="0.37"/><ellipse class="b8226f4b-2588-4e17-bb46-c937b9680af4" cx="31.15" cy="70.93" rx="0.39" ry="0.37"/><ellipse class="a2753238-ae1e-4d37-bb87-28edccc3950e" cx="31.15" cy="70.93" rx="0.38" ry="0.36"/><ellipse class="f9921379-7a2f-4a59-8f09-dfe1c55615cc" cx="31.15" cy="70.93" rx="0.38" ry="0.36"/><ellipse class="b3299ca2-7e8b-4e73-bb06-8af2c74fe7c7" cx="31.15" cy="70.93" rx="0.37" ry="0.36"/><ellipse class="f0b30237-7c02-4274-a920-da8543dc3497" cx="31.15" cy="70.93" rx="0.37" ry="0.35"/><ellipse class="a70a4e1d-1791-43d4-b50e-d11d2237219e" cx="31.15" cy="70.93" rx="0.37" ry="0.35"/><ellipse class="b7d5bfba-bb8b-49c7-a6d1-c4f30cd9f110" cx="31.15" cy="70.93" rx="0.36" ry="0.34"/><ellipse class="bde60d46-8ac9-4cf0-8153-a57a84473e53" cx="31.15" cy="70.93" rx="0.36" ry="0.34"/><ellipse class="b25ade13-1f85-44b1-b5ba-f5f3e4378259" cx="31.15" cy="70.93" rx="0.35" ry="0.33"/><ellipse class="e548337c-9f4a-4650-93b9-6fee9638e2d0" cx="31.15" cy="70.93" rx="0.35" ry="0.33"/><ellipse class="b2b53646-dbf4-4f70-83b9-2b247e146337" cx="31.15" cy="70.93" rx="0.34" ry="0.33"/><ellipse class="edf3360d-02ca-4862-8d06-e352b996d7a5" cx="31.15" cy="70.93" rx="0.34" ry="0.32"/><ellipse class="abe64aea-87ac-4a35-b0c7-15bb639ab27b" cx="31.15" cy="70.93" rx="0.33" ry="0.32"/><ellipse class="f1bd8f60-5a18-4924-b68b-c21c3f099672" cx="31.15" cy="70.93" rx="0.33" ry="0.31"/><ellipse class="bcefa8d1-8513-4e49-8306-e4ad520adedf" cx="31.15" cy="70.93" rx="0.33" ry="0.31"/><ellipse class="a43529be-5dce-454f-87b8-700b0825b2b1" cx="31.15" cy="70.93" rx="0.32" ry="0.3"/><ellipse class="ab5c2b64-5d85-4b95-bc0b-3a2942305238" cx="31.15" cy="70.93" rx="0.32" ry="0.3"/><ellipse class="a3246147-98e2-4109-b87f-e1c2c6e4359b" cx="31.15" cy="70.93" rx="0.31" ry="0.3"/><ellipse class="a87dd6f0-369d-4fa0-b1a9-abbd5753ab4e" cx="31.15" cy="70.93" rx="0.31" ry="0.29"/><ellipse class="a8b17bd5-10da-4345-8eaa-18f9aa5bb78b" cx="31.15" cy="70.93" rx="0.3" ry="0.29"/><ellipse class="ba361e4b-6f2a-4f7b-ae1b-ecd5d876dfdb" cx="31.15" cy="70.93" rx="0.3" ry="0.28"/><ellipse class="bc87dade-3668-4c49-a220-0fcd5918ae3d" cx="31.15" cy="70.93" rx="0.29" ry="0.28"/><ellipse class="ae54170f-a92b-48a9-ae7b-b8b9c230526e" cx="31.15" cy="70.93" rx="0.29" ry="0.27"/><ellipse class="a03e0b2a-cd31-495f-a669-75d02b866b6c" cx="31.15" cy="70.93" rx="0.28" ry="0.27"/><ellipse class="b7ffeb48-d35e-4726-9a32-2c052bcdda99" cx="31.15" cy="70.93" rx="0.28" ry="0.27"/><ellipse class="fd1167b0-d772-4109-a425-c0d1402b4903" cx="31.15" cy="70.93" rx="0.28" ry="0.26"/><ellipse class="fc8a05f2-a98b-4d3e-bfa7-2f2210a2a453" cx="31.15" cy="70.93" rx="0.27" ry="0.26"/><ellipse class="aff1f6ce-5eff-4ad4-9e31-2ec2cd914be5" cx="31.15" cy="70.93" rx="0.27" ry="0.25"/><ellipse class="ffb05b84-e639-4c51-b4a4-522370192cd9" cx="31.15" cy="70.93" rx="0.26" ry="0.25"/><ellipse class="b94c6f6f-1c63-4e6c-9804-8fca82fd42ed" cx="31.15" cy="70.93" rx="0.26" ry="0.24"/><ellipse class="adefc4c4-2ac5-4d00-af66-b3ac7b7ce85e" cx="31.15" cy="70.93" rx="0.25" ry="0.24"/><ellipse class="e6881097-3383-43ed-9026-73a317d66e24" cx="31.15" cy="70.93" rx="0.25" ry="0.24"/><ellipse class="a8080420-1e0b-44c7-8bfd-2b000bff9c17" cx="31.15" cy="70.93" rx="0.24" ry="0.23"/><ellipse class="f1c20ee9-270f-44cb-bd72-35cd774ff0d8" cx="31.15" cy="70.93" rx="0.24" ry="0.23"/><ellipse class="aa4543ce-d6fa-456f-ad11-f23b9c487587" cx="31.15" cy="70.93" rx="0.23" ry="0.22"/><ellipse class="b670005f-0920-43ee-9e13-946fe0be6f03" cx="31.15" cy="70.93" rx="0.23" ry="0.22"/><ellipse class="e2970be7-f15a-4844-84f3-bbb76e5bbf0a" cx="31.15" cy="70.93" rx="0.23" ry="0.21"/><ellipse class="a3cff491-efe0-4c91-9b39-caf80bb2efd3" cx="31.15" cy="70.93" rx="0.22" ry="0.21"/><ellipse class="bfa21dc7-88cc-4a56-a1b3-da98cadf6a61" cx="31.15" cy="70.93" rx="0.22" ry="0.21"/><ellipse class="b9be03e8-5d59-464d-a22b-18fa02c8b9d1" cx="31.15" cy="70.93" rx="0.21" ry="0.2"/><ellipse class="ae38f113-f6e8-4195-baf7-2835cdd37310" cx="31.15" cy="70.93" rx="0.21" ry="0.2"/><ellipse class="e6c1f26f-8597-43df-a9f4-ee19781f2764" cx="31.15" cy="70.93" rx="0.2" ry="0.19"/><ellipse class="acd0c2ba-adf7-4975-967a-8f8ee9720dd0" cx="31.15" cy="70.93" rx="0.2" ry="0.19"/><ellipse class="b59fd5bc-971b-4711-8035-e8dce06d34c4" cx="31.15" cy="70.93" rx="0.19" ry="0.18"/><ellipse class="b22e42a9-2507-4778-9a08-ba0bc097928d" cx="31.15" cy="70.93" rx="0.19" ry="0.18"/><ellipse class="a7510e98-e318-4607-b49d-a34245d851d4" cx="31.15" cy="70.93" rx="0.19" ry="0.18"/><ellipse class="af821b0f-62f1-4b4c-ac1e-674030d80a05" cx="31.15" cy="70.93" rx="0.18" ry="0.17"/><ellipse class="bcc17aa2-03ba-4849-833a-61bbcb6cc873" cx="31.15" cy="70.93" rx="0.18" ry="0.17"/><ellipse class="bcc962ab-c536-4e0e-ae15-a02f1c9cf5c3" cx="31.15" cy="70.93" rx="0.17" ry="0.16"/><ellipse class="b6bba1d2-806d-4cc6-aa88-781c041c78ae" cx="31.15" cy="70.93" rx="0.17" ry="0.16"/><ellipse class="a7357bb7-304d-49ad-8104-acc412b2c2f5" cx="31.15" cy="70.93" rx="0.16" ry="0.15"/><ellipse class="bf0e1fc5-d250-4fac-9c99-5da387ca87d4" cx="31.15" cy="70.93" rx="0.16" ry="0.15"/><ellipse class="f4618265-1fbe-4dd6-8682-f55e493def04" cx="31.15" cy="70.93" rx="0.15" ry="0.15"/><ellipse class="ee2f4f4b-2e46-4e8f-9703-30502fa29ab4" cx="31.15" cy="70.93" rx="0.15" ry="0.14"/><ellipse class="e334fbb3-22e4-4257-a796-6d49f2007827" cx="31.15" cy="70.93" rx="0.14" ry="0.14"/><ellipse class="a4f3acee-c7cf-4ade-97c0-db9849affe01" cx="31.15" cy="70.93" rx="0.14" ry="0.13"/><ellipse class="f92af3f6-7887-4b79-b095-99a478ab5be1" cx="31.15" cy="70.93" rx="0.14" ry="0.13"/><ellipse class="ee219931-0668-42c0-af1f-068ba4c706ca" cx="31.15" cy="70.93" rx="0.13" ry="0.12"/><ellipse class="b14ff5bb-f94d-4ed1-a702-8a609521294c" cx="31.15" cy="70.93" rx="0.13" ry="0.12"/><ellipse class="b5d502ca-3dc2-4286-8cd4-eb9c81869c61" cx="31.15" cy="70.93" rx="0.12" ry="0.12"/><ellipse class="e1adfe57-0611-4456-a0a7-0cc161e1e655" cx="31.15" cy="70.93" rx="0.12" ry="0.11"/><ellipse class="ffc58411-cdc2-40c6-8c8a-3a243417ea60" cx="31.15" cy="70.93" rx="0.11" ry="0.11"/><ellipse class="edd4571f-a500-4705-9317-a3ffccadd33a" cx="31.15" cy="70.93" rx="0.11" ry="0.1"/><ellipse class="bd9aa170-778b-47a3-af57-6751164ef83f" cx="31.15" cy="70.93" rx="0.1" ry="0.1"/><ellipse class="b7766aaf-e8f0-42a2-9460-e0f7069999a8" cx="31.15" cy="70.93" rx="0.1" ry="0.09"/><ellipse class="afd0b1b8-7ed1-4b38-bf3a-aff79770ea0e" cx="31.15" cy="70.93" rx="0.09" ry="0.09"/><ellipse class="a7075669-7624-4327-8469-12986b56b204" cx="31.15" cy="70.93" rx="0.09" ry="0.09"/><ellipse class="aeb81bc6-594d-461a-937a-1fa14d7ffbec" cx="31.15" cy="70.93" rx="0.09" ry="0.08"/><ellipse class="e865f4d6-46b3-40ea-ac3a-5163474aa13e" cx="31.15" cy="70.93" rx="0.08" ry="0.08"/><ellipse class="f40b6499-7a25-4be5-8d4a-ef91f18de78e" cx="31.15" cy="70.93" rx="0.08" ry="0.07"/><circle class="a7c0a843-5c61-4b37-a97b-983ce7f54d4b" cx="31.15" cy="70.93" r="0.07"/><circle class="ea057f20-8d1f-4645-ae6b-bd6109ec5aec" cx="31.15" cy="70.93" r="0.07"/><circle class="afff4d48-5768-43e7-8242-ff39c0de2a0d" cx="31.15" cy="70.93" r="0.06"/><circle class="aa264ae6-e1c2-440d-bebb-889d122e122f" cx="31.15" cy="70.93" r="0.06"/><circle class="bc414278-33bf-4c34-aa27-5d0d33995d11" cx="31.15" cy="70.93" r="0.05"/><circle class="b1f47213-c7d3-457f-8c39-dff53652d29b" cx="31.15" cy="70.93" r="0.05"/><circle class="ff549b28-0204-45ba-a350-8602f8668c8f" cx="31.15" cy="70.93" r="0.05"/><circle class="a8b5ebc7-ebca-4cb6-904a-e69392add587" cx="31.15" cy="70.93" r="0.04"/><circle class="a873b486-1e97-4960-bec7-b23c153a963d" cx="31.15" cy="70.93" r="0.04"/><circle class="b03b12d1-fe56-40a7-967f-63966a28be3c" cx="31.15" cy="70.93" r="0.03"/><path class="b15a95cb-1976-4a61-ae26-ec3c02286b9a" d="M31.17,70.93a0,0,0,0,0,0,0s0,0,0,0a0,0,0,0,0,0,0S31.17,70.94,31.17,70.93Z"/><path class="ea69a7b8-a7af-42c9-93cc-3ba1b475031e" d="M31.17,70.93a0,0,0,0,0,0,0s0,0,0,0,0,0,0,0A0,0,0,0,0,31.17,70.93Z"/><circle class="bcebc82b-1a5d-4893-8008-7d3a654377a3" cx="31.15" cy="70.93" r="0.02"/><circle class="b65dc295-4d10-4fb8-b0cd-330c34f43b94" cx="31.15" cy="70.93" r="0.01"/><path class="e417ca50-6e80-438d-918a-85220e0ea06f" d="M31.15,70.93h0a0,0,0,0,0,0,0h0Z"/><circle class="a5ca1e13-f15b-4cee-900d-0b736ccb5029" cx="31.15" cy="70.93"/></g><path d="M31.72,71.2a.61.61,0,1,1,.64-.6A.62.62,0,0,1,31.72,71.2Zm0-1.12a.51.51,0,1,0,0,1,.52.52,0,0,0,.54-.5A.53.53,0,0,0,31.72,70.08Z"/></g><g class="e0060e64-b849-4de4-a4de-74802e8cd9ec"><g class="a13b7d5e-33a1-4856-b717-8d36928a8df4"><rect class="a7b70046-3180-475e-9493-00750c85a353" x="25.9" y="70.04" width="1.21" height="1.09"/><ellipse class="a7b70046-3180-475e-9493-00750c85a353" cx="25.31" cy="70.93" rx="0.74" ry="0.68"/><ellipse class="f2566e83-a2ba-486e-bb09-c4e1d4e54800" cx="25.31" cy="70.93" rx="0.74" ry="0.67"/><ellipse class="b07c7de2-4097-4bea-a502-505829dee41c" cx="25.31" cy="70.93" rx="0.73" ry="0.67"/><ellipse class="fd582ec1-b7ab-43bd-a00e-da499c87acf3" cx="25.31" cy="70.93" rx="0.73" ry="0.66"/><ellipse class="b222dc8e-977e-47f1-97b9-8444d05d0977" cx="25.31" cy="70.93" rx="0.72" ry="0.66"/><ellipse class="b9b56175-5961-413b-8ba4-983ee17bef4d" cx="25.31" cy="70.93" rx="0.72" ry="0.65"/><ellipse class="a4ecf917-624a-478f-b425-559117da9f40" cx="25.31" cy="70.93" rx="0.71" ry="0.65"/><ellipse class="b4636279-7838-495c-bd90-9f319dca09c6" cx="25.31" cy="70.93" rx="0.71" ry="0.65"/><ellipse class="efdb0b56-971a-4b20-bb1c-0f5d649c312a" cx="25.31" cy="70.93" rx="0.7" ry="0.64"/><ellipse class="b8a4ea17-5979-4205-be83-b6eaadcc89b0" cx="25.31" cy="70.93" rx="0.7" ry="0.64"/><ellipse class="af180874-4d20-4b9b-925c-69e1aab67aba" cx="25.31" cy="70.93" rx="0.7" ry="0.63"/><ellipse class="e9827bfa-0717-4fe1-909b-b9a6a298cd91" cx="25.31" cy="70.93" rx="0.69" ry="0.63"/><ellipse class="a4864140-2dcf-4978-8519-d9ce71da066d" cx="25.31" cy="70.93" rx="0.69" ry="0.62"/><ellipse class="a5025eef-24ab-417c-be77-f9025fa5b87c" cx="25.31" cy="70.93" rx="0.68" ry="0.62"/><ellipse class="a42bc43c-ec1e-4eab-a5b0-92b7c35f956d" cx="25.31" cy="70.93" rx="0.68" ry="0.62"/><ellipse class="f32eee41-e215-45cd-a51d-bcda500beea8" cx="25.31" cy="70.93" rx="0.67" ry="0.61"/><ellipse class="b38d60ea-518b-4fd7-b388-8db491842ff4" cx="25.31" cy="70.93" rx="0.67" ry="0.61"/><ellipse class="f59cc78d-a180-47a0-a0fa-5edbb2649255" cx="25.31" cy="70.93" rx="0.66" ry="0.6"/><ellipse class="a04bca53-f873-4627-b939-d79d8eda8f07" cx="25.31" cy="70.93" rx="0.66" ry="0.6"/><ellipse class="f333dfc9-a775-4b7e-ba8c-204ad033a58d" cx="25.31" cy="70.93" rx="0.65" ry="0.59"/><ellipse class="e8ff21d0-b0f6-4ac0-aa09-ce91f4985e4a" cx="25.31" cy="70.93" rx="0.65" ry="0.59"/><ellipse class="a2e7dfa0-44ad-4593-851c-73e3f89e7a60" cx="25.31" cy="70.93" rx="0.64" ry="0.59"/><ellipse class="e4e6559a-9b7f-4657-8e2f-d3db97f73924" cx="25.31" cy="70.93" rx="0.64" ry="0.58"/><ellipse class="b13d6901-9f28-48d2-8ed1-820654a34b2d" cx="25.31" cy="70.93" rx="0.63" ry="0.58"/><ellipse class="b5ffb22a-9abc-400c-8b90-975e40a40567" cx="25.31" cy="70.93" rx="0.63" ry="0.57"/><ellipse class="aa094215-1ea0-4fd9-a29d-134e9c5985f6" cx="25.31" cy="70.93" rx="0.62" ry="0.57"/><ellipse class="ec1ede8a-7128-4dc9-9ff2-da5362802c14" cx="25.31" cy="70.93" rx="0.62" ry="0.56"/><ellipse class="b16a2bc5-48a8-414f-83df-1516f4b84774" cx="25.31" cy="70.93" rx="0.62" ry="0.56"/><ellipse class="bce93c8e-2950-4e2f-834b-accf513431ad" cx="25.31" cy="70.93" rx="0.61" ry="0.56"/><ellipse class="beab2d58-431c-4bd5-a579-549d33fde76d" cx="25.31" cy="70.93" rx="0.61" ry="0.55"/><ellipse class="f19fdaed-6779-472e-b45c-6e1223559cf8" cx="25.31" cy="70.93" rx="0.6" ry="0.55"/><ellipse class="b7cf4353-d78b-4556-9f42-eec2b108eaae" cx="25.31" cy="70.93" rx="0.6" ry="0.54"/><ellipse class="b5587006-5c3b-426c-acc6-c6103b15e5af" cx="25.31" cy="70.93" rx="0.59" ry="0.54"/><ellipse class="b1bf9738-982e-4110-a7b2-d70570137a49" cx="25.31" cy="70.93" rx="0.59" ry="0.53"/><ellipse class="a576c473-8779-41ab-bdce-804a3ded1962" cx="25.31" cy="70.93" rx="0.58" ry="0.53"/><ellipse class="a9468185-b704-4694-8302-d63b3bebf3e4" cx="25.31" cy="70.93" rx="0.58" ry="0.53"/><ellipse class="ac447f20-7cd0-4613-bbe0-9242253d34d4" cx="25.31" cy="70.93" rx="0.57" ry="0.52"/><ellipse class="a4712313-133a-4647-a416-de597a74bb83" cx="25.31" cy="70.93" rx="0.57" ry="0.52"/><ellipse class="aa63b933-7137-4894-91e2-21a9734f7f40" cx="25.31" cy="70.93" rx="0.56" ry="0.51"/><ellipse class="f838712c-660b-4c88-9b8a-ac6507eb9fba" cx="25.31" cy="70.93" rx="0.56" ry="0.51"/><ellipse class="e4a7b973-ec37-428a-a569-7a44fd8c26f1" cx="25.31" cy="70.93" rx="0.55" ry="0.5"/><ellipse class="b56107af-cf6e-433b-96eb-d1da60426d90" cx="25.31" cy="70.93" rx="0.55" ry="0.5"/><ellipse class="fc7966a2-e485-4c70-9186-7c580ca2667f" cx="25.31" cy="70.93" rx="0.54" ry="0.5"/><ellipse class="b869a2eb-4229-4d44-9732-576460eaf38f" cx="25.31" cy="70.93" rx="0.54" ry="0.49"/><ellipse class="a7478169-ade2-4e36-ac7e-df536a752752" cx="25.31" cy="70.93" rx="0.54" ry="0.49"/><ellipse class="fddead59-97e0-4feb-9e22-64e96a87dc0a" cx="25.31" cy="70.93" rx="0.53" ry="0.48"/><ellipse class="b378cc8a-ac36-43da-9feb-54126d8f2e38" cx="25.31" cy="70.93" rx="0.53" ry="0.48"/><ellipse class="b7a503b8-1830-4191-8be7-fbd910c0fb73" cx="25.31" cy="70.93" rx="0.52" ry="0.47"/><ellipse class="a1cc1116-a358-4b4d-a23c-d0640256566c" cx="25.31" cy="70.93" rx="0.52" ry="0.47"/><ellipse class="a458edcf-2ec6-4942-bb3b-bf60af440b1e" cx="25.31" cy="70.93" rx="0.51" ry="0.47"/><ellipse class="ea1c588d-77f2-43c9-a4ac-868c58de8e60" cx="25.31" cy="70.93" rx="0.51" ry="0.46"/><ellipse class="b9285e99-7e24-46e4-ad4d-327f151d0d68" cx="25.31" cy="70.93" rx="0.5" ry="0.46"/><ellipse class="e6831a7c-2bd4-4fbb-847e-e1b73570f389" cx="25.31" cy="70.93" rx="0.5" ry="0.45"/><ellipse class="ea6f0a8c-cdd7-46ef-9814-2407026f485b" cx="25.31" cy="70.93" rx="0.49" ry="0.45"/><ellipse class="ffe15ea3-8487-41a9-a7b0-654f0ee52525" cx="25.31" cy="70.93" rx="0.49" ry="0.44"/><ellipse class="b070553f-f96a-4c3c-bf5a-64ee6cc07698" cx="25.31" cy="70.93" rx="0.48" ry="0.44"/><ellipse class="aca3c72e-40c6-40b6-a00d-40a66b21a40e" cx="25.31" cy="70.93" rx="0.48" ry="0.44"/><ellipse class="a0770224-3abd-48b1-b83c-2592de4aca8e" cx="25.31" cy="70.93" rx="0.47" ry="0.43"/><ellipse class="a2b3887c-5731-4917-9803-16a3ba3add7b" cx="25.31" cy="70.93" rx="0.47" ry="0.43"/><ellipse class="b374f810-3516-4449-90a5-e73595cebcd1" cx="25.31" cy="70.93" rx="0.47" ry="0.42"/><ellipse class="b6996abe-caa6-4d3c-809b-3e2187f2715e" cx="25.31" cy="70.93" rx="0.46" ry="0.42"/><ellipse class="a9fe239f-50a7-48b7-8b38-023009590b47" cx="25.31" cy="70.93" rx="0.46" ry="0.41"/><ellipse class="a916181c-35f7-409f-967c-a7e0e91ef907" cx="25.31" cy="70.93" rx="0.45" ry="0.41"/><ellipse class="bb8a59be-9e01-4686-917a-e6bcfe043cba" cx="25.31" cy="70.93" rx="0.45" ry="0.41"/><ellipse class="b7055871-9cd1-46a2-bea4-9cd1a30375f8" cx="25.31" cy="70.93" rx="0.44" ry="0.4"/><ellipse class="acddb677-537d-454f-a338-0bbe491ea768" cx="25.31" cy="70.93" rx="0.44" ry="0.4"/><ellipse class="b171560b-315c-4ed9-82ca-aca8bd0eacc0" cx="25.31" cy="70.93" rx="0.43" ry="0.39"/><ellipse class="f25674f6-e83c-4065-ab8d-903f9a0b948e" cx="25.31" cy="70.93" rx="0.43" ry="0.39"/><ellipse class="ffdd9303-1c8c-4fa9-bf25-1dae4d2dc2dd" cx="25.31" cy="70.93" rx="0.42" ry="0.38"/><ellipse class="b8762262-f5b4-431b-8cbf-c942c0af8f9c" cx="25.31" cy="70.93" rx="0.42" ry="0.38"/><ellipse class="b39faa34-e0f5-41f4-943c-499a8d35b77b" cx="25.31" cy="70.93" rx="0.41" ry="0.38"/><ellipse class="b44ac27e-ae08-4379-a2f4-08e6e0b392b7" cx="25.31" cy="70.93" rx="0.41" ry="0.37"/><ellipse class="b8226f4b-2588-4e17-bb46-c937b9680af4" cx="25.31" cy="70.93" rx="0.4" ry="0.37"/><ellipse class="a2753238-ae1e-4d37-bb87-28edccc3950e" cx="25.31" cy="70.93" rx="0.4" ry="0.36"/><ellipse class="f9921379-7a2f-4a59-8f09-dfe1c55615cc" cx="25.31" cy="70.93" rx="0.39" ry="0.36"/><ellipse class="b3299ca2-7e8b-4e73-bb06-8af2c74fe7c7" cx="25.31" cy="70.93" rx="0.39" ry="0.36"/><ellipse class="f0b30237-7c02-4274-a920-da8543dc3497" cx="25.31" cy="70.93" rx="0.39" ry="0.35"/><ellipse class="a70a4e1d-1791-43d4-b50e-d11d2237219e" cx="25.31" cy="70.93" rx="0.38" ry="0.35"/><ellipse class="b7d5bfba-bb8b-49c7-a6d1-c4f30cd9f110" cx="25.31" cy="70.93" rx="0.38" ry="0.34"/><ellipse class="bde60d46-8ac9-4cf0-8153-a57a84473e53" cx="25.31" cy="70.93" rx="0.37" ry="0.34"/><ellipse class="b25ade13-1f85-44b1-b5ba-f5f3e4378259" cx="25.31" cy="70.93" rx="0.37" ry="0.33"/><ellipse class="e548337c-9f4a-4650-93b9-6fee9638e2d0" cx="25.31" cy="70.93" rx="0.36" ry="0.33"/><ellipse class="b2b53646-dbf4-4f70-83b9-2b247e146337" cx="25.31" cy="70.93" rx="0.36" ry="0.33"/><ellipse class="edf3360d-02ca-4862-8d06-e352b996d7a5" cx="25.31" cy="70.93" rx="0.35" ry="0.32"/><ellipse class="abe64aea-87ac-4a35-b0c7-15bb639ab27b" cx="25.31" cy="70.93" rx="0.35" ry="0.32"/><ellipse class="f1bd8f60-5a18-4924-b68b-c21c3f099672" cx="25.31" cy="70.93" rx="0.34" ry="0.31"/><ellipse class="bcefa8d1-8513-4e49-8306-e4ad520adedf" cx="25.31" cy="70.93" rx="0.34" ry="0.31"/><ellipse class="a43529be-5dce-454f-87b8-700b0825b2b1" cx="25.31" cy="70.93" rx="0.33" ry="0.3"/><ellipse class="ab5c2b64-5d85-4b95-bc0b-3a2942305238" cx="25.31" cy="70.93" rx="0.33" ry="0.3"/><ellipse class="a3246147-98e2-4109-b87f-e1c2c6e4359b" cx="25.31" cy="70.93" rx="0.32" ry="0.3"/><ellipse class="a87dd6f0-369d-4fa0-b1a9-abbd5753ab4e" cx="25.31" cy="70.93" rx="0.32" ry="0.29"/><ellipse class="a8b17bd5-10da-4345-8eaa-18f9aa5bb78b" cx="25.31" cy="70.93" rx="0.31" ry="0.29"/><ellipse class="ba361e4b-6f2a-4f7b-ae1b-ecd5d876dfdb" cx="25.31" cy="70.93" rx="0.31" ry="0.28"/><ellipse class="bc87dade-3668-4c49-a220-0fcd5918ae3d" cx="25.31" cy="70.93" rx="0.31" ry="0.28"/><ellipse class="ae54170f-a92b-48a9-ae7b-b8b9c230526e" cx="25.31" cy="70.93" rx="0.3" ry="0.27"/><ellipse class="a03e0b2a-cd31-495f-a669-75d02b866b6c" cx="25.31" cy="70.93" rx="0.3" ry="0.27"/><ellipse class="b7ffeb48-d35e-4726-9a32-2c052bcdda99" cx="25.31" cy="70.93" rx="0.29" ry="0.27"/><ellipse class="fd1167b0-d772-4109-a425-c0d1402b4903" cx="25.31" cy="70.93" rx="0.29" ry="0.26"/><ellipse class="fc8a05f2-a98b-4d3e-bfa7-2f2210a2a453" cx="25.31" cy="70.93" rx="0.28" ry="0.26"/><ellipse class="aff1f6ce-5eff-4ad4-9e31-2ec2cd914be5" cx="25.31" cy="70.93" rx="0.28" ry="0.25"/><ellipse class="ffb05b84-e639-4c51-b4a4-522370192cd9" cx="25.31" cy="70.93" rx="0.27" ry="0.25"/><ellipse class="b94c6f6f-1c63-4e6c-9804-8fca82fd42ed" cx="25.31" cy="70.93" rx="0.27" ry="0.24"/><ellipse class="adefc4c4-2ac5-4d00-af66-b3ac7b7ce85e" cx="25.31" cy="70.93" rx="0.26" ry="0.24"/><ellipse class="e6881097-3383-43ed-9026-73a317d66e24" cx="25.31" cy="70.93" rx="0.26" ry="0.24"/><ellipse class="a8080420-1e0b-44c7-8bfd-2b000bff9c17" cx="25.31" cy="70.93" rx="0.25" ry="0.23"/><ellipse class="f1c20ee9-270f-44cb-bd72-35cd774ff0d8" cx="25.31" cy="70.93" rx="0.25" ry="0.23"/><ellipse class="aa4543ce-d6fa-456f-ad11-f23b9c487587" cx="25.31" cy="70.93" rx="0.24" ry="0.22"/><ellipse class="b670005f-0920-43ee-9e13-946fe0be6f03" cx="25.31" cy="70.93" rx="0.24" ry="0.22"/><ellipse class="e2970be7-f15a-4844-84f3-bbb76e5bbf0a" cx="25.31" cy="70.93" rx="0.23" ry="0.21"/><ellipse class="a3cff491-efe0-4c91-9b39-caf80bb2efd3" cx="25.31" cy="70.93" rx="0.23" ry="0.21"/><ellipse class="bfa21dc7-88cc-4a56-a1b3-da98cadf6a61" cx="25.31" cy="70.93" rx="0.23" ry="0.21"/><ellipse class="b9be03e8-5d59-464d-a22b-18fa02c8b9d1" cx="25.31" cy="70.93" rx="0.22" ry="0.2"/><ellipse class="ae38f113-f6e8-4195-baf7-2835cdd37310" cx="25.31" cy="70.93" rx="0.22" ry="0.2"/><ellipse class="e6c1f26f-8597-43df-a9f4-ee19781f2764" cx="25.31" cy="70.93" rx="0.21" ry="0.19"/><ellipse class="acd0c2ba-adf7-4975-967a-8f8ee9720dd0" cx="25.31" cy="70.93" rx="0.21" ry="0.19"/><ellipse class="b59fd5bc-971b-4711-8035-e8dce06d34c4" cx="25.31" cy="70.93" rx="0.2" ry="0.18"/><ellipse class="b22e42a9-2507-4778-9a08-ba0bc097928d" cx="25.31" cy="70.93" rx="0.2" ry="0.18"/><ellipse class="a7510e98-e318-4607-b49d-a34245d851d4" cx="25.31" cy="70.93" rx="0.19" ry="0.18"/><ellipse class="af821b0f-62f1-4b4c-ac1e-674030d80a05" cx="25.31" cy="70.93" rx="0.19" ry="0.17"/><ellipse class="bcc17aa2-03ba-4849-833a-61bbcb6cc873" cx="25.31" cy="70.93" rx="0.18" ry="0.17"/><ellipse class="bcc962ab-c536-4e0e-ae15-a02f1c9cf5c3" cx="25.31" cy="70.93" rx="0.18" ry="0.16"/><ellipse class="b6bba1d2-806d-4cc6-aa88-781c041c78ae" cx="25.31" cy="70.93" rx="0.17" ry="0.16"/><ellipse class="a7357bb7-304d-49ad-8104-acc412b2c2f5" cx="25.31" cy="70.93" rx="0.17" ry="0.15"/><ellipse class="bf0e1fc5-d250-4fac-9c99-5da387ca87d4" cx="25.31" cy="70.93" rx="0.16" ry="0.15"/><ellipse class="f4618265-1fbe-4dd6-8682-f55e493def04" cx="25.31" cy="70.93" rx="0.16" ry="0.15"/><ellipse class="ee2f4f4b-2e46-4e8f-9703-30502fa29ab4" cx="25.31" cy="70.93" rx="0.16" ry="0.14"/><ellipse class="e334fbb3-22e4-4257-a796-6d49f2007827" cx="25.31" cy="70.93" rx="0.15" ry="0.14"/><ellipse class="a4f3acee-c7cf-4ade-97c0-db9849affe01" cx="25.31" cy="70.93" rx="0.15" ry="0.13"/><ellipse class="f92af3f6-7887-4b79-b095-99a478ab5be1" cx="25.31" cy="70.93" rx="0.14" ry="0.13"/><ellipse class="ee219931-0668-42c0-af1f-068ba4c706ca" cx="25.31" cy="70.93" rx="0.14" ry="0.12"/><ellipse class="b14ff5bb-f94d-4ed1-a702-8a609521294c" cx="25.31" cy="70.93" rx="0.13" ry="0.12"/><ellipse class="b5d502ca-3dc2-4286-8cd4-eb9c81869c61" cx="25.31" cy="70.93" rx="0.13" ry="0.12"/><ellipse class="e1adfe57-0611-4456-a0a7-0cc161e1e655" cx="25.31" cy="70.93" rx="0.12" ry="0.11"/><ellipse class="ffc58411-cdc2-40c6-8c8a-3a243417ea60" cx="25.31" cy="70.93" rx="0.12" ry="0.11"/><ellipse class="edd4571f-a500-4705-9317-a3ffccadd33a" cx="25.31" cy="70.93" rx="0.11" ry="0.1"/><ellipse class="bd9aa170-778b-47a3-af57-6751164ef83f" cx="25.31" cy="70.93" rx="0.11" ry="0.1"/><ellipse class="b7766aaf-e8f0-42a2-9460-e0f7069999a8" cx="25.31" cy="70.93" rx="0.1" ry="0.09"/><ellipse class="afd0b1b8-7ed1-4b38-bf3a-aff79770ea0e" cx="25.31" cy="70.93" rx="0.1" ry="0.09"/><ellipse class="a7075669-7624-4327-8469-12986b56b204" cx="25.31" cy="70.93" rx="0.09" ry="0.09"/><ellipse class="aeb81bc6-594d-461a-937a-1fa14d7ffbec" cx="25.31" cy="70.93" rx="0.09" ry="0.08"/><ellipse class="e865f4d6-46b3-40ea-ac3a-5163474aa13e" cx="25.31" cy="70.93" rx="0.08" ry="0.08"/><ellipse class="f40b6499-7a25-4be5-8d4a-ef91f18de78e" cx="25.31" cy="70.93" rx="0.08" ry="0.07"/><ellipse class="a7c0a843-5c61-4b37-a97b-983ce7f54d4b" cx="25.31" cy="70.93" rx="0.08" ry="0.07"/><ellipse class="ea057f20-8d1f-4645-ae6b-bd6109ec5aec" cx="25.31" cy="70.93" rx="0.07" ry="0.06"/><ellipse class="afff4d48-5768-43e7-8242-ff39c0de2a0d" cx="25.31" cy="70.93" rx="0.07" ry="0.06"/><ellipse class="aa264ae6-e1c2-440d-bebb-889d122e122f" cx="25.31" cy="70.93" rx="0.06" ry="0.06"/><ellipse class="bc414278-33bf-4c34-aa27-5d0d33995d11" cx="25.31" cy="70.93" rx="0.06" ry="0.05"/><ellipse class="b1f47213-c7d3-457f-8c39-dff53652d29b" cx="25.31" cy="70.93" rx="0.05" ry="0.05"/><ellipse class="ff549b28-0204-45ba-a350-8602f8668c8f" cx="25.31" cy="70.93" rx="0.05" ry="0.04"/><circle class="a8b5ebc7-ebca-4cb6-904a-e69392add587" cx="25.31" cy="70.93" r="0.04"/><path class="a873b486-1e97-4960-bec7-b23c153a963d" d="M25.35,70.93s0,0,0,0,0,0,0,0a0,0,0,1,0,.08,0Z"/><circle class="b03b12d1-fe56-40a7-967f-63966a28be3c" cx="25.31" cy="70.93" r="0.03"/><path class="b15a95cb-1976-4a61-ae26-ec3c02286b9a" d="M25.34,70.93s0,0,0,0,0,0,0,0a0,0,0,1,0,.06,0Z"/><path class="ea69a7b8-a7af-42c9-93cc-3ba1b475031e" d="M25.33,70.93a0,0,0,0,0,0,0,0,0,0,0,0,0,0l0,0A0,0,0,0,0,25.33,70.93Z"/><circle class="bcebc82b-1a5d-4893-8008-7d3a654377a3" cx="25.31" cy="70.93" r="0.02"/><path class="b65dc295-4d10-4fb8-b0cd-330c34f43b94" d="M25.32,70.93s0,0,0,0,0,0,0,0h0Z"/><path class="e417ca50-6e80-438d-918a-85220e0ea06f" d="M25.32,70.93a0,0,0,0,0,0,0h0Z"/><circle class="a5ca1e13-f15b-4cee-900d-0b736ccb5029" cx="25.31" cy="70.93"/></g><path d="M26.51,71.18a.63.63,0,0,1-.66-.59h0a.63.63,0,0,1,.66-.6.6.6,0,1,1,0,1.19ZM26,70.59a.53.53,0,0,0,.56.49.53.53,0,0,0,.55-.49.52.52,0,0,0-.55-.5A.53.53,0,0,0,26,70.59Z"/></g></g></g><g id="edacefef-4762-42ef-b093-2ab2beb3541e" data-name="nariz"><path class="aaae8350-63e1-4591-b722-a3f78cdab0fe" d="M28.8,69.9a3,3,0,0,1,.05-1,5.34,5.34,0,0,1,.48-.87s.42.7.5.88a4.69,4.69,0,0,1,.27,1c0,.07-.48.59-.74.57S28.84,70,28.8,69.9Z"/><path d="M29.36,70.47c.26,0,.65-.55.66-.59l.16.05c0,.1-.56.56-.82.54Z"/><path d="M30,69.88a6.65,6.65,0,0,0-.27-.89l.16-.07a4.49,4.49,0,0,1,.27,1Z"/><polygon points="30.17 69.98 30 69.93 30.03 69.83 30.2 69.88 30.17 69.98"/><path d="M29.74,69c-.07-.17-.42-.91-.42-.91h0a8.43,8.43,0,0,1,.58.85Z"/><polygon points="29.76 69.04 29.72 68.94 29.88 68.87 29.92 68.97 29.76 69.04"/></g><g id="aee43ccc-feb5-4931-aa6f-46cb96e1e47b" data-name="cejas"><path d="M30.63,72.54s1,.17,1.39.19V73a7.8,7.8,0,0,1-1.4-.34Z"/><path d="M32,72.73c.36,0,1.25-.07,1.25-.07v.11A7.74,7.74,0,0,1,32,73Z"/><polygon points="32.06 72.96 31.96 72.96 31.97 72.72 32.07 72.73 32.06 72.96"/><path d="M25.24,72.66s1,.07,1.35.06v.22a8.42,8.42,0,0,1-1.37-.2Z"/><path d="M26.59,72.72c.43,0,1.47-.2,1.47-.2l0,.11a9.7,9.7,0,0,1-1.48.31Z"/><rect x="26.54" y="72.72" width="0.1" height="0.22" transform="translate(-3.49 1.37) rotate(-2.77)"/></g><g id="e359a6a8-7792-4cd5-9663-d52b80f3ff26" data-name="pelo int"><path class="aa69f8c1-3c4e-4ca3-984a-926b4e7e291b" d="M26.13,78V76.34a1.76,1.76,0,0,1-1-.27c-.73-.55-.72-1.87-.92-2.91a24.36,24.36,0,0,1-.19-3,13.57,13.57,0,0,0-.33-1.91,8.85,8.85,0,0,1,.07-3,27.43,27.43,0,0,0-3,2.41c-.23.24-.4.37-.36.79a25,25,0,0,1,0,2.74l.3.66a13.22,13.22,0,0,1,1,1.68c.16.26.37.49.52.76a5.48,5.48,0,0,1,.44,1.07l.1.27a6.32,6.32,0,0,1,1,1.13q.12.17.24.36c.43.19.85.37,1.26.58l.1,0C25.65,77.87,25.89,77.93,26.13,78Z"/><path d="M26.13,78.07h0a4.16,4.16,0,0,0-.5-.16l-.21-.06,0,0a.05.05,0,0,1,0,0l-.89-.4L24,77.23s0,0,0,0-.16-.25-.24-.36a7,7,0,0,0-1-1.13,0,0,0,0,1,0,0,1.12,1.12,0,0,0-.05-.13s0-.08-.05-.13v0a5.75,5.75,0,0,0-.42-1A4,4,0,0,0,22,74a4,4,0,0,1-.23-.34c-.09-.15-.18-.32-.28-.5a8.36,8.36,0,0,0-.72-1.17l-.16-.34-.15-.33v-.4a23.24,23.24,0,0,0-.05-2.36.81.81,0,0,1,.31-.76l.06-.07a30.65,30.65,0,0,1,3.05-2.42h0a.08.08,0,0,1,0,.06c0,.16,0,.36-.06.57a6.05,6.05,0,0,0,0,2.4A11.86,11.86,0,0,1,24.08,70c0,.1,0,.18,0,.2a2.57,2.57,0,0,1,0,.36,19,19,0,0,0,.18,2.59c.05.23.08.48.11.72A3.24,3.24,0,0,0,25.19,76a1.61,1.61,0,0,0,.94.26.05.05,0,0,1,.05,0V78a.05.05,0,0,1,0,0Zm-2-.93.36.16.89.41,0,0,0,0,.21.06a3.73,3.73,0,0,1,.44.14V76.39a1.75,1.75,0,0,1-.95-.28,3.26,3.26,0,0,1-.83-2.22c0-.24-.06-.49-.11-.72A19.31,19.31,0,0,1,24,70.56a2.48,2.48,0,0,0,0-.34s0-.08,0-.2a9.65,9.65,0,0,0-.3-1.7,6.31,6.31,0,0,1,0-2.45c0-.18,0-.35.05-.5-.4.22-2.62,2.09-2.91,2.38l-.06.07a.68.68,0,0,0-.29.68,20.88,20.88,0,0,1,.05,2.37v.37l.14.32c.05.11.1.22.16.33a7.92,7.92,0,0,1,.72,1.18c.09.17.18.34.27.49a4,4,0,0,0,.24.33,4.78,4.78,0,0,1,.29.44,4.93,4.93,0,0,1,.42,1l0,0a1.12,1.12,0,0,0,0,.13l0,.12a6.56,6.56,0,0,1,1,1.13C23.94,76.9,24,77,24.1,77.14Z"/></g><g id="b11d78c8-a52c-4207-800b-9c8ee3740bb0" data-name="oreja Izq"><path class="aaae8350-63e1-4591-b722-a3f78cdab0fe" d="M24.16,68a1.18,1.18,0,0,0-.62-.22,1.12,1.12,0,0,0-.76.24,1.13,1.13,0,0,0,.32,1.4.83.83,0,0,0,.64,0,1.23,1.23,0,0,0,.5-.51A1.46,1.46,0,0,0,24.16,68Z"/><path d="M24.26,68.88a1.51,1.51,0,0,1-.5.57l-.05-.13a1.17,1.17,0,0,0,.5-.46Z"/><path d="M23.76,69.45a1.11,1.11,0,0,1-.7,0l.06-.12a.86.86,0,0,0,.59,0Z"/><polygon points="23.71 69.47 23.66 69.34 23.75 69.3 23.81 69.42 23.71 69.47"/><path d="M23.07,69.48a1.19,1.19,0,0,1-.44-.7l.13,0a.94.94,0,0,0,.37.6Z"/><rect x="23.04" y="69.36" width="0.13" height="0.1" transform="translate(-48.79 55.9) rotate(-60.95)"/><path d="M22.62,68.78a1.09,1.09,0,0,1,.11-.81l.1.08a.92.92,0,0,0-.08.7Z"/><polygon points="22.63 68.83 22.61 68.73 22.74 68.7 22.76 68.8 22.63 68.83"/><path d="M22.73,68a1.15,1.15,0,0,1,.81-.26v.13a1,1,0,0,0-.71.21Z"/><polygon points="22.8 68.09 22.7 68.01 22.76 67.93 22.86 68.01 22.8 68.09"/><path d="M23.54,67.71a1.14,1.14,0,0,1,.64.27l0,0a1,1,0,0,0-.6-.18Z"/><rect x="23.49" y="67.7" width="0.1" height="0.13"/></g></g><g id="a891cd69-aa11-4aee-967e-55810277815b" data-name="mechon"><path class="aa69f8c1-3c4e-4ca3-984a-926b4e7e291b" d="M32.47,77.83a2.36,2.36,0,0,1-.37,1.09,5.21,5.21,0,0,1-2.93,1.92,8.88,8.88,0,0,1-5.82-1.27,10.81,10.81,0,0,1-4.12-5.22,11.45,11.45,0,0,1-.13-5.73,10.34,10.34,0,0,1,2.16-4.85,7,7,0,0,1,1.67-1.14A11,11,0,0,0,22.39,65a10.67,10.67,0,0,0,.63,3.8,12.77,12.77,0,0,0,2.25,4.07,10.7,10.7,0,0,0,4.11,2.7c1.22.51,2.66.34,2.92.66A3.86,3.86,0,0,1,32.47,77.83Z"/><path d="M28,81a9.59,9.59,0,0,1-4.71-1.38,10.85,10.85,0,0,1-4.14-5.25,11.67,11.67,0,0,1-.14-5.76,10,10,0,0,1,2.18-4.87,7,7,0,0,1,1.68-1.16,0,0,0,0,1,.05,0s0,0,0,0A10.84,10.84,0,0,0,22.44,65a10.68,10.68,0,0,0,.63,3.78,12.63,12.63,0,0,0,2.24,4.05,10.74,10.74,0,0,0,4.09,2.7,7,7,0,0,0,1.9.4c.53.06.91.1,1,.27a3.6,3.6,0,0,1,.18,1.67h0A2.27,2.27,0,0,1,32.14,79a5.24,5.24,0,0,1-3,1.94A6,6,0,0,1,28,81Zm-5.2-18.27A6.64,6.64,0,0,0,21.3,63.8a10.11,10.11,0,0,0-2.15,4.83,11.69,11.69,0,0,0,.13,5.71,10.68,10.68,0,0,0,4.1,5.19,8.78,8.78,0,0,0,5.78,1.26,5.11,5.11,0,0,0,2.9-1.9,2.45,2.45,0,0,0,.37-1.07h0a4,4,0,0,0-.17-1.6,2,2,0,0,0-1-.23,6.89,6.89,0,0,1-1.93-.41,10.9,10.9,0,0,1-4.12-2.72A13,13,0,0,1,23,68.78,11.09,11.09,0,0,1,22.33,65,10.44,10.44,0,0,1,22.84,62.73Z"/></g><circle class="b1d3c55f-c9a2-4ac1-92e2-5e32d5ced490" cx="26.37" cy="70.56" r="0.6"/><path d="M26.37,71.2a.65.65,0,1,1,.65-.64A.64.64,0,0,1,26.37,71.2Zm0-1.19a.55.55,0,0,0-.54.55.55.55,0,0,0,1.09,0A.55.55,0,0,0,26.37,70Z"/><circle class="b1d3c55f-c9a2-4ac1-92e2-5e32d5ced490" cx="31.47" cy="70.56" r="0.6"/><path d="M31.47,71.2a.65.65,0,1,1,.65-.64A.64.64,0,0,1,31.47,71.2Zm0-1.19a.55.55,0,0,0-.54.55.55.55,0,0,0,1.09,0A.55.55,0,0,0,31.47,70Z"/><path class="bb4a6ea9-c865-4d57-a114-563bdeecca94" d="M17.79,76.56l-2.86,4.67a.93.93,0,0,0,.22,1.21c1.49,1.13,5.13,3.81,6.24,3.94s13-2.83,16.73-3.77a.91.91,0,0,0,.55-1.31l-2.74-5.21Z"/><path class="f3ff0479-16fa-4501-a08f-6f431c05e5d1" d="M35.51,83.26s-1.61-6.73-2.1-7.2-3.19.63-3.19.63,1.91,2.2,2.61,7.24Z"/><path class="b782f2c9-9512-432b-a3c1-ae6b85987d2b" d="M34.86,74.27s-4.71,3.47-15.52.38l-1.55,1.91s7.6,3.67,18.14-.47Z"/><path class="a9b4b47b-9101-4816-aaf8-c8a9e64e2279" d="M21.93,47.84l1-.17C20.6,42,15.12,32.7,13.72,32l-.84.85S17.14,38,21.93,47.84Z"/><rect class="a665ff0e-26bf-4ce0-a537-b694ec512902" x="27.72" y="56.19" width="2.59" height="4.75"/><polygon class="a665ff0e-26bf-4ce0-a537-b694ec512902" points="25.12 61.55 25.12 57.83 22.54 57.83 22.54 61.78 25.12 61.55"/><path class="bb4a6ea9-c865-4d57-a114-563bdeecca94" d="M30.23,61.67a13.07,13.07,0,0,1,2.69,1.16V58.08H30.23Z"/><rect class="bb4a6ea9-c865-4d57-a114-563bdeecca94" x="25.08" y="56.53" width="2.64" height="4.75"/><polygon class="a665ff0e-26bf-4ce0-a537-b694ec512902" points="32.83 62.78 35.43 64.21 35.42 59.51 32.83 59.51 32.83 62.78"/><polygon class="bb4a6ea9-c865-4d57-a114-563bdeecca94" points="35.42 64.22 35.66 64.36 36.55 64.74 38.03 61.4 35.42 61.4 35.42 64.22"/><rect class="bb6ba5b1-9c6d-4884-abab-ba8f7383b11c" x="27.9" y="50.33" width="4.11" height="4.55"/><polygon class="bd375298-c435-4dad-970e-4bb8e1dad175" points="31.83 50.52 27.9 50.52 27.9 46.4 31.83 50.52"/><rect class="bd375298-c435-4dad-970e-4bb8e1dad175" x="27.83" y="50.87" width="4.15" height="3.38"/><polygon class="bd375298-c435-4dad-970e-4bb8e1dad175" points="31.97 54.55 27.9 54.55 27.9 55.65 31.97 58.12 31.97 54.55"/><path class="bb4a6ea9-c865-4d57-a114-563bdeecca94" d="M27.1,46l.16,9.57-3.37,1.91s-.67-7.93-1.47-9.35S27.1,46,27.1,46Z"/><polygon class="b5a17a8e-932e-48cb-8130-8bf9769ba348" points="27.04 45.97 28.05 46.47 28.05 56.27 27.04 56.27 27.04 45.97"/><polygon class="a665ff0e-26bf-4ce0-a537-b694ec512902" points="26.72 45.6 27.72 46.09 27.72 55.89 26.72 55.89 26.72 45.6"/><path class="a665ff0e-26bf-4ce0-a537-b694ec512902" d="M20.16,42.27a27.09,27.09,0,0,0,1.35,2.48A13.73,13.73,0,0,1,22.92,49H23a4.93,4.93,0,0,0,4.57-3.1,4,4,0,0,0-.49-.52c-.35-.29-.75-.52-1.11-.79a21.11,21.11,0,0,0-2.52-2.12,16.59,16.59,0,0,0-2.3-.95,8.67,8.67,0,0,0-1-.33l-.32.05C19.92,41.57,20,41.93,20.16,42.27Z"/><path class="bd375298-c435-4dad-970e-4bb8e1dad175" d="M20.16,42.27a27.09,27.09,0,0,0,1.35,2.48,13.85,13.85,0,0,1,1.34,3.83H23a4.54,4.54,0,0,0,4.28-3l-.2-.19c-.35-.29-.75-.52-1.11-.79a21.11,21.11,0,0,0-2.52-2.12,16.59,16.59,0,0,0-2.3-.95,8.67,8.67,0,0,0-1-.33l-.32.05C19.92,41.57,20,41.93,20.16,42.27Z"/><path class="bb6ba5b1-9c6d-4884-abab-ba8f7383b11c" d="M21.51,44.75a16,16,0,0,1,.73,1.64,2.55,2.55,0,0,0,.74.11,2.45,2.45,0,0,0,2.45-2.38,10.37,10.37,0,0,0-2-1.68A12.36,12.36,0,0,0,22,41.8a2.47,2.47,0,0,0-1.34,1.46C20.94,43.76,21.25,44.25,21.51,44.75Z"/><polygon class="bb4a6ea9-c865-4d57-a114-563bdeecca94" points="36.86 53.73 32.83 51.41 32.63 58.9 36.86 61.23 36.86 53.73"/><rect class="b5a17a8e-932e-48cb-8130-8bf9769ba348" x="31.83" y="50.98" width="1" height="7.59"/><path class="f05e14b0-f9f9-4c80-80c4-b1dee84769e0" d="M40.69,63.51a11.5,11.5,0,0,1-3.52,1.23L37,53.87a15.64,15.64,0,0,0,4,1Z"/><polygon class="a999373f-49c5-4ac6-90e1-def24b17255d" points="40.69 63.51 41.31 63.28 41.31 54.91 40.69 54.91 40.69 63.51"/><path class="a665ff0e-26bf-4ce0-a537-b694ec512902" d="M41.31,63.28a8,8,0,0,0,1.33-.7V55H41.31Z"/><path class="bb4a6ea9-c865-4d57-a114-563bdeecca94" d="M42.64,62.58a15.75,15.75,0,0,0,5.59-4V55H42.64Z"/><rect class="a665ff0e-26bf-4ce0-a537-b694ec512902" x="32.2" y="51.32" width="1" height="7.59"/><rect class="a999373f-49c5-4ac6-90e1-def24b17255d" x="36.54" y="54.08" width="0.62" height="10.66"/><path class="a9b4b47b-9101-4816-aaf8-c8a9e64e2279" d="M20.6,41a4.1,4.1,0,0,1,1.49.31c2,.77,4.53,2.9,7.4,6.32,3.47,4.12,6.88,5.76,9.12,6.4a18.18,18.18,0,0,0,5.21.57l.42.68a20.64,20.64,0,0,1-5.77-.58A19.61,19.61,0,0,1,29,48.1C22.51,40.41,20,41.81,20,41.82l-.38-.56A1.7,1.7,0,0,1,20.6,41Z"/><path class="b5a17a8e-932e-48cb-8130-8bf9769ba348" d="M36.54,61.67s-8.32-5.44-9.11-5.44S24.16,58,24.16,58L24.1,57a27.58,27.58,0,0,1,3.4-2c.37,0,9,5.62,9,5.62Z"/><path class="bd375298-c435-4dad-970e-4bb8e1dad175" d="M35.66,64.36s-7.09-5.27-8.08-5.27-3.76,2.67-3.76,2.67a23.3,23.3,0,0,1,5.41-.36C31.11,61.67,35.66,64.36,35.66,64.36Z"/><path class="bd375298-c435-4dad-970e-4bb8e1dad175" d="M36.54,62.33s-8.32-5.53-9.11-5.53-3.23,1.89-3.23,1.89l-.05-.9a27,27,0,0,1,3.35-1.9c.37,0,9,5.45,9,5.45Z"/><path class="bb4a6ea9-c865-4d57-a114-563bdeecca94" d="M12.88,38.24V58.35a11.41,11.41,0,0,0,7.6,3.7S20.58,41.68,12.88,38.24Z"/><path class="a665ff0e-26bf-4ce0-a537-b694ec512902" d="M19.79,62s.9-13.3-6.91-23.73c0-.92,0-1.39,0-1.39s4.6,2.16,7.22,11.28S21.54,62,21.54,62l-1.06.08Z"/><path class="f3ff0479-16fa-4501-a08f-6f431c05e5d1" d="M21,62s.24-9.09-1.92-14.34-3.66-8.82-6.18-10.79v-4s7.1,6.87,9.43,14.6a45,45,0,0,1,1.9,14.26Z"/><path class="bb4a6ea9-c865-4d57-a114-563bdeecca94" d="M21,60.6c0-.32.62-.62,1.43-.66s1.47.18,1.48.5-.62.62-1.42.66S21,60.92,21,60.6Z"/><path class="bb4a6ea9-c865-4d57-a114-563bdeecca94" d="M21,59.09c0-.31.57-.64,1.36-.72s1.45.1,1.48.42-.58.63-1.36.72S21,59.41,21,59.09Z"/><path class="bb4a6ea9-c865-4d57-a114-563bdeecca94" d="M20.92,57.42c-.05-.3.53-.66,1.3-.78s1.43,0,1.48.32-.53.66-1.3.79S21,57.73,20.92,57.42Z"/><path class="bb4a6ea9-c865-4d57-a114-563bdeecca94" d="M20.75,55.62c-.06-.3.49-.68,1.24-.85s1.41-.07,1.48.23-.49.68-1.24.85S20.82,55.92,20.75,55.62Z"/><path class="bb4a6ea9-c865-4d57-a114-563bdeecca94" d="M20.49,53.71c-.08-.29.44-.7,1.17-.91s1.4-.15,1.48.14-.44.7-1.17.91S20.58,54,20.49,53.71Z"/><path class="bb4a6ea9-c865-4d57-a114-563bdeecca94" d="M20.12,51.73c-.1-.29.4-.72,1.11-1s1.38-.23,1.48.06-.4.72-1.11,1S20.23,52,20.12,51.73Z"/><path class="bb4a6ea9-c865-4d57-a114-563bdeecca94" d="M19.65,49.71c-.12-.28.35-.75,1-1s1.36-.31,1.48,0-.35.75-1.05,1S19.77,50,19.65,49.71Z"/><path class="bb4a6ea9-c865-4d57-a114-563bdeecca94" d="M19.06,47.67c-.13-.27.31-.76,1-1.1s1.34-.4,1.48-.12-.31.76-1,1.1S19.2,47.94,19.06,47.67Z"/><path class="bb4a6ea9-c865-4d57-a114-563bdeecca94" d="M18.36,45.66c-.15-.26.26-.79.92-1.17s1.32-.47,1.47-.21-.26.79-.92,1.17S18.51,45.92,18.36,45.66Z"/><path class="bb4a6ea9-c865-4d57-a114-563bdeecca94" d="M17.54,43.7c-.17-.26.21-.81.85-1.23s1.3-.56,1.47-.31S19.65,43,19,43.4,17.71,44,17.54,43.7Z"/><path class="bb4a6ea9-c865-4d57-a114-563bdeecca94" d="M16.59,41.82c-.18-.25.17-.83.79-1.3s1.28-.64,1.47-.39-.17.83-.79,1.3S16.78,42.07,16.59,41.82Z"/><path class="bb4a6ea9-c865-4d57-a114-563bdeecca94" d="M15.52,40.05c-.21-.24.12-.85.73-1.36s1.26-.72,1.46-.48-.12.85-.73,1.36S15.72,40.29,15.52,40.05Z"/><path class="bb4a6ea9-c865-4d57-a114-563bdeecca94" d="M14.31,38.43c-.22-.23.08-.87.67-1.42s1.24-.81,1.46-.57-.08.87-.67,1.42S14.53,38.67,14.31,38.43Z"/><path class="bb4a6ea9-c865-4d57-a114-563bdeecca94" d="M13,37c-.24-.22,0-.89.6-1.48s1.22-.89,1.46-.66,0,.89-.6,1.48S13.2,37.21,13,37Z"/><path class="aaae8350-63e1-4591-b722-a3f78cdab0fe" d="M33,30.91s-.07-2.05-.09-2.1-1.24-.54-1.29.25c0,.08.07,1.84.07,1.92"/><path d="M31.76,31h-.08s0-.25,0-.52c0-.74-.05-1.35-.05-1.4a.48.48,0,0,1,.42-.47,1.52,1.52,0,0,1,.94.21s.14,2.05.09,2.13v0h0v0h0c0-.1-.06-1.92-.08-2.07a1.56,1.56,0,0,0-1-.14.4.4,0,0,0-.24.37c0,.06,0,.89.05,1.39C31.75,30.74,31.76,31,31.76,31Z"/><path class="a9b4b47b-9101-4816-aaf8-c8a9e64e2279" d="M39.18,43.62c-.33.07-.66.12-1,.17,2.31,5.63,7.79,15,9.2,15.65l.84-.85S44,53.52,39.18,43.62Z"/><rect class="a665ff0e-26bf-4ce0-a537-b694ec512902" x="30.8" y="30.52" width="2.59" height="4.75"/><polygon class="a665ff0e-26bf-4ce0-a537-b694ec512902" points="35.98 29.91 35.98 33.63 38.57 33.63 38.57 29.68 35.98 29.91"/><path class="bb4a6ea9-c865-4d57-a114-563bdeecca94" d="M30.87,29.8a13.09,13.09,0,0,1-2.68-1.17v4.75h2.68Z"/><rect class="bb4a6ea9-c865-4d57-a114-563bdeecca94" x="33.38" y="30.18" width="2.64" height="4.75"/><polygon class="a665ff0e-26bf-4ce0-a537-b694ec512902" points="28.27 28.68 25.68 27.25 25.68 31.95 28.27 31.95 28.27 28.68"/><polygon class="bb4a6ea9-c865-4d57-a114-563bdeecca94" points="25.68 27.25 25.45 27.1 24.56 26.72 23.08 30.06 25.68 30.06 25.68 27.25"/><rect class="bb6ba5b1-9c6d-4884-abab-ba8f7383b11c" x="29.1" y="36.58" width="4.11" height="4.55"/><polygon class="bd375298-c435-4dad-970e-4bb8e1dad175" points="29.27 40.94 33.21 40.94 33.21 45.07 29.27 40.94"/><rect class="bd375298-c435-4dad-970e-4bb8e1dad175" x="29.13" y="37.21" width="4.15" height="3.38"/><polygon class="bd375298-c435-4dad-970e-4bb8e1dad175" points="29.13 36.92 33.21 36.92 33.21 35.81 29.13 33.35 29.13 36.92"/><path class="bb4a6ea9-c865-4d57-a114-563bdeecca94" d="M34,45.46l-.15-9.57L37.22,34s.66,7.93,1.47,9.35S34,45.46,34,45.46Z"/><polygon class="b5a17a8e-932e-48cb-8130-8bf9769ba348" points="34.06 45.49 33.06 44.99 33.06 35.2 34.06 35.2 34.06 45.49"/><polygon class="a665ff0e-26bf-4ce0-a537-b694ec512902" points="34.39 45.87 33.38 45.37 33.38 35.57 34.39 35.57 34.39 45.87"/><path class="a665ff0e-26bf-4ce0-a537-b694ec512902" d="M40.94,49.19a26.83,26.83,0,0,0-1.34-2.47,13.64,13.64,0,0,1-1.41-4.22h-.06a4.91,4.91,0,0,0-4.57,3.11,4.67,4.67,0,0,0,.49.51c.34.29.75.52,1.11.79A21,21,0,0,0,37.67,49,17.67,17.67,0,0,0,40,50a9.49,9.49,0,0,0,1,.33l.32,0C41.19,49.89,41.08,49.53,40.94,49.19Z"/><path class="bd375298-c435-4dad-970e-4bb8e1dad175" d="M40.94,49.19a26.83,26.83,0,0,0-1.34-2.47,14,14,0,0,1-1.35-3.83h-.12a4.54,4.54,0,0,0-4.28,3l.2.19c.34.29.75.52,1.11.79A21,21,0,0,0,37.67,49,17.67,17.67,0,0,0,40,50a9.49,9.49,0,0,0,1,.33l.32,0C41.19,49.89,41.08,49.53,40.94,49.19Z"/><path class="bb6ba5b1-9c6d-4884-abab-ba8f7383b11c" d="M39.6,46.72a15.06,15.06,0,0,1-.73-1.65,2.65,2.65,0,0,0-.74-.11,2.46,2.46,0,0,0-2.46,2.38,11,11,0,0,0,2,1.68,13.31,13.31,0,0,0,1.45.64,2.46,2.46,0,0,0,1.33-1.46C40.17,47.7,39.86,47.21,39.6,46.72Z"/><polygon class="bb4a6ea9-c865-4d57-a114-563bdeecca94" points="24.25 37.73 28.27 40.05 28.48 32.56 24.25 30.23 24.25 37.73"/><rect class="b5a17a8e-932e-48cb-8130-8bf9769ba348" x="28.27" y="32.89" width="1" height="7.59"/><path class="f05e14b0-f9f9-4c80-80c4-b1dee84769e0" d="M20.42,28a11.5,11.5,0,0,1,3.52-1.23l.21,10.87a16.1,16.1,0,0,0-4-1Z"/><polygon class="a999373f-49c5-4ac6-90e1-def24b17255d" points="20.42 27.95 19.8 28.18 19.8 36.55 20.42 36.55 20.42 27.95"/><path class="a665ff0e-26bf-4ce0-a537-b694ec512902" d="M19.79,28.18a8.08,8.08,0,0,0-1.32.7v7.55h1.32Z"/><path class="bb4a6ea9-c865-4d57-a114-563bdeecca94" d="M18.47,28.88a15.75,15.75,0,0,0-5.59,4v3.58h5.59Z"/><rect class="a665ff0e-26bf-4ce0-a537-b694ec512902" x="27.9" y="32.56" width="1" height="7.59"/><rect class="a999373f-49c5-4ac6-90e1-def24b17255d" x="23.94" y="26.72" width="0.62" height="10.66"/><path class="a9b4b47b-9101-4816-aaf8-c8a9e64e2279" d="M40.5,50.43A4.1,4.1,0,0,1,39,50.12c-2-.77-4.53-2.89-7.41-6.31a18.91,18.91,0,0,0-9.12-6.41,18.57,18.57,0,0,0-5.21-.57l-.42-.67a20.49,20.49,0,0,1,5.78.57c2.35.67,5.9,2.37,9.49,6.64,6.47,7.68,8.93,6.28,9,6.27l.38.56A1.69,1.69,0,0,1,40.5,50.43Z"/><path class="b5a17a8e-932e-48cb-8130-8bf9769ba348" d="M24.56,29.8s8.33,5.43,9.12,5.43,3.26-1.73,3.26-1.73l.07.94a27.61,27.61,0,0,1-3.4,2c-.37,0-9-5.62-9-5.62Z"/><path class="bd375298-c435-4dad-970e-4bb8e1dad175" d="M25.45,27.1s7.08,5.27,8.08,5.27,3.76-2.67,3.76-2.67a23.4,23.4,0,0,1-5.42.36C30,29.8,25.45,27.1,25.45,27.1Z"/><path class="bd375298-c435-4dad-970e-4bb8e1dad175" d="M24.56,29.14s8.33,5.52,9.12,5.52,3.22-1.89,3.22-1.89l.05.9a26.83,26.83,0,0,1-3.34,1.9c-.37,0-9-5.45-9-5.45Z"/><path class="bb4a6ea9-c865-4d57-a114-563bdeecca94" d="M48.23,53.22V33.11a11.39,11.39,0,0,0-7.61-3.69S40.53,49.78,48.23,53.22Z"/><path class="a665ff0e-26bf-4ce0-a537-b694ec512902" d="M41.32,29.49s-.91,13.31,6.91,23.73c0,.92,0,1.39,0,1.39S43.61,52.45,41,43.33s-1.43-13.84-1.43-13.84l1-.07Z"/><path class="f3ff0479-16fa-4501-a08f-6f431c05e5d1" d="M40.12,29.45S39.88,38.54,42,43.79s3.67,8.82,6.19,10.8v4S41.13,51.73,38.8,44a44.83,44.83,0,0,1-1.91-14.26Z"/><path class="bb4a6ea9-c865-4d57-a114-563bdeecca94" d="M40.14,30.86c0,.33-.62.62-1.42.66s-1.47-.18-1.49-.5.62-.62,1.43-.66S40.13,30.54,40.14,30.86Z"/><path class="bb4a6ea9-c865-4d57-a114-563bdeecca94" d="M40.12,32.37c0,.31-.57.64-1.36.72s-1.45-.1-1.48-.41.57-.64,1.36-.73S40.09,32.05,40.12,32.37Z"/><path class="bb4a6ea9-c865-4d57-a114-563bdeecca94" d="M40.19,34c.05.31-.53.66-1.3.79s-1.43,0-1.48-.33.53-.66,1.3-.79S40.14,33.73,40.19,34Z"/><path class="bb4a6ea9-c865-4d57-a114-563bdeecca94" d="M40.35,35.84c.07.3-.48.68-1.23.85s-1.41.07-1.48-.23.48-.68,1.23-.85S40.29,35.55,40.35,35.84Z"/><path class="bb4a6ea9-c865-4d57-a114-563bdeecca94" d="M40.62,37.75c.08.29-.44.7-1.18.92s-1.39.14-1.47-.15.44-.7,1.17-.91S40.53,37.46,40.62,37.75Z"/><path class="bb4a6ea9-c865-4d57-a114-563bdeecca94" d="M41,39.73c.1.29-.39.73-1.11,1s-1.37.23-1.47-.06.39-.72,1.11-1S40.88,39.45,41,39.73Z"/><path class="bb4a6ea9-c865-4d57-a114-563bdeecca94" d="M41.46,41.76c.12.27-.35.74-1.05,1s-1.35.31-1.47,0,.35-.74,1-1S41.34,41.48,41.46,41.76Z"/><path class="bb4a6ea9-c865-4d57-a114-563bdeecca94" d="M42,43.79c.14.27-.3.76-1,1.1s-1.33.4-1.47.13.3-.77,1-1.11S41.91,43.52,42,43.79Z"/><path class="bb4a6ea9-c865-4d57-a114-563bdeecca94" d="M42.75,45.8c.15.27-.26.79-.92,1.17s-1.32.48-1.47.21.26-.78.92-1.17S42.59,45.54,42.75,45.8Z"/><path class="bb4a6ea9-c865-4d57-a114-563bdeecca94" d="M43.57,47.76c.17.26-.22.81-.86,1.23s-1.3.56-1.47.31.22-.81.86-1.23S43.4,47.51,43.57,47.76Z"/><path class="bb4a6ea9-c865-4d57-a114-563bdeecca94" d="M44.51,49.64c.19.25-.16.83-.79,1.3s-1.28.64-1.46.39.17-.83.79-1.3S44.33,49.39,44.51,49.64Z"/><path class="bb4a6ea9-c865-4d57-a114-563bdeecca94" d="M45.59,51.41c.2.24-.12.85-.73,1.36s-1.26.72-1.46.48.12-.85.73-1.36S45.39,51.17,45.59,51.41Z"/><path class="bb4a6ea9-c865-4d57-a114-563bdeecca94" d="M46.8,53c.22.24-.08.87-.67,1.42s-1.24.81-1.46.57.08-.87.66-1.42S46.58,52.8,46.8,53Z"/><path class="bb4a6ea9-c865-4d57-a114-563bdeecca94" d="M48.14,54.48c.24.23,0,.89-.6,1.48s-1.22.89-1.46.66,0-.89.6-1.48S47.9,54.25,48.14,54.48Z"/><g id="e0ed6d61-a124-45a0-ac8f-4af7de9cc745" data-name="pelo ext"><path class="a2e3b7d3-3266-48bf-af52-16bbef568821" d="M28.4,10.32c.13,0,.56-.83.84-1.21s.72-1,1.05-1.4c.59-.79,2.14-.82,2.14-.82l.09.73c0,.44.14,1,.16,1.46s0,.88.08.89.27-.4.39-.87a13.31,13.31,0,0,1,.57-1.46,6.29,6.29,0,0,1,1.45-1.8,23,23,0,0,1,.32,2.33c.11.68.17,1.1.18,1.33s0,.62.06.62.12-.25.24-.54c.05-.11.14-.26.2-.38.18-.33.55-1.06.58-1.06a7,7,0,0,1,.55.92,10.08,10.08,0,0,1,.47.92,15.94,15.94,0,0,1,.68,1.87,10.61,10.61,0,0,1,.48,2.71,25.94,25.94,0,0,1-1,8.31,5,5,0,0,1-1.44,2.23c-1.2.78-2.17.62-3.79.43a5.81,5.81,0,0,1-3.24-1.11A9.63,9.63,0,0,1,27.09,21a28.77,28.77,0,0,1-1-6.47A14,14,0,0,1,26,11.94a8.92,8.92,0,0,1,.29-1.84,8,8,0,0,1,.57-1.24,4.35,4.35,0,0,1,1-1s.15.59.24,1A6.26,6.26,0,0,0,28.4,10.32Z"/><path d="M34.5,25.74A13,13,0,0,1,33,25.61l-.26,0a5.77,5.77,0,0,1-3.26-1.12A9.64,9.64,0,0,1,27,21c-.38-.93-.68-2.87-1-6.48a16.26,16.26,0,0,1-.11-2.6,9.1,9.1,0,0,1,.3-1.86,8.1,8.1,0,0,1,.57-1.25,4.33,4.33,0,0,1,1.07-1h0a4.65,4.65,0,0,1,.2.79l.06.26c0,.08,0,.18,0,.29a7.72,7.72,0,0,0,.22,1.11,4.09,4.09,0,0,0,.41-.62c.12-.2.25-.41.36-.56l.74-1,.31-.41a3.2,3.2,0,0,1,2.19-.84h0a0,0,0,0,1,0,0l.09.73c0,.12,0,.24,0,.36.05.36.1.74.12,1.11v.33a2.75,2.75,0,0,0,0,.5,2.27,2.27,0,0,0,.32-.82,14.1,14.1,0,0,1,.58-1.47,5.88,5.88,0,0,1,1.5-1.83h0c.09,0,.12.15.22,1.18,0,.4.09.85.14,1.19.11.65.18,1.1.19,1.34s0,.24,0,.34V10a1.31,1.31,0,0,0,.07-.19l.11-.28c0-.09.1-.19.15-.29l.06-.09c0-.09.11-.21.17-.34.39-.76.4-.76.45-.76s.08,0,.6.95a10.19,10.19,0,0,1,.47.93,16.6,16.6,0,0,1,.68,1.88c0,.1,0,.2.08.3A10,10,0,0,1,39,14.55a26.13,26.13,0,0,1-1,8.34,4.59,4.59,0,0,1-1.46,2.25A3.47,3.47,0,0,1,34.5,25.74ZM27.83,7.93a4.12,4.12,0,0,0-.95,1,7.09,7.09,0,0,0-.56,1.23,8.64,8.64,0,0,0-.3,1.82,16.11,16.11,0,0,0,.11,2.59c.33,3.6.63,5.53,1,6.44a9.61,9.61,0,0,0,2.37,3.41,5.77,5.77,0,0,0,3.21,1.09l.26,0c1.49.18,2.38.28,3.5-.45a4.5,4.5,0,0,0,1.41-2.2,25.92,25.92,0,0,0,1-8.29,9.54,9.54,0,0,0-.41-2.4c0-.09,0-.19-.08-.29A15.44,15.44,0,0,0,37.72,10c-.11-.25-.27-.56-.46-.91s-.42-.73-.51-.86c-.07.12-.23.44-.35.66l-.18.34,0,.09c-.05.1-.11.2-.14.28a2.66,2.66,0,0,0-.11.28c-.07.2-.11.3-.19.3a.09.09,0,0,1-.06,0s0-.14,0-.31,0-.21,0-.33-.08-.68-.19-1.33c0-.35-.1-.8-.14-1.2a9.55,9.55,0,0,0-.14-1.07,6.89,6.89,0,0,0-1.38,1.75,15.58,15.58,0,0,0-.57,1.46c-.07.27-.26.9-.44.9h0c-.11,0-.12-.19-.12-.61V9.08c0-.36-.07-.74-.12-1.1,0-.12,0-.24,0-.36l-.08-.68a3.09,3.09,0,0,0-2.05.8L30,8.15l-.74,1c-.1.14-.23.35-.36.55-.3.49-.42.68-.52.68s-.15-.16-.31-1.22c0-.11,0-.2,0-.28L28,8.63Zm.6,2.34Z"/></g><g id="a1d3947e-310c-43ff-b8d5-16d483e69aca" data-name="cabeza"><g id="b24d99d7-96bc-4b84-9bae-72a1dc081d04" data-name="oreja Izq"><path class="aaae8350-63e1-4591-b722-a3f78cdab0fe" d="M27.44,22.06a1.48,1.48,0,0,0-.53-.58,1,1,0,0,0-.68,0,1.13,1.13,0,0,0-.43.72,1.11,1.11,0,0,0,.1.84,1.15,1.15,0,0,0,.8.27,1.12,1.12,0,0,0,.66-.26A1.61,1.61,0,0,0,27.44,22.06Z"/><path d="M27.42,22.07a1.32,1.32,0,0,0-.55-.52l.06-.13a1.35,1.35,0,0,1,.53.63Z"/><path d="M26.87,21.55a.8.8,0,0,0-.61,0l-.06-.13a1,1,0,0,1,.74,0Z"/><polygon points="26.93 21.57 26.82 21.53 26.88 21.39 26.98 21.44 26.93 21.57"/><path d="M26.25,21.52a1,1,0,0,0-.4.67l-.13,0a1.32,1.32,0,0,1,.48-.78Z"/><polygon points="26.2 21.54 26.14 21.42 26.24 21.37 26.3 21.49 26.2 21.54"/><path d="M25.85,22.19a1.11,1.11,0,0,0,.09.79l-.11.09a1.32,1.32,0,0,1-.11-.9Z"/><polygon points="25.84 22.25 25.71 22.21 25.74 22.11 25.87 22.14 25.84 22.25"/><path d="M25.94,23a1,1,0,0,0,.75.24v.15a1.23,1.23,0,0,1-.87-.29Z"/><polygon points="25.87 23.11 25.8 23.02 25.91 22.94 25.98 23.02 25.87 23.11"/><path d="M26.69,23.22a1.18,1.18,0,0,0,.64-.2l0,0a1.16,1.16,0,0,1-.68.3Z"/><rect x="26.63" y="23.22" width="0.11" height="0.14"/></g><g id="b1104bfa-db22-4d64-a8c8-2e5ca12b50cd" data-name="cabeza"><path class="aaae8350-63e1-4591-b722-a3f78cdab0fe" d="M37.83,22a11.39,11.39,0,0,1-.65,3.73,8.15,8.15,0,0,1-2,2.29,6,6,0,0,1-3,1.2,6.44,6.44,0,0,1-2.79-1.46,6.82,6.82,0,0,1-1.88-2.29,12.22,12.22,0,0,1-.7-4.12c-.05-1.15-.07-2.46,0-3.12a16.46,16.46,0,0,1,.54-4.21,3.45,3.45,0,0,1,1.46-1.52,7.54,7.54,0,0,1,3.35-.72,7,7,0,0,1,3.66.65,4.67,4.67,0,0,1,1.68,2.45,27.18,27.18,0,0,1,.39,4.62C37.89,20,37.89,21.28,37.83,22Z"/><path d="M37.83,22a11.42,11.42,0,0,1-.59,3.77l-.12-.07a11.84,11.84,0,0,0,.71-3.7Z"/><path d="M37.24,25.81a8.11,8.11,0,0,1-2,2.3L35.14,28a7.36,7.36,0,0,0,2-2.25Z"/><polygon points="37.21 25.86 37.09 25.79 37.14 25.69 37.26 25.76 37.21 25.86"/><path d="M35.22,28.11a6,6,0,0,1-3,1.23l0-.14A5.88,5.88,0,0,0,35.14,28Z"/><polygon points="35.17 28.14 35.1 28.03 35.19 27.97 35.27 28.08 35.17 28.14"/><path d="M32.19,29.33a6.61,6.61,0,0,1-2.82-1.48l.09-.12a6.35,6.35,0,0,0,2.73,1.46Z"/><polygon points="32.25 29.33 32.14 29.33 32.15 29.18 32.26 29.19 32.25 29.33"/><path d="M29.37,27.85a7.26,7.26,0,0,1-1.91-2.32l.13-.06a7.11,7.11,0,0,0,1.87,2.28Z"/><polygon points="29.41 27.88 29.32 27.81 29.41 27.7 29.5 27.77 29.41 27.88"/><path d="M27.46,25.53a12.39,12.39,0,0,1-.71-4.14h.15a12.42,12.42,0,0,0,.69,4.09Z"/><polygon points="27.48 25.58 27.44 25.48 27.57 25.42 27.62 25.52 27.48 25.58"/><path d="M26.75,21.39c-.05-1.15-.06-2.47,0-3.13h.14c0,.66,0,2,0,3.11Z"/><polygon points="26.76 21.45 26.75 21.34 26.89 21.33 26.9 21.44 26.76 21.45"/><path d="M26.73,18.26A17.5,17.5,0,0,1,27.27,14l.14,0a17.35,17.35,0,0,0-.55,4.19Z"/><polygon points="26.87 18.32 26.73 18.31 26.73 18.2 26.88 18.21 26.87 18.32"/><path d="M37.48,14.91a28.25,28.25,0,0,1,.39,4.62h0a28.25,28.25,0,0,0-.39-4.62Z"/><path d="M37.87,19.52c0,.46,0,1.76,0,2.52h0c.06-.76.06-2.06,0-2.52Z"/></g><g id="a5e93d4a-0f46-4842-bf6c-617a2c170b66" data-name="boca"><g id="ac08ba14-92ee-4402-ada9-b0da8e0e90e8" data-name="boca"><path class="be50c070-d843-4515-a23f-2f10cf045f0e" d="M28.22,25s.49.62.68.77a4.44,4.44,0,0,0,1,.35c.11,0,1.08.07,1.19.07s1.1-.05,1.19-.07a9.35,9.35,0,0,0,1.25-.28c.17-.12.51-.72.57-.68a1.93,1.93,0,0,1-.55.76,10.39,10.39,0,0,1-1.27.28c-.12,0-1.07.08-1.18.08s-1.08-.05-1.19-.07a4.86,4.86,0,0,1-1-.34A3.52,3.52,0,0,1,28.22,25Z"/><path d="M31.06,26.37c-.11,0-1.09,0-1.2-.07a4.49,4.49,0,0,1-1-.35,3.43,3.43,0,0,1-.71-.9.08.08,0,0,1,0-.05h0c.06,0,.1,0,.34.32a3.23,3.23,0,0,0,.41.45,4.08,4.08,0,0,0,.93.35c.1,0,1.07.06,1.18.06s1.1,0,1.17-.06l.11,0a7.85,7.85,0,0,0,1.13-.25,2.5,2.5,0,0,0,.31-.39c.18-.26.24-.35.32-.3a.06.06,0,0,1,0,.06,2,2,0,0,1-.58.8,7.74,7.74,0,0,1-1.18.26l-.11,0C32.12,26.32,31.17,26.37,31.06,26.37Z"/></g><g id="b2ca8f2c-adc9-4e5c-b4f8-9f96fe1e645c" data-name="lengua"><g class="e9744d8c-a900-45a5-a3da-04dab8e47c0b"><path class="b4c40d6c-27fd-4716-88ef-eef55a586a29" d="M29.75,27.79a1.4,1.4,0,0,1,.47-.85,2.46,2.46,0,0,1,1.39-.51,2.37,2.37,0,0,1,1.4.36,1.42,1.42,0,0,1,.57.88,1.45,1.45,0,0,1-.54,1,2.35,2.35,0,0,1-1.23.28,2.82,2.82,0,0,1-1.61-.24A1.24,1.24,0,0,1,29.75,27.79Z"/><path class="ba092a61-dc94-4c52-b18f-4e7881837810" d="M31.35,29a2,2,0,0,1-1.18-.27,1.31,1.31,0,0,1-.48-.92,1.45,1.45,0,0,1,.49-.89,2.51,2.51,0,0,1,1.42-.53,2.47,2.47,0,0,1,1.45.38,1.48,1.48,0,0,1,.59.92,1.5,1.5,0,0,1-.57,1,2.26,2.26,0,0,1-1.26.28Zm.36-2.5h-.1a2.41,2.41,0,0,0-1.35.5,1.33,1.33,0,0,0-.46.81h0a1.21,1.21,0,0,0,.43.83,2.62,2.62,0,0,0,1.57.23,2.24,2.24,0,0,0,1.2-.26,1.36,1.36,0,0,0,.52-.92,1.31,1.31,0,0,0-.54-.83A2.32,2.32,0,0,0,31.71,26.48Zm-2,1.31Z"/></g></g><g id="e1335a2e-55a3-42e4-8929-507e5b8ca7f7" data-name="dientes"><g class="e9744d8c-a900-45a5-a3da-04dab8e47c0b"><path class="be50f770-5b46-4652-bfc3-2b239a276414" d="M26.34,21.85h9.38a4.44,4.44,0,0,0-.17-1.71,2.77,2.77,0,0,0-1.47-1.05,9.84,9.84,0,0,0-6.3.13,2.75,2.75,0,0,0-1.4,1.13A4.05,4.05,0,0,0,26.34,21.85Z"/><path class="a8536ea6-1469-4ebf-a611-daa7bd0e748d" d="M30.91,21.92l-4.57,0a0,0,0,0,1-.05,0,3.81,3.81,0,0,1,0-1.53,2.77,2.77,0,0,1,1.43-1.16A9.89,9.89,0,0,1,34.1,19a2.76,2.76,0,0,1,1.5,1.08,4.29,4.29,0,0,1,.17,1.73c0,.06,0,.06-.6.06Zm-4.52-.13h9.28a4.34,4.34,0,0,0-.16-1.63,2.73,2.73,0,0,0-1.45-1,9.79,9.79,0,0,0-6.26.13,2.72,2.72,0,0,0-1.37,1.11A3.58,3.58,0,0,0,26.39,21.79Z"/></g><g class="e9744d8c-a900-45a5-a3da-04dab8e47c0b"><path class="be50f770-5b46-4652-bfc3-2b239a276414" d="M35.82,29.34l-4.8,0-4.59,0A4.46,4.46,0,0,0,26.56,31,2.78,2.78,0,0,0,28,32a9.74,9.74,0,0,0,6.29-.13,2.82,2.82,0,0,0,1.41-1.13A3.92,3.92,0,0,0,35.82,29.34Z"/><path class="a8536ea6-1469-4ebf-a611-daa7bd0e748d" d="M31,32.54a9.24,9.24,0,0,1-3-.45A2.93,2.93,0,0,1,26.51,31a4.36,4.36,0,0,1-.13-1.67s0,0,0,0,0,0,4.63,0l4.8,0a0,0,0,0,1,0,.05,3.61,3.61,0,0,1-.08,1.46A2.81,2.81,0,0,1,34.35,32,9.12,9.12,0,0,1,31,32.54Zm-4.5-3.15A4.33,4.33,0,0,0,26.61,31a2.73,2.73,0,0,0,1.45,1,9.76,9.76,0,0,0,6.25-.13,2.76,2.76,0,0,0,1.38-1.1,3.65,3.65,0,0,0,.08-1.35l-4.75,0Zm9.39-.05h0Z"/></g></g></g><g id="ede8dfe1-9624-42b2-8a36-e98902163f2a" data-name="ojos"><g id="b4c6bc18-3868-46d3-94b4-eda2b6da4aa2" data-name="ojos"><path class="be50f770-5b46-4652-bfc3-2b239a276414" d="M35.59,21.42a10.09,10.09,0,0,0,.27-2.21,7,7,0,0,0,0-.94,1.63,1.63,0,0,0-.22-.72A1.3,1.3,0,0,0,34.53,17a1.4,1.4,0,0,0-1.08.42,1.39,1.39,0,0,0-.15.73c0,.29,0,1.32,0,1.32s.11,1.87.15,1.92a2.56,2.56,0,0,0,.24.11,3.51,3.51,0,0,0,.92.19,3,3,0,0,0,.77-.16S35.45,21.54,35.59,21.42Z"/><path d="M35.55,21.38a10.24,10.24,0,0,0,.26-2.17h.09a10.36,10.36,0,0,1-.29,2.24Z"/><path d="M35.82,19.21a6.89,6.89,0,0,0,0-.93h.09a7.2,7.2,0,0,1,0,.95Z"/><rect x="35.82" y="19.16" width="0.09" height="0.11"/><path d="M35.8,18.27a2.07,2.07,0,0,0-.21-.71l.07-.06a2.13,2.13,0,0,1,.24.75Z"/><polygon points="35.8 18.32 35.79 18.21 35.88 18.2 35.89 18.31 35.8 18.32"/><path d="M35.59,17.57a1.23,1.23,0,0,0-1.06-.49V17a1.39,1.39,0,0,1,1.13.54Z"/><polygon points="35.62 17.61 35.55 17.53 35.63 17.47 35.7 17.56 35.62 17.61"/><path d="M34.53,17.07a1.35,1.35,0,0,0-1.05.41l-.07-.06A1.45,1.45,0,0,1,34.54,17Z"/><rect x="34.48" y="16.98" width="0.11" height="0.09"/><path d="M33.48,17.47a1.72,1.72,0,0,0-.19.7h0c0-.17,0-.52.11-.75Z"/><polygon points="33.45 17.52 33.37 17.46 33.44 17.37 33.51 17.43 33.45 17.52"/><path d="M33.29,18.18c0,.29,0,1.32,0,1.32h0s0-1,0-1.32Z"/><path d="M33.29,19.5s.11,1.87.15,1.92h0c0-.05-.15-1.92-.15-1.92Z"/><path d="M33.44,21.42l.24.11h0l-.24-.11Z"/><path d="M35.36,21.55l.19-.17.07.07a.35.35,0,0,1-.26.1Z"/><path class="be50f770-5b46-4652-bfc3-2b239a276414" d="M27.83,21.36c-.24-.21-.24-1.61-.25-2a8,8,0,0,1,0-1.08c0-.22,0-.76.26-1A1.88,1.88,0,0,1,29,17a2.06,2.06,0,0,1,1,.44,1.54,1.54,0,0,1,.24.8c0,.45,0,1.2,0,1.2a17.63,17.63,0,0,1-.17,1.93l-.2.13a3,3,0,0,1-.9.22,3.13,3.13,0,0,1-.86-.17A1.37,1.37,0,0,1,27.83,21.36Z"/><path d="M27.79,21.41a5.9,5.9,0,0,1-.27-2h.12c0,.36,0,1.75.22,1.94Z"/><path d="M27.52,19.4a10.13,10.13,0,0,1,0-1.09h.11a9.65,9.65,0,0,0,0,1.07Z"/><polygon points="27.52 19.45 27.51 19.34 27.63 19.33 27.64 19.44 27.52 19.45"/><path d="M27.54,18.31c0-.21,0-.77.28-1l.07.08c-.21.18-.21.71-.24.94Z"/><polygon points="27.64 18.38 27.53 18.37 27.55 18.26 27.66 18.27 27.64 18.38"/><path d="M27.83,17.3A1.94,1.94,0,0,1,29,17v.11a1.91,1.91,0,0,0-1.07.33Z"/><polygon points="27.85 17.43 27.78 17.34 27.87 17.27 27.94 17.36 27.85 17.43"/><path d="M29,17a2,2,0,0,1,1.05.47l-.07.07a1.87,1.87,0,0,0-1-.43Z"/><polygon points="29 17.07 28.89 17.05 28.9 16.95 29.01 16.95 29 17.07"/><path d="M30,17.42a1.44,1.44,0,0,1,.2.83h0a1.45,1.45,0,0,0-.29-.77Z"/><polygon points="29.98 17.52 29.91 17.44 29.99 17.37 30.06 17.46 29.98 17.52"/><path d="M30.22,18.25c0,.45,0,1.2,0,1.2h0s0-.75,0-1.2Z"/><path d="M30.26,19.45a17.63,17.63,0,0,1-.17,1.93h0a17.63,17.63,0,0,0,.17-1.93Z"/><path d="M30.1,21.38l-.2.13h0l.2-.13Z"/><path d="M28.14,21.57a.78.78,0,0,1-.35-.16l.07-.07a2.26,2.26,0,0,0,.29.22Z"/><polygon points="28.19 21.6 28.09 21.55 28.1 21.53 28.2 21.57 28.19 21.6"/></g><g id="ba54e9d4-dda7-4e6e-a3d7-beccc912a167" data-name="pupilas"><g class="b94df982-cc36-412f-89df-56b31ffb6f3c"><path class="a2e3b7d3-3266-48bf-af52-16bbef568821" d="M34.71,17.39c.62,0,.83.52.87,1.5,0,1.16-.33,1.84-.87,1.84s-.89-.82-.86-1.84C33.87,18.08,34.09,17.39,34.71,17.39Z"/></g><g class="b94df982-cc36-412f-89df-56b31ffb6f3c"><path class="a2e3b7d3-3266-48bf-af52-16bbef568821" d="M29.05,17.38c.62,0,.88.52.93,1.51s-.27,1.86-.88,1.86-.93-.61-.87-1.86C28.26,17.87,28.45,17.39,29.05,17.38Z"/></g></g></g><g id="a5c31f70-8d2a-4dc8-b9f7-1dbb899ab0ff" data-name="nariz"><path class="aaae8350-63e1-4591-b722-a3f78cdab0fe" d="M31.24,20a1.79,1.79,0,0,0-.38.1,3.6,3.6,0,0,0-.73.49A9.92,9.92,0,0,0,30.65,22c.09.2.39.74.39.74l.11.19.12-.18s.22-.52.27-.7.34-1.11.33-1.18a2.87,2.87,0,0,0-.42-.66A.59.59,0,0,0,31.24,20Z"/><path d="M31.24,20a1.8,1.8,0,0,0-.36.13l0-.05a1,1,0,0,1,.39-.08Z"/><path d="M30.88,20.16a2.76,2.76,0,0,0-.68.49l-.12,0a3.29,3.29,0,0,1,.77-.5Z"/><rect x="30.81" y="20.11" width="0.11" height="0.06" transform="translate(-5.18 12.46) rotate(-21.1)"/><path d="M30.2,20.65A10.21,10.21,0,0,0,30.71,22l-.1,0a8.4,8.4,0,0,1-.53-1.39Z"/><polygon points="30.18 20.7 30.06 20.66 30.1 20.55 30.22 20.6 30.18 20.7"/><path d="M30.71,22c.09.2.38.74.38.74l-.07,0s-.31-.55-.4-.75Z"/><polygon points="30.63 22.05 30.59 21.95 30.69 21.91 30.73 22.01 30.63 22.05"/><path d="M31.08,22.7l.07.21h0L31,22.75Z"/><polygon points="31.04 22.8 30.97 22.71 31.04 22.66 31.11 22.75 31.04 22.8"/><path d="M31.16,22.91l.13-.17h0l-.13.17Z"/></g><g id="bba97ab7-13d3-49c9-8f08-1830f186eb1d" data-name="pelo int"><path class="a2e3b7d3-3266-48bf-af52-16bbef568821" d="M36.92,21.83c.62-.34.71-.14,1.2-.46a49.16,49.16,0,0,1,.56-4.89,7,7,0,0,0-.56-3.27,7.26,7.26,0,0,0-2.83-2.72A10.38,10.38,0,0,0,32,10.36a6.35,6.35,0,0,0-4.29,2.21,2.86,2.86,0,0,0-.45,1.56c.18-.08,0,0,.24-.08a7.08,7.08,0,0,1,3.9.55,7,7,0,0,1,3.3-.69,4.52,4.52,0,0,1,2,1.29,23.64,23.64,0,0,1,.14,3.72C36.86,19,36.93,21.69,36.92,21.83Z"/></g><g id="ecce5ace-0647-4b47-b6de-efcc1c50b4d2" data-name="cejas"><path d="M32.53,16.47A4.93,4.93,0,0,1,34.44,16l0,.25a6,6,0,0,0-1.91.36Z"/><path d="M34.44,16a2.71,2.71,0,0,1,1.46.29l0,.19a2.83,2.83,0,0,0-1.42-.23Z"/><rect x="34.39" y="15.95" width="0.11" height="0.24" transform="translate(-0.67 1.53) rotate(-2.52)"/><path d="M27.3,16.28a3,3,0,0,1,1.53-.37l0,.24a3.15,3.15,0,0,0-1.48.31Z"/><path d="M28.84,15.91c.91.09,1.09.43,1.54.57l0,.09a4.73,4.73,0,0,0-1.53-.42Z"/><polygon points="28.87 16.16 28.76 16.15 28.78 15.9 28.89 15.91 28.87 16.16"/></g><g id="b4558550-f579-4e93-bdfc-6d5a66298d3c" data-name="oreja der"><path class="aaae8350-63e1-4591-b722-a3f78cdab0fe" d="M36.78,22.06a1.5,1.5,0,0,1,.54-.58,1,1,0,0,1,.67,0,1.13,1.13,0,0,1,.43.72,1.11,1.11,0,0,1-.1.84,1.11,1.11,0,0,1-.79.27,1.15,1.15,0,0,1-.67-.26A1.7,1.7,0,0,1,36.78,22.06Z"/><path d="M36.76,22.05a1.46,1.46,0,0,1,.53-.63l.06.13a1.29,1.29,0,0,0-.54.52Z"/><path d="M37.29,21.42a1.07,1.07,0,0,1,.75,0l-.07.13a.8.8,0,0,0-.61,0Z"/><polygon points="37.3 21.57 37.24 21.44 37.34 21.39 37.4 21.53 37.3 21.57"/><path d="M38,21.39a1.22,1.22,0,0,1,.48.78l-.13,0a1.09,1.09,0,0,0-.4-.67Z"/><polygon points="38.01 21.54 37.91 21.49 37.98 21.37 38.07 21.42 38.01 21.54"/><path d="M38.5,22.16a1.22,1.22,0,0,1-.11.9L38.28,23a1.15,1.15,0,0,0,.09-.79Z"/><polygon points="38.38 22.25 38.35 22.14 38.49 22.11 38.52 22.21 38.38 22.25"/><path d="M38.39,23.07a1.22,1.22,0,0,1-.86.29v-.15a1,1,0,0,0,.74-.24Z"/><polygon points="38.36 23.11 38.24 23.02 38.31 22.94 38.42 23.02 38.36 23.11"/><path d="M37.53,23.36a1.36,1.36,0,0,1-.69-.3l0,0a1.19,1.19,0,0,0,.65.2Z"/><rect x="37.47" y="23.21" width="0.11" height="0.14"/></g></g><ellipse class="b0094a5a-3918-4121-8516-23a0c78ca4c8" cx="29.39" cy="19.83" rx="0.65" ry="1.19"/><path d="M29.39,21.07c-.4,0-.71-.54-.71-1.24s.31-1.24.71-1.24.71.55.71,1.24S29.79,21.07,29.39,21.07Zm0-2.37c-.32,0-.6.52-.6,1.13s.28,1.13.6,1.13.6-.52.6-1.13S29.72,18.7,29.39,18.7Z"/><ellipse class="b0094a5a-3918-4121-8516-23a0c78ca4c8" cx="34.64" cy="19.83" rx="0.65" ry="1.19"/><path d="M34.64,21.07c-.39,0-.71-.54-.71-1.24s.32-1.24.71-1.24.71.55.71,1.24S35,21.07,34.64,21.07Zm0-2.37c-.33,0-.59.51-.59,1.13s.26,1.13.59,1.13.6-.52.6-1.13S35,18.7,34.64,18.7Z"/><path class="bb4a6ea9-c865-4d57-a114-563bdeecca94" d="M40.15,12.8,42.28,9A.72.72,0,0,0,42,8c-1.28-.83-4.41-2.8-5.34-2.85S26.07,8,23.07,8.93A.72.72,0,0,0,22.68,10l2.51,4Z"/><path class="f3ff0479-16fa-4501-a08f-6f431c05e5d1" d="M25.19,8.29s1.65,5.29,2.08,5.64,2.61-.65,2.61-.65-1.68-1.66-2.51-5.65Z"/><path class="b782f2c9-9512-432b-a3c1-ae6b85987d2b" d="M26.16,15.42s3.72-3,12.8-1l1.19-1.59s-6.45-2.56-15,1.22Z"/></g></g></svg>