<svg xmlns="http://www.w3.org/2000/svg" viewBox="0 0 61.11 91.54"><defs><style>.a660b9cc-910e-48cb-84ed-a1416a9aab3c{fill:none;}.aa52c82a-4ee6-45e3-b561-4d2150774e5c{fill:#adadad;}.a07e5444-1b43-47bc-930e-5ffad84e61d4{fill:#363026;}.aa03bfcc-758e-402a-97ac-fa5c23eb7f4c{fill:#716b61;}.b7d815a2-adf6-4be1-bad5-9ae59db46b0a{fill:#453f31;}.f6b20fa1-fb2c-43ee-98f2-f8019e0018b0{fill:#aaa194;}</style></defs><title>T_3</title><g id="fc6b315c-1daa-413d-bb35-f721c1c1cfc5" data-name="Capa 2"><g id="b3a064a3-0770-49e0-85fc-8a0e8ebbdc4c" data-name="Objects"><rect class="a660b9cc-910e-48cb-84ed-a1416a9aab3c" x="0.13" y="0.12" width="60.86" height="91.29" rx="2.4"/><path class="aa52c82a-4ee6-45e3-b561-4d2150774e5c" d="M58.59,91.54H2.52A2.53,2.53,0,0,1,0,89V2.52A2.52,2.52,0,0,1,2.52,0H58.59a2.52,2.52,0,0,1,2.52,2.52V89A2.53,2.53,0,0,1,58.59,91.54ZM2.52.25A2.27,2.27,0,0,0,.25,2.52V89a2.28,2.28,0,0,0,2.27,2.28H58.59A2.28,2.28,0,0,0,60.86,89V2.52A2.27,2.27,0,0,0,58.59.25Z"/><path class="a07e5444-1b43-47bc-930e-5ffad84e61d4" d="M2,7.57l.1,0a.38.38,0,0,1,.13.08A1.19,1.19,0,0,0,2.7,8a1.77,1.77,0,0,0,.63.11,1.69,1.69,0,0,0,.84-.21A1.6,1.6,0,0,0,5,6.45a1.48,1.48,0,0,0-.24-.88,1.55,1.55,0,0,0-.61-.5,1.91,1.91,0,0,0-.77-.17l-.2,0L3,5,2.86,5a.25.25,0,0,1-.18-.08.27.27,0,0,1-.07-.2.37.37,0,0,1,0-.12l.07-.1L4.64,2.31l.11.15H1.88a.24.24,0,0,1-.19-.08.22.22,0,0,1-.08-.19A.22.22,0,0,1,1.69,2a.27.27,0,0,1,.19-.08H5.06a.27.27,0,0,1,.23.1.39.39,0,0,1,.06.2.43.43,0,0,1,0,.11l-.07.1L3.34,4.57l-.21-.12a.44.44,0,0,1,.19-.06,1.66,1.66,0,0,1,.26,0,2.13,2.13,0,0,1,1,.25,1.81,1.81,0,0,1,.74.71,2.07,2.07,0,0,1,.29,1.12,2.18,2.18,0,0,1-.31,1.16,2.15,2.15,0,0,1-.84.77,2.41,2.41,0,0,1-1.17.28,2.54,2.54,0,0,1-.77-.13,1.86,1.86,0,0,1-.66-.4A.47.47,0,0,1,1.74,8a.27.27,0,0,1,0-.12.34.34,0,0,1,.08-.21A.24.24,0,0,1,2,7.57Z"/><path class="a07e5444-1b43-47bc-930e-5ffad84e61d4" d="M59.11,84,59,84l-.13-.09a1.27,1.27,0,0,0-.46-.32,1.93,1.93,0,0,0-1.47.1,1.57,1.57,0,0,0-.61.59,1.73,1.73,0,0,0,0,1.74,1.49,1.49,0,0,0,.61.5,1.9,1.9,0,0,0,.77.16h.2l.18,0h.14a.22.22,0,0,1,.19.08.32.32,0,0,1,.07.2.2.2,0,0,1,0,.11.49.49,0,0,1-.07.11l-1.94,2.15-.1-.15h2.87a.27.27,0,0,1,.19.08.3.3,0,0,1,.08.2.25.25,0,0,1-.08.18.27.27,0,0,1-.19.08H56.05c-.12,0-.19,0-.23-.1a.4.4,0,0,1-.07-.19.2.2,0,0,1,0-.11.23.23,0,0,1,.07-.1L57.77,87l.21.13-.19.06-.27,0a2,2,0,0,1-1-.25,1.87,1.87,0,0,1-.75-.7,2.37,2.37,0,0,1,0-2.29,2.15,2.15,0,0,1,.84-.77,2.51,2.51,0,0,1,1.16-.27,2.28,2.28,0,0,1,.78.13,1.91,1.91,0,0,1,.65.4.29.29,0,0,1,.11.11.26.26,0,0,1,0,.11.33.33,0,0,1-.09.22A.26.26,0,0,1,59.11,84Z"/><path class="aa03bfcc-758e-402a-97ac-fa5c23eb7f4c" d="M4.74,10.12a.85.85,0,0,0,0-.42,1,1,0,0,0-1.89.16.75.75,0,0,0,0,.26,1,1,0,1,0,.81,1.63l-.07.52a.05.05,0,0,0,.05.06H4a.05.05,0,0,0,0-.06l-.07-.52a1,1,0,1,0,.81-1.63Z"/><path class="b7d815a2-adf6-4be1-bad5-9ae59db46b0a" d="M4,12.35H3.7a.05.05,0,0,1-.05,0s0,0,0-.05l.06-.48A1,1,0,0,1,3,12a1,1,0,0,1-.11-1.93.67.67,0,0,1,0-.24,1,1,0,0,1,1.07-1,1,1,0,0,1,.86.8.94.94,0,0,1,0,.41A1,1,0,0,1,4.65,12H4.59A.94.94,0,0,1,4,11.79l.07.48s0,0,0,.05A.05.05,0,0,1,4,12.35Zm-.23-.62h0v0l-.08.52s0,0,0,0l0,0H4l0,0s0,0,0,0l-.08-.52v0h0a.88.88,0,0,0,.7.26.93.93,0,0,0,.1-1.85h0s0,0,0,0a1.12,1.12,0,0,0,0-.41.93.93,0,0,0-.83-.77h-.1a1,1,0,0,0-.63.25.94.94,0,0,0-.3.69,1.07,1.07,0,0,0,0,.25s0,0,0,0h0A.93.93,0,0,0,3,12h.06a1,1,0,0,0,.65-.27Z"/><path class="f6b20fa1-fb2c-43ee-98f2-f8019e0018b0" d="M4.54,9.83h0a.1.1,0,0,1-.08-.1.56.56,0,0,0-.52-.56.09.09,0,0,1-.07-.1A.09.09,0,0,1,4,9a.77.77,0,0,1,.67.76A.11.11,0,0,1,4.54,9.83Z"/><path class="f6b20fa1-fb2c-43ee-98f2-f8019e0018b0" d="M4.55,10.15a.09.09,0,0,1-.09-.09V10a.09.09,0,1,1,.18,0v.1A.09.09,0,0,1,4.55,10.15Z"/><path class="aa03bfcc-758e-402a-97ac-fa5c23eb7f4c" d="M56.37,81.56a1,1,0,0,0,0,.43,1,1,0,0,0,1.9-.17,1.17,1.17,0,0,0,0-.26,1,1,0,0,0,.8-1,1,1,0,0,0-.9-.86,1,1,0,0,0-.71.27l.07-.52a.06.06,0,0,0-.06-.07h-.24a.07.07,0,0,0-.06.07l.08.52a1,1,0,0,0-.72-.27,1,1,0,0,0-.89.86A.94.94,0,0,0,56.37,81.56Z"/><path class="b7d815a2-adf6-4be1-bad5-9ae59db46b0a" d="M57.28,82.79h-.09a1,1,0,0,1-.86-.8.94.94,0,0,1,0-.41,1,1,0,0,1-.79-1,1,1,0,0,1,.91-.88,1,1,0,0,1,.69.24l-.06-.47a.06.06,0,0,1,0-.06.09.09,0,0,1,.06,0h.24a.06.06,0,0,1,.06,0s0,0,0,.06l-.07.47a1,1,0,1,1,.81,1.69,1,1,0,0,1,0,.24,1,1,0,0,1-.31.72A.94.94,0,0,1,57.28,82.79Zm-.76-3.1h-.06a.94.94,0,0,0-.09,1.86,0,0,0,0,1,0,0h0a.95.95,0,0,0,.81,1.19h.09a.9.9,0,0,0,.63-.24.93.93,0,0,0,.31-.7.73.73,0,0,0,0-.25h0s0,0,0,0a1,1,0,0,0,.78-1,.93.93,0,0,0-.88-.84h-.05a.94.94,0,0,0-.65.26h0s0,0,0,0l.07-.52s0,0,0,0h-.3a0,0,0,0,0,0,0l.07.52s0,0,0,0h0A.9.9,0,0,0,56.52,79.69Z"/><path class="f6b20fa1-fb2c-43ee-98f2-f8019e0018b0" d="M56.57,81.86h0a.07.07,0,0,1,.07.09c0,.29.25.52.53.57a.08.08,0,0,1,.07.1.09.09,0,0,1-.1.07.75.75,0,0,1-.67-.75A.09.09,0,0,1,56.57,81.86Z"/><path class="f6b20fa1-fb2c-43ee-98f2-f8019e0018b0" d="M56.56,81.54a.08.08,0,0,1,.08.08v.11a.08.08,0,0,1-.08.08.08.08,0,0,1-.09-.08v-.11A.08.08,0,0,1,56.56,81.54Z"/><path class="aa03bfcc-758e-402a-97ac-fa5c23eb7f4c" d="M34.16,13a3.76,3.76,0,0,0-3.24-4.74A3.74,3.74,0,0,0,27,13a3.75,3.75,0,1,0,3.19,6.4l-.29,2a.23.23,0,0,0,.23.26h1a.22.22,0,0,0,.22-.26l-.28-2A3.75,3.75,0,1,0,34.16,13Z"/><path class="b7d815a2-adf6-4be1-bad5-9ae59db46b0a" d="M31,21.76h-1a.3.3,0,0,1-.23-.11.26.26,0,0,1-.06-.23L30,19.57a3.75,3.75,0,0,1-2.71.92,3.81,3.81,0,0,1-.46-7.55,3.52,3.52,0,0,1-.13-1A3.82,3.82,0,0,1,28,9.16a3.75,3.75,0,0,1,2.93-1,3.81,3.81,0,0,1,3.32,4.76,3.81,3.81,0,1,1-3.18,6.63l.26,1.85a.3.3,0,0,1-.07.24A.29.29,0,0,1,31,21.76Zm-.89-2.44h0a.07.07,0,0,1,0,.07l-.29,2a.13.13,0,0,0,0,.12.14.14,0,0,0,.12.06h1a.17.17,0,0,0,.12-.05.2.2,0,0,0,0-.13l-.29-2a.07.07,0,0,1,0-.07.06.06,0,0,1,.08,0,3.67,3.67,0,1,0,3.12-6.28.05.05,0,0,1,0,0,.07.07,0,0,1,0-.06,3.66,3.66,0,0,0-3.18-4.65,3.6,3.6,0,0,0-2.83.94A3.66,3.66,0,0,0,27,13,.13.13,0,0,1,27,13a.05.05,0,0,1-.05,0,3.68,3.68,0,1,0,3.13,6.28Z"/><path class="f6b20fa1-fb2c-43ee-98f2-f8019e0018b0" d="M33.36,11.84h0a.35.35,0,0,1-.3-.38A2.27,2.27,0,0,0,31,9.25a.33.33,0,0,1-.28-.39.33.33,0,0,1,.39-.28,2.94,2.94,0,0,1,2.62,3A.34.34,0,0,1,33.36,11.84Z"/><path class="f6b20fa1-fb2c-43ee-98f2-f8019e0018b0" d="M33.41,13.11a.35.35,0,0,1-.35-.35v-.41a.35.35,0,0,1,.35-.34.34.34,0,0,1,.34.34v.41A.35.35,0,0,1,33.41,13.11Z"/><path class="aa03bfcc-758e-402a-97ac-fa5c23eb7f4c" d="M34.16,74.61A3.84,3.84,0,0,0,34.24,73a3.74,3.74,0,0,0-7.43.64,3.86,3.86,0,0,0,.14,1A3.74,3.74,0,1,0,30.14,81l-.29,2a.23.23,0,0,0,.23.25h1a.22.22,0,0,0,.22-.25L31,81a3.71,3.71,0,0,0,2.81,1,3.74,3.74,0,0,0,.38-7.43Z"/><path class="b7d815a2-adf6-4be1-bad5-9ae59db46b0a" d="M31,83.37h-1a.29.29,0,0,1-.23-.1.27.27,0,0,1-.06-.23L30,81.18a3.73,3.73,0,0,1-2.71.93,3.81,3.81,0,0,1-.46-7.56,3.47,3.47,0,0,1-.13-1A3.83,3.83,0,0,1,28,70.77a3.81,3.81,0,0,1,6.25,3.78,3.81,3.81,0,0,1-.46,7.56,3.77,3.77,0,0,1-2.72-.93L31.32,83a.28.28,0,0,1-.07.23A.26.26,0,0,1,31,83.37Zm-.89-2.44h0a.08.08,0,0,1,0,.07l-.29,2a.14.14,0,0,0,0,.12.14.14,0,0,0,.12.06h1a.14.14,0,0,0,.12-.06.17.17,0,0,0,0-.12l-.29-2a.08.08,0,0,1,0-.07A.08.08,0,0,1,31,81a3.6,3.6,0,0,0,2.75,1,3.67,3.67,0,0,0,.37-7.29l0,0a0,0,0,0,1,0,0,3.67,3.67,0,1,0-7.21-1,3.77,3.77,0,0,0,.14,1,.07.07,0,0,1,0,0,.1.1,0,0,1-.05,0A3.67,3.67,0,0,0,27.34,82a3.6,3.6,0,0,0,2.75-1Z"/><path class="f6b20fa1-fb2c-43ee-98f2-f8019e0018b0" d="M33.36,73.46h0a.35.35,0,0,1-.3-.38A2.26,2.26,0,0,0,31,70.87a.34.34,0,0,1,.11-.68,3,3,0,0,1,2.62,3A.35.35,0,0,1,33.36,73.46Z"/><path class="f6b20fa1-fb2c-43ee-98f2-f8019e0018b0" d="M33.41,74.72a.35.35,0,0,1-.35-.34V74a.35.35,0,0,1,.35-.34.34.34,0,0,1,.34.34v.41A.34.34,0,0,1,33.41,74.72Z"/><path class="aa03bfcc-758e-402a-97ac-fa5c23eb7f4c" d="M34.16,43.2a3.76,3.76,0,0,0-3.24-4.74,3.74,3.74,0,0,0-4,4.74,3.75,3.75,0,1,0,3.19,6.4l-.29,2a.23.23,0,0,0,.23.26h1a.22.22,0,0,0,.22-.26l-.28-2a3.75,3.75,0,1,0,3.19-6.4Z"/><path class="b7d815a2-adf6-4be1-bad5-9ae59db46b0a" d="M31,52h-1a.3.3,0,0,1-.23-.11.26.26,0,0,1-.06-.23L30,49.78a3.81,3.81,0,1,1-3.17-6.63,3.54,3.54,0,0,1-.13-1A3.81,3.81,0,0,1,28,39.37a3.75,3.75,0,0,1,2.93-1,3.81,3.81,0,0,1,3.32,4.76,3.81,3.81,0,1,1-3.18,6.63l.26,1.85a.3.3,0,0,1-.07.24A.29.29,0,0,1,31,52Zm-.89-2.44h0a.07.07,0,0,1,0,.07l-.29,2a.13.13,0,0,0,0,.12.14.14,0,0,0,.12.06h1a.17.17,0,0,0,.12,0,.2.2,0,0,0,0-.13l-.29-2a.07.07,0,0,1,0-.07.06.06,0,0,1,.08,0,3.65,3.65,0,0,0,2.54,1h.21a3.68,3.68,0,0,0,.37-7.3.05.05,0,0,1,0,0,.07.07,0,0,1,0-.06,3.66,3.66,0,0,0-3.18-4.65,3.63,3.63,0,0,0-2.83.94,3.67,3.67,0,0,0-1.2,2.71,3.72,3.72,0,0,0,.14,1,.13.13,0,0,1,0,.06.05.05,0,0,1-.05,0,3.68,3.68,0,1,0,3.13,6.28Z"/><path class="f6b20fa1-fb2c-43ee-98f2-f8019e0018b0" d="M33.36,42.05h0a.35.35,0,0,1-.3-.38A2.27,2.27,0,0,0,31,39.46a.33.33,0,0,1-.28-.39.33.33,0,0,1,.39-.28,2.94,2.94,0,0,1,2.62,3A.34.34,0,0,1,33.36,42.05Z"/><path class="f6b20fa1-fb2c-43ee-98f2-f8019e0018b0" d="M33.41,43.32a.35.35,0,0,1-.35-.35v-.41a.35.35,0,0,1,.35-.34.34.34,0,0,1,.34.34V43A.35.35,0,0,1,33.41,43.32Z"/></g></g></svg>