<svg xmlns="http://www.w3.org/2000/svg" viewBox="0 0 61.11 91.54"><defs><style>.aca152f1-4a2e-4da7-8c92-448343474e36{fill:none;}.a691f9c7-f305-4103-99d8-4058c7cd99f6{fill:#adadad;}.e6d42450-15d9-4322-8024-216cce16ba52{fill:#363026;}.a6fe6402-5997-4f2d-bbd0-dd5d21cb7807{fill:#716b61;}.f1b4605b-15d5-4a47-872b-5a382b5b9899{fill:#453f31;}.bbc350bd-0930-43fb-a993-2db708242b2d{fill:#aaa194;}</style></defs><title>T_4</title><g id="afd5b62e-1be1-4784-978b-be1692d516f6" data-name="Capa 2"><g id="ecc39932-6bbb-400e-8acf-0c0aee5e6e5a" data-name="Objects"><rect class="aca152f1-4a2e-4da7-8c92-448343474e36" x="0.13" y="0.12" width="60.86" height="91.29" rx="2.4"/><path class="a691f9c7-f305-4103-99d8-4058c7cd99f6" d="M58.59,91.54H2.52A2.53,2.53,0,0,1,0,89V2.52A2.52,2.52,0,0,1,2.52,0H58.59a2.52,2.52,0,0,1,2.52,2.52V89A2.53,2.53,0,0,1,58.59,91.54ZM2.52.25A2.27,2.27,0,0,0,.25,2.52V89a2.28,2.28,0,0,0,2.27,2.28H58.59A2.28,2.28,0,0,0,60.86,89V2.52A2.27,2.27,0,0,0,58.59.25Z"/><path class="e6d42450-15d9-4322-8024-216cce16ba52" d="M4.46,8.54a.22.22,0,0,1-.19-.08.26.26,0,0,1-.08-.2V2.71l.12.08L1.83,6.08,1.8,6H5.39a.26.26,0,0,1,.19.08.22.22,0,0,1,.08.19.26.26,0,0,1-.27.26h-4a.27.27,0,0,1-.2-.09.27.27,0,0,1-.08-.2A.33.33,0,0,1,1.19,6L4.24,2A.18.18,0,0,1,4.36,2l.11,0A.27.27,0,0,1,4.68,2a.3.3,0,0,1,.08.2V8.26a.29.29,0,0,1-.3.28Z"/><path class="e6d42450-15d9-4322-8024-216cce16ba52" d="M56.64,83a.24.24,0,0,1,.2.09.28.28,0,0,1,.08.2v5.55l-.12-.08,2.48-3.29,0,.1H55.72a.29.29,0,0,1-.2-.07.27.27,0,0,1-.08-.19.26.26,0,0,1,.08-.19.3.3,0,0,1,.2-.08h4a.28.28,0,0,1,.2.09.32.32,0,0,1,.08.21.33.33,0,0,1-.06.19l-3.05,4a.27.27,0,0,1-.12.09l-.11,0a.3.3,0,0,1-.21-.08.32.32,0,0,1-.08-.2v-6a.31.31,0,0,1,.29-.29Z"/><path class="a6fe6402-5997-4f2d-bbd0-dd5d21cb7807" d="M4.77,9.93a1.23,1.23,0,0,0,0-.43,1,1,0,0,0-1.9.17,1.17,1.17,0,0,0,0,.26,1,1,0,0,0-.8,1,1,1,0,0,0,.9.86.94.94,0,0,0,.71-.27l-.07.53s0,.06.06.06H4A.06.06,0,0,0,4,12.08L4,11.55a1,1,0,0,0,.72.27A1,1,0,0,0,5.56,11,.94.94,0,0,0,4.77,9.93Z"/><path class="f1b4605b-15d5-4a47-872b-5a382b5b9899" d="M4,12.16H3.73a.06.06,0,0,1-.06,0,.11.11,0,0,1,0-.06l.07-.47a.94.94,0,0,1-.64.24H3a1,1,0,0,1-.12-1.93,1,1,0,0,1,0-.24A.93.93,0,0,1,3.2,9a1,1,0,0,1,1.6.55.94.94,0,0,1,0,.41,1,1,0,0,1-.12,1.93A1,1,0,0,1,4,11.6l.06.47a.06.06,0,0,1,0,.06Zm-.23-.62h0s0,0,0,0l-.07.52a0,0,0,0,0,0,0H4a0,0,0,0,0,0,0l-.07-.52s0,0,0,0H4a.9.9,0,0,0,.64.26h.06a.94.94,0,0,0,.09-1.86h0a.94.94,0,0,0,0-.41.91.91,0,0,0-.83-.77H3.85A1,1,0,0,0,3.22,9a.93.93,0,0,0-.31.7.73.73,0,0,0,0,.25h0a1,1,0,0,0-.78,1A.93.93,0,0,0,3,11.8h.05a.92.92,0,0,0,.65-.26Z"/><path class="bbc350bd-0930-43fb-a993-2db708242b2d" d="M4.56,9.63h0a.08.08,0,0,1-.07-.09C4.51,9.25,4.23,9,4,9a.08.08,0,0,1-.07-.1A.09.09,0,0,1,4,8.8a.75.75,0,0,1,.67.76A.09.09,0,0,1,4.56,9.63Z"/><path class="bbc350bd-0930-43fb-a993-2db708242b2d" d="M4.57,10a.08.08,0,0,1-.08-.08V9.76a.08.08,0,0,1,.08-.08.08.08,0,0,1,.09.08v.11A.08.08,0,0,1,4.57,10Z"/><path class="a6fe6402-5997-4f2d-bbd0-dd5d21cb7807" d="M56.42,81.61a1.17,1.17,0,0,0,0,.42,1,1,0,0,0,1.9-.16,1.09,1.09,0,0,0,0-.26,1,1,0,0,0-.1-1.89.9.9,0,0,0-.71.26l.07-.52a.07.07,0,0,0-.06-.07h-.24s-.06,0-.06.07l.08.52a.93.93,0,0,0-.72-.26.94.94,0,0,0-.89.85A1,1,0,0,0,56.42,81.61Z"/><path class="f1b4605b-15d5-4a47-872b-5a382b5b9899" d="M57.34,82.84h-.09a1,1,0,0,1-.86-.81,1,1,0,0,1,0-.41,1,1,0,0,1,.12-1.92,1,1,0,0,1,.69.23l-.06-.47a.07.07,0,0,1,0-.06l.06,0h.24l.06,0a.14.14,0,0,1,0,.06l-.07.47a1,1,0,0,1,.64-.23h0a1,1,0,0,1,.12,1.92,1.07,1.07,0,0,1,0,.25,1,1,0,0,1-.31.72A1,1,0,0,1,57.34,82.84Zm-.76-3.11h-.06a1,1,0,0,0-.88.85.94.94,0,0,0,.79,1h0a1,1,0,0,0,0,.42.93.93,0,0,0,.83.77h.09a.9.9,0,0,0,.63-.24.93.93,0,0,0,.31-.69.78.78,0,0,0,0-.26h0a.94.94,0,0,0-.1-1.86,1,1,0,0,0-.7.26h0v0l.07-.52s0,0,0,0,0,0,0,0h-.24l0,0s0,0,0,0l.07.52v0h0A.9.9,0,0,0,56.58,79.73Z"/><path class="bbc350bd-0930-43fb-a993-2db708242b2d" d="M56.63,81.9h0a.09.09,0,0,1,.07.1.57.57,0,0,0,.53.56.1.1,0,0,1,.07.1.08.08,0,0,1-.1.07.74.74,0,0,1-.67-.75A.1.1,0,0,1,56.63,81.9Z"/><path class="bbc350bd-0930-43fb-a993-2db708242b2d" d="M56.61,81.58a.09.09,0,0,1,.09.09v.1a.09.09,0,0,1-.09.09.09.09,0,0,1-.08-.09v-.1A.09.09,0,0,1,56.61,81.58Z"/><path class="a6fe6402-5997-4f2d-bbd0-dd5d21cb7807" d="M48.11,13.63A3.79,3.79,0,0,0,48.19,12a3.74,3.74,0,0,0-7.43.63,3.81,3.81,0,0,0,.14,1A3.74,3.74,0,1,0,44.09,20l-.28,2.05a.22.22,0,0,0,.22.25H45a.23.23,0,0,0,.23-.25L44.92,20a3.71,3.71,0,0,0,2.81,1,3.74,3.74,0,0,0,.38-7.43Z"/><path class="f1b4605b-15d5-4a47-872b-5a382b5b9899" d="M45,22.39H44a.26.26,0,0,1-.22-.1.28.28,0,0,1-.07-.23L44,20.2a3.77,3.77,0,0,1-2.72.93,3.81,3.81,0,0,1-.46-7.56,3.76,3.76,0,0,1,1.12-3.78,3.74,3.74,0,0,1,2.93-1,3.8,3.8,0,0,1,3.32,4.75,3.81,3.81,0,0,1-.46,7.56A3.73,3.73,0,0,1,45,20.2l.25,1.86a.25.25,0,0,1-.07.23A.26.26,0,0,1,45,22.39ZM44.09,20h0a.08.08,0,0,1,0,.07l-.29,2a.17.17,0,0,0,0,.12.14.14,0,0,0,.12.06H45a.14.14,0,0,0,.12-.06.17.17,0,0,0,0-.12l-.29-2A.07.07,0,0,1,45,20a3.6,3.6,0,0,0,2.75,1,3.67,3.67,0,0,0,.38-7.29l-.05,0a.13.13,0,0,1,0-.06,3.67,3.67,0,1,0-7.21-1,3.77,3.77,0,0,0,.14,1,.13.13,0,0,1,0,.06l-.05,0A3.67,3.67,0,0,0,41.29,21,3.62,3.62,0,0,0,44,20Z"/><path class="bbc350bd-0930-43fb-a993-2db708242b2d" d="M47.31,12.48h0A.35.35,0,0,1,47,12.1a2.26,2.26,0,0,0-2-2.21.35.35,0,0,1-.28-.39A.33.33,0,0,1,45,9.22a2.93,2.93,0,0,1,2.62,3A.34.34,0,0,1,47.31,12.48Z"/><path class="bbc350bd-0930-43fb-a993-2db708242b2d" d="M47.36,13.74A.34.34,0,0,1,47,13.4V13a.34.34,0,0,1,.68,0v.41A.34.34,0,0,1,47.36,13.74Z"/><path class="a6fe6402-5997-4f2d-bbd0-dd5d21cb7807" d="M20.2,13.63A3.64,3.64,0,0,0,20.29,12a3.74,3.74,0,0,0-7.43.63,3.81,3.81,0,0,0,.14,1A3.74,3.74,0,1,0,16.19,20l-.29,2.05a.22.22,0,0,0,.22.25h1a.22.22,0,0,0,.22-.25L17,20a3.69,3.69,0,0,0,2.8,1,3.74,3.74,0,0,0,.38-7.43Z"/><path class="f1b4605b-15d5-4a47-872b-5a382b5b9899" d="M17.08,22.39h-1a.28.28,0,0,1-.22-.1.32.32,0,0,1-.07-.23l.26-1.86a3.73,3.73,0,0,1-2.71.93,3.81,3.81,0,0,1-.47-7.56A3.83,3.83,0,0,1,14,9.79a3.81,3.81,0,0,1,6.25,3.78,3.81,3.81,0,0,1-.46,7.56,3.74,3.74,0,0,1-2.72-.93l.26,1.86a.28.28,0,0,1-.07.23A.28.28,0,0,1,17.08,22.39ZM16.19,20h0s0,0,0,.07l-.28,2a.17.17,0,0,0,.15.18h1a.16.16,0,0,0,.12-.06.13.13,0,0,0,0-.12L17,20A.08.08,0,0,1,17,20a.06.06,0,0,1,.07,0,3.65,3.65,0,0,0,2.76,1,3.67,3.67,0,0,0,.37-7.29l0,0a.07.07,0,0,1,0-.06A3.55,3.55,0,0,0,20.22,12a3.67,3.67,0,0,0-7.29.62,3.4,3.4,0,0,0,.14,1,.13.13,0,0,1,0,.06l-.05,0A3.67,3.67,0,0,0,13.38,21a3.61,3.61,0,0,0,2.76-1Z"/><path class="bbc350bd-0930-43fb-a993-2db708242b2d" d="M19.41,12.48h0a.34.34,0,0,1-.3-.38A2.26,2.26,0,0,0,17,9.89a.34.34,0,0,1-.28-.39.33.33,0,0,1,.39-.28,2.94,2.94,0,0,1,2.62,3A.34.34,0,0,1,19.41,12.48Z"/><path class="bbc350bd-0930-43fb-a993-2db708242b2d" d="M19.45,13.74a.34.34,0,0,1-.34-.34V13a.35.35,0,0,1,.69,0v.41A.35.35,0,0,1,19.45,13.74Z"/><path class="a6fe6402-5997-4f2d-bbd0-dd5d21cb7807" d="M48.11,74a3.78,3.78,0,0,0,.08-1.65A3.74,3.74,0,1,0,40.9,74a3.74,3.74,0,0,0,.38,7.43,3.71,3.71,0,0,0,2.81-1l-.28,2a.22.22,0,0,0,.22.26H45a.23.23,0,0,0,.23-.26l-.29-2a3.71,3.71,0,0,0,2.81,1A3.74,3.74,0,0,0,48.11,74Z"/><path class="f1b4605b-15d5-4a47-872b-5a382b5b9899" d="M45,82.73H44a.26.26,0,0,1-.22-.1.28.28,0,0,1-.07-.23L44,80.55a3.81,3.81,0,1,1-3.18-6.63,4,4,0,0,1-.13-1,3.85,3.85,0,0,1,1.25-2.82,3.81,3.81,0,0,1,6.25,3.79,3.81,3.81,0,0,1-.46,7.55A3.77,3.77,0,0,1,45,80.55l.25,1.85a.25.25,0,0,1-.07.23A.26.26,0,0,1,45,82.73Zm-.89-2.43h0a.07.07,0,0,1,0,.07l-.29,2a.17.17,0,0,0,0,.12.14.14,0,0,0,.12.06H45a.14.14,0,0,0,.12-.06.17.17,0,0,0,0-.12l-.29-2a.07.07,0,0,1,0-.07.06.06,0,0,1,.08,0A3.67,3.67,0,1,0,48.1,74a.09.09,0,0,1-.05,0A.13.13,0,0,1,48,74a3.66,3.66,0,0,0-3.18-4.65,3.6,3.6,0,0,0-2.83.94A3.67,3.67,0,0,0,40.83,73,3.72,3.72,0,0,0,41,74,.13.13,0,0,1,41,74a.09.09,0,0,1-.05,0A3.68,3.68,0,1,0,44,80.32.06.06,0,0,1,44.09,80.3Z"/><path class="bbc350bd-0930-43fb-a993-2db708242b2d" d="M47.31,72.82h0a.35.35,0,0,1-.31-.38,2.27,2.27,0,0,0-2-2.21.34.34,0,0,1-.28-.39.33.33,0,0,1,.39-.28,2.94,2.94,0,0,1,2.62,3A.34.34,0,0,1,47.31,72.82Z"/><path class="bbc350bd-0930-43fb-a993-2db708242b2d" d="M47.36,74.09a.35.35,0,0,1-.34-.35v-.41a.34.34,0,1,1,.68,0v.41A.35.35,0,0,1,47.36,74.09Z"/><path class="a6fe6402-5997-4f2d-bbd0-dd5d21cb7807" d="M20.2,74a3.64,3.64,0,0,0,.09-1.65A3.74,3.74,0,1,0,13,74a3.74,3.74,0,0,0,.38,7.43,3.71,3.71,0,0,0,2.81-1l-.29,2a.23.23,0,0,0,.22.26h1a.22.22,0,0,0,.22-.26l-.28-2a3.68,3.68,0,0,0,2.8,1A3.74,3.74,0,0,0,20.2,74Z"/><path class="f1b4605b-15d5-4a47-872b-5a382b5b9899" d="M17.08,82.73h-1a.28.28,0,0,1-.22-.1.32.32,0,0,1-.07-.23l.26-1.85a3.77,3.77,0,0,1-2.71.92,3.81,3.81,0,0,1-.47-7.55,4,4,0,0,1-.12-1,3.81,3.81,0,1,1,7.5,1,3.81,3.81,0,1,1-3.18,6.63l.26,1.85a.28.28,0,0,1-.07.23A.28.28,0,0,1,17.08,82.73Zm-.89-2.43h0a.06.06,0,0,1,0,.07l-.28,2a.17.17,0,0,0,.15.18h1a.16.16,0,0,0,.12-.06.13.13,0,0,0,0-.12l-.28-2a.07.07,0,0,1,0-.07,0,0,0,0,1,.07,0A3.68,3.68,0,1,0,20.19,74s0,0,0,0a.07.07,0,0,1,0-.06,3.55,3.55,0,0,0,.08-1.62,3.65,3.65,0,0,0-3.26-3,3.58,3.58,0,0,0-2.83.94A3.64,3.64,0,0,0,12.93,73a3.36,3.36,0,0,0,.14,1,.13.13,0,0,1,0,.06A.09.09,0,0,1,13,74a3.68,3.68,0,0,0,.37,7.3,3.72,3.72,0,0,0,2.76-1S16.17,80.3,16.19,80.3Z"/><path class="bbc350bd-0930-43fb-a993-2db708242b2d" d="M19.41,72.82h0a.34.34,0,0,1-.3-.38A2.27,2.27,0,0,0,17,70.23a.33.33,0,0,1-.28-.39.33.33,0,0,1,.39-.28,3,3,0,0,1,2.62,3A.34.34,0,0,1,19.41,72.82Z"/><path class="bbc350bd-0930-43fb-a993-2db708242b2d" d="M19.45,74.09a.35.35,0,0,1-.34-.35v-.41a.35.35,0,0,1,.69,0v.41A.35.35,0,0,1,19.45,74.09Z"/></g></g></svg>