<svg xmlns="http://www.w3.org/2000/svg" xmlns:xlink="http://www.w3.org/1999/xlink" viewBox="0 0 120 120.03"><defs><style>.ac422526-b79f-46ef-a6a2-52d2b1c4594b{fill:none;}.ad06887e-74d5-4f45-bdbf-6acb080d4bfb,.b208a9a1-ec78-4c5b-9cfe-cc27fd7bc4fd{fill:#6599ff;}.ad06887e-74d5-4f45-bdbf-6acb080d4bfb{stroke:#000;stroke-miterlimit:10;stroke-width:0.2px;}.ad58155d-24f2-4a53-99db-c91ef03392d7{fill:#7b2325;}.ae054f72-e4b9-498a-8c33-a5ef163445e0{clip-path:url(#b204992e-c2a9-4c87-89da-4be83372e894);}.edb4f839-f452-47ab-8572-f45b606eb185{fill:#f06b6b;}.b23fe227-e109-4bbc-bd2a-b974ed3c2ca8{fill:#fff;}.b36b6915-7ba6-435b-975c-10fbd148b32c{fill:#114283;}.b90398c5-f578-44d4-a0b6-3a58a4561a43{fill:#ff9531;}.b28a42c4-c9f3-4982-806c-78d77dc790c5{fill:#a0dbf0;}.b0669308-3c62-43f0-85a8-df0f62e56f1a{fill:#4a91cd;}.ba07ff1c-91e0-4d30-ab15-ebc2f3783a76{fill:#f5ece3;}</style><clipPath id="b204992e-c2a9-4c87-89da-4be83372e894"><path class="ac422526-b79f-46ef-a6a2-52d2b1c4594b" d="M17.34,61.42c-1,1.07,2.63,7.17,4.55,9.19s7.43,4.7,9.46,5.35c3.5,1.16,16.19,2,18.7,1.92a129.12,129.12,0,0,0,15.37-2.73c1.92-.61,10.23-3.29,12.37-5.74,2-2.25,5.08-10.94,3.49-12-.54-.38-3.11.93-4.1,1.2C74.56,59.27,67.12,61,66,61.13c-1.64.27-16.4.92-16.62.92S36.93,63.2,33.7,63.2c-2.15,0-7.38-.39-10.45-.77C21.5,62.24,17.89,60.82,17.34,61.42Z"/></clipPath></defs><title>feedback</title><g id="b6c3ccfc-e602-412e-8691-4bf0f24ef766" data-name="Capa 2"><g id="b9501ac5-bca7-45ab-b185-38ce5c414c93" data-name="Capa 1"><rect class="ac422526-b79f-46ef-a6a2-52d2b1c4594b" width="120" height="120"/><g id="ba5d9f94-5e30-4bf8-9045-d9db81af9c3a" data-name="bb728e09-c765-47dc-a651-087f8f7700a9"><path class="b208a9a1-ec78-4c5b-9cfe-cc27fd7bc4fd" d="M78,89c1.15-.38,14.71-13.84,15.59-14.77,1-1.09,14.11-14.49,17.17-19.09A19.55,19.55,0,0,0,113.45,50c.65-2.35.72-7,.32-7.27s-3.28,1.79-5.63,3.77a40.61,40.61,0,0,0-3.39,3.55c-2.46,2.63-16.41,18.55-16.52,18.71S72.59,83.35,72.37,84.11c-.05.17-1.53,3,.44,4.82C74.94,91,77.79,89.15,78,89Z"/><path d="M75.19,90a3.4,3.4,0,0,1-2.44-1c-1.21-1.13-1.38-2.85-.5-4.83V84.1c.14-.46,5.25-5.41,15.2-14.71l.69-.64c.19-.29,14.31-16.35,16.51-18.71.14-.14.34-.37.59-.66a29.6,29.6,0,0,1,2.81-2.9c2-1.64,5.3-4,5.74-3.78s.31,5.24-.29,7.38a18.94,18.94,0,0,1-2.69,5.16c-1.27,1.9-5.17,6.65-16.58,18.48l-.6.62C93.06,75,79.27,88.68,78,89.12h-.06A6.11,6.11,0,0,1,75.19,90Zm38.52-47.14c-.4,0-3,1.69-5.51,3.77a27.11,27.11,0,0,0-2.79,2.88c-.26.29-.45.53-.6.67C102.5,52.62,88.56,68.51,88.3,68.85c0,0-.23.23-.7.66C74.6,81.67,72.53,83.9,72.46,84.14v.1c-.85,1.9-.69,3.55.45,4.62,1.7,1.61,3.87.78,5,.14H78c1.08-.36,14.43-13.56,15.55-14.74l.6-.63c11.4-11.82,15.3-16.55,16.56-18.45A18.81,18.81,0,0,0,113.36,50c.68-2.42.69-6.94.37-7.18Z"/></g><g id="f4639815-2712-4fc3-8eea-934d7288b445" data-name="ba0d49cc-1cad-4e4a-8ce4-e2ef93ee1cec"><path class="b208a9a1-ec78-4c5b-9cfe-cc27fd7bc4fd" d="M37.43,120c.27-2,.54-3.46.54-3.46s1.1,1.43,2.79,3.46Z"/><path d="M37.54,119.87h3c-1.29-1.55-2.23-2.74-2.55-3.16C37.94,117.16,37.74,118.33,37.54,119.87Z"/></g><g id="b3017806-d8a8-43e4-8213-0f452b0a88c2" data-name="fd8f395b-4c83-430d-a75b-3ded25e1c190"><g id="ae86704b-1ff4-4d40-a986-e680f2f7bc66" data-name="a684c37b-b6e4-4422-a90a-17c4e9f4f579"><path class="b208a9a1-ec78-4c5b-9cfe-cc27fd7bc4fd" d="M41.68,120c-1.31-7.92-3.36-17.81-3.44-18.6,0-.38-1.64-7-.44-9.63,1.64-3.66,7.11-6.4,10.76-8,5.53-2.51,14.17-5.85,19.86-3.83,3.66,1.32,7.38,8,8.69,9.69,2.47,3.17,10.94,13.51,13.68,20.84a93.19,93.19,0,0,1,3,9.53Z"/></g></g><g id="bf95f068-2467-439c-8216-7d6ee7fcaa53" data-name="a0394163-d2d8-4510-bc93-f2da43971188"><path class="b208a9a1-ec78-4c5b-9cfe-cc27fd7bc4fd" d="M76.42,55.89c-.88,3.23.49,10.12,1.37,11.16.71.88,6.12,2.41,8.8,3.17a114.07,114.07,0,0,0,12.34,2s-2.77-10.92-5.72-15c-2.51-3.44-8.81-9.4-10.94-9.07C80.85,48.34,77.24,53.05,76.42,55.89Z"/><path d="M99.05,72.33h-.13a114.65,114.65,0,0,1-12.35-2h-.09c-2.81-.8-8-2.28-8.76-3.17-.93-1.1-2.26-8-1.39-11.24h0c.82-2.85,4.42-7.6,5.93-7.83h.19c2.39,0,8.53,6,10.83,9.13,2.93,4,5.72,14.88,5.72,15ZM76.5,55.92C75.66,59,77,66,77.85,67c.7.85,6.09,2.38,8.68,3.12h.09a111.38,111.38,0,0,0,12.19,2c-.32-1.23-2.93-11.06-5.67-14.86-2.58-3.54-8.49-9.06-10.68-9.06h-.18C81,48.42,77.35,53,76.5,55.92Z"/></g><path class="ad06887e-74d5-4f45-bdbf-6acb080d4bfb" d="M5.8,31.33C-.87,49.49,8.27,77.06,13,81.81c4.44,4.38,14.61,14.07,46.55,7.12,26.8-5.85,31-15.53,33.31-21.28,3.12-7.65-.17-38-14.22-51.09C66,4.75,49.89,1.14,32,6.44,18.38,10.43,10.51,18.42,5.8,31.33Z"/><path class="b208a9a1-ec78-4c5b-9cfe-cc27fd7bc4fd" d="M19.29,76.15c-.4,1.64-4.7,5.86-7.21,7.88C9.06,86.49.8,90.42.8,90.42s-.56-12,1-16.78c1.32-4,5.14-11.56,7.66-12"/><path d="M.8,90.51h0l-.05-.07c-.05-.07-.54-12,1.05-16.81C3,69.75,6.87,62,9.48,61.57a.09.09,0,0,1,.11.07h0a.08.08,0,0,1-.06.1h0c-2.54.43-6.34,8.1-7.58,11.92C.44,78.13.83,88.94.89,90.28c1-.5,8.36-4.06,11.13-6.32s6.81-6.28,7.18-7.83a.12.12,0,0,1,.11-.07.09.09,0,0,1,.07.11h0c-.42,1.73-4.87,6-7.24,7.93C9.14,86.54.93,90.46.84,90.5Z"/><g id="e3f91053-b4a5-4285-955a-8aedf80b44c8" data-name="b40cbba7-546b-4319-8c46-30a612c65503"><g id="ee7c772c-8151-417e-b956-d06a465cf65c" data-name="bbdc0ad4-fbbc-4617-b928-ceab836dd800"><path class="ad58155d-24f2-4a53-99db-c91ef03392d7" d="M17.34,61.42c-1,1.07,2.63,7.17,4.55,9.19s7.43,4.7,9.46,5.35c3.5,1.16,16.19,2,18.7,1.92a129.12,129.12,0,0,0,15.37-2.73c1.92-.61,10.23-3.29,12.37-5.74,2-2.25,5.08-10.94,3.49-12-.54-.38-3.11.93-4.1,1.2C74.56,59.27,67.12,61,66,61.13c-1.64.27-16.4.92-16.62.92S36.93,63.2,33.7,63.2c-2.15,0-7.38-.39-10.45-.77C21.5,62.24,17.89,60.82,17.34,61.42Z"/><path d="M49.55,78.07c-3.32,0-14.84-.81-18.26-1.94-1.9-.61-7.44-3.19-9.54-5.4-1.82-1.93-5.65-8.22-4.54-9.44.39-.42,1.58-.13,3.48.36a17.72,17.72,0,0,0,2.58.56c3.05.38,8.31.77,10.43.77,2.55,0,10.71-.71,14.19-1l1.51-.13c.11,0,14.93-.64,16.59-.92,1.11-.16,8.55-1.86,11.15-2.51.29-.08.76-.27,1.25-.47,1.54-.62,2.57-1,3-.7a1.33,1.33,0,0,1,.48,1c.32,2.56-2.21,9.3-4,11.29-2,2.33-9.38,4.82-12.45,5.79A131.86,131.86,0,0,1,50,78.07ZM17.85,61.44a.5.5,0,0,0-.37.1h0c-.84.91,2.5,6.8,4.54,8.94s7.5,4.71,9.38,5.31c3.5,1.16,16.32,2,18.65,1.91A132.35,132.35,0,0,0,65.37,75c2.37-.75,10.26-3.36,12.28-5.69,1.7-1.94,4.18-8.52,3.86-11a1,1,0,0,0-.33-.76c-.3-.2-1.77.39-2.65.74-.51.21-1,.4-1.3.49-2.61.65-10.07,2.35-11.18,2.51-1.65.28-16.54.93-16.65.93l-1.48.13c-3.49.3-11.65,1-14.22,1-2.17,0-7.36-.37-10.47-.76A18.18,18.18,0,0,1,20.6,62,15.25,15.25,0,0,0,17.85,61.44Z"/></g><g id="f843d61b-6f23-46f0-a8cd-42fe426b2012" data-name="e3387bfd-a3dc-4eb8-a96f-cd2bd47a8a01"><g class="ae054f72-e4b9-498a-8c33-a5ef163445e0"><path class="edb4f839-f452-47ab-8572-f45b606eb185" d="M31.29,79.74a24.32,24.32,0,0,0,13.84,2.62c2.08-.32,5.74-1,6.29-3,.38-1.44-1.37-3.4-2.51-4.38-2.24-1.86-6.46-2.51-9.35-2.9a19.8,19.8,0,0,0-7.82.22c-1.59.49-4.6,1.32-4.82,3C26.7,77.17,29.65,78.87,31.29,79.74Z"/><path d="M42.69,82.63a25.31,25.31,0,0,1-11.44-2.81c-2-1.07-4.64-2.7-4.42-4.52.22-1.66,3-2.49,4.59-3l.29-.09c2.71-.87,6.7-.39,7.86-.23,3.64.49,7.3,1.18,9.4,2.92,1.4,1.21,2.9,3.1,2.54,4.47-.59,2.17-4.64,2.8-6.37,3.07A15.46,15.46,0,0,1,42.69,82.63Zm-7-10.74a13.51,13.51,0,0,0-3.95.5l-.29.09c-1.59.48-4.26,1.3-4.46,2.84-.21,1.71,2.37,3.3,4.32,4.34h0a24.42,24.42,0,0,0,13.77,2.62c1.7-.27,5.66-.89,6.22-3C51.7,78,50,76,48.85,75.05c-2.34-2-7-2.58-9.3-2.88a29.05,29.05,0,0,0-3.84-.28Z"/></g></g><g id="b87355ce-b36e-413e-8725-b1da4fedd07b" data-name="a652cd25-cf8e-4604-a4d9-bcaeece1e7fd"><g class="ae054f72-e4b9-498a-8c33-a5ef163445e0"><path class="b23fe227-e109-4bbc-bd2a-b974ed3c2ca8" d="M2.19,45.5C9.08,33.8,30.14,29,43.6,27.07s34.07-2.58,44.52,6c5,4.16,8.59,20,8.59,20S68.1,63.55,49.89,65.68,3.18,66,1.82,64.25C1.26,63.6-.71,50.37,2.19,45.5Z"/><path d="M30.31,66.74c-3.5,0-7.11-.07-10.74-.22C9.76,66.1,2.43,65.19,1.75,64.3c-.54-.62-2.54-14,.37-18.85h0c3.06-5.19,9.21-9.54,18.28-12.92A114.17,114.17,0,0,1,43.59,27,109.8,109.8,0,0,1,67,26c9.4.76,16.54,3.09,21.23,6.92,5,4.13,8.58,19.86,8.62,20a.11.11,0,0,1,0,.08h0l-.34.12c-7,2.56-30.78,10.8-46.61,12.65A175.66,175.66,0,0,1,30.31,66.74ZM60,26a118.35,118.35,0,0,0-16.39,1.21A112.9,112.9,0,0,0,20.46,32.7c-9,3.36-15.15,7.68-18.19,12.85h0c-2.88,4.83-.92,18-.38,18.64,1.3,1.69,29.85,3.54,48,1.41C65.69,63.74,89.43,55.51,96.33,53l.28-.1c-.29-1.18-3.78-15.9-8.54-19.8S76.3,27,66.94,26.22C64.6,26,62.26,26,60,26Z"/></g></g></g><g id="b54902ee-4e76-44cd-ba2b-7e7aa24e9a85" data-name="aa7e2a74-2552-4062-bf5f-89ff7ebff397"><g id="ae82835f-e162-4494-b44a-61d62d9de73e" data-name="af65a38b-17cf-4860-9ae5-a5486d0dc3b0"><path class="b23fe227-e109-4bbc-bd2a-b974ed3c2ca8" d="M35.39,58.41c2.79,1.37,7.33,1.26,10.41.6,3.44-.77,8.53-2.51,10.4-5.53,1.26-2.07,1.26-5.68.6-8-.54-1.9-2.08-4.48-3.8-5.4-3.17-1.69-8.53-.87-11.87.44-3.5,1.37-8.31,4.66-9.57,8.21A9.43,9.43,0,0,0,32.25,55,8.07,8.07,0,0,0,35.39,58.41Z"/><path d="M32.6,54.74c-.76-1.64-1.36-4.21-.76-5.85l-.75-.27a10,10,0,0,0,.66,6.56Z"/><path d="M31.89,48.89C33,45.45,37.8,42.33,41.24,41l-.32-.88c-3.56,1.44-8.48,4.82-9.79,8.54Z"/><rect x="31.33" y="48.35" width="0.36" height="0.81" transform="translate(-24.99 62.07) rotate(-70.38)"/><path d="M41.24,41c3.29-1.31,8.54-2.13,11.48-.49l.44-.82c-3.34-1.7-8.86-.88-12.25.43Z"/><rect x="40.89" y="40.05" width="0.36" height="0.93" transform="translate(-11.56 16.89) rotate(-20.44)"/><path d="M52.73,40.41a9.57,9.57,0,0,1,3.72,5.09l.6-.17c-.6-2-2.07-4.66-3.94-5.68Z"/><polygon points="52.84 40.55 52.52 40.38 52.96 39.56 53.27 39.73 52.84 40.55"/><path d="M35.56,58.13a7.48,7.48,0,0,1-2.9-3.39l-.93.44a9.06,9.06,0,0,0,3.55,3.45Z"/><polygon points="35.45 58.7 35.12 58.56 35.34 58.06 35.67 58.21 35.45 58.7"/><path class="b23fe227-e109-4bbc-bd2a-b974ed3c2ca8" d="M91.08,48.13c-1.75,2-5.69,2.89-8.37,3.06-3.07.22-7.61-.17-9.9-2.19-1.53-1.37-2.36-4.32-2.58-6.34s-.21-5.2,1-6.79c2-2.51,6.94-3.77,10.17-3.39,3.5.39,8.15,3.17,10,6.18.82,1.26.87,3.45.82,4.92S92,47,91.08,48.13Z"/><path d="M92.79,43.64a9.9,9.9,0,0,0-.94-5.14l-.71.44c.71,1.14.71,3.17.65,4.66Z"/><path d="M91.84,38.4A16.45,16.45,0,0,0,81.5,32.11l-.11.88c3.39.38,7.94,3,9.74,5.91Z"/><rect x="91.06" y="38.48" width="0.84" height="0.36" transform="translate(-6.77 53.17) rotate(-31.31)"/><path d="M81.5,32.1c-3.33-.39-8.47.93-10.61,3.55l.72.55c1.86-2.4,6.67-3.61,9.79-3.23Z"/><polygon points="81.57 33 81.22 32.95 81.32 32.09 81.68 32.14 81.57 33"/><path d="M70.91,35.6c-1.37,1.75-1.21,5-1,7.06l.6-.06c-.22-2-.11-5,1.1-6.46Z"/><rect x="71.08" y="35.42" width="0.36" height="0.9" transform="translate(-0.43 70.86) rotate(-52.73)"/><path d="M91.37,48.09a7.75,7.75,0,0,0,1.4-4.49l-1-.06c-.06,1.44,0,3.25-.82,4.24Z"/><path d="M32.6,54.74c-.76-1.64-1.36-4.21-.76-5.85l-.75-.27a10,10,0,0,0,.66,6.56Z"/><path d="M92.79,43.64a9.9,9.9,0,0,0-.94-5.14l-.71.44c.71,1.14.71,3.17.65,4.66Z"/></g><g id="b30b4c59-5ebb-43b2-befd-90f7da0dc16e" data-name="fa760feb-74c8-4848-9760-775351d7346b"><path class="b36b6915-7ba6-435b-975c-10fbd148b32c" d="M48.17,50.55a4.41,4.41,0,1,0,8.71-1.38v0a4.41,4.41,0,1,0-8.75,1.13C48.14,50.36,48.15,50.45,48.17,50.55Z"/><path d="M52.61,54.55a4.71,4.71,0,1,1,4.44-5.45,4.89,4.89,0,0,1-.77,3.51,4.41,4.41,0,0,1-3,1.89A5,5,0,0,1,52.61,54.55Zm-.15-9.07a4.74,4.74,0,0,0-.65.05,4.33,4.33,0,0,0-3.46,5h0a4.33,4.33,0,0,0,4.88,3.63A4,4,0,0,0,56,52.4a4.5,4.5,0,0,0,.71-3.25A4.34,4.34,0,0,0,52.46,45.48Z"/><path class="b36b6915-7ba6-435b-975c-10fbd148b32c" d="M80.13,45.35a4.38,4.38,0,1,0,3.67-5h-.06A4.39,4.39,0,0,0,80.13,45.35Z"/><path d="M84.46,49.25A4.57,4.57,0,0,1,80,45.38h0a4.58,4.58,0,0,1,3.76-5.18h.06a4.56,4.56,0,0,1,1.91,8.92,5,5,0,0,1-.54.08A3.59,3.59,0,0,1,84.46,49.25Zm-.72-8.88v.18a4.21,4.21,0,0,0-3.46,4.78h0a4.18,4.18,0,0,0,4.77,3.52h0a4.2,4.2,0,0,0-1.26-8.31Z"/></g></g><g id="fd6da57c-2fa0-4126-a7ca-c79c6bb5f2f7" data-name="bb86682a-e289-4836-946f-8eeecba04666"><path class="b90398c5-f578-44d4-a0b6-3a58a4561a43" d="M75.16,54.36c2.68.49,9,0,9,0A28.85,28.85,0,0,0,93,62.56a18.65,18.65,0,0,0,6.24,1.8c.76.22,5.08.1,5.68,2,2.35,6.78-15.8,8-19.91,9.68-4.59,1.79-16,9.35-23.79,7.22-2.63-.72-5.41-4.37-6.29-5.41s-1.93-4-4.22-7.8c-2.57-4.22-5.47-8.1-5.47-8.15s8.7-2.51,12-4.49C60,55.83,62,51.07,65.31,50.52S72.1,53.83,75.16,54.36Z"/><path d="M64.2,83.69a11.26,11.26,0,0,1-3-.37c-2.41-.66-5-3.77-6-5.09l-.3-.36a17,17,0,0,1-1.54-2.77c-.67-1.35-1.49-3-2.68-5-2-3.25-4.13-6.27-5-7.56-.43-.6-.43-.6-.43-.64s0-.08.92-.36c2.31-.71,8.46-2.61,11.1-4.2a13.7,13.7,0,0,0,3.22-3.09c1.46-1.72,3-3.49,4.91-3.82s4,.87,5.89,2a13.08,13.08,0,0,0,4,1.83h0c2.64.48,8.88,0,8.94,0h.08A29.21,29.21,0,0,0,93,62.49a14.63,14.63,0,0,0,5.25,1.6,8.37,8.37,0,0,1,1,.18,7.32,7.32,0,0,0,.94.12c1.62.15,4.32.4,4.81,1.91a3.22,3.22,0,0,1-.21,2.76c-1.82,3.19-9.19,4.69-14.58,5.78A39.1,39.1,0,0,0,85,76.09c-1,.41-2.41,1.12-4,1.91C76.36,80.36,69.79,83.69,64.2,83.69ZM45.38,62l.35.49c.92,1.29,3.07,4.31,5.05,7.56,1.19,2,2,3.67,2.69,5A17.62,17.62,0,0,0,55,77.76l.29.35c1.08,1.32,3.6,4.39,6,5,6,1.64,14.22-2.51,19.65-5.26,1.63-.83,3-1.54,4.09-1.95a37.33,37.33,0,0,1,5.21-1.27c5.35-1.08,12.67-2.57,14.45-5.69a3,3,0,0,0,.2-2.61c-.45-1.4-3.19-1.65-4.66-1.79a6.67,6.67,0,0,1-1-.13,8.35,8.35,0,0,0-1-.17A14.53,14.53,0,0,1,93,62.64a29,29,0,0,1-8.87-8.19c-.61,0-6.41.46-8.94,0a13.37,13.37,0,0,1-4-1.85c-1.91-1.13-3.89-2.3-5.76-2S62,52.67,60.52,54.37a13.8,13.8,0,0,1-3.26,3.12c-2.66,1.6-8.82,3.51-11.14,4.22Z"/><path d="M65.64,52.94a7.08,7.08,0,0,1,.6,1.91h1a4.84,4.84,0,0,0-1.1-2.13Z"/><path d="M66.24,54.85a8.57,8.57,0,0,1-.54,2l.38.16a5.37,5.37,0,0,0,1.15-2.19Z"/><rect x="66.24" y="54.67" width="0.99" height="0.36"/><path d="M67.94,52.56a7.92,7.92,0,0,0,1.31,1.79l.38-.49a12.68,12.68,0,0,1-1.43-1.59Z"/><rect x="67.83" y="52.23" width="0.43" height="0.36" transform="translate(-17.78 55.72) rotate(-39.81)"/><path d="M69.2,54.36a10.93,10.93,0,0,0,2.29,1.09l.11-.21s-1.47-.93-2-1.37Z"/><polygon points="69.34 54.47 69.06 54.25 69.44 53.76 69.72 53.98 69.34 54.47"/></g><g id="a9cdb245-f92a-4e26-b162-75c5caecb81a" data-name="b3929f88-4029-4a46-95e0-ae5c534cc3f5"><path d="M25.88,26.39a.51.51,0,0,1-.35-.13.54.54,0,0,1-.06-.76,25.19,25.19,0,0,1,12.59-7.11,24.34,24.34,0,0,1,14.11.69.52.52,0,0,1,.3.67v0a.53.53,0,0,1-.69.29h0a23.79,23.79,0,0,0-13.45-.63,24.55,24.55,0,0,0-12,6.76A.59.59,0,0,1,25.88,26.39Z"/><path d="M66,19.18a.53.53,0,0,1-.54-.52.55.55,0,0,1,.14-.37,15.83,15.83,0,0,1,9.51-5.2.56.56,0,0,1,.62.45.53.53,0,0,1-.46.61h0A14.81,14.81,0,0,0,66.43,19,.55.55,0,0,1,66,19.18Z"/></g><g id="f7475dcf-566e-4bf8-846d-4b232eee9cce" data-name="a25e7927-e3a9-4dc9-8888-38b8e469a74a"><path class="b208a9a1-ec78-4c5b-9cfe-cc27fd7bc4fd" d="M41.67,98.61c-.49.72-13.72,6.18-13.83,6.84-.17.82,10.61,10.76,13.67,13.78.21.21.53.5.84.77H29.55c-4.94-4.23-10.38-9.74-10.1-13.14.46-5.19,17.74-14.65,18.62-14.76"/><path d="M27.75,105.43C27.63,106,32.11,110.37,38,116c1.44,1.38,2.69,2.57,3.46,3.33.15.15.5.46.76.7h.28l-.92-.83c-.76-.76-2-2-3.46-3.33-3.84-3.66-10.28-9.79-10.19-10.37.14-.35,4.08-2.13,7.24-3.57,4-1.79,6.36-2.9,6.59-3.24l-.15-.1a56,56,0,0,1-6.51,3.18C30.14,104,27.81,105.08,27.75,105.43Z"/><path d="M29.68,120c-4.74-4.07-10.43-9.72-10.14-13.13.24-2.7,5.08-6.5,9.11-9.22a64.58,64.58,0,0,1,9.43-5.46V92c-1,.12-18.24,9.61-18.7,14.85-.29,3.49,5.27,9,10.05,13.14Z"/></g><path class="b28a42c4-c9f3-4982-806c-78d77dc790c5" d="M113.34,72s-3,8.61,5.86,11.18c0,0-10.81-4.12-13.65,1.93,0,0,.82-10.73-.92-11.55C104.62,73.52,111.87,73.7,113.34,72Z"/><path class="b0669308-3c62-43f0-85a8-df0f62e56f1a" d="M113.34,72l.17.06v.06a11.15,11.15,0,0,0-.46,3.14,8,8,0,0,0,1.16,4.31,8.48,8.48,0,0,0,5,3.43v.18l-.07.17-.16-.07a22.58,22.58,0,0,0-7-1.3,9.32,9.32,0,0,0-3.69.67,5.07,5.07,0,0,0-2.61,2.51.17.17,0,0,1-.21.1.18.18,0,0,1-.14-.19s0-.63.09-1.6.1-2.28.1-3.63a29.71,29.71,0,0,0-.22-4A7.16,7.16,0,0,0,105,74.4a1.18,1.18,0,0,0-.45-.66.18.18,0,0,1-.11-.21.2.2,0,0,1,.19-.14h.59a37.35,37.35,0,0,0,4.23-.24,13.68,13.68,0,0,0,2.29-.47,3.1,3.1,0,0,0,1.44-.79.18.18,0,0,1,.24,0,.19.19,0,0,1,.08.22l-.18-.06.15.12a3.43,3.43,0,0,1-1.63.91,25.53,25.53,0,0,1-6.63.72h-.6v-.3l.08-.16a1.45,1.45,0,0,1,.65.86,9.79,9.79,0,0,1,.45,2.46c.09,1,.12,2.08.12,3.15,0,2.71-.2,5.25-.2,5.26h-.18l-.17-.08a5.37,5.37,0,0,1,2.79-2.7,9.37,9.37,0,0,1,3.84-.72A23.35,23.35,0,0,1,119.25,83a.19.19,0,0,1,.13.23.2.2,0,0,1-.23.14h0a8.86,8.86,0,0,1-5.27-3.59,8.29,8.29,0,0,1-1.23-4.5,11.07,11.07,0,0,1,.51-3.33l.18.06.14.12Z"/><path class="b28a42c4-c9f3-4982-806c-78d77dc790c5" d="M21.69,96.76s-6.82,5.24-7,7.31c0,0-6.19-9-8.89-9.53,0,0,7-1.27,7.78-4C13.59,90.57,14.54,95.17,21.69,96.76Z"/><path class="b0669308-3c62-43f0-85a8-df0f62e56f1a" d="M21.69,96.76l.11.15-.29.23c-.65.51-2.29,1.82-3.78,3.23a21.83,21.83,0,0,0-2,2.08,3.48,3.48,0,0,0-.88,1.62.2.2,0,0,1-.2.18.22.22,0,0,1-.14-.08l-.28-.39c-.6-.87-2.15-3-3.87-5.06A28.08,28.08,0,0,0,7.85,96a5.21,5.21,0,0,0-2.07-1.32.18.18,0,0,1-.16-.18.17.17,0,0,1,.15-.18l.3-.06A24.52,24.52,0,0,0,10,93.12,10.85,10.85,0,0,0,12.2,92a3,3,0,0,0,1.2-1.47.19.19,0,0,1,.23-.13.21.21,0,0,1,.13.13h0A6.41,6.41,0,0,0,15.2,93a11.65,11.65,0,0,0,6.52,3.51.17.17,0,0,1,.14.21h0a.19.19,0,0,1-.07.11l-.11-.15-.05.18a11.84,11.84,0,0,1-6.81-3.75,6.44,6.44,0,0,1-1.41-2.59h.36a3.62,3.62,0,0,1-1.63,1.86,15.32,15.32,0,0,1-4,1.69c-1.28.36-2.26.55-2.27.55v-.37a3.1,3.1,0,0,1,1.23.58,27.92,27.92,0,0,1,5,5.3c1.55,2,2.74,3.73,2.75,3.73l-.16.1h-.18a2.24,2.24,0,0,1,.36-1,20.87,20.87,0,0,1,3.88-4.14c1.49-1.31,2.8-2.31,2.81-2.32l.11.15v.19Z"/><path class="ba07ff1c-91e0-4d30-ab15-ebc2f3783a76" d="M93.75,120c-1.06-3.3-2.54-10.54-6.5-16.24a181.2,181.2,0,0,0-10.83-15l-.25-.37-.39-.58-.44-.66-.43-.62-.31-.44-.27-.39-.22-.32-.19-.25-.2-.27A108.21,108.21,0,0,1,46.1,91.13c1.39,2.59,9.7,25.6,7.31,28.86Z"/><path d="M53.43,120h0a.08.08,0,0,1,0-.11h0C55.67,115,46.12,91.4,46,91.17a.08.08,0,0,1,.12-.12c.39,1,9.68,23.92,7.32,28.84A.09.09,0,0,1,53.43,120Z"/><path d="M90.87,110.4c-2.46-6.61-9.69-15.79-12.78-19.71-.35-.45-.66-.84-.9-1.16s-.68-.94-1.17-1.68c-.62-.91-1.37-2-2.23-3.18l-.17.07c.86,1.14,1.63,2.29,2.25,3.21.49.75.89,1.33,1.17,1.69l1,1.16c3.08,3.92,10.3,13.08,12.75,19.66,1.21,3.24,3,9.5,3,9.5h.18S92.09,113.69,90.87,110.4Z"/><path d="M38.06,91.45l-.18.36-.12.3-.22.1a3.8,3.8,0,0,1,.18-.47c0-.1.09-.2.14-.3"/><path d="M38.33,101.4a6,6,0,0,0-.13-.72.66.66,0,0,0-.05-.29l-.17.09a1.89,1.89,0,0,0,.05.23c.06.36.12.63.12.7,0,.29.3,1.71.72,3.85.75,3.85,1.75,8.91,2.59,14l.21.14c-.84-5.06-1.88-10.33-2.62-14.16C38.65,103.16,38.36,101.67,38.33,101.4Z"/><polygon points="53.35 119.85 53.27 119.99 53.49 119.99 53.56 119.8 53.35 119.85"/></g></g></svg>