<svg xmlns="http://www.w3.org/2000/svg" xmlns:xlink="http://www.w3.org/1999/xlink" viewBox="0 0 331.27 328.95"><defs><style>.cls-1,.cls-13,.cls-16{fill:none;}.cls-2,.cls-3,.cls-4{fill:#6599ff;}.cls-10,.cls-11,.cls-13,.cls-14,.cls-15,.cls-16,.cls-2,.cls-3,.cls-4,.cls-6,.cls-7,.cls-9{stroke:#000;}.cls-2{stroke-miterlimit:10;}.cls-10,.cls-15,.cls-2,.cls-3,.cls-6,.cls-9{stroke-width:0.5px;}.cls-10,.cls-11,.cls-14,.cls-15,.cls-16,.cls-3,.cls-4,.cls-6,.cls-7,.cls-9{stroke-linecap:round;}.cls-10,.cls-11,.cls-13,.cls-14,.cls-15,.cls-16,.cls-3,.cls-4,.cls-6,.cls-7,.cls-9{stroke-linejoin:round;}.cls-4{stroke-width:0.75px;}.cls-5{clip-path:url(#clip-path);}.cls-6{fill:#f5ece3;}.cls-7{fill:#7b2325;}.cls-8{clip-path:url(#clip-path-2);}.cls-9{fill:#f06b6b;}.cls-10,.cls-11,.cls-12{fill:#fff;}.cls-14{fill:#114283;}.cls-15{fill:#ff9531;}.cls-16{stroke-width:3px;}.cls-17{fill:#a0dbf0;}.cls-18{fill:#4a91cd;}</style><clipPath id="clip-path" transform="translate(0.12)"><path class="cls-1" d="M189.1,211.69c10.22,3.66,20.59,22.42,24.25,27,6.86,8.85,30.49,37.67,38.12,58.1,3,8.11,6,17,8.48,26.44-.24,1-36.91-.22-78.79.13s-66.87,0-66.87,0c-3.66-22.17-9.13-49.48-9.36-51.69,0-1.07-4.58-19.52-1.22-26.84,4.57-10.21,19.82-17.84,30-22.41C149.15,215.35,173.24,206.05,189.1,211.69Z"/></clipPath><clipPath id="clip-path-2" transform="translate(0.12)"><path class="cls-1" d="M46.68,160.15c-2.75,3,7.32,20,12.66,25.62,5.64,5.95,20.73,13.11,26.38,14.94,9.75,3.21,45.13,5.65,52.15,5.34,5.79-.15,36.59-5.64,42.84-7.62,5.34-1.68,28.52-9.15,34.47-16,5.48-6.26,14.18-30.5,9.75-33.55-1.52-1.07-8.69,2.59-11.43,3.35-7.32,1.83-28.06,6.56-31.11,7-4.57.76-45.74,2.59-46.35,2.59S101.27,165,92.27,165c-6,0-20.58-1.07-29.12-2.13C58.27,162.44,48.2,158.48,46.68,160.15Z"/></clipPath></defs><title>kuno feedback positivo_1</title><g id="Layer_2" data-name="Layer 2"><g id="Layer_4" data-name="Layer 4"><g id="Pato"><g id="brazo_izq" data-name="brazo izq"><path class="cls-2" d="M215.79,237.16c3.2-1.07,41-38.58,43.45-41.17,2.9-3.05,39.34-40.41,47.88-53.22,2-2.9,6.1-9.15,7.48-14.33,1.83-6.56,2-19.67.91-20.28-.91-.46-9.15,5-15.71,10.52-4.72,4.11-8.08,8.54-9.45,9.91-6.86,7.32-45.74,51.69-46.05,52.15-.46.46-43.61,40.56-44.22,42.69-.15.46-4.27,8.24,1.22,13.42C207.25,242.49,215.18,237.46,215.79,237.16Z" transform="translate(0.12)"/></g><g id="cola"><path class="cls-3" d="M102.69,323.35c.73-5.7,1.48-9.64,1.48-9.64s3.07,4,7.79,9.64Z" transform="translate(0.12)"/></g><g id="cuerpo"><g id="cuerpo-2" data-name="cuerpo"><path class="cls-4" d="M114.5,323.35c-3.66-22.09-9.34-49.53-9.57-51.73,0-1.07-4.58-19.52-1.22-26.84,4.57-10.21,19.82-17.84,30-22.41,15.4-7,39.49-16.32,55.35-10.68,10.22,3.66,20.59,22.42,24.25,27,6.86,8.85,30.49,37.67,38.12,58.1,3,8.09,6,17.13,8.5,26.57Z" transform="translate(0.12)"/></g><g id="detalle"><g class="cls-5"><path class="cls-6" d="M280.61,323.35H161.48c-.35-4.9-.74-9.43-1.2-13.15-3.66-29.43-27.29-77-19.37-97.44,3.36-8.39,19.22-23.48,31.26-27.45,11.59-3.81,32.79-.45,40.57,4,20.58,11.89,41.62,63.13,54.74,92.56,5.25,11.86,11.51,30.51,16.46,46.86h-3.33Z" transform="translate(0.12)"/></g></g></g><g id="cabeza"><g id="pelo_extIzq" data-name="pelo extIzq"><path class="cls-2" d="M211.36,144.75c-2.44,9,1.38,28.21,3.82,31.11,2,2.44,17.07,6.71,24.55,8.84,10.36,2.9,35.37,7.47,35.37,7.47s-8.69-32.32-16.92-43.76c-7-9.61-24.55-26.23-30.5-25.31C223.71,123.71,213.65,136.82,211.36,144.75Z" transform="translate(0.12)"/></g><g id="cabeza-2" data-name="cabeza"><path class="cls-3" d="M14.5,76.29C-4.1,126.91,21.37,203.76,34.63,217,47,229.23,75.35,256.22,164.4,236.85c74.72-16.31,86.3-43.3,92.86-59.31,8.69-21.35-.46-105.83-39.64-142.43C182.24,2.18,137.41-7.89,87.39,6.9,49.58,18,27.62,40.3,14.5,76.29Z" transform="translate(0.12)"/></g><g id="pelo_extDer" data-name="pelo extDer"><path class="cls-2" d="M52.11,201.23C51,205.81,39,217.55,32,223.19,23.59,230.05.57,241,.57,241S-1,207.64,3.47,194.22C7.13,182.93,17.8,162,24.81,160.82" transform="translate(0.12)"/></g><g id="boca"><g id="boca-2" data-name="boca"><path class="cls-7" d="M46.68,160.15c-2.75,3,7.32,20,12.66,25.62,5.64,5.95,20.73,13.11,26.38,14.94,9.75,3.21,45.13,5.65,52.15,5.34,5.79-.15,36.59-5.64,42.84-7.62,5.34-1.68,28.52-9.15,34.47-16,5.48-6.26,14.18-30.5,9.75-33.55-1.52-1.07-8.69,2.59-11.43,3.35-7.32,1.83-28.06,6.56-31.11,7-4.57.76-45.74,2.59-46.35,2.59S101.27,165,92.27,165c-6,0-20.58-1.07-29.12-2.13C58.27,162.44,48.2,158.48,46.68,160.15Z" transform="translate(0.12)"/></g><g id="lengua"><g class="cls-8"><path class="cls-9" d="M85.56,211.24c10.22,5.79,27,9.14,38.58,7.31,5.8-.91,16-2.74,17.54-8.38,1.06-4-3.81-9.46-7-12.2-6.25-5.19-18-7-26.07-8.08-6.41-.92-15.56-1.38-21.81.61-4.42,1.37-12.81,3.66-13.42,8.38C72.75,204.07,81,208.8,85.56,211.24Z" transform="translate(0.12)"/></g></g><g id="dientes"><g class="cls-8"><path class="cls-10" d="M4.44,115.78c19.21-32.63,77.92-46,115.43-51.39,37.21-5.34,95-7.17,124.13,16.62,14,11.59,23.94,55.66,23.94,55.66-.16,0-79.75,29.43-130.53,35.38-50.48,5.94-130.23.91-134-4C1.85,166.25-3.64,129.35,4.44,115.78Z" transform="translate(0.12)"/></g><g class="cls-8"><path class="cls-11" d="M280.9,265.22c-19.22,32.47-77.77,46-115.28,51.38-37.21,5.34-96.68,8.85-124.28-16.62C17.4,278,16,195.22,16,195.07s81.12,22.87,130.68,20c51.23-3.05,126.71-40.11,131.59-36.14C281.35,181.5,294,242.8,280.9,265.22Z" transform="translate(0.12)"/></g></g></g><g id="ojos"><g id="ojos-2" data-name="ojos"><path class="cls-12" d="M97,151.77c7.78,3.81,20.43,3.5,29,1.67,9.61-2.13,23.79-7,29-15.4,3.51-5.79,3.51-15.86,1.68-22.41-1.52-5.19-5.79-12.35-10.67-14.95-8.85-4.72-23.79-2.44-33.09,1.22-9.76,3.82-23.18,13-26.69,22.88-1.67,5-.3,12.65,2,17.38C89.83,145.67,93.49,149.94,97,151.77Z" transform="translate(0.12)"/><path d="M89.22,141.55c-2.13-4.58-3.81-11.74-2.13-16.32L85,124.47c-1.83,5.34-.45,13.42,1.83,18.3Z" transform="translate(0.12)"/><path d="M87.24,125.23c3.2-9.6,16.47-18.29,26.07-22.11l-.91-2.44c-9.91,4-23.64,13.42-27.29,23.79Z" transform="translate(0.12)"/><path class="cls-13" d="M87.24,125.23l-2.13-.76" transform="translate(0.12)"/><path d="M113.31,103.12c9.15-3.66,23.79-5.94,32-1.37l1.22-2.29c-9.3-4.72-24.71-2.44-34.16,1.22Z" transform="translate(0.12)"/><path class="cls-13" d="M113.31,103.12l-.91-2.44" transform="translate(0.12)"/><path d="M145.34,101.6c4.42,2.44,8.84,9,10.37,14.18l1.67-.46c-1.67-5.49-5.79-13-11-15.86Z" transform="translate(0.12)"/><path class="cls-13" d="M145.18,101.75l1.22-2.29" transform="translate(0.12)"/><path d="M97.46,151c-3.36-1.67-6.56-6.1-8.09-9.45l-2.59,1.22a25,25,0,0,0,9.91,9.61Z" transform="translate(0.12)"/><path class="cls-13" d="M97.3,151l-.61,1.38" transform="translate(0.12)"/><path class="cls-12" d="M252.23,123.1c-4.88,5.64-15.86,8.08-23.33,8.54-8.54.61-21.2-.46-27.6-6.1-4.27-3.81-6.56-12.05-7.17-17.69s-.61-14.49,2.9-18.91c5.49-7,19.37-10.52,28.36-9.45,9.76,1.07,22.72,8.84,27.91,17.23,2.28,3.51,2.44,9.61,2.28,13.72S254.82,120.05,252.23,123.1Z" transform="translate(0.12)"/><path d="M257,110.59c.3-4.11-.31-10.52-2.6-14.33l-2,1.22c2,3.2,2,8.85,1.83,13Z" transform="translate(0.12)"/><path d="M254.36,96c-5.49-8.54-18.75-16.32-28.82-17.54l-.3,2.44c9.45,1.07,22.11,8.39,27.14,16.47Z" transform="translate(0.12)"/><path class="cls-13" d="M254.36,96.11l-2,1.22" transform="translate(0.12)"/><path d="M225.54,78.42c-9.3-1.07-23.63,2.59-29.58,9.91l2,1.53c5.19-6.71,18.61-10.07,27.3-9Z" transform="translate(0.12)"/><path class="cls-13" d="M225.54,78.46l-.3,2.4" transform="translate(0.12)"/><path d="M196,88.18c-3.81,4.88-3.35,13.88-2.74,19.67l1.67-.15c-.61-5.64-.3-14,3.05-18Z" transform="translate(0.12)"/><path class="cls-13" d="M196,88.18l2,1.52" transform="translate(0.12)"/><path d="M253.06,123c2.75-3.2,3.74-8.55,3.9-12.52l-2.75-.15c-.15,4,.16,9.06-2.28,11.8Z" transform="translate(0.12)"/><path d="M89.22,141.55c-2.13-4.58-3.81-11.74-2.13-16.32L85,124.47c-1.83,5.34-.45,13.42,1.83,18.3Z" transform="translate(0.12)"/><path d="M257,110.59c.3-4.11-.31-10.52-2.6-14.33l-2,1.22c2,3.2,2,8.85,1.83,13Z" transform="translate(0.12)"/></g><g id="pupilas"><path class="cls-14" d="M132.63,129.86a12.51,12.51,0,0,0,14.18,10.52c6.86-1.07,11.13-7.63,10.06-14.49-1.22-6.86-7.31-11.59-14.18-10.52C136,116.44,131.56,123,132.63,129.86Z" transform="translate(0.12)"/><path class="cls-14" d="M221.71,115.37a12.21,12.21,0,1,0,10.06-13.88A12.21,12.21,0,0,0,221.71,115.37Z" transform="translate(0.12)"/></g></g><g id="El_pico" data-name="El pico"><path class="cls-15" d="M207.86,140.48c7.47,1.37,25,0,25,0s9.76,14.64,24.71,22.87c8.08,4.43,15.09,4.27,17.38,5,2.13.61,14.18.3,15.86,5.49,6.55,18.9-44.07,22.41-55.51,27-12.81,5-44.52,26.07-66.33,20.12-7.32-2-15.09-12.19-17.53-15.09-2.6-3.2-5.34-11-11.75-21.65-7.16-11.75-15.24-22.57-15.24-22.72s24.24-7,33.39-12.51c7.78-4.42,13.42-17.69,22.57-19.21S199.32,139,207.86,140.48Z" transform="translate(0.12)"/><path d="M181.32,136.52c0,.15,1.83,4,1.68,5.33h2.75c-.16-2.44-3.05-6.1-3.05-5.94Z" transform="translate(0.12)"/><path d="M183,141.85c.15,1.38-1.52,5.49-1.52,5.65l1.06.45s3.05-3.66,3.21-6.1Z" transform="translate(0.12)"/><path class="cls-13" d="M183,141.85h2.75" transform="translate(0.12)"/><path d="M187.73,135.45s2.13,3.81,3.66,5l1.06-1.37a36.59,36.59,0,0,1-4-4.42Z" transform="translate(0.12)"/><path class="cls-13" d="M187.58,135.45l.91-.76" transform="translate(0.12)"/><path d="M191.24,140.48c1.67,1.37,6.4,3.05,6.4,3.05l.3-.61s-4.11-2.59-5.64-3.81Z" transform="translate(0.12)"/><path class="cls-13" d="M191.24,140.48l1.06-1.37" transform="translate(0.12)"/></g><g id="cejas"><path class="cls-16" d="M143.2,43.5s-16.62-7-38.42-1.83C82.51,47,70.47,61,70.47,61" transform="translate(0.12)"/><path class="cls-16" d="M182.39,40.91a42.63,42.63,0,0,1,25.62-14" transform="translate(0.12)"/></g></g><g id="brazo_der" data-name="brazo der"><path class="cls-2" d="M114.51,263.84c-1.37,2-38.27,17.23-38.58,19.06-.45,2.29,29.59,30,38.12,38.43.58.57,1.34,1.26,2.21,2H80.56c-13.77-11.8-28.8-27-28-36.48C53.82,272.38,102,246,104.45,245.7" transform="translate(0.12)"/></g><path class="cls-17" d="M314.29,189.55s-8.43,24,16.35,31.16c0,0-30.15-11.49-38.07,5.37,0,0,2.3-29.89-2.55-32.19C290,193.89,310.2,194.4,314.29,189.55Z" transform="translate(0.12)"/><path class="cls-18" d="M314.29,189.55l.49.17-.06.17a30.62,30.62,0,0,0-1.29,8.75,22,22,0,0,0,3.25,12c2.52,3.93,6.83,7.47,14.1,9.57l-.14.5-.19.49L330,221c-2-.72-10.77-3.63-19.42-3.63a25.64,25.64,0,0,0-10.29,1.87,14,14,0,0,0-7.26,7,.5.5,0,0,1-.6.28.52.52,0,0,1-.39-.54s.14-1.76.27-4.47.28-6.34.28-10.1a86.25,86.25,0,0,0-.61-11.25,20.43,20.43,0,0,0-.92-4,3.22,3.22,0,0,0-1.27-1.84.51.51,0,0,1-.29-.59.52.52,0,0,1,.52-.4h1.63a98,98,0,0,0,11.81-.67,37.94,37.94,0,0,0,6.39-1.29,8.87,8.87,0,0,0,4-2.21.53.53,0,0,1,.66-.12.54.54,0,0,1,.23.63l-.49-.17.4.33a9.76,9.76,0,0,1-4.52,2.54c-5.82,1.82-14.82,2-18.51,2-1,0-1.65,0-1.65,0v-.52l.22-.47a4.09,4.09,0,0,1,1.8,2.41,27.76,27.76,0,0,1,1.27,6.85c.24,2.74.33,5.8.33,8.79,0,7.56-.55,14.64-.55,14.65l-.52,0-.47-.22a15,15,0,0,1,7.78-7.53,26.49,26.49,0,0,1,10.71-2c10.14,0,20.2,3.85,20.23,3.86a.52.52,0,0,1-.33,1c-7.47-2.15-12-5.85-14.69-10a23.11,23.11,0,0,1-3.42-12.57,30.69,30.69,0,0,1,1.42-9.27l.49.18.4.33Z" transform="translate(0.12)"/><path class="cls-17" d="M58.79,258.69s-19,14.61-19.48,20.36c0,0-17.27-25.23-24.79-26.56,0,0,19.48-3.54,21.69-11.07C36.21,241.42,38.87,254.26,58.79,258.69Z" transform="translate(0.12)"/><path class="cls-18" d="M58.79,258.69l.32.41-.82.64c-1.82,1.43-6.38,5.09-10.52,9a60.08,60.08,0,0,0-5.49,5.81c-1.46,1.82-2.39,3.49-2.45,4.52a.52.52,0,0,1-.95.26s-.27-.39-.76-1.09c-1.69-2.41-6-8.48-10.79-14.08a78,78,0,0,0-7.11-7.51c-2.26-2.05-4.35-3.43-5.79-3.67a.53.53,0,0,1-.44-.51.52.52,0,0,1,.43-.51l.83-.17a68.61,68.61,0,0,0,11-3.25,28.87,28.87,0,0,0,6.09-3.19,8.34,8.34,0,0,0,3.35-4.1.52.52,0,0,1,1,0v0a17.75,17.75,0,0,0,4,7.07c3.14,3.59,8.63,7.64,18.18,9.77a.52.52,0,0,1,.21.92l-.32-.41-.12.51c-10.06-2.24-15.82-6.62-19-10.47a18.08,18.08,0,0,1-3.93-7.2l.51-.11.5.15c-.62,2.07-2.35,3.77-4.54,5.19a43.88,43.88,0,0,1-11.23,4.71c-3.57,1-6.32,1.53-6.33,1.53l-.09-.51.09-.51a9.26,9.26,0,0,1,3.43,1.6c4.27,2.94,9.66,9.21,14,14.77s7.66,10.4,7.67,10.41l-.43.29-.52,0a6.75,6.75,0,0,1,1-2.75c2-3.44,6.69-7.89,10.84-11.54s7.8-6.44,7.81-6.45l.32.42-.12.51Z" transform="translate(0.12)"/></g></g></g></svg>