<svg xmlns="http://www.w3.org/2000/svg" viewBox="0 0 120 120"><defs><style>.a8a05920-1248-4b97-b98a-36cb1481a72d,.a916a97a-28db-4da9-8933-8b87bf22e83f,.ab105620-c0fc-4ad0-8c18-c476ea5f5d71,.f05b63d1-74d0-4793-bbb8-5c6389d28fbd{fill:none;}.a50001c4-2f56-4a76-9554-d14cb39f2555,.a7fed3d7-bdd4-4da5-bf9c-285dc3082db7,.edbbfaa6-79f2-4ace-992c-d88566ed8370{fill:#6599ff;}.a50001c4-2f56-4a76-9554-d14cb39f2555,.a7fed3d7-bdd4-4da5-bf9c-285dc3082db7,.a8a05920-1248-4b97-b98a-36cb1481a72d,.a916a97a-28db-4da9-8933-8b87bf22e83f,.ab105620-c0fc-4ad0-8c18-c476ea5f5d71,.bf47c531-5ee1-483d-9700-8f69bbd0b727,.fdef338a-4663-4da4-a065-79c7d4122c41{stroke:#000;}.a7fed3d7-bdd4-4da5-bf9c-285dc3082db7{stroke-miterlimit:10;}.a50001c4-2f56-4a76-9554-d14cb39f2555,.a7fed3d7-bdd4-4da5-bf9c-285dc3082db7,.fdef338a-4663-4da4-a065-79c7d4122c41{stroke-width:0.18px;}.a50001c4-2f56-4a76-9554-d14cb39f2555,.a916a97a-28db-4da9-8933-8b87bf22e83f,.ab105620-c0fc-4ad0-8c18-c476ea5f5d71,.bf47c531-5ee1-483d-9700-8f69bbd0b727,.fdef338a-4663-4da4-a065-79c7d4122c41{stroke-linecap:round;}.a50001c4-2f56-4a76-9554-d14cb39f2555,.a8a05920-1248-4b97-b98a-36cb1481a72d,.a916a97a-28db-4da9-8933-8b87bf22e83f,.ab105620-c0fc-4ad0-8c18-c476ea5f5d71,.bf47c531-5ee1-483d-9700-8f69bbd0b727,.fdef338a-4663-4da4-a065-79c7d4122c41{stroke-linejoin:round;}.aaac4550-0076-4c0e-8df9-da72e84c1f99{fill:#fff;}.bf47c531-5ee1-483d-9700-8f69bbd0b727{fill:#114283;}.a8a05920-1248-4b97-b98a-36cb1481a72d,.bf47c531-5ee1-483d-9700-8f69bbd0b727{stroke-width:0.36px;}.ab105620-c0fc-4ad0-8c18-c476ea5f5d71{stroke-width:1.08px;}.a916a97a-28db-4da9-8933-8b87bf22e83f{stroke-width:0.72px;}.fdef338a-4663-4da4-a065-79c7d4122c41{fill:#ff9531;}.e745cf37-0b54-42bf-a3ff-2d09b3d5e784{fill:#f5ece3;}</style></defs><title>Mistake feedback_KUNO</title><g id="fdcf0468-955e-4ed6-90f9-16cc0319eb61" data-name="Capa 2"><g id="b68e15b5-9986-4525-976a-cb041e096d58" data-name="Capa 1"><rect class="f05b63d1-74d0-4793-bbb8-5c6389d28fbd" width="120" height="120"/><g id="a19cbf02-fb5a-49bd-970b-c12d986ec7ec" data-name="Layer 2"><g id="f57274bf-b9b1-4c0c-9133-249e8bf6dd6d" data-name="Layer 4"><g id="ab81ea36-63c6-4636-bb66-a9e68188d02c" data-name="brazo izq"><path class="a7fed3d7-bdd4-4da5-bf9c-285dc3082db7" d="M79.1,78.37c1.51-2.25,4.51-1.25,4.66-1.22.79.09,17.53,13,17.72,13.14s8.59,1.14,6.54,5.78-9.8,1.25-11,.41c-1.08-.72-16.57-11.89-17.14-13C79.7,83.32,77.45,80.81,79.1,78.37Z"/></g><g id="f28518bd-c8a6-41d3-a27e-cfa6c3877c04" data-name="cuerpo"><g id="f03eaf21-ba06-4389-95f0-a18521e47eb8" data-name="cuerpo-2"><path class="edbbfaa6-79f2-4ace-992c-d88566ed8370" d="M51.07,120c-1.31-7.93-3.35-17.77-3.43-18.56,0-.38-1.65-7-.44-9.63,1.64-3.66,7.11-6.4,10.77-8,5.52-2.51,14.17-5.86,19.86-3.84,3.66,1.32,7.39,8,8.7,9.69,2.47,3.18,11,13.52,13.68,20.86,1.08,2.9,2.15,6.13,3.05,9.52Z"/><path d="M85.24,88c.5.75.9,1.34,1.18,1.7l.89,1.13c3.09,3.92,10.32,13.09,12.77,19.68,1.18,3.18,2.24,6.51,3,9.48h.28c-.81-3-1.86-6.33-3.06-9.57-2.48-6.63-9.72-15.83-12.81-19.75l-.89-1.14c-.29-.35-.68-.94-1.17-1.68-1.75-2.62-4.69-7-7.59-8-4.36-1.55-10.88-.29-20,3.83-3.87,1.74-9.2,4.47-10.83,8.11-1,2.22-.06,7.16.3,9a6.15,6.15,0,0,1,.12.69c0,.28.31,1.7.72,3.84.75,3.84,2.7,14.64,2.7,14.64l.27-.07c-.84-5.06-2-10.81-2.7-14.62-.4-2.06-.69-3.54-.72-3.81a6.32,6.32,0,0,0-.12-.73c-.36-1.83-1.31-6.71-.33-8.85,1.6-3.55,6.87-6.25,10.7-8,9-4.1,15.48-5.35,19.77-3.83C80.61,81.07,83.51,85.42,85.24,88Z"/></g></g><g id="a989e017-4b60-4533-896d-b9dde57c82f9" data-name="pelo extIzq"><path class="a7fed3d7-bdd4-4da5-bf9c-285dc3082db7" d="M91.69,48.14c2.13-.33,8.43,5.64,10.94,9.08,3,4.11,6.08,15.71,6.08,15.71s-9-1.64-12.7-2.68c-2.68-.77-8.09-2.3-8.81-3.17-.87-1-2.24-7.94-1.37-11.17C86.66,53.07,90.27,48.36,91.69,48.14Z"/></g><g id="e60be0d4-010c-41dd-a2b1-fc1da8128cba" data-name="cabeza"><path class="a50001c4-2f56-4a76-9554-d14cb39f2555" d="M41.34,6.44c17.95-5.31,34-1.69,46.74,10.12C102.14,29.7,105.43,60,102.31,67.68,100,73.42,95.79,83.11,69,89c-32,7-42.14-2.73-46.57-7.12-4.76-4.75-13.9-32.33-7.23-50.5C19.89,18.43,27.77,10.42,41.34,6.44Z"/></g><g id="a0eb3342-9b73-4159-a504-4cfbf4be4657" data-name="pelo extDer"><path class="a7fed3d7-bdd4-4da5-bf9c-285dc3082db7" d="M18.46,60.67c-2.51.43-6.35,7.93-7.66,12-1.61,4.81-1.1,16.79-1,16.79S18,85.49,21,83c2.51-2,6.84-6.24,7.22-7.9"/></g><g id="fc351277-548a-4708-afcb-0eab64324549" data-name="brazo der"><path class="edbbfaa6-79f2-4ace-992c-d88566ed8370" d="M55.68,98.65c-.49.72-13.73,6.18-13.85,6.84-.16.82,10.62,10.77,13.69,13.79.2.21.48.45.79.72H43.5c-5-4.23-10.34-9.69-10-13.09.45-5.19,17.73-14.66,18.62-14.77"/><path d="M43.64,120c-4.73-4-10.39-9.68-10.1-13.08.23-2.71,5.08-6.51,9.11-9.23a65.17,65.17,0,0,1,9.43-5.46l0-.18c-1,.12-18.25,9.61-18.7,14.85-.3,3.49,5.24,9,10,13.1Z"/><path d="M41.75,105.47c-.12.62,4.36,5,10.23,10.54,1.45,1.39,2.7,2.58,3.47,3.34.17.16.48.45.72.65h.28c-.31-.26-.66-.57-.87-.78-.77-.76-2-2-3.47-3.34-3.85-3.66-10.28-9.79-10.19-10.37.14-.34,4.08-2.13,7.25-3.57,3.94-1.79,6.35-2.9,6.59-3.24l-.15-.1a56.57,56.57,0,0,1-6.51,3.18C44.15,104,41.81,105.12,41.75,105.47Z"/></g><g id="af6b43e2-d565-4581-af72-3b448c8e0f1c" data-name="ojos"><g id="b9f8b13e-f057-4744-b461-7652fd189d21" data-name="ojos-2"><path class="aaac4550-0076-4c0e-8df9-da72e84c1f99" d="M37.83,58.1a3,3,0,0,1,0-2.33c2.49-5,6.82-5.91,12.08-6.26,3.16.22,7.9-.06,11.35,3.12a4,4,0,0,1,.88,2.72,4.14,4.14,0,0,1-1,2.95,24.13,24.13,0,0,1-11.58,3c-3.65.12-6.82.38-10.3-1A3.62,3.62,0,0,1,37.83,58.1Z"/></g><path d="M62,55.41A5.57,5.57,0,0,0,61.09,53c-.7-.8-2.72-2-5.8-2.38s-7.48-.68-10.61.15a9.53,9.53,0,0,0-6.51,5.38c-1.13,2.56,1.95,4.26,1.53,4.43s-1.15-.36-1.87-1.26a3.85,3.85,0,0,1-.19-4,9.83,9.83,0,0,1,7.28-5.51c4.4-.8,7.46-.21,10.66.12s6.2,2,6.65,3a3.89,3.89,0,0,1,.34,2.51C62.38,55.77,62,55.41,62,55.41Z"/><g id="bf52ec7c-8cdb-47fd-8667-8853fe4e87a3" data-name="pupilas"><path class="bf47c531-5ee1-483d-9700-8f69bbd0b727" d="M55.79,51.21a5.24,5.24,0,1,1-5,5.44h0A5.24,5.24,0,0,1,55.79,51.21Z"/></g></g><g id="fe333e49-4852-4c95-b19a-ede7e31dc664" data-name="ojos-3"><g id="a4db0e2a-a82e-4344-b6b9-4219f9f7a947" data-name="ojos-4"><path class="aaac4550-0076-4c0e-8df9-da72e84c1f99" d="M96.21,53.15c-2.4,2.2-4.88,2.49-7.7,3A13.63,13.63,0,0,1,79.09,55a5.85,5.85,0,0,1-1.33-3.15,6.16,6.16,0,0,1,.15-3.25c2-4.23,5.72-4.79,8.1-5.62,4.08-.57,7.59-.31,10.43,4.85a4.93,4.93,0,0,1,.46,2.63A5,5,0,0,1,96.21,53.15Z"/></g><path d="M77.89,51.83a8.79,8.79,0,0,1,.24-2.92,7.57,7.57,0,0,1,4-3.76c2.27-1,5.59-2.15,8.15-1.79s4.67,2.2,6,4.87-.69,5.19-.32,5.31.81-.63,1.19-1.78a6.24,6.24,0,0,0-.6-4.52c-.83-1.71-3.1-4.78-6.62-4.88s-5.74,1.13-8.14,2.1-4.35,3.46-4.52,4.61A6.3,6.3,0,0,0,77.48,52C77.69,52.33,77.89,51.83,77.89,51.83Z"/></g><g id="b531b8e3-86cc-45e8-82fb-1cbe771d3dbd" data-name="cejas"><path class="ab105620-c0fc-4ad0-8c18-c476ea5f5d71" d="M38,47.64a134.3,134.3,0,0,0,13.74,2.23c10.18,1.26,13.08.07,13.08.07"/></g><g id="af2edd64-0abd-44b3-83d6-4072b68373a2" data-name="cejas-2"><path class="ab105620-c0fc-4ad0-8c18-c476ea5f5d71" d="M73.59,41.46s3.83-6.91,9.08-7.43c7.06-.69,9.85,2.11,9.85,2.11"/></g><g id="ba7d4ead-2cf7-4932-9378-8d3918bfb68d" data-name="cejas-3"><path class="a916a97a-28db-4da9-8933-8b87bf22e83f" d="M39.81,67.1A48.89,48.89,0,0,0,57.4,69.66c11.77-.57,12.41-2.75,12.41-2.75"/></g><g id="a3f45f82-beb0-4ba4-beb9-12c100fcc96c" data-name="El pico"><path class="fdef338a-4663-4da4-a065-79c7d4122c41" d="M76,58c-3.28.55-5.3,5.31-8.1,6.89-3.28,2-11.93,4.44-12,4.49s2.9,4,5.47,8.15c2.3,3.83,3.29,6.63,4.22,7.77S69.27,90,71.9,90.69c7.83,2.14,19.21-5.42,23.81-7.22,4.1-1.64,22.27-2.9,19.91-9.69-.6-1.86-4.92-1.75-5.69-2A19.35,19.35,0,0,1,103.7,70a28.86,28.86,0,0,1-8.87-8.21s-6.29.49-9,0C82.79,61.25,79.29,57.44,76,58Z"/><path d="M76.83,60.16a4.76,4.76,0,0,1,1.09,2.13h-1a6.94,6.94,0,0,0-.6-1.91Z"/><path d="M77.92,62.29a5.34,5.34,0,0,1-1.15,2.19l-.38-.16a8.58,8.58,0,0,0,.54-2Z"/><path class="a8a05920-1248-4b97-b98a-36cb1481a72d" d="M77.92,62.29h-1"/><path d="M78.9,59.72a13.6,13.6,0,0,0,1.44,1.59L80,61.8A8.64,8.64,0,0,1,78.64,60Z"/><path class="a8a05920-1248-4b97-b98a-36cb1481a72d" d="M78.9,59.72l-.32.27"/><path d="M80.27,61.31c.55.43,2,1.37,2,1.37l-.11.21a11.09,11.09,0,0,1-2.3-1.09Z"/><path class="a8a05920-1248-4b97-b98a-36cb1481a72d" d="M80.27,61.31l-.38.49"/></g><path class="bf47c531-5ee1-483d-9700-8f69bbd0b727" d="M91,45.81a5.24,5.24,0,1,1-5,5.45h0A5.25,5.25,0,0,1,91,45.81Z"/><g id="f8154810-dd7e-4b3a-b757-8f3abbe1e374" data-name="brazo izq-2"><path class="a7fed3d7-bdd4-4da5-bf9c-285dc3082db7" d="M97.72,93.26C96.68,92.18,90,86.34,87,81.75a26,26,0,0,0-4.6-3c-1.63-.93-3.16-2.87-2.55-3.79.36-.49,3.15-1,7.74-.77,4.07.17,5.23,2.11,5.72,2.6,2.47,2.63,9.69,10.83,9.8,11s4.58,3.82,4.8,4.58c.06.17,1.38,2.93-.59,4.79"/></g></g></g><path class="e745cf37-0b54-42bf-a3ff-2d09b3d5e784" d="M103.12,120c-.66-2.23-2.62-10.57-6.58-16.27-3.22-5.49-8.6-12-11-15.28-4.74,2-8.72,3-11.73,2.62a7.16,7.16,0,0,1-4.83-2,109.26,109.26,0,0,1-13.57,2.11C56.8,93.76,65.1,116.74,62.7,120Z"/><path d="M62.86,120h-.31c2.51-3.81-7.19-28.58-7.28-28.83l.27,0C55.94,92.15,65.45,116.07,62.86,120Z"/></g></g></svg>