<svg xmlns="http://www.w3.org/2000/svg" viewBox="0 0 125.52 16.96"><defs><style>.b0bad634-2a0e-40f8-9e20-553bb63846e8{fill:#f8bb18;}.bad2293b-f203-4c09-97c2-7f4802644b11{fill:#f78910;}.a57b55af-890d-4bfe-8cb5-ad815517b398{fill:#c51611;}.a6c45d47-2c60-4fdb-b2a1-0f32d5cdfd4f{fill:#1f8ebe;}</style></defs><title>Barra horizontal tachado</title><g id="f872bbba-2b96-4e3b-acbe-4ba52294964f" data-name="Capa 2"><g id="bc6421c8-ebfb-4e43-a784-ce0b37431efd" data-name="Capa 1"><g id="f7c45771-434c-4292-b6b9-63eb210cfc63" data-name="Capa 2"><g id="f950e181-437f-446f-8220-e1478baeba13" data-name="Layer 1"><g id="a6b28ef4-366e-425e-b8eb-253b0ec710fe" data-name="Bloque1"><rect class="b0bad634-2a0e-40f8-9e20-553bb63846e8" x="113.72" y="2.59" width="11.8" height="11.8"/><polygon class="bad2293b-f203-4c09-97c2-7f4802644b11" points="125.52 2.58 124.32 0.19 112.52 0.19 113.72 2.58 125.52 2.58"/><polygon class="a57b55af-890d-4bfe-8cb5-ad815517b398" points="113.72 14.39 113.72 2.58 112.52 0.19 112.52 11.99 113.72 14.39"/></g><g id="b31faeac-88a5-4a4d-8f3f-2c3b19f7c747" data-name="Bloque1-2"><rect class="b0bad634-2a0e-40f8-9e20-553bb63846e8" x="101.22" y="2.58" width="11.8" height="11.8"/><polygon class="bad2293b-f203-4c09-97c2-7f4802644b11" points="113.02 2.58 111.82 0.19 100.02 0.19 101.21 2.58 113.02 2.58"/><polygon class="a57b55af-890d-4bfe-8cb5-ad815517b398" points="101.21 14.39 101.21 2.58 100.02 0.19 100.02 11.99 101.21 14.39"/></g><g id="ba350f82-0bb7-4e2d-b2d5-d8c8c7c5669e" data-name="Bloque1-3"><rect class="b0bad634-2a0e-40f8-9e20-553bb63846e8" x="88.72" y="2.58" width="11.8" height="11.8"/><polygon class="bad2293b-f203-4c09-97c2-7f4802644b11" points="100.52 2.58 99.32 0.19 87.52 0.19 88.71 2.58 100.52 2.58"/><polygon class="a57b55af-890d-4bfe-8cb5-ad815517b398" points="88.71 14.39 88.71 2.58 87.52 0.19 87.52 11.99 88.71 14.39"/></g><g id="e0241e05-6a43-4189-a6e2-2ba697312bbf" data-name="Bloque1-4"><rect class="b0bad634-2a0e-40f8-9e20-553bb63846e8" x="76.21" y="2.58" width="11.8" height="11.8"/><polygon class="bad2293b-f203-4c09-97c2-7f4802644b11" points="88.01 2.58 86.82 0.19 75.01 0.19 76.21 2.58 88.01 2.58"/><polygon class="a57b55af-890d-4bfe-8cb5-ad815517b398" points="76.21 14.39 76.21 2.58 75.01 0.19 75.01 11.99 76.21 14.39"/></g><g id="a00a952d-cef6-4e04-ba1e-859b074448e8" data-name="Bloque1-5"><rect class="b0bad634-2a0e-40f8-9e20-553bb63846e8" x="63.71" y="2.58" width="11.8" height="11.8"/><polygon class="bad2293b-f203-4c09-97c2-7f4802644b11" points="75.51 2.58 74.31 0.19 62.51 0.19 63.71 2.58 75.51 2.58"/><polygon class="a57b55af-890d-4bfe-8cb5-ad815517b398" points="63.71 14.39 63.71 2.58 62.51 0.19 62.51 11.99 63.71 14.39"/></g><g id="fa63c0bd-f7a3-4af0-b840-bfb4e2c4ea6c" data-name="Bloque1-6"><rect class="b0bad634-2a0e-40f8-9e20-553bb63846e8" x="51.21" y="2.58" width="11.8" height="11.8"/><polygon class="bad2293b-f203-4c09-97c2-7f4802644b11" points="63.01 2.58 61.81 0.19 50.01 0.19 51.2 2.58 63.01 2.58"/><polygon class="a57b55af-890d-4bfe-8cb5-ad815517b398" points="51.2 14.39 51.2 2.58 50.01 0.19 50.01 11.99 51.2 14.39"/></g><g id="bfa9b466-749a-4a42-b782-1758dc99b833" data-name="Bloque1-7"><rect class="b0bad634-2a0e-40f8-9e20-553bb63846e8" x="38.71" y="2.58" width="11.8" height="11.8"/><polygon class="bad2293b-f203-4c09-97c2-7f4802644b11" points="50.51 2.58 49.31 0.19 37.51 0.19 38.7 2.58 50.51 2.58"/><polygon class="a57b55af-890d-4bfe-8cb5-ad815517b398" points="38.7 14.39 38.7 2.58 37.51 0.19 37.51 11.99 38.7 14.39"/></g><g id="ab6a43d5-4277-44d0-ab33-960e5236395b" data-name="Bloque1-8"><rect class="b0bad634-2a0e-40f8-9e20-553bb63846e8" x="26.21" y="2.58" width="11.8" height="11.8"/><polygon class="bad2293b-f203-4c09-97c2-7f4802644b11" points="38 2.58 36.81 0.19 25 0.19 26.2 2.58 38 2.58"/><polygon class="a57b55af-890d-4bfe-8cb5-ad815517b398" points="26.2 14.39 26.2 2.58 25 0.19 25 11.99 26.2 14.39"/></g><g id="bc1c84a3-3f16-4fdd-b8ae-f70ca78d7309" data-name="Bloque1-9"><rect class="b0bad634-2a0e-40f8-9e20-553bb63846e8" x="13.7" y="2.58" width="11.8" height="11.8"/><polygon class="bad2293b-f203-4c09-97c2-7f4802644b11" points="25.5 2.58 24.31 0.19 12.5 0.19 13.7 2.58 25.5 2.58"/><polygon class="a57b55af-890d-4bfe-8cb5-ad815517b398" points="13.7 14.39 13.7 2.58 12.5 0.19 12.5 11.99 13.7 14.39"/></g><g id="ea19bdd4-c8de-4e54-84a6-4de4a4bb0a97" data-name="Bloque1-10"><rect class="b0bad634-2a0e-40f8-9e20-553bb63846e8" x="1.2" y="2.59" width="11.8" height="11.8"/><polygon class="bad2293b-f203-4c09-97c2-7f4802644b11" points="13 2.58 11.8 0.19 0 0.19 1.2 2.58 13 2.58"/><polygon class="a57b55af-890d-4bfe-8cb5-ad815517b398" points="1.2 14.39 1.2 2.58 0 0.19 0 11.99 1.2 14.39"/></g></g></g><polygon class="a6c45d47-2c60-4fdb-b2a1-0f32d5cdfd4f" points="125.52 3.14 125.52 0 0 13.82 0 16.96 125.52 3.14"/></g></g></svg>