<svg xmlns="http://www.w3.org/2000/svg" viewBox="0 0 136.78 130.14"><defs><style>.b2c4a31a-2196-4d92-b0cc-d01007cd8741{fill:#f8bb18;}.a87eaf7e-eab0-4148-97c8-cbe27b66578f{fill:#c51611;}.ae422a80-c231-46c1-b7bf-a8cff2f1e240{fill:#f78910;}.a4344852-6c41-4ce8-94d5-7253bf927137{fill:#1f8ebe;}</style></defs><title>Placa tachada</title><g id="be890686-d43d-4a5d-aa64-b3ac4c09dc80" data-name="Capa 2"><g id="be3ebc8b-f159-476d-a852-131c7bfab23c" data-name="Capa 1"><g id="bee723e0-10a2-4a89-afd6-5d00c5a8e60e" data-name="Capa 2"><g id="b3500c27-64dc-49da-9b8b-84085e63f290" data-name="Layer 1"><g id="ba862043-3d01-4dcb-bf5c-065cb5d1a1b2" data-name="Bloque1"><rect class="b2c4a31a-2196-4d92-b0cc-d01007cd8741" x="122.65" y="116.03" width="11.8" height="11.8"/><polygon class="a87eaf7e-eab0-4148-97c8-cbe27b66578f" points="122.65 127.83 120.26 126.63 120.26 114.83 122.65 116.03 122.65 127.83"/><polygon class="ae422a80-c231-46c1-b7bf-a8cff2f1e240" points="134.45 116.03 122.65 116.03 120.26 114.83 132.06 114.83 134.45 116.03"/></g><g id="ee0c4d61-4e61-4bac-82ae-f017fc7818c1" data-name="Bloque1-2"><rect class="b2c4a31a-2196-4d92-b0cc-d01007cd8741" x="122.65" y="103.52" width="11.8" height="11.8"/><polygon class="a87eaf7e-eab0-4148-97c8-cbe27b66578f" points="122.65 115.33 120.26 114.13 120.26 102.33 122.65 103.52 122.65 115.33"/><polygon class="ae422a80-c231-46c1-b7bf-a8cff2f1e240" points="134.45 103.52 122.65 103.52 120.26 102.33 132.06 102.33 134.45 103.52"/></g><g id="ea9f6fa1-236d-42d7-a093-40bfc1a12931" data-name="Bloque1-3"><rect class="b2c4a31a-2196-4d92-b0cc-d01007cd8741" x="122.65" y="91.02" width="11.8" height="11.8"/><polygon class="a87eaf7e-eab0-4148-97c8-cbe27b66578f" points="122.65 102.83 120.26 101.63 120.26 89.83 122.65 91.02 122.65 102.83"/><polygon class="ae422a80-c231-46c1-b7bf-a8cff2f1e240" points="134.45 91.02 122.65 91.02 120.26 89.83 132.06 89.83 134.45 91.02"/></g><g id="bf24f695-c8f1-4ad7-929d-822dc5a56e09" data-name="Bloque1-4"><rect class="b2c4a31a-2196-4d92-b0cc-d01007cd8741" x="122.65" y="78.52" width="11.8" height="11.8"/><polygon class="a87eaf7e-eab0-4148-97c8-cbe27b66578f" points="122.65 90.32 120.26 89.13 120.26 77.32 122.65 78.52 122.65 90.32"/><polygon class="ae422a80-c231-46c1-b7bf-a8cff2f1e240" points="134.45 78.52 122.65 78.52 120.26 77.32 132.06 77.32 134.45 78.52"/></g><g id="f8c476c4-1266-42b0-95ad-1a224367923e" data-name="Bloque1-5"><rect class="b2c4a31a-2196-4d92-b0cc-d01007cd8741" x="122.65" y="66.02" width="11.8" height="11.8"/><polygon class="a87eaf7e-eab0-4148-97c8-cbe27b66578f" points="122.65 77.82 120.26 76.62 120.26 64.82 122.65 66.02 122.65 77.82"/><polygon class="ae422a80-c231-46c1-b7bf-a8cff2f1e240" points="134.45 66.02 122.65 66.02 120.26 64.82 132.06 64.82 134.45 66.02"/></g><g id="b4fa171b-303a-433b-bb2c-0270641aaa83" data-name="Bloque1-6"><rect class="b2c4a31a-2196-4d92-b0cc-d01007cd8741" x="122.65" y="53.51" width="11.8" height="11.8"/><polygon class="a87eaf7e-eab0-4148-97c8-cbe27b66578f" points="122.65 65.32 120.26 64.12 120.26 52.32 122.65 53.51 122.65 65.32"/><polygon class="ae422a80-c231-46c1-b7bf-a8cff2f1e240" points="134.45 53.51 122.65 53.51 120.26 52.32 132.06 52.32 134.45 53.51"/></g><g id="e283fc61-51cf-4082-a9b8-716b375f65fb" data-name="Bloque1-7"><rect class="b2c4a31a-2196-4d92-b0cc-d01007cd8741" x="122.65" y="41.01" width="11.8" height="11.8"/><polygon class="a87eaf7e-eab0-4148-97c8-cbe27b66578f" points="122.65 52.82 120.26 51.62 120.26 39.82 122.65 41.01 122.65 52.82"/><polygon class="ae422a80-c231-46c1-b7bf-a8cff2f1e240" points="134.45 41.01 122.65 41.01 120.26 39.82 132.06 39.82 134.45 41.01"/></g><g id="e77f0c97-0764-4aa0-9d91-af7996caf897" data-name="Bloque1-8"><rect class="b2c4a31a-2196-4d92-b0cc-d01007cd8741" x="122.65" y="28.51" width="11.8" height="11.8"/><polygon class="a87eaf7e-eab0-4148-97c8-cbe27b66578f" points="122.65 40.31 120.26 39.12 120.26 27.31 122.65 28.51 122.65 40.31"/><polygon class="ae422a80-c231-46c1-b7bf-a8cff2f1e240" points="134.45 28.51 122.65 28.51 120.26 27.31 132.06 27.31 134.45 28.51"/></g><g id="f1838a4e-b21e-4048-bf96-a3fb69bc7ac5" data-name="Bloque1-9"><rect class="b2c4a31a-2196-4d92-b0cc-d01007cd8741" x="122.65" y="16.01" width="11.8" height="11.8"/><polygon class="a87eaf7e-eab0-4148-97c8-cbe27b66578f" points="122.65 27.81 120.26 26.62 120.26 14.81 122.65 16.01 122.65 27.81"/><polygon class="ae422a80-c231-46c1-b7bf-a8cff2f1e240" points="134.45 16.01 122.65 16.01 120.26 14.81 132.06 14.81 134.45 16.01"/></g><g id="a3dcaa41-639a-425d-9cf6-b447371a0aae" data-name="Bloque1-10"><rect class="b2c4a31a-2196-4d92-b0cc-d01007cd8741" x="122.65" y="3.51" width="11.8" height="11.8"/><polygon class="a87eaf7e-eab0-4148-97c8-cbe27b66578f" points="122.65 15.31 120.26 14.11 120.26 2.31 122.65 3.51 122.65 15.31"/><polygon class="ae422a80-c231-46c1-b7bf-a8cff2f1e240" points="134.45 3.51 122.65 3.51 120.26 2.31 132.06 2.31 134.45 3.51"/></g><g id="b2df3f6b-cb0f-475f-ae09-419f845785bd" data-name="Bloque1-11"><rect class="b2c4a31a-2196-4d92-b0cc-d01007cd8741" x="109.55" y="116.03" width="11.8" height="11.8"/><polygon class="a87eaf7e-eab0-4148-97c8-cbe27b66578f" points="109.55 127.83 107.16 126.63 107.16 114.83 109.55 116.03 109.55 127.83"/><polygon class="ae422a80-c231-46c1-b7bf-a8cff2f1e240" points="121.35 116.03 109.55 116.03 107.16 114.83 118.96 114.83 121.35 116.03"/></g><g id="a9f234f2-ba34-42f4-955e-44c77d92d456" data-name="Bloque1-12"><rect class="b2c4a31a-2196-4d92-b0cc-d01007cd8741" x="109.55" y="103.52" width="11.8" height="11.8"/><polygon class="a87eaf7e-eab0-4148-97c8-cbe27b66578f" points="109.55 115.33 107.16 114.13 107.16 102.33 109.55 103.52 109.55 115.33"/><polygon class="ae422a80-c231-46c1-b7bf-a8cff2f1e240" points="121.35 103.52 109.55 103.52 107.16 102.33 118.96 102.33 121.35 103.52"/></g><g id="f10e3f6d-c547-43fa-a3f3-7ab273893667" data-name="Bloque1-13"><rect class="b2c4a31a-2196-4d92-b0cc-d01007cd8741" x="109.55" y="91.02" width="11.8" height="11.8"/><polygon class="a87eaf7e-eab0-4148-97c8-cbe27b66578f" points="109.55 102.83 107.16 101.63 107.16 89.83 109.55 91.02 109.55 102.83"/><polygon class="ae422a80-c231-46c1-b7bf-a8cff2f1e240" points="121.35 91.02 109.55 91.02 107.16 89.83 118.96 89.83 121.35 91.02"/></g><g id="ab79741a-e4f6-40d7-b6d5-fd7aad3cc04c" data-name="Bloque1-14"><rect class="b2c4a31a-2196-4d92-b0cc-d01007cd8741" x="109.55" y="78.52" width="11.8" height="11.8"/><polygon class="a87eaf7e-eab0-4148-97c8-cbe27b66578f" points="109.55 90.32 107.16 89.13 107.16 77.32 109.55 78.52 109.55 90.32"/><polygon class="ae422a80-c231-46c1-b7bf-a8cff2f1e240" points="121.35 78.52 109.55 78.52 107.16 77.32 118.96 77.32 121.35 78.52"/></g><g id="f943689b-ef90-410e-aab8-c13145e6bd75" data-name="Bloque1-15"><rect class="b2c4a31a-2196-4d92-b0cc-d01007cd8741" x="109.55" y="66.02" width="11.8" height="11.8"/><polygon class="a87eaf7e-eab0-4148-97c8-cbe27b66578f" points="109.55 77.82 107.16 76.62 107.16 64.82 109.55 66.02 109.55 77.82"/><polygon class="ae422a80-c231-46c1-b7bf-a8cff2f1e240" points="121.35 66.02 109.55 66.02 107.16 64.82 118.96 64.82 121.35 66.02"/></g><g id="eacd8209-1b90-42cb-af35-dca5273bb9be" data-name="Bloque1-16"><rect class="b2c4a31a-2196-4d92-b0cc-d01007cd8741" x="109.55" y="53.51" width="11.8" height="11.8"/><polygon class="a87eaf7e-eab0-4148-97c8-cbe27b66578f" points="109.55 65.32 107.16 64.12 107.16 52.32 109.55 53.51 109.55 65.32"/><polygon class="ae422a80-c231-46c1-b7bf-a8cff2f1e240" points="121.35 53.51 109.55 53.51 107.16 52.32 118.96 52.32 121.35 53.51"/></g><g id="a4488783-1f1c-4a91-b6ee-18aea9cc2aa4" data-name="Bloque1-17"><rect class="b2c4a31a-2196-4d92-b0cc-d01007cd8741" x="109.55" y="41.01" width="11.8" height="11.8"/><polygon class="a87eaf7e-eab0-4148-97c8-cbe27b66578f" points="109.55 52.82 107.16 51.62 107.16 39.82 109.55 41.01 109.55 52.82"/><polygon class="ae422a80-c231-46c1-b7bf-a8cff2f1e240" points="121.35 41.01 109.55 41.01 107.16 39.82 118.96 39.82 121.35 41.01"/></g><g id="a8266d5d-f34f-43df-af95-c77b032169c9" data-name="Bloque1-18"><rect class="b2c4a31a-2196-4d92-b0cc-d01007cd8741" x="109.55" y="28.51" width="11.8" height="11.8"/><polygon class="a87eaf7e-eab0-4148-97c8-cbe27b66578f" points="109.55 40.31 107.16 39.12 107.16 27.31 109.55 28.51 109.55 40.31"/><polygon class="ae422a80-c231-46c1-b7bf-a8cff2f1e240" points="121.35 28.51 109.55 28.51 107.16 27.31 118.96 27.31 121.35 28.51"/></g><g id="e50e95d2-8d9a-4ff4-bb40-1b780bef0125" data-name="Bloque1-19"><rect class="b2c4a31a-2196-4d92-b0cc-d01007cd8741" x="109.55" y="16.01" width="11.8" height="11.8"/><polygon class="a87eaf7e-eab0-4148-97c8-cbe27b66578f" points="109.55 27.81 107.16 26.62 107.16 14.81 109.55 16.01 109.55 27.81"/><polygon class="ae422a80-c231-46c1-b7bf-a8cff2f1e240" points="121.35 16.01 109.55 16.01 107.16 14.81 118.96 14.81 121.35 16.01"/></g><g id="b57f6d1d-1931-4113-9892-7a03640a82c2" data-name="Bloque1-20"><rect class="b2c4a31a-2196-4d92-b0cc-d01007cd8741" x="109.55" y="3.51" width="11.8" height="11.8"/><polygon class="a87eaf7e-eab0-4148-97c8-cbe27b66578f" points="109.55 15.31 107.16 14.11 107.16 2.31 109.55 3.51 109.55 15.31"/><polygon class="ae422a80-c231-46c1-b7bf-a8cff2f1e240" points="121.35 3.51 109.55 3.51 107.16 2.31 118.96 2.31 121.35 3.51"/></g><g id="bf28dc68-b68b-4eeb-be7d-f906a89343ec" data-name="Bloque1-21"><rect class="b2c4a31a-2196-4d92-b0cc-d01007cd8741" x="96.45" y="116.03" width="11.8" height="11.8"/><polygon class="a87eaf7e-eab0-4148-97c8-cbe27b66578f" points="96.45 127.83 94.06 126.63 94.06 114.83 96.45 116.03 96.45 127.83"/><polygon class="ae422a80-c231-46c1-b7bf-a8cff2f1e240" points="108.25 116.03 96.45 116.03 94.06 114.83 105.86 114.83 108.25 116.03"/></g><g id="b10084f7-5887-48ba-b5c5-6c00fe310250" data-name="Bloque1-22"><rect class="b2c4a31a-2196-4d92-b0cc-d01007cd8741" x="96.45" y="103.52" width="11.8" height="11.8"/><polygon class="a87eaf7e-eab0-4148-97c8-cbe27b66578f" points="96.45 115.33 94.06 114.13 94.06 102.33 96.45 103.52 96.45 115.33"/><polygon class="ae422a80-c231-46c1-b7bf-a8cff2f1e240" points="108.25 103.52 96.45 103.52 94.06 102.33 105.86 102.33 108.25 103.52"/></g><g id="f637028c-005f-4195-84fd-767635b4a129" data-name="Bloque1-23"><rect class="b2c4a31a-2196-4d92-b0cc-d01007cd8741" x="96.45" y="91.02" width="11.8" height="11.8"/><polygon class="a87eaf7e-eab0-4148-97c8-cbe27b66578f" points="96.45 102.83 94.06 101.63 94.06 89.83 96.45 91.02 96.45 102.83"/><polygon class="ae422a80-c231-46c1-b7bf-a8cff2f1e240" points="108.25 91.02 96.45 91.02 94.06 89.83 105.86 89.83 108.25 91.02"/></g><g id="e9faa666-a5f7-464a-bd66-7dcce1884fee" data-name="Bloque1-24"><rect class="b2c4a31a-2196-4d92-b0cc-d01007cd8741" x="96.45" y="78.52" width="11.8" height="11.8"/><polygon class="a87eaf7e-eab0-4148-97c8-cbe27b66578f" points="96.45 90.32 94.06 89.13 94.06 77.32 96.45 78.52 96.45 90.32"/><polygon class="ae422a80-c231-46c1-b7bf-a8cff2f1e240" points="108.25 78.52 96.45 78.52 94.06 77.32 105.86 77.32 108.25 78.52"/></g><g id="b2e18a47-b90a-4fe1-b537-cfb56c6f4c56" data-name="Bloque1-25"><rect class="b2c4a31a-2196-4d92-b0cc-d01007cd8741" x="96.45" y="66.02" width="11.8" height="11.8"/><polygon class="a87eaf7e-eab0-4148-97c8-cbe27b66578f" points="96.45 77.82 94.06 76.62 94.06 64.82 96.45 66.02 96.45 77.82"/><polygon class="ae422a80-c231-46c1-b7bf-a8cff2f1e240" points="108.25 66.02 96.45 66.02 94.06 64.82 105.86 64.82 108.25 66.02"/></g><g id="b87cc0e5-dcc3-4a75-b498-9b0a881c5699" data-name="Bloque1-26"><rect class="b2c4a31a-2196-4d92-b0cc-d01007cd8741" x="96.45" y="53.51" width="11.8" height="11.8"/><polygon class="a87eaf7e-eab0-4148-97c8-cbe27b66578f" points="96.45 65.32 94.06 64.12 94.06 52.32 96.45 53.51 96.45 65.32"/><polygon class="ae422a80-c231-46c1-b7bf-a8cff2f1e240" points="108.25 53.51 96.45 53.51 94.06 52.32 105.86 52.32 108.25 53.51"/></g><g id="a9559da7-3ea0-435c-a540-ff956fc9ee23" data-name="Bloque1-27"><rect class="b2c4a31a-2196-4d92-b0cc-d01007cd8741" x="96.45" y="41.01" width="11.8" height="11.8"/><polygon class="a87eaf7e-eab0-4148-97c8-cbe27b66578f" points="96.45 52.82 94.06 51.62 94.06 39.82 96.45 41.01 96.45 52.82"/><polygon class="ae422a80-c231-46c1-b7bf-a8cff2f1e240" points="108.25 41.01 96.45 41.01 94.06 39.82 105.86 39.82 108.25 41.01"/></g><g id="f72ff78a-e472-48e7-8f7b-5724bd8e6b00" data-name="Bloque1-28"><rect class="b2c4a31a-2196-4d92-b0cc-d01007cd8741" x="96.45" y="28.51" width="11.8" height="11.8"/><polygon class="a87eaf7e-eab0-4148-97c8-cbe27b66578f" points="96.45 40.31 94.06 39.12 94.06 27.31 96.45 28.51 96.45 40.31"/><polygon class="ae422a80-c231-46c1-b7bf-a8cff2f1e240" points="108.25 28.51 96.45 28.51 94.06 27.31 105.86 27.31 108.25 28.51"/></g><g id="b89bc77a-eaf2-4b58-bc3f-29e70960c2db" data-name="Bloque1-29"><rect class="b2c4a31a-2196-4d92-b0cc-d01007cd8741" x="96.45" y="16.01" width="11.8" height="11.8"/><polygon class="a87eaf7e-eab0-4148-97c8-cbe27b66578f" points="96.45 27.81 94.06 26.62 94.06 14.81 96.45 16.01 96.45 27.81"/><polygon class="ae422a80-c231-46c1-b7bf-a8cff2f1e240" points="108.25 16.01 96.45 16.01 94.06 14.81 105.86 14.81 108.25 16.01"/></g><g id="fa8923d1-4fa8-4b3d-add9-900604c722df" data-name="Bloque1-30"><rect class="b2c4a31a-2196-4d92-b0cc-d01007cd8741" x="96.45" y="3.51" width="11.8" height="11.8"/><polygon class="a87eaf7e-eab0-4148-97c8-cbe27b66578f" points="96.45 15.31 94.06 14.11 94.06 2.31 96.45 3.51 96.45 15.31"/><polygon class="ae422a80-c231-46c1-b7bf-a8cff2f1e240" points="108.25 3.51 96.45 3.51 94.06 2.31 105.86 2.31 108.25 3.51"/></g><g id="f43cf112-47ee-40da-a2d6-64afb7b6d8cd" data-name="Bloque1-31"><rect class="b2c4a31a-2196-4d92-b0cc-d01007cd8741" x="83.34" y="116.03" width="11.8" height="11.8"/><polygon class="a87eaf7e-eab0-4148-97c8-cbe27b66578f" points="83.34 127.83 80.95 126.63 80.95 114.83 83.34 116.03 83.34 127.83"/><polygon class="ae422a80-c231-46c1-b7bf-a8cff2f1e240" points="95.15 116.03 83.34 116.03 80.95 114.83 92.76 114.83 95.15 116.03"/></g><g id="a3d02e49-45b3-464d-ad82-1b538dcea3cb" data-name="Bloque1-32"><rect class="b2c4a31a-2196-4d92-b0cc-d01007cd8741" x="83.34" y="103.52" width="11.8" height="11.8"/><polygon class="a87eaf7e-eab0-4148-97c8-cbe27b66578f" points="83.34 115.33 80.95 114.13 80.95 102.33 83.34 103.52 83.34 115.33"/><polygon class="ae422a80-c231-46c1-b7bf-a8cff2f1e240" points="95.15 103.52 83.34 103.52 80.95 102.33 92.76 102.33 95.15 103.52"/></g><g id="e3e73998-448e-471d-abe3-39df3d87a43b" data-name="Bloque1-33"><rect class="b2c4a31a-2196-4d92-b0cc-d01007cd8741" x="83.34" y="91.02" width="11.8" height="11.8"/><polygon class="a87eaf7e-eab0-4148-97c8-cbe27b66578f" points="83.34 102.83 80.95 101.63 80.95 89.83 83.34 91.02 83.34 102.83"/><polygon class="ae422a80-c231-46c1-b7bf-a8cff2f1e240" points="95.15 91.02 83.34 91.02 80.95 89.83 92.76 89.83 95.15 91.02"/></g><g id="af35720b-9978-4bbb-ab42-ccbd8afb2c94" data-name="Bloque1-34"><rect class="b2c4a31a-2196-4d92-b0cc-d01007cd8741" x="83.34" y="78.52" width="11.8" height="11.8"/><polygon class="a87eaf7e-eab0-4148-97c8-cbe27b66578f" points="83.34 90.32 80.95 89.13 80.95 77.32 83.34 78.52 83.34 90.32"/><polygon class="ae422a80-c231-46c1-b7bf-a8cff2f1e240" points="95.15 78.52 83.34 78.52 80.95 77.32 92.76 77.32 95.15 78.52"/></g><g id="e0781a67-b839-4d6f-8321-18101e7d162f" data-name="Bloque1-35"><rect class="b2c4a31a-2196-4d92-b0cc-d01007cd8741" x="83.34" y="66.02" width="11.8" height="11.8"/><polygon class="a87eaf7e-eab0-4148-97c8-cbe27b66578f" points="83.34 77.82 80.95 76.62 80.95 64.82 83.34 66.02 83.34 77.82"/><polygon class="ae422a80-c231-46c1-b7bf-a8cff2f1e240" points="95.15 66.02 83.34 66.02 80.95 64.82 92.76 64.82 95.15 66.02"/></g><g id="b74e11d1-3d70-4f1a-8ea3-c84e67478b53" data-name="Bloque1-36"><rect class="b2c4a31a-2196-4d92-b0cc-d01007cd8741" x="83.34" y="53.51" width="11.8" height="11.8"/><polygon class="a87eaf7e-eab0-4148-97c8-cbe27b66578f" points="83.34 65.32 80.95 64.12 80.95 52.32 83.34 53.51 83.34 65.32"/><polygon class="ae422a80-c231-46c1-b7bf-a8cff2f1e240" points="95.15 53.51 83.34 53.51 80.95 52.32 92.76 52.32 95.15 53.51"/></g><g id="f374d5e6-114e-48be-b6da-072244360d91" data-name="Bloque1-37"><rect class="b2c4a31a-2196-4d92-b0cc-d01007cd8741" x="83.34" y="41.01" width="11.8" height="11.8"/><polygon class="a87eaf7e-eab0-4148-97c8-cbe27b66578f" points="83.34 52.82 80.95 51.62 80.95 39.82 83.34 41.01 83.34 52.82"/><polygon class="ae422a80-c231-46c1-b7bf-a8cff2f1e240" points="95.15 41.01 83.34 41.01 80.95 39.82 92.76 39.82 95.15 41.01"/></g><g id="f10d9723-d993-4991-b267-01e9a4f905e1" data-name="Bloque1-38"><rect class="b2c4a31a-2196-4d92-b0cc-d01007cd8741" x="83.34" y="28.51" width="11.8" height="11.8"/><polygon class="a87eaf7e-eab0-4148-97c8-cbe27b66578f" points="83.34 40.31 80.95 39.12 80.95 27.31 83.34 28.51 83.34 40.31"/><polygon class="ae422a80-c231-46c1-b7bf-a8cff2f1e240" points="95.15 28.51 83.34 28.51 80.95 27.31 92.76 27.31 95.15 28.51"/></g><g id="b7dfd108-997a-4cf3-9038-b4db37149170" data-name="Bloque1-39"><rect class="b2c4a31a-2196-4d92-b0cc-d01007cd8741" x="83.34" y="16.01" width="11.8" height="11.8"/><polygon class="a87eaf7e-eab0-4148-97c8-cbe27b66578f" points="83.34 27.81 80.95 26.62 80.95 14.81 83.34 16.01 83.34 27.81"/><polygon class="ae422a80-c231-46c1-b7bf-a8cff2f1e240" points="95.15 16.01 83.34 16.01 80.95 14.81 92.76 14.81 95.15 16.01"/></g><g id="eb9cae01-8059-454e-8c1a-71f1ae79d0d5" data-name="Bloque1-40"><rect class="b2c4a31a-2196-4d92-b0cc-d01007cd8741" x="83.34" y="3.51" width="11.8" height="11.8"/><polygon class="a87eaf7e-eab0-4148-97c8-cbe27b66578f" points="83.34 15.31 80.95 14.11 80.95 2.31 83.34 3.51 83.34 15.31"/><polygon class="ae422a80-c231-46c1-b7bf-a8cff2f1e240" points="95.15 3.51 83.34 3.51 80.95 2.31 92.76 2.31 95.15 3.51"/></g><g id="bb3fc2d7-e665-4ed8-b40d-90b16569b340" data-name="Bloque1-41"><rect class="b2c4a31a-2196-4d92-b0cc-d01007cd8741" x="70.24" y="116.03" width="11.8" height="11.8"/><polygon class="a87eaf7e-eab0-4148-97c8-cbe27b66578f" points="70.24 127.83 67.85 126.63 67.85 114.83 70.24 116.03 70.24 127.83"/><polygon class="ae422a80-c231-46c1-b7bf-a8cff2f1e240" points="82.05 116.03 70.24 116.03 67.85 114.83 79.65 114.83 82.05 116.03"/></g><g id="e14f1000-7ce4-4024-af48-186797e01498" data-name="Bloque1-42"><rect class="b2c4a31a-2196-4d92-b0cc-d01007cd8741" x="70.24" y="103.52" width="11.8" height="11.8"/><polygon class="a87eaf7e-eab0-4148-97c8-cbe27b66578f" points="70.24 115.33 67.85 114.13 67.85 102.33 70.24 103.52 70.24 115.33"/><polygon class="ae422a80-c231-46c1-b7bf-a8cff2f1e240" points="82.05 103.52 70.24 103.52 67.85 102.33 79.65 102.33 82.05 103.52"/></g><g id="a809e384-f8cd-40f6-ab6a-8c890b315cee" data-name="Bloque1-43"><rect class="b2c4a31a-2196-4d92-b0cc-d01007cd8741" x="70.24" y="91.02" width="11.8" height="11.8"/><polygon class="a87eaf7e-eab0-4148-97c8-cbe27b66578f" points="70.24 102.83 67.85 101.63 67.85 89.83 70.24 91.02 70.24 102.83"/><polygon class="ae422a80-c231-46c1-b7bf-a8cff2f1e240" points="82.05 91.02 70.24 91.02 67.85 89.83 79.65 89.83 82.05 91.02"/></g><g id="a48a9e57-f055-40d3-a730-884c4795fdea" data-name="Bloque1-44"><rect class="b2c4a31a-2196-4d92-b0cc-d01007cd8741" x="70.24" y="78.52" width="11.8" height="11.8"/><polygon class="a87eaf7e-eab0-4148-97c8-cbe27b66578f" points="70.24 90.32 67.85 89.13 67.85 77.32 70.24 78.52 70.24 90.32"/><polygon class="ae422a80-c231-46c1-b7bf-a8cff2f1e240" points="82.05 78.52 70.24 78.52 67.85 77.32 79.65 77.32 82.05 78.52"/></g><g id="f7add8d2-4023-436a-8ca2-fca264e473bc" data-name="Bloque1-45"><rect class="b2c4a31a-2196-4d92-b0cc-d01007cd8741" x="70.24" y="66.02" width="11.8" height="11.8"/><polygon class="a87eaf7e-eab0-4148-97c8-cbe27b66578f" points="70.24 77.82 67.85 76.62 67.85 64.82 70.24 66.02 70.24 77.82"/><polygon class="ae422a80-c231-46c1-b7bf-a8cff2f1e240" points="82.05 66.02 70.24 66.02 67.85 64.82 79.65 64.82 82.05 66.02"/></g><g id="ec111feb-ba9e-4f7f-a763-a774510b3e8a" data-name="Bloque1-46"><rect class="b2c4a31a-2196-4d92-b0cc-d01007cd8741" x="70.24" y="53.51" width="11.8" height="11.8"/><polygon class="a87eaf7e-eab0-4148-97c8-cbe27b66578f" points="70.24 65.32 67.85 64.12 67.85 52.32 70.24 53.51 70.24 65.32"/><polygon class="ae422a80-c231-46c1-b7bf-a8cff2f1e240" points="82.05 53.51 70.24 53.51 67.85 52.32 79.65 52.32 82.05 53.51"/></g><g id="fdd642df-356a-42a8-9a60-021fbb96502e" data-name="Bloque1-47"><rect class="b2c4a31a-2196-4d92-b0cc-d01007cd8741" x="70.24" y="41.01" width="11.8" height="11.8"/><polygon class="a87eaf7e-eab0-4148-97c8-cbe27b66578f" points="70.24 52.82 67.85 51.62 67.85 39.82 70.24 41.01 70.24 52.82"/><polygon class="ae422a80-c231-46c1-b7bf-a8cff2f1e240" points="82.05 41.01 70.24 41.01 67.85 39.82 79.65 39.82 82.05 41.01"/></g><g id="f13290e4-574b-4f34-8f33-fafb310dce2b" data-name="Bloque1-48"><rect class="b2c4a31a-2196-4d92-b0cc-d01007cd8741" x="70.24" y="28.51" width="11.8" height="11.8"/><polygon class="a87eaf7e-eab0-4148-97c8-cbe27b66578f" points="70.24 40.31 67.85 39.12 67.85 27.31 70.24 28.51 70.24 40.31"/><polygon class="ae422a80-c231-46c1-b7bf-a8cff2f1e240" points="82.05 28.51 70.24 28.51 67.85 27.31 79.65 27.31 82.05 28.51"/></g><g id="e01b0bc1-1369-4464-91df-3b13f0682300" data-name="Bloque1-49"><rect class="b2c4a31a-2196-4d92-b0cc-d01007cd8741" x="70.24" y="16.01" width="11.8" height="11.8"/><polygon class="a87eaf7e-eab0-4148-97c8-cbe27b66578f" points="70.24 27.81 67.85 26.62 67.85 14.81 70.24 16.01 70.24 27.81"/><polygon class="ae422a80-c231-46c1-b7bf-a8cff2f1e240" points="82.05 16.01 70.24 16.01 67.85 14.81 79.65 14.81 82.05 16.01"/></g><g id="b6a817a7-bf43-4056-8305-bfd0ea7bb034" data-name="Bloque1-50"><rect class="b2c4a31a-2196-4d92-b0cc-d01007cd8741" x="70.24" y="3.51" width="11.8" height="11.8"/><polygon class="a87eaf7e-eab0-4148-97c8-cbe27b66578f" points="70.24 15.31 67.85 14.11 67.85 2.31 70.24 3.51 70.24 15.31"/><polygon class="ae422a80-c231-46c1-b7bf-a8cff2f1e240" points="82.05 3.51 70.24 3.51 67.85 2.31 79.65 2.31 82.05 3.51"/></g><g id="ab96f00a-e0b0-45e8-b7af-c80da1d4a7ee" data-name="Bloque1-51"><rect class="b2c4a31a-2196-4d92-b0cc-d01007cd8741" x="57.14" y="116.03" width="11.8" height="11.8"/><polygon class="a87eaf7e-eab0-4148-97c8-cbe27b66578f" points="57.14 127.83 54.75 126.63 54.75 114.83 57.14 116.03 57.14 127.83"/><polygon class="ae422a80-c231-46c1-b7bf-a8cff2f1e240" points="68.94 116.03 57.14 116.03 54.75 114.83 66.55 114.83 68.94 116.03"/></g><g id="a3d98308-08be-473c-97eb-b207871f2fd9" data-name="Bloque1-52"><rect class="b2c4a31a-2196-4d92-b0cc-d01007cd8741" x="57.14" y="103.52" width="11.8" height="11.8"/><polygon class="a87eaf7e-eab0-4148-97c8-cbe27b66578f" points="57.14 115.33 54.75 114.13 54.75 102.33 57.14 103.52 57.14 115.33"/><polygon class="ae422a80-c231-46c1-b7bf-a8cff2f1e240" points="68.94 103.52 57.14 103.52 54.75 102.33 66.55 102.33 68.94 103.52"/></g><g id="a1be746e-b8bd-4b7b-b4e8-702e4bef1cd0" data-name="Bloque1-53"><rect class="b2c4a31a-2196-4d92-b0cc-d01007cd8741" x="57.14" y="91.02" width="11.8" height="11.8"/><polygon class="a87eaf7e-eab0-4148-97c8-cbe27b66578f" points="57.14 102.83 54.75 101.63 54.75 89.83 57.14 91.02 57.14 102.83"/><polygon class="ae422a80-c231-46c1-b7bf-a8cff2f1e240" points="68.94 91.02 57.14 91.02 54.75 89.83 66.55 89.83 68.94 91.02"/></g><g id="e685ed69-27d2-4436-8a61-9ba83d590881" data-name="Bloque1-54"><rect class="b2c4a31a-2196-4d92-b0cc-d01007cd8741" x="57.14" y="78.52" width="11.8" height="11.8"/><polygon class="a87eaf7e-eab0-4148-97c8-cbe27b66578f" points="57.14 90.32 54.75 89.13 54.75 77.32 57.14 78.52 57.14 90.32"/><polygon class="ae422a80-c231-46c1-b7bf-a8cff2f1e240" points="68.94 78.52 57.14 78.52 54.75 77.32 66.55 77.32 68.94 78.52"/></g><g id="a0a381f7-ab7d-45b0-bcfc-4311e845bc01" data-name="Bloque1-55"><rect class="b2c4a31a-2196-4d92-b0cc-d01007cd8741" x="57.14" y="66.02" width="11.8" height="11.8"/><polygon class="a87eaf7e-eab0-4148-97c8-cbe27b66578f" points="57.14 77.82 54.75 76.62 54.75 64.82 57.14 66.02 57.14 77.82"/><polygon class="ae422a80-c231-46c1-b7bf-a8cff2f1e240" points="68.94 66.02 57.14 66.02 54.75 64.82 66.55 64.82 68.94 66.02"/></g><g id="be61b158-78ca-4933-9ade-20601d59410f" data-name="Bloque1-56"><rect class="b2c4a31a-2196-4d92-b0cc-d01007cd8741" x="57.14" y="53.51" width="11.8" height="11.8"/><polygon class="a87eaf7e-eab0-4148-97c8-cbe27b66578f" points="57.14 65.32 54.75 64.12 54.75 52.32 57.14 53.51 57.14 65.32"/><polygon class="ae422a80-c231-46c1-b7bf-a8cff2f1e240" points="68.94 53.51 57.14 53.51 54.75 52.32 66.55 52.32 68.94 53.51"/></g><g id="abc7c565-6dba-4a36-9ab7-1e7af1e378f8" data-name="Bloque1-57"><rect class="b2c4a31a-2196-4d92-b0cc-d01007cd8741" x="57.14" y="41.01" width="11.8" height="11.8"/><polygon class="a87eaf7e-eab0-4148-97c8-cbe27b66578f" points="57.14 52.82 54.75 51.62 54.75 39.82 57.14 41.01 57.14 52.82"/><polygon class="ae422a80-c231-46c1-b7bf-a8cff2f1e240" points="68.94 41.01 57.14 41.01 54.75 39.82 66.55 39.82 68.94 41.01"/></g><g id="a5dd53b8-36fe-4468-b3c7-6102c5b83230" data-name="Bloque1-58"><rect class="b2c4a31a-2196-4d92-b0cc-d01007cd8741" x="57.14" y="28.51" width="11.8" height="11.8"/><polygon class="a87eaf7e-eab0-4148-97c8-cbe27b66578f" points="57.14 40.31 54.75 39.12 54.75 27.31 57.14 28.51 57.14 40.31"/><polygon class="ae422a80-c231-46c1-b7bf-a8cff2f1e240" points="68.94 28.51 57.14 28.51 54.75 27.31 66.55 27.31 68.94 28.51"/></g><g id="a6159748-8f87-44cf-bdb3-fc7b10c89c0c" data-name="Bloque1-59"><rect class="b2c4a31a-2196-4d92-b0cc-d01007cd8741" x="57.14" y="16.01" width="11.8" height="11.8"/><polygon class="a87eaf7e-eab0-4148-97c8-cbe27b66578f" points="57.14 27.81 54.75 26.62 54.75 14.81 57.14 16.01 57.14 27.81"/><polygon class="ae422a80-c231-46c1-b7bf-a8cff2f1e240" points="68.94 16.01 57.14 16.01 54.75 14.81 66.55 14.81 68.94 16.01"/></g><g id="a1ed2ea4-5196-4aa5-b9a0-804c6ebeb49c" data-name="Bloque1-60"><rect class="b2c4a31a-2196-4d92-b0cc-d01007cd8741" x="57.14" y="3.51" width="11.8" height="11.8"/><polygon class="a87eaf7e-eab0-4148-97c8-cbe27b66578f" points="57.14 15.31 54.75 14.11 54.75 2.31 57.14 3.51 57.14 15.31"/><polygon class="ae422a80-c231-46c1-b7bf-a8cff2f1e240" points="68.94 3.51 57.14 3.51 54.75 2.31 66.55 2.31 68.94 3.51"/></g><g id="e7a6215f-22c0-47b5-9cbd-f0342bfa608b" data-name="Bloque1-61"><rect class="b2c4a31a-2196-4d92-b0cc-d01007cd8741" x="44.04" y="116.03" width="11.8" height="11.8"/><polygon class="a87eaf7e-eab0-4148-97c8-cbe27b66578f" points="44.04 127.83 41.65 126.63 41.65 114.83 44.04 116.03 44.04 127.83"/><polygon class="ae422a80-c231-46c1-b7bf-a8cff2f1e240" points="55.84 116.03 44.04 116.03 41.65 114.83 53.45 114.83 55.84 116.03"/></g><g id="a499571a-5d11-49fb-b395-7e6f78b4c124" data-name="Bloque1-62"><rect class="b2c4a31a-2196-4d92-b0cc-d01007cd8741" x="44.04" y="103.52" width="11.8" height="11.8"/><polygon class="a87eaf7e-eab0-4148-97c8-cbe27b66578f" points="44.04 115.33 41.65 114.13 41.65 102.33 44.04 103.52 44.04 115.33"/><polygon class="ae422a80-c231-46c1-b7bf-a8cff2f1e240" points="55.84 103.52 44.04 103.52 41.65 102.33 53.45 102.33 55.84 103.52"/></g><g id="e7a8d3d1-7a90-43d0-a036-f087f4594453" data-name="Bloque1-63"><rect class="b2c4a31a-2196-4d92-b0cc-d01007cd8741" x="44.04" y="91.02" width="11.8" height="11.8"/><polygon class="a87eaf7e-eab0-4148-97c8-cbe27b66578f" points="44.04 102.83 41.65 101.63 41.65 89.83 44.04 91.02 44.04 102.83"/><polygon class="ae422a80-c231-46c1-b7bf-a8cff2f1e240" points="55.84 91.02 44.04 91.02 41.65 89.83 53.45 89.83 55.84 91.02"/></g><g id="f066f2bf-aaf9-4694-aaa3-4b2c19333115" data-name="Bloque1-64"><rect class="b2c4a31a-2196-4d92-b0cc-d01007cd8741" x="44.04" y="78.52" width="11.8" height="11.8"/><polygon class="a87eaf7e-eab0-4148-97c8-cbe27b66578f" points="44.04 90.32 41.65 89.13 41.65 77.32 44.04 78.52 44.04 90.32"/><polygon class="ae422a80-c231-46c1-b7bf-a8cff2f1e240" points="55.84 78.52 44.04 78.52 41.65 77.32 53.45 77.32 55.84 78.52"/></g><g id="a3b3e5c9-729e-4375-afd8-592b6603bb75" data-name="Bloque1-65"><rect class="b2c4a31a-2196-4d92-b0cc-d01007cd8741" x="44.04" y="66.02" width="11.8" height="11.8"/><polygon class="a87eaf7e-eab0-4148-97c8-cbe27b66578f" points="44.04 77.82 41.65 76.62 41.65 64.82 44.04 66.02 44.04 77.82"/><polygon class="ae422a80-c231-46c1-b7bf-a8cff2f1e240" points="55.84 66.02 44.04 66.02 41.65 64.82 53.45 64.82 55.84 66.02"/></g><g id="b69c7086-ec2f-4b40-9ea2-6fc5f6962540" data-name="Bloque1-66"><rect class="b2c4a31a-2196-4d92-b0cc-d01007cd8741" x="44.04" y="53.51" width="11.8" height="11.8"/><polygon class="a87eaf7e-eab0-4148-97c8-cbe27b66578f" points="44.04 65.32 41.65 64.12 41.65 52.32 44.04 53.51 44.04 65.32"/><polygon class="ae422a80-c231-46c1-b7bf-a8cff2f1e240" points="55.84 53.51 44.04 53.51 41.65 52.32 53.45 52.32 55.84 53.51"/></g><g id="a24e5f96-68ba-4c4f-b2ff-9dac429d8287" data-name="Bloque1-67"><rect class="b2c4a31a-2196-4d92-b0cc-d01007cd8741" x="44.04" y="41.01" width="11.8" height="11.8"/><polygon class="a87eaf7e-eab0-4148-97c8-cbe27b66578f" points="44.04 52.82 41.65 51.62 41.65 39.82 44.04 41.01 44.04 52.82"/><polygon class="ae422a80-c231-46c1-b7bf-a8cff2f1e240" points="55.84 41.01 44.04 41.01 41.65 39.82 53.45 39.82 55.84 41.01"/></g><g id="e61a9786-60a6-4e4a-9a3f-2b52002e0023" data-name="Bloque1-68"><rect class="b2c4a31a-2196-4d92-b0cc-d01007cd8741" x="44.04" y="28.51" width="11.8" height="11.8"/><polygon class="a87eaf7e-eab0-4148-97c8-cbe27b66578f" points="44.04 40.31 41.65 39.12 41.65 27.31 44.04 28.51 44.04 40.31"/><polygon class="ae422a80-c231-46c1-b7bf-a8cff2f1e240" points="55.84 28.51 44.04 28.51 41.65 27.31 53.45 27.31 55.84 28.51"/></g><g id="fdf43b46-56aa-495c-a003-2e0c4001e204" data-name="Bloque1-69"><rect class="b2c4a31a-2196-4d92-b0cc-d01007cd8741" x="44.04" y="16.01" width="11.8" height="11.8"/><polygon class="a87eaf7e-eab0-4148-97c8-cbe27b66578f" points="44.04 27.81 41.65 26.62 41.65 14.81 44.04 16.01 44.04 27.81"/><polygon class="ae422a80-c231-46c1-b7bf-a8cff2f1e240" points="55.84 16.01 44.04 16.01 41.65 14.81 53.45 14.81 55.84 16.01"/></g><g id="b327c55b-a86e-47d0-938f-a7617266097f" data-name="Bloque1-70"><rect class="b2c4a31a-2196-4d92-b0cc-d01007cd8741" x="44.04" y="3.51" width="11.8" height="11.8"/><polygon class="a87eaf7e-eab0-4148-97c8-cbe27b66578f" points="44.04 15.31 41.65 14.11 41.65 2.31 44.04 3.51 44.04 15.31"/><polygon class="ae422a80-c231-46c1-b7bf-a8cff2f1e240" points="55.84 3.51 44.04 3.51 41.65 2.31 53.45 2.31 55.84 3.51"/></g><g id="b03b4c6b-f288-4454-9282-b6878c12a351" data-name="Bloque1-71"><rect class="b2c4a31a-2196-4d92-b0cc-d01007cd8741" x="30.94" y="116.03" width="11.8" height="11.8"/><polygon class="a87eaf7e-eab0-4148-97c8-cbe27b66578f" points="30.94 127.83 28.54 126.63 28.54 114.83 30.94 116.03 30.94 127.83"/><polygon class="ae422a80-c231-46c1-b7bf-a8cff2f1e240" points="42.74 116.03 30.94 116.03 28.54 114.83 40.35 114.83 42.74 116.03"/></g><g id="a5a90150-97a0-4036-bbff-860dbc6d912f" data-name="Bloque1-72"><rect class="b2c4a31a-2196-4d92-b0cc-d01007cd8741" x="30.94" y="103.52" width="11.8" height="11.8"/><polygon class="a87eaf7e-eab0-4148-97c8-cbe27b66578f" points="30.94 115.33 28.54 114.13 28.54 102.33 30.94 103.52 30.94 115.33"/><polygon class="ae422a80-c231-46c1-b7bf-a8cff2f1e240" points="42.74 103.52 30.94 103.52 28.54 102.33 40.35 102.33 42.74 103.52"/></g><g id="fd6d337c-8a08-4e83-9b3f-eb64c0cd23a3" data-name="Bloque1-73"><rect class="b2c4a31a-2196-4d92-b0cc-d01007cd8741" x="30.94" y="91.02" width="11.8" height="11.8"/><polygon class="a87eaf7e-eab0-4148-97c8-cbe27b66578f" points="30.94 102.83 28.54 101.63 28.54 89.83 30.94 91.02 30.94 102.83"/><polygon class="ae422a80-c231-46c1-b7bf-a8cff2f1e240" points="42.74 91.02 30.94 91.02 28.54 89.83 40.35 89.83 42.74 91.02"/></g><g id="a71f7482-c8ff-4fbe-81bd-cb09fdbd6d39" data-name="Bloque1-74"><rect class="b2c4a31a-2196-4d92-b0cc-d01007cd8741" x="30.94" y="78.52" width="11.8" height="11.8"/><polygon class="a87eaf7e-eab0-4148-97c8-cbe27b66578f" points="30.94 90.32 28.54 89.13 28.54 77.32 30.94 78.52 30.94 90.32"/><polygon class="ae422a80-c231-46c1-b7bf-a8cff2f1e240" points="42.74 78.52 30.94 78.52 28.54 77.32 40.35 77.32 42.74 78.52"/></g><g id="a29c97ba-0b31-4f4c-8c2d-811e488f523c" data-name="Bloque1-75"><rect class="b2c4a31a-2196-4d92-b0cc-d01007cd8741" x="30.94" y="66.02" width="11.8" height="11.8"/><polygon class="a87eaf7e-eab0-4148-97c8-cbe27b66578f" points="30.94 77.82 28.54 76.62 28.54 64.82 30.94 66.02 30.94 77.82"/><polygon class="ae422a80-c231-46c1-b7bf-a8cff2f1e240" points="42.74 66.02 30.94 66.02 28.54 64.82 40.35 64.82 42.74 66.02"/></g><g id="b8478d7c-ee8b-4d11-943a-32b41a57e51b" data-name="Bloque1-76"><rect class="b2c4a31a-2196-4d92-b0cc-d01007cd8741" x="30.94" y="53.51" width="11.8" height="11.8"/><polygon class="a87eaf7e-eab0-4148-97c8-cbe27b66578f" points="30.94 65.32 28.54 64.12 28.54 52.32 30.94 53.51 30.94 65.32"/><polygon class="ae422a80-c231-46c1-b7bf-a8cff2f1e240" points="42.74 53.51 30.94 53.51 28.54 52.32 40.35 52.32 42.74 53.51"/></g><g id="a55d6ebf-0420-4a5a-b42b-316b93c74d11" data-name="Bloque1-77"><rect class="b2c4a31a-2196-4d92-b0cc-d01007cd8741" x="30.94" y="41.01" width="11.8" height="11.8"/><polygon class="a87eaf7e-eab0-4148-97c8-cbe27b66578f" points="30.94 52.82 28.54 51.62 28.54 39.82 30.94 41.01 30.94 52.82"/><polygon class="ae422a80-c231-46c1-b7bf-a8cff2f1e240" points="42.74 41.01 30.94 41.01 28.54 39.82 40.35 39.82 42.74 41.01"/></g><g id="b4959b00-80ab-47e0-ac8f-6fa5fb569796" data-name="Bloque1-78"><rect class="b2c4a31a-2196-4d92-b0cc-d01007cd8741" x="30.94" y="28.51" width="11.8" height="11.8"/><polygon class="a87eaf7e-eab0-4148-97c8-cbe27b66578f" points="30.94 40.31 28.54 39.12 28.54 27.31 30.94 28.51 30.94 40.31"/><polygon class="ae422a80-c231-46c1-b7bf-a8cff2f1e240" points="42.74 28.51 30.94 28.51 28.54 27.31 40.35 27.31 42.74 28.51"/></g><g id="fead9f69-d52a-4f7a-b2b6-21e2a0953ad9" data-name="Bloque1-79"><rect class="b2c4a31a-2196-4d92-b0cc-d01007cd8741" x="30.94" y="16.01" width="11.8" height="11.8"/><polygon class="a87eaf7e-eab0-4148-97c8-cbe27b66578f" points="30.94 27.81 28.54 26.62 28.54 14.81 30.94 16.01 30.94 27.81"/><polygon class="ae422a80-c231-46c1-b7bf-a8cff2f1e240" points="42.74 16.01 30.94 16.01 28.54 14.81 40.35 14.81 42.74 16.01"/></g><g id="b43c368d-ad9a-4aaf-a7b8-4d7afdc3756b" data-name="Bloque1-80"><rect class="b2c4a31a-2196-4d92-b0cc-d01007cd8741" x="30.94" y="3.51" width="11.8" height="11.8"/><polygon class="a87eaf7e-eab0-4148-97c8-cbe27b66578f" points="30.94 15.31 28.54 14.11 28.54 2.31 30.94 3.51 30.94 15.31"/><polygon class="ae422a80-c231-46c1-b7bf-a8cff2f1e240" points="42.74 3.51 30.94 3.51 28.54 2.31 40.35 2.31 42.74 3.51"/></g><g id="b115d542-1856-4467-8fae-3875f271a470" data-name="Bloque1-81"><rect class="b2c4a31a-2196-4d92-b0cc-d01007cd8741" x="17.83" y="116.03" width="11.8" height="11.8"/><polygon class="a87eaf7e-eab0-4148-97c8-cbe27b66578f" points="17.83 127.83 15.44 126.63 15.44 114.83 17.83 116.03 17.83 127.83"/><polygon class="ae422a80-c231-46c1-b7bf-a8cff2f1e240" points="29.64 116.03 17.83 116.03 15.44 114.83 27.25 114.83 29.64 116.03"/></g><g id="a36a3297-971a-4dfe-ba4a-dc7a2af51dc7" data-name="Bloque1-82"><rect class="b2c4a31a-2196-4d92-b0cc-d01007cd8741" x="17.83" y="103.52" width="11.8" height="11.8"/><polygon class="a87eaf7e-eab0-4148-97c8-cbe27b66578f" points="17.83 115.33 15.44 114.13 15.44 102.33 17.83 103.52 17.83 115.33"/><polygon class="ae422a80-c231-46c1-b7bf-a8cff2f1e240" points="29.64 103.52 17.83 103.52 15.44 102.33 27.25 102.33 29.64 103.52"/></g><g id="bb0c35a3-35b1-4392-83cd-85e766ab721f" data-name="Bloque1-83"><rect class="b2c4a31a-2196-4d92-b0cc-d01007cd8741" x="17.83" y="91.02" width="11.8" height="11.8"/><polygon class="a87eaf7e-eab0-4148-97c8-cbe27b66578f" points="17.83 102.83 15.44 101.63 15.44 89.83 17.83 91.02 17.83 102.83"/><polygon class="ae422a80-c231-46c1-b7bf-a8cff2f1e240" points="29.64 91.02 17.83 91.02 15.44 89.83 27.25 89.83 29.64 91.02"/></g><g id="ba7bb3a1-38c4-4ca6-acd9-9ad2c91f18b9" data-name="Bloque1-84"><rect class="b2c4a31a-2196-4d92-b0cc-d01007cd8741" x="17.83" y="78.52" width="11.8" height="11.8"/><polygon class="a87eaf7e-eab0-4148-97c8-cbe27b66578f" points="17.83 90.32 15.44 89.13 15.44 77.32 17.83 78.52 17.83 90.32"/><polygon class="ae422a80-c231-46c1-b7bf-a8cff2f1e240" points="29.64 78.52 17.83 78.52 15.44 77.32 27.25 77.32 29.64 78.52"/></g><g id="ae39f408-c8d7-44d6-bd2e-19a642af55cd" data-name="Bloque1-85"><rect class="b2c4a31a-2196-4d92-b0cc-d01007cd8741" x="17.83" y="66.02" width="11.8" height="11.8"/><polygon class="a87eaf7e-eab0-4148-97c8-cbe27b66578f" points="17.83 77.82 15.44 76.62 15.44 64.82 17.83 66.02 17.83 77.82"/><polygon class="ae422a80-c231-46c1-b7bf-a8cff2f1e240" points="29.64 66.02 17.83 66.02 15.44 64.82 27.25 64.82 29.64 66.02"/></g><g id="f88adb52-d0b6-45d1-bb74-83ad7fb6a3d0" data-name="Bloque1-86"><rect class="b2c4a31a-2196-4d92-b0cc-d01007cd8741" x="17.83" y="53.51" width="11.8" height="11.8"/><polygon class="a87eaf7e-eab0-4148-97c8-cbe27b66578f" points="17.83 65.32 15.44 64.12 15.44 52.32 17.83 53.51 17.83 65.32"/><polygon class="ae422a80-c231-46c1-b7bf-a8cff2f1e240" points="29.64 53.51 17.83 53.51 15.44 52.32 27.25 52.32 29.64 53.51"/></g><g id="e2f0b50b-817b-4d6a-93fd-cc0a3111f132" data-name="Bloque1-87"><rect class="b2c4a31a-2196-4d92-b0cc-d01007cd8741" x="17.83" y="41.01" width="11.8" height="11.8"/><polygon class="a87eaf7e-eab0-4148-97c8-cbe27b66578f" points="17.83 52.82 15.44 51.62 15.44 39.82 17.83 41.01 17.83 52.82"/><polygon class="ae422a80-c231-46c1-b7bf-a8cff2f1e240" points="29.64 41.01 17.83 41.01 15.44 39.82 27.25 39.82 29.64 41.01"/></g><g id="b73cdd01-d86c-4611-9e54-46b4e95e24f5" data-name="Bloque1-88"><rect class="b2c4a31a-2196-4d92-b0cc-d01007cd8741" x="17.83" y="28.51" width="11.8" height="11.8"/><polygon class="a87eaf7e-eab0-4148-97c8-cbe27b66578f" points="17.83 40.31 15.44 39.12 15.44 27.31 17.83 28.51 17.83 40.31"/><polygon class="ae422a80-c231-46c1-b7bf-a8cff2f1e240" points="29.64 28.51 17.83 28.51 15.44 27.31 27.25 27.31 29.64 28.51"/></g><g id="abe5eb58-1dd5-453f-8608-e90da297de9d" data-name="Bloque1-89"><rect class="b2c4a31a-2196-4d92-b0cc-d01007cd8741" x="17.83" y="16.01" width="11.8" height="11.8"/><polygon class="a87eaf7e-eab0-4148-97c8-cbe27b66578f" points="17.83 27.81 15.44 26.62 15.44 14.81 17.83 16.01 17.83 27.81"/><polygon class="ae422a80-c231-46c1-b7bf-a8cff2f1e240" points="29.64 16.01 17.83 16.01 15.44 14.81 27.25 14.81 29.64 16.01"/></g><g id="adc0d832-c211-4f81-b6e4-0b681ae4ed32" data-name="Bloque1-90"><rect class="b2c4a31a-2196-4d92-b0cc-d01007cd8741" x="17.83" y="3.51" width="11.8" height="11.8"/><polygon class="a87eaf7e-eab0-4148-97c8-cbe27b66578f" points="17.83 15.31 15.44 14.11 15.44 2.31 17.83 3.51 17.83 15.31"/><polygon class="ae422a80-c231-46c1-b7bf-a8cff2f1e240" points="29.64 3.51 17.83 3.51 15.44 2.31 27.25 2.31 29.64 3.51"/></g><g id="ab146028-8983-464e-ba08-971ac26e16b6" data-name="Bloque1-91"><rect class="b2c4a31a-2196-4d92-b0cc-d01007cd8741" x="4.73" y="116.03" width="11.8" height="11.8"/><polygon class="a87eaf7e-eab0-4148-97c8-cbe27b66578f" points="4.73 127.83 2.34 126.63 2.34 114.83 4.73 116.03 4.73 127.83"/><polygon class="ae422a80-c231-46c1-b7bf-a8cff2f1e240" points="16.54 116.03 4.73 116.03 2.34 114.83 14.14 114.83 16.54 116.03"/></g><g id="a4be9ef0-d294-42bf-a466-7051bf946ab2" data-name="Bloque1-92"><rect class="b2c4a31a-2196-4d92-b0cc-d01007cd8741" x="4.73" y="103.52" width="11.8" height="11.8"/><polygon class="a87eaf7e-eab0-4148-97c8-cbe27b66578f" points="4.73 115.33 2.34 114.13 2.34 102.33 4.73 103.52 4.73 115.33"/><polygon class="ae422a80-c231-46c1-b7bf-a8cff2f1e240" points="16.54 103.52 4.73 103.52 2.34 102.33 14.14 102.33 16.54 103.52"/></g><g id="a6e5229e-e5cf-4521-81f1-97c5967f5d5e" data-name="Bloque1-93"><rect class="b2c4a31a-2196-4d92-b0cc-d01007cd8741" x="4.73" y="91.02" width="11.8" height="11.8"/><polygon class="a87eaf7e-eab0-4148-97c8-cbe27b66578f" points="4.73 102.83 2.34 101.63 2.34 89.83 4.73 91.02 4.73 102.83"/><polygon class="ae422a80-c231-46c1-b7bf-a8cff2f1e240" points="16.54 91.02 4.73 91.02 2.34 89.83 14.14 89.83 16.54 91.02"/></g><g id="fdcc4f2e-c2a1-4dfd-8347-309a795dd968" data-name="Bloque1-94"><rect class="b2c4a31a-2196-4d92-b0cc-d01007cd8741" x="4.73" y="78.52" width="11.8" height="11.8"/><polygon class="a87eaf7e-eab0-4148-97c8-cbe27b66578f" points="4.73 90.32 2.34 89.13 2.34 77.32 4.73 78.52 4.73 90.32"/><polygon class="ae422a80-c231-46c1-b7bf-a8cff2f1e240" points="16.54 78.52 4.73 78.52 2.34 77.32 14.14 77.32 16.54 78.52"/></g><g id="ac6f0887-694f-4734-bc36-3044a6289529" data-name="Bloque1-95"><rect class="b2c4a31a-2196-4d92-b0cc-d01007cd8741" x="4.73" y="66.02" width="11.8" height="11.8"/><polygon class="a87eaf7e-eab0-4148-97c8-cbe27b66578f" points="4.73 77.82 2.34 76.62 2.34 64.82 4.73 66.02 4.73 77.82"/><polygon class="ae422a80-c231-46c1-b7bf-a8cff2f1e240" points="16.54 66.02 4.73 66.02 2.34 64.82 14.14 64.82 16.54 66.02"/></g><g id="ebffb306-419c-47c7-85b5-8a0df605db11" data-name="Bloque1-96"><rect class="b2c4a31a-2196-4d92-b0cc-d01007cd8741" x="4.73" y="53.51" width="11.8" height="11.8"/><polygon class="a87eaf7e-eab0-4148-97c8-cbe27b66578f" points="4.73 65.32 2.34 64.12 2.34 52.32 4.73 53.51 4.73 65.32"/><polygon class="ae422a80-c231-46c1-b7bf-a8cff2f1e240" points="16.54 53.51 4.73 53.51 2.34 52.32 14.14 52.32 16.54 53.51"/></g><g id="bcf75fce-a329-4109-99c2-b23bb25703bb" data-name="Bloque1-97"><rect class="b2c4a31a-2196-4d92-b0cc-d01007cd8741" x="4.73" y="41.01" width="11.8" height="11.8"/><polygon class="a87eaf7e-eab0-4148-97c8-cbe27b66578f" points="4.73 52.82 2.34 51.62 2.34 39.82 4.73 41.01 4.73 52.82"/><polygon class="ae422a80-c231-46c1-b7bf-a8cff2f1e240" points="16.54 41.01 4.73 41.01 2.34 39.82 14.14 39.82 16.54 41.01"/></g><g id="ec793b2a-0e0b-4598-9866-f58a801a3027" data-name="Bloque1-98"><rect class="b2c4a31a-2196-4d92-b0cc-d01007cd8741" x="4.73" y="28.51" width="11.8" height="11.8"/><polygon class="a87eaf7e-eab0-4148-97c8-cbe27b66578f" points="4.73 40.31 2.34 39.12 2.34 27.31 4.73 28.51 4.73 40.31"/><polygon class="ae422a80-c231-46c1-b7bf-a8cff2f1e240" points="16.54 28.51 4.73 28.51 2.34 27.31 14.14 27.31 16.54 28.51"/></g><g id="b5393e39-ff2f-427f-b8fb-7c58bfc951ac" data-name="Bloque1-99"><rect class="b2c4a31a-2196-4d92-b0cc-d01007cd8741" x="4.73" y="16.01" width="11.8" height="11.8"/><polygon class="a87eaf7e-eab0-4148-97c8-cbe27b66578f" points="4.73 27.81 2.34 26.62 2.34 14.81 4.73 16.01 4.73 27.81"/><polygon class="ae422a80-c231-46c1-b7bf-a8cff2f1e240" points="16.54 16.01 4.73 16.01 2.34 14.81 14.14 14.81 16.54 16.01"/></g><g id="fe63463e-c98a-4b11-b5e0-5a22cd59e213" data-name="Bloque1-100"><rect class="b2c4a31a-2196-4d92-b0cc-d01007cd8741" x="4.73" y="3.51" width="11.8" height="11.8"/><polygon class="a87eaf7e-eab0-4148-97c8-cbe27b66578f" points="4.73 15.31 2.34 14.11 2.34 2.31 4.73 3.51 4.73 15.31"/><polygon class="ae422a80-c231-46c1-b7bf-a8cff2f1e240" points="16.54 3.51 4.73 3.51 2.34 2.31 14.14 2.31 16.54 3.51"/></g></g></g><polygon class="a4344852-6c41-4ce8-94d5-7253bf927137" points="8.05 130.14 0 130.14 128.74 0 136.78 0 8.05 130.14"/></g></g></svg>