<svg xmlns="http://www.w3.org/2000/svg" viewBox="0 0 377.68 83.71"><defs><style>.cls-1{fill:#f8bb18;}.cls-2{fill:#c51611;}.cls-3{fill:#f78910;}.cls-4{fill:#363026;}.cls-5{fill:none;}</style></defs><title>Recurso 2</title><g id="Capa_2" data-name="Capa 2"><g id="Capa_1-2" data-name="Capa 1"><g id="Bloque1"><rect class="cls-1" x="119.07" y="39.01" width="7.14" height="7.14" transform="translate(165.21 -80.06) rotate(90)"/><polygon class="cls-2" points="126.21 39.01 125.48 37.56 118.34 37.56 119.07 39.01 126.21 39.01"/><polygon class="cls-3" points="119.07 46.15 119.07 39.01 118.34 37.56 118.34 44.7 119.07 46.15"/></g><g id="Bloque1-2" data-name="Bloque1"><rect class="cls-1" x="111.51" y="39.01" width="7.14" height="7.14" transform="translate(157.65 -72.5) rotate(90)"/><polygon class="cls-2" points="118.64 39.01 117.92 37.56 110.78 37.56 111.5 39.01 118.64 39.01"/><polygon class="cls-3" points="111.5 46.15 111.5 39.01 110.78 37.56 110.78 44.7 111.5 46.15"/></g><g id="Bloque1-3" data-name="Bloque1"><rect class="cls-1" x="103.94" y="39.01" width="7.14" height="7.14" transform="translate(150.09 -64.94) rotate(90)"/><polygon class="cls-2" points="111.08 39.01 110.36 37.56 103.22 37.56 103.94 39.01 111.08 39.01"/><polygon class="cls-3" points="103.94 46.15 103.94 39.01 103.22 37.56 103.22 44.7 103.94 46.15"/></g><g id="Bloque1-4" data-name="Bloque1"><rect class="cls-1" x="96.38" y="39.01" width="7.14" height="7.14" transform="translate(142.53 -57.38) rotate(90)"/><polygon class="cls-2" points="103.52 39.01 102.8 37.56 95.66 37.56 96.38 39.01 103.52 39.01"/><polygon class="cls-3" points="96.38 46.15 96.38 39.01 95.66 37.56 95.66 44.7 96.38 46.15"/></g><g id="Bloque1-5" data-name="Bloque1"><rect class="cls-1" x="88.82" y="39.01" width="7.14" height="7.14" transform="translate(134.97 -49.81) rotate(90)"/><polygon class="cls-2" points="95.96 39.01 95.24 37.56 88.1 37.56 88.82 39.01 95.96 39.01"/><polygon class="cls-3" points="88.82 46.15 88.82 39.01 88.1 37.56 88.1 44.7 88.82 46.15"/></g><g id="Bloque1-6" data-name="Bloque1"><rect class="cls-1" x="81.26" y="39.01" width="7.14" height="7.14" transform="translate(127.41 -42.25) rotate(90)"/><polygon class="cls-2" points="88.4 39.01 87.68 37.56 80.54 37.56 81.26 39.01 88.4 39.01"/><polygon class="cls-3" points="81.26 46.15 81.26 39.01 80.54 37.56 80.54 44.7 81.26 46.15"/></g><g id="Bloque1-7" data-name="Bloque1"><rect class="cls-1" x="73.7" y="39.01" width="7.14" height="7.14" transform="translate(119.84 -34.69) rotate(90)"/><polygon class="cls-2" points="80.84 39.01 80.11 37.56 72.97 37.56 73.7 39.01 80.84 39.01"/><polygon class="cls-3" points="73.7 46.15 73.7 39.01 72.97 37.56 72.97 44.7 73.7 46.15"/></g><g id="Bloque1-8" data-name="Bloque1"><rect class="cls-1" x="66.14" y="39.01" width="7.14" height="7.14" transform="translate(112.28 -27.13) rotate(90)"/><polygon class="cls-2" points="73.28 39.01 72.55 37.56 65.41 37.56 66.14 39.01 73.28 39.01"/><polygon class="cls-3" points="66.14 46.15 66.14 39.01 65.41 37.56 65.41 44.7 66.14 46.15"/></g><g id="Bloque1-9" data-name="Bloque1"><rect class="cls-1" x="58.58" y="39.01" width="7.14" height="7.14" transform="translate(104.72 -19.57) rotate(90)"/><polygon class="cls-2" points="65.72 39.01 64.99 37.56 57.85 37.56 58.58 39.01 65.72 39.01"/><polygon class="cls-3" points="58.58 46.15 58.58 39.01 57.85 37.56 57.85 44.7 58.58 46.15"/></g><g id="Bloque1-10" data-name="Bloque1"><rect class="cls-1" x="51.01" y="39.01" width="7.14" height="7.14" transform="translate(97.16 -12.01) rotate(90)"/><polygon class="cls-2" points="58.15 39.01 57.43 37.56 50.29 37.56 51.01 39.01 58.15 39.01"/><polygon class="cls-3" points="51.01 46.15 51.01 39.01 50.29 37.56 50.29 44.7 51.01 46.15"/></g><path class="cls-4" d="M22.65,46.6a.81.81,0,0,1,.58.22.79.79,0,0,1,.23.57.75.75,0,0,1-.23.55.85.85,0,0,1-.58.22H15.83a.74.74,0,0,1-.56-.24.81.81,0,0,1-.23-.57V35.14a.76.76,0,0,1,.24-.57.87.87,0,0,1,1.16,0,.76.76,0,0,1,.24.57V47l-.4-.35Z"/><path class="cls-4" d="M33.76,37.86a.71.71,0,0,1,.57.23.75.75,0,0,1,.22.56v8.7a.81.81,0,0,1-.23.57.77.77,0,0,1-1.12,0,.81.81,0,0,1-.23-.57V45.47l.38,0a1.9,1.9,0,0,1-.3,1,4,4,0,0,1-.81,1,4.47,4.47,0,0,1-1.2.73,3.89,3.89,0,0,1-1.5.28,4.31,4.31,0,0,1-2.42-.7,4.77,4.77,0,0,1-1.68-1.9A5.94,5.94,0,0,1,24.82,43a5.78,5.78,0,0,1,.63-2.75,4.84,4.84,0,0,1,1.67-1.88,4.54,4.54,0,0,1,4-.4,4,4,0,0,1,1.27.75,3.57,3.57,0,0,1,.84,1,2.55,2.55,0,0,1,.29,1.15L33,40.8V38.65a.75.75,0,0,1,.23-.56A.73.73,0,0,1,33.76,37.86Zm-4.06,9a3,3,0,0,0,1.74-.51A3.47,3.47,0,0,0,32.64,45a4.75,4.75,0,0,0,0-4,3.51,3.51,0,0,0-1.2-1.38,3.11,3.11,0,0,0-1.74-.5,3.18,3.18,0,0,0-1.73.49A3.42,3.42,0,0,0,26.78,41a4.72,4.72,0,0,0,0,4A3.45,3.45,0,0,0,28,46.38,3,3,0,0,0,29.7,46.89Z"/><path class="cls-4" d="M142,48.16a.74.74,0,0,1-.56-.24.81.81,0,0,1-.23-.57v-8.6a.79.79,0,0,1,.23-.57A.76.76,0,0,1,142,38a.74.74,0,0,1,.57.22.78.78,0,0,1,.22.57v2.6l-.24-.41a4.22,4.22,0,0,1,.43-1.2,3.94,3.94,0,0,1,.78-1,3.4,3.4,0,0,1,2.42-1,1.57,1.57,0,0,1,.8.21.63.63,0,0,1,.37.58.79.79,0,0,1-.22.61.71.71,0,0,1-.49.2,1.25,1.25,0,0,1-.5-.11,1.41,1.41,0,0,0-.59-.11,2,2,0,0,0-1,.27,3,3,0,0,0-.89.76,4.1,4.1,0,0,0-.65,1.11,3.5,3.5,0,0,0-.25,1.33v4.8a.81.81,0,0,1-.23.57A.74.74,0,0,1,142,48.16Z"/><path class="cls-4" d="M153.28,48.35a5.48,5.48,0,0,1-2.76-.67,4.63,4.63,0,0,1-1.83-1.84,5.43,5.43,0,0,1-.65-2.71,5.83,5.83,0,0,1,.68-2.93,4.86,4.86,0,0,1,1.76-1.86,4.48,4.48,0,0,1,2.31-.64,4.61,4.61,0,0,1,1.77.34,4.61,4.61,0,0,1,2.55,2.51,5.37,5.37,0,0,1,.42,2,.82.82,0,0,1-.26.54.81.81,0,0,1-.55.21h-7.8l-.35-1.36h7.59l-.31.28v-.44a2.56,2.56,0,0,0-.52-1.39,3.21,3.21,0,0,0-1.14-.89,3.26,3.26,0,0,0-1.4-.32,3.4,3.4,0,0,0-1.17.21,2.81,2.81,0,0,0-1.05.67,3.44,3.44,0,0,0-.74,1.19,5.09,5.09,0,0,0-.27,1.76,4.2,4.2,0,0,0,.46,2,3.49,3.49,0,0,0,3.2,1.87,4,4,0,0,0,1.23-.17,3.46,3.46,0,0,0,.88-.45,4.9,4.9,0,0,0,.62-.54.88.88,0,0,1,.51-.18.68.68,0,0,1,.67.67.73.73,0,0,1-.31.59,5.37,5.37,0,0,1-1.51,1.08A4.51,4.51,0,0,1,153.28,48.35Z"/><path class="cls-4" d="M164.82,37.8a4.39,4.39,0,0,1,2.41.67,4.87,4.87,0,0,1,1.69,1.85,6.28,6.28,0,0,1,0,5.44,4.92,4.92,0,0,1-1.68,1.87,4.24,4.24,0,0,1-2.38.68,4.14,4.14,0,0,1-1.37-.22,5.06,5.06,0,0,1-1.16-.59,4.11,4.11,0,0,1-.88-.83,3.15,3.15,0,0,1-.51-.92l.43-.28v5.82a.8.8,0,0,1-.21.57.75.75,0,0,1-.58.24.73.73,0,0,1-.56-.23.78.78,0,0,1-.23-.58V38.69a.75.75,0,0,1,.23-.56.73.73,0,0,1,.56-.23.75.75,0,0,1,.58.23.78.78,0,0,1,.21.56v1.75l-.29-.16a2.8,2.8,0,0,1,.48-.94,3.62,3.62,0,0,1,.85-.8,4.15,4.15,0,0,1,1.12-.54A4.34,4.34,0,0,1,164.82,37.8Zm-.17,1.46a3.14,3.14,0,0,0-1.75.49,3.33,3.33,0,0,0-1.18,1.34,4.25,4.25,0,0,0-.43,2,4.3,4.3,0,0,0,.43,2,3.26,3.26,0,0,0,1.18,1.36,3.14,3.14,0,0,0,1.75.49,3.07,3.07,0,0,0,1.73-.49A3.43,3.43,0,0,0,167.57,45a4.3,4.3,0,0,0,.43-2,4.25,4.25,0,0,0-.43-2,3.51,3.51,0,0,0-1.19-1.34A3.07,3.07,0,0,0,164.65,39.26Z"/><path class="cls-4" d="M172.6,48.16a.75.75,0,0,1-.57-.24.8.8,0,0,1-.22-.57v-8.6a.78.78,0,0,1,.22-.57.85.85,0,0,1,1.14,0,.83.83,0,0,1,.22.57v2.6l-.24-.41a4.52,4.52,0,0,1,.42-1.2,4.43,4.43,0,0,1,.78-1,3.48,3.48,0,0,1,1.09-.73,3.24,3.24,0,0,1,1.34-.27,1.59,1.59,0,0,1,.8.21.64.64,0,0,1,.36.58.79.79,0,0,1-.21.61.74.74,0,0,1-.5.2,1.21,1.21,0,0,1-.49-.11,1.48,1.48,0,0,0-.59-.11,2,2,0,0,0-1,.27,3.14,3.14,0,0,0-.89.76,4.38,4.38,0,0,0-.65,1.11,3.69,3.69,0,0,0-.24,1.33v4.8a.81.81,0,0,1-.23.57A.74.74,0,0,1,172.6,48.16Z"/><path class="cls-4" d="M183.9,48.35a5.48,5.48,0,0,1-2.76-.67,4.72,4.72,0,0,1-1.84-1.84,5.54,5.54,0,0,1-.65-2.71,5.93,5.93,0,0,1,.68-2.93,4.89,4.89,0,0,1,1.77-1.86,4.42,4.42,0,0,1,2.31-.64A4.7,4.7,0,0,1,186.67,39a5,5,0,0,1,1.06,1.54,5.17,5.17,0,0,1,.41,2,.77.77,0,0,1-.26.54.79.79,0,0,1-.55.21h-7.79l-.36-1.36h7.6l-.32.28v-.44a2.49,2.49,0,0,0-.52-1.39,3.28,3.28,0,0,0-2.53-1.21,3.46,3.46,0,0,0-1.18.21,2.77,2.77,0,0,0-1,.67,3.3,3.3,0,0,0-.74,1.19,4.85,4.85,0,0,0-.28,1.76,4.32,4.32,0,0,0,.46,2,3.5,3.5,0,0,0,1.3,1.37,3.56,3.56,0,0,0,1.91.5,4,4,0,0,0,1.22-.17,3.16,3.16,0,0,0,.88-.45,4.9,4.9,0,0,0,.62-.54.89.89,0,0,1,.52-.18.68.68,0,0,1,.67.67.74.74,0,0,1-.32.59,5.09,5.09,0,0,1-1.51,1.08A4.47,4.47,0,0,1,183.9,48.35Z"/><path class="cls-4" d="M189.84,46.54a.84.84,0,0,1-.16-.54.68.68,0,0,1,.33-.51.75.75,0,0,1,.47-.12.72.72,0,0,1,.48.26,4.43,4.43,0,0,0,1.26,1,3.73,3.73,0,0,0,1.74.38,3.5,3.5,0,0,0,.95-.16,1.78,1.78,0,0,0,.8-.48,1.32,1.32,0,0,0,.32-.92,1.18,1.18,0,0,0-.33-.88,2.85,2.85,0,0,0-.87-.53,8.94,8.94,0,0,0-1.17-.36c-.43-.12-.86-.26-1.28-.41a4.79,4.79,0,0,1-1.13-.57,2.59,2.59,0,0,1-.81-.87,2.42,2.42,0,0,1-.31-1.27,2.49,2.49,0,0,1,.49-1.54,3.06,3.06,0,0,1,1.3-1,4.36,4.36,0,0,1,1.78-.36,5.29,5.29,0,0,1,1.16.13,4.35,4.35,0,0,1,1.17.43,3.51,3.51,0,0,1,1,.84.76.76,0,0,1,.19.49.63.63,0,0,1-.25.54.78.78,0,0,1-.49.14.72.72,0,0,1-.44-.2,2.8,2.8,0,0,0-1-.76,3.47,3.47,0,0,0-1.38-.27,3.21,3.21,0,0,0-.92.14,1.68,1.68,0,0,0-.76.46,1.25,1.25,0,0,0-.31.9,1.2,1.2,0,0,0,.36.87,2.45,2.45,0,0,0,.9.54c.39.14.81.28,1.27.41a11.34,11.34,0,0,1,1.21.36,4.6,4.6,0,0,1,1.06.54,2.6,2.6,0,0,1,.75.86,2.86,2.86,0,0,1,.27,1.31A2.49,2.49,0,0,1,197,47a3.21,3.21,0,0,1-1.35,1,4.7,4.7,0,0,1-1.81.34,5.73,5.73,0,0,1-2.14-.41A4.29,4.29,0,0,1,189.84,46.54Z"/><path class="cls-4" d="M204.38,48.35a5.49,5.49,0,0,1-2.77-.67,4.63,4.63,0,0,1-1.83-1.84,5.43,5.43,0,0,1-.65-2.71,5.83,5.83,0,0,1,.68-2.93,4.86,4.86,0,0,1,1.76-1.86,4.48,4.48,0,0,1,2.31-.64A4.7,4.7,0,0,1,207.15,39a4.78,4.78,0,0,1,1,1.54,5.18,5.18,0,0,1,.42,2,.82.82,0,0,1-.26.54.81.81,0,0,1-.55.21H200l-.36-1.36h7.6l-.32.28v-.44a2.49,2.49,0,0,0-.52-1.39,3.32,3.32,0,0,0-2.54-1.21,3.44,3.44,0,0,0-1.17.21,2.81,2.81,0,0,0-1.05.67,3.44,3.44,0,0,0-.74,1.19,5.09,5.09,0,0,0-.27,1.76,4.2,4.2,0,0,0,.46,2,3.49,3.49,0,0,0,3.21,1.87,4,4,0,0,0,1.22-.17,3.46,3.46,0,0,0,.88-.45,4.9,4.9,0,0,0,.62-.54.88.88,0,0,1,.51-.18.63.63,0,0,1,.47.2.61.61,0,0,1,.2.47.73.73,0,0,1-.31.59,5.37,5.37,0,0,1-1.51,1.08A4.5,4.5,0,0,1,204.38,48.35Z"/><path class="cls-4" d="M216,37.7a3.65,3.65,0,0,1,2.12.55,3,3,0,0,1,1.09,1.48,6.16,6.16,0,0,1,.33,2.07v5.55a.81.81,0,0,1-.23.57.74.74,0,0,1-.56.24.76.76,0,0,1-.57-.24.8.8,0,0,1-.22-.57V41.84a3.82,3.82,0,0,0-.23-1.35,2,2,0,0,0-.75-1,2.4,2.4,0,0,0-1.43-.37,3.14,3.14,0,0,0-1.52.37,2.94,2.94,0,0,0-1.1,1,2.3,2.3,0,0,0-.42,1.35v5.51a.8.8,0,0,1-.22.57.76.76,0,0,1-.57.24.74.74,0,0,1-.56-.24.81.81,0,0,1-.23-.57v-8.6a.79.79,0,0,1,.23-.57.76.76,0,0,1,.56-.22.78.78,0,0,1,.58.22.82.82,0,0,1,.21.57v1.4l-.39.43a2.73,2.73,0,0,1,.45-1,4,4,0,0,1,.89-.94,4.26,4.26,0,0,1,1.18-.66A3.72,3.72,0,0,1,216,37.7Z"/><path class="cls-4" d="M222,38h4.64a.7.7,0,0,1,.52.21.73.73,0,0,1,.21.52.72.72,0,0,1-.73.73H222a.75.75,0,0,1-.73-.75.67.67,0,0,1,.22-.51A.73.73,0,0,1,222,38Zm2.07-2.69a.72.72,0,0,1,.55.23.76.76,0,0,1,.22.56v9.53a1.46,1.46,0,0,0,.14.71.72.72,0,0,0,.36.33,1.24,1.24,0,0,0,.45.09.89.89,0,0,0,.34-.07.78.78,0,0,1,.35-.07.48.48,0,0,1,.36.18.68.68,0,0,1,.17.49.71.71,0,0,1-.41.6,1.85,1.85,0,0,1-.93.25c-.18,0-.41,0-.68,0a2,2,0,0,1-.8-.26,1.67,1.67,0,0,1-.66-.72,3,3,0,0,1-.27-1.41V36.12a.74.74,0,0,1,.24-.56A.81.81,0,0,1,224.08,35.33Z"/><path class="cls-4" d="M237.87,37.86a.71.71,0,0,1,.57.23.75.75,0,0,1,.22.56v8.7a.81.81,0,0,1-.23.57.77.77,0,0,1-1.12,0,.81.81,0,0,1-.23-.57V45.47l.38,0a1.9,1.9,0,0,1-.3,1,4,4,0,0,1-.81,1,4.47,4.47,0,0,1-1.2.73,3.89,3.89,0,0,1-1.5.28,4.31,4.31,0,0,1-2.42-.7,4.77,4.77,0,0,1-1.68-1.9,5.94,5.94,0,0,1-.62-2.74,5.78,5.78,0,0,1,.63-2.75,4.84,4.84,0,0,1,1.67-1.88,4.35,4.35,0,0,1,2.38-.68,4.3,4.3,0,0,1,1.58.28,4,4,0,0,1,1.27.75,3.57,3.57,0,0,1,.84,1,2.42,2.42,0,0,1,.29,1.15l-.51-.12V38.65a.75.75,0,0,1,.23-.56A.73.73,0,0,1,237.87,37.86Zm-4.06,9a3,3,0,0,0,1.74-.51,3.47,3.47,0,0,0,1.2-1.39,4.75,4.75,0,0,0,0-4,3.51,3.51,0,0,0-1.2-1.38,3.11,3.11,0,0,0-1.74-.5,3.18,3.18,0,0,0-1.73.49A3.42,3.42,0,0,0,230.89,41a4.72,4.72,0,0,0,0,4,3.45,3.45,0,0,0,1.19,1.39A3,3,0,0,0,233.81,46.89Z"/><path class="cls-4" d="M254.64,38a.75.75,0,0,1,.57.22.83.83,0,0,1,.22.57v5.38a4.11,4.11,0,0,1-1.12,3.09,4.94,4.94,0,0,1-6.19,0A4.15,4.15,0,0,1,247,44.13V38.75a.79.79,0,0,1,.23-.57.76.76,0,0,1,.56-.22.74.74,0,0,1,.57.22.78.78,0,0,1,.22.57v5.38a2.74,2.74,0,0,0,.69,2,3.1,3.1,0,0,0,3.9,0,2.78,2.78,0,0,0,.68-2V38.75a.75.75,0,0,1,.23-.57A.75.75,0,0,1,254.64,38Z"/><path class="cls-4" d="M263.42,37.7a3.64,3.64,0,0,1,2.11.55,3,3,0,0,1,1.09,1.48A6.16,6.16,0,0,1,267,41.8v5.55a.81.81,0,0,1-.23.57.74.74,0,0,1-.56.24.73.73,0,0,1-.56-.24.77.77,0,0,1-.23-.57V41.84a3.82,3.82,0,0,0-.23-1.35,2,2,0,0,0-.75-1,2.4,2.4,0,0,0-1.43-.37,3.14,3.14,0,0,0-1.52.37,2.94,2.94,0,0,0-1.1,1,2.3,2.3,0,0,0-.42,1.35v5.51a.8.8,0,0,1-.22.57.79.79,0,0,1-1.13,0,.8.8,0,0,1-.22-.57v-8.6a.78.78,0,0,1,.22-.57.85.85,0,0,1,1.14,0,.82.82,0,0,1,.21.57v1.4l-.39.43a2.89,2.89,0,0,1,.45-1,4.17,4.17,0,0,1,.89-.94,4.41,4.41,0,0,1,1.18-.66A3.74,3.74,0,0,1,263.42,37.7Z"/><path class="cls-4" d="M278.17,37.86a.71.71,0,0,1,.57.23.75.75,0,0,1,.22.56v8.7a.81.81,0,0,1-.23.57.73.73,0,0,1-.56.24.74.74,0,0,1-.56-.24.81.81,0,0,1-.23-.57V45.47l.38,0a1.9,1.9,0,0,1-.3,1,4,4,0,0,1-.81,1,4.47,4.47,0,0,1-1.2.73,3.89,3.89,0,0,1-1.5.28,4.33,4.33,0,0,1-2.42-.7,4.77,4.77,0,0,1-1.68-1.9,5.94,5.94,0,0,1-.61-2.74,5.78,5.78,0,0,1,.62-2.75,4.84,4.84,0,0,1,1.67-1.88,4.35,4.35,0,0,1,2.38-.68,4.3,4.3,0,0,1,1.58.28,3.92,3.92,0,0,1,1.27.75,3.57,3.57,0,0,1,.84,1,2.44,2.44,0,0,1,.3,1.15l-.52-.12V38.65a.75.75,0,0,1,.23-.56A.73.73,0,0,1,278.17,37.86Zm-4.06,9a3,3,0,0,0,1.74-.51,3.47,3.47,0,0,0,1.2-1.39,4.75,4.75,0,0,0,0-4,3.51,3.51,0,0,0-1.2-1.38,3.09,3.09,0,0,0-1.74-.5,3.18,3.18,0,0,0-1.73.49A3.5,3.5,0,0,0,271.19,41a4.72,4.72,0,0,0,0,4,3.52,3.52,0,0,0,1.19,1.39A3,3,0,0,0,274.11,46.89Z"/><path class="cls-4" d="M295.61,33.56a.71.71,0,0,1,.57.23.75.75,0,0,1,.22.56v13a.81.81,0,0,1-.23.57.77.77,0,0,1-1.12,0,.81.81,0,0,1-.23-.57V45.47l.38-.13a2.1,2.1,0,0,1-.29,1,3.5,3.5,0,0,1-.81,1,4.75,4.75,0,0,1-1.21.75,3.89,3.89,0,0,1-1.5.29,4.33,4.33,0,0,1-2.41-.69,4.92,4.92,0,0,1-1.69-1.89,6.41,6.41,0,0,1,0-5.5A4.91,4.91,0,0,1,289,38.38a4.35,4.35,0,0,1,2.38-.68,4.18,4.18,0,0,1,1.55.28,4.14,4.14,0,0,1,1.27.75,3.64,3.64,0,0,1,.86,1,2.44,2.44,0,0,1,.3,1.15l-.51-.12V34.35a.75.75,0,0,1,.23-.56A.73.73,0,0,1,295.61,33.56Zm-4.06,13.33a3,3,0,0,0,1.75-.5A3.56,3.56,0,0,0,294.49,45a4.82,4.82,0,0,0,0-4,3.55,3.55,0,0,0-1.2-1.37,3.26,3.26,0,0,0-3.47,0A3.52,3.52,0,0,0,288.63,41a4.43,4.43,0,0,0-.44,2,4.38,4.38,0,0,0,.44,2,3.45,3.45,0,0,0,1.19,1.39A3,3,0,0,0,291.55,46.89Z"/><path class="cls-4" d="M303.93,48.35a5.48,5.48,0,0,1-2.76-.67,4.63,4.63,0,0,1-1.83-1.84,5.43,5.43,0,0,1-.65-2.71,5.83,5.83,0,0,1,.68-2.93,4.86,4.86,0,0,1,1.76-1.86,4.48,4.48,0,0,1,2.31-.64,4.61,4.61,0,0,1,1.77.34,4.61,4.61,0,0,1,2.55,2.51,5.37,5.37,0,0,1,.42,2,.82.82,0,0,1-.26.54.81.81,0,0,1-.55.21h-7.8l-.35-1.36h7.59l-.31.28v-.44a2.56,2.56,0,0,0-.52-1.39,3.21,3.21,0,0,0-1.14-.89,3.26,3.26,0,0,0-1.4-.32,3.4,3.4,0,0,0-1.17.21,2.81,2.81,0,0,0-1,.67,3.44,3.44,0,0,0-.74,1.19,5.09,5.09,0,0,0-.27,1.76,4.2,4.2,0,0,0,.46,2,3.49,3.49,0,0,0,3.2,1.87,4,4,0,0,0,1.23-.17,3.46,3.46,0,0,0,.88-.45,4.9,4.9,0,0,0,.62-.54.88.88,0,0,1,.51-.18.68.68,0,0,1,.67.67.73.73,0,0,1-.31.59A5.37,5.37,0,0,1,306,47.89,4.51,4.51,0,0,1,303.93,48.35Z"/><path class="cls-4" d="M314.88,37.7a6.83,6.83,0,0,1,1.82.22,3.46,3.46,0,0,1,1.28.59,1.08,1.08,0,0,1,.47.85.79.79,0,0,1-.17.49.55.55,0,0,1-.48.24.77.77,0,0,1-.42-.1,1.52,1.52,0,0,1-.32-.26,1.4,1.4,0,0,0-.4-.27,1.93,1.93,0,0,0-.69-.22,5.74,5.74,0,0,0-.93-.08,3.52,3.52,0,0,0-1.89.51,3.66,3.66,0,0,0-1.3,1.38,4.13,4.13,0,0,0-.46,2,4.23,4.23,0,0,0,.45,2,3.6,3.6,0,0,0,1.27,1.38,3.43,3.43,0,0,0,1.87.51,4.55,4.55,0,0,0,1.1-.11,4.63,4.63,0,0,0,.7-.28,2.28,2.28,0,0,0,.52-.4.68.68,0,0,1,.52-.19.62.62,0,0,1,.51.21.84.84,0,0,1,.18.54,1.07,1.07,0,0,1-.49.75,4.45,4.45,0,0,1-1.33.67,6.16,6.16,0,0,1-1.89.27,4.82,4.82,0,0,1-2.62-.7,4.75,4.75,0,0,1-1.75-1.91,5.91,5.91,0,0,1-.62-2.71,5.79,5.79,0,0,1,.64-2.71,5,5,0,0,1,1.79-1.91A4.92,4.92,0,0,1,314.88,37.7Z"/><path class="cls-4" d="M325.2,48.35a5.48,5.48,0,0,1-2.76-.67,4.72,4.72,0,0,1-1.84-1.84,5.54,5.54,0,0,1-.65-2.71,5.93,5.93,0,0,1,.68-2.93,4.89,4.89,0,0,1,1.77-1.86,4.42,4.42,0,0,1,2.31-.64A4.7,4.7,0,0,1,328,39,5,5,0,0,1,329,40.55a5.17,5.17,0,0,1,.41,2,.77.77,0,0,1-.26.54.79.79,0,0,1-.55.21h-7.79l-.36-1.36h7.6l-.32.28v-.44a2.49,2.49,0,0,0-.52-1.39,3.28,3.28,0,0,0-2.53-1.21,3.46,3.46,0,0,0-1.18.21,2.77,2.77,0,0,0-1,.67,3.3,3.3,0,0,0-.74,1.19,4.85,4.85,0,0,0-.28,1.76,4.2,4.2,0,0,0,.46,2,3.5,3.5,0,0,0,1.3,1.37,3.56,3.56,0,0,0,1.91.5,4,4,0,0,0,1.22-.17,3.3,3.3,0,0,0,.88-.45,4.9,4.9,0,0,0,.62-.54.88.88,0,0,1,.51-.18.68.68,0,0,1,.68.67.74.74,0,0,1-.32.59,5.23,5.23,0,0,1-1.51,1.08A4.47,4.47,0,0,1,325.2,48.35Z"/><path class="cls-4" d="M336.78,37.7a3.62,3.62,0,0,1,2.11.55A3,3,0,0,1,340,39.73a6.16,6.16,0,0,1,.33,2.07v5.55a.81.81,0,0,1-.23.57.77.77,0,0,1-1.12,0,.81.81,0,0,1-.23-.57V41.84a3.61,3.61,0,0,0-.23-1.35,2,2,0,0,0-.75-1,2.38,2.38,0,0,0-1.43-.37,3.1,3.1,0,0,0-1.51.37,3,3,0,0,0-1.11,1,2.29,2.29,0,0,0-.41,1.35v5.51a.81.81,0,0,1-.23.57.74.74,0,0,1-.56.24.73.73,0,0,1-.56-.24.77.77,0,0,1-.23-.57v-8.6a.75.75,0,0,1,.23-.57.75.75,0,0,1,.56-.22.77.77,0,0,1,.57.22.83.83,0,0,1,.22.57v1.4l-.4.43a2.76,2.76,0,0,1,.46-1,3.91,3.91,0,0,1,.88-.94,4.32,4.32,0,0,1,1.19-.66A3.65,3.65,0,0,1,336.78,37.7Z"/><path class="cls-4" d="M351.53,37.86a.75.75,0,0,1,.58.23.78.78,0,0,1,.21.56v8.7a.8.8,0,0,1-.22.57.76.76,0,0,1-.57.24.74.74,0,0,1-.56-.24.81.81,0,0,1-.23-.57V45.47l.38,0a1.9,1.9,0,0,1-.3,1,3.57,3.57,0,0,1-.81,1,4.47,4.47,0,0,1-1.2.73,3.89,3.89,0,0,1-1.5.28,4.28,4.28,0,0,1-2.41-.7,4.8,4.8,0,0,1-1.69-1.9A5.94,5.94,0,0,1,342.6,43a5.78,5.78,0,0,1,.62-2.75,4.79,4.79,0,0,1,1.68-1.88,4.52,4.52,0,0,1,4-.4,3.92,3.92,0,0,1,1.27.75,3.57,3.57,0,0,1,.84,1,2.44,2.44,0,0,1,.3,1.15l-.52-.12V38.65a.75.75,0,0,1,.23-.56A.73.73,0,0,1,351.53,37.86Zm-4.06,9a3.07,3.07,0,0,0,1.75-.51A3.52,3.52,0,0,0,350.41,45a4.75,4.75,0,0,0,0-4,3.56,3.56,0,0,0-1.19-1.38,3.15,3.15,0,0,0-1.75-.5,3.2,3.2,0,0,0-1.73.49A3.5,3.5,0,0,0,344.55,41a4.82,4.82,0,0,0,0,4,3.52,3.52,0,0,0,1.19,1.39A3.06,3.06,0,0,0,347.47,46.89Z"/><path class="cls-4" d="M355.72,48.14a.85.85,0,0,1-.65-.24.92.92,0,0,1-.22-.65v-.4a1,1,0,0,1,.22-.67.89.89,0,0,1,.65-.23h.15a.86.86,0,0,1,.65.23,1,1,0,0,1,.22.67v.4a.92.92,0,0,1-.22.65.82.82,0,0,1-.65.24Z"/><rect class="cls-5" width="377.68" height="83.71"/></g></g></svg>