<svg xmlns="http://www.w3.org/2000/svg" viewBox="0 0 406.85 300"><defs><style>.cls-1{fill:#ffeb8e;}.cls-2{fill:#e4c577;}.cls-3{fill:#be7c00;}</style></defs><title>piramide</title><g id="Capa_2" data-name="Capa 2"><g id="Capa_2-2" data-name="Capa 2"><polygon class="cls-1" points="2.36 271.78 267.75 298.71 404.76 246.12 205 2.05 2.36 271.78"/><path class="cls-2" d="M267.92,300l-.3,0L0,272.82,1.35,271,205,0l1,1.25L406.85,246.67ZM4.72,270.75l262.86,26.67,135.09-51.86L205,4.1Z"/><polygon class="cls-3" points="261.67 270.42 261.37 270.39 22.32 247.32 24.11 244.94 261.31 267.84 381.8 220.06 383.48 222.12 261.67 270.42"/><polygon class="cls-3" points="251.39 221.89 251.1 221.86 56.15 202.29 57.93 199.92 251.06 219.31 351.22 182.7 352.92 184.78 251.39 221.89"/><polygon class="cls-3" points="241.88 177.02 241.61 177 86.97 161.26 88.75 158.9 241.59 174.45 321.94 146.92 323.65 149.01 241.88 177.02"/><polygon class="cls-3" points="232.17 131.2 231.91 131.17 118.54 119.24 120.32 116.88 231.91 128.62 291.57 109.82 293.3 111.93 232.17 131.2"/><polygon class="cls-3" points="223.77 91.54 145.93 82.78 147.7 80.43 223.53 88.96 264.32 76.54 266.06 78.66 223.77 91.54"/><polygon class="cls-3" points="215.24 51.27 215 51.25 173.05 46.69 174.82 44.33 215.03 48.7 236.69 42.78 238.45 44.92 215.24 51.27"/><line class="cls-1" x1="205" y1="2.05" x2="267.75" y2="298.71"/><rect class="cls-2" x="235.11" y="-1.23" width="2.53" height="303.22" transform="translate(-26 52.17) rotate(-11.94)"/></g></g></svg>