<svg xmlns="http://www.w3.org/2000/svg" viewBox="0 0 129.45 120.01"><defs><style>.cls-1,.cls-5{fill:none;}.cls-10,.cls-2,.cls-4,.cls-7{fill:#d89955;}.cls-3,.cls-9{fill:#ffe8c6;}.cls-10,.cls-4,.cls-5,.cls-6,.cls-7,.cls-8,.cls-9{stroke:#000;stroke-miterlimit:10;}.cls-4,.cls-7,.cls-8,.cls-9{stroke-width:0.25px;}.cls-10,.cls-5,.cls-7{stroke-linecap:round;}.cls-10,.cls-5,.cls-6{stroke-width:0.5px;}.cls-6{fill:#fff;}.cls-8{fill:#fea49c;}</style></defs><title>Mistake feedback_zorro</title><g id="Layer_2" data-name="Layer 2"><g id="Layer_1-2" data-name="Layer 1"><rect class="cls-1" width="129.45" height="120"/><path class="cls-2" d="M121,120a78.47,78.47,0,0,0-4.2-15.63c-3-7.56-9.23-7.33-11.59-5.86-5.32,3.32.42,16.2,3.39,21.49Z"/><path d="M108.57,119.69c-2.77-4.89-8.45-17.72-3.24-21a6.09,6.09,0,0,1,3.11-.78,7.56,7.56,0,0,1,2.33.38c1.77.58,4.2,2.12,5.79,6.14a76,76,0,0,1,3.87,15.23h.5A75.44,75.44,0,0,0,117,104.27c-1.66-4.2-4.23-5.81-6.09-6.43a7.32,7.32,0,0,0-5.86.46c-5.29,3.3-.53,15.22,2.92,21.39Z"/><path class="cls-3" d="M49.6,120c-.37-5.79-1.32-12.93-8.66-20.69-9.66-10.21-20.56-12.8-22.69-10.91s4.15,3.65,5.9,12.49c1.67,8.44-3.7,13.61-7,19.11"/><path d="M17,120h.3c.64-1.07,1.34-2.1,2.09-3.2,3.06-4.48,6.22-9.11,4.87-15.92a19,19,0,0,0-4.93-9.49c-1.33-1.52-1.83-2.17-1-2.89,2-1.75,12.81.63,22.52,10.9,7.24,7.66,8.25,14.65,8.62,20.61h.25c-.38-6-1.39-13-8.69-20.77-10-10.55-20.78-12.76-22.87-10.92-1,.92-.23,1.84,1,3.24A18.87,18.87,0,0,1,24,100.93c1.33,6.7-1.8,11.29-4.83,15.73C18.43,117.79,17.67,118.91,17,120Z"/><path class="cls-2" d="M112.1,120c-6-25.06-14.91-28-24-27.73C74.32,92.68,73,105.41,71.3,120Z"/><path d="M71.42,120l.08-.68c1.66-14.23,3.1-26.53,16.56-27,8.29-.25,17.67,1.77,23.92,27.63h.26c-6.3-26.09-15.79-28.13-24.19-27.88-13.68.44-15.12,12.83-16.8,27.19l-.08.7Z"/><path class="cls-2" d="M76.05,101.42c-2.56,0-23.39,7.28-26.44,16.27a4.56,4.56,0,0,0,0,2.32h9.89a2,2,0,0,1,0-1c.85-2.62,11.76-6.49,15.16-6.39"/><path d="M74.68,112.46h-.14c-3.65,0-14.31,3.91-15.14,6.48a2.49,2.49,0,0,0,0,1.06h.25a2.51,2.51,0,0,1,0-1c.81-2.51,11.29-6.31,14.9-6.31h.14a.13.13,0,0,0,.13-.12A.14.14,0,0,0,74.68,112.46Z"/><path d="M76.05,101.29c-1.4,0-7.34,1.92-13.09,4.79-5.24,2.61-11.82,6.73-13.47,11.58a5.4,5.4,0,0,0,.08,2.35h.15a5,5,0,0,1,0-2.28c3-8.93,24-16.18,26.32-16.19a.12.12,0,0,0,.12-.12A.12.12,0,0,0,76.05,101.29Z"/><path class="cls-3" d="M79.51,120c1.54-1.61,3.71-4,4.73-3.82.54.11,1.84,1.79,3.74,3.82h20.51a51.25,51.25,0,0,0,.06-7.7,10.17,10.17,0,0,1,2.19,2.44S107.49,104,104.93,101s-8.49-1.88-8.49-1.88c-5.41-.71-12.91,2.18-16.9,11.26A29.3,29.3,0,0,0,77.68,120Z"/><path d="M77.81,120a29.41,29.41,0,0,1,1.84-9.61c3.85-8.73,11.2-11.92,16.78-11.19h0c.06,0,5.89-1.09,8.37,1.85,2.08,2.46,4.67,10.22,5.51,12.85a14.93,14.93,0,0,0-1.72-1.7l-.23-.19,0,.3a52.49,52.49,0,0,1-.06,7.69h.25a53.24,53.24,0,0,0,.08-7.41,8.75,8.75,0,0,1,1.93,2.2l.23-.08c-.13-.44-3.29-10.82-5.83-13.83s-8.15-2-8.59-1.93c-5.66-.72-13.13,2.49-17,11.34A29.59,29.59,0,0,0,77.56,120Z"/><path d="M84.26,116.06c-1.05-.22-3.11,2-4.75,3.75l-.18.19h.35l0,0c1.42-1.49,3.59-3.86,4.51-3.68a10.76,10.76,0,0,1,2.49,2.38c.34.37.71.9,1.11,1.32h.34c-.46-.49-.88-1.07-1.26-1.49C85.59,117.09,84.73,116.15,84.26,116.06Z"/><path class="cls-4" d="M89.7,42.35c-1.76-6.63-1.45-13.61,3.76-21.55S108.3,2.93,110.79,4.45s8.87,18.1,10.78,32c1.05,7.64-6.65,15.9-9.64,17.25"/><path class="cls-4" d="M71.15,25.41c14.2-2.31,30.93,1.4,40.58,11.6s9.72,24.17,12.08,32.54a68.13,68.13,0,0,0,2.79,6.72c1.9,4.19.94,10.53-7.62,19.8-4.56,5-29.34,13.4-54.65,7.83C41.65,98.91,40.65,88,37,71.14S44.56,29.73,71.15,25.41Z"/><path class="cls-5" d="M97.07,54.74c.77-2.82,3.7-6.63,6.77-7.28,5-1.06,7.36,1.9,8,3.13"/><path class="cls-4" d="M51.34,34.84C47.4,27.73,41.33,22,30.12,19.35S2.12,16,1.17,19.29,8.32,42,18.17,55.54c5.41,7.41,19.1,8.29,22.87,7"/><path class="cls-6" d="M65.15,74.85c1-2.48,7-7.8,12.17-7.73s9.27,4.57,10.63,8.7.68,5.64-.66,7.38a12.44,12.44,0,0,1-12.81,4c-6.67-1.7-8-5-9-6.87A5.63,5.63,0,0,1,65.15,74.85Z"/><ellipse cx="83.54" cy="76.71" rx="3.72" ry="4.79"/><path class="cls-6" d="M110.17,61.66c2-.37,6.32,2.06,7.47,5.82s1.77,8.7-3.14,10.72a8.47,8.47,0,0,1-10.72-3.3C102.43,72.72,104,62.77,110.17,61.66Z"/><ellipse cx="112.69" cy="70.36" rx="2.94" ry="4.43" transform="translate(-1.28 2.09) rotate(-1.06)"/><path class="cls-7" d="M82.27,27.9c1.71-.65,1.82-3.69.38-6.49S75.93,14.34,72,15s.7,6.34,2.36,7.63c0,0-4.82-3.11-9.17-2.61s-3.4,4.37,3.45,6"/><path class="cls-8" d="M41.15,62.83s.08-21.74-14.24-33.24S2.91,18.2,1.53,19.28C-.52,20.89,5.7,36.61,12.18,48,17.66,57.55,24.12,64.91,41.15,62.83Z"/><path class="cls-9" d="M112.22,91.29s-3.13.86-14.94,3.26a71.28,71.28,0,0,1-26,.51c-6.13-1-8.32-1-20.05-7.07-9.6-5-13.63-13.27-12.44-8.25s3.08,14.59,11.81,19.44,24.17,7,35.66,6.85c11.17-.12,19.13-1.61,26.08-5.45,7.81-4.32,8.72-6.67,11.4-10,2.85-3.5,4.32-8.67,3.77-11.67a15.33,15.33,0,0,0-2.67-6.77c-.33-.42-1.77,6.77-4.57,11.34A27.44,27.44,0,0,1,112.22,91.29Z"/><path d="M111.27,89.68a7,7,0,0,1,2.46-.78A2.92,2.92,0,0,1,116,90.5c.73,1.25-.87,3.87-1.55,4.26s-4,.73-5.45-.69-.87-2.41-.33-2.86A14.56,14.56,0,0,1,111.27,89.68Z"/><path class="cls-10" d="M63.29,65.29a29.18,29.18,0,0,0,13.64,3.32c5.25.08,9.39-4,9.39-4"/><path class="cls-2" d="M113.33,111s-.45,4.21-.54,6.7c0,.75-.07,1.63-.05,2.34h9.79c0-.27,0-.67,0-.92,0-3.56-.5-8.28-.24-8.32.94-.14,4.73-2.32,4.6-7.68-.05-1.85-1.91-7.08-10.08-7.8-6.08-.53-9.25,5.58-8.95,8.48C108.47,109.64,112.57,110.77,113.33,111Z"/><path d="M113.2,111.05c-.08.68-.45,4.36-.53,6.6l0,.55c0,.56,0,1.26,0,1.8h.24c0-.53,0-1.23,0-1.78l0-.56c.08-2.45.53-6.65.54-6.69v-.11l-.11,0c-1.12-.26-4.81-1.57-5.37-7.08a8.45,8.45,0,0,1,2.58-6,7.6,7.6,0,0,1,6.24-2.33c8,.7,9.91,5.78,10,7.67.14,5.57-3.87,7.47-4.49,7.56-.23,0-.24.4-.06,3.51.09,1.57.18,3.35.2,4.93,0,.25,0,.65,0,.92h.25c0-.27,0-.67,0-.92,0-1.59-.12-3.45-.2-4.94a25.82,25.82,0,0,1-.09-3.26c1.14-.23,4.78-2.52,4.64-7.81,0-1.95-2-7.19-10.19-7.91a7.89,7.89,0,0,0-6.44,2.4,8.73,8.73,0,0,0-2.65,6.21C108.31,109.29,111.93,110.72,113.2,111.05Z"/></g></g></svg>