<svg xmlns="http://www.w3.org/2000/svg" xmlns:xlink="http://www.w3.org/1999/xlink" viewBox="0 0 336.85 474.67"><defs><style>.cls-1,.cls-24,.cls-6,.cls-8{fill:none;}.cls-2,.cls-5,.cls-7{fill:#d89955;}.cls-12,.cls-14,.cls-16,.cls-18,.cls-2,.cls-22,.cls-24,.cls-4,.cls-6,.cls-7,.cls-8{stroke:#000;}.cls-12,.cls-14,.cls-16,.cls-18,.cls-2,.cls-22,.cls-24,.cls-4,.cls-6{stroke-linecap:round;}.cls-12,.cls-14,.cls-16,.cls-18,.cls-2,.cls-22,.cls-24,.cls-4,.cls-6,.cls-8{stroke-linejoin:round;}.cls-12,.cls-14,.cls-16,.cls-18,.cls-2,.cls-20,.cls-22,.cls-4,.cls-5,.cls-7{fill-rule:evenodd;}.cls-3{clip-path:url(#clip-path);}.cls-4{fill:#ffe8c6;}.cls-28,.cls-29,.cls-7{stroke-miterlimit:10;}.cls-9{clip-path:url(#clip-path-2);}.cls-10{clip-path:url(#clip-path-3);}.cls-11{clip-path:url(#clip-path-4);}.cls-12{fill:#fea49c;}.cls-13{clip-path:url(#clip-path-5);}.cls-14{fill:#7b2325;}.cls-15{clip-path:url(#clip-path-6);}.cls-16{fill:#f06b6b;}.cls-17{clip-path:url(#clip-path-7);}.cls-18,.cls-20{fill:#fff;}.cls-19{clip-path:url(#clip-path-8);}.cls-21{clip-path:url(#clip-path-9);}.cls-22{fill:#1c1c1c;}.cls-23{clip-path:url(#clip-path-10);}.cls-24{stroke-width:3px;}.cls-25{fill:#fcb042;stroke:#562f09;stroke-miterlimit:10;}.cls-26{fill:#ed9520;}.cls-27{fill:#fce8c8;}.cls-28{fill:#e44b86;stroke:#b53167;}.cls-29{fill:#a0a0b1;stroke:#71717f;}</style><clipPath id="clip-path" transform="translate(0 0.39)"><path class="cls-1" d="M56,361c-9.55-21.18,4.57-44.64-8.3-74.85-5.61-13.29-20.14-26.47-20.14-26.47s21.07-8.1,41.21-.32c25.54,9.76,31.14,21.91,37.89,36,4.78,10.07-1.35,27,3.84,36.75,11.32,21.49,26.37,21.38,38.83,28.86,4.26,2.49-1.66,10.17-4.78,12.45C123.65,389.26,72.47,397.88,56,361Z"/></clipPath><clipPath id="clip-path-2" transform="translate(0 0.39)"><path class="cls-1" d="M159.57,222.85c-12.56-.2-29.07,3-37.89,10.8-4.88,4.36-8.93,18.17-9.35,19.72-1.35,4.16-6.23,37-8.82,52.74-2.8,17.54-12.56,41.11-9.14,58.55,1.25,6.44,5.3,15,10.28,19.2,12.15,10.18,35.5,13,51.39,12.67,14-.21,33.22-4.88,45-12.56,5.19-3.43,11.62-9.45,13.8-15.57,6.13-17-1.76-41.94-3.32-60.11-1.45-17.34-3.63-47.23-6.12-56.06-.73-2.8-3.12-12.87-7-16.71C189.67,227,172.54,223.06,159.57,222.85Z"/></clipPath><clipPath id="clip-path-3" transform="translate(0 0.39)"><path class="cls-1" d="M180.64,44.3c28,2.8,60,7.89,79.1,31.35,23.26,28.65,16.93,70,15.58,100.49-.42,8.72-3,23.56-3.95,27.92-1.35,6.54-39.24,25.23-57.82,32.29-14.64,5.5-38.83,12.35-50.77,11.11-15.46-1.66-44.22-11.94-61-21.7C86.59,217,58.56,194.51,57.42,188.08c-.83-4.67.1-24.92,1.24-36.44,2.91-27.41,3-63.64,28.65-87.2C111.5,42.53,148.15,41,180.64,44.3Z"/></clipPath><clipPath id="clip-path-4" transform="translate(0 0.39)"><path class="cls-1" d="M130.6,62.05c-.73-11.69-15-38.72-29.27-47.55C67.28-6.57,16.1.18,9.66,8.69,3.85,16.27,26,61.43,41.22,78.76c6.44,7.37,22.53,17,27.62,18C76.31,98.07,103,93,114.62,84.58,121.36,79.7,130.29,67,130.6,62.05Z"/></clipPath><clipPath id="clip-path-5" transform="translate(0 0.39)"><path class="cls-1" d="M227.56,71.91c2.29-9.86,20.76-34.57,33.85-45,19.62-15.68,46.81-28.24,53-25.75,12.36,4.78,11.53,81.49-9,105.79-6.23,7.26-24.29,12.14-29.38,12-7.68-.21-35.19-10.28-43.6-22.11C228.08,90.6,226.52,76.38,227.56,71.91Z"/></clipPath><clipPath id="clip-path-6" transform="translate(0 0.39)"><path class="cls-1" d="M109.63,205.31c8.72,2.7,13.5,4.67,23.57,6.85a239.89,239.89,0,0,0,32.08,4.67c8.09.83,13.8,1.87,27,1.35,10.17-.41,16.81-2.7,28.34-4.25,7.06-.94,13.7-1,13.8-.83S229.64,225.66,223.2,231c-10.38,5.29-17.33,7.27-28.23,10.17-12.57,2.29-20.77,1.15-33-.2-14.43-1.56-23.67-2-38.2-8.41-9.45-4.15-14.32-5.92-21.18-14.12-5.29-6.44-7.78-18-7.78-18S104.13,203.54,109.63,205.31Z"/></clipPath><clipPath id="clip-path-7" transform="translate(0 0.39)"><path class="cls-1" d="M109.63,205.31c8.72,2.7,13.5,4.67,23.57,6.85a239.89,239.89,0,0,0,32.08,4.67c8.09.83,13.8,1.87,27,1.35,10.17-.41,16.81-2.7,28.34-4.25,7.06-.94,13.7-1,13.8-.83S229.64,225.66,223.2,231c-10.27,5.5-17.13,7.06-28.23,10.17-12.57,2.29-20.87,1.35-33.12,0-14.43-1.55-23.57-2.07-38.1-8.51-9.45-4.15-14.32-5.92-21.18-14.12-5.29-6.43-7.78-18-7.78-18S104.13,203.54,109.63,205.31Z"/></clipPath><clipPath id="clip-path-8" transform="translate(0 0.39)"><path class="cls-1" d="M109.63,205.31c8.72,2.7,13.5,4.67,23.57,6.85a239.89,239.89,0,0,0,32.08,4.67c8.09.83,13.8,1.87,27,1.35,10.17-.41,16.81-2.7,28.34-4.25,7.06-.94,13.7-1,13.8-.83S230.68,225.86,223.2,231,206.59,237.7,195,241.12c-12.57,2.29-20.75,1.74-33,.39-14.43-1.56-23.69-2.46-38.22-8.9-9.45-4.15-14.32-5.92-21.18-14.12-5.29-6.43-7.78-18-7.78-18S104.13,203.54,109.63,205.31Z"/></clipPath><clipPath id="clip-path-9" transform="translate(0 0.39)"><path class="cls-1" d="M248.43,171.36c1.76-3.22,4-8.09,3.63-11.83-1.35-10.8-5.08-24.92-23.15-27.93-17.54-2.9-25.74,5.19-32.39,13.81A33.41,33.41,0,0,0,190.71,161c-.21,2.8.1,7,1.66,9.34,4.88,7.27,17.23,12.46,25.95,13.6,7.27.94,17.86-1.14,24-5.19C244.69,177.28,247.08,174,248.43,171.36Z"/></clipPath><clipPath id="clip-path-10" transform="translate(0 0.39)"><path class="cls-1" d="M85,155.48c-1.25-3.74-2.49-9.34-1.14-13.08,3.53-10.07,9.76-22.84,27.51-22.42,18.06.41,24.91,10.07,29.9,19.72a32,32,0,0,1,2.59,16.71c-.31,2.81-1.45,6.75-3.53,8.83-6.23,6.23-19.41,8.72-28.13,8.1-7.48-.52-17.65-4.78-22.94-10C87.31,161.5,85.86,158.08,85,155.48Z"/></clipPath></defs><title>Zorro glosa</title><g id="Layer_2" data-name="Layer 2"><g id="Frame_6" data-name="Frame 6"><g id="ZORRO"><g id="Cola"><g id="cola-2" data-name="cola"><path class="cls-2" d="M56,361c-9.55-21.18,4.57-44.64-8.3-74.85-5.61-13.29-20.14-26.47-20.14-26.47s21.07-8.1,41.21-.32c25.54,9.76,31.14,21.91,37.89,36,4.78,10.07-1.35,27,3.84,36.75,11.32,21.49,26.37,21.38,38.83,28.86,4.26,2.49-1.66,10.17-4.78,12.45C123.65,389.26,72.47,397.88,56,361Z" transform="translate(0 0.39)"/></g><g id="Relleno_cola" data-name="Relleno cola"><g class="cls-3"><path class="cls-4" d="M53.26,318.05c1.66-6.23,5.61-13.7,6.13-13.08,2.7,3.22,5.92,16.3,22,20.45,1,.21,4.77-21.49,11.1-19.83.73.21,3.64,5.3,11,9.24.41.21,18.89-33.53,12.87-46.82C104,240.5,47.45,221.4,21.08,236.14,8.83,243,.84,266.25,4.26,280,8.83,298.12,48.38,336,53.26,318.05Z" transform="translate(0 0.39)"/></g></g></g><g id="pierna_izq" data-name="pierna izq"><path class="cls-5" d="M182.72,450.41c.1.1.2,13.8,12.45,13.18,11.53-.62,10.49-13.18,10.59-13.39s-2-33-2.59-46.82c-.63-13.29-.42-42.46-1.46-44.95-.52-1.14-3.42-16.19-15.67-15.05S173.58,359.05,173.37,361c-.2,2.7,2.91,31.35,4.36,44.74S182.72,450.3,182.72,450.41Z" transform="translate(0 0.39)"/><path class="cls-6" d="M205.66,450.2c.1-.31-2-33-2.6-46.82-.62-13.29-.41-42.46-1.45-44.95-.52-1.14-3.43-16.19-15.68-15.05S173.48,359.05,173.27,361c-.21,2.7,2.91,31.35,4.36,44.74s5,44.43,5.09,44.53" transform="translate(0 0.39)"/></g><g id="pierna_der" data-name="pierna der"><path class="cls-5" d="M113.47,456.53c-.1.21-.2,9.76-10.17,10.49C92.3,467.74,90.84,457,90.84,457c0-.21,6.44-34.68,10.28-49.31,3.32-12.56,11.42-37.79,13-41.22,1-2.38,6.74-19.41,19.72-14.43,12.25,4.68,5.61,20.87,5.3,22.43-.73,4.05-10.28,27.4-14.23,39.34C120.74,426,113.79,455.91,113.47,456.53Z" transform="translate(0 0.39)"/><path class="cls-6" d="M90.74,456.84c0-.2,6.44-34.67,10.28-49.31,3.32-12.56,11.42-37.78,13-41.21,1-2.39,6.75-19.41,19.73-14.43,12.25,4.67,5.6,20.87,5.29,22.42-.73,4.05-10.28,27.41-14.22,39.35-4.05,12.25-11,42.25-11.32,42.77" transform="translate(0 0.39)"/></g><g id="pata_izq" data-name="pata izq"><path class="cls-2" d="M183,449.47c-5.71.31-7.79,7.58-9,11.84-.94,3-.42,10,.41,10.59s15,1.55,20.66,1.55c7.58.11,26.16-.52,27.09-1.55.52-.52,2.7-10.28.94-14.23-1.14-2.38-5.61-5-6.85-5.71a48,48,0,0,0-7.48-2.18c-1.66-.41-2.9-.51-5.5-.93-3.43-.52-8.2-.21-11.63-.1C189.05,448.85,187.28,449.27,183,449.47Z" transform="translate(0 0.39)"/></g><g id="pata_der" data-name="pata der"><path class="cls-2" d="M113.68,450.82c2.39,2.39,3.84,6.85,4.57,10.18s.31,10.58-.1,11.1c-1.15,1.35-23.78,1.77-32.91,1.66-3.84,0-11.32-.1-13.6-.83-.52-.2-3.32-5.81-3.43-8.51-.1-3.22-.83-7.68,6.65-13,4.25-3,14.43-2.91,15.57-3a57.15,57.15,0,0,1,7.26-.51,52.33,52.33,0,0,1,10.7.83C110.05,449.16,113,450.1,113.68,450.82Z" transform="translate(0 0.39)"/></g><g id="brazo_izq" data-name="brazo izq"><path class="cls-7" d="M184.07,253.79c-.73-5.71,2.9-8.72,4.77-9.14,3-.52,58-3.94,58.76-4.15s48-28.55,47.75-29a21,21,0,0,1,2.39-18.79c5.81-8.72,14.64-6.44,20.86-3.53,5.82,2.7,10.7,14.53,9.14,21.59-2.08,9.34-10.38,14.74-22.22,16.51-3.21.52-49.1,30.73-54.18,32.28-4.78,1.46-57.31,2.6-60.84,1.56C190,260.85,184.69,259.19,184.07,253.79Z" transform="translate(0 0.39)"/><path d="M184.07,253.79c-.73-5.71,2.69-9.14,4.77-9.45l.1.83c-1.76.21-5.6,2.91-4.87,8.62Z" transform="translate(0 0.39)"/><path class="cls-8" d="M188.74,244.34l.1.83" transform="translate(0 0.39)"/><path class="cls-8" d="M294.73,211.85l1.35-.62" transform="translate(0 0.39)"/><path class="cls-8" d="M305.63,227.94l-.21-1.45" transform="translate(0 0.39)"/><path d="M190.4,261.47c-.52-.21-5.61-2.18-6.33-7.68h0c.62,5.4,6,6.75,6.54,6.85Z" transform="translate(0 0.39)"/><path class="cls-8" d="M190.4,261.47l.21-.73" transform="translate(0 0.39)"/></g><g id="brazo_der" data-name="brazo der"><path class="cls-7" d="M136.83,246.31c.42-5.5-4.25-8.4-4.57-8.61-1.45-1.14-48.89-5.5-50.24-6.23S39.25,194.2,39.25,193.68c-.31-7.16-2.08-12.77-9.76-18.48C20,168.14,8.94,171,2.71,180.91c-3.43,5.4-2.7,13.81,1,18.9,5.08,7.06,14.32,9.34,22.52,8.51.42,0,42.05,37.89,49.52,41,6.44,2.59,51.8,6.95,54.5,5.5C130.91,254.62,136.42,252.34,136.83,246.31Z" transform="translate(0 0.39)"/><path d="M136.83,246.31c.42-5.5-4.46-8.09-4.77-8.3l.52-.62c.2.2,4.67,3.42,4.25,8.92Z" transform="translate(0 0.39)"/><path class="cls-8" d="M132.06,238l.52-.62" transform="translate(0 0.39)"/><path d="M130.08,254.41c.63-.31,6.34-2.07,6.75-8.1h0c-.52,6-5.81,8.72-6.23,9Z" transform="translate(0 0.39)"/><path class="cls-8" d="M130.08,254.41l.52.94" transform="translate(0 0.39)"/></g><g id="cuerpo"><g id="cuerpo-2" data-name="cuerpo"><path class="cls-2" d="M159.57,222.85c-12.56-.2-29.07,3-37.89,10.8-4.88,4.36-8.93,18.17-9.35,19.72-1.35,4.16-6.23,37-8.82,52.74-2.8,17.54-12.56,41.11-9.14,58.55,1.25,6.44,5.3,15,10.28,19.2,12.15,10.18,35.5,13,51.39,12.67,14-.21,33.22-4.88,45-12.56,5.19-3.43,11.62-9.45,13.8-15.57,6.13-17-1.76-41.94-3.32-60.11-1.45-17.34-3.63-47.23-6.12-56.06-.73-2.8-3.12-12.87-7-16.71C189.67,227,172.54,223.06,159.57,222.85Z" transform="translate(0 0.39)"/></g><g id="detalle"><g class="cls-9"><path class="cls-4" d="M126.55,225.24c-16,19.73-9.13,60.32-8.3,59.38,7.37-8.1,19.52-12.66,19.52-12.66s-6.75,18.37-.11,24.81a170.55,170.55,0,0,1,20.56,24.5s14.84-15.58,23.15-24.09c5.71-5.81,2.18-24.19,2.18-24.19s14.84,5,19.2,11.73c.42.73,8.83-30.41-10.28-59.38-4.25-6.54-22.63-12.24-33.32-12.14C148.67,213.3,131.33,219.32,126.55,225.24Z" transform="translate(0 0.39)"/></g></g></g><g id="cabeza"><g id="cabeza-2" data-name="cabeza"><path class="cls-2" d="M180.64,44.3c28,2.8,60,7.89,79.1,31.35,23.26,28.65,16.93,70,15.58,100.49-.42,8.72-3,23.56-3.95,27.92-1.35,6.54-39.24,25.23-57.82,32.29-14.64,5.5-38.83,12.35-50.77,11.11-15.46-1.66-44.22-11.94-61-21.7C86.59,217,58.56,194.51,57.42,188.08c-.83-4.67.1-24.92,1.24-36.44,2.91-27.41,3-63.64,28.65-87.2C111.5,42.53,148.15,41,180.64,44.3Z" transform="translate(0 0.39)"/></g><g id="barbilla"><g class="cls-10"><path class="cls-4" d="M45.06,173.54c31.56-23.46,104.44,23,122.4,24.19,17.33,1.14,89.9-31.14,114.6-4.26,7.06,7.69,9.55,23.47,8.2,33.85-1.45,11-8.92,25.85-17.95,32.39-45.58,32.9-136.31,30.1-187.38,6.54-22.53-10.38-53.78-36-56-60.63C27.93,194.62,36.45,179.88,45.06,173.54Z" transform="translate(0 0.39)"/></g></g><g id="OREJA_DER" data-name="OREJA DER"><g id="oreja_Der-2" data-name="oreja Der"><path class="cls-5" d="M129.75,62.45c.83-10.07-14.2-39.12-28.42-47.95C67.28-6.57,16.1.18,9.66,8.69,3.85,16.27,26,61.43,41.22,78.76c6.44,7.37,21.59,18.17,26.68,19.1C75.38,99.21,103,93,114.62,84.47,121.36,79.7,129.44,67.43,129.75,62.45Z" transform="translate(0 0.39)"/><path class="cls-6" d="M130.6,62.05c-2.58-10.83-15-38.72-29.27-47.55C67.28-6.57,16.1.18,9.66,8.69,3.85,16.27,26,61.43,41.22,78.76c6.44,7.37,22,17.24,27.1,18.17" transform="translate(0 0.39)"/></g><g id="relleno_oreja_der" data-name="relleno oreja der"><g class="cls-11"><path class="cls-12" d="M6,11.69c5.86-7.73,39,8,57.87,31.67s7.82,49.72,4.29,53.87c-4,4.77-31.28-12.34-42.28-22.83C13.71,63,.11,19.43,6,11.69Z" transform="translate(0 0.39)"/></g></g></g><g id="OREJA_IZQ" data-name="OREJA IZQ"><g id="oreja_Der-3" data-name="oreja Der"><path class="cls-5" d="M227.56,71.91c2.29-9.86,20.14-33.94,33.22-44.43C280.4,11.81,308.12-1.28,314.45,1.11c12.36,4.78,11.53,81.49-9,105.79-6.23,7.26-24.5,12-29.59,11.93-7.68-.2-35-10.07-43.39-22C228.08,90.6,226.52,76.38,227.56,71.91Z" transform="translate(0 0.39)"/><path class="cls-6" d="M227.56,71.91C229.85,62.05,249,36.72,262,26.23c19.62-15.67,46.19-27.61,52.42-25.12,12.36,4.78,11.53,81.49-9,105.79-6.23,7.26-23.67,11.93-28.65,11.83" transform="translate(0 0.39)"/></g><g id="relleno_oreja_izq" data-name="relleno oreja izq"><g class="cls-13"><path class="cls-12" d="M319.81.16c-8.9-1.55-31.32,30.1-41.07,61.3S274.63,116.26,277,121c2.8,5.61,38.89-.22,49.47-11C348.5,87.38,327.93,2.06,319.81.16Z" transform="translate(0 0.39)"/></g></g></g><g id="boca"><g id="boca-2" data-name="boca"><path class="cls-14" d="M109.63,205.31c8.72,2.7,13.5,4.67,23.57,6.85,13.29,2.91,24.81,4.67,32.08,5.5a150.41,150.41,0,0,0,27,.52c9.76-.72,16.92-1.35,28.44-2.9,7.06-.94,13.6-2.29,13.7-2.18s-5.32,11.94-12.06,16.72A69.4,69.4,0,0,1,195,241.12c-12.57,2.29-20.69,2.17-32.94.82-14.43-1.56-23.75-3-38.28-9.43-9.45-4.15-14.32-5.92-21.18-14.12-5.29-6.44-7.78-18-7.78-18S104.13,203.54,109.63,205.31Z" transform="translate(0 0.39)"/></g><g id="lengua"><g class="cls-15"><path class="cls-16" d="M121.68,235.41c.31-5.5,9.65-8.72,14.74-10.69,7.06-2.7,17.44-2.9,24.91-2.49,9.34.62,22.94,1.66,30.52,7.16,4,2.91,9.86,8.72,8.93,13.4-1.35,6.54-12.87,9.55-19.31,11-13.18,3-32.49.62-44.74-5.19C131.33,246.11,121.36,241.44,121.68,235.41Z" transform="translate(0 0.39)"/></g></g><g id="dientes"><g class="cls-17"><path class="cls-18" d="M54.3,187.14c2.6,4.47,67.79,12.15,111.18,16s112.33,4.05,112.33,3.94,1.35-37.78-7.48-50.24c-18.58-25.85-66.33-37.06-98-40.9-31.87-3.84-83.25-6.23-105.78,16.71C54.92,144.58,53.06,184.86,54.3,187.14Z" transform="translate(0 0.39)"/></g><g class="cls-19"><path class="cls-18" d="M278.22,235.1c-3.11-4.36-71.63,6.34-116.06,2-43.29-4.26-110.35-24-110.35-23.88s-6.44,52.73,5.5,70.18c18.07,26.26,66.34,37.06,98,40.9,31.87,3.84,82.74,5.6,105.68-16.72C277,292,280.19,237.91,278.22,235.1Z" transform="translate(0 0.39)"/></g></g></g><g id="ojos"><g id="ojos-2" data-name="ojos"><path class="cls-20" d="M85,155.48c-1.25-3.74-2.49-9.34-1.14-13.08,3.53-10.07,9.76-22.84,27.51-22.42,18.06.41,24.91,10.07,29.9,19.72a32,32,0,0,1,2.59,16.71c-.31,2.81-1.45,6.75-3.53,8.83-6.23,6.23-19.41,8.72-28.13,8.1-7.48-.52-17.65-4.78-22.94-10C87.31,161.5,85.86,158.08,85,155.48Z" transform="translate(0 0.39)"/><path d="M83.47,142.3c3.53-10.18,9.66-23.67,27.93-23.36l-.11,2.18c-17.23-.52-23.66,11.31-27.19,21.49Z" transform="translate(0 0.39)"/><path class="cls-8" d="M83.47,142.3l.73.2" transform="translate(0 0.39)"/><path d="M111.4,118.94c18.48.52,25.85,10.59,30.83,20.35l-1.87.93c-4.88-9.65-11.21-18.79-29-19.21Z" transform="translate(0 0.39)"/><path class="cls-8" d="M111.4,118.94l-.11,2.18" transform="translate(0 0.39)"/><path d="M142.23,139.29c2.39,4.77,2.6,12.14,2,17.23l-.52-.11c.63-5-1.14-11.83-3.32-16.19Z" transform="translate(0 0.39)"/><path class="cls-8" d="M142.23,139.29l-1.87.93" transform="translate(0 0.39)"/><path d="M140.57,165.45c-6.33,6.22-19.52,8.92-28.34,8.3l.1-.83c8.72.62,21.8-1.66,27.93-7.89Z" transform="translate(0 0.39)"/><path class="cls-8" d="M140.57,165.45l-.42-.42" transform="translate(0 0.39)"/><path d="M112.23,173.75c-7.58-.52-18-4.67-23.36-10l.94-.93C95.1,168,105,172.4,112.33,172.92Z" transform="translate(0 0.39)"/><path class="cls-8" d="M112.23,173.75l.1-.83" transform="translate(0 0.39)"/><path d="M88.87,163.78c-2-2-3.11-5.6-4.05-8.2l.42-.1A20.75,20.75,0,0,0,89.7,163Z" transform="translate(0 0.39)"/><path class="cls-8" d="M88.87,163.78l.94-.93" transform="translate(0 0.39)"/><path class="cls-20" d="M248.43,171.36c1.76-3.22,4-8.09,3.63-11.83-1.35-10.8-5.08-24.92-23.15-27.93-17.54-2.9-25.74,5.19-32.39,13.81A33.41,33.41,0,0,0,190.71,161c-.21,2.8.1,7,1.66,9.34,4.88,7.27,17.23,12.46,25.95,13.6,7.27.94,17.86-1.14,24-5.19C244.69,177.28,247.08,174,248.43,171.36Z" transform="translate(0 0.39)"/><path d="M251.65,159.63c-1.35-10.79-5.4-24.08-23-26.88l.32-2.18c18.58,3.21,22,18.06,23.35,29Z" transform="translate(0 0.39)"/><path class="cls-8" d="M251.65,159.63l.72-.1" transform="translate(0 0.39)"/><path d="M228.7,132.75c-17.12-2.91-24.81,4.87-31.35,13.39l-1.76-1.35c6.64-8.62,15.57-17.13,33.53-14.22Z" transform="translate(0 0.39)"/><path class="cls-8" d="M228.7,132.75l.32-2.18" transform="translate(0 0.39)"/><path d="M197.35,146.14c-2.9,3.73-6,10.07-6.43,15h-.52c.41-5,2.07-12.15,5.19-16.3Z" transform="translate(0 0.39)"/><path class="cls-8" d="M197.35,146.14l-1.66-1.35" transform="translate(0 0.39)"/><path d="M192.58,170.22c4.77,7.27,17.13,12.25,25.74,13.29l-.1.83c-8.72-1.14-21.18-6.44-26.06-13.81Z" transform="translate(0 0.39)"/><path class="cls-8" d="M192.58,170.22l-.52.31" transform="translate(0 0.39)"/><path d="M218.32,183.61c7.27.94,17.55-1.35,23.57-5.29l.73,1c-6.34,4-17,6-24.4,5Z" transform="translate(0 0.39)"/><path class="cls-8" d="M218.32,183.61l-.1.83" transform="translate(0 0.39)"/><path d="M242,178.32a20.61,20.61,0,0,0,6.23-7.06l.42.21c-1.35,2.59-3.43,6.23-5.92,7.89Z" transform="translate(0 0.39)"/><path class="cls-8" d="M242,178.32l.73,1" transform="translate(0 0.39)"/></g><g class="cls-21"><path class="cls-22" d="M210.33,147.8c4.46.41,7.58,5.81,7,11.94s-4.68,10.79-9.24,10.38-7.58-5.82-7-11.94S205.76,147.38,210.33,147.8Z" transform="translate(0 0.39)"/></g><g class="cls-23"><path class="cls-22" d="M127.9,140c4.47.42,7.58,5.82,7,11.94s-4.67,10.8-9.24,10.38-7.58-5.81-7-11.94S123.34,139.49,127.9,140Z" transform="translate(0 0.39)"/></g></g><g id="cejas"><g class="cls-10"><path class="cls-24" d="M85.76,99.94s17.75-7.06,29.58-5.81c14.43,1.66,33.43,15.26,33.43,15.26" transform="translate(0 0.39)"/></g><g class="cls-10"><path class="cls-24" d="M255.8,114.79s-16.4-8.93-26.78-9.55c-13.19-.84-35.3,8.3-35.3,8.3" transform="translate(0 0.39)"/></g></g><g id="nariz"><g class="cls-10"><path class="cls-22" d="M167.46,192.23c3.32.21,8.61.52,10.38,3.32a4.43,4.43,0,0,1,0,3.95c-1.87,3.21-7.79,4.56-11.53,4.46-3.21-.21-7.89-2.08-9.65-4.67-.83-1.25-1.56-3.74-.73-5C157.59,191.5,164,192,167.46,192.23Z" transform="translate(0 0.39)"/></g></g></g><g id="Mechon"><path class="cls-2" d="M206.43,51.28c-2.12-8.46-8.68-20.62-14.49-26.53-11.53-11.63-26.37-11.94-28.76-4.16-.93,3.12,6.65,3.64,9.66,5.3,2.8,1.56,8.4,5.29,8.4,5.29s-13.28-7.06-23.87-2.8c-2.81,1.14-7.58,3.94-7.37,7,.31,6.12,10.38,4.56,15.88,6.33s9.47,8.23,14.56,10.54" transform="translate(0 0.39)"/></g></g><rect class="cls-25" x="259.52" y="199.6" width="88.96" height="15.67" transform="translate(33.46 457.34) rotate(-76.99)"/><rect class="cls-26" x="256.61" y="202.02" width="88.96" height="8.51" transform="translate(32.33 453.6) rotate(-76.99)"/><path class="cls-27" d="M302.1,253.17l-10.59,13.7a1.16,1.16,0,0,1-1.56.41,1.2,1.2,0,0,1-.52-.72l-3.63-17.13Z" transform="translate(0 0.39)"/><path d="M288.71,263.13l.72,3.32a1,1,0,0,0,1.35.83,1.19,1.19,0,0,0,.73-.51l2.08-2.6Z" transform="translate(0 0.39)"/><path class="cls-28" d="M318.4,154.34l-3-.62c-4.16-.94-7.89,2.28-8.41,4.36h0c-.52,2.07-.52,3.94,1.66,4.46l10.8,2.49c2.07.52,2.8-1.14,3.21-3.32h0C323.28,159.63,321.62,155.06,318.4,154.34Z" transform="translate(0 0.39)"/><path class="cls-29" d="M305.84,160.36l17.23,3.94a.8.8,0,0,1,.52.73l-1.46,6.44a.77.77,0,0,1-.72.52l-17.23-4a.76.76,0,0,1-.52-.73l1.45-6.43C305.11,160.46,305.42,160.26,305.84,160.36Z" transform="translate(0 0.39)"/><path class="cls-7" d="M318.6,189.11c-6.22-2.9-15.36-3.42-20.86,3.53s-5.61,12.25-4.36,19.42,8.93,13.91,18.48,13.8,13.8-5.81,15.78-15.15C329.3,203.65,324.42,191.81,318.6,189.11Z" transform="translate(0 0.39)"/></g></g></svg>