<svg xmlns="http://www.w3.org/2000/svg" xmlns:xlink="http://www.w3.org/1999/xlink" viewBox="0 0 136.87 120"><defs><style>.cls-1,.cls-2{fill:none;}.cls-1,.cls-11,.cls-13,.cls-15,.cls-5,.cls-7,.cls-8{stroke:#000;stroke-miterlimit:10;}.cls-1,.cls-10,.cls-11,.cls-13,.cls-15,.cls-5,.cls-7,.cls-8{stroke-linecap:round;}.cls-1,.cls-13,.cls-5,.cls-8{stroke-width:0.25px;}.cls-3{fill:#317043;}.cls-4{fill:#568c64;}.cls-15,.cls-5,.cls-9{fill:#45adb0;}.cls-6,.cls-8{fill:#d0a26e;}.cls-7{fill:#316b6f;}.cls-11,.cls-7{stroke-width:0.5px;}.cls-10{fill:#a0dbf0;stroke:#4a91cd;stroke-linejoin:round;}.cls-11{fill:#fff;}.cls-12{clip-path:url(#clip-path);}.cls-13{fill:#7e2d3a;}.cls-14{fill:#fea49c;}.cls-15{stroke-width:0.75px;}</style><clipPath id="clip-path"><path class="cls-1" d="M80,52.4c-3.57.17-9.65-3.93-11.1-2.65-11.81,10.42-30.1,8.75-34.56,8.67-4.87-.09-10.07-.64-10.67,1.15-1.27,3.82,5.92,8.5,13.57,9.73s13.31,2,21.16,0c11-2.75,13.4-5.55,16.65-8.62C79.55,56.4,81.78,52.31,80,52.4Z"/></clipPath></defs><title>Correct feedbacK_tortuga_5to0</title><g id="Layer_2" data-name="Layer 2"><g id="Layer_1-2" data-name="Layer 1"><rect class="cls-2" width="136.87" height="120"/><path class="cls-3" d="M89.43,120C86.32,98.12,63.12,66.92,56.17,67.15c-27,.91-24.55,34.39-23.12,52.85Z"/><path d="M33.17,120c-1.06-13.78-2.65-35.12,7-45.9,3.84-4.3,9.23-6.6,16-6.82h.08c3.39,0,11,7.57,18.08,18.07,3.89,5.75,13,21,15,34.66h.25c-1.94-13.7-11.12-29-15-34.8C67.21,74.38,59.65,66.92,56.16,67c-6.83.23-12.28,2.55-16.17,6.9-9.72,10.86-8.14,32.25-7.07,46.07Z"/><path class="cls-4" d="M92.45,120C89.52,98.07,67,67,60.33,67.27c-26,.91-23.39,34.26-22,52.73Z"/><path d="M38.19,120h.25l0-.41c-1-13.78-2.58-35.19,6.86-45.72,3.65-4.07,8.72-6.25,15.06-6.48h.07c3.28,0,10.61,7.54,17.48,18,3.77,5.73,12.62,21,14.44,34.62h.25c-1.81-13.7-10.7-29-14.48-34.75-7-10.7-14.28-18.11-17.69-18.11h-.08c-6.41.23-11.54,2.44-15.24,6.56-9.51,10.62-7.95,32.08-6.92,45.91Z"/><path class="cls-5" d="M66.61,79.32c1.55.44,13.54,3.32,25,1.05s33.87-24.34,37-29.94-9.3-15.54-15.45-14.24c-4.7,1-11.64,20.59-18.57,24.83s-22.73,12.85-26,12.4S63.44,78.41,66.61,79.32Z"/><path class="cls-6" d="M96.39,120C93.74,97.88,70.71,68.9,62,68.7,34.51,68,38.48,101.46,40,120Z"/><path d="M39.83,120h.25c-.06-.8-.13-2.21-.2-3.06-1.15-13.88-2.73-32.89,6.24-42.39,3.73-4,9.07-5.88,15.87-5.73,4.22.1,12.27,7.24,19.57,17.36,8.2,11.37,13.53,24,14.71,33.82h.25C95.34,110.15,90,97.45,81.76,86,74.3,75.69,66.36,68.68,62,68.57c-6.87-.15-12.27,1.79-16.06,5.8C36.89,84,38.48,103,39.63,117,39.7,117.81,39.77,119.2,39.83,120Z"/><path class="cls-7" d="M122.23,48.61a2.39,2.39,0,0,0,2.5-2.43,3.45,3.45,0,0,0-3.09-2.83,3.33,3.33,0,0,0-2.54,3.47C119.45,48.32,120.31,48.53,122.23,48.61Z"/><path class="cls-7" d="M116.84,42.11a2.54,2.54,0,0,0,.38-2.47c-.46-.58-1.84-.31-2.25,0s-1,1.85-.51,2.32A2.21,2.21,0,0,0,116.84,42.11Z"/><path class="cls-8" d="M49.43,107.65c1.57-.86,15.69-5.28,21.83-6s12.84.15,16.26,2.29"/><path class="cls-9" d="M55.19,120c-6.36-4.52-21.3-11.26-21.57-12-.71-2,8.55-19.56,9.49-22.93.85-3.06.5-7.83-1.29-9.38-1.37-1.19-2.14-1.32-5.56,1.36-3,2.35-20.12,28.24-21.12,40.1a21.77,21.77,0,0,0,.1,2.86Z"/><path d="M15.37,120a19.93,19.93,0,0,1-.1-2.85c.57-6.79,6.38-17.68,9.79-23.57,4.76-8.21,9.76-15.26,11.28-16.44,3.38-2.65,4.09-2.5,5.4-1.36C43.48,77.28,43.84,82,43,85c-.36,1.28-1.92,4.6-3.72,8.45C36.35,99.7,33,106.76,33.5,108c.12.31,1.59,1,5.77,3A131.73,131.73,0,0,1,55,120h.43a122.92,122.92,0,0,0-16-9.16,43.36,43.36,0,0,1-5.64-2.9c-.42-1.17,3-8.48,5.76-14.36,1.8-3.85,3.36-7.18,3.73-8.48.87-3.11.48-7.95-1.32-9.51-1.5-1.29-2.38-1.27-5.73,1.35-1.53,1.2-6.57,8.28-11.34,16.52-3.42,5.9-9.25,16.83-9.82,23.67a21.73,21.73,0,0,0,.09,2.87Z"/><path class="cls-10" d="M123.93,77.8s-3.07,8.74,5.95,11.35c0,0-11-4.19-13.85,1.95,0,0,.83-10.88-.93-11.72C115.1,79.38,122.44,79.57,123.93,77.8Z"/><path class="cls-10" d="M23.31,99s-6.93,5.32-7.09,7.41c0,0-6.29-9.18-9-9.66,0,0,7.09-1.29,7.9-4C15.09,92.71,16.06,97.38,23.31,99Z"/><path class="cls-5" d="M49,4.54C61.09,4,89.86,3.71,96.94,28.29S100.7,68.71,76.11,75,33.61,78.71,19,72.05-11.82,7.46,49,4.54Z"/><path class="cls-11" d="M28.54,48.15C24.67,42.78,23.22,30,35.15,26.88s15,14.22,14.2,18.3C48,52.21,38,61.22,28.54,48.15Z"/><path class="cls-11" d="M86.21,39.49c1.74-6-1.89-17.79-8-18.13-9.48-.52-6.49,14.23-5.3,18C75,45.8,83.44,49.07,86.21,39.49Z"/><g class="cls-12"><path class="cls-13" d="M80.41,42.23c-3,2-10.82,10.88-22.11,13.58s-19.42,3.58-23.73,2.25-7.93.38-8.19,4.42,4,10.61,11.63,11.84,18.12.89,27.24-4.47,14.15-11.26,15.31-17S81,41.8,80.41,42.23Z"/><path class="cls-14" d="M68,48.49c3.83.48,10.52,3.7,11.69,7.55s-15.3,19.72-32.9,17.87S18.9,72.74,18.54,63.32s-1.87-8.27,9.62-8.85S65.92,48.23,68,48.49Z"/></g><path class="cls-1" d="M80,52.4c-3.57.17-9.65-3.93-11.1-2.65-11.81,10.42-30.1,8.75-34.56,8.67-4.87-.09-10.07-.64-10.67,1.15-1.27,3.82,5.92,8.5,13.57,9.73s13.31,2,21.16,0c11-2.75,13.4-5.55,16.65-8.62C79.55,56.4,81.78,52.31,80,52.4Z"/><ellipse cx="82.5" cy="35.32" rx="1.88" ry="3.22" transform="translate(-4.17 12.05) rotate(-8.15)"/><ellipse cx="45.76" cy="42.84" rx="1.99" ry="3.4" transform="translate(-5.61 6.92) rotate(-8.15)"/><path class="cls-15" d="M21.36,19.27c.57-1.22,3.14-6.79,7.94-8.26a16.66,16.66,0,0,1,9.66.38"/><path class="cls-15" d="M64.94,12c.71-.88,3.86-4.9,7.77-5.12A13.23,13.23,0,0,1,80,9"/></g></g></svg>