<svg xmlns="http://www.w3.org/2000/svg" xmlns:xlink="http://www.w3.org/1999/xlink" viewBox="0 0 346.36 537.98"><defs><style>.cls-1,.cls-18,.cls-7{fill:none;}.cls-10,.cls-11,.cls-13,.cls-14,.cls-16,.cls-18,.cls-2,.cls-24,.cls-25,.cls-3,.cls-4,.cls-5,.cls-6,.cls-7,.cls-8,.cls-9{stroke:#000;}.cls-10,.cls-11,.cls-13,.cls-14,.cls-16,.cls-18,.cls-2,.cls-24,.cls-25,.cls-3,.cls-4,.cls-5,.cls-8,.cls-9{stroke-linecap:round;}.cls-10,.cls-2,.cls-22,.cls-23,.cls-24,.cls-25,.cls-3,.cls-4,.cls-5,.cls-6,.cls-8,.cls-9{stroke-miterlimit:10;}.cls-10,.cls-2,.cls-24,.cls-25,.cls-3,.cls-4,.cls-5,.cls-8,.cls-9{stroke-width:0.5px;}.cls-10,.cls-11,.cls-13,.cls-14,.cls-15,.cls-16,.cls-2,.cls-24,.cls-25,.cls-3,.cls-4,.cls-5,.cls-8,.cls-9{fill-rule:evenodd;}.cls-2{fill:url(#linear-gradient);}.cls-3{fill:url(#linear-gradient-2);}.cls-4{fill:url(#linear-gradient-3);}.cls-5{fill:url(#linear-gradient-4);}.cls-11,.cls-13,.cls-14,.cls-16,.cls-18,.cls-7{stroke-linejoin:round;}.cls-8{fill:url(#linear-gradient-5);}.cls-9{fill:url(#linear-gradient-6);}.cls-10{fill:url(#linear-gradient-7);}.cls-11{fill:#7b2325;}.cls-12{clip-path:url(#clip-path);}.cls-13{fill:#f06b6b;}.cls-14,.cls-15{fill:#fff;}.cls-16{fill:#1c1c1c;}.cls-17{clip-path:url(#clip-path-4);}.cls-18{stroke-width:3px;}.cls-19{fill:#fcb042;stroke:#562f09;stroke-miterlimit:10;}.cls-20{fill:#ed9520;}.cls-21{fill:#fce8c8;}.cls-22{fill:#e44b86;stroke:#b53167;}.cls-23{fill:#a0a0b1;stroke:#71717f;}.cls-24{fill:url(#linear-gradient-8);}.cls-25{fill:url(#linear-gradient-9);}</style><linearGradient id="linear-gradient" x1="-4524.5" y1="-352.07" x2="-4525.1" y2="-351.84" gradientTransform="matrix(130.48, 0, 0, -79.48, 590467.71, -27612.69)" gradientUnits="userSpaceOnUse"><stop offset="0" stop-color="#2babe2"/><stop offset="1" stop-color="#2e378e"/></linearGradient><linearGradient id="linear-gradient-2" x1="-4477.77" y1="-349.75" x2="-4477.8" y2="-350.42" gradientTransform="matrix(48.62, 0, 0, -110.65, 217933.51, -38242.63)" xlink:href="#linear-gradient"/><linearGradient id="linear-gradient-3" x1="-4501.47" y1="-349.96" x2="-4501.48" y2="-350.6" gradientTransform="matrix(71.22, 0, 0, -106.56, 320713.53, -36840.67)" xlink:href="#linear-gradient"/><linearGradient id="linear-gradient-4" x1="-4523.27" y1="-351.53" x2="-4523.27" y2="-351.14" gradientTransform="matrix(126.14, 0, 0, -78, 570853.8, -27203.24)" xlink:href="#linear-gradient"/><linearGradient id="linear-gradient-5" x1="-4525.15" y1="-352.45" x2="-4525.13" y2="-352.06" gradientTransform="matrix(134.07, 0, 0, -71.53, 606757.36, -24990.49)" xlink:href="#linear-gradient"/><linearGradient id="linear-gradient-6" x1="-4512.94" y1="-347.43" x2="-4512.94" y2="-346.74" gradientTransform="matrix(92.35, 0, 0, -163.99, 416943.86, -56624.44)" xlink:href="#linear-gradient"/><linearGradient id="linear-gradient-7" x1="-4534.52" y1="-345.63" x2="-4534.49" y2="-346.31" gradientTransform="matrix(206.79, 0, 0, -207.97, 937840.72, -71853.63)" gradientUnits="userSpaceOnUse"><stop offset="0" stop-color="#2e378e"/><stop offset="1" stop-color="#2babe2"/></linearGradient><clipPath id="clip-path"><path class="cls-1" d="M124.52,170c3.81.32,15,1.75,20,2,7,.32,25.56-.17,28.53-.3,2.5-.12,18.07-1,23.84-1.84,3.94-.6,18.13-4.75,22.69-5.68,3.07-.62,10.9-2.39,12.07-1.06,1.87,2.12-4.13,15-6.84,18.12-3.46,4-17,10.19-21.8,11.81-5.87,2-24.3,4.23-30,4.41-6.66.21-27.39-.69-35.21-3.07-4.66-1.42-15-6.07-18.64-9.81-3-3.08-9.19-13.67-7.85-15.5C112.27,167.65,122,169.77,124.52,170Z"/></clipPath><clipPath id="clip-path-4"><path class="cls-1" d="M167.58.26c15.47-.61,14.33,30,29.82,36,17.43,6.73,41.7-4.07,56.24,11.53,9.92,10.64,14.75,54.08,8.46,72.44A27.16,27.16,0,0,0,267,146.6c4.72,5.58,13.39,24.55,2,34.63-17.82,15.77-69.44,25-95.39,26.43-19,1.05-86.49-12-94.8-16.1-2.29-1.13-19.32-20.1-4.45-32.23,9.43-7.69,11.81-20.6,7.22-32.53-13.15-34.21-4-66.66,3.45-73.26,20.29-17.86,40-5,58.53-19.28C154.86,25.6,153.32.82,167.58.26Z"/></clipPath><linearGradient id="linear-gradient-8" x1="336.67" y1="195.73" x2="336.51" y2="184.71" gradientTransform="matrix(1, 0, 0, 1, 0, 0)" xlink:href="#linear-gradient"/><linearGradient id="linear-gradient-9" x1="315.41" y1="191.1" x2="315.28" y2="181.95" gradientTransform="matrix(1, 0, 0, 1, 0, 0)" xlink:href="#linear-gradient"/></defs><title>Camaleon 4 glosa_5to0</title><g id="Layer_2" data-name="Layer 2"><g id="Frame_6" data-name="Frame 6"><g id="CAMALEON"><g id="Cola"><g id="cola-2" data-name="cola"><path class="cls-2" d="M105.79,425.31c-18.88-10-39.41-17.59-53.18-46.17-11.38-23.64-20.71-49.86,2.71-61.53,14.79-7.37,32,19.78,11,28.35-6.91,2.82-10.34-7.48-10.05-12.45.38-6.29,5.35-3.41,5.35-3.42s-4.17-1.75-5.19,1.33c-1.56,4.77.9,9.8,2.67,13.44,4.64,9.56,14.39,17.63,24.11,24.63,8.35,6,23.66,6.6,33.16,3.25,15.12-5.33,22.09-3.11,38.6-39.62,10.59-23.41,46.06-7.13,54.12,10.07a37.14,37.14,0,0,1,1.55,26.32c-8.29,24.52-39.85,48.37-63.17,56.57C135.54,430.26,122.23,434,105.79,425.31Z"/></g></g><g id="pie_izq" data-name="pie izq"><g id="pierna_izq" data-name="pierna izq"><path class="cls-3" d="M225.7,512.52c.39.83-18,2.73-17.24,18.11.48,9.35,7.42,6.79,29.8,6.75,14.42,0,23,2.27,23.58-7.76.79-14.07-13.59-15.93-13.72-16.5-.19-.85,7-46.28,3.37-64.27-3.2-15.9-20.51-55.48-22.65-58.25-.77-1-8.21-18.47-18.34-11.35s-2.36,23.52-1.6,25.66C210,408,227,438.15,232.44,453.84,236.23,464.72,225,511,225.7,512.52Z"/></g></g><g id="pie_der" data-name="pie der"><g id="pierna_der" data-name="pierna der"><path class="cls-4" d="M131.24,516.3c-.1,1.15,8.31,2.59,7.65,14.75-.26,4.8-5.81,5.42-19.71,5.77-20.49.51-30-.67-29.2-7.68,1.94-17.3,19.88-13.71,20.24-14.59s13.73-42.47,20-60.47c5.25-15.06,16.53-45.55,18.26-49.78,1.16-2.84,7-25.32,19.11-17.7,11.5,7.24.44,26.07-.14,27.91-1.53,4.83-14.25,33.5-19.33,47.68C142.61,477.62,131.3,515.58,131.24,516.3Z"/></g></g><g id="mano_izq" data-name="mano izq"><g id="brazo_izq" data-name="brazo izq"><path class="cls-5" d="M206.61,218.54c1.19-5.76,5.45-7.69,7.37-7.44,3.7.5,67,18.65,68.36,18.18.8-.27,31-32.84,30.75-33.06-1-.82-2.8-6-1.34-10.58s4.74-6.23,6.94-6.53c.12,0-8.45-18.72,1.7-20.45,19-3,14.88,21.76,15.72,21.59,7.19-1.44,4.39-6.25,8.3,3.52-2.7,8.61-6.57,17.24-18.36,23.54-.65.35-30.21,39.48-36.12,41.61-8.88,3.19-75.66-18.26-79.78-21.2C209.7,227.4,205.5,224,206.61,218.54Z"/><path class="cls-6" d="M206.61,218.54c1.19-5.76,5.34-8.1,7.42-7.85l-.11.83c-1.75-.27-6.12,1.26-7.31,7Z"/><path class="cls-7" d="M214,210.69l-.11.83"/><path class="cls-6" d="M209.91,228.07a10.36,10.36,0,0,1-3.3-9.53h0c-1.11,5.43,3.36,8.54,3.79,8.84Z"/><path class="cls-7" d="M209.91,228.07l.49-.69"/></g></g><g id="mano_izq_2" data-name="mano izq 2"><g id="brazo_izq-2" data-name="brazo izq"><path class="cls-8" d="M156.22,228.58c.38-5.9-3.31-8.86-5.23-9.12-3.3-.46-61.55-2.05-63-2.41-.06,0-45.74-36.13-45.47-36.57,2.07-3.41,15-16.06.79-25.31-7.84-5.09-13.37,6.15-17.11,10.68-.1.12-17.26-18.09-24.2-7.77-7.22,10.75,10.46,20.47,10.19,20.7C7,183.16,2.06,195.64,7.51,201c5.61,5.48,15.5.07,22.64-5.51,0,0,46.17,36.85,52.83,39.35,5.13,1.92,63.42,3,67.31,1.67C150.81,236.31,155.86,234.13,156.22,228.58Z"/><path d="M156.22,228.58c.38-5.9-3.52-8.49-5.29-8.71l.12-.83c2.07.32,5.55,3.64,5.17,9.54Z"/><path class="cls-7" d="M150.93,219.87l.12-.83"/><path d="M150.15,236.1c.5-.17,5.71-2,6.07-7.52h0a10.28,10.28,0,0,1-5.79,8.31Z"/><path class="cls-7" d="M150.15,236.1l.28.79"/></g></g><g id="cuerpo"><g id="cuerpo-2" data-name="cuerpo"><path class="cls-9" d="M179.76,181.93c-12.52.86-27.44,9.7-35,19.45s-11.06,38.13-11.4,40c-.52,2.78-5.26,40.18-6.63,62.79-1.17,19.23-2.74,45.71,2.42,64.16,2.85,10.19,8.33,24.63,16.4,30.83,10.64,8.18,30.06,9.4,43.05,7.68,14.47-1.91,34.65-9.5,44.46-21.08,5-6,7.66-17.07,9.12-25,3.27-17.73,1.07-42.27-.72-60.25-2-20.09-9.64-55.54-12.62-66C227,228,222.59,203.91,214,195.1,206.09,187,191.3,181.15,179.76,181.93Z"/></g></g><g id="cabeza"><g id="cabeza-2" data-name="cabeza"><path class="cls-10" d="M167.58.26c15.47-.61,14.33,30,29.82,36,17.43,6.73,41.7-4.07,56.24,11.53,9.92,10.64,14.75,54.08,8.46,72.44A27.16,27.16,0,0,0,267,146.6c4.72,5.58,13.39,24.55,2,34.63-17.82,15.77-69.44,25-95.39,26.43-19,1.05-86.49-12-94.8-16.1-2.29-1.13-19.32-20.1-4.45-32.23,9.43-7.69,11.81-20.6,7.22-32.53-13.15-34.21-4-66.66,3.45-73.26,20.29-17.86,40-5,58.53-19.28C154.86,25.6,153.32.82,167.58.26Z"/></g><g id="boca"><g id="boca-2" data-name="boca"><path class="cls-11" d="M124.52,170c3.81.32,15,1.75,20,2,7,.32,25.56-.17,28.53-.3,2.5-.12,18.07-1,23.84-1.84,3.94-.6,18.13-4.75,22.69-5.68,3.07-.62,10.9-2.39,12.07-1.06,1.87,2.12-4.13,15-6.84,18.12-3.46,4-17,10.19-21.8,11.81-5.87,2-24.3,4.23-30,4.41-6.66.21-27.39-.69-35.21-3.07-4.66-1.42-15-6.07-18.64-9.81-3-3.08-9.19-13.67-7.85-15.5C112.27,167.65,122,169.77,124.52,170Z"/></g><g id="lengua"><g class="cls-12"><path class="cls-13" d="M136.75,190c-.41-5,7.86-8.92,12.26-11.31,6.17-3.35,15.79-4.83,22.8-5.38,8.76-.69,21.36-1.6,29.17,2.41,3.91,2,10.28,6.27,10.05,10.65-.32,6.14-10.72,10-16.48,12.17-11.86,4.38-30,4.77-42.13,1.19C147.11,198.14,137.2,195.5,136.75,190Z"/></g></g><g id="dientes"><g class="cls-12"><path class="cls-14" d="M70.79,140.47c2.9,3.58,63.06,1.08,99.93-.9s99.49-9.69,99.54-9.77-3.42-34.29-13-44.3C237.69,65,194.1,61.21,165.75,61.87c-28.58.66-74.15,5.07-91,28.13C65.72,102.25,69.33,138.66,70.79,140.47Z"/></g><g class="cls-12"><path class="cls-14" d="M274.65,178.65c-3.23-3.46-64,12.17-101.58,13.91-36.76,1.7-100.1-4.42-100.16-4.34s1.39,45.21,13.61,58.41c19.25,20.82,63.18,24.29,91.53,23.63,28.58-.66,73.68-5.41,91-28.12C280.7,227,276.65,180.79,274.65,178.65Z"/></g></g></g><g id="ojos"><g id="ojos-2" data-name="ojos"><path class="cls-15" d="M96.68,133.39c-2.09-4.5-3.46-17.49-1.59-24.66,3-11.68,10.44-27.07,32.05-27.35,16.66-.22,23.33,9.51,27.8,18.64,4.06,8.29,4.66,21.46,4.51,23.78-.11,1.78-3.35,12.25-6.79,16.26-4.25,5-12.38,9.61-18.74,11.1-7.06,1.65-17.67,1.4-24.09-2C104.38,146.29,99.28,139,96.68,133.39Z"/><path d="M94.76,108.64c3-11.71,10.31-27.83,32.37-28.23l0,1.94c-21.16.17-28.72,14.82-31.74,26.46Z"/><path class="cls-7" d="M94.76,108.64l.65.17"/><path d="M127.13,80.41c17-.15,24.17,10,28.68,19.19l-1.73.85c-4.43-9.08-10.65-18.39-26.93-18.1Z"/><path class="cls-7" d="M127.13,80.41l0,1.94"/><path d="M155.81,99.6c4.12,8.5,4,21.87,3.88,24.21l-.48,0c.15-2.3-1.15-15.27-5.13-23.33Z"/><path class="cls-7" d="M155.81,99.6l-1.73.85"/><path d="M152.85,140.23c-4.29,5-12.42,9.79-18.84,11.29l-.17-.72c6.3-1.47,14.41-6,18.63-10.9Z"/><path class="cls-7" d="M152.85,140.23l-.38-.33"/><path d="M134,151.52c-7.12,1.66-17.88,1.6-24.44-1.84l.53-1c6.26,3.33,16.73,3.77,23.74,2.13Z"/><path class="cls-7" d="M134,151.52l-.17-.72"/><path d="M109.57,149.68c-5.58-3-10.46-10.6-13.07-16.21l.36-.17c2.59,5.57,7.92,12.58,13.24,15.37Z"/><path class="cls-7" d="M109.57,149.68l.53-1"/><path class="cls-15" d="M246.61,126.78c1.68-4.66,1.89-17.7-.59-24.67-4.05-11.36-12.81-26-34.35-24.37-16.6,1.26-22.4,11.51-26,21-3.31,8.6-2.75,21.75-2.39,24.05.27,1.76,4.42,11.88,8.2,15.57,4.67,4.56,13.18,8.46,19.64,9.38,7.18,1,17.73-.16,23.82-4.1C240.07,140.29,244.51,132.57,246.61,126.78Z"/><path d="M245.7,102.22c-4-11.32-12.87-25.21-33.95-23.51l-.15-1.93c22-1.55,30.67,13.82,34.73,25.22Z"/><path class="cls-7" d="M245.7,102.22l.63-.22"/><path d="M211.75,78.71c-16.23,1.15-21.61,11-25.23,20.38l-1.79-.69c3.68-9.56,9.9-20.27,26.87-21.62Z"/><path class="cls-7" d="M211.75,78.71l-.15-1.93"/><path d="M186.52,99.09c-3.25,8.37-3.4,21.38-3.05,23.66l-.47.07c-.36-2.32-1.63-15.6,1.73-24.42Z"/><path class="cls-7" d="M186.52,99.09l-1.79-.69"/><path d="M191.61,138.18c4.64,4.53,13.12,8.29,19.52,9.19l-.1.74c-6.53-.93-15.05-5-19.77-9.57Z"/><path class="cls-7" d="M191.61,138.18l-.35.36"/><path d="M211.13,147.37c7.13,1,17.52-.34,23.46-4.21l.62,1c-6.23,4-16.94,5-24.18,4Z"/><path class="cls-7" d="M211.13,147.37l-.1.74"/><path d="M234.59,143.16c5-3.24,9.74-10.68,11.83-16.45l.38.14c-2.11,5.8-6.3,13.82-11.59,17.27Z"/><path class="cls-7" d="M234.59,143.16l.62,1"/></g><g id="pupilas"><path class="cls-16" d="M138.28,113.17c4-.17,7.43,4.15,7.67,9.68s-2.78,10.14-6.78,10.32-7.43-4.15-7.67-9.68S134.28,113.35,138.28,113.17Z"/><path class="cls-16" d="M201.8,110.09c4-.18,7.43,4.15,7.68,9.68s-2.79,10.14-6.79,10.32-7.42-4.15-7.67-9.68S197.8,110.27,201.8,110.09Z"/></g></g><g id="cejas"><g class="cls-17"><path class="cls-18" d="M93.55,67.61s14-6.18,27.1-7.17c13.69-1,29.14,3.19,29.14,3.19"/></g><g class="cls-17"><path class="cls-18" d="M240.15,59.94s-15.6-3.35-26.83-3.16c-11.73.2-27.91,4.27-27.91,4.27"/></g></g><g id="nariz"><g class="cls-17"><path class="cls-16" d="M163,143.67c.3-.78,1.87-1.09,2.67-.84,1.75.53,3.71,4.08,3.2,5.19-.25.52-3.21-1.27-4.38-1.8C163.44,145.76,162.63,144.5,163,143.67Z"/></g><g class="cls-17"><path class="cls-16" d="M180.94,142.87c-.38-.75-2-.92-2.74-.6-1.69.69-3.34,4.39-2.73,5.45.3.51,3.09-1.55,4.2-2.18S181.33,143.67,180.94,142.87Z"/></g></g></g></g><rect class="cls-19" x="270.79" y="188.97" width="99.71" height="17.57" transform="translate(55.79 465.66) rotate(-76.99)"/><rect class="cls-20" x="267.53" y="191.69" width="99.71" height="9.54" transform="translate(54.52 461.47) rotate(-76.99)"/><path class="cls-21" d="M318.5,249l-11.87,15.36a1.32,1.32,0,0,1-1.75.46,1.34,1.34,0,0,1-.58-.81l-4.07-19.2Z"/><path d="M303.49,260.18l.81,3.72a1.17,1.17,0,0,0,1.51.93,1.36,1.36,0,0,0,.82-.58l2.33-2.91Z"/><path class="cls-22" d="M336.76,138.24l-3.37-.7c-4.65-1-8.84,2.56-9.42,4.89h0c-.59,2.32-.59,4.42,1.86,5l12.1,2.79c2.32.58,3.14-1.28,3.6-3.72h0C342.23,144.17,340.37,139.05,336.76,138.24Z"/><path class="cls-23" d="M322.69,145,342,149.41a.86.86,0,0,1,.58.81L341,157.44a.87.87,0,0,1-.81.58l-19.32-4.42a.88.88,0,0,1-.58-.82l1.63-7.21C321.87,145.1,322.22,144.87,322.69,145Z"/><path class="cls-24" d="M327.71,189.64c1-5.24,2.29-13.79,7.37-14.83s14.62,3.94,9.64,14.31-17.21,18.45-17.21,18.45S326.47,196.17,327.71,189.64Z"/><path class="cls-25" d="M307.19,184.35c.63-3.33,6.84-11.82,11.71-10.68s9,14.79-.52,25C313.56,203.83,304.18,200.21,307.19,184.35Z"/></g></g></svg>