<svg xmlns="http://www.w3.org/2000/svg" xmlns:xlink="http://www.w3.org/1999/xlink" viewBox="0 0 120 120"><defs><style>.cls-1{fill:none;}.cls-2,.cls-4{fill:#6599ff;}.cls-3{fill:#f5ece3;}.cls-11,.cls-4{stroke:#000;stroke-miterlimit:10;}.cls-4{stroke-width:0.2px;}.cls-5{fill:#7b2325;}.cls-6{clip-path:url(#clip-path);}.cls-7{fill:#f06b6b;}.cls-8{fill:#fff;}.cls-9{fill:#114283;}.cls-10{fill:#ff9531;}.cls-11{stroke-width:0.5px;}.cls-12{fill:#a0dbf0;stroke:#4a91cd;stroke-linecap:round;stroke-linejoin:round;}</style><clipPath id="clip-path"><path class="cls-1" d="M23.16,57.07c-.9,1,2.35,6.6,4.07,8.46s6.65,4.33,8.47,4.92c3.13,1.07,14.5,1.84,16.74,1.77A112.8,112.8,0,0,0,66.2,69.71c1.72-.56,9.16-3,11.08-5.28,1.79-2.07,4.54-10.07,3.12-11.05-.48-.34-2.78.86-3.67,1.11-2.35.61-9,2.2-10,2.32-1.47.25-14.68.84-14.88.84s-11.14,1.06-14,1.06c-1.92,0-6.6-.36-9.35-.71C26.88,57.83,23.65,56.52,23.16,57.07Z"/></clipPath></defs><title>Correct feedbacK_kuno_5to0</title><g id="Layer_2" data-name="Layer 2"><g id="Layer_1-2" data-name="Layer 1"><g id="b6c3ccfc-e602-412e-8691-4bf0f24ef766"><g id="b9501ac5-bca7-45ab-b185-38ce5c414c93"><rect class="cls-1" width="120" height="120"/><g id="ba5d9f94-5e30-4bf8-9045-d9db81af9c3a"><path class="cls-2" d="M73.5,86.89c1.35-.42,18.8-13.21,19.84-14.23,1.17-1.2,16.84-15.84,20.43-20.89a21,21,0,0,0,3.16-5.63c.76-2.58.84-7.68.37-8s-3.85,2-6.61,4.14a48.71,48.71,0,0,0-4,3.89c-2.88,2.88-19.26,20.34-19.39,20.52s-20.18,14-20.43,14.81c-.06.19-1.8,3.29.51,5.29C69.9,89.08,73.25,87.05,73.5,86.89Z"/></g><path d="M74.47,86.43l-.14-.21C74.5,86.11,91,74.79,93.49,72.51,96.23,70,112.78,54,114.88,49.94s2.31-5,2.45-6.55l0-.26c.12-1.31.46-4.78-.11-5.05s-4.93,3-7.44,5.12c-1.08.93-5.25,5.35-8.94,9.25-2.78,2.95-5.18,5.49-5.84,6.1-2.21,2-20.21,17.9-26.27,20.64l-.1-.23c6-2.73,24-18.56,26.2-20.59.65-.61,3-3.15,5.83-6.09,3.69-3.91,7.87-8.33,9-9.27.83-.71,6.33-5.18,7.57-5.18a.3.3,0,0,1,.14,0c.61.29.54,2.25.24,5.31l0,.25c-.15,1.54-.32,2.47-2.48,6.64S96.41,70.17,93.66,72.69C91.16,75,74.64,86.31,74.47,86.43Z"/><g id="f4639815-2712-4fc3-8eea-934d7288b445"><path class="cls-2" d="M37.43,120c.27-2,.54-3.46.54-3.46s1.1,1.43,2.79,3.46Z"/><path d="M37.54,119.87h3c-1.29-1.55-2.23-2.74-2.55-3.16C37.94,117.16,37.74,118.33,37.54,119.87Z"/></g><g id="b3017806-d8a8-43e4-8213-0f452b0a88c2"><g id="ae86704b-1ff4-4d40-a986-e680f2f7bc66"><path class="cls-2" d="M41.68,120c-1.31-7.92-3.36-17.81-3.44-18.6,0-.38-2.19-16.77-3.12-20.11,1.64-3.66,5.36-5.22,9-6.82C49.66,72,58.3,68.62,64,70.64c3.66,1.32,11.81,17.3,13.12,19,2.47,3.17,8.18,13.51,10.92,20.84A90.76,90.76,0,0,1,91,120Z"/></g></g><g id="f7475dcf-566e-4bf8-846d-4b232eee9cce"><path class="cls-2" d="M41.89,92.35c-.49.72-13.94,12.44-14,13.1-.17.82,10.61,10.76,13.67,13.78.21.21.53.5.84.77H29.55c-4.94-4.23-10.38-9.74-10.1-13.14.46-5.19,15.61-22.45,16.49-22.56"/></g><path class="cls-3" d="M91.17,120c0-3.38-4.68-14.43-7.4-19.29s-6-10.55-7.84-13.39c-1.29-1.94-3.09-4.62-3.09-4.62l-2.72-4.81a109.68,109.68,0,0,1-27.81,6.3C43.7,86.78,55.8,116.74,53.41,120Z"/><g id="bf95f068-2467-439c-8216-7d6ee7fcaa53"><path class="cls-2" d="M75.29,56.14c.42,3,4,8.42,5.09,9,.9.5,5.91-.07,8.39-.35a101.06,101.06,0,0,0,10.91-2.56s-6.17-8.32-10.05-10.76c-3.3-2.06-10.62-4.94-12.26-3.92C76.27,48.2,75,53.44,75.29,56.14Z"/><path d="M99.81,62.28l-.1,0A99.86,99.86,0,0,1,88.8,64.89l-.08,0c-2.6.29-7.41.83-8.36.34-1.16-.62-4.7-6-5.14-9.07h0c-.33-2.7,1-8,2.12-8.69l.16-.07c2-.82,9.17,2.15,12.19,4,3.84,2.39,10,10.66,10,10.76ZM75.36,56.14c.4,2.9,4,8.38,5,8.94.88.47,5.88-.09,8.28-.35l.07,0a96.85,96.85,0,0,0,10.78-2.51c-.7-.93-6.34-8.37-10-10.65-3.38-2.12-10.22-4.76-12-4l-.15.07C76.42,48.21,75,53.36,75.36,56.14Z"/></g><path class="cls-4" d="M12.83,29.39C6.86,46.1,15,71.47,19.27,75.84c4,4,13.08,12.94,41.68,6.55C84.94,77,88.7,68.1,90.77,62.81c2.79-7-.15-35-12.73-47C66.72,4.93,52.3,1.61,36.28,6.48,24.09,10.16,17,17.51,12.83,29.39Z"/><path class="cls-2" d="M22.53,69.86c-.36,1.51-4.21,5.39-6.46,7.25C13.37,79.37,6,83,6,83s-.5-11,.9-15.44c1.18-3.68,4.6-10.64,6.86-11"/><g id="e3f91053-b4a5-4285-955a-8aedf80b44c8"><g id="ee7c772c-8151-417e-b956-d06a465cf65c"><path class="cls-5" d="M23.16,57.07c-.9,1,2.35,6.6,4.07,8.46s6.65,4.33,8.47,4.92c3.13,1.07,14.5,1.84,16.74,1.77A112.8,112.8,0,0,0,66.2,69.71c1.72-.56,9.16-3,11.08-5.28,1.79-2.07,4.54-10.07,3.12-11.05-.48-.34-2.78.86-3.67,1.11-2.35.61-9,2.2-10,2.32-1.47.25-14.68.84-14.88.84s-11.14,1.06-14,1.06c-1.92,0-6.6-.36-9.35-.71C26.88,57.83,23.65,56.52,23.16,57.07Z"/><path d="M52,72.4c-3,0-13.28-.75-16.34-1.79-1.7-.56-6.66-2.94-8.54-5C25.48,63.87,22.05,58.08,23,57c.35-.38,1.42-.11,3.12.34a15.11,15.11,0,0,0,2.31.51c2.73.35,7.48.59,9.38.59,2.28,0,9.57-.72,12.61-1.16l1.62-.43c.1,0,13.15.08,14.63-.18,1-.14,7.66-1.71,10-2.31a9.25,9.25,0,0,0,1.12-.43c1.38-.57,2.3-.92,2.69-.64a1.24,1.24,0,0,1,.43.92c.29,2.35-2,8.56-3.58,10.39C75.56,66.69,69,69,66.2,69.87A115.82,115.82,0,0,1,52.4,72.4ZM23.62,57.09a.47.47,0,0,0-.34.1h0c-.75.83,2.24,6.25,4.07,8.22s6.71,4.34,8.4,4.89c3.13,1.06,14.61,1.84,16.69,1.75a116,116,0,0,0,13.72-2.48c2.12-.69,9.18-3.09,11-5.24,1.52-1.78,3.74-7.84,3.46-10.12a1,1,0,0,0-.3-.7c-.27-.18-1.58.36-2.37.68-.46.2-.9.37-1.16.46-2.34.59-9,2.16-10,2.3-1.48.26-14.81.86-14.91.86l-1.32.12c-3.13.28-10.43.92-12.74.92-1.94,0-6.58-.34-9.37-.7a15.69,15.69,0,0,1-2.35-.54A14,14,0,0,0,23.62,57.09Z"/></g><g id="f843d61b-6f23-46f0-a8cd-42fe426b2012"><g class="cls-6"><path class="cls-7" d="M35.65,73.93A21.29,21.29,0,0,0,48,76.34c1.86-.29,5.14-.92,5.63-2.76.34-1.32-1.23-3.13-2.25-4-2-1.71-5.78-2.31-8.37-2.67a17.21,17.21,0,0,0-7,.21c-1.42.45-4.12,1.21-4.31,2.76C31.54,71.57,34.18,73.13,35.65,73.93Z"/><path d="M45.85,76.59A22.24,22.24,0,0,1,35.61,74c-1.79-1-4.15-2.49-4-4.16s2.69-2.29,4.11-2.76L36,67c2.43-.8,6-.36,7-.21,3.26.45,6.54,1.09,8.42,2.69,1.25,1.11,2.59,2.85,2.27,4.11-.53,2-4.15,2.58-5.7,2.83A14.72,14.72,0,0,1,45.85,76.59Zm-6.26-9.88a11.76,11.76,0,0,0-3.54.46l-.26.08c-1.42.44-3.81,1.2-4,2.61-.19,1.58,2.12,3,3.87,4h0A21.38,21.38,0,0,0,48,76.27c1.52-.25,5.07-.82,5.57-2.76.36-1.18-1.16-3-2.19-3.89C49.27,67.78,45.1,67.24,43,67a24.78,24.78,0,0,0-3.44-.26Z"/></g></g><g id="b87355ce-b36e-413e-8725-b1da4fedd07b"><g class="cls-6"><path class="cls-8" d="M9.6,42.43c6.16-10.77,25-15.19,37.07-17S77.17,23.09,86.52,31c4.48,3.83,7.69,18.4,7.69,18.4S68.6,59,52.3,61s-41.82.3-43-1.31C8.76,59.08,7,46.91,9.6,42.43Z"/><path d="M34.77,62c-3.13,0-6.37-.06-9.62-.2-8.78-.39-15.34-1.23-15.95-2.05-.48-.57-2.27-12.88.33-17.34h0c2.74-4.78,8.25-8.78,16.37-11.89A99.79,99.79,0,0,1,46.66,25.4a96.08,96.08,0,0,1,21-.92c8.41.7,14.8,2.85,19,6.37,4.48,3.8,7.68,18.27,7.72,18.4a.11.11,0,0,1,0,.08h0l-.3.11c-6.27,2.35-27.56,9.94-41.73,11.64A153.43,153.43,0,0,1,34.77,62ZM61.35,24.48A103,103,0,0,0,46.68,25.6a98.19,98.19,0,0,0-20.73,5c-8.06,3.09-13.56,7.06-16.28,11.82h0C7.09,46.92,8.84,59,9.33,59.62c1.16,1.56,26.72,3.26,43,1.3,14.14-1.71,35.4-9.28,41.57-11.59l.26-.1C93.87,48.15,90.74,34.6,86.48,31S75.94,25.4,67.56,24.68C65.47,24.48,63.37,24.48,61.35,24.48Z"/></g></g></g><g id="b54902ee-4e76-44cd-ba2b-7e7aa24e9a85"><g id="ae82835f-e162-4494-b44a-61d62d9de73e"><path class="cls-8" d="M39.54,53.19c2.29,1.32,6,1.21,8.56.58,2.83-.74,7-2.41,8.56-5.31,1-2,1-5.46.49-7.68C56.71,39,55.44,36.47,54,35.59c-2.61-1.62-7-.84-9.77.42s-6.84,4.48-7.87,7.89a10.47,10.47,0,0,0,.56,6A7.42,7.42,0,0,0,39.54,53.19Z"/><path d="M37.24,49.67c-.62-1.58-1.12-4-.62-5.62L36,43.79a11.17,11.17,0,0,0,.54,6.3Z"/><path d="M36.66,44.05c.91-3.3,4.86-6.3,7.69-7.58l-.26-.84c-2.93,1.38-7,4.63-8.06,8.2Z"/><polygon points="35.99 43.96 36.09 43.63 36.71 43.89 36.61 44.22 35.99 43.96"/><path d="M44.35,36.47c2.71-1.25,7-2,9.45-.47l.36-.78c-2.75-1.64-7.29-.85-10.08.41Z"/><polygon points="43.94 35.65 44.22 35.52 44.49 36.36 44.21 36.48 43.94 35.65"/><path d="M53.81,35.91a9.28,9.28,0,0,1,3.06,4.88l.49-.16c-.49-1.92-1.7-4.47-3.24-5.45Z"/><polygon points="53.9 36.04 53.63 35.88 53.99 35.09 54.25 35.25 53.9 36.04"/><path d="M39.68,52.92a7,7,0,0,1-2.39-3.25l-.76.42a8.06,8.06,0,0,0,2.92,3.31Z"/><polygon points="39.59 53.47 39.32 53.34 39.5 52.86 39.77 53 39.59 53.47"/><path class="cls-8" d="M86.52,44.5c-1.42,1.83-4.61,2.65-6.77,2.81-2.49.2-6.16-.16-8-2-1.24-1.26-1.91-4-2.09-5.82s-.17-4.77.81-6.23c1.62-2.3,5.61-3.46,8.23-3.11a12.43,12.43,0,0,1,8.09,5.67,9.75,9.75,0,0,1,.66,4.51A8.27,8.27,0,0,1,86.52,44.5Z"/><path d="M87.9,40.38a10.24,10.24,0,0,0-.76-4.72l-.57.41a9.52,9.52,0,0,1,.52,4.27Z"/><path d="M87.13,35.57a13.17,13.17,0,0,0-8.36-5.77l-.09.81A12.05,12.05,0,0,1,86.56,36Z"/><polygon points="86.47 35.87 87.05 35.47 87.2 35.75 86.63 36.15 86.47 35.87"/><path d="M78.77,29.79c-2.7-.36-6.86.85-8.59,3.26l.58.5c1.51-2.2,5.4-3.31,7.93-3Z"/><polygon points="78.82 30.62 78.54 30.57 78.62 29.78 78.91 29.83 78.82 30.62"/><path d="M70.2,33c-1.11,1.61-1,4.59-.81,6.48l.48-.06c-.17-1.83-.08-4.58.89-5.92Z"/><polygon points="70.11 33.13 70.29 32.87 70.87 33.37 70.69 33.63 70.11 33.13"/><path d="M86.75,44.46a7.74,7.74,0,0,0,1.13-4.12l-.8-.05c0,1.32,0,3-.67,3.89Z"/><path d="M37.24,49.67c-.62-1.58-1.12-4-.62-5.62L36,43.79a11.17,11.17,0,0,0,.54,6.3Z"/><path d="M87.9,40.38a10.24,10.24,0,0,0-.76-4.72l-.57.41a9.52,9.52,0,0,1,.52,4.27Z"/></g><g id="b30b4c59-5ebb-43b2-befd-90f7da0dc16e"><path class="cls-9" d="M50.05,45.64c.28,2.32,2.12,3.93,4.1,3.61a4.17,4.17,0,0,0,3.09-4.78s0-.1,0-.15h0c-.26-2.32-2.08-4-4.06-3.66A4.15,4.15,0,0,0,50,45.4h0C50,45.46,50,45.55,50.05,45.64Z"/><path d="M53.71,49.49c-2.14.11-4-1.82-4.05-4.32s1.56-4.61,3.7-4.72a4.07,4.07,0,0,1,4,3.8,5.35,5.35,0,0,1-.63,3.37,3.66,3.66,0,0,1-2.47,1.82A5.11,5.11,0,0,1,53.71,49.49Zm-.13-8.71a3.15,3.15,0,0,0-.53,0,4.17,4.17,0,0,0-2.85,4.81h0c.3,2.24,2.09,3.8,4,3.48a3.3,3.3,0,0,0,2.28-1.69,4.92,4.92,0,0,0,.58-3.12A3.78,3.78,0,0,0,53.58,40.78Z"/><path class="cls-9" d="M77.66,42a3.63,3.63,0,0,0,4,3.35,4,4,0,0,0,3-4.58,3.63,3.63,0,0,0-4-3.36h0A4,4,0,0,0,77.66,42Z"/><path d="M81.16,45.53A3.9,3.9,0,0,1,77.55,42h0a4.18,4.18,0,0,1,3-4.75h0A3.72,3.72,0,0,1,85,40.44a4.21,4.21,0,0,1-2.83,5h0l-.44.07A2.88,2.88,0,0,1,81.16,45.53Zm-.58-8.15v.16a3.84,3.84,0,0,0-2.8,4.39h0a3.47,3.47,0,0,0,3.84,3.23h0a3.82,3.82,0,0,0,2.85-4.39,3.49,3.49,0,0,0-3.87-3.24h0Z"/></g></g><g id="fd6da57c-2fa0-4126-a7ca-c79c6bb5f2f7"><path class="cls-10" d="M74.92,50.58c2.4.45,8.06,0,8.06,0a26.09,26.09,0,0,0,7.91,7.54,16.25,16.25,0,0,0,5.59,1.66c.68.2,4.55.09,5.08,1.84,2.11,6.24-14.14,7.36-17.82,8.91-4.11,1.64-14.32,8.6-21.3,6.64-2.35-.66-4.84-4-5.63-5S55.08,68.51,53,65c-2.3-3.89-4.89-7.46-4.89-7.5s7.78-2.31,10.74-4.14c2.47-1.45,4.26-5.83,7.22-6.34S72.18,50.09,74.92,50.58Z"/><path d="M65.11,77.57a10.18,10.18,0,0,1-2.69-.34c-2.15-.61-4.47-3.47-5.37-4.69l-.27-.33a16,16,0,0,1-1.37-2.55c-.6-1.24-1.34-2.76-2.4-4.6-1.79-3-3.7-5.77-4.48-7-.38-.56-.4-.55-.4-.59s0-.08.84-.33c2.07-.66,7.57-2.41,9.94-3.87a12.52,12.52,0,0,0,2.88-2.84c1.31-1.59,2.68-3.21,4.39-3.52s3.59.8,5.28,1.84A11.42,11.42,0,0,0,75,50.49h0c2.36.44,7.95,0,8,0h.07a26.59,26.59,0,0,0,7.78,7.57,12.89,12.89,0,0,0,4.7,1.47,7.12,7.12,0,0,1,.9.17,8,8,0,0,0,.84.11c1.45.14,3.87.37,4.31,1.75a3,3,0,0,1-.19,2.54c-1.63,2.94-8.23,4.32-13,5.32a35.76,35.76,0,0,0-4.67,1.15c-.89.38-2.16,1-3.58,1.76C76,74.5,70.11,77.57,65.11,77.57Zm-16.73-20,.31.44c.82,1.19,2.63,4,4.41,7,1.06,1.84,1.79,3.37,2.4,4.6a17.69,17.69,0,0,0,1.37,2.49l.26.32c1,1.22,3.23,4,5.37,4.6,5.38,1.51,12.74-2.31,17.6-4.84,1.46-.76,2.68-1.41,3.66-1.79a31.15,31.15,0,0,1,4.66-1.17c4.79-1,11.35-2.36,12.94-5.24a2.84,2.84,0,0,0,.18-2.4c-.4-1.29-2.86-1.52-4.17-1.64a6.94,6.94,0,0,1-.9-.12,6.63,6.63,0,0,0-.89-.16,12.78,12.78,0,0,1-4.69-1.47A26.3,26.3,0,0,1,83,50.66c-.54,0-5.74.42-8,0A11.67,11.67,0,0,1,71.37,49c-1.71-1-3.48-2.12-5.16-1.84s-3.07,1.9-4.39,3.47a12.82,12.82,0,0,1-2.92,2.87C56.52,54.93,51,56.73,49,57.38Z"/><path d="M66.4,49.27A6.77,6.77,0,0,1,66.94,51h.89a4.49,4.49,0,0,0-1-2Z"/><path d="M66.94,51a7.81,7.81,0,0,1-.49,1.84l.34.15a4.92,4.92,0,0,0,1-2Z"/><rect x="66.94" y="50.86" width="0.89" height="0.33"/><path d="M68.46,48.92a7.37,7.37,0,0,0,1.17,1.65l.34-.45a12.74,12.74,0,0,1-1.28-1.46Z"/><polygon points="68.3 48.79 68.6 48.53 68.8 48.79 68.51 49.04 68.3 48.79"/><path d="M69.59,50.58a9.73,9.73,0,0,0,2,1l.1-.19s-1.32-.86-1.8-1.26Z"/><polygon points="69.71 50.68 69.46 50.48 69.8 50.03 70.05 50.23 69.71 50.68"/></g><g id="a9cdb245-f92a-4e26-b162-75c5caecb81a"><path class="cls-11" d="M30.8,24.84a.47.47,0,0,1-.31-.12.5.5,0,0,1,0-.7,22.4,22.4,0,0,1,11.27-6.54,21.2,21.2,0,0,1,12.63.63.49.49,0,0,1,.27.62h0A.48.48,0,0,1,54,19h0a20.77,20.77,0,0,0-12-.58,21.78,21.78,0,0,0-10.74,6.22A.54.54,0,0,1,30.8,24.84Z"/><path class="cls-11" d="M66.72,18.21a.48.48,0,0,1-.48-.48h0a.5.5,0,0,1,.12-.34,14.1,14.1,0,0,1,8.52-4.79.5.5,0,0,1,.55.42.49.49,0,0,1-.39.56h0A13.18,13.18,0,0,0,67.11,18,.52.52,0,0,1,66.72,18.21Z"/></g><path d="M6,83.07H6l0-.06c0-.07-.48-11.05.94-15.47,1.07-3.57,4.54-10.7,6.88-11.1a.08.08,0,0,1,.09.06h0a.09.09,0,0,1-.05.1h0c-2.27.39-5.68,7.45-6.79,11-1.35,4.11-1,14.06-.94,15.29C7,82.4,13.54,79.12,16,77s6.1-5.78,6.43-7.2a.11.11,0,0,1,.1-.07.09.09,0,0,1,.06.1h0c-.38,1.6-4.36,5.53-6.48,7.3C13.44,79.42,6.09,83,6,83.06Z"/></g><path class="cls-12" d="M109.73,81.66s-2.78,7.92,5.4,10.28c0,0-10-3.79-12.57,1.78,0,0,.76-9.87-.84-10.63C101.72,83.09,108.38,83.26,109.73,81.66Z"/><path class="cls-12" d="M18.48,100.87s-4.51,4.29-4.66,6.19c0,0-8.68-7.11-11.17-7.55,0,0,7.64-1.85,8.37-4.34C11,95.17,11.9,99.41,18.48,100.87Z"/></g><path d="M53.63,120h-.31c.42-2.58-.55-7.66-2.66-13.91s-8.1-21.23-8.16-21.38l.28-.11c.06.15,6,15.14,8.16,21.4S54.05,117.38,53.63,120Z"/><path d="M91.32,120H91c.08-2.41-3-10-6-16.42-3.34-7-13.93-23.76-14-23.92l.25-.16c.11.16,10.7,16.93,14.06,24C88.33,109.92,91.4,117.54,91.32,120Z"/><path d="M29.41,120a76.08,76.08,0,0,1-5.79-5.42c-2-2.2-5-5.53-4.15-8.67s8.51-13.07,10-14.76c1.61-1.85,6.25-7,6.3-7.08l.22.2s-4.69,5.23-6.29,7.07c-1.8,2.07-9.16,11.74-9.93,14.65s2.14,6.24,4.09,8.39a79.4,79.4,0,0,0,6,5.62Z"/><path d="M42.33,120c-.1-.09-9.95-9.35-11.39-10.76a28.75,28.75,0,0,1-2-2.25c-.28-.33-.5-.59-.69-.78l-.11-.11c-.22-.22-.37-.36-.37-.56s.16-.41.54-.79c.68-.68,9.66-9,10.2-9.4l.19.24c-.54.41-9.5,8.69-10.18,9.37-.23.23-.45.47-.45.58s.12.19.28.34l.11.12c.2.2.43.46.71.8a28.14,28.14,0,0,0,2,2.23c1.44,1.41,11.51,10.88,11.61,11Z"/><path d="M41.39,119.05c-.13-1.14-4-22.43-4-22.64l.3,0c.15.87,3.86,21.51,4,22.66Z"/></g></g></svg>