<svg xmlns="http://www.w3.org/2000/svg" xmlns:xlink="http://www.w3.org/1999/xlink" viewBox="0 0 372.46 559.96"><defs><style>.cls-1,.cls-12,.cls-13{fill:none;}.cls-2,.cls-3{fill:#ff9531;}.cls-10,.cls-12,.cls-13,.cls-2,.cls-20,.cls-3,.cls-4,.cls-5,.cls-6,.cls-7,.cls-9{stroke:#000;}.cls-17,.cls-18,.cls-2,.cls-4{stroke-miterlimit:10;}.cls-2,.cls-3,.cls-4,.cls-5,.cls-6{stroke-width:0.5px;}.cls-10,.cls-13,.cls-20,.cls-3,.cls-5,.cls-6,.cls-7,.cls-9{stroke-linecap:round;}.cls-10,.cls-12,.cls-13,.cls-20,.cls-3,.cls-5,.cls-6,.cls-7,.cls-9{stroke-linejoin:round;}.cls-4,.cls-5{fill:#6599ff;}.cls-6{fill:#f5ece3;}.cls-7{fill:#902e31;stroke-width:0.75px;}.cls-8{clip-path:url(#clip-path);}.cls-9{fill:#f06b6b;}.cls-10,.cls-19{fill:#fff;}.cls-11{clip-path:url(#clip-path-3);}.cls-13{stroke-width:3px;}.cls-14{fill:#fcb042;stroke:#562f09;stroke-miterlimit:10;}.cls-15{fill:#ed9520;}.cls-16{fill:#fce8c8;}.cls-17{fill:#e44b86;stroke:#b53167;}.cls-18{fill:#a0a0b1;stroke:#71717f;}.cls-20{fill:#114283;}</style><clipPath id="clip-path" transform="translate(0 9.95)"><path class="cls-1" d="M113.46,136.08c8.07,2.78,25.1,7,29.23,7.71,5.38,1,38.37,3.77,38.9,3.77s37.83,2.06,40.7,1.88c2.24-.09,25.64-4.12,32.81-5.56,2.51-.54,15.33-5,16.41-4,2.51,2.24-14,21.33-17.93,24.38-5.83,4.48-32,7.71-35.86,8.25s-34.42,1.34-38.1,1.07c-4.39-.35-38-7.35-43.92-9.5-4-1.52-22.33-9.59-26.9-14.25-3.31-3.41-12.28-17.57-10-19.72C100.64,128.55,109.34,134.65,113.46,136.08Z"/></clipPath><clipPath id="clip-path-3" transform="translate(0 9.95)"><path class="cls-1" d="M113.46,136.08c8.07,2.78,25.1,7,29.23,7.71,5.38,1,38.37,3.77,38.9,3.77s37.83,2.06,40.7,1.88c2.24-.09,25.28-3.94,32.45-5.47,2.51-.45,15.6-5.2,16.77-4.12,2.51,2.24-14,21.33-17.93,24.38-5.83,4.48-32,7.71-35.86,8.25s-34.42,1.34-38.1,1.07c-4.39-.35-38-7.35-43.92-9.5-4-1.52-22.33-9.59-26.9-14.25-3.31-3.41-12.28-17.57-10-19.72C100.64,128.55,109.34,134.65,113.46,136.08Z"/></clipPath></defs><title>Kuno glosa_5to0</title><g id="Layer_2" data-name="Layer 2"><g id="Frame_6" data-name="Frame 6"><g id="Layer_4" data-name="Layer 4"><g id="pierna_der" data-name="pierna der"><path class="cls-2" d="M205.29,531.82s2.8,6.32,9.76,6.32a10.81,10.81,0,0,0,9.92-6.32c0-.31.91-55.56,1-74.38s.51-50.69-.12-61.61c-.45-7.29-3.93-15.48-10.21-16.39-6.78-1.22-10.09,9.1-11.29,14.56-.91,4.25.35,43.1.46,61.61C205,475,205.24,531.82,205.29,531.82Z" transform="translate(0 9.95)"/></g><g id="pata_der" data-name="pata der"><path class="cls-3" d="M225.21,528.08c6.63,1.92,12,5.66,15,7.61,4.22,2.8,16.1,13.42,16.1,14-3.9,0-26.53-.16-36.43,0-10.4,0-34.12-.08-36.4-.08,0-.6,8.49-10.53,13.9-14.63,2.95-2.24,4.85-4.44,7.82-6" transform="translate(0 9.95)"/></g><g id="pelo_extIzq" data-name="pelo extIzq"><path class="cls-4" d="M283.43,106.14c5.38.72,16.14,19.27,19.81,29.23,4.21,11.83,3.59,41.59,3.59,41.59s-20.17-10-28.33-15.24c-5.83-3.76-17.57-11-18.83-13.63-1.25-3.13.18-20.34,4.49-27.52C267.92,114.48,279.84,105.6,283.43,106.14Z" transform="translate(0 9.95)"/></g><g id="pelo_extIzq-2" data-name="pelo extIzq-2"><path class="cls-4" d="M100.73,122.46c2.6,7.89,0,25-2,27.79-1.7,2.33-14.79,6.63-21.42,9-9.24,3.14-31.11,8.25-31.11,8.25s6.28-29.14,13.09-39.62c5.83-8.79,20.62-24.39,26-23.85C89,104.35,98.49,115.73,100.73,122.46Z" transform="translate(0 9.95)"/></g><g id="pierna_der-2" data-name="pierna der"><path class="cls-2" d="M154.61,531.82s-2.79,6.32-9.75,6.32a10.81,10.81,0,0,1-9.93-6.32c0-.31-.91-55.56-1-74.38s-.52-50.69.11-61.61c.46-7.29,3.94-15.48,10.21-16.39,6.79-1.22,10.1,9.1,11.29,14.56.92,4.25-.34,43.1-.46,61.61C154.89,475,154.67,531.82,154.61,531.82Z" transform="translate(0 9.95)"/></g><g id="brazo_izq" data-name="brazo izq"><path class="cls-5" d="M221.84,228.56c-4.49-7.74-1.23-12.83,1.07-14.64,3.14-2.24,57.53-28.91,65.06-34.5,4.39-3.34,40-47.85,48.24-56.22A91,91,0,0,1,350.6,110c8.95-6.21,20.34-11.39,21.39-10.62s-1.85,17.05-5,25c-2.43,6.13-7.63,12.87-10.4,16.56-10.69,14.49-43,50-50.26,55.65-6.93,5.41-67.48,36.44-71.64,38.16C231.74,236.08,226.2,236.07,221.84,228.56Z" transform="translate(0 9.95)"/></g><g id="brazo_der" data-name="brazo der"><path class="cls-5" d="M143.32,232.08c-4,6.26-7.86,7-11.3,6.75-3.93-.24-47.78-28.12-55.15-34.26C70,198.67,27,150,18.66,139.11A82.72,82.72,0,0,1,7.73,122.53C3.06,112.7-.75,101,.48,99.81s16.58,4.42,23.83,8.84c5.77,3.44,11.67,9.82,15,13,13.51,13.26,48.39,56.62,53.92,61.4s49.62,31.81,51.34,34.76S147.62,225.45,143.32,232.08Z" transform="translate(0 9.95)"/></g><g id="cola"><path class="cls-5" d="M135.33,365.91c.6-9,4.2-16.1,8.3-28.1,4.8-13.8,12.4-31,12.4-31s5.8,12.4,11.3,26.3c5.6,14.1,9.8,26.6,10,27.3.1.5,2.9,16,0,22-3.2,6.4-10.2,13.6-19.1,14.8a22.48,22.48,0,0,1-19.2-7.4C134.53,384.21,134.83,373.31,135.33,365.91Z" transform="translate(0 9.95)"/></g><g id="cuerpo"><g id="cuerpo-2"><path class="cls-5" d="M180.46,160c-22.2-.12-27.17,11.08-39.77,27.8-6.6,8.66-12.36,20.61-14.26,31.37-1.2,7.13-9.58,55.51-12.48,79.48-3.3,28.07-7.13,82.82-6.41,93.27s2.62,25.38,10.42,31.12c15.3,11.34,42.2,1.52,60.3,1.52,17.1,0,42,7.95,57.1-1.52,8.3-5.15,12.59-14.17,15.46-34s-3.41-62.6-6.41-91.49c-2.4-23.74-9.88-65.18-12.48-77.7-2.6-12-5.23-24.11-10.33-31.37C211,173.32,203,160.13,180.46,160Z" transform="translate(0 9.95)"/></g><g id="detalle"><path class="cls-6" d="M148.53,174.27c-13.7,17.89-20,75.21-23.67,107.49-2.8,24.1-7.2,73.57-7.4,80.58-.1,3.75-3.13,51.35,3.27,59.65,10.6,13.8,40.15,4.64,58.45,5,17.6.35,45.57,6.46,56.67-6.06,6.8-7.6,7.21-51,7.21-54.6.1-7.37-5.8-59.06-9.1-84.21-4.3-32.63-11.1-91.85-25.2-109.62-6.3-7.84-18.3-15.17-30.8-14.94C165.66,157.67,154.53,166.43,148.53,174.27Z" transform="translate(0 9.95)"/></g></g><g id="cabeza"><path class="cls-5" d="M188.76.36c68.41,2.2,104.49,55.76,95.57,129.35-7.11,58.65-23.24,70.59-105.15,74.5-80.2-.32-98-29.68-101.58-93.39C82.35,51.66,108.27-1,188.32.27A.79.79,0,0,0,188.76.36Z" transform="translate(0 9.95)"/></g><g id="boca"><g id="boca-2"><path class="cls-7" d="M117.5,135.72c10.4,2.42,23.31,2.78,27.52,3.59,5.38,1,36.13,8.34,36.66,8.34s37.74-.18,40.61-.27c2.24-.09,17.66-.63,27.34-3.5s19.55-6.45,20.62-5.47c2.51,2.24-12.64,23-16.58,26-5.83,4.48-32,7.71-35.86,8.16s-34.42,1.34-38.1,1.07c-4.39-.36-38-7.35-43.93-9.5-4-1.52-22.32-9.59-26.89-14.34-3.32-3.41-12.28-17.57-10-19.72C100.64,128.55,107.1,133.3,117.5,135.72Z" transform="translate(0 9.95)"/></g><g id="lengua"><g class="cls-8"><path class="cls-9" d="M148.78,175.53c.18-4.31,7.44-7,11.39-8.61,5.47-2.24,13.62-2.51,19.54-2.24,7.35.36,17.93,1,23.94,5.2,3,2.15,7.88,6.63,7.17,10.4-.9,5.11-9.95,7.62-15,8.87-10.31,2.51-25.46.9-35-3.49C156.49,183.77,148.6,180.28,148.78,175.53Z" transform="translate(0 9.95)"/></g></g><g id="dientes"><g class="cls-8"><path class="cls-10" d="M68.19,69.39C71,74.05,139.37,81.13,185.63,84.45s118.42,2,118.42,1.88.71-39.71-8.79-52.53c-20.08-27-70.64-37.92-104-41.33-33.7-3.4-87.85-5-111.06,19.54C68.1,24.74,66.85,67.06,68.19,69.39Z" transform="translate(0 9.95)"/></g><g class="cls-11"><path class="cls-10" d="M297.14,213.09c-3.4-4.57-75.12,8.51-122.45,4.57C128.7,213.89,58.06,193.81,58,193.9S52,250,65,268.31c19.45,27.34,70.55,37.92,104,41.32,33.71,3.5,87.23,4.49,111.07-19.54C296.79,273.42,299.3,216,297.14,213.09Z" transform="translate(0 9.95)"/></g></g></g><g id="El_pico" data-name="El pico"><path class="cls-3" d="M182.94,121.92c-10.49-.45-16.05,9.23-23.58,11.47-9.14,2.69-31.55,3.59-31.55,3.59s-6,10.67-11.66,18.82c-4,5.74-9.68,12.29-9.68,12.29s-9.68,12.1-7.44,18c9,24.21,65,11.48,78.44,12.29s68.76,20.43,80-3c2.33-4.75-4.75-15.51-4.75-15.6s-4.12-8.16-8.07-16.67-7.35-16.95-7.35-17-21-5.11-29.4-8.87C199.79,133.48,194.59,122.37,182.94,121.92Z" transform="translate(0 9.95)"/><path d="M181.15,128.46c0-.09.08,3.14-.72,4.57l-2.06-1.25a27.63,27.63,0,0,0,1.52-3.68Z" transform="translate(0 9.95)"/><path d="M180.43,132.94c-1.17,1.8-5.2,3.68-5.2,3.59l-.72-.81a27.91,27.91,0,0,0,3.86-4.12Z" transform="translate(0 9.95)"/><path class="cls-12" d="M180.43,132.94l-2.06-1.25" transform="translate(0 9.95)"/><path d="M188.76,129.09a29.76,29.76,0,0,0,1.53,3.94l-1.79,1.08c-.81-1.43-.9-4.75-.9-4.75Z" transform="translate(0 9.95)"/><path class="cls-12" d="M188.76,129.09l-1.25.27" transform="translate(0 9.95)"/><path d="M190.29,133.12a39.49,39.49,0,0,0,3.49,4.22l-.71.71c.09,0-3.5-2.15-4.57-3.85Z" transform="translate(0 9.95)"/><path class="cls-12" d="M190.29,133.12l-1.79,1.08" transform="translate(0 9.95)"/></g><g id="cejas"><path class="cls-13" d="M105.22,72.35s20.35-8.79,34.24-7.89c14.34.89,32.27,12,32.27,12" transform="translate(0 9.95)"/><path class="cls-13" d="M273,78.35S266.67,66.25,246.59,63s-37.39,5.56-37.39,5.56" transform="translate(0 9.95)"/></g><rect class="cls-14" x="305.8" y="127.71" width="85.7" height="15.1" transform="translate(138.38 454.47) rotate(-76.99)"/><rect class="cls-15" x="303" y="130.04" width="85.7" height="8.2" transform="translate(137.3 450.87) rotate(-76.99)"/><path class="cls-16" d="M346.73,179.35l-10.2,13.2a1.13,1.13,0,0,1-1.5.4,1.16,1.16,0,0,1-.5-.7l-3.5-16.5Z" transform="translate(0 9.95)"/><path d="M333.93,189l.7,3.2a1,1,0,0,0,1.3.8,1.16,1.16,0,0,0,.7-.5l2-2.5Z" transform="translate(0 9.95)"/><path class="cls-17" d="M362.53,84.15l-2.9-.6c-4-.9-7.6,2.2-8.1,4.2h0c-.5,2-.5,3.8,1.6,4.3l10.4,2.4c2,.5,2.7-1.1,3.1-3.2h0C367.13,89.25,365.53,84.85,362.53,84.15Z" transform="translate(0 9.95)"/><path class="cls-18" d="M350.33,90l16.6,3.8a.75.75,0,0,1,.5.7l-1.4,6.2a.75.75,0,0,1-.7.5l-16.6-3.8a.75.75,0,0,1-.5-.7l1.4-6.2C349.73,90.05,350,89.85,350.33,90Z" transform="translate(0 9.95)"/><g id="ojos"><g id="ojos-2"><path class="cls-19" d="M115.2,111c-.38-2-.91-4,.07-6.55,5.23-13.92,14.4-16.64,25.53-17.55,9.85-.9,16.67-.2,23.94,8.78,1.52,1.91,1.82,5.34,1.82,7.66a13.7,13.7,0,0,1-2.12,8.27c-6.06,8.17-15.68,12-24.47,12.4-7.73.3-15.3-1-21.67-6.86A10.88,10.88,0,0,1,115.2,111Z" transform="translate(0 9.95)"/></g><path d="M166.26,103.45s-.45-4.54-1.89-6.86c-3.34-4.53-7.73-7.36-12.5-8.06a48.88,48.88,0,0,0-22.2,1.91c-6.59,2.32-10.26,7.76-12.61,14.92s3,12.21,2.08,12.71-2.43-1-3.94-3.53-1.82-6.55-.38-11.09c2.88-8.27,8.81-14.82,15.56-16.34,9.32-2.32,15.37-2.32,22.19-1.31s13.24,8.27,14.22,10.89,1.06,6.16.68,7.06S166.26,103.45,166.26,103.45Z" transform="translate(0 9.95)"/><g id="pupilas"><path class="cls-20" d="M146.17,93.73c7.18-.29,13.19,4.89,13.51,11.41s-5.38,12-12.56,12.27-13.19-4.89-13.5-11.41S139,93.92,146.17,93.73Z" transform="translate(0 9.95)"/></g></g><g id="ojos-2-2" data-name="ojos"><g id="ojos-2-3" data-name="ojos-2"><path class="cls-19" d="M257.94,111.25c.38-2,.91-4-.07-6.55-5.23-13.92-14.4-16.64-25.53-17.55-9.85-.91-16.67-.2-23.94,8.77-1.52,1.92-1.82,5.35-1.82,7.67a13.7,13.7,0,0,0,2.12,8.27c6.06,8.16,15.68,12,24.47,12.4,7.73.3,15.3-1,21.67-6.86A10.88,10.88,0,0,0,257.94,111.25Z" transform="translate(0 9.95)"/></g><path d="M206.88,103.69s.46-4.54,1.89-6.86c3.34-4.54,7.73-7.36,12.51-8.07a49,49,0,0,1,22.19,1.92c6.59,2.32,10.26,7.76,12.61,14.92s-3,12.2-2.08,12.71,2.43-1,3.94-3.53,1.82-6.55.38-11.09c-2.88-8.27-8.81-14.83-15.56-16.34C233.44,85,227.39,85,220.57,86s-13.23,8.27-14.22,10.89-1.06,6.15-.68,7.06S206.88,103.69,206.88,103.69Z" transform="translate(0 9.95)"/><g id="pupilas-2" data-name="pupilas"><path class="cls-20" d="M227,94c-7.18-.28-13.19,4.9-13.51,11.42s5.38,12,12.56,12.27,13.19-4.89,13.5-11.41S234.14,94.16,227,94Z" transform="translate(0 9.95)"/></g></g><g id="pata_der-2" data-name="pata der"><path class="cls-3" d="M134.69,528.08c-6.63,1.92-12,5.66-15,7.61-4.22,2.8-16.1,13.42-16.1,14,3.89,0,26.53-.16,36.43,0,10.39,0,34.11-.08,36.4-.08,0-.6-8.5-10.53-13.9-14.63-3-2.24-4.86-4.44-7.83-6" transform="translate(0 9.95)"/></g></g></g></g></svg>