<svg xmlns="http://www.w3.org/2000/svg" viewBox="0 0 120 124.26"><defs><style>.cls-1,.cls-5,.cls-6,.cls-9{fill:none;}.cls-2,.cls-3{fill:#f0eb6b;}.cls-10,.cls-11,.cls-2,.cls-5,.cls-6,.cls-7,.cls-9{stroke:#000;stroke-linejoin:round;}.cls-10,.cls-11,.cls-2,.cls-5,.cls-6,.cls-7{stroke-linecap:round;}.cls-11,.cls-2,.cls-7{stroke-width:0.15px;}.cls-4{fill:#f5ece3;}.cls-5{stroke-width:0.93px;}.cls-6{stroke-width:0.62px;}.cls-7{fill:#f6e003;}.cls-8{fill:#fff;}.cls-10,.cls-9{stroke-width:0.31px;}.cls-10{fill:#74baed;}.cls-11{fill:#abf680;}</style></defs><title>Mistake feedback_suki_5to0</title><g id="Layer_2" data-name="Layer 2"><g id="Layer_1-2" data-name="Layer 1"><g id="bab06f6d-f7c9-4925-bbcc-891d28aa26bf"><g id="a2c4815f-d7fd-4e9f-a8b3-ef7628364b33"><rect class="cls-1" width="120" height="124.26"/><g id="edcc189b-c2a1-4dc1-8fb0-0db9aa03dd0e"><path class="cls-2" d="M69.46,82.1c1.58-2.34,4.68-1.3,4.84-1.21.82.1,18.23,13.52,18.43,13.65s8.92,1.21,6.79,6S89.32,101.9,88,101,70.83,88.56,70.23,87.45C70.09,87.25,67.81,84.64,69.46,82.1Z"/></g><g id="b2e31607-8bfe-408d-bbe3-0a799cf2939b"><g id="fed787e0-2883-4126-acf7-78ac52f9c36a"><path class="cls-3" d="M52.37,124.26H97.16c-.74-2.69-1.82-5.93-2.68-8.24-2.35-6.31-9.64-15.2-11.76-17.93-1.13-1.41-8.32-14.2-13.07-17.88S60.74,75.7,56.34,77.6,45.41,81,44.82,85.32,47.14,99,48.26,105.4C49.35,111.62,51.25,117.74,52.37,124.26Z"/><path d="M48.14,105.42c.53,3,1.22,6,1.89,8.78.7,3,1.64,6.73,2.22,10.06h.25c-.58-3.36-1.52-7.11-2.23-10.11-.66-2.82-1.35-5.74-1.88-8.77-.36-2.08-.9-4.41-1.47-6.88-1.17-5.06-2.38-10.29-2-13.16.47-3.39,4.88-5.08,8.77-6.56.95-.36,1.85-.7,2.68-1.07a11.25,11.25,0,0,1,4.47-1c2.8,0,5.61,1.17,8.71,3.58,3.59,2.78,8.59,10.8,11.28,15.11.87,1.39,1.49,2.4,1.77,2.75l.76,1c2.66,3.36,8.87,11.25,11,16.92.94,2.51,2,5.69,2.66,8.2h.27c-.7-2.54-1.75-5.75-2.69-8.28-2.13-5.72-8.36-13.62-11-17l-.76-1c-.27-.33-.9-1.34-1.76-2.72C78.36,91,73.35,82.92,69.73,80.11c-4.84-3.74-9-4.55-13.44-2.63-.83.36-1.73.71-2.67,1.07-4,1.51-8.43,3.22-8.92,6.75-.41,2.92.8,8.18,2,13.26C47.24,101,47.78,103.35,48.14,105.42Z"/></g></g><g id="a7a28ce7-2236-412e-ab01-6c8886ea0efc"><path class="cls-3" d="M53.1,124.26c-.08-.12-.16-.23-.22-.34-2.64-4.21-14.51-18-14.42-18.91s9.28-9.05,9.7-10L45.07,86c-.76.15-13.43,13.78-13.8,20.91-.24,4.51,6.53,11.66,10.8,17.32Z"/><path d="M41.91,124.26h.32c-1-1.37-2.48-3.43-3.62-4.83C35,115,31.22,110.34,31.4,107c.36-7,13-20.58,13.69-20.79l0-.25c-.79.15-13.52,13.71-13.9,21-.19,3.49,3.5,8.13,7.19,12.63C39.44,120.91,40.92,122.94,41.91,124.26Z"/><path d="M38.34,105c-.05.46,1.83,2.8,6.14,8,3.17,3.86,7,8.88,8.29,11l.18.27h.3c-.1-.14-.19-.28-.26-.4-1.32-2.11-5.14-7.14-8.32-11-2.85-3.46-6.09-7.39-6.08-7.83s2.95-3.25,5.29-5.5A43.74,43.74,0,0,0,48.28,95l-.23-.1a47.47,47.47,0,0,1-4.35,4.43C40.5,102.44,38.39,104.5,38.34,105Z"/></g><path class="cls-4" d="M62.72,124.26H97.11c-.72-2.57-2.68-9.68-5.76-14.1-2.76-4.69-16.91-25.32-19-28.15-4,1.73-8,1-11.19.82-1.52-.09-10.7,1.16-14.56,1.48C47.75,86.41,63,118.77,62.72,124.26Z"/><path d="M62.6,124.26h.24c.23-5.69-14.48-36.82-16-39.84,1.6-.14,4.05-.42,6.41-.7,3.48-.4,7.07-.83,7.94-.77l1.49.12c2.94.25,6.27.53,9.67-.9,2.31,3.19,16.21,23.49,18.91,28.06,3,4.31,5,11.23,5.69,13.9l0,.13h.26l-.06-.2c-.74-2.68-2.71-9.63-5.72-14-2.72-4.62-16.85-25.24-19-28.16l-.06-.08-.09,0c-3.37,1.45-6.7,1.17-9.64.92L61.2,82.7c-.9-.06-4.34.35-8,.77-2.46.29-5,.58-6.6.72h-.19l.09.17C48,87.22,62.93,119.1,62.6,124.26Z"/><g id="ac74ec3e-63c0-4258-9e2b-5117fb1382ab"><path class="cls-2" d="M39.41,23.47c13.25-3.92,25.12-1.25,34.5,7.48C84.29,40.64,86.71,63,84.41,68.68c-1.72,4.23-4.81,11.39-24.6,15.71-23.59,5.16-31.57-2.75-34.85-6-8-10.46-10.48-19.75-4.86-36.55C23.57,32.32,29.39,26.42,39.41,23.47Z"/></g><g id="fad94b0d-02b7-4e48-9c05-22a675b218e6"><path class="cls-5" d="M37.12,51.49a99.77,99.77,0,0,0,10.17,1.67c7.51.93,9.65.05,9.65.05"/></g><g id="ba1863a3-a12d-4d92-8c57-ebe7abcb0f81"><path class="cls-5" d="M63.36,48.48A8.82,8.82,0,0,1,70.07,43c5.11-.79,7.27,1.56,7.27,1.56"/></g><g id="be0cf1d2-f5ce-4052-9171-993fe8cff8e0"><path class="cls-6" d="M38.28,68.25a36.07,36.07,0,0,0,13,1.91c8.68-.42,9.15-2,9.15-2"/></g><g id="f17f57ef-8231-4204-b9e6-b410f4e59d7f"><path class="cls-7" d="M65,61.51c-2.42.4-3.92,3.92-6,5.09-2.43,1.45-8.81,3.27-8.85,3.31s2.14,2.92,4,6c1.71,2.83,2.42,4.89,3.11,5.74s2.7,3.43,4.64,4c5.78,1.58,14.18-4,17.58-5.34,3-1.21,16.43-2.13,14.7-7.15-.45-1.37-3.63-1.29-4.2-1.45a14.46,14.46,0,0,1-4.6-1.32,21.31,21.31,0,0,1-6.55-6.06,38.51,38.51,0,0,1-6.62,0C70,63.93,67.42,61.11,65,61.51Z"/><path d="M65.61,63.12a3.56,3.56,0,0,1,.79,1.59h-.72a5.07,5.07,0,0,0-.43-1.42Z"/><path d="M66.4,64.71a4.08,4.08,0,0,1-.84,1.61l-.31-.12a6.37,6.37,0,0,0,.43-1.49Z"/><path d="M67.14,62.8a8.65,8.65,0,0,0,1,1.17l-.3.39A6.37,6.37,0,0,1,67,63Z"/><path d="M68.15,64c.4.32,1.49,1,1.49,1l-.07.15a8.17,8.17,0,0,1-1.72-.8Z"/></g><g id="b79740c4-e52b-4db3-a22f-5865c390caef"><g id="ac1fbdd8-76d6-4ab7-a119-1a4beb965416"><path class="cls-8" d="M38.7,58.74a2.78,2.78,0,0,1,0-1.71c1.28-2.47,5.48-2.86,8-3.11,2.26-.23,5.89-.46,7.53,1.32A2.8,2.8,0,0,1,54.82,57,3.6,3.6,0,0,1,54,59c-1.66,1.9-5.08,2.71-7.43,2.92-2.06.18-5.12-.06-6.83-1.42A4,4,0,0,1,38.7,58.74Z"/><path d="M38.35,58.87a3,3,0,0,1,.07-2l.53.5a1.82,1.82,0,0,0,.14,1.29Z"/><path d="M38.42,56.86c1.47-2.58,5.79-3,8.33-3.23v.65c-2.53.25-6.58.74-7.72,3Z"/><path d="M46.75,53.63c2.31-.23,6-.26,7.66,1.56l-.23.27c-1.54-1.71-5.14-1.41-7.43-1.18Z"/><path d="M46.64,62c-2.09.19-5.24,0-7-1.34l.28-.39c1.64,1.29,4.66,1.65,6.72,1.5Z"/><path d="M39.68,60.69a4,4,0,0,1-1.32-1.82l.72-.25a3.23,3.23,0,0,0,.86,1.67Z"/><path class="cls-8" d="M78.74,52.67a5.32,5.32,0,0,0-.68-2c-1.83-2.23-5.12-1.73-7-1.26-1.73.42-4.39,1.39-4.89,3.79a4.7,4.7,0,0,0,.29,2.14,5.76,5.76,0,0,0,1.35,2.07,7.71,7.71,0,0,0,6.53,1.21A6.41,6.41,0,0,0,78.64,55,5.28,5.28,0,0,0,78.74,52.67Z"/><path d="M78.41,52.65a4.09,4.09,0,0,0-.55-1.57l.38-.73a5.89,5.89,0,0,1,.85,2.33Z"/><path d="M77.89,51.12c-1.63-2.1-4.82-1.72-6.78-1.26l-.22-.78c2-.48,5.29-1.11,7.31,1.29Z"/><path d="M71.12,49.85c-1.72.42-4.39,1.24-4.85,3.54l-.17-.11c.55-2.52,3.05-3.8,4.79-4.19Z"/><path d="M74.25,58.54a6.45,6.45,0,0,0,4.21-3.71l.44.11a7.07,7.07,0,0,1-4.53,3.9Z"/><path class="cls-9" d="M74.25,58.54l.1.32"/><path d="M78.46,54.82a5.17,5.17,0,0,0,0-2.18h.68A5.43,5.43,0,0,1,78.87,55Z"/><path d="M38.69,59.17a6,6,0,0,1-1.61-.27l.12-.44a2.82,2.82,0,0,0,1.55-.11Z"/><path d="M36.94,58.86a3.22,3.22,0,0,1-1.28-1l.13-.21a4.43,4.43,0,0,0,1.35.84Z"/><path class="cls-9" d="M37.08,58.9l.12-.44"/><path d="M38.65,57.5A6,6,0,0,1,37,56.8l.18-.41a2,2,0,0,0,1.67.24Z"/><path class="cls-9" d="M38.65,57.5l.19-.86"/><path d="M37,56.82A3.91,3.91,0,0,1,35.2,55l.13-.19a4.79,4.79,0,0,0,1.87,1.62Z"/><path d="M38.35,58.87a3,3,0,0,1,.07-2l.62.38a2.13,2.13,0,0,0,.05,1.41Z"/><path class="cls-9" d="M38.35,58.87l.71-.25"/><path d="M78.54,52.23a2,2,0,0,0,1.21-.77l.3.43A11.73,11.73,0,0,1,79,53.14Z"/><path d="M79.73,51.5a8.8,8.8,0,0,0,.69-1.33l.13.12A3.77,3.77,0,0,1,80,51.92Z"/><path d="M77.81,50.24c.06,0,1,0,1.36-.63l.32.22a3.58,3.58,0,0,1-1.24,1.36Z"/><path class="cls-9" d="M77.81,50.24l.46.94"/><path d="M79.17,49.62a10.84,10.84,0,0,0,.51-3l.16.11a8.51,8.51,0,0,1-.35,3.1Z"/><path d="M78.41,52.65a3.41,3.41,0,0,0-.31-1.44l.14-.86a5.89,5.89,0,0,1,.85,2.33Z"/></g><g id="b44f63d7-7ffa-45e7-99a5-f2888aa64a29"><path class="cls-10" d="M50.91,54.16a3.63,3.63,0,1,1-3.74,3.67h0A3.71,3.71,0,0,1,50.91,54.16Z"/></g><path class="cls-10" d="M74.7,50.47a3.92,3.92,0,1,1-3.59,4h0A3.8,3.8,0,0,1,74.7,50.47Z"/></g><g id="e8a12f9a-632b-45d8-a98b-716df933aaad"><path class="cls-2" d="M37.48,27.52c-2.2,1-5.8,0-8-.66-1.56-.48-4.18-2.5-4.87-2.79s-2.85-1.6-4.75-1.28-4.36,3-4.36,3a16.28,16.28,0,0,1,2.05-8.55,11.16,11.16,0,0,1,3.58-3.59,8.73,8.73,0,0,0-2.69-3.44,13.63,13.63,0,0,0-6.39-2.15,32.19,32.19,0,0,1,8.77-3.48A18.25,18.25,0,0,1,29,4.9c3.08.86,8.47,3.43,10.87,6.75,1.71,2.48,2.85,6.38,2.33,9.17C41.74,23.22,39.73,26.5,37.48,27.52Z"/></g><g id="b5c61b7a-609f-4bdc-8a45-bee7579afc40"><path class="cls-11" d="M38,27.58c-1,.51-6.87,3.2-7.9,2.85a7.41,7.41,0,0,1-1.72-1.94A8.79,8.79,0,0,1,27.12,26c.21-1.23,7.18-4.38,8.29-4.93s7-3.43,8-3a6.32,6.32,0,0,1,1.2,1.82,7.66,7.66,0,0,1,.57,2.91C44.77,23.89,38.92,27.08,38,27.58Z"/></g><g id="a4a160d5-e35d-446f-9c94-5d4df2a960ee"><path class="cls-2" d="M88.82,97.58c-1.09-1.13-8-7.26-11.17-12a27.79,27.79,0,0,0-4.84-3.09c-1.69-1-3.27-3-2.64-4,.37-.51,3.27-1,8-.79,4.23.17,5.44,2.19,6,2.7,2.55,2.73,10.07,11.24,10.18,11.42s4.76,4,5,4.77c0,.17,1.43,3-.61,5"/></g></g></g></g></g></svg>