<svg xmlns="http://www.w3.org/2000/svg" viewBox="0 0 1200 342.86"><defs><style>.f528ac18-525a-48d6-8535-93f112e7dfb5{fill:#dfd9cf;}.ab481564-ff2f-428a-93e1-651772f39268{fill:#a9a399;}</style></defs><title>Balanza_Izquierda</title><g id="b5c625cb-4f04-4ef4-acef-36a66640335b" data-name="Capa 2"><g id="a0ba4983-0c94-4c50-a9f7-d84be8152033" data-name="Master 2020"><path class="f528ac18-525a-48d6-8535-93f112e7dfb5" d="M657.38,245.43h0c-18.28-54-95.36-54-113.64,0h0c-67.78,0-105.8,80.77-105.8,80.77h57.39s22.93-37.28,105.23-37.28S705.79,326.2,705.79,326.2H764.3S725.16,245.43,657.38,245.43Z"/><rect class="ab481564-ff2f-428a-93e1-651772f39268" x="420" y="315.09" width="111.03" height="27.78" rx="12"/><rect class="ab481564-ff2f-428a-93e1-651772f39268" x="671.21" y="315.09" width="111.03" height="27.78" rx="12"/><rect class="f528ac18-525a-48d6-8535-93f112e7dfb5" x="195.14" y="185.56" width="15.7" height="40.64"/><path class="ab481564-ff2f-428a-93e1-651772f39268" d="M0,134.44H404.86a0,0,0,0,1,0,0v5.11a46,46,0,0,1-46,46H46a46,46,0,0,1-46-46v-5.11a0,0,0,0,1,0,0Z"/><rect class="f528ac18-525a-48d6-8535-93f112e7dfb5" x="990.28" y="51.11" width="15.7" height="40.64"/><path class="ab481564-ff2f-428a-93e1-651772f39268" d="M795.14,0H1200a0,0,0,0,1,0,0V5.11a46,46,0,0,1-46,46H841.14a46,46,0,0,1-46-46V0a0,0,0,0,1,0,0Z"/><polygon class="f528ac18-525a-48d6-8535-93f112e7dfb5" points="1013.35 111.68 196.05 254.46 192.74 235.86 1010.04 93.08 1013.35 111.68"/><path class="ab481564-ff2f-428a-93e1-651772f39268" d="M995.71,79.79h0a11.68,11.68,0,0,0-9.55,13.51l.68,3.83,23.2-4-.68-3.83A11.77,11.77,0,0,0,995.71,79.79Z"/><path class="ab481564-ff2f-428a-93e1-651772f39268" d="M201.61,218.51h0A11.67,11.67,0,0,0,192.06,232l.68,3.83,23.19-4.05-.68-3.83A11.77,11.77,0,0,0,201.61,218.51Z"/><path class="f528ac18-525a-48d6-8535-93f112e7dfb5" d="M582.85,141.78l-26.16,44.9A21.14,21.14,0,0,0,575,218.47h52.33a21.14,21.14,0,0,0,18.26-31.79l-26.16-44.9A21.14,21.14,0,0,0,582.85,141.78Z"/><ellipse class="ab481564-ff2f-428a-93e1-651772f39268" cx="601.12" cy="176.2" rx="19.63" ry="19.44"/></g></g></svg>