<svg xmlns="http://www.w3.org/2000/svg" viewBox="0 0 1200 342.86"><defs><style>.e5b724a8-8f22-43a0-b7ce-b8e984742286{fill:#dfd9cf;}.f13eb8f1-0cae-47cb-872d-2070a9ce31c2{fill:#a9a399;}</style></defs><title>Balanza_Derecha</title><g id="bd902a37-309a-4e86-bf4d-6c128d899de8" data-name="Capa 2"><g id="f99c3f8d-90e8-4b51-811c-4dee969275fa" data-name="Master 2020"><path class="e5b724a8-8f22-43a0-b7ce-b8e984742286" d="M542.62,245.43h0c18.28-54,95.36-54,113.64,0h0c67.78,0,105.8,80.77,105.8,80.77H704.67s-22.93-37.28-105.23-37.28S494.21,326.2,494.21,326.2H435.7S474.84,245.43,542.62,245.43Z"/><rect class="f13eb8f1-0cae-47cb-872d-2070a9ce31c2" x="668.97" y="315.09" width="111.03" height="27.78" rx="12" transform="translate(1448.97 657.95) rotate(180)"/><rect class="f13eb8f1-0cae-47cb-872d-2070a9ce31c2" x="417.76" y="315.09" width="111.03" height="27.78" rx="12" transform="translate(946.54 657.95) rotate(180)"/><rect class="e5b724a8-8f22-43a0-b7ce-b8e984742286" x="989.16" y="185.56" width="15.7" height="40.64" transform="translate(1994.02 411.75) rotate(180)"/><path class="f13eb8f1-0cae-47cb-872d-2070a9ce31c2" d="M841.14,134.44H1154a46,46,0,0,1,46,46v5.11a0,0,0,0,1,0,0H795.14a0,0,0,0,1,0,0v-5.11A46,46,0,0,1,841.14,134.44Z" transform="translate(1995.14 320) rotate(180)"/><rect class="e5b724a8-8f22-43a0-b7ce-b8e984742286" x="194.02" y="51.11" width="15.7" height="40.64" transform="translate(403.74 142.86) rotate(180)"/><path class="f13eb8f1-0cae-47cb-872d-2070a9ce31c2" d="M46,0H358.86a46,46,0,0,1,46,46v5.11a0,0,0,0,1,0,0H0a0,0,0,0,1,0,0V46A46,46,0,0,1,46,0Z" transform="translate(404.86 51.11) rotate(180)"/><polygon class="e5b724a8-8f22-43a0-b7ce-b8e984742286" points="186.65 111.68 1003.95 254.46 1007.26 235.86 189.96 93.08 186.65 111.68"/><path class="f13eb8f1-0cae-47cb-872d-2070a9ce31c2" d="M204.29,79.79h0a11.68,11.68,0,0,1,9.55,13.51l-.68,3.83-23.2-4,.68-3.83A11.77,11.77,0,0,1,204.29,79.79Z"/><path class="f13eb8f1-0cae-47cb-872d-2070a9ce31c2" d="M998.39,218.51h0a11.67,11.67,0,0,1,9.55,13.52l-.68,3.83-23.19-4.05.68-3.83A11.77,11.77,0,0,1,998.39,218.51Z"/><path class="e5b724a8-8f22-43a0-b7ce-b8e984742286" d="M615.45,138.88,645,189.62a19.19,19.19,0,0,1-16.58,28.85H569.31a19.19,19.19,0,0,1-16.58-28.85l29.57-50.74A19.18,19.18,0,0,1,615.45,138.88Z"/><ellipse class="f13eb8f1-0cae-47cb-872d-2070a9ce31c2" cx="598.88" cy="176.2" rx="19.63" ry="19.44"/></g></g></svg>