<svg xmlns="http://www.w3.org/2000/svg" xmlns:xlink="http://www.w3.org/1999/xlink" viewBox="0 0 121.66 120.03"><defs><style>.cls-1,.cls-2{fill:none;}.cls-1,.cls-10,.cls-12,.cls-15,.cls-16,.cls-17,.cls-5,.cls-6,.cls-7,.cls-8,.cls-9{stroke:#000;stroke-miterlimit:10;}.cls-1,.cls-10,.cls-15,.cls-16,.cls-5,.cls-6,.cls-9{stroke-width:0.25px;}.cls-3,.cls-5{fill:#68605b;}.cls-4,.cls-6,.cls-7{fill:#ffe8c6;}.cls-17,.cls-7,.cls-8{stroke-width:0.5px;}.cls-8{fill:#2aeaf7;}.cls-18,.cls-9{fill:#b36c5e;}.cls-10{fill:#ffa996;}.cls-11{clip-path:url(#clip-path);}.cls-12{fill:#7e2d3a;}.cls-13{fill:#fea49c;}.cls-14,.cls-17{fill:#fff;}.cls-15{fill:url(#linear-gradient);}.cls-16{fill:#96a3b6;}.cls-19{fill:#a0dbf0;stroke:#4a91cd;stroke-linecap:round;stroke-linejoin:round;}</style><clipPath id="clip-path"><path class="cls-1" d="M93.93,75.44C90.36,76.79,79.24,82.62,67.15,82c-14.85-.81-20.41-4.68-24.45-6.84-3.86-2.07-8.8-1-10.22,1.43-1.94,3.27-1,7.93,6.06,11.59S59.16,96,70,94.39s17.19-3.85,20.35-8.48S94.67,75.16,93.93,75.44Z"/></clipPath><linearGradient id="linear-gradient" x1="59.17" y1="27.11" x2="59.17" y2="76.29" gradientUnits="userSpaceOnUse"><stop offset="0.4" stop-color="#68605b"/><stop offset="1" stop-color="#fe5858"/></linearGradient></defs><title>Correct feedbacK_mandril</title><g id="Layer_2" data-name="Layer 2"><g id="Layer_1-2" data-name="Layer 1"><rect class="cls-2" width="121.66" height="120.03"/><path class="cls-3" d="M50.65,120H89.23A98,98,0,0,0,86,103.69C79.25,80.31,73,78.7,64.48,80.07c-14.06,2.28-12.2,16.52-12.2,32.1A21.28,21.28,0,0,1,50.65,120Z"/><path d="M52.15,112.17A21.12,21.12,0,0,1,50.52,120h.27a21.26,21.26,0,0,0,1.61-7.86c0-1.66,0-3.32,0-4.92-.17-13.43-.32-25,12.14-27.06,4.35-.7,7.94-.55,11.3,2.5,3.71,3.35,6.92,10,10.1,21A97.25,97.25,0,0,1,89.11,120h.25a98.07,98.07,0,0,0-3.22-16.38c-7-24.09-13.67-25-21.68-23.7-12.67,2-12.52,13.75-12.35,27.3C52.13,108.85,52.15,110.51,52.15,112.17Z"/><path class="cls-4" d="M58.7,120H90.29a52.24,52.24,0,0,0-.94-6.67c-2.22-9.67-3.17-24.38-5.07-25.81S61,81.32,62.15,94.64C62.59,99.86,60.84,111.22,58.7,120Z"/><path d="M58.58,120h.25c2-8.25,3.91-19.88,3.45-25.4-.29-3.44.92-5.93,3.6-7.41,5.86-3.24,17-.55,18.32.43,1.08.81,1.91,6.51,2.78,12.55.63,4.32,1.34,9.22,2.25,13.19a53.8,53.8,0,0,1,.94,6.64h.25a52.88,52.88,0,0,0-1-6.7c-.91-4-1.61-8.85-2.24-13.17-1-6.61-1.71-11.84-2.88-12.71-1.37-1-12.53-3.81-18.6-.45-2.76,1.53-4,4.11-3.72,7.66C62.49,100.16,60.57,111.79,58.58,120Z"/><path class="cls-3" d="M50.19,120h10a15,15,0,0,0-5-5.56c-2.38-1.43-9.51-6.5-9-9S56.36,98,59.54,97.66l-.08-10.55c-2.38.32-20.86,9.6-22.6,18.32-.8,5.08,12.41,12.61,13.2,13.56A2.8,2.8,0,0,1,50.19,120Z"/><path d="M50,119.07a2.74,2.74,0,0,1,.11,1h.25a2.63,2.63,0,0,0-.17-1.12,15.52,15.52,0,0,0-1.95-1.43c-3.84-2.63-11.83-8.11-11.22-12C38.68,97,56.6,87.87,59.33,87.26l.08,10.29c-3.39.43-12.85,5.36-13.32,7.86-.51,2.74,7.17,8,9.1,9.17A15.38,15.38,0,0,1,60.08,120h.27a15.56,15.56,0,0,0-5-5.67c-2.56-1.53-9.44-6.49-9-8.91s10-7.34,13.21-7.67h.11L59.58,87l-.14,0c-1.3.17-6.59,2.66-11.59,6-4.55,3.06-10.18,7.7-11.12,12.4-.64,4.08,7.45,9.61,11.33,12.27A17.38,17.38,0,0,1,50,119.07Z"/><path class="cls-5" d="M84.86,88.56c3.42-1.74,16.69-14,21.33-19.77A71.16,71.16,0,0,0,113.55,58c.07-.13,5.7,1,6.55-2.16,1.06-4-3.93-3.5-3.93-4.75,0-5.68-3.29-9.88-6.8-10.53-9.77-1.81-3.23,10.9-3.89,11.78S98.7,63.08,95.86,66.08,83.06,80,80.59,81.2s-2.65,4.94-1.42,6.68S83.34,89.34,84.86,88.56Z"/><path class="cls-6" d="M22.6,51.1C22.27,49.37,2.94,61.81,1.31,65.65c0,1.47,19.61-.05,23.22,5C24.53,70.69,23.68,56.81,22.6,51.1Z"/><path class="cls-7" d="M24.48,72.08C22,67.53,14.73,92.42,15,94.45s9.63-6.78,14.39-7.62S25.08,73.15,24.48,72.08Z"/><path class="cls-6" d="M45.18,93.3c-1.9-1.29-7.61,7-8.09,8.2S52.2,97.34,54.7,97.7,48.16,95.32,45.18,93.3Z"/><path class="cls-6" d="M82.33,38c-.35-1.72,17.19,6.57,20.15,9.51.59,1.34-13.12,3.29-14.55,9.37C87.93,56.83,83.48,43.66,82.33,38Z"/><path class="cls-6" d="M90.64,57.63c.63-5.18,15.58,12,16.12,14s-10.35.49-15.07,1.52S90.5,58.84,90.64,57.63Z"/><path class="cls-6" d="M88.76,85.56c1.27-1.92,9.69,3.63,10.58,4.55S83.78,92,81.6,93.22,86.77,88.55,88.76,85.56Z"/><path class="cls-6" d="M59.3,99.17c.35,2.89,1.82,8,3.49,8.72,1,.43,1.8-4.43,2.63-4.46.55,0,8.39,4.22,13.39,11.44,1.41,2,5.71-9,5.07-12.22s4,2.64,4.8,3,.67-8.8-2-11.9S59.17,98.11,59.3,99.17Z"/><path class="cls-5" d="M41.06,4.8c.45.17-5.24,7.61-5.08,8.09S47.56,2.18,58.66,4.4c1.17.23-7,5.08-7.13,8.25,7.29-6.5,14.35-8.09,16.89-8-2.54,2.7-4.13,5.07-3.1,6.11,0,0,12.93,10.07,18.88,21.64s10,32,9.83,39.58S77.73,92.78,60.25,88.38,29.44,78.86,24.56,68.87,17,46.11,20.88,29.5C24.8,12.73,39.59,4.24,41.06,4.8Z"/><path class="cls-8" d="M25.3,70.48c-4.76,21.57-3.47,13.62,3.43,17.19s33.66,12.49,41.63,13.44,12.25-.83,15.34-4.88S98.29,73.49,96.41,66.89c-3.57-12.53-7-22.58-7.83-23.16-2.53-1.79-14.94-3.4-20.6.28-8.32,5.41-15.29,21.07-18.52,21.61C40.69,67.08,24.42,71.23,25.3,70.48Z"/><path class="cls-9" d="M24.8,65.7c-.79-3-2.65-8.09-6.3-8.41s-9.28,3.34-8.17,11.23S17.7,79.3,21.51,79.3,25.91,69.94,24.8,65.7Z"/><path class="cls-10" d="M24.33,67c-.37-2.33-2.41-5.56-5.06-5.47s-5.41,4.16-4,8.71S21.32,78.3,23,76.57,24.62,68.87,24.33,67Z"/><path class="cls-9" d="M78.69,74.34c-10.17,1.73-12.73,3.33-25.58,0C40.91,71.18,37,63.58,28,67.15s-10,11.73-7.81,16.08,9.16,8,18.14,10.62,12.56,4.7,23.08,7c9.16,2,13.08,4.6,19.51.83s12.74-17,14.51-20.58c1.87-3.79,8.09-11.77,5.59-15.1s-4.75-5-6.45-5.23C94.11,60.72,88.86,72.62,78.69,74.34Z"/><g class="cls-11"><path class="cls-12" d="M93.88,76.69c-3.61.7-14.42,5.77-26.43,4.28s-20.31-3.49-24.07-6.1-7.91-2.36-9.58,1.06.2,10.55,7.27,14.21,17.45,6.92,28.27,5.37,17.83-5,21-9.6S94.65,76.54,93.88,76.69Z"/><path class="cls-13" d="M83.88,77c3.6,1.71,9,6.77,8.83,10.52S67.88,106.87,51.26,99.29,24,85.66,26.91,77.37s4.34-12.08,15.81-8.68S81.93,76.09,83.88,77Z"/><path class="cls-14" d="M31.73,73.43c1,3.51,14.57,12.14,27.35,12.95S81.3,86,88.18,82.63s9.69-5,10.71-7.74-5.4-8.38-5.4-8.38-23.93,8.55-31.68,6.65-25-8.27-28.1-10.23S30.67,69.66,31.73,73.43Z"/></g><path class="cls-1" d="M93.93,75.44C90.36,76.79,79.24,82.62,67.15,82c-14.85-.81-20.41-4.68-24.45-6.84-3.86-2.07-8.8-1-10.22,1.43-1.94,3.27-1,7.93,6.06,11.59S59.16,96,70,94.39s17.19-3.85,20.35-8.48S94.67,75.16,93.93,75.44Z"/><path class="cls-15" d="M32.3,37.59c3.45,12,21.17-.48,26.05,6.06,5,6.7,10.46,18.44,11.42,24.39,0,0-4-1.55-5.71,1.55s.59,7.61,8.68,6.54,11.54-3.33,12.85-5.35,0-9.16-5.6-5.6c0,0-2.26-5.7-5.59-14.15s1.79-12.37,3.45-15.11,3.43-5.37,1.53-8.81"/><path class="cls-16" d="M34.2,33.66c3.46-3.06,10.35-5,17.6.24s13.09,14,11.3,24.15-14.27,14-22.72,11.3-12-14-11.53-22S31.11,36.4,34.2,33.66Z"/><path class="cls-16" d="M73.33,23.75c2.57-.88,4.84-.16,8.41,4.44s6.42,12.21,7.77,18.48.71,11.26-2.62,12.77-9-.48-14.19-11S67.07,25.89,73.33,23.75Z"/><path class="cls-17" d="M41.69,38.74c3.78-1.23,9.44-.56,13.72,5.71S61,59.44,56,63.24,44.07,63,40,57.77,36.3,40.48,41.69,38.74Z"/><path class="cls-17" d="M76.43,32.87c4.39-1.23,8.48,4.68,9.59,10.55s.72,10.78-2.62,11.73-7.05-3.64-9.11-10.39S73.89,33.58,76.43,32.87Z"/><ellipse cx="55.46" cy="53.52" rx="3.49" ry="4.71" transform="translate(-6.49 7.66) rotate(-7.47)"/><ellipse cx="81.38" cy="46.69" rx="2.76" ry="4.15" transform="translate(-9.05 21.67) rotate(-14.38)"/><ellipse cx="68.44" cy="72.4" rx="1" ry="1.25" transform="translate(-29.98 56.94) rotate(-37.68)"/><ellipse cx="82.35" cy="68.21" rx="1" ry="1.25" transform="translate(-16 26.24) rotate(-16.53)"/><path class="cls-18" d="M60.55,120c-1.34-2.48-4.82-5.55-5.3-5.45s-.18,3.6-4.93,4.58a6,6,0,0,1-.12.87Z"/><path d="M50.32,120c0-.19.08-.7.1-.76,3.52-.76,4.21-2.85,4.58-4,.09-.27.19-.58.28-.6h0c.5,0,3.78,2.92,5.12,5.33h.28c-1.33-2.51-4.85-5.68-5.46-5.57-.23,0-.32.33-.47.76-.35,1.08-1,3.11-4.47,3.82h-.07l0,.07a7.17,7.17,0,0,1-.13.91Z"/><path class="cls-9" d="M110,53.11c1.41.86,3.15,5,3.51,5s4.73.74,6.18-1.13,1.49-4.34-3-5.62c-.45-.21.06-3.19-1.46-6s-4.78-6.07-8.65-5.15-3.48,6-1.28,11.45C105.87,52.16,107.62,51.65,110,53.11Z"/><path class="cls-19" d="M113.31,75.9s-2.82,8,5.45,10.4c0,0-10.06-3.83-12.7,1.79,0,0,.77-10-.85-10.74C105.21,77.35,111.94,77.52,113.31,75.9Z"/><path class="cls-19" d="M34.54,101s-6.36,4.88-6.5,6.8c0,0-5.77-8.42-8.28-8.87,0,0,6.5-1.18,7.24-3.69C27,95.24,27.89,99.52,34.54,101Z"/></g></g></svg>