<svg xmlns="http://www.w3.org/2000/svg" xmlns:xlink="http://www.w3.org/1999/xlink" viewBox="0 0 137.11 120.03"><defs><style>.cls-1,.cls-2,.cls-7{fill:none;}.cls-1,.cls-12,.cls-13,.cls-5,.cls-6,.cls-7,.cls-9{stroke:#000;stroke-miterlimit:10;}.cls-1,.cls-12,.cls-13,.cls-14,.cls-5,.cls-6,.cls-7,.cls-9{stroke-linecap:round;}.cls-1,.cls-5,.cls-6{stroke-width:0.25px;}.cls-3,.cls-5{fill:#ffb129;}.cls-4,.cls-6{fill:#fef5e4;}.cls-7{stroke-width:0.75px;}.cls-8{clip-path:url(#clip-path);}.cls-9{fill:#7e2d3a;}.cls-10,.cls-12{fill:#fea49c;}.cls-11,.cls-13{fill:#fff;}.cls-12,.cls-13{stroke-width:0.5px;}.cls-14{fill:#a0dbf0;stroke:#4a91cd;stroke-linejoin:round;}</style><clipPath id="clip-path"><path class="cls-1" d="M92.68,71.54c-3.56,1.06-11.89,2-23.92,1.26s-20.13-2.86-24.26-5c-4-2-8.18-.89-9.47,1.92-1.76,3.79.75,11.75,8,15.28s18.34,7.32,29,4.76,14.52-4.88,17.71-9.3C93.33,75.53,93.44,71.32,92.68,71.54Z"/></clipPath></defs><title>Correct feedbacK_tigre</title><g id="Layer_2" data-name="Layer 2"><g id="Layer_1-2" data-name="Layer 1"><rect class="cls-2" width="137.11" height="120.03"/><path class="cls-3" d="M95.92,91.38c4.28-2,20.89-16.5,26.7-23.21a67.42,67.42,0,0,0,8.83-12.74c.13-.21,6.14-4.16,4.46-13a9.35,9.35,0,0,0-12.41-7.09c-10.73,4.6-2.36,14.57-3.19,15.6S113.25,61.45,109.69,65s-16,16.39-19.11,17.75-3.33,5.81-1.78,7.86S94,92.29,95.92,91.38Z"/><path class="cls-1" d="M95.92,91.38c4.28-2,20.89-16.5,26.7-23.21a67.42,67.42,0,0,0,8.83-12.74c.13-.21,6.14-4.16,4.46-13a9.35,9.35,0,0,0-12.41-7.09c-10.73,4.6-2.36,14.57-3.19,15.6S113.25,61.45,109.69,65s-16,16.39-19.11,17.75-3.33,5.81-1.78,7.86S94,92.29,95.92,91.38Z"/><path d="M119.21,71.71c-.4-.73-1.76-3.14-3.22-3.75-.42-.25,2.63.23,4.34,2.16C120.61,70.49,119.21,71.71,119.21,71.71Z"/><path d="M105.91,83.87c-.41-.73-1.76-3.14-3.22-3.75-.43-.25,2.92.57,4.63,2.5C107.4,83,105.91,83.87,105.91,83.87Z"/><path d="M126.15,63.71c-.59-.94-2.72-4.4-4.76-5.22-.6-.33,3.77.52,6.19,3C128,62,126.15,63.71,126.15,63.71Z"/><path d="M115.28,57.58c1.07.28,4.59,1.26,6,3,.48.48-1.42-3.38-4.49-5C116.18,55.33,115.28,57.58,115.28,57.58Z"/><path class="cls-3" d="M107.81,120c-1.33-4.51-3.23-10-5.41-15.74C92.71,78.87,83.1,77.11,73.62,78.65,57.91,81.2,58,96.05,58,113.46c0,1.9.11,4.42,0,6.57Z"/><path d="M58.18,120c0-1.8-.06-4.49-.06-6.57v-.29c0-17.1,0-31.88,15.52-34.4,8.61-1.39,18.63-.69,28.65,25.56,2.16,5.67,4.08,11.24,5.39,15.7h.26c-1.32-4.48-3.24-10.08-5.42-15.78C92.44,77.82,82.31,77.11,73.6,78.53,57.87,81.08,57.87,96,57.87,113.17v.29c0,2.08.11,4.77.06,6.57Z"/><path class="cls-4" d="M64,120h43.7c-1.35-4.25-3.16-9.48-5.09-14.86C93.48,79.64,85,77.66,76.69,79c-13.76,2.16-13.32,16.93-12.9,34.27C63.83,115.2,64,117.79,64,120Z"/><path d="M63.66,113.23c.05,2.16.22,4.94.22,6.8h.25c0-1.87-.17-4.65-.22-6.8v-.3c-.41-17-.76-31.72,12.81-33.85,7.52-1.17,16.35-.23,25.79,26.13,2.18,6.08,3.86,11,5.08,14.82h.26c-1.22-3.87-2.91-8.78-5.1-14.9C93.23,78.58,84.29,77.64,76.67,78.84c-13.79,2.16-13.43,17-13,34.1Z"/><path d="M58,107.92c.66-.82,3.68-1.68,8.15-.53s8.27,4.91,7.27,4.61-8.28-.88-9.7-.93-5.45,1.51-5.85,1.51S57.69,108.37,58,107.92Z"/><path d="M101.25,101.54c-.35-.67-3.1,2.09-4.25,5.9-.31,1,2.17-1.82,3-2.17s2.88.53,2.93.31A28.64,28.64,0,0,0,101.25,101.54Z"/><path class="cls-3" d="M43.33,120H56.61c-3.3-2.19-9.49-7.27-9-9.76.53-2.83,11.35-8.33,14.89-8.68L62.38,89.8c-2.66.35-23.31,10.72-25.26,20.47C36.65,113.28,40,117.24,43.33,120Z"/><path d="M47.46,110.25c-.46,2.46,5.37,7.4,8.93,9.78h.45c-4-2.59-9.56-7.5-9.14-9.73.52-2.76,11.17-8.23,14.78-8.59a.14.14,0,0,0,.12-.14.12.12,0,0,0-.14-.11C58.79,101.83,48,107.43,47.46,110.25Z"/><path d="M43.14,120h.39c-4.44-3.75-6.66-7.32-6.29-9.73,1.94-9.7,22.73-20,25.16-20.38a.12.12,0,0,0,.11-.14.12.12,0,0,0-.14-.11c-1.46.2-7.36,3-12.95,6.74C44.33,99.83,38.05,105,37,110.25,36.61,112.73,38.79,116.31,43.14,120Z"/><path class="cls-5" d="M107,17.65c-.65-5.23-3.3-10.83-11.11-13A11.14,11.14,0,0,0,81.75,11.8c-1.45,4.26-1.65,16.12,7.83,21.8s13.3-.7,15.1-3.61A20.14,20.14,0,0,0,107,17.65Z"/><path class="cls-6" d="M94.12,24.38c-.52-2.68,3.63-9.3,7-10.15s4.43.8,5.5,3.42-.31,9.7-1.86,12.14S95.8,33.11,94.12,24.38Z"/><path class="cls-5" d="M34,31.92c-.8-6.53-3.78-14-13.65-15.34C9.91,15.18,2.44,26.93,1.51,31.9.47,37.41,1.36,51.24,21,54.61"/><path class="cls-6" d="M6.5,30.72c4.43-4.93,12.67-3.21,17.39.78s9.55,15.29,7.62,19.64c-2.45,5.53-14.83,3.68-20.08.09S.11,37.81,6.5,30.72Z"/><path class="cls-5" d="M52.81,8.56C67,3.49,79.14,9.17,91.37,17.34S114,39.15,115.83,43.4c2.58,5.86,5.19,15.42-.8,28.85-4.56,10.25-18,20.07-48,22.87-19.54,1.81-43.59-4.7-46-27.93C17.58,33.94,38.32,13.75,52.81,8.56Z"/><path class="cls-7" d="M49.93,27.49c2.22-3.71,3.72-5.86,7.8-6.21,5.48-.48,9.93,4.08,9.93,4.08"/><path class="cls-7" d="M83.43,23.76c.2-2.37.69-5.49,5-5.76,2.53-.15,5.85,2.73,6.58,4.39"/><path class="cls-6" d="M57.86,33.56c7.16-.65,19.28,5.18,20.21,15.95S76.74,67.46,65,68.39s-22.6-.8-23.53-12.5S46.16,34.62,57.86,33.56Z"/><path class="cls-6" d="M93.76,28c6.38-1.19,14.44,5,17.13,15.43,1.88,7.31,1,15.55-6.63,18.34-8.29,3.06-17.68,0-20.53-11C80.8,39.36,85.06,29.6,93.76,28Z"/><path class="cls-6" d="M28.08,60.41C33,58.7,38,60.17,50.23,65s24-1.1,31.43-1.1,16.89,3.06,21,8.51,5.18,9.18,5.18,9.18a44.26,44.26,0,0,1-19,11c-11.7,3.19-33,6.51-46.67.8S20.41,78.5,21.08,66.66A13,13,0,0,1,28.08,60.41Z"/><g class="cls-8"><path class="cls-9" d="M94.83,66c-3.55,1.06-14,7.53-26.07,6.8s-20.38-2.33-24.26-5-8-2-9.47,1.92S35.78,81.51,43,85s17.72,6.38,28.41,3.82S88.88,82,91.79,76.55,95.59,65.77,94.83,66Z"/><path class="cls-10" d="M84.9,67.13c3.67,1.64,9.34,6.86,9.33,11.05S70.93,99,54,91.79,25.75,81.36,28.25,71.9,31.93,58.1,43.52,61,82.92,66.25,84.9,67.13Z"/><path class="cls-11" d="M32.8,65.19c.93,3.89,12.41,11.62,25.14,12.3s24.13.82,31-3,9.75-5.8,10.8-8.82-5.27-9.26-5.27-9.26-24,10-31.69,8S38,55.57,34.92,53.43,31.8,61,32.8,65.19Z"/></g><path class="cls-1" d="M92.68,71.54c-3.56,1.06-11.89,2-23.92,1.26s-20.13-2.86-24.26-5c-4-2-8.18-.89-9.47,1.92-1.76,3.79.75,11.75,8,15.28s18.34,7.32,29,4.76,14.52-4.88,17.71-9.3C93.33,75.53,93.44,71.32,92.68,71.54Z"/><path class="cls-12" d="M82.9,62.23c2-.13,4.88-.71,5.41.36A2.52,2.52,0,0,1,86.18,66a20.29,20.29,0,0,1-5,.36c-1.6,0-3.92-.37-4.17-2.75C76.88,62,81.57,62.32,82.9,62.23Z"/><path class="cls-13" d="M57.29,39c4.59-1,11.7,1.77,14.36,7.71S72.8,58.15,70.23,60.9s-10.11,6.12-17.38,2-6.24-11.11-4.6-15.78C50,42,52.69,40,57.29,39Z"/><path class="cls-13" d="M94.34,33.25c3.67-1,9.15,1.28,11.14,7.22s.86,11.43-1.06,14.18-6.69,6.07-12.12,1.91-5.25-9-4.65-13.83S90.67,34.23,94.34,33.25Z"/><ellipse cx="66.5" cy="51.37" rx="3.9" ry="5.27"/><ellipse cx="99.74" cy="47.15" rx="3.63" ry="5.27" transform="translate(-4.64 11.42) rotate(-6.4)"/><path d="M77.81,31.92c1.07-.07,5.09-4.3,4.92-5.59S70.05,26.16,70,28,75.68,32.05,77.81,31.92Z"/><path d="M68.43,12.52C69.54,12.3,73,8.29,73,7.9s-6.31-1.8-9.87-1.67S55.6,7.33,55,8,64.94,13.18,68.43,12.52Z"/><path d="M95.19,13.41c.57.06.33-7.84-.73-9.24A17.11,17.11,0,0,0,90,4.31a13.63,13.63,0,0,0-4.59,2.22c-.16.1,4.22.24,6.52,2.63S94.23,13.31,95.19,13.41Z"/><path d="M75.18,50.31c.36.1,4.16-5.22,3.09-7.81s-3.49-.8-3.85,2S74,50,75.18,50.31Z"/><path d="M39.06,27.67c-.24.3,3.26,5.82,6.06,5.81s2.06-2.93-.39-4.32S39.8,26.72,39.06,27.67Z"/><path d="M84.32,49.91c-.37.1-4.16-5.22-3.09-7.81s3.49-.8,3.85,2S85.48,49.58,84.32,49.91Z"/><path d="M35.92,44.26c1,1.84,4.33,10,10.18,13.56,0,0-1.73,1.07-7.58-3.32S35.33,43.13,35.92,44.26Z"/><path d="M113.81,43.49c-.61,1.4-2.69,7.59-6.32,10.33,0,0,1.07.81,4.7-2.54S114.18,42.63,113.81,43.49Z"/><path d="M22.11,29.44c.16.46,3.92-.92,4.77-4.33s1-5.19.69-5.79S22.2,16.8,21,16.67c-.56-.2,2.63,3.13,2,7.55S21.84,28.71,22.11,29.44Z"/><path d="M20.93,66.66c4.42,5.22,10.81,9.71,12.93,10.41s-7.44,1.39-11.23-.77A19.87,19.87,0,0,1,20.93,66.66Z"/><path d="M116.17,69.14c-2.54,2.25-9.16,1.11-9.73,1.22s3.78,2.37,7.71,3.34C114.64,73.88,116.35,69,116.17,69.14Z"/><path d="M49.51,96.42c.13,1.12.54,4.81,2,6.13.38.48-3-1.22-4.07-4.38C47.27,97.58,49.51,96.42,49.51,96.42Z"/><path d="M41.46,103.21c.4,1.05,1.71,4.52,3.42,5.45.49.37-3.2-.44-5-3.24C39.57,104.89,41.46,103.21,41.46,103.21Z"/><path d="M40.39,117c1-.2,4.24-.87,5.14-2.15.35-.35-.49,2.55-3.12,3.7C41.9,118.74,40.39,117,40.39,117Z"/><path d="M50.63,115.11c-.31.78-1.17,3.79-2.53,4.59A9.34,9.34,0,0,0,52,116.54C52.17,116.13,50.63,115.11,50.63,115.11Z"/><path d="M51.16,106.62c-.72-.43-3.08-1.86-3.65-3.34-.24-.43.15,2.64,2,4.41C49.89,108,51.16,106.62,51.16,106.62Z"/><path d="M59.44,102.43c-.55-.64-2.35-2.74-2.42-4.32-.09-.49-.68,2.55.54,4.82C57.81,103.31,59.44,102.43,59.44,102.43Z"/><path class="cls-6" d="M120.48,50.48c.33.6-.92-5.31.84-10.06s7.83-5.17,7-5.63c-2.16-1.22-8.19,1-9.68,4.12C116.79,42.81,117.83,45.68,120.48,50.48Z"/><path class="cls-14" d="M121.9,77.61S119,86,127.59,88.47c0,0-10.5-4-13.26,1.87,0,0,.8-10.42-.89-11.22C113.44,79.12,120.47,79.3,121.9,77.61Z"/><path class="cls-14" d="M39.38,100.1s-6.63,5.09-6.79,7.09c0,0-6-8.79-8.64-9.25,0,0,6.79-1.24,7.56-3.86C31.51,94.08,32.44,98.55,39.38,100.1Z"/></g></g></svg>