<svg xmlns="http://www.w3.org/2000/svg" viewBox="0 0 125.11 120.02"><defs><style>.cls-1,.cls-6{fill:none;}.cls-2,.cls-3,.cls-9{fill:#ffb129;}.cls-2,.cls-5,.cls-6,.cls-7,.cls-8,.cls-9{stroke:#000;stroke-linecap:round;stroke-miterlimit:10;}.cls-2,.cls-5,.cls-8{stroke-width:0.25px;}.cls-4,.cls-5{fill:#fef5e4;}.cls-6,.cls-7{stroke-width:0.5px;}.cls-7{fill:#fff;}.cls-8{fill:#fea49c;}</style></defs><title>Mistake feedback_tigre</title><g id="Layer_2" data-name="Layer 2"><g id="Layer_1-2" data-name="Layer 1"><rect class="cls-1" width="125.11" height="120"/><path class="cls-2" d="M94.36,86.86c2.29-1.88,8.86-3,13,4.6s8.31,24.84,6.82,26.8-6.2.18-8.84-2.53S88.34,91.8,94.36,86.86Z"/><path class="cls-3" d="M107.79,120c-1.14-3.23-2.58-7-4-10.81C93.9,83.33,84.13,81.54,74.48,83.1c-16,2.6-15.9,17.71-15.9,35.43,0,.39.13,1.07.12,1.47Z"/><path d="M58.83,120c0-.4-.12-1.08-.12-1.47v-.3c0-17.4,0-32.44,15.79-35,8.76-1.42,19-.7,29.15,26,1.6,4.19,3,7.81,4,10.76h.27c-1.06-3-2.43-6.62-4.05-10.85C93.63,82.26,83.32,81.54,74.46,83c-16,2.6-16,17.73-16,35.25v.3c0,.39.12,1.07.12,1.47Z"/><path class="cls-4" d="M64.63,120h42.85c-1-3-2.26-6.46-3.49-9.91-9.31-26-17.94-28-26.39-26.67-14,2.2-13.55,17.23-13.13,34.87C64.49,118.76,64.62,119.52,64.63,120Z"/><path d="M64.35,118.29c0,.47.15,1.23.16,1.71h.25c0-.48-.15-1.25-.16-1.71V118c-.42-17.32-.78-32.28,13-34.45,7.67-1.2,16.64-.23,26.25,26.59,1.32,3.7,2.55,7.12,3.48,9.87h.26c-.93-2.77-2.17-6.22-3.5-10-9.68-27-18.77-28-26.53-26.75-14,2.2-13.66,17.26-13.24,34.7Z"/><path d="M58.63,112.89c.66-.83,3.74-1.71,8.29-.54s8.41,5,7.4,4.69-8.43-.9-9.88-1-5.54,1.54-5.95,1.54S58.27,113.34,58.63,112.89Z"/><path d="M102.59,106.4c-.35-.68-3.15,2.12-4.32,6-.32,1,2.2-1.85,3.06-2.21s2.93.54,3,.31A29.94,29.94,0,0,0,102.59,106.4Z"/><path class="cls-3" d="M50.78,120c-1.67-1.64-3-3.57-2.8-4.74.54-2.88,11.55-8.48,15.16-8.84l-.09-12c-2.71.36-23.72,10.91-25.71,20.83A7.38,7.38,0,0,0,38.87,120Z"/><path d="M47.86,115.26c-.2,1.06.82,2.86,2.74,4.76H51c-2-1.9-3-3.72-2.85-4.71.52-2.81,11.36-8.37,15-8.74a.12.12,0,0,0,.11-.14.11.11,0,0,0-.14-.11C59.39,106.69,48.4,112.39,47.86,115.26Z"/><path d="M39,120a7.32,7.32,0,0,1-1.56-4.71c2-9.87,23.13-20.41,25.6-20.74a.12.12,0,0,0,.11-.14.12.12,0,0,0-.14-.11c-1.48.2-7.49,3-13.18,6.86-5.17,3.47-11.56,8.74-12.63,14.08a7.39,7.39,0,0,0,1.5,4.76Z"/><path class="cls-2" d="M105,17c-1.13-5.24-4-10.7-12.12-12.24a11.35,11.35,0,0,0-13.65,8.53c-1.08,4.46-.23,16.49,9.88,21.41s13.14-2.26,14.71-5.37A19.26,19.26,0,0,0,105,17Z"/><path class="cls-5" d="M92.89,25c-.76-2.68,2.85-9.76,6.24-10.92s4.56.42,5.87,3,.55,9.87-.8,12.48S95.38,33.69,92.89,25Z"/><path class="cls-2" d="M32.6,38c-1.39-6.54-5.25-12.39-15.2-14.32S2.79,34.64,1.47,40.19s-.2,20.3,20,22"/><path class="cls-5" d="M4.65,39.23c4-5.39,12.56-4.39,17.7-.76s9.3,5.38,6.52,14.66S17.7,61.8,12.06,58.63-1.19,47,4.65,39.23Z"/><path class="cls-2" d="M49.61,12.64c13.92-6.41,26.74-1.74,39.87,5.45s24.85,20.09,27.12,24.23,6.63,15.17,1.77,29.32c-3.72,10.79-16.41,22-46.61,27.46-19.64,3.58-44.61-.87-49.12-24.19C16.16,41.5,35.38,19.19,49.61,12.64Z"/><path class="cls-6" d="M82,25.31c0-2.42.2-5.63,4.56-6.28,2.55-.39,6.17,2.24,7.06,3.86"/><path class="cls-5" d="M56.82,49a79.83,79.83,0,0,1,16.48-.07,5.15,5.15,0,0,1,1.42,3c1.59,7.3.19,13-11.61,14.71s-23,1.47-24.61-6.47C37.3,54.34,39.67,49,45.61,45.87,47.82,44.7,53.62,49.43,56.82,49Z"/><path class="cls-5" d="M92.85,28.66c6.36-1.78,15.08,3.75,18.74,14.1,2.56,7.25,2.35,15.69-5.08,19.19-8.13,3.84-17.92,1.58-21.8-9.35C80.73,41.36,84.18,31.09,92.85,28.66Z"/><path class="cls-7" d="M58.4,47.84c7.61.23,11.5.55,12.13,5.39.67,5.19-.81,6.86-4.1,8.12A31.74,31.74,0,0,1,46,60.81c-4.14-1.63-1.69-8,.46-11.19C48.82,46.18,54.86,47.73,58.4,47.84Z"/><path class="cls-7" d="M93.91,34c5-1.23,9.39.49,11.94,6.33s1.89,11.51.19,14.47-6.24,6.75-12.12,3-6.12-8.6-6-13.6S90.59,34.78,93.91,34Z"/><ellipse cx="66.41" cy="55.26" rx="3.97" ry="5.36" transform="matrix(1, -0.09, 0.09, 1, -4.59, 6.04)"/><ellipse cx="100.63" cy="47.56" rx="3.7" ry="5.36" transform="translate(-7.43 20.89) rotate(-11.43)"/><path d="M77,34.08c1.09-.16,4.78-4.81,4.49-6.1s-12.86.95-12.79,2.8S74.89,34.41,77,34.08Z"/><path d="M65.8,15.25c1.11-.31,4.2-4.68,4.17-5.08s-6.56-1.26-10.16-.81-7.48,1.78-8,2.48S62.32,16.24,65.8,15.25Z"/><path d="M93,13.77c.58,0-.36-8-1.57-9.3A17.47,17.47,0,0,0,87,5a13.88,13.88,0,0,0-4.45,2.67c-.16.12,4.29-.14,6.83,2.08S92,13.76,93,13.77Z"/><path d="M76,53c.38.07,3.75-5.66,2.44-8.2s-3.61-.49-3.73,2.37S74.8,52.72,76,53Z"/><path d="M37.37,33.23c-.21.33,3.83,5.61,6.67,5.36s1.82-3.16-.78-4.35S38.05,32.2,37.37,33.23Z"/><path d="M85.24,51.74c-.36.14-4.68-4.92-3.83-7.64s3.46-1.12,4.08,1.67S86.39,51.3,85.24,51.74Z"/><path d="M35.68,50.33C36.83,52.11,41,60.05,47.2,63.17c0,0-1.66,1.23-8-2.69S35,49.24,35.68,50.33Z"/><path d="M114.55,42.6c-.49,1.47-2,7.93-5.48,11,0,0,1.16.72,4.55-3S114.85,41.69,114.55,42.6Z"/><path d="M20,37.28c.22.45,4.37-3.24,4.78-5.55s.71-4.65.35-5.23-5.84-2.77-7-2.81c-.59-.15,2.94,2.94,2.72,7.47S19.7,36.56,20,37.28Z"/><path d="M50,101.19c.12,1.14.55,4.89,2,6.23.39.49-3.05-1.24-4.14-4.45C47.66,102.37,50,101.19,50,101.19Z"/><path d="M41.76,108.09c.4,1.08,1.74,4.61,3.47,5.55.5.38-3.25-.45-5.1-3.29C39.83,109.8,41.76,108.09,41.76,108.09Z"/><path d="M51.63,111.57c-.74-.44-3.14-1.9-3.72-3.4-.24-.44.16,2.68,2.06,4.48C50.34,113,51.63,111.57,51.63,111.57Z"/><path d="M60.05,107.3c-.56-.65-2.39-2.78-2.46-4.39-.09-.5-.69,2.59.55,4.9C58.4,108.2,60.05,107.3,60.05,107.3Z"/><path class="cls-5" d="M32,91.44c-2.85-2.73,22.31-24,50.05-24.06s29.33,10.36,29.94,14S92.36,96,79.88,98.19,45,104,32,91.44Z"/><path class="cls-8" d="M83.65,66.7c2,0,5-.5,5.48.61a2.56,2.56,0,0,1-2.31,3.41,21.21,21.21,0,0,1-5.07.14c-1.62-.07-4-.55-4.11-3C77.54,66.16,82.3,66.73,83.65,66.7Z"/><path class="cls-9" d="M43.16,44.93c6.49,5.82,11.84,5.63,15.42,5.69,5.63.08,15.58-2.1,15.58-2.1"/><path d="M117.23,74.26c-2.61,2.09-12.9,3.14-15.24,2.95-.38.34,8.1,3.14,12.85,1.3C115.47,78.32,117.48,74.06,117.23,74.26Z"/><path d="M22.62,75c5.31,4.51,16.66,7.62,18.91,8s-11.44,3-15.61,1.43A20.24,20.24,0,0,1,22.62,75Z"/><path class="cls-6" d="M78.69,87.77c.82-2,2.8-5.59,4.42-6s2.57,4.43,2.49,4.9"/><path d="M106.56,97.8c-.36-.68-3.16,2.11-4.33,6-.32,1,2.21-1.85,3.07-2.21s2.93.54,3,.32A28.65,28.65,0,0,0,106.56,97.8Z"/><path d="M102.29,88.71c-.36-.68-3.16,2.12-4.33,6-.32,1,2.21-1.85,3.07-2.21s2.93.54,3,.32A29.16,29.16,0,0,0,102.29,88.71Z"/><path class="cls-2" d="M112.88,119.39c4.05-.32,3.24-8.75,2.63-13.17-.51-3.76-2.34-8.43-1.39-8.76s3.71-3.43,3.8-8.75c0-2-3-7.22-11.72-6.86-6.5.27-9,7.17-8.3,10.19,1.44,6.14,6.76,6,6.76,6.86,0,2,.08,4.65.18,7.21.19,4.66,1.06,8.36,2.44,10.57C108.36,118.4,109.79,119.48,112.88,119.39Z"/><path d="M104.55,101.5c1,.51,4.43,2.14,6.34,1.63.62-.07-2.67,1.92-6,1.13C104.33,104.07,104.55,101.5,104.55,101.5Z"/><path d="M108.14,117.81c.84-.1,3.6-.44,4.33-1.36.29-.25-.32,1.91-2.54,2.65C109.51,119.2,108.14,117.81,108.14,117.81Z"/><path class="cls-5" d="M104.39,81.58A11.37,11.37,0,0,0,98.81,86c-1.33,2.33-1.28,6.32-1,5.14a12.87,12.87,0,0,1,1.7-4.55c1.25-1.79,3.68-4,9.23-3.87,5,.09,6.64,1.92,8.87,4.72a7,7,0,0,0-4-5.44A14.06,14.06,0,0,0,104.39,81.58Z"/><path d="M115.94,109.34c-.81.27-3.49,1.12-5,.57-.49-.11,2.12,1.64,4.73,1.39C116.13,111.22,115.94,109.34,115.94,109.34Z"/></g></g></svg>