<svg xmlns="http://www.w3.org/2000/svg" viewBox="0 0 44.32 46"><defs><style>.cls-1{fill:#1f8ebe;}</style></defs><title>Factorial (6)</title><g id="Capa_2" data-name="Capa 2"><g id="Numeracion"><g id="Factorial"><g id="Factorial-2" data-name="Factorial"><path class="cls-1" d="M.27,21.56c0-3.36-.07-6.11-.27-8.8H5.24l.33,5.37h.14A11.94,11.94,0,0,1,16.45,12c4.5,0,11.49,2.69,11.49,13.83V45.26H22V26.53c0-5.24-2-9.61-7.53-9.61a8.66,8.66,0,0,0-8.32,8.8V45.26H.27Z"/><path class="cls-1" d="M36.39,41.84a3.94,3.94,0,0,1,4-4.17,3.87,3.87,0,0,1,4,4.17,4,4,0,1,1-7.93,0Zm1.68-9.61L37.13,0h6.45l-.94,32.23Z"/></g></g></g></g></svg>