<svg xmlns="http://www.w3.org/2000/svg" viewBox="0 0 33 20"><defs><style>.cls-1{fill:#1f8ebe;}</style></defs><title>Menor Igual (6)</title><g id="Capa_2" data-name="Capa 2"><g id="Numeracion"><g id="Menor_Igual" data-name="Menor Igual"><g id="Menor_Igual-2" data-name="Menor Igual"><path class="cls-1" d="M32.18,16.59.38,8.76a.49.49,0,0,1,0-1L32.18,0a.5.5,0,0,1,.6.36l.2.78a.48.48,0,0,1-.36.59L7.84,7.82a.48.48,0,0,0,0,.94l24.78,6.11a.48.48,0,0,1,.36.59l-.2.78A.49.49,0,0,1,32.18,16.59Z"/><path class="cls-1" d="M32,20H.87A.86.86,0,0,1,0,19.15v-.08a.86.86,0,0,1,.87-.85H32a.85.85,0,0,1,.86.85v.08A.85.85,0,0,1,32,20Z"/></g></g></g></g></svg>