<svg xmlns="http://www.w3.org/2000/svg" viewBox="0 0 61.11 91.54"><defs><style>.e872b2e3-af4f-421c-9383-7a6d69dcf4d2{fill:none;}.a1c21499-b742-4386-a4d8-f6294c66547e{fill:#adadad;}.e24a4984-f9d7-4769-979d-dab6ed6580b4{fill:#f6413a;}.a95db7f1-8163-4884-aa3c-abdf1133d979{fill:#c51611;}.f929298e-bd6c-4d49-9f04-22fc7c86e819{fill:#ffb3b3;}</style></defs><title>C_6</title><g id="e83fc63b-059f-401f-b109-578f1ea588ce" data-name="Capa 2"><g id="ad6db91a-2809-41b2-b1b1-83cc1f8295ec" data-name="Objects"><rect class="e872b2e3-af4f-421c-9383-7a6d69dcf4d2" x="0.13" y="0.12" width="60.86" height="91.29" rx="2.4"/><path class="a1c21499-b742-4386-a4d8-f6294c66547e" d="M58.59,91.54H2.52A2.53,2.53,0,0,1,0,89V2.52A2.52,2.52,0,0,1,2.52,0H58.59a2.52,2.52,0,0,1,2.52,2.52V89A2.53,2.53,0,0,1,58.59,91.54ZM2.52.25A2.27,2.27,0,0,0,.25,2.52V89a2.28,2.28,0,0,0,2.27,2.28H58.59A2.28,2.28,0,0,0,60.86,89V2.52A2.27,2.27,0,0,0,58.59.25Z"/><path class="e24a4984-f9d7-4769-979d-dab6ed6580b4" d="M4.14,8.64a2.24,2.24,0,0,1-1-.2,1.89,1.89,0,0,1-.68-.53,2.33,2.33,0,0,1-.39-.77A2.83,2.83,0,0,1,2,6.27a4.35,4.35,0,0,1,.12-1,6.67,6.67,0,0,1,.35-1.07,5.71,5.71,0,0,1,.58-1,4.4,4.4,0,0,1,.81-.86,3.69,3.69,0,0,1,1-.61H5a.34.34,0,0,1,.2.06A.27.27,0,0,1,5.26,2a.28.28,0,0,1,0,.16A.34.34,0,0,1,5,2.29a3.54,3.54,0,0,0-.79.49,4.39,4.39,0,0,0-.72.71A5.45,5.45,0,0,0,3,4.37a4.29,4.29,0,0,0-.33,1l-.19.12a1.75,1.75,0,0,1,.43-.55,2.23,2.23,0,0,1,.63-.39,1.85,1.85,0,0,1,.74-.15A1.7,1.7,0,0,1,5,4.53,2.1,2.1,0,0,1,5.66,5a2.29,2.29,0,0,1,.55,1.5,2.1,2.1,0,0,1-.27,1,2.21,2.21,0,0,1-.74.78A1.9,1.9,0,0,1,4.14,8.64Zm0-.55a1.51,1.51,0,0,0,.78-.2,1.43,1.43,0,0,0,.54-.55,1.68,1.68,0,0,0,.19-.82,1.89,1.89,0,0,0-.16-.79,1.52,1.52,0,0,0-.5-.6,1.35,1.35,0,0,0-.8-.23,1.61,1.61,0,0,0-.87.23,1.54,1.54,0,0,0-.56.6,1.74,1.74,0,0,0-.2.82,1.55,1.55,0,0,0,.19.75,1.48,1.48,0,0,0,.54.57A1.56,1.56,0,0,0,4.12,8.09Z"/><path class="e24a4984-f9d7-4769-979d-dab6ed6580b4" d="M57.11,82.9a2.13,2.13,0,0,1,1,.2,1.86,1.86,0,0,1,.67.53,2.31,2.31,0,0,1,.4.76,2.91,2.91,0,0,1,.13.87,4.44,4.44,0,0,1-.12,1,5.71,5.71,0,0,1-.35,1.06,5.48,5.48,0,0,1-.57,1,4.7,4.7,0,0,1-.81.86,3.44,3.44,0,0,1-1,.6l-.13,0a.31.31,0,0,1-.2-.07.29.29,0,0,1,0-.39.36.36,0,0,1,.17-.11,3.29,3.29,0,0,0,.78-.48,4.9,4.9,0,0,0,.72-.72,4.45,4.45,0,0,0,.56-.87,3.58,3.58,0,0,0,.33-1l.2-.13a1.82,1.82,0,0,1-.44.56,2.07,2.07,0,0,1-.62.38,1.86,1.86,0,0,1-.75.15A1.73,1.73,0,0,1,56.2,87a2.07,2.07,0,0,1-.62-.49,2.15,2.15,0,0,1-.4-.69A2.22,2.22,0,0,1,55,85a2.15,2.15,0,0,1,1-1.82A1.94,1.94,0,0,1,57.11,82.9Zm0,.55a1.55,1.55,0,0,0-.78.19,1.43,1.43,0,0,0-.53.56,1.66,1.66,0,0,0-.2.82,1.93,1.93,0,0,0,.17.79,1.41,1.41,0,0,0,.49.59,1.34,1.34,0,0,0,.81.23,1.61,1.61,0,0,0,.87-.22A1.61,1.61,0,0,0,58.7,85a1.49,1.49,0,0,0-.19-.75,1.43,1.43,0,0,0-.54-.58A1.65,1.65,0,0,0,57.12,83.45Z"/><path class="e24a4984-f9d7-4769-979d-dab6ed6580b4" d="M4.64,8.88a.93.93,0,0,0-.82.52A.9.9,0,0,0,3,8.88c-.5,0-.9.59-.9,1.08,0,1.09,1.71,2,1.71,2s1.72-.92,1.72-2C5.54,9.47,5.14,8.88,4.64,8.88Z"/><path class="a95db7f1-8163-4884-aa3c-abdf1133d979" d="M3.82,12h0s-1.73-1-1.73-2c0-.49.41-1.1.92-1.1a.92.92,0,0,1,.81.5.94.94,0,0,1,.82-.5c.51,0,.92.61.92,1.1,0,1.08-1.71,2-1.73,2ZM3,8.9c-.49,0-.88.58-.88,1.06,0,1,1.56,1.92,1.69,2s1.7-1,1.7-2c0-.48-.39-1.06-.88-1.06a.89.89,0,0,0-.8.51h0A.89.89,0,0,0,3,8.9Z"/><path class="f929298e-bd6c-4d49-9f04-22fc7c86e819" d="M5.27,10.21h0a.1.1,0,0,1-.08-.1.75.75,0,0,0-.44-.91.09.09,0,0,1,0-.11A.08.08,0,0,1,4.79,9a1,1,0,0,1,.56,1.11A.08.08,0,0,1,5.27,10.21Z"/><path class="f929298e-bd6c-4d49-9f04-22fc7c86e819" d="M5.19,10.52h0a.09.09,0,0,1-.07-.11l0-.11a.07.07,0,0,1,.1-.06.08.08,0,0,1,.07.1l0,.11A.1.1,0,0,1,5.19,10.52Z"/><path class="e24a4984-f9d7-4769-979d-dab6ed6580b4" d="M56.47,82.65a.88.88,0,0,0,.81-.52.91.91,0,0,0,.82.52,1.08,1.08,0,0,0,.9-1.08c0-1.08-1.72-2-1.72-2s-1.71.93-1.71,2A1.07,1.07,0,0,0,56.47,82.65Z"/><path class="a95db7f1-8163-4884-aa3c-abdf1133d979" d="M57.28,79.55h0s1.73.94,1.73,2a1.1,1.1,0,0,1-.92,1.1.93.93,0,0,1-.82-.5.9.9,0,0,1-.81.5,1.1,1.1,0,0,1-.92-1.1c0-1.08,1.71-2,1.72-2Zm.82,3.08c.49,0,.88-.58.88-1.06,0-1-1.56-1.91-1.7-2s-1.69,1-1.69,2c0,.48.39,1.06.88,1.06a.89.89,0,0,0,.8-.51h0A.88.88,0,0,0,58.1,82.63Z"/><path class="f929298e-bd6c-4d49-9f04-22fc7c86e819" d="M55.84,81.32h0a.07.07,0,0,1,.07.09.78.78,0,0,0,.44.92.09.09,0,0,1,.06.11.09.09,0,0,1-.11,0,.94.94,0,0,1-.55-1.1A.08.08,0,0,1,55.84,81.32Z"/><path class="f929298e-bd6c-4d49-9f04-22fc7c86e819" d="M55.91,81h0a.09.09,0,0,1,.07.1l0,.12a.09.09,0,0,1-.1.06.09.09,0,0,1-.07-.1l0-.12A.08.08,0,0,1,55.91,81Z"/><path class="e24a4984-f9d7-4769-979d-dab6ed6580b4" d="M19.77,9.4a3.5,3.5,0,0,0-3.17,2,3.49,3.49,0,0,0-3.17-2c-1.94,0-3.51,2.28-3.51,4.21,0,4.22,6.68,7.82,6.68,7.82s6.68-3.6,6.68-7.82C23.28,11.68,21.71,9.4,19.77,9.4Z"/><path class="a95db7f1-8163-4884-aa3c-abdf1133d979" d="M16.6,21.51h0c-.07,0-6.72-3.68-6.72-7.89,0-1.94,1.6-4.28,3.58-4.28a3.57,3.57,0,0,1,3.17,1.94,3.58,3.58,0,0,1,3.17-1.94c2,0,3.58,2.34,3.58,4.28,0,4.21-6.65,7.85-6.71,7.89Zm-3.17-12c-1.9,0-3.44,2.27-3.44,4.14,0,4,6.1,7.46,6.61,7.74.52-.28,6.61-3.77,6.61-7.74,0-1.87-1.53-4.14-3.44-4.14a3.43,3.43,0,0,0-3.1,2,.1.1,0,0,1-.07,0h0a.07.07,0,0,1-.06,0A3.46,3.46,0,0,0,13.43,9.47Z"/><path class="f929298e-bd6c-4d49-9f04-22fc7c86e819" d="M22.23,14.58h-.05a.33.33,0,0,1-.28-.37c.39-2.87-1.63-3.55-1.72-3.58a.33.33,0,0,1,.2-.63s2.64.86,2.18,4.3A.34.34,0,0,1,22.23,14.58Z"/><path class="f929298e-bd6c-4d49-9f04-22fc7c86e819" d="M22,15.78h-.08a.34.34,0,0,1-.25-.4l.11-.45a.33.33,0,0,1,.4-.25.32.32,0,0,1,.24.4l-.1.45A.34.34,0,0,1,22,15.78Z"/><path class="e24a4984-f9d7-4769-979d-dab6ed6580b4" d="M47.68,9.4a3.48,3.48,0,0,0-3.17,2,3.5,3.5,0,0,0-3.18-2c-1.93,0-3.5,2.28-3.5,4.21,0,4.22,6.68,7.82,6.68,7.82s6.68-3.6,6.68-7.82C51.19,11.68,49.61,9.4,47.68,9.4Z"/><path class="a95db7f1-8163-4884-aa3c-abdf1133d979" d="M44.51,21.51h0c-.07,0-6.72-3.68-6.72-7.89,0-1.94,1.6-4.28,3.58-4.28a3.6,3.6,0,0,1,3.18,1.94,3.57,3.57,0,0,1,3.17-1.94c2,0,3.58,2.34,3.58,4.28,0,4.21-6.65,7.85-6.72,7.89Zm-3.18-12c-1.9,0-3.43,2.27-3.43,4.14,0,4,6.09,7.46,6.61,7.74.51-.28,6.6-3.77,6.6-7.74,0-1.87-1.53-4.14-3.43-4.14a3.45,3.45,0,0,0-3.11,2,.08.08,0,0,1-.06,0h0a.08.08,0,0,1-.07,0A3.44,3.44,0,0,0,41.33,9.47Z"/><path class="f929298e-bd6c-4d49-9f04-22fc7c86e819" d="M50.13,14.58h0a.34.34,0,0,1-.29-.37c.39-2.87-1.63-3.55-1.71-3.58a.33.33,0,1,1,.2-.63s2.64.86,2.17,4.3A.33.33,0,0,1,50.13,14.58Z"/><path class="f929298e-bd6c-4d49-9f04-22fc7c86e819" d="M49.85,15.78h-.08a.32.32,0,0,1-.24-.4l.1-.45a.33.33,0,1,1,.65.15l-.11.45A.33.33,0,0,1,49.85,15.78Z"/><path class="e24a4984-f9d7-4769-979d-dab6ed6580b4" d="M19.77,37.67a3.52,3.52,0,0,0-3.17,2,3.51,3.51,0,0,0-3.17-2c-1.94,0-3.51,2.28-3.51,4.21,0,4.22,6.68,7.83,6.68,7.83s6.68-3.61,6.68-7.83C23.28,40,21.71,37.67,19.77,37.67Z"/><path class="a95db7f1-8163-4884-aa3c-abdf1133d979" d="M16.6,49.78h0c-.07,0-6.72-3.68-6.72-7.89,0-1.94,1.6-4.28,3.58-4.28a3.59,3.59,0,0,1,3.17,1.94,3.6,3.6,0,0,1,3.17-1.94c2,0,3.58,2.34,3.58,4.28,0,4.21-6.65,7.85-6.71,7.89Zm-3.17-12C11.53,37.74,10,40,10,41.88c0,4,6.1,7.46,6.61,7.75.52-.29,6.61-3.78,6.61-7.75,0-1.87-1.53-4.14-3.44-4.14a3.43,3.43,0,0,0-3.1,2,.08.08,0,0,1-.07,0h0a.05.05,0,0,1-.06,0A3.46,3.46,0,0,0,13.43,37.74Z"/><path class="f929298e-bd6c-4d49-9f04-22fc7c86e819" d="M22.23,42.85h-.05a.34.34,0,0,1-.28-.38c.39-2.86-1.63-3.55-1.72-3.58a.32.32,0,0,1-.21-.41.33.33,0,0,1,.41-.22s2.64.87,2.18,4.3A.34.34,0,0,1,22.23,42.85Z"/><path class="f929298e-bd6c-4d49-9f04-22fc7c86e819" d="M22,44.05h-.08a.33.33,0,0,1-.25-.4l.11-.45a.32.32,0,0,1,.4-.24.31.31,0,0,1,.24.39l-.1.45A.33.33,0,0,1,22,44.05Z"/><path class="e24a4984-f9d7-4769-979d-dab6ed6580b4" d="M47.68,37.67a3.5,3.5,0,0,0-3.17,2,3.52,3.52,0,0,0-3.18-2c-1.93,0-3.5,2.28-3.5,4.21,0,4.22,6.68,7.83,6.68,7.83s6.68-3.61,6.68-7.83C51.19,40,49.61,37.67,47.68,37.67Z"/><path class="a95db7f1-8163-4884-aa3c-abdf1133d979" d="M44.51,49.78h0c-.07,0-6.72-3.68-6.72-7.89,0-1.94,1.6-4.28,3.58-4.28a3.62,3.62,0,0,1,3.18,1.94,3.59,3.59,0,0,1,3.17-1.94c2,0,3.58,2.34,3.58,4.28,0,4.21-6.65,7.85-6.72,7.89Zm-3.18-12c-1.9,0-3.43,2.27-3.43,4.14,0,4,6.09,7.46,6.61,7.75.51-.29,6.6-3.78,6.6-7.75,0-1.87-1.53-4.14-3.43-4.14a3.45,3.45,0,0,0-3.11,2,.06.06,0,0,1-.06,0h0a.07.07,0,0,1-.07,0A3.44,3.44,0,0,0,41.33,37.74Z"/><path class="f929298e-bd6c-4d49-9f04-22fc7c86e819" d="M50.13,42.85h0a.35.35,0,0,1-.29-.38c.39-2.86-1.63-3.55-1.71-3.58a.33.33,0,0,1-.22-.41.34.34,0,0,1,.42-.22s2.64.87,2.17,4.3A.33.33,0,0,1,50.13,42.85Z"/><path class="f929298e-bd6c-4d49-9f04-22fc7c86e819" d="M49.85,44.05h-.08a.32.32,0,0,1-.24-.4l.1-.45A.32.32,0,0,1,50,43a.33.33,0,0,1,.25.39l-.11.45A.32.32,0,0,1,49.85,44.05Z"/><path class="e24a4984-f9d7-4769-979d-dab6ed6580b4" d="M19.77,70.1a3.5,3.5,0,0,0-3.17,2,3.49,3.49,0,0,0-3.17-2c-1.94,0-3.51,2.28-3.51,4.21,0,4.22,6.68,7.83,6.68,7.83s6.68-3.61,6.68-7.83C23.28,72.38,21.71,70.1,19.77,70.1Z"/><path class="a95db7f1-8163-4884-aa3c-abdf1133d979" d="M16.6,82.21h0c-.07,0-6.72-3.68-6.72-7.89,0-1.94,1.6-4.28,3.58-4.28A3.57,3.57,0,0,1,16.6,72,3.58,3.58,0,0,1,19.77,70c2,0,3.58,2.34,3.58,4.28,0,4.21-6.65,7.85-6.71,7.89Zm-3.17-12c-1.9,0-3.44,2.27-3.44,4.14,0,4,6.1,7.46,6.61,7.74.52-.28,6.61-3.77,6.61-7.74,0-1.87-1.53-4.14-3.44-4.14a3.43,3.43,0,0,0-3.1,2,.1.1,0,0,1-.07,0h0a.07.07,0,0,1-.06,0A3.46,3.46,0,0,0,13.43,70.17Z"/><path class="f929298e-bd6c-4d49-9f04-22fc7c86e819" d="M22.23,75.28h-.05a.33.33,0,0,1-.28-.37c.39-2.86-1.63-3.55-1.72-3.58a.32.32,0,0,1-.21-.41.33.33,0,0,1,.41-.22s2.64.87,2.18,4.3A.34.34,0,0,1,22.23,75.28Z"/><path class="f929298e-bd6c-4d49-9f04-22fc7c86e819" d="M22,76.48h-.08a.33.33,0,0,1-.25-.4l.11-.45a.33.33,0,0,1,.4-.25.32.32,0,0,1,.24.4l-.1.45A.34.34,0,0,1,22,76.48Z"/><path class="e24a4984-f9d7-4769-979d-dab6ed6580b4" d="M47.68,70.1a3.48,3.48,0,0,0-3.17,2,3.5,3.5,0,0,0-3.18-2c-1.93,0-3.5,2.28-3.5,4.21,0,4.22,6.68,7.83,6.68,7.83s6.68-3.61,6.68-7.83C51.19,72.38,49.61,70.1,47.68,70.1Z"/><path class="a95db7f1-8163-4884-aa3c-abdf1133d979" d="M44.51,82.21h0c-.07,0-6.72-3.68-6.72-7.89,0-1.94,1.6-4.28,3.58-4.28A3.6,3.6,0,0,1,44.51,72,3.57,3.57,0,0,1,47.68,70c2,0,3.58,2.34,3.58,4.28,0,4.21-6.65,7.85-6.72,7.89Zm-3.18-12c-1.9,0-3.43,2.27-3.43,4.14,0,4,6.09,7.46,6.61,7.74.51-.28,6.6-3.77,6.6-7.74,0-1.87-1.53-4.14-3.43-4.14a3.45,3.45,0,0,0-3.11,2,.08.08,0,0,1-.06,0h0a.08.08,0,0,1-.07,0A3.44,3.44,0,0,0,41.33,70.17Z"/><path class="f929298e-bd6c-4d49-9f04-22fc7c86e819" d="M50.13,75.28h0a.34.34,0,0,1-.29-.37c.39-2.86-1.63-3.55-1.71-3.58a.33.33,0,0,1-.22-.41.34.34,0,0,1,.42-.22s2.64.87,2.17,4.3A.33.33,0,0,1,50.13,75.28Z"/><path class="f929298e-bd6c-4d49-9f04-22fc7c86e819" d="M49.85,76.48h-.08a.32.32,0,0,1-.24-.4l.1-.45a.33.33,0,1,1,.65.15l-.11.45A.33.33,0,0,1,49.85,76.48Z"/></g></g></svg>