<svg xmlns="http://www.w3.org/2000/svg" viewBox="0 0 40.65 45.28"><defs><style>.baac2fb2-7d52-4cff-bbb1-01985babe824{fill:#b2e675;stroke-width:0.44px;}.baac2fb2-7d52-4cff-bbb1-01985babe824,.e85e44eb-6496-4ef3-997e-4073d0c86aff{stroke:#529b00;}.aa9f3bf5-f7b3-40e1-9456-6e61fcb7e5c6,.ab5d1685-4d65-41b2-a59f-e77759d94e00,.b7700943-b767-4487-820c-9e99e50a5e86,.baac2fb2-7d52-4cff-bbb1-01985babe824,.e85e44eb-6496-4ef3-997e-4073d0c86aff{stroke-miterlimit:10;}.aa9f3bf5-f7b3-40e1-9456-6e61fcb7e5c6,.b7700943-b767-4487-820c-9e99e50a5e86,.e85e44eb-6496-4ef3-997e-4073d0c86aff{fill:none;stroke-linecap:round;}.e85e44eb-6496-4ef3-997e-4073d0c86aff{stroke-width:0.44px;}.ab5d1685-4d65-41b2-a59f-e77759d94e00{fill:#f6413a;stroke-width:0.51px;}.ab5d1685-4d65-41b2-a59f-e77759d94e00,.b7700943-b767-4487-820c-9e99e50a5e86{stroke:#c51611;}.a2a9e877-94e4-4bdd-85f2-d93cb7cc96aa{fill:#a75d29;}.aa9f3bf5-f7b3-40e1-9456-6e61fcb7e5c6{stroke:#ffb3b3;stroke-width:2.46px;}.a05690bb-3fcb-4dc0-86f0-4ebcc0ae8126{fill:#313d40;}.b7700943-b767-4487-820c-9e99e50a5e86{stroke-width:0.51px;}</style></defs><title>manzana</title><g id="ac9acc5a-f52b-443c-8b64-ac041a64feb8" data-name="Capa 2"><g id="ac550007-1a6d-4089-82b9-36266d4e4292" data-name="Objects"><path class="baac2fb2-7d52-4cff-bbb1-01985babe824" d="M22.14,4.71a6.63,6.63,0,0,0-5.21-4L13.16.23A1,1,0,0,0,12.09,1,6.67,6.67,0,0,0,17.8,8.52l3.76.5a.94.94,0,0,0,1.07-.81A6.45,6.45,0,0,0,22.14,4.71Z"/><path class="e85e44eb-6496-4ef3-997e-4073d0c86aff" d="M15,2.67s4.88.9,7,4.48"/><path class="ab5d1685-4d65-41b2-a59f-e77759d94e00" d="M39.62,18.27a10.63,10.63,0,0,0-7.85-7.69c-3.67-.93-7.56-.05-9.7,2.2a2.4,2.4,0,0,1-1.74.72,2.37,2.37,0,0,1-1.74-.72,9.83,9.83,0,0,0-9.51-2.41,10.83,10.83,0,0,0-8,7.58A25.6,25.6,0,0,0,.66,29.12C2.19,37.91,7.55,45,13.09,45a6.47,6.47,0,0,0,3.14-.81,8.6,8.6,0,0,1,8.2,0,6.43,6.43,0,0,0,3.13.81c5.55,0,10.9-7.12,12.43-15.91A25.94,25.94,0,0,0,39.62,18.27Z"/><path class="a2a9e877-94e4-4bdd-85f2-d93cb7cc96aa" d="M32.38,3.32A1.33,1.33,0,0,1,31,4.66,9.38,9.38,0,0,0,21.67,14v.83c0,.75-.6.67-1.35.67S19,15.62,19,14.87V14A12.07,12.07,0,0,1,31,2,1.33,1.33,0,0,1,32.38,3.32Z"/><path class="aa9f3bf5-f7b3-40e1-9456-6e61fcb7e5c6" d="M12,13.19a7.73,7.73,0,0,0-8.19,6.75"/><line class="aa9f3bf5-f7b3-40e1-9456-6e61fcb7e5c6" x1="3.29" y1="22.73" x2="3.17" y2="23.94"/><path class="a05690bb-3fcb-4dc0-86f0-4ebcc0ae8126" d="M13.91,25.33a.75.75,0,0,0-.76.75v1a.76.76,0,1,0,1.51,0v-1A.75.75,0,0,0,13.91,25.33Z"/><path class="a05690bb-3fcb-4dc0-86f0-4ebcc0ae8126" d="M26.74,25.33a.75.75,0,0,0-.75.75v1a.75.75,0,1,0,1.5,0v-1A.74.74,0,0,0,26.74,25.33Z"/><path class="a05690bb-3fcb-4dc0-86f0-4ebcc0ae8126" d="M20.63,33.72a5.79,5.79,0,0,1-3.48-1.33.62.62,0,1,1,.75-1c1.9,1.43,3.59,1.43,5.32,0a.62.62,0,1,1,.78,1A5.31,5.31,0,0,1,20.63,33.72Z"/><path class="b7700943-b767-4487-820c-9e99e50a5e86" d="M18.85,15.12s1.76,1.22,2.92,0"/></g></g></svg>