<svg xmlns="http://www.w3.org/2000/svg" viewBox="0 0 61.11 91.54"><defs><style>.beb2879e-6a5f-46b9-8346-63d473f2a234{fill:none;}.b20f6bc0-9c0b-4f86-b04c-be4b18e32067{fill:#adadad;}.b0d4fb97-a0a8-4e36-837a-f145aac27f02{fill:#363026;}.bd02cd07-1167-480c-8272-be93bbb10202{fill:#716b61;}.b6f7618a-3e5f-4a72-8e59-3ccbd57fd9c8{fill:#453f31;}.b189d2c2-826b-4ecc-a521-3d8c84a88578{fill:#aaa194;}</style></defs><title>P_10</title><g id="ae644f7c-52c2-4184-a8f1-8cc0edafb147" data-name="Capa 2"><g id="b315ddb7-4f3e-457c-8153-2070e3bda44a" data-name="Objects"><rect class="beb2879e-6a5f-46b9-8346-63d473f2a234" x="0.13" y="0.12" width="60.86" height="91.29" rx="2.4"/><path class="b20f6bc0-9c0b-4f86-b04c-be4b18e32067" d="M58.59,91.54H2.52A2.53,2.53,0,0,1,0,89V2.52A2.52,2.52,0,0,1,2.52,0H58.59a2.52,2.52,0,0,1,2.52,2.52V89A2.53,2.53,0,0,1,58.59,91.54ZM2.52.25A2.27,2.27,0,0,0,.25,2.52V89a2.28,2.28,0,0,0,2.27,2.28H58.59A2.28,2.28,0,0,0,60.86,89V2.52A2.27,2.27,0,0,0,58.59.25Z"/><path class="b0d4fb97-a0a8-4e36-837a-f145aac27f02" d="M3.4,8.54a.28.28,0,0,1-.21-.08.3.3,0,0,1-.08-.2V2.57l.1.09-1.28.77a.33.33,0,0,1-.14,0,.28.28,0,0,1-.21-.1.32.32,0,0,1-.09-.21.27.27,0,0,1,.15-.23l1.6-1a.34.34,0,0,1,.23,0A.28.28,0,0,1,3.64,2a.29.29,0,0,1,.07.2V8.26a.27.27,0,0,1-.09.2A.29.29,0,0,1,3.4,8.54Z"/><path class="b0d4fb97-a0a8-4e36-837a-f145aac27f02" d="M7.4,8.64a1.82,1.82,0,0,1-1.27-.46A2.74,2.74,0,0,1,5.37,7a5.47,5.47,0,0,1-.26-1.73A5.47,5.47,0,0,1,5.37,3.5a2.74,2.74,0,0,1,.76-1.22A1.86,1.86,0,0,1,7.4,1.83a1.85,1.85,0,0,1,1.28.45A2.74,2.74,0,0,1,9.44,3.5,5.47,5.47,0,0,1,9.7,5.23,5.47,5.47,0,0,1,9.44,7a2.74,2.74,0,0,1-.76,1.22A1.81,1.81,0,0,1,7.4,8.64Zm0-.59a1.28,1.28,0,0,0,.93-.35,2.16,2.16,0,0,0,.57-1,5,5,0,0,0,.19-1.48A5.18,5.18,0,0,0,8.9,3.74a2.18,2.18,0,0,0-.57-1,1.28,1.28,0,0,0-.93-.35,1.26,1.26,0,0,0-.92.35,2.18,2.18,0,0,0-.57,1,5.18,5.18,0,0,0-.19,1.49,5,5,0,0,0,.19,1.48,2.16,2.16,0,0,0,.57,1A1.26,1.26,0,0,0,7.4,8.05Z"/><path class="b0d4fb97-a0a8-4e36-837a-f145aac27f02" d="M57.84,83a.26.26,0,0,1,.21.09.25.25,0,0,1,.09.2V89l-.11-.1,1.29-.76a.2.2,0,0,1,.13,0,.27.27,0,0,1,.22.1.29.29,0,0,1,.08.2.27.27,0,0,1-.15.24l-1.6,1a.31.31,0,0,1-.22,0,.26.26,0,0,1-.18-.09.32.32,0,0,1-.07-.19v-6a.25.25,0,0,1,.09-.2A.31.31,0,0,1,57.84,83Z"/><path class="b0d4fb97-a0a8-4e36-837a-f145aac27f02" d="M53.84,82.9a1.84,1.84,0,0,1,1.27.45,2.73,2.73,0,0,1,.77,1.23,5.45,5.45,0,0,1,.25,1.72A5.54,5.54,0,0,1,55.88,88a2.75,2.75,0,0,1-.77,1.22,1.84,1.84,0,0,1-1.27.45,1.87,1.87,0,0,1-1.28-.45A2.83,2.83,0,0,1,51.8,88a5.54,5.54,0,0,1-.25-1.74,5.45,5.45,0,0,1,.25-1.72,2.81,2.81,0,0,1,.76-1.23A1.87,1.87,0,0,1,53.84,82.9Zm0,.58a1.33,1.33,0,0,0-.93.35,2.26,2.26,0,0,0-.56,1,5.61,5.61,0,0,0,0,3,2.15,2.15,0,0,0,.56,1,1.41,1.41,0,0,0,1.86,0,2.07,2.07,0,0,0,.56-1,5.61,5.61,0,0,0,0-3,2.17,2.17,0,0,0-.56-1A1.33,1.33,0,0,0,53.84,83.48Z"/><path class="bd02cd07-1167-480c-8272-be93bbb10202" d="M6.32,9.86a8,8,0,0,0-.82-.77l-.38-.32a.19.19,0,0,0-.13,0,.24.24,0,0,0-.13,0l-.37.32a7.25,7.25,0,0,0-.83.77,1.28,1.28,0,0,0-.33.81,1,1,0,0,0,.27.71.86.86,0,0,0,.66.29.82.82,0,0,0,.52-.18l0,0-.2.57a.08.08,0,0,0,.08.11h.55A.08.08,0,0,0,5.34,12l-.19-.58,0,.05a.84.84,0,0,0,.52.18.88.88,0,0,0,.67-.29,1,1,0,0,0,.26-.71A1.23,1.23,0,0,0,6.32,9.86Z"/><path class="b6f7618a-3e5f-4a72-8e59-3ccbd57fd9c8" d="M5.26,12.15H4.71a.1.1,0,0,1-.09,0,.11.11,0,0,1,0-.1l.18-.5a.87.87,0,0,1-.53.18.93.93,0,0,1-.68-.3,1,1,0,0,1-.26-.72,1.25,1.25,0,0,1,.33-.82,6.84,6.84,0,0,1,.81-.76l0,0,.37-.32a.21.21,0,0,1,.28,0l.37.32h0a7.19,7.19,0,0,1,.83.77h0a1.31,1.31,0,0,1,.33.82,1,1,0,0,1-.27.72.9.9,0,0,1-.68.3.82.82,0,0,1-.53-.19h0l.17.51a.12.12,0,0,1,0,.1A.09.09,0,0,1,5.26,12.15Zm-.43-.72h0a0,0,0,0,1,0,0l-.2.57a.13.13,0,0,0,0,.06.06.06,0,0,0,.06,0h.55a.05.05,0,0,0,0,0,0,0,0,0,0,0-.06l-.19-.58s0,0,0,0h0l.06,0a.79.79,0,0,0,.5.18.85.85,0,0,0,.65-.28,1,1,0,0,0,.26-.7,1.2,1.2,0,0,0-.32-.79h0a6.26,6.26,0,0,0-.82-.77h0l-.37-.32a.17.17,0,0,0-.23,0l-.37.32,0,0a6.67,6.67,0,0,0-.8.76,1.22,1.22,0,0,0-.33.79,1,1,0,0,0,.26.7.88.88,0,0,0,.65.28.79.79,0,0,0,.51-.18l0,0h0Z"/><path class="b189d2c2-826b-4ecc-a521-3d8c84a88578" d="M5.66,9.65l0,0L5,9.11A.08.08,0,0,1,5,9a.09.09,0,0,1,.12,0l.63.52a.09.09,0,0,1-.06.15Z"/><path class="b189d2c2-826b-4ecc-a521-3d8c84a88578" d="M6.07,10A.07.07,0,0,1,6,10l-.22-.18a.09.09,0,0,1,.11-.13l.22.18a.08.08,0,0,1,0,.12Z"/><path class="bd02cd07-1167-480c-8272-be93bbb10202" d="M55.1,81.67a6.45,6.45,0,0,0,.83.77l.37.33a.24.24,0,0,0,.13,0,.19.19,0,0,0,.13,0l.38-.33a7,7,0,0,0,.82-.77,1.21,1.21,0,0,0,.33-.81,1,1,0,0,0-.26-.7.88.88,0,0,0-.67-.29.84.84,0,0,0-.52.18l0,0,.2-.56a.09.09,0,0,0-.08-.12h-.55a.09.09,0,0,0-.09.11l.2.58-.06,0a.82.82,0,0,0-.52-.18.86.86,0,0,0-.66.29,1,1,0,0,0-.27.7A1.26,1.26,0,0,0,55.1,81.67Z"/><path class="b6f7618a-3e5f-4a72-8e59-3ccbd57fd9c8" d="M56.17,79.38h.55a.1.1,0,0,1,.08.05.1.1,0,0,1,0,.09l-.18.5a.92.92,0,0,1,1.2.12,1,1,0,0,1,.27.72,1.27,1.27,0,0,1-.33.82,6.84,6.84,0,0,1-.81.76l0,0-.37.31a.21.21,0,0,1-.28,0c-.13-.11-.25-.22-.37-.31h0a7,7,0,0,1-.82-.78h0a1.22,1.22,0,0,1-.33-.82,1.08,1.08,0,0,1,.26-.72.92.92,0,0,1,.68-.29.83.83,0,0,1,.53.18h0l-.17-.52a.09.09,0,0,1,0-.09A.11.11,0,0,1,56.17,79.38Zm.43.72h0a0,0,0,0,1,0,0l.2-.57a0,0,0,0,0,0-.06.05.05,0,0,0-.05,0h-.55a.07.07,0,0,0-.06,0,.13.13,0,0,0,0,.06l.2.58v0h0l-.06,0a.79.79,0,0,0-.51-.18.89.89,0,0,0-.65.29,1,1,0,0,0-.26.69,1.24,1.24,0,0,0,.33.8h0a7,7,0,0,0,.82.77h0l.37.32a.2.2,0,0,0,.23,0l.37-.32,0,0a6.84,6.84,0,0,0,.81-.76,1.22,1.22,0,0,0,.32-.8,1,1,0,0,0-.26-.69.86.86,0,0,0-.65-.29.84.84,0,0,0-.51.18l0,0,0,0Z"/><path class="b189d2c2-826b-4ecc-a521-3d8c84a88578" d="M55.76,81.89s0,0,.05,0l.64.51a.09.09,0,0,1,0,.12.08.08,0,0,1-.12,0L55.71,82a.08.08,0,0,1,0-.12A.07.07,0,0,1,55.76,81.89Z"/><path class="b189d2c2-826b-4ecc-a521-3d8c84a88578" d="M55.36,81.52l0,0,.23.19a.09.09,0,0,1,0,.12.09.09,0,0,1-.12,0l-.22-.19a.08.08,0,0,1,0-.12A.07.07,0,0,1,55.36,81.52Z"/><path class="bd02cd07-1167-480c-8272-be93bbb10202" d="M49.56,13.54a27.1,27.1,0,0,0-3.13-2.93C46,10.24,45.5,9.82,45,9.37a.74.74,0,0,0-1,0c-.51.45-1,.87-1.44,1.24a27.1,27.1,0,0,0-3.13,2.93,4.72,4.72,0,0,0-1.25,3.07,4,4,0,0,0,1,2.69,3.4,3.4,0,0,0,2.52,1.1,3.17,3.17,0,0,0,2-.68l.17-.14-.76,2.15a.33.33,0,0,0,.31.44h2.1a.33.33,0,0,0,.31-.43l-.74-2.2.22.18a3.17,3.17,0,0,0,2,.68,3.4,3.4,0,0,0,2.52-1.1,4,4,0,0,0,1-2.69A4.72,4.72,0,0,0,49.56,13.54Z"/><path class="b6f7618a-3e5f-4a72-8e59-3ccbd57fd9c8" d="M45.52,22.24h-2.1a.4.4,0,0,1-.33-.17.42.42,0,0,1-.05-.36l.68-1.91a3.32,3.32,0,0,1-2,.67,3.47,3.47,0,0,1-2.57-1.12,4,4,0,0,1-1-2.74A4.77,4.77,0,0,1,39.4,13.5a26.25,26.25,0,0,1,3.13-2.94c.39-.33.92-.78,1.44-1.24a.83.83,0,0,1,1.07,0l1.43,1.23a25.7,25.7,0,0,1,3.14,2.95h0a4.72,4.72,0,0,1,1.27,3.11,4,4,0,0,1-1,2.74,3.47,3.47,0,0,1-2.57,1.12,3.21,3.21,0,0,1-2-.7h0l.66,1.95a.41.41,0,0,1-.38.53Zm-1.65-2.73h0a.07.07,0,0,1,0,.08l-.76,2.15a.26.26,0,0,0,0,.24.26.26,0,0,0,.21.11h2.1a.23.23,0,0,0,.2-.11.24.24,0,0,0,0-.23L45,19.56a.07.07,0,0,1,0-.08.05.05,0,0,1,.08,0l.21.17a3.11,3.11,0,0,0,1.94.67,3.27,3.27,0,0,0,2.46-1.08,3.81,3.81,0,0,0,1-2.64,4.6,4.6,0,0,0-1.23-3h0a25.92,25.92,0,0,0-3.11-2.92L44.94,9.43a.67.67,0,0,0-.88,0c-.52.46-1.05.9-1.43,1.23a26.12,26.12,0,0,0-3.12,2.93,4.6,4.6,0,0,0-1.23,3,3.81,3.81,0,0,0,1,2.64,3.29,3.29,0,0,0,2.46,1.08,3.11,3.11,0,0,0,1.94-.67l.16-.13A.06.06,0,0,1,43.87,19.51Z"/><path class="b189d2c2-826b-4ecc-a521-3d8c84a88578" d="M47.06,12.72a.29.29,0,0,1-.2-.07l-2.41-2a.33.33,0,0,1,0-.45.32.32,0,0,1,.45-.05l2.4,2a.32.32,0,0,1,.05.45A.33.33,0,0,1,47.06,12.72Z"/><path class="b189d2c2-826b-4ecc-a521-3d8c84a88578" d="M48.58,14.11a.34.34,0,0,1-.21-.08l-.84-.71a.32.32,0,0,1,0-.45.33.33,0,0,1,.45,0l.85.71a.32.32,0,0,1,0,.45A.3.3,0,0,1,48.58,14.11Z"/><path class="bd02cd07-1167-480c-8272-be93bbb10202" d="M21.65,13.54a26.3,26.3,0,0,0-3.13-2.93L17.09,9.37a.76.76,0,0,0-1,0l-1.43,1.24a26.3,26.3,0,0,0-3.13,2.93,4.72,4.72,0,0,0-1.25,3.07,4,4,0,0,0,1,2.69,3.38,3.38,0,0,0,2.52,1.1,3.19,3.19,0,0,0,2-.68l.17-.14-.76,2.15a.33.33,0,0,0,.31.44h2.09a.32.32,0,0,0,.31-.43l-.73-2.2.21.18a3.19,3.19,0,0,0,2,.68,3.37,3.37,0,0,0,2.52-1.1,3.91,3.91,0,0,0,1-2.69A4.67,4.67,0,0,0,21.65,13.54Z"/><path class="b6f7618a-3e5f-4a72-8e59-3ccbd57fd9c8" d="M17.61,22.24H15.52a.4.4,0,0,1-.33-.17.39.39,0,0,1,0-.36l.67-1.91a3.27,3.27,0,0,1-2,.67,3.46,3.46,0,0,1-2.57-1.12,4,4,0,0,1-1-2.74A4.72,4.72,0,0,1,11.5,13.5a25.5,25.5,0,0,1,3.13-2.94l1.44-1.24a.83.83,0,0,1,1.07,0l1.43,1.23a26.46,26.46,0,0,1,3.14,2.95h0A4.76,4.76,0,0,1,23,16.61a4,4,0,0,1-1,2.74,3.48,3.48,0,0,1-2.58,1.12,3.2,3.2,0,0,1-2-.7h0L18,21.71a.41.41,0,0,1,0,.36A.4.4,0,0,1,17.61,22.24ZM16,19.51h0a.08.08,0,0,1,0,.08l-.76,2.15a.29.29,0,0,0,0,.24.25.25,0,0,0,.21.11h2.09a.25.25,0,0,0,.21-.11.27.27,0,0,0,0-.23l-.74-2.2a.07.07,0,0,1,0-.08.06.06,0,0,1,.09,0,1.73,1.73,0,0,0,.21.17,3.1,3.1,0,0,0,1.93.67,3.31,3.31,0,0,0,2.47-1.08,3.86,3.86,0,0,0,1-2.64,4.6,4.6,0,0,0-1.23-3h0a25.34,25.34,0,0,0-3.12-2.92L17,9.43a.67.67,0,0,0-.88,0l-1.43,1.23a24.66,24.66,0,0,0-3.12,2.93,4.56,4.56,0,0,0-1.24,3,3.86,3.86,0,0,0,1,2.64,3.31,3.31,0,0,0,2.47,1.08,3.15,3.15,0,0,0,1.94-.67l.16-.13S16,19.51,16,19.51Z"/><path class="b189d2c2-826b-4ecc-a521-3d8c84a88578" d="M19.15,12.72a.31.31,0,0,1-.2-.07l-2.4-2a.32.32,0,0,1-.05-.45.33.33,0,0,1,.46-.05l2.4,2a.33.33,0,0,1,0,.45A.3.3,0,0,1,19.15,12.72Z"/><path class="b189d2c2-826b-4ecc-a521-3d8c84a88578" d="M20.68,14.11a.32.32,0,0,1-.21-.08l-.85-.71a.32.32,0,0,1,0-.45.33.33,0,0,1,.45,0l.84.71a.32.32,0,0,1,0,.45A.3.3,0,0,1,20.68,14.11Z"/><path class="bd02cd07-1167-480c-8272-be93bbb10202" d="M49.56,33.66a27.09,27.09,0,0,0-3.13-2.94L45,29.49a.71.71,0,0,0-1,0l-1.44,1.23a27.09,27.09,0,0,0-3.13,2.94,4.7,4.7,0,0,0-1.25,3.07,4,4,0,0,0,1,2.69,3.43,3.43,0,0,0,2.52,1.09,3.17,3.17,0,0,0,2-.68l.17-.14-.76,2.15a.33.33,0,0,0,.31.44h2.1a.33.33,0,0,0,.31-.43l-.74-2.2a1.92,1.92,0,0,0,.22.18,3.17,3.17,0,0,0,2,.68,3.43,3.43,0,0,0,2.52-1.09,4,4,0,0,0,1-2.69A4.7,4.7,0,0,0,49.56,33.66Z"/><path class="b6f7618a-3e5f-4a72-8e59-3ccbd57fd9c8" d="M45.52,42.35h-2.1a.4.4,0,0,1-.33-.17.42.42,0,0,1-.05-.36l.68-1.91a3.27,3.27,0,0,1-2,.68,3.47,3.47,0,0,1-2.57-1.12,4.07,4.07,0,0,1-1-2.74,4.78,4.78,0,0,1,1.27-3.12,27.09,27.09,0,0,1,3.13-2.94c.39-.33.92-.78,1.44-1.24a.83.83,0,0,1,1.07,0l1.43,1.24a25.71,25.71,0,0,1,3.14,2.94h0a4.72,4.72,0,0,1,1.27,3.12,4,4,0,0,1-1,2.74,3.47,3.47,0,0,1-2.57,1.12,3.27,3.27,0,0,1-2-.7l0,0,.66,2a.39.39,0,0,1-.06.36A.4.4,0,0,1,45.52,42.35Zm-1.65-2.73h0a.08.08,0,0,1,0,.09l-.76,2.15a.24.24,0,0,0,0,.23.26.26,0,0,0,.21.11h2.1a.23.23,0,0,0,.2-.11.24.24,0,0,0,0-.23L45,39.68a.08.08,0,0,1,0-.09.08.08,0,0,1,.08,0l.21.17a3,3,0,0,0,1.94.67,3.3,3.3,0,0,0,2.46-1.07,3.85,3.85,0,0,0,1-2.64,4.64,4.64,0,0,0-1.23-3h0a27.63,27.63,0,0,0-3.11-2.92l-1.45-1.24a.69.69,0,0,0-.88,0c-.52.46-1.05.91-1.43,1.23a27.85,27.85,0,0,0-3.12,2.93,4.64,4.64,0,0,0-1.23,3,3.85,3.85,0,0,0,1,2.64,3.31,3.31,0,0,0,2.46,1.07,3,3,0,0,0,1.94-.67l.16-.13Z"/><path class="b189d2c2-826b-4ecc-a521-3d8c84a88578" d="M47.06,32.83a.29.29,0,0,1-.2-.07l-2.41-2a.33.33,0,0,1,0-.45.31.31,0,0,1,.45,0l2.4,2a.32.32,0,0,1,.05.45A.36.36,0,0,1,47.06,32.83Z"/><path class="b189d2c2-826b-4ecc-a521-3d8c84a88578" d="M48.58,34.22a.33.33,0,0,1-.21-.07l-.84-.71a.32.32,0,0,1,0-.45.31.31,0,0,1,.45,0l.85.71a.32.32,0,0,1-.21.56Z"/><path class="bd02cd07-1167-480c-8272-be93bbb10202" d="M21.65,33.66a26.29,26.29,0,0,0-3.13-2.94l-1.43-1.23a.73.73,0,0,0-1,0l-1.43,1.23a26.29,26.29,0,0,0-3.13,2.94,4.7,4.7,0,0,0-1.25,3.07,4,4,0,0,0,1,2.69,3.41,3.41,0,0,0,2.52,1.09,3.19,3.19,0,0,0,2-.68l.17-.14-.76,2.15a.33.33,0,0,0,.31.44h2.09a.32.32,0,0,0,.31-.43l-.73-2.2.21.18a3.19,3.19,0,0,0,2,.68,3.39,3.39,0,0,0,2.52-1.09,3.92,3.92,0,0,0,1-2.69A4.65,4.65,0,0,0,21.65,33.66Z"/><path class="b6f7618a-3e5f-4a72-8e59-3ccbd57fd9c8" d="M17.61,42.35H15.52a.4.4,0,0,1-.33-.17.38.38,0,0,1,0-.36l.67-1.91a3.22,3.22,0,0,1-2,.68,3.46,3.46,0,0,1-2.57-1.12,4,4,0,0,1-1-2.74,4.72,4.72,0,0,1,1.27-3.12,26.29,26.29,0,0,1,3.13-2.94l1.44-1.24a.83.83,0,0,1,1.07,0l1.43,1.24a26.47,26.47,0,0,1,3.14,2.94h0A4.76,4.76,0,0,1,23,36.73a4.06,4.06,0,0,1-1,2.74,3.48,3.48,0,0,1-2.58,1.12,3.26,3.26,0,0,1-2-.7l0,0,.65,2a.39.39,0,0,1-.38.52ZM16,39.62h0a.1.1,0,0,1,0,.09l-.76,2.15a.27.27,0,0,0,0,.23.25.25,0,0,0,.21.11h2.09a.25.25,0,0,0,.21-.11.26.26,0,0,0,0-.23l-.74-2.19a.08.08,0,0,1,0-.09.1.1,0,0,1,.09,0,1.73,1.73,0,0,0,.21.17,3,3,0,0,0,1.93.67,3.34,3.34,0,0,0,2.47-1.07,3.9,3.9,0,0,0,1-2.64,4.64,4.64,0,0,0-1.23-3h0a27,27,0,0,0-3.12-2.92L17,29.54a.69.69,0,0,0-.88,0l-1.43,1.23a26.2,26.2,0,0,0-3.12,2.93,4.61,4.61,0,0,0-1.24,3,3.9,3.9,0,0,0,1,2.64,3.34,3.34,0,0,0,2.47,1.07,3.09,3.09,0,0,0,1.94-.67l.16-.13Z"/><path class="b189d2c2-826b-4ecc-a521-3d8c84a88578" d="M19.15,32.83a.31.31,0,0,1-.2-.07l-2.4-2a.32.32,0,1,1,.41-.49l2.4,2a.32.32,0,0,1-.21.56Z"/><path class="b189d2c2-826b-4ecc-a521-3d8c84a88578" d="M20.68,34.22a.31.31,0,0,1-.21-.07l-.85-.71a.32.32,0,0,1,0-.45A.31.31,0,0,1,20,33l.84.71a.32.32,0,0,1-.2.56Z"/><path class="bd02cd07-1167-480c-8272-be93bbb10202" d="M35.6,24A26.12,26.12,0,0,0,32.48,21c-.44-.37-.93-.79-1.44-1.24a.78.78,0,0,0-.49-.18.75.75,0,0,0-.48.18c-.51.45-1,.87-1.44,1.24A27.1,27.1,0,0,0,25.5,24,4.72,4.72,0,0,0,24.25,27a3.94,3.94,0,0,0,1,2.69,3.38,3.38,0,0,0,2.52,1.1,3.17,3.17,0,0,0,2-.68l.17-.14-.76,2.15a.33.33,0,0,0,.31.44h2.09a.33.33,0,0,0,.32-.43L31.14,30l.21.18a3.21,3.21,0,0,0,2,.68,3.37,3.37,0,0,0,2.52-1.1,3.89,3.89,0,0,0,1-2.69A4.67,4.67,0,0,0,35.6,24Z"/><path class="b6f7618a-3e5f-4a72-8e59-3ccbd57fd9c8" d="M31.56,32.65H29.47a.4.4,0,0,1-.33-.17.42.42,0,0,1-.05-.36l.68-1.91a3.26,3.26,0,0,1-2,.67,3.47,3.47,0,0,1-2.57-1.12,4,4,0,0,1-1-2.74,4.72,4.72,0,0,1,1.27-3.11A26.29,26.29,0,0,1,28.58,21L30,19.73a.83.83,0,0,1,1.07,0L32.52,21a27.31,27.31,0,0,1,3.14,2.95h0A4.77,4.77,0,0,1,36.93,27a4,4,0,0,1-1,2.74,3.48,3.48,0,0,1-2.58,1.12,3.2,3.2,0,0,1-2-.7h0l.65,1.95a.44.44,0,0,1-.05.37A.42.42,0,0,1,31.56,32.65Zm-1.64-2.73h0S30,30,30,30l-.75,2.16a.24.24,0,0,0,0,.23.25.25,0,0,0,.21.11h2.09a.25.25,0,0,0,.21-.11.27.27,0,0,0,0-.23L31.07,30a.11.11,0,0,1,0-.08.07.07,0,0,1,.09,0l.21.17a3,3,0,0,0,1.93.67,3.32,3.32,0,0,0,2.47-1.07,3.9,3.9,0,0,0,1-2.65,4.62,4.62,0,0,0-1.23-3h0a27.63,27.63,0,0,0-3.11-2.92L31,19.84a.67.67,0,0,0-.88,0c-.52.46-1.05.9-1.43,1.23A27,27,0,0,0,25.56,24a4.63,4.63,0,0,0-1.24,3,3.9,3.9,0,0,0,1,2.65,3.34,3.34,0,0,0,2.47,1.07,3.07,3.07,0,0,0,1.94-.67l.16-.13Z"/><path class="b189d2c2-826b-4ecc-a521-3d8c84a88578" d="M33.11,23.13a.31.31,0,0,1-.21-.07l-2.4-2a.32.32,0,0,1,.41-.5l2.4,2a.31.31,0,0,1,0,.45A.3.3,0,0,1,33.11,23.13Z"/><path class="b189d2c2-826b-4ecc-a521-3d8c84a88578" d="M34.63,24.52a.32.32,0,0,1-.21-.08l-.84-.71a.31.31,0,0,1,0-.45.33.33,0,0,1,.45,0l.84.71a.31.31,0,0,1,0,.45A.3.3,0,0,1,34.63,24.52Z"/><path class="bd02cd07-1167-480c-8272-be93bbb10202" d="M35.6,62.51a26.12,26.12,0,0,0-3.12-2.94L31,58.34a.73.73,0,0,0-.49-.19.71.71,0,0,0-.48.19l-1.44,1.23a27.09,27.09,0,0,0-3.13,2.94,4.7,4.7,0,0,0-1.25,3.07,4,4,0,0,0,1,2.69,3.38,3.38,0,0,0,2.52,1.1,3.12,3.12,0,0,0,2-.69l.17-.14-.76,2.16a.32.32,0,0,0,.31.43h2.09a.33.33,0,0,0,.32-.43l-.74-2.19.21.17a3.16,3.16,0,0,0,2,.69,3.37,3.37,0,0,0,2.52-1.1,3.92,3.92,0,0,0,1-2.69A4.65,4.65,0,0,0,35.6,62.51Z"/><path class="b6f7618a-3e5f-4a72-8e59-3ccbd57fd9c8" d="M31.56,71.2H29.47a.42.42,0,0,1-.33-.16.44.44,0,0,1-.05-.37l.68-1.91a3.27,3.27,0,0,1-2,.68,3.47,3.47,0,0,1-2.57-1.12,4,4,0,0,1-1-2.74,4.72,4.72,0,0,1,1.27-3.12,27.13,27.13,0,0,1,3.13-2.94L30,58.28a.84.84,0,0,1,1.07,0l1.43,1.24a26.47,26.47,0,0,1,3.14,2.94h0a4.79,4.79,0,0,1,1.27,3.12,4.07,4.07,0,0,1-1,2.74,3.48,3.48,0,0,1-2.58,1.12,3.26,3.26,0,0,1-2-.7l0,0,.65,2a.39.39,0,0,1-.38.52Zm-1.64-2.73,0,0a.06.06,0,0,1,0,.08l-.75,2.15a.24.24,0,0,0,0,.23.25.25,0,0,0,.21.11h2.09a.27.27,0,0,0,.21-.1.29.29,0,0,0,0-.24l-.74-2.19s0-.07,0-.08a.07.07,0,0,1,.09,0l.21.18a3.09,3.09,0,0,0,1.93.66,3.32,3.32,0,0,0,2.47-1.07,3.88,3.88,0,0,0,1-2.64,4.64,4.64,0,0,0-1.23-3h0a27.63,27.63,0,0,0-3.11-2.92c-.46-.39-.95-.8-1.45-1.24a.69.69,0,0,0-.88,0l-1.43,1.24a26.17,26.17,0,0,0-3.12,2.92,4.66,4.66,0,0,0-1.24,3,3.88,3.88,0,0,0,1,2.64,3.34,3.34,0,0,0,2.47,1.07,3.12,3.12,0,0,0,1.94-.66l.16-.14Z"/><path class="b189d2c2-826b-4ecc-a521-3d8c84a88578" d="M33.11,61.69a.32.32,0,0,1-.21-.08l-2.4-2a.32.32,0,0,1,0-.45.31.31,0,0,1,.45,0l2.4,2a.31.31,0,0,1,0,.45A.3.3,0,0,1,33.11,61.69Z"/><path class="b189d2c2-826b-4ecc-a521-3d8c84a88578" d="M34.63,63.07a.31.31,0,0,1-.21-.07l-.84-.71A.32.32,0,0,1,34,61.8l.84.71a.31.31,0,0,1,0,.45A.32.32,0,0,1,34.63,63.07Z"/><path class="bd02cd07-1167-480c-8272-be93bbb10202" d="M49.56,53.6a28,28,0,0,0-3.13-2.94c-.44-.37-.93-.78-1.44-1.23a.74.74,0,0,0-1,0c-.51.45-1,.86-1.44,1.23a28,28,0,0,0-3.13,2.94,4.7,4.7,0,0,0-1.25,3.07,4,4,0,0,0,1,2.69,3.4,3.4,0,0,0,2.52,1.1,3.12,3.12,0,0,0,2-.69l.17-.13-.76,2.15a.33.33,0,0,0,.31.44h2.1a.33.33,0,0,0,.31-.44l-.74-2.19a1.84,1.84,0,0,0,.22.17,3.12,3.12,0,0,0,2,.69,3.4,3.4,0,0,0,2.52-1.1,4,4,0,0,0,1-2.69A4.7,4.7,0,0,0,49.56,53.6Z"/><path class="b6f7618a-3e5f-4a72-8e59-3ccbd57fd9c8" d="M45.52,62.3h-2.1a.4.4,0,0,1-.33-.17.44.44,0,0,1-.05-.37l.68-1.91a3.27,3.27,0,0,1-2,.68,3.47,3.47,0,0,1-2.57-1.12,4,4,0,0,1-1-2.74,4.81,4.81,0,0,1,1.27-3.12,27.1,27.1,0,0,1,3.13-2.93c.39-.34.92-.78,1.44-1.24a.83.83,0,0,1,1.07,0l1.43,1.23a26.51,26.51,0,0,1,3.14,2.94h0a4.76,4.76,0,0,1,1.27,3.12,4,4,0,0,1-1,2.74,3.47,3.47,0,0,1-2.57,1.12,3.27,3.27,0,0,1-2-.7l0,0,.66,2a.41.41,0,0,1-.38.53Zm-1.65-2.73h0a.07.07,0,0,1,0,.08l-.76,2.15a.26.26,0,0,0,0,.24.25.25,0,0,0,.21.1h2.1a.22.22,0,0,0,.2-.1.24.24,0,0,0,0-.23L45,59.62a.07.07,0,0,1,0-.08.06.06,0,0,1,.08,0l.21.18a3.11,3.11,0,0,0,1.94.67,3.31,3.31,0,0,0,2.46-1.08,3.81,3.81,0,0,0,1-2.64,4.6,4.6,0,0,0-1.23-3h0a26.74,26.74,0,0,0-3.11-2.93l-1.45-1.24a.69.69,0,0,0-.88,0l-1.43,1.24a26.12,26.12,0,0,0-3.12,2.93,4.6,4.6,0,0,0-1.23,3,3.81,3.81,0,0,0,1,2.64,3.32,3.32,0,0,0,2.46,1.08,3.11,3.11,0,0,0,1.94-.67,1.07,1.07,0,0,0,.16-.14Z"/><path class="b189d2c2-826b-4ecc-a521-3d8c84a88578" d="M47.06,52.78a.35.35,0,0,1-.2-.07l-2.41-2a.32.32,0,0,1,.41-.49l2.4,2a.32.32,0,0,1,.05.45A.33.33,0,0,1,47.06,52.78Z"/><path class="b189d2c2-826b-4ecc-a521-3d8c84a88578" d="M48.58,54.16a.33.33,0,0,1-.21-.07l-.84-.71a.32.32,0,1,1,.41-.49l.85.71a.32.32,0,0,1,0,.45A.29.29,0,0,1,48.58,54.16Z"/><path class="bd02cd07-1167-480c-8272-be93bbb10202" d="M21.65,53.6a27.13,27.13,0,0,0-3.13-2.94c-.43-.37-.92-.78-1.43-1.23a.76.76,0,0,0-1,0c-.51.45-1,.86-1.43,1.23a27.13,27.13,0,0,0-3.13,2.94,4.7,4.7,0,0,0-1.25,3.07,4,4,0,0,0,1,2.69,3.38,3.38,0,0,0,2.52,1.1,3.14,3.14,0,0,0,2-.69l.17-.13-.76,2.15a.33.33,0,0,0,.31.44h2.09a.33.33,0,0,0,.31-.44l-.73-2.19.21.17a3.14,3.14,0,0,0,2,.69,3.37,3.37,0,0,0,2.52-1.1,3.91,3.91,0,0,0,1-2.69A4.65,4.65,0,0,0,21.65,53.6Z"/><path class="b6f7618a-3e5f-4a72-8e59-3ccbd57fd9c8" d="M17.61,62.3H15.52a.4.4,0,0,1-.38-.54l.67-1.91a3.22,3.22,0,0,1-2,.68,3.46,3.46,0,0,1-2.57-1.12,4,4,0,0,1-1-2.74,4.76,4.76,0,0,1,1.27-3.12,26.3,26.3,0,0,1,3.13-2.93l1.44-1.24a.83.83,0,0,1,1.07,0l1.43,1.23a27.32,27.32,0,0,1,3.14,2.94h0A4.8,4.8,0,0,1,23,56.67a4,4,0,0,1-1,2.74,3.48,3.48,0,0,1-2.58,1.12,3.26,3.26,0,0,1-2-.7l0,0,.65,2a.42.42,0,0,1,0,.36A.4.4,0,0,1,17.61,62.3ZM16,59.57h0a.08.08,0,0,1,0,.08l-.76,2.15a.29.29,0,0,0,0,.24.24.24,0,0,0,.21.1h2.09a.24.24,0,0,0,.21-.1.28.28,0,0,0,0-.23l-.74-2.2a.07.07,0,0,1,0-.08.08.08,0,0,1,.09,0l.21.18a3.1,3.1,0,0,0,1.93.67,3.34,3.34,0,0,0,2.47-1.08,3.86,3.86,0,0,0,1-2.64,4.6,4.6,0,0,0-1.23-3h0a26.12,26.12,0,0,0-3.12-2.93L17,49.48a.69.69,0,0,0-.88,0l-1.43,1.24a24.66,24.66,0,0,0-3.12,2.93,4.56,4.56,0,0,0-1.24,3,3.86,3.86,0,0,0,1,2.64,3.34,3.34,0,0,0,2.47,1.08,3.15,3.15,0,0,0,1.94-.67l.16-.14Z"/><path class="b189d2c2-826b-4ecc-a521-3d8c84a88578" d="M19.15,52.78a.37.37,0,0,1-.2-.07l-2.4-2a.32.32,0,0,1-.05-.45.34.34,0,0,1,.46,0l2.4,2a.33.33,0,0,1,0,.45A.3.3,0,0,1,19.15,52.78Z"/><path class="b189d2c2-826b-4ecc-a521-3d8c84a88578" d="M20.68,54.16a.31.31,0,0,1-.21-.07l-.85-.71a.32.32,0,0,1,.42-.49l.84.71a.32.32,0,0,1,0,.45A.29.29,0,0,1,20.68,54.16Z"/><path class="bd02cd07-1167-480c-8272-be93bbb10202" d="M49.56,73.71a27.1,27.1,0,0,0-3.13-2.93C46,70.41,45.5,70,45,69.54a.74.74,0,0,0-1,0c-.51.45-1,.87-1.44,1.24a27.1,27.1,0,0,0-3.13,2.93,4.72,4.72,0,0,0-1.25,3.07,3.94,3.94,0,0,0,1,2.69,3.4,3.4,0,0,0,2.52,1.1,3.17,3.17,0,0,0,2-.68l.17-.14-.76,2.15a.33.33,0,0,0,.31.44h2.1a.33.33,0,0,0,.31-.43l-.74-2.2.22.18a3.17,3.17,0,0,0,2,.68,3.4,3.4,0,0,0,2.52-1.1,3.94,3.94,0,0,0,1-2.69A4.72,4.72,0,0,0,49.56,73.71Z"/><path class="b6f7618a-3e5f-4a72-8e59-3ccbd57fd9c8" d="M45.52,82.41h-2.1a.4.4,0,0,1-.33-.17.42.42,0,0,1-.05-.36L43.72,80a3.26,3.26,0,0,1-2,.67,3.47,3.47,0,0,1-2.57-1.12,4,4,0,0,1-1-2.74,4.77,4.77,0,0,1,1.27-3.11,27.09,27.09,0,0,1,3.13-2.94c.39-.33.92-.78,1.44-1.24a.83.83,0,0,1,1.07,0l1.43,1.23a26.5,26.5,0,0,1,3.14,3h0a4.72,4.72,0,0,1,1.27,3.11,4,4,0,0,1-1,2.74,3.47,3.47,0,0,1-2.57,1.12,3.21,3.21,0,0,1-2-.7h0l.66,1.95a.41.41,0,0,1-.06.37A.4.4,0,0,1,45.52,82.41Zm-1.65-2.73h0a.07.07,0,0,1,0,.08l-.76,2.16a.24.24,0,0,0,0,.23.26.26,0,0,0,.21.11h2.1a.23.23,0,0,0,.2-.11.24.24,0,0,0,0-.23L45,79.73a.07.07,0,0,1,0-.08.06.06,0,0,1,.08,0l.21.17a3,3,0,0,0,1.94.67,3.3,3.3,0,0,0,2.46-1.07,3.86,3.86,0,0,0,1-2.65,4.64,4.64,0,0,0-1.23-3h0a27.63,27.63,0,0,0-3.11-2.92L44.94,69.6a.67.67,0,0,0-.88,0c-.52.46-1.05.91-1.43,1.23a27.85,27.85,0,0,0-3.12,2.93,4.62,4.62,0,0,0-1.23,3,3.86,3.86,0,0,0,1,2.65,3.31,3.31,0,0,0,2.46,1.07,3,3,0,0,0,1.94-.67l.16-.13Z"/><path class="b189d2c2-826b-4ecc-a521-3d8c84a88578" d="M47.06,72.89a.29.29,0,0,1-.2-.07l-2.41-2a.33.33,0,0,1,0-.45.32.32,0,0,1,.45,0l2.4,2a.32.32,0,0,1,.05.45A.33.33,0,0,1,47.06,72.89Z"/><path class="b189d2c2-826b-4ecc-a521-3d8c84a88578" d="M48.58,74.28a.34.34,0,0,1-.21-.08l-.84-.71a.32.32,0,0,1,0-.45.33.33,0,0,1,.45,0l.85.71a.32.32,0,0,1,0,.45A.3.3,0,0,1,48.58,74.28Z"/><path class="bd02cd07-1167-480c-8272-be93bbb10202" d="M21.65,73.71a26.3,26.3,0,0,0-3.13-2.93l-1.43-1.24a.76.76,0,0,0-1,0l-1.43,1.24a26.3,26.3,0,0,0-3.13,2.93,4.72,4.72,0,0,0-1.25,3.07,3.94,3.94,0,0,0,1,2.69,3.38,3.38,0,0,0,2.52,1.1,3.19,3.19,0,0,0,2-.68l.17-.14-.76,2.15a.33.33,0,0,0,.31.44h2.09a.32.32,0,0,0,.31-.43l-.73-2.2.21.18a3.19,3.19,0,0,0,2,.68,3.37,3.37,0,0,0,2.52-1.1,3.89,3.89,0,0,0,1-2.69A4.67,4.67,0,0,0,21.65,73.71Z"/><path class="b6f7618a-3e5f-4a72-8e59-3ccbd57fd9c8" d="M17.61,82.41H15.52a.4.4,0,0,1-.33-.17.38.38,0,0,1,0-.36L15.81,80a3.21,3.21,0,0,1-2,.67,3.46,3.46,0,0,1-2.57-1.12,4,4,0,0,1-1-2.74,4.72,4.72,0,0,1,1.27-3.11,26.29,26.29,0,0,1,3.13-2.94l1.44-1.24a.83.83,0,0,1,1.07,0l1.43,1.23a27.31,27.31,0,0,1,3.14,3h0A4.76,4.76,0,0,1,23,76.78a4,4,0,0,1-1,2.74,3.48,3.48,0,0,1-2.58,1.12,3.2,3.2,0,0,1-2-.7h0L18,81.88a.44.44,0,0,1,0,.37A.42.42,0,0,1,17.61,82.41ZM16,79.68h0a.08.08,0,0,1,0,.08l-.76,2.16a.27.27,0,0,0,0,.23.25.25,0,0,0,.21.11h2.09a.25.25,0,0,0,.21-.11.27.27,0,0,0,0-.23l-.74-2.2a.07.07,0,0,1,0-.08.08.08,0,0,1,.09,0,1.73,1.73,0,0,0,.21.17,3,3,0,0,0,1.93.67,3.34,3.34,0,0,0,2.47-1.07,3.9,3.9,0,0,0,1-2.65,4.64,4.64,0,0,0-1.23-3h0a27,27,0,0,0-3.12-2.92L17,69.6a.67.67,0,0,0-.88,0l-1.43,1.23a26.2,26.2,0,0,0-3.12,2.93,4.58,4.58,0,0,0-1.24,3,3.9,3.9,0,0,0,1,2.65,3.34,3.34,0,0,0,2.47,1.07,3.09,3.09,0,0,0,1.94-.67l.16-.13Z"/><path class="b189d2c2-826b-4ecc-a521-3d8c84a88578" d="M19.15,72.89a.31.31,0,0,1-.2-.07l-2.4-2a.32.32,0,0,1-.05-.45.33.33,0,0,1,.46,0l2.4,2a.33.33,0,0,1,0,.45A.3.3,0,0,1,19.15,72.89Z"/><path class="b189d2c2-826b-4ecc-a521-3d8c84a88578" d="M20.68,74.28a.32.32,0,0,1-.21-.08l-.85-.71a.32.32,0,0,1,0-.45A.33.33,0,0,1,20,73l.84.71a.32.32,0,0,1,0,.45A.3.3,0,0,1,20.68,74.28Z"/></g></g></svg>