<svg xmlns="http://www.w3.org/2000/svg" xmlns:xlink="http://www.w3.org/1999/xlink" viewBox="0 0 61.11 91.54"><defs><style>.aa2a4e6f-5131-46a1-a4da-7a3f3d15b380,.aeba71dd-2bb1-43fd-8d8f-b3446d38375d,.ba107e4c-2b6f-4f5d-954e-0ec16350417f,.e782b087-80e2-4d57-8c7c-a19b7b3318bf{fill:none;}.aa2a4e6f-5131-46a1-a4da-7a3f3d15b380{clip-rule:evenodd;}.e782b087-80e2-4d57-8c7c-a19b7b3318bf{clip-path:url(#b0b53061-4e12-4847-89cd-0480de6ed5fa);}.ba107e4c-2b6f-4f5d-954e-0ec16350417f{clip-path:url(#ba073a15-2e4f-4eb1-b5d0-5146fe6d357e);}.f5371dd4-b7db-43f7-b889-d1b7a315b71a{fill:#363026;}.a18a019f-1daa-4573-890a-fc58fa636b02{fill:#adadad;}.a9799259-4242-487a-b3e7-dbbb67a1be4a,.b735ae35-bad7-4396-a6d7-c30af2bef2b6{fill:#25126c;}.a4fc7bfd-85cd-4f10-831a-2e6fb604fef0,.a5225818-f5ce-4ca8-b6d5-8424908f031e,.a5ec46a1-c895-4272-9292-3f78815f261f,.a9799259-4242-487a-b3e7-dbbb67a1be4a,.a99f951c-6cf7-40a9-9485-ec9255aa7ff2,.b1fe68f9-0fda-4466-92f7-a475d7581649,.f0cd8a35-1c4c-43dd-9c7f-73d50c7aab55,.f48d3afa-48ab-4ef3-ae42-a9321fefb895{fill-rule:evenodd;}.b1fe68f9-0fda-4466-92f7-a475d7581649{fill:#fecbae;}.f0cd8a35-1c4c-43dd-9c7f-73d50c7aab55{fill:#fe7edb;}.bbc5ac1d-a785-498e-a3f7-f10a5683516c{fill:#d61fa4;}.f48d3afa-48ab-4ef3-ae42-a9321fefb895{fill:#e4b9ff;}.ba5bae81-fe3e-484f-9ad8-942e701014e9{fill:#7c2bb0;}.a5225818-f5ce-4ca8-b6d5-8424908f031e{fill:#620002;}.f26fa4d2-c402-4267-b42b-d307e798b3ce{fill:#3b1010;}.a85e979a-6ab5-45fa-9db6-592629dd4c65{clip-path:url(#e2a5cf40-e857-4603-a535-21544c9718fa);}.a5ec46a1-c895-4272-9292-3f78815f261f{fill:#fa7073;}.f2c92ca0-0c92-4456-b963-6dd1ddcd1649{fill:#a03636;}.a99f951c-6cf7-40a9-9485-ec9255aa7ff2{fill:#fff;}.f26af7cf-9a67-4823-84a8-aad67a4457d8{clip-path:url(#b112eae6-0223-44c4-b55c-0fdef8bfe86c);}.b2168b58-1f13-4ec3-8c88-d103eb74b65c{clip-path:url(#b9c263b6-7361-46e9-81f8-d0ec68be0e45);}.edc5e591-4312-4234-bac9-81b337e81e54{fill:#0054ff;}.f92c203b-1df5-4a4a-b033-3e3c449d1a4e{fill:#0155ff;}.e45226bc-94e8-4893-9346-14c9d635bbf9{fill:#0256ff;}.e17cabc9-0670-4137-9953-6c61c3f46763{fill:#0356ff;}.f56c11fe-efed-4a59-87ca-ee8d90a3f6b0{fill:#0457ff;}.b5c08d83-12a3-4bb4-8e13-b43f26540d5f{fill:#0558ff;}.b1cd5362-3ad7-416b-8f24-df80b0771270{fill:#0659ff;}.ef63dcbd-47a6-4737-9cb9-f52ad343b1c1{fill:#075aff;}.bf9365e4-acb9-4336-b9fa-b61f58298c87{fill:#085aff;}.b1c003da-9f5d-47d3-8373-2254669e364d{fill:#095bff;}.bf503ce8-e07e-4c53-80f2-51fe98666a68{fill:#0a5cff;}.b020b6ae-2eb2-447c-8d71-1ed4ee8b812f{fill:#0b5dff;}.e33de902-d1e1-4c4c-aabb-dc29b7c67cd8{fill:#0c5dff;}.b2a75f90-e17e-4ca6-be63-9063f196c8ef{fill:#0d5eff;}.eac6c1fa-f846-4fcd-a639-872afb86f922{fill:#0e5fff;}.b8b4580f-3a74-4270-8460-44f79143e4bd{fill:#0f60ff;}.bbdfb9a8-e5ba-4d66-92ce-346e701362ec{fill:#1061ff;}.b7fd1ee8-c250-4ee2-b89a-2b22e1acfefb{fill:#1161ff;}.aab36f0d-4970-4ec4-be65-fc59f3d64575{fill:#1262ff;}.b6af84b7-285c-41be-a10f-5b919627a05b{fill:#1363ff;}.a0a4c819-7d81-4abe-9fe2-a0bf267ba26d{fill:#1464ff;}.f234c6da-342d-4311-a866-921f672eb373{fill:#1565ff;}.f1964645-9b9a-428c-bcba-d8c11b77c294{fill:#1665ff;}.b58293b0-2644-4a15-ae8a-d1a92d91e918{fill:#1766ff;}.b9cf7b32-25f0-41a1-8b85-6358990ad55c{fill:#1867ff;}.b476f6f0-3f88-4cd3-968f-7a353c2e949b{fill:#1968ff;}.eed58913-2c01-404a-a43f-74afa242ea31{fill:#1a69ff;}.b11dae28-e467-49e4-9abf-6cee7806b84b{fill:#1b69ff;}.b2ce5e17-f79f-40c7-865d-16eac9310b79{fill:#1c6aff;}.f0f401a2-88eb-4e09-8259-35e43f0366f9{fill:#1d6bff;}.e0bda333-ce8c-4945-b601-14d5274f83f6{fill:#1e6cff;}.eb2bb57a-d4ce-4951-bd11-669d7898577a{fill:#1f6cff;}.b6a65e56-eb28-4bdb-abbc-cfb6fcfdae3b{fill:#206dff;}.e3402a6c-7b9e-4c72-af10-95c01accb8df{fill:#216eff;}.ba13f2b4-25ac-4ca7-89c0-024d06c6649b{fill:#226fff;}.a10275c2-2c36-4624-be27-72b77be3716c{fill:#2370ff;}.eef812ce-2e0a-4c4a-98bf-224e3ec0c316{fill:#2470ff;}.ea325463-e01d-4312-bbf0-34a4a25deb6b{fill:#2571ff;}.a9456c88-02a3-4d6e-89e4-f4ee9ed9253f{fill:#2672ff;}.fa2d7310-5c0b-4b36-8c51-3b925934140d{fill:#2773ff;}.af1a20e7-41c9-469a-9843-eec9b2896517{fill:#2874ff;}.b00656a9-cfc6-4377-9b56-da65cf2e1d7d{fill:#2974ff;}.efb9e052-5eca-4a00-b449-4b3b1370ef8a{fill:#2a75ff;}.e637181b-b7c8-481e-9ef4-8761d4ffd50a{fill:#2b76ff;}.b1b14540-dce8-410b-8dad-888226517859{fill:#2c77ff;}.f7df3d0f-1043-4b63-9d58-1a16b4012721{fill:#2d78ff;}.b14a0443-07db-4c8f-97ea-a582fcefac65{fill:#2e78ff;}.a3c01da2-879e-4a6f-86f6-b2fab8ddee0a{fill:#2f79ff;}.be665b26-5683-4c48-ae8c-7733ef683cb0{fill:#307aff;}.ad39387c-ed4f-465f-9d4d-0754be1fc528{fill:#317bff;}.b9ed81c4-5fab-460f-8cb1-a705ce0e2733{fill:#327bff;}.b1d917cd-e3bd-4ffc-bbf6-d4e9cb422981{fill:#337cff;}.bf54c0b5-3132-4d36-bbff-aaec34055676{fill:#347dff;}.b1324b4c-5e63-4e88-a098-e3b189ef109f{fill:#357eff;}.add7b865-755b-4b22-bdcc-ed88efefab50{fill:#367fff;}.fe7ef1a0-6321-48a2-bc70-b46d555b6fba{fill:#377fff;}.af2de091-f30b-443c-8dd9-2556e425c455{fill:#3880ff;}.f26a2620-658b-49af-89b0-cdb59536dcb0{fill:#3981ff;}.b9e5fe89-603c-4b2d-b478-24eb76af9fd4{fill:#3a82ff;}.aa1d2981-ced6-4e84-9520-561b4d7773b3{fill:#3b83ff;}.be9ba3bb-2f1e-4dc1-a38f-f13b33cb9a29{fill:#3c83ff;}.b8b962ec-fd40-49d0-aea4-cf9b863c0d13{fill:#3d84ff;}.b61430eb-0f12-46ff-b7fa-44bb1ada72c5{fill:#3e85ff;}.e2c84ea4-4852-4355-8c6c-6e233af5d5a6{fill:#3f86ff;}.b3958a10-ed3f-49f0-b0d8-76da417fcdad{fill:#4087ff;}.a83c0e07-e9d8-44fd-a3a0-2da1d51a2085{fill:#4187ff;}.bb87d2e4-fcd2-4271-82ad-878515b3c169{fill:#4288ff;}.a6537e6f-6d9d-4cb1-8763-ca3727d5ee98{fill:#4389ff;}.a7f3a520-b46b-426c-a90c-a7b5db85ab40{fill:#448aff;}.ee965caa-e6cc-426f-ab33-eec5fbb6a7ec{fill:#458aff;}.a21fb792-91bb-4fe7-a6c7-b52ae4768b1e{fill:#468bff;}.f78f2986-a8cc-4fcb-b8a5-098b62d8d63a{fill:#478cff;}.bbe12140-744c-406e-9b4d-8f0a417c11d9{fill:#488dff;}.bcbb9258-7e66-4c68-a779-0bb104b6b5c5{fill:#498eff;}.b3a318b1-27e0-4de6-b879-7c8148e98b6c{fill:#4a8eff;}.b8d3c5c2-e6ac-4399-abd4-e962791c7dcc{fill:#4b8fff;}.b7977159-b46e-419a-ba3b-e1c91c56d74e{fill:#4c90ff;}.a6072069-6901-405e-b54d-6b4cd49fcca9{fill:#4d91ff;}.f20a1418-ccd5-427f-8044-bad6bbce7b2f{fill:#4e92ff;}.b3c4a099-dda6-45d7-8ff3-b00571a37d79{fill:#5092ff;}.bd223177-fcb8-46b1-a225-77f5a9b3ae4f{fill:#5193ff;}.f225dd73-4db6-43ef-88e2-cbb19aefd073{fill:#5294ff;}.eb51a90b-da83-4888-b8cd-cfa8fd2251df{fill:#5395ff;}.eed8c32d-5eee-45d2-bb98-4d39d8be978a{fill:#5496ff;}.e536c311-eb79-4ea6-b0d5-9492f2796f38{fill:#5596ff;}.a2bb6be2-44b7-4980-a1a0-23fa9f22a7ff{fill:#5697ff;}.fdb8c099-f357-4e73-a31a-6485235f2b68{fill:#5798ff;}.eb3ecf20-f082-440f-b308-f0dae21e49b4{fill:#5899ff;}.a61b3ffa-deb4-4c0d-b4dd-4cdf38079eb3{fill:#599aff;}.e9e51d36-4679-4acb-9841-46f52597aca8{fill:#5a9aff;}.a1f1f73e-8904-4604-a2f9-c75cce0be3f7{fill:#5b9bff;}.a185ed40-6ada-4f94-93db-7160fc4d1856{fill:#5c9cff;}.bc6ce3f5-a236-4107-9407-ceb2294c0fc0{fill:#5d9dff;}.b5e30409-4b69-4bde-b46a-118ca29d5bf8{fill:#5e9dff;}.a0778a35-e94f-44ff-882a-081170579a2e{fill:#5f9eff;}.bb560d2b-9aaa-4cf6-b92f-09f1bab4697a{fill:#609fff;}.b13463ba-2a3c-4e1c-b480-eda82678f598{fill:#61a0ff;}.a8a67c29-24d9-459e-8432-304623d743f1{fill:#62a1ff;}.b19f4630-a63c-41f7-9f91-96ae9b78cb13{fill:#63a1ff;}.b12b6326-aa35-4ce7-a058-52208ce74c72{fill:#64a2ff;}.a26c19bc-4704-46c1-a6a5-e218eeaf10de{fill:#65a3ff;}.aacb7cdd-41f9-4466-a150-9967bf444e5d{fill:#66a4ff;}.e4d37ac8-9d5b-4fc0-8b3c-eb29e82d8a2d{fill:#67a5ff;}.f9a4f396-156c-4c1e-b079-35a9dd15e72b{fill:#68a5ff;}.ea351a94-f9ce-4868-b6d7-b1b9b870be7b{fill:#69a6ff;}.f6461509-2537-470c-ae10-5d13afe88e13{fill:#6aa7ff;}.a5aff851-be85-494b-ae77-a00190df4d7e{fill:#6ba8ff;}.fab3f7e8-40c1-4049-a411-99bcb293980d{fill:#6ca9ff;}.f6690f6d-346a-43f9-b18e-96b7912c5656{fill:#6da9ff;}.f5356f37-70f6-4f0e-88c9-dc2194a39145{fill:#6eaaff;}.e70e1af4-f3ab-4c82-a6a4-25c742ae1030{fill:#6fabff;}.ed43ba81-1dfb-4fcd-88d3-0ce981b4f1db{fill:#70acff;}.bebeb7fc-4eab-47bb-a684-c4a2badee840{fill:#71acff;}.be828a2d-4ab8-4349-bb59-3693c112773e{fill:#72adff;}.b6fb6cef-4f9b-427f-92b9-dd22d7065d37{fill:#73aeff;}.f3bce8de-2760-40b7-ae55-60517301daa8{fill:#74afff;}.aa40dda3-8371-41e1-a368-9f8365964b4c{fill:#75b0ff;}.f89fb47f-5848-4793-9060-5dac122b3577{fill:#76b0ff;}.b5c5df26-e8fd-4651-9bdd-f075d930a1f2{fill:#77b1ff;}.e0b60d8c-7dc3-41e6-8be7-1c08665ed467{fill:#78b2ff;}.ef7e3808-c5ae-45a4-9dc4-a653e4521fc5{fill:#79b3ff;}.a8067eb2-1985-490a-a0a5-5ea68385f1d9{fill:#7ab4ff;}.ae0147c0-a458-470a-b7e0-c8d7d5aea8d2{fill:#7bb4ff;}.b5640d82-6ad1-4b1c-b77d-3890aa8ace49{fill:#7cb5ff;}.a4a24403-5b30-4780-959f-72772becdda6{fill:#7db6ff;}.ee6ba112-1eb1-4188-82dd-ed72cbca037d{fill:#7eb7ff;}.fcf66234-caef-4bce-84a3-6a20ee44477e{fill:#7fb8ff;}.a9f888db-a7c6-43d8-bc7f-f1f4920dc0bb{fill:#80b8ff;}.b3aa1242-a694-477d-9f8b-9d07cce57e2f{fill:#81b9ff;}.f8fe759f-295e-4e90-a915-483dca97ba72{fill:#82baff;}.b8d89e91-709e-46e8-b353-ecdbfb48938c{fill:#83bbff;}.f51cebaf-1a39-4e32-bd25-771eff3e7e6d{fill:#84bbff;}.ae4ff4e6-f6cc-4739-849b-d8a11bfa2364{fill:#85bcff;}.b5bc86cd-7834-4b49-87ce-1ce6e683ba06{fill:#86bdff;}.bc36cc19-c3c6-4268-bdaa-0c8d8581b5c4{fill:#87beff;}.a97b55d9-cec6-4d6e-9b2b-d5eda9ab1123{fill:#88bfff;}.e75cd1b0-8ecd-4f85-8241-1bbf59a5e20f{fill:#89bfff;}.b389d56d-5865-49c0-bc5a-a7267be34cd3{fill:#8ac0ff;}.a003900f-2140-4b7b-baad-aac0c8d10c16{fill:#8bc1ff;}.b793569d-331f-40d3-afff-47a6c2662c13{fill:#8cc2ff;}.af2a35c3-ee55-4b7f-9fab-e695f836f14d{fill:#8dc3ff;}.fdd107a1-791d-41ee-97f3-b5003882d7e7{fill:#8ec3ff;}.a06ce1d9-d2cc-46d0-a470-31e82e32fa3d{fill:#8fc4ff;}.b0c5eb4d-9d21-49e8-b8b9-a0c8fab62aa0{fill:#90c5ff;}.af19d6b4-eef2-44e8-bc69-41766703eff8{fill:#91c6ff;}.acfb17d8-15e3-4750-bb3b-f19ef3e79bec{fill:#92c7ff;}.abd5640a-ed6f-4ef1-98af-197816539ec7{fill:#93c7ff;}.a66828f6-0c93-4380-a8a9-26a1fed8cdc9{fill:#94c8ff;}.aa3f6f4c-34e5-4a61-9caa-554033ccb7bb{fill:#95c9ff;}.be76fbf0-f535-418b-b102-a0d018df4b46{fill:#96caff;}.a75e99b1-b28a-49ec-8138-2744bcb4df45{fill:#97caff;}.b9892dc5-39a1-481e-a4d2-7ecc5e9557c9{fill:#98cbff;}.b8c04a3d-3891-41d9-b1e6-5972b87da008{fill:#9cf;}.feea1741-060f-47c1-b136-d8f8e38f41b4{fill:#9acdff;}.b814a9cc-aa1c-44d2-aaa1-bc2cd32c37e1{fill:#9bceff;}.ee5f7aad-d3fc-4c51-b103-002a91dfbaab{fill:#9cceff;}.af31356b-2eb1-4c66-9886-ed9cead6f798{fill:#9dcfff;}.fa6538ff-eff1-441d-842d-37592caf9567{fill:#9ed0ff;}.bef2b6e5-bebf-4d87-bd31-7081919fec9e{clip-path:url(#a5d1adf4-6eb4-4884-84fd-8708d4f1b464);}.e7e91743-b8ef-4ae4-b0d5-595cb075aec2{fill:#aa292e;}.a73e04d1-58fc-42b2-9379-9c4b76421029{fill:#1f2d6c;}.fc966e9b-e789-4cd4-a63d-ba0f086ca230{fill:#333;}.a19d8ed9-8b3c-4155-bb2f-01d4c7e6dd43{fill:#aa7941;}.e2c46a82-0e5a-4584-bd81-4c9fe9f4dec7{fill:#0b050f;}.ba389bf7-d021-4df7-83a4-b163dc097f6a{fill:#3856c8;}.ab3a40f0-774d-46f3-ae50-d62f7b861127{fill:#bf9b4d;}.ef20e6cb-f4cb-4079-8572-d932f4b3bafe{fill:#e8efff;}.a476832b-6e0c-446b-bd61-e18df40c192b{fill:#c9d8f7;}.f01af03d-d006-4017-b4a1-51b75b4afa4c{fill:#715c57;}.a4fc7bfd-85cd-4f10-831a-2e6fb604fef0,.a76e045a-4e4a-4012-af71-f180a7c4c1b5{fill:#153f68;}.bb5462b5-8269-4cc1-8934-d3ba00e32bb0{clip-path:url(#e9f6b153-05fb-4362-8104-8762fefee1b8);}.f09384bf-6f88-4bcf-a29a-633ccee4a226{fill:#7f282a;}.ade4ce02-99c2-4a34-ab56-8cbac3b5299b{fill:#3f3f3f;}.bf2518c2-cc9b-4c40-b24a-19559ca8c973{clip-path:url(#a0f38ba7-8c56-474e-8aae-6072c44127e9);}.a10aedc3-02d3-4103-ae80-e765a68eb59b{fill:#716b61;}.fa8a17e1-f68f-4f75-ac5f-17804c942d78{fill:#453f31;}.f8154fb4-6855-4ecd-8e0f-6eceb53fc72d{fill:#aaa194;}</style><clipPath id="b0b53061-4e12-4847-89cd-0480de6ed5fa"><path class="aeba71dd-2bb1-43fd-8d8f-b3446d38375d" d="M35.59,21.42a10.09,10.09,0,0,0,.27-2.21,7,7,0,0,0,0-.94,1.63,1.63,0,0,0-.22-.72A1.3,1.3,0,0,0,34.53,17a1.4,1.4,0,0,0-1.08.42,1.39,1.39,0,0,0-.15.73c0,.29,0,1.32,0,1.32s.11,1.87.15,1.92a2.56,2.56,0,0,0,.24.11,3.51,3.51,0,0,0,.92.19,3,3,0,0,0,.77-.16S35.45,21.54,35.59,21.42Z"/></clipPath><clipPath id="ba073a15-2e4f-4eb1-b5d0-5146fe6d357e"><path class="aeba71dd-2bb1-43fd-8d8f-b3446d38375d" d="M32.84,69.75h-.79l-.76,0a1.3,1.3,0,0,0-.5.12,1.24,1.24,0,0,0-.31.54,3.5,3.5,0,0,0,0,.57,2.31,2.31,0,0,0,.55.43,1.93,1.93,0,0,0,1,.2,2.06,2.06,0,0,0,1-.28,1.34,1.34,0,0,0,.38-.47,1.23,1.23,0,0,0,0-.47,1,1,0,0,0-.25-.53A.56.56,0,0,0,32.84,69.75Z"/></clipPath><clipPath id="e2a5cf40-e857-4603-a535-21544c9718fa"><path class="aeba71dd-2bb1-43fd-8d8f-b3446d38375d" d="M26.85,64.84a8.66,8.66,0,0,1,1.08-.38c.18,0,1.33-.23,1.48-.23s1.14.16,1.27.19,1.17.32,1.25.38.86.84.75,1-.75-.07-.83-.08-1.11-.17-1.25-.18l-1.21-.08c-.17,0-1.34.09-1.51.11l-1.1.12c-.07,0-.73.17-.79.09S26.69,65,26.85,64.84Z"/></clipPath><clipPath id="b112eae6-0223-44c4-b55c-0fdef8bfe86c"><path class="ba107e4c-2b6f-4f5d-954e-0ec16350417f" d="M25.86,69.63h.93l.8,0a1.19,1.19,0,0,1,.34.15,1.17,1.17,0,0,1,.26.45,4.77,4.77,0,0,1,.06.62,4,4,0,0,1-.6.43,2.72,2.72,0,0,1-1,.21,2.13,2.13,0,0,1-1-.27,1.39,1.39,0,0,1-.51-.59,1.24,1.24,0,0,1,.09-.46.89.89,0,0,1,.25-.42A1.74,1.74,0,0,1,25.86,69.63Z"/></clipPath><clipPath id="b9c263b6-7361-46e9-81f8-d0ec68be0e45"><path class="aa2a4e6f-5131-46a1-a4da-7a3f3d15b380" d="M31.12,70.6a.6.6,0,0,1,1.19,0,.6.6,0,0,1-1.19,0Z"/></clipPath><clipPath id="a5d1adf4-6eb4-4884-84fd-8708d4f1b464"><path class="aa2a4e6f-5131-46a1-a4da-7a3f3d15b380" d="M25.9,70.59a.58.58,0,0,1,.61-.55.55.55,0,1,1,0,1.09A.58.58,0,0,1,25.9,70.59Z"/></clipPath><clipPath id="e9f6b153-05fb-4362-8104-8762fefee1b8"><path class="aeba71dd-2bb1-43fd-8d8f-b3446d38375d" d="M28.22,25s.49.62.68.77a4.44,4.44,0,0,0,1,.35c.11,0,1.08.07,1.19.07s1.1-.05,1.19-.07a9.35,9.35,0,0,0,1.25-.28c.17-.12.51-.72.57-.68a1.93,1.93,0,0,1-.55.76,10.39,10.39,0,0,1-1.27.28c-.12,0-1.07.08-1.18.08s-1.08-.05-1.19-.07a4.86,4.86,0,0,1-1-.34A3.52,3.52,0,0,1,28.22,25Z"/></clipPath><clipPath id="a0f38ba7-8c56-474e-8aae-6072c44127e9"><path class="e782b087-80e2-4d57-8c7c-a19b7b3318bf" d="M27.83,21.36c-.24-.21-.24-1.61-.25-2a8,8,0,0,1,0-1.08c0-.22,0-.76.26-1A1.88,1.88,0,0,1,29,17a2.06,2.06,0,0,1,1,.44,1.54,1.54,0,0,1,.24.8c0,.45,0,1.2,0,1.2a17.63,17.63,0,0,1-.17,1.93l-.2.13a3,3,0,0,1-.9.22,3.13,3.13,0,0,1-.86-.17A1.37,1.37,0,0,1,27.83,21.36Z"/></clipPath></defs><title>P_J</title><g id="f9e92257-8168-4c32-8cb3-8079e2300d01" data-name="Capa 2"><g id="b00aae3b-d3eb-4e1c-9844-4255704329c1" data-name="Objects"><path class="f5371dd4-b7db-43f7-b889-d1b7a315b71a" d="M3.39,8.21a1.73,1.73,0,0,1-1-.32,2,2,0,0,1-.68-.82.27.27,0,0,1,0-.14.23.23,0,0,1,.09-.19.32.32,0,0,1,.18-.06.2.2,0,0,1,.14,0l.11.11a1.46,1.46,0,0,0,.49.61,1.21,1.21,0,0,0,.72.23,1.54,1.54,0,0,0,.73-.17A1.19,1.19,0,0,0,4.6,7a1.43,1.43,0,0,0,.18-.72V2.12a.25.25,0,0,1,.08-.18.28.28,0,0,1,.21-.08.24.24,0,0,1,.2.08.24.24,0,0,1,.07.18V6.29a1.92,1.92,0,0,1-.25,1A1.67,1.67,0,0,1,4.4,8,2.07,2.07,0,0,1,3.39,8.21Z"/><rect class="aeba71dd-2bb1-43fd-8d8f-b3446d38375d" x="0.13" y="0.12" width="60.86" height="91.29" rx="2.4"/><path class="a18a019f-1daa-4573-890a-fc58fa636b02" d="M58.59,91.54H2.52A2.53,2.53,0,0,1,0,89V2.52A2.52,2.52,0,0,1,2.52,0H58.59a2.52,2.52,0,0,1,2.52,2.52V89A2.53,2.53,0,0,1,58.59,91.54ZM2.52.25A2.27,2.27,0,0,0,.25,2.52V89a2.28,2.28,0,0,0,2.27,2.28H58.59A2.28,2.28,0,0,0,60.86,89V2.52A2.27,2.27,0,0,0,58.59.25Z"/><path class="f5371dd4-b7db-43f7-b889-d1b7a315b71a" d="M57.71,83.33a1.68,1.68,0,0,1,1,.31,2,2,0,0,1,.68.83.3.3,0,0,1,.05.14.2.2,0,0,1-.09.18.27.27,0,0,1-.18.07.33.33,0,0,1-.15,0l-.1-.11a1.48,1.48,0,0,0-.49-.61,1.2,1.2,0,0,0-.73-.23A1.53,1.53,0,0,0,57,84a1.28,1.28,0,0,0-.49.49,1.52,1.52,0,0,0-.17.71v4.17a.25.25,0,0,1-.09.19.29.29,0,0,1-.4,0,.27.27,0,0,1-.08-.19V85.24a2,2,0,0,1,.25-1,1.8,1.8,0,0,1,.69-.68A2,2,0,0,1,57.71,83.33Z"/><g id="a3b54bc3-17ca-4cf9-84bd-a4bbb828d179" data-name="pelo ext"><path class="a9799259-4242-487a-b3e7-dbbb67a1be4a" d="M20.4,75.41c-.79-1.6-.43-2.84-.45-4.07,0-1.66.36-3.85.49-5.51a56.41,56.41,0,0,0,.39-5.94c-.06-1.5-.53-3.46-.7-5-.2-1.69-.45-3.93-.52-5.62,0-.76,0-2.53,0-2.53A10,10,0,0,1,21,46.45c.78-.08,1.82.18,2.59.17,1,0,2.32-.41,3.31-.34.73,0,6.4,6.89,6.3,8.6a52.62,52.62,0,0,0-.37,5.33A53.53,53.53,0,0,0,34,66.7a32.58,32.58,0,0,1,1,5c0,1.39-.08,3.37-.82,4.54A6.14,6.14,0,0,1,31.8,78a8.32,8.32,0,0,1-2.25.6,13.4,13.4,0,0,1-4.93,0,10.63,10.63,0,0,1-2.15-1.21A6.34,6.34,0,0,1,20.4,75.41Z"/><path d="M26.58,79a7.63,7.63,0,0,1-2-.23,10.48,10.48,0,0,1-2.16-1.22,6.5,6.5,0,0,1-2.08-2.07h0a5.61,5.61,0,0,1-.49-3.18c0-.31,0-.61,0-.91a29.64,29.64,0,0,1,.29-3.59c.08-.68.16-1.33.2-1.92s.09-1.07.15-1.66a33.69,33.69,0,0,0,.24-4.28,25.1,25.1,0,0,0-.4-3c-.12-.7-.23-1.35-.3-2-.19-1.59-.45-3.91-.53-5.62,0-.75,0-2.52,0-2.53a.1.1,0,0,1,0,0A10.4,10.4,0,0,1,21,46.4a7.69,7.69,0,0,1,1.49.08c.39,0,.75.09,1.07.09h0A12.08,12.08,0,0,0,25,46.4a8.63,8.63,0,0,1,1.84-.17c.73.05,6.46,6.84,6.35,8.65,0,.57-.1,1.2-.17,1.87a22.19,22.19,0,0,0-.2,3.46,29.36,29.36,0,0,0,.77,4.56c.15.69.29,1.33.4,1.92s.23,1,.37,1.62a16.1,16.1,0,0,1,.6,3.42,9.45,9.45,0,0,1-.83,4.56,6.17,6.17,0,0,1-2.33,1.8,8.57,8.57,0,0,1-2.26.6A22,22,0,0,1,26.58,79ZM19.66,46.82c0,.26,0,1.81,0,2.5.07,1.7.33,4,.52,5.61.07.59.18,1.25.3,1.94a25.52,25.52,0,0,1,.4,3,34,34,0,0,1-.24,4.3c-.05.59-.11,1.14-.14,1.66s-.13,1.24-.21,1.92A29.49,29.49,0,0,0,20,71.34c0,.3,0,.6,0,.91a5.54,5.54,0,0,0,.48,3.14h0a6.27,6.27,0,0,0,2.05,2,10.6,10.6,0,0,0,2.13,1.2,13.13,13.13,0,0,0,4.92,0A8.55,8.55,0,0,0,31.77,78a6.08,6.08,0,0,0,2.3-1.76,9.48,9.48,0,0,0,.81-4.51,15.85,15.85,0,0,0-.6-3.39c-.14-.58-.28-1.13-.37-1.63s-.25-1.23-.4-1.91a31.05,31.05,0,0,1-.78-4.59,23.78,23.78,0,0,1,.21-3.47c.07-.67.14-1.3.17-1.87.1-1.68-5.58-8.49-6.26-8.54A8.51,8.51,0,0,0,25,46.5a11.44,11.44,0,0,1-1.47.17h0c-.33,0-.69-.05-1.08-.09A7.53,7.53,0,0,0,21,46.5,10.74,10.74,0,0,0,19.66,46.82Z"/></g><path class="b1fe68f9-0fda-4466-92f7-a475d7581649" d="M28.08,60.55s.06,2.05.09,2.1,1.24.54,1.29-.25c0-.08-.07-1.84-.07-1.91"/><path d="M28.93,62.88a1.53,1.53,0,0,1-.8-.22s-.13-2-.08-2.13h0v0h0c0,.11.07,1.92.09,2.07a1.53,1.53,0,0,0,1,.14.38.38,0,0,0,.24-.37s0-.84-.05-1.37c0-.3,0-.52,0-.54h.07s0,.26,0,.54c0,.72.06,1.32.06,1.38a.47.47,0,0,1-.42.46Z"/><g id="a2941603-26e5-4037-b865-bc0d9a845822" data-name="pinches"><path class="f0cd8a35-1c4c-43dd-9c7f-73d50c7aab55" d="M32,77.47l.09.64-1.46.3-.18-.67S32,77.46,32,77.47Z"/><path class="bbc5ac1d-a785-498e-a3f7-f10a5683516c" d="M30.65,78.46s0,0,0,0l-.17-.68s0,0,0,0a0,0,0,0,1,0,0l.31-.06c1.25-.22,1.25-.22,1.27-.19s0,0,0,0l.09.63a.05.05,0,0,1,0,.06l-1.46.3Zm-.11-.68.14.57,1.37-.28L32,77.53l-1.19.2Z"/><path class="f48d3afa-48ab-4ef3-ae42-a9321fefb895" d="M32,76.42l.14.75-1.5.29-.16-.73S32,76.41,32,76.42Z"/><path class="ba5bae81-fe3e-484f-9ad8-942e701014e9" d="M30.6,77.51s-.05,0-.05,0l-.16-.73s0-.06,0-.06a8.08,8.08,0,0,1,1.56-.3l0,0,.14.75s0,0,0,.06l-1.5.29Zm-.1-.74.14.63,1.4-.27-.12-.65Z"/></g><g id="e5917655-c54b-4247-b045-63100b78cf80" data-name="cabeza"><g id="a7561f41-994c-42d7-b6de-6b6b74da66ed" data-name="oreja der"><path class="b1fe68f9-0fda-4466-92f7-a475d7581649" d="M31,68a1.18,1.18,0,0,1,.63-.22,1.11,1.11,0,0,1,.75.24,1.13,1.13,0,0,1-.32,1.4.84.84,0,0,1-.64,0,1.23,1.23,0,0,1-.5-.51A1.39,1.39,0,0,1,31,68Z"/><path d="M31,68.86a1.18,1.18,0,0,0,.5.46l-.05.13a1.3,1.3,0,0,1-.5-.57Z"/><path d="M31.45,69.32a.86.86,0,0,0,.59,0l.06.12a1,1,0,0,1-.7,0Z"/><polygon points="31.45 69.46 31.36 69.42 31.41 69.3 31.5 69.34 31.45 69.46"/><path d="M32,69.35a1,1,0,0,0,.37-.6l.14,0a1.26,1.26,0,0,1-.45.7Z"/><polygon points="32.06 69.5 32 69.39 32.08 69.34 32.15 69.45 32.06 69.5"/><path d="M32.41,68.75a.92.92,0,0,0-.08-.7l.1-.08a1,1,0,0,1,.12.81Z"/><polygon points="32.53 68.83 32.4 68.8 32.42 68.7 32.56 68.73 32.53 68.83"/><path d="M32.33,68.05a1,1,0,0,0-.7-.21v-.13a1.14,1.14,0,0,1,.8.26Z"/><polygon points="32.37 68.09 32.3 68.01 32.4 67.93 32.47 68.01 32.37 68.09"/><path d="M31.63,67.83A1.19,1.19,0,0,0,31,68l0,0a1.28,1.28,0,0,1,.65-.27Z"/><rect x="31.58" y="67.71" width="0.1" height="0.13"/></g><g id="ada4e244-5455-4205-8bd6-12ce3f98ce43" data-name="cabeza"><path class="b1fe68f9-0fda-4466-92f7-a475d7581649" d="M33.3,71.49c-.06,1-.07,3.76-1.09,5.06-.83,1.07-1.77,1.68-4.16,1.64-2.65,0-3.78-.72-4.51-2-.87-1.51-.81-4.19-.83-4.61,0-.78.15-1.74.17-2.2a11.9,11.9,0,0,1,.83-4A7.81,7.81,0,0,1,26,63.53a9.27,9.27,0,0,1,3.3-1.17,5.78,5.78,0,0,1,2,1.18,6.39,6.39,0,0,1,1.33,1.8,17.39,17.39,0,0,1,.61,4A13.84,13.84,0,0,1,33.3,71.49Z"/><path d="M33.22,69.29a17.79,17.79,0,0,0-.64-3.93l.12,0a17.69,17.69,0,0,1,.57,4Z"/><path d="M32.58,65.36a6.38,6.38,0,0,0-1.31-1.77l.09-.1a6.56,6.56,0,0,1,1.34,1.82Z"/><polygon points="32.59 65.41 32.56 65.32 32.68 65.27 32.72 65.36 32.59 65.41"/><path d="M31.28,63.58a5.6,5.6,0,0,0-2-1.16v-.14a6.09,6.09,0,0,1,2.06,1.21Z"/><polygon points="31.31 63.62 31.24 63.55 31.33 63.45 31.4 63.52 31.31 63.62"/><path d="M29.28,62.42A9.43,9.43,0,0,0,26,63.59L26,63.48a9.65,9.65,0,0,1,3.34-1.19Z"/><polygon points="29.34 62.43 29.24 62.42 29.25 62.29 29.35 62.3 29.34 62.43"/><path d="M26,63.6a8,8,0,0,0-2.27,1.84l-.08,0A7.66,7.66,0,0,1,26,63.48Z"/><polygon points="25.98 63.61 25.92 63.5 26 63.45 26.07 63.56 25.98 63.61"/><path d="M23.75,65.43a11.67,11.67,0,0,0-.85,3.95h0a11.55,11.55,0,0,1,.81-4Z"/><polygon points="23.72 65.47 23.64 65.42 23.7 65.33 23.78 65.38 23.72 65.47"/><path d="M22.91,69.38c0,.46-.21,1.42-.2,2.2h0c0-.78.13-1.74.15-2.2Z"/><rect x="22.86" y="69.33" width="0.04" height="0.1"/><path d="M22.71,71.59c0,.42,0,3.09.87,4.58l-.08,0c-.87-1.52-.77-4.21-.79-4.63Z"/><path d="M23.57,76.18c.72,1.27,1.83,1.93,4.47,2v.09c-2.65,0-3.81-.73-4.54-2Z"/><rect x="23.49" y="76.15" width="0.1" height="0.1" transform="translate(-36.38 23.56) rotate(-31.53)"/><path d="M28,78.14c2.38,0,3.29-.57,4.11-1.62l.09.08c-.83,1.06-1.8,1.68-4.2,1.64Z"/><rect x="27.99" y="78.15" width="0.1" height="0.09"/><path d="M32.15,76.52c1-1.27,1-4,1.08-5h.12c-.06,1-.08,3.77-1.11,5.1Z"/><polygon points="32.21 76.64 32.12 76.56 32.18 76.48 32.27 76.56 32.21 76.64"/><path d="M33.23,71.49a13.17,13.17,0,0,0,0-2.2h.05a11.7,11.7,0,0,1,.08,2.21Z"/><polygon points="33.35 71.55 33.23 71.54 33.24 71.43 33.36 71.44 33.35 71.55"/></g><g id="bc84b6d4-4e77-4871-940a-8994efba307d" data-name="boca"><g id="b83b7e69-a81d-4cc1-b301-4373c09c75e4" data-name="boca"><path class="a5225818-f5ce-4ca8-b6d5-8424908f031e" d="M26.85,64.84a8.66,8.66,0,0,1,1.08-.38c.18,0,1.33-.23,1.48-.23s1.14.16,1.27.19,1.17.32,1.25.38.86.84.75,1-.75-.07-.83-.08-1.11-.17-1.25-.18l-1.21-.08c-.17,0-1.34.09-1.51.11l-1.1.12c-.07,0-.73.17-.79.09S26.69,65,26.85,64.84Z"/><path class="f26fa4d2-c402-4267-b42b-d307e798b3ce" d="M32.54,65.89a3,3,0,0,1-.59-.1l-.11,0-.55-.08c-.29,0-.62-.1-.7-.1h-.05l-1.15-.07c-.17,0-1.33.09-1.5.11s-.63.06-.92.1l-.19,0-.09,0c-.51.11-.69.12-.74,0s.86-1,.87-1h0a8.63,8.63,0,0,1,1.1-.39c.18,0,1.34-.23,1.49-.23s1.15.16,1.28.19,1.17.32,1.27.39.91.84.76,1.07A.22.22,0,0,1,32.54,65.89Zm-3.15-.49,1.15.08h.06c.08,0,.39.05.7.1l.55.08.12,0c.51.12.64.11.67.08s-.58-.81-.74-.93-1.08-.34-1.23-.38-1.13-.18-1.26-.18-1.29.17-1.47.22a10.81,10.81,0,0,0-1.06.38,3.77,3.77,0,0,0-.85.87,2.13,2.13,0,0,0,.64-.09l.1,0,.19,0c.31,0,.82-.1.92-.1S29.22,65.4,29.39,65.4ZM26,65.75h0Z"/></g><g id="ad1b22ac-70bf-4ac4-8826-1baadc0afbb1" data-name="lengua"><g class="a85e979a-6ab5-45fa-9db6-592629dd4c65"><path class="a5ec46a1-c895-4272-9292-3f78815f261f" d="M27.71,62.4a3.39,3.39,0,0,1,2-.3,2.93,2.93,0,0,1,1.5.33,1.66,1.66,0,0,1,.67,1.13,1.7,1.7,0,0,1-.7,1,3.06,3.06,0,0,1-1.72.42,3.11,3.11,0,0,1-1.69-.59,1.68,1.68,0,0,1-.59-1A1.44,1.44,0,0,1,27.71,62.4Z"/><path class="f2c92ca0-0c92-4456-b963-6dd1ddcd1649" d="M29.56,65.07h-.14a3.1,3.1,0,0,1-1.73-.61,1.65,1.65,0,0,1-.6-1,1.53,1.53,0,0,1,.59-1.07h0a3.33,3.33,0,0,1,1.95-.31h0a3,3,0,0,1,1.53.34,1.7,1.7,0,0,1,.69,1.17,1.73,1.73,0,0,1-.72,1.07A3.09,3.09,0,0,1,29.56,65.07Zm-1.82-2.63a1.43,1.43,0,0,0-.55,1,1.6,1.6,0,0,0,.57.95,3.15,3.15,0,0,0,1.67.58,3,3,0,0,0,1.68-.41,1.65,1.65,0,0,0,.68-1,1.6,1.6,0,0,0-.65-1.08,2.94,2.94,0,0,0-1.47-.32h-.05a3.29,3.29,0,0,0-1.88.29Z"/></g></g><g id="bea0c920-a135-4a38-978e-d3fdcdbbfd80" data-name="dientes"><g class="a85e979a-6ab5-45fa-9db6-592629dd4c65"><path class="a99f951c-6cf7-40a9-9485-ec9255aa7ff2" d="M25,70.59a2.7,2.7,0,0,0,1.32,1,9.83,9.83,0,0,0,5.93.11,2.81,2.81,0,0,0,1.39-1,4,4,0,0,0,.15-1.53H24.93A3.48,3.48,0,0,0,25,70.59Z"/><path d="M29.44,72.17a9,9,0,0,1-3.17-.52,2.62,2.62,0,0,1-1.34-1,3.26,3.26,0,0,1-.05-1.37,0,0,0,0,1,.05,0h4.29c4.55,0,4.55,0,4.57,0l0,0a3.9,3.9,0,0,1-.16,1.55,2.89,2.89,0,0,1-1.41,1A9.15,9.15,0,0,1,29.44,72.17ZM25,69.29A3.09,3.09,0,0,0,25,70.56h0a2.54,2.54,0,0,0,1.29,1,9.73,9.73,0,0,0,5.9.11,2.7,2.7,0,0,0,1.35-.93,3.62,3.62,0,0,0,.15-1.45H25Z"/></g><g class="a85e979a-6ab5-45fa-9db6-592629dd4c65"><path class="a99f951c-6cf7-40a9-9485-ec9255aa7ff2" d="M33.78,61.21a2.72,2.72,0,0,0-1.33-1,9.8,9.8,0,0,0-5.92-.11,2.76,2.76,0,0,0-1.39,1A3.79,3.79,0,0,0,25,62.51s3,0,4.31,0l4.52,0A3.62,3.62,0,0,0,33.78,61.21Z"/><path d="M29.33,62.58H26.69c-1.72,0-1.72,0-1.72-.06A3.71,3.71,0,0,1,25.1,61a2.8,2.8,0,0,1,1.41-1,9.85,9.85,0,0,1,6,.12,2.6,2.6,0,0,1,1.35,1h0a3.55,3.55,0,0,1,.08,1.32.05.05,0,0,1,0,.05Zm-4.26-.12,4.26,0,4.47,0a3.25,3.25,0,0,0-.07-1.22h0a2.59,2.59,0,0,0-1.29-1,9.73,9.73,0,0,0-5.9-.11,2.66,2.66,0,0,0-1.35.93A3.32,3.32,0,0,0,25.07,62.46Z"/></g></g></g><g id="a83dedaa-8e09-4675-a847-359baae2f54f" data-name="ojos"><g id="ab3970a8-1b74-40f0-b5cf-4577b8bf441d" data-name="ojos"><path class="a99f951c-6cf7-40a9-9485-ec9255aa7ff2" d="M32.84,69.75h-.79l-.76,0a1.3,1.3,0,0,0-.5.12,1.24,1.24,0,0,0-.31.54,3.5,3.5,0,0,0,0,.57,2.31,2.31,0,0,0,.55.43,1.93,1.93,0,0,0,1,.2,2.06,2.06,0,0,0,1-.28,1.34,1.34,0,0,0,.38-.47,1.23,1.23,0,0,0,0-.47,1,1,0,0,0-.25-.53A.56.56,0,0,0,32.84,69.75Z"/><path d="M33.45,70.86a1.35,1.35,0,0,1-.37.53L33,71.23a1.28,1.28,0,0,0,.38-.4Z"/><polygon points="33.43 70.91 33.34 70.88 33.37 70.78 33.46 70.81 33.43 70.91"/><path d="M33.07,71.39a2.19,2.19,0,0,1-1,.32v-.26a2,2,0,0,0,1-.22Z"/><polygon points="33.03 71.42 32.92 71.26 33 71.2 33.11 71.37 33.03 71.42"/><path d="M32,71.7A2.2,2.2,0,0,1,31,71.47l.09-.18a1.68,1.68,0,0,0,1,.16Z"/><rect x="31.96" y="71.45" width="0.1" height="0.25" transform="translate(-2.74 1.29) rotate(-2.21)"/><path d="M30.94,71.47a1.82,1.82,0,0,1-.55-.51l.08,0a3.91,3.91,0,0,0,.56.36Z"/><rect x="30.88" y="71.33" width="0.2" height="0.1" transform="translate(-46.72 67.17) rotate(-63.43)"/><path d="M31.28,69.69H32v.12c-.29,0-.75,0-.75,0Z"/><polygon points="31.24 69.78 31.23 69.71 31.33 69.69 31.34 69.76 31.24 69.78"/><path d="M32.05,69.7h.8l0,.09-.79,0Z"/><rect x="31.99" y="69.69" width="0.1" height="0.12"/><path class="a99f951c-6cf7-40a9-9485-ec9255aa7ff2" d="M25.86,69.63h.93l.8,0a1.19,1.19,0,0,1,.34.15,1.17,1.17,0,0,1,.26.45,4.77,4.77,0,0,1,.06.62,4,4,0,0,1-.6.43,2.72,2.72,0,0,1-1,.21,2.13,2.13,0,0,1-1-.27,1.39,1.39,0,0,1-.51-.59,1.24,1.24,0,0,1,.09-.46.89.89,0,0,1,.25-.42A1.74,1.74,0,0,1,25.86,69.63Z"/><path d="M25.19,70.66c0,.13.33.41.51.52l-.12.18a1.51,1.51,0,0,1-.5-.67Z"/><polygon points="25.09 70.74 25.07 70.64 25.17 70.62 25.19 70.72 25.09 70.74"/><path d="M25.7,71.19a2,2,0,0,0,.91.23v.25a2.29,2.29,0,0,1-1-.31Z"/><polygon points="25.62 71.39 25.53 71.34 25.66 71.15 25.74 71.21 25.62 71.39"/><path d="M26.61,71.42a2.65,2.65,0,0,0,1-.17l.08.18a2.73,2.73,0,0,1-1.08.24Z"/><polygon points="26.65 71.67 26.55 71.67 26.56 71.42 26.66 71.43 26.65 71.67"/><path d="M27.61,71.25c.18-.08.6-.38.59-.36l.08,0a2.68,2.68,0,0,1-.6.5Z"/><polygon points="27.63 71.45 27.55 71.27 27.64 71.23 27.72 71.41 27.63 71.45"/><path d="M27.57,69.72h-.79V69.6l.81.05Z"/><polygon points="27.61 69.74 27.52 69.72 27.54 69.63 27.64 69.66 27.61 69.74"/><path d="M26.79,69.72l-.92,0,0-.08s.57,0,.94,0Z"/><rect x="26.74" y="69.61" width="0.1" height="0.11"/><path d="M33.42,70.8a.63.63,0,0,1,.24.14l-.12.12-.18-.18Z"/><path d="M33.66,70.94a1.28,1.28,0,0,1,.25.32l-.19.09a.85.85,0,0,0-.18-.29Z"/><polygon points="33.58 71.09 33.51 71.03 33.62 70.91 33.69 70.97 33.58 71.09"/><path d="M25.15,70.74a.81.81,0,0,0-.27.07l-.08-.13a.68.68,0,0,1,.33-.05Z"/><path d="M24.87,70.81c-.12.07-.15.19-.22.33l-.19-.09a.84.84,0,0,1,.33-.37Z"/><polygon points="24.83 70.83 24.75 70.7 24.83 70.65 24.91 70.78 24.83 70.83"/></g><g id="b8c4b8df-3552-4e67-ad82-6990f6450702" data-name="pupilas"><g class="f26af7cf-9a67-4823-84a8-aad67a4457d8"><g class="b2168b58-1f13-4ec3-8c88-d103eb74b65c"><rect class="edc5e591-4312-4234-bac9-81b337e81e54" x="31.12" y="70.03" width="1.19" height="1.12"/><ellipse class="edc5e591-4312-4234-bac9-81b337e81e54" cx="31.15" cy="70.93" rx="0.71" ry="0.68"/><ellipse class="f92c203b-1df5-4a4a-b033-3e3c449d1a4e" cx="31.15" cy="70.93" rx="0.71" ry="0.67"/><ellipse class="e45226bc-94e8-4893-9346-14c9d635bbf9" cx="31.15" cy="70.93" rx="0.7" ry="0.67"/><ellipse class="e17cabc9-0670-4137-9953-6c61c3f46763" cx="31.15" cy="70.93" rx="0.7" ry="0.66"/><ellipse class="f56c11fe-efed-4a59-87ca-ee8d90a3f6b0" cx="31.15" cy="70.93" rx="0.7" ry="0.66"/><ellipse class="b5c08d83-12a3-4bb4-8e13-b43f26540d5f" cx="31.15" cy="70.93" rx="0.69" ry="0.65"/><ellipse class="b1cd5362-3ad7-416b-8f24-df80b0771270" cx="31.15" cy="70.93" rx="0.69" ry="0.65"/><ellipse class="ef63dcbd-47a6-4737-9cb9-f52ad343b1c1" cx="31.15" cy="70.93" rx="0.68" ry="0.65"/><ellipse class="bf9365e4-acb9-4336-b9fa-b61f58298c87" cx="31.15" cy="70.93" rx="0.68" ry="0.64"/><ellipse class="b1c003da-9f5d-47d3-8373-2254669e364d" cx="31.15" cy="70.93" rx="0.67" ry="0.64"/><ellipse class="bf503ce8-e07e-4c53-80f2-51fe98666a68" cx="31.15" cy="70.93" rx="0.67" ry="0.63"/><ellipse class="b020b6ae-2eb2-447c-8d71-1ed4ee8b812f" cx="31.15" cy="70.93" rx="0.66" ry="0.63"/><ellipse class="e33de902-d1e1-4c4c-aabb-dc29b7c67cd8" cx="31.15" cy="70.93" rx="0.66" ry="0.62"/><ellipse class="b2a75f90-e17e-4ca6-be63-9063f196c8ef" cx="31.15" cy="70.93" rx="0.65" ry="0.62"/><ellipse class="eac6c1fa-f846-4fcd-a639-872afb86f922" cx="31.15" cy="70.93" rx="0.65" ry="0.62"/><ellipse class="b8b4580f-3a74-4270-8460-44f79143e4bd" cx="31.15" cy="70.93" rx="0.65" ry="0.61"/><ellipse class="bbdfb9a8-e5ba-4d66-92ce-346e701362ec" cx="31.15" cy="70.93" rx="0.64" ry="0.61"/><ellipse class="b7fd1ee8-c250-4ee2-b89a-2b22e1acfefb" cx="31.15" cy="70.93" rx="0.64" ry="0.6"/><ellipse class="aab36f0d-4970-4ec4-be65-fc59f3d64575" cx="31.15" cy="70.93" rx="0.63" ry="0.6"/><ellipse class="b6af84b7-285c-41be-a10f-5b919627a05b" cx="31.15" cy="70.93" rx="0.63" ry="0.59"/><ellipse class="a0a4c819-7d81-4abe-9fe2-a0bf267ba26d" cx="31.15" cy="70.93" rx="0.62" ry="0.59"/><ellipse class="f234c6da-342d-4311-a866-921f672eb373" cx="31.15" cy="70.93" rx="0.62" ry="0.59"/><ellipse class="f1964645-9b9a-428c-bcba-d8c11b77c294" cx="31.15" cy="70.93" rx="0.61" ry="0.58"/><ellipse class="b58293b0-2644-4a15-ae8a-d1a92d91e918" cx="31.15" cy="70.93" rx="0.61" ry="0.58"/><ellipse class="b9cf7b32-25f0-41a1-8b85-6358990ad55c" cx="31.15" cy="70.93" rx="0.6" ry="0.57"/><ellipse class="b476f6f0-3f88-4cd3-968f-7a353c2e949b" cx="31.15" cy="70.93" rx="0.6" ry="0.57"/><ellipse class="eed58913-2c01-404a-a43f-74afa242ea31" cx="31.15" cy="70.93" rx="0.6" ry="0.56"/><ellipse class="b11dae28-e467-49e4-9abf-6cee7806b84b" cx="31.15" cy="70.93" rx="0.59" ry="0.56"/><ellipse class="b2ce5e17-f79f-40c7-865d-16eac9310b79" cx="31.15" cy="70.93" rx="0.59" ry="0.56"/><ellipse class="f0f401a2-88eb-4e09-8259-35e43f0366f9" cx="31.15" cy="70.93" rx="0.58" ry="0.55"/><ellipse class="e0bda333-ce8c-4945-b601-14d5274f83f6" cx="31.15" cy="70.93" rx="0.58" ry="0.55"/><ellipse class="eb2bb57a-d4ce-4951-bd11-669d7898577a" cx="31.15" cy="70.93" rx="0.57" ry="0.54"/><ellipse class="b6a65e56-eb28-4bdb-abbc-cfb6fcfdae3b" cx="31.15" cy="70.93" rx="0.57" ry="0.54"/><ellipse class="e3402a6c-7b9e-4c72-af10-95c01accb8df" cx="31.15" cy="70.93" rx="0.56" ry="0.53"/><ellipse class="ba13f2b4-25ac-4ca7-89c0-024d06c6649b" cx="31.15" cy="70.93" rx="0.56" ry="0.53"/><ellipse class="a10275c2-2c36-4624-be27-72b77be3716c" cx="31.15" cy="70.93" rx="0.56" ry="0.53"/><ellipse class="eef812ce-2e0a-4c4a-98bf-224e3ec0c316" cx="31.15" cy="70.93" rx="0.55" ry="0.52"/><ellipse class="ea325463-e01d-4312-bbf0-34a4a25deb6b" cx="31.15" cy="70.93" rx="0.55" ry="0.52"/><ellipse class="a9456c88-02a3-4d6e-89e4-f4ee9ed9253f" cx="31.15" cy="70.93" rx="0.54" ry="0.51"/><ellipse class="fa2d7310-5c0b-4b36-8c51-3b925934140d" cx="31.15" cy="70.93" rx="0.54" ry="0.51"/><ellipse class="af1a20e7-41c9-469a-9843-eec9b2896517" cx="31.15" cy="70.93" rx="0.53" ry="0.5"/><ellipse class="b00656a9-cfc6-4377-9b56-da65cf2e1d7d" cx="31.15" cy="70.93" rx="0.53" ry="0.5"/><ellipse class="efb9e052-5eca-4a00-b449-4b3b1370ef8a" cx="31.15" cy="70.93" rx="0.52" ry="0.5"/><ellipse class="e637181b-b7c8-481e-9ef4-8761d4ffd50a" cx="31.15" cy="70.93" rx="0.52" ry="0.49"/><ellipse class="b1b14540-dce8-410b-8dad-888226517859" cx="31.15" cy="70.93" rx="0.51" ry="0.49"/><ellipse class="f7df3d0f-1043-4b63-9d58-1a16b4012721" cx="31.15" cy="70.93" rx="0.51" ry="0.48"/><ellipse class="b14a0443-07db-4c8f-97ea-a582fcefac65" cx="31.15" cy="70.93" rx="0.51" ry="0.48"/><ellipse class="a3c01da2-879e-4a6f-86f6-b2fab8ddee0a" cx="31.15" cy="70.93" rx="0.5" ry="0.47"/><ellipse class="be665b26-5683-4c48-ae8c-7733ef683cb0" cx="31.15" cy="70.93" rx="0.5" ry="0.47"/><ellipse class="ad39387c-ed4f-465f-9d4d-0754be1fc528" cx="31.15" cy="70.93" rx="0.49" ry="0.47"/><ellipse class="b9ed81c4-5fab-460f-8cb1-a705ce0e2733" cx="31.15" cy="70.93" rx="0.49" ry="0.46"/><ellipse class="b1d917cd-e3bd-4ffc-bbf6-d4e9cb422981" cx="31.15" cy="70.93" rx="0.48" ry="0.46"/><ellipse class="bf54c0b5-3132-4d36-bbff-aaec34055676" cx="31.15" cy="70.93" rx="0.48" ry="0.45"/><ellipse class="b1324b4c-5e63-4e88-a098-e3b189ef109f" cx="31.15" cy="70.93" rx="0.47" ry="0.45"/><ellipse class="add7b865-755b-4b22-bdcc-ed88efefab50" cx="31.15" cy="70.93" rx="0.47" ry="0.44"/><ellipse class="fe7ef1a0-6321-48a2-bc70-b46d555b6fba" cx="31.15" cy="70.93" rx="0.46" ry="0.44"/><ellipse class="af2de091-f30b-443c-8dd9-2556e425c455" cx="31.15" cy="70.93" rx="0.46" ry="0.44"/><ellipse class="f26a2620-658b-49af-89b0-cdb59536dcb0" cx="31.15" cy="70.93" rx="0.46" ry="0.43"/><ellipse class="b9e5fe89-603c-4b2d-b478-24eb76af9fd4" cx="31.15" cy="70.93" rx="0.45" ry="0.43"/><ellipse class="aa1d2981-ced6-4e84-9520-561b4d7773b3" cx="31.15" cy="70.93" rx="0.45" ry="0.42"/><ellipse class="be9ba3bb-2f1e-4dc1-a38f-f13b33cb9a29" cx="31.15" cy="70.93" rx="0.44" ry="0.42"/><ellipse class="b8b962ec-fd40-49d0-aea4-cf9b863c0d13" cx="31.15" cy="70.93" rx="0.44" ry="0.41"/><ellipse class="b61430eb-0f12-46ff-b7fa-44bb1ada72c5" cx="31.15" cy="70.93" rx="0.43" ry="0.41"/><ellipse class="e2c84ea4-4852-4355-8c6c-6e233af5d5a6" cx="31.15" cy="70.93" rx="0.43" ry="0.41"/><ellipse class="b3958a10-ed3f-49f0-b0d8-76da417fcdad" cx="31.15" cy="70.93" rx="0.42" ry="0.4"/><ellipse class="a83c0e07-e9d8-44fd-a3a0-2da1d51a2085" cx="31.15" cy="70.93" rx="0.42" ry="0.4"/><ellipse class="bb87d2e4-fcd2-4271-82ad-878515b3c169" cx="31.15" cy="70.93" rx="0.42" ry="0.39"/><ellipse class="a6537e6f-6d9d-4cb1-8763-ca3727d5ee98" cx="31.15" cy="70.93" rx="0.41" ry="0.39"/><ellipse class="a7f3a520-b46b-426c-a90c-a7b5db85ab40" cx="31.15" cy="70.93" rx="0.41" ry="0.38"/><ellipse class="ee965caa-e6cc-426f-ab33-eec5fbb6a7ec" cx="31.15" cy="70.93" rx="0.4" ry="0.38"/><ellipse class="a21fb792-91bb-4fe7-a6c7-b52ae4768b1e" cx="31.15" cy="70.93" rx="0.4" ry="0.38"/><ellipse class="f78f2986-a8cc-4fcb-b8a5-098b62d8d63a" cx="31.15" cy="70.93" rx="0.39" ry="0.37"/><ellipse class="bbe12140-744c-406e-9b4d-8f0a417c11d9" cx="31.15" cy="70.93" rx="0.39" ry="0.37"/><ellipse class="bcbb9258-7e66-4c68-a779-0bb104b6b5c5" cx="31.15" cy="70.93" rx="0.38" ry="0.36"/><ellipse class="b3a318b1-27e0-4de6-b879-7c8148e98b6c" cx="31.15" cy="70.93" rx="0.38" ry="0.36"/><ellipse class="b8d3c5c2-e6ac-4399-abd4-e962791c7dcc" cx="31.15" cy="70.93" rx="0.37" ry="0.36"/><ellipse class="b7977159-b46e-419a-ba3b-e1c91c56d74e" cx="31.15" cy="70.93" rx="0.37" ry="0.35"/><ellipse class="a6072069-6901-405e-b54d-6b4cd49fcca9" cx="31.15" cy="70.93" rx="0.37" ry="0.35"/><ellipse class="f20a1418-ccd5-427f-8044-bad6bbce7b2f" cx="31.15" cy="70.93" rx="0.36" ry="0.34"/><ellipse class="b3c4a099-dda6-45d7-8ff3-b00571a37d79" cx="31.15" cy="70.93" rx="0.36" ry="0.34"/><ellipse class="bd223177-fcb8-46b1-a225-77f5a9b3ae4f" cx="31.15" cy="70.93" rx="0.35" ry="0.33"/><ellipse class="f225dd73-4db6-43ef-88e2-cbb19aefd073" cx="31.15" cy="70.93" rx="0.35" ry="0.33"/><ellipse class="eb51a90b-da83-4888-b8cd-cfa8fd2251df" cx="31.15" cy="70.93" rx="0.34" ry="0.33"/><ellipse class="eed8c32d-5eee-45d2-bb98-4d39d8be978a" cx="31.15" cy="70.93" rx="0.34" ry="0.32"/><ellipse class="e536c311-eb79-4ea6-b0d5-9492f2796f38" cx="31.15" cy="70.93" rx="0.33" ry="0.32"/><ellipse class="a2bb6be2-44b7-4980-a1a0-23fa9f22a7ff" cx="31.15" cy="70.93" rx="0.33" ry="0.31"/><ellipse class="fdb8c099-f357-4e73-a31a-6485235f2b68" cx="31.15" cy="70.93" rx="0.33" ry="0.31"/><ellipse class="eb3ecf20-f082-440f-b308-f0dae21e49b4" cx="31.15" cy="70.93" rx="0.32" ry="0.3"/><ellipse class="a61b3ffa-deb4-4c0d-b4dd-4cdf38079eb3" cx="31.15" cy="70.93" rx="0.32" ry="0.3"/><ellipse class="e9e51d36-4679-4acb-9841-46f52597aca8" cx="31.15" cy="70.93" rx="0.31" ry="0.3"/><ellipse class="a1f1f73e-8904-4604-a2f9-c75cce0be3f7" cx="31.15" cy="70.93" rx="0.31" ry="0.29"/><ellipse class="a185ed40-6ada-4f94-93db-7160fc4d1856" cx="31.15" cy="70.93" rx="0.3" ry="0.29"/><ellipse class="bc6ce3f5-a236-4107-9407-ceb2294c0fc0" cx="31.15" cy="70.93" rx="0.3" ry="0.28"/><ellipse class="b5e30409-4b69-4bde-b46a-118ca29d5bf8" cx="31.15" cy="70.93" rx="0.29" ry="0.28"/><ellipse class="a0778a35-e94f-44ff-882a-081170579a2e" cx="31.15" cy="70.93" rx="0.29" ry="0.27"/><ellipse class="bb560d2b-9aaa-4cf6-b92f-09f1bab4697a" cx="31.15" cy="70.93" rx="0.28" ry="0.27"/><ellipse class="b13463ba-2a3c-4e1c-b480-eda82678f598" cx="31.15" cy="70.93" rx="0.28" ry="0.27"/><ellipse class="a8a67c29-24d9-459e-8432-304623d743f1" cx="31.15" cy="70.93" rx="0.28" ry="0.26"/><ellipse class="b19f4630-a63c-41f7-9f91-96ae9b78cb13" cx="31.15" cy="70.93" rx="0.27" ry="0.26"/><ellipse class="b12b6326-aa35-4ce7-a058-52208ce74c72" cx="31.15" cy="70.93" rx="0.27" ry="0.25"/><ellipse class="a26c19bc-4704-46c1-a6a5-e218eeaf10de" cx="31.15" cy="70.93" rx="0.26" ry="0.25"/><ellipse class="aacb7cdd-41f9-4466-a150-9967bf444e5d" cx="31.15" cy="70.93" rx="0.26" ry="0.24"/><ellipse class="e4d37ac8-9d5b-4fc0-8b3c-eb29e82d8a2d" cx="31.15" cy="70.93" rx="0.25" ry="0.24"/><ellipse class="f9a4f396-156c-4c1e-b079-35a9dd15e72b" cx="31.15" cy="70.93" rx="0.25" ry="0.24"/><ellipse class="ea351a94-f9ce-4868-b6d7-b1b9b870be7b" cx="31.15" cy="70.93" rx="0.24" ry="0.23"/><ellipse class="f6461509-2537-470c-ae10-5d13afe88e13" cx="31.15" cy="70.93" rx="0.24" ry="0.23"/><ellipse class="a5aff851-be85-494b-ae77-a00190df4d7e" cx="31.15" cy="70.93" rx="0.23" ry="0.22"/><ellipse class="fab3f7e8-40c1-4049-a411-99bcb293980d" cx="31.15" cy="70.93" rx="0.23" ry="0.22"/><ellipse class="f6690f6d-346a-43f9-b18e-96b7912c5656" cx="31.15" cy="70.93" rx="0.23" ry="0.21"/><ellipse class="f5356f37-70f6-4f0e-88c9-dc2194a39145" cx="31.15" cy="70.93" rx="0.22" ry="0.21"/><ellipse class="e70e1af4-f3ab-4c82-a6a4-25c742ae1030" cx="31.15" cy="70.93" rx="0.22" ry="0.21"/><ellipse class="ed43ba81-1dfb-4fcd-88d3-0ce981b4f1db" cx="31.15" cy="70.93" rx="0.21" ry="0.2"/><ellipse class="bebeb7fc-4eab-47bb-a684-c4a2badee840" cx="31.15" cy="70.93" rx="0.21" ry="0.2"/><ellipse class="be828a2d-4ab8-4349-bb59-3693c112773e" cx="31.15" cy="70.93" rx="0.2" ry="0.19"/><ellipse class="b6fb6cef-4f9b-427f-92b9-dd22d7065d37" cx="31.15" cy="70.93" rx="0.2" ry="0.19"/><ellipse class="f3bce8de-2760-40b7-ae55-60517301daa8" cx="31.15" cy="70.93" rx="0.19" ry="0.18"/><ellipse class="aa40dda3-8371-41e1-a368-9f8365964b4c" cx="31.15" cy="70.93" rx="0.19" ry="0.18"/><ellipse class="f89fb47f-5848-4793-9060-5dac122b3577" cx="31.15" cy="70.93" rx="0.19" ry="0.18"/><ellipse class="b5c5df26-e8fd-4651-9bdd-f075d930a1f2" cx="31.15" cy="70.93" rx="0.18" ry="0.17"/><ellipse class="e0b60d8c-7dc3-41e6-8be7-1c08665ed467" cx="31.15" cy="70.93" rx="0.18" ry="0.17"/><ellipse class="ef7e3808-c5ae-45a4-9dc4-a653e4521fc5" cx="31.15" cy="70.93" rx="0.17" ry="0.16"/><ellipse class="a8067eb2-1985-490a-a0a5-5ea68385f1d9" cx="31.15" cy="70.93" rx="0.17" ry="0.16"/><ellipse class="ae0147c0-a458-470a-b7e0-c8d7d5aea8d2" cx="31.15" cy="70.93" rx="0.16" ry="0.15"/><ellipse class="b5640d82-6ad1-4b1c-b77d-3890aa8ace49" cx="31.15" cy="70.93" rx="0.16" ry="0.15"/><ellipse class="a4a24403-5b30-4780-959f-72772becdda6" cx="31.15" cy="70.93" rx="0.15" ry="0.15"/><ellipse class="ee6ba112-1eb1-4188-82dd-ed72cbca037d" cx="31.15" cy="70.93" rx="0.15" ry="0.14"/><ellipse class="fcf66234-caef-4bce-84a3-6a20ee44477e" cx="31.15" cy="70.93" rx="0.14" ry="0.14"/><ellipse class="a9f888db-a7c6-43d8-bc7f-f1f4920dc0bb" cx="31.15" cy="70.93" rx="0.14" ry="0.13"/><ellipse class="b3aa1242-a694-477d-9f8b-9d07cce57e2f" cx="31.15" cy="70.93" rx="0.14" ry="0.13"/><ellipse class="f8fe759f-295e-4e90-a915-483dca97ba72" cx="31.15" cy="70.93" rx="0.13" ry="0.12"/><ellipse class="b8d89e91-709e-46e8-b353-ecdbfb48938c" cx="31.15" cy="70.93" rx="0.13" ry="0.12"/><ellipse class="f51cebaf-1a39-4e32-bd25-771eff3e7e6d" cx="31.15" cy="70.93" rx="0.12" ry="0.12"/><ellipse class="ae4ff4e6-f6cc-4739-849b-d8a11bfa2364" cx="31.15" cy="70.93" rx="0.12" ry="0.11"/><ellipse class="b5bc86cd-7834-4b49-87ce-1ce6e683ba06" cx="31.15" cy="70.93" rx="0.11" ry="0.11"/><ellipse class="bc36cc19-c3c6-4268-bdaa-0c8d8581b5c4" cx="31.15" cy="70.93" rx="0.11" ry="0.1"/><ellipse class="a97b55d9-cec6-4d6e-9b2b-d5eda9ab1123" cx="31.15" cy="70.93" rx="0.1" ry="0.1"/><ellipse class="e75cd1b0-8ecd-4f85-8241-1bbf59a5e20f" cx="31.15" cy="70.93" rx="0.1" ry="0.09"/><ellipse class="b389d56d-5865-49c0-bc5a-a7267be34cd3" cx="31.15" cy="70.93" rx="0.09" ry="0.09"/><ellipse class="a003900f-2140-4b7b-baad-aac0c8d10c16" cx="31.15" cy="70.93" rx="0.09" ry="0.09"/><ellipse class="b793569d-331f-40d3-afff-47a6c2662c13" cx="31.15" cy="70.93" rx="0.09" ry="0.08"/><ellipse class="af2a35c3-ee55-4b7f-9fab-e695f836f14d" cx="31.15" cy="70.93" rx="0.08" ry="0.08"/><ellipse class="fdd107a1-791d-41ee-97f3-b5003882d7e7" cx="31.15" cy="70.93" rx="0.08" ry="0.07"/><circle class="a06ce1d9-d2cc-46d0-a470-31e82e32fa3d" cx="31.15" cy="70.93" r="0.07"/><circle class="b0c5eb4d-9d21-49e8-b8b9-a0c8fab62aa0" cx="31.15" cy="70.93" r="0.07"/><circle class="af19d6b4-eef2-44e8-bc69-41766703eff8" cx="31.15" cy="70.93" r="0.06"/><circle class="acfb17d8-15e3-4750-bb3b-f19ef3e79bec" cx="31.15" cy="70.93" r="0.06"/><circle class="abd5640a-ed6f-4ef1-98af-197816539ec7" cx="31.15" cy="70.93" r="0.05"/><circle class="a66828f6-0c93-4380-a8a9-26a1fed8cdc9" cx="31.15" cy="70.93" r="0.05"/><circle class="aa3f6f4c-34e5-4a61-9caa-554033ccb7bb" cx="31.15" cy="70.93" r="0.05"/><circle class="be76fbf0-f535-418b-b102-a0d018df4b46" cx="31.15" cy="70.93" r="0.04"/><path class="a75e99b1-b28a-49ec-8138-2744bcb4df45" d="M31.18,70.93a0,0,0,0,0,0,0s0,0,0,0,0,0,0,0A0,0,0,0,0,31.18,70.93Z"/><path class="b9892dc5-39a1-481e-a4d2-7ecc5e9557c9" d="M31.18,70.93a0,0,0,0,0,0,0s0,0,0,0,0,0,0,0A0,0,0,0,0,31.18,70.93Z"/><path class="b8c04a3d-3891-41d9-b1e6-5972b87da008" d="M31.17,70.93a0,0,0,0,0,0,0s0,0,0,0a0,0,0,0,0,0,0S31.17,70.94,31.17,70.93Z"/><path class="feea1741-060f-47c1-b136-d8f8e38f41b4" d="M31.17,70.93a0,0,0,0,0,0,0s0,0,0,0,0,0,0,0A0,0,0,0,0,31.17,70.93Z"/><path class="b814a9cc-aa1c-44d2-aaa1-bc2cd32c37e1" d="M31.16,70.93a0,0,0,0,0,0,0,0,0,0,0,0,0,0l0,0Z"/><path class="ee5f7aad-d3fc-4c51-b103-002a91dfbaab" d="M31.16,70.93a0,0,0,0,0,0,0s0,0,0,0h0Z"/><path class="af31356b-2eb1-4c66-9886-ed9cead6f798" d="M31.15,70.93h0a0,0,0,0,0,0,0h0Z"/><polygon class="fa6538ff-eff1-441d-842d-37592caf9567" points="31.15 70.93 31.14 70.93 31.14 70.93 31.14 70.94 31.15 70.93"/></g><path d="M31.72,71.2a.61.61,0,1,1,.64-.6A.62.62,0,0,1,31.72,71.2Zm0-1.12a.51.51,0,1,0,0,1,.52.52,0,0,0,.54-.5A.53.53,0,0,0,31.72,70.08Z"/></g><g class="f26af7cf-9a67-4823-84a8-aad67a4457d8"><g class="bef2b6e5-bebf-4d87-bd31-7081919fec9e"><rect class="edc5e591-4312-4234-bac9-81b337e81e54" x="25.9" y="70.04" width="1.21" height="1.09"/><ellipse class="edc5e591-4312-4234-bac9-81b337e81e54" cx="25.31" cy="70.93" rx="0.74" ry="0.68"/><ellipse class="f92c203b-1df5-4a4a-b033-3e3c449d1a4e" cx="25.31" cy="70.93" rx="0.74" ry="0.67"/><ellipse class="e45226bc-94e8-4893-9346-14c9d635bbf9" cx="25.31" cy="70.93" rx="0.73" ry="0.67"/><ellipse class="e17cabc9-0670-4137-9953-6c61c3f46763" cx="25.31" cy="70.93" rx="0.73" ry="0.66"/><ellipse class="f56c11fe-efed-4a59-87ca-ee8d90a3f6b0" cx="25.31" cy="70.93" rx="0.72" ry="0.66"/><ellipse class="b5c08d83-12a3-4bb4-8e13-b43f26540d5f" cx="25.31" cy="70.93" rx="0.72" ry="0.65"/><ellipse class="b1cd5362-3ad7-416b-8f24-df80b0771270" cx="25.31" cy="70.93" rx="0.71" ry="0.65"/><ellipse class="ef63dcbd-47a6-4737-9cb9-f52ad343b1c1" cx="25.31" cy="70.93" rx="0.71" ry="0.65"/><ellipse class="bf9365e4-acb9-4336-b9fa-b61f58298c87" cx="25.31" cy="70.93" rx="0.7" ry="0.64"/><ellipse class="b1c003da-9f5d-47d3-8373-2254669e364d" cx="25.31" cy="70.93" rx="0.7" ry="0.64"/><ellipse class="bf503ce8-e07e-4c53-80f2-51fe98666a68" cx="25.31" cy="70.93" rx="0.7" ry="0.63"/><ellipse class="b020b6ae-2eb2-447c-8d71-1ed4ee8b812f" cx="25.31" cy="70.93" rx="0.69" ry="0.63"/><ellipse class="e33de902-d1e1-4c4c-aabb-dc29b7c67cd8" cx="25.31" cy="70.93" rx="0.69" ry="0.62"/><ellipse class="b2a75f90-e17e-4ca6-be63-9063f196c8ef" cx="25.31" cy="70.93" rx="0.68" ry="0.62"/><ellipse class="eac6c1fa-f846-4fcd-a639-872afb86f922" cx="25.31" cy="70.93" rx="0.68" ry="0.62"/><ellipse class="b8b4580f-3a74-4270-8460-44f79143e4bd" cx="25.31" cy="70.93" rx="0.67" ry="0.61"/><ellipse class="bbdfb9a8-e5ba-4d66-92ce-346e701362ec" cx="25.31" cy="70.93" rx="0.67" ry="0.61"/><ellipse class="b7fd1ee8-c250-4ee2-b89a-2b22e1acfefb" cx="25.31" cy="70.93" rx="0.66" ry="0.6"/><ellipse class="aab36f0d-4970-4ec4-be65-fc59f3d64575" cx="25.31" cy="70.93" rx="0.66" ry="0.6"/><ellipse class="b6af84b7-285c-41be-a10f-5b919627a05b" cx="25.31" cy="70.93" rx="0.65" ry="0.59"/><ellipse class="a0a4c819-7d81-4abe-9fe2-a0bf267ba26d" cx="25.31" cy="70.93" rx="0.65" ry="0.59"/><ellipse class="f234c6da-342d-4311-a866-921f672eb373" cx="25.31" cy="70.93" rx="0.64" ry="0.59"/><ellipse class="f1964645-9b9a-428c-bcba-d8c11b77c294" cx="25.31" cy="70.93" rx="0.64" ry="0.58"/><ellipse class="b58293b0-2644-4a15-ae8a-d1a92d91e918" cx="25.31" cy="70.93" rx="0.63" ry="0.58"/><ellipse class="b9cf7b32-25f0-41a1-8b85-6358990ad55c" cx="25.31" cy="70.93" rx="0.63" ry="0.57"/><ellipse class="b476f6f0-3f88-4cd3-968f-7a353c2e949b" cx="25.31" cy="70.93" rx="0.62" ry="0.57"/><ellipse class="eed58913-2c01-404a-a43f-74afa242ea31" cx="25.31" cy="70.93" rx="0.62" ry="0.56"/><ellipse class="b11dae28-e467-49e4-9abf-6cee7806b84b" cx="25.31" cy="70.93" rx="0.62" ry="0.56"/><ellipse class="b2ce5e17-f79f-40c7-865d-16eac9310b79" cx="25.31" cy="70.93" rx="0.61" ry="0.56"/><ellipse class="f0f401a2-88eb-4e09-8259-35e43f0366f9" cx="25.31" cy="70.93" rx="0.61" ry="0.55"/><ellipse class="e0bda333-ce8c-4945-b601-14d5274f83f6" cx="25.31" cy="70.93" rx="0.6" ry="0.55"/><ellipse class="eb2bb57a-d4ce-4951-bd11-669d7898577a" cx="25.31" cy="70.93" rx="0.6" ry="0.54"/><ellipse class="b6a65e56-eb28-4bdb-abbc-cfb6fcfdae3b" cx="25.31" cy="70.93" rx="0.59" ry="0.54"/><ellipse class="e3402a6c-7b9e-4c72-af10-95c01accb8df" cx="25.31" cy="70.93" rx="0.59" ry="0.53"/><ellipse class="ba13f2b4-25ac-4ca7-89c0-024d06c6649b" cx="25.31" cy="70.93" rx="0.58" ry="0.53"/><ellipse class="a10275c2-2c36-4624-be27-72b77be3716c" cx="25.31" cy="70.93" rx="0.58" ry="0.53"/><ellipse class="eef812ce-2e0a-4c4a-98bf-224e3ec0c316" cx="25.31" cy="70.93" rx="0.57" ry="0.52"/><ellipse class="ea325463-e01d-4312-bbf0-34a4a25deb6b" cx="25.31" cy="70.93" rx="0.57" ry="0.52"/><ellipse class="a9456c88-02a3-4d6e-89e4-f4ee9ed9253f" cx="25.31" cy="70.93" rx="0.56" ry="0.51"/><ellipse class="fa2d7310-5c0b-4b36-8c51-3b925934140d" cx="25.31" cy="70.93" rx="0.56" ry="0.51"/><ellipse class="af1a20e7-41c9-469a-9843-eec9b2896517" cx="25.31" cy="70.93" rx="0.55" ry="0.5"/><ellipse class="b00656a9-cfc6-4377-9b56-da65cf2e1d7d" cx="25.31" cy="70.93" rx="0.55" ry="0.5"/><ellipse class="efb9e052-5eca-4a00-b449-4b3b1370ef8a" cx="25.31" cy="70.93" rx="0.54" ry="0.5"/><ellipse class="e637181b-b7c8-481e-9ef4-8761d4ffd50a" cx="25.31" cy="70.93" rx="0.54" ry="0.49"/><ellipse class="b1b14540-dce8-410b-8dad-888226517859" cx="25.31" cy="70.93" rx="0.54" ry="0.49"/><ellipse class="f7df3d0f-1043-4b63-9d58-1a16b4012721" cx="25.31" cy="70.93" rx="0.53" ry="0.48"/><ellipse class="b14a0443-07db-4c8f-97ea-a582fcefac65" cx="25.31" cy="70.93" rx="0.53" ry="0.48"/><ellipse class="a3c01da2-879e-4a6f-86f6-b2fab8ddee0a" cx="25.31" cy="70.93" rx="0.52" ry="0.47"/><ellipse class="be665b26-5683-4c48-ae8c-7733ef683cb0" cx="25.31" cy="70.93" rx="0.52" ry="0.47"/><ellipse class="ad39387c-ed4f-465f-9d4d-0754be1fc528" cx="25.31" cy="70.93" rx="0.51" ry="0.47"/><ellipse class="b9ed81c4-5fab-460f-8cb1-a705ce0e2733" cx="25.31" cy="70.93" rx="0.51" ry="0.46"/><ellipse class="b1d917cd-e3bd-4ffc-bbf6-d4e9cb422981" cx="25.31" cy="70.93" rx="0.5" ry="0.46"/><ellipse class="bf54c0b5-3132-4d36-bbff-aaec34055676" cx="25.31" cy="70.93" rx="0.5" ry="0.45"/><ellipse class="b1324b4c-5e63-4e88-a098-e3b189ef109f" cx="25.31" cy="70.93" rx="0.49" ry="0.45"/><ellipse class="add7b865-755b-4b22-bdcc-ed88efefab50" cx="25.31" cy="70.93" rx="0.49" ry="0.44"/><ellipse class="fe7ef1a0-6321-48a2-bc70-b46d555b6fba" cx="25.31" cy="70.93" rx="0.48" ry="0.44"/><ellipse class="af2de091-f30b-443c-8dd9-2556e425c455" cx="25.31" cy="70.93" rx="0.48" ry="0.44"/><ellipse class="f26a2620-658b-49af-89b0-cdb59536dcb0" cx="25.31" cy="70.93" rx="0.47" ry="0.43"/><ellipse class="b9e5fe89-603c-4b2d-b478-24eb76af9fd4" cx="25.31" cy="70.93" rx="0.47" ry="0.43"/><ellipse class="aa1d2981-ced6-4e84-9520-561b4d7773b3" cx="25.31" cy="70.93" rx="0.47" ry="0.42"/><ellipse class="be9ba3bb-2f1e-4dc1-a38f-f13b33cb9a29" cx="25.31" cy="70.93" rx="0.46" ry="0.42"/><ellipse class="b8b962ec-fd40-49d0-aea4-cf9b863c0d13" cx="25.31" cy="70.93" rx="0.46" ry="0.41"/><ellipse class="b61430eb-0f12-46ff-b7fa-44bb1ada72c5" cx="25.31" cy="70.93" rx="0.45" ry="0.41"/><ellipse class="e2c84ea4-4852-4355-8c6c-6e233af5d5a6" cx="25.31" cy="70.93" rx="0.45" ry="0.41"/><ellipse class="b3958a10-ed3f-49f0-b0d8-76da417fcdad" cx="25.31" cy="70.93" rx="0.44" ry="0.4"/><ellipse class="a83c0e07-e9d8-44fd-a3a0-2da1d51a2085" cx="25.31" cy="70.93" rx="0.44" ry="0.4"/><ellipse class="bb87d2e4-fcd2-4271-82ad-878515b3c169" cx="25.31" cy="70.93" rx="0.43" ry="0.39"/><ellipse class="a6537e6f-6d9d-4cb1-8763-ca3727d5ee98" cx="25.31" cy="70.93" rx="0.43" ry="0.39"/><ellipse class="a7f3a520-b46b-426c-a90c-a7b5db85ab40" cx="25.31" cy="70.93" rx="0.42" ry="0.38"/><ellipse class="ee965caa-e6cc-426f-ab33-eec5fbb6a7ec" cx="25.31" cy="70.93" rx="0.42" ry="0.38"/><ellipse class="a21fb792-91bb-4fe7-a6c7-b52ae4768b1e" cx="25.31" cy="70.93" rx="0.41" ry="0.38"/><ellipse class="f78f2986-a8cc-4fcb-b8a5-098b62d8d63a" cx="25.31" cy="70.93" rx="0.41" ry="0.37"/><ellipse class="bbe12140-744c-406e-9b4d-8f0a417c11d9" cx="25.31" cy="70.93" rx="0.4" ry="0.37"/><ellipse class="bcbb9258-7e66-4c68-a779-0bb104b6b5c5" cx="25.31" cy="70.93" rx="0.4" ry="0.36"/><ellipse class="b3a318b1-27e0-4de6-b879-7c8148e98b6c" cx="25.31" cy="70.93" rx="0.39" ry="0.36"/><ellipse class="b8d3c5c2-e6ac-4399-abd4-e962791c7dcc" cx="25.31" cy="70.93" rx="0.39" ry="0.36"/><ellipse class="b7977159-b46e-419a-ba3b-e1c91c56d74e" cx="25.31" cy="70.93" rx="0.39" ry="0.35"/><ellipse class="a6072069-6901-405e-b54d-6b4cd49fcca9" cx="25.31" cy="70.93" rx="0.38" ry="0.35"/><ellipse class="f20a1418-ccd5-427f-8044-bad6bbce7b2f" cx="25.31" cy="70.93" rx="0.38" ry="0.34"/><ellipse class="b3c4a099-dda6-45d7-8ff3-b00571a37d79" cx="25.31" cy="70.93" rx="0.37" ry="0.34"/><ellipse class="bd223177-fcb8-46b1-a225-77f5a9b3ae4f" cx="25.31" cy="70.93" rx="0.37" ry="0.33"/><ellipse class="f225dd73-4db6-43ef-88e2-cbb19aefd073" cx="25.31" cy="70.93" rx="0.36" ry="0.33"/><ellipse class="eb51a90b-da83-4888-b8cd-cfa8fd2251df" cx="25.31" cy="70.93" rx="0.36" ry="0.33"/><ellipse class="eed8c32d-5eee-45d2-bb98-4d39d8be978a" cx="25.31" cy="70.93" rx="0.35" ry="0.32"/><ellipse class="e536c311-eb79-4ea6-b0d5-9492f2796f38" cx="25.31" cy="70.93" rx="0.35" ry="0.32"/><ellipse class="a2bb6be2-44b7-4980-a1a0-23fa9f22a7ff" cx="25.31" cy="70.93" rx="0.34" ry="0.31"/><ellipse class="fdb8c099-f357-4e73-a31a-6485235f2b68" cx="25.31" cy="70.93" rx="0.34" ry="0.31"/><ellipse class="eb3ecf20-f082-440f-b308-f0dae21e49b4" cx="25.31" cy="70.93" rx="0.33" ry="0.3"/><ellipse class="a61b3ffa-deb4-4c0d-b4dd-4cdf38079eb3" cx="25.31" cy="70.93" rx="0.33" ry="0.3"/><ellipse class="e9e51d36-4679-4acb-9841-46f52597aca8" cx="25.31" cy="70.93" rx="0.32" ry="0.3"/><ellipse class="a1f1f73e-8904-4604-a2f9-c75cce0be3f7" cx="25.31" cy="70.93" rx="0.32" ry="0.29"/><ellipse class="a185ed40-6ada-4f94-93db-7160fc4d1856" cx="25.31" cy="70.93" rx="0.31" ry="0.29"/><ellipse class="bc6ce3f5-a236-4107-9407-ceb2294c0fc0" cx="25.31" cy="70.93" rx="0.31" ry="0.28"/><ellipse class="b5e30409-4b69-4bde-b46a-118ca29d5bf8" cx="25.31" cy="70.93" rx="0.31" ry="0.28"/><ellipse class="a0778a35-e94f-44ff-882a-081170579a2e" cx="25.31" cy="70.93" rx="0.3" ry="0.27"/><ellipse class="bb560d2b-9aaa-4cf6-b92f-09f1bab4697a" cx="25.31" cy="70.93" rx="0.3" ry="0.27"/><ellipse class="b13463ba-2a3c-4e1c-b480-eda82678f598" cx="25.31" cy="70.93" rx="0.29" ry="0.27"/><ellipse class="a8a67c29-24d9-459e-8432-304623d743f1" cx="25.31" cy="70.93" rx="0.29" ry="0.26"/><ellipse class="b19f4630-a63c-41f7-9f91-96ae9b78cb13" cx="25.31" cy="70.93" rx="0.28" ry="0.26"/><ellipse class="b12b6326-aa35-4ce7-a058-52208ce74c72" cx="25.31" cy="70.93" rx="0.28" ry="0.25"/><ellipse class="a26c19bc-4704-46c1-a6a5-e218eeaf10de" cx="25.31" cy="70.93" rx="0.27" ry="0.25"/><ellipse class="aacb7cdd-41f9-4466-a150-9967bf444e5d" cx="25.31" cy="70.93" rx="0.27" ry="0.24"/><ellipse class="e4d37ac8-9d5b-4fc0-8b3c-eb29e82d8a2d" cx="25.31" cy="70.93" rx="0.26" ry="0.24"/><ellipse class="f9a4f396-156c-4c1e-b079-35a9dd15e72b" cx="25.31" cy="70.93" rx="0.26" ry="0.24"/><ellipse class="ea351a94-f9ce-4868-b6d7-b1b9b870be7b" cx="25.31" cy="70.93" rx="0.25" ry="0.23"/><ellipse class="f6461509-2537-470c-ae10-5d13afe88e13" cx="25.31" cy="70.93" rx="0.25" ry="0.23"/><ellipse class="a5aff851-be85-494b-ae77-a00190df4d7e" cx="25.31" cy="70.93" rx="0.24" ry="0.22"/><ellipse class="fab3f7e8-40c1-4049-a411-99bcb293980d" cx="25.31" cy="70.93" rx="0.24" ry="0.22"/><ellipse class="f6690f6d-346a-43f9-b18e-96b7912c5656" cx="25.31" cy="70.93" rx="0.23" ry="0.21"/><ellipse class="f5356f37-70f6-4f0e-88c9-dc2194a39145" cx="25.31" cy="70.93" rx="0.23" ry="0.21"/><ellipse class="e70e1af4-f3ab-4c82-a6a4-25c742ae1030" cx="25.31" cy="70.93" rx="0.23" ry="0.21"/><ellipse class="ed43ba81-1dfb-4fcd-88d3-0ce981b4f1db" cx="25.31" cy="70.93" rx="0.22" ry="0.2"/><ellipse class="bebeb7fc-4eab-47bb-a684-c4a2badee840" cx="25.31" cy="70.93" rx="0.22" ry="0.2"/><ellipse class="be828a2d-4ab8-4349-bb59-3693c112773e" cx="25.31" cy="70.93" rx="0.21" ry="0.19"/><ellipse class="b6fb6cef-4f9b-427f-92b9-dd22d7065d37" cx="25.31" cy="70.93" rx="0.21" ry="0.19"/><ellipse class="f3bce8de-2760-40b7-ae55-60517301daa8" cx="25.31" cy="70.93" rx="0.2" ry="0.18"/><ellipse class="aa40dda3-8371-41e1-a368-9f8365964b4c" cx="25.31" cy="70.93" rx="0.2" ry="0.18"/><ellipse class="f89fb47f-5848-4793-9060-5dac122b3577" cx="25.31" cy="70.93" rx="0.19" ry="0.18"/><ellipse class="b5c5df26-e8fd-4651-9bdd-f075d930a1f2" cx="25.31" cy="70.93" rx="0.19" ry="0.17"/><ellipse class="e0b60d8c-7dc3-41e6-8be7-1c08665ed467" cx="25.31" cy="70.93" rx="0.18" ry="0.17"/><ellipse class="ef7e3808-c5ae-45a4-9dc4-a653e4521fc5" cx="25.31" cy="70.93" rx="0.18" ry="0.16"/><ellipse class="a8067eb2-1985-490a-a0a5-5ea68385f1d9" cx="25.31" cy="70.93" rx="0.17" ry="0.16"/><ellipse class="ae0147c0-a458-470a-b7e0-c8d7d5aea8d2" cx="25.31" cy="70.93" rx="0.17" ry="0.15"/><ellipse class="b5640d82-6ad1-4b1c-b77d-3890aa8ace49" cx="25.31" cy="70.93" rx="0.16" ry="0.15"/><ellipse class="a4a24403-5b30-4780-959f-72772becdda6" cx="25.31" cy="70.93" rx="0.16" ry="0.15"/><ellipse class="ee6ba112-1eb1-4188-82dd-ed72cbca037d" cx="25.31" cy="70.93" rx="0.16" ry="0.14"/><ellipse class="fcf66234-caef-4bce-84a3-6a20ee44477e" cx="25.31" cy="70.93" rx="0.15" ry="0.14"/><ellipse class="a9f888db-a7c6-43d8-bc7f-f1f4920dc0bb" cx="25.31" cy="70.93" rx="0.15" ry="0.13"/><ellipse class="b3aa1242-a694-477d-9f8b-9d07cce57e2f" cx="25.31" cy="70.93" rx="0.14" ry="0.13"/><ellipse class="f8fe759f-295e-4e90-a915-483dca97ba72" cx="25.31" cy="70.93" rx="0.14" ry="0.12"/><ellipse class="b8d89e91-709e-46e8-b353-ecdbfb48938c" cx="25.31" cy="70.93" rx="0.13" ry="0.12"/><ellipse class="f51cebaf-1a39-4e32-bd25-771eff3e7e6d" cx="25.31" cy="70.93" rx="0.13" ry="0.12"/><ellipse class="ae4ff4e6-f6cc-4739-849b-d8a11bfa2364" cx="25.31" cy="70.93" rx="0.12" ry="0.11"/><ellipse class="b5bc86cd-7834-4b49-87ce-1ce6e683ba06" cx="25.31" cy="70.93" rx="0.12" ry="0.11"/><ellipse class="bc36cc19-c3c6-4268-bdaa-0c8d8581b5c4" cx="25.31" cy="70.93" rx="0.11" ry="0.1"/><ellipse class="a97b55d9-cec6-4d6e-9b2b-d5eda9ab1123" cx="25.31" cy="70.93" rx="0.11" ry="0.1"/><ellipse class="e75cd1b0-8ecd-4f85-8241-1bbf59a5e20f" cx="25.31" cy="70.93" rx="0.1" ry="0.09"/><ellipse class="b389d56d-5865-49c0-bc5a-a7267be34cd3" cx="25.31" cy="70.93" rx="0.1" ry="0.09"/><ellipse class="a003900f-2140-4b7b-baad-aac0c8d10c16" cx="25.31" cy="70.93" rx="0.09" ry="0.09"/><ellipse class="b793569d-331f-40d3-afff-47a6c2662c13" cx="25.31" cy="70.93" rx="0.09" ry="0.08"/><ellipse class="af2a35c3-ee55-4b7f-9fab-e695f836f14d" cx="25.31" cy="70.93" rx="0.08" ry="0.08"/><ellipse class="fdd107a1-791d-41ee-97f3-b5003882d7e7" cx="25.31" cy="70.93" rx="0.08" ry="0.07"/><ellipse class="a06ce1d9-d2cc-46d0-a470-31e82e32fa3d" cx="25.31" cy="70.93" rx="0.08" ry="0.07"/><ellipse class="b0c5eb4d-9d21-49e8-b8b9-a0c8fab62aa0" cx="25.31" cy="70.93" rx="0.07" ry="0.06"/><ellipse class="af19d6b4-eef2-44e8-bc69-41766703eff8" cx="25.31" cy="70.93" rx="0.07" ry="0.06"/><ellipse class="acfb17d8-15e3-4750-bb3b-f19ef3e79bec" cx="25.31" cy="70.93" rx="0.06" ry="0.06"/><ellipse class="abd5640a-ed6f-4ef1-98af-197816539ec7" cx="25.31" cy="70.93" rx="0.06" ry="0.05"/><ellipse class="a66828f6-0c93-4380-a8a9-26a1fed8cdc9" cx="25.31" cy="70.93" rx="0.05" ry="0.05"/><ellipse class="aa3f6f4c-34e5-4a61-9caa-554033ccb7bb" cx="25.31" cy="70.93" rx="0.05" ry="0.04"/><circle class="be76fbf0-f535-418b-b102-a0d018df4b46" cx="25.31" cy="70.93" r="0.04"/><path class="a75e99b1-b28a-49ec-8138-2744bcb4df45" d="M25.35,70.93s0,0,0,0,0,0,0,0a0,0,0,1,0,.08,0Z"/><circle class="b9892dc5-39a1-481e-a4d2-7ecc5e9557c9" cx="25.31" cy="70.93" r="0.03"/><path class="b8c04a3d-3891-41d9-b1e6-5972b87da008" d="M25.34,70.93s0,0,0,0,0,0,0,0a0,0,0,1,0,.06,0Z"/><path class="feea1741-060f-47c1-b136-d8f8e38f41b4" d="M25.33,70.93a0,0,0,0,0,0,0,0,0,0,0,0,0,0l0,0A0,0,0,0,0,25.33,70.93Z"/><circle class="b814a9cc-aa1c-44d2-aaa1-bc2cd32c37e1" cx="25.31" cy="70.93" r="0.02"/><path class="ee5f7aad-d3fc-4c51-b103-002a91dfbaab" d="M25.32,70.93s0,0,0,0,0,0,0,0h0Z"/><path class="af31356b-2eb1-4c66-9886-ed9cead6f798" d="M25.32,70.93a0,0,0,0,0,0,0h0Z"/><circle class="fa6538ff-eff1-441d-842d-37592caf9567" cx="25.31" cy="70.93"/></g><path d="M26.51,71.18a.63.63,0,0,1-.66-.59h0a.63.63,0,0,1,.66-.6.6.6,0,1,1,0,1.19ZM26,70.59a.53.53,0,0,0,.56.49.53.53,0,0,0,.55-.49.52.52,0,0,0-.55-.5A.53.53,0,0,0,26,70.59Z"/></g></g></g><g id="f6c775a7-1434-49ce-932e-7c08c1c43deb" data-name="nariz"><path class="b1fe68f9-0fda-4466-92f7-a475d7581649" d="M28.8,69.9a3,3,0,0,1,.05-1,5.34,5.34,0,0,1,.48-.87s.42.7.5.88a4.69,4.69,0,0,1,.27,1c0,.07-.48.59-.74.57S28.84,70,28.8,69.9Z"/><path d="M29.36,70.47c.26,0,.65-.55.66-.59l.16.05c0,.1-.56.56-.82.54Z"/><path d="M30,69.88a6.65,6.65,0,0,0-.27-.89l.16-.07a4.49,4.49,0,0,1,.27,1Z"/><polygon points="30.17 69.98 30 69.93 30.03 69.83 30.2 69.88 30.17 69.98"/><path d="M29.74,69c-.07-.17-.42-.91-.42-.91h0a8.43,8.43,0,0,1,.58.85Z"/><polygon points="29.76 69.04 29.72 68.94 29.88 68.87 29.92 68.97 29.76 69.04"/></g><g id="fd584566-f002-40b5-8599-4a711749aef9" data-name="cejas"><path d="M30.63,72.54s1,.17,1.39.19V73a7.8,7.8,0,0,1-1.4-.34Z"/><path d="M32,72.73c.36,0,1.25-.07,1.25-.07v.11A7.74,7.74,0,0,1,32,73Z"/><polygon points="32.06 72.96 31.96 72.96 31.97 72.72 32.07 72.73 32.06 72.96"/><path d="M25.24,72.66s1,.07,1.35.06v.22a8.42,8.42,0,0,1-1.37-.2Z"/><path d="M26.59,72.72c.43,0,1.47-.2,1.47-.2l0,.11a9.7,9.7,0,0,1-1.48.31Z"/><polygon points="26.55 72.94 26.54 72.72 26.64 72.71 26.65 72.94 26.55 72.94"/></g><g id="f3001b4c-c97e-4591-ae5b-974926e4780f" data-name="pelo int"><path class="a9799259-4242-487a-b3e7-dbbb67a1be4a" d="M26.13,78V76.34a1.76,1.76,0,0,1-1-.27c-.73-.55-.72-1.87-.92-2.91a24.36,24.36,0,0,1-.19-3,13.57,13.57,0,0,0-.33-1.91,8.85,8.85,0,0,1,.07-3,27.43,27.43,0,0,0-3,2.41c-.23.24-.4.37-.36.79a25,25,0,0,1,0,2.74l.3.66a13.22,13.22,0,0,1,1,1.68c.16.26.37.49.52.76a5.48,5.48,0,0,1,.44,1.07l.1.27a6.32,6.32,0,0,1,1,1.13q.12.17.24.36c.43.19.85.37,1.26.58l.1,0C25.65,77.87,25.89,77.93,26.13,78Z"/><path d="M26.13,78.07h0a3.22,3.22,0,0,0-.5-.16l-.21-.06,0,0a.05.05,0,0,1,0,0l-.9-.41L24,77.23s0,0,0,0-.16-.25-.24-.36a7,7,0,0,0-1-1.13,0,0,0,0,1,0,0,1.12,1.12,0,0,0-.05-.13s0-.08-.05-.13v0a5.75,5.75,0,0,0-.42-1A4,4,0,0,0,22,74a4,4,0,0,1-.23-.34c-.09-.15-.18-.32-.28-.5a8.36,8.36,0,0,0-.72-1.17l-.15-.32c0-.11-.11-.23-.16-.35v-.4a23.24,23.24,0,0,0-.05-2.36.81.81,0,0,1,.31-.76l.06-.07a30.65,30.65,0,0,1,3.05-2.42h0a.08.08,0,0,1,0,.06c0,.16,0,.36-.06.57a6.05,6.05,0,0,0,0,2.4A11.86,11.86,0,0,1,24.08,70c0,.1,0,.18,0,.2a2.57,2.57,0,0,1,0,.36,19,19,0,0,0,.18,2.59c.05.23.08.48.11.72A3.24,3.24,0,0,0,25.19,76a1.72,1.72,0,0,0,.94.26.05.05,0,0,1,.05,0V78a.05.05,0,0,1,0,0Zm-2-.93.35.16.9.41,0,0,0,0,.21.06a4.43,4.43,0,0,1,.44.14V76.39a1.78,1.78,0,0,1-.95-.28,3.26,3.26,0,0,1-.83-2.22c0-.24-.06-.49-.11-.72A19.31,19.31,0,0,1,24,70.56a2.48,2.48,0,0,0,0-.34s0-.08,0-.2a9.81,9.81,0,0,0-.3-1.7,6.31,6.31,0,0,1,0-2.45c0-.18,0-.35.05-.5-.39.23-2.63,2.1-2.91,2.38l-.06.07a.68.68,0,0,0-.29.68,20.88,20.88,0,0,1,.05,2.37v.37l.15.34.15.31a7.82,7.82,0,0,1,.72,1.17c.09.18.18.35.27.5a4,4,0,0,0,.24.33,4.78,4.78,0,0,1,.29.44,5.43,5.43,0,0,1,.42,1l0,0a1.12,1.12,0,0,0,0,.13l0,.12a6.56,6.56,0,0,1,1,1.13Z"/></g><g id="b9a080ac-5825-4e80-b52f-9329cf1379fd" data-name="oreja Izq"><path class="b1fe68f9-0fda-4466-92f7-a475d7581649" d="M24.16,68a1.18,1.18,0,0,0-.62-.22,1.12,1.12,0,0,0-.76.24,1.13,1.13,0,0,0,.32,1.4.83.83,0,0,0,.64,0,1.23,1.23,0,0,0,.5-.51A1.46,1.46,0,0,0,24.16,68Z"/><path d="M24.26,68.88a1.51,1.51,0,0,1-.5.57l-.05-.13a1.17,1.17,0,0,0,.5-.46Z"/><path d="M23.76,69.45a1.11,1.11,0,0,1-.7,0l.06-.12a.86.86,0,0,0,.59,0Z"/><polygon points="23.71 69.46 23.66 69.34 23.75 69.3 23.81 69.42 23.71 69.46"/><path d="M23.07,69.48a1.19,1.19,0,0,1-.44-.7l.13,0a.94.94,0,0,0,.37.6Z"/><polygon points="23.11 69.49 23.03 69.44 23.09 69.33 23.18 69.38 23.11 69.49"/><path d="M22.62,68.78a1.09,1.09,0,0,1,.11-.81l.1.08a.92.92,0,0,0-.08.7Z"/><polygon points="22.63 68.83 22.61 68.73 22.74 68.7 22.76 68.8 22.63 68.83"/><path d="M22.73,68a1.15,1.15,0,0,1,.81-.26v.13a1,1,0,0,0-.71.21Z"/><polygon points="22.8 68.09 22.7 68.01 22.76 67.93 22.86 68.01 22.8 68.09"/><path d="M23.54,67.71a1.14,1.14,0,0,1,.64.27l0,0a1,1,0,0,0-.6-.18Z"/><rect x="23.49" y="67.7" width="0.1" height="0.13"/></g></g><g id="bcee1cc9-ae07-42e9-9682-992d306cbca9" data-name="mechon"><path class="a9799259-4242-487a-b3e7-dbbb67a1be4a" d="M32.47,77.83a2.36,2.36,0,0,1-.37,1.09,5.21,5.21,0,0,1-2.93,1.92,8.88,8.88,0,0,1-5.82-1.27,10.81,10.81,0,0,1-4.12-5.22,11.45,11.45,0,0,1-.13-5.73,10.34,10.34,0,0,1,2.16-4.85,7,7,0,0,1,1.67-1.14A11,11,0,0,0,22.39,65a10.67,10.67,0,0,0,.63,3.8,12.77,12.77,0,0,0,2.25,4.07,10.7,10.7,0,0,0,4.11,2.7c1.22.51,2.66.34,2.92.66A3.86,3.86,0,0,1,32.47,77.83Z"/><path d="M28,81a9.59,9.59,0,0,1-4.71-1.38,10.85,10.85,0,0,1-4.14-5.25,11.67,11.67,0,0,1-.14-5.76,10,10,0,0,1,2.18-4.87,7,7,0,0,1,1.68-1.16,0,0,0,0,1,.05,0,0,0,0,0,1,0,.06A10.53,10.53,0,0,0,22.44,65a10.68,10.68,0,0,0,.63,3.78,12.63,12.63,0,0,0,2.24,4.05,10.74,10.74,0,0,0,4.09,2.7,7,7,0,0,0,1.9.4c.53.06.91.1,1,.27a3.6,3.6,0,0,1,.18,1.67h0A2.27,2.27,0,0,1,32.14,79a5.27,5.27,0,0,1-3,1.94A6.12,6.12,0,0,1,28,81Zm-5.2-18.27A6.64,6.64,0,0,0,21.3,63.8a10.11,10.11,0,0,0-2.15,4.83,11.69,11.69,0,0,0,.13,5.71,10.68,10.68,0,0,0,4.1,5.19,8.78,8.78,0,0,0,5.78,1.26,5.06,5.06,0,0,0,2.9-1.9,2.45,2.45,0,0,0,.37-1.07h0a4,4,0,0,0-.17-1.6,2,2,0,0,0-1-.23,6.89,6.89,0,0,1-1.93-.41,10.9,10.9,0,0,1-4.12-2.72A12.86,12.86,0,0,1,23,68.78,11.14,11.14,0,0,1,22.33,65,10.44,10.44,0,0,1,22.84,62.73Z"/></g><circle class="b735ae35-bad7-4396-a6d7-c30af2bef2b6" cx="26.37" cy="70.56" r="0.6"/><path d="M26.37,71.2a.65.65,0,1,1,.65-.64A.64.64,0,0,1,26.37,71.2Zm0-1.19a.55.55,0,0,0-.54.55.55.55,0,0,0,1.09,0A.55.55,0,0,0,26.37,70Z"/><circle class="b735ae35-bad7-4396-a6d7-c30af2bef2b6" cx="31.47" cy="70.56" r="0.6"/><path d="M31.47,71.2a.65.65,0,1,1,.65-.64A.64.64,0,0,1,31.47,71.2Zm0-1.19a.55.55,0,0,0-.54.55.55.55,0,0,0,1.09,0A.55.55,0,0,0,31.47,70Z"/><path class="e7e91743-b8ef-4ae4-b0d5-595cb075aec2" d="M17.79,76.56l-2.86,4.67a.93.93,0,0,0,.22,1.21c1.49,1.13,5.13,3.81,6.24,3.94s13-2.83,16.73-3.77a.91.91,0,0,0,.55-1.31l-2.74-5.21Z"/><path class="a73e04d1-58fc-42b2-9379-9c4b76421029" d="M35.51,83.26s-1.61-6.73-2.1-7.2-3.19.63-3.19.63,1.91,2.2,2.61,7.24Z"/><path class="fc966e9b-e789-4cd4-a63d-ba0f086ca230" d="M34.86,74.27s-4.71,3.47-15.52.38l-1.55,1.91s7.6,3.67,18.14-.47Z"/><path class="a19d8ed9-8b3c-4155-bb2f-01d4c7e6dd43" d="M21.93,47.84l1-.17C20.6,42,15.12,32.7,13.72,32l-.84.85S17.14,38,21.93,47.84Z"/><rect class="e2c46a82-0e5a-4584-bd81-4c9fe9f4dec7" x="27.72" y="56.19" width="2.59" height="4.75"/><polygon class="e2c46a82-0e5a-4584-bd81-4c9fe9f4dec7" points="25.12 61.55 25.12 57.83 22.54 57.83 22.54 61.78 25.12 61.55"/><path class="e7e91743-b8ef-4ae4-b0d5-595cb075aec2" d="M30.23,61.67a13.07,13.07,0,0,1,2.69,1.16V58.08H30.23Z"/><rect class="e7e91743-b8ef-4ae4-b0d5-595cb075aec2" x="25.08" y="56.53" width="2.64" height="4.75"/><polygon class="e2c46a82-0e5a-4584-bd81-4c9fe9f4dec7" points="32.83 62.78 35.43 64.21 35.42 59.51 32.83 59.51 32.83 62.78"/><polygon class="e7e91743-b8ef-4ae4-b0d5-595cb075aec2" points="35.42 64.22 35.66 64.36 36.55 64.74 38.03 61.4 35.42 61.4 35.42 64.22"/><rect class="ba389bf7-d021-4df7-83a4-b163dc097f6a" x="27.9" y="50.33" width="4.11" height="4.55"/><polygon class="ab3a40f0-774d-46f3-ae50-d62f7b861127" points="31.83 50.52 27.9 50.52 27.9 46.4 31.83 50.52"/><rect class="ab3a40f0-774d-46f3-ae50-d62f7b861127" x="27.83" y="50.87" width="4.15" height="3.38"/><polygon class="ab3a40f0-774d-46f3-ae50-d62f7b861127" points="31.97 54.55 27.9 54.55 27.9 55.65 31.97 58.12 31.97 54.55"/><path class="e7e91743-b8ef-4ae4-b0d5-595cb075aec2" d="M27.1,46l.16,9.57-3.37,1.91s-.67-7.93-1.47-9.35S27.1,46,27.1,46Z"/><polygon class="ef20e6cb-f4cb-4079-8572-d932f4b3bafe" points="27.04 45.97 28.05 46.47 28.05 56.27 27.04 56.27 27.04 45.97"/><polygon class="e2c46a82-0e5a-4584-bd81-4c9fe9f4dec7" points="26.72 45.6 27.72 46.09 27.72 55.89 26.72 55.89 26.72 45.6"/><path class="e2c46a82-0e5a-4584-bd81-4c9fe9f4dec7" d="M20.16,42.27a27.09,27.09,0,0,0,1.35,2.48A13.73,13.73,0,0,1,22.92,49H23a4.93,4.93,0,0,0,4.57-3.1,4,4,0,0,0-.49-.52c-.35-.29-.75-.52-1.11-.79a21.11,21.11,0,0,0-2.52-2.12,16.59,16.59,0,0,0-2.3-.95,8.67,8.67,0,0,0-1-.33l-.32.05C19.92,41.57,20,41.93,20.16,42.27Z"/><path class="ab3a40f0-774d-46f3-ae50-d62f7b861127" d="M20.16,42.27a27.09,27.09,0,0,0,1.35,2.48,13.85,13.85,0,0,1,1.34,3.83H23a4.54,4.54,0,0,0,4.28-3l-.2-.19c-.35-.29-.75-.52-1.11-.79a21.11,21.11,0,0,0-2.52-2.12,16.59,16.59,0,0,0-2.3-.95,8.67,8.67,0,0,0-1-.33l-.32.05C19.92,41.57,20,41.93,20.16,42.27Z"/><path class="ba389bf7-d021-4df7-83a4-b163dc097f6a" d="M21.51,44.75a16,16,0,0,1,.73,1.64,2.55,2.55,0,0,0,.74.11,2.45,2.45,0,0,0,2.45-2.38,10.37,10.37,0,0,0-2-1.68A12.36,12.36,0,0,0,22,41.8a2.47,2.47,0,0,0-1.34,1.46C20.94,43.76,21.25,44.25,21.51,44.75Z"/><polygon class="e7e91743-b8ef-4ae4-b0d5-595cb075aec2" points="36.86 53.73 32.83 51.41 32.63 58.9 36.86 61.23 36.86 53.73"/><rect class="ef20e6cb-f4cb-4079-8572-d932f4b3bafe" x="31.83" y="50.98" width="1" height="7.59"/><path class="a476832b-6e0c-446b-bd61-e18df40c192b" d="M40.69,63.51a11.5,11.5,0,0,1-3.52,1.23L37,53.87a15.64,15.64,0,0,0,4,1Z"/><polygon class="f01af03d-d006-4017-b4a1-51b75b4afa4c" points="40.69 63.51 41.31 63.28 41.31 54.91 40.69 54.91 40.69 63.51"/><path class="e2c46a82-0e5a-4584-bd81-4c9fe9f4dec7" d="M41.31,63.28a8,8,0,0,0,1.33-.7V55H41.31Z"/><path class="e7e91743-b8ef-4ae4-b0d5-595cb075aec2" d="M42.64,62.58a15.75,15.75,0,0,0,5.59-4V55H42.64Z"/><rect class="e2c46a82-0e5a-4584-bd81-4c9fe9f4dec7" x="32.2" y="51.32" width="1" height="7.59"/><rect class="f01af03d-d006-4017-b4a1-51b75b4afa4c" x="36.54" y="54.08" width="0.62" height="10.66"/><path class="a19d8ed9-8b3c-4155-bb2f-01d4c7e6dd43" d="M20.6,41a4.1,4.1,0,0,1,1.49.31c2,.77,4.53,2.9,7.4,6.32,3.47,4.12,6.88,5.76,9.12,6.4a18.18,18.18,0,0,0,5.21.57l.42.68a20.64,20.64,0,0,1-5.77-.58A19.61,19.61,0,0,1,29,48.1C22.51,40.41,20,41.81,20,41.82l-.38-.56A1.7,1.7,0,0,1,20.6,41Z"/><path class="ef20e6cb-f4cb-4079-8572-d932f4b3bafe" d="M36.54,61.67s-8.32-5.44-9.11-5.44S24.16,58,24.16,58L24.1,57a27.58,27.58,0,0,1,3.4-2c.37,0,9,5.62,9,5.62Z"/><path class="ab3a40f0-774d-46f3-ae50-d62f7b861127" d="M35.66,64.36s-7.09-5.27-8.08-5.27-3.76,2.67-3.76,2.67a23.3,23.3,0,0,1,5.41-.36C31.11,61.67,35.66,64.36,35.66,64.36Z"/><path class="ab3a40f0-774d-46f3-ae50-d62f7b861127" d="M36.54,62.33s-8.32-5.53-9.11-5.53-3.23,1.89-3.23,1.89l-.05-.9a27,27,0,0,1,3.35-1.9c.37,0,9,5.45,9,5.45Z"/><path class="e7e91743-b8ef-4ae4-b0d5-595cb075aec2" d="M12.88,38.24V58.35a11.41,11.41,0,0,0,7.6,3.7S20.58,41.68,12.88,38.24Z"/><path class="e2c46a82-0e5a-4584-bd81-4c9fe9f4dec7" d="M19.79,62s.9-13.3-6.91-23.73c0-.92,0-1.39,0-1.39s4.6,2.16,7.22,11.28S21.54,62,21.54,62l-1.06.08Z"/><path class="a73e04d1-58fc-42b2-9379-9c4b76421029" d="M21,62s.24-9.09-1.92-14.34-3.66-8.82-6.18-10.79v-4s7.1,6.87,9.43,14.6a45,45,0,0,1,1.9,14.26Z"/><path class="e7e91743-b8ef-4ae4-b0d5-595cb075aec2" d="M21,60.6c0-.32.62-.62,1.43-.66s1.47.18,1.48.5-.62.62-1.42.66S21,60.92,21,60.6Z"/><path class="e7e91743-b8ef-4ae4-b0d5-595cb075aec2" d="M21,59.09c0-.31.57-.64,1.36-.72s1.45.1,1.48.42-.58.63-1.36.72S21,59.41,21,59.09Z"/><path class="e7e91743-b8ef-4ae4-b0d5-595cb075aec2" d="M20.92,57.42c-.05-.3.53-.66,1.3-.78s1.43,0,1.48.32-.53.66-1.3.79S21,57.73,20.92,57.42Z"/><path class="e7e91743-b8ef-4ae4-b0d5-595cb075aec2" d="M20.75,55.62c-.06-.3.49-.68,1.24-.85s1.41-.07,1.48.23-.49.68-1.24.85S20.82,55.92,20.75,55.62Z"/><path class="e7e91743-b8ef-4ae4-b0d5-595cb075aec2" d="M20.49,53.71c-.08-.29.44-.7,1.17-.91s1.4-.15,1.48.14-.44.7-1.17.91S20.58,54,20.49,53.71Z"/><path class="e7e91743-b8ef-4ae4-b0d5-595cb075aec2" d="M20.12,51.73c-.1-.29.4-.72,1.11-1s1.38-.23,1.48.06-.4.72-1.11,1S20.23,52,20.12,51.73Z"/><path class="e7e91743-b8ef-4ae4-b0d5-595cb075aec2" d="M19.65,49.71c-.12-.28.35-.75,1-1s1.36-.31,1.48,0-.35.75-1.05,1S19.77,50,19.65,49.71Z"/><path class="e7e91743-b8ef-4ae4-b0d5-595cb075aec2" d="M19.06,47.67c-.13-.27.31-.76,1-1.1s1.34-.4,1.48-.12-.31.76-1,1.1S19.2,47.94,19.06,47.67Z"/><path class="e7e91743-b8ef-4ae4-b0d5-595cb075aec2" d="M18.36,45.66c-.15-.26.26-.79.92-1.17s1.32-.47,1.47-.21-.26.79-.92,1.17S18.51,45.92,18.36,45.66Z"/><path class="e7e91743-b8ef-4ae4-b0d5-595cb075aec2" d="M17.54,43.7c-.17-.26.21-.81.85-1.23s1.3-.56,1.47-.31S19.65,43,19,43.4,17.71,44,17.54,43.7Z"/><path class="e7e91743-b8ef-4ae4-b0d5-595cb075aec2" d="M16.59,41.82c-.18-.25.17-.83.79-1.3s1.28-.64,1.47-.39-.17.83-.79,1.3S16.78,42.07,16.59,41.82Z"/><path class="e7e91743-b8ef-4ae4-b0d5-595cb075aec2" d="M15.52,40.05c-.21-.24.12-.85.73-1.36s1.26-.72,1.46-.48-.12.85-.73,1.36S15.72,40.29,15.52,40.05Z"/><path class="e7e91743-b8ef-4ae4-b0d5-595cb075aec2" d="M14.31,38.43c-.22-.23.08-.87.67-1.42s1.24-.81,1.46-.57-.08.87-.67,1.42S14.53,38.67,14.31,38.43Z"/><path class="e7e91743-b8ef-4ae4-b0d5-595cb075aec2" d="M13,37c-.24-.22,0-.89.6-1.48s1.22-.89,1.46-.66,0,.89-.6,1.48S13.2,37.21,13,37Z"/><path class="b1fe68f9-0fda-4466-92f7-a475d7581649" d="M33,30.91s-.07-2.05-.09-2.1-1.24-.54-1.29.25c0,.08.07,1.84.07,1.92"/><path d="M31.76,31h-.08s0-.25,0-.53c0-.73-.05-1.34-.05-1.39a.48.48,0,0,1,.42-.47,1.52,1.52,0,0,1,.94.21s.14,2.05.09,2.13v0h0v0h0c0-.1-.06-1.92-.08-2.07a1.55,1.55,0,0,0-1-.14.4.4,0,0,0-.24.37c0,.06,0,.89.05,1.39C31.75,30.74,31.76,31,31.76,31Z"/><path class="a19d8ed9-8b3c-4155-bb2f-01d4c7e6dd43" d="M39.18,43.62c-.33.07-.66.12-1,.17,2.31,5.63,7.79,15,9.2,15.65l.84-.85S44,53.52,39.18,43.62Z"/><rect class="e2c46a82-0e5a-4584-bd81-4c9fe9f4dec7" x="30.8" y="30.52" width="2.59" height="4.75"/><polygon class="e2c46a82-0e5a-4584-bd81-4c9fe9f4dec7" points="35.98 29.91 35.98 33.63 38.57 33.63 38.57 29.68 35.98 29.91"/><path class="e7e91743-b8ef-4ae4-b0d5-595cb075aec2" d="M30.87,29.8a13.09,13.09,0,0,1-2.68-1.17v4.75h2.68Z"/><rect class="e7e91743-b8ef-4ae4-b0d5-595cb075aec2" x="33.38" y="30.18" width="2.64" height="4.75"/><polygon class="e2c46a82-0e5a-4584-bd81-4c9fe9f4dec7" points="28.27 28.68 25.68 27.25 25.68 31.95 28.27 31.95 28.27 28.68"/><polygon class="e7e91743-b8ef-4ae4-b0d5-595cb075aec2" points="25.68 27.25 25.45 27.1 24.56 26.72 23.08 30.06 25.68 30.06 25.68 27.25"/><rect class="ba389bf7-d021-4df7-83a4-b163dc097f6a" x="29.1" y="36.58" width="4.11" height="4.55"/><polygon class="ab3a40f0-774d-46f3-ae50-d62f7b861127" points="29.27 40.94 33.21 40.94 33.21 45.07 29.27 40.94"/><rect class="ab3a40f0-774d-46f3-ae50-d62f7b861127" x="29.13" y="37.21" width="4.15" height="3.38"/><polygon class="ab3a40f0-774d-46f3-ae50-d62f7b861127" points="29.13 36.92 33.21 36.92 33.21 35.81 29.13 33.35 29.13 36.92"/><path class="e7e91743-b8ef-4ae4-b0d5-595cb075aec2" d="M34,45.46l-.15-9.57L37.22,34s.66,7.93,1.47,9.35S34,45.46,34,45.46Z"/><polygon class="ef20e6cb-f4cb-4079-8572-d932f4b3bafe" points="34.06 45.49 33.06 44.99 33.06 35.2 34.06 35.2 34.06 45.49"/><polygon class="e2c46a82-0e5a-4584-bd81-4c9fe9f4dec7" points="34.39 45.87 33.38 45.37 33.38 35.57 34.39 35.57 34.39 45.87"/><path class="e2c46a82-0e5a-4584-bd81-4c9fe9f4dec7" d="M40.94,49.19a26.83,26.83,0,0,0-1.34-2.47,13.64,13.64,0,0,1-1.41-4.22h-.06a4.91,4.91,0,0,0-4.57,3.11,4.67,4.67,0,0,0,.49.51c.34.29.75.52,1.11.79A21,21,0,0,0,37.67,49,17.67,17.67,0,0,0,40,50a9.49,9.49,0,0,0,1,.33l.32,0C41.19,49.89,41.08,49.53,40.94,49.19Z"/><path class="ab3a40f0-774d-46f3-ae50-d62f7b861127" d="M40.94,49.19a26.83,26.83,0,0,0-1.34-2.47,14,14,0,0,1-1.35-3.83h-.12a4.54,4.54,0,0,0-4.28,3l.2.19c.34.29.75.52,1.11.79A21,21,0,0,0,37.67,49,17.67,17.67,0,0,0,40,50a9.49,9.49,0,0,0,1,.33l.32,0C41.19,49.89,41.08,49.53,40.94,49.19Z"/><path class="ba389bf7-d021-4df7-83a4-b163dc097f6a" d="M39.6,46.72a15.06,15.06,0,0,1-.73-1.65,2.65,2.65,0,0,0-.74-.11,2.46,2.46,0,0,0-2.46,2.38,11,11,0,0,0,2,1.68,13.31,13.31,0,0,0,1.45.64,2.46,2.46,0,0,0,1.33-1.46C40.17,47.7,39.86,47.21,39.6,46.72Z"/><polygon class="e7e91743-b8ef-4ae4-b0d5-595cb075aec2" points="24.25 37.73 28.27 40.05 28.48 32.56 24.25 30.23 24.25 37.73"/><rect class="ef20e6cb-f4cb-4079-8572-d932f4b3bafe" x="28.27" y="32.89" width="1" height="7.59"/><path class="a476832b-6e0c-446b-bd61-e18df40c192b" d="M20.42,28a11.5,11.5,0,0,1,3.52-1.23l.21,10.87a16.1,16.1,0,0,0-4-1Z"/><polygon class="f01af03d-d006-4017-b4a1-51b75b4afa4c" points="20.42 27.95 19.8 28.18 19.8 36.55 20.42 36.55 20.42 27.95"/><path class="e2c46a82-0e5a-4584-bd81-4c9fe9f4dec7" d="M19.79,28.18a8.08,8.08,0,0,0-1.32.7v7.55h1.32Z"/><path class="e7e91743-b8ef-4ae4-b0d5-595cb075aec2" d="M18.47,28.88a15.75,15.75,0,0,0-5.59,4v3.58h5.59Z"/><rect class="e2c46a82-0e5a-4584-bd81-4c9fe9f4dec7" x="27.9" y="32.56" width="1" height="7.59"/><rect class="f01af03d-d006-4017-b4a1-51b75b4afa4c" x="23.94" y="26.72" width="0.62" height="10.66"/><path class="a19d8ed9-8b3c-4155-bb2f-01d4c7e6dd43" d="M40.5,50.43A4.1,4.1,0,0,1,39,50.12c-2-.77-4.53-2.89-7.41-6.31a18.91,18.91,0,0,0-9.12-6.41,18.57,18.57,0,0,0-5.21-.57l-.42-.67a20.49,20.49,0,0,1,5.78.57c2.35.67,5.9,2.37,9.49,6.64,6.47,7.68,8.93,6.28,9,6.27l.38.56A1.69,1.69,0,0,1,40.5,50.43Z"/><path class="ef20e6cb-f4cb-4079-8572-d932f4b3bafe" d="M24.56,29.8s8.33,5.43,9.12,5.43,3.26-1.73,3.26-1.73l.07.94a27.61,27.61,0,0,1-3.4,2c-.37,0-9-5.62-9-5.62Z"/><path class="ab3a40f0-774d-46f3-ae50-d62f7b861127" d="M25.45,27.1s7.08,5.27,8.08,5.27,3.76-2.67,3.76-2.67a23.4,23.4,0,0,1-5.42.36C30,29.8,25.45,27.1,25.45,27.1Z"/><path class="ab3a40f0-774d-46f3-ae50-d62f7b861127" d="M24.56,29.14s8.33,5.52,9.12,5.52,3.22-1.89,3.22-1.89l.05.9a26.83,26.83,0,0,1-3.34,1.9c-.37,0-9-5.45-9-5.45Z"/><path class="e7e91743-b8ef-4ae4-b0d5-595cb075aec2" d="M48.23,53.22V33.11a11.39,11.39,0,0,0-7.61-3.69S40.53,49.78,48.23,53.22Z"/><path class="e2c46a82-0e5a-4584-bd81-4c9fe9f4dec7" d="M41.32,29.49s-.91,13.31,6.91,23.73c0,.92,0,1.39,0,1.39S43.61,52.45,41,43.33s-1.43-13.84-1.43-13.84l1-.07Z"/><path class="a73e04d1-58fc-42b2-9379-9c4b76421029" d="M40.12,29.45S39.88,38.54,42,43.79s3.67,8.82,6.19,10.8v4S41.13,51.73,38.8,44a44.83,44.83,0,0,1-1.91-14.26Z"/><path class="e7e91743-b8ef-4ae4-b0d5-595cb075aec2" d="M40.14,30.86c0,.33-.62.62-1.42.66s-1.47-.18-1.49-.5.62-.62,1.43-.66S40.13,30.54,40.14,30.86Z"/><path class="e7e91743-b8ef-4ae4-b0d5-595cb075aec2" d="M40.12,32.37c0,.31-.57.64-1.36.72s-1.45-.1-1.48-.41.57-.64,1.36-.73S40.09,32.05,40.12,32.37Z"/><path class="e7e91743-b8ef-4ae4-b0d5-595cb075aec2" d="M40.19,34c.05.31-.53.66-1.3.79s-1.43,0-1.48-.33.53-.66,1.3-.79S40.14,33.73,40.19,34Z"/><path class="e7e91743-b8ef-4ae4-b0d5-595cb075aec2" d="M40.35,35.84c.07.3-.48.68-1.23.85s-1.41.07-1.48-.23.48-.68,1.23-.85S40.29,35.55,40.35,35.84Z"/><path class="e7e91743-b8ef-4ae4-b0d5-595cb075aec2" d="M40.62,37.75c.08.29-.44.7-1.18.92s-1.39.14-1.47-.15.44-.7,1.17-.91S40.53,37.46,40.62,37.75Z"/><path class="e7e91743-b8ef-4ae4-b0d5-595cb075aec2" d="M41,39.73c.1.29-.39.73-1.11,1s-1.37.23-1.47-.06.39-.72,1.11-1S40.88,39.45,41,39.73Z"/><path class="e7e91743-b8ef-4ae4-b0d5-595cb075aec2" d="M41.46,41.76c.12.27-.35.74-1.05,1s-1.35.31-1.47,0,.35-.74,1-1S41.34,41.48,41.46,41.76Z"/><path class="e7e91743-b8ef-4ae4-b0d5-595cb075aec2" d="M42,43.79c.14.27-.3.76-1,1.1s-1.33.4-1.47.13.3-.77,1-1.11S41.91,43.52,42,43.79Z"/><path class="e7e91743-b8ef-4ae4-b0d5-595cb075aec2" d="M42.75,45.8c.15.27-.26.79-.92,1.17s-1.32.48-1.47.21.26-.78.92-1.17S42.59,45.54,42.75,45.8Z"/><path class="e7e91743-b8ef-4ae4-b0d5-595cb075aec2" d="M43.57,47.76c.17.26-.22.81-.86,1.23s-1.3.56-1.47.31.22-.81.86-1.23S43.4,47.51,43.57,47.76Z"/><path class="e7e91743-b8ef-4ae4-b0d5-595cb075aec2" d="M44.51,49.64c.19.25-.16.83-.79,1.3s-1.28.64-1.46.39.17-.83.79-1.3S44.33,49.39,44.51,49.64Z"/><path class="e7e91743-b8ef-4ae4-b0d5-595cb075aec2" d="M45.59,51.41c.2.24-.12.85-.73,1.36s-1.26.72-1.46.48.12-.85.73-1.36S45.39,51.17,45.59,51.41Z"/><path class="e7e91743-b8ef-4ae4-b0d5-595cb075aec2" d="M46.8,53c.22.24-.08.87-.67,1.42s-1.24.81-1.46.57.08-.87.66-1.42S46.58,52.8,46.8,53Z"/><path class="e7e91743-b8ef-4ae4-b0d5-595cb075aec2" d="M48.14,54.48c.24.23,0,.89-.6,1.48s-1.22.89-1.46.66,0-.89.6-1.48S47.9,54.25,48.14,54.48Z"/><g id="f7f098be-a5ec-4581-bed2-40cd28eeda35" data-name="pelo ext"><path class="a4fc7bfd-85cd-4f10-831a-2e6fb604fef0" d="M28.4,10.32c.13,0,.56-.83.84-1.21s.72-1,1.05-1.4c.59-.79,2.14-.82,2.14-.82l.09.73c0,.44.14,1,.16,1.46s0,.88.08.89.27-.4.39-.87a13.31,13.31,0,0,1,.57-1.46,6.29,6.29,0,0,1,1.45-1.8,23,23,0,0,1,.32,2.33c.11.68.17,1.1.18,1.33s0,.62.06.62.12-.25.24-.54c.05-.11.14-.26.2-.38.18-.33.55-1.06.58-1.06a7,7,0,0,1,.55.92,10.08,10.08,0,0,1,.47.92,15.94,15.94,0,0,1,.68,1.87,10.61,10.61,0,0,1,.48,2.71,25.94,25.94,0,0,1-1,8.31,5,5,0,0,1-1.44,2.23c-1.2.78-2.17.62-3.79.43a5.81,5.81,0,0,1-3.24-1.11A9.63,9.63,0,0,1,27.09,21a28.77,28.77,0,0,1-1-6.47A14,14,0,0,1,26,11.94a8.92,8.92,0,0,1,.29-1.84,8,8,0,0,1,.57-1.24,4.35,4.35,0,0,1,1-1s.15.59.24,1A6.26,6.26,0,0,0,28.4,10.32Z"/><path d="M34.5,25.74A13,13,0,0,1,33,25.61l-.26,0a5.85,5.85,0,0,1-3.26-1.12A9.64,9.64,0,0,1,27,21c-.38-.93-.68-2.87-1-6.48a16.26,16.26,0,0,1-.11-2.6,9.1,9.1,0,0,1,.3-1.86,7.7,7.7,0,0,1,.57-1.25,4.33,4.33,0,0,1,1.07-1h0a5,5,0,0,1,.2.8l.06.25c0,.08,0,.18,0,.28a7.62,7.62,0,0,0,.22,1.12,4.09,4.09,0,0,0,.41-.62c.12-.2.25-.41.36-.56l.74-1,.31-.41a3.2,3.2,0,0,1,2.19-.84h0a0,0,0,0,1,0,0l.09.73c0,.12,0,.24,0,.36.05.34.1.74.12,1.11v.33a2.75,2.75,0,0,0,0,.5,2.27,2.27,0,0,0,.32-.82,14.1,14.1,0,0,1,.58-1.47,5.88,5.88,0,0,1,1.5-1.83h0c.09,0,.12.15.22,1.18,0,.4.09.85.14,1.19.11.65.18,1.1.19,1.34s0,.24,0,.34V10a1.31,1.31,0,0,0,.07-.19l.11-.28c0-.09.1-.19.15-.29l.06-.09c0-.09.11-.21.17-.34.39-.76.4-.76.45-.76s.08,0,.6.95a10.19,10.19,0,0,1,.47.93,16.6,16.6,0,0,1,.68,1.88c0,.1,0,.2.08.3A10,10,0,0,1,39,14.55a26.13,26.13,0,0,1-1,8.34,4.59,4.59,0,0,1-1.46,2.25A3.47,3.47,0,0,1,34.5,25.74ZM27.83,7.93a4.33,4.33,0,0,0-.95,1,7.09,7.09,0,0,0-.56,1.23,8.64,8.64,0,0,0-.3,1.82,16.11,16.11,0,0,0,.11,2.59c.33,3.6.63,5.53,1,6.44a9.52,9.52,0,0,0,2.37,3.41,5.74,5.74,0,0,0,3.21,1.09l.26,0c1.49.18,2.38.28,3.5-.45a4.5,4.5,0,0,0,1.41-2.2,25.92,25.92,0,0,0,1-8.29,9.54,9.54,0,0,0-.41-2.4c0-.09,0-.19-.08-.29A14.83,14.83,0,0,0,37.72,10c-.11-.25-.27-.56-.46-.91s-.42-.73-.51-.86c-.07.12-.24.44-.35.66l-.18.34,0,.09c-.05.1-.11.2-.14.28a2.66,2.66,0,0,0-.11.28c-.07.2-.11.3-.19.3a.09.09,0,0,1-.06,0s0-.14,0-.31,0-.21,0-.33-.08-.68-.19-1.33c0-.35-.1-.8-.14-1.2a9.55,9.55,0,0,0-.14-1.07,6.89,6.89,0,0,0-1.38,1.75,15.58,15.58,0,0,0-.57,1.46c-.09.34-.26.92-.45.9s-.12-.19-.12-.61V9.08c0-.36-.07-.74-.12-1.1,0-.12,0-.24,0-.36l-.08-.68a3.09,3.09,0,0,0-2.05.8L30,8.15l-.74,1c-.1.14-.23.35-.36.55-.3.49-.42.68-.52.68s-.15-.16-.31-1.22c0-.11,0-.2,0-.28L28,8.63Zm.6,2.34Z"/></g><g id="ba6da431-4168-4715-a4ad-06dc25e161a5" data-name="cabeza"><g id="f9a943f2-6595-4e05-8354-bbc8fdab3fa4" data-name="oreja Izq"><path class="b1fe68f9-0fda-4466-92f7-a475d7581649" d="M27.44,22.06a1.48,1.48,0,0,0-.53-.58,1,1,0,0,0-.68,0,1.13,1.13,0,0,0-.43.72,1.11,1.11,0,0,0,.1.84,1.15,1.15,0,0,0,.8.27,1.12,1.12,0,0,0,.66-.26A1.61,1.61,0,0,0,27.44,22.06Z"/><path d="M27.42,22.07a1.32,1.32,0,0,0-.55-.52l.06-.13a1.35,1.35,0,0,1,.53.63Z"/><path d="M26.87,21.55a.8.8,0,0,0-.61,0l-.06-.13a1,1,0,0,1,.74,0Z"/><polygon points="26.93 21.57 26.82 21.53 26.88 21.39 26.98 21.44 26.93 21.57"/><path d="M26.25,21.52a1,1,0,0,0-.4.67l-.13,0a1.32,1.32,0,0,1,.48-.78Z"/><polygon points="26.2 21.54 26.14 21.42 26.24 21.37 26.3 21.49 26.2 21.54"/><path d="M25.85,22.19a1.11,1.11,0,0,0,.09.79l-.11.09a1.32,1.32,0,0,1-.11-.9Z"/><polygon points="25.84 22.25 25.71 22.21 25.74 22.11 25.87 22.14 25.84 22.25"/><path d="M25.94,23a1,1,0,0,0,.75.24v.15a1.23,1.23,0,0,1-.87-.29Z"/><polygon points="25.87 23.11 25.8 23.02 25.91 22.94 25.98 23.02 25.87 23.11"/><path d="M26.69,23.22a1.18,1.18,0,0,0,.64-.2l0,0a1.16,1.16,0,0,1-.68.3Z"/><rect x="26.63" y="23.22" width="0.11" height="0.14"/></g><g id="ab0997e7-6d21-4348-bc68-bf2dfabdf168" data-name="cabeza"><path class="b1fe68f9-0fda-4466-92f7-a475d7581649" d="M37.83,22a11.39,11.39,0,0,1-.65,3.73,8.15,8.15,0,0,1-2,2.29,6,6,0,0,1-3,1.2,6.44,6.44,0,0,1-2.79-1.46,6.82,6.82,0,0,1-1.88-2.29,12.22,12.22,0,0,1-.7-4.12c-.05-1.15-.07-2.46,0-3.12a16.46,16.46,0,0,1,.54-4.21,3.45,3.45,0,0,1,1.46-1.52,7.54,7.54,0,0,1,3.35-.72,7,7,0,0,1,3.66.65,4.67,4.67,0,0,1,1.68,2.45,27.18,27.18,0,0,1,.39,4.62C37.89,20,37.89,21.28,37.83,22Z"/><path d="M37.83,22a11.42,11.42,0,0,1-.59,3.77l-.12-.07a11.84,11.84,0,0,0,.71-3.7Z"/><path d="M37.24,25.81a8.11,8.11,0,0,1-2,2.3L35.14,28a7.36,7.36,0,0,0,2-2.25Z"/><polygon points="37.21 25.85 37.09 25.79 37.14 25.69 37.26 25.76 37.21 25.85"/><path d="M35.22,28.11a6,6,0,0,1-3,1.23l0-.14A5.88,5.88,0,0,0,35.14,28Z"/><polygon points="35.17 28.14 35.1 28.03 35.19 27.97 35.27 28.08 35.17 28.14"/><path d="M32.19,29.33a6.61,6.61,0,0,1-2.82-1.48l.09-.12a6.35,6.35,0,0,0,2.73,1.46Z"/><polygon points="32.25 29.34 32.14 29.33 32.15 29.18 32.26 29.19 32.25 29.34"/><path d="M29.37,27.85a7.26,7.26,0,0,1-1.91-2.32l.13-.06a7.11,7.11,0,0,0,1.87,2.28Z"/><polygon points="29.41 27.88 29.32 27.81 29.41 27.7 29.5 27.77 29.41 27.88"/><path d="M27.46,25.53a12.39,12.39,0,0,1-.71-4.14h.15a12.42,12.42,0,0,0,.69,4.09Z"/><polygon points="27.48 25.58 27.44 25.48 27.57 25.42 27.62 25.52 27.48 25.58"/><path d="M26.75,21.39c-.05-1.15-.06-2.47,0-3.13h.14c0,.66,0,2,0,3.11Z"/><polygon points="26.76 21.45 26.75 21.34 26.89 21.33 26.9 21.44 26.76 21.45"/><path d="M26.73,18.26A17.5,17.5,0,0,1,27.27,14l.14,0a17.35,17.35,0,0,0-.55,4.19Z"/><polygon points="26.87 18.32 26.73 18.31 26.73 18.2 26.88 18.21 26.87 18.32"/><path d="M37.48,14.91a28.25,28.25,0,0,1,.39,4.62h0a28.25,28.25,0,0,0-.39-4.62Z"/><path d="M37.87,19.52c0,.46,0,1.76,0,2.52h0c.06-.76.06-2.06,0-2.52Z"/></g><g id="fac4a7f4-a74a-40c2-a20c-11a629489562" data-name="boca"><g id="ef0eda8b-cc8a-48cb-8350-7329772a206a" data-name="boca"><path class="a5225818-f5ce-4ca8-b6d5-8424908f031e" d="M28.22,25s.49.62.68.77a4.44,4.44,0,0,0,1,.35c.11,0,1.08.07,1.19.07s1.1-.05,1.19-.07a9.35,9.35,0,0,0,1.25-.28c.17-.12.51-.72.57-.68a1.93,1.93,0,0,1-.55.76,10.39,10.39,0,0,1-1.27.28c-.12,0-1.07.08-1.18.08s-1.08-.05-1.19-.07a4.86,4.86,0,0,1-1-.34A3.52,3.52,0,0,1,28.22,25Z"/><path d="M31.06,26.37c-.11,0-1.09,0-1.2-.07a4.49,4.49,0,0,1-1-.35,3.6,3.6,0,0,1-.71-.9.08.08,0,0,1,0-.05h0c.06,0,.09,0,.34.32a3.23,3.23,0,0,0,.41.45,4.85,4.85,0,0,0,.93.35c.1,0,1.05.06,1.18.06s1.1,0,1.18-.06l.12,0a6.77,6.77,0,0,0,1.11-.24,2.5,2.5,0,0,0,.31-.39c.18-.26.24-.34.32-.3a.06.06,0,0,1,0,.06,2.06,2.06,0,0,1-.58.8,8.58,8.58,0,0,1-1.17.26l-.12,0C32.12,26.32,31.17,26.37,31.06,26.37Z"/></g><g id="ba244cf2-a21b-4690-a1a0-23f3b5ffc1b6" data-name="lengua"><g class="bb5462b5-8269-4cc1-8934-d3ba00e32bb0"><path class="a5ec46a1-c895-4272-9292-3f78815f261f" d="M29.75,27.79a1.4,1.4,0,0,1,.47-.85,2.46,2.46,0,0,1,1.39-.51,2.37,2.37,0,0,1,1.4.36,1.42,1.42,0,0,1,.57.88,1.45,1.45,0,0,1-.54,1,2.35,2.35,0,0,1-1.23.28,2.82,2.82,0,0,1-1.61-.24A1.24,1.24,0,0,1,29.75,27.79Z"/><path class="f09384bf-6f88-4bcf-a29a-633ccee4a226" d="M31.34,29a2,2,0,0,1-1.17-.27,1.31,1.31,0,0,1-.48-.92,1.45,1.45,0,0,1,.49-.89,2.51,2.51,0,0,1,1.42-.53,2.47,2.47,0,0,1,1.45.38,1.53,1.53,0,0,1,.59.92,1.5,1.5,0,0,1-.57,1,2.33,2.33,0,0,1-1.26.28Zm.37-2.5h-.1a2.41,2.41,0,0,0-1.35.5,1.33,1.33,0,0,0-.46.81h0a1.21,1.21,0,0,0,.43.83,2.62,2.62,0,0,0,1.57.23,2.25,2.25,0,0,0,1.2-.26,1.38,1.38,0,0,0,.52-.92,1.31,1.31,0,0,0-.54-.83A2.32,2.32,0,0,0,31.71,26.48Zm-2,1.31Z"/></g></g><g id="e6dc1473-9fcd-482d-b52b-f4b228a379f8" data-name="dientes"><g class="bb5462b5-8269-4cc1-8934-d3ba00e32bb0"><path class="a99f951c-6cf7-40a9-9485-ec9255aa7ff2" d="M26.34,21.85h9.38a4.44,4.44,0,0,0-.17-1.71,2.77,2.77,0,0,0-1.47-1.05,9.84,9.84,0,0,0-6.3.13,2.75,2.75,0,0,0-1.4,1.13A4.05,4.05,0,0,0,26.34,21.85Z"/><path class="ade4ce02-99c2-4a34-ab56-8cbac3b5299b" d="M30.91,21.92l-4.57,0a0,0,0,0,1-.05,0,3.81,3.81,0,0,1,0-1.53,2.77,2.77,0,0,1,1.43-1.16A9.89,9.89,0,0,1,34.1,19a2.76,2.76,0,0,1,1.5,1.08,4.29,4.29,0,0,1,.17,1.73c0,.06,0,.06-.6.06H30.91Zm-4.52-.13h9.28a4.34,4.34,0,0,0-.16-1.63,2.73,2.73,0,0,0-1.45-1,9.79,9.79,0,0,0-6.26.13,2.72,2.72,0,0,0-1.37,1.11A3.58,3.58,0,0,0,26.39,21.79Z"/></g><g class="bb5462b5-8269-4cc1-8934-d3ba00e32bb0"><path class="a99f951c-6cf7-40a9-9485-ec9255aa7ff2" d="M35.82,29.34l-4.8,0-4.59,0A4.46,4.46,0,0,0,26.56,31,2.78,2.78,0,0,0,28,32a9.74,9.74,0,0,0,6.29-.13,2.82,2.82,0,0,0,1.41-1.13A3.92,3.92,0,0,0,35.82,29.34Z"/><path class="ade4ce02-99c2-4a34-ab56-8cbac3b5299b" d="M31,32.54a9.24,9.24,0,0,1-3-.45A2.93,2.93,0,0,1,26.51,31a4.36,4.36,0,0,1-.13-1.67s0,0,0,0,0,0,4.63,0l4.8,0a0,0,0,0,1,0,.05,3.62,3.62,0,0,1-.08,1.46A2.86,2.86,0,0,1,34.35,32,9.12,9.12,0,0,1,31,32.54Zm-4.5-3.15A4.4,4.4,0,0,0,26.61,31a2.77,2.77,0,0,0,1.45,1,9.76,9.76,0,0,0,6.25-.13,2.76,2.76,0,0,0,1.38-1.1,3.65,3.65,0,0,0,.08-1.35l-4.75,0Zm9.39-.05h0Z"/></g></g></g><g id="f0709516-a9b9-4fdc-b0b7-4d494bcc46fe" data-name="ojos"><g id="a318af93-4a3c-4983-9c51-57645f7deada" data-name="ojos"><path class="a99f951c-6cf7-40a9-9485-ec9255aa7ff2" d="M35.59,21.42a10.09,10.09,0,0,0,.27-2.21,7,7,0,0,0,0-.94,1.63,1.63,0,0,0-.22-.72A1.3,1.3,0,0,0,34.53,17a1.4,1.4,0,0,0-1.08.42,1.39,1.39,0,0,0-.15.73c0,.29,0,1.32,0,1.32s.11,1.87.15,1.92a2.56,2.56,0,0,0,.24.11,3.51,3.51,0,0,0,.92.19,3,3,0,0,0,.77-.16S35.45,21.54,35.59,21.42Z"/><path d="M35.55,21.38a10.24,10.24,0,0,0,.26-2.17h.09a10.36,10.36,0,0,1-.29,2.24Z"/><path d="M35.82,19.21a6.89,6.89,0,0,0,0-.93h.09a7.2,7.2,0,0,1,0,.95Z"/><rect x="35.82" y="19.16" width="0.09" height="0.11"/><path d="M35.8,18.27a2.07,2.07,0,0,0-.21-.71l.07-.06a2.13,2.13,0,0,1,.24.75Z"/><polygon points="35.8 18.32 35.79 18.21 35.88 18.2 35.89 18.31 35.8 18.32"/><path d="M35.59,17.57a1.23,1.23,0,0,0-1.06-.49V17a1.39,1.39,0,0,1,1.13.54Z"/><polygon points="35.62 17.61 35.55 17.52 35.63 17.47 35.7 17.56 35.62 17.61"/><path d="M34.53,17.07a1.35,1.35,0,0,0-1.05.41l-.07-.06A1.45,1.45,0,0,1,34.54,17Z"/><rect x="34.48" y="16.98" width="0.11" height="0.09"/><path d="M33.48,17.47a1.72,1.72,0,0,0-.19.7h0c0-.17,0-.52.11-.75Z"/><polygon points="33.45 17.52 33.37 17.46 33.44 17.37 33.51 17.43 33.45 17.52"/><path d="M33.29,18.18c0,.29,0,1.32,0,1.32h0s0-1,0-1.32Z"/><path d="M33.29,19.5s.11,1.87.15,1.92h0c0-.05-.15-1.92-.15-1.92Z"/><path d="M33.44,21.42l.24.11h0l-.24-.11Z"/><path d="M35.36,21.55l.19-.17.07.07a.35.35,0,0,1-.26.1Z"/><path class="a99f951c-6cf7-40a9-9485-ec9255aa7ff2" d="M27.83,21.36c-.24-.21-.24-1.61-.25-2a8,8,0,0,1,0-1.08c0-.22,0-.76.26-1A1.88,1.88,0,0,1,29,17a2.06,2.06,0,0,1,1,.44,1.54,1.54,0,0,1,.24.8c0,.45,0,1.2,0,1.2a17.63,17.63,0,0,1-.17,1.93l-.2.13a3,3,0,0,1-.9.22,3.13,3.13,0,0,1-.86-.17A1.37,1.37,0,0,1,27.83,21.36Z"/><path d="M27.79,21.41a5.9,5.9,0,0,1-.27-2h.12c0,.36,0,1.75.22,1.94Z"/><path d="M27.52,19.4a10.13,10.13,0,0,1,0-1.09h.11a9.65,9.65,0,0,0,0,1.07Z"/><polygon points="27.52 19.45 27.51 19.34 27.63 19.33 27.64 19.44 27.52 19.45"/><path d="M27.54,18.31c0-.21,0-.77.28-1l.07.08c-.21.18-.21.71-.24.94Z"/><polygon points="27.64 18.38 27.53 18.37 27.55 18.26 27.66 18.27 27.64 18.38"/><path d="M27.83,17.3A1.94,1.94,0,0,1,29,17v.11a1.91,1.91,0,0,0-1.07.33Z"/><polygon points="27.85 17.43 27.78 17.34 27.87 17.27 27.94 17.36 27.85 17.43"/><path d="M29,17a2,2,0,0,1,1.05.47l-.07.07a1.87,1.87,0,0,0-1-.43Z"/><polygon points="29 17.07 28.89 17.05 28.9 16.94 29.01 16.95 29 17.07"/><path d="M30,17.42a1.44,1.44,0,0,1,.2.83h0a1.45,1.45,0,0,0-.29-.77Z"/><polygon points="29.98 17.52 29.91 17.44 29.99 17.37 30.06 17.46 29.98 17.52"/><path d="M30.22,18.25c0,.45,0,1.2,0,1.2h0s0-.75,0-1.2Z"/><path d="M30.26,19.45a17.63,17.63,0,0,1-.17,1.93h0a17.63,17.63,0,0,0,.17-1.93Z"/><path d="M30.1,21.38l-.2.13h0l.2-.13Z"/><path d="M28.14,21.57a.78.78,0,0,1-.35-.16l.07-.07a2.26,2.26,0,0,0,.29.22Z"/><polygon points="28.19 21.6 28.09 21.55 28.1 21.52 28.2 21.57 28.19 21.6"/></g><g id="e02568bf-99ad-4bdb-bf2c-17eaccbbb77a" data-name="pupilas"><g class="bf2518c2-cc9b-4c40-b24a-19559ca8c973"><path class="a4fc7bfd-85cd-4f10-831a-2e6fb604fef0" d="M34.71,17.39c.62,0,.83.52.87,1.5,0,1.16-.33,1.84-.87,1.84s-.89-.82-.86-1.84C33.87,18.08,34.09,17.39,34.71,17.39Z"/></g><g class="bf2518c2-cc9b-4c40-b24a-19559ca8c973"><path class="a4fc7bfd-85cd-4f10-831a-2e6fb604fef0" d="M29.05,17.38c.62,0,.88.52.93,1.51s-.27,1.86-.88,1.86-.93-.61-.87-1.86C28.26,17.87,28.45,17.39,29.05,17.38Z"/></g></g></g><g id="abcc2b36-865c-4173-b5eb-b9f5c96f4ffd" data-name="nariz"><path class="b1fe68f9-0fda-4466-92f7-a475d7581649" d="M31.24,20a1.79,1.79,0,0,0-.38.1,3.6,3.6,0,0,0-.73.49A9.92,9.92,0,0,0,30.65,22c.09.2.39.74.39.74l.11.19.12-.18s.22-.52.27-.7.34-1.11.33-1.18a2.87,2.87,0,0,0-.42-.66A.59.59,0,0,0,31.24,20Z"/><path d="M31.24,20a1.8,1.8,0,0,0-.36.13l0-.05a1,1,0,0,1,.39-.08Z"/><path d="M30.88,20.16a2.76,2.76,0,0,0-.68.49l-.12,0a3.29,3.29,0,0,1,.77-.5Z"/><polygon points="30.82 20.18 30.8 20.13 30.91 20.09 30.93 20.14 30.82 20.18"/><path d="M30.2,20.65A10.21,10.21,0,0,0,30.71,22l-.1,0a8.4,8.4,0,0,1-.53-1.39Z"/><polygon points="30.18 20.7 30.06 20.66 30.1 20.55 30.22 20.6 30.18 20.7"/><path d="M30.71,22c.09.2.38.74.38.74l-.07,0s-.31-.55-.4-.75Z"/><polygon points="30.63 22.05 30.59 21.95 30.69 21.91 30.73 22.01 30.63 22.05"/><path d="M31.08,22.7l.07.21h0L31,22.75Z"/><polygon points="31.04 22.8 30.97 22.71 31.04 22.66 31.11 22.75 31.04 22.8"/><path d="M31.16,22.91l.13-.17h0l-.13.17Z"/></g><g id="ee5d630d-85f1-4f5e-b2bf-90163c4d76ed" data-name="pelo int"><path class="a4fc7bfd-85cd-4f10-831a-2e6fb604fef0" d="M36.92,21.83c.62-.34.71-.14,1.2-.46a49.16,49.16,0,0,1,.56-4.89,7,7,0,0,0-.56-3.27,7.26,7.26,0,0,0-2.83-2.72A10.38,10.38,0,0,0,32,10.36a6.35,6.35,0,0,0-4.29,2.21,2.86,2.86,0,0,0-.45,1.56c.18-.08,0,0,.24-.08a7.08,7.08,0,0,1,3.9.55,7,7,0,0,1,3.3-.69,4.52,4.52,0,0,1,2,1.29,23.64,23.64,0,0,1,.14,3.72C36.86,19,36.93,21.69,36.92,21.83Z"/></g><g id="af6610e4-83d1-4186-ac7d-872f5e9f58dc" data-name="cejas"><path d="M32.53,16.47A4.93,4.93,0,0,1,34.44,16l0,.25a6,6,0,0,0-1.91.36Z"/><path d="M34.44,16a2.71,2.71,0,0,1,1.46.29l0,.19a2.83,2.83,0,0,0-1.42-.23Z"/><rect x="34.39" y="15.95" width="0.11" height="0.24" transform="translate(-0.67 1.53) rotate(-2.52)"/><path d="M27.3,16.28a3,3,0,0,1,1.53-.37l0,.24a3.15,3.15,0,0,0-1.48.31Z"/><path d="M28.84,15.91c.91.09,1.09.43,1.54.57l0,.09a4.73,4.73,0,0,0-1.53-.42Z"/><polygon points="28.87 16.16 28.76 16.15 28.78 15.9 28.89 15.91 28.87 16.16"/></g><g id="fb43e43e-03fe-4794-810f-a98c103baed9" data-name="oreja der"><path class="b1fe68f9-0fda-4466-92f7-a475d7581649" d="M36.78,22.06a1.5,1.5,0,0,1,.54-.58,1,1,0,0,1,.67,0,1.13,1.13,0,0,1,.43.72,1.11,1.11,0,0,1-.1.84,1.11,1.11,0,0,1-.79.27,1.15,1.15,0,0,1-.67-.26A1.7,1.7,0,0,1,36.78,22.06Z"/><path d="M36.76,22.05a1.46,1.46,0,0,1,.53-.63l.06.13a1.29,1.29,0,0,0-.54.52Z"/><path d="M37.29,21.42a1.07,1.07,0,0,1,.75,0l-.07.13a.8.8,0,0,0-.61,0Z"/><polygon points="37.3 21.57 37.24 21.44 37.34 21.39 37.4 21.53 37.3 21.57"/><path d="M38,21.39a1.22,1.22,0,0,1,.48.78l-.13,0a1.09,1.09,0,0,0-.4-.67Z"/><polygon points="38.01 21.54 37.91 21.49 37.98 21.37 38.07 21.42 38.01 21.54"/><path d="M38.5,22.16a1.22,1.22,0,0,1-.11.9L38.28,23a1.15,1.15,0,0,0,.09-.79Z"/><polygon points="38.38 22.25 38.35 22.14 38.49 22.11 38.52 22.21 38.38 22.25"/><path d="M38.39,23.07a1.22,1.22,0,0,1-.86.29v-.15a1,1,0,0,0,.74-.24Z"/><polygon points="38.35 23.11 38.24 23.02 38.31 22.94 38.42 23.02 38.35 23.11"/><path d="M37.53,23.36a1.36,1.36,0,0,1-.69-.3l0,0a1.19,1.19,0,0,0,.65.2Z"/><rect x="37.47" y="23.21" width="0.11" height="0.14"/></g></g><ellipse class="a76e045a-4e4a-4012-af71-f180a7c4c1b5" cx="29.39" cy="19.83" rx="0.65" ry="1.19"/><path d="M29.39,21.07c-.4,0-.71-.54-.71-1.24s.31-1.24.71-1.24.71.55.71,1.24S29.79,21.07,29.39,21.07Zm0-2.37c-.32,0-.6.52-.6,1.13s.28,1.13.6,1.13.6-.52.6-1.13S29.72,18.7,29.39,18.7Z"/><ellipse class="a76e045a-4e4a-4012-af71-f180a7c4c1b5" cx="34.64" cy="19.83" rx="0.65" ry="1.19"/><path d="M34.64,21.07c-.39,0-.71-.54-.71-1.24s.32-1.24.71-1.24.71.55.71,1.24S35,21.07,34.64,21.07Zm0-2.37c-.33,0-.59.51-.59,1.13s.26,1.13.59,1.13.6-.52.6-1.13S35,18.7,34.64,18.7Z"/><path class="e7e91743-b8ef-4ae4-b0d5-595cb075aec2" d="M40.15,12.8,42.28,9A.72.72,0,0,0,42,8c-1.28-.83-4.41-2.8-5.34-2.85S26.07,8,23.07,8.93A.72.72,0,0,0,22.68,10l2.51,4Z"/><path class="a73e04d1-58fc-42b2-9379-9c4b76421029" d="M25.19,8.29s1.65,5.29,2.08,5.64,2.61-.65,2.61-.65-1.68-1.66-2.51-5.65Z"/><path class="fc966e9b-e789-4cd4-a63d-ba0f086ca230" d="M26.16,15.42s3.72-3,12.8-1l1.19-1.59s-6.45-2.56-15,1.22Z"/><path class="a10aedc3-02d3-4103-ae80-e765a68eb59b" d="M4.73,9.86a8,8,0,0,0-.82-.77l-.38-.32a.19.19,0,0,0-.26,0l-.38.32a8,8,0,0,0-.82.77,1.26,1.26,0,0,0-.33.81,1,1,0,0,0,.27.71.86.86,0,0,0,.66.29.82.82,0,0,0,.52-.18s0,0,0,0L3,12a.09.09,0,0,0,.09.11h.55A.08.08,0,0,0,3.75,12l-.19-.58s0,0,0,.05a.84.84,0,0,0,.52.18.9.9,0,0,0,.67-.29,1,1,0,0,0,.26-.71A1.26,1.26,0,0,0,4.73,9.86Z"/><path class="fa8a17e1-f68f-4f75-ac5f-17804c942d78" d="M3.67,12.15H3.12a.1.1,0,0,1-.09,0A.09.09,0,0,1,3,12l.17-.5a.82.82,0,0,1-.52.18.93.93,0,0,1-.68-.3,1.07,1.07,0,0,1-.27-.72,1.27,1.27,0,0,1,.34-.82,6.14,6.14,0,0,1,.81-.76l0,0,.37-.32a.21.21,0,0,1,.28,0l.37.32h0a8.13,8.13,0,0,1,.83.77h0a1.31,1.31,0,0,1,.33.82,1,1,0,0,1-.27.72.93.93,0,0,1-.68.3.82.82,0,0,1-.53-.19h0l.18.51a.12.12,0,0,1,0,.1A.09.09,0,0,1,3.67,12.15Zm-.44-.72h0s0,0,0,0l-.2.57a.07.07,0,0,0,0,.06.09.09,0,0,0,.06,0h.55a.05.05,0,0,0,.05,0,.07.07,0,0,0,0-.06l-.19-.58v0h0l.05,0a.81.81,0,0,0,.51.18.88.88,0,0,0,.65-.28,1,1,0,0,0,.26-.7,1.2,1.2,0,0,0-.32-.79h0A7.91,7.91,0,0,0,3.9,9.1h0l-.36-.32a.17.17,0,0,0-.23,0c-.14.11-.26.22-.37.32l0,0a6,6,0,0,0-.8.76,1.17,1.17,0,0,0-.33.79,1,1,0,0,0,.26.7.88.88,0,0,0,.65.28.79.79,0,0,0,.51-.18l0,0h0Z"/><path class="f8154fb4-6855-4ecd-8e0f-6eceb53fc72d" d="M4.07,9.65,4,9.63l-.63-.52a.08.08,0,0,1,0-.12.08.08,0,0,1,.11,0l.64.52a.09.09,0,0,1-.06.15Z"/><path class="f8154fb4-6855-4ecd-8e0f-6eceb53fc72d" d="M4.47,10s0,0,0,0L4.2,9.81a.08.08,0,0,1,0-.12.07.07,0,0,1,.11,0l.23.18a.09.09,0,0,1,0,.12A.09.09,0,0,1,4.47,10Z"/><path class="a10aedc3-02d3-4103-ae80-e765a68eb59b" d="M56.38,81.67a8,8,0,0,0,.82.78l.38.32a.19.19,0,0,0,.13,0,.18.18,0,0,0,.12,0l.38-.33a7.19,7.19,0,0,0,.83-.77,1.25,1.25,0,0,0,.32-.81,1,1,0,0,0-.26-.7.88.88,0,0,0-.66-.29.82.82,0,0,0-.52.18l-.05,0,.2-.56A.09.09,0,0,0,58,79.4h-.55a.09.09,0,0,0-.08.12l.19.57-.06,0a.8.8,0,0,0-.52-.18.88.88,0,0,0-.66.29,1,1,0,0,0-.26.7A1.21,1.21,0,0,0,56.38,81.67Z"/><path class="fa8a17e1-f68f-4f75-ac5f-17804c942d78" d="M57.44,79.38H58a.11.11,0,0,1,.09.05.1.1,0,0,1,0,.09l-.18.51a.87.87,0,0,1,.53-.18.92.92,0,0,1,.68.29,1.08,1.08,0,0,1,.26.72,1.22,1.22,0,0,1-.33.82,6.84,6.84,0,0,1-.81.77l0,0-.36.31a.23.23,0,0,1-.29,0l-.36-.31h0a6.41,6.41,0,0,1-.83-.78h0a1.22,1.22,0,0,1-.33-.82,1,1,0,0,1,.27-.72A.91.91,0,0,1,57.51,80h0l-.17-.52a.09.09,0,0,1,0-.09A.12.12,0,0,1,57.44,79.38Zm.43.72h0s0,0,0,0l.2-.57a.13.13,0,0,0,0-.06.09.09,0,0,0-.06,0h-.55a.09.09,0,0,0-.06,0,.06.06,0,0,0,0,.06l.19.58v0h0l-.06,0a.85.85,0,0,0-.51-.17.88.88,0,0,0-.65.28,1,1,0,0,0-.25.69,1.22,1.22,0,0,0,.32.8h0a7,7,0,0,0,.82.77h0l.37.32a.2.2,0,0,0,.23,0l.37-.32,0,0a6.67,6.67,0,0,0,.8-.76,1.24,1.24,0,0,0,.33-.8,1.05,1.05,0,0,0-.26-.69.88.88,0,0,0-.65-.28.85.85,0,0,0-.51.17l0,0,0,0Z"/><path class="f8154fb4-6855-4ecd-8e0f-6eceb53fc72d" d="M57,81.89a.07.07,0,0,1,.06,0l.63.51a.09.09,0,0,1-.11.13L57,82a.08.08,0,0,1,0-.12A.09.09,0,0,1,57,81.89Z"/><path class="f8154fb4-6855-4ecd-8e0f-6eceb53fc72d" d="M56.63,81.52l.06,0,.22.19a.08.08,0,0,1,0,.12.09.09,0,0,1-.12,0l-.22-.19a.08.08,0,0,1,0-.12A.09.09,0,0,1,56.63,81.52Z"/></g></g></svg>