<svg xmlns="http://www.w3.org/2000/svg" viewBox="0 0 61.11 91.54"><defs><style>.a234f97b-9d5c-48d3-a09b-5f0f6d619cce{fill:none;}.bc071353-bcea-4a48-8606-f3d286f4f52e{fill:#adadad;}.b7d08319-c10a-4226-81bf-913658df2969{fill:#363026;}.a05a44a7-1f7d-4b09-b200-384da67067f0{fill:#716b61;}.ae38f292-78cd-466e-8c5b-1f2ab4227f77{fill:#453f31;}.f5745085-e2dc-4ed7-a8fe-6e38c010a4eb{fill:#aaa194;}</style></defs><title>P_1</title><g id="abd843e7-00a8-49fe-a48d-d5dd612be7d5" data-name="Capa 2"><g id="e5587de5-79b0-403a-bf92-01da2f0862eb" data-name="Objects"><rect class="a234f97b-9d5c-48d3-a09b-5f0f6d619cce" x="0.13" y="0.12" width="60.86" height="91.29" rx="2.4"/><path class="bc071353-bcea-4a48-8606-f3d286f4f52e" d="M58.59,91.54H2.52A2.53,2.53,0,0,1,0,89V2.52A2.52,2.52,0,0,1,2.52,0H58.59a2.52,2.52,0,0,1,2.52,2.52V89A2.53,2.53,0,0,1,58.59,91.54ZM2.52.25A2.27,2.27,0,0,0,.25,2.52V89a2.28,2.28,0,0,0,2.27,2.28H58.59A2.28,2.28,0,0,0,60.86,89V2.52A2.27,2.27,0,0,0,58.59.25Z"/><path class="b7d08319-c10a-4226-81bf-913658df2969" d="M3.91,2.68,1.61,8.39a.35.35,0,0,1-.11.15.24.24,0,0,1-.15,0,.26.26,0,0,1-.2-.07.32.32,0,0,1-.06-.29l2.49-6.1A.49.49,0,0,1,3.7,2a.31.31,0,0,1,.17,0A.22.22,0,0,1,4,2a.26.26,0,0,1,.11.14L6.63,8.2a.36.36,0,0,1,0,.11.24.24,0,0,1-.09.2.27.27,0,0,1-.2.07.24.24,0,0,1-.16-.05.31.31,0,0,1-.11-.14L3.74,2.64Zm-1.75,4,.23-.55H5.32l.12.55Z"/><path class="b7d08319-c10a-4226-81bf-913658df2969" d="M57.2,88.85l2.3-5.71a.27.27,0,0,1,.25-.19A.28.28,0,0,1,60,83a.3.3,0,0,1,.08.18.22.22,0,0,1,0,.11l-2.5,6.11a.31.31,0,0,1-.12.15.38.38,0,0,1-.16,0,.34.34,0,0,1-.17,0,.53.53,0,0,1-.11-.14l-2.48-6.08a.52.52,0,0,1,0-.11.29.29,0,0,1,.08-.21.37.37,0,0,1,.2-.07.31.31,0,0,1,.17,0,.38.38,0,0,1,.11.14l2.35,5.75Zm1.75-4-.24.56H55.78l-.11-.56Z"/><path class="a05a44a7-1f7d-4b09-b200-384da67067f0" d="M5.17,9.88a6.45,6.45,0,0,0-.83-.77L4,8.78a.17.17,0,0,0-.12,0,.18.18,0,0,0-.13,0l-.38.33a7,7,0,0,0-.82.77,1.21,1.21,0,0,0-.33.81,1.05,1.05,0,0,0,.26.71.92.92,0,0,0,.66.29.85.85,0,0,0,.53-.18l0,0-.2.57a.08.08,0,0,0,.08.11H4.1A.08.08,0,0,0,4.18,12L4,11.46l.06,0a.82.82,0,0,0,.52.18.92.92,0,0,0,.66-.29,1.06,1.06,0,0,0,.27-.71A1.26,1.26,0,0,0,5.17,9.88Z"/><path class="ae38f292-78cd-466e-8c5b-1f2ab4227f77" d="M4.1,12.17H3.55a.12.12,0,0,1-.08,0,.1.1,0,0,1,0-.1l.18-.5a.85.85,0,0,1-.53.18.89.89,0,0,1-.67-.3,1,1,0,0,1-.27-.72,1.24,1.24,0,0,1,.33-.82,6.84,6.84,0,0,1,.81-.76l0,0,.37-.32a.21.21,0,0,1,.28,0l.37.32h0a6.45,6.45,0,0,1,.83.78h0a1.24,1.24,0,0,1,.33.82,1.06,1.06,0,0,1-.26.72.93.93,0,0,1-.68.3A.84.84,0,0,1,4,11.52H4L4.2,12a.12.12,0,0,1,0,.1A.1.1,0,0,1,4.1,12.17Zm-.43-.72h0s0,0,0,0l-.2.56s0,.05,0,.06a.05.05,0,0,0,0,0H4.1l.06,0a.15.15,0,0,0,0-.07L4,11.47s0,0,0,0H4l.06,0a.79.79,0,0,0,.51.18.88.88,0,0,0,.65-.28,1,1,0,0,0,.26-.7,1.24,1.24,0,0,0-.33-.8h0a8,8,0,0,0-.82-.77h0L4,8.8a.17.17,0,0,0-.23,0l-.37.31,0,0a7.82,7.82,0,0,0-.81.75,1.22,1.22,0,0,0-.32.8,1.07,1.07,0,0,0,.25.7.88.88,0,0,0,.65.28.79.79,0,0,0,.51-.18l0,0h0Z"/><path class="f5745085-e2dc-4ed7-a8fe-6e38c010a4eb" d="M4.51,9.67l0,0-.64-.52A.09.09,0,0,1,3.93,9l.63.52a.07.07,0,0,1,0,.11A.08.08,0,0,1,4.51,9.67Z"/><path class="f5745085-e2dc-4ed7-a8fe-6e38c010a4eb" d="M4.91,10l0,0-.23-.19a.08.08,0,0,1,0-.11.08.08,0,0,1,.12,0L5,9.88A.08.08,0,0,1,5,10,.07.07,0,0,1,4.91,10Z"/><path class="a05a44a7-1f7d-4b09-b200-384da67067f0" d="M55.93,81.31a6.45,6.45,0,0,0,.83.78l.37.32a.19.19,0,0,0,.26,0c.13-.11.26-.23.38-.32a7,7,0,0,0,.82-.78,1.19,1.19,0,0,0,.33-.8,1,1,0,0,0-.26-.71.88.88,0,0,0-.67-.29.84.84,0,0,0-.52.18s0,0,0,0l.2-.57a.09.09,0,0,0-.08-.12H57a.09.09,0,0,0-.09.12l.2.58-.06,0a.82.82,0,0,0-.52-.18.86.86,0,0,0-.66.29,1,1,0,0,0-.27.71A1.24,1.24,0,0,0,55.93,81.31Z"/><path class="ae38f292-78cd-466e-8c5b-1f2ab4227f77" d="M57,79h.55a.09.09,0,0,1,.08,0,.12.12,0,0,1,0,.1l-.18.5a.84.84,0,0,1,.52-.18.9.9,0,0,1,.68.3,1,1,0,0,1,.27.72,1.31,1.31,0,0,1-.33.82,7.73,7.73,0,0,1-.81.76l0,0-.37.32a.21.21,0,0,1-.28,0l-.37-.32h0a7,7,0,0,1-.82-.77h0a1.27,1.27,0,0,1-.34-.82,1,1,0,0,1,.27-.72.93.93,0,0,1,.68-.3.85.85,0,0,1,.53.18h0l-.17-.52A.09.09,0,0,1,57,79Zm.43.71h0s0,0,0,0l.2-.57a0,0,0,0,0,0-.06.05.05,0,0,0-.05,0H57a.06.06,0,0,0-.06,0,.07.07,0,0,0,0,.06l.19.58a0,0,0,0,1,0,0,0,0,0,0,1,0,0l-.05,0a.85.85,0,0,0-.51-.17.88.88,0,0,0-.65.28,1,1,0,0,0-.26.7,1.17,1.17,0,0,0,.33.79h0a5.68,5.68,0,0,0,.82.77h0l.37.32a.17.17,0,0,0,.23,0l.37-.32,0,0a6.84,6.84,0,0,0,.81-.76,1.2,1.2,0,0,0,.32-.79,1,1,0,0,0-.26-.7.88.88,0,0,0-1.16-.11l0,0h0Z"/><path class="f5745085-e2dc-4ed7-a8fe-6e38c010a4eb" d="M56.59,81.53l0,0,.64.52a.09.09,0,0,1,0,.12.09.09,0,0,1-.12,0l-.63-.52a.09.09,0,0,1,0-.12A.11.11,0,0,1,56.59,81.53Z"/><path class="f5745085-e2dc-4ed7-a8fe-6e38c010a4eb" d="M56.19,81.17s0,0,.05,0l.23.18a.09.09,0,0,1,0,.12.08.08,0,0,1-.12,0l-.23-.19a.08.08,0,0,1,0-.11A.11.11,0,0,1,56.19,81.17Z"/><path class="a05a44a7-1f7d-4b09-b200-384da67067f0" d="M38.28,42.49A41.37,41.37,0,0,0,33.5,38l-2.2-1.89a1.14,1.14,0,0,0-.75-.28,1.12,1.12,0,0,0-.74.28L27.61,38a42.41,42.41,0,0,0-4.79,4.49,7.22,7.22,0,0,0-1.91,4.7,6,6,0,0,0,1.53,4.12A5.2,5.2,0,0,0,26.3,53a4.83,4.83,0,0,0,3-1.05l.25-.21L28.42,55a.5.5,0,0,0,.47.67H32.1a.5.5,0,0,0,.48-.66l-1.12-3.36a2.69,2.69,0,0,0,.32.27,4.83,4.83,0,0,0,3,1.05,5.2,5.2,0,0,0,3.86-1.68,6.06,6.06,0,0,0,1.53-4.12A7.18,7.18,0,0,0,38.28,42.49Z"/><path class="ae38f292-78cd-466e-8c5b-1f2ab4227f77" d="M32.1,55.8H28.89a.6.6,0,0,1-.57-.81l1-2.92a5,5,0,0,1-3.05,1,5.29,5.29,0,0,1-3.94-1.72,6.16,6.16,0,0,1-1.56-4.19,7.3,7.3,0,0,1,1.94-4.77,40.66,40.66,0,0,1,4.79-4.49L29.74,36a1.26,1.26,0,0,1,1.63,0c.77.67,1.5,1.3,2.2,1.89a40.87,40.87,0,0,1,4.8,4.5h0a7.32,7.32,0,0,1,1.94,4.77,6.16,6.16,0,0,1-1.56,4.19,5.29,5.29,0,0,1-3.94,1.72A5,5,0,0,1,31.71,52l0,0,1,3a.63.63,0,0,1-.08.55A.62.62,0,0,1,32.1,55.8Zm-2.52-4.18.06,0a.11.11,0,0,1,0,.13l-1.16,3.29a.42.42,0,0,0,.05.36.38.38,0,0,0,.32.16H32.1a.38.38,0,0,0,.32-.16.39.39,0,0,0,0-.35l-1.12-3.36a.11.11,0,0,1,0-.13.11.11,0,0,1,.13,0l.32.27a4.71,4.71,0,0,0,3,1,5.08,5.08,0,0,0,3.78-1.64,6,6,0,0,0,1.5-4.05,7.09,7.09,0,0,0-1.89-4.63h0a41,41,0,0,0-4.76-4.47c-.71-.6-1.45-1.23-2.21-1.9a1.07,1.07,0,0,0-1.35,0c-.81.71-1.61,1.39-2.2,1.89a42.08,42.08,0,0,0-4.77,4.48A7.09,7.09,0,0,0,21,47.19a5.92,5.92,0,0,0,1.5,4.05,5.08,5.08,0,0,0,3.78,1.64,4.73,4.73,0,0,0,3-1l.25-.21A.11.11,0,0,1,29.58,51.62Z"/><path class="f5745085-e2dc-4ed7-a8fe-6e38c010a4eb" d="M34.46,41.24a.51.51,0,0,1-.31-.11l-3.68-3a.49.49,0,0,1-.06-.69.48.48,0,0,1,.68-.07l3.68,3a.49.49,0,0,1,.07.69A.53.53,0,0,1,34.46,41.24Z"/><path class="f5745085-e2dc-4ed7-a8fe-6e38c010a4eb" d="M36.79,43.36a.51.51,0,0,1-.32-.12l-1.29-1.08a.49.49,0,0,1-.06-.69.48.48,0,0,1,.69-.06l1.29,1.08a.48.48,0,0,1,.06.69A.46.46,0,0,1,36.79,43.36Z"/></g></g></svg>