<svg xmlns="http://www.w3.org/2000/svg" xmlns:xlink="http://www.w3.org/1999/xlink" viewBox="0 0 61.11 91.54"><defs><style>.a855e7c5-c7af-43b1-9647-829b36a29415{fill:none;}.e5207d96-e7e4-4792-b78c-b815221988c4{fill:#adadad;}.e0d124cf-9781-431b-bc9c-cfd1862f68b8{fill:#363026;}.e2e762e7-0f4a-45c4-932b-6f3569ffc87a{fill:#333;}.a401374a-c2b6-41be-87ef-f14b07fd5a7e{fill:#0b050f;}.ed872005-afb3-4adb-9adf-ca71d1ad72c9{fill:#aa292e;}.ba4dafa1-35cc-4805-8849-4fbd3cb840c3{fill:#f2f2f2;}.b2f29142-bd36-45c3-bf24-e43f01253981{fill:#3856c8;}.f821cc3b-02a2-4ca8-8d08-c6178674d759{fill:#bf9b4d;}.a1d16c65-bf59-4cc4-9e97-f70619672a6c{fill:#e8efff;}.b181a0c4-0c9f-4aa6-88fa-8c97a955e871{fill:#c9d8f7;}.fca50080-887b-46be-9dd5-e73b4a8adaab{fill:#715c57;}.be04ca9f-f09a-4d04-9b28-2d037eea4575{fill:#aa7941;}.e95bdb10-e351-422e-bfa7-ff6eaab17b43{fill:#6580be;}.b0db55c0-6aef-4988-816f-ccdab537a57c{fill:#3a60a7;}.ad1f0eba-f055-4cbe-b599-4d2944dd9fed{fill:#dda034;}.be097ff6-28f8-4f95-8043-e5dd4719c98e{fill:#ad7c34;}.aa242b61-528c-4691-abfe-6fc71921dd98{clip-path:url(#e6740d32-5378-4a3b-b957-11f26df3cf13);}.b320616e-6323-4b0c-aea4-c04286798d9e{fill:#f0f0f0;}.bb042131-ceef-4c5d-a77a-d0618055f25d{fill:#2e4278;}.e96baf1d-099f-42ed-bf81-67ffe136f05d{opacity:0.3;isolation:isolate;}.fbc9f3e7-635f-413e-b4c1-cc714dc58772{fill:#fff;}.fe2311b4-20f2-4b5f-a999-63bbe166a96a{fill:#252525;}.a6d2a507-1cfe-4ded-8b74-e6a06f5aa792{clip-path:url(#bf191a17-5b44-4e3c-8739-bcceb30ee26c);}.a6988ff3-e30b-4dab-8a1b-a9e2fc1f30b0{fill:#201e1c;}.bdc0c0d2-80ab-44e0-a536-057543247cb6{fill:#eab440;}.b5bfe980-e159-4f32-8420-1b2d7b4468a0{clip-path:url(#e930b673-9404-4046-8110-ab546176581a);}.b48ca000-af4f-4ba4-83af-92ac3d30c409{clip-path:url(#bf915620-6e46-489f-9512-79f294f1f529);}.bee0caed-8def-4be8-991c-f5eb57ccfcab{fill:#716b61;}.ef34219f-1652-40ff-9f8d-50130315ba66{fill:#453f31;}.be8cc475-5ae2-4474-a4ad-4307070b24de{fill:#aaa194;}</style><clipPath id="e6740d32-5378-4a3b-b957-11f26df3cf13"><path class="a855e7c5-c7af-43b1-9647-829b36a29415" d="M28.81,19.56c-.4-.47-.8-.47-2.28-.55s-2.43-.12-3,.9c-.17.34.08,1.63,2.62,1.77,2.83.16,3.12-.36,3.12-.36A3.61,3.61,0,0,0,28.81,19.56Z"/></clipPath><clipPath id="bf191a17-5b44-4e3c-8739-bcceb30ee26c"><path class="a855e7c5-c7af-43b1-9647-829b36a29415" d="M17.06,18.88c.35-.42.78-1.34,1.94-1.27s1.8,1.07,2.12,2.14a2.13,2.13,0,0,1-2.23,2.32c-2.24-.12-2.41-1.48-2.41-1.48A4.39,4.39,0,0,1,17.06,18.88Z"/></clipPath><clipPath id="e930b673-9404-4046-8110-ab546176581a"><path class="a855e7c5-c7af-43b1-9647-829b36a29415" d="M29.44,71.48c.4.47.8.46,2.28.54s2.43.13,3-.89c.18-.35-.07-1.64-2.61-1.78-2.84-.15-3.12.36-3.12.36A3.64,3.64,0,0,0,29.44,71.48Z"/></clipPath><clipPath id="bf915620-6e46-489f-9512-79f294f1f529"><path class="a855e7c5-c7af-43b1-9647-829b36a29415" d="M41.19,72.15c-.35.43-.78,1.34-1.94,1.28s-1.81-1.08-2.12-2.14A2.14,2.14,0,0,1,39.36,69c2.23.12,2.4,1.49,2.4,1.49A4.24,4.24,0,0,1,41.19,72.15Z"/></clipPath></defs><title>T_K</title><g id="a9f2b48f-798e-459e-b1fd-66b37a94c232" data-name="Capa 2"><g id="b1e63ddf-9ef2-4a9e-a3c0-e21eef2a767d" data-name="Objects"><rect class="a855e7c5-c7af-43b1-9647-829b36a29415" x="0.13" y="0.12" width="60.86" height="91.29" rx="2.4"/><path class="e5207d96-e7e4-4792-b78c-b815221988c4" d="M58.59,91.54H2.52A2.53,2.53,0,0,1,0,89V2.52A2.52,2.52,0,0,1,2.52,0H58.59a2.52,2.52,0,0,1,2.52,2.52V89A2.53,2.53,0,0,1,58.59,91.54ZM2.52.25A2.27,2.27,0,0,0,.25,2.52V89a2.28,2.28,0,0,0,2.27,2.28H58.59A2.28,2.28,0,0,0,60.86,89V2.52A2.27,2.27,0,0,0,58.59.25Z"/><path class="e0d124cf-9781-431b-bc9c-cfd1862f68b8" d="M2,8.55a.33.33,0,0,1-.22-.08.32.32,0,0,1-.08-.21v-6A.26.26,0,0,1,1.78,2,.28.28,0,0,1,2,1.93.25.25,0,0,1,2.2,2a.26.26,0,0,1,.09.21v6a.35.35,0,0,1-.1.21A.28.28,0,0,1,2,8.55ZM6.32,2A.25.25,0,0,1,6.51,2a.27.27,0,0,1,0,.38l-4.3,4L2.14,5.8l4-3.75A.26.26,0,0,1,6.32,2Zm.1,6.64a.28.28,0,0,1-.21-.11L3.53,5.11,4,4.66,6.68,8.09a.36.36,0,0,1,.06.2.23.23,0,0,1-.11.22A.37.37,0,0,1,6.42,8.59Z"/><path class="e0d124cf-9781-431b-bc9c-cfd1862f68b8" d="M54.69,83a.23.23,0,0,1,.2.1l2.69,3.38-.45.44-2.7-3.42a.37.37,0,0,1-.07-.2.27.27,0,0,1,.11-.23A.38.38,0,0,1,54.69,83Zm.1,6.64a.23.23,0,0,1-.19-.09.26.26,0,0,1-.09-.19.28.28,0,0,1,.09-.2l4.29-4,.08.65-4,3.75A.32.32,0,0,1,54.79,89.59ZM59.12,83a.25.25,0,0,1,.21.08.28.28,0,0,1,.08.21v6a.32.32,0,0,1-.08.21.29.29,0,0,1-.22.08.28.28,0,0,1-.21-.08.32.32,0,0,1-.08-.21v-6a.33.33,0,0,1,.09-.21A.28.28,0,0,1,59.12,83Z"/><path class="e2e762e7-0f4a-45c4-932b-6f3569ffc87a" d="M7.75,54.69V30.37a13.79,13.79,0,0,1,9.19-4.48S17.06,50.53,7.75,54.69Z"/><rect class="a401374a-c2b6-41be-87ef-f14b07fd5a7e" x="25.7" y="27.23" width="3.13" height="5.74"/><polygon class="a401374a-c2b6-41be-87ef-f14b07fd5a7e" points="19.43 25.49 23.63 25.99 22.56 30.99 19.43 30.99 19.43 25.49"/><rect class="ed872005-afb3-4adb-9adf-ca71d1ad72c9" x="28.85" y="24.95" width="3.13" height="5.74"/><rect class="ed872005-afb3-4adb-9adf-ca71d1ad72c9" x="22.57" y="26.82" width="3.13" height="5.74"/><polygon class="a401374a-c2b6-41be-87ef-f14b07fd5a7e" points="31.88 24.04 35.01 23.21 35.01 28.96 31.88 28.96 31.88 24.04"/><polygon class="ed872005-afb3-4adb-9adf-ca71d1ad72c9" points="35.03 23.1 36.37 22.64 38.16 26.68 35.03 26.68 35.03 23.1"/><path class="a401374a-c2b6-41be-87ef-f14b07fd5a7e" d="M16.11,26S17.2,42.07,7.75,54.69c0,1.11,0,1.67,0,1.67s5.56-2.61,8.72-13.64,1.86-17,1.86-17Z"/><path class="ba4dafa1-35cc-4805-8849-4fbd3cb840c3" d="M17.55,26.34s.29,10.59-2.32,16.93S10.8,53.94,7.75,56.33v4.84s8.59-8.3,11.4-17.65a74.51,74.51,0,0,0,2.92-18.36C19.88,24.85,17.94,25.59,17.55,26.34Z"/><path class="ed872005-afb3-4adb-9adf-ca71d1ad72c9" d="M17.39,26.06c0,.4.81.72,1.8.72s1.8-.32,1.8-.72-.8-.72-1.8-.72S17.39,25.67,17.39,26.06Z"/><path class="ed872005-afb3-4adb-9adf-ca71d1ad72c9" d="M17.53,27.65c0,.38.75.74,1.72.79S21,28.22,21,27.83s-.75-.74-1.72-.8S17.55,27.26,17.53,27.65Z"/><path class="ed872005-afb3-4adb-9adf-ca71d1ad72c9" d="M17.55,29.46c0,.38.7.78,1.65.88s1.75-.13,1.79-.5-.69-.78-1.64-.88S17.59,29.08,17.55,29.46Z"/><path class="ed872005-afb3-4adb-9adf-ca71d1ad72c9" d="M17.47,31.48c-.06.38.64.8,1.57.95s1.73,0,1.79-.39-.64-.8-1.57-.95S17.53,31.11,17.47,31.48Z"/><path class="ed872005-afb3-4adb-9adf-ca71d1ad72c9" d="M17.27,33.67c-.08.36.59.82,1.5,1s1.7.08,1.79-.28-.59-.82-1.5-1S17.35,33.3,17.27,33.67Z"/><path class="ed872005-afb3-4adb-9adf-ca71d1ad72c9" d="M17,36c-.1.36.54.85,1.42,1.11s1.69.17,1.79-.18-.53-.85-1.42-1.1S17.06,35.62,17,36Z"/><path class="ed872005-afb3-4adb-9adf-ca71d1ad72c9" d="M16.51,38.37c-.12.34.48.87,1.34,1.18s1.66.28,1.79-.07-.48-.87-1.34-1.18S16.63,38,16.51,38.37Z"/><path class="ed872005-afb3-4adb-9adf-ca71d1ad72c9" d="M15.94,40.82c-.15.33.42.89,1.26,1.25s1.64.38,1.78,0-.42-.9-1.26-1.25S16.08,40.48,15.94,40.82Z"/><path class="ed872005-afb3-4adb-9adf-ca71d1ad72c9" d="M15.23,43.27c-.17.33.37.93,1.19,1.34s1.61.47,1.78.15-.37-.93-1.19-1.34S15.39,43,15.23,43.27Z"/><path class="ed872005-afb3-4adb-9adf-ca71d1ad72c9" d="M14.38,45.71c-.18.32.31.95,1.11,1.41s1.59.58,1.78.26-.32-1-1.11-1.41S14.56,45.39,14.38,45.71Z"/><path class="ed872005-afb3-4adb-9adf-ca71d1ad72c9" d="M13.38,48.08c-.2.31.26,1,1,1.49s1.57.68,1.77.37-.25-1-1-1.49S13.59,47.77,13.38,48.08Z"/><path class="ed872005-afb3-4adb-9adf-ca71d1ad72c9" d="M12.24,50.35c-.22.31.2,1,1,1.57s1.55.77,1.77.47-.2-1-1-1.56S12.47,50.05,12.24,50.35Z"/><path class="ed872005-afb3-4adb-9adf-ca71d1ad72c9" d="M10.94,52.49c-.24.29.15,1,.88,1.64s1.53.88,1.77.58-.15-1-.88-1.64S11.19,52.2,10.94,52.49Z"/><path class="ed872005-afb3-4adb-9adf-ca71d1ad72c9" d="M9.48,54.45c-.27.28.1,1,.81,1.72s1.5,1,1.76.69-.09-1-.8-1.72S9.75,54.17,9.48,54.45Z"/><path class="ed872005-afb3-4adb-9adf-ca71d1ad72c9" d="M7.86,56.2c-.29.28,0,1.08.72,1.8s1.48,1.07,1.77.8,0-1.08-.73-1.8S8.14,55.93,7.86,56.2Z"/><rect class="b2f29142-bd36-45c3-bf24-e43f01253981" x="25.91" y="34.56" width="4.97" height="5.5"/><polygon class="f821cc3b-02a2-4ca8-8d08-c6178674d759" points="30.67 39.83 25.91 39.83 25.91 44.82 30.67 39.83"/><rect class="f821cc3b-02a2-4ca8-8d08-c6178674d759" x="25.83" y="35.32" width="5.01" height="4.08"/><polygon class="f821cc3b-02a2-4ca8-8d08-c6178674d759" points="30.84 34.96 25.91 34.96 25.91 33.63 30.84 30.64 30.84 34.96"/><path class="e2e762e7-0f4a-45c4-932b-6f3569ffc87a" d="M25,45.3l.19-11.58-4.08-2.31s-.8,9.59-1.77,11.31S25,45.3,25,45.3Z"/><polygon class="a1d16c65-bf59-4cc4-9e97-f70619672a6c" points="24.88 45.33 26.09 44.73 26.09 32.88 24.88 32.88 24.88 45.33"/><polygon class="a401374a-c2b6-41be-87ef-f14b07fd5a7e" points="24.49 45.78 25.7 45.18 25.7 33.33 24.49 33.33 24.49 45.78"/><path class="a401374a-c2b6-41be-87ef-f14b07fd5a7e" d="M16.56,49.8c.41-1,1.11-2,1.62-3a16.34,16.34,0,0,0,1.71-5.1H20a5.94,5.94,0,0,1,5.52,3.75,4.89,4.89,0,0,1-.59.62c-.42.35-.91.63-1.35,1a23.82,23.82,0,0,1-3,2.56,19.84,19.84,0,0,1-2.78,1.15,9.36,9.36,0,0,1-1.24.39l-.38,0C16.26,50.66,16.4,50.21,16.56,49.8Z"/><path class="f821cc3b-02a2-4ca8-8d08-c6178674d759" d="M16.56,49.8c.41-1,1.11-2,1.62-3a16.49,16.49,0,0,0,1.63-4.63H20a5.48,5.48,0,0,1,5.17,3.67l-.24.23c-.42.35-.91.63-1.35,1a23.82,23.82,0,0,1-3,2.56,19.84,19.84,0,0,1-2.78,1.15,9.36,9.36,0,0,1-1.24.39l-.38,0C16.26,50.66,16.4,50.21,16.56,49.8Z"/><path class="b2f29142-bd36-45c3-bf24-e43f01253981" d="M18.18,46.81a18.44,18.44,0,0,0,.89-2,2.93,2.93,0,0,1,.9-.14,3,3,0,0,1,3,2.88,12.66,12.66,0,0,1-2.42,2,13.66,13.66,0,0,1-1.75.77,3,3,0,0,1-1.61-1.77C17.49,48,17.87,47.41,18.18,46.81Z"/><polygon class="e2e762e7-0f4a-45c4-932b-6f3569ffc87a" points="36.75 35.95 31.88 38.76 31.63 29.69 36.75 26.87 36.75 35.95"/><rect class="a1d16c65-bf59-4cc4-9e97-f70619672a6c" x="30.67" y="30.1" width="1.21" height="9.17"/><path class="b181a0c4-0c9f-4aa6-88fa-8c97a955e871" d="M41.38,24.12a14,14,0,0,0-4.26-1.48l-.26,13.14a19,19,0,0,1,4.81-1.17Z"/><polygon class="fca50080-887b-46be-9dd5-e73b4a8adaab" points="41.38 24.12 42.13 24.4 42.13 34.52 41.38 34.52 41.38 24.12"/><path class="a401374a-c2b6-41be-87ef-f14b07fd5a7e" d="M42.13,24.4a10.19,10.19,0,0,1,1.61.84v9.14H42.13Z"/><path class="e2e762e7-0f4a-45c4-932b-6f3569ffc87a" d="M43.74,25.24a19.16,19.16,0,0,1,6.76,4.81v4.33H43.74Z"/><rect class="a401374a-c2b6-41be-87ef-f14b07fd5a7e" x="31.12" y="29.69" width="1.21" height="9.17"/><rect class="fca50080-887b-46be-9dd5-e73b4a8adaab" x="36.37" y="22.64" width="0.75" height="12.89"/><path class="be04ca9f-f09a-4d04-9b28-2d037eea4575" d="M17.09,51.31a5.07,5.07,0,0,0,1.79-.37c2.47-.94,5.48-3.51,9-7.65,4.19-5,8.31-7,11-7.74a22.34,22.34,0,0,1,6.3-.69l.14-.81a22,22,0,0,0-6.61.69c-2.85.81-7.14,2.86-11.49,8-7.81,9.3-10.79,7.61-10.82,7.59l-.47.68A2.09,2.09,0,0,0,17.09,51.31Z"/><path class="a1d16c65-bf59-4cc4-9e97-f70619672a6c" d="M36.37,26.35s-10.07,6.57-11,6.57-3.81-2-3.81-2v1.16a29.64,29.64,0,0,0,3.89,2.3c.45,0,10.94-6.8,10.94-6.8Z"/><path class="f821cc3b-02a2-4ca8-8d08-c6178674d759" d="M36.37,25.55s-10.07,6.69-11,6.69S21.54,30,21.54,30v1.13a29.89,29.89,0,0,0,3.89,2.22c.45,0,10.94-6.59,10.94-6.59Z"/><path class="be04ca9f-f09a-4d04-9b28-2d037eea4575" d="M21.82,26.42s0,11-2.47,18S10.61,61.31,8.77,62.2l-1-1s4.41-3.63,10.71-17.25c1.64-6.74,1.71-4,2.5-17.72Z"/><path class="e95bdb10-e351-422e-bfa7-ff6eaab17b43" d="M17.14,18.75a.16.16,0,0,1,.23,0c.54.56,2.62,2.79,1.53,3a28.44,28.44,0,0,1-4.23.3.15.15,0,0,1-.11,0,.16.16,0,0,1,0-.23l2.59-3.06Z"/><path class="b0db55c0-6aef-4988-816f-ccdab537a57c" d="M14.66,22.14a.21.21,0,0,1-.13-.05.22.22,0,0,1,0-.3l2.59-3.06a.19.19,0,0,1,.15-.08.2.2,0,0,1,.16.07c.62.63,2,2.18,1.84,2.84a.42.42,0,0,1-.33.28,29.38,29.38,0,0,1-4.24.3Zm2.59-3.39a.13.13,0,0,0-.09,0l-2.58,3.07a.09.09,0,0,0,0,.07.11.11,0,0,0,.12.11h0a27.67,27.67,0,0,0,4.22-.3.31.31,0,0,0,.26-.21c.14-.5-.84-1.74-1.82-2.75a.11.11,0,0,0-.08,0Z"/><path class="e95bdb10-e351-422e-bfa7-ff6eaab17b43" d="M37.49,22.07a12.51,12.51,0,0,0-1.93-8.54c-2.82-3.6-5.92-3.89-8.1-4.13a12.16,12.16,0,0,0-8.87,3c-2.31,1.94-2.28,7.07-1.83,9.6.53,3,4.14,4.86,9.79,5.45C31.82,28,37,24.23,37.49,22.07Z"/><path class="b0db55c0-6aef-4988-816f-ccdab537a57c" d="M26.54,27.46v0c-5.81-.61-9.31-2.56-9.83-5.49-.48-2.73-.41-7.75,1.85-9.65a12.17,12.17,0,0,1,8.9-3h.1a10.41,10.41,0,0,1,8,4.14,12.56,12.56,0,0,1,1.94,8.58c-.24,1.12-1.73,2.61-3.69,3.72a13,13,0,0,1-6.22,1.72A9.82,9.82,0,0,1,26.54,27.46ZM18.62,12.39c-2.22,1.87-2.29,6.86-1.81,9.56.51,2.89,4,4.81,9.74,5.41a9.24,9.24,0,0,0,1.05.06c4.84,0,9.41-3.37,9.84-5.36a12.44,12.44,0,0,0-1.92-8.5,10.28,10.28,0,0,0-8-4.1h-.1a8.89,8.89,0,0,0-1-.06A12.42,12.42,0,0,0,18.62,12.39Z"/><path class="ad1f0eba-f055-4cbe-b599-4d2944dd9fed" d="M22.23,22.73c1.12.06,1.83.66,1.49,1.1a2,2,0,0,1-1.6.79,2.33,2.33,0,0,1-1.72-1C20.08,23.18,21.1,22.67,22.23,22.73Z"/><path class="be097ff6-28f8-4f95-8043-e5dd4719c98e" d="M22.11,24.67a2.42,2.42,0,0,1-1.76-1h0a.33.33,0,0,1,0-.38,2.25,2.25,0,0,1,1.88-.61,1.91,1.91,0,0,1,1.59.72.43.43,0,0,1-.06.46,2.07,2.07,0,0,1-1.56.81ZM22,22.77a2,2,0,0,0-1.62.57.26.26,0,0,0,0,.28h0a2.35,2.35,0,0,0,1.69.95,2,2,0,0,0,1.56-.77.34.34,0,0,0,0-.36,1.79,1.79,0,0,0-1.5-.66Z"/><g class="aa242b61-528c-4691-abfe-6fc71921dd98"><g id="ff8a8d16-727a-4199-90fc-bef726a817cb" data-name="ojo der-3"><path class="b320616e-6323-4b0c-aea4-c04286798d9e" d="M28.81,19.56a2.85,2.85,0,0,0-2.3-1.51,3.07,3.07,0,0,0-2.94,1.86c-.17.34,0,2.45,2.52,2.59,2.84.15,3.22-1.18,3.22-1.18A3.61,3.61,0,0,0,28.81,19.56Z"/></g><g id="a6d763e4-d6df-4c7e-af59-24dee8189608" data-name="pupila der"><circle class="bb042131-ceef-4c5d-a77a-d0618055f25d" cx="27.84" cy="20.82" r="1.5"/></g><g id="b6a4e6d5-01ba-4753-b0da-21c08b1c14b5" data-name="ojo der-4" class="e96baf1d-099f-42ed-bf81-67ffe136f05d"><path class="e95bdb10-e351-422e-bfa7-ff6eaab17b43" d="M29.21,20.38c0,.26.18.94.07,1a3.87,3.87,0,0,0-2.94-1.48,3.22,3.22,0,0,0-2.72,1,1.32,1.32,0,0,1-.07-.88,3.23,3.23,0,0,1,1.28-1.56,5.79,5.79,0,0,1,2.08-.23,2.85,2.85,0,0,1,2.3,2.16"/></g><g id="afd7bc85-6f33-4c9d-b796-f06635c21527" data-name="brillo ojo der"><circle class="fbc9f3e7-635f-413e-b4c1-cc714dc58772" cx="27.35" cy="20.06" r="0.27" transform="translate(5.79 46.25) rotate(-86.8)"/></g></g><path class="fe2311b4-20f2-4b5f-a999-63bbe166a96a" d="M23.54,20a.76.76,0,0,1,.11-.32,1,1,0,0,1,.73-.59A5,5,0,0,0,25.53,19a15.65,15.65,0,0,1,1.85-.21c1.5.24,2,.92,2.19,1.76a.91.91,0,0,1-.35.92,2.4,2.4,0,0,0-2.53-2.32c-.77,0-2.34-.1-3.16,1Z"/><g class="a6d2a507-1cfe-4ded-8b74-e6a06f5aa792"><g id="e2c4338f-38c0-4e08-8d6a-af721d2e371e" data-name="ojo der-5"><path class="b320616e-6323-4b0c-aea4-c04286798d9e" d="M17.06,18.88c.35-.42.78-1.34,1.94-1.27s1.8,1.07,2.12,2.14a2.13,2.13,0,0,1-2.23,2.32c-2.24-.12-2.41-1.48-2.41-1.48A4.39,4.39,0,0,1,17.06,18.88Z"/></g><g id="b9098a87-05fc-4957-a0dd-5dbefb220e41" data-name="pupila der-2"><ellipse class="bb042131-ceef-4c5d-a77a-d0618055f25d" cx="19.96" cy="20.26" rx="1.5" ry="1.18" transform="translate(-1.37 39.08) rotate(-86.83)"/></g><g id="a40b1e59-e4d3-45e6-9bbd-bac54f7e6d51" data-name="ojo der-6" class="e96baf1d-099f-42ed-bf81-67ffe136f05d"><path class="e95bdb10-e351-422e-bfa7-ff6eaab17b43" d="M16.66,19.66c0,.26-.24.92-.16,1A2.91,2.91,0,0,1,19,19.45a2.41,2.41,0,0,1,2,1.28,1.71,1.71,0,0,0,.14-.88,3.3,3.3,0,0,0-.85-1.68,3.64,3.64,0,0,0-1.6-.42c-1.5.05-2,1.91-2,1.91"/></g><g id="a6039db3-7976-46b9-8ccc-9760aad09801" data-name="brillo ojo der-2"><ellipse class="fbc9f3e7-635f-413e-b4c1-cc714dc58772" cx="20.47" cy="19.6" rx="0.27" ry="0.22" transform="translate(-0.23 38.96) rotate(-86.83)"/></g></g><path class="fe2311b4-20f2-4b5f-a999-63bbe166a96a" d="M21.12,19.85a1.08,1.08,0,0,0,0-.35c-.16-.54-.74-2.13-2.1-2.21-1.65-.09-2.5,1.48-2.69,2.54,0,0-.08.79.21.8,0,0,.48-3,2.46-2.83a2.37,2.37,0,0,1,2.16,2.05Z"/><path class="a6988ff3-e30b-4dab-8a1b-a9e2fc1f30b0" d="M18.31,14.3a1.12,1.12,0,0,1,.77-.23,1.32,1.32,0,0,1,.72.35,2.17,2.17,0,0,1,.24.29,2.52,2.52,0,0,1,.15.34,1.94,1.94,0,0,1-.29-.21l-.29-.18a1.62,1.62,0,0,0-.57-.2,1.93,1.93,0,0,0-1.18.44A1.28,1.28,0,0,1,18.31,14.3Z"/><path class="a6988ff3-e30b-4dab-8a1b-a9e2fc1f30b0" d="M27.79,18.69a10.37,10.37,0,0,1-1.36.33,11.34,11.34,0,0,1-2.79.13c.45-.12.91-.2,1.36-.28l1.36-.24,1.36-.23c.45-.09.9-.17,1.35-.29A4.5,4.5,0,0,1,27.79,18.69Z"/><path class="e95bdb10-e351-422e-bfa7-ff6eaab17b43" d="M35.63,23a27.53,27.53,0,0,0,4.24.07A.21.21,0,0,0,40,23a.17.17,0,0,0,0-.23l-2.75-2.92h0a.17.17,0,0,0-.23,0"/><path class="b0db55c0-6aef-4988-816f-ccdab537a57c" d="M35.62,23.05s0,0,0-.06h0a.07.07,0,0,1,.06,0,27.28,27.28,0,0,0,4.23.07.09.09,0,0,0,.07,0,.11.11,0,0,0,0-.16L37.2,19.91a.13.13,0,0,0-.09,0h0a.2.2,0,0,0-.08,0,.05.05,0,1,1-.08-.06.24.24,0,0,1,.16-.07h0a.23.23,0,0,1,.16.06L40,22.76a.24.24,0,0,1,0,.14.21.21,0,0,1-.2.22c-.46,0-1.26,0-2.07,0A14.83,14.83,0,0,1,35.62,23.05Z"/><g class="e96baf1d-099f-42ed-bf81-67ffe136f05d"><path class="e95bdb10-e351-422e-bfa7-ff6eaab17b43" d="M39.83,23.07c-.41.06-2.84.05-2.84.05l-.52.64C36.31,24,35.05,25,35.05,25a5.45,5.45,0,0,0,.18-3.21C36.12,22.08,40,23,40,23S40,23,39.83,23.07Z"/></g><path class="bdc0c0d2-80ab-44e0-a536-057543247cb6" d="M20,22.08a2.73,2.73,0,0,1-2.1.19c-.13,0-.18.43-.06.49a14.79,14.79,0,0,0,3.15,1,6,6,0,0,0,3.59-.08,3.66,3.66,0,0,0,1.49-1.39,12.93,12.93,0,0,1-3,0c-.49-.22-.57-.65-.73-.65s-.74.77-1.28.77A1.52,1.52,0,0,1,20,22.08Z"/><path class="be097ff6-28f8-4f95-8043-e5dd4719c98e" d="M21,23.77a14,14,0,0,1-3.16-1c-.12-.06-.12-.32-.07-.46s.13-.13.16-.13A2.69,2.69,0,0,0,20,22l0,0,0,0a1.49,1.49,0,0,0,1.05.31h0a1.7,1.7,0,0,0,.93-.53c.18-.15.27-.24.35-.24h0c.09,0,.15.09.23.2a1.27,1.27,0,0,0,.52.46,13.33,13.33,0,0,0,2.95,0h.1l-.05.08a3.63,3.63,0,0,1-1.52,1.42,5.28,5.28,0,0,1-1.74.3A8.78,8.78,0,0,1,21,23.77Zm5-1.46a11.75,11.75,0,0,1-2.9,0,1.39,1.39,0,0,1-.56-.49c-.06-.09-.11-.16-.15-.16h0a1.46,1.46,0,0,0-.28.22,1.79,1.79,0,0,1-1,.55h0a1.71,1.71,0,0,1-1.1-.31,2.88,2.88,0,0,1-2.1.17.1.1,0,0,0,0,.07c-.05.12,0,.31,0,.33a15.15,15.15,0,0,0,3.14,1,5.89,5.89,0,0,0,3.57-.08A3.39,3.39,0,0,0,26,22.31Z"/><path class="bdc0c0d2-80ab-44e0-a536-057543247cb6" d="M22.4,22.11a3.39,3.39,0,0,1,.38.37C22.18,22.26,22.34,22.08,22.4,22.11Z"/><path class="bdc0c0d2-80ab-44e0-a536-057543247cb6" d="M22.07,22.06a4.1,4.1,0,0,0-.41.34C22.28,22.23,22.14,22,22.07,22.06Z"/><path class="f821cc3b-02a2-4ca8-8d08-c6178674d759" d="M39.76,8.89l-3.19-1L35.64,11c-.8-.26-1.65-.49-2.52-.69l.62-3-3.41-.71-.63,3c-1-.15-1.95-.27-2.9-.37l.27-3.16-3.51-.3L23.29,9c-1.07-.07-2-.11-2.83-.14l-.27-3.21L16.36,6l.63,7.7.71-.06,0,.34,18.83,2.34.06-.29,1,.29Z"/><path class="a401374a-c2b6-41be-87ef-f14b07fd5a7e" d="M17.1,15a60,60,0,0,1,20.31,2.77l.25-1.7S24.54,11.78,17,13.47Z"/><path class="e2e762e7-0f4a-45c4-932b-6f3569ffc87a" d="M50.5,36.35V60.67a13.82,13.82,0,0,1-9.2,4.47S41.19,40.51,50.5,36.35Z"/><rect class="a401374a-c2b6-41be-87ef-f14b07fd5a7e" x="29.42" y="58.06" width="3.13" height="5.74"/><polygon class="a401374a-c2b6-41be-87ef-f14b07fd5a7e" points="38.82 65.54 34.62 65.04 35.69 60.05 38.82 60.05 38.82 65.54"/><rect class="ed872005-afb3-4adb-9adf-ca71d1ad72c9" x="26.27" y="60.35" width="3.13" height="5.74"/><rect class="ed872005-afb3-4adb-9adf-ca71d1ad72c9" x="32.55" y="58.47" width="3.13" height="5.74"/><polygon class="a401374a-c2b6-41be-87ef-f14b07fd5a7e" points="26.37 67 23.24 67.82 23.24 62.07 26.37 62.07 26.37 67"/><polygon class="ed872005-afb3-4adb-9adf-ca71d1ad72c9" points="23.21 67.93 21.88 68.4 20.09 64.36 23.21 64.36 23.21 67.93"/><path class="a401374a-c2b6-41be-87ef-f14b07fd5a7e" d="M42.14,65.05S41.05,49,50.5,36.35c0-1.11,0-1.68,0-1.68s-5.56,2.62-8.73,13.64-1.86,17-1.86,17Z"/><path class="ba4dafa1-35cc-4805-8849-4fbd3cb840c3" d="M40.7,64.69S40.41,54.1,43,47.76,47.45,37.09,50.5,34.7V29.86s-8.59,8.3-11.4,17.65a74.56,74.56,0,0,0-2.92,18.37C38.37,66.18,40.31,65.44,40.7,64.69Z"/><path class="ed872005-afb3-4adb-9adf-ca71d1ad72c9" d="M40.86,65c0-.4-.81-.72-1.8-.72s-1.8.32-1.8.72.8.72,1.8.72S40.86,65.37,40.86,65Z"/><path class="ed872005-afb3-4adb-9adf-ca71d1ad72c9" d="M40.72,63.39c0-.39-.75-.75-1.72-.8s-1.78.23-1.8.61.75.75,1.73.8S40.7,63.78,40.72,63.39Z"/><path class="ed872005-afb3-4adb-9adf-ca71d1ad72c9" d="M40.69,61.57c.05-.38-.69-.77-1.64-.87s-1.76.12-1.8.5.7.77,1.65.87S40.65,62,40.69,61.57Z"/><path class="ed872005-afb3-4adb-9adf-ca71d1ad72c9" d="M40.78,59.55c.06-.37-.64-.8-1.57-.95s-1.73,0-1.79.39.64.8,1.57.95S40.72,59.92,40.78,59.55Z"/><path class="ed872005-afb3-4adb-9adf-ca71d1ad72c9" d="M41,57.37c.08-.37-.59-.82-1.5-1s-1.71-.08-1.79.29.59.82,1.5,1S40.89,57.73,41,57.37Z"/><path class="ed872005-afb3-4adb-9adf-ca71d1ad72c9" d="M41.29,55.06c.11-.35-.53-.85-1.41-1.1s-1.69-.18-1.79.17.53.85,1.42,1.11S41.19,55.41,41.29,55.06Z"/><path class="ed872005-afb3-4adb-9adf-ca71d1ad72c9" d="M41.74,52.66c.12-.34-.48-.87-1.34-1.18s-1.66-.27-1.79.07.48.87,1.34,1.18S41.61,53,41.74,52.66Z"/><path class="ed872005-afb3-4adb-9adf-ca71d1ad72c9" d="M42.31,50.22c.14-.34-.42-.9-1.26-1.26s-1.64-.38-1.78,0,.42.9,1.26,1.26S42.17,50.56,42.31,50.22Z"/><path class="ed872005-afb3-4adb-9adf-ca71d1ad72c9" d="M43,47.76c.16-.33-.37-.92-1.19-1.33s-1.61-.48-1.78-.15.37.92,1.19,1.33S42.86,48.09,43,47.76Z"/><path class="ed872005-afb3-4adb-9adf-ca71d1ad72c9" d="M43.87,45.33c.18-.32-.31-.95-1.11-1.42s-1.6-.57-1.78-.25.31,1,1.11,1.41S43.68,45.64,43.87,45.33Z"/><path class="ed872005-afb3-4adb-9adf-ca71d1ad72c9" d="M44.86,43c.21-.31-.26-1-1-1.48s-1.57-.68-1.78-.37.26,1,1,1.49S44.66,43.26,44.86,43Z"/><path class="ed872005-afb3-4adb-9adf-ca71d1ad72c9" d="M46,40.68c.22-.3-.21-1-1-1.56s-1.55-.78-1.77-.48.2,1,.95,1.57S45.78,41,46,40.68Z"/><path class="ed872005-afb3-4adb-9adf-ca71d1ad72c9" d="M47.31,38.54c.24-.29-.15-1-.88-1.64s-1.53-.87-1.77-.58.14,1,.88,1.64S47.06,38.84,47.31,38.54Z"/><path class="ed872005-afb3-4adb-9adf-ca71d1ad72c9" d="M48.77,36.58c.26-.28-.1-1-.81-1.72s-1.5-1-1.77-.69.1,1.06.81,1.72S48.5,36.87,48.77,36.58Z"/><path class="ed872005-afb3-4adb-9adf-ca71d1ad72c9" d="M50.39,34.83c.29-.27,0-1.08-.73-1.79s-1.48-1.08-1.76-.8,0,1.08.73,1.79S50.11,35.11,50.39,34.83Z"/><rect class="b2f29142-bd36-45c3-bf24-e43f01253981" x="27.36" y="50.97" width="4.97" height="5.5"/><polygon class="f821cc3b-02a2-4ca8-8d08-c6178674d759" points="27.58 51.2 32.34 51.2 32.34 46.21 27.58 51.2"/><rect class="f821cc3b-02a2-4ca8-8d08-c6178674d759" x="27.41" y="51.63" width="5.01" height="4.08"/><polygon class="f821cc3b-02a2-4ca8-8d08-c6178674d759" points="27.41 56.07 32.34 56.07 32.34 57.41 27.41 60.39 27.41 56.07"/><path class="e2e762e7-0f4a-45c4-932b-6f3569ffc87a" d="M33.3,45.74l-.19,11.58,4.08,2.3S38,50,39,48.31,33.3,45.74,33.3,45.74Z"/><polygon class="a1d16c65-bf59-4cc4-9e97-f70619672a6c" points="33.37 45.7 32.16 46.3 32.16 58.15 33.37 58.15 33.37 45.7"/><polygon class="a401374a-c2b6-41be-87ef-f14b07fd5a7e" points="33.76 45.25 32.55 45.85 32.55 57.7 33.76 57.7 33.76 45.25"/><path class="a401374a-c2b6-41be-87ef-f14b07fd5a7e" d="M41.69,41.23c-.41,1-1.11,2-1.62,3a16.34,16.34,0,0,0-1.71,5.1h-.08a6,6,0,0,1-5.53-3.76c.19-.2.37-.42.6-.62.42-.35.91-.62,1.34-1a25.53,25.53,0,0,1,3.05-2.56,20.57,20.57,0,0,1,2.78-1.15,10.5,10.5,0,0,1,1.24-.39l.38.06C42,40.38,41.85,40.82,41.69,41.23Z"/><path class="f821cc3b-02a2-4ca8-8d08-c6178674d759" d="M41.69,41.23c-.41,1-1.11,2-1.62,3a16.49,16.49,0,0,0-1.63,4.63h-.16a5.49,5.49,0,0,1-5.17-3.67,2.72,2.72,0,0,1,.24-.24c.42-.35.91-.62,1.34-1a25.53,25.53,0,0,1,3.05-2.56,20.57,20.57,0,0,1,2.78-1.15,10.5,10.5,0,0,1,1.24-.39l.38,0C42,40.38,41.85,40.82,41.69,41.23Z"/><path class="b2f29142-bd36-45c3-bf24-e43f01253981" d="M40.07,44.22a16.8,16.8,0,0,0-.89,2,2.92,2.92,0,0,1-.9.13,3,3,0,0,1-3-2.88,12.72,12.72,0,0,1,2.42-2,15.21,15.21,0,0,1,1.75-.77,3,3,0,0,1,1.61,1.77C40.76,43,40.38,43.62,40.07,44.22Z"/><polygon class="e2e762e7-0f4a-45c4-932b-6f3569ffc87a" points="21.5 55.09 26.37 52.28 26.62 61.34 21.5 64.16 21.5 55.09"/><rect class="a1d16c65-bf59-4cc4-9e97-f70619672a6c" x="26.37" y="51.76" width="1.21" height="9.17"/><path class="b181a0c4-0c9f-4aa6-88fa-8c97a955e871" d="M16.87,66.92a14.21,14.21,0,0,0,4.25,1.48l.26-13.15a19.27,19.27,0,0,1-4.8,1.18Z"/><polygon class="fca50080-887b-46be-9dd5-e73b4a8adaab" points="16.87 66.92 16.11 66.63 16.11 56.52 16.87 56.52 16.87 66.92"/><path class="a401374a-c2b6-41be-87ef-f14b07fd5a7e" d="M16.11,66.63a9.4,9.4,0,0,1-1.6-.84V56.65h1.6Z"/><path class="e2e762e7-0f4a-45c4-932b-6f3569ffc87a" d="M14.51,65.79A19,19,0,0,1,7.75,61V56.65h6.76Z"/><rect class="a401374a-c2b6-41be-87ef-f14b07fd5a7e" x="25.92" y="52.17" width="1.21" height="9.17"/><rect class="fca50080-887b-46be-9dd5-e73b4a8adaab" x="21.12" y="55.5" width="0.75" height="12.89"/><path class="be04ca9f-f09a-4d04-9b28-2d037eea4575" d="M41.16,39.73a5.16,5.16,0,0,0-1.8.37c-2.46.93-5.48,3.5-8.95,7.64-4.19,5-8.31,7-11,7.75a21.73,21.73,0,0,1-6.3.68l-.15.82a22.81,22.81,0,0,0,6.62-.69c2.84-.81,7.14-2.86,11.49-8,7.81-9.29,10.79-7.6,10.82-7.58l.47-.68A2.09,2.09,0,0,0,41.16,39.73Z"/><path class="a1d16c65-bf59-4cc4-9e97-f70619672a6c" d="M21.88,64.68s10.07-6.57,11-6.57,3.81,2,3.81,2V59a29.64,29.64,0,0,0-3.89-2.3c-.45,0-10.94,6.8-10.94,6.8Z"/><path class="f821cc3b-02a2-4ca8-8d08-c6178674d759" d="M21.88,65.48S32,58.8,32.9,58.8s3.81,2.25,3.81,2.25V59.92a29.89,29.89,0,0,0-3.89-2.22c-.45,0-10.94,6.59-10.94,6.59Z"/><path class="be04ca9f-f09a-4d04-9b28-2d037eea4575" d="M36.43,64.62s0-11,2.47-18,8.74-16.87,10.58-17.77l1,1s-4.41,3.63-10.71,17.26c-1.64,6.74-1.71,4-2.5,17.72Z"/><path class="e95bdb10-e351-422e-bfa7-ff6eaab17b43" d="M41.11,72.29a.16.16,0,0,1-.23,0c-.54-.56-2.62-2.78-1.53-3a29.8,29.8,0,0,1,4.23-.31.21.21,0,0,1,.11,0,.16.16,0,0,1,0,.23l-2.59,3.07Z"/><path class="b0db55c0-6aef-4988-816f-ccdab537a57c" d="M43.58,68.89a.24.24,0,0,1,.14,0,.22.22,0,0,1,0,.3l-2.59,3.07a.21.21,0,0,1-.15.07.23.23,0,0,1-.16-.06c-.62-.64-2-2.19-1.84-2.85a.39.39,0,0,1,.33-.27,29.41,29.41,0,0,1,4.24-.31ZM41,72.28a.09.09,0,0,0,.08,0l2.59-3.06a.11.11,0,0,0,0-.07.12.12,0,0,0-.12-.12h0a30.48,30.48,0,0,0-4.22.3c-.14,0-.23.1-.26.21-.15.5.84,1.75,1.82,2.75a.12.12,0,0,0,.08,0Z"/><path class="e95bdb10-e351-422e-bfa7-ff6eaab17b43" d="M20.76,69a12.51,12.51,0,0,0,1.93,8.54c2.82,3.61,5.92,3.89,8.1,4.13a12.15,12.15,0,0,0,8.87-2.95c2.31-1.94,2.28-7.07,1.83-9.6-.53-3-4.14-4.87-9.79-5.46C26.43,63.07,21.22,66.81,20.76,69Z"/><path class="b0db55c0-6aef-4988-816f-ccdab537a57c" d="M31.7,63.57v0c5.82.61,9.31,2.56,9.83,5.5.49,2.72.41,7.75-1.84,9.64a12.14,12.14,0,0,1-8.91,3h-.1a10.34,10.34,0,0,1-8-4.14A12.54,12.54,0,0,1,20.71,69c.24-1.12,1.73-2.61,3.69-3.71a13,13,0,0,1,6.22-1.72C31,63.52,31.34,63.54,31.7,63.57Zm7.93,15.07c2.22-1.87,2.29-6.85,1.81-9.56-.52-2.88-4-4.81-9.75-5.41a8.94,8.94,0,0,0-1-.05c-4.84,0-9.42,3.37-9.85,5.35a12.48,12.48,0,0,0,1.93,8.5,10.24,10.24,0,0,0,8,4.1h.1a9.07,9.07,0,0,0,1,.06A12.4,12.4,0,0,0,39.63,78.64Z"/><path class="ad1f0eba-f055-4cbe-b599-4d2944dd9fed" d="M36,68.3c-1.13-.06-1.83-.65-1.49-1.09a2,2,0,0,1,1.6-.79,2.31,2.31,0,0,1,1.72,1C38.17,67.85,37.15,68.37,36,68.3Z"/><path class="be097ff6-28f8-4f95-8043-e5dd4719c98e" d="M36.13,66.37a2.4,2.4,0,0,1,1.76,1h0a.33.33,0,0,1,0,.39,2.23,2.23,0,0,1-1.89.6,1.9,1.9,0,0,1-1.58-.72.41.41,0,0,1,.06-.45,2,2,0,0,1,1.55-.81Zm.08,1.89a2.08,2.08,0,0,0,1.62-.56.24.24,0,0,0,0-.28h0a2.28,2.28,0,0,0-1.68-1,1.94,1.94,0,0,0-1.56.76.34.34,0,0,0,0,.36,1.74,1.74,0,0,0,1.5.66Z"/><g class="b5bfe980-e159-4f32-8420-1b2d7b4468a0"><g id="e9747a33-65d1-40f2-a708-81f50e92befb" data-name="ojo der-3"><path class="b320616e-6323-4b0c-aea4-c04286798d9e" d="M29.44,71.47A2.83,2.83,0,0,0,31.74,73a3,3,0,0,0,2.93-1.85c.18-.35,0-2.45-2.52-2.59-2.83-.16-3.21,1.17-3.21,1.17A3.58,3.58,0,0,0,29.44,71.47Z"/></g><g id="f6085fa7-6919-4d04-8629-061e9df9d70c" data-name="pupila der"><circle class="bb042131-ceef-4c5d-a77a-d0618055f25d" cx="30.41" cy="70.21" r="1.5"/></g><g id="b8911ae2-f7ea-4a7a-bc91-afd8c46d93c9" data-name="ojo der-4" class="e96baf1d-099f-42ed-bf81-67ffe136f05d"><path class="e95bdb10-e351-422e-bfa7-ff6eaab17b43" d="M29,70.65c0-.25-.18-.94-.07-1a3.83,3.83,0,0,0,2.94,1.49,3.24,3.24,0,0,0,2.72-1,1.32,1.32,0,0,1,.07.88,3.21,3.21,0,0,1-1.29,1.57,5.55,5.55,0,0,1-2.07.22A2.84,2.84,0,0,1,29,70.65"/></g><g id="eb34e61b-d8ea-4515-9c17-6af8787f1b24" data-name="brillo ojo der"><circle class="fbc9f3e7-635f-413e-b4c1-cc714dc58772" cx="30.9" cy="70.97" r="0.27" transform="translate(-41.69 97.86) rotate(-86.8)"/></g></g><path class="fe2311b4-20f2-4b5f-a999-63bbe166a96a" d="M34.71,71a.92.92,0,0,1-.11.33,1.08,1.08,0,0,1-.73.58,5,5,0,0,0-1.15.13,13.8,13.8,0,0,1-1.85.21c-1.5-.24-2-.92-2.19-1.76a.89.89,0,0,1,.35-.91,2.38,2.38,0,0,0,2.53,2.31c.76,0,2.34.1,3.16-1Z"/><g class="b48ca000-af4f-4ba4-83af-92ac3d30c409"><g id="ec597b20-130d-4422-8eed-a16cdbfbbe59" data-name="ojo der-5"><path class="b320616e-6323-4b0c-aea4-c04286798d9e" d="M41.19,72.15c-.35.43-.78,1.34-1.94,1.28s-1.81-1.08-2.12-2.14A2.14,2.14,0,0,1,39.36,69c2.23.12,2.4,1.49,2.4,1.49A4.24,4.24,0,0,1,41.19,72.15Z"/></g><g id="fc8c1b24-6694-4d76-97dd-8fab7ec76913" data-name="pupila der-2"><ellipse class="bb042131-ceef-4c5d-a77a-d0618055f25d" cx="38.28" cy="70.77" rx="1.5" ry="1.18" transform="matrix(0.06, -1, 1, 0.06, -34.5, 105.08)"/></g><g id="a1e100ac-49bd-4220-a8fd-26eb5e15db86" data-name="ojo der-6" class="e96baf1d-099f-42ed-bf81-67ffe136f05d"><path class="e95bdb10-e351-422e-bfa7-ff6eaab17b43" d="M41.59,71.37c0-.26.23-.92.16-1a3,3,0,0,1-2.45,1.19,2.46,2.46,0,0,1-2-1.28,1.59,1.59,0,0,0-.13.87A3.3,3.3,0,0,0,38,72.86a3.63,3.63,0,0,0,1.6.43c1.5-.06,2-1.92,2-1.92"/></g><g id="f5b33d32-3d8c-49f6-8969-30241058c4ad" data-name="brillo ojo der-2"><ellipse class="fbc9f3e7-635f-413e-b4c1-cc714dc58772" cx="37.77" cy="71.43" rx="0.27" ry="0.22" transform="translate(-35.64 105.2) rotate(-86.83)"/></g></g><path class="fe2311b4-20f2-4b5f-a999-63bbe166a96a" d="M37.13,71.18a1,1,0,0,0,0,.35c.16.55.74,2.14,2.1,2.21,1.65.09,2.5-1.48,2.68-2.54,0,0,.09-.78-.2-.8,0,0-.48,3-2.46,2.83a2.36,2.36,0,0,1-2.16-2Z"/><path class="a6988ff3-e30b-4dab-8a1b-a9e2fc1f30b0" d="M39.94,76.73a1.13,1.13,0,0,1-.77.23,1.23,1.23,0,0,1-.72-.35,2.17,2.17,0,0,1-.24-.29,2.07,2.07,0,0,1-.15-.34,1.94,1.94,0,0,1,.29.21c.1.06.19.13.29.18a1.4,1.4,0,0,0,.56.2,1.87,1.87,0,0,0,1.19-.44A1.28,1.28,0,0,1,39.94,76.73Z"/><path class="a6988ff3-e30b-4dab-8a1b-a9e2fc1f30b0" d="M30.46,72.34A9,9,0,0,1,31.82,72a11.34,11.34,0,0,1,2.79-.14c-.46.12-.91.21-1.37.29l-1.35.23c-.46.07-.91.16-1.36.24s-.9.17-1.35.29A4.81,4.81,0,0,1,30.46,72.34Z"/><path class="e95bdb10-e351-422e-bfa7-ff6eaab17b43" d="M22.62,68A30.32,30.32,0,0,0,18.38,68a.17.17,0,0,0-.11.28L21,71.16h0a.16.16,0,0,0,.23,0"/><path class="b0db55c0-6aef-4988-816f-ccdab537a57c" d="M22.63,68a.07.07,0,0,1,0,.06h0s0,0-.05,0A28.58,28.58,0,0,0,18.38,68a.09.09,0,0,0-.07,0,.11.11,0,0,0,0,.16l2.75,2.92a.09.09,0,0,0,.08,0h0a.12.12,0,0,0,.08,0,0,0,0,0,1,.07,0s0,0,0,.06a.19.19,0,0,1-.15.08h0a.23.23,0,0,1-.15-.07l-2.75-2.92a.35.35,0,0,1-.06-.14.23.23,0,0,1,.21-.22c.46,0,1.26,0,2.07,0A16.36,16.36,0,0,1,22.63,68Z"/><g class="e96baf1d-099f-42ed-bf81-67ffe136f05d"><path class="e95bdb10-e351-422e-bfa7-ff6eaab17b43" d="M18.42,68c.41,0,2.83,0,2.83,0s.36-.44.52-.65S23.2,66,23.2,66A5.49,5.49,0,0,0,23,69.23c-.89-.27-4.8-1.14-4.8-1.14S18.22,68,18.42,68Z"/></g><path class="bdc0c0d2-80ab-44e0-a536-057543247cb6" d="M38.21,69a2.73,2.73,0,0,1,2.1-.19c.13,0,.18-.43.06-.49a14.83,14.83,0,0,0-3.15-1,6.14,6.14,0,0,0-3.6.07,3.66,3.66,0,0,0-1.49,1.4,12.92,12.92,0,0,1,3,0c.49.22.56.65.73.65s.74-.77,1.28-.77A1.58,1.58,0,0,1,38.21,69Z"/><path class="be097ff6-28f8-4f95-8043-e5dd4719c98e" d="M37.23,67.26a14.49,14.49,0,0,1,3.16,1c.12.06.11.31.06.45s-.12.14-.15.13a2.75,2.75,0,0,0-2.06.18l0,0,0,0a1.49,1.49,0,0,0-1.05-.32h0a1.7,1.7,0,0,0-.93.53c-.18.16-.28.24-.35.24h0c-.09,0-.16-.09-.23-.2a1.25,1.25,0,0,0-.52-.45,12.71,12.71,0,0,0-3,0H32l.05-.09a3.69,3.69,0,0,1,1.52-1.41A5,5,0,0,1,35.35,67,9.47,9.47,0,0,1,37.23,67.26Zm-5,1.46a11.27,11.27,0,0,1,2.9,0,1.28,1.28,0,0,1,.55.48c.07.09.12.16.16.16h0a1,1,0,0,0,.28-.21,1.74,1.74,0,0,1,1-.56h0a1.71,1.71,0,0,1,1.09.32,2.85,2.85,0,0,1,2.11-.18s0,0,0-.06a.42.42,0,0,0,0-.34,15.35,15.35,0,0,0-3.14-1,6,6,0,0,0-3.57.08,3.39,3.39,0,0,0-1.41,1.29Z"/><path class="bdc0c0d2-80ab-44e0-a536-057543247cb6" d="M35.85,68.93a3.62,3.62,0,0,1-.39-.37C36.06,68.77,35.91,69,35.85,68.93Z"/><path class="bdc0c0d2-80ab-44e0-a536-057543247cb6" d="M36.17,69a3.21,3.21,0,0,0,.41-.34C36,68.8,36.11,69,36.17,69Z"/><path class="f821cc3b-02a2-4ca8-8d08-c6178674d759" d="M18.49,82.15l3.19.95L22.6,80c.81.26,1.66.49,2.53.7l-.62,3,3.4.72.64-3c1,.15,1.95.28,2.89.38l-.26,3.16,3.51.3L35,82c1.06.07,2,.12,2.83.15l.26,3.21,3.84-.32-.63-7.7-.72.06,0-.34L21.74,74.74l-.06.29-1-.29Z"/><path class="a401374a-c2b6-41be-87ef-f14b07fd5a7e" d="M41.15,76.06a60.16,60.16,0,0,1-20.31-2.78L20.59,75s13.12,4.26,20.7,2.57Z"/><path class="bee0caed-8def-4be8-991c-f5eb57ccfcab" d="M4.32,9.93a.89.89,0,0,0,0-.43,1,1,0,0,0-1.89.17,1.15,1.15,0,0,0,0,.26.94.94,0,0,0-.79,1,1,1,0,0,0,.89.86,1,1,0,0,0,.72-.27l-.08.52s0,.07.06.07h.24s.06,0,.06-.07l-.07-.52a.94.94,0,0,0,.71.27,1,1,0,0,0,.9-.86A1,1,0,0,0,4.32,9.93Z"/><path class="ef34219f-1652-40ff-9f8d-50130315ba66" d="M3.52,12.16H3.28l-.06,0a.14.14,0,0,1,0-.06l.07-.47a1,1,0,0,1-.63.24H2.58a1,1,0,0,1-.12-1.93,1,1,0,0,1,0-.24A1,1,0,0,1,2.75,9,.92.92,0,0,1,3.5,8.7a1,1,0,0,1,.86.8.94.94,0,0,1,0,.41,1,1,0,1,1-.81,1.69l.07.47a.14.14,0,0,1,0,.06Zm-.22-.62h0s0,0,0,0l-.07.52a0,0,0,0,0,0,0h.3a0,0,0,0,0,0,0l-.07-.52s0,0,0,0h0a.92.92,0,0,0,.65.26h0A.93.93,0,0,0,5.1,11a1,1,0,0,0-.78-1h0a.82.82,0,0,0,0-.41.93.93,0,0,0-.83-.78.93.93,0,0,0-1,.94,1.07,1.07,0,0,0,0,.25h0a1,1,0,0,0-.79,1,.94.94,0,0,0,.88.84h.06a.9.9,0,0,0,.64-.26Z"/><path class="be8cc475-5ae2-4474-a4ad-4307070b24de" d="M4.12,9.63h0A.08.08,0,0,1,4,9.54.59.59,0,0,0,3.51,9a.08.08,0,0,1-.07-.1.08.08,0,0,1,.1-.07.75.75,0,0,1,.66.75A.08.08,0,0,1,4.12,9.63Z"/><path class="be8cc475-5ae2-4474-a4ad-4307070b24de" d="M4.13,10A.08.08,0,0,1,4,9.87V9.76a.09.09,0,0,1,.09-.09.08.08,0,0,1,.08.09v.11A.07.07,0,0,1,4.13,10Z"/><path class="bee0caed-8def-4be8-991c-f5eb57ccfcab" d="M56.79,81.61a.84.84,0,0,0,0,.42,1,1,0,0,0,1.89-.16.75.75,0,0,0,0-.26,1,1,0,0,0,.8-1,.94.94,0,0,0-.89-.85,1,1,0,0,0-.72.26l.07-.52a.05.05,0,0,0-.05-.06h-.25a.05.05,0,0,0,0,.06l.07.52a1,1,0,1,0-.81,1.63Z"/><path class="ef34219f-1652-40ff-9f8d-50130315ba66" d="M57.71,82.84h-.1a1,1,0,0,1-.86-.81.82.82,0,0,1,0-.41,1,1,0,0,1-.8-1.05,1,1,0,0,1,.91-.87h.06a.94.94,0,0,1,.64.24l-.07-.48a.07.07,0,0,1,0-.06l0,0h.25l.05,0a.07.07,0,0,1,0,.06l-.06.48a.9.9,0,0,1,.63-.24h.06a1,1,0,0,1,.91.87,1,1,0,0,1-.8,1.05.77.77,0,0,1,0,.25,1,1,0,0,1-.32.72A1,1,0,0,1,57.71,82.84Zm-.77-3.11h0a.94.94,0,0,0-.88.85.92.92,0,0,0,.78,1h0s0,0,0,0a.91.91,0,0,0,.8,1.18,1,1,0,0,0,.73-.24,1,1,0,0,0,.3-.69,1.15,1.15,0,0,0,0-.26s0,0,0,0h0a.92.92,0,0,0,.78-1,.94.94,0,0,0-.87-.85h-.06a.94.94,0,0,0-.65.26s0,0,0,0,0,0,0,0l.08-.52v0l0,0h-.25l0,0v0l.08.52s0,0,0,0,0,0,0,0A.94.94,0,0,0,56.94,79.73Z"/><path class="be8cc475-5ae2-4474-a4ad-4307070b24de" d="M57,81.9h0a.1.1,0,0,1,.08.1.56.56,0,0,0,.52.56.09.09,0,0,1,.07.1.08.08,0,0,1-.1.07A.75.75,0,0,1,56.9,82,.11.11,0,0,1,57,81.9Z"/><path class="be8cc475-5ae2-4474-a4ad-4307070b24de" d="M57,81.58a.09.09,0,0,1,.09.09v.1a.09.09,0,1,1-.18,0v-.1A.09.09,0,0,1,57,81.58Z"/></g></g></svg>