<svg xmlns="http://www.w3.org/2000/svg" xmlns:xlink="http://www.w3.org/1999/xlink" viewBox="0 0 369.07 505.05"><defs><style>.cls-1{fill:none;}.cls-2{fill:#e89f51;}.cls-3{fill:#ce7f38;}.cls-4{fill:#e0bfa6;}.cls-5{fill:#cc7735;}.cls-6{fill:#b55f24;}.cls-7{fill:#ffd3a4;}.cls-8{fill:#efba89;}.cls-9{fill:#e09e6b;}.cls-10{fill:#d28b59;}.cls-11{clip-path:url(#clip-path);}.cls-12{fill:#f0f0f0;}.cls-13{fill:#1f70c9;}.cls-14{fill:#bcceea;}.cls-15{fill:#1860c4;}.cls-16{fill:#fff;}.cls-17{fill:#212121;}.cls-18{fill:#b71a53;}.cls-19{fill:#c58f6c;}.cls-20{fill:#b35923;}.cls-21{fill:#9f4717;}.cls-22{fill:#c57646;}.cls-23{fill:#b8683a;}.cls-24{fill:#a11336;}.cls-25{fill:#1d1915;}.cls-26{fill:#fdd941;}.cls-27{fill:#e7c429;}.cls-28{fill:#f9deae;}.cls-29{fill:#45454c;}.cls-30{fill:#e44b86;}.cls-31{fill:#a0a0b1;}</style><clipPath id="clip-path"><path class="cls-1" d="M111.43,196.41s3.44,14.46,34.79,14.46c28.19,0,31.16-22.36,29.41-26.13-5.18-11.2-14.9-21.59-31.25-21.59s-21.65,10-26.28,14.75c-5.45,5.61-6.67,18.51-6.67,18.51"/></clipPath></defs><title>Puma niño glosa</title><g id="Layer_2" data-name="Layer 2"><g id="Layer_4" data-name="Layer 4"><path class="cls-2" d="M87.79,115S78.52,77.68,53,69.57s-43.59,7-50.55,25.5,7.19,43.37,33.16,46.38,48.7-7,52.17-26.43"/><path class="cls-3" d="M87.79,115l.68-.17A96.86,96.86,0,0,0,80.58,95C75,84.59,66.26,73.06,53.22,68.9a46.1,46.1,0,0,0-13.95-2.28A36.8,36.8,0,0,0,15.69,75,46.71,46.71,0,0,0,1.81,94.83,29,29,0,0,0,0,105c0,16.83,13.67,34.58,35.54,37.12a78.73,78.73,0,0,0,9.11.54c11.12,0,21.26-2.47,29-7.14S86.91,124,88.48,115.14l0-.15,0-.14-.68.17-.68-.13c-1.5,8.38-6.62,14.94-14.13,19.46s-17.42,6.94-28.33,6.94a78.33,78.33,0,0,1-8.95-.53C14.53,138.31,1.39,121.12,1.39,105a27.54,27.54,0,0,1,1.72-9.7A45.33,45.33,0,0,1,16.57,76.1,35.36,35.36,0,0,1,39.27,68,44.39,44.39,0,0,1,52.8,70.23c12.47,4,21.09,15.15,26.55,25.43a98,98,0,0,1,5.94,13.63c.63,1.8,1.09,3.27,1.39,4.3.15.51.26.91.33,1.19s.11.4.11.4l.67-.16-.68-.13.68.13"/><path class="cls-2" d="M281.28,115s9.28-37.34,34.78-45.45,43.6,7,50.56,25.5-7.19,43.37-33.16,46.38-48.7-7-52.18-26.43"/><path class="cls-3" d="M281.28,115l.68.16.1-.4a97.35,97.35,0,0,1,8.72-21c5.5-9.72,13.8-19.79,25.5-23.5A44.37,44.37,0,0,1,329.8,68a35.34,35.34,0,0,1,22.7,8.09A45.15,45.15,0,0,1,366,95.32a27.54,27.54,0,0,1,1.72,9.7c0,16.1-13.13,33.29-34.3,35.74a78.33,78.33,0,0,1-8.95.53c-10.92,0-20.82-2.43-28.33-6.94S283.46,123.27,282,114.89l-.69.13.68.16-.68-.16-.68.12c1.56,8.81,7,15.73,14.78,20.4s17.93,7.14,29.05,7.14a78.86,78.86,0,0,0,9.11-.54c21.87-2.54,35.53-20.29,35.53-37.12a28.76,28.76,0,0,0-1.8-10.19A46.73,46.73,0,0,0,353.38,75a36.78,36.78,0,0,0-23.58-8.4,46.1,46.1,0,0,0-13.95,2.28C302.82,73.06,294,84.59,288.49,95a95.77,95.77,0,0,0-7.88,19.84l0,.14,0,.15.68-.12"/><path class="cls-2" d="M52.64,499.43c7.5-7.25,12.43-16.35,22.24-18.31s43.15-3.6,69.63-14.39,48.39-31.38,60.16-41.52,5.88-24.85-8.5-19.94-25.17,24.19-36,30.4-30.08,17.33-50,20.93-35.64,1.63-51.66,8.5-22.88,16.34-24.19,27.46,8.5,16.35,18.3,6.87"/><path class="cls-3" d="M52.64,499.43l.49.5c3.79-3.68,6.91-7.77,10.26-11.15s6.91-6,11.62-7,15.65-1.87,28.54-3.88,27.9-5.12,41.23-10.54c26.63-10.86,48.59-31.52,60.34-41.64,4.46-3.84,6.52-8.38,6.52-12.39a9.69,9.69,0,0,0-2.68-6.91,10.13,10.13,0,0,0-7.4-2.84,17.52,17.52,0,0,0-5.62,1c-7.4,2.53-13.74,8.67-19.61,14.89s-11.25,12.58-16.47,15.57c-10.78,6.21-30,17.28-49.8,20.84-9.92,1.79-18.8,2.2-27.24,3S66.37,461,58.26,464.46s-13.91,7.61-17.88,12.33a29,29,0,0,0-6.73,15.69,16,16,0,0,0-.13,2A11.53,11.53,0,0,0,36,502.14a8.39,8.39,0,0,0,6.5,2.91c3.25,0,7-1.61,10.59-5.12l-.49-.5-.48-.5c-3.45,3.33-6.84,4.73-9.62,4.73a7,7,0,0,1-5.45-2.43,10.2,10.2,0,0,1-2.18-6.71,15.44,15.44,0,0,1,.12-1.88,27.72,27.72,0,0,1,6.42-15c3.79-4.51,9.42-8.54,17.35-11.94s15.76-4.61,24.15-5.43,17.33-1.22,27.36-3c20.1-3.63,39.44-14.79,50.24-21,5.57-3.22,11-9.63,16.8-15.82s12.06-12.16,19-14.53a16,16,0,0,1,5.17-.94,8.74,8.74,0,0,1,6.41,2.43,8.28,8.28,0,0,1,2.28,5.93c0,3.53-1.82,7.71-6,11.33-11.79,10.16-33.64,30.69-60,41.41-13.16,5.36-28.07,8.46-40.91,10.46s-23.61,2.89-28.6,3.89-8.91,3.89-12.34,7.36-6.54,7.55-10.24,11.13l.48.5"/><path class="cls-4" d="M208.7,421.85c-.33.46-.69.93-1.08,1.38a17,17,0,0,0,1.08-1.38"/><path class="cls-5" d="M207.65,420.92c-1.49.24-3,.44-4.58.61-3.21.4-6.63.65-10.29.74l-2.9,0c-.92,0-1.84,0-2.74,0a155.07,155.07,0,0,1-18.18,22,32.29,32.29,0,0,1-8,5.55q-.33,3.34-.64,6.81l-.12,1.54c19.1-11,34.68-25.5,44-33.52a20.41,20.41,0,0,0,3.43-3.76"/><path class="cls-6" d="M209.46,420.6l-1.81.32a20.41,20.41,0,0,1-3.43,3.76c-9.31,8-24.89,22.5-44,33.52l-.09,1.37c1-.46,1.94-.91,2.8-1.35,16-9.53,29.32-21.24,38.41-29.2,2.16-1.9,3.8-3.38,4.71-4.2a19.24,19.24,0,0,0,1.56-1.59c.39-.45.75-.92,1.08-1.38a11.63,11.63,0,0,0,.76-1.25"/><path class="cls-5" d="M128.53,459.83c-15.81,3.28-32.26,5.67-42.82,8.82-16.6,4.94-20,13.11-20.71,16.73a21.3,21.3,0,0,1,9.74-4.94c5-1,15.74-1.89,28.6-3.89,2.5-.39,5.09-.83,7.73-1.31a15.76,15.76,0,0,1,3.58-8.21c2.74-3.14,7.16-5.22,13.66-5.25.05-.42.12-1.06.21-1.88v-.07"/><path class="cls-6" d="M111.07,475.24c-2.64.48-5.23.92-7.73,1.31-12.86,2-23.61,2.89-28.6,3.89A21.3,21.3,0,0,0,65,485.38a7.25,7.25,0,0,0-.16,1.82,10.11,10.11,0,0,1,2.36-1.79A19,19,0,0,1,75,481.8c.74-.15,1.63-.3,2.64-.45a93.74,93.74,0,0,1,12.93-2.27,181.39,181.39,0,0,0,20.48-3.77v-.07"/><path class="cls-2" d="M165.55,398.4c-1,17.66-3.93,36-5.89,58.2s3.92,36.94-9.48,40.21-20.92-2.29-20.92-2.29-8.83,2.62-14.06-3.92-7.85-28.44,13.73-28.12c0,0,6.54-57.54,7.52-72.58s30.08-9.15,29.1,8.5"/><path class="cls-3" d="M165.55,398.4l-.7,0c-1,17.61-3.92,35.92-5.88,58.18-.36,4.09-.46,7.92-.46,11.47,0,4.13.13,7.88.13,11.2,0,4.71-.27,8.54-1.48,11.33a9,9,0,0,1-2.57,3.48,11.42,11.42,0,0,1-4.57,2.11,33.94,33.94,0,0,1-8.05,1,25.54,25.54,0,0,1-9.19-1.61,18.4,18.4,0,0,1-2.35-1.09,6.62,6.62,0,0,1-.58-.36l-.14-.09,0,0-.28-.2-.33.09-.06,0a15.78,15.78,0,0,1-3.88.47,13.48,13.48,0,0,1-4.75-.81,10.59,10.59,0,0,1-4.63-3.37c-1.88-2.33-3.5-7.05-3.49-11.83A15.58,15.58,0,0,1,115.7,468c2.47-2.82,6.46-4.77,12.75-4.78h1.1l.07-.63S136.16,405,137.14,390a7.68,7.68,0,0,1,3.12-6,11.54,11.54,0,0,1,6.85-1.94A20,20,0,0,1,159,386.15a14.2,14.2,0,0,1,5.84,11.38c0,.28,0,.55,0,.84l.7,0,.69,0c0-.3,0-.61,0-.91a15.67,15.67,0,0,0-6.38-12.48,21.42,21.42,0,0,0-12.78-4.43,13,13,0,0,0-7.68,2.21,9.1,9.1,0,0,0-3.68,7c-.48,7.49-2.36,25.64-4.12,41.9-.88,8.13-1.73,15.79-2.35,21.42-.32,2.81-.58,5.12-.76,6.72l-.28,2.5.69.08v-.69h-.49c-6.57,0-11,2.09-13.8,5.25a17,17,0,0,0-3.79,11.3c0,5.09,1.64,10,3.8,12.7a12,12,0,0,0,5.22,3.8,15,15,0,0,0,5.24.9,16.82,16.82,0,0,0,4.33-.54l-.19-.67-.42.56c.08.06,4.71,3.46,13.13,3.46a35.55,35.55,0,0,0,8.37-1.05,12.93,12.93,0,0,0,5.13-2.39,11.41,11.41,0,0,0,3.78-6.52,41.31,41.31,0,0,0,.78-9.37c0-3.36-.13-7.1-.13-11.2,0-3.52.1-7.32.45-11.35,2-22.2,4.91-40.51,5.89-58.22l-.69,0"/><path class="cls-2" d="M216.39,398.4c1,17.66,3.92,36,5.88,58.2s-3.92,36.94,9.48,40.21,20.93-2.29,20.93-2.29,8.82,2.62,14.06-3.92,7.84-28.44-13.74-28.12c0,0-6.53-57.54-7.52-72.58s-30.07-9.15-29.09,8.5"/><path class="cls-3" d="M216.39,398.4l-.7,0c1,17.71,3.93,36,5.89,58.22.36,4,.45,7.82.45,11.35,0,4.1-.13,7.84-.13,11.2,0,4.76.25,8.74,1.6,11.88a10.16,10.16,0,0,0,3,4,12.88,12.88,0,0,0,5.12,2.39,35.61,35.61,0,0,0,8.37,1.05c8.42,0,13-3.4,13.13-3.46l-.41-.56-.2.67a16.85,16.85,0,0,0,4.34.54,14.92,14.92,0,0,0,5.23-.9,12,12,0,0,0,5.23-3.8c2.15-2.71,3.79-7.61,3.8-12.7a17,17,0,0,0-3.8-11.3c-2.76-3.16-7.22-5.25-13.8-5.25H253v.69l.7-.08s-.11-.9-.29-2.5c-1.26-11.21-6.38-56.93-7.23-70a9.1,9.1,0,0,0-3.68-7,13,13,0,0,0-7.68-2.21,21.39,21.39,0,0,0-12.77,4.43,15.62,15.62,0,0,0-6.38,12.49c0,.29,0,.6,0,.9l.7,0,.69,0c0-.28,0-.55,0-.82a14.23,14.23,0,0,1,5.84-11.39A20,20,0,0,1,234.82,382a11.57,11.57,0,0,1,6.86,1.94,7.7,7.7,0,0,1,3.11,6c1,15.08,7.52,72.6,7.52,72.61l.07.63h1.1c6.3,0,10.28,2,12.76,4.78a15.58,15.58,0,0,1,3.45,10.38c0,4.78-1.62,9.5-3.5,11.83a10.54,10.54,0,0,1-4.63,3.37,13.46,13.46,0,0,1-4.74.81,16,16,0,0,1-2.85-.25l-.82-.16-.21-.06-.07,0-.33-.09-.28.2,0,0c-.45.31-4.74,3.15-12.27,3.15a33.87,33.87,0,0,1-8-1,11.47,11.47,0,0,1-4.58-2.11,10,10,0,0,1-3.31-5.76,40.65,40.65,0,0,1-.74-9.05c0-3.32.13-7.07.13-11.2,0-3.55-.09-7.38-.45-11.47-2-22.26-4.91-40.57-5.89-58.18l-.69,0"/><path class="cls-5" d="M162.76,434.84l-.15.1c-.32,2.82-.65,5.69-1,8.62l.09.19,1-8.91"/><path class="cls-6" d="M163,432.93l-.14.12c-.07.63-.15,1.26-.22,1.89l.15-.1.21-1.91"/><path class="cls-5" d="M140.35,400.44l20.15,40.8c.89-8.06,1.82-15.62,2.61-22.9a47,47,0,0,1-9-4.11,37.63,37.63,0,0,1-10.89-9.79,40.83,40.83,0,0,1-2.69-3.85l-.19-.15"/><path class="cls-6" d="M163.11,418.34c-.79,7.28-1.72,14.84-2.61,22.9l1.15,2.32c.31-2.93.64-5.8,1-8.62.07-.63.15-1.26.22-1.89.57-4.91,1.13-9.65,1.63-14.27l-1.35-.44"/><path class="cls-5" d="M239.07,403.79a38,38,0,0,1-11.59,10.44,47.63,47.63,0,0,1-8.67,3.95c.86,7.91,1.88,16.16,2.84,25l17.42-39.4"/><path class="cls-6" d="M218.81,418.18c-.45.16-.9.31-1.36.45.94,8.54,2.05,17.47,3.07,27.1l1.13-2.54c-1-8.85-2-17.1-2.84-25"/><path class="cls-2" d="M239.6,282.89c-3.92-37.49-14.82-61.49-41.85-61.9-2.41,0-11.16,0-13.57,0-27,.41-37.92,24.41-41.85,61.9s-12.64,78.9-6.1,104.62c6.21,24.4,24.33,33.94,54.41,33.94s48.86-9.54,55.06-33.94c6.54-25.72-2.18-67.13-6.1-104.62"/><path class="cls-3" d="M239.6,282.89l.69-.08c-2-18.79-5.67-34.25-12.36-45.14A36.62,36.62,0,0,0,215.49,225a35.21,35.21,0,0,0-17.73-4.67c-1.21,0-4,0-6.79,0s-5.58,0-6.8,0A35.21,35.21,0,0,0,166.44,225c-7.5,4.45-13,11.9-16.91,21.72s-6.41,22-7.89,36.13c-2.9,27.78-8.46,57.77-8.46,82a94.06,94.06,0,0,0,2.38,22.88c3.13,12.33,9.33,21,18.56,26.55s21.41,7.92,36.52,7.92,27.45-2.39,36.84-7.92,15.77-14.21,18.9-26.55a94.61,94.61,0,0,0,2.38-22.88c0-24.22-5.56-54.21-8.47-82l-.69.08-.69.07c2.91,27.85,8.46,57.82,8.46,81.84A93.18,93.18,0,0,1,245,387.33c-3.08,12.07-9.19,20.35-18.26,25.7s-21.16,7.73-36.13,7.73-26.89-2.38-35.8-7.72S140,399.4,136.91,387.33a92.68,92.68,0,0,1-2.34-22.53c0-24,5.54-54,8.46-81.84,1.95-18.69,5.65-34,12.16-44.56a35.28,35.28,0,0,1,12-12.24,33.8,33.8,0,0,1,17-4.48l6.78,0,6.77,0a33.83,33.83,0,0,1,17,4.48c7.15,4.24,12.44,11.39,16.32,21s6.33,21.74,7.8,35.76l.69-.07"/><path class="cls-7" d="M230.23,311.07c-3.12-29.86-11.81-66.32-33.33-66.65-1.92,0-8.89,0-10.81,0-21.53.33-30.21,36.79-33.34,66.65s-10.07,62.85-4.86,83.34c4.94,19.44,19.38,27,43.34,27s38.92-7.6,43.86-27c5.21-20.49-1.73-53.47-4.86-83.34"/><path class="cls-8" d="M230.23,311.07l.69-.07c-1.57-15-4.52-31.59-9.81-44.59-2.65-6.5-5.89-12.1-9.87-16.13s-8.75-6.48-14.33-6.56l-5.42,0-5.42,0c-5.58.08-10.35,2.54-14.33,6.56-6,6-10.27,15.62-13.41,26.47A202.17,202.17,0,0,0,152.06,311c-2.31,22.12-6.74,46-6.74,65.32a74.88,74.88,0,0,0,1.9,18.26c2.49,9.86,7.46,16.82,14.85,21.24s17.11,6.33,29.16,6.33,21.9-1.91,29.41-6.33,12.63-11.38,15.13-21.24a75.38,75.38,0,0,0,1.9-18.26c0-19.31-4.43-43.2-6.75-65.32l-.69.07-.69.08c2.32,22.19,6.74,46.06,6.73,65.17a73.56,73.56,0,0,1-1.85,17.92c-2.45,9.58-7.29,16.14-14.48,20.38s-16.8,6.14-28.71,6.14-21.38-1.9-28.44-6.13-11.78-10.8-14.23-20.39a74.11,74.11,0,0,1-1.85-17.92c0-19.11,4.41-43,6.73-65.17,1.56-14.9,4.51-31.43,9.72-44.22,2.61-6.39,5.77-11.83,9.57-15.67s8.19-6.06,13.37-6.15l5.39,0,5.4,0c5.17.09,9.56,2.32,13.36,6.15,5.7,5.75,10,15.14,13.07,25.88a202,202,0,0,1,6.22,34l.69-.08"/><path class="cls-4" d="M239.91,279.42c.13,1.12.26,2.25.38,3.39l-.69.08h0l.69-.08.27,2.5c-.15-1.56-.35-3.6-.59-5.85l-.06,0m-3.2-19.13-.07,0,0,.14.13.08-.09-.24"/><path class="cls-5" d="M237.1,262.31q1.56,7.11,2.57,15.17l.08.06a137.26,137.26,0,0,0-2.37-15.06l-.28-.17"/><path class="cls-6" d="M239.67,277.48l.24,1.94.06,0c-.07-.63-.15-1.27-.22-1.92l-.08-.06m-3-17c.15.62.29,1.24.43,1.86l.28.17a19.77,19.77,0,0,0-.58-2l-.13-.08"/><path class="cls-6" d="M240.29,282.81l-.69.08-.69.07c.15,1.49.32,3,.49,4.48.93.65,1.44,1,1.44,1s-.1-1.22-.28-3.16l-.27-2.5m-3.65-22.5-1.35.35a178.36,178.36,0,0,1,3.62,22.3l.69-.07.69-.08c-.12-1.14-.25-2.27-.38-3.39l-.24-1.94q-1-8.06-2.57-15.17c-.14-.62-.28-1.24-.43-1.86l0-.14"/><path class="cls-6" d="M144.48,264.52l-2.42,14.67,1.43-.32c.61-5,1.35-9.71,2.26-14.14l-1.27-.21"/><path class="cls-9" d="M218.64,264.19a234,234,0,0,1-38.92,3.24c-6.25,0-11.83-.25-16.51-.61l-.05.11c-1.12,2.75-2.14,5.68-3.06,8.72a278.24,278.24,0,0,1,33.32-3.88c.68,0,1.36,0,2,0,10.19,0,20.24,3.27,28.28,6.92l-.42-1.51a96.14,96.14,0,0,0-4.68-12.95"/><path class="cls-10" d="M161.76,266.7c-1.18,2.91-2.23,6-3.19,9.22l1.53-.27c.92-3,1.94-6,3.06-8.72l.05-.11-1.45-.12m58.29-2.76-1.41.25a96.14,96.14,0,0,1,4.68,12.95l.42,1.51c.56.25,1.11.51,1.65.77a110.19,110.19,0,0,0-4.28-13c-.34-.84-.69-1.66-1.06-2.47"/><path class="cls-2" d="M351.1,104s-7-3.74-13.56-2.78c-12.76,1.85-19.25,15-19.25,15L351.1,104"/><path class="cls-3" d="M351.43,103.39a28.06,28.06,0,0,0-11.65-3,16.73,16.73,0,0,0-2.34.16c-6.6,1-11.54,4.82-14.82,8.39a33.39,33.39,0,0,0-4.95,7,.7.7,0,0,0,.31.93.69.69,0,0,0,.93-.32l.07-.13a33.37,33.37,0,0,1,5.27-7.13,23.6,23.6,0,0,1,13.39-7.31,13.91,13.91,0,0,1,2.14-.15,23.82,23.82,0,0,1,7.62,1.43c1,.36,1.88.72,2.47,1l.68.32.23.12a.7.7,0,1,0,.65-1.23"/><path class="cls-5" d="M332.18,87.17a24.51,24.51,0,0,0-2.76.14c-11.94,1.24-19.89,9.56-21.41,11.28a105.77,105.77,0,0,1,10.1,16.47,35,35,0,0,1,4.51-6.14c3.28-3.57,8.22-7.43,14.82-8.39a16.73,16.73,0,0,1,2.34-.16,28.06,28.06,0,0,1,11.65,3,.69.69,0,0,1,.29.94.7.7,0,0,1-.94.29l-.23-.12-.34-.17-30.93,11.48c-.14.24-.24.43-.3.54l-.07.13a.39.39,0,0,1-.06.11,104.46,104.46,0,0,1,8.1,24.65c2.11-.07,4.26-.23,6.43-.48,17.88-2.07,30-14.66,33.37-28.23-.31-16.39-21.09-25.36-34.57-25.36"/><path class="cls-6" d="M366.75,112.53c-3.33,13.57-15.49,26.16-33.37,28.23-2.17.25-4.32.41-6.43.48.06.3.12.6.17.9l.21.47h.16q3-.12,6.05-.48a41.48,41.48,0,0,0,19.59-7.48l.06,0c6.49-5.45,13.8-15.65,13.57-21.45,0-.21,0-.42,0-.63"/><path class="cls-5" d="M339.78,101.76h0a13.91,13.91,0,0,0-2.14.15,23.6,23.6,0,0,0-13.39,7.31,33.62,33.62,0,0,0-5,6.59l30.93-11.48-.34-.15c-.59-.27-1.44-.63-2.47-1a23.82,23.82,0,0,0-7.62-1.43"/><path class="cls-6" d="M339.78,100.37a16.73,16.73,0,0,0-2.34.16c-6.6,1-11.54,4.82-14.82,8.39a35,35,0,0,0-4.51,6.14c.25.5.5,1,.74,1.53a.39.39,0,0,0,.06-.11l.07-.13c.06-.11.16-.3.3-.54a33.62,33.62,0,0,1,5-6.59,23.6,23.6,0,0,1,13.39-7.31,13.91,13.91,0,0,1,2.14-.15h0a23.82,23.82,0,0,1,7.62,1.43c1,.36,1.88.72,2.47,1l.34.15.34.17.23.12a.7.7,0,0,0,.94-.29.69.69,0,0,0-.29-.94,28.06,28.06,0,0,0-11.65-3"/><path class="cls-2" d="M328.26,162.09c0,60.32-59.82,103-144.7,103.65-98.8.81-130.78-48.89-130.78-109.22S98.69,47.29,189.83,48c89,.7,138.43,53.77,138.43,114.09"/><path class="cls-3" d="M328.26,162.09h-.69c0,29.92-14.82,55.43-40.23,73.62s-61.46,29-103.78,29.34h-2.37c-48.36,0-80.25-12.32-100.07-32s-27.64-46.75-27.64-76.56S64.71,99.84,87.09,80.33s56-31.64,100.78-31.64h1.95C234.21,49,268.64,62.44,292,83.21a104.33,104.33,0,0,1,35.6,78.88H329A105.76,105.76,0,0,0,292.9,82.17c-23.62-21-58.41-34.52-103.07-34.86h-2c-45.05,0-79,12.19-101.69,32s-34.1,47.13-34.1,77.24S60,214.08,80.14,234.07s52.47,32.38,101.05,32.38h2.38c42.55-.35,78.86-11.21,104.57-29.6S329,192.49,329,162.09h-.7"/><path class="cls-2" d="M164.09,98.55S130.23,88.81,133.71,58s39.65-42.43,39.65-42.43a43.74,43.74,0,0,0-23.19,34.08S159.45,37.8,181,33.16,222.75,25,229.94.7c0,0,16,35.71,9.51,61A48,48,0,0,1,230.57,80L164.09,98.55"/><path class="cls-3" d="M164.28,97.88l-.33-.1a54,54,0,0,1-16.18-8.7c-7.05-5.61-13.61-14.15-13.62-26.74a37.57,37.57,0,0,1,.25-4.29c1.71-15.15,11.45-25.6,20.84-32.29a77.61,77.61,0,0,1,12.7-7.3c1.71-.77,3.12-1.34,4.11-1.71l1.13-.42.39-.13-.21-.66-.28-.64a40.34,40.34,0,0,0-10.67,7.8,44.66,44.66,0,0,0-12.93,26.84.7.7,0,0,0,.43.73.68.68,0,0,0,.81-.22l0,0c.5-.62,9.73-11.74,30.42-16.19,10.77-2.32,21.26-4.35,30-8.9S227,13.23,230.61.89L229.94.7l-.63.28s.17.38.47,1.09c2.1,5,10.53,26.35,10.52,46.15a54,54,0,0,1-1.52,13.29A47.4,47.4,0,0,1,230,79.61a.7.7,0,1,0,1.09.87,48.81,48.81,0,0,0,9-18.62,54.78,54.78,0,0,0,1.58-13.64c0-23.06-11.11-47.76-11.12-47.81a.69.69,0,0,0-1.3.09c-3.56,12-10.23,18.76-18.73,23.2s-18.89,6.46-29.68,8.78c-21.77,4.68-31.18,16.63-31.24,16.71l.54.43.69.09a43.43,43.43,0,0,1,19.68-31.78c1-.61,1.73-1.05,2.27-1.34l.63-.32.16-.08.05,0a.7.7,0,0,0-.5-1.3,76.17,76.17,0,0,0-18.71,9.75C144.87,31.43,134.79,42.2,133,57.89a38.24,38.24,0,0,0-.26,4.45c0,14,7.84,23.25,15.6,28.94a54.75,54.75,0,0,0,15.53,7.94.7.7,0,0,0,.39-1.34"/><g class="cls-11"><path class="cls-12" d="M111.43,196.41s3.44,14.46,34.79,14.46c28.19,0,31.16-22.36,29.41-26.13-5.18-11.2-14.9-21.59-31.25-21.59s-21.65,10-26.28,14.75c-5.45,5.61-6.67,18.51-6.67,18.51"/><path class="cls-13" d="M162.91,189.87a16.09,16.09,0,1,1-16.09-16,16,16,0,0,1,16.09,16"/><path class="cls-14" d="M139.86,164.81a28.8,28.8,0,0,0-13.27,4.13c-3.8,3.05-6.23,6.63-8.49,9-2.47,2.54-4.07,6.57-5.08,10.22-.26,1.82-.91,4.18-1.29,6-.14.93-.23,1.63-.27,2s.08.68.27.76h.06c1,0,6.24-8.65,19.89-12.41a16.12,16.12,0,0,1,30.82,1.78A31.72,31.72,0,0,1,174.39,195a21.09,21.09,0,0,0,1.64-7.68c0-.2,0-.4,0-.59a4.72,4.72,0,0,0-.21-.9,41,41,0,0,0-2.09-4.82,36.88,36.88,0,0,0-11.92-13c-4.37-1.76-13.5-3.24-21.94-3.24"/><path class="cls-15" d="M146.82,173.87a16.09,16.09,0,0,0-15.14,10.6,50,50,0,0,1,13.42-1.72,42.39,42.39,0,0,1,17.4,3.5,16.09,16.09,0,0,0-15.68-12.38"/><path class="cls-16" d="M156.2,182.53a2.94,2.94,0,1,1-2.94-2.92A2.92,2.92,0,0,1,156.2,182.53Z"/></g><path class="cls-17" d="M175.82,185.85c-7.06-17.68-23.36-20.65-31.87-20.65-27.87-.53-32.22,31.67-32.22,31.67-4.16,0-3.53-8.4-3.53-8.4,1.81-11.46,12.4-28.7,35.57-28.7,19.18,0,28.52,16.61,31.17,22.35A9.8,9.8,0,0,1,175.82,185.85Z"/><path d="M126.52,141.63c1.16-4.58,4.7-8.45,8.91-10.92a28,28,0,0,1,14.06-3.52A26.24,26.24,0,0,1,163.55,131c4.15,2.67,7.4,6.83,8.19,11.47a25.09,25.09,0,0,0-10.22-7.63,32,32,0,0,0-12-2.11,36.81,36.81,0,0,0-12.18,1.94A27.68,27.68,0,0,0,126.52,141.63Z"/><path class="cls-17" d="M216.6,193.35c.09.08.15,0,.22-.09,8.34-9.9,21.2-10.46,29.29-10.26,22.35.56,28.39,15.29,30,20.34a1.5,1.5,0,0,0,2.6.45c1.56-2.15,1.21-6.55,1.21-6.55-1.73-10.5-13.42-19.34-33.93-19.5-18.38-.14-26.47,7.82-29,13.07C216.41,191.89,216.22,192.67,216.6,193.35Z"/><path d="M261.46,141a27.79,27.79,0,0,0-10.79-6.94,36.55,36.55,0,0,0-12.18-1.93,31.74,31.74,0,0,0-12,2.1,25.09,25.09,0,0,0-10.22,7.64c.79-4.64,4-8.81,8.19-11.48a26.23,26.23,0,0,1,14.06-3.82,27.9,27.9,0,0,1,14.06,3.52C256.76,132.54,260.3,136.41,261.46,141Z"/><path class="cls-7" d="M103.13,250.13s49.36-6.65,66.29-21.26,17.16-14.37,25.51-14.37,18.32,5.56,25.5,13.91,44.88,18.67,65.05,9.86c0,0-27.71,18-57.16,23.07s-57.89,7-82.93,2.58-42.26-13.79-42.26-13.79"/><path class="cls-8" d="M103.13,250.13l.09.69s12.37-1.66,26.87-5.16A185.25,185.25,0,0,0,152.17,239c7.05-2.7,13.36-5.87,17.7-9.61,8.2-7.08,12.49-10.66,15.57-12.42a12,12,0,0,1,4.08-1.54,27.6,27.6,0,0,1,4.66-.25h.75c8,0,17.9,5.44,25,13.67a22.74,22.74,0,0,0,6.89,4.81c9.28,4.63,25,8.65,39.4,8.66,7.14,0,14-1,19.56-3.43l-.28-.63-.38-.59s-.42.28-1.23.77c-5.67,3.49-30.07,17.77-55.67,22.2-18,3.13-35.67,5-52.37,5a174.89,174.89,0,0,1-30.32-2.46,161.86,161.86,0,0,1-30.39-8.5c-3.7-1.44-6.62-2.75-8.61-3.69-1-.47-1.76-.85-2.28-1.11l-.58-.3-.19-.11-.33.61.09.69-.09-.69-.33.62s17.31,9.43,42.47,13.85a176.92,176.92,0,0,0,30.56,2.48c16.8,0,34.52-1.92,52.61-5.06,29.64-5.14,57.38-23.15,57.42-23.17a.7.7,0,0,0,.23-.91.69.69,0,0,0-.89-.31c-5.33,2.33-12,3.31-19,3.31a99.69,99.69,0,0,1-27.86-4.3,70.44,70.44,0,0,1-10.91-4.22A21.63,21.63,0,0,1,221,228c-7.3-8.47-17.38-14.14-26-14.16h-.75a28.28,28.28,0,0,0-4.9.27c-2.22.38-4.27,1.33-7.23,3.47S175.12,223,169,228.35c-4.13,3.56-10.33,6.7-17.3,9.36-10.45,4-22.62,6.93-32.17,8.87-4.77,1-8.89,1.68-11.82,2.16-1.46.24-2.62.41-3.42.53l-1.22.18a.7.7,0,0,0-.6.56.71.71,0,0,0,.36.74l.33-.62"/><path class="cls-2" d="M29.13,102.26s22.61,6.44,26.61,28.87L29.13,102.26"/><path class="cls-3" d="M28.94,102.93l.23.07a43.34,43.34,0,0,1,12.5,6.7,34.44,34.44,0,0,1,13.38,21.55.71.71,0,0,0,.81.57.69.69,0,0,0,.56-.81,36.18,36.18,0,0,0-15.08-23.29,43.69,43.69,0,0,0-12-6.13.7.7,0,0,0-.86.48.69.69,0,0,0,.48.86"/><polyline class="cls-16" points="167.3 237.74 172.09 248.09 175.39 239.13 167.3 237.74"/><polyline class="cls-16" points="221.83 238 217.04 248.35 213.74 239.4 221.83 238"/><path class="cls-18" d="M179.48,239.74l16.08-9.56,14.3,9.07s-2.87,9.28-14.9,9.28c-15.34,0-15.48-8.79-15.48-8.79"/><path class="cls-7" d="M194.87,214.75s30.49-1.58,44.63,1,10.55,18.58,1.4,21.62-30.32,8-43.25-1.05c-4.71-3.29-2.78-21.54-2.78-21.54"/><path class="cls-8" d="M194.87,214.75l0,.69,1.62-.07c3.12-.14,10.37-.41,18.41-.41,8.65,0,18.22.32,24.45,1.44a11.32,11.32,0,0,1,6.85,3.53,8.73,8.73,0,0,1,2,5.76,12.19,12.19,0,0,1-2.11,6.68,10.92,10.92,0,0,1-5.47,4.31,79,79,0,0,1-23.58,4.08c-6.85,0-13.71-1.3-19-5a4.28,4.28,0,0,1-1.35-1.83c-1.18-2.6-1.54-7.13-1.53-11.09,0-2.16.1-4.16.19-5.61,0-.73.1-1.33.14-1.74s.06-.63.06-.63l-.69-.07,0,.69,0-.69-.7-.08s-.39,3.73-.39,8.13a46.09,46.09,0,0,0,.63,8.2,15.8,15.8,0,0,0,1,3.46,5.73,5.73,0,0,0,1.82,2.4c5.69,4,12.83,5.29,19.85,5.3a80.72,80.72,0,0,0,24-4.16,12.2,12.2,0,0,0,6.19-4.85,13.52,13.52,0,0,0,2.35-7.46,10.06,10.06,0,0,0-2.36-6.66,12.73,12.73,0,0,0-7.66-4c-6.42-1.15-16-1.46-24.7-1.46-10.76,0-20.09.48-20.1.48l-.59,0-.07.59.7.08"/><path class="cls-7" d="M195.12,214.75s-30.5-1.58-44.64,1-10.55,18.58-1.39,21.62,30.31,8,43.24-1.05c4.71-3.29,2.79-21.54,2.79-21.54"/><path class="cls-8" d="M195.12,214.75l0-.7s-9.34-.48-20.09-.48c-8.69,0-18.29.31-24.7,1.47a12.67,12.67,0,0,0-7.67,4,10.11,10.11,0,0,0-2.36,6.66,13.52,13.52,0,0,0,2.35,7.46,12.2,12.2,0,0,0,6.19,4.85,80.78,80.78,0,0,0,24,4.16c7,0,14.17-1.32,19.85-5.3a5.75,5.75,0,0,0,1.83-2.4c1.33-3,1.64-7.61,1.64-11.66,0-4.4-.39-8.11-.39-8.13l-.06-.59-.6,0,0,.7-.69.07s0,.22.06.63c.1,1.23.32,4.11.32,7.35a44.47,44.47,0,0,1-.6,7.94,15,15,0,0,1-.92,3.15,4.37,4.37,0,0,1-1.36,1.83c-5.33,3.74-12.2,5.05-19.05,5a78.94,78.94,0,0,1-23.57-4.08,10.83,10.83,0,0,1-5.47-4.31,12.12,12.12,0,0,1-2.12-6.68,8.73,8.73,0,0,1,2-5.76,11.34,11.34,0,0,1,6.85-3.53c6.23-1.12,15.81-1.44,24.46-1.44,5.35,0,10.36.12,14,.24,1.83.06,3.33.12,4.37.17l1.62.07,0-.69-.69.07.69-.07"/><path class="cls-17" d="M205,213.29c-1.25-.9-4.13-.42-10.52-.4s-9.27-.5-10.52.4,1,7.89,5.34,8.15c3.61.22,4.51.26,5.08.26h.2c.57,0,1.34,0,5-.26,4.32-.26,6.75-7.23,5.47-8.15"/><path class="cls-4" d="M290.87,235.13l-.89.38-1.84,1.33c-.64.47-1.3.93-2,1.38a.65.65,0,0,1,0,.24q2.39-1.61,4.72-3.33"/><path class="cls-5" d="M284.51,237.68q-2,.78-4.63,1.74a37.14,37.14,0,0,0,3.74-1.15l.89-.59"/><path class="cls-6" d="M290,235.51c-1,.42-2.89,1.17-5.47,2.17l-.89.59c.54-.21,1.07-.42,1.58-.64a.71.71,0,0,1,.28-.06.67.67,0,0,1,.61.37.57.57,0,0,1,.08.28c.67-.45,1.33-.91,2-1.38l1.84-1.33"/><path class="cls-4" d="M280.58,242c-1.72,1-3.82,2.15-6.24,3.42q-5.4,2.92-11.22,5.47a172.47,172.47,0,0,1-19,7.27A162.07,162.07,0,0,0,280.58,242"/><path class="cls-6" d="M274.34,245.44c-3.23,1.7-7,3.58-11.22,5.47q5.82-2.55,11.22-5.47"/><path class="cls-4" d="M93.82,245.4c2.92,1.88,5.84,3.61,8.79,5.2a.67.67,0,0,1-.16-.3q-4.26-2.25-8.11-4.78l-.52-.12"/><path class="cls-5" d="M98.57,246.52q2.46,1.47,5.09,2.84l.6-.09c.8-.12,2-.29,3.42-.53l.38-.06c-3.84-.85-7.08-1.59-9.49-2.16"/><path class="cls-6" d="M94.34,245.52q3.85,2.52,8.11,4.78a.94.94,0,0,1,0-.29.7.7,0,0,1,.6-.56l.62-.09Q101,248,98.57,246.52l-4.23-1"/><path class="cls-4" d="M240,259.4c-1.08.3-2.17.59-3.26.86v0c1.09-.29,2.17-.58,3.25-.89M105.2,252a133.7,133.7,0,0,0,38.86,12.48l.07,0A158.93,158.93,0,0,1,105.2,252"/><path class="cls-6" d="M144.13,264.4l-.07,0,.31.06v-.06l-.25,0"/><path class="cls-6" d="M144.38,264.44v.06l.11,0v0h.06l-.17,0"/><path class="cls-9" d="M205.56,265.32c-7.17.79-14.23,1.35-21.15,1.6h2c1,0,1.84,0,2.68,0a165,165,0,0,0,16.43-1.58"/><path class="cls-19" d="M236.7,260.26l-.07,0v0l.07,0v0"/><path class="cls-20" d="M235.28,260.61c-2.26.54-4.55,1-6.84,1.41-2.88.5-5.76,1-8.62,1.41.08.17.16.34.23.51,5-.88,10.1-2,15.24-3.28v-.05"/><path class="cls-21" d="M236.63,260.28l-1.35.33v.05l1.35-.35v0"/><path class="cls-20" d="M145.76,264.69v0c4.65.75,9.46,1.35,14.45,1.83l1.56.14,0-.1c-5.48-.39-10.83-1-16-1.91"/><path class="cls-21" d="M144.49,264.47v0l1.27.21v0l-.49-.09-.72-.13h-.06"/><path class="cls-22" d="M218.39,263.64l-.24,0c-3.11.48-6.26.91-9.46,1.27l-3.13.37a165,165,0,0,1-16.43,1.58c-.84,0-1.73,0-2.68,0h-2c-2.89.11-5.74.16-8.58.16q-6.37,0-12.57-.38l0,.12c4.68.36,10.26.61,16.51.61a234,234,0,0,0,38.92-3.24l-.25-.55"/><path class="cls-23" d="M161.8,266.6l0,.1,1.45.12,0-.12-1.46-.1m58-3.17-1.43.21.25.55,1.41-.25c-.07-.17-.15-.34-.23-.51"/><path class="cls-6" d="M218.15,263.68q-4.76.7-9.46,1.27c3.2-.36,6.35-.79,9.46-1.27"/><path class="cls-9" d="M279.77,240.88a51,51,0,0,1-7.2,1.16c-20.36,7.1-54.43,17.24-85.06,18.14-.82,0-1.65,0-2.52,0-20.18,0-53-6.35-73.3-10.74-2.66.47-4.82.81-6.29,1l1.11.53c2,.94,4.91,2.25,8.61,3.69a161.86,161.86,0,0,0,30.39,8.5,174.89,174.89,0,0,0,30.32,2.46c16.7,0,34.34-1.91,52.37-5,21.5-3.72,42.15-14.38,51.57-19.77"/><path class="cls-10" d="M285.48,237.57a.71.71,0,0,0-.28.06c-.51.22-1,.43-1.58.64a37.14,37.14,0,0,1-3.74,1.15c-2.17.8-4.62,1.69-7.31,2.62a51,51,0,0,0,7.2-1.16c-9.42,5.39-30.07,16.05-51.57,19.77-18,3.13-35.67,5-52.37,5a174.89,174.89,0,0,1-30.32-2.46,161.86,161.86,0,0,1-30.39-8.5c-3.7-1.44-6.62-2.75-8.61-3.69l-1.11-.53c1.47-.23,3.63-.57,6.29-1l-3.63-.79-.38.06c-1.46.24-2.62.41-3.42.53l-.6.09-.62.09a.7.7,0,0,0-.6.56.94.94,0,0,0,0,.29.67.67,0,0,0,.16.3l.2.11.32-.58-.32.58c.8.43,1.59.84,2.39,1.25a158.93,158.93,0,0,0,38.93,12.44l.25,0,.17,0,.72.13.49.09c5.21.9,10.56,1.52,16,1.91l1.46.1q6.19.39,12.57.38c2.84,0,5.69-.05,8.58-.16,6.92-.25,14-.81,21.15-1.6l3.13-.37q4.71-.57,9.46-1.27l.24,0,1.43-.21c2.86-.44,5.74-.91,8.62-1.41,2.29-.39,4.58-.87,6.84-1.41l1.35-.33.07,0c1.09-.27,2.18-.56,3.26-.86,1.37-.39,2.75-.79,4.12-1.22a172.47,172.47,0,0,0,19-7.27c4.2-1.89,8-3.77,11.22-5.47,2.42-1.27,4.52-2.44,6.24-3.42,1.88-1.14,3.73-2.33,5.57-3.56a.65.65,0,0,0,0-.24.57.57,0,0,0-.08-.28.67.67,0,0,0-.61-.37"/><path class="cls-5" d="M30.42,95.4a27.2,27.2,0,0,0-5,.43A37.18,37.18,0,0,0,1.83,110.16c2.44,14.44,14.94,28.41,33.87,30.6a78.33,78.33,0,0,0,8.95.53,69.34,69.34,0,0,0,8.51-.52q.69-5,1.84-9.81c0-.27-.11-.54-.16-.8L30.1,103.32l-.93-.32-.23-.07a.69.69,0,0,1,.19-1.36l.19,0a43.69,43.69,0,0,1,12,6.13A36.47,36.47,0,0,1,55.75,128a99,99,0,0,1,8.11-20.7c-3.72-2.4-19.29-11.88-33.44-11.88"/><path class="cls-6" d="M1.83,110.16c-.48.67-.7,1.06-.7,1.06s0,5.42,5.65,13.3a49.49,49.49,0,0,0,21.45,16.14,43.41,43.41,0,0,0,7.31,1.48,78,78,0,0,0,8,.53c1.85,0,3.55,0,5-.1s3-.2,4.43-.37c.06-.48.12-.95.19-1.43a69.34,69.34,0,0,1-8.51.52,78.33,78.33,0,0,1-8.95-.53c-18.93-2.19-31.43-16.16-33.87-30.6"/><path class="cls-6" d="M55,131q-1.16,4.83-1.84,9.81c-.07.48-.13.95-.19,1.43l0,.14,1-.08a86.14,86.14,0,0,0,2-10.45h-.17a.7.7,0,0,1-.69-.58c0-.09,0-.19,0-.29m8.86-23.68A99,99,0,0,0,55.75,128c.17.64.32,1.29.46,2,1.66-9.11,8.48-22.1,8.48-22.1l-.83-.55"/><path class="cls-5" d="M30.1,103.32l24.74,26.84A34.58,34.58,0,0,0,41.67,109.7a44.08,44.08,0,0,0-11.57-6.38"/><path class="cls-6" d="M29.13,101.57a.69.69,0,0,0-.19,1.36l.23.07.93.32a44.08,44.08,0,0,1,11.57,6.38,34.58,34.58,0,0,1,13.17,20.46c0,.26.11.53.16.8,0,.1,0,.2,0,.29a.7.7,0,0,0,.69.58h.17c.06-.36.12-.73.17-1.11s.09-.51.13-.77c-.14-.66-.29-1.31-.46-2a36.47,36.47,0,0,0-14.41-20.26,43.69,43.69,0,0,0-12-6.13l-.19,0"/><path class="cls-5" d="M229.9,80.23,164.76,98.37a.67.67,0,0,1,0,.37.68.68,0,0,1-.66.51.69.69,0,0,1-.2,0,54.75,54.75,0,0,1-15.53-7.94,42.48,42.48,0,0,1-8.11-7.67v0c11.58,14.48,27.77,18.69,44.32,18.69,1.34,0,2.68,0,4-.08,13.76-.53,31.84-10,42.32-21.62a.65.65,0,0,1-.36.1.7.7,0,0,1-.43-.15.72.72,0,0,1-.24-.36m11.34-24.36a47.24,47.24,0,0,1-1.12,6A49.07,49.07,0,0,1,231.47,80,36,36,0,0,0,238,69.74a53.84,53.84,0,0,0,3.32-13.85l-.08,0"/><path class="cls-6" d="M241.4,54.46c-.05.47-.1.94-.16,1.41l.08,0c.06-.47.1-.94.14-1.41l-.06,0"/><path class="cls-5" d="M231.18,5.57c-3.57,32.85-26.7,47-36.72,51.47a46.61,46.61,0,0,1-18.53,3.79c-1.47,0-2.34-.08-2.34-.08,6-2.89,9.16-10.66,9.16-10.66-10.37,9-14.14,6.95-28.93,16.52-10.1,6.54-12.73,12.1-13.38,15a39.94,39.94,0,0,0,7.33,7.51A54,54,0,0,0,164,97.78l.33.1a.72.72,0,0,1,.48.49L229.9,80.23a.73.73,0,0,1,.13-.62,47.4,47.4,0,0,0,8.75-18.1,54,54,0,0,0,1.52-13.29c0-16.69-6-34.48-9.12-42.65"/><path class="cls-6" d="M140.44,81.57a6.49,6.49,0,0,0-.19,2,42.48,42.48,0,0,0,8.11,7.67,54.75,54.75,0,0,0,15.53,7.94.69.69,0,0,0,.2,0,.68.68,0,0,0,.66-.51.67.67,0,0,0,0-.37.72.72,0,0,0-.48-.49l-.33-.1a54,54,0,0,1-16.18-8.7,39.94,39.94,0,0,1-7.33-7.51m91-79c-.07,1-.16,2-.27,3,3.14,8.17,9.13,26,9.12,42.65a54,54,0,0,1-1.52,13.29A47.4,47.4,0,0,1,230,79.61a.73.73,0,0,0-.13.62.72.72,0,0,0,.24.36.7.7,0,0,0,.43.15.65.65,0,0,0,.36-.1l.54-.61a49.07,49.07,0,0,0,8.65-18.17,47.24,47.24,0,0,0,1.12-6c.06-.47.11-.94.16-1.41.2-2.05.3-4.14.3-6.24,0-13.61-3.88-27.8-7-37.15-1.73-4.81-3.2-8.52-3.2-8.52"/><path class="cls-5" d="M137,392.4c0,.23,0,.46-.05.71a43.06,43.06,0,0,0,2.31,5.16c.41.79.85,1.56,1.32,2.32l.26.19A46.65,46.65,0,0,1,137,392.4"/><path class="cls-6" d="M135.86,388.84c0,.28-.07.56-.09.86.33,1.13.71,2.28,1.14,3.41,0-.25,0-.48.05-.71-.39-1.15-.76-2.34-1.1-3.56"/><path class="cls-4" d="M246.69,386.39c-.1.43-.21.86-.31,1.29s-.21.78-.31,1.16c0,0,0,.07,0,.1.22-.84.42-1.69.61-2.55"/><path class="cls-5" d="M245,392.38a47,47,0,0,1-3.23,7.25c.27-.45.53-.91.78-1.36a35.2,35.2,0,0,0,2.47-5.65l0-.24"/><path class="cls-6" d="M246.07,388.84c-.34,1.22-.7,2.4-1.1,3.54l0,.24c.41-1.2.77-2.43,1.09-3.68,0,0,0-.07,0-.1"/><path class="cls-5" d="M176.53,421.33l-.09.09a92.84,92.84,0,0,0,10.7.85l.11-.16c-3.77-.1-7.34-.35-10.72-.78"/><path class="cls-6" d="M174.85,421.09l-.07.08,1.66.25.09-.09c-.57-.08-1.13-.15-1.68-.24"/><path class="cls-20" d="M203.07,421.53q-3.42.36-7.06.51c-1.55.07-3.15.11-4.78.11h-.59c-1.15,0-2.28,0-3.39,0l-.11.16c.9,0,1.82,0,2.74,0l2.9,0c3.66-.09,7.08-.34,10.29-.74"/><path class="cls-20" d="M140.54,400.59a40.83,40.83,0,0,0,2.69,3.85,38.71,38.71,0,0,1-2.43-3.66l-.26-.19"/><path class="cls-5" d="M134.74,371.84a80.44,80.44,0,0,0,2.17,15.49c3.07,12.07,9,20.36,17.93,25.71a46.78,46.78,0,0,0,10.8,4.64,35.42,35.42,0,0,1-3.57-1.86c-7.39-4.42-12.36-11.38-14.85-21.24a52.14,52.14,0,0,1-1.06-5.32,37.77,37.77,0,0,1-11.42-17.42m112.55-2.49c-1.51,6-4,13.39-10.44,19.71a56.19,56.19,0,0,1-1.08,5.52c-2.5,9.86-7.61,16.83-15.13,21.24-.35.21-.72.42-1.09.62a45.27,45.27,0,0,0,7.22-3.41c9.07-5.35,15.18-13.63,18.26-25.7a84.56,84.56,0,0,0,2.26-18"/><path class="cls-6" d="M248.61,364c-.41,1.56-.81,3.37-1.32,5.34a84.56,84.56,0,0,1-2.26,18c-3.08,12.07-9.19,20.35-18.26,25.7a45.27,45.27,0,0,1-7.22,3.41c-6.32,3.41-14.19,5.17-23.54,5.6q3.65-.15,7.06-.51c21-2.62,32.41-11.55,38.67-21.9a47,47,0,0,0,3.23-7.25c.4-1.14.76-2.32,1.1-3.54.1-.38.21-.77.31-1.16s.21-.86.31-1.29A102.33,102.33,0,0,0,248.61,364m-115.31-.18s-.06.58-.12,1.62a92.53,92.53,0,0,0,2.38,22.23l.3,1.16c.34,1.22.71,2.41,1.1,3.56a46.65,46.65,0,0,0,3.84,8.38,38.71,38.71,0,0,0,2.43,3.66c5.78,7.32,14.32,12.78,26.1,15.64,1.77.4,3.61.73,5.52,1,.55.09,1.11.16,1.68.24,3.38.43,6.95.68,10.72.78,1.11,0,2.24,0,3.39,0H191c-10.08,0-18.51-1.4-25.31-4.47a46.78,46.78,0,0,1-10.8-4.64c-8.9-5.35-14.86-13.64-17.93-25.71a80.44,80.44,0,0,1-2.17-15.49,30.18,30.18,0,0,1-1.44-8"/><path class="cls-9" d="M235.2,390.57c-7.95,6.81-21.19,12-44,12-21.43,0-34.93-5.29-43.43-12,.22,1.25.48,2.47.77,3.64,2.45,9.59,7.17,16.15,14.23,20.39s16.52,6.13,28.42,6.13h0c11.91,0,21.51-1.9,28.71-6.14s12-10.8,14.48-20.38c.3-1.18.56-2.41.78-3.67"/><path class="cls-10" d="M236.85,389.06c-.52.51-1.07,1-1.65,1.51-.22,1.26-.48,2.49-.78,3.67-2.45,9.58-7.29,16.14-14.48,20.38s-16.8,6.14-28.71,6.14h0c-11.9,0-21.37-1.9-28.42-6.13s-11.78-10.8-14.23-20.39c-.29-1.17-.55-2.39-.77-3.64-.57-.44-1.11-.89-1.63-1.34a52.14,52.14,0,0,0,1.06,5.32c2.49,9.86,7.46,16.82,14.85,21.24a35.42,35.42,0,0,0,3.57,1.86c6.8,3.07,15.23,4.44,25.31,4.47h.28c1.63,0,3.23,0,4.78-.11,9.35-.43,17.22-2.19,23.54-5.6.37-.2.74-.41,1.09-.62,7.52-4.41,12.63-11.38,15.13-21.24a56.19,56.19,0,0,0,1.08-5.52"/><path class="cls-5" d="M141.75,231.56c.15.6,1.3,4.58,6.51,6.44l1.35.48.34-.13-1.08-.35a12.2,12.2,0,0,1-6.19-4.85,15.72,15.72,0,0,1-.93-1.59m106.92-1a13.5,13.5,0,0,1-1.37,2.57,12.47,12.47,0,0,1-5.31,4.52l.22.05a11.74,11.74,0,0,0,2.49-1.45,14.12,14.12,0,0,0,4-5.69"/><path class="cls-9" d="M179.93,241.66a46.3,46.3,0,0,1-5.65.48l-.33.91c.84,0,1.67,0,2.48,0q2.19,0,4.17-.12a7.41,7.41,0,0,1-.67-1.31m28.86-.21a14.13,14.13,0,0,1-1.13,1.6c2,.19,4,.28,6,.28l1.48,0-.44-1.21a43.83,43.83,0,0,1-6-.65M152.16,239l-.42.16a84.79,84.79,0,0,0,17.89,3.62l-.34-.75a81.7,81.7,0,0,1-17.13-3m87.48-.54a82,82,0,0,1-19.7,3.61l-.47,1a77,77,0,0,0,20.65-4.48l-.48-.14"/><path class="cls-10" d="M150,238.35l-.34.13,2.13.69.42-.16c-.78-.22-1.52-.44-2.21-.66m92-.68c-.29.12-.58.23-.88.33l-1.47.47.48.14c.78-.3,1.48-.6,2.09-.89l-.22-.05"/><path class="cls-4" d="M169.29,242l.34.75c1.5.13,2.93.22,4.32.26l.33-.91-1.4,0c-1.2,0-2.4,0-3.59-.12"/><path class="cls-4" d="M219.94,242.08c-.94,0-1.89.07-2.84.08-.79,0-1.58,0-2.36-.06l.44,1.21c1.45,0,2.89-.11,4.29-.22l.47-1"/><path class="cls-24" d="M195,233.32a11.73,11.73,0,0,1-.43,1.14,5.75,5.75,0,0,1-1.83,2.4,29.87,29.87,0,0,1-12.8,4.8,7.41,7.41,0,0,0,.67,1.31c9.21-.53,14.62-2.68,14.62-2.68a49.32,49.32,0,0,0,12.44,2.76,14.13,14.13,0,0,0,1.13-1.6,29.12,29.12,0,0,1-11.54-4.59,5.73,5.73,0,0,1-1.82-2.4,11.75,11.75,0,0,1-.44-1.14"/><path class="cls-9" d="M247.63,229.39c-5,4.27-17.56,6.72-26.83,6.72-2.38,0-5.33.08-7.66-.14-8.58-.81-15.93-1.46-16.88-3.92a4.84,4.84,0,0,0-.39-.82,13.47,13.47,0,0,0,.83,2.66,4.28,4.28,0,0,0,1.35,1.83c5.33,3.74,12.19,5,19,5h0a79,79,0,0,0,23.58-4.08,10.92,10.92,0,0,0,5.47-4.31,12.75,12.75,0,0,0,1.48-3"/><path class="cls-10" d="M249.48,227a6.22,6.22,0,0,1-1.85,2.43,12.75,12.75,0,0,1-1.48,3,10.92,10.92,0,0,1-5.47,4.31,79,79,0,0,1-23.58,4.08h0c-6.85,0-13.71-1.3-19-5a4.28,4.28,0,0,1-1.35-1.83,13.47,13.47,0,0,1-.83-2.66,2.84,2.84,0,0,0-.27-.38,18.58,18.58,0,0,1-.61,2.47,11.75,11.75,0,0,0,.44,1.14,5.73,5.73,0,0,0,1.82,2.4,29.12,29.12,0,0,0,11.54,4.59,43.83,43.83,0,0,0,6,.65c.78,0,1.57.05,2.36.06,1,0,1.9,0,2.84-.08a82,82,0,0,0,19.7-3.61l1.47-.47c.3-.1.59-.21.88-.33a12.47,12.47,0,0,0,5.31-4.52,13.5,13.5,0,0,0,1.37-2.57,12,12,0,0,0,.81-3.62"/><path class="cls-9" d="M194.18,230.86a3.39,3.39,0,0,0-.47,1.09c-.74,2.78-7.79,4.47-17.8,4.47-3,0-6.29-.15-9.74-.47a129.06,129.06,0,0,1-22.54-3.89l.21.31a10.83,10.83,0,0,0,5.47,4.31,79.19,79.19,0,0,0,23.56,4.08h0c6.85,0,13.72-1.3,19.05-5a4.37,4.37,0,0,0,1.36-1.83,14.19,14.19,0,0,0,.89-3"/><path class="cls-10" d="M194.88,230.44a.89.89,0,0,0-.7.42,14.19,14.19,0,0,1-.89,3,4.37,4.37,0,0,1-1.36,1.83c-5.33,3.74-12.2,5.05-19.05,5h0a79.19,79.19,0,0,1-23.56-4.08,10.83,10.83,0,0,1-5.47-4.31l-.21-.31c-1.25-.35-1.89-.58-1.89-.58a.45.45,0,0,0,0,.08,15.72,15.72,0,0,0,.93,1.59,12.2,12.2,0,0,0,6.19,4.85l1.08.35c.69.22,1.43.44,2.21.66a81.7,81.7,0,0,0,17.13,3c1.19.08,2.39.11,3.59.12l1.4,0a46.3,46.3,0,0,0,5.65-.48,29.87,29.87,0,0,0,12.8-4.8,5.75,5.75,0,0,0,1.83-2.4,11.73,11.73,0,0,0,.43-1.14,18.58,18.58,0,0,0,.61-2.47,1,1,0,0,0-.72-.41"/><path class="cls-4" d="M128.12,495.48a18,18,0,0,1-3,.25c-.51,0-1,0-1.6-.07a16.82,16.82,0,0,0,1.8.1,13.52,13.52,0,0,0,2.8-.28"/><path class="cls-5" d="M112.25,478.25v.08c0,4.78,1.61,9.5,3.49,11.83a10.59,10.59,0,0,0,4.63,3.37,13.46,13.46,0,0,0,4.74.81h0a15.78,15.78,0,0,0,3.88-.47l.06,0,.33-.09.28.2,0,0,.14.09a6.62,6.62,0,0,0,.58.36,18.4,18.4,0,0,0,2.35,1.09,25.54,25.54,0,0,0,9.19,1.61,33.94,33.94,0,0,0,8.05-1,11.42,11.42,0,0,0,4.57-2.11,9,9,0,0,0,2.57-3.48,22.43,22.43,0,0,0,1.41-7.67,28.06,28.06,0,0,1-10.33,1.58,93.19,93.19,0,0,1-18.82-2.35,14.53,14.53,0,0,1-5.15.95c-5.43,0-9.91-3.05-12-4.8"/><path class="cls-6" d="M110.93,477.05a23.89,23.89,0,0,0,0,3.38c.38,4.31,1.85,8.27,3.71,10.6a12,12,0,0,0,5.22,3.8l.14.05a17.48,17.48,0,0,0,3.5.78c.56,0,1.09.07,1.6.07a18,18,0,0,0,3-.25,7.33,7.33,0,0,0,1-.28l.09.13a23.45,23.45,0,0,0,11,3.15l.58,0,1.2,0c.69,0,1.36,0,2,0a36.73,36.73,0,0,0,6.35-1,12.93,12.93,0,0,0,5.13-2.39,11.41,11.41,0,0,0,3.78-6.52c.1-.4.18-.82.26-1.24a29,29,0,0,0,.4-5.13,12.84,12.84,0,0,1-1.34.66,22.43,22.43,0,0,1-1.41,7.67,9,9,0,0,1-2.57,3.48,11.42,11.42,0,0,1-4.57,2.11,33.94,33.94,0,0,1-8.05,1,25.54,25.54,0,0,1-9.19-1.61,18.4,18.4,0,0,1-2.35-1.09,6.62,6.62,0,0,1-.58-.36l-.14-.09,0,0-.28-.2-.33.09-.06,0a15.78,15.78,0,0,1-3.88.47h0a13.46,13.46,0,0,1-4.74-.81,10.59,10.59,0,0,1-4.63-3.37c-1.88-2.33-3.5-7.05-3.49-11.83v-.08a15.51,15.51,0,0,1-1.32-1.2"/><path class="cls-5" d="M223.34,475c0,1.46-.05,2.86-.05,4.19a40.65,40.65,0,0,0,.74,9.05,10,10,0,0,0,3.31,5.76,11.47,11.47,0,0,0,4.58,2.11,33.87,33.87,0,0,0,8,1c7.53,0,11.82-2.84,12.27-3.15l0,0,.28-.2.33.09.07,0,.21.06.82.16a16,16,0,0,0,2.85.25,13.46,13.46,0,0,0,4.74-.81,10.54,10.54,0,0,0,4.63-3.37c1.59-2,3-5.65,3.39-9.63a18.79,18.79,0,0,1-10.25,2.89,24.29,24.29,0,0,1-9.24-1.85,23.73,23.73,0,0,1-9.5,2.1c-8.77,0-14.7-5.63-17.25-8.65"/><path class="cls-6" d="M222,473.24c0,2.11-.08,4.1-.08,6,0,4.76.25,8.74,1.6,11.88a10.35,10.35,0,0,0,2.13,3.25c1.93,1.81,4.69,2.74,8.54,3.67l.25.06a33.86,33.86,0,0,0,5.54.47,28.15,28.15,0,0,0,6.74-.79,23.09,23.09,0,0,0,6-2.52,15.45,15.45,0,0,0,3.89.44,18.92,18.92,0,0,0,4.45-.53l.25-.05c.25-.08.51-.16.76-.26a12,12,0,0,0,5.23-3.8c2-2.47,3.49-6.75,3.76-11.34v-.2c-.48.38-1,.72-1.46,1-.39,4-1.8,7.66-3.39,9.63a10.54,10.54,0,0,1-4.63,3.37,13.46,13.46,0,0,1-4.74.81,16,16,0,0,1-2.85-.25l-.82-.16-.21-.06-.07,0-.33-.09-.28.2,0,0c-.45.31-4.74,3.15-12.27,3.15a33.87,33.87,0,0,1-8-1,11.47,11.47,0,0,1-4.58-2.11,10,10,0,0,1-3.31-5.76,40.65,40.65,0,0,1-.74-9.05c0-1.33,0-2.73.05-4.19a21.22,21.22,0,0,1-1.36-1.78"/><path class="cls-9" d="M203.87,218.5h0a5.9,5.9,0,0,1-4.31,2.93l-3.36.2v.09a28.86,28.86,0,0,0,4.15-.33c1.93-.33,3.52-2.9,3.52-2.9"/><path class="cls-9" d="M185,218.48s.8,2.93,5,3.11c1.74.07,3.31.13,4.74.14v0h-.4c-.57,0-1.47,0-5.08-.26a5.72,5.72,0,0,1-4.24-2.91l-.06-.05"/><path class="cls-10" d="M196.19,221.64l-1.39.06v0h1.4v-.09"/><path class="cls-25" d="M203.86,218.51c-.21.11-3.07,1.6-8.51,1.6h-.11c-5.64,0-8.83-.46-10.16-1.58a5.72,5.72,0,0,0,4.24,2.91c3.61.22,4.51.26,5.08.26h.4l1.39-.06,3.36-.2a5.9,5.9,0,0,0,4.31-2.93"/><path class="cls-2" d="M144.76,275.55S92,244.47,67.06,230.41s-36-33.79-25.65-44.89,33.3-13.07,40.45,2.71-5.92,21-5.92,21l69.81,55.53-1,10.82"/><path class="cls-3" d="M144.76,275.55l-.35.6-2.32-1.36c-10.44-6.14-53.58-31.48-75.37-43.77-9.37-5.29-16.81-11.38-21.93-17.55S36.86,201,36.85,195.36a14.73,14.73,0,0,1,4-10.31c5.28-5.64,13.6-8.94,21.61-9a24.24,24.24,0,0,1,11.67,2.8,19.22,19.22,0,0,1,8.32,9,21.94,21.94,0,0,1,2.2,9,13.43,13.43,0,0,1-4.25,10,14.79,14.79,0,0,1-4.25,2.87l-.26-.65.43-.55,71.4,55.88-2.87,11.91-.49-.29.35-.6-.85-.65,1.84-10.17L74.55,209l1.14-.45h0a13.67,13.67,0,0,0,4-2.75A12,12,0,0,0,83.31,197a20.67,20.67,0,0,0-2.08-8.47,17.77,17.77,0,0,0-7.72-8.4,22.86,22.86,0,0,0-11-2.63c-7.63,0-15.65,3.2-20.59,8.51a13.34,13.34,0,0,0-3.68,9.36c0,5.2,2.63,11.21,7.62,17.22s12.3,12,21.54,17.23C92.33,243.87,145.11,275,145.11,275l-.35.6-.52-.46.52.46"/><path class="cls-6" d="M283.42,229.16,305.71,212l-.14-.08,0,0a17.48,17.48,0,0,1-2.68-1.87l-.41-.38a13.44,13.44,0,0,1-4.11-7.92,7.49,7.49,0,0,0,1.9,2,12.15,12.15,0,0,0,3.17,4.9,13.33,13.33,0,0,0,2.64,2,8.86,8.86,0,0,0,.86.46l.23.11.06,0h0l1.14.45-18.3,14.12c-3.25,1.62-5.7,2.9-6.69,3.42"/><path class="cls-5" d="M92.28,222.69,70.21,209.8c3.78-.73,9.25-5.32,12.18-8a12.09,12.09,0,0,1-2.72,4,13.67,13.67,0,0,1-4,2.75h0l-1.14.45,17.73,13.69"/><path class="cls-6" d="M101,227.79l-8.73-5.1L74.55,209l1.14-.45h0a13.67,13.67,0,0,0,4-2.75,12.09,12.09,0,0,0,2.72-4c1.17-1.07,1.93-1.83,2-1.93a13.34,13.34,0,0,1-4,7.12,15.37,15.37,0,0,1-3.2,2.35l.15.12,0,0L101,227.79"/><path class="cls-5" d="M145.75,264.73c-.91,4.43-1.65,9.15-2.26,14.14,2.48-.54,8-1.71,15.08-2.95,1-3.21,2-6.31,3.19-9.22l-1.56-.14c-5-.48-9.8-1.08-14.45-1.83"/><path class="cls-2" d="M238.2,278.17S291,247.09,315.9,233s36-33.79,25.65-44.89-33.3-13.08-40.45,2.71,5.92,21,5.92,21L236.3,260.53l1.9,17.64"/><path class="cls-3" d="M238.2,278.17l-.35-.6s52.78-31.08,77.7-45.15c9.25-5.22,16.57-11.21,21.55-17.22s7.62-12,7.62-17.22a13.38,13.38,0,0,0-3.68-9.37c-5-5.31-13-8.51-20.59-8.5a22.83,22.83,0,0,0-11,2.63,17.68,17.68,0,0,0-7.72,8.4,20.67,20.67,0,0,0-2.08,8.47,12.05,12.05,0,0,0,3.82,9,13.33,13.33,0,0,0,2.64,2,8.86,8.86,0,0,0,.86.46l.23.11.06,0h0l1.14.45L236.93,261l1.79,16.73-.52.46-.35-.6.35.6-.52.45-2.77-17.83,71.68-49.52.43.55-.26.64a14.62,14.62,0,0,1-4.25-2.86,13.45,13.45,0,0,1-4.25-10,22,22,0,0,1,2.2-9.05,19.15,19.15,0,0,1,8.32-9,24.14,24.14,0,0,1,11.67-2.81c8,0,16.33,3.32,21.61,8.95A14.79,14.79,0,0,1,346.11,198c0,5.67-2.82,11.93-7.94,18.1s-12.56,12.27-21.93,17.55c-12.45,7-31.88,18.31-48.18,27.84-8.16,4.76-15.53,9.09-20.87,12.22l-6.32,3.71-2.32,1.37-.49.29-.38-.44.52-.45"/><path class="cls-5" d="M290.11,225.74l18.3-14.12-1.14-.45h0l-.06,0L307,211a8.86,8.86,0,0,1-.86-.46,13.33,13.33,0,0,1-2.64-2,12.15,12.15,0,0,1-3.17-4.9c6.19,4.83,22.75,9.26,22.75,9.26-7.33.56-23.52,8.11-32.94,12.79"/><path class="cls-5" d="M235.29,260.66c-5.14,1.32-10.24,2.4-15.24,3.28.37.81.72,1.63,1.06,2.47a110.19,110.19,0,0,1,4.28,13,105.6,105.6,0,0,1,14,8c-.17-1.49-.34-3-.49-4.48l.69-.07h0l-.69.07a178.36,178.36,0,0,0-3.62-22.3"/><rect class="cls-26" x="299.27" y="164.92" width="13.3" height="75.51" transform="translate(171.1 -138.63) rotate(34.92)"/><rect class="cls-27" x="299.81" y="163.18" width="7.24" height="75.51" transform="translate(169.66 -137.52) rotate(34.92)"/><path class="cls-28" d="M289.76,237.44l-11.88,8a1,1,0,0,1-1.49-1l2.46-14.66Z"/><path class="cls-29" d="M276.88,241.62l-.49,2.86a1,1,0,0,0,1.49,1L280.2,244Z"/><path class="cls-30" d="M334,165.47,331.89,164c-2.93-2-7-.71-8,.81h0c-1.05,1.51-1.61,2.95-.09,4l7.71,5.39c1.51,1.06,2.55,0,3.61-1.56h0C336.15,171.15,336.29,167,334,165.47Z"/><rect class="cls-31" x="318.42" y="169.86" width="16.09" height="6.68" rx="0.61" transform="translate(157.93 -155.7) rotate(34.92)"/><path class="cls-2" d="M307,211.82l-.41.28c2.81.39,6.16.29,8.46.5,4.18.39,8.38.33,12.57.38,3.78.05,7.55.17,11.32.29h.51c6.87-9.42,8.06-18.72,2.08-25.13-10.36-11.1-33.3-13.08-40.45,2.71S307,211.82,307,211.82Z"/><path class="cls-3" d="M305.65,211.91l1.45.71a1.2,1.2,0,0,0,1.29-.37l0-.63-1.14-.45h0l-.06,0L307,211a8.86,8.86,0,0,1-.86-.46,13.33,13.33,0,0,1-2.64-2,12.05,12.05,0,0,1-3.82-9,20.67,20.67,0,0,1,2.08-8.47,17.68,17.68,0,0,1,7.72-8.4,22.83,22.83,0,0,1,11-2.63c7.63,0,15.64,3.19,20.59,8.5a13.38,13.38,0,0,1,3.68,9.37c0,4.64-2.1,9.92-6.1,15.28h1.71c3.74-5.24,5.77-10.48,5.78-15.29a14.79,14.79,0,0,0-4.05-10.32c-5.28-5.63-13.6-8.94-21.61-8.95a24.14,24.14,0,0,0-11.67,2.81,19.15,19.15,0,0,0-8.32,9,22,22,0,0,0-2.2,9.05,13.45,13.45,0,0,0,4.25,10A15.31,15.31,0,0,0,305.65,211.91Z"/><path class="cls-5" d="M306.11,210.57a8.86,8.86,0,0,0,.86.46l.23.11.06,0h0l1.14.45-1.31,1c2.57.26,5.48.13,7.5.32,2.64.24,5.75,0,8.4,0-.93-.25-16.69-4.56-22.7-9.25a12.15,12.15,0,0,0,3.17,4.9A13.33,13.33,0,0,0,306.11,210.57Z"/></g></g></svg>