<svg xmlns="http://www.w3.org/2000/svg" xmlns:xlink="http://www.w3.org/1999/xlink" viewBox="0 0 121.66 120.04"><defs><style>.cls-1,.cls-12,.cls-2,.cls-7{fill:none;}.cls-1,.cls-10,.cls-12,.cls-3,.cls-5,.cls-7,.cls-8{stroke:#000;stroke-miterlimit:10;}.cls-1,.cls-10,.cls-12,.cls-13,.cls-3,.cls-5,.cls-7,.cls-8{stroke-linecap:round;}.cls-1{stroke-width:0.25px;}.cls-12,.cls-3,.cls-5,.cls-8{stroke-width:0.5px;}.cls-3{fill:url(#linear-gradient);}.cls-4{fill:url(#linear-gradient-2);}.cls-5{fill:url(#linear-gradient-3);}.cls-6{fill:url(#linear-gradient-4);}.cls-7{stroke-width:0.75px;}.cls-8{fill:#fff;}.cls-9{clip-path:url(#clip-path);}.cls-10{fill:#7e2d3a;}.cls-11{fill:#fea49c;}.cls-13{fill:#a0dbf0;stroke:#4a91cd;stroke-linejoin:round;}</style><linearGradient id="linear-gradient" x1="703.73" y1="182.53" x2="714.44" y2="-17.54" gradientTransform="translate(-615.92)" gradientUnits="userSpaceOnUse"><stop offset="0.35" stop-color="#e6b821"/><stop offset="1" stop-color="#7fb541"/></linearGradient><linearGradient id="linear-gradient-2" x1="681.74" y1="183.01" x2="692.64" y2="-20.67" xlink:href="#linear-gradient"/><linearGradient id="linear-gradient-3" x1="664.96" y1="180.45" x2="675.67" y2="-19.62" xlink:href="#linear-gradient"/><linearGradient id="linear-gradient-4" x1="658.94" y1="182.59" x2="669.98" y2="-23.79" xlink:href="#linear-gradient"/><clipPath id="clip-path"><path class="cls-1" d="M85,72.35c-4.14.92-9.59,2.85-13.89,3.8-16.74,3.7-33.36-.88-38.14-1-5.22-.09-8.83,1.1-9.47,3-1.37,4.09,7.47,10.93,15.66,12.25s14.27,2.1,22.69,0c11.77-2.94,14.36-5.95,17.84-9.24C84.48,76.63,86.82,71.93,85,72.35Z"/></clipPath></defs><title>Correct feedbacK_camaleon2</title><g id="Layer_2" data-name="Layer 2"><g id="Layer_1-2" data-name="Layer 1"><rect class="cls-2" width="121.66" height="120.03"/><path class="cls-3" d="M71.61,101.4C73,100.85,87.12,95.63,95.28,88A80.83,80.83,0,0,0,108.05,72c.54-.55,4.46.82,6-1.65s-3.15-5.21-4.39-5.42c0,0,4-6.31,1.72-7.89S105.64,62,105.64,62s-6.1-3.91-7.82-1.37,3.64,6.79,3.64,6.79S90.21,89.05,72,95.36"/><path class="cls-4" d="M54.41,120H88c-.41-1.14-1.08-2.86-1.59-4.05C76,91.84,64.32,88.23,58.67,89.37c-11.34,2.28-6,15.27-4.85,21A44.41,44.41,0,0,1,54.41,120Z"/><path d="M53.57,110.45a43.71,43.71,0,0,1,.59,9.59h.51a45.14,45.14,0,0,0-.6-9.68c-.17-.87-.44-1.91-.72-3-1.12-4.41-2.65-10.45-.25-14.28a8.19,8.19,0,0,1,5.62-3.45c2.46-.49,15.34-1.55,27.44,26.48.48,1.11,1.14,2.81,1.56,4h.53c-.44-1.21-1.13-3-1.63-4.15-12.26-28.38-25.47-27.28-28-26.77a8.65,8.65,0,0,0-5.94,3.68c-2.52,4-1,10.17.19,14.66C53.15,108.56,53.41,109.6,53.57,110.45Z"/><path class="cls-5" d="M28.75,4.11c2.66-.26,18,6.4,26.9,8.78s26.07,2.19,33.48,21.77c3.48,9.93,2.7,19.12,6,22.23S107,64.48,101,75.67,80.4,96.46,65,100.57,25.71,103,17.55,99.06,5.75,89.18,8.63,82.19s4.8-11.74,3.57-19.28-5.84-16.81-3-22.23S24.27,34.52,26,24.19s-.9-14.35-1.07-15.86S26.62,4.31,28.75,4.11Z"/><path class="cls-6" d="M41.33,120H52.26c-2.43-2-5.35-5.09-5.14-5.54.34-.75,7.68-7.07,9.33-8.23l-3.77-3.71c-6.11,3.5-15.58,9.13-15.37,12.28C37.38,116,39.25,118.27,41.33,120Z"/><path d="M46.89,114.4c-.29.64,2.52,3.58,5,5.64h.78a26.34,26.34,0,0,1-5.3-5.43c.29-.65,7.4-6.83,9.24-8.14a.25.25,0,0,0-.28-.41C54.75,107.17,47.28,113.56,46.89,114.4Z"/><path d="M41,120h.77c-3.18-2.66-4.12-4.56-4.16-5.21-.21-3.2,11-9.63,15.24-12a.25.25,0,1,0-.25-.43c-7.77,4.45-15.69,9.42-15.49,12.51C37.13,115.9,38.56,118,41,120Z"/><path class="cls-7" d="M28.8,32.13a19.75,19.75,0,0,1,16.74-3.6c5.23,1.29,12.76,8,12.76,8"/><path class="cls-7" d="M68.64,28.35c.27-1.37,1.83-6.77,7-6.86,5.38-.1,8.6,4.57,8.6,4.57"/><path class="cls-8" d="M38.47,41.5c3-.85,14.34-.41,19.15,13S51.69,71.87,46.43,72.65c-6.34.94-14.61-3.77-16.53-10.7S28.73,44.24,38.47,41.5Z"/><path class="cls-8" d="M77.93,32.79c4-1.09,11,3.08,13.44,12.48s.07,14.62-3.91,16.4-11.18-.2-14.75-8.58S71.34,34.57,77.93,32.79Z"/><ellipse cx="80.53" cy="49.94" rx="2.47" ry="4.23" transform="translate(-10.56 23.84) rotate(-15.81)"/><ellipse cx="52.53" cy="55.89" rx="2.47" ry="4.23" transform="translate(-13.24 16.43) rotate(-15.81)"/><g class="cls-9"><path class="cls-10" d="M86.82,61.47C83.63,63.58,75.22,73.13,63.12,76S42.3,79.87,37.68,78.44s-8.49.41-8.77,4.74,4.27,11.37,12.47,12.69,19.41,1,29.19-4.78S85.74,79,87,72.8,87.5,61,86.82,61.47Z"/><path class="cls-11" d="M72.09,68.15c4.11.52,11.28,4,12.54,8.1S68.23,97.38,49.36,95.4s-29.9-1.25-30.28-11.34-2-8.88,10.31-9.49S69.86,67.88,72.09,68.15Z"/></g><path class="cls-1" d="M85,72.35c-4.14.92-9.59,2.85-13.89,3.8-16.74,3.7-33.36-.88-38.14-1-5.22-.09-8.83,1.1-9.47,3-1.37,4.09,7.47,10.93,15.66,12.25s14.27,2.1,22.69,0c11.77-2.94,14.36-5.95,17.84-9.24C84.48,76.63,86.82,71.93,85,72.35Z"/><path class="cls-12" d="M67.36,69.93c.46,0,2.38.45,3,1.28"/><path class="cls-12" d="M76.46,66.59a10.94,10.94,0,0,0-.5,3.15"/><path class="cls-13" d="M107.56,100.89s-2.89,8.23,5.6,10.68c0,0-10.33-3.94-13,1.84,0,0,.79-10.25-.88-11C99.24,102.38,106.16,102.55,107.56,100.89Z"/><path class="cls-13" d="M17,102.76s-6.53,5-6.68,7c0,0-5.91-8.65-8.49-9.11,0,0,6.67-1.21,7.43-3.79C9.25,96.84,10.16,101.24,17,102.76Z"/></g></g></svg>