<svg xmlns="http://www.w3.org/2000/svg" viewBox="0 0 111.39 120"><defs><style>.cls-1{fill:none;}.cls-10,.cls-11,.cls-2,.cls-9{fill:#45adb0;}.cls-11,.cls-12,.cls-2,.cls-6,.cls-7,.cls-8,.cls-9{stroke:#000;stroke-miterlimit:10;}.cls-12,.cls-2,.cls-8{stroke-width:0.25px;}.cls-3{fill:#317043;}.cls-4{fill:#568c64;}.cls-5,.cls-8{fill:#d0a26e;}.cls-6{fill:#fff;}.cls-11,.cls-6,.cls-7{stroke-width:0.5px;}.cls-12,.cls-7{fill:#316b6f;}.cls-9{stroke-linecap:round;stroke-width:0.75px;}</style></defs><title>Mistake feedback_tortuga</title><g id="Layer_2" data-name="Layer 2"><g id="Layer_1-2" data-name="Layer 1"><rect class="cls-1" width="111.39" height="120"/><path class="cls-2" d="M78.31,77.07c2.94-1.12,29,19.71,29,22.74s.19,11.56-22.17,1.89S74.33,78.59,78.31,77.07Z"/><path class="cls-3" d="M89.22,120C86.57,98.09,64.86,76.08,57.85,76.31,30.51,77.23,31.58,101.71,33,120Z"/><path d="M33.12,120c-.83-10.76-2-27.08,6.1-36.19,4.13-4.61,10.4-7.09,18.63-7.37H58c3.63,0,10.81,5.63,17.16,13.47,7.74,9.55,12.82,20.61,14,30.09h.25c-1.15-9.53-6.26-20.65-14-30.24C68.92,81.86,61.65,76.19,58,76.19h-.12C49.54,76.47,43.21,79,39,83.65c-8.21,9.18-7,25.55-6.16,36.35Z"/><path class="cls-4" d="M92.21,120c-2.46-22-23.38-44.06-30.13-43.83-26.31.92-25.2,25.52-23.84,43.83Z"/><path d="M38.37,120c-.82-11-2-27.58,6.11-36.64,4-4.41,9.88-6.79,17.61-7.06h.11c3.48,0,10.39,5.66,16.5,13.53C86.15,99.41,91,110.5,92.09,120h.25c-1.07-9.55-6-20.7-13.44-30.33C72.74,81.74,65.75,76,62.19,76h-.11c-7.8.27-13.78,2.68-17.79,7.15-8.18,9.13-7,25.8-6.17,36.8Z"/><path class="cls-5" d="M96.13,120C94,97.81,71.77,75.22,64.67,75.46,36.9,76.39,38.44,101.62,39.88,120Z"/><path d="M40,120c-.92-11.74-2.14-27.9,6-37,4.13-4.62,10.4-7.11,18.64-7.38h.11c7.08,0,29.06,22.3,31.23,44.41h.25c-.94-9.64-6-21-13.86-30.78-6.48-8.08-13.86-13.89-17.62-13.89h-.12c-8.31.28-14.64,2.79-18.81,7.46-8.23,9.21-7,25.42-6.09,37.2Z"/><path class="cls-2" d="M50.33,5.05c13.4-.65,45.33-.93,53.19,26.36s4.17,44.87-23.13,51.81S33.21,87.38,17,80-17.2,8.28,50.33,5.05Z"/><path class="cls-6" d="M24.53,54.17C19.31,46,27.44,39.46,34.64,38.89c15.81-1.24,18.18,7.87,16.86,13C49.22,60.87,32,65.8,24.53,54.17Z"/><path class="cls-6" d="M94.18,50.36c2.84-8-1.14-24.3-9.42-25.25-12.82-1.47-10,18.79-8.63,24C78.4,58,89.64,63.12,94.18,50.36Z"/><ellipse cx="89.48" cy="44.4" rx="2.56" ry="4.38" transform="translate(-3.37 7.56) rotate(-4.75)"/><ellipse cx="47.06" cy="49.61" rx="2.56" ry="4.38" transform="translate(-3.95 4.07) rotate(-4.75)"/><path class="cls-7" d="M53.25,20.23c1,0,4-2.41,3.91-4.05S54,13.34,52.9,13.34s-4.34,2.13-4,3.62A5.08,5.08,0,0,0,53.25,20.23Z"/><path class="cls-7" d="M63.49,14a3,3,0,0,0,.2-2.85,2.27,2.27,0,0,0-2.47-.25c-.43.29-1,2.08-.37,2.68A2.45,2.45,0,0,0,63.49,14Z"/><path class="cls-8" d="M49.32,107.72c1.56-.85,15.63-5.26,21.74-6s12.79.14,16.2,2.27"/><path class="cls-9" d="M20.26,35.81c1.39,1.23,7.66,6.9,16.19,6.41s16-5.12,16-5.12"/><path class="cls-9" d="M70.52,16.68s3-4.76,8.31-4.26,6.75,3.12,6.75,3.12"/><path class="cls-10" d="M59.83,120c-5.41-3.37-22.3-8.21-22.59-8.8-.71-1.46,8.51-14.37,9.45-16.84.85-2.25.5-5.75-1.28-6.89-1.36-.87-2.13-1-5.54,1-3,1.73-20,20.75-21,29.47A6,6,0,0,0,19,120Z"/><path d="M19.11,120a6,6,0,0,1-.15-2.06c1-8.72,18.26-27.8,21-29.37,3.39-1.95,4.1-1.84,5.41-1,1.72,1.1,2.07,4.53,1.23,6.75a60.64,60.64,0,0,1-3.69,6.19c-3.64,5.73-6.19,9.85-5.75,10.74.11.24,1.44.7,5.49,2,5.39,1.78,13.42,4.59,17,6.72h.47c-3.38-2.18-11.78-5.12-17.36-7a52.55,52.55,0,0,1-5.35-1.9c-.4-.84,3.15-6.43,5.74-10.5a62.17,62.17,0,0,0,3.72-6.25c.87-2.3.48-5.88-1.33-7-1.39-.88-2.18-1-5.67,1-3.14,1.8-20.09,20.72-21.1,29.55a6.42,6.42,0,0,0,.15,2.09Z"/><path class="cls-11" d="M62.39,76.88c0-.85,4.27-6.82,6.92-6.72,4,.14,7.39,2,8.43,4.92"/><path class="cls-2" d="M71.39,69.4c.13-2.37,16.44-6.89,22-4.93,6.16,2.18,10.42,21.6,14,30.51s-3.22,11.74-7,11.18S70.82,80.2,71.39,69.4Z"/><path class="cls-12" d="M91.76,73.94a1.94,1.94,0,0,0,1.79-2.21,2.79,2.79,0,0,0-2.22-2.59c-.82,0-2.09,1.8-1.83,3.17S90.37,73.88,91.76,73.94Z"/><path class="cls-12" d="M84.53,72.13a1.67,1.67,0,0,0,.1-1.61c-.31-.41-1.15-.3-1.39-.15s-.52,1.17-.19,1.51A1.38,1.38,0,0,0,84.53,72.13Z"/></g></g></svg>