<svg xmlns="http://www.w3.org/2000/svg" xmlns:xlink="http://www.w3.org/1999/xlink" viewBox="0 0 96.06 120"><defs><style>.cls-1,.cls-11{fill:none;}.cls-10,.cls-11,.cls-2,.cls-4,.cls-6,.cls-7,.cls-8,.cls-9{stroke:#000;stroke-miterlimit:10;}.cls-10,.cls-11,.cls-2,.cls-4,.cls-6,.cls-7,.cls-8{stroke-linecap:round;}.cls-2,.cls-4,.cls-7{stroke-width:0.25px;}.cls-2{fill:url(#linear-gradient);}.cls-3{fill:url(#linear-gradient-2);}.cls-4{fill:url(#linear-gradient-3);}.cls-5{fill:url(#linear-gradient-4);}.cls-10,.cls-6,.cls-8,.cls-9{stroke-width:0.5px;}.cls-6{fill:url(#linear-gradient-5);}.cls-7{fill:url(#linear-gradient-6);}.cls-8{fill:url(#linear-gradient-7);}.cls-9{fill:#fff;}.cls-10{fill:url(#linear-gradient-8);}</style><linearGradient id="linear-gradient" x1="-4905.11" y1="183.69" x2="-4926.08" y2="-15.45" gradientTransform="translate(4985.01)" gradientUnits="userSpaceOnUse"><stop offset="0" stop-color="#e9118b"/><stop offset="1" stop-color="#ef4323"/></linearGradient><linearGradient id="linear-gradient-2" x1="-4914.54" y1="185.48" x2="-4935.67" y2="-15.23" xlink:href="#linear-gradient"/><linearGradient id="linear-gradient-3" x1="-4925.33" y1="185.82" x2="-4946.29" y2="-13.32" xlink:href="#linear-gradient"/><linearGradient id="linear-gradient-4" x1="-4933.56" y1="188.32" x2="-4954.9" y2="-14.48" xlink:href="#linear-gradient"/><linearGradient id="linear-gradient-5" x1="-4900.41" y1="183.2" x2="-4921.38" y2="-15.95" xlink:href="#linear-gradient"/><linearGradient id="linear-gradient-6" x1="-4904.02" y1="183.58" x2="-4924.98" y2="-15.57" xlink:href="#linear-gradient"/><linearGradient id="linear-gradient-7" x1="-4912.99" y1="184.52" x2="-4933.95" y2="-14.62" xlink:href="#linear-gradient"/><linearGradient id="linear-gradient-8" x1="-4934.32" y1="189.43" x2="-4955.66" y2="-13.35" xlink:href="#linear-gradient"/></defs><title>Mistake feedback_camaleon4</title><g id="Layer_2" data-name="Layer 2"><g id="Layer_1-2" data-name="Layer 1"><rect class="cls-1" width="96.06" height="120"/><path class="cls-2" d="M58.52,88.32c2.23-1.63,24.81,10.87,26,14.89s-1.37,6.44-7.69,3C69.74,102.31,51.36,93.56,58.52,88.32Z"/><path class="cls-3" d="M46.5,120H80.65a59.63,59.63,0,0,0-3-8.84c-10-23.06-21.07-26.51-26.47-25.42-10.83,2.18-5.68,14.59-4.63,20.09A50.2,50.2,0,0,1,46.5,120Z"/><path d="M46.27,105.88a49.73,49.73,0,0,1,0,14.12h.51a50.34,50.34,0,0,0,0-14.22c-.16-.83-.42-1.83-.68-2.88-1.07-4.21-2.54-10-.24-13.62A7.71,7.71,0,0,1,51.19,86c2.35-.47,14.64-1.48,26.19,25.27a59,59,0,0,1,3,8.74h.52a60.84,60.84,0,0,0-3.07-8.94C66.13,84,53.51,85,51.09,85.5A8.29,8.29,0,0,0,45.41,89c-2.41,3.83-.91,9.71.18,14C45.86,104.07,46.11,105.06,46.27,105.88Z"/><path class="cls-4" d="M22.58,4.33c2.53-.24,17.21,6.12,25.68,8.39s24.89,2.1,32,20.79C83.55,43,82.8,51.76,86,54.73S97.24,62,91.54,72.66,71.88,92.51,57.21,96.44,19.67,98.8,11.88,95,.61,85.57,3.36,78.88,8,67.68,6.77,60.48s-5.57-16-2.88-21.23,14.41-5.87,16-15.74-.86-13.71-1-15.15S20.54,4.53,22.58,4.33Z"/><path class="cls-5" d="M56.63,120a3,3,0,0,0-.14-1.42c-1.05-3.08-7.34-1.18-8.32-1.57s-8.38-6.55-8.06-7.27S47.45,103,49,101.88l-3.6-3.54c-5.83,3.34-14.87,8.71-14.67,11.73.15,2.33,7.56,7.77,10.8,9.93Z"/><path d="M40,109.69a.35.35,0,0,0,0,.28c.49,1.22,7.1,6.75,8.1,7.16a5.77,5.77,0,0,0,1.93,0c2.23-.23,5.6-.57,6.32,1.54a2.9,2.9,0,0,1,.14,1.38h.25a3.22,3.22,0,0,0-.15-1.46c-.78-2.3-4.28-1.94-6.59-1.71a5.67,5.67,0,0,1-1.8.06c-1.16-.46-8.14-6.44-8-7.1.31-.68,7.33-6.72,8.86-7.81a.12.12,0,0,0-.14-.2C47.47,102.82,40.36,108.89,40,109.69Z"/><path d="M41.77,120c-2.57-1.71-10.74-7.55-10.9-9.94-.2-3.12,10.18-9.07,14.61-11.61a.13.13,0,0,0,.05-.17.13.13,0,0,0-.17,0c-7.4,4.24-14.93,9-14.74,11.84.16,2.4,7.49,7.78,10.7,9.93Z"/><path class="cls-6" d="M60.66,27.48c.26-1.31,1.75-6.46,6.64-6.55,5.14-.09,8.21,4.37,8.21,4.37"/><path class="cls-7" d="M75,79.28c-.56.17,3.9-5.54,1.7-7.21-3.27-2.49-6.81,3.8-8.78,10-1,1-7.62.17-9.17,3.14s-.39,4.59,9.44,4.72c2.09.39,4.19,6.94,10.74,17.16,2.23,2.1,7.07.26,6.29-2.62s-10-16.11-9.43-18.08,6.15-1.18,6.68-5S77.52,78.49,75,79.28Z"/><path class="cls-8" d="M55.51,84.12c1.18-1.31,4.32-5,6.81-5.24S67,80.72,67,80.72"/><path class="cls-9" d="M35.46,44.56C38.36,43.74,49,42,50.14,52.48c1,9.81-4.68,10.82-12.93,12-5,.74-11.84.54-13.67-6.08S26.16,47.18,35.46,44.56Z"/><path class="cls-10" d="M19.61,44.82c3.8,1.31,11.28,4.25,19.52,2.62S50.92,41,50.92,41"/><path class="cls-9" d="M69.53,31.72c3.82-1,10.54,3,12.84,11.92s.06,14-3.74,15.66S68,59.1,64.55,51.11,63.24,33.42,69.53,31.72Z"/><ellipse cx="72.01" cy="48.1" rx="2.36" ry="4.04" transform="translate(-10.38 21.45) rotate(-15.81)"/><ellipse cx="47.2" cy="55.18" rx="2.36" ry="4.04" transform="translate(-6.42 6.22) rotate(-7.06)"/><path class="cls-11" d="M59.44,67.18a5.39,5.39,0,0,1,2.88,1.22"/><path class="cls-11" d="M68.13,64a10.72,10.72,0,0,0-.48,3"/></g></g></svg>