<svg xmlns="http://www.w3.org/2000/svg" xmlns:xlink="http://www.w3.org/1999/xlink" viewBox="0 0 96.06 120"><defs><style>.cls-1{fill:none;}.cls-10,.cls-11,.cls-2,.cls-4,.cls-6,.cls-7,.cls-8,.cls-9{stroke:#000;stroke-miterlimit:10;}.cls-10,.cls-11,.cls-2,.cls-4,.cls-6,.cls-7,.cls-8{stroke-linecap:round;}.cls-2,.cls-4,.cls-7{stroke-width:0.25px;}.cls-2{fill:url(#linear-gradient);}.cls-3{fill:url(#linear-gradient-2);}.cls-4{fill:url(#linear-gradient-3);}.cls-5{fill:url(#linear-gradient-4);}.cls-10,.cls-6{stroke-width:0.75px;}.cls-6{fill:url(#linear-gradient-5);}.cls-7{fill:url(#linear-gradient-6);}.cls-8,.cls-9{stroke-width:0.5px;}.cls-8{fill:url(#linear-gradient-7);}.cls-9{fill:#fff;}.cls-10{fill:url(#linear-gradient-8);}.cls-11{fill:#45adb0;}</style><linearGradient id="linear-gradient" x1="-4906.08" y1="183.69" x2="-4927.04" y2="-15.45" gradientTransform="translate(4985.01)" gradientUnits="userSpaceOnUse"><stop offset="0" stop-color="#7fb541"/><stop offset="1" stop-color="#2babe2"/></linearGradient><linearGradient id="linear-gradient-2" x1="-4915.58" y1="185.15" x2="-4936.64" y2="-14.9" xlink:href="#linear-gradient"/><linearGradient id="linear-gradient-3" x1="-4926.29" y1="185.82" x2="-4947.26" y2="-13.32" xlink:href="#linear-gradient"/><linearGradient id="linear-gradient-4" x1="-4934.63" y1="187.36" x2="-4955.75" y2="-13.27" xlink:href="#linear-gradient"/><linearGradient id="linear-gradient-5" x1="-4901.38" y1="183.2" x2="-4922.35" y2="-15.95" xlink:href="#linear-gradient"/><linearGradient id="linear-gradient-6" x1="-4904.99" y1="183.58" x2="-4925.95" y2="-15.57" xlink:href="#linear-gradient"/><linearGradient id="linear-gradient-7" x1="-4913.95" y1="184.52" x2="-4934.92" y2="-14.62" xlink:href="#linear-gradient"/><linearGradient id="linear-gradient-8" x1="-4935.29" y1="189.43" x2="-4956.63" y2="-13.35" xlink:href="#linear-gradient"/></defs><title>Mistake feedback_camaleon1</title><g id="Layer_2" data-name="Layer 2"><g id="Layer_1-2" data-name="Layer 1"><rect class="cls-1" width="96.06" height="120"/><path class="cls-2" d="M57.55,88.32c2.23-1.63,24.81,10.87,26,14.89s-1.36,6.44-7.68,3C68.78,102.31,50.39,93.56,57.55,88.32Z"/><path class="cls-3" d="M45.47,120H79.66a56.17,56.17,0,0,0-3-8.84c-10-23.06-21.07-26.51-26.47-25.42-10.83,2.18-5.68,14.59-4.63,20.09A49.73,49.73,0,0,1,45.47,120Z"/><path d="M45.42,105.85A49.1,49.1,0,0,1,45.35,120h.25a49.38,49.38,0,0,0,.07-14.19c-.16-.83-.41-1.83-.68-2.88-1.08-4.23-2.55-10-.23-13.72a7.93,7.93,0,0,1,5.44-3.35c2.36-.47,14.73-1.5,26.32,25.35a56.65,56.65,0,0,1,3,8.79h.25a56.77,56.77,0,0,0-3-8.89c-4.42-10.24-9.46-17.57-15-21.82s-10-4-11.62-3.67a8.16,8.16,0,0,0-5.6,3.46c-2.38,3.78-.89,9.64.19,13.91C45,104,45.26,105,45.42,105.85Z"/><path class="cls-4" d="M21.61,4.33c2.53-.24,17.21,6.12,25.68,8.39s24.89,2.1,32,20.79C82.58,43,81.83,51.76,85,54.73S96.27,62,90.57,72.66,70.92,92.51,56.24,96.44,18.71,98.8,10.91,95-.36,85.57,2.39,78.88,7,67.68,5.8,60.48s-5.57-16-2.88-21.23,14.41-5.87,16-15.74-.87-13.71-1-15.15S19.57,4.53,21.61,4.33Z"/><path class="cls-5" d="M55.56,120a2,2,0,0,0,0-1.42c-1.05-3.08-7.33-1.18-8.32-1.57s-8.38-6.55-8.06-7.27,7.34-6.75,8.91-7.86l-3.6-3.54c-5.83,3.34-14.87,8.71-14.67,11.73.16,2.43,8,8,11,9.93Z"/><path d="M39,109.69a.35.35,0,0,0,0,.28c.49,1.22,7.1,6.75,8.11,7.16a5.71,5.71,0,0,0,1.92,0c2.23-.23,5.6-.57,6.32,1.54a1.78,1.78,0,0,1,0,1.38h.28a2.18,2.18,0,0,0-.06-1.46c-.78-2.3-4.27-1.94-6.58-1.71a5.73,5.73,0,0,1-1.81.06c-1.15-.46-8.13-6.44-8-7.1.31-.68,7.33-6.72,8.87-7.81a.13.13,0,0,0,0-.17.13.13,0,0,0-.18,0C46.5,102.82,39.39,108.89,39,109.69Z"/><path d="M41,120c-2.67-1.75-10.94-7.51-11.1-9.94-.2-3.12,10.18-9.07,14.61-11.61a.13.13,0,1,0-.12-.22c-7.39,4.24-14.93,9-14.74,11.84.16,2.41,7.39,7.61,10.9,9.93Z"/><path class="cls-6" d="M59.69,27.48c.26-1.31,1.75-6.46,6.64-6.55,5.14-.09,8.21,4.37,8.21,4.37"/><path class="cls-7" d="M74.06,79.28c-.56.17,3.9-5.54,1.7-7.21C72.49,69.58,69,75.87,67,82c-1,1-7.63.17-9.18,3.14s-.39,4.59,9.44,4.72c2.09.39,4.19,6.94,10.74,17.16,2.23,2.1,7.08.26,6.29-2.62s-10-16.11-9.43-18.08,6.15-1.18,6.68-5S76.55,78.49,74.06,79.28Z"/><path class="cls-8" d="M54.54,84.12c1.18-1.31,4.32-5,6.81-5.24s4.72,1.84,4.72,1.84"/><path class="cls-9" d="M34.49,44.56c2.9-.82,13.56-2.58,14.68,7.92,1,9.81-4.67,10.82-12.93,12-5,.74-11.83.54-13.67-6.08S25.19,47.18,34.49,44.56Z"/><path class="cls-10" d="M18.64,44.82c3.8,1.31,11.28,4.25,19.52,2.62S50,41,50,41"/><path class="cls-9" d="M68.56,31.72c3.82-1,10.55,3,12.84,11.92s.06,14-3.74,15.66S67,59.1,63.58,51.11,62.27,33.42,68.56,31.72Z"/><ellipse cx="71.04" cy="48.1" rx="2.36" ry="4.04" transform="translate(-10.42 21.18) rotate(-15.81)"/><ellipse cx="46.23" cy="55.18" rx="2.36" ry="4.04" transform="translate(-6.43 6.1) rotate(-7.06)"/><path class="cls-11" d="M58.47,67.18a5.36,5.36,0,0,1,2.88,1.22"/><path class="cls-11" d="M67.16,64a10.72,10.72,0,0,0-.48,3"/></g></g></svg>