<svg xmlns="http://www.w3.org/2000/svg" xmlns:xlink="http://www.w3.org/1999/xlink" viewBox="0 0 121.67 120.03"><defs><style>.cls-1,.cls-13,.cls-2{fill:none;}.cls-1,.cls-11,.cls-13,.cls-3,.cls-5,.cls-7,.cls-8,.cls-9{stroke:#000;stroke-miterlimit:10;}.cls-1,.cls-11,.cls-13,.cls-14,.cls-3,.cls-5,.cls-7,.cls-8,.cls-9{stroke-linecap:round;}.cls-1,.cls-3,.cls-5{stroke-width:0.25px;}.cls-3{fill:url(#linear-gradient);}.cls-4{fill:url(#linear-gradient-2);}.cls-5{fill:url(#linear-gradient-3);}.cls-6{fill:url(#linear-gradient-4);}.cls-7,.cls-8{stroke-width:0.75px;}.cls-7{fill:url(#linear-gradient-5);}.cls-8{fill:url(#linear-gradient-6);}.cls-9{fill:#fff;}.cls-13,.cls-9{stroke-width:0.5px;}.cls-10{clip-path:url(#clip-path);}.cls-11{fill:#7e2d3a;}.cls-12{fill:#fea49c;}.cls-14{fill:#a0dbf0;stroke:#4a91cd;stroke-linejoin:round;}</style><linearGradient id="linear-gradient" x1="703.89" y1="182.79" x2="714.62" y2="-17.65" gradientTransform="translate(-615.92)" gradientUnits="userSpaceOnUse"><stop offset="0" stop-color="#7fb541"/><stop offset="1" stop-color="#2babe2"/></linearGradient><linearGradient id="linear-gradient-2" x1="681.87" y1="182.72" x2="692.72" y2="-20.13" xlink:href="#linear-gradient"/><linearGradient id="linear-gradient-3" x1="665.05" y1="180.72" x2="675.78" y2="-19.73" xlink:href="#linear-gradient"/><linearGradient id="linear-gradient-4" x1="659.06" y1="182.04" x2="670.01" y2="-22.62" xlink:href="#linear-gradient"/><linearGradient id="linear-gradient-5" x1="651.76" y1="180" x2="662.48" y2="-20.44" xlink:href="#linear-gradient"/><linearGradient id="linear-gradient-6" x1="684.21" y1="181.74" x2="694.93" y2="-18.7" xlink:href="#linear-gradient"/><clipPath id="clip-path"><path class="cls-1" d="M85.1,72.41c-4.14.92-9.6,2.85-13.9,3.81-16.78,3.71-33.43-.88-38.22-1-5.23-.09-8.85,1.1-9.49,3-1.37,4.1,7.49,11,15.69,12.27s14.3,2.11,22.73,0c11.79-2.94,14.39-6,17.88-9.25C84.64,76.7,87,72,85.1,72.41Z"/></clipPath></defs><title>Correct feedbacK_camaleon1</title><g id="Layer_2" data-name="Layer 2"><g id="Layer_1-2" data-name="Layer 1"><rect class="cls-2" width="121.67" height="120.03"/><path class="cls-3" d="M71.75,101.51C73.12,101,87.28,95.74,95.46,88a81,81,0,0,0,12.79-16c.55-.55,4.46.83,6-1.65s-3.16-5.22-4.39-5.43c0,0,4-6.32,1.71-7.9s-5.77,5-5.77,5S99.72,58.14,98,60.68s3.65,6.81,3.65,6.81-11.28,21.65-29.49,28"/><path class="cls-4" d="M54.46,120H88.11c-.42-1.15-1-2.7-1.56-3.9C76.1,91.93,64.44,88.32,58.78,89.46c-11.37,2.29-6,15.31-4.86,21.08A43.34,43.34,0,0,1,54.46,120Z"/><path d="M53.8,110.56a42.85,42.85,0,0,1,.54,9.47h.25a42.47,42.47,0,0,0-.55-9.51c-.16-.87-.43-1.92-.71-3C52.2,103.06,50.65,97,53.1,93.1a8.31,8.31,0,0,1,5.7-3.52c2.48-.49,15.47-1.57,27.63,26.6.5,1.14,1.12,2.69,1.55,3.85h.26c-.43-1.19-1.07-2.77-1.58-4C82,105.34,76.74,97.64,71,93.19S60.46,89,58.75,89.34A8.58,8.58,0,0,0,52.88,93c-2.49,4-.93,10.11.21,14.6C53.37,108.66,53.63,109.7,53.8,110.56Z"/><path class="cls-5" d="M28.81,4c2.65-.26,18.05,6.42,26.94,8.8S81.87,15,89.3,34.65c3.48,10,2.7,19.16,6,22.27s11.85,7.61,5.87,18.81-20.63,20.83-36,25-39.39,2.47-47.57-1.52S5.76,89.28,8.64,82.26,13.45,70.51,12.22,63s-5.85-16.84-3-22.27S24.32,34.51,26,24.16s-.9-14.38-1.08-15.89S26.66,4.25,28.81,4Z"/><path class="cls-6" d="M41.4,120H52.34c-2.44-2-5.34-4.93-5.13-5.39.34-.76,7.69-7.08,9.34-8.25l-3.78-3.71c-6.11,3.51-15.6,9.14-15.39,12.3C37.45,116.12,39.29,118.25,41.4,120Z"/><path d="M47.09,114.59c-.29.64,3.42,4.08,5,5.44h.4c-3.23-2.67-5.3-5-5.22-5.34.33-.72,7.7-7.06,9.31-8.2a.13.13,0,0,0,0-.17.13.13,0,0,0-.18,0C55,107.36,47.46,113.78,47.09,114.59Z"/><path d="M41.2,120h.39c-2.5-2.1-4-4.09-4.09-5-.21-3.28,10.68-9.53,15.34-12.19a.12.12,0,0,0,0-.17.13.13,0,0,0-.17-.05C45,107,37.05,112,37.25,115,37.32,116,38.77,118,41.2,120Z"/><path class="cls-7" d="M28.85,32.11a19.82,19.82,0,0,1,16.77-3.6c5.24,1.29,12.79,8,12.79,8"/><path class="cls-8" d="M68.77,28.33c.27-1.38,1.83-6.78,7-6.88,5.39-.09,8.62,4.59,8.62,4.59"/><path class="cls-9" d="M38.54,41.5c3-.85,14.37-.41,19.18,13.06s-5.93,17.37-11.2,18.15C40.16,73.65,31.88,68.93,30,62S28.78,44.25,38.54,41.5Z"/><path class="cls-9" d="M78.07,32.77c4-1.08,11.07,3.1,13.47,12.51s.07,14.64-3.92,16.43-11.2-.2-14.77-8.59S71.47,34.56,78.07,32.77Z"/><ellipse cx="80.67" cy="49.96" rx="2.48" ry="4.24" transform="matrix(0.96, -0.27, 0.27, 0.96, -10.56, 23.88)"/><ellipse cx="52.63" cy="55.92" rx="2.48" ry="4.24" transform="translate(-13.25 16.46) rotate(-15.81)"/><g class="cls-10"><path class="cls-11" d="M87,61.51C83.78,63.63,75.36,73.2,63.24,76.1s-20.86,3.84-25.49,2.41-8.51.41-8.79,4.75S33.24,94.66,41.45,96s19.46,1,29.25-4.79,15.2-12.1,16.45-18.32S87.66,61.06,87,61.51Z"/><path class="cls-12" d="M72.23,68.21c4.11.51,11.29,4,12.55,8.11S68.35,97.49,49.45,95.5,19.5,94.25,19.11,84.14s-2-8.89,10.33-9.51S70,67.93,72.23,68.21Z"/></g><path class="cls-1" d="M85.1,72.41c-4.14.92-9.6,2.85-13.9,3.81-16.78,3.71-33.43-.88-38.22-1-5.23-.09-8.85,1.1-9.49,3-1.37,4.1,7.49,11,15.69,12.27s14.3,2.11,22.73,0c11.79-2.94,14.39-6,17.88-9.25C84.64,76.7,87,72,85.1,72.41Z"/><path class="cls-13" d="M67.48,70c.46,0,2.39.46,3,1.29"/><path class="cls-13" d="M76.6,66.64a11.31,11.31,0,0,0-.5,3.16"/><path class="cls-14" d="M107.76,101s-2.9,8.25,5.61,10.7c0,0-10.35-3.94-13.07,1.84,0,0,.79-10.26-.87-11.05C99.43,102.49,106.35,102.67,107.76,101Z"/><path class="cls-14" d="M17,102.88s-6.54,5-6.69,7c0,0-5.93-8.67-8.51-9.12,0,0,6.69-1.22,7.45-3.8C9.27,97,10.18,101.36,17,102.88Z"/></g></g></svg>