<svg xmlns="http://www.w3.org/2000/svg" xmlns:xlink="http://www.w3.org/1999/xlink" viewBox="0 0 121.66 120.03"><defs><style>.cls-1,.cls-12,.cls-2,.cls-7{fill:none;}.cls-1,.cls-10,.cls-12,.cls-3,.cls-5,.cls-7,.cls-8{stroke:#000;stroke-miterlimit:10;}.cls-1,.cls-10,.cls-12,.cls-13,.cls-3,.cls-5,.cls-7,.cls-8{stroke-linecap:round;}.cls-1{stroke-width:0.25px;}.cls-12,.cls-3,.cls-5,.cls-8{stroke-width:0.5px;}.cls-3{fill:url(#linear-gradient);}.cls-4{fill:url(#linear-gradient-2);}.cls-5{fill:url(#linear-gradient-3);}.cls-6{fill:url(#linear-gradient-4);}.cls-7{stroke-width:0.75px;}.cls-8{fill:#fff;}.cls-9{clip-path:url(#clip-path);}.cls-10{fill:#7e2d3a;}.cls-11{fill:#fea49c;}.cls-13{fill:#a0dbf0;stroke:#4a91cd;stroke-linejoin:round;}</style><linearGradient id="linear-gradient" x1="702.96" y1="182.53" x2="713.67" y2="-17.54" gradientTransform="translate(-615.92)" gradientUnits="userSpaceOnUse"><stop offset="0" stop-color="#91298c"/><stop offset="0.37" stop-color="#2e378e"/><stop offset="1" stop-color="#2babe2"/></linearGradient><linearGradient id="linear-gradient-2" x1="680.9" y1="183.18" x2="691.81" y2="-20.88" xlink:href="#linear-gradient"/><linearGradient id="linear-gradient-3" x1="664.19" y1="180.45" x2="674.9" y2="-19.62" xlink:href="#linear-gradient"/><linearGradient id="linear-gradient-4" x1="658.16" y1="182.85" x2="669.23" y2="-24.19" xlink:href="#linear-gradient"/><clipPath id="clip-path"><path class="cls-1" d="M84.18,72.35c-4.14.92-9.59,2.85-13.88,3.8-16.75,3.7-33.37-.88-38.15-1-5.22-.09-8.83,1.1-9.47,3-1.37,4.09,7.47,10.93,15.66,12.25s14.27,2.1,22.69,0c11.77-2.94,14.36-5.95,17.84-9.24C83.71,76.63,86.05,71.93,84.18,72.35Z"/></clipPath></defs><title>Correct feedbacK_camaleon5</title><g id="Layer_2" data-name="Layer 2"><g id="Layer_1-2" data-name="Layer 1"><rect class="cls-2" width="121.66" height="120.03"/><path class="cls-3" d="M70.84,101.4c1.38-.55,15.51-5.77,23.68-13.45A81,81,0,0,0,107.28,72c.55-.55,4.46.82,6-1.65s-3.15-5.21-4.39-5.42c0,0,4-6.31,1.72-7.89S104.88,62,104.88,62s-6.11-3.91-7.83-1.37,3.64,6.79,3.64,6.79S89.44,89.05,71.26,95.36"/><path class="cls-4" d="M53.54,120H87.09c-.41-1.12-1-2.87-1.47-4C75.19,91.84,63.56,88.23,57.9,89.37c-11.34,2.28-5.95,15.27-4.85,21A45.66,45.66,0,0,1,53.54,120Z"/><path d="M52.81,110.45a45.8,45.8,0,0,1,.48,9.58h.5a45.27,45.27,0,0,0-.49-9.67c-.17-.87-.43-1.91-.72-3-1.12-4.41-2.65-10.45-.24-14.28A8.15,8.15,0,0,1,58,89.61c2.46-.49,15.34-1.55,27.44,26.48.47,1.09,1,2.82,1.43,3.94h.53c-.43-1.19-1-3-1.5-4.14-12.26-28.38-25.47-27.28-28-26.77a8.65,8.65,0,0,0-5.94,3.68c-2.52,4-.95,10.17.19,14.66C52.38,108.56,52.64,109.6,52.81,110.45Z"/><path class="cls-5" d="M28,4.11c2.65-.26,18,6.4,26.89,8.78S81,15.08,88.36,34.66c3.48,9.93,2.7,19.12,6,22.23s11.82,7.59,5.85,18.78-20.58,20.79-35.95,24.9S24.94,103,16.78,99.06,5,89.18,7.86,82.19s4.8-11.74,3.57-19.28-5.84-16.81-3-22.23S23.5,34.52,25.19,24.19s-.9-14.35-1.07-15.86S25.85,4.31,28,4.11Z"/><path class="cls-6" d="M40.39,120H51.31c-2.41-2-5.16-5.08-5-5.53.34-.75,7.68-7.07,9.33-8.23l-3.77-3.71c-6.11,3.5-15.58,9.13-15.37,12.28C36.61,116,38.34,118.29,40.39,120Z"/><path d="M46.12,114.4c-.29.64,2.36,3.59,4.8,5.63h.78a23.5,23.5,0,0,1-5.12-5.42c.29-.65,7.4-6.83,9.25-8.14a.25.25,0,0,0-.29-.41C54,107.17,46.51,113.56,46.12,114.4Z"/><path d="M40,120h.76c-3.12-2.61-3.94-4.55-4-5.2-.21-3.2,11-9.63,15.24-12a.25.25,0,0,0-.25-.43c-7.77,4.45-15.69,9.42-15.49,12.51C36.36,115.89,37.66,118,40,120Z"/><path class="cls-7" d="M28,32.13a19.75,19.75,0,0,1,16.74-3.6c5.23,1.29,12.76,8,12.76,8"/><path class="cls-7" d="M67.87,28.35c.28-1.37,1.83-6.77,6.95-6.86,5.39-.1,8.6,4.57,8.6,4.57"/><path class="cls-8" d="M37.7,41.5c3-.85,14.34-.41,19.15,13S50.92,71.87,45.66,72.65c-6.34.94-14.61-3.77-16.53-10.7S28,44.24,37.7,41.5Z"/><path class="cls-8" d="M77.16,32.79c4-1.09,11,3.08,13.44,12.48s.07,14.62-3.91,16.4-11.18-.2-14.75-8.58S70.57,34.57,77.16,32.79Z"/><ellipse cx="79.76" cy="49.94" rx="2.47" ry="4.23" transform="translate(-10.59 23.63) rotate(-15.81)"/><ellipse cx="51.76" cy="55.89" rx="2.47" ry="4.23" transform="translate(-13.27 16.22) rotate(-15.81)"/><g class="cls-9"><path class="cls-10" d="M86.05,61.47C82.86,63.58,74.45,73.13,62.36,76s-20.83,3.84-25.45,2.41-8.49.41-8.77,4.74,4.27,11.37,12.47,12.69,19.42,1,29.19-4.78S85,79,86.22,72.8,86.73,61,86.05,61.47Z"/><path class="cls-11" d="M71.32,68.15c4.11.52,11.28,4,12.54,8.1S67.46,97.38,48.59,95.4s-29.9-1.25-30.28-11.34-2-8.88,10.31-9.49S69.09,67.88,71.32,68.15Z"/></g><path class="cls-1" d="M84.18,72.35c-4.14.92-9.59,2.85-13.88,3.8-16.75,3.7-33.37-.88-38.15-1-5.22-.09-8.83,1.1-9.47,3-1.37,4.09,7.47,10.93,15.66,12.25s14.27,2.1,22.69,0c11.77-2.94,14.36-5.95,17.84-9.24C83.71,76.63,86.05,71.93,84.18,72.35Z"/><path class="cls-12" d="M66.59,69.93c.46,0,2.38.45,3,1.28"/><path class="cls-12" d="M75.69,66.59a11.3,11.3,0,0,0-.5,3.15"/><path class="cls-13" d="M106.79,100.89s-2.89,8.23,5.6,10.68c0,0-10.33-3.94-13,1.84,0,0,.79-10.25-.88-11C98.47,102.38,105.39,102.55,106.79,100.89Z"/><path class="cls-13" d="M16.22,102.76s-6.53,5-6.68,7c0,0-5.91-8.65-8.49-9.11,0,0,6.67-1.21,7.43-3.79C8.48,96.84,9.39,101.24,16.22,102.76Z"/></g></g></svg>