<svg xmlns="http://www.w3.org/2000/svg" xmlns:xlink="http://www.w3.org/1999/xlink" viewBox="0 0 121.66 120.03"><defs><style>.cls-1,.cls-12,.cls-2,.cls-7{fill:none;}.cls-1,.cls-10,.cls-12,.cls-3,.cls-5,.cls-7,.cls-8{stroke:#000;stroke-miterlimit:10;}.cls-1,.cls-10,.cls-12,.cls-13,.cls-3,.cls-5,.cls-7,.cls-8{stroke-linecap:round;}.cls-1{stroke-width:0.25px;}.cls-12,.cls-3,.cls-5,.cls-8{stroke-width:0.5px;}.cls-3{fill:url(#linear-gradient);}.cls-4{fill:url(#linear-gradient-2);}.cls-5{fill:url(#linear-gradient-3);}.cls-6{fill:url(#linear-gradient-4);}.cls-7{stroke-width:0.75px;}.cls-8{fill:#fff;}.cls-9{clip-path:url(#clip-path);}.cls-10{fill:#7e2d3a;}.cls-11{fill:#fea49c;}.cls-13{fill:#a0dbf0;stroke:#4a91cd;stroke-linejoin:round;}</style><linearGradient id="linear-gradient" x1="703.23" y1="182.53" x2="713.93" y2="-17.54" gradientTransform="translate(-615.92)" gradientUnits="userSpaceOnUse"><stop offset="0" stop-color="#e9118b"/><stop offset="1" stop-color="#ef4323"/></linearGradient><linearGradient id="linear-gradient-2" x1="681.25" y1="183.15" x2="692.16" y2="-20.83" xlink:href="#linear-gradient"/><linearGradient id="linear-gradient-3" x1="664.46" y1="180.45" x2="675.16" y2="-19.62" xlink:href="#linear-gradient"/><linearGradient id="linear-gradient-4" x1="658.43" y1="182.81" x2="669.5" y2="-24.12" xlink:href="#linear-gradient"/><clipPath id="clip-path"><path class="cls-1" d="M84.44,72.35c-4.14.92-9.58,2.85-13.88,3.8-16.74,3.7-33.36-.88-38.15-1-5.21-.09-8.82,1.1-9.47,3-1.36,4.09,7.48,10.93,15.67,12.25s14.27,2.1,22.69,0c11.76-2.94,14.36-5.95,17.84-9.24C84,76.63,86.32,71.93,84.44,72.35Z"/></clipPath></defs><title>Correct feedbacK_camaleon4</title><g id="Layer_2" data-name="Layer 2"><g id="Layer_1-2" data-name="Layer 1"><rect class="cls-2" width="121.66" height="120.03"/><path class="cls-3" d="M71.11,101.4c1.37-.55,15.51-5.77,23.67-13.45A80.57,80.57,0,0,0,107.54,72c.55-.55,4.46.82,6-1.65s-3.16-5.21-4.39-5.42c0,0,4-6.31,1.71-7.89S105.14,62,105.14,62,99,58.1,97.32,60.64,101,67.43,101,67.43,89.7,89.05,71.52,95.36"/><path class="cls-4" d="M54,120H87.53c-.41-1.12-1.14-2.87-1.65-4C75.46,91.84,63.82,88.23,58.17,89.37c-11.35,2.28-6,15.27-4.85,21A43.92,43.92,0,0,1,54,120Z"/><path d="M53.07,110.45a43.7,43.7,0,0,1,.66,9.58h.5a43.23,43.23,0,0,0-.67-9.67c-.16-.87-.43-1.91-.71-3-1.12-4.41-2.66-10.45-.25-14.28a8.19,8.19,0,0,1,5.62-3.45c2.46-.49,15.33-1.55,27.43,26.48.47,1.09,1.2,2.82,1.61,3.94h.53c-.43-1.19-1.18-3-1.68-4.14-12.25-28.38-25.47-27.28-28-26.77a8.62,8.62,0,0,0-5.94,3.68c-2.52,4-1,10.17.18,14.66C52.64,108.56,52.91,109.6,53.07,110.45Z"/><path class="cls-5" d="M28.25,4.11c2.65-.26,18,6.4,26.9,8.78s26.07,2.19,33.48,21.77c3.47,9.93,2.7,19.12,6,22.23s11.82,7.59,5.86,18.78-20.59,20.79-36,24.9S25.21,103,17,99.06,5.24,89.18,8.12,82.19s4.81-11.74,3.57-19.28-5.83-16.81-3-22.23,15.1-6.16,16.79-16.49-.9-14.35-1.07-15.86S26.11,4.31,28.25,4.11Z"/><path class="cls-6" d="M40.83,120H51.75c-2.4-2-5.34-5.08-5.13-5.53.34-.75,7.68-7.07,9.33-8.23l-3.78-3.71c-6.1,3.5-15.57,9.13-15.37,12.28C36.88,116,38.78,118.29,40.83,120Z"/><path d="M46.39,114.4c-.29.64,2.53,3.59,5,5.63h.78a27.18,27.18,0,0,1-5.3-5.42c.3-.65,7.41-6.83,9.25-8.14a.25.25,0,0,0-.29-.41C54.25,107.17,46.77,113.56,46.39,114.4Z"/><path d="M40.45,120h.76c-3.12-2.62-4.11-4.55-4.16-5.2-.2-3.2,11-9.63,15.25-12a.25.25,0,1,0-.25-.43c-7.78,4.45-15.7,9.42-15.5,12.51C36.62,115.89,38.1,118,40.45,120Z"/><path class="cls-7" d="M28.3,32.13A19.74,19.74,0,0,1,45,28.53c5.22,1.29,12.76,8,12.76,8"/><path class="cls-7" d="M68.14,28.35c.27-1.37,1.83-6.77,7-6.86,5.38-.1,8.6,4.57,8.6,4.57"/><path class="cls-8" d="M38,41.5c3-.85,14.34-.41,19.14,13S51.19,71.87,45.93,72.65c-6.34.94-14.61-3.77-16.54-10.7S28.23,44.24,38,41.5Z"/><path class="cls-8" d="M77.42,32.79c4-1.09,11,3.08,13.45,12.48s.07,14.62-3.91,16.4-11.18-.2-14.75-8.58S70.84,34.57,77.42,32.79Z"/><ellipse cx="80.02" cy="49.94" rx="2.47" ry="4.23" transform="translate(-10.58 23.7) rotate(-15.81)"/><ellipse cx="52.03" cy="55.89" rx="2.47" ry="4.23" transform="translate(-13.26 16.3) rotate(-15.81)"/><g class="cls-9"><path class="cls-10" d="M86.32,61.47C83.13,63.58,74.72,73.13,62.62,76S41.8,79.87,37.18,78.44s-8.49.41-8.78,4.74,4.28,11.37,12.47,12.69,19.42,1,29.2-4.78S85.24,79,86.48,72.8,87,61,86.32,61.47Z"/><path class="cls-11" d="M71.59,68.15c4.11.52,11.28,4,12.54,8.1S67.72,97.38,48.86,95.4,19,94.15,18.57,84.06s-2-8.88,10.32-9.49S69.36,67.88,71.59,68.15Z"/></g><path class="cls-1" d="M84.44,72.35c-4.14.92-9.58,2.85-13.88,3.8-16.74,3.7-33.36-.88-38.15-1-5.21-.09-8.82,1.1-9.47,3-1.36,4.09,7.48,10.93,15.67,12.25s14.27,2.1,22.69,0c11.76-2.94,14.36-5.95,17.84-9.24C84,76.63,86.32,71.93,84.44,72.35Z"/><path class="cls-12" d="M66.86,69.93c.45,0,2.37.45,3,1.28"/><path class="cls-12" d="M76,66.59a10.94,10.94,0,0,0-.5,3.15"/><path class="cls-13" d="M107.06,100.89s-2.89,8.23,5.6,10.68c0,0-10.33-3.94-13,1.84,0,0,.79-10.25-.87-11C98.74,102.38,105.66,102.55,107.06,100.89Z"/><path class="cls-13" d="M16.48,102.76s-6.52,5-6.67,7c0,0-5.92-8.65-8.5-9.11,0,0,6.68-1.21,7.44-3.79C8.75,96.84,9.66,101.24,16.48,102.76Z"/></g></g></svg>