<svg xmlns="http://www.w3.org/2000/svg" xmlns:xlink="http://www.w3.org/1999/xlink" viewBox="0 0 121.66 120.03"><defs><style>.cls-1,.cls-12,.cls-2,.cls-7{fill:none;}.cls-1,.cls-10,.cls-12,.cls-3,.cls-5,.cls-7,.cls-8{stroke:#000;stroke-miterlimit:10;}.cls-1,.cls-10,.cls-12,.cls-13,.cls-3,.cls-5,.cls-7,.cls-8{stroke-linecap:round;}.cls-1{stroke-width:0.25px;}.cls-12,.cls-3,.cls-5,.cls-8{stroke-width:0.5px;}.cls-3{fill:url(#linear-gradient);}.cls-4{fill:url(#linear-gradient-2);}.cls-5{fill:url(#linear-gradient-3);}.cls-6{fill:url(#linear-gradient-4);}.cls-7{stroke-width:0.75px;}.cls-8{fill:#fff;}.cls-9{clip-path:url(#clip-path);}.cls-10{fill:#7e2d3a;}.cls-11{fill:#fea49c;}.cls-13{fill:#a0dbf0;stroke:#4a91cd;stroke-linejoin:round;}</style><linearGradient id="linear-gradient" x1="703.48" y1="182.53" x2="714.18" y2="-17.54" gradientTransform="translate(-615.92)" gradientUnits="userSpaceOnUse"><stop offset="0" stop-color="#ef4323"/><stop offset="0.52" stop-color="#f58220"/></linearGradient><linearGradient id="linear-gradient-2" x1="681.57" y1="182.97" x2="692.46" y2="-20.61" xlink:href="#linear-gradient"/><linearGradient id="linear-gradient-3" x1="664.71" y1="180.45" x2="675.41" y2="-19.62" xlink:href="#linear-gradient"/><linearGradient id="linear-gradient-4" x1="658.69" y1="182.52" x2="669.72" y2="-23.68" xlink:href="#linear-gradient"/><clipPath id="clip-path"><path class="cls-1" d="M84.69,72.35c-4.13.92-9.58,2.85-13.88,3.8-16.74,3.7-33.36-.88-38.14-1-5.22-.09-8.83,1.1-9.47,3-1.37,4.09,7.47,10.93,15.66,12.25s14.27,2.1,22.69,0c11.76-2.94,14.36-5.95,17.84-9.24C84.23,76.63,86.57,71.93,84.69,72.35Z"/></clipPath></defs><title>Correct feedbacK_camaleon3</title><g id="Layer_2" data-name="Layer 2"><g id="Layer_1-2" data-name="Layer 1"><rect class="cls-2" width="121.66" height="120.03"/><path class="cls-3" d="M71.36,101.4C72.73,100.85,86.87,95.63,95,88A80.13,80.13,0,0,0,107.79,72c.55-.55,4.46.82,6-1.65s-3.15-5.21-4.39-5.42c0,0,4-6.31,1.72-7.89S105.39,62,105.39,62s-6.1-3.91-7.82-1.37,3.64,6.79,3.64,6.79S90,89.05,71.77,95.36"/><path class="cls-4" d="M54.32,120H87.89c-.41-1.14-1.24-2.85-1.75-4C75.71,91.84,64.07,88.23,58.42,89.37c-11.35,2.28-6,15.27-4.85,21A43.34,43.34,0,0,1,54.32,120Z"/><path d="M53.32,110.45a43,43,0,0,1,.75,9.58h.5a42,42,0,0,0-.76-9.67c-.16-.87-.43-1.91-.71-3-1.12-4.41-2.66-10.45-.25-14.28a8.19,8.19,0,0,1,5.62-3.45c2.46-.49,15.34-1.55,27.44,26.48.48,1.11,1.3,2.8,1.72,3.94h.53c-.44-1.21-1.29-3-1.79-4.14-12.26-28.38-25.48-27.28-28-26.77a8.62,8.62,0,0,0-5.94,3.68c-2.52,4-1,10.17.19,14.66C52.9,108.56,53.16,109.6,53.32,110.45Z"/><path class="cls-5" d="M28.5,4.11c2.65-.26,18,6.4,26.9,8.78s26.07,2.19,33.48,21.77c3.48,9.93,2.7,19.12,6,22.23s11.83,7.59,5.86,18.78-20.59,20.79-35.95,24.9S25.46,103,17.3,99.06,5.5,89.18,8.38,82.19s4.8-11.74,3.56-19.28-5.83-16.81-3-22.23S24,34.52,25.71,24.19s-.9-14.35-1.07-15.86S26.36,4.31,28.5,4.11Z"/><path class="cls-6" d="M52.16,120c-2.42-2-5.5-5.08-5.29-5.53.34-.75,7.68-7.07,9.33-8.23l-3.77-3.71c-6.11,3.5-15.58,9.13-15.37,12.28.07,1.13,2.1,3.43,4.18,5.19Z"/><path d="M41.62,120c-3.18-2.65-4.27-4.55-4.31-5.2-.21-3.2,11-9.63,15.24-12a.25.25,0,1,0-.25-.43c-7.77,4.45-15.69,9.42-15.49,12.51.07,1,1.65,3.12,4,5.17Z"/><path d="M46.64,114.4c-.29.64,2.67,3.58,5.13,5.63h.79c-3.13-2.58-5.41-5.08-5.46-5.42.29-.65,7.4-6.83,9.24-8.14a.25.25,0,0,0-.28-.41C54.5,107.17,47,113.55,46.64,114.4Z"/><path class="cls-7" d="M28.55,32.13a19.75,19.75,0,0,1,16.74-3.6c5.23,1.29,12.76,8,12.76,8"/><path class="cls-7" d="M68.39,28.35c.27-1.37,1.83-6.77,7-6.86,5.38-.1,8.6,4.57,8.6,4.57"/><path class="cls-8" d="M38.22,41.5c3-.85,14.34-.41,19.15,13S51.44,71.87,46.18,72.65c-6.34.94-14.61-3.77-16.53-10.7S28.48,44.24,38.22,41.5Z"/><path class="cls-8" d="M77.67,32.79c4-1.09,11,3.08,13.45,12.48s.07,14.62-3.91,16.4S76,61.47,72.46,53.09,71.09,34.57,77.67,32.79Z"/><ellipse cx="80.27" cy="49.94" rx="2.47" ry="4.23" transform="translate(-10.57 23.77) rotate(-15.81)"/><ellipse cx="52.28" cy="55.89" rx="2.47" ry="4.23" transform="translate(-13.25 16.36) rotate(-15.81)"/><g class="cls-9"><path class="cls-10" d="M86.57,61.47C83.38,63.58,75,73.13,62.87,76s-20.82,3.84-25.44,2.41-8.49.41-8.77,4.74,4.27,11.37,12.47,12.69,19.41,1,29.19-4.78S85.49,79,86.73,72.8,87.25,61,86.57,61.47Z"/><path class="cls-11" d="M71.84,68.15c4.11.52,11.28,4,12.54,8.1S68,97.38,49.11,95.4s-29.9-1.25-30.28-11.34-2-8.88,10.31-9.49S69.61,67.88,71.84,68.15Z"/></g><path class="cls-1" d="M84.69,72.35c-4.13.92-9.58,2.85-13.88,3.8-16.74,3.7-33.36-.88-38.14-1-5.22-.09-8.83,1.1-9.47,3-1.37,4.09,7.47,10.93,15.66,12.25s14.27,2.1,22.69,0c11.76-2.94,14.36-5.95,17.84-9.24C84.23,76.63,86.57,71.93,84.69,72.35Z"/><path class="cls-12" d="M67.11,69.93c.46,0,2.38.45,3,1.28"/><path class="cls-12" d="M76.21,66.59a10.94,10.94,0,0,0-.5,3.15"/><path class="cls-13" d="M107.31,100.89s-2.89,8.23,5.6,10.68c0,0-10.33-3.94-13,1.84,0,0,.79-10.25-.88-11C99,102.38,105.91,102.55,107.31,100.89Z"/><path class="cls-13" d="M16.74,102.76s-6.53,5-6.68,7c0,0-5.92-8.65-8.49-9.11,0,0,6.67-1.21,7.43-3.79C9,96.84,9.91,101.24,16.74,102.76Z"/></g></g></svg>