<svg xmlns="http://www.w3.org/2000/svg" xmlns:xlink="http://www.w3.org/1999/xlink" viewBox="0 0 96.06 120"><defs><style>.cls-1,.cls-11{fill:none;}.cls-10,.cls-11,.cls-2,.cls-4,.cls-6,.cls-7,.cls-8,.cls-9{stroke:#000;stroke-miterlimit:10;}.cls-10,.cls-11,.cls-2,.cls-4,.cls-6,.cls-7,.cls-8{stroke-linecap:round;}.cls-2,.cls-4,.cls-7{stroke-width:0.25px;}.cls-2{fill:url(#linear-gradient);}.cls-3{fill:url(#linear-gradient-2);}.cls-4{fill:url(#linear-gradient-3);}.cls-5{fill:url(#linear-gradient-4);}.cls-10,.cls-6,.cls-8,.cls-9{stroke-width:0.5px;}.cls-6{fill:url(#linear-gradient-5);}.cls-7{fill:url(#linear-gradient-6);}.cls-8{fill:url(#linear-gradient-7);}.cls-9{fill:#fff;}.cls-10{fill:url(#linear-gradient-8);}</style><linearGradient id="linear-gradient" x1="-4904.85" y1="183.5" x2="-4925.79" y2="-15.44" gradientTransform="translate(4985.01)" gradientUnits="userSpaceOnUse"><stop offset="0.35" stop-color="#e6b821"/><stop offset="1" stop-color="#7fb541"/></linearGradient><linearGradient id="linear-gradient-2" x1="-4914.39" y1="185.25" x2="-4935.48" y2="-15.16" xlink:href="#linear-gradient"/><linearGradient id="linear-gradient-3" x1="-4925.04" y1="185.62" x2="-4945.98" y2="-13.31" xlink:href="#linear-gradient"/><linearGradient id="linear-gradient-4" x1="-4933.34" y1="187.58" x2="-4954.53" y2="-13.77" xlink:href="#linear-gradient"/><linearGradient id="linear-gradient-5" x1="-4900.16" y1="183" x2="-4921.1" y2="-15.93" xlink:href="#linear-gradient"/><linearGradient id="linear-gradient-6" x1="-4903.76" y1="183.38" x2="-4924.7" y2="-15.55" xlink:href="#linear-gradient"/><linearGradient id="linear-gradient-7" x1="-4912.72" y1="184.33" x2="-4933.66" y2="-14.61" xlink:href="#linear-gradient"/><linearGradient id="linear-gradient-8" x1="-4934.03" y1="189.23" x2="-4955.35" y2="-13.34" xlink:href="#linear-gradient"/></defs><title>Mistake feedback_camaleon2</title><g id="Layer_2" data-name="Layer 2"><g id="Layer_1-2" data-name="Layer 1"><rect class="cls-1" width="96.06" height="120"/><path class="cls-2" d="M58.8,88.22c2.23-1.63,24.78,10.87,26,14.88s-1.36,6.44-7.67,3C70,102.2,51.65,93.46,58.8,88.22Z"/><path class="cls-3" d="M46.67,120H80.83a57.78,57.78,0,0,0-3-9c-10-23-21-26.48-26.44-25.39-10.82,2.18-5.67,14.57-4.62,20.07C47.47,109.18,47.36,114.81,46.67,120Z"/><path d="M46.68,105.74c.64,3.34.59,8.84-.13,14.26h.25c.72-5.44.77-11,.13-14.31-.16-.82-.41-1.82-.68-2.87-1.07-4.23-2.54-10-.22-13.71a7.91,7.91,0,0,1,5.43-3.34c2.36-.48,14.72-1.5,26.29,25.32a58.06,58.06,0,0,1,3,8.91H81a58.17,58.17,0,0,0-3-9c-4.41-10.22-9.45-17.55-15-21.79s-10-4-11.61-3.67A8.1,8.1,0,0,0,45.82,89c-2.38,3.79-.9,9.63.19,13.9C46.28,103.93,46.53,104.92,46.68,105.74Z"/><path class="cls-4" d="M22.9,4.33c2.53-.24,17.19,6.11,25.65,8.38S73.42,14.8,80.49,33.47c3.31,9.47,2.57,18.24,5.71,21.2s11.28,7.25,5.58,17.91S72.15,92.41,57.49,96.34,20,98.69,12.21,94.9,1,85.47,3.7,78.8,8.28,67.61,7.11,60.41s-5.57-16-2.88-21.2,14.39-5.87,16-15.73-.86-13.69-1-15.13S20.86,4.53,22.9,4.33Z"/><path class="cls-5" d="M56.74,120a2.21,2.21,0,0,0,0-1.54c-1.05-3.08-7.33-1.18-8.32-1.58s-8.37-6.54-8-7.26,7.32-6.74,8.9-7.85l-3.6-3.54c-5.83,3.34-14.86,8.71-14.66,11.72.16,2.43,8,8.08,10.94,10Z"/><path d="M40.3,109.57a.35.35,0,0,0,0,.28c.49,1.22,7.09,6.75,8.1,7.15a5.62,5.62,0,0,0,1.92,0c2.23-.23,5.6-.58,6.32,1.54a2.06,2.06,0,0,1,0,1.5h.27a2.36,2.36,0,0,0,0-1.58c-.78-2.31-4.27-2-6.58-1.71a6.37,6.37,0,0,1-1.8.06c-1.15-.46-8.12-6.44-8-7.1.31-.68,7.32-6.71,8.86-7.8a.13.13,0,1,0-.15-.2C47.77,102.71,40.66,108.77,40.3,109.57Z"/><path d="M42.23,120c-2.64-1.73-10.89-7.63-11-10.06-.2-3.12,10.17-9.06,14.6-11.6a.12.12,0,0,0-.13-.21c-7.38,4.23-14.91,8.94-14.72,11.83.16,2.41,7.35,7.73,10.85,10Z"/><path class="cls-6" d="M60.94,27.45c.26-1.31,1.75-6.45,6.63-6.54,5.14-.09,8.2,4.36,8.2,4.36"/><path class="cls-7" d="M75.29,79.19c-.55.18,3.9-5.53,1.71-7.2-3.28-2.48-6.81,3.8-8.77,10-1,1-7.62.18-9.16,3.14s-.4,4.58,9.42,4.71c2.09.4,4.19,6.94,10.73,17.15,2.23,2.09,7.07.26,6.28-2.62s-9.94-16.1-9.42-18.06,6.15-1.18,6.67-5S77.78,78.41,75.29,79.19Z"/><path class="cls-8" d="M55.79,84c1.18-1.3,4.32-5,6.81-5.23s4.71,1.83,4.71,1.83"/><path class="cls-9" d="M35.77,44.51c2.89-.81,13.54-2.57,14.66,7.92,1,9.79-4.67,10.8-12.92,12-5,.74-11.82.54-13.65-6.07S26.48,47.13,35.77,44.51Z"/><path class="cls-10" d="M19.93,44.77c3.8,1.31,11.27,4.25,19.5,2.62S51.21,41,51.21,41"/><path class="cls-9" d="M69.8,31.68c3.82-1,10.53,3,12.82,11.91s.07,13.94-3.73,15.64S68.23,59,64.82,51.05,63.52,33.38,69.8,31.68Z"/><ellipse cx="72.28" cy="48.05" rx="2.36" ry="4.03" transform="translate(-10.36 21.52) rotate(-15.81)"/><ellipse cx="47.5" cy="55.12" rx="2.36" ry="4.03" transform="translate(-6.41 6.25) rotate(-7.06)"/><path class="cls-11" d="M59.72,67.11a5.28,5.28,0,0,1,2.88,1.22"/><path class="cls-11" d="M68.4,63.92a10.72,10.72,0,0,0-.48,3"/></g></g></svg>