<svg xmlns="http://www.w3.org/2000/svg" viewBox="0 0 163.76 163.77"><defs><style>.cls-1{fill:#1f8ebe;}</style></defs><title>rombo lineas</title><g id="Capa_2" data-name="Capa 2"><g id="Capa_1-2" data-name="Capa 1"><path class="cls-1" d="M81.88,163.77a11.25,11.25,0,0,1-8-3.31L3.31,89.89a11.34,11.34,0,0,1,0-16L73.88,3.32a11.31,11.31,0,0,1,16,0l70.56,70.56a11.32,11.32,0,0,1,0,16h0L89.89,160.46A11.29,11.29,0,0,1,81.88,163.77ZM81.88,6a5.27,5.27,0,0,0-3.76,1.56L7.55,78.13a5.33,5.33,0,0,0,0,7.52l70.57,70.57a5.33,5.33,0,0,0,7.52,0l70.57-70.57h0a5.31,5.31,0,0,0,0-7.52L85.64,7.56A5.25,5.25,0,0,0,81.88,6Z"/></g></g></svg>