<svg xmlns="http://www.w3.org/2000/svg" viewBox="0 0 156.37 156.37"><defs><style>.cls-1{fill:#1f8ebe;}</style></defs><title>sol</title><g id="Capa_2" data-name="Capa 2"><g id="Capa_1-2" data-name="Capa 1"><circle class="cls-1" cx="78.19" cy="78.19" r="38.65"/><path class="cls-1" d="M78.19,35.23A5.17,5.17,0,0,1,73,30.06V5.17a5.17,5.17,0,0,1,10.34,0V30.06A5.18,5.18,0,0,1,78.19,35.23Z"/><path class="cls-1" d="M78.19,156.37A5.16,5.16,0,0,1,73,151.21V126.32a5.17,5.17,0,0,1,10.34,0v24.89A5.17,5.17,0,0,1,78.19,156.37Z"/><path class="cls-1" d="M151.21,83.36H126.32a5.17,5.17,0,1,1,0-10.34h24.89a5.17,5.17,0,0,1,0,10.34Z"/><path class="cls-1" d="M30.06,83.36H5.17A5.17,5.17,0,0,1,5.17,73H30.06a5.17,5.17,0,0,1,0,10.34Z"/><path class="cls-1" d="M112.22,49.12a5.18,5.18,0,0,1-3.65-8.83l17.59-17.6A5.17,5.17,0,1,1,133.47,30l-17.6,17.6A5.13,5.13,0,0,1,112.22,49.12Z"/><path class="cls-1" d="M26.55,134.78A5.17,5.17,0,0,1,22.9,126l17.6-17.6a5.17,5.17,0,0,1,7.31,7.31l-17.6,17.6A5.15,5.15,0,0,1,26.55,134.78Z"/><path class="cls-1" d="M129.82,134.78a5.16,5.16,0,0,1-3.66-1.51l-17.59-17.6a5.17,5.17,0,0,1,7.3-7.31l17.6,17.6a5.17,5.17,0,0,1-3.65,8.82Z"/><path class="cls-1" d="M44.15,49.12A5.15,5.15,0,0,1,40.5,47.6L22.9,30a5.17,5.17,0,0,1,7.31-7.31l17.6,17.6a5.18,5.18,0,0,1-3.66,8.83Z"/></g></g></svg>