<svg xmlns="http://www.w3.org/2000/svg" viewBox="0 0 154.2 119.39"><defs><style>.a7928db3-c2fe-437c-8d46-2a2f95a600d5{fill:none;}.a83f290e-8c6d-4129-b3be-22a426980ab5{fill:#9b935c;}.b924ce5a-fb28-4589-9bed-3ef5fef06acc{fill:#d1c671;}.a9d9aa68-92e5-4d0a-b939-5544ee051815{fill:#777329;}.bf335c58-965d-43a9-95d2-d7fc729c8b88{fill:#eae3b0;}.eab829c4-48f6-41aa-bf9f-c4efdca9b3f1{fill:#e0d8a2;}.f56b7b53-a046-4f2c-ae9d-e71e1d123968{fill:#a59956;}.bf03cf04-a644-4e58-844b-ee16035c3c1d{fill:#999367;}.a23b6a9d-a58e-4e72-abcb-b38b6c61f29d{fill:#f9f2b2;}.b9980531-af7b-45df-9686-08d36c73da37{fill:#a39b62;}.a829b4e0-5400-4d7d-827b-c7afa6693976{fill:#fff2b0;}</style></defs><title>10 4</title><g id="ee0fec09-dad5-49f9-be48-c45ee5c26bf9" data-name="Capa 2"><g id="f31a7e76-c339-4c28-9eb4-c7cb4333635f" data-name="Capa 1"><rect class="a7928db3-c2fe-437c-8d46-2a2f95a600d5" width="154.2" height="119.39"/><g id="bb7a2d00-cc55-48b5-9e4f-30b932528fb9" data-name="b7ffa47f-0fa7-4bf4-8071-0bddef071732"><g id="a799cae6-bfde-4b67-9c32-1e584facd853" data-name="b5a9db5e-d84f-46b8-8a7e-f0cdb3f51825"><circle class="a83f290e-8c6d-4129-b3be-22a426980ab5" cx="25.11" cy="19.92" r="19.92"/><circle class="b924ce5a-fb28-4589-9bed-3ef5fef06acc" cx="25.11" cy="19.92" r="16.43"/><path class="a9d9aa68-92e5-4d0a-b939-5544ee051815" d="M9.24,20.16A16.45,16.45,0,0,1,32.72,5.31,16.44,16.44,0,0,0,17.11,34.25l.23.12q.36.2.72.36A16.45,16.45,0,0,1,9.24,20.16Z"/><path class="bf335c58-965d-43a9-95d2-d7fc729c8b88" d="M32.72,5.35A16.44,16.44,0,0,1,18.06,34.77,16.44,16.44,0,0,0,33.44,5.71Q33.08,5.52,32.72,5.35Z"/><path class="eab829c4-48f6-41aa-bf9f-c4efdca9b3f1" d="M24.91,35.34a14.94,14.94,0,0,1-7.12-2.11,15.25,15.25,0,0,1-5.16-5.13,15,15,0,0,0,5.45,4.6,14,14,0,0,0,6.83,1.46Z"/><path class="f56b7b53-a046-4f2c-ae9d-e71e1d123968" d="M25.81,34.16a14.05,14.05,0,0,0,6.83-1.45,15,15,0,0,0,5.45-4.6,15.25,15.25,0,0,1-5.16,5.13,14.94,14.94,0,0,1-7.12,2.11Z"/><path class="bf03cf04-a644-4e58-844b-ee16035c3c1d" d="M18.19,13h3V28.9H17.91V16.07l-3,1.72-1.28-2.4Z"/><path class="bf03cf04-a644-4e58-844b-ee16035c3c1d" d="M35.64,15.16a9.78,9.78,0,0,1,0,11.74,6.4,6.4,0,0,1-9,.87,6,6,0,0,1-.87-.87,9.77,9.77,0,0,1,0-11.77,6.38,6.38,0,0,1,9.88,0ZM28.11,17a8.41,8.41,0,0,0,0,8,3,3,0,0,0,5.27,0,7.21,7.21,0,0,0,1-4,7.29,7.29,0,0,0-1-4,3,3,0,0,0-5.27,0Z"/><path class="a23b6a9d-a58e-4e72-abcb-b38b6c61f29d" d="M18,12.83h3V28.71H17.72V15.89l-3,1.71-1.27-2.44Z"/><path class="a23b6a9d-a58e-4e72-abcb-b38b6c61f29d" d="M35.45,14.92a9.78,9.78,0,0,1,0,11.74,6.4,6.4,0,0,1-9,.87,6,6,0,0,1-.87-.87,9.81,9.81,0,0,1,0-11.76,6.37,6.37,0,0,1,9-1l0,0a5.72,5.72,0,0,1,.92.92Zm-7.53,1.87a7.29,7.29,0,0,0-1,4,7.13,7.13,0,0,0,1,4,3,3,0,0,0,5.26,0,8.41,8.41,0,0,0,0-8,3,3,0,0,0-5.26,0Z"/><g id="af276be0-f9e1-4681-9903-50eb8ee570a3" data-name="e24400d3-3a41-41bb-ab63-ddf1b8e0c981"><path class="b9980531-af7b-45df-9686-08d36c73da37" d="M25.07,9h-.34l-.39,1.2a2.62,2.62,0,0,1-.56,0,1.8,1.8,0,0,1-.65-.09h0L25,4.52a4.7,4.7,0,0,1,.75,0,3.51,3.51,0,0,1,.79.06l1.84,5.58a1.23,1.23,0,0,1-.65.16,1,1,0,0,1-.61-.15,1.16,1.16,0,0,1-.3-.58L26.62,9H25.07Zm0-1h1.24l-.12-.51c-.13-.47-.29-1-.46-1.71h0a12.33,12.33,0,0,1-.4,1.59Z"/></g><g id="f6b9a498-af5a-4f1e-8656-1e7599a2ea71" data-name="b4ca85db-fd52-4b29-b26a-af62854cd59b"><path class="a829b4e0-5400-4d7d-827b-c7afa6693976" d="M24.89,9h-.33l-.37,1.22a2.53,2.53,0,0,1-.55,0,1.8,1.8,0,0,1-.65-.09v-.07l1.83-5.58a4.69,4.69,0,0,1,.75,0,3.51,3.51,0,0,1,.79.06l1.75,5.57a1.27,1.27,0,0,1-.66.16.92.92,0,0,1-.6-.15,1.16,1.16,0,0,1-.3-.58L26.4,9Zm0-1h1.24L26,7.48c-.14-.47-.29-1-.46-1.71h-.05a12.33,12.33,0,0,1-.4,1.59Z"/></g><circle class="a83f290e-8c6d-4129-b3be-22a426980ab5" cx="129.09" cy="19.92" r="19.92"/><circle class="b924ce5a-fb28-4589-9bed-3ef5fef06acc" cx="129.09" cy="19.92" r="16.43"/><path class="a9d9aa68-92e5-4d0a-b939-5544ee051815" d="M113.19,20.16A16.45,16.45,0,0,1,136.7,5.31,16.45,16.45,0,0,0,122,34.77,16.43,16.43,0,0,1,113.19,20.16Z"/><path class="bf335c58-965d-43a9-95d2-d7fc729c8b88" d="M136.7,5.35A16.44,16.44,0,0,1,122,34.77,16.44,16.44,0,0,0,137.42,5.71Q137.06,5.52,136.7,5.35Z"/><path class="eab829c4-48f6-41aa-bf9f-c4efdca9b3f1" d="M128.89,35.34a14.94,14.94,0,0,1-7.12-2.11,15.25,15.25,0,0,1-5.16-5.13,15,15,0,0,0,5.45,4.6,14,14,0,0,0,6.83,1.46Z"/><path class="f56b7b53-a046-4f2c-ae9d-e71e1d123968" d="M129.79,34.16a14.05,14.05,0,0,0,6.83-1.45,15,15,0,0,0,5.45-4.6,15.25,15.25,0,0,1-5.16,5.13,14.94,14.94,0,0,1-7.12,2.11Z"/><path class="bf03cf04-a644-4e58-844b-ee16035c3c1d" d="M122.13,13h3V28.9h-3.24V16.07l-3,1.72-1.27-2.4Z"/><path class="bf03cf04-a644-4e58-844b-ee16035c3c1d" d="M139.62,15.16a9.78,9.78,0,0,1,0,11.74,6.4,6.4,0,0,1-9,.87,6,6,0,0,1-.87-.87,9.83,9.83,0,0,1,0-11.77,6.38,6.38,0,0,1,9.88,0ZM132.09,17a8.38,8.38,0,0,0-.05,8,3,3,0,0,0,5.27,0,7.21,7.21,0,0,0,1-4,7.29,7.29,0,0,0-1-4,3,3,0,0,0-4.09-1.13A3.06,3.06,0,0,0,132.09,17Z"/><path class="a23b6a9d-a58e-4e72-abcb-b38b6c61f29d" d="M121.94,12.83h3V28.71H121.7V15.89l-3,1.71-1.27-2.44Z"/><path class="a23b6a9d-a58e-4e72-abcb-b38b6c61f29d" d="M139.43,14.92a9.78,9.78,0,0,1,0,11.74,6.4,6.4,0,0,1-9,.87,6,6,0,0,1-.87-.87,9.81,9.81,0,0,1,0-11.76,6.37,6.37,0,0,1,9-1l0,0a5.72,5.72,0,0,1,.92.92Zm-7.53,1.87a7.29,7.29,0,0,0-1,4,7.13,7.13,0,0,0,1,4,3,3,0,0,0,5.26,0,7.13,7.13,0,0,0,1-4,7.29,7.29,0,0,0-1-4,3,3,0,0,0-5.26,0Z"/><g id="ae7f7859-36fa-40ef-b7f7-2dc7ae8a97e1" data-name="a3e4854e-ad60-4044-9e01-54740dab5e82"><path class="b9980531-af7b-45df-9686-08d36c73da37" d="M129.05,9h-.34l-.37,1.2a2.62,2.62,0,0,1-.56,0,1.8,1.8,0,0,1-.65-.09h0L129,4.52a4.82,4.82,0,0,1,.76,0,5.12,5.12,0,0,1,.78.06l1.77,5.58a1.23,1.23,0,0,1-.65.16,1,1,0,0,1-.61-.15,1.16,1.16,0,0,1-.3-.58L130.55,9Zm0-1h1.24l-.1-.51c-.13-.47-.29-1-.46-1.71h0a9.74,9.74,0,0,1-.4,1.59Z"/></g><g id="b3b397f5-1684-48c2-b1bb-3defda771f53" data-name="aec839a5-7a94-4c78-b2b5-a51cdcfc94f3"><path class="a829b4e0-5400-4d7d-827b-c7afa6693976" d="M128.88,9h-.34l-.35,1.22a2.62,2.62,0,0,1-.56,0,1.8,1.8,0,0,1-.65-.09v-.07l1.83-5.58a4.69,4.69,0,0,1,.75,0,3.51,3.51,0,0,1,.79.06l1.75,5.57a1.27,1.27,0,0,1-.66.16.92.92,0,0,1-.6-.15,1.16,1.16,0,0,1-.3-.58L130.38,9Zm0-1h1.24L130,7.48c-.13-.47-.29-1-.46-1.71h0a12.33,12.33,0,0,1-.4,1.59Z"/></g><circle class="a83f290e-8c6d-4129-b3be-22a426980ab5" cx="25.11" cy="99.47" r="19.92"/><circle class="b924ce5a-fb28-4589-9bed-3ef5fef06acc" cx="25.11" cy="99.47" r="16.43"/><path class="a9d9aa68-92e5-4d0a-b939-5544ee051815" d="M9.24,99.76A16.44,16.44,0,0,1,25.68,83.32h0a16.33,16.33,0,0,1,7,1.59A16.15,16.15,0,0,0,25.07,83a16.43,16.43,0,0,0-7,31.28A16.44,16.44,0,0,1,9.24,99.76Z"/><path class="bf335c58-965d-43a9-95d2-d7fc729c8b88" d="M32.72,84.91a16.43,16.43,0,0,1-14.66,29.41A16.43,16.43,0,0,0,32.72,84.91Z"/><path class="eab829c4-48f6-41aa-bf9f-c4efdca9b3f1" d="M24.91,114.9a15.06,15.06,0,0,1-7.12-2.12,15.25,15.25,0,0,1-5.16-5.13,15.09,15.09,0,0,0,5.45,4.61,14.16,14.16,0,0,0,6.83,1.44Z"/><path class="f56b7b53-a046-4f2c-ae9d-e71e1d123968" d="M25.81,113.7a14.16,14.16,0,0,0,6.83-1.44,15.09,15.09,0,0,0,5.45-4.61,15.25,15.25,0,0,1-5.16,5.13,15.06,15.06,0,0,1-7.12,2.12Z"/><path class="bf03cf04-a644-4e58-844b-ee16035c3c1d" d="M18.19,92.57h3v15.88H17.91V95.63l-3,1.71-1.28-2.4Z"/><path class="bf03cf04-a644-4e58-844b-ee16035c3c1d" d="M35.64,94.66a9.78,9.78,0,0,1,0,11.74,6.4,6.4,0,0,1-9,.87,6,6,0,0,1-.87-.87,9.77,9.77,0,0,1,0-11.77,6.38,6.38,0,0,1,9.88,0Zm-7.53,1.87a8.41,8.41,0,0,0,0,8,3,3,0,0,0,5.27,0,8.41,8.41,0,0,0,0-8,3,3,0,0,0-5.27,0Z"/><path class="a23b6a9d-a58e-4e72-abcb-b38b6c61f29d" d="M18,92.38h3v15.89H17.72V95.44l-3,1.71-1.27-2.39Z"/><path class="a23b6a9d-a58e-4e72-abcb-b38b6c61f29d" d="M35.45,94.48a8.71,8.71,0,0,1,2,5.85,8.94,8.94,0,0,1-2,5.89,6.4,6.4,0,0,1-9,.87,6,6,0,0,1-.87-.87,9.83,9.83,0,0,1,0-11.77,6.36,6.36,0,0,1,8.94-1l.06,0a6.81,6.81,0,0,1,.93.93Zm-7.53,1.87a8.35,8.35,0,0,0,0,8,3,3,0,0,0,5.26,0,8.41,8.41,0,0,0,0-8,3,3,0,0,0-5.26,0Z"/><g id="f70274df-8c34-40d0-af18-1e3d1c6e4c4a" data-name="b7b0bf46-6ef4-41b7-b6c8-98385acd78b6"><path class="b9980531-af7b-45df-9686-08d36c73da37" d="M25.07,88.57h-.34l-.35,1.21a2.62,2.62,0,0,1-.56,0,1.8,1.8,0,0,1-.65-.09v-.06L25,84.05a4.69,4.69,0,0,1,.75,0,5.21,5.21,0,0,1,.79,0l1.79,5.59a1.23,1.23,0,0,1-.65.16,1,1,0,0,1-.61-.15,1.17,1.17,0,0,1-.3-.57l-.16-.55h-1.5Zm0-1h1.24l-.12-.52c-.13-.46-.29-1-.46-1.71h0a12.33,12.33,0,0,1-.4,1.59Z"/></g><g id="a34f4224-35e7-43ed-916f-e0a6da0acc7e" data-name="e7abf0e1-7c0c-431f-98eb-4bf7d786b67d"><path class="a829b4e0-5400-4d7d-827b-c7afa6693976" d="M24.89,88.57h-.33l-.37,1.21a2.53,2.53,0,0,1-.55,0,1.8,1.8,0,0,1-.65-.09v-.06l1.83-5.58a4.69,4.69,0,0,1,.75,0,5.21,5.21,0,0,1,.79,0l1.83,5.59a1.27,1.27,0,0,1-.66.16.92.92,0,0,1-.6-.15,1.17,1.17,0,0,1-.3-.57l-.16-.55H24.93Zm0-1h1.24L26,87.05c-.14-.46-.29-1-.46-1.71h-.05a12.33,12.33,0,0,1-.4,1.59Z"/></g><circle class="a83f290e-8c6d-4129-b3be-22a426980ab5" cx="129.09" cy="99.47" r="19.92"/><circle class="b924ce5a-fb28-4589-9bed-3ef5fef06acc" cx="129.09" cy="99.47" r="16.43"/><path class="a9d9aa68-92e5-4d0a-b939-5544ee051815" d="M113.19,99.76a16.44,16.44,0,0,1,16.44-16.44h0a16.33,16.33,0,0,1,7,1.59A16.18,16.18,0,0,0,129.05,83a16.43,16.43,0,0,0-7,31.28A16.46,16.46,0,0,1,113.19,99.76Z"/><path class="bf335c58-965d-43a9-95d2-d7fc729c8b88" d="M136.7,84.91A16.43,16.43,0,0,1,122,114.32h0A16.43,16.43,0,0,0,136.7,84.91Z"/><path class="eab829c4-48f6-41aa-bf9f-c4efdca9b3f1" d="M128.89,114.9a15.06,15.06,0,0,1-7.12-2.12,15.25,15.25,0,0,1-5.16-5.13,15.09,15.09,0,0,0,5.45,4.61,14.16,14.16,0,0,0,6.83,1.44Z"/><path class="f56b7b53-a046-4f2c-ae9d-e71e1d123968" d="M129.79,113.7a14.16,14.16,0,0,0,6.83-1.44,15.09,15.09,0,0,0,5.45-4.61,15.25,15.25,0,0,1-5.16,5.13,15.06,15.06,0,0,1-7.12,2.12Z"/><path class="bf03cf04-a644-4e58-844b-ee16035c3c1d" d="M122.13,92.57h3v15.88h-3.24V95.63l-3,1.71-1.27-2.4Z"/><path class="bf03cf04-a644-4e58-844b-ee16035c3c1d" d="M139.62,94.66a9.78,9.78,0,0,1,0,11.74,6.4,6.4,0,0,1-9,.87,6,6,0,0,1-.87-.87,9.83,9.83,0,0,1,0-11.77,6.38,6.38,0,0,1,9.88,0Zm-7.53,1.87a8.41,8.41,0,0,0-.05,8,3,3,0,0,0,5.27,0,8.41,8.41,0,0,0,0-8,3,3,0,0,0-4.09-1.13A3.06,3.06,0,0,0,132.09,96.53Z"/><path class="a23b6a9d-a58e-4e72-abcb-b38b6c61f29d" d="M121.94,92.38h3v15.89H121.7V95.44l-3,1.71-1.27-2.39Z"/><path class="a23b6a9d-a58e-4e72-abcb-b38b6c61f29d" d="M139.43,94.48a8.71,8.71,0,0,1,2,5.85,8.83,8.83,0,0,1-2,5.89,6.4,6.4,0,0,1-9,.87,6,6,0,0,1-.87-.87,9.83,9.83,0,0,1,0-11.77,6.36,6.36,0,0,1,8.94-1l.06,0a6.81,6.81,0,0,1,.93.93Zm-7.53,1.87a8.35,8.35,0,0,0,0,8,3,3,0,0,0,5.26,0,7.13,7.13,0,0,0,1-4,7.21,7.21,0,0,0-1-4,3,3,0,0,0-5.26,0Z"/><g id="fa0e354c-3f89-4707-a3fc-179557802de6" data-name="b9921137-368d-46b3-b076-3c9e71506490"><path class="b9980531-af7b-45df-9686-08d36c73da37" d="M129.05,88.57h-.34l-.35,1.21a2.62,2.62,0,0,1-.56,0,1.8,1.8,0,0,1-.65-.09v-.06L129,84.05a4.82,4.82,0,0,1,.76,0,5.08,5.08,0,0,1,.78,0l1.79,5.59a1.23,1.23,0,0,1-.65.16,1,1,0,0,1-.61-.15,1.17,1.17,0,0,1-.3-.57l-.16-.55h-1.5Zm0-1h1.24l-.14-.52c-.13-.46-.29-1-.46-1.71h0a9.74,9.74,0,0,1-.4,1.59Z"/></g><g id="b5e3236f-0af8-4b7a-b7d4-0be10967307c" data-name="a1266952-f297-4108-bb40-1c32b6e0618c"><path class="a829b4e0-5400-4d7d-827b-c7afa6693976" d="M128.88,88.57h-.34l-.35,1.21a2.62,2.62,0,0,1-.56,0,1.8,1.8,0,0,1-.65-.09v-.06l1.83-5.58a4.69,4.69,0,0,1,.75,0,5.21,5.21,0,0,1,.79,0l1.84,5.59a1.27,1.27,0,0,1-.66.16.92.92,0,0,1-.6-.15,1.17,1.17,0,0,1-.3-.57l-.16-.55H129Zm0-1h1.24l-.14-.52c-.13-.46-.29-1-.46-1.71h0a12.33,12.33,0,0,1-.4,1.59Z"/></g></g></g></g></g></svg>