<svg xmlns="http://www.w3.org/2000/svg" viewBox="0 0 154.2 119.39"><defs><style>.b85ac7f4-0bed-486e-95d4-c39ba69676bc{fill:none;}.ad0e440c-70eb-4705-a7e5-702ab560a9ac{fill:#9b935c;}.b5f1ecfd-c82a-4e44-b21b-e20f6c6057ce{fill:#d1c671;}.b0758f7c-b030-40fe-b668-25bdd616f05f{fill:#777329;}.e195fbe2-6ed1-4d05-b9d0-1de40e7d14c9{fill:#eae3b0;}.bd336033-4af9-4fbf-a0a7-f88b00c31525{fill:#e0d8a2;}.ff2b4bc0-111a-473e-9f05-52f94891036d{fill:#a59956;}.af2eda4a-9545-4b0e-9081-37312792096f{fill:#999367;}.af8f2479-fb40-4c4a-be38-d94a086bf47e{fill:#f9f2b2;}.b4364241-d443-45a2-ba0c-070e309e41f6{fill:#a39b62;}.fe55af3e-b5be-4411-ae28-9fcc02deb9e0{fill:#fff2b0;}</style></defs><title>10 6</title><g id="a718bb94-1d8c-43bb-b908-9f734a505b41" data-name="Capa 2"><g id="b9cddb44-9dac-4ca9-aa27-827c61ceb99e" data-name="Capa 1"><rect class="b85ac7f4-0bed-486e-95d4-c39ba69676bc" width="154.2" height="119.39"/><g id="fa4b7f99-b837-430e-be02-3dc3a2823b74" data-name="f229588d-4862-4645-981a-87946de0b155"><g id="a57f645d-b811-4230-a644-13e2f47fa714" data-name="ab96b5ed-421a-4ddb-94d9-8c622ae69250"><circle class="ad0e440c-70eb-4705-a7e5-702ab560a9ac" cx="25.11" cy="19.92" r="19.92"/><circle class="b5f1ecfd-c82a-4e44-b21b-e20f6c6057ce" cx="25.11" cy="19.92" r="16.43"/><path class="b0758f7c-b030-40fe-b668-25bdd616f05f" d="M9.24,20.16A16.45,16.45,0,0,1,32.72,5.31,16.44,16.44,0,0,0,17.11,34.25l.23.12q.36.2.72.36A16.45,16.45,0,0,1,9.24,20.16Z"/><path class="e195fbe2-6ed1-4d05-b9d0-1de40e7d14c9" d="M32.72,5.35A16.44,16.44,0,0,1,18.06,34.77,16.44,16.44,0,0,0,33.44,5.71Q33.08,5.52,32.72,5.35Z"/><path class="bd336033-4af9-4fbf-a0a7-f88b00c31525" d="M24.91,35.34a14.94,14.94,0,0,1-7.12-2.11,15.25,15.25,0,0,1-5.16-5.13,15,15,0,0,0,5.45,4.6,14,14,0,0,0,6.83,1.46Z"/><path class="ff2b4bc0-111a-473e-9f05-52f94891036d" d="M25.81,34.16a14.05,14.05,0,0,0,6.83-1.45,15,15,0,0,0,5.45-4.6,15.25,15.25,0,0,1-5.16,5.13,14.94,14.94,0,0,1-7.12,2.11Z"/><path class="af2eda4a-9545-4b0e-9081-37312792096f" d="M18.19,13h3V28.9H17.91V16.07l-3,1.72-1.28-2.4Z"/><path class="af2eda4a-9545-4b0e-9081-37312792096f" d="M35.64,15.16a9.78,9.78,0,0,1,0,11.74,6.4,6.4,0,0,1-9,.87,6,6,0,0,1-.87-.87,9.77,9.77,0,0,1,0-11.77,6.38,6.38,0,0,1,9.88,0ZM28.11,17a8.41,8.41,0,0,0,0,8,3,3,0,0,0,5.27,0,7.21,7.21,0,0,0,1-4,7.29,7.29,0,0,0-1-4,3,3,0,0,0-5.27,0Z"/><path class="af8f2479-fb40-4c4a-be38-d94a086bf47e" d="M18,12.83h3V28.71H17.72V15.89l-3,1.71-1.27-2.44Z"/><path class="af8f2479-fb40-4c4a-be38-d94a086bf47e" d="M35.45,14.92a9.78,9.78,0,0,1,0,11.74,6.4,6.4,0,0,1-9,.87,6,6,0,0,1-.87-.87,9.81,9.81,0,0,1,0-11.76,6.37,6.37,0,0,1,9-1l0,0a5.72,5.72,0,0,1,.92.92Zm-7.53,1.87a7.29,7.29,0,0,0-1,4,7.13,7.13,0,0,0,1,4,3,3,0,0,0,5.26,0,8.41,8.41,0,0,0,0-8,3,3,0,0,0-5.26,0Z"/><g id="ef2bf005-aede-4f11-8f48-cecf001a27ff" data-name="f810dd47-9e28-4c37-aa3a-94e616271025"><path class="b4364241-d443-45a2-ba0c-070e309e41f6" d="M25.07,9h-.34l-.39,1.2a2.62,2.62,0,0,1-.56,0,1.8,1.8,0,0,1-.65-.09h0L25,4.52a4.7,4.7,0,0,1,.75,0,3.51,3.51,0,0,1,.79.06l1.84,5.58a1.23,1.23,0,0,1-.65.16,1,1,0,0,1-.61-.15,1.16,1.16,0,0,1-.3-.58L26.62,9H25.07Zm0-1h1.24l-.12-.51c-.13-.47-.29-1-.46-1.71h0a12.33,12.33,0,0,1-.4,1.59Z"/></g><g id="a51ceef6-3d62-44d2-9295-dcf640228880" data-name="f5f1a9e3-b6d8-4e52-8f32-333f6cf4c201"><path class="fe55af3e-b5be-4411-ae28-9fcc02deb9e0" d="M24.89,9h-.33l-.37,1.22a2.53,2.53,0,0,1-.55,0,1.8,1.8,0,0,1-.65-.09v-.07l1.83-5.58a4.69,4.69,0,0,1,.75,0,3.51,3.51,0,0,1,.79.06l1.75,5.57a1.27,1.27,0,0,1-.66.16.92.92,0,0,1-.6-.15,1.16,1.16,0,0,1-.3-.58L26.4,9Zm0-1h1.24L26,7.48c-.14-.47-.29-1-.46-1.71h-.05a12.33,12.33,0,0,1-.4,1.59Z"/></g><circle class="ad0e440c-70eb-4705-a7e5-702ab560a9ac" cx="129.09" cy="19.92" r="19.92"/><circle class="b5f1ecfd-c82a-4e44-b21b-e20f6c6057ce" cx="129.09" cy="19.92" r="16.43"/><path class="b0758f7c-b030-40fe-b668-25bdd616f05f" d="M113.19,20.16A16.45,16.45,0,0,1,136.7,5.31,16.45,16.45,0,0,0,122,34.77,16.43,16.43,0,0,1,113.19,20.16Z"/><path class="e195fbe2-6ed1-4d05-b9d0-1de40e7d14c9" d="M136.7,5.35A16.44,16.44,0,0,1,122,34.77,16.44,16.44,0,0,0,137.42,5.71Q137.06,5.52,136.7,5.35Z"/><path class="bd336033-4af9-4fbf-a0a7-f88b00c31525" d="M128.89,35.34a14.94,14.94,0,0,1-7.12-2.11,15.25,15.25,0,0,1-5.16-5.13,15,15,0,0,0,5.45,4.6,14,14,0,0,0,6.83,1.46Z"/><path class="ff2b4bc0-111a-473e-9f05-52f94891036d" d="M129.79,34.16a14.05,14.05,0,0,0,6.83-1.45,15,15,0,0,0,5.45-4.6,15.25,15.25,0,0,1-5.16,5.13,14.94,14.94,0,0,1-7.12,2.11Z"/><path class="af2eda4a-9545-4b0e-9081-37312792096f" d="M122.13,13h3V28.9h-3.24V16.07l-3,1.72-1.27-2.4Z"/><path class="af2eda4a-9545-4b0e-9081-37312792096f" d="M139.62,15.16a9.78,9.78,0,0,1,0,11.74,6.4,6.4,0,0,1-9,.87,6,6,0,0,1-.87-.87,9.83,9.83,0,0,1,0-11.77,6.38,6.38,0,0,1,9.88,0ZM132.09,17a8.38,8.38,0,0,0-.05,8,3,3,0,0,0,5.27,0,7.21,7.21,0,0,0,1-4,7.29,7.29,0,0,0-1-4,3,3,0,0,0-4.09-1.13A3.06,3.06,0,0,0,132.09,17Z"/><path class="af8f2479-fb40-4c4a-be38-d94a086bf47e" d="M121.94,12.83h3V28.71H121.7V15.89l-3,1.71-1.27-2.44Z"/><path class="af8f2479-fb40-4c4a-be38-d94a086bf47e" d="M139.43,14.92a9.78,9.78,0,0,1,0,11.74,6.4,6.4,0,0,1-9,.87,6,6,0,0,1-.87-.87,9.81,9.81,0,0,1,0-11.76,6.37,6.37,0,0,1,9-1l0,0a5.72,5.72,0,0,1,.92.92Zm-7.53,1.87a7.29,7.29,0,0,0-1,4,7.13,7.13,0,0,0,1,4,3,3,0,0,0,5.26,0,7.13,7.13,0,0,0,1-4,7.29,7.29,0,0,0-1-4,3,3,0,0,0-5.26,0Z"/><g id="a02d0e8e-2ef4-424a-a5ec-e799afeba416" data-name="ad0f6ec0-8481-480a-bfe4-fbd733ec1dc4"><path class="b4364241-d443-45a2-ba0c-070e309e41f6" d="M129.05,9h-.34l-.37,1.2a2.62,2.62,0,0,1-.56,0,1.8,1.8,0,0,1-.65-.09h0L129,4.52a4.82,4.82,0,0,1,.76,0,5.12,5.12,0,0,1,.78.06l1.77,5.58a1.23,1.23,0,0,1-.65.16,1,1,0,0,1-.61-.15,1.16,1.16,0,0,1-.3-.58L130.55,9Zm0-1h1.24l-.1-.51c-.13-.47-.29-1-.46-1.71h0a9.74,9.74,0,0,1-.4,1.59Z"/></g><g id="b0c86c46-95db-49a6-85ca-3f2a583647fd" data-name="b1c09bb4-2f79-40ed-89e4-88fcbb4812cc"><path class="fe55af3e-b5be-4411-ae28-9fcc02deb9e0" d="M128.88,9h-.34l-.35,1.22a2.62,2.62,0,0,1-.56,0,1.8,1.8,0,0,1-.65-.09v-.07l1.83-5.58a4.69,4.69,0,0,1,.75,0,3.51,3.51,0,0,1,.79.06l1.75,5.57a1.27,1.27,0,0,1-.66.16.92.92,0,0,1-.6-.15,1.16,1.16,0,0,1-.3-.58L130.38,9Zm0-1h1.24L130,7.48c-.13-.47-.29-1-.46-1.71h0a12.33,12.33,0,0,1-.4,1.59Z"/></g><circle class="ad0e440c-70eb-4705-a7e5-702ab560a9ac" cx="25.11" cy="59.77" r="19.92"/><circle class="b5f1ecfd-c82a-4e44-b21b-e20f6c6057ce" cx="25.11" cy="59.77" r="16.43"/><path class="b0758f7c-b030-40fe-b668-25bdd616f05f" d="M9.24,60.06A16.44,16.44,0,0,1,25.68,43.62h0a16.33,16.33,0,0,1,7,1.59,16.14,16.14,0,0,0-7.61-1.87,16.43,16.43,0,0,0-7,31.28A16.43,16.43,0,0,1,9.24,60.06Z"/><path class="e195fbe2-6ed1-4d05-b9d0-1de40e7d14c9" d="M32.72,45.21A16.43,16.43,0,0,1,18.06,74.62,16.43,16.43,0,0,0,32.72,45.21Z"/><path class="bd336033-4af9-4fbf-a0a7-f88b00c31525" d="M24.91,75.16A15.08,15.08,0,0,1,17.79,73a15.25,15.25,0,0,1-5.16-5.13,15.09,15.09,0,0,0,5.45,4.61A14.18,14.18,0,0,0,24.91,74Z"/><path class="ff2b4bc0-111a-473e-9f05-52f94891036d" d="M25.81,74a14.16,14.16,0,0,0,6.83-1.44A15,15,0,0,0,38.09,68a15.25,15.25,0,0,1-5.16,5.13,15.06,15.06,0,0,1-7.12,2.12Z"/><path class="af2eda4a-9545-4b0e-9081-37312792096f" d="M18.19,52.87h3V68.75H17.91V55.93l-3,1.71-1.28-2.4Z"/><path class="af2eda4a-9545-4b0e-9081-37312792096f" d="M35.64,55a9.78,9.78,0,0,1,0,11.74,6.4,6.4,0,0,1-9,.87,6,6,0,0,1-.87-.87,9.77,9.77,0,0,1,0-11.77,6.38,6.38,0,0,1,9.88,0Zm-7.53,1.87a8.41,8.41,0,0,0,0,8,3,3,0,0,0,5.27,0,8.41,8.41,0,0,0,0-8,3,3,0,0,0-5.27,0Z"/><path class="af8f2479-fb40-4c4a-be38-d94a086bf47e" d="M18,52.68h3V68.57H17.72V55.74l-3,1.71-1.27-2.39Z"/><path class="af8f2479-fb40-4c4a-be38-d94a086bf47e" d="M35.45,54.78a8.74,8.74,0,0,1,2,5.86,8.91,8.91,0,0,1-2,5.88,6.4,6.4,0,0,1-9,.87,6,6,0,0,1-.87-.87,9.83,9.83,0,0,1,0-11.77,6.36,6.36,0,0,1,8.94-1l.06,0a6.81,6.81,0,0,1,.93.93Zm-7.53,1.87a8.35,8.35,0,0,0,0,8,3,3,0,0,0,5.26,0,8.41,8.41,0,0,0,0-8,3,3,0,0,0-5.26,0Z"/><g id="bd807631-4190-40ed-be83-96bde1574223" data-name="ef157acf-563e-4ac0-94c2-f4d4550829bd"><path class="b4364241-d443-45a2-ba0c-070e309e41f6" d="M25.07,48.87h-.34l-.35,1.21a2.62,2.62,0,0,1-.56,0,1.91,1.91,0,0,1-.63-.08v-.06L25,44.36a4.69,4.69,0,0,1,.75,0,5.21,5.21,0,0,1,.79,0L28.35,50a1.23,1.23,0,0,1-.65.16,1,1,0,0,1-.61-.15,1.17,1.17,0,0,1-.3-.57l-.16-.55h-1.5Zm0-1h1.24l-.12-.52c-.13-.46-.29-1-.46-1.71h0a12.33,12.33,0,0,1-.4,1.59Z"/></g><g id="ad9dda76-1457-478e-8a24-a1c29732dbdf" data-name="a0d0bece-b252-46f0-8b5c-c789a0b807f4"><path class="fe55af3e-b5be-4411-ae28-9fcc02deb9e0" d="M24.89,48.87h-.33l-.37,1.21a2.53,2.53,0,0,1-.55,0A2.05,2.05,0,0,1,23,50v-.06l1.83-5.58a4.69,4.69,0,0,1,.75,0,5.21,5.21,0,0,1,.79,0l1.83,5.59a1.27,1.27,0,0,1-.66.16.92.92,0,0,1-.6-.15,1.17,1.17,0,0,1-.3-.57l-.16-.55H24.93Zm0-1h1.24L26,47.35c-.14-.46-.29-1-.46-1.71h-.05a12.33,12.33,0,0,1-.4,1.59Z"/></g><circle class="ad0e440c-70eb-4705-a7e5-702ab560a9ac" cx="129.09" cy="59.77" r="19.92"/><circle class="b5f1ecfd-c82a-4e44-b21b-e20f6c6057ce" cx="129.09" cy="59.77" r="16.43"/><path class="b0758f7c-b030-40fe-b668-25bdd616f05f" d="M113.19,60.06a16.44,16.44,0,0,1,16.44-16.44h0a16.33,16.33,0,0,1,7,1.59A16.14,16.14,0,0,0,129,43.34a16.43,16.43,0,0,0-7,31.28A16.41,16.41,0,0,1,113.19,60.06Z"/><path class="e195fbe2-6ed1-4d05-b9d0-1de40e7d14c9" d="M136.7,45.21A16.43,16.43,0,0,1,122,74.62,16.43,16.43,0,0,0,136.7,45.21Z"/><path class="bd336033-4af9-4fbf-a0a7-f88b00c31525" d="M128.89,75.16A15.08,15.08,0,0,1,121.77,73a15.25,15.25,0,0,1-5.16-5.13,15.09,15.09,0,0,0,5.45,4.61A14.18,14.18,0,0,0,128.89,74Z"/><path class="ff2b4bc0-111a-473e-9f05-52f94891036d" d="M129.79,74a14.16,14.16,0,0,0,6.83-1.44A15,15,0,0,0,142.07,68a15.25,15.25,0,0,1-5.16,5.13,15.06,15.06,0,0,1-7.12,2.12Z"/><path class="af2eda4a-9545-4b0e-9081-37312792096f" d="M122.13,52.87h3V68.75h-3.24V55.93l-3,1.71-1.27-2.4Z"/><path class="af2eda4a-9545-4b0e-9081-37312792096f" d="M139.62,55a9.78,9.78,0,0,1,0,11.74,6.4,6.4,0,0,1-9,.87,6,6,0,0,1-.87-.87,9.83,9.83,0,0,1,0-11.77,6.38,6.38,0,0,1,9.88,0Zm-7.53,1.87a8.41,8.41,0,0,0-.05,8,3,3,0,0,0,5.27,0,8.41,8.41,0,0,0,0-8,3,3,0,0,0-4.09-1.13A3.06,3.06,0,0,0,132.09,56.87Z"/><path class="af8f2479-fb40-4c4a-be38-d94a086bf47e" d="M121.94,52.68h3V68.57H121.7V55.74l-3,1.71-1.27-2.39Z"/><path class="af8f2479-fb40-4c4a-be38-d94a086bf47e" d="M139.43,54.78a9.6,9.6,0,0,1,0,11.74,6.4,6.4,0,0,1-9,.87,6,6,0,0,1-.87-.87,9.83,9.83,0,0,1,0-11.77,6.36,6.36,0,0,1,8.94-1l.06,0a6.81,6.81,0,0,1,.93.93Zm-7.53,1.87a8.35,8.35,0,0,0,0,8,3,3,0,0,0,5.26,0,7.13,7.13,0,0,0,1-4,7.21,7.21,0,0,0-1-4,3,3,0,0,0-5.26,0Z"/><g id="bbcad934-44d0-4d3d-94a5-ea00fa731cfa" data-name="befed7b5-3402-4db1-88e5-2753dda97b9e"><path class="b4364241-d443-45a2-ba0c-070e309e41f6" d="M129.05,48.87h-.34l-.35,1.21a2.62,2.62,0,0,1-.56,0,2.09,2.09,0,0,1-.61-.08v-.06L129,44.36a4.82,4.82,0,0,1,.76,0,5.08,5.08,0,0,1,.78,0L132.35,50a1.23,1.23,0,0,1-.65.16,1,1,0,0,1-.61-.15,1.17,1.17,0,0,1-.3-.57l-.16-.55h-1.5Zm0-1h1.24l-.14-.52c-.13-.46-.29-1-.46-1.71h0a9.74,9.74,0,0,1-.4,1.59Z"/></g><g id="e86fac09-a013-45c5-8c9d-bbd74064d796" data-name="eb5ecec9-0c47-449f-82fa-9975c8f0f279"><path class="fe55af3e-b5be-4411-ae28-9fcc02deb9e0" d="M128.88,48.87h-.34l-.35,1.21a2.62,2.62,0,0,1-.56,0A2.05,2.05,0,0,1,127,50v-.06l1.83-5.58a4.69,4.69,0,0,1,.75,0,5.21,5.21,0,0,1,.79,0l1.84,5.59a1.27,1.27,0,0,1-.66.16.92.92,0,0,1-.6-.15,1.17,1.17,0,0,1-.3-.57l-.16-.55H129Zm0-1h1.24l-.14-.52c-.13-.46-.29-1-.46-1.71h0a12.33,12.33,0,0,1-.4,1.59Z"/></g><circle class="ad0e440c-70eb-4705-a7e5-702ab560a9ac" cx="25.11" cy="99.47" r="19.92"/><circle class="b5f1ecfd-c82a-4e44-b21b-e20f6c6057ce" cx="25.11" cy="99.47" r="16.43"/><path class="b0758f7c-b030-40fe-b668-25bdd616f05f" d="M9.24,99.76A16.44,16.44,0,0,1,25.68,83.32h0a16.33,16.33,0,0,1,7,1.59A16.15,16.15,0,0,0,25.07,83a16.43,16.43,0,0,0-7,31.28A16.44,16.44,0,0,1,9.24,99.76Z"/><path class="e195fbe2-6ed1-4d05-b9d0-1de40e7d14c9" d="M32.72,84.91a16.43,16.43,0,0,1-14.66,29.41A16.43,16.43,0,0,0,32.72,84.91Z"/><path class="bd336033-4af9-4fbf-a0a7-f88b00c31525" d="M24.91,114.9a15.06,15.06,0,0,1-7.12-2.12,15.25,15.25,0,0,1-5.16-5.13,15.09,15.09,0,0,0,5.45,4.61,14.16,14.16,0,0,0,6.83,1.44Z"/><path class="ff2b4bc0-111a-473e-9f05-52f94891036d" d="M25.81,113.7a14.16,14.16,0,0,0,6.83-1.44,15.09,15.09,0,0,0,5.45-4.61,15.25,15.25,0,0,1-5.16,5.13,15.06,15.06,0,0,1-7.12,2.12Z"/><path class="af2eda4a-9545-4b0e-9081-37312792096f" d="M18.19,92.57h3v15.88H17.91V95.63l-3,1.71-1.28-2.4Z"/><path class="af2eda4a-9545-4b0e-9081-37312792096f" d="M35.64,94.66a9.78,9.78,0,0,1,0,11.74,6.4,6.4,0,0,1-9,.87,6,6,0,0,1-.87-.87,9.77,9.77,0,0,1,0-11.77,6.38,6.38,0,0,1,9.88,0Zm-7.53,1.87a8.41,8.41,0,0,0,0,8,3,3,0,0,0,5.27,0,8.41,8.41,0,0,0,0-8,3,3,0,0,0-5.27,0Z"/><path class="af8f2479-fb40-4c4a-be38-d94a086bf47e" d="M18,92.38h3v15.89H17.72V95.44l-3,1.71-1.27-2.39Z"/><path class="af8f2479-fb40-4c4a-be38-d94a086bf47e" d="M35.45,94.48a8.71,8.71,0,0,1,2,5.85,8.94,8.94,0,0,1-2,5.89,6.4,6.4,0,0,1-9,.87,6,6,0,0,1-.87-.87,9.83,9.83,0,0,1,0-11.77,6.36,6.36,0,0,1,8.94-1l.06,0a6.81,6.81,0,0,1,.93.93Zm-7.53,1.87a8.35,8.35,0,0,0,0,8,3,3,0,0,0,5.26,0,8.41,8.41,0,0,0,0-8,3,3,0,0,0-5.26,0Z"/><g id="fcb36966-b621-4a63-b634-01abd9a5133c" data-name="b69d1935-3873-4639-a102-031bacb443bc"><path class="b4364241-d443-45a2-ba0c-070e309e41f6" d="M25.07,88.57h-.34l-.35,1.21a2.62,2.62,0,0,1-.56,0,1.8,1.8,0,0,1-.65-.09v-.06L25,84.05a4.69,4.69,0,0,1,.75,0,5.21,5.21,0,0,1,.79,0l1.79,5.59a1.23,1.23,0,0,1-.65.16,1,1,0,0,1-.61-.15,1.17,1.17,0,0,1-.3-.57l-.16-.55h-1.5Zm0-1h1.24l-.12-.52c-.13-.46-.29-1-.46-1.71h0a12.33,12.33,0,0,1-.4,1.59Z"/></g><g id="faf1df07-043d-4001-9ede-8628edc4cf38" data-name="b7adbcab-7c89-4242-b593-cba2ab6a5fd3"><path class="fe55af3e-b5be-4411-ae28-9fcc02deb9e0" d="M24.89,88.57h-.33l-.37,1.21a2.53,2.53,0,0,1-.55,0,1.8,1.8,0,0,1-.65-.09v-.06l1.83-5.58a4.69,4.69,0,0,1,.75,0,5.21,5.21,0,0,1,.79,0l1.83,5.59a1.27,1.27,0,0,1-.66.16.92.92,0,0,1-.6-.15,1.17,1.17,0,0,1-.3-.57l-.16-.55H24.93Zm0-1h1.24L26,87.05c-.14-.46-.29-1-.46-1.71h-.05a12.33,12.33,0,0,1-.4,1.59Z"/></g><circle class="ad0e440c-70eb-4705-a7e5-702ab560a9ac" cx="129.09" cy="99.47" r="19.92"/><circle class="b5f1ecfd-c82a-4e44-b21b-e20f6c6057ce" cx="129.09" cy="99.47" r="16.43"/><path class="b0758f7c-b030-40fe-b668-25bdd616f05f" d="M113.19,99.76a16.44,16.44,0,0,1,16.44-16.44h0a16.33,16.33,0,0,1,7,1.59A16.18,16.18,0,0,0,129.05,83a16.43,16.43,0,0,0-7,31.28A16.46,16.46,0,0,1,113.19,99.76Z"/><path class="e195fbe2-6ed1-4d05-b9d0-1de40e7d14c9" d="M136.7,84.91A16.43,16.43,0,0,1,122,114.32h0A16.43,16.43,0,0,0,136.7,84.91Z"/><path class="bd336033-4af9-4fbf-a0a7-f88b00c31525" d="M128.89,114.9a15.06,15.06,0,0,1-7.12-2.12,15.25,15.25,0,0,1-5.16-5.13,15.09,15.09,0,0,0,5.45,4.61,14.16,14.16,0,0,0,6.83,1.44Z"/><path class="ff2b4bc0-111a-473e-9f05-52f94891036d" d="M129.79,113.7a14.16,14.16,0,0,0,6.83-1.44,15.09,15.09,0,0,0,5.45-4.61,15.25,15.25,0,0,1-5.16,5.13,15.06,15.06,0,0,1-7.12,2.12Z"/><path class="af2eda4a-9545-4b0e-9081-37312792096f" d="M122.13,92.57h3v15.88h-3.24V95.63l-3,1.71-1.27-2.4Z"/><path class="af2eda4a-9545-4b0e-9081-37312792096f" d="M139.62,94.66a9.78,9.78,0,0,1,0,11.74,6.4,6.4,0,0,1-9,.87,6,6,0,0,1-.87-.87,9.83,9.83,0,0,1,0-11.77,6.38,6.38,0,0,1,9.88,0Zm-7.53,1.87a8.41,8.41,0,0,0-.05,8,3,3,0,0,0,5.27,0,8.41,8.41,0,0,0,0-8,3,3,0,0,0-4.09-1.13A3.06,3.06,0,0,0,132.09,96.53Z"/><path class="af8f2479-fb40-4c4a-be38-d94a086bf47e" d="M121.94,92.38h3v15.89H121.7V95.44l-3,1.71-1.27-2.39Z"/><path class="af8f2479-fb40-4c4a-be38-d94a086bf47e" d="M139.43,94.48a8.71,8.71,0,0,1,2,5.85,8.83,8.83,0,0,1-2,5.89,6.4,6.4,0,0,1-9,.87,6,6,0,0,1-.87-.87,9.83,9.83,0,0,1,0-11.77,6.36,6.36,0,0,1,8.94-1l.06,0a6.81,6.81,0,0,1,.93.93Zm-7.53,1.87a8.35,8.35,0,0,0,0,8,3,3,0,0,0,5.26,0,7.13,7.13,0,0,0,1-4,7.21,7.21,0,0,0-1-4,3,3,0,0,0-5.26,0Z"/><g id="a0671473-f351-4ea7-befb-77a0b82d2094" data-name="e185cfa9-37e7-47a6-9e3a-83678c5530ee"><path class="b4364241-d443-45a2-ba0c-070e309e41f6" d="M129.05,88.57h-.34l-.35,1.21a2.62,2.62,0,0,1-.56,0,1.8,1.8,0,0,1-.65-.09v-.06L129,84.05a4.82,4.82,0,0,1,.76,0,5.08,5.08,0,0,1,.78,0l1.79,5.59a1.23,1.23,0,0,1-.65.16,1,1,0,0,1-.61-.15,1.17,1.17,0,0,1-.3-.57l-.16-.55h-1.5Zm0-1h1.24l-.14-.52c-.13-.46-.29-1-.46-1.71h0a9.74,9.74,0,0,1-.4,1.59Z"/></g><g id="b055eb40-31f3-4094-9389-85d451a84fea" data-name="acdb0ff1-13d4-44c2-b047-e195b2d4bc60"><path class="fe55af3e-b5be-4411-ae28-9fcc02deb9e0" d="M128.88,88.57h-.34l-.35,1.21a2.62,2.62,0,0,1-.56,0,1.8,1.8,0,0,1-.65-.09v-.06l1.83-5.58a4.69,4.69,0,0,1,.75,0,5.21,5.21,0,0,1,.79,0l1.84,5.59a1.27,1.27,0,0,1-.66.16.92.92,0,0,1-.6-.15,1.17,1.17,0,0,1-.3-.57l-.16-.55H129Zm0-1h1.24l-.14-.52c-.13-.46-.29-1-.46-1.71h0a12.33,12.33,0,0,1-.4,1.59Z"/></g></g></g></g></g></svg>