<svg xmlns="http://www.w3.org/2000/svg" viewBox="0 0 801.04 155.47"><defs><style>.b7cd301c-a90d-441d-a44c-7ba4b4101d44{fill:#1f8ebe;}.ac026306-ece9-41c5-bf32-616ec9851638{fill:#f9f3e9;}.aeffa130-8f33-4eaf-bcf1-f58e223bed35{fill:#dfd9d0;}</style></defs><title>dmumcdu1</title><g id="b3a555b6-c620-48f0-b70c-d2588d2150a7" data-name="Capa 2"><g id="e922114b-1f57-4fa9-915c-bf1f6e70e771" data-name="Capa 1"><rect class="b7cd301c-a90d-441d-a44c-7ba4b4101d44" x="161.64" width="158.89" height="51.32"/><path class="ac026306-ece9-41c5-bf32-616ec9851638" d="M235.05,14.22a1.06,1.06,0,0,1,.84.36,1.22,1.22,0,0,1,.33.87v11.9a8.09,8.09,0,0,1-1.07,4.15,7.85,7.85,0,0,1-6.94,4,8,8,0,0,1-4.13-1.07,7.78,7.78,0,0,1-2.86-2.89,8.18,8.18,0,0,1-1.05-4.15V15.45a1.2,1.2,0,0,1,1.26-1.23,1.26,1.26,0,0,1,1.23,1.23v11.9a5.69,5.69,0,0,0,.75,2.94,5.39,5.39,0,0,0,2,2,5.48,5.48,0,0,0,2.78.74,5.6,5.6,0,0,0,2.82-.74,5.7,5.7,0,0,0,2.08-2,5.44,5.44,0,0,0,.8-2.94V15.45a1.3,1.3,0,0,1,.3-.87A1,1,0,0,1,235.05,14.22Z"/><path class="ac026306-ece9-41c5-bf32-616ec9851638" d="M242.7,14.22a1.35,1.35,0,0,1,.58.15,1.41,1.41,0,0,1,.5.38l7.95,12-1,0,8-12a1.13,1.13,0,0,1,1-.53,1.33,1.33,0,0,1,.84.36,1.11,1.11,0,0,1,.36.87V34a1.19,1.19,0,0,1-.36.87,1.31,1.31,0,0,1-1.8,0,1.19,1.19,0,0,1-.36-.87V17.73l.75.15-7.08,10.77a1.51,1.51,0,0,1-.44.35.93.93,0,0,1-.52.16,1,1,0,0,1-.54-.16,1.43,1.43,0,0,1-.45-.35l-7-10.77.63-.78V34a1.24,1.24,0,0,1-.33.87,1.09,1.09,0,0,1-.84.36,1.05,1.05,0,0,1-.83-.36,1.27,1.27,0,0,1-.31-.87V15.45a1.23,1.23,0,0,1,.34-.86A1.16,1.16,0,0,1,242.7,14.22Z"/><rect class="b7cd301c-a90d-441d-a44c-7ba4b4101d44" x="320.54" width="160" height="51.32"/><path class="ac026306-ece9-41c5-bf32-616ec9851638" d="M408.62,15.63a1,1,0,0,1,.59.81,1.31,1.31,0,0,1-.29,1,.89.89,0,0,1-.69.42,1.6,1.6,0,0,1-.84-.18,9.29,9.29,0,0,0-2.13-1,8.79,8.79,0,0,0-5.64.27,7.63,7.63,0,0,0-2.55,1.73,7.8,7.8,0,0,0-1.68,2.63,9.3,9.3,0,0,0-.6,3.4,9.42,9.42,0,0,0,.63,3.54,7.71,7.71,0,0,0,1.73,2.65,7,7,0,0,0,2.55,1.66,8.34,8.34,0,0,0,3.16.58,8.48,8.48,0,0,0,2.37-.33,8.69,8.69,0,0,0,2.16-1,1.4,1.4,0,0,1,.84-.15,1.13,1.13,0,0,1,.72.42,1.26,1.26,0,0,1,.27,1,1,1,0,0,1-.57.77,11.35,11.35,0,0,1-1.71.82,11.11,11.11,0,0,1-2,.58,10.58,10.58,0,0,1-2.09.21,11.11,11.11,0,0,1-4.08-.75,10,10,0,0,1-3.39-2.15,10.26,10.26,0,0,1-2.32-3.41,11.26,11.26,0,0,1-.86-4.48,11.08,11.08,0,0,1,.81-4.29,10.3,10.3,0,0,1,2.27-3.4,10.46,10.46,0,0,1,3.39-2.25,10.7,10.7,0,0,1,4.18-.81,11.23,11.23,0,0,1,3.05.43A10.21,10.21,0,0,1,408.62,15.63Z"/><rect class="b7cd301c-a90d-441d-a44c-7ba4b4101d44" x="480.54" width="160" height="51.32"/><path class="ac026306-ece9-41c5-bf32-616ec9851638" d="M561.1,14.25a8.6,8.6,0,0,1,3.86.82,7.72,7.72,0,0,1,2.77,2.3,10.33,10.33,0,0,1,1.67,3.37,14.28,14.28,0,0,1,.55,4A13.58,13.58,0,0,1,569,30,8.77,8.77,0,0,1,566,33.82a8.12,8.12,0,0,1-4.92,1.43h-7.5a1.13,1.13,0,0,1-.85-.36,1.22,1.22,0,0,1-.35-.87V15.45a1.18,1.18,0,0,1,.35-.86,1.15,1.15,0,0,1,.85-.34Zm-.3,18.66a6,6,0,0,0,3.77-1.12,6.29,6.29,0,0,0,2.13-3,11.88,11.88,0,0,0,.67-4.08,12.68,12.68,0,0,0-.37-3.11A7.91,7.91,0,0,0,565.83,19a5.71,5.71,0,0,0-2-1.8,6.32,6.32,0,0,0-3-.66h-6.15l.24-.24V33.21l-.18-.3Z"/><path class="b7cd301c-a90d-441d-a44c-7ba4b4101d44" d="M640.54,0h160a0,0,0,0,1,0,0V51.32a0,0,0,0,1,0,0h-154a6,6,0,0,1-6-6V0A0,0,0,0,1,640.54,0Z" transform="translate(1441.07 51.32) rotate(180)"/><path class="ac026306-ece9-41c5-bf32-616ec9851638" d="M727.4,14.22a1.06,1.06,0,0,1,.84.36,1.24,1.24,0,0,1,.33.87V27.36a8.07,8.07,0,0,1-1.06,4.14,8,8,0,0,1-2.87,2.89,7.86,7.86,0,0,1-4.08,1.07,8,8,0,0,1-4.12-1.07,7.8,7.8,0,0,1-2.87-2.89,8.17,8.17,0,0,1-1.05-4.14V15.45a1.22,1.22,0,0,1,.35-.87,1.26,1.26,0,0,1,2.14.87V27.36a5.68,5.68,0,0,0,.75,2.93,5.53,5.53,0,0,0,4.8,2.77,5.6,5.6,0,0,0,2.82-.74,5.73,5.73,0,0,0,2.09-2,5.43,5.43,0,0,0,.79-2.93V15.45a1.31,1.31,0,0,1,.3-.87A1,1,0,0,1,727.4,14.22Z"/><rect class="aeffa130-8f33-4eaf-bcf1-f58e223bed35" x="319.04" width="3" height="153.96"/><rect class="aeffa130-8f33-4eaf-bcf1-f58e223bed35" x="479.04" width="3" height="153.96"/><rect class="aeffa130-8f33-4eaf-bcf1-f58e223bed35" x="639.04" width="3" height="153.96"/><path class="aeffa130-8f33-4eaf-bcf1-f58e223bed35" d="M160,155.47H10.18A10.2,10.2,0,0,1,0,145.29V7.9H3V145.29a7.19,7.19,0,0,0,7.18,7.18H160Z"/><path class="b7cd301c-a90d-441d-a44c-7ba4b4101d44" d="M6,0h155.6a0,0,0,0,1,0,0V51.32a0,0,0,0,1,0,0H0a0,0,0,0,1,0,0V6A6,6,0,0,1,6,0Z"/><path class="aeffa130-8f33-4eaf-bcf1-f58e223bed35" d="M789.36,155.46H160V0h3V152.46H789.36a8.68,8.68,0,0,0,8.68-8.68V51.32h3v92.46A11.68,11.68,0,0,1,789.36,155.46Z"/><path class="ac026306-ece9-41c5-bf32-616ec9851638" d="M68.19,14.26a8.54,8.54,0,0,1,3.84.83,7.82,7.82,0,0,1,2.78,2.29,10.51,10.51,0,0,1,1.66,3.37,14.14,14.14,0,0,1,.55,4A13.58,13.58,0,0,1,76,30a8.75,8.75,0,0,1-2.93,3.81,8.18,8.18,0,0,1-4.91,1.42H60.7a1.15,1.15,0,0,1-.86-.36A1.21,1.21,0,0,1,59.5,34V15.46a1.15,1.15,0,0,1,.34-.85,1.18,1.18,0,0,1,.86-.35Zm-.3,18.63a6,6,0,0,0,3.75-1.11,6.29,6.29,0,0,0,2.13-3,11.88,11.88,0,0,0,.67-4.08,12.51,12.51,0,0,0-.37-3.09A8,8,0,0,0,72.9,19a5.83,5.83,0,0,0-2-1.79,6.3,6.3,0,0,0-3-.66H61.75l.23-.24V33.19l-.17-.3Z"/><path class="ac026306-ece9-41c5-bf32-616ec9851638" d="M82.23,14.23a1.39,1.39,0,0,1,.59.15,1.29,1.29,0,0,1,.49.39l7.94,12-1,0,8-12a1.11,1.11,0,0,1,1-.54,1.33,1.33,0,0,1,.83.36,1.12,1.12,0,0,1,.36.87V34a1.19,1.19,0,0,1-.36.87,1.29,1.29,0,0,1-1.79,0,1.19,1.19,0,0,1-.36-.87V17.74l.74.15L91.61,28.64a1.73,1.73,0,0,1-.44.36,1,1,0,0,1-.52.15,1.1,1.1,0,0,1-.54-.15,1.62,1.62,0,0,1-.45-.36l-7-10.75.63-.78V34a1.24,1.24,0,0,1-.33.87,1.09,1.09,0,0,1-.84.36,1,1,0,0,1-.82-.36A1.28,1.28,0,0,1,81,34V15.46a1.22,1.22,0,0,1,.35-.85A1.14,1.14,0,0,1,82.23,14.23Z"/></g></g></svg>