<svg xmlns="http://www.w3.org/2000/svg" viewBox="0 0 641 360.75"><defs><style>.cls-1{fill:#dfd9d0;}.cls-2{fill:#1f8ebe;}.cls-3{fill:#f9f3e9;}</style></defs><title>UMCDU3</title><g id="Capa_2" data-name="Capa 2"><g id="Capa_1-2" data-name="Capa 1"><polygon class="cls-1" points="641 155.46 0 155.46 0 14.46 3 14.46 3 152.46 638 152.46 638 6.9 641 6.9 641 155.46"/><path class="cls-2" d="M6.5,0h154a0,0,0,0,1,0,0V51.32a0,0,0,0,1,0,0H.5a0,0,0,0,1,0,0V6a6,6,0,0,1,6-6Z"/><path class="cls-3" d="M75,14.22a1.06,1.06,0,0,1,.84.36,1.22,1.22,0,0,1,.33.87v11.9a8.09,8.09,0,0,1-1.07,4.15,7.85,7.85,0,0,1-6.94,4A8,8,0,0,1,64,34.39a7.78,7.78,0,0,1-2.86-2.89,8.18,8.18,0,0,1-1-4.15V15.45a1.2,1.2,0,0,1,1.26-1.23,1.26,1.26,0,0,1,1.23,1.23v11.9a5.69,5.69,0,0,0,.75,2.94,5.39,5.39,0,0,0,2,2,5.48,5.48,0,0,0,2.78.74A5.6,5.6,0,0,0,71,32.32a5.7,5.7,0,0,0,2.08-2,5.44,5.44,0,0,0,.8-2.94V15.45a1.3,1.3,0,0,1,.3-.87A1,1,0,0,1,75,14.22Z"/><path class="cls-3" d="M82.66,14.22a1.35,1.35,0,0,1,.58.15,1.41,1.41,0,0,1,.5.38l8,12-1,0,8-12a1.13,1.13,0,0,1,1-.53,1.33,1.33,0,0,1,.84.36,1.11,1.11,0,0,1,.36.87V34a1.19,1.19,0,0,1-.36.87,1.3,1.3,0,0,1-1.8,0,1.19,1.19,0,0,1-.36-.87V17.73l.75.15L92.05,28.65a1.51,1.51,0,0,1-.44.35.93.93,0,0,1-.52.16,1,1,0,0,1-.54-.16,1.43,1.43,0,0,1-.45-.35l-7-10.77.63-.78V34a1.24,1.24,0,0,1-.33.87,1.09,1.09,0,0,1-.84.36,1.05,1.05,0,0,1-.83-.36,1.27,1.27,0,0,1-.31-.87V15.45a1.23,1.23,0,0,1,.34-.86A1.16,1.16,0,0,1,82.66,14.22Z"/><rect class="cls-2" x="160.5" width="160" height="51.32"/><path class="cls-3" d="M248.58,15.63a1,1,0,0,1,.59.81,1.27,1.27,0,0,1-.29,1,.89.89,0,0,1-.69.42,1.6,1.6,0,0,1-.84-.18,9.29,9.29,0,0,0-2.13-1,8.79,8.79,0,0,0-5.64.27A7.63,7.63,0,0,0,237,18.72a7.8,7.8,0,0,0-1.68,2.63,9.3,9.3,0,0,0-.6,3.4,9.42,9.42,0,0,0,.63,3.54,7.86,7.86,0,0,0,1.73,2.65,7.21,7.21,0,0,0,2.55,1.66,8.38,8.38,0,0,0,3.16.58,8.48,8.48,0,0,0,2.37-.33,8.69,8.69,0,0,0,2.16-1,1.4,1.4,0,0,1,.84-.15,1.13,1.13,0,0,1,.72.42,1.26,1.26,0,0,1,.27,1,1,1,0,0,1-.57.77,11.35,11.35,0,0,1-1.71.82,11.11,11.11,0,0,1-2,.58,10.51,10.51,0,0,1-2.09.21,11.11,11.11,0,0,1-4.08-.75,10,10,0,0,1-3.39-2.15A10.26,10.26,0,0,1,233,29.23a11.26,11.26,0,0,1-.86-4.48,11.08,11.08,0,0,1,.81-4.29,10.3,10.3,0,0,1,2.27-3.4,10.57,10.57,0,0,1,3.39-2.25,10.7,10.7,0,0,1,4.18-.81,11.18,11.18,0,0,1,3.05.43A10.21,10.21,0,0,1,248.58,15.63Z"/><rect class="cls-2" x="320.5" width="160" height="51.32"/><path class="cls-3" d="M401.07,14.25a8.55,8.55,0,0,1,3.85.82,7.76,7.76,0,0,1,2.78,2.3,10.31,10.31,0,0,1,1.66,3.37,14.28,14.28,0,0,1,.56,4,13.58,13.58,0,0,1-1,5.26A8.77,8.77,0,0,1,406,33.82a8.12,8.12,0,0,1-4.92,1.43h-7.5a1.15,1.15,0,0,1-.86-.36,1.21,1.21,0,0,1-.34-.87V15.45a1.16,1.16,0,0,1,1.2-1.2Zm-.3,18.66a6,6,0,0,0,3.76-1.12,6.29,6.29,0,0,0,2.13-3,11.88,11.88,0,0,0,.68-4.08,12.68,12.68,0,0,0-.38-3.11A7.91,7.91,0,0,0,405.79,19a5.71,5.71,0,0,0-2-1.8,6.27,6.27,0,0,0-3-.66h-6.15l.24-.25v16.9l-.18-.3Z"/><path class="cls-2" d="M480.5,0h160a0,0,0,0,1,0,0V51.32a0,0,0,0,1,0,0h-154a6,6,0,0,1-6-6V0A0,0,0,0,1,480.5,0Z" transform="translate(1121 51.32) rotate(180)"/><path class="cls-3" d="M567.37,14.22a1.06,1.06,0,0,1,.84.36,1.22,1.22,0,0,1,.33.87v11.9a8.09,8.09,0,0,1-1.07,4.15,7.85,7.85,0,0,1-6.94,4,8,8,0,0,1-4.13-1.07,7.78,7.78,0,0,1-2.86-2.89,8.18,8.18,0,0,1-1-4.15V15.45a1.2,1.2,0,0,1,1.26-1.23A1.26,1.26,0,0,1,555,15.45v11.9a5.69,5.69,0,0,0,.75,2.94,5.39,5.39,0,0,0,2,2,5.48,5.48,0,0,0,2.78.74,5.6,5.6,0,0,0,2.82-.74,5.7,5.7,0,0,0,2.08-2,5.44,5.44,0,0,0,.8-2.94V15.45a1.3,1.3,0,0,1,.3-.87A1,1,0,0,1,567.37,14.22Z"/><rect class="cls-1" x="159" width="3" height="359.25"/><rect class="cls-1" x="319" width="3" height="359.25"/><rect class="cls-1" x="479" width="3" height="359.25"/><polygon class="cls-1" points="641 258.1 0 258.1 0 153.96 3 153.96 3 255.1 638 255.1 638 153.96 641 153.96 641 258.1"/><path class="cls-1" d="M629.32,360.75H11.68A11.7,11.7,0,0,1,0,349.06V256.6H3v92.46a8.69,8.69,0,0,0,8.68,8.69H629.32a8.7,8.7,0,0,0,8.68-8.69V256.6h3v92.46A11.7,11.7,0,0,1,629.32,360.75Z"/></g></g></svg>