<svg xmlns="http://www.w3.org/2000/svg" xmlns:xlink="http://www.w3.org/1999/xlink" viewBox="0 0 413.79 493.38"><defs><style>.cls-1,.cls-19,.cls-3,.cls-5{fill:none;}.cls-2,.cls-8{fill:#c0a5b4;}.cls-10,.cls-11,.cls-12,.cls-14,.cls-15,.cls-16,.cls-17,.cls-2,.cls-20,.cls-21,.cls-4,.cls-8{fill-rule:evenodd;}.cls-10,.cls-11,.cls-12,.cls-14,.cls-15,.cls-17,.cls-19,.cls-21,.cls-3,.cls-4,.cls-5,.cls-8{stroke:#000;stroke-linejoin:round;}.cls-10,.cls-11,.cls-12,.cls-14,.cls-15,.cls-17,.cls-19,.cls-21,.cls-3,.cls-4,.cls-8{stroke-linecap:round;}.cls-4{fill:#615a52;}.cls-6{clip-path:url(#clip-path);}.cls-7{clip-path:url(#clip-path-2);}.cls-9{clip-path:url(#clip-path-3);}.cls-10{fill:#f7e8ed;}.cls-11{fill:#ffe3c3;}.cls-12{fill:#7b2325;}.cls-13{clip-path:url(#clip-path-4);}.cls-14{fill:#f06b6b;}.cls-15,.cls-16{fill:#fff;}.cls-17{fill:#1c1c1c;}.cls-18{clip-path:url(#clip-path-7);}.cls-19{stroke-width:3px;}.cls-21{fill:#674a5c;}.cls-22{fill:#fcb042;stroke:#562f09;stroke-miterlimit:10;}.cls-23{fill:#ed9520;}.cls-24{fill:#fce8c8;}.cls-25{fill:#e44b86;stroke:#b53167;}.cls-25,.cls-26{stroke-miterlimit:10;}.cls-26{fill:#a0a0b1;stroke:#71717f;}</style><clipPath id="clip-path" transform="translate(28.14)"><path class="cls-1" d="M190.23,274.77c1.45-5.6,6-7.06,7.89-6.64,3,.62,55.33,18.37,56.37,18.27s47.34-22.73,47.13-23.15c-1-2.91-1.66-4.67,2.91-19.31,3-9.34,14.22-6.12,20-4.25,4.88,1.55,13.19,7.26,11.94,12.35-4.36,17.65-8.82,18.37-21.07,23.88-5.19,2.28-54.82,30.41-61.88,30.93-6.33.42-57-20.66-60.1-23.05A8.86,8.86,0,0,1,190.23,274.77Z"/></clipPath><clipPath id="clip-path-2" transform="translate(28.14)"><path class="cls-1" d="M149.22,278.2c.42-5.5-4.25-8.41-4.56-8.62-1.46-1.14-49.83-5-50.77-5.29s-52.53-27-52.63-27.51c-2.59-9.55-7.58-15.05-15.67-19.31C17,212.9,15,212.28,5.86,226.4c-8.2,12.56-6.23,15.47,2.8,20.86,7.17,4.26,13.29,8,23.36,6.85.42,0,51.49,26.58,57.72,28.24,5.09,1.45,50.56,6,53.15,4.57C143.2,286.5,148.71,284.22,149.22,278.2Z"/></clipPath><clipPath id="clip-path-3" transform="translate(28.14)"><path class="cls-1" d="M173.41,244.88c-12.45,0-28.86,3.63-37.47,11.62-4.57,4.26-8.52,18-8.83,18.9-.72,2.28-4,35.29-6.33,50.34-1.56,10.7-5.09,24.82-6,35.61-.62,7.58-2.08,17.86-.31,25.23,1.45,5.92,5.08,13.8,9.44,18.06,3.33,3.32,9.35,5.92,13.81,7.48,10.59,3.73,25.85,6,37.06,5.91,9.66-.1,22.63-2.49,31.87-5.5,4.15-1.35,9.66-3.63,13.08-6.12,5-3.64,11.32-9.76,13.71-15.47,3.11-7.27,2.28-18.48,1.86-26.37-.62-11.11-5.29-25.23-7.16-36.13-2.91-16.4-5.4-46.19-8-54.81-.83-2.91-3.53-13.08-7.58-16.92C203.73,248.41,186.49,244.88,173.41,244.88Z"/></clipPath><clipPath id="clip-path-4" transform="translate(28.14)"><path class="cls-1" d="M120,225.15c15.68,1.46,16.92,1.46,22.11,1.77,6.75.41,18.58,1.76,38.93,3.94,13.29,1.45,24.19,3.32,29,4.15,5.09.83,4.16.83,30.21,3.22,13.39,1.25,14.64-.41,16,2.18,2.39,4.47-1.66,13.7-16.71,22.53-8.83,5.19-21.08,6.75-25.13,7.68-13.8,3.12-25.74,2.49-38.93.94-16.71-2-30.41-3.85-47.44-13.19-9.24-5.09-10.69-4.88-17.85-15.05-4.47-6.44-7.79-15.47-6-17.75C105.42,223.59,106.35,223.91,120,225.15Z"/></clipPath><clipPath id="clip-path-7" transform="translate(28.14)"><path class="cls-1" d="M191.68,60.61c28.86,3.22,54.5,11.52,72.05,33.74,23.87,30.21,25.64,70.69,19.1,104.33-2.28,11.52-8.41,27-12.25,36a84.1,84.1,0,0,1-41.84,43c-14.74,7-32.39,7.16-54.19,4.88-17.64-1.87-39.55-6-52.94-15.78-15.88-11.52-32.8-33.22-36.54-54.5-1.66-9.66-4.26-27.51-4-39.86.52-30.32,7.68-63.43,33.74-87.83C134.9,65.8,157.84,56.87,191.68,60.61Z"/></clipPath></defs><title>Alce glosa</title><g id="Layer_2" data-name="Layer 2"><g id="Frame_6" data-name="Frame 6"><g id="Alce"><g id="pierna_izq" data-name="pierna izq"><path class="cls-2" d="M208.19,469.52s2.59,7.58,12.56,7.17c9-.32,10.69-6.44,10.9-7.27.1-.42,1.14-33.95-2.59-47.13-3.53-12.67-17.55-43.39-20.14-44.64-.73-.31-7.17-1.76-14.54,2.08-7.78,4-10.59,9.86-10.48,11.31.1,2.7,17.13,26.16,22.73,38.31C210.47,437.86,207.36,467.14,208.19,469.52Z" transform="translate(28.14)"/><path class="cls-3" d="M231.65,469.42c.1-.42,1.14-33.95-2.59-47.13-3.53-12.67-17.55-43.39-20.14-44.64-.73-.31-7.17-1.76-14.54,2.08-7.78,4-10.59,9.86-10.48,11.31.1,2.7,17.13,26.16,22.73,38.31,3.84,8.41.83,37.68,1.56,40.17" transform="translate(28.14)"/></g><g id="pierna_der" data-name="pierna der"><path class="cls-2" d="M124.93,472.33c-.1.1-3,2.9-10.79,3.32-8.2.41-11.63-2.29-11.63-2.29s9-33,14-46.81c4.36-12.15,14.23-37.07,16.82-39.76,1.14-1.25,7.16-5.4,15.16-2a14.89,14.89,0,0,1,9,12.25c0,4.05-12.67,26.37-17.86,37.89C134.79,445.65,125,472.22,124.93,472.33Z" transform="translate(28.14)"/><path class="cls-3" d="M102.51,473.36c0-.1,9-33,14-46.81,4.36-12.15,14.23-37.07,16.82-39.76,1.14-1.25,7.16-5.4,15.16-2a14.89,14.89,0,0,1,9,12.25c0,4.05-12.67,26.37-17.86,37.89-4.88,10.7-14.53,37.38-14.63,37.38" transform="translate(28.14)"/></g><g id="pata_izq" data-name="pata izq"><path class="cls-4" d="M206.32,474.51a51,51,0,0,0-1.87,6.74c-.52,2.91-1.35,9.45-1,10,.52.73,12.77,1.66,17.76,1.66a168.21,168.21,0,0,0,18.16-1.45c1-.31.94-4.67.83-6.75a30.62,30.62,0,0,0-2-8.31c-.1-.2-3.53-5.6-5.92-6.95-2.9-1.66-6.12-1.66-11.1-1.87-3.74-.1-9.35.21-12.25,2.49C207.57,471.08,206.94,473.05,206.32,474.51Z" transform="translate(28.14)"/></g><g id="pata_der" data-name="pata der"><path class="cls-4" d="M128.36,474.3a50.71,50.71,0,0,1,1.87,6.75c.52,2.9,1.35,9.44,1,10-.52.73-12.77,1.66-17.76,1.66a168.21,168.21,0,0,1-18.16-1.45c-1-.31-.94-4.67-.83-6.75a30.56,30.56,0,0,1,2-8.3c.1-.21,3.53-5.61,5.92-7,2.9-1.66,6.12-1.66,11.1-1.87,3.74-.1,9.35.21,12.25,2.49C127.11,470.87,127.74,472.85,128.36,474.3Z" transform="translate(28.14)"/></g><g id="bra_izq" data-name="bra izq"><g id="brazo_izq" data-name="brazo izq"><path class="cls-2" d="M190.23,274.77c1.45-5.6,6-7.06,7.89-6.64,3,.62,55.33,18.37,56.37,18.27s47.34-22.73,47.13-23.15c-1-2.91-1.66-4.67,2.91-19.31,3-9.34,14.22-6.12,20-4.25,4.88,1.55,13.19,7.26,11.94,12.35-4.36,17.65-8.82,18.37-21.07,23.88-5.19,2.28-54.82,30.41-61.88,30.93-6.33.42-57-20.66-60.1-23.05A8.86,8.86,0,0,1,190.23,274.77Z" transform="translate(28.14)"/><path d="M190.23,274.77c1.45-5.6,5.92-7.47,8-7.06l-.2.83c-1.67-.41-6.23.63-7.79,6.23Z" transform="translate(28.14)"/><path d="M198.22,267.82c3.12.62,55.44,18.06,56.17,18l.1,1.45c-1.35,0-53.46-18.06-56.47-18.69Z" transform="translate(28.14)"/><path class="cls-5" d="M198.22,267.82l-.2.83" transform="translate(28.14)"/><path d="M254.39,285.78c.62,0,47-22.63,46.5-22.11l1.46-.52c-.21,1.35-46.62,24-47.76,24.18Z" transform="translate(28.14)"/><path class="cls-5" d="M254.39,285.78l.1,1.45" transform="translate(28.14)"/><path d="M300.89,263.56c-1-2.9-1.76-5.08,2.91-19.72l1.45.41c-4.67,14.64-4.05,15.89-3,18.79Z" transform="translate(28.14)"/><path class="cls-5" d="M300.89,263.56l1.46-.52" transform="translate(28.14)"/><path d="M303.8,243.84c3.43-9.86,15.16-6.54,21-4.67l-.42,1.45c-5.81-1.87-16.5-5.19-19.1,3.74Z" transform="translate(28.14)"/><path class="cls-5" d="M303.8,243.84l1.45.41" transform="translate(28.14)"/><path d="M324.87,239.06c5.09,1.66,13.6,7.58,12.36,13.29l-1.46-.31c1.35-4.47-6.64-10-11.42-11.52Z" transform="translate(28.14)"/><path class="cls-5" d="M324.87,239.06l-.41,1.46" transform="translate(28.14)"/><path d="M337.23,252.35c-4.47,17.75-9.35,18.89-21.49,24.4l-.63-1.35c12.25-5.51,16.3-5.82,20.66-23.36Z" transform="translate(28.14)"/><path class="cls-5" d="M337.23,252.35l-1.46-.31" transform="translate(28.14)"/><path d="M315.74,276.75c-5.19,2.28-54.81,30.41-62.08,31l-.11-1.46c6.75-.41,56.27-28.55,61.56-30.83Z" transform="translate(28.14)"/><path class="cls-5" d="M315.74,276.75l-.63-1.35" transform="translate(28.14)"/><path d="M253.66,307.79c-6.65.41-57.2-21-60.32-23.47l.52-.62c3,2.39,53.78,23.15,59.8,22.63Z" transform="translate(28.14)"/><path class="cls-5" d="M253.66,307.79l-.11-1.46" transform="translate(28.14)"/><path d="M193.24,284.22c-.41-.31-4.36-4.15-3-9.45h0c-1.45,5.3,3.11,8.52,3.53,8.83Z" transform="translate(28.14)"/><path class="cls-5" d="M193.24,284.22l.52-.62" transform="translate(28.14)"/></g><g id="relleno"><g class="cls-6"><path class="cls-4" d="M307.23,270c5.7,4.57,14.63,12.56,21.8,11.11,15.67-3.12,33.42-29.38,29.06-44.75-3.53-12.25-25.33-16.5-37.68-19.93-9.14-2.59-25-9-31.66-2.18-10,10.49,3.84,34.36,10.9,47A36,36,0,0,0,307.23,270Z" transform="translate(28.14)"/></g></g></g><g id="brazo_der" data-name="brazo der"><g id="bra_der" data-name="bra der"><path class="cls-2" d="M149.22,278.2c.42-5.5-4.25-8.41-4.56-8.62-1.46-1.14-49.83-5-50.77-5.29s-52.53-27-52.63-27.51c-2.59-9.55-7.58-15.05-15.67-19.31C17,212.9,15,212.28,5.86,226.4c-8.2,12.56-6.23,15.47,2.8,20.86,7.17,4.26,13.29,8,23.36,6.85.42,0,51.49,26.58,57.72,28.24,5.09,1.45,50.56,6,53.15,4.57C143.2,286.5,148.71,284.22,149.22,278.2Z" transform="translate(28.14)"/><path d="M149.22,278.2c.42-5.5-4.56-8.1-4.87-8.31l.51-.62c.21.11,4.78,3.43,4.36,8.93Z" transform="translate(28.14)"/><path d="M144.35,269.89c-1.25-1-49.63-4.56-50.77-4.87l.52-1.46c.83.31,49.1,4.47,50.76,5.71Z" transform="translate(28.14)"/><path class="cls-5" d="M144.35,269.89l.51-.62" transform="translate(28.14)"/><path d="M93.58,264.91c-1.14-.41-52.63-27-53.15-28l1.45-.41c-.2.1,51.18,26.68,52.12,27Z" transform="translate(28.14)"/><path class="cls-5" d="M93.58,264.91l.52-1.45" transform="translate(28.14)"/><path d="M40.43,237c-2.49-9.45-7.27-14.64-15.36-18.9l.72-1.35c8.2,4.36,13.39,10.18,16.09,19.83Z" transform="translate(28.14)"/><path class="cls-5" d="M40.43,237l1.45-.42" transform="translate(28.14)"/><path d="M25.17,218.09c-8.62-4.57-9.65-5.29-18.79,8.62l-1.25-.83c9.24-14.12,12.05-13.7,20.66-9.14Z" transform="translate(28.14)"/><path class="cls-5" d="M25.17,218.09l.73-1.35" transform="translate(28.14)"/><path d="M6.38,226.71c-8.1,12.35-6.44,14.43,2.49,19.72l-.72,1.25c-9.14-5.4-11.22-9.24-3-21.91Z" transform="translate(28.14)"/><path class="cls-5" d="M6.38,226.71l-1.25-.83" transform="translate(28.14)"/><path d="M8.87,246.43c7.16,4.26,13,7.89,22.84,6.75l.21,1.45c-10.28,1.25-16.72-2.69-23.77-6.95Z" transform="translate(28.14)"/><path class="cls-5" d="M8.87,246.43l-.72,1.25" transform="translate(28.14)"/><path d="M31.81,253.18c.83,0,51.91,26.68,57.93,28.24l-.41,1.45c-6.34-1.76-57.52-28.34-57.41-28.24Z" transform="translate(28.14)"/><path class="cls-5" d="M31.81,253.18l.21,1.45" transform="translate(28.14)"/><path d="M89.74,281.42c5,1.35,50.35,6.12,52.74,4.77l.52.94c-2.91,1.45-48.38-2.91-53.57-4.36Z" transform="translate(28.14)"/><path class="cls-5" d="M89.74,281.42l-.41,1.45" transform="translate(28.14)"/><path d="M142.48,286.3c.62-.32,6.23-2.08,6.74-8.1h0c-.41,6-5.71,8.82-6.22,9Z" transform="translate(28.14)"/><path class="cls-5" d="M142.48,286.3l.52.93" transform="translate(28.14)"/></g><g id="relleno-2" data-name="relleno"><g class="cls-7"><path class="cls-4" d="M36.69,242.49c-4.15,6.85-7.16,19.1-14.53,22.42C8.66,271-19.16,266.68-26.11,253.6c-6-11.32,7.26-29.38,13.91-40.28,5-8.1,12-22.95,21.59-23.26,15.88-.52,33.84,24.19,34.26,40.18C43.86,234.39,38.87,238.85,36.69,242.49Z" transform="translate(28.14)"/></g></g></g><g id="cuerpo"><g id="cuerpo-2" data-name="cuerpo"><path class="cls-8" d="M173.41,244.88c-12.45,0-28.86,3.63-37.47,11.62-4.57,4.26-8.52,18-8.83,18.9-.72,2.28-4,35.29-6.33,50.34-1.56,10.7-5.09,24.82-6,35.61-.62,7.58-2.08,17.86-.31,25.23,1.45,5.92,5.08,13.8,9.44,18.06,3.33,3.32,9.35,5.92,13.81,7.48,10.59,3.73,25.85,6,37.06,5.91,9.66-.1,22.63-2.49,31.87-5.5,4.15-1.35,9.66-3.63,13.08-6.12,5-3.64,11.32-9.76,13.71-15.47,3.11-7.27,2.28-18.48,1.86-26.37-.62-11.11-5.29-25.23-7.16-36.13-2.91-16.4-5.4-46.19-8-54.81-.83-2.91-3.53-13.08-7.58-16.92C203.73,248.41,186.49,244.88,173.41,244.88Z" transform="translate(28.14)"/></g><g id="detalle"><g class="cls-9"><path class="cls-10" d="M146.11,253c-11.21,13.5-18.79,37.06-18.06,37.38a88.51,88.51,0,0,1,8.92,3.32l-5.5,17.44L146,309.34s-5.3,16.72-4.78,17.24,18.27-7.17,18.27-7.17,10.59,14.85,14.64,14.85c2.49,0,13.18-14.33,13.18-14.33s16.09,7.79,16.61,7.37-2.8-14.64-2.8-14.64l13.91-2.8-6.85-16s6.85-1,10.59-1.55c.62-.11-4.36-20-19.62-41.94-3.84-5.5-17.13-15.57-26.27-15.26C163.24,235.22,150.68,247.47,146.11,253Z" transform="translate(28.14)"/></g></g></g><g id="cabeza"><g id="cabeza-2" data-name="cabeza"><path class="cls-8" d="M191.68,60.61c28.86,3.22,54.5,11.52,72.05,33.74,23.87,30.21,25.64,70.69,19.1,104.33-2.28,11.52-8.41,27-12.25,36a84.1,84.1,0,0,1-41.84,43c-14.74,7-32.39,7.16-54.19,4.88-17.64-1.87-39.55-6-52.94-15.78-15.88-11.52-32.8-33.22-36.54-54.5-1.66-9.66-4.26-27.51-4-39.86.52-30.32,7.68-63.43,33.74-87.83C134.9,65.8,157.84,56.87,191.68,60.61Z" transform="translate(28.14)"/></g><g id="OREJA_DER" data-name="OREJA DER"><g id="oreja_Der-2" data-name="oreja Der"><path class="cls-2" d="M94.1,138.68c-7.37-2.81-28,15.36-39,20-14,6-31.87,8.62-32.7,12.67-.94,4.77,21.8,17.65,33.22,19.93,8.3,1.66,23.56-1.25,27.92-3.74,6.33-3.53,22.22-15.15,22.63-25.33C106.77,143.56,98.56,140.34,94.1,138.68Z" transform="translate(28.14)"/><path class="cls-3" d="M94.1,138.68c-7.37-2.81-28,15.36-39,20-14,6-31.87,8.62-32.7,12.67-.94,4.77,21.8,17.65,33.22,19.93,8.3,1.66,23.56-1.25,27.92-3.74" transform="translate(28.14)"/></g></g><g id="OREJA_IZQ" data-name="OREJA IZQ"><g id="oreja_Der-3" data-name="oreja Der"><path class="cls-2" d="M277.12,166.29c7.79-1.25,24.4,20.66,34.15,27.61,12.56,8.83,29.49,14.95,29.38,19.11-.1,4.87-25,12.87-36.54,12.76-8.41-.1-22.84-6-26.57-9.34-5.51-4.77-18.69-19.41-17-29.38C263.62,168.47,272.34,167,277.12,166.29Z" transform="translate(28.14)"/><path class="cls-3" d="M277.12,166.29c7.79-1.25,24.4,20.66,34.15,27.61,12.56,8.83,29.49,14.95,29.38,19.11-.1,4.87-25,12.87-36.54,12.76-8.41-.1-22.84-6-26.57-9.34" transform="translate(28.14)"/></g></g><g id="cuerno_der" data-name="cuerno der"><path class="cls-11" d="M126.18,90c-20.24,7.79-52.11-1.66-71.42-11.63-19.62-10.07-51-30.1-51.91-52.21C2.44,17,9.91.19,18.94.5c6.85.21,5.81,17.76,12.46,19.11,7.58,1.55,13.49-17,21-14.95,7.68,2.18,2.49,23.25,10.38,24.6C70.12,30.4,72.2,9.54,79.57,10.78c13.7,2.49-2.39,34.67,5.6,46s20.66,17.54,40.9,20.66c2.81.41,7.69,2.18,8.1,5C134.59,85.73,129.19,88.85,126.18,90Z" transform="translate(28.14)"/></g><g id="cuerno_der_2" data-name="cuerno der 2"><path class="cls-11" d="M249.82,102c18,12.25,51.18,10.18,72.15,4.88,21.38-5.4,56.47-17.85,62.39-39.14,2.49-8.72-.94-26.88-9.87-28.65-6.74-1.35-9.65,16-16.5,15.78-7.68-.21-9.34-19.62-17-19.31-8,.31-7.68,22.11-15.67,21.6-7.48-.52-4.78-21.39-12.25-21.81-13.91-.72-5.5,34.26-15.88,43.61-10.28,9.13-24.09,12.45-44.54,10.9-2.8-.21-8,.31-8.93,3C242.65,95.91,247.12,100.16,249.82,102Z" transform="translate(28.14)"/></g><g id="boca"><g id="boca-2" data-name="boca"><path class="cls-12" d="M120,225.15c15.68,1.46,16.92,1.46,22.11,1.77,6.75.41,18.58,1.76,38.93,3.94,13.29,1.45,24.19,3.32,29,4.15,5.09.83,4.16.83,30.21,3.22,13.39,1.25,14.64-.41,16,2.18,2.39,4.47-1.66,13.7-16.71,22.53-8.83,5.19-21.08,6.75-25.13,7.68-13.8,3.12-25.74,2.49-38.93.94-16.71-2-30.41-3.85-47.44-13.19-9.24-5.09-10.69-4.88-17.85-15.05-4.47-6.44-7.79-15.47-6-17.75C105.42,223.59,106.35,223.91,120,225.15Z" transform="translate(28.14)"/></g><g id="lengua"><g class="cls-13"><path class="cls-14" d="M122.34,259.72c.72-7.47,13.7-11.42,20.86-13.91,9.76-3.32,24.09-3.11,34.36-2.08,12.88,1.35,31.36,3.53,41.43,11.53,5.19,4.15,13.08,12.45,11.52,18.89-2.18,8.93-18.17,12.35-27.1,14-18.27,3.42-44.63-.94-61-9.56C134.9,274.88,121.51,267.92,122.34,259.72Z" transform="translate(28.14)"/></g></g><g id="dientes"><g class="cls-13"><path class="cls-15" d="M74.27,157.47c2.6,4.46,70.8,11.94,111.08,16.19s112,7.48,112.12,7.37,2.38-39-6.54-52c-18.07-26.26-65.82-38.1-97.38-42.46-31.87-4.36-83.15-7.47-106,15.06C75.41,113.76,72.92,155.18,74.27,157.47Z" transform="translate(28.14)"/></g><g class="cls-13"><path class="cls-15" d="M289.16,272.7c-2.9-4.36-73.81.72-114.71-3.84C134.38,264.39,64,247.68,63.89,247.78s-6.12,49.31,4.88,65.71C86.42,340,134.59,351.59,166.15,356c31.87,4.36,82.73,7.06,106-15.05C287.4,326.37,290.93,275.4,289.16,272.7Z" transform="translate(28.14)"/></g></g></g><g id="ojos"><g id="ojos-2" data-name="ojos"><path class="cls-16" d="M115,174.08a44.26,44.26,0,0,1,.52-14.43c2.59-10.8,8.2-27,26.68-25.13,11.1,1.15,15.36,7.27,18.37,13.81,2.8,6.13,2,15.47,1,22.11-.62,4.26-2.39,10.38-4.47,13.91-2.59,4.68-9.44,9.24-14.74,10-7.26,1.14-18.27-.42-23.25-7.89A31.12,31.12,0,0,1,115,174.08Z" transform="translate(28.14)"/><path d="M115.07,159.44c2.6-10.9,8-27.82,27.2-26.06l-.21,2.18c-17.85-2.07-23.56,13.29-26.16,24.09Z" transform="translate(28.14)"/><path class="cls-5" d="M115.07,159.44l.73.21" transform="translate(28.14)"/><path d="M142.27,133.38c11.42,1.25,16.19,7.79,19.2,14.43l-2,.94c-2.9-6.44-6.75-12.15-17.44-13.19Z" transform="translate(28.14)"/><path class="cls-5" d="M142.27,133.38l-.21,2.18" transform="translate(28.14)"/><path d="M161.47,147.81c2.81,6.44,1.25,16,.32,22.53l-.52-.1c.93-6.54.93-15.89-1.77-21.6Z" transform="translate(28.14)"/><path class="cls-5" d="M161.47,147.81l-2,.94" transform="translate(28.14)"/><path d="M157.32,184.46c-2.7,4.67-9.45,9.44-14.84,10.28l-.11-.84c5.19-.72,11.94-5.19,14.54-9.75Z" transform="translate(28.14)"/><path class="cls-5" d="M157.32,184.46l-.52-.31" transform="translate(28.14)"/><path d="M142.48,194.73c-7.37,1.15-18.69-.2-23.88-8l1-.73c4.77,7.38,15.47,8.93,22.63,7.89Z" transform="translate(28.14)"/><path class="cls-5" d="M142.48,194.73l-.11-.83" transform="translate(28.14)"/><path d="M118.6,186.74c-2.6-3.94-3.32-8.82-3.94-12.66l.41-.11a31.9,31.9,0,0,0,4.57,12Z" transform="translate(28.14)"/><path class="cls-5" d="M118.6,186.74l1-.73" transform="translate(28.14)"/><path class="cls-16" d="M252.93,189.86c1.56-4.05,2.91-10,2.7-14.23-.41-11.1-1.87-28.54-20.45-30.62-11.52-1.25-16.71,3.84-21,9.45-3.94,5.29-5.4,14.95-5.81,21.17-.31,4.36,0,10.7,1.14,14.64,1.56,5.09,7.06,11,12,13,6.85,2.7,17.86,3.73,24.4-2.39C249.4,197.75,251.48,193.49,252.93,189.86Z" transform="translate(28.14)"/><path d="M255.32,175.63c-.42-11.1-2.18-27.82-20.24-29.58l.2-2.18c19.31,2.39,20.35,20.55,20.77,31.66Z" transform="translate(28.14)"/><path class="cls-5" d="M255.32,175.63h.73" transform="translate(28.14)"/><path d="M235.08,146.05c-11.22-1.35-15.78,3.53-20,9l-1.76-1.35c4.25-5.61,10.07-11.11,21.9-9.86Z" transform="translate(28.14)"/><path class="cls-5" d="M235.08,146.05l.2-2.18" transform="translate(28.14)"/><path d="M215,155.08c-3.84,5-5.92,14.33-6.44,20.55h-.51c.51-6.33,1.14-16.29,5.29-21.8Z" transform="translate(28.14)"/><path class="cls-5" d="M215,155.08l-1.76-1.35" transform="translate(28.14)"/><path d="M209.85,190.27c1.45,5,7.06,10.8,11.94,12.67l-.31.72c-5.09-2-10.59-8.2-12.15-13.29Z" transform="translate(28.14)"/><path class="cls-5" d="M209.85,190.27l-.52.21" transform="translate(28.14)"/><path d="M221.79,202.94c6.75,2.7,17.54,3.53,23.88-2.5l.93.94c-6.85,6.33-18.17,5.09-25,2.39Z" transform="translate(28.14)"/><path class="cls-5" d="M221.79,202.94l-.31.72" transform="translate(28.14)"/><path d="M245.56,200.44a30.16,30.16,0,0,0,7.16-10.69l.42.21c-1.45,3.63-3.22,8.2-6.64,11.42Z" transform="translate(28.14)"/><path class="cls-5" d="M245.56,200.44l.94.94" transform="translate(28.14)"/></g><g id="pupilas"><path class="cls-17" d="M145,158.4c4.67.52,8.1,5.71,7.37,12.15s-5.3,10.69-10,10.17S134.28,175,135,168.57,140.3,157.88,145,158.4Z" transform="translate(28.14)"/><path class="cls-17" d="M226.67,167.54c4.46.52,7.47,5.91,6.75,12.14s-4.88,10.8-9.35,10.28-7.47-5.92-6.75-12.15S222.2,167,226.67,167.54Z" transform="translate(28.14)"/></g></g><g id="cejas"><g class="cls-18"><path class="cls-19" d="M131.06,106.6s11.42-5,20.66-3.43c8.3,1.35,16.81,8.83,16.81,8.83" transform="translate(28.14)"/></g><g class="cls-18"><path class="cls-19" d="M251.27,113.76s-10.8-6.75-18.79-7.06c-7.27-.31-17.44,5-17.44,5" transform="translate(28.14)"/></g></g><g id="nariz"><g class="cls-18"><path class="cls-20" d="M166.77,205.12a3.65,3.65,0,0,1,2.59,1.86,3.49,3.49,0,0,1-.2,2.7c-.63,1.15-2.08,2.6-3.33,2.5-.93,0-2-1.15-2.38-2a4.08,4.08,0,0,1,.1-3.32A4.21,4.21,0,0,1,166.77,205.12Z" transform="translate(28.14)"/></g><g class="cls-18"><path class="cls-20" d="M199.47,208.85a3.69,3.69,0,0,1,2.59,1.87,3.49,3.49,0,0,1-.2,2.7c-.63,1.14-2.08,2.6-3.33,2.49-.93,0-2-1.14-2.38-2a4.08,4.08,0,0,1,.1-3.32A4.25,4.25,0,0,1,199.47,208.85Z" transform="translate(28.14)"/></g></g><g id="Mechon"><path class="cls-21" d="M176.84,75.46c-2.91-11.42,3.74-30.32,13.7-37,15.37-10.28,32.6-4.67,32.6-4.67s-13.29,3.73-17.65,7.37c-2.6,2.07-6.54,8.93-6.54,8.93s13.18-4.88,25.33-3.64c4.78.52,15.36,4.26,15.47,4.26S216.39,57,208.6,63.41c-4.56,3.74-6.54,12.67-11.31,16.2-3.32,2.39-9.14,5.5-13,4.36C181.3,83,177.67,78.67,176.84,75.46Z" transform="translate(28.14)"/></g></g></g><rect class="cls-22" x="267.47" y="243.53" width="88.96" height="15.67" transform="translate(24.95 498.73) rotate(-76.99)"/><rect class="cls-23" x="264.55" y="245.95" width="88.96" height="8.51" transform="translate(23.82 494.99) rotate(-76.99)"/><path class="cls-24" d="M310,297.09,299.44,310.8a1.18,1.18,0,0,1-1.56.41,1.22,1.22,0,0,1-.52-.73l-3.63-17.12Z" transform="translate(28.14)"/><path d="M296.64,307.06l.72,3.32a1,1,0,0,0,1.35.83,1.21,1.21,0,0,0,.73-.52l2.08-2.59Z" transform="translate(28.14)"/><path class="cls-25" d="M326.33,198.26l-3-.62c-4.16-.93-7.89,2.29-8.41,4.36h0c-.52,2.08-.52,3.95,1.66,4.47L327.36,209c2.08.52,2.81-1.14,3.22-3.32h0C331.21,203.56,329.54,199,326.33,198.26Z" transform="translate(28.14)"/><path class="cls-26" d="M313.77,204.29,331,208.23a.79.79,0,0,1,.52.73l-1.46,6.43a.77.77,0,0,1-.72.52L312.1,212a.79.79,0,0,1-.51-.73L313,204.8C313,204.39,313.35,204.18,313.77,204.29Z" transform="translate(28.14)"/></g></g></svg>