<svg xmlns="http://www.w3.org/2000/svg" viewBox="0 0 134.99 120.13"><defs><style>.cls-1,.cls-9{fill:none;}.cls-2,.cls-5,.cls-6{fill:#c0a5b4;}.cls-3{fill:#f7e8ed;}.cls-4{fill:#ffe3c3;}.cls-10,.cls-4,.cls-5,.cls-6,.cls-7,.cls-8,.cls-9{stroke:#000;stroke-miterlimit:10;}.cls-10,.cls-4,.cls-5,.cls-6,.cls-7,.cls-9{stroke-width:0.25px;}.cls-5,.cls-9{stroke-linecap:round;}.cls-7{fill:#674a5c;}.cls-8{fill:#fff;stroke-width:0.5px;}.cls-10{fill:#615a52;}</style></defs><title>Mistake feedback_alce</title><g id="Layer_2" data-name="Layer 2"><g id="Layer_1-2" data-name="Layer 1"><rect class="cls-1" x="1.5" width="133.49" height="120"/><polyline class="cls-1" points="130.01 120.13 133.63 120.13 133.63 0 0 0 0 120.13 54.42 120.13 54.42 119.78"/><path class="cls-2" d="M76,120H115.9c-.55-1.59-1.12-3.35-1.75-4.78-5.36-12-13.53-20.83-21.54-20.54-12.3.45-17.21,10.19-16.33,17.91A31.77,31.77,0,0,1,76,120Z"/><path d="M75.86,120h.26a31.8,31.8,0,0,0,.28-7.43,16.26,16.26,0,0,1,3.72-12.23c2.95-3.43,7.28-5.34,12.5-5.54H93c7.37,0,15.4,7.79,21,20.47.59,1.33,1.16,3.07,1.73,4.73H116c-.58-1.7-1.16-3.47-1.77-4.83C108.58,102.4,100.47,94.55,93,94.55h-.39c-5.3.2-9.68,2.14-12.67,5.63a16.43,16.43,0,0,0-3.78,12.42A31.7,31.7,0,0,1,75.86,120Z"/><path class="cls-3" d="M81.13,111.61c.7,1.28,3.93,1,4.41,1.6.24.28.74,3.63,1.41,6.79h28.72c-.68-1.94-1.31-3.86-1.67-4.62-1.3-2.74-4.63-11.48-13-17.81C96.26,94,88,93.42,81.69,98.85c-.28.24,4.17.94,4.08,3S80.43,110.33,81.13,111.61Z"/><path d="M81,111.67c.46.83,1.85,1,3,1.22a3.56,3.56,0,0,1,1.47.4,26.52,26.52,0,0,1,.77,3.41c.18,1,.38,2.24.61,3.3h.25c-.23-1.08-.43-2.38-.62-3.34a17.3,17.3,0,0,0-.82-3.53,3.15,3.15,0,0,0-1.62-.48c-1.06-.17-2.38-.38-2.78-1.1s1-2.85,2.24-4.82,2.37-3.86,2.41-4.87c.07-1.56-2.22-2.36-3.46-2.79a5.3,5.3,0,0,1-.56-.21c6.33-5.33,14.52-4.61,19-1.19,7.52,5.68,11,13.46,12.51,16.78.18.38.33.72.45,1,.36.75,1,2.62,1.65,4.56h.27c-.69-2-1.32-3.9-1.69-4.67-.13-.27-.28-.6-.45-1-1.5-3.34-5-11.16-12.59-16.88-4.74-3.58-12.95-4.29-19.46,1.29l-.07.07,0,.07c0,.14.18.2.79.41,1.17.41,3.35,1.16,3.29,2.54,0,.94-1.23,2.88-2.37,4.75C81.84,108.92,80.61,110.93,81,111.67Z"/><path class="cls-2" d="M65.46,120a2.21,2.21,0,0,1,.06-1.38c.91-2.51,11.62-5.89,14.91-5.67l-.1-12.61c-2.48-.08-21.1,8.09-24.36,16.69a4.61,4.61,0,0,0,.1,3Z"/><path d="M80.11,112.81c-3.72,0-13.83,3.34-14.71,5.77a2.34,2.34,0,0,0-.07,1.42h.26a2.18,2.18,0,0,1,0-1.34c.86-2.36,10.79-5.6,14.46-5.6h.33a.13.13,0,0,0,.14-.11.14.14,0,0,0-.12-.14Z"/><path d="M56.2,120a4.48,4.48,0,0,1-.12-2.92c3.2-8.44,21.69-16.61,24.22-16.61,0,0,0,0,0,0a.13.13,0,0,0,.13-.12.12.12,0,0,0-.12-.13h0c-2.62,0-21.13,8-24.45,16.77a4.73,4.73,0,0,0,.09,3Z"/><path class="cls-4" d="M86.93,29.36c4.48-1,9.61-.9,13-6.5s4.22-7.61,4.39-11.15.5-4.65,2.62-5,1.92,4.13,4.39,4.45S113,4.49,116.59,4.4s3.66,4.47,4.69,7.56,4.22-1.33,4.55-3.44,5.8-3.4,5.78,6.53-13.35,15.78-20.39,17.54-18.29,1.86-22,.78S84.41,29.93,86.93,29.36Z"/><path class="cls-5" d="M96.72,37.57a42.76,42.76,0,0,0,15,2.67c7.62.15,15.64-6.12,17-5.28s2,5.44-1.81,10.71S115.3,57,108.62,57.65"/><path class="cls-6" d="M88.2,25c13.8,2.29,26.69,8.07,31.33,21.05,4.1,11.49,4.75,25.6,3.28,31.51s.08,15,1,16.9.33,5.58-4.26,10c-7.75,7.46-29.7,12.63-48.59-.14-18.19-12.3-22.79-25-24.1-41.7C45.49,45.44,57.83,20,88.2,25Z"/><path class="cls-5" d="M47.37,54.34A43.08,43.08,0,0,1,40.73,68c-4.36,6.25-14.15,9-14.28,10.64s3.2,4.84,9.72,4.84,16-2.66,20.43-7.71"/><path class="cls-7" d="M66,33.32a13,13,0,0,1-1-8.8c1.23-4.74,4.61-11.2,15.2-9.17,0,0-7.33.12-9.42,6.28,0,0,5.72-3.57,11.75-.62s11.33,9.91,11.33,9.91a48.09,48.09,0,0,0-10.65-3.69c-4.74-.8-8.61,3.93-8.61,3.93"/><path class="cls-4" d="M62,42.49c-5.74.94-12.42,2.87-19-2.1S35.14,34.11,33.25,30s-2.79-5.22-5.42-4.56-.29,5.75-3,7.3-5.21-7.07-9.43-5.48-2.17,7-1.9,11.1-5.59.45-7-1.87-8.43-1.24-3.69,10.41S26,59.1,35.06,57.82s22.35-6.51,26.24-9.57S65.25,42,62,42.49Z"/><path class="cls-8" d="M87,77.68c.23-4.7-3.3-12.94-7.3-12.94-4.72,0-9.17,5.18-9.41,12.24S77.58,87.33,83,84.74C85.81,82.62,86.8,81.47,87,77.68Z"/><ellipse cx="82.34" cy="75.58" rx="4.08" ry="5.61" transform="translate(-9.13 11.35) rotate(-7.47)"/><path class="cls-8" d="M105.11,72.07c.13-4.5,2.07-9.83,5.36-10.33,3.73-.56,8.1,4,8.46,11a7.09,7.09,0,0,1-10.63,6.89C106.19,77.5,105,75.69,105.11,72.07Z"/><ellipse cx="112.55" cy="71.68" rx="3.61" ry="5.07" transform="translate(-2.83 4.65) rotate(-2.34)"/><path class="cls-6" d="M67.8,64c3.57,2.19,6.89,4,11.94,3.34A17.32,17.32,0,0,0,88,64"/><path class="cls-6" d="M104.23,54.73c1-2.71,2.58-5.48,6.39-5.41,5.09.08,6,5.66,6,5.66"/><path class="cls-9" d="M96,97.06c-.77,0-1.74.62-2.23,2a3.21,3.21,0,0,0,.38,2.66"/><ellipse cx="97.44" cy="99.14" rx="0.72" ry="0.78"/><path class="cls-2" d="M113.22,120h12.35c-1.75-2.52-3.5-5.45-3.26-5.58.81-.44,6-4.86,6.13-6.65s-4.78-10.61-8-11.08-8.73,4.65-10,7.19c-.54,1.09-2.16,3.62,1.7,13.41C112.49,118.22,112.85,119.26,113.22,120Z"/><path d="M113.08,120h.28c-.4-.78-.77-1.85-1.12-2.76-3.7-9.37-2.35-12-1.77-13.18l.06-.13c1.21-2.45,6.28-7.14,9.44-7.14a2.73,2.73,0,0,1,.41,0c3.23.46,8,9.21,7.94,10.94s-5.26,6.1-6.07,6.55a.15.15,0,0,0-.08.11c-.1.4,1.66,3.29,3.25,5.58h.3a29.25,29.25,0,0,1-3.3-5.5c1-.59,6.06-4.9,6.15-6.72s-4.83-10.73-8.15-11.21-8.79,4.57-10.11,7.25l-.07.13c-.59,1.17-2,3.91,1.76,13.38C112.35,118.21,112.7,119.24,113.08,120Z"/><path class="cls-10" d="M114.59,112.19c-2.22-1.51-5-5.46-5-5.46a11,11,0,0,1,4.11-7.67,9.61,9.61,0,0,1,6.77-2.35c1.47.28,3.43,2.38,5.88,6.23,2.57,5.08,2.21,5.27,1.68,6.28a12.1,12.1,0,0,1-2.53,3.43c-1.06.91-2.41,1.84-3.23,1.77C122.31,114.42,116.53,113.5,114.59,112.19Z"/></g></g></svg>