<svg xmlns="http://www.w3.org/2000/svg" viewBox="0 0 154.2 119.39"><defs><style>.e21edecd-4823-45f0-88fe-cd9c59651cae{fill:none;}.b6221ba4-ffbe-44a9-88db-aceec75218f7{fill:#bfbd60;}.f45dadd4-d44a-421a-9d8d-18e92f394cec{fill:#adadad;}.e1c5f6fe-66fc-4fcc-b0e6-bf038971ad46{fill:#d9d9d9;}.ecf6412a-1a9e-4aa8-a71b-2c84559edd09{fill:#e0dfcd;}.b47b2c62-4a5d-404f-9d53-2e75009842d9{fill:#fffef3;}.b67ddc9a-d363-40ea-ac68-090388f9f56c{fill:#d3d2cd;}.f834f0c0-c761-4271-a28b-e4bf4eb0468c{fill:#dcdfe0;}.a1d69e1a-4ced-429e-b513-d35032a4d1b2{fill:#bcbec0;}.ef094277-9124-4ea7-9113-bb2278b77f96{fill:#9b9a98;}</style></defs><title>100 6</title><g id="e4babcf9-ff63-48d7-bd9a-e048a322d4ef" data-name="Capa 2"><g id="f9174e9a-ea4c-4f2f-b2fd-59ae75771108" data-name="Capa 1"><rect class="e21edecd-4823-45f0-88fe-cd9c59651cae" width="154.2" height="119.39"/><g id="f9aaef1a-134a-4aba-bf0c-fcb76309087d" data-name="bf988b65-8b2a-4d2e-88c5-a4c6f97bf6e3"><g id="b6d260f6-e69e-4387-9752-c53a9fa6327f" data-name="fc1b97ca-f204-4393-8c37-b3a82605ab53"><circle class="b6221ba4-ffbe-44a9-88db-aceec75218f7" cx="25.7" cy="30.63" r="25.7"/><circle class="f45dadd4-d44a-421a-9d8d-18e92f394cec" cx="25.7" cy="30.63" r="21.2"/><path class="e1c5f6fe-66fc-4fcc-b0e6-bf038971ad46" d="M5.24,31A21.21,21.21,0,0,1,35.53,11.84a21.21,21.21,0,0,0-20.22,37.3l.28.14,1,.51A21.21,21.21,0,0,1,5.24,31Z"/><path class="ecf6412a-1a9e-4aa8-a71b-2c84559edd09" d="M35.53,11.84a21.22,21.22,0,0,1-18.92,38A21.23,21.23,0,0,0,36.55,12.35Z"/><path class="b47b2c62-4a5d-404f-9d53-2e75009842d9" d="M25.45,50.53a19.2,19.2,0,0,1-9.18-2.72A19.56,19.56,0,0,1,9.6,41.22a19.13,19.13,0,0,0,7,5.94A18.27,18.27,0,0,0,25.41,49Z"/><path class="b67ddc9a-d363-40ea-ac68-090388f9f56c" d="M26.61,49a18.27,18.27,0,0,0,8.81-1.86,19.13,19.13,0,0,0,7-5.94,19.83,19.83,0,0,1-6.67,6.62,19.2,19.2,0,0,1-9.18,2.72Z"/><path class="e1c5f6fe-66fc-4fcc-b0e6-bf038971ad46" d="M11.18,23.36H14V38.68H10.91V26.31L8.06,27.93,6.83,25.65Z"/><path class="e1c5f6fe-66fc-4fcc-b0e6-bf038971ad46" d="M28.08,25.38a9.44,9.44,0,0,1,0,11.33,6.19,6.19,0,0,1-8.72.82,7,7,0,0,1-.81-.82,9.47,9.47,0,0,1,0-11.35,6.17,6.17,0,0,1,8.65-.88,7.31,7.31,0,0,1,.88.88Zm-7.26,1.84a8.07,8.07,0,0,0,0,7.72,2.92,2.92,0,0,0,4,1.08,2.87,2.87,0,0,0,1.08-1.08,6.89,6.89,0,0,0,1-3.84,7.05,7.05,0,0,0-1-3.87,3,3,0,0,0-2.53-1.51A2.87,2.87,0,0,0,20.82,27.22Z"/><path class="e1c5f6fe-66fc-4fcc-b0e6-bf038971ad46" d="M43.55,25.38a9.44,9.44,0,0,1,0,11.33,6.19,6.19,0,0,1-8.72.82,7,7,0,0,1-.81-.82,9.47,9.47,0,0,1,0-11.35,6.17,6.17,0,0,1,8.65-.88,7.31,7.31,0,0,1,.88.88Zm-7.26,1.84a8,8,0,0,0,0,7.72,2.92,2.92,0,0,0,4,1.08,2.87,2.87,0,0,0,1.08-1.08,6.89,6.89,0,0,0,1-3.84,7.05,7.05,0,0,0-1-3.87,3,3,0,0,0-2.53-1.51A2.87,2.87,0,0,0,36.29,27.22Z"/><path class="f834f0c0-c761-4271-a28b-e4bf4eb0468c" d="M11,23.12h2.85V38.44H10.7V26.07L7.85,27.73,6.62,25.41Z"/><path class="f834f0c0-c761-4271-a28b-e4bf4eb0468c" d="M27.84,25.14a9.44,9.44,0,0,1,0,11.33,6.19,6.19,0,0,1-8.72.82,7,7,0,0,1-.81-.82,9.47,9.47,0,0,1,0-11.35,6.13,6.13,0,0,1,8.63-.93l.06,0a6.8,6.8,0,0,1,.89.89Zm-7.26,1.79a8,8,0,0,0,0,7.72,2.92,2.92,0,0,0,4,1.08,2.87,2.87,0,0,0,1.08-1.08,8.16,8.16,0,0,0,0-7.71,2.9,2.9,0,0,0-2.52-1.51A2.84,2.84,0,0,0,20.58,26.93Z"/><path class="f834f0c0-c761-4271-a28b-e4bf4eb0468c" d="M43.31,25.14a9.44,9.44,0,0,1,0,11.33,6.19,6.19,0,0,1-8.72.82,7,7,0,0,1-.81-.82,9.47,9.47,0,0,1,0-11.35,6.14,6.14,0,0,1,8.64-.89h0a6.8,6.8,0,0,1,.89.89Zm-7.26,1.79a8,8,0,0,0,0,7.72,2.92,2.92,0,0,0,4,1.08,2.87,2.87,0,0,0,1.08-1.08,8.16,8.16,0,0,0,0-7.71,2.9,2.9,0,0,0-2.52-1.51A2.84,2.84,0,0,0,36.05,26.93Z"/><g id="a4b328cf-88df-432f-8f5f-cdf38afa448f" data-name="bf7449cb-8eb6-4337-a990-d940a14999db"><path class="a1d69e1a-4ced-429e-b513-d35032a4d1b2" d="M25.65,16.56h-.47l-.46,1.56a2.92,2.92,0,0,1-.72.06,2.35,2.35,0,0,1-.83-.11L23.11,18l2.36-7.2a8.4,8.4,0,0,1,1-.07,6.63,6.63,0,0,1,1,.08L29.79,18a1.57,1.57,0,0,1-.85.2,1.16,1.16,0,0,1-.79-.19,1.54,1.54,0,0,1-.38-.74l-.21-.71Zm0-1.35h1.53L27,14.55c-.16-.6-.36-1.34-.58-2.21h-.07c-.06.3-.23,1-.51,2Z"/></g><g id="e7256d6b-e013-4ed9-b8f2-db01effb0ba6" data-name="e87e0613-0c1c-4ca6-9449-9348143370fa"><path class="ef094277-9124-4ea7-9113-bb2278b77f96" d="M25.43,16.56H25l-.46,1.56a2.92,2.92,0,0,1-.72.06,2.4,2.4,0,0,1-.84-.11L22.93,18l2.36-7.2a8.4,8.4,0,0,1,1-.07,6.63,6.63,0,0,1,1,.08L29.6,18a1.56,1.56,0,0,1-.84.2A1.16,1.16,0,0,1,28,18a1.46,1.46,0,0,1-.38-.74l-.21-.71Zm0-1.35H27l-.19-.66c-.17-.6-.36-1.34-.58-2.21h-.08c-.06.3-.23,1-.52,2Z"/></g><circle class="b6221ba4-ffbe-44a9-88db-aceec75218f7" cx="77.1" cy="30.63" r="25.7"/><circle class="f45dadd4-d44a-421a-9d8d-18e92f394cec" cx="77.1" cy="30.63" r="21.2"/><path class="e1c5f6fe-66fc-4fcc-b0e6-bf038971ad46" d="M56.63,31a21.22,21.22,0,0,1,30.3-19.16A21.21,21.21,0,0,0,67,49.28l1,.51A21.19,21.19,0,0,1,56.63,31Z"/><path class="ecf6412a-1a9e-4aa8-a71b-2c84559edd09" d="M86.93,11.84A21.21,21.21,0,0,1,68,49.79,21.22,21.22,0,1,0,88,12.35Z"/><path class="b47b2c62-4a5d-404f-9d53-2e75009842d9" d="M76.85,50.53a19.27,19.27,0,0,1-9.19-2.72A19.53,19.53,0,0,1,61,41.22a19.13,19.13,0,0,0,7,5.94A18.31,18.31,0,0,0,76.82,49Z"/><path class="b67ddc9a-d363-40ea-ac68-090388f9f56c" d="M78,49a18.27,18.27,0,0,0,8.81-1.86,19.13,19.13,0,0,0,7-5.94,19.53,19.53,0,0,1-6.66,6.62A19.2,19.2,0,0,1,78,50.53Z"/><path class="e1c5f6fe-66fc-4fcc-b0e6-bf038971ad46" d="M62.61,23.36h2.85V38.68H62.34V26.31l-2.85,1.62-1.24-2.32Z"/><path class="e1c5f6fe-66fc-4fcc-b0e6-bf038971ad46" d="M79.47,25.38a9.44,9.44,0,0,1,0,11.33,6.19,6.19,0,0,1-8.72.82,7,7,0,0,1-.81-.82,9.47,9.47,0,0,1,0-11.35,6.17,6.17,0,0,1,8.65-.88,7.31,7.31,0,0,1,.88.88Zm-7.29,1.84a8.07,8.07,0,0,0,0,7.72,2.92,2.92,0,0,0,4,1.08,2.87,2.87,0,0,0,1.08-1.08,6.89,6.89,0,0,0,1-3.84,7.05,7.05,0,0,0-1-3.87,2.9,2.9,0,0,0-5.08,0Z"/><path class="e1c5f6fe-66fc-4fcc-b0e6-bf038971ad46" d="M94.94,25.38a9.44,9.44,0,0,1,0,11.33,6.19,6.19,0,0,1-8.72.82,7,7,0,0,1-.81-.82,9.47,9.47,0,0,1,0-11.35,6,6,0,0,1,4.77-2.25A5.91,5.91,0,0,1,94.94,25.38Zm-7.26,1.84a8.07,8.07,0,0,0,0,7.72,2.92,2.92,0,0,0,4,1.08,2.87,2.87,0,0,0,1.08-1.08,6.89,6.89,0,0,0,1-3.84,7.05,7.05,0,0,0-1-3.87,2.92,2.92,0,0,0-2.58-1.54A2.88,2.88,0,0,0,87.68,27.22Z"/><path class="f834f0c0-c761-4271-a28b-e4bf4eb0468c" d="M62.37,23.12h2.81V38.44H62.06V26.07L59.2,27.73,58,25.41Z"/><path class="f834f0c0-c761-4271-a28b-e4bf4eb0468c" d="M79.23,25.14a9.44,9.44,0,0,1,0,11.33,6.19,6.19,0,0,1-8.72.82,7,7,0,0,1-.81-.82,9.47,9.47,0,0,1,0-11.35,6.14,6.14,0,0,1,8.64-.89h0a6.8,6.8,0,0,1,.89.89ZM72,26.93a8.07,8.07,0,0,0,0,7.72,2.92,2.92,0,0,0,4,1.08,2.87,2.87,0,0,0,1.08-1.08,6.89,6.89,0,0,0,1-3.84,7.05,7.05,0,0,0-1-3.87,2.9,2.9,0,0,0-5.08,0Z"/><path class="f834f0c0-c761-4271-a28b-e4bf4eb0468c" d="M94.7,25.14a9.44,9.44,0,0,1,0,11.33,6.19,6.19,0,0,1-8.72.82,7,7,0,0,1-.81-.82,9.47,9.47,0,0,1,0-11.35,6.14,6.14,0,0,1,8.64-.89h0a6.8,6.8,0,0,1,.89.89Zm-7.26,1.79a8.07,8.07,0,0,0,0,7.72,2.92,2.92,0,0,0,4,1.08,2.87,2.87,0,0,0,1.08-1.08,6.89,6.89,0,0,0,1-3.84,7.05,7.05,0,0,0-1-3.87,2.91,2.91,0,0,0-5.08,0Z"/><g id="b3da5e71-64a4-4af3-affe-acbc362e1a60" data-name="b5f0aadc-c5c6-4941-91d7-405376bdd05f"><path class="a1d69e1a-4ced-429e-b513-d35032a4d1b2" d="M77.05,16.56h-.43l-.44,1.55a2.92,2.92,0,0,1-.72.06,2.4,2.4,0,0,1-.84-.11v-.13L77,10.77a8.4,8.4,0,0,1,1-.07,5.55,5.55,0,0,1,1,.08L81.2,18a1.57,1.57,0,0,1-.85.2,1.14,1.14,0,0,1-.78-.19,1.62,1.62,0,0,1-.37-.78l-.2-.71H77Zm0-1.35h1.6l-.19-.66c-.17-.6-.37-1.34-.59-2.21h-.06c-.06.3-.23,1-.52,2Z"/></g><g id="f4af5938-e1be-4f17-b6f2-4d6dea375d48" data-name="b4193202-e05c-4172-a724-30bd9566c64c"><path class="ef094277-9124-4ea7-9113-bb2278b77f96" d="M76.83,16.56H76.4l-.46,1.56a3.23,3.23,0,0,1-.76.1,2.4,2.4,0,0,1-.84-.11V18l2.36-7.2a8.4,8.4,0,0,1,1-.07,5.55,5.55,0,0,1,1,.08L81,18a1.57,1.57,0,0,1-.85.2,1.14,1.14,0,0,1-.78-.19,1.56,1.56,0,0,1-.39-.74l-.2-.71H76.86Zm0-1.35h1.59l-.18-.66c-.17-.6-.37-1.34-.59-2.21h-.06c-.06.3-.23,1-.52,2Z"/></g><circle class="b6221ba4-ffbe-44a9-88db-aceec75218f7" cx="128.5" cy="30.63" r="25.7"/><circle class="f45dadd4-d44a-421a-9d8d-18e92f394cec" cx="128.5" cy="30.63" r="21.2"/><path class="e1c5f6fe-66fc-4fcc-b0e6-bf038971ad46" d="M108,31a21.22,21.22,0,0,1,30.32-19.16,21.22,21.22,0,0,0-18.91,38A21.18,21.18,0,0,1,108,31Z"/><path class="ecf6412a-1a9e-4aa8-a71b-2c84559edd09" d="M138.32,11.84a21.22,21.22,0,1,1-18.91,38h0a21.22,21.22,0,1,0,18.91-38Z"/><path class="b47b2c62-4a5d-404f-9d53-2e75009842d9" d="M128.24,50.53a19.2,19.2,0,0,1-9.18-2.72,19.53,19.53,0,0,1-6.66-6.59,19.13,19.13,0,0,0,7,5.94A18.27,18.27,0,0,0,128.21,49Z"/><path class="b67ddc9a-d363-40ea-ac68-090388f9f56c" d="M129.4,49a18.15,18.15,0,0,0,8.78-1.86,19.49,19.49,0,0,0,7-5.94,19.8,19.8,0,0,1-6.66,6.62,19.27,19.27,0,0,1-9.19,2.72Z"/><path class="e1c5f6fe-66fc-4fcc-b0e6-bf038971ad46" d="M114,23.36h2.86V38.68h-3.13V26.31l-2.85,1.62-1.23-2.32Z"/><path class="e1c5f6fe-66fc-4fcc-b0e6-bf038971ad46" d="M130.87,25.38a9.44,9.44,0,0,1,0,11.33,6.19,6.19,0,0,1-8.72.82,7,7,0,0,1-.81-.82,9.47,9.47,0,0,1,0-11.35,6.17,6.17,0,0,1,8.65-.88,7.31,7.31,0,0,1,.88.88Zm-7.26,1.84a8,8,0,0,0,0,7.72,2.92,2.92,0,0,0,4,1.08,2.87,2.87,0,0,0,1.08-1.08,6.89,6.89,0,0,0,1-3.84,7.05,7.05,0,0,0-1-3.87,3,3,0,0,0-2.53-1.51A2.87,2.87,0,0,0,123.61,27.22Z"/><path class="e1c5f6fe-66fc-4fcc-b0e6-bf038971ad46" d="M146.34,25.38a9.44,9.44,0,0,1,0,11.33,6.19,6.19,0,0,1-8.72.82,7,7,0,0,1-.81-.82,9.47,9.47,0,0,1,0-11.35,6.17,6.17,0,0,1,8.65-.88,7.31,7.31,0,0,1,.88.88Zm-7.26,1.84a6.9,6.9,0,0,0-1,3.88,6.81,6.81,0,0,0,1,3.84,2.91,2.91,0,0,0,4,1.09,2.85,2.85,0,0,0,1.09-1.09,6.89,6.89,0,0,0,1-3.84,7,7,0,0,0-1-3.86,2.91,2.91,0,0,0-2.53-1.51A2.85,2.85,0,0,0,139.08,27.22Z"/><path class="f834f0c0-c761-4271-a28b-e4bf4eb0468c" d="M113.76,23.12h2.85V38.44h-3.12V26.07l-2.85,1.66-1.23-2.32Z"/><path class="f834f0c0-c761-4271-a28b-e4bf4eb0468c" d="M130.63,25.14a9.44,9.44,0,0,1,0,11.33,6.19,6.19,0,0,1-8.72.82,7,7,0,0,1-.81-.82,9.47,9.47,0,0,1,0-11.35,6.14,6.14,0,0,1,8.64-.89h0a6.8,6.8,0,0,1,.89.89Zm-7.26,1.79a8,8,0,0,0-.05,7.72,2.92,2.92,0,0,0,4,1.08,2.87,2.87,0,0,0,1.08-1.08,6.89,6.89,0,0,0,1-3.84,7.05,7.05,0,0,0-1-3.87,3,3,0,0,0-2.53-1.51A2.83,2.83,0,0,0,123.37,26.93Z"/><path class="f834f0c0-c761-4271-a28b-e4bf4eb0468c" d="M146.1,25.14a9.44,9.44,0,0,1,0,11.33,6.19,6.19,0,0,1-8.72.82,7,7,0,0,1-.81-.82,9.47,9.47,0,0,1,0-11.35,6.14,6.14,0,0,1,8.64-.89h0a6.8,6.8,0,0,1,.89.89Zm-7.26,1.79a8,8,0,0,0-.05,7.72,2.92,2.92,0,0,0,4,1.08,2.87,2.87,0,0,0,1.08-1.08,6.89,6.89,0,0,0,1-3.84,7.05,7.05,0,0,0-1-3.87,3,3,0,0,0-2.53-1.51A2.83,2.83,0,0,0,138.84,26.93Z"/><g id="ab5b6c38-c749-4c4d-8ba0-a6e99809f9d5" data-name="a1cda4c3-9d83-44e9-973d-31ae49070cdd"><path class="a1d69e1a-4ced-429e-b513-d35032a4d1b2" d="M128.44,16.56H128l-.46,1.56a2.92,2.92,0,0,1-.72.06,2.35,2.35,0,0,1-.83-.11V18l2.35-7.2a8.4,8.4,0,0,1,1-.07,6.63,6.63,0,0,1,1,.08L132.66,18a1.57,1.57,0,0,1-.85.2A1.14,1.14,0,0,1,131,18a1.56,1.56,0,0,1-.39-.74l-.2-.71Zm0-1.35H130l-.18-.66c-.17-.6-.37-1.34-.59-2.21h-.09c0,.3-.22,1-.51,2Z"/></g><g id="f5629085-88d8-4cc9-87eb-6749859254a4" data-name="a3182f72-5f1e-4519-bf7b-3367d08a294a"><path class="ef094277-9124-4ea7-9113-bb2278b77f96" d="M128.18,16.56h-.43l-.46,1.56a2.92,2.92,0,0,1-.72.06,2.35,2.35,0,0,1-.83-.11l-.06-.09,2.32-7.2a8.4,8.4,0,0,1,1-.07,6.63,6.63,0,0,1,1,.08L132.32,18a1.57,1.57,0,0,1-.85.2,1.14,1.14,0,0,1-.78-.19,1.56,1.56,0,0,1-.39-.74l-.21-.71Zm0-1.34h1.6l-.18-.66c-.17-.6-.37-1.34-.59-2.21h-.07a13.63,13.63,0,0,1-.51,2Z"/></g><circle class="b6221ba4-ffbe-44a9-88db-aceec75218f7" cx="25.7" cy="88.75" r="25.7"/><circle class="f45dadd4-d44a-421a-9d8d-18e92f394cec" cx="25.7" cy="88.75" r="21.2"/><path class="e1c5f6fe-66fc-4fcc-b0e6-bf038971ad46" d="M5.24,89.13a21.21,21.21,0,0,1,30.29-19.2,21.22,21.22,0,0,0-18.92,38h0A21.19,21.19,0,0,1,5.24,89.13Z"/><path class="ecf6412a-1a9e-4aa8-a71b-2c84559edd09" d="M35.53,69.93a21.22,21.22,0,1,1-18.92,38A21.21,21.21,0,0,0,36.55,70.52l-1-.51Z"/><path class="b47b2c62-4a5d-404f-9d53-2e75009842d9" d="M25.45,108.67a19.45,19.45,0,0,1-9.18-2.74A19.83,19.83,0,0,1,9.6,99.31a19.13,19.13,0,0,0,7,5.94,17.91,17.91,0,0,0,8.81,1.86Z"/><path class="b67ddc9a-d363-40ea-ac68-090388f9f56c" d="M26.61,107.11a17.91,17.91,0,0,0,8.81-1.86,19.13,19.13,0,0,0,7-5.94,19.83,19.83,0,0,1-6.67,6.62,19.45,19.45,0,0,1-9.18,2.74Z"/><path class="e1c5f6fe-66fc-4fcc-b0e6-bf038971ad46" d="M11.18,81.49H14V96.81H10.91V84.44L8.06,86.1,6.83,83.78Z"/><path class="e1c5f6fe-66fc-4fcc-b0e6-bf038971ad46" d="M28.08,83.51a9.36,9.36,0,0,1,0,11.32,6.15,6.15,0,0,1-8.68.85,5.69,5.69,0,0,1-.85-.85,9.45,9.45,0,0,1,0-11.34,6.14,6.14,0,0,1,8.64-.9h0a5.76,5.76,0,0,1,.89.89Zm-7.26,1.81a8.07,8.07,0,0,0,0,7.72,2.92,2.92,0,0,0,4,1.09A3,3,0,0,0,25.9,93a6.92,6.92,0,0,0,1-3.83,7,7,0,0,0-1-3.88,3,3,0,0,0-2.53-1.51A2.83,2.83,0,0,0,20.82,85.32Z"/><path class="e1c5f6fe-66fc-4fcc-b0e6-bf038971ad46" d="M43.55,83.51a9.42,9.42,0,0,1,0,11.32,6.15,6.15,0,0,1-8.68.85,5.69,5.69,0,0,1-.85-.85,9.45,9.45,0,0,1,0-11.34,6.14,6.14,0,0,1,8.64-.9h0a5.76,5.76,0,0,1,.89.89Zm-7.26,1.81a8,8,0,0,0,0,7.72,2.92,2.92,0,0,0,4,1.09A3,3,0,0,0,41.37,93a6.92,6.92,0,0,0,1-3.83,7,7,0,0,0-1-3.88,3,3,0,0,0-2.53-1.51A2.83,2.83,0,0,0,36.29,85.32Z"/><path class="f834f0c0-c761-4271-a28b-e4bf4eb0468c" d="M11,81.22h2.85V96.54H10.7V84.22L7.85,85.88,6.62,83.56Z"/><path class="f834f0c0-c761-4271-a28b-e4bf4eb0468c" d="M27.84,83.27a9.44,9.44,0,0,1,0,11.33,6.15,6.15,0,0,1-8.68.85,5.69,5.69,0,0,1-.85-.85,9.47,9.47,0,0,1,0-11.35,6.14,6.14,0,0,1,8.63-.94l.06,0a6.8,6.8,0,0,1,.89.89Zm-7.26,1.8a8,8,0,0,0,0,7.72,2.92,2.92,0,0,0,5.08,0,8.16,8.16,0,0,0,0-7.71,2.9,2.9,0,0,0-2.52-1.51,2.86,2.86,0,0,0-2.51,1.5Z"/><path class="f834f0c0-c761-4271-a28b-e4bf4eb0468c" d="M43.31,83.27a8.38,8.38,0,0,1,1.87,5.66,8.49,8.49,0,0,1-1.89,5.67,6.15,6.15,0,0,1-8.68.85,5.69,5.69,0,0,1-.85-.85,9.47,9.47,0,0,1,0-11.35,6.14,6.14,0,0,1,8.64-.89h0a6.8,6.8,0,0,1,.89.89Zm-7.26,1.8a8,8,0,0,0,0,7.72,2.92,2.92,0,0,0,5.08,0,8.16,8.16,0,0,0,0-7.71,2.9,2.9,0,0,0-2.52-1.51,2.86,2.86,0,0,0-2.51,1.5Z"/><g id="a4ecbd88-34b8-4477-b38b-c5a114f73fbf" data-name="e77c2cc3-1639-492c-a069-31137dbe35df"><path class="a1d69e1a-4ced-429e-b513-d35032a4d1b2" d="M25.65,74.69h-.43l-.46,1.56a2.93,2.93,0,0,1-.72.07,2.1,2.1,0,0,1-.86-.1l-.06-.08,2.36-7.21c.33,0,.67-.05,1-.06a6.73,6.73,0,0,1,1,.07l2.32,7.21a1.68,1.68,0,0,1-.85.21,1.21,1.21,0,0,1-.79-.19,1.64,1.64,0,0,1-.38-.74l-.21-.71h-.41Zm0-1.34h1.53L27,72.67c-.16-.6-.36-1.34-.58-2.21h-.07c-.06.31-.23,1-.51,2Z"/></g><g id="ee896afb-a6ef-44b7-9f01-27852a355f4b" data-name="ac8ce474-fe20-465f-a556-42737436cce7"><path class="ef094277-9124-4ea7-9113-bb2278b77f96" d="M25.43,74.69H25l-.46,1.56a2.93,2.93,0,0,1-.72.07A2.41,2.41,0,0,1,23,76.2l-.05-.09,2.36-7.18c.33,0,.67-.05,1-.06a6.73,6.73,0,0,1,1,.07l2.31,7.19a1.66,1.66,0,0,1-.84.21,1.07,1.07,0,0,1-.79-.2,1.39,1.39,0,0,1-.38-.74l-.21-.71Zm0-1.34H27l-.19-.67c-.17-.6-.36-1.34-.58-2.21h-.08c-.06.31-.23,1-.52,2Z"/></g><circle class="b6221ba4-ffbe-44a9-88db-aceec75218f7" cx="77.1" cy="88.75" r="25.7"/><circle class="f45dadd4-d44a-421a-9d8d-18e92f394cec" cx="77.1" cy="88.75" r="21.2"/><path class="e1c5f6fe-66fc-4fcc-b0e6-bf038971ad46" d="M56.63,89.13a21.22,21.22,0,0,1,30.3-19.2,21.23,21.23,0,0,0-18.93,38h0A21.19,21.19,0,0,1,56.63,89.13Z"/><path class="ecf6412a-1a9e-4aa8-a71b-2c84559edd09" d="M86.93,69.93a21.23,21.23,0,0,1-18.93,38h0A21.21,21.21,0,1,0,88,70.52h0L87,70Z"/><path class="b47b2c62-4a5d-404f-9d53-2e75009842d9" d="M76.85,108.67a19.52,19.52,0,0,1-9.19-2.74A19.8,19.8,0,0,1,61,99.31a19.13,19.13,0,0,0,7,5.94,18.08,18.08,0,0,0,8.82,1.86Z"/><path class="b67ddc9a-d363-40ea-ac68-090388f9f56c" d="M78,107.11a17.91,17.91,0,0,0,8.81-1.86,19.13,19.13,0,0,0,7-5.94A19.43,19.43,0,0,1,78,108.67Z"/><path class="e1c5f6fe-66fc-4fcc-b0e6-bf038971ad46" d="M62.61,81.49h2.85V96.81H62.34V84.44L59.49,86.1l-1.24-2.31Z"/><path class="e1c5f6fe-66fc-4fcc-b0e6-bf038971ad46" d="M79.47,83.51a9.42,9.42,0,0,1,0,11.32,6.15,6.15,0,0,1-8.68.85,5.69,5.69,0,0,1-.85-.85,9.45,9.45,0,0,1,0-11.34,6.14,6.14,0,0,1,8.64-.9h0a5.76,5.76,0,0,1,.89.89Zm-7.26,1.81a8.07,8.07,0,0,0,0,7.72,2.92,2.92,0,0,0,4,1.09A3,3,0,0,0,77.29,93a6.92,6.92,0,0,0,1-3.83,7,7,0,0,0-1-3.88,2.9,2.9,0,0,0-2.52-1.51,2.83,2.83,0,0,0-2.59,1.5Z"/><path class="e1c5f6fe-66fc-4fcc-b0e6-bf038971ad46" d="M94.94,83.51a9.42,9.42,0,0,1,0,11.32,6.15,6.15,0,0,1-8.68.85,5.69,5.69,0,0,1-.85-.85,9.45,9.45,0,0,1,0-11.34,6,6,0,0,1,4.77-2.27A5.93,5.93,0,0,1,94.94,83.51Zm-7.26,1.81a8.07,8.07,0,0,0,0,7.72,2.92,2.92,0,0,0,4,1.09A3,3,0,0,0,92.76,93a6.92,6.92,0,0,0,1-3.83,7,7,0,0,0-1-3.88,2.9,2.9,0,0,0-2.52-1.51A2.85,2.85,0,0,0,87.68,85.32Z"/><path class="f834f0c0-c761-4271-a28b-e4bf4eb0468c" d="M62.37,81.22h2.81V96.54H62.06V84.22L59.2,85.88,58,83.56Z"/><path class="f834f0c0-c761-4271-a28b-e4bf4eb0468c" d="M79.23,83.27a9.44,9.44,0,0,1,0,11.33,6.15,6.15,0,0,1-8.68.85,5.69,5.69,0,0,1-.85-.85,9.47,9.47,0,0,1,0-11.35,6.14,6.14,0,0,1,8.64-.89h0a6.8,6.8,0,0,1,.89.89ZM72,85.07a8.07,8.07,0,0,0,0,7.72,2.92,2.92,0,0,0,5.08,0,6.87,6.87,0,0,0,1-3.83,7.06,7.06,0,0,0-1-3.88,2.9,2.9,0,0,0-5.08,0Z"/><path class="f834f0c0-c761-4271-a28b-e4bf4eb0468c" d="M94.7,83.27a9.44,9.44,0,0,1,0,11.33,6.15,6.15,0,0,1-8.68.85,5.69,5.69,0,0,1-.85-.85,9.47,9.47,0,0,1,0-11.37,6.14,6.14,0,0,1,8.64-.89h0a6.8,6.8,0,0,1,.89.89Zm-7.26,1.8a8.07,8.07,0,0,0,0,7.72,2.92,2.92,0,0,0,5.08,0,6.87,6.87,0,0,0,1-3.83,7.06,7.06,0,0,0-1-3.88,2.9,2.9,0,0,0-5.08,0Z"/><g id="ee7077a7-d535-4f13-ad3b-fdc193008307" data-name="b9bd624d-61fa-45e1-a152-2f96abd40b1b"><path class="a1d69e1a-4ced-429e-b513-d35032a4d1b2" d="M77.05,74.69h-.43l-.44,1.53a2.93,2.93,0,0,1-.72.07,2.41,2.41,0,0,1-.84-.12v-.09L77,68.93c.33,0,.67-.05,1-.06a8.39,8.39,0,0,1,1,.06l2.32,7.21a1.58,1.58,0,0,1-.85.21,1.14,1.14,0,0,1-.78-.2,1.49,1.49,0,0,1-.39-.73l-.2-.71h-.42Zm0-1.34h1.6l-.19-.67c-.17-.6-.37-1.34-.59-2.21h-.06c-.06.31-.23,1-.52,2Z"/></g><g id="b557596f-d5a4-4550-98cc-44a56e93f0ea" data-name="b76024a7-51b8-4b1c-9122-1e6cff172671"><path class="ef094277-9124-4ea7-9113-bb2278b77f96" d="M76.83,74.69H76.4l-.46,1.56a2.93,2.93,0,0,1-.72.07,2.41,2.41,0,0,1-.84-.12v-.09l2.36-7.18c.33,0,.67-.05,1-.06a6.73,6.73,0,0,1,1,.07l2.32,7.21a1.58,1.58,0,0,1-.85.21,1.19,1.19,0,0,1-.78-.19,1.56,1.56,0,0,1-.39-.74l-.2-.71h-2Zm0-1.34h1.59l-.18-.67c-.17-.6-.37-1.34-.59-2.21h-.06c-.06.31-.23,1-.52,2Z"/></g><circle class="b6221ba4-ffbe-44a9-88db-aceec75218f7" cx="128.5" cy="88.75" r="25.7"/><circle class="f45dadd4-d44a-421a-9d8d-18e92f394cec" cx="128.5" cy="88.75" r="21.2"/><path class="e1c5f6fe-66fc-4fcc-b0e6-bf038971ad46" d="M108,89.13a21.22,21.22,0,0,1,30.32-19.2,21.22,21.22,0,0,0-18.91,38h0A21.2,21.2,0,0,1,108,89.13Z"/><path class="ecf6412a-1a9e-4aa8-a71b-2c84559edd09" d="M138.32,69.93a21.22,21.22,0,1,1-18.91,38h0A21.2,21.2,0,1,0,138.32,70Z"/><path class="b47b2c62-4a5d-404f-9d53-2e75009842d9" d="M128.24,108.67a19.46,19.46,0,0,1-15.84-9.36,19.13,19.13,0,0,0,7,5.94,17.91,17.91,0,0,0,8.81,1.86Z"/><path class="b67ddc9a-d363-40ea-ac68-090388f9f56c" d="M129.4,107.11a18,18,0,0,0,8.78-1.89,19.49,19.49,0,0,0,7-5.94,19.8,19.8,0,0,1-6.66,6.62,19.52,19.52,0,0,1-9.19,2.74Z"/><path class="e1c5f6fe-66fc-4fcc-b0e6-bf038971ad46" d="M114,81.49h2.86V96.81h-3.13V84.44l-2.85,1.66-1.23-2.31Z"/><path class="e1c5f6fe-66fc-4fcc-b0e6-bf038971ad46" d="M130.87,83.51a9.42,9.42,0,0,1,0,11.32,6.15,6.15,0,0,1-8.68.85,5.69,5.69,0,0,1-.85-.85,9.45,9.45,0,0,1,0-11.34,6.14,6.14,0,0,1,8.64-.9h0a5.76,5.76,0,0,1,.89.89Zm-7.26,1.81a8,8,0,0,0,0,7.72,2.92,2.92,0,0,0,4,1.09,3,3,0,0,0,1.1-1.09,6.92,6.92,0,0,0,1-3.83,7,7,0,0,0-1-3.88,3,3,0,0,0-2.53-1.51A2.83,2.83,0,0,0,123.61,85.32Z"/><path class="e1c5f6fe-66fc-4fcc-b0e6-bf038971ad46" d="M146.34,83.51a9.42,9.42,0,0,1,0,11.32,6.15,6.15,0,0,1-8.68.85,5.69,5.69,0,0,1-.85-.85,9.45,9.45,0,0,1,0-11.34,6.14,6.14,0,0,1,8.64-.9h0a5.76,5.76,0,0,1,.89.89Zm-7.26,1.81a8,8,0,0,0,0,7.72,2.9,2.9,0,0,0,4,1.1,2.86,2.86,0,0,0,1.11-1.1,6.92,6.92,0,0,0,1-3.83,7,7,0,0,0-1-3.88,3,3,0,0,0-2.53-1.51A2.84,2.84,0,0,0,139.08,85.32Z"/><path class="f834f0c0-c761-4271-a28b-e4bf4eb0468c" d="M113.76,81.22h2.85V96.54h-3.12V84.22l-2.85,1.66-1.23-2.31Z"/><path class="f834f0c0-c761-4271-a28b-e4bf4eb0468c" d="M130.63,83.27a9.44,9.44,0,0,1,0,11.33,6.15,6.15,0,0,1-8.68.85,5.69,5.69,0,0,1-.85-.85,9.47,9.47,0,0,1,0-11.35,6.14,6.14,0,0,1,8.64-.89h0a6.8,6.8,0,0,1,.89.89Zm-7.26,1.8a8,8,0,0,0-.05,7.72,2.92,2.92,0,0,0,5.08,0,6.87,6.87,0,0,0,1-3.83,7.06,7.06,0,0,0-1-3.88,3,3,0,0,0-2.53-1.51A2.83,2.83,0,0,0,123.37,85.07Z"/><path class="f834f0c0-c761-4271-a28b-e4bf4eb0468c" d="M146.1,83.27a9.42,9.42,0,0,1,0,11.33,6.15,6.15,0,0,1-8.68.85,5.69,5.69,0,0,1-.85-.85,9.47,9.47,0,0,1,0-11.35,6.14,6.14,0,0,1,8.64-.89h0a6.8,6.8,0,0,1,.89.89Zm-7.26,1.8a8,8,0,0,0-.05,7.72,2.92,2.92,0,0,0,5.08,0,6.87,6.87,0,0,0,1-3.83,7.06,7.06,0,0,0-1-3.88,3,3,0,0,0-2.53-1.51,2.83,2.83,0,0,0-2.5,1.5Z"/><g id="f8ed4bcb-93bc-4da7-8586-5c9dd11ff73d" data-name="abd82405-023b-4962-8cb6-cface843bda6"><path class="a1d69e1a-4ced-429e-b513-d35032a4d1b2" d="M128.44,74.69H128l-.46,1.56a2.93,2.93,0,0,1-.72.07,2.15,2.15,0,0,1-.83-.12v-.09l2.31-7.18c.33,0,.67-.05,1-.06a6.73,6.73,0,0,1,1,.07l2.32,7.21a1.68,1.68,0,0,1-.85.21,1.19,1.19,0,0,1-.78-.19,1.56,1.56,0,0,1-.39-.74l-.2-.71h-2Zm0-1.34H130l-.18-.67c-.17-.6-.37-1.34-.59-2.21h-.09c0,.31-.22,1-.51,2Z"/></g><g id="aa82b65f-4b24-463b-a904-663f1b6dfc62" data-name="ac7fb51f-f611-4d16-b1c1-2860e528a96a"><path class="ef094277-9124-4ea7-9113-bb2278b77f96" d="M128.18,74.69h-.43l-.46,1.56a2.93,2.93,0,0,1-.72.07,2.15,2.15,0,0,1-.83-.12l-.06-.09L128,68.93c.33,0,.67-.05,1-.06a6.73,6.73,0,0,1,1,.07l2.32,7.21a1.68,1.68,0,0,1-.85.21,1.19,1.19,0,0,1-.78-.19,1.56,1.56,0,0,1-.39-.74l-.21-.71h-2Zm0-1.34h1.6l-.18-.67c-.17-.6-.37-1.34-.59-2.21h-.07a14.31,14.31,0,0,1-.51,2Z"/></g></g></g></g></g></svg>