<svg xmlns="http://www.w3.org/2000/svg" viewBox="0 0 154.2 119.39"><defs><style>.a1bdf5db-4f08-4bd2-ab62-39a71d2cba21{fill:none;}.ea9c8957-9674-42fb-b298-f14900710e5a{fill:#bfbd60;}.b09284e3-d4b2-46c7-bd4e-c2efda026f07{fill:#adadad;}.e9d239f6-98fc-4cb0-b88d-05dbfcf91cdf{fill:#d9d9d9;}.fdbb1b1d-74c1-4f46-b94b-a82a464c7399{fill:#e0dfcd;}.b49322f4-6b94-40ce-88c0-50f25ae5f8ad{fill:#fffef3;}.fbb6a755-8f2b-4134-844e-3882ed8d091e{fill:#d3d2cd;}.b44686d5-9743-4af9-bdc0-3fe5a465dbca{fill:#dcdfe0;}.aa7cc504-785d-43d3-8bb5-9ba7a20b79d2{fill:#bcbec0;}.a588b9b3-a5e7-44fd-a633-8ad727132e16{fill:#9b9a98;}</style></defs><title>100</title><g id="bb660ae3-e3d6-467b-ad4e-435601b98785" data-name="Capa 2"><g id="f9baa87a-f9ad-4ccf-bf86-28bef5502560" data-name="Capa 1"><rect class="a1bdf5db-4f08-4bd2-ab62-39a71d2cba21" width="154.2" height="119.39"/><g id="ad1b45c5-b6a9-4685-8e27-5f7f5748f1a4" data-name="ef22229f-66c4-4c1d-af7b-0e9bdd23c5e9"><g id="ab6b43bf-2417-4ec0-903b-df90dfb4bc14" data-name="b3ae1014-878f-4389-a737-339f80e91f1b"><circle class="ea9c8957-9674-42fb-b298-f14900710e5a" cx="77.1" cy="59.69" r="25.7"/><circle class="b09284e3-d4b2-46c7-bd4e-c2efda026f07" cx="77.1" cy="59.69" r="21.2"/><path class="e9d239f6-98fc-4cb0-b88d-05dbfcf91cdf" d="M56.63,60.06A21.22,21.22,0,0,1,86.93,40.9,21.21,21.21,0,0,0,66.71,78.2l.28.14,1,.51A21.2,21.2,0,0,1,56.63,60.06Z"/><path class="fdbb1b1d-74c1-4f46-b94b-a82a464c7399" d="M86.93,40.9A21.22,21.22,0,1,1,68,78.9,21.23,21.23,0,0,0,88,41.41Z"/><path class="b49322f4-6b94-40ce-88c0-50f25ae5f8ad" d="M76.85,79.59a19.27,19.27,0,0,1-9.19-2.72A19.8,19.8,0,0,1,61,70.25a19.13,19.13,0,0,0,7,5.94,18.08,18.08,0,0,0,8.82,1.86Z"/><path class="fbb6a755-8f2b-4134-844e-3882ed8d091e" d="M78,78.06a18,18,0,0,0,8.81-1.87,19.2,19.2,0,0,0,7-5.93,19.71,19.71,0,0,1-6.66,6.62A19.43,19.43,0,0,1,78,79.6Z"/><path class="e9d239f6-98fc-4cb0-b88d-05dbfcf91cdf" d="M62.61,52.43h2.85V67.72H62.34V55.38L59.49,57l-1.24-2.28Z"/><path class="e9d239f6-98fc-4cb0-b88d-05dbfcf91cdf" d="M79.47,54.45a9.34,9.34,0,0,1,0,11.32,6.15,6.15,0,0,1-8.68.85,5.69,5.69,0,0,1-.85-.85,9.47,9.47,0,0,1,0-11.35,6.14,6.14,0,0,1,8.64-.89h0a6.8,6.8,0,0,1,.89.89Zm-7.26,1.8a8.07,8.07,0,0,0,0,7.72,2.92,2.92,0,0,0,5.08,0,6.87,6.87,0,0,0,1-3.83,7.06,7.06,0,0,0-1-3.88,2.9,2.9,0,0,0-2.52-1.51,2.87,2.87,0,0,0-2.59,1.5Z"/><path class="e9d239f6-98fc-4cb0-b88d-05dbfcf91cdf" d="M94.94,54.45a8.41,8.41,0,0,1,1.89,5.65,8.49,8.49,0,0,1-1.89,5.67,6.15,6.15,0,0,1-8.68.85,5.69,5.69,0,0,1-.85-.85,9.47,9.47,0,0,1,0-11.35,6,6,0,0,1,4.77-2.25A6,6,0,0,1,94.94,54.45Zm-7.26,1.8a8.07,8.07,0,0,0,0,7.72,2.92,2.92,0,0,0,5.08,0,6.87,6.87,0,0,0,1-3.83,7.06,7.06,0,0,0-1-3.88,2.87,2.87,0,0,0-5.08,0Z"/><path class="b44686d5-9743-4af9-bdc0-3fe5a465dbca" d="M62.4,52.19h2.81V67.51H62.06V55.14L59.2,56.79,58,54.48Z"/><path class="b44686d5-9743-4af9-bdc0-3fe5a465dbca" d="M79.23,54.21a8.41,8.41,0,0,1,1.89,5.65,8.49,8.49,0,0,1-1.89,5.67,6.15,6.15,0,0,1-8.68.85,5.69,5.69,0,0,1-.85-.85,9.47,9.47,0,0,1,0-11.35,6.14,6.14,0,0,1,8.64-.89h0a6.8,6.8,0,0,1,.89.89ZM72,56a8.07,8.07,0,0,0,0,7.72,2.92,2.92,0,0,0,4,1.08,2.87,2.87,0,0,0,1.08-1.08,6.89,6.89,0,0,0,1-3.84,7.05,7.05,0,0,0-1-3.87A2.9,2.9,0,0,0,72,56Z"/><path class="b44686d5-9743-4af9-bdc0-3fe5a465dbca" d="M94.7,54.21a8.41,8.41,0,0,1,1.89,5.65,8.49,8.49,0,0,1-1.89,5.67,6.15,6.15,0,0,1-8.68.85,5.69,5.69,0,0,1-.85-.85,9.47,9.47,0,0,1,0-11.35,6.14,6.14,0,0,1,8.64-.89h0a6.8,6.8,0,0,1,.89.89ZM87.4,56a8.07,8.07,0,0,0,0,7.72,2.92,2.92,0,0,0,4,1.08,2.87,2.87,0,0,0,1.08-1.08,6.89,6.89,0,0,0,1-3.84,7.05,7.05,0,0,0-1-3.87,2.9,2.9,0,0,0-5.08,0Z"/><g id="abefcb0d-b707-4c9a-a2fd-77f805b7a8f7" data-name="a572285b-c41c-42aa-8c74-4ab54b587a61"><path class="aa7cc504-785d-43d3-8bb5-9ba7a20b79d2" d="M77.05,45.62h-.43l-.46,1.56a2.93,2.93,0,0,1-.72.07,3,3,0,0,1-.84-.12V47L77,39.84c.33,0,.67-.05,1-.06a6.73,6.73,0,0,1,1,.07l2.32,7.21a1.58,1.58,0,0,1-.85.21,1.14,1.14,0,0,1-.78-.2,1.49,1.49,0,0,1-.39-.73l-.2-.71h-2Zm0-1.35h1.6l-.19-.66c-.17-.6-.37-1.34-.59-2.21h-.06c-.06.31-.23,1-.52,2Z"/></g><g id="ba004447-f6fc-4738-b8f2-7263f333c19a" data-name="f8ac59e8-9b09-4a70-8f6b-fcc75e948c8e"><path class="a588b9b3-a5e7-44fd-a633-8ad727132e16" d="M76.83,45.62H76.4l-.46,1.56a2.93,2.93,0,0,1-.72.07,3,3,0,0,1-.84-.12V47l2.36-7.2c.33,0,.67-.05,1-.06a6.73,6.73,0,0,1,1,.07l2.32,7.21a1.58,1.58,0,0,1-.85.21,1.14,1.14,0,0,1-.78-.2,1.49,1.49,0,0,1-.39-.73l-.2-.71h-2Zm0-1.35H78.4l-.24-.66c-.17-.6-.37-1.34-.59-2.21h-.06c-.06.31-.23,1-.52,2Z"/></g></g></g></g></g></svg>