<svg xmlns="http://www.w3.org/2000/svg" viewBox="0 0 154.2 119.39"><defs><style>.b5ad6450-140f-49ae-bc1e-c5b4851930d5{fill:none;}.a51b9aff-87de-4bce-bff4-7736c065a1e9{fill:#9b935c;}.ac25c85a-b2b8-4965-b35e-88f6942155b1{fill:#d1c671;}.bebfd889-9cb0-441b-b244-61805ca7de86{fill:#777329;}.ef368593-ca27-4b72-a979-987a8a17d7f9{fill:#eae3b0;}.e38ff1d6-1764-4492-8eaa-e8ef30e968a5{fill:#e0d8a2;}.bf717a01-8bdb-4cde-bf75-8a43124e9da2{fill:#a59956;}.abe77a75-d410-4196-a3a8-bf20d7ca496a{fill:#999367;}.e89cd2c3-bb91-4407-b5ba-23a645590efe{fill:#f9f2b2;}.e8988547-f0d7-4a72-9d57-147b44db964b{fill:#a39b62;}.bc01c266-1fc8-4e68-b4b3-6601479d2ae9{fill:#fff2b0;}</style></defs><title>10 3</title><g id="e7154600-3cc2-4911-ab3f-79ac15ea69b8" data-name="Capa 2"><g id="bc8c931c-63f9-48c5-8f7c-304746a8e012" data-name="Capa 1"><rect class="b5ad6450-140f-49ae-bc1e-c5b4851930d5" width="154.2" height="119.39"/><g id="eba17b6a-37d3-4c70-905b-7a5fc92efa05" data-name="e675e347-ff39-4666-ba13-c604123300d4"><g id="f37f0015-886e-45e9-a002-4361b87dbaa8" data-name="b2c65e8e-01c7-4422-a45e-0f889cf7e8f3"><circle class="a51b9aff-87de-4bce-bff4-7736c065a1e9" cx="25.11" cy="19.92" r="19.92"/><circle class="ac25c85a-b2b8-4965-b35e-88f6942155b1" cx="25.11" cy="19.92" r="16.43"/><path class="bebfd889-9cb0-441b-b244-61805ca7de86" d="M9.24,20.16A16.45,16.45,0,0,1,32.72,5.31,16.44,16.44,0,0,0,17.11,34.25l.23.12q.36.2.72.36A16.45,16.45,0,0,1,9.24,20.16Z"/><path class="ef368593-ca27-4b72-a979-987a8a17d7f9" d="M32.72,5.35A16.44,16.44,0,0,1,18.06,34.77,16.44,16.44,0,0,0,33.44,5.71Q33.08,5.52,32.72,5.35Z"/><path class="e38ff1d6-1764-4492-8eaa-e8ef30e968a5" d="M24.91,35.34a14.94,14.94,0,0,1-7.12-2.11,15.25,15.25,0,0,1-5.16-5.13,15,15,0,0,0,5.45,4.6,14,14,0,0,0,6.83,1.46Z"/><path class="bf717a01-8bdb-4cde-bf75-8a43124e9da2" d="M25.81,34.16a14.05,14.05,0,0,0,6.83-1.45,15,15,0,0,0,5.45-4.6,15.25,15.25,0,0,1-5.16,5.13,14.94,14.94,0,0,1-7.12,2.11Z"/><path class="abe77a75-d410-4196-a3a8-bf20d7ca496a" d="M18.19,13h3V28.9H17.91V16.07l-3,1.72-1.28-2.4Z"/><path class="abe77a75-d410-4196-a3a8-bf20d7ca496a" d="M35.64,15.16a8.74,8.74,0,0,1,2,5.86,8.91,8.91,0,0,1-2,5.88,6.4,6.4,0,0,1-9,.87,6,6,0,0,1-.87-.87,9.77,9.77,0,0,1,0-11.77,6.38,6.38,0,0,1,9.88,0ZM28.11,17a8.41,8.41,0,0,0,0,8,3,3,0,0,0,5.27,0,8.41,8.41,0,0,0,0-8,3,3,0,0,0-5.27,0Z"/><path class="e89cd2c3-bb91-4407-b5ba-23a645590efe" d="M18,12.83h3V28.71H17.72V15.89l-3,1.71-1.27-2.44Z"/><path class="e89cd2c3-bb91-4407-b5ba-23a645590efe" d="M35.45,14.92a9.78,9.78,0,0,1,0,11.74,6.4,6.4,0,0,1-9,.87,6,6,0,0,1-.87-.87,9.83,9.83,0,0,1,0-11.77,6.38,6.38,0,0,1,9.88,0Zm-7.53,1.87a7.29,7.29,0,0,0-1,4,7.13,7.13,0,0,0,1,4,3,3,0,0,0,5.26,0,8.41,8.41,0,0,0,0-8,3,3,0,0,0-5.26,0Z"/><g id="ec9c5567-896a-438f-8b24-66b0e7c78314" data-name="ea2c589a-31f4-4af4-b845-336bc4b4f4bd"><path class="e8988547-f0d7-4a72-9d57-147b44db964b" d="M25.07,9h-.34l-.39,1.2a2.62,2.62,0,0,1-.56,0,1.8,1.8,0,0,1-.65-.09h0L25,4.52a4.7,4.7,0,0,1,.75,0,3.51,3.51,0,0,1,.79.06l1.84,5.58a1.23,1.23,0,0,1-.65.16,1,1,0,0,1-.61-.15,1.16,1.16,0,0,1-.3-.58L26.62,9H25.07Zm0-1h1.24l-.12-.51c-.13-.47-.29-1-.46-1.71h0a12.33,12.33,0,0,1-.4,1.59Z"/></g><g id="b9aa6a69-5e36-4949-82ff-d3dce6036ddd" data-name="fefdf7fb-a8aa-44a2-bec1-16924491b5e7"><path class="bc01c266-1fc8-4e68-b4b3-6601479d2ae9" d="M24.89,9h-.33l-.37,1.22a2.53,2.53,0,0,1-.55,0,1.8,1.8,0,0,1-.65-.09v-.07l1.83-5.58a4.69,4.69,0,0,1,.75,0,3.51,3.51,0,0,1,.79.06l1.75,5.57a1.27,1.27,0,0,1-.66.16.92.92,0,0,1-.6-.15,1.16,1.16,0,0,1-.3-.58L26.4,9Zm0-1h1.24L26,7.48c-.14-.47-.29-1-.46-1.71h-.05a12.33,12.33,0,0,1-.4,1.59Z"/></g><circle class="a51b9aff-87de-4bce-bff4-7736c065a1e9" cx="77.1" cy="59.77" r="19.92"/><circle class="ac25c85a-b2b8-4965-b35e-88f6942155b1" cx="77.1" cy="59.77" r="16.43"/><path class="bebfd889-9cb0-441b-b244-61805ca7de86" d="M61.19,60.06A16.44,16.44,0,0,1,77.63,43.62h0a16.33,16.33,0,0,1,7,1.59,16.14,16.14,0,0,0-7.61-1.87,16.43,16.43,0,0,0-7,31.28A16.42,16.42,0,0,1,61.19,60.06Z"/><path class="ef368593-ca27-4b72-a979-987a8a17d7f9" d="M84.71,45.21A16.43,16.43,0,0,1,70.05,74.62,16.43,16.43,0,0,0,84.71,45.21Z"/><path class="e38ff1d6-1764-4492-8eaa-e8ef30e968a5" d="M76.9,75.16A15.08,15.08,0,0,1,69.78,73a15.25,15.25,0,0,1-5.16-5.13,15.09,15.09,0,0,0,5.45,4.61A14.18,14.18,0,0,0,76.9,74Z"/><path class="bf717a01-8bdb-4cde-bf75-8a43124e9da2" d="M77.8,74a14.16,14.16,0,0,0,6.83-1.44A15,15,0,0,0,90.08,68a15.25,15.25,0,0,1-5.16,5.13,15.06,15.06,0,0,1-7.12,2.12Z"/><path class="abe77a75-d410-4196-a3a8-bf20d7ca496a" d="M70.19,52.87h3V68.75H69.9V55.92l-3,1.72-1.27-2.4Z"/><path class="abe77a75-d410-4196-a3a8-bf20d7ca496a" d="M87.63,55a9.78,9.78,0,0,1,0,11.74,6.4,6.4,0,0,1-9,.87,6,6,0,0,1-.87-.87,9.83,9.83,0,0,1,0-11.77,6.38,6.38,0,0,1,9.88,0ZM80.1,56.87a7.13,7.13,0,0,0-1,4,7.21,7.21,0,0,0,1,4,3,3,0,0,0,5.27,0,8.41,8.41,0,0,0,0-8,3,3,0,0,0-5.27,0Z"/><path class="e89cd2c3-bb91-4407-b5ba-23a645590efe" d="M70,52.68h3V68.57H69.71V55.74l-3,1.71-1.27-2.39Z"/><path class="e89cd2c3-bb91-4407-b5ba-23a645590efe" d="M87.44,54.78a8.71,8.71,0,0,1,2,5.85,8.83,8.83,0,0,1-2,5.89,6.4,6.4,0,0,1-9,.87,6,6,0,0,1-.87-.87,9.83,9.83,0,0,1,0-11.77,6.36,6.36,0,0,1,9-.93h0a6.81,6.81,0,0,1,.93.93Zm-7.53,1.87a8.35,8.35,0,0,0,0,8,3,3,0,0,0,5.26,0,8.41,8.41,0,0,0,0-8,3,3,0,0,0-5.26,0Z"/><g id="b0077f87-abb4-4615-9651-a6fe3dc91134" data-name="f3da9042-8ed2-43de-bee3-6a7de905a3cc"><path class="e8988547-f0d7-4a72-9d57-147b44db964b" d="M77.06,48.87h-.34l-.35,1.21a2.62,2.62,0,0,1-.56,0,1.86,1.86,0,0,1-.62-.08v-.06L77,44.36a4.82,4.82,0,0,1,.76,0,5.08,5.08,0,0,1,.78,0L80.35,50a1.23,1.23,0,0,1-.65.16,1,1,0,0,1-.61-.15,1.17,1.17,0,0,1-.3-.57l-.16-.55h-1.5Zm0-1H78.3l-.11-.52c-.13-.46-.29-1-.46-1.71h0a12.33,12.33,0,0,1-.4,1.59Z"/></g><g id="a2096e70-f119-40ad-b323-0445e7ae9d1d" data-name="e454ea88-5824-461c-b4a4-ce4675939a03"><path class="bc01c266-1fc8-4e68-b4b3-6601479d2ae9" d="M76.88,48.87h-.33l-.36,1.21a2.53,2.53,0,0,1-.55,0A2.05,2.05,0,0,1,75,50v-.06l1.83-5.58a4.69,4.69,0,0,1,.75,0,5.21,5.21,0,0,1,.79,0l1.83,5.59a1.27,1.27,0,0,1-.66.16.92.92,0,0,1-.6-.15,1.17,1.17,0,0,1-.3-.57l-.16-.55H76.92Zm0-1h1.24L78,47.35c-.13-.46-.29-1-.46-1.71h0a12.33,12.33,0,0,1-.4,1.59Z"/></g><circle class="a51b9aff-87de-4bce-bff4-7736c065a1e9" cx="129.09" cy="99.47" r="19.92"/><circle class="ac25c85a-b2b8-4965-b35e-88f6942155b1" cx="129.09" cy="99.47" r="16.43"/><path class="bebfd889-9cb0-441b-b244-61805ca7de86" d="M113.19,99.76a16.44,16.44,0,0,1,16.44-16.44h0a16.33,16.33,0,0,1,7,1.59A16.18,16.18,0,0,0,129.05,83a16.43,16.43,0,0,0-7,31.28A16.46,16.46,0,0,1,113.19,99.76Z"/><path class="ef368593-ca27-4b72-a979-987a8a17d7f9" d="M136.7,84.91A16.43,16.43,0,0,1,122,114.32h0A16.43,16.43,0,0,0,136.7,84.91Z"/><path class="e38ff1d6-1764-4492-8eaa-e8ef30e968a5" d="M128.89,114.9a15.06,15.06,0,0,1-7.12-2.12,15.25,15.25,0,0,1-5.16-5.13,15.09,15.09,0,0,0,5.45,4.61,14.16,14.16,0,0,0,6.83,1.44Z"/><path class="bf717a01-8bdb-4cde-bf75-8a43124e9da2" d="M129.79,113.7a14.16,14.16,0,0,0,6.83-1.44,15.09,15.09,0,0,0,5.45-4.61,15.25,15.25,0,0,1-5.16,5.13,15.06,15.06,0,0,1-7.12,2.12Z"/><path class="abe77a75-d410-4196-a3a8-bf20d7ca496a" d="M122.13,92.57h3v15.88h-3.24V95.62l-3,1.72-1.27-2.4Z"/><path class="abe77a75-d410-4196-a3a8-bf20d7ca496a" d="M139.62,94.66a9.78,9.78,0,0,1,0,11.74,6.4,6.4,0,0,1-9,.87,6,6,0,0,1-.87-.87,9.83,9.83,0,0,1,0-11.77,6.38,6.38,0,0,1,9.88,0Zm-7.53,1.87a7.13,7.13,0,0,0-1,4,7.21,7.21,0,0,0,1,4,3,3,0,0,0,5.27,0,8.41,8.41,0,0,0,0-8,3,3,0,0,0-5.27,0Z"/><path class="e89cd2c3-bb91-4407-b5ba-23a645590efe" d="M121.94,92.38h3v15.88H121.7V95.44l-3,1.71-1.27-2.4Z"/><path class="e89cd2c3-bb91-4407-b5ba-23a645590efe" d="M139.43,94.47a9.78,9.78,0,0,1,0,11.74,6.4,6.4,0,0,1-9,.87,6,6,0,0,1-.87-.87,9.81,9.81,0,0,1,0-11.76,6.37,6.37,0,0,1,9-1l0,0a5.72,5.72,0,0,1,.92.92Zm-7.53,1.88a8.35,8.35,0,0,0,0,8,3,3,0,0,0,5.26,0,8.41,8.41,0,0,0,0-8,3,3,0,0,0-5.26,0Z"/><g id="ae188a68-0f06-4dc0-b1a1-a9d8959eaaf6" data-name="a4c80f33-e377-4aa5-96e7-b51bde0fa577"><path class="e8988547-f0d7-4a72-9d57-147b44db964b" d="M129.05,88.57h-.34l-.35,1.21a2.62,2.62,0,0,1-.56,0,1.8,1.8,0,0,1-.65-.09v-.06L129,84.05a4.82,4.82,0,0,1,.76,0,5.08,5.08,0,0,1,.78,0l1.79,5.59a1.23,1.23,0,0,1-.65.16,1,1,0,0,1-.61-.15,1.17,1.17,0,0,1-.3-.57l-.16-.55h-1.5Zm0-1h1.24l-.14-.52c-.13-.46-.29-1-.46-1.71h0a9.74,9.74,0,0,1-.4,1.59Z"/></g><g id="ecc7523a-32ed-4c63-a18d-193a75c169ff" data-name="b436c4e5-b484-4c5d-8842-99e3e6d4c6e0"><path class="bc01c266-1fc8-4e68-b4b3-6601479d2ae9" d="M128.88,88.57h-.34l-.35,1.21a2.62,2.62,0,0,1-.56,0,1.8,1.8,0,0,1-.65-.09v-.06l1.83-5.58a4.69,4.69,0,0,1,.75,0,5.21,5.21,0,0,1,.79,0l1.84,5.59a1.27,1.27,0,0,1-.66.16.92.92,0,0,1-.6-.15,1.17,1.17,0,0,1-.3-.57l-.16-.55H129Zm0-1h1.24l-.14-.52c-.13-.46-.29-1-.46-1.71h0a12.33,12.33,0,0,1-.4,1.59Z"/></g></g></g></g></g></svg>