<svg xmlns="http://www.w3.org/2000/svg" viewBox="0 0 154.2 119.39"><defs><style>.be857c4a-2ff5-41fe-9de9-f01359babbc5{fill:none;}.aaf7057d-afac-4151-b537-f1217d36ebb1{fill:#9b935c;}.bfce163d-8834-4a90-86fd-34c32f2d3d46{fill:#d1c671;}.ab003197-b099-4375-a729-403d0414a8b4{fill:#777329;}.ef7fe123-5670-48f1-b738-7f191ad1f7d1{fill:#eae3b0;}.ab8bc91d-5e6b-4121-bd11-f00dcf3d904f{fill:#e0d8a2;}.b6b7f7c1-19dc-4caa-8463-794f915c23c6{fill:#a59956;}.aa12fe9d-cbe1-4c5a-86a3-d73f45b10c49{fill:#999367;}.bfb1467b-4d02-4990-8eaa-f1e5b47adf37{fill:#f9f2b2;}.a0eba07c-88ad-4661-9b8c-1c38141f47ec{fill:#a39b62;}.a69b8b0e-573a-45c5-87b5-5656b7666861{fill:#fff2b0;}</style></defs><title>10 8</title><g id="b5a63341-b838-4680-a460-ceb95559e445" data-name="Capa 2"><g id="f16158b3-3147-46b6-8104-4884cb0927c2" data-name="Capa 1"><rect class="be857c4a-2ff5-41fe-9de9-f01359babbc5" width="154.2" height="119.39"/><g id="afebf684-82a2-445b-bad6-144d6346a3d4" data-name="b086c4b9-3473-4f0b-9379-3cac5a75cdde"><g id="b53f5e37-6dea-46e1-8642-c892bb5d0ade" data-name="ba598f2c-3546-49b6-8ee4-ad6bc685f5c9"><circle class="aaf7057d-afac-4151-b537-f1217d36ebb1" cx="25.11" cy="19.92" r="19.92"/><circle class="bfce163d-8834-4a90-86fd-34c32f2d3d46" cx="25.11" cy="19.92" r="16.43"/><path class="ab003197-b099-4375-a729-403d0414a8b4" d="M9.24,20.16A16.45,16.45,0,0,1,32.72,5.31,16.44,16.44,0,0,0,17.11,34.25l.23.12q.36.2.72.36A16.45,16.45,0,0,1,9.24,20.16Z"/><path class="ef7fe123-5670-48f1-b738-7f191ad1f7d1" d="M32.72,5.35A16.44,16.44,0,0,1,18.06,34.77,16.44,16.44,0,0,0,33.44,5.71Q33.08,5.52,32.72,5.35Z"/><path class="ab8bc91d-5e6b-4121-bd11-f00dcf3d904f" d="M24.91,35.34a14.94,14.94,0,0,1-7.12-2.11,15.25,15.25,0,0,1-5.16-5.13,15,15,0,0,0,5.45,4.6,14,14,0,0,0,6.83,1.46Z"/><path class="b6b7f7c1-19dc-4caa-8463-794f915c23c6" d="M25.81,34.16a14.05,14.05,0,0,0,6.83-1.45,15,15,0,0,0,5.45-4.6,15.25,15.25,0,0,1-5.16,5.13,14.94,14.94,0,0,1-7.12,2.11Z"/><path class="aa12fe9d-cbe1-4c5a-86a3-d73f45b10c49" d="M18.19,13h3V28.9H17.91V16.07l-3,1.72-1.28-2.4Z"/><path class="aa12fe9d-cbe1-4c5a-86a3-d73f45b10c49" d="M35.64,15.16a8.74,8.74,0,0,1,2,5.86,8.91,8.91,0,0,1-2,5.88,6.4,6.4,0,0,1-9,.87,6,6,0,0,1-.87-.87,9.77,9.77,0,0,1,0-11.77,6.36,6.36,0,0,1,8.94-1l.06,0a6.81,6.81,0,0,1,.93.93ZM28.11,17a8.41,8.41,0,0,0,0,8,3,3,0,0,0,5.27,0,8.41,8.41,0,0,0,0-8,3,3,0,0,0-5.27,0Z"/><path class="bfb1467b-4d02-4990-8eaa-f1e5b47adf37" d="M18,12.83h3V28.71H17.72V15.89l-3,1.71-1.27-2.44Z"/><path class="bfb1467b-4d02-4990-8eaa-f1e5b47adf37" d="M35.45,14.92a9.78,9.78,0,0,1,0,11.74,6.4,6.4,0,0,1-9,.87,6,6,0,0,1-.87-.87,9.83,9.83,0,0,1,0-11.77,6.38,6.38,0,0,1,9.88,0Zm-7.53,1.87a7.29,7.29,0,0,0-1,4,7.13,7.13,0,0,0,1,4,3,3,0,0,0,5.26,0,8.41,8.41,0,0,0,0-8,3,3,0,0,0-5.26,0Z"/><g id="b07eb129-96f1-421c-a443-9b48f8d105d3" data-name="bb36ad1c-948f-456f-b2e0-cd412fb84732"><path class="a0eba07c-88ad-4661-9b8c-1c38141f47ec" d="M25.07,9h-.34l-.39,1.2a2.62,2.62,0,0,1-.56,0,1.8,1.8,0,0,1-.65-.09h0L25,4.52a4.7,4.7,0,0,1,.75,0,3.51,3.51,0,0,1,.79.06l1.84,5.58a1.23,1.23,0,0,1-.65.16,1,1,0,0,1-.61-.15,1.16,1.16,0,0,1-.3-.58L26.62,9H25.07Zm0-1h1.24l-.12-.51c-.13-.47-.29-1-.46-1.71h0a12.33,12.33,0,0,1-.4,1.59Z"/></g><g id="bfcc29c2-e61f-40fb-ae7d-642b8fdb5af7" data-name="b3f52359-de00-4508-b355-77ea88b1dc70"><path class="a69b8b0e-573a-45c5-87b5-5656b7666861" d="M24.89,9h-.33l-.37,1.22a2.53,2.53,0,0,1-.55,0,1.8,1.8,0,0,1-.65-.09v-.07l1.83-5.58a4.69,4.69,0,0,1,.75,0,3.51,3.51,0,0,1,.79.06l1.75,5.57a1.27,1.27,0,0,1-.66.16.92.92,0,0,1-.6-.15,1.16,1.16,0,0,1-.3-.58L26.4,9Zm0-1h1.24L26,7.48c-.14-.47-.29-1-.46-1.71h-.05a12.33,12.33,0,0,1-.4,1.59Z"/></g><circle class="aaf7057d-afac-4151-b537-f1217d36ebb1" cx="77.1" cy="19.92" r="19.92"/><circle class="bfce163d-8834-4a90-86fd-34c32f2d3d46" cx="77.1" cy="19.92" r="16.43"/><path class="ab003197-b099-4375-a729-403d0414a8b4" d="M61.19,20.16A16.44,16.44,0,0,1,84.71,5.31,16.44,16.44,0,0,0,69.33,34.37q.36.2.72.36A16.45,16.45,0,0,1,61.19,20.16Z"/><path class="ef7fe123-5670-48f1-b738-7f191ad1f7d1" d="M84.71,5.35A16.44,16.44,0,0,1,70.05,34.77,16.44,16.44,0,0,0,85.66,5.83l-.23-.12Q85.07,5.52,84.71,5.35Z"/><path class="ab8bc91d-5e6b-4121-bd11-f00dcf3d904f" d="M76.9,35.34a14.94,14.94,0,0,1-7.12-2.11,15.25,15.25,0,0,1-5.16-5.13,15,15,0,0,0,5.45,4.6,14,14,0,0,0,6.83,1.46Z"/><path class="b6b7f7c1-19dc-4caa-8463-794f915c23c6" d="M77.8,34.16a14.05,14.05,0,0,0,6.83-1.45,15,15,0,0,0,5.45-4.6,15.25,15.25,0,0,1-5.16,5.13,14.94,14.94,0,0,1-7.12,2.11Z"/><path class="aa12fe9d-cbe1-4c5a-86a3-d73f45b10c49" d="M70.19,13h3V28.9H69.9V16.07l-3,1.72-1.27-2.4Z"/><path class="aa12fe9d-cbe1-4c5a-86a3-d73f45b10c49" d="M87.63,15.16a8.74,8.74,0,0,1,2,5.86,8.91,8.91,0,0,1-2,5.88,6.4,6.4,0,0,1-9,.87,6,6,0,0,1-.87-.87,9.83,9.83,0,0,1,0-11.77,6.36,6.36,0,0,1,8.94-1l.06,0a6.81,6.81,0,0,1,.93.93ZM80.1,17a8.35,8.35,0,0,0,0,8,3,3,0,0,0,5.27,0,8.41,8.41,0,0,0,0-8,3,3,0,0,0-5.27,0Z"/><path class="bfb1467b-4d02-4990-8eaa-f1e5b47adf37" d="M70,12.83h3V28.71H69.71V15.89l-3,1.71-1.27-2.44Z"/><path class="bfb1467b-4d02-4990-8eaa-f1e5b47adf37" d="M87.44,14.92a9.78,9.78,0,0,1,0,11.74,6.4,6.4,0,0,1-9,.87,6,6,0,0,1-.87-.87,9.83,9.83,0,0,1,0-11.77,6.38,6.38,0,0,1,9.88,0Zm-7.53,1.87a7.29,7.29,0,0,0-1,4,7.13,7.13,0,0,0,1,4,3,3,0,0,0,5.26,0,8.41,8.41,0,0,0,0-8,3,3,0,0,0-5.26,0Z"/><g id="bba68024-6aec-4d08-b92b-cea9b188cfc1" data-name="ac972599-af96-49d1-9931-0fd9d489677d"><path class="a0eba07c-88ad-4661-9b8c-1c38141f47ec" d="M77.06,9h-.34l-.38,1.2a2.62,2.62,0,0,1-.56,0,1.8,1.8,0,0,1-.65-.09h0L77,4.52a4.82,4.82,0,0,1,.76,0,5.12,5.12,0,0,1,.78.06l1.78,5.58a1.23,1.23,0,0,1-.65.16,1,1,0,0,1-.61-.15,1.16,1.16,0,0,1-.3-.58L78.56,9Zm0-1H78.3l-.11-.51c-.13-.47-.29-1-.46-1.71h0a12.33,12.33,0,0,1-.4,1.59Z"/></g><g id="fd2da486-5321-4880-a5ab-759c966e3c6b" data-name="bf3c28b4-ffd5-4dde-a83e-1e4a74c22e74"><path class="a69b8b0e-573a-45c5-87b5-5656b7666861" d="M76.88,9h-.33l-.36,1.22a2.53,2.53,0,0,1-.55,0,1.8,1.8,0,0,1-.65-.09v-.07l1.83-5.58a4.69,4.69,0,0,1,.75,0,3.51,3.51,0,0,1,.79.06l1.75,5.57a1.27,1.27,0,0,1-.66.16.92.92,0,0,1-.6-.15,1.16,1.16,0,0,1-.3-.58L78.39,9Zm0-1h1.24L78,7.48c-.13-.47-.29-1-.46-1.71h0a12.33,12.33,0,0,1-.4,1.59Z"/></g><circle class="aaf7057d-afac-4151-b537-f1217d36ebb1" cx="129.09" cy="19.92" r="19.92"/><circle class="bfce163d-8834-4a90-86fd-34c32f2d3d46" cx="129.09" cy="19.92" r="16.43"/><path class="ab003197-b099-4375-a729-403d0414a8b4" d="M113.19,20.16A16.45,16.45,0,0,1,136.7,5.31,16.45,16.45,0,0,0,122,34.77,16.43,16.43,0,0,1,113.19,20.16Z"/><path class="ef7fe123-5670-48f1-b738-7f191ad1f7d1" d="M136.7,5.35A16.44,16.44,0,0,1,122,34.77,16.44,16.44,0,0,0,137.42,5.71Q137.06,5.52,136.7,5.35Z"/><path class="ab8bc91d-5e6b-4121-bd11-f00dcf3d904f" d="M128.89,35.34a14.94,14.94,0,0,1-7.12-2.11,15.25,15.25,0,0,1-5.16-5.13,15,15,0,0,0,5.45,4.6,14,14,0,0,0,6.83,1.46Z"/><path class="b6b7f7c1-19dc-4caa-8463-794f915c23c6" d="M129.79,34.16a14.05,14.05,0,0,0,6.83-1.45,15,15,0,0,0,5.45-4.6,15.25,15.25,0,0,1-5.16,5.13,14.94,14.94,0,0,1-7.12,2.11Z"/><path class="aa12fe9d-cbe1-4c5a-86a3-d73f45b10c49" d="M122.13,13h3V28.9h-3.24V16.07l-3,1.72-1.27-2.4Z"/><path class="aa12fe9d-cbe1-4c5a-86a3-d73f45b10c49" d="M139.62,15.16a8.74,8.74,0,0,1,2,5.86,8.91,8.91,0,0,1-2,5.88,6.4,6.4,0,0,1-9,.87,6,6,0,0,1-.87-.87,9.83,9.83,0,0,1,0-11.77,6.36,6.36,0,0,1,8.94-1l.06,0a6.81,6.81,0,0,1,.93.93ZM132.09,17a8.38,8.38,0,0,0-.05,8,3,3,0,0,0,5.27,0,8.41,8.41,0,0,0,0-8,3,3,0,0,0-4.09-1.13A3.06,3.06,0,0,0,132.09,17Z"/><path class="bfb1467b-4d02-4990-8eaa-f1e5b47adf37" d="M121.94,12.83h3V28.71H121.7V15.89l-3,1.71-1.27-2.44Z"/><path class="bfb1467b-4d02-4990-8eaa-f1e5b47adf37" d="M139.43,14.92a9.78,9.78,0,0,1,0,11.74,6.4,6.4,0,0,1-9,.87,6,6,0,0,1-.87-.87,9.83,9.83,0,0,1,0-11.77,6.38,6.38,0,0,1,9.88,0Zm-7.53,1.87a7.29,7.29,0,0,0-1,4,7.13,7.13,0,0,0,1,4,3,3,0,0,0,5.26,0,7.13,7.13,0,0,0,1-4,7.29,7.29,0,0,0-1-4,3,3,0,0,0-5.26,0Z"/><g id="b3c9037f-a3ae-417f-9052-b67ef29e795e" data-name="a09b325d-6cd6-4e0b-9161-6b8c2d078455"><path class="a0eba07c-88ad-4661-9b8c-1c38141f47ec" d="M129.05,9h-.34l-.37,1.2a2.62,2.62,0,0,1-.56,0,1.8,1.8,0,0,1-.65-.09h0L129,4.52a4.82,4.82,0,0,1,.76,0,5.12,5.12,0,0,1,.78.06l1.77,5.58a1.23,1.23,0,0,1-.65.16,1,1,0,0,1-.61-.15,1.16,1.16,0,0,1-.3-.58L130.55,9Zm0-1h1.24l-.1-.51c-.13-.47-.29-1-.46-1.71h0a9.74,9.74,0,0,1-.4,1.59Z"/></g><g id="b85eb36e-f124-4f82-9c77-d8564658ce54" data-name="b2c636f2-cfd1-4f6c-95f4-68f8ba576f56"><path class="a69b8b0e-573a-45c5-87b5-5656b7666861" d="M128.88,9h-.34l-.35,1.22a2.62,2.62,0,0,1-.56,0,1.8,1.8,0,0,1-.65-.09v-.07l1.83-5.58a4.69,4.69,0,0,1,.75,0,3.51,3.51,0,0,1,.79.06l1.75,5.57a1.27,1.27,0,0,1-.66.16.92.92,0,0,1-.6-.15,1.16,1.16,0,0,1-.3-.58L130.38,9Zm0-1h1.24L130,7.48c-.13-.47-.29-1-.46-1.71h0a12.33,12.33,0,0,1-.4,1.59Z"/></g><circle class="aaf7057d-afac-4151-b537-f1217d36ebb1" cx="25.11" cy="59.77" r="19.92"/><circle class="bfce163d-8834-4a90-86fd-34c32f2d3d46" cx="25.11" cy="59.77" r="16.43"/><path class="ab003197-b099-4375-a729-403d0414a8b4" d="M9.24,60.06A16.44,16.44,0,0,1,25.68,43.62h0a16.33,16.33,0,0,1,7,1.59,16.14,16.14,0,0,0-7.61-1.87,16.43,16.43,0,0,0-7,31.28A16.43,16.43,0,0,1,9.24,60.06Z"/><path class="ef7fe123-5670-48f1-b738-7f191ad1f7d1" d="M32.72,45.21A16.43,16.43,0,0,1,18.06,74.62,16.43,16.43,0,0,0,32.72,45.21Z"/><path class="ab8bc91d-5e6b-4121-bd11-f00dcf3d904f" d="M24.91,75.16A15.08,15.08,0,0,1,17.79,73a15.25,15.25,0,0,1-5.16-5.13,15.09,15.09,0,0,0,5.45,4.61A14.18,14.18,0,0,0,24.91,74Z"/><path class="b6b7f7c1-19dc-4caa-8463-794f915c23c6" d="M25.81,74a14.16,14.16,0,0,0,6.83-1.44A15,15,0,0,0,38.09,68a15.25,15.25,0,0,1-5.16,5.13,15.06,15.06,0,0,1-7.12,2.12Z"/><path class="aa12fe9d-cbe1-4c5a-86a3-d73f45b10c49" d="M18.19,52.87h3V68.75H17.91V55.92l-3,1.72-1.28-2.4Z"/><path class="aa12fe9d-cbe1-4c5a-86a3-d73f45b10c49" d="M35.64,55a9.78,9.78,0,0,1,0,11.74,6.4,6.4,0,0,1-9,.87,6,6,0,0,1-.87-.87,9.77,9.77,0,0,1,0-11.77,6.38,6.38,0,0,1,9.88,0Zm-7.53,1.87a7.13,7.13,0,0,0-1,4,7.21,7.21,0,0,0,1,4,3,3,0,0,0,5.27,0,8.41,8.41,0,0,0,0-8,3,3,0,0,0-5.27,0Z"/><path class="bfb1467b-4d02-4990-8eaa-f1e5b47adf37" d="M18,52.68h3V68.57H17.72V55.74l-3,1.71-1.27-2.39Z"/><path class="bfb1467b-4d02-4990-8eaa-f1e5b47adf37" d="M35.45,54.78a8.71,8.71,0,0,1,2,5.85,8.94,8.94,0,0,1-2,5.89,6.4,6.4,0,0,1-9,.87,6,6,0,0,1-.87-.87,9.83,9.83,0,0,1,0-11.77,6.36,6.36,0,0,1,8.94-1l.06,0a6.81,6.81,0,0,1,.93.93Zm-7.53,1.87a8.35,8.35,0,0,0,0,8,3,3,0,0,0,5.26,0,8.41,8.41,0,0,0,0-8,3,3,0,0,0-5.26,0Z"/><g id="f7633e20-8195-42a7-b334-3eee1eb9f71c" data-name="f0a89497-1eda-48e0-b3c0-6d53c94fc1ed"><path class="a0eba07c-88ad-4661-9b8c-1c38141f47ec" d="M25.07,48.87h-.34l-.35,1.21a2.62,2.62,0,0,1-.56,0,1.91,1.91,0,0,1-.63-.08v-.06L25,44.36a4.69,4.69,0,0,1,.75,0,5.21,5.21,0,0,1,.79,0L28.35,50a1.23,1.23,0,0,1-.65.16,1,1,0,0,1-.61-.15,1.17,1.17,0,0,1-.3-.57l-.16-.55h-1.5Zm0-1h1.24l-.12-.52c-.13-.46-.29-1-.46-1.71h0a12.33,12.33,0,0,1-.4,1.59Z"/></g><g id="ec0a26be-d7df-4c9c-9f3d-cf7ceefe6e87" data-name="b61d0630-7f73-4e46-babc-0966ca00e3e5"><path class="a69b8b0e-573a-45c5-87b5-5656b7666861" d="M24.89,48.87h-.33l-.37,1.21a2.53,2.53,0,0,1-.55,0A2.05,2.05,0,0,1,23,50v-.06l1.83-5.58a4.69,4.69,0,0,1,.75,0,5.21,5.21,0,0,1,.79,0l1.83,5.59a1.27,1.27,0,0,1-.66.16.92.92,0,0,1-.6-.15,1.17,1.17,0,0,1-.3-.57l-.16-.55H24.93Zm0-1h1.24L26,47.35c-.14-.46-.29-1-.46-1.71h-.05a12.33,12.33,0,0,1-.4,1.59Z"/></g><circle class="aaf7057d-afac-4151-b537-f1217d36ebb1" cx="129.09" cy="59.77" r="19.92"/><circle class="bfce163d-8834-4a90-86fd-34c32f2d3d46" cx="129.09" cy="59.77" r="16.43"/><path class="ab003197-b099-4375-a729-403d0414a8b4" d="M113.19,60.06a16.44,16.44,0,0,1,16.44-16.44h0a16.33,16.33,0,0,1,7,1.59A16.14,16.14,0,0,0,129,43.34a16.43,16.43,0,0,0-7,31.28A16.41,16.41,0,0,1,113.19,60.06Z"/><path class="ef7fe123-5670-48f1-b738-7f191ad1f7d1" d="M136.7,45.21A16.43,16.43,0,0,1,122,74.62,16.43,16.43,0,0,0,136.7,45.21Z"/><path class="ab8bc91d-5e6b-4121-bd11-f00dcf3d904f" d="M128.89,75.16A15.08,15.08,0,0,1,121.77,73a15.25,15.25,0,0,1-5.16-5.13,15.09,15.09,0,0,0,5.45,4.61A14.18,14.18,0,0,0,128.89,74Z"/><path class="b6b7f7c1-19dc-4caa-8463-794f915c23c6" d="M129.79,74a14.16,14.16,0,0,0,6.83-1.44A15,15,0,0,0,142.07,68a15.25,15.25,0,0,1-5.16,5.13,15.06,15.06,0,0,1-7.12,2.12Z"/><path class="aa12fe9d-cbe1-4c5a-86a3-d73f45b10c49" d="M122.13,52.87h3V68.75h-3.24V55.92l-3,1.72-1.27-2.4Z"/><path class="aa12fe9d-cbe1-4c5a-86a3-d73f45b10c49" d="M139.62,55a9.78,9.78,0,0,1,0,11.74,6.4,6.4,0,0,1-9,.87,6,6,0,0,1-.87-.87,9.83,9.83,0,0,1,0-11.77,6.38,6.38,0,0,1,9.88,0Zm-7.53,1.87a7.13,7.13,0,0,0-1,4,7.21,7.21,0,0,0,1,4,3,3,0,0,0,5.27,0,8.41,8.41,0,0,0,0-8,3,3,0,0,0-5.27,0Z"/><path class="bfb1467b-4d02-4990-8eaa-f1e5b47adf37" d="M121.94,52.68h3V68.57H121.7V55.74l-3,1.71-1.27-2.39Z"/><path class="bfb1467b-4d02-4990-8eaa-f1e5b47adf37" d="M139.43,54.78a8.71,8.71,0,0,1,2,5.85,8.83,8.83,0,0,1-2,5.89,6.4,6.4,0,0,1-9,.87,6,6,0,0,1-.87-.87,9.83,9.83,0,0,1,0-11.77,6.36,6.36,0,0,1,8.94-1l.06,0a6.81,6.81,0,0,1,.93.93Zm-7.53,1.87a8.35,8.35,0,0,0,0,8,3,3,0,0,0,5.26,0,7.13,7.13,0,0,0,1-4,7.21,7.21,0,0,0-1-4,3,3,0,0,0-5.26,0Z"/><g id="a1fe7a4c-97de-4e9c-b768-694bc0eab0bc" data-name="bae3a0bc-5b49-465f-8ebb-f799425477c3"><path class="a0eba07c-88ad-4661-9b8c-1c38141f47ec" d="M129.05,48.87h-.34l-.35,1.21a2.62,2.62,0,0,1-.56,0,2.09,2.09,0,0,1-.61-.08v-.06L129,44.36a4.82,4.82,0,0,1,.76,0,5.08,5.08,0,0,1,.78,0L132.35,50a1.23,1.23,0,0,1-.65.16,1,1,0,0,1-.61-.15,1.17,1.17,0,0,1-.3-.57l-.16-.55h-1.5Zm0-1h1.24l-.14-.52c-.13-.46-.29-1-.46-1.71h0a9.74,9.74,0,0,1-.4,1.59Z"/></g><g id="f24e669b-ae9d-4823-9aa6-370aa1ed3122" data-name="a8ecb174-8583-4571-9e22-f94230ff7772"><path class="a69b8b0e-573a-45c5-87b5-5656b7666861" d="M128.88,48.87h-.34l-.35,1.21a2.62,2.62,0,0,1-.56,0A2.05,2.05,0,0,1,127,50v-.06l1.83-5.58a4.69,4.69,0,0,1,.75,0,5.21,5.21,0,0,1,.79,0l1.84,5.59a1.27,1.27,0,0,1-.66.16.92.92,0,0,1-.6-.15,1.17,1.17,0,0,1-.3-.57l-.16-.55H129Zm0-1h1.24l-.14-.52c-.13-.46-.29-1-.46-1.71h0a12.33,12.33,0,0,1-.4,1.59Z"/></g><circle class="aaf7057d-afac-4151-b537-f1217d36ebb1" cx="25.11" cy="99.47" r="19.92"/><circle class="bfce163d-8834-4a90-86fd-34c32f2d3d46" cx="25.11" cy="99.47" r="16.43"/><path class="ab003197-b099-4375-a729-403d0414a8b4" d="M9.24,99.76A16.44,16.44,0,0,1,25.68,83.32h0a16.33,16.33,0,0,1,7,1.59A16.15,16.15,0,0,0,25.07,83a16.43,16.43,0,0,0-7,31.28A16.44,16.44,0,0,1,9.24,99.76Z"/><path class="ef7fe123-5670-48f1-b738-7f191ad1f7d1" d="M32.72,84.91a16.43,16.43,0,0,1-14.66,29.41A16.43,16.43,0,0,0,32.72,84.91Z"/><path class="ab8bc91d-5e6b-4121-bd11-f00dcf3d904f" d="M24.91,114.9a15.06,15.06,0,0,1-7.12-2.12,15.25,15.25,0,0,1-5.16-5.13,15.09,15.09,0,0,0,5.45,4.61,14.16,14.16,0,0,0,6.83,1.44Z"/><path class="b6b7f7c1-19dc-4caa-8463-794f915c23c6" d="M25.81,113.7a14.16,14.16,0,0,0,6.83-1.44,15.09,15.09,0,0,0,5.45-4.61,15.25,15.25,0,0,1-5.16,5.13,15.06,15.06,0,0,1-7.12,2.12Z"/><path class="aa12fe9d-cbe1-4c5a-86a3-d73f45b10c49" d="M18.19,92.57h3v15.88H17.91V95.62l-3,1.72-1.28-2.4Z"/><path class="aa12fe9d-cbe1-4c5a-86a3-d73f45b10c49" d="M35.64,94.66a9.78,9.78,0,0,1,0,11.74,6.4,6.4,0,0,1-9,.87,6,6,0,0,1-.87-.87,9.77,9.77,0,0,1,0-11.77,6.38,6.38,0,0,1,9.88,0Zm-7.53,1.87a7.13,7.13,0,0,0-1,4,7.21,7.21,0,0,0,1,4,3,3,0,0,0,5.27,0,8.41,8.41,0,0,0,0-8,3,3,0,0,0-5.27,0Z"/><path class="bfb1467b-4d02-4990-8eaa-f1e5b47adf37" d="M18,92.38h3v15.88H17.72V95.44l-3,1.71-1.27-2.4Z"/><path class="bfb1467b-4d02-4990-8eaa-f1e5b47adf37" d="M35.45,94.47a9.78,9.78,0,0,1,0,11.74,6.4,6.4,0,0,1-9,.87,6,6,0,0,1-.87-.87,9.81,9.81,0,0,1,0-11.76,6.37,6.37,0,0,1,9-1l0,0a5.72,5.72,0,0,1,.92.92Zm-7.53,1.88a8.35,8.35,0,0,0,0,8,3,3,0,0,0,5.26,0,8.41,8.41,0,0,0,0-8,3,3,0,0,0-5.26,0Z"/><g id="a7db3b66-8095-4e15-b93e-c43e6d8bb35b" data-name="b2de7000-9d08-4f60-b153-eb27a32381b8"><path class="a0eba07c-88ad-4661-9b8c-1c38141f47ec" d="M25.07,88.57h-.34l-.35,1.21a2.62,2.62,0,0,1-.56,0,1.8,1.8,0,0,1-.65-.09v-.06L25,84.05a4.69,4.69,0,0,1,.75,0,5.21,5.21,0,0,1,.79,0l1.79,5.59a1.23,1.23,0,0,1-.65.16,1,1,0,0,1-.61-.15,1.17,1.17,0,0,1-.3-.57l-.16-.55h-1.5Zm0-1h1.24l-.12-.52c-.13-.46-.29-1-.46-1.71h0a12.33,12.33,0,0,1-.4,1.59Z"/></g><g id="bcd40462-274a-405d-8c6c-21438cf34565" data-name="ebbbb58e-6e51-4973-91e5-d16a9a8c5d57"><path class="a69b8b0e-573a-45c5-87b5-5656b7666861" d="M24.89,88.57h-.33l-.37,1.21a2.53,2.53,0,0,1-.55,0,1.8,1.8,0,0,1-.65-.09v-.06l1.83-5.58a4.69,4.69,0,0,1,.75,0,5.21,5.21,0,0,1,.79,0l1.83,5.59a1.27,1.27,0,0,1-.66.16.92.92,0,0,1-.6-.15,1.17,1.17,0,0,1-.3-.57l-.16-.55H24.93Zm0-1h1.24L26,87.05c-.14-.46-.29-1-.46-1.71h-.05a12.33,12.33,0,0,1-.4,1.59Z"/></g><circle class="aaf7057d-afac-4151-b537-f1217d36ebb1" cx="77.1" cy="99.47" r="19.92"/><circle class="bfce163d-8834-4a90-86fd-34c32f2d3d46" cx="77.1" cy="99.47" r="16.43"/><path class="ab003197-b099-4375-a729-403d0414a8b4" d="M61.19,99.76A16.44,16.44,0,0,1,77.63,83.32h0a16.33,16.33,0,0,1,7,1.59A16.15,16.15,0,0,0,77.06,83a16.43,16.43,0,0,0-7,31.28A16.46,16.46,0,0,1,61.19,99.76Z"/><path class="ef7fe123-5670-48f1-b738-7f191ad1f7d1" d="M84.71,84.91a16.43,16.43,0,0,1-14.66,29.41A16.43,16.43,0,0,0,84.71,84.91Z"/><path class="ab8bc91d-5e6b-4121-bd11-f00dcf3d904f" d="M76.9,114.9a15.06,15.06,0,0,1-7.12-2.12,15.25,15.25,0,0,1-5.16-5.13,15.09,15.09,0,0,0,5.45,4.61,14.16,14.16,0,0,0,6.83,1.44Z"/><path class="b6b7f7c1-19dc-4caa-8463-794f915c23c6" d="M77.8,113.7a14.16,14.16,0,0,0,6.83-1.44,15.09,15.09,0,0,0,5.45-4.61,15.25,15.25,0,0,1-5.16,5.13,15.06,15.06,0,0,1-7.12,2.12Z"/><path class="aa12fe9d-cbe1-4c5a-86a3-d73f45b10c49" d="M70.19,92.57h3v15.88H69.9V95.62l-3,1.72-1.27-2.4Z"/><path class="aa12fe9d-cbe1-4c5a-86a3-d73f45b10c49" d="M87.63,94.66a9.78,9.78,0,0,1,0,11.74,6.4,6.4,0,0,1-9,.87,6,6,0,0,1-.87-.87,9.83,9.83,0,0,1,0-11.77,6.38,6.38,0,0,1,9.88,0ZM80.1,96.53a7.13,7.13,0,0,0-1,4,7.21,7.21,0,0,0,1,4,3,3,0,0,0,5.27,0,8.41,8.41,0,0,0,0-8,3,3,0,0,0-5.27,0Z"/><path class="bfb1467b-4d02-4990-8eaa-f1e5b47adf37" d="M70,92.38h3v15.88H69.71V95.44l-3,1.71-1.27-2.4Z"/><path class="bfb1467b-4d02-4990-8eaa-f1e5b47adf37" d="M87.44,94.47a9.78,9.78,0,0,1,0,11.74,6.4,6.4,0,0,1-9,.87,6,6,0,0,1-.87-.87,9.81,9.81,0,0,1,0-11.76,6.37,6.37,0,0,1,9-1l0,0a5.72,5.72,0,0,1,.92.92Zm-7.53,1.88a8.35,8.35,0,0,0,0,8,3,3,0,0,0,5.26,0,8.41,8.41,0,0,0,0-8,3,3,0,0,0-5.26,0Z"/><g id="bc0a41a9-6b4a-4abf-9b0f-88967effc8a9" data-name="afdea7f9-58ee-41e8-89b0-bd33a53d4352"><path class="a0eba07c-88ad-4661-9b8c-1c38141f47ec" d="M77.06,88.57h-.34l-.35,1.21a2.62,2.62,0,0,1-.56,0,1.8,1.8,0,0,1-.65-.09v-.06L77,84.05a4.82,4.82,0,0,1,.76,0,5.08,5.08,0,0,1,.78,0l1.79,5.59a1.23,1.23,0,0,1-.65.16,1,1,0,0,1-.61-.15,1.17,1.17,0,0,1-.3-.57l-.16-.55H77.1Zm0-1H78.3l-.11-.52c-.13-.46-.29-1-.46-1.71h0a12.33,12.33,0,0,1-.4,1.59Z"/></g><g id="a6f38f4b-23a1-4fbc-a820-fa394a7a165e" data-name="f1e61e72-9e6d-4f03-8876-2f7c9527bc0f"><path class="a69b8b0e-573a-45c5-87b5-5656b7666861" d="M76.88,88.57h-.33l-.36,1.21a2.53,2.53,0,0,1-.55,0,1.8,1.8,0,0,1-.65-.09v-.06l1.83-5.58a4.69,4.69,0,0,1,.75,0,5.21,5.21,0,0,1,.79,0l1.83,5.59a1.27,1.27,0,0,1-.66.16.92.92,0,0,1-.6-.15,1.17,1.17,0,0,1-.3-.57l-.16-.55H76.92Zm0-1h1.24L78,87.05c-.13-.46-.29-1-.46-1.71h0a12.33,12.33,0,0,1-.4,1.59Z"/></g><circle class="aaf7057d-afac-4151-b537-f1217d36ebb1" cx="129.09" cy="99.47" r="19.92"/><circle class="bfce163d-8834-4a90-86fd-34c32f2d3d46" cx="129.09" cy="99.47" r="16.43"/><path class="ab003197-b099-4375-a729-403d0414a8b4" d="M113.19,99.76a16.44,16.44,0,0,1,16.44-16.44h0a16.33,16.33,0,0,1,7,1.59A16.18,16.18,0,0,0,129.05,83a16.43,16.43,0,0,0-7,31.28A16.46,16.46,0,0,1,113.19,99.76Z"/><path class="ef7fe123-5670-48f1-b738-7f191ad1f7d1" d="M136.7,84.91A16.43,16.43,0,0,1,122,114.32h0A16.43,16.43,0,0,0,136.7,84.91Z"/><path class="ab8bc91d-5e6b-4121-bd11-f00dcf3d904f" d="M128.89,114.9a15.06,15.06,0,0,1-7.12-2.12,15.25,15.25,0,0,1-5.16-5.13,15.09,15.09,0,0,0,5.45,4.61,14.16,14.16,0,0,0,6.83,1.44Z"/><path class="b6b7f7c1-19dc-4caa-8463-794f915c23c6" d="M129.79,113.7a14.16,14.16,0,0,0,6.83-1.44,15.09,15.09,0,0,0,5.45-4.61,15.25,15.25,0,0,1-5.16,5.13,15.06,15.06,0,0,1-7.12,2.12Z"/><path class="aa12fe9d-cbe1-4c5a-86a3-d73f45b10c49" d="M122.13,92.57h3v15.88h-3.24V95.62l-3,1.72-1.27-2.4Z"/><path class="aa12fe9d-cbe1-4c5a-86a3-d73f45b10c49" d="M139.62,94.66a9.78,9.78,0,0,1,0,11.74,6.4,6.4,0,0,1-9,.87,6,6,0,0,1-.87-.87,9.83,9.83,0,0,1,0-11.77,6.38,6.38,0,0,1,9.88,0Zm-7.53,1.87a7.13,7.13,0,0,0-1,4,7.21,7.21,0,0,0,1,4,3,3,0,0,0,5.27,0,8.41,8.41,0,0,0,0-8,3,3,0,0,0-5.27,0Z"/><path class="bfb1467b-4d02-4990-8eaa-f1e5b47adf37" d="M121.94,92.38h3v15.88H121.7V95.44l-3,1.71-1.27-2.4Z"/><path class="bfb1467b-4d02-4990-8eaa-f1e5b47adf37" d="M139.43,94.47a9.78,9.78,0,0,1,0,11.74,6.4,6.4,0,0,1-9,.87,6,6,0,0,1-.87-.87,9.81,9.81,0,0,1,0-11.76,6.37,6.37,0,0,1,9-1l0,0a5.72,5.72,0,0,1,.92.92Zm-7.53,1.88a8.35,8.35,0,0,0,0,8,3,3,0,0,0,5.26,0,8.41,8.41,0,0,0,0-8,3,3,0,0,0-5.26,0Z"/><g id="a3cb62e3-fdcf-4103-943b-98ca659026e7" data-name="f8078188-8749-4883-909f-cd1f10a91c41"><path class="a0eba07c-88ad-4661-9b8c-1c38141f47ec" d="M129.05,88.57h-.34l-.35,1.21a2.62,2.62,0,0,1-.56,0,1.8,1.8,0,0,1-.65-.09v-.06L129,84.05a4.82,4.82,0,0,1,.76,0,5.08,5.08,0,0,1,.78,0l1.79,5.59a1.23,1.23,0,0,1-.65.16,1,1,0,0,1-.61-.15,1.17,1.17,0,0,1-.3-.57l-.16-.55h-1.5Zm0-1h1.24l-.14-.52c-.13-.46-.29-1-.46-1.71h0a9.74,9.74,0,0,1-.4,1.59Z"/></g><g id="b078788a-1f54-40f0-b374-5904c532ca81" data-name="a2cae8d1-d74c-40cb-9aee-ffc3da865b47"><path class="a69b8b0e-573a-45c5-87b5-5656b7666861" d="M128.88,88.57h-.34l-.35,1.21a2.62,2.62,0,0,1-.56,0,1.8,1.8,0,0,1-.65-.09v-.06l1.83-5.58a4.69,4.69,0,0,1,.75,0,5.21,5.21,0,0,1,.79,0l1.84,5.59a1.27,1.27,0,0,1-.66.16.92.92,0,0,1-.6-.15,1.17,1.17,0,0,1-.3-.57l-.16-.55H129Zm0-1h1.24l-.14-.52c-.13-.46-.29-1-.46-1.71h0a12.33,12.33,0,0,1-.4,1.59Z"/></g></g></g></g></g></svg>