<svg xmlns="http://www.w3.org/2000/svg" viewBox="0 0 154.2 119.39"><defs><style>.aeecd10b-9262-46de-bb1b-af15b22f48cc{fill:none;}.bd384c0a-95f0-4d34-83bd-584b5e3925a6{fill:#adadad;}.e8485222-5031-4dd2-a071-f89ebece3536{fill:#bcbcbc;}.b562f2a5-bd22-4b6f-81b7-dcc3a5e7ffab{fill:#848484;}.bf6b8770-41f0-46b9-9bc8-5d6c94519dd2{fill:#f2f2f2;}.b3adb397-ce99-4435-8786-4c717cfcae4c{fill:#efefef;}.a4859520-fcc0-45f3-9863-f1a404b95ecd{fill:#a2a2a3;}.bbb5ad3c-bafc-4ebe-ad55-4849b851b17b{fill:#dbdbdb;}</style></defs><title>1</title><g id="f9026769-be99-4b9f-83e3-175737c23d7f" data-name="Capa 2"><g id="b65f4746-cf58-4499-95c8-1ca5b6548983" data-name="Capa 1"><rect class="aeecd10b-9262-46de-bb1b-af15b22f48cc" width="154.2" height="119.39"/><g id="b47d7305-a384-4afb-a782-70eee1b6a5ba" data-name="bd63ecdc-00be-4907-a93b-650601a8402a"><g id="bb5e9848-af05-4739-8bb6-b2cc372f268c" data-name="b92d203c-61ca-4c4d-baca-9c7bcae02eec"><path class="bd384c0a-95f0-4d34-83bd-584b5e3925a6" d="M61.6,59.69h0a15.51,15.51,0,0,0,3,9.08h0a15.55,15.55,0,0,0,7.72,5.61h0a15.43,15.43,0,0,0,9.55,0h0a15.32,15.32,0,0,0,7.72-5.61h0a15.37,15.37,0,0,0,3-9.08h0a15.28,15.28,0,0,0-3-9.08h0A15.4,15.4,0,0,0,81.82,45h0a15.58,15.58,0,0,0-9.55,0h0a15.56,15.56,0,0,0-7.67,5.61h0A15.56,15.56,0,0,0,61.6,59.69Z"/><path class="e8485222-5031-4dd2-a071-f89ebece3536" d="M62.9,59.69h0A14.19,14.19,0,0,0,65.6,68h0a14.2,14.2,0,0,0,7.06,5.14h0a14.15,14.15,0,0,0,8.73,0h0A14.12,14.12,0,0,0,88.45,68h0a14,14,0,0,0,2.7-8.3h0a14,14,0,0,0-2.7-8.3h0a14.07,14.07,0,0,0-7-5.18h0a14.15,14.15,0,0,0-8.73,0h0a14.15,14.15,0,0,0-7.12,5.14h0A14.22,14.22,0,0,0,62.9,59.69Z"/><path class="b562f2a5-bd22-4b6f-81b7-dcc3a5e7ffab" d="M64.27,59.81A13.26,13.26,0,0,1,77.51,46.54a13.08,13.08,0,0,1,5.67,1.27,13.24,13.24,0,1,0-12.9,23.12l.46.25.63.31A13.23,13.23,0,0,1,64.27,59.81Z"/><path class="bf6b8770-41f0-46b9-9bc8-5d6c94519dd2" d="M83.18,47.84a13.24,13.24,0,0,1-11.81,23.7A13.24,13.24,0,0,0,83.82,48.16C83.61,48.05,83.4,47.94,83.18,47.84Z"/><path class="b562f2a5-bd22-4b6f-81b7-dcc3a5e7ffab" d="M76.43,54.57h2.84V69.85H76.16V57.52l-2.85,1.72-1.23-2.3Z"/><path class="b3adb397-ce99-4435-8786-4c717cfcae4c" d="M76.28,54.41h2.84V69.7H76V57.36L73.16,59,71.93,56.7Z"/><g id="f1d8d5a4-b7c6-438b-b3e8-c4e7efe718af" data-name="a129abaa-c9b0-4595-9c22-1cc4869e1b28"><path class="bd384c0a-95f0-4d34-83bd-584b5e3925a6" d="M77,50.8h-.26l-.29,1H76a2.34,2.34,0,0,1-.52-.08h0l1.41-4.48h.61c.21,0,.43,0,.63,0l1.46,4.47a1,1,0,0,1-.53.13.81.81,0,0,1-.47-.12,1.05,1.05,0,0,1-.28-.48l-.12-.44H77ZM77,50h1l-.11-.42c-.11-.37-.23-.83-.37-1.38h0a7.73,7.73,0,0,1-.32,1.28Z"/></g><g id="a09067c6-3675-44b5-9a02-824f30f86e5e" data-name="e437455f-8e3b-4f3b-a17e-3e640a0a8039"><path class="b3adb397-ce99-4435-8786-4c717cfcae4c" d="M76.9,50.8h-.3l-.29,1h-.45a2.34,2.34,0,0,1-.52-.08h0l1.47-4.5h.61a3.31,3.31,0,0,1,.63,0l1.45,4.5a1.19,1.19,0,0,1-.53.13.85.85,0,0,1-.49-.12,1.08,1.08,0,0,1-.21-.49l-.13-.44Zm0-.85h1l-.12-.42c-.11-.37-.23-.83-.37-1.38h0a7.73,7.73,0,0,1-.32,1.28Z"/></g><path class="a4859520-fcc0-45f3-9863-f1a404b95ecd" d="M77.12,72.06a12.45,12.45,0,0,1-8.68-3.77A12.26,12.26,0,0,1,65,59.61a12.13,12.13,0,0,0,3.67,8.44,11.84,11.84,0,0,0,8.43,3.32Z"/><path class="bbb5ad3c-bafc-4ebe-ad55-4849b851b17b" d="M77.43,71.37a11.83,11.83,0,0,0,8.44-3.32,12,12,0,0,0,3.66-8.44,12.18,12.18,0,0,1-3.42,8.68,12.37,12.37,0,0,1-8.68,3.77Z"/></g></g></g></g></svg>