<svg xmlns="http://www.w3.org/2000/svg" viewBox="0 0 154.2 119.39"><defs><style>.bbcdc92e-be99-4153-bf02-c12f222c8546{fill:none;}.a58e2f14-8e2e-44f0-a3ed-827f976d0898{fill:#adadad;}.aa298494-1f72-47f0-b042-f7df352e42cf{fill:#bcbcbc;}.eefd4248-022a-47b7-b289-ae820c80a439{fill:#f2f2f2;}.b765b678-680a-4648-904b-c9bda3d263f3{fill:#848484;}.bd38517a-5cf8-4400-8b04-5cc7a884f551{fill:#efefef;}.bc7324f8-7871-4cba-8f0a-babe96184b65{fill:#a2a2a3;}.aaf1a7c9-9de5-4f53-9a99-ab22e9759920{fill:#dbdbdb;}</style></defs><title>1 9</title><g id="f1f09a8f-76cb-412b-bd3a-dc6464c13384" data-name="Capa 2"><g id="a51b4722-c50f-4144-a235-601c6e9afbd1" data-name="Capa 1"><rect class="bbcdc92e-be99-4153-bf02-c12f222c8546" width="154.2" height="119.39"/><g id="bd5091e3-c3d4-4b2f-bd3b-7d7536a44f98" data-name="b8c2767e-5bc7-4197-832a-24c871924195"><g id="b1453828-a51f-4fe9-9f9d-3c351e974c5d" data-name="f80781d7-3faa-4bc0-9d90-11a107cadd54"><path class="a58e2f14-8e2e-44f0-a3ed-827f976d0898" d="M8.49,22.14v.78a15.2,15.2,0,0,0,2.76,8.77l.28.4a15.22,15.22,0,0,0,7.58,5.6h0a15.21,15.21,0,0,0,9.66,0h0A15.17,15.17,0,0,0,36.35,32l.26-.34A15.22,15.22,0,0,0,39.37,23v-.78a15.2,15.2,0,0,0-2.76-8.77l-.28-.4a15.13,15.13,0,0,0-7.58-5.66h0a15.21,15.21,0,0,0-9.66,0h0A15.13,15.13,0,0,0,11.49,13l-.28.4A15.18,15.18,0,0,0,8.49,22.14Z"/><path class="aa298494-1f72-47f0-b042-f7df352e42cf" d="M9.82,22.17v.72a13.81,13.81,0,0,0,2.52,8l.25.37a13.9,13.9,0,0,0,6.9,5.17h0a13.93,13.93,0,0,0,8.84,0h0a13.86,13.86,0,0,0,6.93-5.17l.25-.37a13.81,13.81,0,0,0,2.52-8v-.72a13.81,13.81,0,0,0-2.52-8l-.25-.37a13.83,13.83,0,0,0-6.93-5.11h0a13.93,13.93,0,0,0-8.84,0h0a13.83,13.83,0,0,0-6.88,5.14l-.25.37A13.88,13.88,0,0,0,9.82,22.17Z"/><path class="eefd4248-022a-47b7-b289-ae820c80a439" d="M30.07,10.28a13.72,13.72,0,0,1,7.11,12.13A13.47,13.47,0,0,1,23.94,36.09h0a13,13,0,0,1-5.68-1.31,12.93,12.93,0,0,0,6.14,1.55A13.48,13.48,0,0,0,37.61,22.69,13.73,13.73,0,0,0,30.07,10.28Z"/><path class="b765b678-680a-4648-904b-c9bda3d263f3" d="M23.32,17.23h2.84V33H23.05V20.27L20.2,22,19,19.57Z"/><path class="bd38517a-5cf8-4400-8b04-5cc7a884f551" d="M23.17,17.08H26V32.87H22.9V20.12l-2.85,1.7-1.22-2.38Z"/><g id="bf44cc65-33dd-4594-a688-e213b76983d4" data-name="b10d2960-593b-428c-94fd-dad35928037e"><path class="a58e2f14-8e2e-44f0-a3ed-827f976d0898" d="M23.91,13.33h-.3l-.29,1a1.7,1.7,0,0,1-.45,0,1.82,1.82,0,0,1-.52-.08h0l1.47-4.68a3.11,3.11,0,0,1,.61,0,3.32,3.32,0,0,1,.63,0l1.43,4.68a1.09,1.09,0,0,1-.53.13.77.77,0,0,1-.47-.12.88.88,0,0,1-.24-.48l-.13-.46H23.91Zm0-.87h1L24.79,12c-.11-.39-.23-.86-.37-1.43h0a8.87,8.87,0,0,1-.32,1.33Z"/></g><g id="b5421858-9b49-4b6d-ae83-8a27f0bb6e1c" data-name="e8bb54c8-7702-42e2-b159-c2548c93e4c5"><path class="bd38517a-5cf8-4400-8b04-5cc7a884f551" d="M23.77,13.33h-.28l-.29,1a1.7,1.7,0,0,1-.45,0,1.82,1.82,0,0,1-.52-.08h0l1.48-4.68a3.11,3.11,0,0,1,.61,0,3.31,3.31,0,0,1,.63,0l1.45,4.65a1.09,1.09,0,0,1-.53.13.85.85,0,0,1-.49-.12,1.09,1.09,0,0,1-.24-.48L25,13.29H23.77Zm0-.87h1L24.65,12c-.1-.39-.23-.86-.36-1.43h-.05a8.87,8.87,0,0,1-.32,1.33Z"/></g><path class="bc7324f8-7871-4cba-8f0a-babe96184b65" d="M24,35.31a12.14,12.14,0,0,1-8.75-4,12.87,12.87,0,0,1-3.35-8.89,12.72,12.72,0,0,0,3.58,8.65A11.6,11.6,0,0,0,24,34.57Z"/><path class="aaf1a7c9-9de5-4f53-9a99-ab22e9759920" d="M24.32,34.57a11.6,11.6,0,0,0,8.5-3.51,12.67,12.67,0,0,0,3.6-8.65,12.76,12.76,0,0,1-3.35,8.89,12.14,12.14,0,0,1-8.75,4Z"/><path class="a58e2f14-8e2e-44f0-a3ed-827f976d0898" d="M8.49,97.37h0a15.53,15.53,0,0,0,3,9.08h0a15.49,15.49,0,0,0,7.73,5.61h0a15.4,15.4,0,0,0,9.54,0h0a15.49,15.49,0,0,0,7.73-5.61h0a15.48,15.48,0,0,0,2.9-9.08h0a15.48,15.48,0,0,0-2.9-9.08h0a15.41,15.41,0,0,0-7.73-5.6h0a15.4,15.4,0,0,0-9.54,0h0a15.45,15.45,0,0,0-7.73,5.61h0A15.5,15.5,0,0,0,8.49,97.37Z"/><path class="aa298494-1f72-47f0-b042-f7df352e42cf" d="M9.82,97.37h0a14.14,14.14,0,0,0,2.67,8.3h0a14.23,14.23,0,0,0,7.07,5.13h0a14.12,14.12,0,0,0,8.72,0h0a14.23,14.23,0,0,0,7.07-5.13h0A14.13,14.13,0,0,0,38,97.37h0a14.13,14.13,0,0,0-2.69-8.3h0a14.08,14.08,0,0,0-7.07-5.14h0a14.12,14.12,0,0,0-8.72,0h0a14.08,14.08,0,0,0-7.07,5.14h0A14.14,14.14,0,0,0,9.82,97.37Z"/><path class="b765b678-680a-4648-904b-c9bda3d263f3" d="M11.16,97.48a13.25,13.25,0,0,1,18.91-12A13.24,13.24,0,0,0,17.16,108.6l.47.25.63.32A13.24,13.24,0,0,1,11.16,97.48Z"/><path class="eefd4248-022a-47b7-b289-ae820c80a439" d="M30.07,85.57a13.24,13.24,0,0,1-11.81,23.64A13.24,13.24,0,0,0,31.58,86.33,11.85,11.85,0,0,0,30.07,85.57Z"/><path class="b765b678-680a-4648-904b-c9bda3d263f3" d="M23.32,92.25h2.84v15.32H23.05V95.19L20.2,96.84,19,94.57Z"/><path class="bd38517a-5cf8-4400-8b04-5cc7a884f551" d="M23.17,92.09H26v15.28H22.9V95l-2.85,1.65-1.22-2.3Z"/><g id="f126f914-a14f-464d-a63e-0c1c51bd2a18" data-name="a6fd0235-f48c-475d-b9bd-ff52d18b2533"><path class="a58e2f14-8e2e-44f0-a3ed-827f976d0898" d="M23.91,88.47h-.3l-.29,1h-.45a1.82,1.82,0,0,1-.52-.08h0l1.47-4.5h.61a3.31,3.31,0,0,1,.63,0l1.43,4.45a1.09,1.09,0,0,1-.53.13.78.78,0,0,1-.49-.12.93.93,0,0,1-.24-.46l-.13-.45H23.91Zm0-.84h1l-.12-.42c-.11-.37-.23-.83-.37-1.38h0a8.26,8.26,0,0,1-.32,1.28Z"/></g><g id="a0340f98-4458-49bb-bbf5-6c7cf16d7b99" data-name="a0e23eb5-d6d9-42bf-bf0d-81765ef2079e"><path class="bd38517a-5cf8-4400-8b04-5cc7a884f551" d="M23.77,88.47h-.28l-.29,1h-.45a1.82,1.82,0,0,1-.52-.08h0l1.47-4.5h.61a3.31,3.31,0,0,1,.63,0l1.45,4.5a1.09,1.09,0,0,1-.53.13.85.85,0,0,1-.49-.12,1,1,0,0,1-.24-.46L25,88.49H23.8Zm0-.84h1l-.12-.42c-.1-.37-.23-.83-.36-1.38h-.05a8.26,8.26,0,0,1-.32,1.28Z"/></g><path class="bc7324f8-7871-4cba-8f0a-babe96184b65" d="M24,109.74A12.45,12.45,0,0,1,15.34,106a12.22,12.22,0,0,1-3.43-8.68,12.07,12.07,0,0,0,3.7,8.4A11.86,11.86,0,0,0,24,109Z"/><path class="aaf1a7c9-9de5-4f53-9a99-ab22e9759920" d="M24.32,109.05a11.89,11.89,0,0,0,8.44-3.32,12,12,0,0,0,3.66-8.44A12.15,12.15,0,0,1,33,106a12.41,12.41,0,0,1-8.68,3.77Z"/><path class="a58e2f14-8e2e-44f0-a3ed-827f976d0898" d="M8.49,60.17h0a15.53,15.53,0,0,0,3,9.08h0a15.49,15.49,0,0,0,7.73,5.61h0a15.4,15.4,0,0,0,9.54,0h0a15.49,15.49,0,0,0,7.73-5.61h0a15.48,15.48,0,0,0,2.9-9.08h0a15.48,15.48,0,0,0-2.9-9.08h0a15.45,15.45,0,0,0-7.73-5.61h0a15.4,15.4,0,0,0-9.54,0h0a15.45,15.45,0,0,0-7.73,5.61h0A15.53,15.53,0,0,0,8.49,60.17Z"/><path class="aa298494-1f72-47f0-b042-f7df352e42cf" d="M9.82,60.17h0a14.14,14.14,0,0,0,2.67,8.3h0a14.2,14.2,0,0,0,7.09,5.1h0a14.12,14.12,0,0,0,8.72,0h0a14.23,14.23,0,0,0,7.07-5.13h0a14.13,14.13,0,0,0,2.69-8.3h0a14.13,14.13,0,0,0-2.69-8.3h0a14.17,14.17,0,0,0-7.07-5.18h0a14,14,0,0,0-8.69,0h0a14.08,14.08,0,0,0-7.07,5.14h0A14.07,14.07,0,0,0,9.82,60.17Z"/><path class="b765b678-680a-4648-904b-c9bda3d263f3" d="M11.16,60.28a13.25,13.25,0,0,1,18.91-12A13.24,13.24,0,0,0,17.16,71.4l.47.25.63.32A13.24,13.24,0,0,1,11.16,60.28Z"/><path class="eefd4248-022a-47b7-b289-ae820c80a439" d="M30.07,48.32A13.24,13.24,0,0,1,18.26,72,13.24,13.24,0,1,0,30.7,48.63Z"/><path class="b765b678-680a-4648-904b-c9bda3d263f3" d="M23.32,55.05h2.84V70.32H23.05V58l-2.85,1.7L19,57.38Z"/><path class="bd38517a-5cf8-4400-8b04-5cc7a884f551" d="M23.17,54.89H26V70.17H22.9V57.84l-2.85,1.64-1.22-2.3Z"/><g id="e6b71f91-25f1-475e-b595-4fcde9b8aa5e" data-name="afcbb3b1-4f3c-4eb5-9208-ffe3ad1b020d"><path class="a58e2f14-8e2e-44f0-a3ed-827f976d0898" d="M23.91,51.27h-.3l-.29,1h-.45a1.82,1.82,0,0,1-.52-.08h0l1.47-4.5h.61a3.31,3.31,0,0,1,.63,0l1.43,4.45a1.09,1.09,0,0,1-.53.13.78.78,0,0,1-.49-.12.93.93,0,0,1-.24-.46l-.13-.45H23.91Zm0-.84h1L24.79,50c-.11-.37-.23-.83-.37-1.38h0a8.26,8.26,0,0,1-.32,1.28Z"/></g><g id="fa348936-94fe-4868-ad83-b65c463276f5" data-name="baaf0ec6-ef6c-4cc3-82a1-ffb5d267d26e"><path class="bd38517a-5cf8-4400-8b04-5cc7a884f551" d="M23.77,51.27h-.28l-.29,1h-.45a1.82,1.82,0,0,1-.52-.08h0l1.47-4.5h.61a3.31,3.31,0,0,1,.63,0l1.45,4.5a1.09,1.09,0,0,1-.53.13.85.85,0,0,1-.49-.12,1,1,0,0,1-.24-.46L25,51.29H23.8Zm0-.84h1L24.65,50c-.1-.37-.23-.83-.36-1.38h-.05a8.26,8.26,0,0,1-.32,1.28Z"/></g><path class="bc7324f8-7871-4cba-8f0a-babe96184b65" d="M24,72.57a12.46,12.46,0,0,1-8.67-3.8,12.22,12.22,0,0,1-3.43-8.68,12.07,12.07,0,0,0,3.67,8.48A11.86,11.86,0,0,0,24,71.89Z"/><path class="aaf1a7c9-9de5-4f53-9a99-ab22e9759920" d="M24.32,71.85a11.85,11.85,0,0,0,12.1-11.72A12.15,12.15,0,0,1,33,68.81a12.4,12.4,0,0,1-8.68,3.76Z"/><path class="a58e2f14-8e2e-44f0-a3ed-827f976d0898" d="M114.74,22.14v.78a15.19,15.19,0,0,0,2.75,8.77l.29.4a15.2,15.2,0,0,0,7.57,5.6h0a15.21,15.21,0,0,0,9.66,0h0a15.11,15.11,0,0,0,7.6-5.65l.28-.4a15.18,15.18,0,0,0,2.72-8.72v-.78a15.12,15.12,0,0,0-2.76-8.72l-.28-.4A15.13,15.13,0,0,0,135,7.36h0a15.21,15.21,0,0,0-9.66,0h0A15.11,15.11,0,0,0,117.76,13l-.29.4A15.19,15.19,0,0,0,114.74,22.14Z"/><path class="aa298494-1f72-47f0-b042-f7df352e42cf" d="M116.06,22.17v.72a13.81,13.81,0,0,0,2.52,8l.26.37a13.86,13.86,0,0,0,6.93,5.17h0a13.9,13.9,0,0,0,8.83,0h0a13.87,13.87,0,0,0,6.89-5.17l.26-.37a13.81,13.81,0,0,0,2.52-8v-.72a13.81,13.81,0,0,0-2.52-8l-.26-.37a13.76,13.76,0,0,0-6.92-5.11h0a13.9,13.9,0,0,0-8.83,0h0a13.86,13.86,0,0,0-6.93,5.17l-.26.37A13.83,13.83,0,0,0,116.06,22.17Z"/><path class="b765b678-680a-4648-904b-c9bda3d263f3" d="M117.4,22.69A13.47,13.47,0,0,1,130.6,9h0a12.86,12.86,0,0,1,5.68,1.32,12.79,12.79,0,0,0-6.11-1.59A13.46,13.46,0,0,0,117,22.37a13.75,13.75,0,0,0,7.54,12.37A13.75,13.75,0,0,1,117.4,22.69Z"/><path class="eefd4248-022a-47b7-b289-ae820c80a439" d="M136.32,10.28a13.76,13.76,0,0,1,7.1,12.13,13.47,13.47,0,0,1-13.24,13.68h0a13,13,0,0,1-5.69-1.31,13,13,0,0,0,6.1,1.55,13.47,13.47,0,0,0,13.27-13.64A13.71,13.71,0,0,0,136.32,10.28Z"/><path class="b765b678-680a-4648-904b-c9bda3d263f3" d="M129.61,17.23h2.88V33h-3.12V20.27L126.49,22l-1.22-2.41Z"/><path class="bd38517a-5cf8-4400-8b04-5cc7a884f551" d="M129.41,17.08h2.85V32.87h-3.12V20.12l-2.84,1.7-1.23-2.38Z"/><g id="a876d799-11a5-410e-ba87-841c0443add3" data-name="efc5e310-6ff7-4c4c-8b57-6b6797ac6fe8"><path class="a58e2f14-8e2e-44f0-a3ed-827f976d0898" d="M130.15,13.33h-.27l-.29,1a1.69,1.69,0,0,1-.45,0,1.82,1.82,0,0,1-.52-.08h0l1.47-4.68a3.11,3.11,0,0,1,.61,0,3.31,3.31,0,0,1,.63,0l1.45,4.65a1.09,1.09,0,0,1-.53.13.85.85,0,0,1-.49-.12,1.09,1.09,0,0,1-.24-.48l-.13-.46h-1.24Zm0-.87h1L131,12c-.1-.39-.23-.86-.36-1.43h0a10.33,10.33,0,0,1-.33,1.33Z"/></g><g id="e3edab92-1fdd-48a4-b92c-57d9108b5c19" data-name="e476d76d-7f67-465e-b45d-a1f879ff7aae"><path class="bd38517a-5cf8-4400-8b04-5cc7a884f551" d="M130,13.33h-.27l-.28,1a1.69,1.69,0,0,1-.45,0,1.89,1.89,0,0,1-.53-.08h0L130,9.57a3.11,3.11,0,0,1,.61,0,3.21,3.21,0,0,1,.62,0l1.42,4.65a1.09,1.09,0,0,1-.53.13.85.85,0,0,1-.49-.12,1.09,1.09,0,0,1-.24-.48l-.13-.46H130Zm0-.87h1L130.9,12c-.11-.39-.23-.86-.37-1.43h0a8.87,8.87,0,0,1-.32,1.33Z"/></g><path class="bc7324f8-7871-4cba-8f0a-babe96184b65" d="M130.26,35.31a12.14,12.14,0,0,1-8.75-4,12.87,12.87,0,0,1-3.35-8.89,12.67,12.67,0,0,0,3.6,8.65,11.6,11.6,0,0,0,8.5,3.51Z"/><path class="aaf1a7c9-9de5-4f53-9a99-ab22e9759920" d="M130.61,34.57a11.58,11.58,0,0,0,8.49-3.51,12.68,12.68,0,0,0,3.61-8.65,12.87,12.87,0,0,1-3.35,8.89,12.14,12.14,0,0,1-8.75,4Z"/><path class="a58e2f14-8e2e-44f0-a3ed-827f976d0898" d="M114.74,97.37h0a15.37,15.37,0,0,0,3,9.08h0a15.46,15.46,0,0,0,7.72,5.61h0a15.43,15.43,0,0,0,9.55,0h0a15.52,15.52,0,0,0,7.72-5.61h0a15.44,15.44,0,0,0,3-9.08h0a15.44,15.44,0,0,0-3-9.08h0A15.46,15.46,0,0,0,135,82.68h0a15.43,15.43,0,0,0-9.55,0h0a15.42,15.42,0,0,0-7.72,5.61h0A15.37,15.37,0,0,0,114.74,97.37Z"/><path class="aa298494-1f72-47f0-b042-f7df352e42cf" d="M116.06,97.37h0a14.07,14.07,0,0,0,2.7,8.3h0a14.1,14.1,0,0,0,7.06,5.13h0a14.15,14.15,0,0,0,8.73,0h0a14.21,14.21,0,0,0,7.06-5.11h0a14.14,14.14,0,0,0,2.7-8.3h0a14.14,14.14,0,0,0-2.7-8.3h0A14.06,14.06,0,0,0,134.55,84h0a14.15,14.15,0,0,0-8.73,0h0a14.06,14.06,0,0,0-7.06,5.14h0A14.06,14.06,0,0,0,116.06,97.37Z"/><path class="b765b678-680a-4648-904b-c9bda3d263f3" d="M117.4,97.48a13.26,13.26,0,0,1,18.92-12,13.24,13.24,0,0,0-12.91,23.12l.47.25.63.32A13.27,13.27,0,0,1,117.4,97.48Z"/><path class="eefd4248-022a-47b7-b289-ae820c80a439" d="M136.32,85.57a13.24,13.24,0,0,1-11.83,23.64,13.08,13.08,0,0,0,6.1,1.48,13.24,13.24,0,0,0,5.68-25.2Z"/><path class="b765b678-680a-4648-904b-c9bda3d263f3" d="M129.61,92.25h2.88v15.32h-3.12V95.19l-2.88,1.65-1.22-2.27Z"/><path class="bd38517a-5cf8-4400-8b04-5cc7a884f551" d="M129.41,92.09h2.85v15.28h-3.12V95l-2.84,1.65-1.23-2.3Z"/><g id="b5681e19-c5e5-4601-a58a-20ea3349bf4e" data-name="b2b001d7-7901-4111-94f9-584d23a6ece0"><path class="a58e2f14-8e2e-44f0-a3ed-827f976d0898" d="M130.15,88.47h-.27l-.29,1h-.45a1.82,1.82,0,0,1-.52-.08h0l1.47-4.5h.61a3.31,3.31,0,0,1,.63,0l1.45,4.5a1.09,1.09,0,0,1-.53.13.85.85,0,0,1-.49-.12,1,1,0,0,1-.24-.46l-.13-.45h-1.21Zm0-.84h1l-.12-.42c-.1-.37-.23-.83-.36-1.38h0a9.62,9.62,0,0,1-.33,1.28Z"/></g><g id="b2c095b9-77d1-4f32-a6be-dddf9fc78e1b" data-name="f3278288-0d64-445b-983e-193462115210"><path class="bd38517a-5cf8-4400-8b04-5cc7a884f551" d="M130,88.47h-.27l-.28,1H129a1.89,1.89,0,0,1-.53-.08h0l1.48-4.5a3.11,3.11,0,0,1,.61,0,3.21,3.21,0,0,1,.62,0l1.45,4.5a1.09,1.09,0,0,1-.53.13.85.85,0,0,1-.49-.12,1,1,0,0,1-.24-.46l-.13-.45H130Zm0-.84h1l-.11-.42c-.11-.37-.23-.83-.37-1.38h0a8.26,8.26,0,0,1-.32,1.28Z"/></g><path class="bc7324f8-7871-4cba-8f0a-babe96184b65" d="M130.26,109.74a12.41,12.41,0,0,1-8.68-3.77,12.15,12.15,0,0,1-3.42-8.68,12,12,0,0,0,3.66,8.44,11.89,11.89,0,0,0,8.44,3.32Z"/><path class="aaf1a7c9-9de5-4f53-9a99-ab22e9759920" d="M130.61,109.05a11.86,11.86,0,0,0,8.43-3.32,12.07,12.07,0,0,0,3.67-8.44,12.25,12.25,0,0,1-3.42,8.68,12.46,12.46,0,0,1-8.68,3.77Z"/><path class="a58e2f14-8e2e-44f0-a3ed-827f976d0898" d="M114.74,60.17h0a15.37,15.37,0,0,0,3,9.08h0a15.48,15.48,0,0,0,7.75,5.61h0a15.43,15.43,0,0,0,9.55,0h0a15.52,15.52,0,0,0,7.72-5.61h0a15.44,15.44,0,0,0,3-9.08h0a15.44,15.44,0,0,0-3-9.08h0A15.46,15.46,0,0,0,135,45.48h0a15.43,15.43,0,0,0-9.55,0h0a15.42,15.42,0,0,0-7.72,5.61h0A15.4,15.4,0,0,0,114.74,60.17Z"/><path class="aa298494-1f72-47f0-b042-f7df352e42cf" d="M116.06,60.17h0a14.07,14.07,0,0,0,2.7,8.3h0a14.13,14.13,0,0,0,7.06,5.1h0a14.15,14.15,0,0,0,8.73,0h0a14.14,14.14,0,0,0,7.06-5.13h0a14.14,14.14,0,0,0,2.7-8.3h0a14.14,14.14,0,0,0-2.7-8.3h0a14.19,14.19,0,0,0-7.06-5.18h0a14.15,14.15,0,0,0-8.73,0h0a14.06,14.06,0,0,0-7.06,5.14h0A14,14,0,0,0,116.06,60.17Z"/><path class="b765b678-680a-4648-904b-c9bda3d263f3" d="M117.4,60.28a13.26,13.26,0,0,1,18.92-12A13.24,13.24,0,0,0,123.41,71.4l.47.25.63.32A13.27,13.27,0,0,1,117.4,60.28Z"/><path class="eefd4248-022a-47b7-b289-ae820c80a439" d="M136.32,48.32A13.24,13.24,0,0,1,124.49,72a13.24,13.24,0,1,0,12.44-23.38l-.63-.31Z"/><path class="b765b678-680a-4648-904b-c9bda3d263f3" d="M129.61,55.05h2.88V70.32h-3.12V58l-2.88,1.7-1.23-2.31Z"/><path class="bd38517a-5cf8-4400-8b04-5cc7a884f551" d="M129.41,54.89h2.85V70.17h-3.12V57.84l-2.84,1.64-1.23-2.3Z"/><g id="e9dfc120-97b5-4680-a369-0907e780e4b7" data-name="b64a790f-35d1-4aeb-aedc-5ba2a2e41f9f"><path class="a58e2f14-8e2e-44f0-a3ed-827f976d0898" d="M130.15,51.27h-.27l-.29,1h-.45a1.82,1.82,0,0,1-.52-.08h0l1.47-4.5h.61a3.31,3.31,0,0,1,.63,0l1.45,4.5a1.09,1.09,0,0,1-.53.13.85.85,0,0,1-.49-.12,1,1,0,0,1-.24-.46l-.13-.45h-1.21Zm0-.84h1L131,50c-.1-.37-.23-.83-.36-1.38h0a9.62,9.62,0,0,1-.33,1.28Z"/></g><g id="fbda238f-ef14-4827-98d7-76d7958a7a95" data-name="fc97dec1-4a92-43ee-89b9-3d9e198dc79f"><path class="bd38517a-5cf8-4400-8b04-5cc7a884f551" d="M130,51.27h-.27l-.28,1H129a1.89,1.89,0,0,1-.53-.08h0l1.48-4.5a3.11,3.11,0,0,1,.61,0,3.21,3.21,0,0,1,.62,0l1.45,4.5a1.09,1.09,0,0,1-.53.13.85.85,0,0,1-.49-.12,1,1,0,0,1-.24-.46l-.13-.45H130Zm0-.84h1L130.9,50c-.11-.37-.23-.83-.37-1.38h0a8.26,8.26,0,0,1-.32,1.28Z"/></g><path class="bc7324f8-7871-4cba-8f0a-babe96184b65" d="M130.26,72.57a12.41,12.41,0,0,1-8.68-3.77,12.15,12.15,0,0,1-3.42-8.68,11.91,11.91,0,0,0,12.1,11.77Z"/><path class="aaf1a7c9-9de5-4f53-9a99-ab22e9759920" d="M130.61,71.85A11.9,11.9,0,0,0,139,68.57a12.07,12.07,0,0,0,3.67-8.44,12.25,12.25,0,0,1-3.42,8.68,12.42,12.42,0,0,1-8.68,3.76Z"/><path class="a58e2f14-8e2e-44f0-a3ed-827f976d0898" d="M62.31,22.14v.78a15.13,15.13,0,0,0,2.76,8.77l.28.4a15.16,15.16,0,0,0,7.58,5.6h0a15.27,15.27,0,0,0,9.68,0h0A15.17,15.17,0,0,0,90.19,32l.28-.4a15.21,15.21,0,0,0,2.75-8.72v-.78a15.19,15.19,0,0,0-2.73-8.72l-.28-.4a15.11,15.11,0,0,0-7.6-5.65h0a15.21,15.21,0,0,0-9.66,0h0A15.13,15.13,0,0,0,65.37,13l-.28.4A15,15,0,0,0,62.31,22.14Z"/><path class="aa298494-1f72-47f0-b042-f7df352e42cf" d="M63.61,22.17v.72a13.82,13.82,0,0,0,2.53,8l.25.37a13.86,13.86,0,0,0,6.93,5.17h0a13.9,13.9,0,0,0,8.83,0h0a13.86,13.86,0,0,0,6.93-5.17l.26-.37a13.81,13.81,0,0,0,2.52-8v-.72a13.81,13.81,0,0,0-2.52-8l-.26-.37a13.74,13.74,0,0,0-6.91-5.11h0a13.9,13.9,0,0,0-8.83,0h0a13.86,13.86,0,0,0-6.93,5.17l-.25.37A13.77,13.77,0,0,0,63.61,22.17Z"/><path class="b765b678-680a-4648-904b-c9bda3d263f3" d="M65,22.69A13.46,13.46,0,0,1,78.21,9h0a12.79,12.79,0,0,1,5.67,1.32,12.76,12.76,0,0,0-6.13-1.63A13.46,13.46,0,0,0,64.49,22.34v0h0a13.72,13.72,0,0,0,7.56,12.37A13.75,13.75,0,0,1,65,22.69Z"/><path class="eefd4248-022a-47b7-b289-ae820c80a439" d="M83.89,10.28A13.76,13.76,0,0,1,91,22.41,13.46,13.46,0,0,1,77.76,36.09a13,13,0,0,1-5.68-1.31,12.93,12.93,0,0,0,6.14,1.55A13.47,13.47,0,0,0,91.49,22.69,13.72,13.72,0,0,0,83.89,10.28Z"/><path class="b765b678-680a-4648-904b-c9bda3d263f3" d="M77.14,17.23H80V33H76.87V20.27L74,22l-1.23-2.41Z"/><path class="bd38517a-5cf8-4400-8b04-5cc7a884f551" d="M77,17.08h2.84V32.87H76.72V20.12l-2.85,1.7-1.26-2.38Z"/><g id="b26d15b5-b56b-4310-bf4f-997879035677" data-name="eb89a846-fffe-4ee4-83b7-f8c960f47cc9"><path class="a58e2f14-8e2e-44f0-a3ed-827f976d0898" d="M77.72,13.33h-.23l-.29,1a1.7,1.7,0,0,1-.45,0,1.82,1.82,0,0,1-.52-.08h0l1.38-4.68a3.11,3.11,0,0,1,.61,0,3.31,3.31,0,0,1,.63,0l1.44,4.67a1.09,1.09,0,0,1-.53.13.8.8,0,0,1-.48-.12,1,1,0,0,1-.25-.48l-.12-.46H77.69Zm0-.87h1L78.61,12c-.12-.39-.23-.86-.37-1.46h0a8.87,8.87,0,0,1-.32,1.33Z"/></g><g id="b3f210be-638a-459a-9a4a-7193ac538d66" data-name="a5ac9806-0d08-4939-9cd0-4b7996e23aea"><path class="bd38517a-5cf8-4400-8b04-5cc7a884f551" d="M77.61,13.33h-.27l-.29,1a1.69,1.69,0,0,1-.45,0,1.82,1.82,0,0,1-.52-.08h0l1.47-4.68a3.11,3.11,0,0,1,.61,0,3.32,3.32,0,0,1,.63,0l1.45,4.65a1.09,1.09,0,0,1-.53.13.78.78,0,0,1-.49-.12.88.88,0,0,1-.24-.48l-.13-.46H77.61Zm0-.87h1L78.49,12c-.11-.39-.23-.86-.37-1.43h0a8.87,8.87,0,0,1-.32,1.33Z"/></g><path class="bc7324f8-7871-4cba-8f0a-babe96184b65" d="M77.83,35.31a12.14,12.14,0,0,1-8.75-4,12.87,12.87,0,0,1-3.35-8.89,12.67,12.67,0,0,0,3.6,8.65,11.61,11.61,0,0,0,8.5,3.5Z"/><path class="aaf1a7c9-9de5-4f53-9a99-ab22e9759920" d="M78.14,34.57a11.6,11.6,0,0,0,8.5-3.51,12.67,12.67,0,0,0,3.6-8.65,12.87,12.87,0,0,1-3.35,8.89,12.14,12.14,0,0,1-8.75,4Z"/><path class="a58e2f14-8e2e-44f0-a3ed-827f976d0898" d="M62.31,97.37h0a15.37,15.37,0,0,0,3,9.08h0A15.52,15.52,0,0,0,73,112.06h0a15.43,15.43,0,0,0,9.55,0h0a15.46,15.46,0,0,0,7.72-5.61h0a15.37,15.37,0,0,0,3-9.08h0a15.37,15.37,0,0,0-3-9.08h0a15.37,15.37,0,0,0-7.81-5.61h0a15.43,15.43,0,0,0-9.55,0h0a15.46,15.46,0,0,0-7.72,5.61h0A15.4,15.4,0,0,0,62.31,97.37Z"/><path class="aa298494-1f72-47f0-b042-f7df352e42cf" d="M63.61,97.37h0a14.14,14.14,0,0,0,2.7,8.3h0a14.14,14.14,0,0,0,7.06,5.13h0a14.15,14.15,0,0,0,8.73,0h0a14.1,14.1,0,0,0,7.06-5.13h0a14.07,14.07,0,0,0,2.7-8.3h0a14.07,14.07,0,0,0-2.7-8.3h0a14.06,14.06,0,0,0-7.06-5.14h0a14.15,14.15,0,0,0-8.73,0h0a14.06,14.06,0,0,0-7.06,5.14h0A14.14,14.14,0,0,0,63.61,97.37Z"/><path class="b765b678-680a-4648-904b-c9bda3d263f3" d="M65,97.48a13.25,13.25,0,0,1,18.91-12,13.24,13.24,0,0,0-13.4,22.84c.33.19.66.37,1,.53l.63.32A13.23,13.23,0,0,1,65,97.48Z"/><path class="eefd4248-022a-47b7-b289-ae820c80a439" d="M83.89,85.57a13.24,13.24,0,0,1-11.81,23.69A13.24,13.24,0,1,0,84.52,85.88Z"/><path class="b765b678-680a-4648-904b-c9bda3d263f3" d="M77.14,92.25H80v15.32H76.87V95.19L74,96.84l-1.23-2.27Z"/><path class="bd38517a-5cf8-4400-8b04-5cc7a884f551" d="M77,92.09h2.84v15.28H76.72V95l-2.85,1.65-1.23-2.3Z"/><g id="f406cf96-0831-4a41-89ae-4ae179071b3b" data-name="bf9c4d55-0c52-4c4b-bd7e-4c61d0ab5db1"><path class="a58e2f14-8e2e-44f0-a3ed-827f976d0898" d="M77.72,88.47h-.23l-.29,1h-.45a1.82,1.82,0,0,1-.52-.08h0l1.48-4.5h.61a3.32,3.32,0,0,1,.63,0l1.44,4.5a1.09,1.09,0,0,1-.53.13.8.8,0,0,1-.48-.12,1,1,0,0,1-.25-.46L79,88.49H77.76Zm0-.84h1l-.11-.42c-.11-.37-.23-.83-.37-1.38h0a8.26,8.26,0,0,1-.32,1.28Z"/></g><g id="f1df74a6-c789-4868-b153-9ad90efdade6" data-name="b066c35f-1c0c-49fa-a500-ba487e2f80e6"><path class="bd38517a-5cf8-4400-8b04-5cc7a884f551" d="M77.61,88.47h-.27l-.29,1H76.6a1.82,1.82,0,0,1-.52-.08h0l1.47-4.5h.61a3.32,3.32,0,0,1,.63,0l1.45,4.5a1.09,1.09,0,0,1-.53.13.78.78,0,0,1-.49-.12.93.93,0,0,1-.24-.46l-.13-.45H77.61Zm0-.84h1l-.12-.42c-.11-.37-.23-.83-.37-1.38h0a8.26,8.26,0,0,1-.32,1.28Z"/></g><path class="bc7324f8-7871-4cba-8f0a-babe96184b65" d="M77.83,109.74A12.46,12.46,0,0,1,69.15,106a12.25,12.25,0,0,1-3.42-8.68,12.07,12.07,0,0,0,3.67,8.44,11.86,11.86,0,0,0,8.43,3.32Z"/><path class="aaf1a7c9-9de5-4f53-9a99-ab22e9759920" d="M78.14,109.05a11.88,11.88,0,0,0,8.47-3.36,12.06,12.06,0,0,0,3.66-8.44,12.25,12.25,0,0,1-3.42,8.68,12.41,12.41,0,0,1-8.68,3.77Z"/><path class="a58e2f14-8e2e-44f0-a3ed-827f976d0898" d="M62.31,60.17h0a15.37,15.37,0,0,0,3,9.08h0A15.52,15.52,0,0,0,73,74.86h0a15.43,15.43,0,0,0,9.55,0h0a15.46,15.46,0,0,0,7.72-5.61h0a15.37,15.37,0,0,0,3-9.08h0a15.37,15.37,0,0,0-3-9.08h0a15.37,15.37,0,0,0-7.81-5.61h0a15.43,15.43,0,0,0-9.55,0h0a15.46,15.46,0,0,0-7.72,5.61h0A15.4,15.4,0,0,0,62.31,60.17Z"/><path class="aa298494-1f72-47f0-b042-f7df352e42cf" d="M63.61,60.17h0a14.14,14.14,0,0,0,2.7,8.3h0a14.19,14.19,0,0,0,7.06,5.1h0a14.15,14.15,0,0,0,8.73,0h0a14.1,14.1,0,0,0,7.06-5.13h0a14.07,14.07,0,0,0,2.7-8.3h0a14.07,14.07,0,0,0-2.7-8.3h0a14.1,14.1,0,0,0-7-5.18h0a14.15,14.15,0,0,0-8.73,0h0a14.06,14.06,0,0,0-7.06,5.14h0A14.09,14.09,0,0,0,63.61,60.17Z"/><path class="b765b678-680a-4648-904b-c9bda3d263f3" d="M65,60.28a13.25,13.25,0,0,1,18.91-12,13.24,13.24,0,0,0-13.4,22.84c.33.19.66.37,1,.53l.63.32A13.23,13.23,0,0,1,65,60.28Z"/><path class="eefd4248-022a-47b7-b289-ae820c80a439" d="M83.89,48.32A13.24,13.24,0,0,1,72.08,72,13.24,13.24,0,1,0,84.52,48.63Z"/><path class="b765b678-680a-4648-904b-c9bda3d263f3" d="M77.14,55.05H80V70.32H76.87V58L74,59.69l-1.23-2.31Z"/><path class="bd38517a-5cf8-4400-8b04-5cc7a884f551" d="M77,54.89h2.84V70.17H76.72V57.84l-2.85,1.64-1.23-2.3Z"/><g id="e085dbc5-fe69-4f5b-8afe-d7717e076d49" data-name="ea03087b-0586-477a-98a4-5392d73832c7"><path class="a58e2f14-8e2e-44f0-a3ed-827f976d0898" d="M77.72,51.27h-.23l-.29,1h-.45a1.82,1.82,0,0,1-.52-.08h0l1.41-4.45h.61a3.31,3.31,0,0,1,.63,0l1.44,4.5a1.09,1.09,0,0,1-.53.13.8.8,0,0,1-.48-.12,1,1,0,0,1-.25-.46l-.12-.45H77.69Zm0-.84h1L78.61,50c-.11-.37-.23-.83-.37-1.38h0a8.26,8.26,0,0,1-.32,1.28Z"/></g><g id="aa430faa-2754-4a51-88ad-74a02b3f13ae" data-name="b6a14042-e79c-4ce8-9c56-50e5fbec5a53"><path class="bd38517a-5cf8-4400-8b04-5cc7a884f551" d="M77.61,51.27h-.27l-.29,1H76.6a1.82,1.82,0,0,1-.52-.08h0l1.47-4.5h.61a3.32,3.32,0,0,1,.63,0l1.45,4.5a1.09,1.09,0,0,1-.53.13.78.78,0,0,1-.49-.12.93.93,0,0,1-.24-.46l-.13-.45H77.61Zm0-.84h1L78.49,50c-.11-.37-.23-.83-.37-1.38h0a8.26,8.26,0,0,1-.32,1.28Z"/></g><path class="bc7324f8-7871-4cba-8f0a-babe96184b65" d="M77.83,72.57a12.46,12.46,0,0,1-8.68-3.77,12.25,12.25,0,0,1-3.42-8.68,12.09,12.09,0,0,0,3.67,8.45,11.86,11.86,0,0,0,8.43,3.32Z"/><path class="aaf1a7c9-9de5-4f53-9a99-ab22e9759920" d="M78.14,71.85a11.91,11.91,0,0,0,8.44-3.28,12.06,12.06,0,0,0,3.66-8.44,12.25,12.25,0,0,1-3.42,8.68,12.4,12.4,0,0,1-8.68,3.76Z"/></g></g></g></g></svg>