<svg xmlns="http://www.w3.org/2000/svg" viewBox="0 0 480.62 258.1"><defs><style>.cls-1{fill:#dfd9d0;}.cls-2{fill:#1f8ebe;}.cls-3{fill:#f9f3e9;}</style></defs><title>CDU2</title><g id="Capa_2" data-name="Capa 2"><g id="Capa_1-2" data-name="Capa 1"><polygon class="cls-1" points="480.62 155.46 0 155.46 0 14.46 3 14.46 3 152.46 477.62 152.46 477.62 6.9 480.62 6.9 480.62 155.46"/><path class="cls-2" d="M6.12,0h154a0,0,0,0,1,0,0V51.32a0,0,0,0,1,0,0H.12a0,0,0,0,1,0,0V6A6,6,0,0,1,6.12,0Z"/><path class="cls-3" d="M88.2,15.63a1,1,0,0,1,.59.81,1.27,1.27,0,0,1-.29,1,.89.89,0,0,1-.69.42,1.6,1.6,0,0,1-.84-.18,9.29,9.29,0,0,0-2.13-1A8.79,8.79,0,0,0,79.2,17a7.63,7.63,0,0,0-2.55,1.73A7.84,7.84,0,0,0,75,21.36a9.21,9.21,0,0,0-.6,3.39A9.39,9.39,0,0,0,75,28.29a7.86,7.86,0,0,0,1.73,2.65,7.38,7.38,0,0,0,2.55,1.67,8.58,8.58,0,0,0,3.16.57,8.48,8.48,0,0,0,2.37-.33,8.69,8.69,0,0,0,2.16-1,1.4,1.4,0,0,1,.84-.15,1.13,1.13,0,0,1,.72.42,1.26,1.26,0,0,1,.27,1,1,1,0,0,1-.57.77,11.35,11.35,0,0,1-1.71.82,12,12,0,0,1-2,.59,11.3,11.3,0,0,1-2.09.2,11.11,11.11,0,0,1-4.08-.75A10,10,0,0,1,75,32.64a10.26,10.26,0,0,1-2.32-3.41,11.26,11.26,0,0,1-.86-4.48,11.08,11.08,0,0,1,.81-4.29,10.15,10.15,0,0,1,2.27-3.39A10.68,10.68,0,0,1,82.44,14a11.18,11.18,0,0,1,3,.43A10.21,10.21,0,0,1,88.2,15.63Z"/><rect class="cls-2" x="160.12" width="160" height="51.32"/><path class="cls-3" d="M240.69,14.25a8.55,8.55,0,0,1,3.85.82,7.76,7.76,0,0,1,2.78,2.3A10.31,10.31,0,0,1,249,20.74a14.28,14.28,0,0,1,.56,4,13.58,13.58,0,0,1-1,5.26,8.77,8.77,0,0,1-2.94,3.81,8.12,8.12,0,0,1-4.92,1.43h-7.5a1.15,1.15,0,0,1-.86-.36A1.21,1.21,0,0,1,232,34V15.45a1.16,1.16,0,0,1,1.2-1.2Zm-.3,18.66a6,6,0,0,0,3.76-1.12,6.29,6.29,0,0,0,2.13-3,11.88,11.88,0,0,0,.68-4.08,12.68,12.68,0,0,0-.38-3.11A7.91,7.91,0,0,0,245.41,19a5.71,5.71,0,0,0-2-1.8,6.27,6.27,0,0,0-3-.66h-6.15l.24-.24V33.21l-.18-.3Z"/><path class="cls-2" d="M320.12,0h160a0,0,0,0,1,0,0V51.32a0,0,0,0,1,0,0h-154a6,6,0,0,1-6-6V0A0,0,0,0,1,320.12,0Z" transform="translate(800.23 51.32) rotate(180)"/><path class="cls-3" d="M407,14.22a1.09,1.09,0,0,1,.84.36,1.24,1.24,0,0,1,.33.87V27.36a8.08,8.08,0,0,1-1.07,4.14,7.85,7.85,0,0,1-6.94,4A8,8,0,0,1,396,34.39a7.78,7.78,0,0,1-2.86-2.89,8.17,8.17,0,0,1-1.05-4.14V15.45a1.21,1.21,0,0,1,.34-.87,1.22,1.22,0,0,1,.92-.36,1.19,1.19,0,0,1,.85.36,1.17,1.17,0,0,1,.38.87V27.36a5.68,5.68,0,0,0,.75,2.93,5.39,5.39,0,0,0,2,2,5.48,5.48,0,0,0,2.78.74,5.6,5.6,0,0,0,2.82-.74,5.7,5.7,0,0,0,2.08-2,5.43,5.43,0,0,0,.8-2.93V15.45a1.31,1.31,0,0,1,.3-.87A1,1,0,0,1,407,14.22Z"/><rect class="cls-1" x="158.62" width="3" height="256.6"/><rect class="cls-1" x="318.62" width="3" height="256.6"/><path class="cls-1" d="M468.94,258.1H11.68A11.69,11.69,0,0,1,0,246.42V154H3v92.46a8.68,8.68,0,0,0,8.68,8.68H468.94a8.69,8.69,0,0,0,8.68-8.68V154h3v92.46A11.69,11.69,0,0,1,468.94,258.1Z"/></g></g></svg>