<svg xmlns="http://www.w3.org/2000/svg" viewBox="0 0 961.02 258.12"><defs><style>.a7a62ec8-cc3b-44f1-b29a-005f45abda84{fill:#dfd9d0;}.b1553e50-abe1-446c-9668-ad417fda3973{fill:#1f8ebe;}.b60a374d-b17e-4557-9e25-b85c36ba255e{fill:#f9f3e9;}</style></defs><title>cmumcdu2</title><g id="e9b4b12f-dac2-44db-bd92-0ae466672c69" data-name="Capa 2"><g id="b877e280-bcde-4d22-aaad-d59d29faa3bc" data-name="Capa 1"><polygon class="a7a62ec8-cc3b-44f1-b29a-005f45abda84" points="961.02 155.47 320.03 155.47 320.03 51.33 323.03 51.33 323.03 152.47 958.02 152.47 958.02 6.91 961.02 6.91 961.02 155.47"/><rect class="b1553e50-abe1-446c-9668-ad417fda3973" x="320.52" y="0.01" width="160" height="51.32"/><path class="b60a374d-b17e-4557-9e25-b85c36ba255e" d="M395,14.22a1.09,1.09,0,0,1,.84.36,1.24,1.24,0,0,1,.33.87V27.36a8.07,8.07,0,0,1-1.06,4.14,8,8,0,0,1-2.87,2.9,7.86,7.86,0,0,1-4.08,1.06,8,8,0,0,1-4.12-1.06,7.83,7.83,0,0,1-2.87-2.9,8.17,8.17,0,0,1-1.05-4.14V15.45a1.22,1.22,0,0,1,.35-.87,1.2,1.2,0,0,1,.91-.36,1.21,1.21,0,0,1,.86.36,1.16,1.16,0,0,1,.37.87V27.36a5.74,5.74,0,0,0,.75,2.94,5.5,5.5,0,0,0,4.8,2.76,5.59,5.59,0,0,0,2.82-.73,5.81,5.81,0,0,0,2.09-2,5.49,5.49,0,0,0,.79-2.94V15.45a1.31,1.31,0,0,1,.3-.87A1,1,0,0,1,395,14.22Z"/><path class="b60a374d-b17e-4557-9e25-b85c36ba255e" d="M402.68,14.22a1.39,1.39,0,0,1,.59.15,1.29,1.29,0,0,1,.49.39l7.95,12-1,0,8-12a1.12,1.12,0,0,1,1-.54,1.33,1.33,0,0,1,.84.36,1.12,1.12,0,0,1,.36.87V34a1.19,1.19,0,0,1-.36.87,1.3,1.3,0,0,1-1.8,0,1.19,1.19,0,0,1-.36-.87V17.73l.75.15-7.08,10.77a1.68,1.68,0,0,1-.43.36,1,1,0,0,1-.53.15,1.1,1.1,0,0,1-.54-.15,1.62,1.62,0,0,1-.45-.36l-7-10.77.63-.78V34a1.24,1.24,0,0,1-.33.87,1.09,1.09,0,0,1-.84.36,1,1,0,0,1-.82-.36,1.28,1.28,0,0,1-.32-.87V15.45a1.22,1.22,0,0,1,.35-.85A1.14,1.14,0,0,1,402.68,14.22Z"/><rect class="b1553e50-abe1-446c-9668-ad417fda3973" x="480.52" y="0.01" width="160" height="51.32"/><path class="b60a374d-b17e-4557-9e25-b85c36ba255e" d="M568.61,15.63a1,1,0,0,1,.58.81,1.25,1.25,0,0,1-.28,1,.89.89,0,0,1-.69.42,1.6,1.6,0,0,1-.84-.18,9.26,9.26,0,0,0-2.13-.94,8.61,8.61,0,0,0-5.64.27,7.61,7.61,0,0,0-2.55,1.72,7.84,7.84,0,0,0-1.68,2.64,9.21,9.21,0,0,0-.6,3.39,9.39,9.39,0,0,0,.63,3.54A7.88,7.88,0,0,0,557.13,31a7.35,7.35,0,0,0,2.55,1.66,8.63,8.63,0,0,0,3.17.57,8.48,8.48,0,0,0,2.37-.33,8.69,8.69,0,0,0,2.16-1,1.4,1.4,0,0,1,.84-.15,1.13,1.13,0,0,1,.72.42,1.28,1.28,0,0,1,.27,1,1,1,0,0,1-.57.76,11.35,11.35,0,0,1-1.71.83,12.11,12.11,0,0,1-2,.58,10.41,10.41,0,0,1-2.08.21,11.11,11.11,0,0,1-4.08-.75,10.18,10.18,0,0,1-5.72-5.56,11.3,11.3,0,0,1-.85-4.49,11.08,11.08,0,0,1,.81-4.29,10.23,10.23,0,0,1,2.26-3.39,10.57,10.57,0,0,1,3.39-2.25,10.75,10.75,0,0,1,4.19-.81,11.1,11.1,0,0,1,3,.42A10.27,10.27,0,0,1,568.61,15.63Z"/><rect class="b1553e50-abe1-446c-9668-ad417fda3973" x="640.52" y="0.01" width="160" height="51.32"/><path class="b60a374d-b17e-4557-9e25-b85c36ba255e" d="M721.09,14.25a8.6,8.6,0,0,1,3.86.83,7.7,7.7,0,0,1,2.77,2.29,10.38,10.38,0,0,1,1.67,3.38,14.21,14.21,0,0,1,.55,4A13.63,13.63,0,0,1,729,30,8.77,8.77,0,0,1,726,33.83a8.12,8.12,0,0,1-4.92,1.42h-7.5a1.13,1.13,0,0,1-.85-.36,1.22,1.22,0,0,1-.35-.87V15.45a1.2,1.2,0,0,1,1.2-1.2Zm-.3,18.66a6.05,6.05,0,0,0,3.77-1.11,6.37,6.37,0,0,0,2.13-3,11.88,11.88,0,0,0,.67-4.08,12.59,12.59,0,0,0-.37-3.1A8,8,0,0,0,725.82,19a5.71,5.71,0,0,0-2-1.8,6.32,6.32,0,0,0-3-.66h-6.15l.24-.24V33.21l-.18-.3Z"/><path class="b1553e50-abe1-446c-9668-ad417fda3973" d="M800.52,0h160a0,0,0,0,1,0,0V51.33a0,0,0,0,1,0,0h-154a6,6,0,0,1-6-6V0A0,0,0,0,1,800.52,0Z" transform="translate(1761.04 51.33) rotate(180)"/><path class="b60a374d-b17e-4557-9e25-b85c36ba255e" d="M887.39,14.22a1.09,1.09,0,0,1,.84.36,1.24,1.24,0,0,1,.33.87V27.36a8.07,8.07,0,0,1-1.06,4.14,8,8,0,0,1-2.87,2.9,7.86,7.86,0,0,1-4.08,1.06,8,8,0,0,1-4.12-1.06,7.83,7.83,0,0,1-2.87-2.9,8.17,8.17,0,0,1-1-4.14V15.45a1.22,1.22,0,0,1,.35-.87,1.2,1.2,0,0,1,.91-.36,1.21,1.21,0,0,1,.86.36,1.16,1.16,0,0,1,.37.87V27.36a5.74,5.74,0,0,0,.75,2.94,5.5,5.5,0,0,0,4.8,2.76,5.59,5.59,0,0,0,2.82-.73,5.81,5.81,0,0,0,2.09-2,5.49,5.49,0,0,0,.79-2.94V15.45a1.31,1.31,0,0,1,.3-.87A1,1,0,0,1,887.39,14.22Z"/><rect class="a7a62ec8-cc3b-44f1-b29a-005f45abda84" x="479.02" y="0.01" width="3" height="256.6"/><rect class="a7a62ec8-cc3b-44f1-b29a-005f45abda84" x="639.02" y="0.01" width="3" height="256.6"/><rect class="a7a62ec8-cc3b-44f1-b29a-005f45abda84" x="799.02" y="0.01" width="3" height="256.6"/><path class="a7a62ec8-cc3b-44f1-b29a-005f45abda84" d="M949.34,258.11H320V154h3V255.11H949.34a8.68,8.68,0,0,0,8.68-8.68V154h3v92.46A11.68,11.68,0,0,1,949.34,258.11Z"/><polygon class="a7a62ec8-cc3b-44f1-b29a-005f45abda84" points="320.03 155.47 159.99 155.47 159.99 7.9 162.99 7.9 162.99 152.47 320.03 152.47 320.03 155.47"/><rect class="b1553e50-abe1-446c-9668-ad417fda3973" x="160.03" width="161.6" height="51.32"/><polygon class="a7a62ec8-cc3b-44f1-b29a-005f45abda84" points="320.03 258.12 159.99 258.12 159.99 110.55 162.99 110.55 162.99 255.12 320.03 255.12 320.03 258.12"/><polygon class="a7a62ec8-cc3b-44f1-b29a-005f45abda84" points="160.04 155.47 0 155.47 0 7.9 3 7.9 3 152.47 160.04 152.47 160.04 155.47"/><path class="b1553e50-abe1-446c-9668-ad417fda3973" d="M6,0h155.6a0,0,0,0,1,0,0V51.32a0,0,0,0,1,0,0H0a0,0,0,0,1,0,0V6A6,6,0,0,1,6,0Z"/><path class="a7a62ec8-cc3b-44f1-b29a-005f45abda84" d="M160,258.12H10.18A10.2,10.2,0,0,1,0,247.94V110.55H3V247.94a7.19,7.19,0,0,0,7.18,7.18H160Z"/><rect class="a7a62ec8-cc3b-44f1-b29a-005f45abda84" x="320.03" y="0.01" width="3" height="256.6"/><rect class="a7a62ec8-cc3b-44f1-b29a-005f45abda84" x="159.99" width="3" height="57.54"/><path class="b60a374d-b17e-4557-9e25-b85c36ba255e" d="M76.78,15.57a1,1,0,0,1,.59.81,1.26,1.26,0,0,1-.29,1,.91.91,0,0,1-.68.41,1.69,1.69,0,0,1-.84-.17,9.29,9.29,0,0,0-2.13-.95A8.22,8.22,0,0,0,71,16.32a8.31,8.31,0,0,0-3.24.61,7.47,7.47,0,0,0-2.54,1.72,7.84,7.84,0,0,0-1.68,2.64,9.16,9.16,0,0,0-.6,3.38,9.39,9.39,0,0,0,.63,3.54,7.93,7.93,0,0,0,1.72,2.65,7.5,7.5,0,0,0,2.55,1.66,8.85,8.85,0,0,0,5.52.24,8.69,8.69,0,0,0,2.16-1,1.4,1.4,0,0,1,.84-.15,1.13,1.13,0,0,1,.71.42,1.26,1.26,0,0,1,.27,1,1,1,0,0,1-.57.76,10.77,10.77,0,0,1-1.7.83,12.28,12.28,0,0,1-2,.58,10.48,10.48,0,0,1-2.08.21A11.11,11.11,0,0,1,67,34.7a10.08,10.08,0,0,1-5.7-5.55,11.25,11.25,0,0,1-.85-4.48,11,11,0,0,1,.8-4.28A10.24,10.24,0,0,1,63.47,17a10.57,10.57,0,0,1,3.39-2.25A10.7,10.7,0,0,1,71,14a11,11,0,0,1,3,.42A10.07,10.07,0,0,1,76.78,15.57Z"/><path class="b60a374d-b17e-4557-9e25-b85c36ba255e" d="M82.23,14.16a1.39,1.39,0,0,1,.59.15,1.29,1.29,0,0,1,.49.39l7.94,12-1,0,8-12a1.12,1.12,0,0,1,1-.54,1.33,1.33,0,0,1,.84.36,1.12,1.12,0,0,1,.36.87V33.92a1.19,1.19,0,0,1-.36.87,1.3,1.3,0,0,1-1.8,0,1.19,1.19,0,0,1-.36-.87V17.67l.75.14L91.61,28.56a1.73,1.73,0,0,1-.44.36,1,1,0,0,1-.52.15,1.1,1.1,0,0,1-.54-.15,1.62,1.62,0,0,1-.45-.36l-7-10.75.63-.77V33.92a1.24,1.24,0,0,1-.33.87,1.09,1.09,0,0,1-.84.36,1,1,0,0,1-.82-.36,1.27,1.27,0,0,1-.31-.87V15.39a1.21,1.21,0,0,1,.34-.85A1.16,1.16,0,0,1,82.23,14.16Z"/><path class="b60a374d-b17e-4557-9e25-b85c36ba255e" d="M228.22,14.19a8.55,8.55,0,0,1,3.85.82,7.7,7.7,0,0,1,2.77,2.29,10.11,10.11,0,0,1,1.66,3.37,13.86,13.86,0,0,1,.56,4,13.49,13.49,0,0,1-1,5.25,8.75,8.75,0,0,1-2.93,3.81,8.12,8.12,0,0,1-4.92,1.42h-7.48a1.15,1.15,0,0,1-.86-.36,1.21,1.21,0,0,1-.34-.87V15.38a1.15,1.15,0,0,1,.34-.85,1.17,1.17,0,0,1,.86-.34Zm-.29,18.63a6,6,0,0,0,3.75-1.11,6.37,6.37,0,0,0,2.13-3,11.82,11.82,0,0,0,.67-4.07,12.59,12.59,0,0,0-.37-3.1A7.91,7.91,0,0,0,232.94,19a5.76,5.76,0,0,0-2-1.8,6.3,6.3,0,0,0-3-.66h-6.14l.23-.24V33.12l-.17-.3Z"/><path class="b60a374d-b17e-4557-9e25-b85c36ba255e" d="M242.27,14.16a1.39,1.39,0,0,1,.59.15,1.29,1.29,0,0,1,.49.39l7.94,12-1,0,8-12a1.1,1.1,0,0,1,1-.54,1.33,1.33,0,0,1,.84.36,1.1,1.1,0,0,1,.36.86V33.92a1.19,1.19,0,0,1-.36.87,1.29,1.29,0,0,1-1.79,0,1.19,1.19,0,0,1-.36-.87V17.66l.74.15-7.06,10.75a1.73,1.73,0,0,1-.44.36,1,1,0,0,1-.52.15,1.1,1.1,0,0,1-.54-.15,1.62,1.62,0,0,1-.45-.36l-7-10.75.63-.78V33.92a1.24,1.24,0,0,1-.33.87,1.09,1.09,0,0,1-.84.36,1,1,0,0,1-.82-.36,1.28,1.28,0,0,1-.32-.87V15.38a1.22,1.22,0,0,1,.35-.85A1.13,1.13,0,0,1,242.27,14.16Z"/></g></g></svg>