<svg xmlns="http://www.w3.org/2000/svg" viewBox="0 0 799.53 463.39"><defs><style>.bf75827a-bc7f-4c95-af3d-f014d4c03bda{fill:#dfd9d0;}.a2a7025b-2b22-4772-8f9c-5aea12403e62{fill:#1f8ebe;}.a76aed6f-f76a-44a5-a962-222051305dc9{fill:#f9f3e9;}</style></defs><title>dmumcdu4</title><g id="bbba112b-1264-4416-8788-585d60acbd1d" data-name="Capa 2"><g id="f3dbf2f1-adf2-4001-95f8-5f760fa09cf5" data-name="Capa 1"><polygon class="bf75827a-bc7f-4c95-af3d-f014d4c03bda" points="799.53 155.46 158.53 155.46 158.53 14.46 161.53 14.46 161.53 152.46 796.53 152.46 796.53 6.9 799.53 6.9 799.53 155.46"/><rect class="a2a7025b-2b22-4772-8f9c-5aea12403e62" x="159.03" width="160" height="51.32"/><path class="a76aed6f-f76a-44a5-a962-222051305dc9" d="M233.54,14.21a1.1,1.1,0,0,1,.84.37,1.22,1.22,0,0,1,.33.87v11.9a8.09,8.09,0,0,1-1.07,4.15,8,8,0,0,1-2.86,2.89,7.86,7.86,0,0,1-4.08,1.07,8,8,0,0,1-4.13-1.07,7.85,7.85,0,0,1-2.86-2.89,8.18,8.18,0,0,1-1.05-4.15V15.45a1.19,1.19,0,0,1,.34-.87,1.23,1.23,0,0,1,.92-.37,1.2,1.2,0,0,1,.85.37,1.15,1.15,0,0,1,.38.87v11.9a5.75,5.75,0,0,0,.75,2.95,5.48,5.48,0,0,0,4.8,2.75,5.59,5.59,0,0,0,2.82-.73,5.75,5.75,0,0,0,2.08-2,5.5,5.5,0,0,0,.8-2.95V15.45a1.3,1.3,0,0,1,.3-.87A1,1,0,0,1,233.54,14.21Z"/><path class="a76aed6f-f76a-44a5-a962-222051305dc9" d="M241.19,14.21a1.24,1.24,0,0,1,.58.16,1.15,1.15,0,0,1,.5.39l7.95,12-1.05,0,8-12a1.15,1.15,0,0,1,1-.55,1.4,1.4,0,0,1,.84.37,1.12,1.12,0,0,1,.36.87V34a1.17,1.17,0,0,1-.36.87,1.28,1.28,0,0,1-1.8,0,1.17,1.17,0,0,1-.36-.87V17.72l.75.16-7.08,10.76a1.58,1.58,0,0,1-.44.37,1,1,0,0,1-.52.15,1.1,1.1,0,0,1-.54-.15,1.49,1.49,0,0,1-.45-.37l-7-10.76.63-.79V34a1.22,1.22,0,0,1-.33.87,1.07,1.07,0,0,1-.84.37,1,1,0,0,1-.83-.37A1.25,1.25,0,0,1,240,34V15.45a1.23,1.23,0,0,1,.34-.86A1.16,1.16,0,0,1,241.19,14.21Z"/><rect class="a2a7025b-2b22-4772-8f9c-5aea12403e62" x="319.03" width="160" height="51.32"/><path class="a76aed6f-f76a-44a5-a962-222051305dc9" d="M407.11,15.63a1,1,0,0,1,.59.8,1.24,1.24,0,0,1-.29,1,.87.87,0,0,1-.69.42,1.59,1.59,0,0,1-.84-.17,8.88,8.88,0,0,0-2.13-1,8.79,8.79,0,0,0-5.64.27,7.76,7.76,0,0,0-2.55,1.72,8,8,0,0,0-1.68,2.64,9.3,9.3,0,0,0-.6,3.4,9.42,9.42,0,0,0,.63,3.54,7.86,7.86,0,0,0,1.73,2.65,7.21,7.21,0,0,0,2.55,1.66,8.38,8.38,0,0,0,3.16.57,8.13,8.13,0,0,0,2.37-.33,8.34,8.34,0,0,0,2.16-1,1.47,1.47,0,0,1,.84-.14,1.13,1.13,0,0,1,.72.42,1.25,1.25,0,0,1,.27,1,1,1,0,0,1-.57.76,11.35,11.35,0,0,1-1.71.83,12,12,0,0,1-2,.59,11.31,11.31,0,0,1-2.09.21,11.11,11.11,0,0,1-4.08-.75,10.18,10.18,0,0,1-5.71-5.57,11.26,11.26,0,0,1-.86-4.48,11,11,0,0,1,.81-4.29,10.3,10.3,0,0,1,2.27-3.4,10.57,10.57,0,0,1,3.39-2.25,10.7,10.7,0,0,1,4.18-.8,11.56,11.56,0,0,1,3,.41A10.56,10.56,0,0,1,407.11,15.63Z"/><rect class="a2a7025b-2b22-4772-8f9c-5aea12403e62" x="479.03" width="160" height="51.32"/><path class="a76aed6f-f76a-44a5-a962-222051305dc9" d="M559.6,14.25a8.55,8.55,0,0,1,3.85.82,7.66,7.66,0,0,1,2.78,2.3,10.21,10.21,0,0,1,1.66,3.37,14.23,14.23,0,0,1,.56,4,13.58,13.58,0,0,1-1,5.26,8.77,8.77,0,0,1-2.94,3.81,8.12,8.12,0,0,1-4.92,1.43h-7.5a1.12,1.12,0,0,1-.86-.37,1.19,1.19,0,0,1-.34-.87V15.45a1.16,1.16,0,0,1,1.2-1.2Zm-.3,18.66a6,6,0,0,0,3.76-1.11,6.37,6.37,0,0,0,2.13-3,11.88,11.88,0,0,0,.68-4.08,12.68,12.68,0,0,0-.38-3.11A8.06,8.06,0,0,0,564.32,19a5.91,5.91,0,0,0-2-1.8,6.39,6.39,0,0,0-3-.66h-6.15l.24-.24v16.9l-.18-.3Z"/><path class="a2a7025b-2b22-4772-8f9c-5aea12403e62" d="M639,0H799a0,0,0,0,1,0,0V51.32a0,0,0,0,1,0,0H645a6,6,0,0,1-6-6V0A0,0,0,0,1,639,0Z" transform="translate(1438.06 51.32) rotate(180)"/><path class="a76aed6f-f76a-44a5-a962-222051305dc9" d="M725.9,14.21a1.1,1.1,0,0,1,.84.37,1.22,1.22,0,0,1,.33.87v11.9A8.09,8.09,0,0,1,726,31.5a8,8,0,0,1-2.86,2.89,7.86,7.86,0,0,1-4.08,1.07,8,8,0,0,1-4.13-1.07,7.85,7.85,0,0,1-2.86-2.89A8.18,8.18,0,0,1,711,27.35V15.45a1.19,1.19,0,0,1,.34-.87,1.23,1.23,0,0,1,.92-.37,1.2,1.2,0,0,1,.85.37,1.15,1.15,0,0,1,.38.87v11.9a5.75,5.75,0,0,0,.75,2.95,5.48,5.48,0,0,0,4.8,2.75,5.59,5.59,0,0,0,2.82-.73,5.75,5.75,0,0,0,2.08-2,5.5,5.5,0,0,0,.8-2.95V15.45a1.3,1.3,0,0,1,.3-.87A1,1,0,0,1,725.9,14.21Z"/><rect class="bf75827a-bc7f-4c95-af3d-f014d4c03bda" x="317.53" width="3" height="461.89"/><rect class="bf75827a-bc7f-4c95-af3d-f014d4c03bda" x="477.53" width="3" height="461.89"/><rect class="bf75827a-bc7f-4c95-af3d-f014d4c03bda" x="637.53" width="3" height="461.89"/><polygon class="bf75827a-bc7f-4c95-af3d-f014d4c03bda" points="799.53 258.1 158.53 258.1 158.53 153.96 161.53 153.96 161.53 255.1 796.53 255.1 796.53 153.96 799.53 153.96 799.53 258.1"/><polygon class="bf75827a-bc7f-4c95-af3d-f014d4c03bda" points="799.53 360.75 158.53 360.75 158.53 256.6 161.53 256.6 161.53 357.75 796.53 357.75 796.53 256.6 799.53 256.6 799.53 360.75"/><path class="bf75827a-bc7f-4c95-af3d-f014d4c03bda" d="M787.85,463.39H158.53V359.25h3V460.39H787.85a8.68,8.68,0,0,0,8.68-8.68V359.25h3v92.46A11.68,11.68,0,0,1,787.85,463.39Z"/><polygon class="bf75827a-bc7f-4c95-af3d-f014d4c03bda" points="160.04 155.47 0 155.47 0 7.9 3 7.9 3 152.47 160.04 152.47 160.04 155.47"/><path class="a2a7025b-2b22-4772-8f9c-5aea12403e62" d="M6,0h155.6a0,0,0,0,1,0,0V51.32a0,0,0,0,1,0,0H0a0,0,0,0,1,0,0V6A6,6,0,0,1,6,0Z"/><polygon class="bf75827a-bc7f-4c95-af3d-f014d4c03bda" points="160.04 258.12 0 258.12 0 110.55 3 110.55 3 255.12 160.04 255.12 160.04 258.12"/><polygon class="bf75827a-bc7f-4c95-af3d-f014d4c03bda" points="160.04 360.75 0 360.75 0 213.18 3 213.18 3 357.75 160.04 357.75 160.04 360.75"/><path class="bf75827a-bc7f-4c95-af3d-f014d4c03bda" d="M160,463.39H10.18A10.2,10.2,0,0,1,0,453.21V315.82H3V453.21a7.19,7.19,0,0,0,7.18,7.18H160Z"/><path class="a76aed6f-f76a-44a5-a962-222051305dc9" d="M68.18,14.22A8.55,8.55,0,0,1,72,15a7.7,7.7,0,0,1,2.77,2.29,10.11,10.11,0,0,1,1.66,3.37,14.21,14.21,0,0,1,.56,4A13.58,13.58,0,0,1,76,30a8.79,8.79,0,0,1-2.94,3.8,8.07,8.07,0,0,1-4.91,1.42H60.7a1.13,1.13,0,0,1-.86-.36A1.21,1.21,0,0,1,59.5,34V15.42a1.17,1.17,0,0,1,.34-.86,1.15,1.15,0,0,1,.86-.34Zm-.3,18.63a6,6,0,0,0,3.76-1.11,6.37,6.37,0,0,0,2.13-3,11.78,11.78,0,0,0,.67-4.07,12.59,12.59,0,0,0-.37-3.1A7.91,7.91,0,0,0,72.9,19a5.71,5.71,0,0,0-2-1.8,6.25,6.25,0,0,0-3-.66H61.74l.24-.24V33.15l-.18-.3Z"/><path class="a76aed6f-f76a-44a5-a962-222051305dc9" d="M82.23,14.19a1.39,1.39,0,0,1,.59.15,1.37,1.37,0,0,1,.49.39l7.94,12-1,0,8-12a1.12,1.12,0,0,1,1-.54,1.33,1.33,0,0,1,.84.36,1.12,1.12,0,0,1,.36.87V34a1.19,1.19,0,0,1-.36.87,1.22,1.22,0,0,1-.9.36,1.18,1.18,0,0,1-.89-.36,1.16,1.16,0,0,1-.37-.87V17.69l.75.15L91.6,28.59a1.68,1.68,0,0,1-.43.36,1,1,0,0,1-.52.15,1.1,1.1,0,0,1-.54-.15,1.62,1.62,0,0,1-.45-.36l-7-10.75.63-.78V34a1.24,1.24,0,0,1-.33.87,1.09,1.09,0,0,1-.84.36,1,1,0,0,1-.82-.36A1.28,1.28,0,0,1,81,34V15.42a1.24,1.24,0,0,1,.35-.86A1.13,1.13,0,0,1,82.23,14.19Z"/><rect class="bf75827a-bc7f-4c95-af3d-f014d4c03bda" x="158.54" width="3" height="461.89"/></g></g></svg>