<svg xmlns="http://www.w3.org/2000/svg" viewBox="0 0 801.03 258.12"><defs><style>.e796791f-04c9-43ee-af42-8abb6f0aebb0{fill:#dfd9d0;}.bec349e0-c2e8-4ea0-8231-30ef49a2cd8d{fill:#1f8ebe;}.bef1b131-06f9-4767-a864-79150d36fc78{fill:#f9f3e9;}</style></defs><title>dmumcdu2</title><g id="ac5b86ff-912c-4fbc-8876-9e51f9b6c797" data-name="Capa 2"><g id="f98baac4-e122-4693-bcf8-d507b826f30d" data-name="Capa 1"><polygon class="e796791f-04c9-43ee-af42-8abb6f0aebb0" points="801.03 155.47 160.04 155.47 160.04 51.33 163.04 51.33 163.04 152.47 798.03 152.47 798.03 6.91 801.03 6.91 801.03 155.47"/><rect class="bec349e0-c2e8-4ea0-8231-30ef49a2cd8d" x="160.53" y="0.01" width="160" height="51.32"/><path class="bef1b131-06f9-4767-a864-79150d36fc78" d="M235,14.22a1.09,1.09,0,0,1,.84.36,1.24,1.24,0,0,1,.33.87V27.36a8.07,8.07,0,0,1-1.06,4.14,8,8,0,0,1-2.87,2.9,7.86,7.86,0,0,1-4.08,1.06,8,8,0,0,1-4.12-1.06,7.83,7.83,0,0,1-2.87-2.9,8.17,8.17,0,0,1-1.05-4.14V15.45a1.22,1.22,0,0,1,.35-.87,1.2,1.2,0,0,1,.91-.36,1.21,1.21,0,0,1,.86.36,1.16,1.16,0,0,1,.37.87V27.36a5.74,5.74,0,0,0,.75,2.94,5.5,5.5,0,0,0,4.8,2.76,5.59,5.59,0,0,0,2.82-.73,5.81,5.81,0,0,0,2.09-2,5.49,5.49,0,0,0,.79-2.94V15.45a1.31,1.31,0,0,1,.3-.87A1,1,0,0,1,235,14.22Z"/><path class="bef1b131-06f9-4767-a864-79150d36fc78" d="M242.69,14.22a1.39,1.39,0,0,1,.59.15,1.29,1.29,0,0,1,.49.39l7.95,12-1.05,0,8-12a1.12,1.12,0,0,1,1-.54,1.33,1.33,0,0,1,.84.36,1.12,1.12,0,0,1,.36.87V34a1.19,1.19,0,0,1-.36.87,1.31,1.31,0,0,1-1.8,0,1.19,1.19,0,0,1-.36-.87V17.73l.75.15-7.08,10.77a1.68,1.68,0,0,1-.43.36,1,1,0,0,1-.53.15,1.1,1.1,0,0,1-.54-.15,1.62,1.62,0,0,1-.45-.36l-7-10.77.63-.78V34a1.24,1.24,0,0,1-.33.87,1.09,1.09,0,0,1-.84.36,1,1,0,0,1-.82-.36,1.28,1.28,0,0,1-.32-.87V15.45a1.22,1.22,0,0,1,.35-.85A1.14,1.14,0,0,1,242.69,14.22Z"/><rect class="bec349e0-c2e8-4ea0-8231-30ef49a2cd8d" x="320.53" y="0.01" width="160" height="51.32"/><path class="bef1b131-06f9-4767-a864-79150d36fc78" d="M408.62,15.63a1,1,0,0,1,.58.81,1.25,1.25,0,0,1-.28,1,.89.89,0,0,1-.69.42,1.6,1.6,0,0,1-.84-.18,9.26,9.26,0,0,0-2.13-.94,8.61,8.61,0,0,0-5.64.27,7.61,7.61,0,0,0-2.55,1.72,7.84,7.84,0,0,0-1.68,2.64,9.21,9.21,0,0,0-.6,3.39,9.39,9.39,0,0,0,.63,3.54A7.88,7.88,0,0,0,397.14,31a7.35,7.35,0,0,0,2.55,1.66,8.63,8.63,0,0,0,3.17.57,8.48,8.48,0,0,0,2.37-.33,8.69,8.69,0,0,0,2.16-1,1.4,1.4,0,0,1,.84-.15,1.13,1.13,0,0,1,.72.42,1.28,1.28,0,0,1,.27,1,1,1,0,0,1-.57.76,11.35,11.35,0,0,1-1.71.83,12.11,12.11,0,0,1-2,.58,10.41,10.41,0,0,1-2.08.21,11.11,11.11,0,0,1-4.08-.75,10.18,10.18,0,0,1-5.72-5.56,11.3,11.3,0,0,1-.85-4.49,11.08,11.08,0,0,1,.81-4.29,10.23,10.23,0,0,1,2.26-3.39,10.57,10.57,0,0,1,3.39-2.25,10.75,10.75,0,0,1,4.19-.81,11.1,11.1,0,0,1,3,.42A10.27,10.27,0,0,1,408.62,15.63Z"/><rect class="bec349e0-c2e8-4ea0-8231-30ef49a2cd8d" x="480.53" y="0.01" width="160" height="51.32"/><path class="bef1b131-06f9-4767-a864-79150d36fc78" d="M561.1,14.25a8.6,8.6,0,0,1,3.86.83,7.7,7.7,0,0,1,2.77,2.29,10.38,10.38,0,0,1,1.67,3.38,14.21,14.21,0,0,1,.55,4A13.63,13.63,0,0,1,569,30,8.77,8.77,0,0,1,566,33.83a8.12,8.12,0,0,1-4.92,1.42h-7.5a1.13,1.13,0,0,1-.85-.36,1.22,1.22,0,0,1-.35-.87V15.45a1.2,1.2,0,0,1,1.2-1.2Zm-.3,18.66a6.05,6.05,0,0,0,3.77-1.11,6.44,6.44,0,0,0,2.13-3,11.88,11.88,0,0,0,.67-4.08,13.09,13.09,0,0,0-.37-3.1A8.18,8.18,0,0,0,565.83,19a5.79,5.79,0,0,0-2-1.8,6.32,6.32,0,0,0-3-.66h-6.15l.24-.24V33.21l-.18-.3Z"/><path class="bec349e0-c2e8-4ea0-8231-30ef49a2cd8d" d="M640.53,0h160a0,0,0,0,1,0,0V51.33a0,0,0,0,1,0,0h-154a6,6,0,0,1-6-6V0A0,0,0,0,1,640.53,0Z" transform="translate(1441.06 51.33) rotate(180)"/><path class="bef1b131-06f9-4767-a864-79150d36fc78" d="M727.4,14.22a1.09,1.09,0,0,1,.84.36,1.24,1.24,0,0,1,.33.87V27.36a8.07,8.07,0,0,1-1.06,4.14,8,8,0,0,1-2.87,2.9,7.86,7.86,0,0,1-4.08,1.06,8,8,0,0,1-4.12-1.06,7.83,7.83,0,0,1-2.87-2.9,8.17,8.17,0,0,1-1.05-4.14V15.45a1.22,1.22,0,0,1,.35-.87,1.2,1.2,0,0,1,.91-.36,1.21,1.21,0,0,1,.86.36,1.16,1.16,0,0,1,.37.87V27.36a5.74,5.74,0,0,0,.75,2.94,5.5,5.5,0,0,0,4.8,2.76,5.59,5.59,0,0,0,2.82-.73,5.81,5.81,0,0,0,2.09-2,5.58,5.58,0,0,0,.79-2.94V15.45a1.31,1.31,0,0,1,.3-.87A1,1,0,0,1,727.4,14.22Z"/><rect class="e796791f-04c9-43ee-af42-8abb6f0aebb0" x="319.03" y="0.01" width="3" height="256.6"/><rect class="e796791f-04c9-43ee-af42-8abb6f0aebb0" x="479.03" y="0.01" width="3" height="256.6"/><rect class="e796791f-04c9-43ee-af42-8abb6f0aebb0" x="639.03" y="0.01" width="3" height="256.6"/><path class="e796791f-04c9-43ee-af42-8abb6f0aebb0" d="M789.35,258.11H160V154h3V255.11H789.35a8.68,8.68,0,0,0,8.68-8.68V154h3v92.46A11.68,11.68,0,0,1,789.35,258.11Z"/><polygon class="e796791f-04c9-43ee-af42-8abb6f0aebb0" points="160.04 155.47 0 155.47 0 7.9 3 7.9 3 152.47 160.04 152.47 160.04 155.47"/><path class="bec349e0-c2e8-4ea0-8231-30ef49a2cd8d" d="M6,0h155.6a0,0,0,0,1,0,0V51.32a0,0,0,0,1,0,0H0a0,0,0,0,1,0,0V6A6,6,0,0,1,6,0Z"/><path class="e796791f-04c9-43ee-af42-8abb6f0aebb0" d="M160,258.12H10.18A10.2,10.2,0,0,1,0,247.94V110.55H3V247.94a7.19,7.19,0,0,0,7.18,7.18H160Z"/><rect class="e796791f-04c9-43ee-af42-8abb6f0aebb0" x="160.04" y="0.01" width="3" height="256.6"/><path class="bef1b131-06f9-4767-a864-79150d36fc78" d="M68.18,14.22A8.55,8.55,0,0,1,72,15a7.7,7.7,0,0,1,2.77,2.29,10.11,10.11,0,0,1,1.66,3.37,14.21,14.21,0,0,1,.56,4A13.58,13.58,0,0,1,76,30a8.79,8.79,0,0,1-2.94,3.8,8.07,8.07,0,0,1-4.91,1.42H60.7a1.13,1.13,0,0,1-.86-.36A1.21,1.21,0,0,1,59.5,34V15.42a1.17,1.17,0,0,1,.34-.86,1.15,1.15,0,0,1,.86-.34Zm-.3,18.63a6,6,0,0,0,3.76-1.11,6.37,6.37,0,0,0,2.13-3,11.78,11.78,0,0,0,.67-4.07,12.59,12.59,0,0,0-.37-3.1A7.91,7.91,0,0,0,72.9,19a5.71,5.71,0,0,0-2-1.8,6.25,6.25,0,0,0-3-.66H61.74l.24-.24V33.15l-.18-.3Z"/><path class="bef1b131-06f9-4767-a864-79150d36fc78" d="M82.23,14.19a1.39,1.39,0,0,1,.59.15,1.37,1.37,0,0,1,.49.39l7.94,12-1,0,8-12a1.12,1.12,0,0,1,1-.54,1.33,1.33,0,0,1,.84.36,1.12,1.12,0,0,1,.36.87V34a1.19,1.19,0,0,1-.36.87,1.22,1.22,0,0,1-.9.36,1.18,1.18,0,0,1-.89-.36,1.16,1.16,0,0,1-.37-.87V17.69l.75.15L91.6,28.59a1.68,1.68,0,0,1-.43.36,1,1,0,0,1-.52.15,1.1,1.1,0,0,1-.54-.15,1.62,1.62,0,0,1-.45-.36l-7-10.75.63-.78V34a1.24,1.24,0,0,1-.33.87,1.09,1.09,0,0,1-.84.36,1,1,0,0,1-.82-.36A1.28,1.28,0,0,1,81,34V15.42a1.24,1.24,0,0,1,.35-.86A1.13,1.13,0,0,1,82.23,14.19Z"/></g></g></svg>