<svg xmlns="http://www.w3.org/2000/svg" viewBox="0 0 320.2 155.46"><defs><style>.cls-1{fill:none;stroke:#dfd9d0;stroke-miterlimit:10;stroke-width:2.99px;}.cls-2{fill:#1f8ebe;}.cls-3{fill:#f9f3e9;}.cls-4{fill:#dfd9d0;}</style></defs><title>DU1</title><g id="Capa_2" data-name="Capa 2"><g id="Capa_1-2" data-name="Capa 1"><path class="cls-1" d="M1.6,14.46V143.78A10.16,10.16,0,0,0,11.74,154H308.56a10.16,10.16,0,0,0,10.14-10.18V6.9"/><path class="cls-2" d="M6,0H160a0,0,0,0,1,0,0V51.32a0,0,0,0,1,0,0H0a0,0,0,0,1,0,0V6A6,6,0,0,1,6,0Z"/><path class="cls-3" d="M80.57,14.25a8.6,8.6,0,0,1,3.86.82,7.81,7.81,0,0,1,2.77,2.3,10.53,10.53,0,0,1,1.67,3.37,14.28,14.28,0,0,1,.55,4,13.58,13.58,0,0,1-1,5.26,8.77,8.77,0,0,1-2.94,3.81,8.12,8.12,0,0,1-4.92,1.43h-7.5a1.13,1.13,0,0,1-.85-.36,1.22,1.22,0,0,1-.35-.87V15.45a1.18,1.18,0,0,1,.35-.86,1.15,1.15,0,0,1,.85-.34Zm-.3,18.66A5.94,5.94,0,0,0,84,31.79a6.22,6.22,0,0,0,2.13-3,11.65,11.65,0,0,0,.68-4.08,13.18,13.18,0,0,0-.37-3.11A8.34,8.34,0,0,0,85.3,19a5.79,5.79,0,0,0-2-1.8,6.32,6.32,0,0,0-3-.66H74.12l.24-.24V33.21l-.18-.3Z"/><path class="cls-2" d="M160,0H320a0,0,0,0,1,0,0V51.32a0,0,0,0,1,0,0H166a6,6,0,0,1-6-6V0A0,0,0,0,1,160,0Z" transform="translate(480 51.32) rotate(180)"/><path class="cls-3" d="M246.87,14.22a1.06,1.06,0,0,1,.84.36,1.24,1.24,0,0,1,.33.87V27.36A8.07,8.07,0,0,1,247,31.5a8,8,0,0,1-2.87,2.89A7.86,7.86,0,0,1,240,35.46a8,8,0,0,1-4.12-1.07A7.8,7.8,0,0,1,233,31.5a8.17,8.17,0,0,1-1-4.14V15.45a1.22,1.22,0,0,1,.35-.87,1.26,1.26,0,0,1,2.14.87V27.36a5.68,5.68,0,0,0,.75,2.93,5.53,5.53,0,0,0,4.8,2.77,5.6,5.6,0,0,0,2.82-.74,5.73,5.73,0,0,0,2.09-2,5.52,5.52,0,0,0,.79-2.93V15.45a1.31,1.31,0,0,1,.3-.87A1,1,0,0,1,246.87,14.22Z"/><rect class="cls-4" x="158.5" width="3" height="153.96"/></g></g></svg>