<svg xmlns="http://www.w3.org/2000/svg" viewBox="0 0 321.07 463.39"><defs><style>.cls-1{fill:#dfd9d0;}.cls-2{fill:#1f8ebe;}.cls-3{fill:#f9f3e9;}</style></defs><title>DU4</title><g id="Capa_2" data-name="Capa 2"><g id="Capa_1-2" data-name="Capa 1"><polygon class="cls-1" points="320.75 155.46 0.61 155.46 0.61 14.46 3.61 14.46 3.61 152.47 317.75 152.47 317.75 6.9 320.75 6.9 320.75 155.46"/><path class="cls-2" d="M6.76,0h154a0,0,0,0,1,0,0V51.32a0,0,0,0,1,0,0H.76a0,0,0,0,1,0,0V6A6,6,0,0,1,6.76,0Z"/><path class="cls-3" d="M81.33,14.25a8.6,8.6,0,0,1,3.86.82A7.72,7.72,0,0,1,88,17.37a10.33,10.33,0,0,1,1.67,3.37,14.28,14.28,0,0,1,.55,4,13.58,13.58,0,0,1-1,5.26,8.77,8.77,0,0,1-2.94,3.81,8.12,8.12,0,0,1-4.92,1.43h-7.5a1.13,1.13,0,0,1-.85-.36,1.22,1.22,0,0,1-.35-.87V15.45a1.18,1.18,0,0,1,.35-.86,1.15,1.15,0,0,1,.85-.34ZM81,32.91a6,6,0,0,0,3.77-1.12,6.29,6.29,0,0,0,2.13-3,11.88,11.88,0,0,0,.67-4.08,12.68,12.68,0,0,0-.37-3.11A7.91,7.91,0,0,0,86.06,19a5.71,5.71,0,0,0-2-1.8,6.32,6.32,0,0,0-3-.66H74.88l.24-.24V33.21l-.18-.3Z"/><path class="cls-2" d="M160.76,0h160a0,0,0,0,1,0,0V51.32a0,0,0,0,1,0,0h-154a6,6,0,0,1-6-6V0A0,0,0,0,1,160.76,0Z" transform="translate(481.53 51.32) rotate(180)"/><path class="cls-3" d="M247.63,14.22a1.06,1.06,0,0,1,.84.36,1.24,1.24,0,0,1,.33.87V27.36a8.07,8.07,0,0,1-1.06,4.14,8,8,0,0,1-2.87,2.89,7.86,7.86,0,0,1-4.08,1.07,8,8,0,0,1-4.12-1.07,7.8,7.8,0,0,1-2.87-2.89,8.17,8.17,0,0,1-1.05-4.14V15.45a1.22,1.22,0,0,1,.35-.87,1.26,1.26,0,0,1,2.14.87V27.36a5.68,5.68,0,0,0,.75,2.93,5.53,5.53,0,0,0,4.8,2.77,5.6,5.6,0,0,0,2.82-.74,5.73,5.73,0,0,0,2.09-2,5.43,5.43,0,0,0,.79-2.93V15.45a1.31,1.31,0,0,1,.3-.87A1,1,0,0,1,247.63,14.22Z"/><rect class="cls-1" x="159.26" width="3" height="461.89"/><polygon class="cls-1" points="321.07 258.1 0 258.1 0 153.96 3 153.96 3 255.1 318.07 255.1 318.07 153.96 321.07 153.96 321.07 258.1"/><polygon class="cls-1" points="321.07 360.75 0 360.75 0 256.6 3 256.6 3 357.75 318.07 357.75 318.07 256.6 321.07 256.6 321.07 360.75"/><path class="cls-1" d="M309.39,463.39H11.68A11.69,11.69,0,0,1,0,451.71V359.25H3v92.46a8.69,8.69,0,0,0,8.68,8.68H309.39a8.69,8.69,0,0,0,8.68-8.68V359.25h3v92.46A11.69,11.69,0,0,1,309.39,463.39Z"/></g></g></svg>