<svg xmlns="http://www.w3.org/2000/svg" viewBox="0 0 641 155.46"><defs><style>.cls-1{fill:#dfd9d0;}.cls-2{fill:#1f8ebe;}.cls-3{fill:#f9f3e9;}</style></defs><title>DUDC1</title><g id="Capa_2" data-name="Capa 2"><g id="Capa_1-2" data-name="Capa 1"><path class="cls-1" d="M629.32,155.46H11.68A11.69,11.69,0,0,1,0,143.78V14.46H3V143.78a8.68,8.68,0,0,0,8.68,8.68H629.32a8.69,8.69,0,0,0,8.68-8.68V6.9h3V143.78A11.69,11.69,0,0,1,629.32,155.46Z"/><path class="cls-2" d="M6.49,0h154a0,0,0,0,1,0,0V51.32a0,0,0,0,1,0,0H.49a0,0,0,0,1,0,0V6a6,6,0,0,1,6-6Z"/><path class="cls-3" d="M78.42,14.25a8.55,8.55,0,0,1,3.85.82,7.76,7.76,0,0,1,2.78,2.3,10.31,10.31,0,0,1,1.66,3.37,14.28,14.28,0,0,1,.56,4,13.58,13.58,0,0,1-1,5.26,8.77,8.77,0,0,1-2.94,3.81,8.12,8.12,0,0,1-4.92,1.43h-7.5a1.15,1.15,0,0,1-.86-.36,1.21,1.21,0,0,1-.34-.87V15.45a1.16,1.16,0,0,1,1.2-1.2Zm-.3,18.66a6,6,0,0,0,3.76-1.12,6.29,6.29,0,0,0,2.13-3,11.88,11.88,0,0,0,.68-4.08,12.68,12.68,0,0,0-.38-3.11A7.91,7.91,0,0,0,83.14,19a5.71,5.71,0,0,0-2-1.8,6.27,6.27,0,0,0-3-.66H72l.24-.25v16.9l-.18-.3Z"/><rect class="cls-2" x="160.49" width="160" height="51.32"/><path class="cls-3" d="M248.34,14.22a1.06,1.06,0,0,1,.84.36,1.22,1.22,0,0,1,.33.87v11.9a8.09,8.09,0,0,1-1.07,4.15,7.85,7.85,0,0,1-6.94,4,8,8,0,0,1-4.13-1.07,7.78,7.78,0,0,1-2.86-2.89,8.18,8.18,0,0,1-1-4.15V15.45a1.2,1.2,0,0,1,1.26-1.23A1.26,1.26,0,0,1,236,15.45v11.9a5.69,5.69,0,0,0,.75,2.94,5.39,5.39,0,0,0,2,2,5.48,5.48,0,0,0,2.78.74,5.6,5.6,0,0,0,2.82-.74,5.7,5.7,0,0,0,2.08-2,5.44,5.44,0,0,0,.8-2.94V15.45a1.3,1.3,0,0,1,.3-.87A1,1,0,0,1,248.34,14.22Z"/><rect class="cls-2" x="320.49" width="160" height="51.32"/><path class="cls-3" d="M404.57,13a1.15,1.15,0,0,1,.87.35,1.2,1.2,0,0,1,.33.86V34a1.21,1.21,0,0,1-.34.87,1.15,1.15,0,0,1-.86.36,1.13,1.13,0,0,1-.85-.36,1.22,1.22,0,0,1-.35-.87V31.17l.57-.21a3.14,3.14,0,0,1-.43,1.51A5.45,5.45,0,0,1,402.28,34a7.29,7.29,0,0,1-1.85,1.14,5.72,5.72,0,0,1-2.28.44,6.57,6.57,0,0,1-3.66-1,7.38,7.38,0,0,1-2.56-2.88,9,9,0,0,1-.95-4.17,9,9,0,0,1,.95-4.2,7.34,7.34,0,0,1,2.55-2.87,6.67,6.67,0,0,1,7.9.53,5.56,5.56,0,0,1,1.31,1.59,3.66,3.66,0,0,1,.46,1.74l-.78-.18V14.25a1.18,1.18,0,0,1,.35-.86A1.15,1.15,0,0,1,404.57,13Zm-6.18,20.29a4.68,4.68,0,0,0,2.67-.77,5.29,5.29,0,0,0,1.8-2.1,7.24,7.24,0,0,0,0-6,5.27,5.27,0,0,0-1.81-2.09,4.71,4.71,0,0,0-2.66-.76,4.63,4.63,0,0,0-2.62.76A5.3,5.3,0,0,0,394,24.42a7.17,7.17,0,0,0,0,6,5.29,5.29,0,0,0,1.82,2.11A4.5,4.5,0,0,0,398.39,33.33Z"/><path class="cls-2" d="M480.49,0h160a0,0,0,0,1,0,0V51.32a0,0,0,0,1,0,0h-154a6,6,0,0,1-6-6V0A0,0,0,0,1,480.49,0Z" transform="translate(1120.99 51.32) rotate(180)"/><rect class="cls-1" x="158.99" width="3" height="153.96"/><rect class="cls-1" x="318.99" width="3" height="129.96"/><rect class="cls-1" x="478.99" width="3" height="153.96"/><path class="cls-3" d="M561,19.35a10.66,10.66,0,0,1,2.76.33,5.36,5.36,0,0,1,1.95.9,1.63,1.63,0,0,1,.72,1.29,1.27,1.27,0,0,1-.25.75.88.88,0,0,1-.74.36,1.24,1.24,0,0,1-.64-.15,2.16,2.16,0,0,1-.48-.39,2,2,0,0,0-.62-.42,3.25,3.25,0,0,0-1-.33,8.22,8.22,0,0,0-1.41-.13,5.37,5.37,0,0,0-2.88.79,5.43,5.43,0,0,0-2,2.1,6.27,6.27,0,0,0-.71,3,6.38,6.38,0,0,0,.69,3,5.31,5.31,0,0,0,1.92,2.09,5.13,5.13,0,0,0,2.85.79,6.19,6.19,0,0,0,1.67-.18,6.32,6.32,0,0,0,1.06-.42,3.69,3.69,0,0,0,.8-.6,1,1,0,0,1,.79-.3,1,1,0,0,1,.78.33,1.24,1.24,0,0,1,.27.81,1.57,1.57,0,0,1-.75,1.13,6.25,6.25,0,0,1-2,1,9.47,9.47,0,0,1-2.87.41,7.39,7.39,0,0,1-4-1.06,7.24,7.24,0,0,1-2.65-2.91,8.9,8.9,0,0,1-1-4.12,8.67,8.67,0,0,1,1-4.12,7.56,7.56,0,0,1,2.71-2.9A7.46,7.46,0,0,1,561,19.35Z"/><path class="cls-2" d="M324,139.91a6.54,6.54,0,0,1-.46,2.31,9.54,9.54,0,0,1-1.28,2.31,7.72,7.72,0,0,1-1.8,1.77,3.42,3.42,0,0,1-2,.68,2.23,2.23,0,0,1-1.27-.35,1.31,1.31,0,0,1-.52-1.17c0-.69.22-1.09.68-1.2a6.1,6.1,0,0,0,1.33-.49,2.93,2.93,0,0,0,1.12-1.06,2.81,2.81,0,0,0,.41-1.44,1.38,1.38,0,0,0-.41-1,1.45,1.45,0,0,0-1.06-.41,3.13,3.13,0,0,0-.79.11,1.73,1.73,0,0,0-.68.33,3,3,0,0,1-.66-.66,1.65,1.65,0,0,1-.27-1,2.49,2.49,0,0,1,.63-1.47,4,4,0,0,1,1.47-1,4.46,4.46,0,0,1,1.71-.38,3.71,3.71,0,0,1,2.75,1.06A4.16,4.16,0,0,1,324,139.91Z"/><rect class="cls-1" x="318.99" y="149.77" width="3" height="4.19"/></g></g></svg>