<svg xmlns="http://www.w3.org/2000/svg" viewBox="0 0 320.01 155.46"><defs><style>.cls-1{fill:#dfd9d0;}.cls-2{fill:#1f8ebe;}.cls-3{fill:#f9f3e9;}</style></defs><title>UD1</title><g id="Capa_2" data-name="Capa 2"><g id="Capa_1-2" data-name="Capa 1"><path class="cls-1" d="M308.37,155.46H11.65A11.67,11.67,0,0,1,0,143.78V14.46H3V143.78a8.68,8.68,0,0,0,8.65,8.69H308.37a8.67,8.67,0,0,0,8.64-8.69V6.9h3V143.78A11.67,11.67,0,0,1,308.37,155.46Z"/><path class="cls-2" d="M6,0H160a0,0,0,0,1,0,0V51.32a0,0,0,0,1,0,0H0a0,0,0,0,1,0,0V6A6,6,0,0,1,6,0Z"/><path class="cls-3" d="M86.75,14.22a1.06,1.06,0,0,1,.84.36,1.24,1.24,0,0,1,.33.87V27.36a7.92,7.92,0,0,1-1.07,4.13,7.79,7.79,0,0,1-6.94,4,8,8,0,0,1-4.13-1.06,7.8,7.8,0,0,1-2.86-2.9,8.1,8.1,0,0,1-1-4.13V15.45a1.22,1.22,0,0,1,.35-.87,1.15,1.15,0,0,1,.91-.36,1.17,1.17,0,0,1,.86.36,1.16,1.16,0,0,1,.37.87V27.36a5.7,5.7,0,0,0,.75,2.93,5.35,5.35,0,0,0,2,2,5.45,5.45,0,0,0,2.77.74,5.6,5.6,0,0,0,2.82-.74,5.8,5.8,0,0,0,2.09-2,5.54,5.54,0,0,0,.79-2.93V15.45a1.31,1.31,0,0,1,.3-.87A1,1,0,0,1,86.75,14.22Z"/><path class="cls-2" d="M160,0H320a0,0,0,0,1,0,0V51.32a0,0,0,0,1,0,0H166a6,6,0,0,1-6-6V0A0,0,0,0,1,160,0Z" transform="translate(480 51.32) rotate(180)"/><path class="cls-3" d="M244.2,13a1.15,1.15,0,0,1,.87.35,1.19,1.19,0,0,1,.33.85V34a1.25,1.25,0,0,1-.34.87,1.18,1.18,0,0,1-.86.35,1.19,1.19,0,0,1-.86-.35A1.21,1.21,0,0,1,243,34V31.16l.57-.21a3.26,3.26,0,0,1-.43,1.52A5.8,5.8,0,0,1,241.91,34a7.22,7.22,0,0,1-1.85,1.15,5.72,5.72,0,0,1-2.28.44,6.5,6.5,0,0,1-3.66-1,7.21,7.21,0,0,1-2.56-2.87,8.87,8.87,0,0,1-.95-4.17,9,9,0,0,1,.95-4.21,7.28,7.28,0,0,1,2.54-2.86,6.68,6.68,0,0,1,7.91.53,5.69,5.69,0,0,1,1.31,1.58,3.84,3.84,0,0,1,.46,1.75l-.78-.18V14.24a1.16,1.16,0,0,1,.34-.85A1.19,1.19,0,0,1,244.2,13ZM238,33.33a4.68,4.68,0,0,0,2.67-.77,5.29,5.29,0,0,0,1.8-2.1,6.69,6.69,0,0,0,.66-3,6.76,6.76,0,0,0-.66-3,5.34,5.34,0,0,0-1.82-2.08,4.95,4.95,0,0,0-5.27,0,5.26,5.26,0,0,0-1.82,2.08,6.76,6.76,0,0,0-.66,3,6.62,6.62,0,0,0,.66,3,5.21,5.21,0,0,0,1.82,2.11A4.5,4.5,0,0,0,238,33.33Z"/><rect class="cls-1" x="158.54" y="0.05" width="3" height="129.96"/><path class="cls-2" d="M163.58,140a6.45,6.45,0,0,1-.46,2.31,9.6,9.6,0,0,1-1.28,2.32,7.93,7.93,0,0,1-1.8,1.77,3.42,3.42,0,0,1-1.95.68,2.17,2.17,0,0,1-1.28-.36,1.29,1.29,0,0,1-.52-1.17c0-.69.23-1.08.68-1.19a6.67,6.67,0,0,0,1.33-.49,2.93,2.93,0,0,0,1.12-1.06,2.82,2.82,0,0,0,.41-1.45,1.36,1.36,0,0,0-.41-1,1.41,1.41,0,0,0-1.06-.41,2.74,2.74,0,0,0-.79.11,1.87,1.87,0,0,0-.68.32,2.68,2.68,0,0,1-.65-.65,1.58,1.58,0,0,1-.28-1,2.49,2.49,0,0,1,.63-1.47,4,4,0,0,1,1.47-1,4.28,4.28,0,0,1,1.71-.38,3.71,3.71,0,0,1,2.75,1.06A4.13,4.13,0,0,1,163.58,140Z"/><rect class="cls-1" x="158.54" y="149.82" width="3" height="4.19"/></g></g></svg>