<svg xmlns="http://www.w3.org/2000/svg" viewBox="0 0 480.62 360.75"><defs><style>.cls-1{fill:#dfd9d0;}.cls-2{fill:#1f8ebe;}.cls-3{fill:#f9f3e9;}</style></defs><title>UDC3</title><g id="Capa_2" data-name="Capa 2"><g id="Capa_1-2" data-name="Capa 1"><polygon class="cls-1" points="480.62 155.46 0 155.46 0 14.46 3 14.46 3 152.46 477.62 152.46 477.62 6.9 480.62 6.9 480.62 155.46"/><path class="cls-2" d="M6.11,0h154a0,0,0,0,1,0,0V51.32a0,0,0,0,1,0,0H.11a0,0,0,0,1,0,0V6A6,6,0,0,1,6.11,0Z"/><rect class="cls-2" x="160.11" width="160" height="51.32"/><path class="cls-2" d="M320.11,0h160a0,0,0,0,1,0,0V51.32a0,0,0,0,1,0,0h-154a6,6,0,0,1-6-6V0A0,0,0,0,1,320.11,0Z" transform="translate(800.23 51.32) rotate(180)"/><rect class="cls-1" x="318.62" width="3" height="359.25"/><polygon class="cls-1" points="480.62 258.1 0 258.1 0 153.96 3 153.96 3 255.1 477.62 255.1 477.62 153.96 480.62 153.96 480.62 258.1"/><path class="cls-1" d="M468.94,360.75H11.68A11.7,11.7,0,0,1,0,349.06V256.6H3v92.46a8.69,8.69,0,0,0,8.68,8.69H468.94a8.7,8.7,0,0,0,8.68-8.69V256.6h3v92.46A11.7,11.7,0,0,1,468.94,360.75Z"/><rect class="cls-1" x="158.89" width="3" height="129.96"/><path class="cls-2" d="M163.92,139.91a6.54,6.54,0,0,1-.46,2.31,9.22,9.22,0,0,1-1.28,2.31,7.68,7.68,0,0,1-1.79,1.77,3.47,3.47,0,0,1-2,.68,2.24,2.24,0,0,1-1.28-.35,1.31,1.31,0,0,1-.52-1.17c0-.69.23-1.09.68-1.2a6.38,6.38,0,0,0,1.34-.49,2.9,2.9,0,0,0,1.11-1.06,2.81,2.81,0,0,0,.41-1.44,1.38,1.38,0,0,0-.41-1,1.45,1.45,0,0,0-1.06-.41,3.2,3.2,0,0,0-.79.11,1.73,1.73,0,0,0-.68.33,2.91,2.91,0,0,1-.65-.66,1.65,1.65,0,0,1-.27-1,2.41,2.41,0,0,1,.62-1.47,4,4,0,0,1,1.47-1,4.46,4.46,0,0,1,1.71-.38,3.69,3.69,0,0,1,2.75,1.06A4.16,4.16,0,0,1,163.92,139.91Z"/><rect class="cls-1" x="158.89" y="149.77" width="3" height="4.19"/><rect class="cls-1" x="158.89" y="153.96" width="3" height="78.63"/><path class="cls-2" d="M163.92,242.55a6.54,6.54,0,0,1-.46,2.31,9,9,0,0,1-1.28,2.31,7.68,7.68,0,0,1-1.79,1.77,3.47,3.47,0,0,1-2,.68,2.24,2.24,0,0,1-1.28-.35,1.31,1.31,0,0,1-.52-1.17c0-.69.23-1.09.68-1.2a6.38,6.38,0,0,0,1.34-.49,2.89,2.89,0,0,0,1.52-2.5,1.38,1.38,0,0,0-.41-1,1.45,1.45,0,0,0-1.06-.41,3.2,3.2,0,0,0-.79.11,1.73,1.73,0,0,0-.68.33,2.72,2.72,0,0,1-.65-.66,1.63,1.63,0,0,1-.27-1,2.36,2.36,0,0,1,.62-1.46,3.88,3.88,0,0,1,1.47-1,4.46,4.46,0,0,1,1.71-.38,3.69,3.69,0,0,1,2.75,1.06A4.16,4.16,0,0,1,163.92,242.55Z"/><rect class="cls-1" x="158.89" y="252.41" width="3" height="4.19"/><rect class="cls-1" x="158.89" y="256.6" width="3" height="78.63"/><path class="cls-2" d="M163.92,345.19a6.54,6.54,0,0,1-.46,2.31,9,9,0,0,1-1.28,2.31,7.68,7.68,0,0,1-1.79,1.77,3.4,3.4,0,0,1-2,.68,2.17,2.17,0,0,1-1.28-.35,1.31,1.31,0,0,1-.52-1.17c0-.69.23-1.09.68-1.2a6.38,6.38,0,0,0,1.34-.49,2.89,2.89,0,0,0,1.52-2.5,1.38,1.38,0,0,0-.41-1,1.45,1.45,0,0,0-1.06-.41,3.2,3.2,0,0,0-.79.11,1.88,1.88,0,0,0-.68.33,2.86,2.86,0,0,1-.65-.65,1.67,1.67,0,0,1-.27-1,2.37,2.37,0,0,1,.62-1.47,4,4,0,0,1,1.47-1,4.46,4.46,0,0,1,1.71-.38,3.73,3.73,0,0,1,2.75,1.06A4.17,4.17,0,0,1,163.92,345.19Z"/><path class="cls-3" d="M88,14.22a1.09,1.09,0,0,1,.84.36,1.24,1.24,0,0,1,.33.87V27.36a8.07,8.07,0,0,1-1.06,4.14,8,8,0,0,1-2.87,2.89,7.86,7.86,0,0,1-4.08,1.07A8,8,0,0,1,77,34.39a7.8,7.8,0,0,1-2.87-2.89,8.17,8.17,0,0,1-1-4.14V15.45a1.22,1.22,0,0,1,.35-.87,1.2,1.2,0,0,1,.91-.36,1.21,1.21,0,0,1,.86.36,1.16,1.16,0,0,1,.37.87V27.36a5.74,5.74,0,0,0,.75,2.94,5.55,5.55,0,0,0,4.8,2.76,5.6,5.6,0,0,0,2.82-.74,5.78,5.78,0,0,0,2.09-2,5.49,5.49,0,0,0,.79-2.94V15.45a1.31,1.31,0,0,1,.3-.87A1,1,0,0,1,88,14.22Z"/><path class="cls-3" d="M244.2,13.05a1.15,1.15,0,0,1,.87.34,1.2,1.2,0,0,1,.33.86V34a1.22,1.22,0,0,1-.35.87,1.13,1.13,0,0,1-.85.36,1.15,1.15,0,0,1-.86-.36A1.21,1.21,0,0,1,243,34V31.17l.57-.21a3.16,3.16,0,0,1-.44,1.51A5.45,5.45,0,0,1,241.9,34a7,7,0,0,1-1.84,1.14,5.73,5.73,0,0,1-2.28.45,6.58,6.58,0,0,1-3.66-1,7.41,7.41,0,0,1-2.57-2.88,9,9,0,0,1-.94-4.17,9,9,0,0,1,.94-4.2,7.34,7.34,0,0,1,2.55-2.87,6.7,6.7,0,0,1,7.91.53,5.52,5.52,0,0,1,1.3,1.59,3.67,3.67,0,0,1,.47,1.74l-.78-.18V14.25a1.16,1.16,0,0,1,1.2-1.2ZM238,33.33a4.68,4.68,0,0,0,2.67-.77,5.29,5.29,0,0,0,1.8-2.1,7.24,7.24,0,0,0,0-6,5.3,5.3,0,0,0-1.82-2.09,5,5,0,0,0-5.28,0,5.27,5.27,0,0,0-1.81,2.09,7.17,7.17,0,0,0,0,6,5.36,5.36,0,0,0,1.81,2.12A4.6,4.6,0,0,0,238,33.33Z"/><path class="cls-3" d="M398.44,19.35a10.66,10.66,0,0,1,2.76.33,5.36,5.36,0,0,1,1.95.9,1.63,1.63,0,0,1,.72,1.29,1.29,1.29,0,0,1-.26.75.84.84,0,0,1-.73.36,1.28,1.28,0,0,1-.65-.15,2.16,2.16,0,0,1-.48-.39,1.93,1.93,0,0,0-.61-.42,3.25,3.25,0,0,0-1.05-.33,8.21,8.21,0,0,0-1.41-.12,5.36,5.36,0,0,0-2.88.78,5.45,5.45,0,0,0-2,2.1,6.27,6.27,0,0,0-.7,3,6.38,6.38,0,0,0,.69,3,5.4,5.4,0,0,0,1.92,2.1,5.21,5.21,0,0,0,2.85.78,6.11,6.11,0,0,0,1.66-.18,5.68,5.68,0,0,0,1.07-.42,3.6,3.6,0,0,0,.79-.6,1.06,1.06,0,0,1,.8-.3,1,1,0,0,1,.78.33A1.24,1.24,0,0,1,404,33a1.6,1.6,0,0,1-.75,1.14,6.51,6.51,0,0,1-2,1,9.1,9.1,0,0,1-2.86.42,7.39,7.39,0,0,1-4-1.07,7.26,7.26,0,0,1-2.66-2.91,8.89,8.89,0,0,1-.94-4.12,8.6,8.6,0,0,1,1-4.11,7.54,7.54,0,0,1,2.72-2.91A7.46,7.46,0,0,1,398.44,19.35Z"/></g></g></svg>