<svg xmlns="http://www.w3.org/2000/svg" viewBox="0 0 641 463.39"><defs><style>.cls-1{fill:#dfd9d0;}.cls-2{fill:#1f8ebe;}.cls-3{fill:#f9f3e9;}</style></defs><title>UMCDU4</title><g id="Capa_2" data-name="Capa 2"><g id="Capa_1-2" data-name="Capa 1"><polygon class="cls-1" points="641 155.46 0 155.46 0 14.46 3 14.46 3 152.46 638 152.46 638 6.9 641 6.9 641 155.46"/><path class="cls-2" d="M6.5,0h154a0,0,0,0,1,0,0V51.32a0,0,0,0,1,0,0H.5a0,0,0,0,1,0,0V6A6,6,0,0,1,6.5,0Z"/><path class="cls-3" d="M75,14.21a1.1,1.1,0,0,1,.84.37,1.22,1.22,0,0,1,.33.87v11.9a8.09,8.09,0,0,1-1.07,4.15,8,8,0,0,1-2.86,2.89,7.86,7.86,0,0,1-4.08,1.07A8,8,0,0,1,64,34.39a7.85,7.85,0,0,1-2.86-2.89,8.18,8.18,0,0,1-1-4.15V15.45a1.19,1.19,0,0,1,.34-.87,1.23,1.23,0,0,1,.92-.37,1.2,1.2,0,0,1,.85.37,1.15,1.15,0,0,1,.38.87v11.9a5.75,5.75,0,0,0,.75,2.95,5.48,5.48,0,0,0,4.8,2.75A5.59,5.59,0,0,0,71,32.32a5.75,5.75,0,0,0,2.08-2,5.5,5.5,0,0,0,.8-2.95V15.45a1.3,1.3,0,0,1,.3-.87A1,1,0,0,1,75,14.21Z"/><path class="cls-3" d="M82.66,14.21a1.24,1.24,0,0,1,.58.16,1.15,1.15,0,0,1,.5.39l8,12-1,0,8-12a1.15,1.15,0,0,1,1-.55,1.4,1.4,0,0,1,.84.37,1.12,1.12,0,0,1,.36.87V34a1.17,1.17,0,0,1-.36.87,1.28,1.28,0,0,1-1.8,0,1.17,1.17,0,0,1-.36-.87V17.72l.75.16L92.05,28.64a1.58,1.58,0,0,1-.44.37,1,1,0,0,1-.52.15,1.1,1.1,0,0,1-.54-.15,1.49,1.49,0,0,1-.45-.37l-7-10.76.63-.79V34a1.22,1.22,0,0,1-.33.87,1.07,1.07,0,0,1-.84.37,1,1,0,0,1-.83-.37,1.25,1.25,0,0,1-.31-.87V15.45a1.23,1.23,0,0,1,.34-.86A1.16,1.16,0,0,1,82.66,14.21Z"/><rect class="cls-2" x="160.5" width="160" height="51.32"/><path class="cls-3" d="M248.58,15.63a1,1,0,0,1,.59.8,1.24,1.24,0,0,1-.29,1,.87.87,0,0,1-.69.42,1.59,1.59,0,0,1-.84-.17,8.88,8.88,0,0,0-2.13-1,8.79,8.79,0,0,0-5.64.27A7.76,7.76,0,0,0,237,18.71a8,8,0,0,0-1.68,2.64,9.3,9.3,0,0,0-.6,3.4,9.42,9.42,0,0,0,.63,3.54,7.86,7.86,0,0,0,1.73,2.65,7.21,7.21,0,0,0,2.55,1.66,8.38,8.38,0,0,0,3.16.57,8.13,8.13,0,0,0,2.37-.33,8.34,8.34,0,0,0,2.16-1,1.47,1.47,0,0,1,.84-.14,1.13,1.13,0,0,1,.72.42,1.25,1.25,0,0,1,.27,1,1,1,0,0,1-.57.76,11.35,11.35,0,0,1-1.71.83,12,12,0,0,1-2,.59,11.31,11.31,0,0,1-2.09.21,11.11,11.11,0,0,1-4.08-.75A10.18,10.18,0,0,1,233,29.23a11.26,11.26,0,0,1-.86-4.48,11,11,0,0,1,.81-4.29,10.3,10.3,0,0,1,2.27-3.4,10.57,10.57,0,0,1,3.39-2.25,10.7,10.7,0,0,1,4.18-.8,11.56,11.56,0,0,1,3.05.41A10.56,10.56,0,0,1,248.58,15.63Z"/><rect class="cls-2" x="320.5" width="160" height="51.32"/><path class="cls-3" d="M401.07,14.25a8.55,8.55,0,0,1,3.85.82,7.66,7.66,0,0,1,2.78,2.3,10.21,10.21,0,0,1,1.66,3.37,14.23,14.23,0,0,1,.56,4,13.58,13.58,0,0,1-1,5.26A8.77,8.77,0,0,1,406,33.82a8.12,8.12,0,0,1-4.92,1.43h-7.5a1.12,1.12,0,0,1-.86-.37,1.19,1.19,0,0,1-.34-.87V15.45a1.16,1.16,0,0,1,1.2-1.2Zm-.3,18.66a6,6,0,0,0,3.76-1.11,6.37,6.37,0,0,0,2.13-3,11.88,11.88,0,0,0,.68-4.08,12.68,12.68,0,0,0-.38-3.11A8.06,8.06,0,0,0,405.79,19a5.91,5.91,0,0,0-2-1.8,6.39,6.39,0,0,0-3-.66h-6.15l.24-.24v16.9l-.18-.3Z"/><path class="cls-2" d="M480.5,0h160a0,0,0,0,1,0,0V51.32a0,0,0,0,1,0,0h-154a6,6,0,0,1-6-6V0A0,0,0,0,1,480.5,0Z" transform="translate(1121 51.32) rotate(180)"/><path class="cls-3" d="M567.37,14.21a1.1,1.1,0,0,1,.84.37,1.22,1.22,0,0,1,.33.87v11.9a8.09,8.09,0,0,1-1.07,4.15,8,8,0,0,1-2.86,2.89,7.86,7.86,0,0,1-4.08,1.07,8,8,0,0,1-4.13-1.07,7.85,7.85,0,0,1-2.86-2.89,8.18,8.18,0,0,1-1-4.15V15.45a1.19,1.19,0,0,1,.34-.87,1.23,1.23,0,0,1,.92-.37,1.2,1.2,0,0,1,.85.37,1.15,1.15,0,0,1,.38.87v11.9a5.75,5.75,0,0,0,.75,2.95,5.48,5.48,0,0,0,4.8,2.75,5.59,5.59,0,0,0,2.82-.73,5.75,5.75,0,0,0,2.08-2,5.5,5.5,0,0,0,.8-2.95V15.45a1.3,1.3,0,0,1,.3-.87A1,1,0,0,1,567.37,14.21Z"/><rect class="cls-1" x="159" width="3" height="461.89"/><rect class="cls-1" x="319" width="3" height="461.89"/><rect class="cls-1" x="479" width="3" height="461.89"/><polygon class="cls-1" points="641 258.1 0 258.1 0 153.96 3 153.96 3 255.1 638 255.1 638 153.96 641 153.96 641 258.1"/><polygon class="cls-1" points="641 360.75 0 360.75 0 256.6 3 256.6 3 357.75 638 357.75 638 256.6 641 256.6 641 360.75"/><path class="cls-1" d="M629.32,463.39H11.68A11.69,11.69,0,0,1,0,451.71V359.25H3v92.46a8.69,8.69,0,0,0,8.68,8.68H629.32a8.7,8.7,0,0,0,8.68-8.68V359.25h3v92.46A11.69,11.69,0,0,1,629.32,463.39Z"/></g></g></svg>