<svg xmlns="http://www.w3.org/2000/svg" viewBox="0 0 641 155.46"><defs><style>.cls-1{fill:#dfd9d0;}.cls-2{fill:#1f8ebe;}.cls-3{fill:#f9f3e9;}</style></defs><title>UMCDU1</title><g id="Capa_2" data-name="Capa 2"><g id="Capa_1-2" data-name="Capa 1"><path class="cls-1" d="M629.32,155.46H11.68A11.69,11.69,0,0,1,0,143.78V14.46H3V143.78a8.68,8.68,0,0,0,8.68,8.68H629.32a8.69,8.69,0,0,0,8.68-8.68V6.9h3V143.78A11.69,11.69,0,0,1,629.32,155.46Z"/><path class="cls-2" d="M6.49,0h154a0,0,0,0,1,0,0V51.32a0,0,0,0,1,0,0H.49a0,0,0,0,1,0,0V6a6,6,0,0,1,6-6Z"/><path class="cls-3" d="M75,14.22a1.06,1.06,0,0,1,.84.36,1.22,1.22,0,0,1,.33.87v11.9a8.09,8.09,0,0,1-1.06,4.15,8,8,0,0,1-2.87,2.89,7.86,7.86,0,0,1-4.08,1.07A8,8,0,0,1,64,34.39a7.8,7.8,0,0,1-2.87-2.89,8.18,8.18,0,0,1-1.05-4.15V15.45a1.2,1.2,0,0,1,.35-.87,1.27,1.27,0,0,1,1.77,0,1.14,1.14,0,0,1,.37.87v11.9a5.69,5.69,0,0,0,.75,2.94,5.53,5.53,0,0,0,4.8,2.77A5.58,5.58,0,0,0,71,32.32a5.73,5.73,0,0,0,2.09-2,5.44,5.44,0,0,0,.79-2.94V15.45a1.3,1.3,0,0,1,.3-.87A1,1,0,0,1,75,14.22Z"/><path class="cls-3" d="M82.65,14.22a1.39,1.39,0,0,1,.59.15,1.37,1.37,0,0,1,.49.38l8,12-1.05,0,8-12a1.13,1.13,0,0,1,1-.53,1.33,1.33,0,0,1,.84.36,1.11,1.11,0,0,1,.36.87V34a1.19,1.19,0,0,1-.36.87,1.31,1.31,0,0,1-1.8,0,1.19,1.19,0,0,1-.36-.87V17.73l.75.15L92,28.65a1.47,1.47,0,0,1-.43.35,1,1,0,0,1-.53.16,1,1,0,0,1-.54-.16,1.43,1.43,0,0,1-.45-.35l-7-10.77.63-.78V34a1.24,1.24,0,0,1-.33.87,1.09,1.09,0,0,1-.84.36,1,1,0,0,1-.82-.36,1.28,1.28,0,0,1-.32-.87V15.45a1.24,1.24,0,0,1,.35-.86A1.13,1.13,0,0,1,82.65,14.22Z"/><rect class="cls-2" x="160.49" width="160" height="51.32"/><path class="cls-3" d="M248.58,15.63a1,1,0,0,1,.58.81,1.26,1.26,0,0,1-.28,1,.89.89,0,0,1-.69.42,1.6,1.6,0,0,1-.84-.18,9.29,9.29,0,0,0-2.13-1,8.79,8.79,0,0,0-5.64.27A7.63,7.63,0,0,0,237,18.72a7.8,7.8,0,0,0-1.68,2.63,9.3,9.3,0,0,0-.6,3.4,9.42,9.42,0,0,0,.63,3.54,7.84,7.84,0,0,0,1.72,2.65,7.21,7.21,0,0,0,2.55,1.66,8.83,8.83,0,0,0,5.54.25,8.69,8.69,0,0,0,2.16-1,1.4,1.4,0,0,1,.84-.15,1.13,1.13,0,0,1,.72.42,1.26,1.26,0,0,1,.27,1,1,1,0,0,1-.57.77,11.35,11.35,0,0,1-1.71.82,11.21,11.21,0,0,1-2,.58,10.41,10.41,0,0,1-2.08.21,11.11,11.11,0,0,1-4.08-.75,10,10,0,0,1-3.39-2.15A10.28,10.28,0,0,1,233,29.23a11.25,11.25,0,0,1-.85-4.48,11.08,11.08,0,0,1,.81-4.29,10.27,10.27,0,0,1,2.26-3.4,10.57,10.57,0,0,1,3.39-2.25,10.75,10.75,0,0,1,4.19-.81,11.11,11.11,0,0,1,3,.43A10.27,10.27,0,0,1,248.58,15.63Z"/><rect class="cls-2" x="320.49" width="160" height="51.32"/><path class="cls-3" d="M401.06,14.25a8.6,8.6,0,0,1,3.86.82,7.72,7.72,0,0,1,2.77,2.3,10.33,10.33,0,0,1,1.67,3.37,14.28,14.28,0,0,1,.55,4,13.58,13.58,0,0,1-1,5.26A8.77,8.77,0,0,1,406,33.82a8.12,8.12,0,0,1-4.92,1.43h-7.5a1.13,1.13,0,0,1-.85-.36,1.22,1.22,0,0,1-.35-.87V15.45a1.18,1.18,0,0,1,.35-.86,1.15,1.15,0,0,1,.85-.34Zm-.3,18.66a6,6,0,0,0,3.77-1.12,6.29,6.29,0,0,0,2.13-3,11.88,11.88,0,0,0,.67-4.08,12.68,12.68,0,0,0-.37-3.11A7.91,7.91,0,0,0,405.79,19a5.71,5.71,0,0,0-2-1.8,6.32,6.32,0,0,0-3-.66h-6.15l.24-.24V33.21l-.18-.3Z"/><path class="cls-2" d="M480.49,0h160a0,0,0,0,1,0,0V51.32a0,0,0,0,1,0,0h-154a6,6,0,0,1-6-6V0A0,0,0,0,1,480.49,0Z" transform="translate(1120.99 51.32) rotate(180)"/><path class="cls-3" d="M567.36,14.22a1.06,1.06,0,0,1,.84.36,1.24,1.24,0,0,1,.33.87V27.36a8.07,8.07,0,0,1-1.06,4.14,8,8,0,0,1-2.87,2.89,7.86,7.86,0,0,1-4.08,1.07,8,8,0,0,1-4.12-1.07,7.8,7.8,0,0,1-2.87-2.89,8.17,8.17,0,0,1-1-4.14V15.45a1.22,1.22,0,0,1,.35-.87,1.26,1.26,0,0,1,2.14.87V27.36a5.68,5.68,0,0,0,.75,2.93,5.53,5.53,0,0,0,4.8,2.77,5.6,5.6,0,0,0,2.82-.74,5.73,5.73,0,0,0,2.09-2,5.43,5.43,0,0,0,.79-2.93V15.45a1.31,1.31,0,0,1,.3-.87A1,1,0,0,1,567.36,14.22Z"/><rect class="cls-1" x="158.99" width="3" height="153.96"/><rect class="cls-1" x="318.99" width="3" height="153.96"/><rect class="cls-1" x="478.99" width="3" height="153.96"/></g></g></svg>