<svg xmlns="http://www.w3.org/2000/svg" viewBox="0 0 1121.06 155.47"><defs><style>.a61e6202-3995-41d0-9b74-dce0ec40bed3{fill:#1f8ebe;}.b8226aae-6d02-4514-aabf-aa234760f57c{fill:#f9f3e9;}.ead51cce-d1b2-42a7-8f3f-cfc445502e2a{fill:#dfd9d0;}</style></defs><title>umidmcmumcdu1</title><g id="a8d5863b-cb6b-4377-bc04-6ca39cc07836" data-name="Capa 2"><g id="abc79ff5-7e39-4136-ab6c-b39a12834baa" data-name="Capa 1"><rect class="a61e6202-3995-41d0-9b74-dce0ec40bed3" x="481.67" width="158.89" height="51.32"/><path class="b8226aae-6d02-4514-aabf-aa234760f57c" d="M555.07,14.22a1.06,1.06,0,0,1,.84.36,1.22,1.22,0,0,1,.33.87v11.9a8.19,8.19,0,0,1-1.06,4.15,8,8,0,0,1-2.87,2.89,7.86,7.86,0,0,1-4.08,1.07,8,8,0,0,1-4.12-1.07,7.8,7.8,0,0,1-2.87-2.89,8.18,8.18,0,0,1-1-4.15V15.45a1.2,1.2,0,0,1,.35-.87,1.27,1.27,0,0,1,1.77,0,1.14,1.14,0,0,1,.37.87v11.9a5.69,5.69,0,0,0,.75,2.94,5.53,5.53,0,0,0,4.8,2.77,5.6,5.6,0,0,0,2.82-.74,5.73,5.73,0,0,0,2.09-2,5.44,5.44,0,0,0,.79-2.94V15.45a1.3,1.3,0,0,1,.3-.87A1,1,0,0,1,555.07,14.22Z"/><path class="b8226aae-6d02-4514-aabf-aa234760f57c" d="M562.72,14.22a1.39,1.39,0,0,1,.59.15,1.37,1.37,0,0,1,.49.38l8,12-1,0,8-12a1.13,1.13,0,0,1,1-.53,1.33,1.33,0,0,1,.84.36,1.11,1.11,0,0,1,.36.87V34a1.19,1.19,0,0,1-.36.87,1.3,1.3,0,0,1-1.8,0,1.19,1.19,0,0,1-.36-.87V17.73l.75.15-7.08,10.77a1.61,1.61,0,0,1-.43.35,1,1,0,0,1-.53.16,1,1,0,0,1-.54-.16,1.43,1.43,0,0,1-.45-.35l-7-10.77.63-.78V34a1.24,1.24,0,0,1-.33.87,1.09,1.09,0,0,1-.84.36,1,1,0,0,1-.82-.36,1.28,1.28,0,0,1-.32-.87V15.45a1.24,1.24,0,0,1,.35-.86A1.13,1.13,0,0,1,562.72,14.22Z"/><rect class="a61e6202-3995-41d0-9b74-dce0ec40bed3" x="640.56" width="160" height="51.32"/><path class="b8226aae-6d02-4514-aabf-aa234760f57c" d="M728.64,15.63a1,1,0,0,1,.59.81,1.27,1.27,0,0,1-.29,1,.89.89,0,0,1-.69.42,1.55,1.55,0,0,1-.83-.18,9.69,9.69,0,0,0-2.13-1,8.82,8.82,0,0,0-5.65.27,7.63,7.63,0,0,0-4.22,4.36,9.1,9.1,0,0,0-.61,3.4,9.42,9.42,0,0,0,.63,3.54,8,8,0,0,0,1.73,2.65,7.21,7.21,0,0,0,2.55,1.66,8.8,8.8,0,0,0,5.53.25,8.92,8.92,0,0,0,2.17-1,1.36,1.36,0,0,1,.83-.15,1.13,1.13,0,0,1,.72.42,1.3,1.3,0,0,1,.28,1,1,1,0,0,1-.58.77,11.35,11.35,0,0,1-1.71.82,11.11,11.11,0,0,1-2,.58,10.44,10.44,0,0,1-2.09.21,11.11,11.11,0,0,1-4.08-.75,9.9,9.9,0,0,1-3.38-2.15,10.14,10.14,0,0,1-2.33-3.41,11.26,11.26,0,0,1-.86-4.48,11.08,11.08,0,0,1,.81-4.29,10.45,10.45,0,0,1,2.27-3.4,10.57,10.57,0,0,1,3.39-2.25,10.7,10.7,0,0,1,4.18-.81,11.18,11.18,0,0,1,3,.43A10.21,10.21,0,0,1,728.64,15.63Z"/><rect class="a61e6202-3995-41d0-9b74-dce0ec40bed3" x="800.56" width="160" height="51.32"/><path class="b8226aae-6d02-4514-aabf-aa234760f57c" d="M881.13,14.25a8.55,8.55,0,0,1,3.85.82,7.76,7.76,0,0,1,2.78,2.3,10.31,10.31,0,0,1,1.66,3.37,14.28,14.28,0,0,1,.56,4A13.58,13.58,0,0,1,889,30a8.77,8.77,0,0,1-2.94,3.81,8.12,8.12,0,0,1-4.92,1.43h-7.5a1.15,1.15,0,0,1-.86-.36,1.21,1.21,0,0,1-.34-.87V15.45a1.16,1.16,0,0,1,1.2-1.2Zm-.3,18.66a6,6,0,0,0,3.76-1.12,6.29,6.29,0,0,0,2.13-3,11.88,11.88,0,0,0,.68-4.08,12.68,12.68,0,0,0-.38-3.11A7.91,7.91,0,0,0,885.85,19a5.71,5.71,0,0,0-2-1.8,6.27,6.27,0,0,0-3-.66h-6.15l.24-.24V33.21l-.18-.3Z"/><path class="a61e6202-3995-41d0-9b74-dce0ec40bed3" d="M960.56,0h160a0,0,0,0,1,0,0V51.32a0,0,0,0,1,0,0h-154a6,6,0,0,1-6-6V0A0,0,0,0,1,960.56,0Z" transform="translate(2081.12 51.32) rotate(180)"/><path class="b8226aae-6d02-4514-aabf-aa234760f57c" d="M1047.43,14.22a1.06,1.06,0,0,1,.84.36,1.24,1.24,0,0,1,.33.87V27.36a8.08,8.08,0,0,1-1.07,4.14,7.85,7.85,0,0,1-6.94,4,8,8,0,0,1-4.13-1.07,7.78,7.78,0,0,1-2.86-2.89,8.17,8.17,0,0,1-1-4.14V15.45a1.21,1.21,0,0,1,.34-.87,1.18,1.18,0,0,1,.92-.36,1.15,1.15,0,0,1,.85.36,1.17,1.17,0,0,1,.38.87V27.36a5.68,5.68,0,0,0,.75,2.93,5.39,5.39,0,0,0,2,2,5.48,5.48,0,0,0,2.78.74,5.6,5.6,0,0,0,2.82-.74,5.7,5.7,0,0,0,2.08-2,5.43,5.43,0,0,0,.8-2.93V15.45a1.31,1.31,0,0,1,.3-.87A1,1,0,0,1,1047.43,14.22Z"/><rect class="ead51cce-d1b2-42a7-8f3f-cfc445502e2a" x="639.06" width="3" height="153.96"/><rect class="ead51cce-d1b2-42a7-8f3f-cfc445502e2a" x="799.06" width="3" height="153.96"/><rect class="ead51cce-d1b2-42a7-8f3f-cfc445502e2a" x="959.06" width="3" height="153.96"/><polygon class="ead51cce-d1b2-42a7-8f3f-cfc445502e2a" points="480.07 155.47 320.02 155.47 320.02 7.9 323.02 7.9 323.02 152.47 480.07 152.47 480.07 155.47"/><rect class="a61e6202-3995-41d0-9b74-dce0ec40bed3" x="320.07" width="161.6" height="51.32"/><path class="ead51cce-d1b2-42a7-8f3f-cfc445502e2a" d="M1109.38,155.46H480.07V0h3V152.46h626.31a8.67,8.67,0,0,0,8.68-8.68V51.32h3v92.46A11.68,11.68,0,0,1,1109.38,155.46Z"/><polygon class="ead51cce-d1b2-42a7-8f3f-cfc445502e2a" points="320.07 155.47 160.03 155.47 160.03 7.9 163.03 7.9 163.03 152.47 320.07 152.47 320.07 155.47"/><rect class="a61e6202-3995-41d0-9b74-dce0ec40bed3" x="160.08" width="161.6" height="51.32"/><rect class="ead51cce-d1b2-42a7-8f3f-cfc445502e2a" x="320.02" width="3" height="57.54"/><path class="ead51cce-d1b2-42a7-8f3f-cfc445502e2a" d="M160,155.47H10.18A10.2,10.2,0,0,1,0,145.29V7.9H3V145.29a7.19,7.19,0,0,0,7.18,7.18H160Z"/><path class="a61e6202-3995-41d0-9b74-dce0ec40bed3" d="M6,0h155.6a0,0,0,0,1,0,0V51.32a0,0,0,0,1,0,0H0a0,0,0,0,1,0,0V6A6,6,0,0,1,6,0Z"/><rect class="ead51cce-d1b2-42a7-8f3f-cfc445502e2a" x="160.03" width="3" height="57.54"/><path class="b8226aae-6d02-4514-aabf-aa234760f57c" d="M71.19,14a1.13,1.13,0,0,1,.85.36,1.27,1.27,0,0,1,.33.88V27.27a8.21,8.21,0,0,1-1.08,4.2,8.16,8.16,0,0,1-14.12,0,8.3,8.3,0,0,1-1.06-4.2V15.2a1.2,1.2,0,0,1,.35-.88,1.29,1.29,0,0,1,1.79,0,1.19,1.19,0,0,1,.38.88V27.27a5.77,5.77,0,0,0,.76,3,5.6,5.6,0,0,0,4.86,2.8,5.63,5.63,0,0,0,2.86-.75,5.86,5.86,0,0,0,2.12-2,5.61,5.61,0,0,0,.8-3V15.2a1.3,1.3,0,0,1,.31-.88A1,1,0,0,1,71.19,14Z"/><path class="b8226aae-6d02-4514-aabf-aa234760f57c" d="M78.94,14a1.39,1.39,0,0,1,.59.15,1.32,1.32,0,0,1,.5.39l8.06,12.2-1.06,0L95.17,14.5a1.15,1.15,0,0,1,1-.54,1.36,1.36,0,0,1,.85.36,1.15,1.15,0,0,1,.36.88V34a1.19,1.19,0,0,1-.36.88,1.21,1.21,0,0,1-.91.37,1.24,1.24,0,0,1-.92-.37,1.19,1.19,0,0,1-.36-.88V17.51l.76.16L88.46,28.58a1.78,1.78,0,0,1-.45.36,1,1,0,0,1-.53.16,1.08,1.08,0,0,1-.55-.16,1.62,1.62,0,0,1-.45-.36L79.39,17.67l.64-.8V34a1.25,1.25,0,0,1-.33.88,1.09,1.09,0,0,1-.85.37A1,1,0,0,1,78,34.9a1.29,1.29,0,0,1-.32-.88V15.2a1.24,1.24,0,0,1,.35-.86A1.14,1.14,0,0,1,78.94,14Z"/><path class="b8226aae-6d02-4514-aabf-aa234760f57c" d="M103.44,17.27a1.74,1.74,0,0,1-1.12-.3A1.19,1.19,0,0,1,102,16V15.6a1.11,1.11,0,0,1,.4-.94,1.76,1.76,0,0,1,1.12-.31,1.64,1.64,0,0,1,1.1.31,1.15,1.15,0,0,1,.36.94V16a1.13,1.13,0,0,1-.38.95A1.75,1.75,0,0,1,103.44,17.27ZM104.66,34a1.22,1.22,0,0,1-.35.88,1.22,1.22,0,0,1-1.75,0,1.25,1.25,0,0,1-.33-.88V20.52a1.22,1.22,0,0,1,2.08-.86,1.18,1.18,0,0,1,.35.86Z"/><path class="b8226aae-6d02-4514-aabf-aa234760f57c" d="M236.77,15.6a1,1,0,0,1,.58.81,1.24,1.24,0,0,1-.28,1,.89.89,0,0,1-.69.42,1.6,1.6,0,0,1-.84-.18,9.38,9.38,0,0,0-2.12-.94,8.76,8.76,0,0,0-5.63.27,7.61,7.61,0,0,0-2.55,1.72,7.84,7.84,0,0,0-1.68,2.64A9.12,9.12,0,0,0,223,24.7a9.3,9.3,0,0,0,.62,3.53,7.86,7.86,0,0,0,1.73,2.65,7.09,7.09,0,0,0,2.54,1.66,8.58,8.58,0,0,0,3.16.57,8.57,8.57,0,0,0,4.52-1.28,1.4,1.4,0,0,1,.84-.15,1.13,1.13,0,0,1,.72.42,1.26,1.26,0,0,1,.27,1,1,1,0,0,1-.57.76,11.35,11.35,0,0,1-1.71.83,12,12,0,0,1-2,.58,10.41,10.41,0,0,1-2.08.21,11.06,11.06,0,0,1-4.07-.75,10.14,10.14,0,0,1-5.71-5.55,11.43,11.43,0,0,1-.85-4.48,11,11,0,0,1,.81-4.28A10.23,10.23,0,0,1,223.46,17,10.62,10.62,0,0,1,231,14a11.1,11.1,0,0,1,3,.42A10.21,10.21,0,0,1,236.77,15.6Z"/><path class="b8226aae-6d02-4514-aabf-aa234760f57c" d="M242.22,14.19a1.35,1.35,0,0,1,.58.15,1.32,1.32,0,0,1,.5.39l7.93,12-1,0,8-12a1.12,1.12,0,0,1,1-.54,1.33,1.33,0,0,1,.84.36,1.12,1.12,0,0,1,.35.87V34a1.18,1.18,0,0,1-.35.87,1.31,1.31,0,0,1-1.8,0,1.19,1.19,0,0,1-.36-.87V17.69l.75.15-7.07,10.75a1.68,1.68,0,0,1-.43.36,1,1,0,0,1-.53.15,1.1,1.1,0,0,1-.54-.15,1.62,1.62,0,0,1-.45-.36l-7-10.75.63-.78V34a1.24,1.24,0,0,1-.33.87,1.09,1.09,0,0,1-.84.36,1,1,0,0,1-.82-.36A1.28,1.28,0,0,1,241,34V15.42a1.24,1.24,0,0,1,.35-.86A1.12,1.12,0,0,1,242.22,14.19Z"/><path class="b8226aae-6d02-4514-aabf-aa234760f57c" d="M388.21,14.21a8.56,8.56,0,0,1,3.85.83,7.7,7.7,0,0,1,2.77,2.29,10.31,10.31,0,0,1,1.66,3.37,14.21,14.21,0,0,1,.56,4,13.53,13.53,0,0,1-1,5.25,8.77,8.77,0,0,1-2.94,3.81,8.09,8.09,0,0,1-4.91,1.42h-7.49a1.13,1.13,0,0,1-.85-.36,1.22,1.22,0,0,1-.35-.87V15.41a1.2,1.2,0,0,1,1.2-1.2Zm-.3,18.63a6.08,6.08,0,0,0,3.76-1.1,6.37,6.37,0,0,0,2.13-3,12.11,12.11,0,0,0,.67-4.07,12.6,12.6,0,0,0-.38-3.1A7.7,7.7,0,0,0,392.93,19a5.71,5.71,0,0,0-2-1.8,6.27,6.27,0,0,0-3-.66h-6.14l.24-.24V33.14l-.18-.3Z"/><path class="b8226aae-6d02-4514-aabf-aa234760f57c" d="M402.26,14.18a1.35,1.35,0,0,1,.58.15,1.41,1.41,0,0,1,.5.39l7.93,12-1,0,8-12a1.12,1.12,0,0,1,1-.54,1.33,1.33,0,0,1,.84.36,1.12,1.12,0,0,1,.36.87V34a1.19,1.19,0,0,1-.36.87,1.31,1.31,0,0,1-1.8,0A1.19,1.19,0,0,1,418,34V17.69l.75.15-7.07,10.75a1.68,1.68,0,0,1-.43.36,1,1,0,0,1-.53.15,1.1,1.1,0,0,1-.54-.15,1.57,1.57,0,0,1-.44-.36l-7-10.75.63-.78V34a1.25,1.25,0,0,1-.34.87,1.14,1.14,0,0,1-1.66,0A1.27,1.27,0,0,1,401,34V15.41a1.21,1.21,0,0,1,.34-.85A1.16,1.16,0,0,1,402.26,14.18Z"/></g></g></svg>