<svg xmlns="http://www.w3.org/2000/svg" viewBox="0 0 1119.56 463.39"><defs><style>.b47fb8d0-4e9b-4303-8b2a-363655b95004{fill:#dfd9d0;}.fbfd110a-3fcb-4e0a-9c77-0ff61ac065af{fill:#1f8ebe;}.b710f804-deec-439b-a6f5-c4be31595004{fill:#f9f3e9;}</style></defs><title>umidmcmumcdu4</title><g id="ea1c5502-dccc-41fb-b54b-214828978ff3" data-name="Capa 2"><g id="fc411c59-d724-4d33-92f7-d24c54056633" data-name="Capa 1"><polygon class="b47fb8d0-4e9b-4303-8b2a-363655b95004" points="1119.56 155.47 478.56 155.47 478.56 14.46 481.56 14.46 481.56 152.47 1116.56 152.47 1116.56 6.91 1119.56 6.91 1119.56 155.47"/><rect class="fbfd110a-3fcb-4e0a-9c77-0ff61ac065af" x="479.05" y="0.01" width="160" height="51.32"/><path class="b710f804-deec-439b-a6f5-c4be31595004" d="M553.56,14.22a1.09,1.09,0,0,1,.84.36,1.24,1.24,0,0,1,.33.87V27.36a8.07,8.07,0,0,1-1.06,4.14,8,8,0,0,1-2.87,2.9,7.86,7.86,0,0,1-4.08,1.06,8,8,0,0,1-4.12-1.06,7.83,7.83,0,0,1-2.87-2.9,8.17,8.17,0,0,1-1.05-4.14V15.45a1.22,1.22,0,0,1,.35-.87,1.2,1.2,0,0,1,.91-.36,1.21,1.21,0,0,1,.86.36,1.16,1.16,0,0,1,.37.87V27.36a5.74,5.74,0,0,0,.75,2.94,5.5,5.5,0,0,0,4.8,2.76,5.57,5.57,0,0,0,2.82-.73,5.81,5.81,0,0,0,2.09-2,5.49,5.49,0,0,0,.79-2.94V15.45a1.31,1.31,0,0,1,.3-.87A1,1,0,0,1,553.56,14.22Z"/><path class="b710f804-deec-439b-a6f5-c4be31595004" d="M561.21,14.22a1.39,1.39,0,0,1,.59.15,1.29,1.29,0,0,1,.49.39l8,12-1,0,8-12a1.12,1.12,0,0,1,1-.54,1.33,1.33,0,0,1,.84.36,1.12,1.12,0,0,1,.36.87V34a1.19,1.19,0,0,1-.36.87,1.3,1.3,0,0,1-1.8,0,1.19,1.19,0,0,1-.36-.87V17.73l.75.15L570.6,28.65a1.68,1.68,0,0,1-.43.36,1,1,0,0,1-.53.15,1.1,1.1,0,0,1-.54-.15,1.62,1.62,0,0,1-.45-.36l-7-10.77.63-.78V34a1.24,1.24,0,0,1-.33.87,1.09,1.09,0,0,1-.84.36,1,1,0,0,1-.82-.36A1.28,1.28,0,0,1,560,34V15.45a1.22,1.22,0,0,1,.35-.85A1.14,1.14,0,0,1,561.21,14.22Z"/><rect class="fbfd110a-3fcb-4e0a-9c77-0ff61ac065af" x="639.05" y="0.01" width="160" height="51.32"/><path class="b710f804-deec-439b-a6f5-c4be31595004" d="M727.14,15.63a1,1,0,0,1,.58.81,1.25,1.25,0,0,1-.28,1,.89.89,0,0,1-.69.42,1.6,1.6,0,0,1-.84-.18,9.26,9.26,0,0,0-2.13-.94,8.61,8.61,0,0,0-5.64.27,7.61,7.61,0,0,0-2.55,1.72,7.84,7.84,0,0,0-1.68,2.64,9.21,9.21,0,0,0-.6,3.39,9.39,9.39,0,0,0,.63,3.54A7.88,7.88,0,0,0,715.66,31a7.35,7.35,0,0,0,2.55,1.66,8.63,8.63,0,0,0,3.17.57,8.48,8.48,0,0,0,2.37-.33,8.69,8.69,0,0,0,2.16-1,1.4,1.4,0,0,1,.84-.15,1.13,1.13,0,0,1,.72.42,1.28,1.28,0,0,1,.27,1,1,1,0,0,1-.57.76,11.35,11.35,0,0,1-1.71.83,12.11,12.11,0,0,1-2,.58,10.41,10.41,0,0,1-2.08.21,11.11,11.11,0,0,1-4.08-.75,10.18,10.18,0,0,1-5.72-5.56,11.3,11.3,0,0,1-.85-4.49,11.08,11.08,0,0,1,.81-4.29,10.23,10.23,0,0,1,2.26-3.39,10.57,10.57,0,0,1,3.39-2.25,10.75,10.75,0,0,1,4.19-.81,11.1,11.1,0,0,1,3,.42A10.27,10.27,0,0,1,727.14,15.63Z"/><rect class="fbfd110a-3fcb-4e0a-9c77-0ff61ac065af" x="799.05" y="0.01" width="160" height="51.32"/><path class="b710f804-deec-439b-a6f5-c4be31595004" d="M879.62,14.25a8.6,8.6,0,0,1,3.86.83,7.7,7.7,0,0,1,2.77,2.29,10.38,10.38,0,0,1,1.67,3.38,14.21,14.21,0,0,1,.55,4,13.63,13.63,0,0,1-1,5.27,8.77,8.77,0,0,1-2.94,3.81,8.12,8.12,0,0,1-4.92,1.42h-7.5a1.13,1.13,0,0,1-.85-.36,1.22,1.22,0,0,1-.35-.87V15.45a1.2,1.2,0,0,1,1.2-1.2Zm-.3,18.66a6.05,6.05,0,0,0,3.77-1.11,6.37,6.37,0,0,0,2.13-3,11.88,11.88,0,0,0,.67-4.08,12.59,12.59,0,0,0-.37-3.1A8,8,0,0,0,884.35,19a5.71,5.71,0,0,0-2-1.8,6.32,6.32,0,0,0-3-.66h-6.15l.24-.24V33.21l-.18-.3Z"/><path class="fbfd110a-3fcb-4e0a-9c77-0ff61ac065af" d="M959.05,0h160a0,0,0,0,1,0,0V51.33a0,0,0,0,1,0,0h-154a6,6,0,0,1-6-6V0A0,0,0,0,1,959.05,0Z" transform="translate(2078.11 51.33) rotate(180)"/><path class="b710f804-deec-439b-a6f5-c4be31595004" d="M1045.92,14.22a1.09,1.09,0,0,1,.84.36,1.24,1.24,0,0,1,.33.87V27.36A8.07,8.07,0,0,1,1046,31.5a8,8,0,0,1-2.87,2.9,7.86,7.86,0,0,1-4.08,1.06A8,8,0,0,1,1035,34.4a7.83,7.83,0,0,1-2.87-2.9,8.17,8.17,0,0,1-1-4.14V15.45a1.22,1.22,0,0,1,.35-.87,1.2,1.2,0,0,1,.91-.36,1.21,1.21,0,0,1,.86.36,1.16,1.16,0,0,1,.37.87V27.36a5.74,5.74,0,0,0,.75,2.94,5.5,5.5,0,0,0,4.8,2.76,5.59,5.59,0,0,0,2.82-.73,5.81,5.81,0,0,0,2.09-2,5.49,5.49,0,0,0,.79-2.94V15.45a1.31,1.31,0,0,1,.3-.87A1,1,0,0,1,1045.92,14.22Z"/><rect class="b47fb8d0-4e9b-4303-8b2a-363655b95004" x="637.55" y="0.01" width="3" height="461.89"/><rect class="b47fb8d0-4e9b-4303-8b2a-363655b95004" x="797.55" y="0.01" width="3" height="461.89"/><rect class="b47fb8d0-4e9b-4303-8b2a-363655b95004" x="957.55" y="0.01" width="3" height="461.89"/><polygon class="b47fb8d0-4e9b-4303-8b2a-363655b95004" points="1119.56 258.11 478.56 258.11 478.56 153.97 481.56 153.97 481.56 255.11 1116.56 255.11 1116.56 153.97 1119.56 153.97 1119.56 258.11"/><polygon class="b47fb8d0-4e9b-4303-8b2a-363655b95004" points="1119.55 360.75 478.56 360.75 478.56 256.61 481.56 256.61 481.56 357.75 1116.55 357.75 1116.55 256.61 1119.55 256.61 1119.55 360.75"/><path class="b47fb8d0-4e9b-4303-8b2a-363655b95004" d="M1107.87,463.39H478.56V359.25h3V460.39h626.31a8.67,8.67,0,0,0,8.68-8.68V359.25h3v92.46A11.68,11.68,0,0,1,1107.87,463.39Z"/><polygon class="b47fb8d0-4e9b-4303-8b2a-363655b95004" points="480.07 155.47 320.02 155.47 320.02 7.91 323.02 7.91 323.02 152.47 480.07 152.47 480.07 155.47"/><rect class="fbfd110a-3fcb-4e0a-9c77-0ff61ac065af" x="320.07" y="0.01" width="161.6" height="51.32"/><polygon class="b47fb8d0-4e9b-4303-8b2a-363655b95004" points="480.07 258.12 320.02 258.12 320.02 110.55 323.02 110.55 323.02 255.12 480.07 255.12 480.07 258.12"/><polygon class="b47fb8d0-4e9b-4303-8b2a-363655b95004" points="480.07 360.76 320.02 360.76 320.02 213.19 323.02 213.19 323.02 357.76 480.07 357.76 480.07 360.76"/><polygon class="b47fb8d0-4e9b-4303-8b2a-363655b95004" points="480.07 463.39 320.02 463.39 320.02 315.82 323.02 315.82 323.02 460.39 480.07 460.39 480.07 463.39"/><polygon class="b47fb8d0-4e9b-4303-8b2a-363655b95004" points="320.08 155.47 160.03 155.47 160.03 7.91 163.03 7.91 163.03 152.47 320.08 152.47 320.08 155.47"/><rect class="fbfd110a-3fcb-4e0a-9c77-0ff61ac065af" x="160.08" y="0.01" width="161.6" height="51.32"/><polygon class="b47fb8d0-4e9b-4303-8b2a-363655b95004" points="320.08 258.12 160.03 258.12 160.03 110.55 163.03 110.55 163.03 255.12 320.08 255.12 320.08 258.12"/><polygon class="b47fb8d0-4e9b-4303-8b2a-363655b95004" points="320.08 360.76 160.03 360.76 160.03 213.19 163.03 213.19 163.03 357.76 320.08 357.76 320.08 360.76"/><polygon class="b47fb8d0-4e9b-4303-8b2a-363655b95004" points="320.08 463.39 160.03 463.39 160.03 315.82 163.03 315.82 163.03 460.39 320.08 460.39 320.08 463.39"/><rect class="b47fb8d0-4e9b-4303-8b2a-363655b95004" x="320.02" width="3" height="57.54"/><rect class="b47fb8d0-4e9b-4303-8b2a-363655b95004" x="478.57" y="0.01" width="3" height="57.54"/><polygon class="b47fb8d0-4e9b-4303-8b2a-363655b95004" points="160.04 155.47 0 155.47 0 7.91 3 7.91 3 152.47 160.04 152.47 160.04 155.47"/><path class="fbfd110a-3fcb-4e0a-9c77-0ff61ac065af" d="M6,0h155.6a0,0,0,0,1,0,0V51.33a0,0,0,0,1,0,0H0a0,0,0,0,1,0,0V6A6,6,0,0,1,6,0Z"/><polygon class="b47fb8d0-4e9b-4303-8b2a-363655b95004" points="160.04 258.12 0 258.12 0 110.55 3 110.55 3 255.12 160.04 255.12 160.04 258.12"/><polygon class="b47fb8d0-4e9b-4303-8b2a-363655b95004" points="160.04 360.76 0 360.76 0 213.19 3 213.19 3 357.76 160.04 357.76 160.04 360.76"/><path class="b47fb8d0-4e9b-4303-8b2a-363655b95004" d="M160,463.39H10.18A10.19,10.19,0,0,1,0,453.21V315.82H3V453.21a7.19,7.19,0,0,0,7.18,7.18H160Z"/><rect class="b47fb8d0-4e9b-4303-8b2a-363655b95004" x="160.03" y="0.01" width="3" height="57.54"/><path class="b710f804-deec-439b-a6f5-c4be31595004" d="M71.19,13.93a1.13,1.13,0,0,1,.85.36,1.28,1.28,0,0,1,.33.88V27.24a8.18,8.18,0,0,1-1.08,4.2,8.32,8.32,0,0,1-11.22,2.93,7.92,7.92,0,0,1-2.9-2.93,8.27,8.27,0,0,1-1.06-4.2V15.17a1.2,1.2,0,0,1,1.27-1.24,1.22,1.22,0,0,1,.87.36,1.2,1.2,0,0,1,.38.88V27.24a5.77,5.77,0,0,0,.76,3A5.54,5.54,0,0,0,64.25,33a5.72,5.72,0,0,0,2.86-.74,5.79,5.79,0,0,0,2.11-2.06,5.53,5.53,0,0,0,.81-3V15.17a1.36,1.36,0,0,1,.3-.88A1.07,1.07,0,0,1,71.19,13.93Z"/><path class="b710f804-deec-439b-a6f5-c4be31595004" d="M78.94,13.93a1.39,1.39,0,0,1,.59.15,1.25,1.25,0,0,1,.5.4l8.06,12.19-1.07,0,8.15-12.16a1.14,1.14,0,0,1,1-.55,1.38,1.38,0,0,1,.85.36,1.16,1.16,0,0,1,.36.88V34a1.23,1.23,0,0,1-.36.89,1.34,1.34,0,0,1-1.83,0,1.23,1.23,0,0,1-.36-.89V17.49l.76.15L88.45,28.55a1.6,1.6,0,0,1-.44.37,1,1,0,0,1-.53.15,1.17,1.17,0,0,1-.55-.15,1.65,1.65,0,0,1-.45-.37L79.39,17.64l.64-.79V34a1.29,1.29,0,0,1-.33.89,1.13,1.13,0,0,1-.85.36,1.06,1.06,0,0,1-.84-.36,1.33,1.33,0,0,1-.32-.89V15.17a1.24,1.24,0,0,1,.35-.86A1.14,1.14,0,0,1,78.94,13.93Z"/><path class="b710f804-deec-439b-a6f5-c4be31595004" d="M103.44,17.24a1.74,1.74,0,0,1-1.12-.3A1.17,1.17,0,0,1,102,16v-.43a1.09,1.09,0,0,1,.4-.94,1.76,1.76,0,0,1,1.12-.31,1.64,1.64,0,0,1,1.1.31,1.15,1.15,0,0,1,.36.94V16a1.11,1.11,0,0,1-.38.94A1.75,1.75,0,0,1,103.44,17.24ZM104.66,34a1.26,1.26,0,0,1-.35.89,1.24,1.24,0,0,1-1.75,0,1.29,1.29,0,0,1-.33-.89V20.49a1.14,1.14,0,0,1,.35-.86,1.22,1.22,0,0,1,2.08.86Z"/><path class="b710f804-deec-439b-a6f5-c4be31595004" d="M236.77,15.56a1,1,0,0,1,.58.81,1.24,1.24,0,0,1-.28,1,.89.89,0,0,1-.69.42,1.6,1.6,0,0,1-.84-.18,9.26,9.26,0,0,0-2.13-.94,8.12,8.12,0,0,0-2.39-.34,8.31,8.31,0,0,0-3.24.61,7.66,7.66,0,0,0-2.54,1.72,7.84,7.84,0,0,0-1.68,2.64,9.12,9.12,0,0,0-.6,3.38,9.3,9.3,0,0,0,.63,3.53,8,8,0,0,0,1.72,2.65,7.38,7.38,0,0,0,2.55,1.67,9.05,9.05,0,0,0,5.52.24,8.69,8.69,0,0,0,2.16-1,1.4,1.4,0,0,1,.84-.15,1.13,1.13,0,0,1,.72.42,1.26,1.26,0,0,1,.27,1,1,1,0,0,1-.57.76,11.35,11.35,0,0,1-1.71.83,12,12,0,0,1-2,.58,10.41,10.41,0,0,1-2.08.21,11,11,0,0,1-4.07-.75,10.35,10.35,0,0,1-3.39-2.15,10.47,10.47,0,0,1-2.32-3.4,11.25,11.25,0,0,1-.85-4.48,11,11,0,0,1,.81-4.28A10.23,10.23,0,0,1,223.46,17a10.62,10.62,0,0,1,7.56-3,11.1,11.1,0,0,1,3,.42A10.21,10.21,0,0,1,236.77,15.56Z"/><path class="b710f804-deec-439b-a6f5-c4be31595004" d="M242.22,14.15a1.35,1.35,0,0,1,.58.15,1.32,1.32,0,0,1,.5.39l7.93,12-1,0,8-12a1.12,1.12,0,0,1,1-.54,1.29,1.29,0,0,1,.83.36,1.12,1.12,0,0,1,.36.87V33.91a1.23,1.23,0,0,1-1.25,1.23,1.22,1.22,0,0,1-.9-.36,1.19,1.19,0,0,1-.36-.87V17.65l.75.15-7.07,10.75a1.68,1.68,0,0,1-.43.36,1,1,0,0,1-.53.15,1.1,1.1,0,0,1-.54-.15,1.62,1.62,0,0,1-.45-.36l-7-10.75.63-.78V33.91a1.24,1.24,0,0,1-.33.87,1.09,1.09,0,0,1-.84.36,1,1,0,0,1-.82-.36,1.23,1.23,0,0,1-.32-.87V15.38a1.24,1.24,0,0,1,.35-.86A1.12,1.12,0,0,1,242.22,14.15Z"/><path class="b710f804-deec-439b-a6f5-c4be31595004" d="M388.21,14.17a8.56,8.56,0,0,1,3.85.83,7.7,7.7,0,0,1,2.77,2.29,10.51,10.51,0,0,1,1.66,3.37,14.21,14.21,0,0,1,.55,4,13.35,13.35,0,0,1-1,5.25,8.67,8.67,0,0,1-2.93,3.81,8.09,8.09,0,0,1-4.91,1.42h-7.49a1.13,1.13,0,0,1-.85-.36,1.22,1.22,0,0,1-.35-.87V15.37a1.2,1.2,0,0,1,1.2-1.2Zm-.3,18.63a6.08,6.08,0,0,0,3.76-1.1,6.44,6.44,0,0,0,2.13-3,12.11,12.11,0,0,0,.67-4.07,12.6,12.6,0,0,0-.38-3.1,8.11,8.11,0,0,0-1.16-2.62,5.71,5.71,0,0,0-2-1.8,6.27,6.27,0,0,0-3-.66h-6.14l.24-.24V33.1l-.18-.3Z"/><path class="b710f804-deec-439b-a6f5-c4be31595004" d="M402.26,14.14a1.35,1.35,0,0,1,.58.15,1.41,1.41,0,0,1,.5.39l7.93,12-1,0,8-12a1.14,1.14,0,0,1,1-.54,1.33,1.33,0,0,1,.84.36,1.12,1.12,0,0,1,.36.87V33.91a1.19,1.19,0,0,1-.36.87,1.31,1.31,0,0,1-1.8,0,1.19,1.19,0,0,1-.36-.87V17.65l.75.15-7.07,10.75a1.68,1.68,0,0,1-.43.36,1,1,0,0,1-.53.15,1.1,1.1,0,0,1-.54-.15,1.62,1.62,0,0,1-.45-.36l-7-10.75.64-.78V33.91a1.25,1.25,0,0,1-.34.87,1.08,1.08,0,0,1-.83.36,1.05,1.05,0,0,1-.83-.36,1.27,1.27,0,0,1-.31-.87V15.37a1.21,1.21,0,0,1,.34-.85A1.16,1.16,0,0,1,402.26,14.14Z"/></g></g></svg>