<svg xmlns="http://www.w3.org/2000/svg" xmlns:xlink="http://www.w3.org/1999/xlink" viewBox="0 0 379.09 378.48"><defs><style>.cls-1,.cls-11,.cls-9{fill:none;}.cls-2{fill:#6599ff;}.cls-10,.cls-11,.cls-12,.cls-14,.cls-15,.cls-16,.cls-17,.cls-18,.cls-2,.cls-3,.cls-5,.cls-9{stroke:#000;stroke-linejoin:round;}.cls-10,.cls-11,.cls-12,.cls-14,.cls-15,.cls-16,.cls-17,.cls-18,.cls-2,.cls-3,.cls-5{stroke-linecap:round;}.cls-10,.cls-14,.cls-15,.cls-17,.cls-18,.cls-2,.cls-3{stroke-width:0.5px;}.cls-3{fill:#f0eb6b;}.cls-4{clip-path:url(#clip-path);}.cls-5{fill:#fffca0;stroke-width:0.75px;}.cls-6{fill:#a0dbf0;}.cls-7{fill:#4a91cd;}.cls-15,.cls-16,.cls-8{fill:#fff;}.cls-10{fill:#74baed;}.cls-11{stroke-width:2px;}.cls-12{fill:#7b2325;}.cls-13{clip-path:url(#clip-path-2);}.cls-14{fill:#f06b6b;}.cls-17{fill:#f6e003;}.cls-18{fill:#abf680;}</style><clipPath id="clip-path"><path class="cls-1" d="M142.21,261.1c-10.22,3.66-20.58,22.42-24.24,27-6.87,8.84-30.5,37.66-38.13,58.1-3,8.1-6,17-8.48,26.44.24,1,36.91-.23,78.79.13s66.87,0,66.87,0c3.66-22.17,9.13-49.48,9.36-51.69,0-1.07,4.58-19.52,1.22-26.84-4.57-10.22-19.82-17.84-30-22.42C182.16,264.76,158.07,255.46,142.21,261.1Z"/></clipPath><clipPath id="clip-path-2"><path class="cls-1" d="M277.77,225c1.84,3.08-9.65,15.89-15.19,19.82-5.84,4.15-20,7.74-25.14,8.35-8.91,1.09-39.66-2.8-45.62-4.25-4.95-1.11-30.43-11-35.45-13.79-4.3-2.34-22.9-12.68-26.84-19.57-3.65-6.29-7-28.55-2.69-30.41,1.49-.66,7,3.69,9.24,4.81,6,2.81,22.95,10.37,25.48,11.28,3.8,1.43,38.79,10,39.31,10.07s29.27,8.63,37,10.16c5.1,1,17.84,2.56,25.34,3.1C267.45,225,276.75,223.29,277.77,225Z"/></clipPath></defs><title>Suki feedback positivo</title><g id="Layer_2" data-name="Layer 2"><g id="Layer_4" data-name="Layer 4"><g id="Pato"><g id="cola"><path class="cls-2" d="M228.62,372.76c-.72-5.7-1.47-9.65-1.47-9.65s-3.08,4-7.8,9.65Z"/></g><g id="cuerpo"><g id="brazo_izq" data-name="brazo izq"><path class="cls-3" d="M131.25,289.36c-3.2-1.07-41-38.58-43.46-41.17C84.9,245.14,48.45,207.78,39.91,195c-2-2.89-6.1-9.15-7.47-14.33-1.83-6.56-2-19.67-.91-20.28.91-.46,9.14,5,15.7,10.52,4.73,4.12,8.08,8.54,9.46,9.91,6.86,7.32,45.74,51.69,46.05,52.15s43.61,40.56,44.22,42.7c.15.45,4.27,8.23-1.22,13.42C139.79,294.7,131.86,289.67,131.25,289.36Z"/></g><g id="cuerpo-2" data-name="cuerpo"><path class="cls-3" d="M216.81,372.76c3.66-22.09,9.34-49.53,9.57-51.73,0-1.07,4.58-19.52,1.22-26.84-4.57-10.22-19.82-17.84-30-22.42-15.4-7-39.49-16.31-55.35-10.67-10.22,3.66-20.58,22.42-24.24,27-6.87,8.84-30.5,37.66-38.13,58.1-3,8.08-6,17.13-8.5,26.57Z"/></g><g id="detalle"><g class="cls-4"><path class="cls-5" d="M50.7,372.76H169.83c.35-4.9.74-9.43,1.2-13.15,3.66-29.43,27.3-77,19.37-97.44-3.36-8.39-19.22-23.49-31.26-27.45-11.59-3.81-32.79-.46-40.56,4C98,250.58,77,301.81,63.83,331.24c-5.25,11.87-11.51,30.52-16.46,46.87H50.7Z"/></g></g></g><g id="brazo_der" data-name="brazo der"><path class="cls-3" d="M204,313.25c1.37,2,38.27,17.23,38.58,19.06.45,2.29-29.59,30-38.12,38.43-.58.57-1.34,1.26-2.21,2h35.7c13.77-11.81,28.79-27,28-36.48-1.22-14.49-49.41-40.87-51.85-41.18"/></g><path class="cls-6" d="M16.87,241.06s8.43,24-16.35,31.17c0,0,30.15-11.5,38.07,5.36,0,0-2.3-29.88,2.55-32.18C41.14,245.41,21,245.92,16.87,241.06Z"/><path class="cls-7" d="M16.87,241.06l-.49.18.05.16a30.2,30.2,0,0,1,1.3,8.76,22,22,0,0,1-3.25,12c-2.52,3.93-6.83,7.46-14.1,9.57l.14.5.19.49.44-.16c2-.73,10.77-3.64,19.41-3.64a25.66,25.66,0,0,1,10.3,1.88,14,14,0,0,1,7.25,7,.54.54,0,0,0,.61.28.52.52,0,0,0,.38-.55s-.13-1.76-.27-4.46-.27-6.35-.27-10.1a84.78,84.78,0,0,1,.61-11.26,20.31,20.31,0,0,1,.92-4,3.22,3.22,0,0,1,1.27-1.84.54.54,0,0,0,.29-.59.52.52,0,0,0-.52-.4H39.5a100.14,100.14,0,0,1-11.81-.67,37.94,37.94,0,0,1-6.39-1.29,8.81,8.81,0,0,1-4-2.21.52.52,0,0,0-.89.51l.49-.18-.4.34A9.75,9.75,0,0,0,21,243.93c5.82,1.83,14.82,2,18.51,2h1.65v-.52l-.22-.47a4.09,4.09,0,0,0-1.8,2.41,27.67,27.67,0,0,0-1.27,6.85c-.24,2.74-.33,5.8-.33,8.79,0,7.55.55,14.64.55,14.64l.52,0,.47-.22a15.08,15.08,0,0,0-7.78-7.52,26.52,26.52,0,0,0-10.72-2c-10.13,0-20.19,3.85-20.22,3.86a.51.51,0,0,0-.31.65.52.52,0,0,0,.64.34c7.47-2.15,12-5.86,14.69-10a23,23,0,0,0,3.41-12.56,30.88,30.88,0,0,0-1.41-9.27l-.49.17-.4.34Z"/><path class="cls-6" d="M259.06,310.2s19,14.61,19.48,20.37c0,0,17.27-25.24,24.8-26.56,0,0-19.48-3.55-21.7-11.07C281.64,292.94,279,305.78,259.06,310.2Z"/><path class="cls-7" d="M259.06,310.2l-.31.42.81.63c1.82,1.43,6.38,5.1,10.52,9a60.11,60.11,0,0,1,5.49,5.82c1.46,1.82,2.39,3.48,2.45,4.52a.52.52,0,0,0,.39.46.5.5,0,0,0,.56-.21l.76-1.08c1.69-2.42,6-8.49,10.79-14.08a79.35,79.35,0,0,1,7.11-7.52c2.26-2,4.35-3.42,5.8-3.66a.52.52,0,0,0,.43-.51.53.53,0,0,0-.43-.52l-.83-.16a69.69,69.69,0,0,1-11-3.25,28.87,28.87,0,0,1-6.09-3.19,8.34,8.34,0,0,1-3.35-4.1.52.52,0,0,0-.52-.37.52.52,0,0,0-.49.41v0a17.93,17.93,0,0,1-4,7.06c-3.14,3.6-8.63,7.65-18.18,9.77a.52.52,0,0,0-.2.93l.31-.42.12.51c10.06-2.23,15.82-6.62,19-10.47a18,18,0,0,0,3.93-7.2l-.51-.1-.5.14c.62,2.08,2.36,3.77,4.54,5.2A44.24,44.24,0,0,0,296.91,303c3.57,1,6.32,1.53,6.33,1.53l.1-.51-.09-.52a9.27,9.27,0,0,0-3.44,1.61c-4.27,2.94-9.66,9.21-14,14.77s-7.67,10.4-7.68,10.4l.43.3.52,0a6.7,6.7,0,0,0-1-2.75c-2-3.44-6.69-7.9-10.84-11.54s-7.8-6.45-7.81-6.45l-.32.41.12.51Z"/></g><g id="patita"><g id="cabeza"><g id="cabeza-2" data-name="cabeza"><path class="cls-3" d="M324.47,212.33A124.43,124.43,0,0,1,165,286.57c-62-22.66-95-90.19-72.84-152.4C115.8,67.58,190.51,33.82,256.32,59.3,317.44,83.06,347.14,150.74,324.47,212.33Z"/></g><g id="ojos"><g id="ojos-2" data-name="ojos"><path class="cls-8" d="M268.67,217.17c-8.44,2.35-18.29-9.38-26.42-12.82-10.94-4.53-28.57-10.65-34.35-21-3.91-6.88.45-13.68,4.36-20.56,3.13-5.47,6.55-9.89,12.8-11.46,11.1-2.81,27.2,3.6,36.58,10,8.91,6.09,19.69,18.44,21.57,29.23.47,3.12-.94,7.66-2.19,10.63C278.67,206.85,274.61,215.76,268.67,217.17Z"/><path d="M279.61,200.76c1.25-2.81,2.35-7,1.88-9.69l3.44-.63c.62,3.6-.94,8.44-2.35,11.57Z"/><path d="M281.49,190.91c-1.72-10.16-11.73-22.35-20.64-28.45l1.57-2.19c9.06,6.26,20.47,18.76,22.51,30Z"/><path class="cls-9" d="M281.49,190.91l3.44-.62"/><path d="M260.85,162.46c-9.22-6.25-24.85-13.13-35.64-10.31l-.31-1.41c11.26-2.81,28,3,37.52,9.53Z"/><path class="cls-9" d="M260.85,162.46l1.57-2.19"/><path d="M242.57,204c8.28,3.44,18.13,14.69,25.94,12.35l.47,1.88c-9.22,2.34-18.91-10-26.88-13.29Z"/><path class="cls-9" d="M242.41,204l-.31.94"/><path d="M268.51,216.39c5.32-1.41,8.6-10.32,11.1-15.79l3,1.25c-2.5,5.63-7.35,14.54-13.6,16.42Z"/><path class="cls-9" d="M268.51,216.39l.47,1.88"/><path class="cls-8" d="M97.82,159c6.1,6.72,21.42-.15,30.32,1.72,8.6,1.72,22.41,5.67,30.54,2.7,6.88-2.5,9.34-15.57,10.28-19.62s2.8-8.4,0-13.4c-5.94-10.79-24.85-16.73-37-17.2-9.07-.47-22.51,3.13-28.92,9.7-3.13,3.12-4.69,9.22-5.47,13.59C96.26,143.08,93.44,154,97.82,159Z"/><path d="M96.1,136.2c.78-4.37,2.35-10.94,5.78-14.54l2.51,2.35c-2.82,2.81-4.38,8.6-5.16,12.82Z"/><path d="M101.73,121.51c7-6.88,20.94-10.16,30.32-9.85l-.15,2.66c-8.91-.31-21.57,3.44-27.67,9.69Z"/><path class="cls-9" d="M101.73,121.66l2.5,2.35"/><path d="M131.9,112c12.5.47,31.57,7.19,37.67,18.14l-1.25.62c-5.63-10.47-24.39-15.79-36.42-16.26Z"/><path class="cls-9" d="M132.05,111.82l-.15,2.65"/><path d="M128.3,161.37c-8.75-1.72-24.07,5.47-31-1.57l1.41-1.4c5.47,6.41,20.63,0,29.7,1.87Z"/><path class="cls-9" d="M128.3,161.21l.16-.94"/><path d="M97.51,159.49c-4.85-5.47-2.66-16.88-1.41-23.44l3.13.62c-1.41,6.72-4.69,17.2-.47,21.57Z"/><path class="cls-9" d="M97.35,159.65l1.41-1.41"/><path d="M281.49,199.82c.47.16,3,2.66,5.47,2.19l.31,1.72a16.84,16.84,0,0,1-6.56-.78Z"/><path d="M287,202c2.66-.47,5.31-3.44,5.47-3.6l.62.79a10.28,10.28,0,0,1-5.78,4.53Z"/><path class="cls-9" d="M287,202l.31,1.72"/><path d="M283.05,188.88c.78.16,2.5,1.87,5.63.78l.62,1.72a22.49,22.49,0,0,1-6.09.94Z"/><path class="cls-9" d="M283.05,188.88l.16,3.44"/><path d="M288.68,189.66a14.08,14.08,0,0,0,7.34-5.31l.47.62c.16-.16-1.56,4.38-7.19,6.41Z"/><path class="cls-9" d="M288.68,189.66l.62,1.72"/><path d="M279.61,200.76c1.25-2.81,2.35-7,1.88-9.69l3.44-.63c.62,3.6-.94,8.44-2.35,11.57Z"/><path class="cls-9" d="M279.61,200.76l3,1.25"/><path d="M96.1,137.3a72.85,72.85,0,0,1-3.28-7l1.72-.62c1.09,3,4.22,5.94,4.37,6.09Z"/><path d="M92.82,130.26a21.26,21.26,0,0,1-.63-6.88l.63-.15a60.45,60.45,0,0,0,1.72,6.41Z"/><path class="cls-9" d="M92.82,130.26l1.72-.62"/><path d="M102.35,124.32c.47.16-2.81-1.25-4.37-3l1.4-1.09c.79,1.25,3.91.94,4.38,1.09Z"/><path class="cls-9" d="M102.35,124.48l1.41-3.13"/><path d="M97.82,121.35c-2.66-3.44-1.25-10.47-1.25-10.31l.78-.16c0,.16-.31,6.72,2,9.38Z"/><path class="cls-9" d="M98,121.35l1.4-1.09"/><path d="M96.1,136.2c.78-4.37,2.35-10.94,5.78-14.54l2.51,2.35c-2.82,2.81-4.38,8.6-5.16,12.82Z"/><path class="cls-9" d="M96.1,136.2l3.13.63"/></g><g id="pupilas_2" data-name="pupilas 2"><path class="cls-10" d="M259,185c-2,5.94-8.13,9.53-14.07,7.66s-8.75-8.45-6.88-14.38c2-5.94,8.13-9.54,14.07-7.66A11.14,11.14,0,0,1,259,185Z"/><path class="cls-10" d="M150.18,145.92a10.86,10.86,0,1,1-7-13.44A10.71,10.71,0,0,1,150.18,145.92Z"/></g></g><g id="cejas"><path class="cls-11" d="M236.16,84.62s15.16-4.22,37.67,6.72c24.54,11.88,30.95,28,30.95,28"/><path class="cls-11" d="M188,67.58s-4.06-6.1-20.79-8.91"/></g><g id="boca"><g id="boca-2" data-name="boca"><path class="cls-12" d="M277.77,225c1.84,3.08-9.65,15.89-15.19,19.82-5.84,4.15-20,7.74-25.14,8.35-8.91,1.09-39.66-2.8-45.62-4.25-4.95-1.11-30.43-11-35.45-13.79-4.3-2.34-22.9-12.68-26.84-19.57-3.65-6.29-7-28.55-2.69-30.41,1.49-.66,7,3.69,9.24,4.81,6,2.81,22.95,10.37,25.48,11.28,3.8,1.43,38.79,10,39.31,10.07s29.27,8.63,37,10.16c5.1,1,17.84,2.56,25.34,3.1C267.45,225,276.75,223.29,277.77,225Z"/></g><g id="lengua"><g class="cls-13"><path class="cls-14" d="M235.79,262.21c-9.75,3.24-24.7,3.27-34.32-.26-4.82-1.76-13.27-5.06-13.62-10.16-.24-3.58,4.87-7.46,8.08-9.27,6.24-3.39,16.62-3,23.73-2.52,5.64.3,13.56,1.46,18.59,4.22,3.56,1.92,10.36,5.31,10.09,9.46C248,258.23,240.12,260.89,235.79,262.21Z"/></g></g><g id="dientes"><g class="cls-13"><path class="cls-15" d="M321.5,194.09c-10.95-31.23-59-52.67-90.27-63.6-31-10.88-80.25-22.23-109.25-6.76C108,131.29,92,167.4,92,167.4s63.4,38.73,105.94,52.43c42.27,13.64,111.5,22.83,115.59,19.29C315.18,237.81,326.13,207.1,321.5,194.09Z"/></g><g class="cls-13"><path class="cls-16" d="M59.16,275.42c11,31.11,58.88,52.66,90.15,63.58,31,10.88,81.39,23.95,109.37,6.79,24.24-14.78,39.44-85.54,39.46-85.67s-73.43,5.88-115.43-5C139.3,243.84,80.85,199.29,76,201.86,72.94,203.57,51.71,254,59.16,275.42Z"/></g></g></g><g id="El_pico" data-name="El pico"><path class="cls-17" d="M146.59,184.66c-9.38.15-31.11-4.22-31.26-4.22A261.7,261.7,0,0,1,91.72,198c-7,4.53-13.28,7.81-14.22,8.44-.78.62-13.29,3.59-14.22,9.06-4.38,24.23,53.77,30.8,66.58,36.42,13.6,5.94,52.21,36.89,76.44,26.58,5.63-2.35,10.32-14.07,10.94-15.48.78-1.41,3-10.16,5.94-20.48,3.44-11.56,6.88-23,6.88-23,0-.16-23.45-11-31.89-17.82-7-5.79-9.69-19.23-19.85-22.83C167.54,175.12,156.44,184.35,146.59,184.66Z"/><path d="M177.7,186.07c-.16.15-1.41,3.75-1.25,4.84h-2.82c0-2,2.5-5.47,2.5-5.31Z"/><path d="M176.29,191.07c0,1.4,1.56,5.78,1.56,5.94l-1.09.47s-3-3.91-3.13-6.41Z"/><path class="cls-9" d="M176.45,191.07h-2.82"/><path d="M170.19,184.19s-2.19,3.44-3.75,4.53L165.19,187a36,36,0,0,0,4.07-3.75Z"/><path class="cls-9" d="M170.19,184.19l-.93-.94"/><path d="M166.29,188.88c-1.88,1.25-6.73,2-6.73,2l-.31-.94a40.05,40.05,0,0,0,5.94-3Z"/><path class="cls-9" d="M166.44,188.72,165.19,187"/></g></g><g id="mechon"><path class="cls-3" d="M257.82,49.37c.2-10.68,7.23-24.3,15.56-32.18C284.74,6.62,306.64,1.33,318.7.43,326.24-.21,336.8.76,349,5.5,363.25,11,379,24.93,378.84,25s-13.49-2.09-25.21,3.12A33.49,33.49,0,0,0,341.07,38.8c-.07.22,7.17,6,10.56,16A61.06,61.06,0,0,1,352.71,88S346.17,76.4,338.87,73.5c-6.79-2.63-16.09.74-18.55,1.16-2.74.58-14,6.06-20.1,6.65-8.67.89-22.71,1.78-30.07-3.59C262.58,72.28,257.59,58.64,257.82,49.37Z"/></g><g id="cole"><path class="cls-18" d="M245.25,54.68c-.25-1.48,2.67-8.06,4.3-10.37,1.23-1.73,4.72-5.58,5.84-5.82,4-.89,23.88,14.44,27.2,17,3.69,2.87,27.07,19.73,26.92,24.47,0,1.27-3.93,5.7-6.34,8.24-2.33,2.33-6.4,5.76-7.74,5.94-4,.54-23.93-13.88-27.12-16.47S245.87,58.83,245.25,54.68Z"/></g></g></g></g></svg>