<svg xmlns="http://www.w3.org/2000/svg" xmlns:xlink="http://www.w3.org/1999/xlink" viewBox="0 0 331.27 328.95"><defs><style>.cls-1,.cls-13,.cls-16{fill:none;}.cls-2,.cls-3,.cls-4{fill:#6599ff;}.cls-10,.cls-11,.cls-13,.cls-14,.cls-15,.cls-16,.cls-2,.cls-3,.cls-4,.cls-6,.cls-7,.cls-9{stroke:#000;}.cls-2{stroke-miterlimit:10;}.cls-10,.cls-15,.cls-2,.cls-3,.cls-6,.cls-9{stroke-width:0.5px;}.cls-10,.cls-11,.cls-14,.cls-15,.cls-16,.cls-3,.cls-4,.cls-6,.cls-7,.cls-9{stroke-linecap:round;}.cls-10,.cls-11,.cls-13,.cls-14,.cls-15,.cls-16,.cls-3,.cls-4,.cls-6,.cls-7,.cls-9{stroke-linejoin:round;}.cls-4{stroke-width:0.75px;}.cls-5{clip-path:url(#clip-path);}.cls-6{fill:#f5ece3;}.cls-7{fill:#7b2325;}.cls-8{clip-path:url(#clip-path-2);}.cls-9{fill:#f06b6b;}.cls-10,.cls-11,.cls-12{fill:#fff;}.cls-14{fill:#114283;}.cls-15{fill:#ff9531;}.cls-16{stroke-width:3px;}.cls-17{fill:#a0dbf0;}.cls-18{fill:#4a91cd;}</style><clipPath id="clip-path"><path class="cls-1" d="M142.06,211.69c-10.22,3.66-20.59,22.42-24.25,27-6.86,8.85-30.49,37.67-38.12,58.1-3,8.11-6,17-8.48,26.44.24,1,36.9-.22,78.79.13s66.87,0,66.87,0c3.65-22.17,9.13-49.48,9.36-51.69,0-1.07,4.57-19.52,1.22-26.84-4.57-10.21-19.82-17.84-30-22.41C182,215.35,157.92,206.05,142.06,211.69Z"/></clipPath><clipPath id="clip-path-2"><path class="cls-1" d="M284.48,160.15c2.74,3-7.32,20-12.66,25.62-5.64,5.95-20.73,13.11-26.38,14.94-9.76,3.21-45.13,5.65-52.15,5.34-5.79-.15-36.59-5.64-42.85-7.62-5.33-1.68-28.51-9.15-34.46-16-5.49-6.26-14.18-30.5-9.76-33.55,1.53-1.07,8.7,2.59,11.44,3.35,7.32,1.83,28.06,6.56,31.11,7,4.57.76,45.74,2.59,46.35,2.59s34.77,3.2,43.77,3.2c5.94,0,20.58-1.07,29.12-2.13C272.89,162.44,283,158.48,284.48,160.15Z"/></clipPath></defs><title>kuno feedback positivo</title><g id="Layer_2" data-name="Layer 2"><g id="Layer_4" data-name="Layer 4"><g id="Pato"><g id="brazo_izq" data-name="brazo izq"><path class="cls-2" d="M115.37,237.16c-3.2-1.07-41-38.58-43.46-41.17C69,192.94,32.57,155.58,24,142.77c-2-2.9-6.1-9.15-7.47-14.33-1.83-6.56-2-19.67-.91-20.28.91-.46,9.15,5,15.7,10.52,4.73,4.11,8.09,8.54,9.46,9.91,6.86,7.32,45.74,51.69,46.05,52.15s43.61,40.56,44.22,42.69c.15.46,4.27,8.24-1.22,13.42C123.91,242.49,116,237.46,115.37,237.16Z"/></g><g id="cola"><path class="cls-3" d="M228.46,323.35c-.72-5.7-1.47-9.64-1.47-9.64s-3.07,4-7.79,9.64Z"/></g><g id="cuerpo"><g id="cuerpo-2" data-name="cuerpo"><path class="cls-4" d="M216.66,323.35c3.66-22.09,9.34-49.53,9.57-51.73,0-1.07,4.57-19.52,1.22-26.84-4.57-10.21-19.82-17.84-30-22.41-15.4-7-39.49-16.32-55.35-10.68-10.22,3.66-20.59,22.42-24.25,27-6.86,8.85-30.49,37.67-38.12,58.1-3,8.09-6,17.13-8.5,26.57Z"/></g><g id="detalle"><g class="cls-5"><path class="cls-6" d="M50.55,323.35H169.68c.34-4.9.74-9.43,1.2-13.15,3.66-29.43,27.29-77,19.36-97.44-3.35-8.39-19.21-23.48-31.26-27.45-11.58-3.81-32.78-.45-40.56,4-20.58,11.89-41.63,63.13-54.74,92.56-5.26,11.86-11.51,30.51-16.46,46.86h3.33Z"/></g></g></g><g id="cabeza"><g id="pelo_extIzq" data-name="pelo extIzq"><path class="cls-2" d="M119.8,144.75c2.44,9-1.38,28.21-3.82,31.11-2,2.44-17.08,6.71-24.55,8.84-10.37,2.9-35.37,7.47-35.37,7.47S64.75,159.85,73,148.41c7-9.61,24.55-26.23,30.5-25.31C107.44,123.71,117.51,136.82,119.8,144.75Z"/></g><g id="cabeza-2" data-name="cabeza"><path class="cls-3" d="M316.65,76.29c18.61,50.62-6.86,127.47-20.12,140.74-12.36,12.2-40.72,39.19-129.77,19.82C92,220.54,80.45,193.55,73.9,177.54c-8.69-21.35.45-105.83,39.64-142.43,35.38-32.93,80.21-43,130.23-28.21C281.58,18,303.54,40.3,316.65,76.29Z"/></g><g id="pelo_extDer" data-name="pelo extDer"><path class="cls-2" d="M265.27,195.53c1.06,4.57,13.11,16.32,20.12,22,8.39,6.86,31.42,17.84,31.42,17.84s1.52-33.4-2.9-46.82c-3.66-11.28-14.33-32.17-21.35-33.39"/></g><g id="boca"><g id="boca-2" data-name="boca"><path class="cls-7" d="M284.48,160.15c2.74,3-7.32,20-12.66,25.62-5.64,5.95-20.73,13.11-26.38,14.94-9.76,3.21-45.13,5.65-52.15,5.34-5.79-.15-36.59-5.64-42.85-7.62-5.33-1.68-28.51-9.15-34.46-16-5.49-6.26-14.18-30.5-9.76-33.55,1.53-1.07,8.7,2.59,11.44,3.35,7.32,1.83,28.06,6.56,31.11,7,4.57.76,45.74,2.59,46.35,2.59s34.77,3.2,43.77,3.2c5.94,0,20.58-1.07,29.12-2.13C272.89,162.44,283,158.48,284.48,160.15Z"/></g><g id="lengua"><g class="cls-8"><path class="cls-9" d="M245.6,211.24c-10.22,5.79-27,9.14-38.58,7.31-5.8-.91-16-2.74-17.54-8.38-1.07-4,3.81-9.46,7-12.2,6.25-5.19,18-7,26.07-8.08,6.4-.92,15.55-1.38,21.81.61,4.42,1.37,12.8,3.66,13.41,8.38C258.4,204.07,250.17,208.8,245.6,211.24Z"/></g></g><g id="dientes"><g class="cls-8"><path class="cls-10" d="M326.72,115.78c-19.22-32.63-77.92-46-115.43-51.39-37.21-5.34-95-7.17-124.13,16.62-14,11.59-23.94,55.66-23.94,55.66.16,0,79.75,29.43,130.53,35.38,50.47,5.94,130.22.91,134-4C329.31,166.25,334.8,129.35,326.72,115.78Z"/></g><g class="cls-8"><path class="cls-11" d="M50.26,265.22c19.22,32.47,77.77,46,115.28,51.38,37.21,5.34,96.68,8.85,124.28-16.62,23.94-22,25.31-104.76,25.31-104.91s-81.12,22.87-130.68,20C133.21,212,57.73,174.94,52.85,178.91,49.8,181.5,37.15,242.8,50.26,265.22Z"/></g></g></g><g id="ojos"><g id="ojos-2" data-name="ojos"><path class="cls-12" d="M234.16,151.77c-7.78,3.81-20.43,3.5-29,1.67-9.61-2.13-23.79-7-29-15.4-3.5-5.79-3.5-15.86-1.67-22.41,1.52-5.19,5.79-12.35,10.67-14.95C194.06,96,209,98.24,218.3,101.9c9.76,3.82,23.18,13,26.69,22.88,1.67,5,.3,12.65-2,17.38C241.33,145.67,237.67,149.94,234.16,151.77Z"/><path d="M241.94,141.55c2.13-4.58,3.81-11.74,2.13-16.32l2.14-.76c1.83,5.34.45,13.42-1.83,18.3Z"/><path d="M243.92,125.23c-3.2-9.6-16.47-18.29-26.08-22.11l.92-2.44c9.91,4,23.63,13.42,27.29,23.79Z"/><path class="cls-13" d="M243.92,125.23l2.13-.76"/><path d="M217.84,103.12c-9.15-3.66-23.78-5.94-32-1.37l-1.22-2.29c9.3-4.72,24.7-2.44,34.16,1.22Z"/><path class="cls-13" d="M217.84,103.12l.92-2.44"/><path d="M185.82,101.6c-4.42,2.44-8.84,9-10.37,14.18l-1.67-.46c1.67-5.49,5.79-13,11-15.86Z"/><path class="cls-13" d="M186,101.75l-1.22-2.29"/><path d="M233.7,151c3.36-1.67,6.56-6.1,8.08-9.45l2.6,1.22c-1.83,3.66-6.26,7.78-9.92,9.61Z"/><path class="cls-13" d="M233.85,151l.61,1.38"/><path class="cls-12" d="M78.93,123.1c4.88,5.64,15.86,8.08,23.33,8.54,8.54.61,21.19-.46,27.6-6.1,4.27-3.81,6.56-12.05,7.17-17.69s.61-14.49-2.9-18.91c-5.49-7-19.37-10.52-28.36-9.45C96,80.56,83.05,88.33,77.86,96.72c-2.29,3.51-2.44,9.61-2.29,13.72S76.34,120.05,78.93,123.1Z"/><path d="M74.2,110.59c-.3-4.11.31-10.52,2.59-14.33l2,1.22c-2,3.2-2,8.85-1.83,13Z"/><path d="M76.79,96c5.49-8.54,18.76-16.62,28.82-17.84l.31,2.59c-9.45,1.07-22.11,8.54-27.14,16.62Z"/><path class="cls-13" d="M76.79,96.11l2,1.22"/><path d="M105.61,78.42c9.31-1.07,23.64,2.59,29.59,9.91l-2,1.53c-5.18-6.71-18.6-10.07-27.29-9Z"/><path class="cls-13" d="M105.61,78.27l.31,2.59"/><path d="M135.2,88.18c3.81,4.88,3.35,13.88,2.74,19.67l-1.68-.15c.61-5.64.31-14-3-18Z"/><path class="cls-13" d="M135.2,88.18l-2,1.52"/><path d="M78.47,123.4c-2.74-3.2-4.12-9-4.27-13l2.75-.15c.15,4,.15,9.45,2.59,12.2Z"/><path class="cls-13" d="M78.32,123.4l1.22-.91"/><path d="M241.94,141.55c2.13-4.58,3.81-11.74,2.13-16.32l2.14-.76c1.83,5.34.45,13.42-1.83,18.3Z"/><path d="M74.2,110.59c-.3-4.11.31-10.52,2.59-14.33l2,1.22c-2,3.2-2,8.85-1.83,13Z"/></g><g id="pupilas"><path class="cls-14" d="M226.69,131.64c-1.22,6.86-7.32,11.59-14.18,10.52s-11.13-7.62-10.07-14.49c1.22-6.86,7.32-11.59,14.18-10.52C223.33,118.22,227.76,124.78,226.69,131.64Z"/><path class="cls-14" d="M125.13,110.14a12.21,12.21,0,1,1-10.06-13.88A12.19,12.19,0,0,1,125.13,110.14Z"/></g></g><g id="El_pico" data-name="El pico"><path class="cls-15" d="M123.3,140.48c-7.47,1.37-25,0-25,0s-9.75,14.64-24.7,22.87c-8.08,4.43-15.09,4.27-17.38,5-2.14.61-14.18.3-15.86,5.49-6.56,18.9,44.07,22.41,55.51,27,12.8,5,44.52,26.07,66.33,20.12,7.32-2,15.09-12.19,17.53-15.09,2.59-3.2,5.34-11,11.74-21.65,7.17-11.75,15.25-22.57,15.25-22.72-.15-.16-24.24-7-33.39-12.51-7.78-4.42-13.42-17.69-22.57-19.21S131.84,139,123.3,140.48Z"/><path d="M149.83,136.52c0,.15-1.82,4-1.67,5.33h-2.75c.16-2.44,3.05-6.1,3.05-5.94Z"/><path d="M148.16,141.85c-.15,1.38,1.52,5.49,1.52,5.65l-1.06.45s-3.05-3.66-3.21-6.1Z"/><path class="cls-13" d="M148.16,141.85h-2.75"/><path d="M143.43,135.45s-2.13,3.81-3.66,5l-1.07-1.37a36,36,0,0,0,4-4.42Z"/><path class="cls-13" d="M143.58,135.45l-.91-.76"/><path d="M139.92,140.48c-1.67,1.37-6.4,3.05-6.4,3.05l-.31-.61s4.12-2.59,5.65-3.81Z"/><path class="cls-13" d="M139.92,140.48l-1.06-1.37"/></g><g id="cejas"><path class="cls-16" d="M188,43.5s16.62-7,38.42-1.83C248.65,47,260.69,61,260.69,61"/><path class="cls-16" d="M148.77,40.91a42.63,42.63,0,0,0-25.62-14"/></g></g><g id="brazo_der" data-name="brazo der"><path class="cls-2" d="M203.81,263.84c1.38,2,38.28,17.23,38.58,19.06.46,2.29-29.58,30-38.12,38.43-.57.57-1.34,1.26-2.2,2h35.7c13.77-11.8,28.79-27,28-36.48-1.22-14.49-49.4-40.87-51.84-41.17"/></g><path class="cls-17" d="M16.87,189.55s8.43,24-16.35,31.16c0,0,30.15-11.49,38.07,5.37,0,0-2.3-29.89,2.55-32.19C41.14,193.89,21,194.4,16.87,189.55Z"/><path class="cls-18" d="M16.87,189.55l-.49.17.05.17a30.1,30.1,0,0,1,1.3,8.75,22,22,0,0,1-3.25,12c-2.52,3.93-6.83,7.47-14.1,9.57l.14.5.19.49.44-.16c2-.72,10.77-3.63,19.41-3.63a25.66,25.66,0,0,1,10.3,1.87,14,14,0,0,1,7.25,7,.52.52,0,0,0,1-.26s-.13-1.76-.27-4.47-.27-6.34-.27-10.1a84.53,84.53,0,0,1,.61-11.25,20.43,20.43,0,0,1,.92-4,3.22,3.22,0,0,1,1.27-1.84.53.53,0,0,0,.29-.59.52.52,0,0,0-.52-.4H39.5a98,98,0,0,1-11.81-.67,37.94,37.94,0,0,1-6.39-1.29,8.81,8.81,0,0,1-4-2.21.52.52,0,0,0-.89.51l.49-.17-.4.33A9.76,9.76,0,0,0,21,192.42c5.82,1.82,14.82,2,18.51,2,1,0,1.65,0,1.65,0v-.52l-.22-.47a4.09,4.09,0,0,0-1.8,2.41,27.76,27.76,0,0,0-1.27,6.85c-.24,2.74-.33,5.8-.33,8.79,0,7.56.55,14.64.55,14.65l.52,0,.47-.22a15.06,15.06,0,0,0-7.78-7.53,26.51,26.51,0,0,0-10.72-2c-10.13,0-20.19,3.85-20.22,3.86a.51.51,0,0,0-.31.65.52.52,0,0,0,.64.33c7.47-2.15,12-5.85,14.69-10a23.1,23.1,0,0,0,3.41-12.57,30.88,30.88,0,0,0-1.41-9.27l-.49.18-.4.33Z"/><path class="cls-17" d="M259.06,258.69s19,14.61,19.48,20.36c0,0,17.27-25.23,24.8-26.56,0,0-19.48-3.54-21.7-11.07C281.64,241.42,279,254.26,259.06,258.69Z"/><path class="cls-18" d="M259.06,258.69l-.31.41.81.64c1.82,1.43,6.38,5.09,10.52,9a60.08,60.08,0,0,1,5.49,5.81c1.46,1.82,2.39,3.49,2.45,4.52a.52.52,0,0,0,1,.26s.27-.39.76-1.09c1.69-2.41,6-8.48,10.79-14.08a78,78,0,0,1,7.11-7.51c2.26-2.05,4.35-3.43,5.8-3.67a.52.52,0,0,0,.43-.51.52.52,0,0,0-.43-.51l-.83-.17a68.61,68.61,0,0,1-11-3.25,28.87,28.87,0,0,1-6.09-3.19,8.34,8.34,0,0,1-3.35-4.1.52.52,0,0,0-1,0v0a18,18,0,0,1-4,7.07C274,252,268.5,256.05,259,258.18a.53.53,0,0,0-.4.39.54.54,0,0,0,.2.53l.31-.41.12.51c10.06-2.24,15.82-6.62,19-10.47a18.08,18.08,0,0,0,3.93-7.2l-.51-.11-.5.15c.62,2.07,2.36,3.77,4.54,5.19a43.88,43.88,0,0,0,11.23,4.71c3.57,1,6.32,1.53,6.33,1.53l.1-.51-.09-.51a9.23,9.23,0,0,0-3.44,1.6c-4.27,2.94-9.66,9.21-14,14.77s-7.67,10.4-7.68,10.41l.43.29.52,0a6.75,6.75,0,0,0-1-2.75c-2-3.44-6.69-7.89-10.84-11.54s-7.8-6.44-7.81-6.45l-.32.42.12.51Z"/></g></g></g></svg>