<svg xmlns="http://www.w3.org/2000/svg" xmlns:xlink="http://www.w3.org/1999/xlink" viewBox="0 0 369.6 369.01"><defs><style>.cls-1,.cls-11,.cls-9{fill:none;}.cls-2{fill:#6599ff;}.cls-10,.cls-11,.cls-12,.cls-14,.cls-15,.cls-16,.cls-17,.cls-18,.cls-2,.cls-3,.cls-5,.cls-9{stroke:#000;stroke-linejoin:round;}.cls-10,.cls-11,.cls-12,.cls-14,.cls-15,.cls-16,.cls-17,.cls-18,.cls-2,.cls-3,.cls-5{stroke-linecap:round;}.cls-10,.cls-14,.cls-15,.cls-17,.cls-18,.cls-2,.cls-3{stroke-width:0.5px;}.cls-3{fill:#f0eb6b;}.cls-4{clip-path:url(#clip-path);}.cls-5{fill:#fffca0;stroke-width:0.75px;}.cls-6{fill:#a0dbf0;}.cls-7{fill:#4a91cd;}.cls-15,.cls-16,.cls-8{fill:#fff;}.cls-10{fill:#74baed;}.cls-11{stroke-width:2px;}.cls-12{fill:#7b2325;}.cls-13{clip-path:url(#clip-path-2);}.cls-14{fill:#f06b6b;}.cls-17{fill:#f6e003;}.cls-18{fill:#abf680;}</style><clipPath id="clip-path"><path class="cls-1" d="M231,254.56c10,3.57,20.07,21.86,23.64,26.32,6.69,8.62,29.73,36.72,37.16,56.64,3,7.9,5.83,16.54,8.27,25.77-.23,1-36-.21-76.81.13s-65.2,0-65.2,0c-3.56-21.61-8.89-48.23-9.12-50.39,0-1-4.46-19-1.19-26.17,4.46-10,19.32-17.39,29.29-21.85C192,258.13,215.49,249.06,231,254.56Z"/></clipPath><clipPath id="clip-path-2"><path class="cls-1" d="M98.79,219.36c-1.8,3,9.41,15.49,14.8,19.32,5.7,4,19.5,7.54,24.52,8.14,8.69,1.07,38.66-2.73,44.48-4.14,4.82-1.09,29.66-10.76,34.56-13.45,4.18-2.28,22.33-12.35,26.16-19.07,3.56-6.13,6.83-27.84,2.63-29.66-1.45-.64-6.84,3.61-9,4.7-5.82,2.73-22.37,10.11-24.85,11-3.7,1.4-37.81,9.72-38.32,9.82s-28.53,8.42-36.06,9.9c-5,1-17.38,2.51-24.69,3C108.85,219.36,99.78,217.7,98.79,219.36Z"/></clipPath></defs><title>Suki feedback positivo_1</title><g id="Layer_2" data-name="Layer 2"><g id="Layer_4" data-name="Layer 4"><g id="Pato"><g id="cola"><path class="cls-2" d="M146.71,363.42c.7-5.55,1.43-9.4,1.43-9.4s3,3.94,7.6,9.4Z"/></g><g id="cuerpo"><g id="brazo_izq" data-name="brazo izq"><path class="cls-3" d="M241.64,282.11c3.12-1,40-37.61,42.36-40.13,2.83-3,38.36-39.4,46.69-51.89,1.93-2.82,5.94-8.92,7.28-14,1.78-6.39,1.93-19.18.89-19.77s-8.92,4.9-15.31,10.25c-4.61,4-7.88,8.33-9.22,9.67-6.69,7.13-44.6,50.39-44.89,50.84-.45.45-42.52,39.54-43.12,41.63-.15.44-4.16,8,1.19,13.08C233.31,287.32,241,282.41,241.64,282.11Z"/></g><g id="cuerpo-2" data-name="cuerpo"><path class="cls-3" d="M158.22,363.42c-3.57-21.54-9.11-48.29-9.33-50.43,0-1-4.46-19-1.19-26.17,4.46-10,19.32-17.39,29.29-21.85,15-6.84,38.5-15.91,54-10.41,10,3.57,20.07,21.86,23.64,26.32,6.69,8.62,29.73,36.72,37.16,56.64,2.95,7.88,5.85,16.7,8.29,25.9Z"/></g><g id="detalle"><g class="cls-4"><path class="cls-5" d="M320.16,363.42H204c-.34-4.78-.72-9.19-1.17-12.82-3.57-28.69-26.61-75.08-18.88-95,3.27-8.17,18.73-22.89,30.48-26.76,11.3-3.71,32-.44,39.54,3.87,20.07,11.59,40.59,61.55,53.37,90.24,5.13,11.57,11.23,29.75,16.05,45.69h-3.25Z"/></g></g></g><g id="brazo_der" data-name="brazo der"><path class="cls-3" d="M160.52,305.41c-1.33,1.93-37.31,16.79-37.61,18.58-.44,2.23,28.84,29.28,37.17,37.46.55.56,1.3,1.23,2.15,2H127.42c-13.42-11.51-28.07-26.31-27.25-35.57,1.19-14.12,48.16-39.84,50.54-40.14"/></g><path class="cls-6" d="M353.15,235s-8.22,23.41,15.94,30.38c0,0-29.39-11.2-37.11,5.23,0,0,2.24-29.14-2.49-31.38C329.49,239.26,349.16,239.76,353.15,235Z"/><path class="cls-7" d="M353.15,235l.48.17-.06.16a30,30,0,0,0-1.26,8.54,21.56,21.56,0,0,0,3.17,11.7c2.46,3.82,6.66,7.27,13.75,9.32l-.14.49-.18.48-.43-.16c-2-.7-10.5-3.54-18.93-3.54a25,25,0,0,0-10,1.83,13.63,13.63,0,0,0-7.07,6.84.51.51,0,0,1-1-.26s.13-1.71.27-4.35.26-6.19.26-9.84a84,84,0,0,0-.59-11,18.78,18.78,0,0,0-.9-3.91,3.15,3.15,0,0,0-1.24-1.8.51.51,0,0,1-.28-.58.53.53,0,0,1,.51-.39s.59,0,1.58,0a97.2,97.2,0,0,0,11.53-.66,37.56,37.56,0,0,0,6.22-1.25,8.63,8.63,0,0,0,3.93-2.16.49.49,0,0,1,.64-.11.51.51,0,0,1,.23.61l-.48-.17.39.33a9.51,9.51,0,0,1-4.41,2.47c-5.67,1.77-14.45,1.95-18.05,2-1,0-1.6,0-1.6,0v-.51l.22-.46a4,4,0,0,1,1.75,2.36,26.93,26.93,0,0,1,1.24,6.67c.23,2.67.32,5.66.32,8.58,0,7.36-.53,14.27-.53,14.27l-.51,0-.46-.21a14.66,14.66,0,0,1,7.58-7.34,26.07,26.07,0,0,1,10.45-1.92c9.88,0,19.69,3.76,19.72,3.77a.51.51,0,0,1-.32,1c-7.29-2.1-11.73-5.71-14.32-9.75a22.48,22.48,0,0,1-3.34-12.25,29.94,29.94,0,0,1,1.38-9l.48.17.39.33Z"/><path class="cls-6" d="M106.81,302.43s-18.56,14.25-19,19.86c0,0-16.84-24.6-24.17-25.9,0,0,19-3.45,21.15-10.79C84.8,285.6,87.39,298.12,106.81,302.43Z"/><path class="cls-7" d="M106.81,302.43l.31.41-.8.62c-1.77,1.39-6.21,5-10.25,8.79a58.27,58.27,0,0,0-5.35,5.67c-1.43,1.78-2.33,3.4-2.4,4.41a.5.5,0,0,1-.37.45.51.51,0,0,1-.55-.2l-.74-1.06c-1.65-2.35-5.9-8.27-10.52-13.73a77.77,77.77,0,0,0-6.93-7.33c-2.2-2-4.25-3.33-5.65-3.57a.51.51,0,0,1-.42-.5.51.51,0,0,1,.42-.5l.8-.16a67,67,0,0,0,10.75-3.16A28.33,28.33,0,0,0,81,289.45a8.13,8.13,0,0,0,3.27-4,.5.5,0,0,1,1,0v0a17.25,17.25,0,0,0,3.9,6.89c3.06,3.5,8.4,7.46,17.72,9.53a.49.49,0,0,1,.38.39.5.5,0,0,1-.18.51l-.31-.41-.11.5c-9.81-2.18-15.43-6.45-18.57-10.2a17.63,17.63,0,0,1-3.83-7l.5-.1.48.14c-.6,2-2.29,3.68-4.42,5.07a42.9,42.9,0,0,1-11,4.59c-3.48,1-6.16,1.49-6.17,1.49l-.09-.5.08-.5a9.11,9.11,0,0,1,3.35,1.57c4.17,2.86,9.42,9,13.68,14.4S88.23,322,88.24,322l-.42.29-.51,0a6.52,6.52,0,0,1,1-2.68c2-3.36,6.52-7.7,10.57-11.25s7.6-6.28,7.61-6.29l.31.4-.11.5Z"/></g><g id="patita"><g id="cabeza"><g id="cabeza-2" data-name="cabeza"><path class="cls-3" d="M53.26,207A121.31,121.31,0,0,0,208.7,279.4c60.5-22.1,92.65-87.93,71-148.59-23-64.92-95.85-97.83-160-73C60.11,81,31.16,147,53.26,207Z"/></g><g id="ojos"><g id="ojos-2" data-name="ojos"><path class="cls-8" d="M107.66,211.73c8.23,2.29,17.83-9.14,25.76-12.49,10.66-4.42,24.08-8.8,29.72-18.86,3.81-6.71,3.33-14.93-.48-21.63-3-5.34-6.38-9.65-12.48-11.17-10.82-2.75-26.52,3.5-35.66,9.75-8.69,5.94-19.2,18-21,28.5-.46,3,.91,7.46,2.13,10.36C97.91,201.68,101.87,210.36,107.66,211.73Z"/><path d="M97,195.73c-1.22-2.74-2.28-6.85-1.83-9.45l-3.35-.6c-.61,3.5.92,8.22,2.29,11.27Z"/><path d="M95.16,186.13c1.68-9.9,11.43-21.79,20.12-27.73l-1.52-2.14c-8.84,6.1-20,18.29-22,29.26Z"/><path class="cls-9" d="M95.16,186.13l-3.35-.61"/><path d="M115.28,158.4c9-6.1,24.23-12.8,34.75-10.06l.3-1.37c-11-2.75-27.28,2.89-36.57,9.29Z"/><path class="cls-9" d="M115.28,158.4l-1.52-2.14"/><path d="M133.11,198.93c-8.08,3.36-17.68,14.33-25.3,12l-.45,1.83c9,2.29,18.44-9.75,26.21-13Z"/><path class="cls-9" d="M133.26,198.93l.31.92"/><path d="M107.81,211c-5.18-1.37-8.38-10.06-10.82-15.39L94.1,196.8c2.44,5.49,7.16,14.17,13.26,16Z"/><path class="cls-9" d="M107.81,211l-.45,1.83"/><path class="cls-8" d="M274.23,155c-6,6.56-20.88-.15-29.57,1.68-8.38,1.68-19.89,3.68-27.82.79-6.7-2.44-11.06-13.34-12-17.29s-2.72-8.19,0-13.06c5.79-10.52,24.23-16.31,36.12-16.77,8.84-.45,21.94,3,28.19,9.45,3.05,3,4.57,9,5.33,13.26C275.75,139.5,278.5,150.17,274.23,155Z"/><path d="M275.9,132.79c-.76-4.26-2.28-10.66-5.63-14.17l-2.44,2.29c2.74,2.74,4.26,8.38,5,12.49Z"/><path d="M270.42,118.47c-6.86-6.71-20.42-9.91-29.57-9.6l.16,2.59c8.68-.31,21,3.35,27,9.45Z"/><path class="cls-9" d="M270.42,118.62,268,120.91"/><path d="M241,109.17c-12.2.46-30.79,7-36.73,17.68l1.22.61c5.48-10.21,23.77-15.39,35.51-15.85Z"/><path class="cls-9" d="M240.85,109l.16,2.59"/><path d="M244.51,157.33c8.54-1.68,23.47,5.33,30.18-1.52l-1.38-1.38c-5.33,6.25-20.11,0-28.95,1.83Z"/><path class="cls-9" d="M244.51,157.18l-.15-.92"/><path d="M274.53,155.5c4.73-5.33,2.59-16.46,1.37-22.86l-3,.61c1.37,6.55,4.57,16.76.45,21Z"/><path class="cls-9" d="M274.69,155.65l-1.38-1.37"/><path d="M95.16,194.82c-.45.15-2.89,2.59-5.33,2.13l-.3,1.68a16.59,16.59,0,0,0,6.4-.76Z"/><path d="M89.83,197c-2.59-.45-5.18-3.35-5.33-3.5l-.61.76a10,10,0,0,0,5.64,4.42Z"/><path class="cls-9" d="M89.83,197l-.3,1.68"/><path d="M93.64,184.15c-.76.15-2.44,1.83-5.49.76l-.6,1.68a21.19,21.19,0,0,0,5.94.91Z"/><path class="cls-9" d="M93.64,184.15l-.15,3.35"/><path d="M88.15,184.91A13.76,13.76,0,0,1,81,179.73l-.46.61c-.15-.15,1.53,4.27,7,6.25Z"/><path class="cls-9" d="M88.15,184.91l-.6,1.68"/><path d="M97,195.73c-1.22-2.74-2.28-6.85-1.83-9.45l-3.35-.6c-.61,3.5.92,8.22,2.29,11.27Z"/><path class="cls-9" d="M97,195.73,94.1,197"/><path d="M275.9,133.86a65.54,65.54,0,0,0,3.2-6.86l-1.67-.61c-1.07,2.9-4.12,5.79-4.27,6Z"/><path d="M279.1,127a20.53,20.53,0,0,0,.61-6.7l-.61-.15a59.74,59.74,0,0,1-1.67,6.24Z"/><path class="cls-9" d="M279.1,127l-1.67-.61"/><path d="M269.81,121.21c-.46.15,2.74-1.22,4.27-2.89l-1.38-1.07c-.76,1.22-3.81.91-4.26,1.07Z"/><path class="cls-9" d="M269.81,121.36l-1.37-3"/><path d="M274.23,118.32c2.59-3.36,1.22-10.21,1.22-10.06l-.76-.15c0,.15.3,6.55-2,9.14Z"/><path class="cls-9" d="M274.08,118.32l-1.38-1.07"/><path d="M275.9,132.79c-.76-4.26-2.28-10.66-5.63-14.17l-2.44,2.29c2.74,2.74,4.26,8.38,5,12.49Z"/><path class="cls-9" d="M275.9,132.79l-3,.61"/></g><g id="pupilas_2" data-name="pupilas 2"><path class="cls-10" d="M142.42,177.51c2,5.8,7.93,9.3,13.72,7.47s8.53-8.23,6.7-14c-2-5.79-7.92-9.29-13.71-7.47A10.87,10.87,0,0,0,142.42,177.51Z"/><path class="cls-10" d="M247.6,144.23a10.58,10.58,0,1,0,6.86-13.11A10.45,10.45,0,0,0,247.6,144.23Z"/></g></g><g id="cejas"><path class="cls-11" d="M139.36,82.5s-14.78-4.11-36.73,6.56c-23.92,11.58-30.17,27.28-30.17,27.28"/><path class="cls-11" d="M186.3,65.89s4-5.94,20.27-8.68"/></g><g id="boca"><g id="boca-2" data-name="boca"><path class="cls-12" d="M98.79,219.36c-1.8,3,9.41,15.49,14.8,19.32,5.7,4,19.5,7.54,24.52,8.14,8.69,1.07,38.66-2.73,44.48-4.14,4.82-1.09,29.66-10.76,34.56-13.45,4.18-2.28,22.33-12.35,26.16-19.07,3.56-6.13,6.83-27.84,2.63-29.66-1.45-.64-6.84,3.61-9,4.7-5.82,2.73-22.37,10.11-24.85,11-3.7,1.4-37.81,9.72-38.32,9.82s-28.53,8.42-36.06,9.9c-5,1-17.38,2.51-24.69,3C108.85,219.36,99.78,217.7,98.79,219.36Z"/></g><g id="lengua"><g class="cls-13"><path class="cls-14" d="M139.72,255.64c9.5,3.16,24.07,3.2,33.46-.25,4.69-1.72,12.93-4.93,13.27-9.9.24-3.49-4.74-7.28-7.87-9-6.08-3.3-16.2-2.9-23.13-2.45-5.51.29-13.23,1.42-18.13,4.1-3.47,1.88-10.11,5.18-9.83,9.23C127.83,251.76,135.49,254.36,139.72,255.64Z"/></g></g><g id="dientes"><g class="cls-13"><path class="cls-15" d="M56.15,189.23c10.68-30.45,57.54-51.35,88-62,30.22-10.6,78.23-21.67,106.5-6.59,13.64,7.38,29.2,42.58,29.2,42.58S218.06,201,176.59,214.33c-41.21,13.3-108.71,22.25-112.7,18.8C62.32,231.85,51.64,201.91,56.15,189.23Z"/></g><g class="cls-13"><path class="cls-16" d="M311.92,268.53c-10.7,30.32-57.41,51.33-87.89,62-30.22,10.6-79.35,23.35-106.63,6.62C93.76,322.72,79,253.73,78.93,253.61s71.59,5.73,112.54-4.87c42.32-11,99.31-54.44,104-51.93C298.49,198.47,319.18,247.63,311.92,268.53Z"/></g></g></g><g id="El_pico" data-name="El pico"><path class="cls-17" d="M226.68,180c9.14.15,30.33-4.12,30.48-4.12a252.37,252.37,0,0,0,23,17.07c6.86,4.42,13,7.62,13.87,8.23.76.61,12.95,3.5,13.87,8.84,4.26,23.62-52.43,30-64.92,35.51-13.26,5.79-50.9,36-74.52,25.9-5.49-2.28-10.06-13.71-10.67-15.08-.76-1.38-2.9-9.91-5.79-20-3.35-11.27-6.71-22.4-6.71-22.4,0-.15,22.86-10.67,31.09-17.37,6.86-5.64,9.45-18.75,19.36-22.25C206.26,170.74,217.08,179.73,226.68,180Z"/><path d="M196.35,181.41c.16.15,1.38,3.66,1.22,4.72h2.75c0-2-2.44-5.33-2.44-5.18Z"/><path d="M197.73,186.28c0,1.38-1.53,5.64-1.53,5.8l1.07.45s2.89-3.81,3-6.25Z"/><path class="cls-9" d="M197.57,186.28h2.75"/><path d="M203.67,179.58s2.13,3.35,3.66,4.42l1.22-1.68a34.9,34.9,0,0,1-4-3.66Z"/><path class="cls-9" d="M203.67,179.58l.91-.92"/><path d="M207.48,184.15c1.83,1.22,6.55,2,6.55,2l.31-.91a39.21,39.21,0,0,1-5.79-2.9Z"/><path class="cls-9" d="M207.33,184l1.22-1.68"/></g></g><g id="mechon"><path class="cls-3" d="M118.23,48.14c-.18-10.41-7-23.7-15.16-31.37C92,6.46,70.64,1.31,58.88.42c-7.35-.62-17.64.33-29.56,5C15.46,10.69.12,24.31.25,24.39s13.15-2,24.58,3A32.61,32.61,0,0,1,37.08,37.84c.06.21-7,5.86-10.3,15.62a59.65,59.65,0,0,0-1.06,32.29s6.39-11.26,13.5-14.09c6.62-2.56,15.69.73,18.09,1.14,2.67.56,13.61,5.9,19.59,6.48,8.45.86,22.14,1.74,29.32-3.5C113.6,70.47,118.46,57.18,118.23,48.14Z"/></g><g id="cole"><path class="cls-18" d="M130.49,53.31c.25-1.44-2.6-7.86-4.19-10.11-1.19-1.68-4.6-5.43-5.7-5.67-3.9-.87-23.27,14.08-26.51,16.54C90.49,56.86,67.7,73.3,67.84,77.92c0,1.24,3.84,5.56,6.18,8,2.28,2.27,6.25,5.63,7.55,5.8,3.92.53,23.34-13.53,26.44-16.06S129.89,57.36,130.49,53.31Z"/></g></g></g></g></svg>