<svg xmlns="http://www.w3.org/2000/svg" xmlns:xlink="http://www.w3.org/1999/xlink" viewBox="0 0 311.34 394.89"><defs><style>.cls-1,.cls-6,.cls-7,.cls-9{fill:none;}.cls-2{fill:#f0eb6b;}.cls-10,.cls-12,.cls-13,.cls-2,.cls-3,.cls-5,.cls-6,.cls-7,.cls-8,.cls-9{stroke:#000;stroke-linejoin:round;}.cls-10,.cls-12,.cls-13,.cls-2,.cls-3,.cls-5,.cls-6,.cls-7,.cls-8{stroke-linecap:round;}.cls-13,.cls-2,.cls-3,.cls-8{stroke-width:0.5px;}.cls-3{fill:#6599ff;}.cls-4{clip-path:url(#clip-path);}.cls-5{fill:#fffca0;stroke-width:0.75px;}.cls-6{stroke-width:3px;}.cls-7{stroke-width:2px;}.cls-8{fill:#f6e003;}.cls-10{fill:#114283;}.cls-11{fill:#fff;}.cls-12{fill:#74baed;}.cls-13{fill:#abf680;}</style><clipPath id="clip-path"><path class="cls-1" d="M149.88,288.18c-10.21,4.57-25.46,12.2-30,22.41-3.35,7.32,1.22,25.77,1.22,26.84.24,2.22,5.71,29.52,9.36,51.69,0,0,25,.4,66.88,0s78.54.87,78.79-.13c-2.52-9.47-5.45-18.33-8.49-26.44-7.62-20.43-31.26-49.25-38.12-58.1-3.66-4.57-14-23.33-24.24-27C189.38,271.86,165.28,281.16,149.88,288.18Z"/></clipPath></defs><title>Mistake feedback_SUKI_1</title><g id="Layer_2" data-name="Layer 2"><g id="Layer_4" data-name="Layer 4"><g id="brazo_izq" data-name="brazo izq"><path class="cls-2" d="M208.73,273.15c4.21-6.27,12.56-3.48,13-3.41,2.21.25,48.86,36.23,49.38,36.61.51.22,23.93,3.18,18.23,16.13S262,326,258.56,323.59c-3-2-46.17-33.12-47.75-36.1C210.41,286.94,204.14,279.94,208.73,273.15Z"/></g><g id="cola"><path class="cls-3" d="M118.83,389.16c.72-5.69,1.47-9.64,1.47-9.64s3.08,4,7.79,9.64Z"/></g><g id="cuerpo"><g id="cuerpo-2" data-name="cuerpo"><path class="cls-2" d="M130.63,389.16c-3.65-22.09-9.33-49.53-9.57-51.73,0-1.07-3.88-30-.52-37.29,4.57-10.22,19.13-7.39,29.34-12,15.4-7,39.5-16.32,55.36-10.68,10.21,3.66,20.58,22.42,24.24,27,6.86,8.85,30.5,37.67,38.12,58.1,3,8.09,6,17.14,8.5,26.57Z"/></g><g id="detalle"><g class="cls-4"><path class="cls-5" d="M296.74,389.16H177.62c-.35-4.9-.75-9.43-1.2-13.15-3.66-29.43-27.3-77-19.37-97.44,3.35-8.38,19.21-23.48,31.26-27.45,11.59-3.81,32.78-.45,40.56,4,20.59,11.89,41.63,63.13,54.74,92.56,5.26,11.87,11.51,30.51,16.47,46.86h-3.34Z"/></g></g></g><g id="cabeza"><path class="cls-2" d="M103.53,72.72c50-14.79,94.84-4.73,130.22,28.21C272.94,137.52,282.09,222,273.4,243.35c-6.56,16-18.15,43-92.87,59.31C91.48,322,61.36,292.26,49,280.06c-30.39-39.49-39.56-74.49-18.37-138C43.75,106.11,65.71,83.85,103.53,72.72Z"/></g><g id="brazo_der" data-name="brazo der"><path class="cls-2" d="M143.48,329.65c-1.37,2-38.27,17.24-38.58,19.07-.46,2.28,29.58,30,38.12,38.42.57.57,1.34,1.26,2.21,2h-35.7c-13.77-11.8-28.8-27-28-36.48,1.22-14.49,49.41-40.87,51.84-41.17"/></g><g id="cejas"><path class="cls-6" d="M94.14,187.52s11.88,2.91,38.31,6.2c28.36,3.53,36.44.2,36.44.2"/></g><g id="cejas-2" data-name="cejas"><path class="cls-6" d="M193.37,170.28s10.69-19.25,25.3-20.67c19.68-1.92,27.45,5.88,27.45,5.88"/></g><g id="cejas-3" data-name="cejas"><path class="cls-7" d="M99.27,241.74a136.09,136.09,0,0,0,49,7.13c32.79-1.6,34.57-7.66,34.57-7.66"/></g><g id="El_pico" data-name="El pico"><path class="cls-8" d="M200.11,216.29c-9.15,1.53-14.79,14.79-22.57,19.22-9.15,5.49-33.24,12.35-33.39,12.5,0,.15,8.08,11,15.24,22.72,6.41,10.67,9.15,18.45,11.75,21.65,2.44,2.9,10.21,13.12,17.53,15.1,21.81,5.95,53.52-15.1,66.33-20.13,11.44-4.57,62.06-8.08,55.51-27-1.68-5.18-13.73-4.88-15.86-5.49-2.29-.76-9.3-.61-17.38-5C262.32,241.61,252.56,227,252.56,227s-17.53,1.37-25,0C219,225.44,209.26,214.77,200.11,216.29Z"/><path d="M202.4,222.39c0-.15,2.89,3.51,3,6H202.7c.15-1.37-1.68-5.18-1.68-5.34Z"/><path d="M205.45,228.34c-.16,2.44-3.21,6.1-3.21,6.1l-1.06-.46c0-.15,1.67-4.27,1.52-5.64Z"/><path class="cls-9" d="M205.45,228.34H202.7"/><path d="M208.19,221.17a35.83,35.83,0,0,0,4,4.42L211.09,227c-1.53-1.22-3.66-5-3.66-5Z"/><path class="cls-9" d="M208.19,221.17l-.91.77"/><path d="M212,225.59c1.53,1.22,5.64,3.82,5.64,3.82l-.3.61s-4.73-1.68-6.41-3.05Z"/><path class="cls-9" d="M212,225.59,210.93,227"/></g><path class="cls-10" d="M223.12,181.17a14.61,14.61,0,1,1-14,15.15A14.61,14.61,0,0,1,223.12,181.17Z"/><g id="brazo_izq-2" data-name="brazo izq"><path class="cls-2" d="M260.61,314.63c-2.89-3-21.4-19.27-29.94-32.07-.77-1.07-5.49-4.1-12.83-8.32-4.53-2.61-8.79-8-7.1-10.58,1-1.36,8.77-2.67,21.57-2.13,11.32.47,14.58,5.87,15.95,7.25,6.86,7.32,27,30.15,27.3,30.61s12.77,10.64,13.38,12.77c.15.46,3.84,8.16-1.65,13.35"/></g><g id="ojos"><g id="ojos-2" data-name="ojos"><path class="cls-11" d="M93.88,213.94c-.49-1.83-.8-4.66.09-6.33,5.36-9.29,23-10.8,33.76-11.74,9.5-.86,24.72-1.71,31.61,5a9.57,9.57,0,0,1,2.27,6.44,13.12,13.12,0,0,1-3.36,7.54c-7,7.15-21.32,10.19-31.2,11-8.65.68-21.49-.23-28.65-5.36A15.24,15.24,0,0,1,93.88,213.94Z"/><path d="M92.42,214.41c-.62-1.95-1-5.4.26-7.59l2.84,1.68c-.81,1.05-.53,3.39,0,5.09Z"/><path d="M92.68,206.82c6.19-9.83,24.35-11.25,35-12.18l.16,2.47c-10.62.93-27.64,2.77-32.43,11.27Z"/><path class="cls-9" d="M92.68,206.82l2.84,1.68"/><path d="M127.66,194.76c9.62-.87,25-1.11,32.15,5.75l-.93,1.05c-6.62-6.52-21.43-5.07-31.06-4.2Z"/><path class="cls-9" d="M127.66,194.76l.15,2.47"/><path d="M127.2,226.32c-8.77.69-21.84.17-29.12-4.95l1.14-1.56c6.9,4.89,19.4,6.2,28.05,5.64Z"/><path class="cls-9" d="M127.2,226.32l-.06-1"/><path d="M98,221.26c-2.08-1.48-4.75-4.29-5.53-6.85l3-.94c.63,2.07,1.81,5,3.63,6.22Z"/><path class="cls-9" d="M98,221.26l1.14-1.57"/><path class="cls-11" d="M260.29,188.76c-.44-2.41-1.53-5.76-3-7.54-8.11-8.63-22.56-6.7-31.22-4.86-7.68,1.59-19.51,5.34-21.68,14.61-.53,2.14.28,5.95,1.29,8.29a23.19,23.19,0,0,0,6,8c8.34,6.1,21,6.51,28.93,4.64,6.94-1.62,16.22-6.51,19.25-14.08C260.85,195.64,260.82,191.66,260.29,188.76Z"/><path d="M258.81,188.71c-.41-2.08-1.31-5-2.39-6.08l1.69-2.81c2,2.27,3.26,6.39,3.76,9Z"/><path d="M256.42,182.63c-7.28-8.12-21.28-6.56-29.94-4.72l-1-3c8.66-1.85,23.49-4.29,32.49,5Z"/><path class="cls-9" d="M256.42,182.63l1.69-2.81"/><path d="M226.53,177.9c-7.67,1.59-19.45,4.78-21.54,13.67l-.66-.44c2.41-9.55,13.51-14.68,21.19-16.27Z"/><path d="M240.41,211.44c6.94-1.62,15.76-7,18.65-14.33l1.94.42c-3.27,7.84-13.14,13.46-20.08,15.08Z"/><path class="cls-9" d="M240.41,211.44l.4,1.21"/><path d="M259.06,197.11c.86-1.94.26-5.84-.25-8.4l3,.1a16.79,16.79,0,0,1-.79,8.79Z"/><path d="M93.86,215.56a27.56,27.56,0,0,1-6.77-1.05l.51-1.65c2.66.82,6.18-.4,6.43-.42Z"/><path d="M87.09,214.51a15.83,15.83,0,0,1-5.85-4.1l.57-.78a19.76,19.76,0,0,0,5.79,3.23Z"/><path class="cls-9" d="M87.09,214.51l.51-1.65"/><path d="M93.7,209.24a26.81,26.81,0,0,1-7-2.65l.77-1.54a9.46,9.46,0,0,0,7,.91Z"/><path class="cls-9" d="M93.7,209.24l.79-3.16"/><path d="M86.59,206.72a17,17,0,0,1-7.41-7.1l.57-.66a22.27,22.27,0,0,0,7.61,6.22Z"/><path class="cls-9" d="M86.59,206.72l.77-1.54"/><path d="M92.42,214.41c-.62-1.95-1-5.4.26-7.59l2.84,1.68c-.81,1.05-.53,3.39,0,5.09Z"/><path class="cls-9" d="M92.42,214.41l3-.94"/><path d="M259.33,187.1c.2-.09,3.87-.61,5.44-2.86l1.32,1.66a50.27,50.27,0,0,1-4.77,4.67Z"/><path d="M264.73,184.3a31.66,31.66,0,0,0,3-5.19l.56.45s-.48,4.2-2.22,6.34Z"/><path d="M256.24,179.41c.3-.13,4.61,0,6-2.45l1.45.8c-1.69,2.82-5.77,5.45-5.46,5.32Z"/><path class="cls-9" d="M256.24,179.41l2.05,3.62"/><path d="M262.17,177c1.87-3.24,2.31-11.59,2.31-11.59l.67.41s.57,8.11-1.52,12Z"/><path d="M258.81,188.71c-.41-2.08-1.31-5-2.39-6.08l1.69-2.81c2,2.27,3.26,6.39,3.76,9Z"/><path class="cls-9" d="M258.81,188.71l3,.1"/></g><g id="pupilas_2" data-name="pupilas 2"><path class="cls-12" d="M147.71,197a15.08,15.08,0,1,1-14.91,15.24A15.09,15.09,0,0,1,147.71,197Z"/></g></g><g id="mechon"><path class="cls-2" d="M96.22,88c-8.29,3.79-21.87.11-30.18-2.49-5.89-1.81-15.79-9.42-18.37-10.53-2.32-.9-10.77-6.07-17.94-4.85C22,71.48,13.28,81.49,13.28,81.49A61.16,61.16,0,0,1,21,49.25c5.32-9.13,13.57-13.37,13.55-13.59a33.52,33.52,0,0,0-10.18-13C13.88,15.24.25,14.6.25,14.6S18.34,4,33.36,1.44C46.28-.77,56.83.39,64.09,2.52c11.64,3.3,32,12.86,41.06,25.49,6.59,9.37,10.76,24.13,8.81,34.63C112.34,71.77,104.73,84.14,96.22,88Z"/></g><g id="cole"><path class="cls-13" d="M98,88.24C94.4,90.14,72,100.29,68.18,99c-1.27-.44-4.58-4.62-6.4-7.37-1.85-3-4.79-8.09-4.57-9.34.8-4.67,27.08-16.53,31.27-18.6,3.76-1.8,26.29-12.86,30-11.19,1,.47,3.71,4.93,4.56,6.87,1.14,2.59,2.68,9.63,2.14,11C123.79,74.3,101.68,86.33,98,88.24Z"/></g><path class="cls-12" d="M243.46,180.3a15.08,15.08,0,1,1-14.91,15.24A15.09,15.09,0,0,1,243.46,180.3Z"/></g></g></svg>