<svg xmlns="http://www.w3.org/2000/svg" xmlns:xlink="http://www.w3.org/1999/xlink" viewBox="0 0 296.39 328.95"><defs><style>.cls-1,.cls-10,.cls-12,.cls-9{fill:none;}.cls-2,.cls-3,.cls-4{fill:#6599ff;}.cls-10,.cls-11,.cls-12,.cls-2,.cls-3,.cls-4,.cls-6,.cls-8,.cls-9{stroke:#000;}.cls-2{stroke-miterlimit:10;}.cls-11,.cls-2,.cls-3,.cls-6{stroke-width:0.5px;}.cls-10,.cls-11,.cls-3,.cls-4,.cls-6,.cls-8,.cls-9{stroke-linecap:round;}.cls-10,.cls-11,.cls-12,.cls-3,.cls-4,.cls-6,.cls-8,.cls-9{stroke-linejoin:round;}.cls-4{stroke-width:0.75px;}.cls-5{clip-path:url(#clip-path);}.cls-6{fill:#f5ece3;}.cls-7{fill:#fff;}.cls-8{fill:#114283;}.cls-9{stroke-width:3px;}.cls-10{stroke-width:2px;}.cls-11{fill:#ff9531;}</style><clipPath id="clip-path"><path class="cls-1" d="M134.94,222.37c-10.22,4.57-25.47,12.2-30,22.41-3.36,7.32,1.22,25.77,1.22,26.84.23,2.21,5.7,29.52,9.35,51.69,0,0,25,.4,66.88,0s78.55.87,78.79-.13c-2.51-9.47-5.45-18.33-8.49-26.44-7.62-20.43-31.25-49.25-38.12-58.1-3.66-4.57-14-23.33-24.24-27C174.43,206.05,150.34,215.35,134.94,222.37Z"/></clipPath></defs><title>kuno feedback negativo</title><g id="Layer_2" data-name="Layer 2"><g id="Layer_4" data-name="Layer 4"><g id="brazo_izq" data-name="brazo izq"><path class="cls-2" d="M193.78,207.34c4.21-6.27,12.56-3.49,13-3.41,2.2.25,48.85,36.23,49.38,36.61.5.22,23.92,3.17,18.22,16.12s-27.33,3.48-30.81,1.12c-3-2-46.17-33.12-47.75-36.1C195.46,221.12,189.19,214.13,193.78,207.34Z"/></g><g id="cola"><path class="cls-3" d="M103.88,323.35c.72-5.7,1.47-9.64,1.47-9.64s3.08,4,7.79,9.64Z"/></g><g id="cuerpo"><g id="cuerpo-2" data-name="cuerpo"><path class="cls-4" d="M115.69,323.35c-3.66-22.09-9.34-49.53-9.57-51.73,0-1.07-4.58-19.52-1.22-26.84,4.57-10.21,19.82-17.84,30-22.41,15.4-7,39.49-16.32,55.35-10.68,10.21,3.66,20.58,22.42,24.24,27,6.87,8.85,30.5,37.67,38.12,58.1,3,8.09,6,17.13,8.51,26.57Z"/></g><g id="detalle"><g class="cls-5"><path class="cls-6" d="M281.8,323.35H162.67c-.35-4.9-.74-9.43-1.2-13.15-3.66-29.43-27.3-77-19.37-97.44,3.36-8.39,19.22-23.48,31.26-27.45,11.59-3.81,32.79-.45,40.56,4,20.59,11.89,41.63,63.13,54.75,92.56,5.25,11.86,11.51,30.51,16.46,46.86H281.8Z"/></g></g></g><g id="pelo_extIzq" data-name="pelo extIzq"><path class="cls-2" d="M228.87,123.1c5.94-.92,23.48,15.7,30.49,25.31,8.24,11.44,16.93,43.76,16.93,43.76s-25-4.57-35.38-7.47c-7.47-2.13-22.56-6.4-24.55-8.84-2.44-2.9-6.25-22.11-3.81-31.11C214.84,136.82,224.9,123.71,228.87,123.1Z"/></g><g id="cabeza"><path class="cls-3" d="M88.58,6.9c50-14.79,94.85-4.72,130.22,28.21,39.19,36.6,48.34,121.08,39.65,142.43-6.56,16-18.15,43-92.86,59.31C76.53,256.22,48.17,229.23,35.82,217,22.55,203.76-2.91,126.91,15.69,76.29,28.81,40.3,50.76,18,88.58,6.9Z"/></g><g id="pelo_extDer" data-name="pelo extDer"><path class="cls-2" d="M24.81,158c-7,1.22-17.68,22.11-21.34,33.4C-1,204.79.42,238.18.57,238.18c0,0,23-11,31.41-17.84,7-5.64,19.06-17.38,20.13-22"/></g><g id="brazo_der" data-name="brazo der"><path class="cls-2" d="M128.53,263.84c-1.37,2-38.27,17.23-38.58,19.06-.45,2.29,29.59,30,38.12,38.43.58.57,1.34,1.26,2.21,2H94.58c-13.77-11.8-28.8-27-28-36.48C67.84,272.38,116,246,118.47,245.7"/></g><g id="ojos"><g id="ojos-2" data-name="ojos"><path class="cls-7" d="M78.8,150.84c-.5-2-1.16-4,.07-6.49,6.94-13.84,19-16.46,33.67-17.43,8.79.6,22-.18,31.62,8.68,2,1.85,2.38,5.25,2.44,7.6.07,2.92-.77,6.16-2.81,8.21-9.33,5.57-20.65,7.92-32.26,8.3-10.16.34-19,1.07-28.69-2.77A10,10,0,0,1,78.8,150.84Z"/></g><path d="M146.15,143.34s-.59-4.54-2.54-6.77-7.6-5.52-16.16-6.62-20.84-1.88-29.58.41-15,7.87-18.14,15S85.18,157.23,84,157.7s-3.2-1-5.22-3.52-2.44-6.52-.53-11.05a27.35,27.35,0,0,1,20.31-15.34c12.26-2.25,20.78-.59,29.69.32s17.27,5.7,18.53,8.33,1.45,6.07.94,7S146.15,143.34,146.15,143.34Z"/><g id="pupilas"><path class="cls-8" d="M105.31,130.57a14.6,14.6,0,1,1-14,15.14A14.61,14.61,0,0,1,105.31,130.57Z"/></g></g><g id="ojos-3" data-name="ojos"><g id="ojos-4" data-name="ojos"><path class="cls-7" d="M241.45,137.07c-6.68,6.13-13.59,6.93-21.43,8.43-9,1.72-18.07,1.15-26.27-3.43-1.95-1.95-3.21-5.45-3.71-8.77-.4-2.67-.76-6.58.43-9.05,5.71-11.8,15.95-13.36,22.56-15.67,11.39-1.59,21.15-.87,29.08,13.51,1.4,2.54,1.29,5,1.28,7.32A13.76,13.76,0,0,1,241.45,137.07Z"/></g><path d="M190.41,133.37s-.4-5.24.67-8.13,4.78-7.65,11.12-10.47,15.59-6,22.72-5,13,6.13,16.71,13.57-1.91,14.48-.9,14.79,2.26-1.74,3.33-4.95.64-7.82-1.68-12.59-8.64-13.32-18.45-13.61-16,3.17-22.67,5.85-12.14,9.65-12.6,12.85,0,7.14.6,8.11S190.41,133.37,190.41,133.37Z"/></g><g id="cejas"><path class="cls-9" d="M79.2,121.7s11.88,2.92,38.3,6.21c28.37,3.53,36.44.2,36.44.2"/></g><g id="cejas-2" data-name="cejas"><path class="cls-9" d="M178.42,104.47s10.69-19.25,25.31-20.68c19.68-1.92,27.44,5.88,27.44,5.88"/></g><g id="cejas-3" data-name="cejas"><path class="cls-10" d="M84.32,175.93a136.09,136.09,0,0,0,49,7.13c32.79-1.6,34.58-7.66,34.58-7.66"/></g><g id="El_pico" data-name="El pico"><path class="cls-11" d="M185.16,150.48c-9.15,1.53-14.79,14.79-22.57,19.21-9.15,5.49-33.24,12.36-33.39,12.51,0,.15,8.08,11,15.25,22.72,6.4,10.67,9.15,18.45,11.74,21.65,2.44,2.9,10.22,13.12,17.53,15.1,21.81,5.94,53.53-15.1,66.34-20.13,11.43-4.58,62.06-8.08,55.5-27-1.68-5.18-13.72-4.88-15.86-5.49-2.29-.76-9.3-.61-17.38-5-14.94-8.24-24.7-22.87-24.7-22.87s-17.54,1.37-25,0C204.07,159.63,194.31,149,185.16,150.48Z"/><path d="M187.45,156.58c0-.15,2.9,3.51,3.05,5.95h-2.75c.16-1.37-1.67-5.19-1.67-5.34Z"/><path d="M190.5,162.53c-.15,2.44-3.2,6.1-3.2,6.1l-1.07-.46c0-.15,1.68-4.27,1.52-5.64Z"/><path class="cls-12" d="M190.5,162.53h-2.75"/><path d="M193.24,155.36a36.16,36.16,0,0,0,4,4.42l-1.07,1.38c-1.52-1.22-3.66-5-3.66-5Z"/><path class="cls-12" d="M193.24,155.36l-.91.76"/><path d="M197.05,159.78c1.53,1.22,5.65,3.82,5.65,3.82l-.31.61s-4.73-1.68-6.4-3.05Z"/><path class="cls-12" d="M197.05,159.78,196,161.16"/></g><path class="cls-8" d="M208.17,115.36a14.6,14.6,0,1,1-14,15.14A14.61,14.61,0,0,1,208.17,115.36Z"/><g id="brazo_izq-2" data-name="brazo izq"><path class="cls-2" d="M245.67,248.82c-2.9-3-21.4-19.27-29.94-32.08-.78-1.07-5.5-4.1-12.83-8.31-4.54-2.61-8.8-8-7.1-10.58,1-1.36,8.76-2.67,21.56-2.14,11.33.48,14.58,5.88,15.95,7.25,6.86,7.32,27,30.16,27.3,30.61.46.46,12.77,10.65,13.38,12.78.15.46,3.84,8.16-1.65,13.34"/></g></g></g></svg>