<svg xmlns="http://www.w3.org/2000/svg" viewBox="0 0 330.31 99.23"><defs><style>.cls-1{fill:#1f8ebe;}</style></defs><title>flecha ambos</title><g id="Capa_2" data-name="Capa 2"><g id="Capa_1-2" data-name="Capa 1"><path class="cls-1" d="M86.65,21.44V2.71A2.7,2.7,0,0,0,82.59.37L1.36,47.27a2.71,2.71,0,0,0,0,4.69l81.24,46.9a2.71,2.71,0,0,0,4.06-2.35V77.79a2.71,2.71,0,0,1,2.71-2.71H241a2.71,2.71,0,0,1,2.71,2.71V96.51a2.71,2.71,0,0,0,4.06,2.35L329,52a2.7,2.7,0,0,0,0-4.69L247.72.37a2.7,2.7,0,0,0-4.06,2.34V21.44A2.72,2.72,0,0,1,241,24.15H89.36A2.71,2.71,0,0,1,86.65,21.44Z"/></g></g></svg>