<svg xmlns="http://www.w3.org/2000/svg" viewBox="0 0 275.56 243.94"><defs><style>.cls-1{fill:#1f8ebe;}</style></defs><title>flecha curva der</title><g id="Capa_2" data-name="Capa 2"><g id="Capa_1-2" data-name="Capa 1"><path class="cls-1" d="M193,243.58l81.23-46.9a2.71,2.71,0,0,0,0-4.7L193,145.09a2.71,2.71,0,0,0-4.06,2.35v18.72a2.7,2.7,0,0,1-2.37,2.67H88.07A37.06,37.06,0,0,1,51,131.77V2.71A2.71,2.71,0,0,0,48.29,0H2.71A2.71,2.71,0,0,0,0,2.71V131.77a88.07,88.07,0,0,0,88.07,88.06h98.48a2.71,2.71,0,0,1,2.36,2.68v18.72A2.71,2.71,0,0,0,193,243.58Z"/></g></g></svg>