<svg xmlns="http://www.w3.org/2000/svg" viewBox="0 0 166.73 410.25"><defs><style>.cls-1{fill:#1f8ebe;}</style></defs><title>llave izq</title><g id="Capa_2" data-name="Capa 2"><g id="Capa_1-2" data-name="Capa 1"><path class="cls-1" d="M153.58,410.25a12.89,12.89,0,0,1-2.5-.23,12,12,0,0,0-2.48-.22q-34.44-7.73-52.78-19.71T70.68,360.64q-6.81-17.44-6.8-39.18l.45-41.23q0-17.22-5-30.81A46.35,46.35,0,0,0,44,227.9Q33.51,220,17.22,220H15a14.39,14.39,0,0,1-10.64-4.31A14.41,14.41,0,0,1,0,205a13.68,13.68,0,0,1,4.31-10.42A14.81,14.81,0,0,1,15,190.53h2.72q16.75-.45,26.95-8.39t15-21.51a93,93,0,0,0,4.76-30.81l-.45-40.77q0-19.93,5.43-34.43A64.69,64.69,0,0,1,85.17,30.16a95.24,95.24,0,0,1,26.05-17.22A192.8,192.8,0,0,1,148.14.71q10.41-2.26,14.5,2.72a16.23,16.23,0,0,1,4.08,10.41A12.6,12.6,0,0,1,163.77,22a15,15,0,0,1-8.38,5q-24,7.71-36.24,16.31T102.61,63.9q-4.31,12-4.3,30.13l.45,40.78q0,27.63-11.78,46.2a55.33,55.33,0,0,1-33.07,24.47l-.45-.91q22.18,6.36,33.75,24.69T98.76,275.7L98.31,316q0,18.11,4.08,30.12t16.53,20.61q12.45,8.61,36.47,16.32,11.78,4.06,11.33,14.95a14.31,14.31,0,0,1-4.08,8.38A12,12,0,0,1,153.58,410.25Z"/></g></g></svg>