<svg xmlns="http://www.w3.org/2000/svg" viewBox="0 0 57.95 25.51"><defs><style>.cls-1{fill:#1f8ebe;}</style></defs><title>Infinito (6)</title><g id="Capa_2" data-name="Capa 2"><g id="Numeracion"><g id="Infinito"><path id="Infinito-2" data-name="Infinito" class="cls-1" d="M45.55,23A10,10,0,0,0,53,19.28a9.57,9.57,0,0,0,2-7.75,9.41,9.41,0,0,0-4.42-6.45,9.07,9.07,0,0,0-3.7-1.24,7.17,7.17,0,0,0-1.85,0,8.12,8.12,0,0,0-1.78.53,20.35,20.35,0,0,0-3.63,2.17c-1.19.87-2.38,1.8-3.54,2.8-2.32,2-4.6,4.12-7,6.2a81.16,81.16,0,0,1-7.43,6.09,30.4,30.4,0,0,1-4.3,2.58,12,12,0,0,1-5.28,1.31A12.62,12.62,0,0,1,2.81,21,12.21,12.21,0,0,1,.16,11.17a12,12,0,0,1,5.5-8.3,11.67,11.67,0,0,1,4.76-1.68,10.32,10.32,0,0,1,2.55,0,10.38,10.38,0,0,1,1.26.24c.4.14.82.24,1.2.4a30.84,30.84,0,0,1,8,5.34c2.4,2.06,4.67,4.23,7,6.34a84.42,84.42,0,0,0,7.16,6,28,28,0,0,0,3.89,2.39A9.46,9.46,0,0,0,45.55,23Zm0,1.87a11.21,11.21,0,0,1-4.86-1.48,28.63,28.63,0,0,1-4-2.69c-2.51-2-4.81-4.13-7.13-6.25s-4.6-4.26-7-6.23a29.42,29.42,0,0,0-7.67-4.94c-.34-.14-.7-.21-1-.33s-.7-.15-1.05-.18a6.13,6.13,0,0,0-1,0,6.38,6.38,0,0,0-1.08.12,10,10,0,0,0-4,1.58,9.94,9.94,0,0,0-4.32,7.06A9.71,9.71,0,0,0,4.83,19.2a9.49,9.49,0,0,0,7.28,3.05A9,9,0,0,0,15.79,21a25.57,25.57,0,0,0,3.63-2.47c2.35-1.88,4.64-3.95,6.92-6.08s4.58-4.29,7.05-6.35A31,31,0,0,1,41.82.72,11.74,11.74,0,0,1,44.58,0a8,8,0,0,1,1.47,0,10.47,10.47,0,0,1,1.36.15,12.87,12.87,0,0,1,5,2,12.55,12.55,0,0,1,5.43,8.91,12.27,12.27,0,0,1-12.32,13.7Z"/></g></g></g></svg>