<svg xmlns="http://www.w3.org/2000/svg" viewBox="0 0 33 20"><defs><style>.cls-1{fill:#1f8ebe;}</style></defs><title>Mayor Igual (6)</title><g id="Capa_2" data-name="Capa 2"><g id="Numeracion"><g id="Mayor_Igual" data-name="Mayor Igual"><g id="Mayor_Igual-2" data-name="Mayor Igual"><path class="cls-1" d="M.82,16.59l31.8-7.83a.49.49,0,0,0,0-1L.82,0a.5.5,0,0,0-.6.36L0,1.15a.48.48,0,0,0,.36.59L25.16,7.82a.48.48,0,0,1,0,.94L.38,14.87a.48.48,0,0,0-.36.59l.2.78A.49.49,0,0,0,.82,16.59Z"/><path class="cls-1" d="M1,20H32.13a.86.86,0,0,0,.87-.85v-.08a.86.86,0,0,0-.87-.85H1a.85.85,0,0,0-.86.85v.08A.85.85,0,0,0,1,20Z"/></g></g></g></g></svg>